<?xml version="1.0" encoding="UTF-8" standalone="no"?>
<!DOCTYPE svg PUBLIC "-//W3C//DTD SVG 1.1//EN"
 "http://www.w3.org/Graphics/SVG/1.1/DTD/svg11.dtd">
<!-- Generated by graphviz version 2.40.1 (20161225.0304)
 -->
<!-- Title: app_events/include/app_event_string.h Pages: 1 -->
<svg width="212pt" height="92pt"
 viewBox="0.00 0.00 212.26 92.00" xmlns="http://www.w3.org/2000/svg" xmlns:xlink="http://www.w3.org/1999/xlink">
<g id="graph0" class="graph" transform="scale(1 1) rotate(0) translate(4 88)">
<title>app_events/include/app_event_string.h</title>
<polygon fill="#ffffff" stroke="transparent" points="-4,4 -4,-88 208.2607,-88 208.2607,4 -4,4"/>
<!-- Node1 -->
<g id="node1" class="node">
<title>Node1</title>
<polygon fill="#bfbfbf" stroke="#000000" points="52.4902,-55.5 52.4902,-83.5 156.332,-83.5 156.332,-55.5 52.4902,-55.5"/>
<text text-anchor="start" x="60.4902" y="-71.5" font-family="Helvetica,sans-Serif" font-size="10.00" fill="#000000">app_events/include</text>
<text text-anchor="middle" x="104.4111" y="-61.5" font-family="Helvetica,sans-Serif" font-size="10.00" fill="#000000">/app_event_string.h</text>
</g>
<!-- Node2 -->
<g id="node2" class="node">
<title>Node2</title>
<g id="a_node2"><a xlink:href="rbac_8c.html" target="_top" xlink:title="applications/rbac.c">
<polygon fill="#ffffff" stroke="#000000" points="0,-.5 0,-18.5 98.8223,-18.5 98.8223,-.5 0,-.5"/>
<text text-anchor="middle" x="49.4111" y="-6.5" font-family="Helvetica,sans-Serif" font-size="10.00" fill="#000000">applications/rbac.c</text>
</a>
</g>
</g>
<!-- Node1&#45;&gt;Node2 -->
<g id="edge1" class="edge">
<title>Node1&#45;&gt;Node2</title>
<path fill="none" stroke="#191970" d="M84.3532,-47.6186C75.1668,-37.5971 64.7822,-26.2685 57.7383,-18.5842"/>
<polygon fill="#191970" stroke="#191970" points="82.0396,-50.2743 91.3769,-55.2808 87.1997,-45.5442 82.0396,-50.2743"/>
</g>
<!-- Node3 -->
<g id="node3" class="node">
<title>Node3</title>
<g id="a_node3"><a xlink:href="application_8c.html" target="_top" xlink:title="src/application.c">
<polygon fill="#ffffff" stroke="#000000" points="116.5615,-.5 116.5615,-18.5 204.2607,-18.5 204.2607,-.5 116.5615,-.5"/>
<text text-anchor="middle" x="160.4111" y="-6.5" font-family="Helvetica,sans-Serif" font-size="10.00" fill="#000000">src/application.c</text>
</a>
</g>
</g>
<!-- Node1&#45;&gt;Node3 -->
<g id="edge2" class="edge">
<title>Node1&#45;&gt;Node3</title>
<path fill="none" stroke="#191970" d="M124.5563,-47.9159C133.9775,-37.8217 144.6895,-26.3446 151.9326,-18.5842"/>
<polygon fill="#191970" stroke="#191970" points="121.9469,-45.5821 117.6824,-55.2808 127.0643,-50.3584 121.9469,-45.5821"/>
</g>
</g>
</svg>
