<?xml version="1.0" encoding="UTF-8" standalone="no"?>
<!DOCTYPE svg PUBLIC "-//W3C//DTD SVG 1.1//EN"
 "http://www.w3.org/Graphics/SVG/1.1/DTD/svg11.dtd">
<!-- Generated by graphviz version 2.40.1 (20161225.0304)
 -->
<!-- Title: app_events/include/app_event_string.h Pages: 1 -->
<svg width="355pt" height="92pt"
 viewBox="0.00 0.00 355.26 92.00" xmlns="http://www.w3.org/2000/svg" xmlns:xlink="http://www.w3.org/1999/xlink">
<g id="graph0" class="graph" transform="scale(1 1) rotate(0) translate(4 88)">
<title>app_events/include/app_event_string.h</title>
<polygon fill="#ffffff" stroke="transparent" points="-4,4 -4,-88 351.2607,-88 351.2607,4 -4,4"/>
<!-- Node1 -->
<g id="node1" class="node">
<title>Node1</title>
<polygon fill="#bfbfbf" stroke="#000000" points="127.4902,-55.5 127.4902,-83.5 231.332,-83.5 231.332,-55.5 127.4902,-55.5"/>
<text text-anchor="start" x="135.4902" y="-71.5" font-family="Helvetica,sans-Serif" font-size="10.00" fill="#000000">app_events/include</text>
<text text-anchor="middle" x="179.4111" y="-61.5" font-family="Helvetica,sans-Serif" font-size="10.00" fill="#000000">/app_event_string.h</text>
</g>
<!-- Node2 -->
<g id="node2" class="node">
<title>Node2</title>
<g id="a_node2"><a xlink:href="applications_2rbac_8c.html" target="_top" xlink:title="applications/rbac.c">
<polygon fill="#ffffff" stroke="#000000" points="0,-.5 0,-18.5 98.8223,-18.5 98.8223,-.5 0,-.5"/>
<text text-anchor="middle" x="49.4111" y="-6.5" font-family="Helvetica,sans-Serif" font-size="10.00" fill="#000000">applications/rbac.c</text>
</a>
</g>
</g>
<!-- Node1&#45;&gt;Node2 -->
<g id="edge1" class="edge">
<title>Node1&#45;&gt;Node2</title>
<path fill="none" stroke="#191970" d="M139.6194,-51.1346C116.2879,-40.3662 87.8289,-27.2313 69.1951,-18.6311"/>
<polygon fill="#191970" stroke="#191970" points="138.3856,-54.4199 148.9319,-55.4327 141.319,-48.0642 138.3856,-54.4199"/>
</g>
<!-- Node3 -->
<g id="node3" class="node">
<title>Node3</title>
<g id="a_node3"><a xlink:href="ext__apps_2rbac_2src_2rbac_8c.html" target="_top" xlink:title="ext_apps/rbac/src/rbac.c">
<polygon fill="#ffffff" stroke="#000000" points="116.9434,-.5 116.9434,-18.5 241.8789,-18.5 241.8789,-.5 116.9434,-.5"/>
<text text-anchor="middle" x="179.4111" y="-6.5" font-family="Helvetica,sans-Serif" font-size="10.00" fill="#000000">ext_apps/rbac/src/rbac.c</text>
</a>
</g>
</g>
<!-- Node1&#45;&gt;Node3 -->
<g id="edge2" class="edge">
<title>Node1&#45;&gt;Node3</title>
<path fill="none" stroke="#191970" d="M179.4111,-45.2151C179.4111,-35.8253 179.4111,-25.6598 179.4111,-18.5842"/>
<polygon fill="#191970" stroke="#191970" points="175.9112,-45.2808 179.4111,-55.2808 182.9112,-45.2809 175.9112,-45.2808"/>
</g>
<!-- Node4 -->
<g id="node4" class="node">
<title>Node4</title>
<g id="a_node4"><a xlink:href="application_8c.html" target="_top" xlink:title="src/application.c">
<polygon fill="#ffffff" stroke="#000000" points="259.5615,-.5 259.5615,-18.5 347.2607,-18.5 347.2607,-.5 259.5615,-.5"/>
<text text-anchor="middle" x="303.4111" y="-6.5" font-family="Helvetica,sans-Serif" font-size="10.00" fill="#000000">src/application.c</text>
</a>
</g>
</g>
<!-- Node1&#45;&gt;Node4 -->
<g id="edge3" class="edge">
<title>Node1&#45;&gt;Node4</title>
<path fill="none" stroke="#191970" d="M217.6634,-50.9908C239.8621,-40.2495 266.8455,-27.193 284.5403,-18.6311"/>
<polygon fill="#191970" stroke="#191970" points="215.9607,-47.9264 208.4836,-55.4327 219.0097,-54.2276 215.9607,-47.9264"/>
</g>
</g>
</svg>
