<?xml version="1.0" encoding="UTF-8" standalone="no"?>
<!DOCTYPE svg PUBLIC "-//W3C//DTD SVG 1.1//EN"
 "http://www.w3.org/Graphics/SVG/1.1/DTD/svg11.dtd">
<!-- Generated by graphviz version 2.40.1 (20161225.0304)
 -->
<!-- Title: app_events/include/app_event_epoll_env.h Pages: 1 -->
<svg width="428pt" height="92pt"
 viewBox="0.00 0.00 427.85 92.00" xmlns="http://www.w3.org/2000/svg" xmlns:xlink="http://www.w3.org/1999/xlink">
<g id="graph0" class="graph" transform="scale(1 1) rotate(0) translate(4 88)">
<title>app_events/include/app_event_epoll_env.h</title>
<polygon fill="#ffffff" stroke="transparent" points="-4,4 -4,-88 423.8496,-88 423.8496,4 -4,4"/>
<!-- Node0 -->
<g id="node1" class="node">
<title>Node0</title>
<polygon fill="#bfbfbf" stroke="#000000" points="127.6079,-55.5 127.6079,-83.5 249.0718,-83.5 249.0718,-55.5 127.6079,-55.5"/>
<text text-anchor="start" x="135.6079" y="-71.5" font-family="Helvetica,sans-Serif" font-size="10.00" fill="#000000">app_events/include</text>
<text text-anchor="middle" x="188.3398" y="-61.5" font-family="Helvetica,sans-Serif" font-size="10.00" fill="#000000">/app_event_epoll_env.h</text>
</g>
<!-- Node1 -->
<g id="node2" class="node">
<title>Node1</title>
<polygon fill="#ffffff" stroke="#bfbfbf" points="0,-.5 0,-18.5 42.6797,-18.5 42.6797,-.5 0,-.5"/>
<text text-anchor="middle" x="21.3398" y="-6.5" font-family="Helvetica,sans-Serif" font-size="10.00" fill="#000000">fcntl.h</text>
</g>
<!-- Node0&#45;&gt;Node1 -->
<g id="edge1" class="edge">
<title>Node0&#45;&gt;Node1</title>
<path fill="none" stroke="#191970" d="M149.1858,-55.4327C119.6492,-44.8207 79.6837,-30.4619 52.3464,-20.6401"/>
<polygon fill="#191970" stroke="#191970" points="53.4834,-17.3296 42.8889,-17.2422 51.1165,-23.9173 53.4834,-17.3296"/>
</g>
<!-- Node2 -->
<g id="node3" class="node">
<title>Node2</title>
<polygon fill="#ffffff" stroke="#bfbfbf" points="60.6577,-.5 60.6577,-18.5 110.022,-18.5 110.022,-.5 60.6577,-.5"/>
<text text-anchor="middle" x="85.3398" y="-6.5" font-family="Helvetica,sans-Serif" font-size="10.00" fill="#000000">netdb.h</text>
</g>
<!-- Node0&#45;&gt;Node2 -->
<g id="edge2" class="edge">
<title>Node0&#45;&gt;Node2</title>
<path fill="none" stroke="#191970" d="M164.1909,-55.4327C147.8876,-45.9356 126.4326,-33.4376 110.0192,-23.8763"/>
<polygon fill="#191970" stroke="#191970" points="111.4174,-20.6403 101.0148,-18.6311 107.8939,-26.6889 111.4174,-20.6403"/>
</g>
<!-- Node3 -->
<g id="node4" class="node">
<title>Node3</title>
<polygon fill="#ffffff" stroke="#bfbfbf" points="128.106,-.5 128.106,-18.5 178.5737,-18.5 178.5737,-.5 128.106,-.5"/>
<text text-anchor="middle" x="153.3398" y="-6.5" font-family="Helvetica,sans-Serif" font-size="10.00" fill="#000000">signal.h</text>
</g>
<!-- Node0&#45;&gt;Node3 -->
<g id="edge3" class="edge">
<title>Node0&#45;&gt;Node3</title>
<path fill="none" stroke="#191970" d="M180.0453,-55.2808C175.1761,-46.9336 168.9776,-36.3076 163.7784,-27.3946"/>
<polygon fill="#191970" stroke="#191970" points="166.7009,-25.4584 158.639,-18.5842 160.6545,-28.9856 166.7009,-25.4584"/>
</g>
<!-- Node4 -->
<g id="node5" class="node">
<title>Node4</title>
<polygon fill="#ffffff" stroke="#bfbfbf" points="196.7192,-.5 196.7192,-18.5 249.9604,-18.5 249.9604,-.5 196.7192,-.5"/>
<text text-anchor="middle" x="223.3398" y="-6.5" font-family="Helvetica,sans-Serif" font-size="10.00" fill="#000000">sys/un.h</text>
</g>
<!-- Node0&#45;&gt;Node4 -->
<g id="edge4" class="edge">
<title>Node0&#45;&gt;Node4</title>
<path fill="none" stroke="#191970" d="M196.6344,-55.2808C201.5036,-46.9336 207.702,-36.3076 212.9013,-27.3946"/>
<polygon fill="#191970" stroke="#191970" points="216.0252,-28.9856 218.0407,-18.5842 209.9787,-25.4584 216.0252,-28.9856"/>
</g>
<!-- Node5 -->
<g id="node6" class="node">
<title>Node5</title>
<polygon fill="#ffffff" stroke="#bfbfbf" points="267.7168,-.5 267.7168,-18.5 330.9629,-18.5 330.9629,-.5 267.7168,-.5"/>
<text text-anchor="middle" x="299.3398" y="-6.5" font-family="Helvetica,sans-Serif" font-size="10.00" fill="#000000">sys/epoll.h</text>
</g>
<!-- Node0&#45;&gt;Node5 -->
<g id="edge5" class="edge">
<title>Node0&#45;&gt;Node5</title>
<path fill="none" stroke="#191970" d="M214.3644,-55.4327C232.0982,-45.8468 255.488,-33.2037 273.2382,-23.609"/>
<polygon fill="#191970" stroke="#191970" points="275.3146,-26.4653 282.4474,-18.6311 271.986,-20.3073 275.3146,-26.4653"/>
</g>
<!-- Node6 -->
<g id="node7" class="node">
<title>Node6</title>
<polygon fill="#ffffff" stroke="#bfbfbf" points="348.8301,-.5 348.8301,-18.5 419.8496,-18.5 419.8496,-.5 348.8301,-.5"/>
<text text-anchor="middle" x="384.3398" y="-6.5" font-family="Helvetica,sans-Serif" font-size="10.00" fill="#000000">sys/socket.h</text>
</g>
<!-- Node0&#45;&gt;Node6 -->
<g id="edge6" class="edge">
<title>Node0&#45;&gt;Node6</title>
<path fill="none" stroke="#191970" d="M234.2931,-55.4327C267.8835,-45.1499 312.9662,-31.3491 344.9211,-21.567"/>
<polygon fill="#191970" stroke="#191970" points="346.2661,-24.8156 354.8035,-18.5417 344.217,-18.1222 346.2661,-24.8156"/>
</g>
</g>
</svg>
