<?xml version="1.0" encoding="UTF-8" standalone="no"?>
<!DOCTYPE svg PUBLIC "-//W3C//DTD SVG 1.1//EN"
 "http://www.w3.org/Graphics/SVG/1.1/DTD/svg11.dtd">
<!-- Generated by graphviz version 2.40.1 (20161225.0304)
 -->
<!-- Title: app_events/include/app_event_msg_pack.h Pages: 1 -->
<svg width="1459pt" height="257pt"
 viewBox="0.00 0.00 1459.35 257.00" xmlns="http://www.w3.org/2000/svg" xmlns:xlink="http://www.w3.org/1999/xlink">
<g id="graph0" class="graph" transform="scale(1 1) rotate(0) translate(4 253)">
<title>app_events/include/app_event_msg_pack.h</title>
<polygon fill="#ffffff" stroke="transparent" points="-4,4 -4,-253 1455.3472,-253 1455.3472,4 -4,4"/>
<!-- Node0 -->
<g id="node1" class="node">
<title>Node0</title>
<polygon fill="#bfbfbf" stroke="#000000" points="617.249,-220.5 617.249,-248.5 742.2139,-248.5 742.2139,-220.5 617.249,-220.5"/>
<text text-anchor="start" x="625.249" y="-236.5" font-family="Helvetica,sans-Serif" font-size="10.00" fill="#000000">app_events/include</text>
<text text-anchor="middle" x="679.7314" y="-226.5" font-family="Helvetica,sans-Serif" font-size="10.00" fill="#000000">/app_event_msg_pack.h</text>
</g>
<!-- Node1 -->
<g id="node2" class="node">
<title>Node1</title>
<g id="a_node2"><a xlink:href="app__events_2include_2app__event__json_8h.html" target="_top" xlink:title="app_event_json.h">
<polygon fill="#ffffff" stroke="#000000" points="632.2539,-165.5 632.2539,-183.5 727.209,-183.5 727.209,-165.5 632.2539,-165.5"/>
<text text-anchor="middle" x="679.7314" y="-171.5" font-family="Helvetica,sans-Serif" font-size="10.00" fill="#000000">app_event_json.h</text>
</a>
</g>
</g>
<!-- Node0&#45;&gt;Node1 -->
<g id="edge1" class="edge">
<title>Node0&#45;&gt;Node1</title>
<path fill="none" stroke="#191970" d="M679.7314,-220.2808C679.7314,-212.3776 679.7314,-202.4316 679.7314,-193.8308"/>
<polygon fill="#191970" stroke="#191970" points="683.2315,-193.5842 679.7314,-183.5842 676.2315,-193.5842 683.2315,-193.5842"/>
</g>
<!-- Node2 -->
<g id="node3" class="node">
<title>Node2</title>
<g id="a_node3"><a xlink:href="base64_8h.html" target="_top" xlink:title="base64.h">
<polygon fill="#ffffff" stroke="#000000" points="613.1577,-110.5 613.1577,-128.5 670.3052,-128.5 670.3052,-110.5 613.1577,-110.5"/>
<text text-anchor="middle" x="641.7314" y="-116.5" font-family="Helvetica,sans-Serif" font-size="10.00" fill="#000000">base64.h</text>
</a>
</g>
</g>
<!-- Node1&#45;&gt;Node2 -->
<g id="edge2" class="edge">
<title>Node1&#45;&gt;Node2</title>
<path fill="none" stroke="#191970" d="M673.4565,-165.4179C668.1529,-157.7415 660.401,-146.5217 653.8876,-137.0945"/>
<polygon fill="#191970" stroke="#191970" points="656.7066,-135.0173 648.1427,-128.7795 650.9475,-138.9963 656.7066,-135.0173"/>
</g>
<!-- Node24 -->
<g id="node25" class="node">
<title>Node24</title>
<g id="a_node25"><a xlink:href="mac2int_8h.html" target="_top" xlink:title="mac2int.h">
<polygon fill="#ffffff" stroke="#000000" points="688.0542,-110.5 688.0542,-128.5 747.4087,-128.5 747.4087,-110.5 688.0542,-110.5"/>
<text text-anchor="middle" x="717.7314" y="-116.5" font-family="Helvetica,sans-Serif" font-size="10.00" fill="#000000">mac2int.h</text>
</a>
</g>
</g>
<!-- Node1&#45;&gt;Node24 -->
<g id="edge24" class="edge">
<title>Node1&#45;&gt;Node24</title>
<path fill="none" stroke="#191970" d="M686.0064,-165.4179C691.31,-157.7415 699.0619,-146.5217 705.5753,-137.0945"/>
<polygon fill="#191970" stroke="#191970" points="708.5154,-138.9963 711.3202,-128.7795 702.7563,-135.0173 708.5154,-138.9963"/>
</g>
<!-- Node3 -->
<g id="node4" class="node">
<title>Node3</title>
<g id="a_node4"><a xlink:href="src_2include_2common_8h.html" target="_top" xlink:title="common.h">
<polygon fill="#ffffff" stroke="#000000" points="648.3892,-55.5 648.3892,-73.5 711.0737,-73.5 711.0737,-55.5 648.3892,-55.5"/>
<text text-anchor="middle" x="679.7314" y="-61.5" font-family="Helvetica,sans-Serif" font-size="10.00" fill="#000000">common.h</text>
</a>
</g>
</g>
<!-- Node2&#45;&gt;Node3 -->
<g id="edge3" class="edge">
<title>Node2&#45;&gt;Node3</title>
<path fill="none" stroke="#191970" d="M648.0064,-110.4179C653.31,-102.7415 661.0619,-91.5217 667.5753,-82.0945"/>
<polygon fill="#191970" stroke="#191970" points="670.5154,-83.9963 673.3202,-73.7795 664.7563,-80.0173 670.5154,-83.9963"/>
</g>
<!-- Node4 -->
<g id="node5" class="node">
<title>Node4</title>
<polygon fill="#ffffff" stroke="#bfbfbf" points="0,-.5 0,-18.5 45.4629,-18.5 45.4629,-.5 0,-.5"/>
<text text-anchor="middle" x="22.7314" y="-6.5" font-family="Helvetica,sans-Serif" font-size="10.00" fill="#000000">stdio.h</text>
</g>
<!-- Node3&#45;&gt;Node4 -->
<g id="edge4" class="edge">
<title>Node3&#45;&gt;Node4</title>
<path fill="none" stroke="#191970" d="M648.2835,-63.1509C540.8824,-58.4009 188.3455,-41.6018 55.5352,-18.9235"/>
<polygon fill="#191970" stroke="#191970" points="56.0724,-15.464 45.6108,-17.1392 54.8336,-22.3536 56.0724,-15.464"/>
</g>
<!-- Node5 -->
<g id="node6" class="node">
<title>Node5</title>
<polygon fill="#ffffff" stroke="#bfbfbf" points="63.2192,-.5 63.2192,-18.5 114.2437,-18.5 114.2437,-.5 63.2192,-.5"/>
<text text-anchor="middle" x="88.7314" y="-6.5" font-family="Helvetica,sans-Serif" font-size="10.00" fill="#000000">unistd.h</text>
</g>
<!-- Node3&#45;&gt;Node5 -->
<g id="edge5" class="edge">
<title>Node3&#45;&gt;Node5</title>
<path fill="none" stroke="#191970" d="M648.3621,-64.0299C564.5514,-62.3322 328.4459,-54.6559 124.591,-19.0497"/>
<polygon fill="#191970" stroke="#191970" points="125.0597,-15.5783 114.6021,-17.2777 123.837,-22.4707 125.0597,-15.5783"/>
</g>
<!-- Node6 -->
<g id="node7" class="node">
<title>Node6</title>
<polygon fill="#ffffff" stroke="#bfbfbf" points="131.8892,-.5 131.8892,-18.5 179.5737,-18.5 179.5737,-.5 131.8892,-.5"/>
<text text-anchor="middle" x="155.7314" y="-6.5" font-family="Helvetica,sans-Serif" font-size="10.00" fill="#000000">stdlib.h</text>
</g>
<!-- Node3&#45;&gt;Node6 -->
<g id="edge6" class="edge">
<title>Node3&#45;&gt;Node6</title>
<path fill="none" stroke="#191970" d="M648.1405,-63.6262C571.1813,-61.0625 367.8709,-51.6744 189.8262,-18.8674"/>
<polygon fill="#191970" stroke="#191970" points="190.2297,-15.3822 179.7563,-16.9815 188.9411,-22.2626 190.2297,-15.3822"/>
</g>
<!-- Node7 -->
<g id="node8" class="node">
<title>Node7</title>
<polygon fill="#ffffff" stroke="#bfbfbf" points="197.335,-.5 197.335,-18.5 246.1279,-18.5 246.1279,-.5 197.335,-.5"/>
<text text-anchor="middle" x="221.7314" y="-6.5" font-family="Helvetica,sans-Serif" font-size="10.00" fill="#000000">string.h</text>
</g>
<!-- Node3&#45;&gt;Node7 -->
<g id="edge7" class="edge">
<title>Node3&#45;&gt;Node7</title>
<path fill="none" stroke="#191970" d="M648.2604,-63.0031C578.9286,-59.3071 407.7585,-48 256.4231,-19.0576"/>
<polygon fill="#191970" stroke="#191970" points="256.9691,-15.5982 246.4849,-17.1256 255.6332,-22.4696 256.9691,-15.5982"/>
</g>
<!-- Node8 -->
<g id="node9" class="node">
<title>Node8</title>
<polygon fill="#ffffff" stroke="#bfbfbf" points="263.665,-.5 263.665,-18.5 315.7979,-18.5 315.7979,-.5 263.665,-.5"/>
<text text-anchor="middle" x="289.7314" y="-6.5" font-family="Helvetica,sans-Serif" font-size="10.00" fill="#000000">stdarg.h</text>
</g>
<!-- Node3&#45;&gt;Node8 -->
<g id="edge8" class="edge">
<title>Node3&#45;&gt;Node8</title>
<path fill="none" stroke="#191970" d="M648.1542,-61.9226C587.5107,-56.6581 450.4415,-43.239 326.0861,-19.0397"/>
<polygon fill="#191970" stroke="#191970" points="326.5015,-15.5542 316.0128,-17.0499 325.1449,-22.4215 326.5015,-15.5542"/>
</g>
<!-- Node9 -->
<g id="node10" class="node">
<title>Node9</title>
<polygon fill="#ffffff" stroke="#bfbfbf" points="333.6108,-.5 333.6108,-18.5 381.8521,-18.5 381.8521,-.5 333.6108,-.5"/>
<text text-anchor="middle" x="357.7314" y="-6.5" font-family="Helvetica,sans-Serif" font-size="10.00" fill="#000000">stdint.h</text>
</g>
<!-- Node3&#45;&gt;Node9 -->
<g id="edge9" class="edge">
<title>Node3&#45;&gt;Node9</title>
<path fill="none" stroke="#191970" d="M648.2732,-60.8471C596.6427,-54.572 490.583,-40.5086 391.9766,-19.0632"/>
<polygon fill="#191970" stroke="#191970" points="392.6722,-15.6326 382.153,-16.8963 391.1643,-22.4682 392.6722,-15.6326"/>
</g>
<!-- Node10 -->
<g id="node11" class="node">
<title>Node10</title>
<polygon fill="#ffffff" stroke="#bfbfbf" points="399.6035,-.5 399.6035,-18.5 457.8594,-18.5 457.8594,-.5 399.6035,-.5"/>
<text text-anchor="middle" x="428.7314" y="-6.5" font-family="Helvetica,sans-Serif" font-size="10.00" fill="#000000">pthread.h</text>
</g>
<!-- Node3&#45;&gt;Node10 -->
<g id="edge10" class="edge">
<title>Node3&#45;&gt;Node10</title>
<path fill="none" stroke="#191970" d="M648.2578,-58.1309C608.4976,-50.0076 537.7375,-35.2948 467.9963,-19.239"/>
<polygon fill="#191970" stroke="#191970" points="468.6972,-15.8088 458.1657,-16.9651 467.1197,-22.6287 468.6972,-15.8088"/>
</g>
<!-- Node11 -->
<g id="node12" class="node">
<title>Node11</title>
<polygon fill="#ffffff" stroke="#bfbfbf" points="475.6108,-.5 475.6108,-18.5 523.8521,-18.5 523.8521,-.5 475.6108,-.5"/>
<text text-anchor="middle" x="499.7314" y="-6.5" font-family="Helvetica,sans-Serif" font-size="10.00" fill="#000000">ctype.h</text>
</g>
<!-- Node3&#45;&gt;Node11 -->
<g id="edge11" class="edge">
<title>Node3&#45;&gt;Node11</title>
<path fill="none" stroke="#191970" d="M650.0081,-55.4179C618.0643,-45.6573 567.3711,-30.1677 533.8292,-19.9187"/>
<polygon fill="#191970" stroke="#191970" points="534.5963,-16.4935 524.01,-16.9184 532.5507,-23.1879 534.5963,-16.4935"/>
</g>
<!-- Node12 -->
<g id="node13" class="node">
<title>Node12</title>
<polygon fill="#ffffff" stroke="#bfbfbf" points="541.8892,-.5 541.8892,-18.5 589.5737,-18.5 589.5737,-.5 541.8892,-.5"/>
<text text-anchor="middle" x="565.7314" y="-6.5" font-family="Helvetica,sans-Serif" font-size="10.00" fill="#000000">errno.h</text>
</g>
<!-- Node3&#45;&gt;Node12 -->
<g id="edge12" class="edge">
<title>Node3&#45;&gt;Node12</title>
<path fill="none" stroke="#191970" d="M660.9067,-55.4179C642.5896,-46.5807 614.5385,-33.0473 593.6284,-22.9591"/>
<polygon fill="#191970" stroke="#191970" points="595.1117,-19.7887 584.5842,-18.5956 592.0699,-26.0933 595.1117,-19.7887"/>
</g>
<!-- Node13 -->
<g id="node14" class="node">
<title>Node13</title>
<polygon fill="#ffffff" stroke="#bfbfbf" points="607.1035,-.5 607.1035,-18.5 670.3594,-18.5 670.3594,-.5 607.1035,-.5"/>
<text text-anchor="middle" x="638.7314" y="-6.5" font-family="Helvetica,sans-Serif" font-size="10.00" fill="#000000">arpa/inet.h</text>
</g>
<!-- Node3&#45;&gt;Node13 -->
<g id="edge13" class="edge">
<title>Node3&#45;&gt;Node13</title>
<path fill="none" stroke="#191970" d="M672.9611,-55.4179C667.1798,-47.6624 658.7022,-36.29 651.6304,-26.8035"/>
<polygon fill="#191970" stroke="#191970" points="654.4317,-24.7051 645.6489,-18.7795 648.8194,-28.8888 654.4317,-24.7051"/>
</g>
<!-- Node14 -->
<g id="node15" class="node">
<title>Node14</title>
<polygon fill="#ffffff" stroke="#bfbfbf" points="688.2686,-.5 688.2686,-18.5 753.1943,-18.5 753.1943,-.5 688.2686,-.5"/>
<text text-anchor="middle" x="720.7314" y="-6.5" font-family="Helvetica,sans-Serif" font-size="10.00" fill="#000000">netinet/in.h</text>
</g>
<!-- Node3&#45;&gt;Node14 -->
<g id="edge14" class="edge">
<title>Node3&#45;&gt;Node14</title>
<path fill="none" stroke="#191970" d="M686.5018,-55.4179C692.2831,-47.6624 700.7607,-36.29 707.8325,-26.8035"/>
<polygon fill="#191970" stroke="#191970" points="710.6435,-28.8888 713.814,-18.7795 705.0312,-24.7051 710.6435,-28.8888"/>
</g>
<!-- Node15 -->
<g id="node16" class="node">
<title>Node15</title>
<polygon fill="#ffffff" stroke="#bfbfbf" points="770.8745,-.5 770.8745,-18.5 848.5884,-18.5 848.5884,-.5 770.8745,-.5"/>
<text text-anchor="middle" x="809.7314" y="-6.5" font-family="Helvetica,sans-Serif" font-size="10.00" fill="#000000">net/ethernet.h</text>
</g>
<!-- Node3&#45;&gt;Node15 -->
<g id="edge15" class="edge">
<title>Node3&#45;&gt;Node15</title>
<path fill="none" stroke="#191970" d="M701.1983,-55.4179C722.3684,-46.4613 754.9408,-32.6806 778.8813,-22.552"/>
<polygon fill="#191970" stroke="#191970" points="780.3868,-25.7155 788.2327,-18.5956 777.6593,-19.2687 780.3868,-25.7155"/>
</g>
<!-- Node16 -->
<g id="node17" class="node">
<title>Node16</title>
<polygon fill="#ffffff" stroke="#bfbfbf" points="866.2686,-.5 866.2686,-18.5 931.1943,-18.5 931.1943,-.5 866.2686,-.5"/>
<text text-anchor="middle" x="898.7314" y="-6.5" font-family="Helvetica,sans-Serif" font-size="10.00" fill="#000000">netinet/ip.h</text>
</g>
<!-- Node3&#45;&gt;Node16 -->
<g id="edge16" class="edge">
<title>Node3&#45;&gt;Node16</title>
<path fill="none" stroke="#191970" d="M711.1088,-56.6198C749.2128,-47.0503 813.6519,-30.867 856.1966,-20.1823"/>
<polygon fill="#191970" stroke="#191970" points="857.1357,-23.5552 865.9819,-17.7248 855.4306,-16.766 857.1357,-23.5552"/>
</g>
<!-- Node17 -->
<g id="node18" class="node">
<title>Node17</title>
<polygon fill="#ffffff" stroke="#bfbfbf" points="949.4902,-.5 949.4902,-18.5 1019.9727,-18.5 1019.9727,-.5 949.4902,-.5"/>
<text text-anchor="middle" x="984.7314" y="-6.5" font-family="Helvetica,sans-Serif" font-size="10.00" fill="#000000">netinet/tcp.h</text>
</g>
<!-- Node3&#45;&gt;Node17 -->
<g id="edge17" class="edge">
<title>Node3&#45;&gt;Node17</title>
<path fill="none" stroke="#191970" d="M711.4148,-59.3208C758.6725,-51.5164 850.657,-36.0204 939.4159,-19.0039"/>
<polygon fill="#191970" stroke="#191970" points="940.2243,-22.4125 949.3817,-17.0841 938.9002,-15.5389 940.2243,-22.4125"/>
</g>
<!-- Node18 -->
<g id="node19" class="node">
<title>Node18</title>
<polygon fill="#ffffff" stroke="#bfbfbf" points="1037.9312,-.5 1037.9312,-18.5 1129.5317,-18.5 1129.5317,-.5 1037.9312,-.5"/>
<text text-anchor="middle" x="1083.7314" y="-6.5" font-family="Helvetica,sans-Serif" font-size="10.00" fill="#000000">netinet/ip_icmp.h</text>
</g>
<!-- Node3&#45;&gt;Node18 -->
<g id="edge18" class="edge">
<title>Node3&#45;&gt;Node18</title>
<path fill="none" stroke="#191970" d="M711.0768,-60.8547C770.646,-53.8321 904.525,-37.5947 1027.8444,-19.0821"/>
<polygon fill="#191970" stroke="#191970" points="1028.473,-22.5269 1037.8384,-17.5732 1027.428,-15.6054 1028.473,-22.5269"/>
</g>
<!-- Node19 -->
<g id="node20" class="node">
<title>Node19</title>
<polygon fill="#ffffff" stroke="#bfbfbf" points="1147.3276,-.5 1147.3276,-18.5 1206.1353,-18.5 1206.1353,-.5 1147.3276,-.5"/>
<text text-anchor="middle" x="1176.7314" y="-6.5" font-family="Helvetica,sans-Serif" font-size="10.00" fill="#000000">jansson.h</text>
</g>
<!-- Node3&#45;&gt;Node19 -->
<g id="edge19" class="edge">
<title>Node3&#45;&gt;Node19</title>
<path fill="none" stroke="#191970" d="M711.1107,-62.9738C784.1833,-59.0832 971.4652,-47.1705 1136.6062,-19.1634"/>
<polygon fill="#191970" stroke="#191970" points="1137.6873,-22.5288 1146.9486,-17.383 1136.4997,-15.6303 1137.6873,-22.5288"/>
</g>
<!-- Node20 -->
<g id="node21" class="node">
<title>Node20</title>
<polygon fill="#ffffff" stroke="#bfbfbf" points="1223.8374,-.5 1223.8374,-18.5 1267.6255,-18.5 1267.6255,-.5 1223.8374,-.5"/>
<text text-anchor="middle" x="1245.7314" y="-6.5" font-family="Helvetica,sans-Serif" font-size="10.00" fill="#000000">libcli.h</text>
</g>
<!-- Node3&#45;&gt;Node20 -->
<g id="edge20" class="edge">
<title>Node3&#45;&gt;Node20</title>
<path fill="none" stroke="#191970" d="M711.107,-64.1503C792.7221,-62.7511 1018.3131,-55.7563 1213.6571,-18.8205"/>
<polygon fill="#191970" stroke="#191970" points="1214.364,-22.2488 1223.5236,-16.9242 1213.0427,-15.3746 1214.364,-22.2488"/>
</g>
<!-- Node21 -->
<g id="node22" class="node">
<title>Node21</title>
<polygon fill="#ffffff" stroke="#bfbfbf" points="1286.1157,-.5 1286.1157,-18.5 1329.3472,-18.5 1329.3472,-.5 1286.1157,-.5"/>
<text text-anchor="middle" x="1307.7314" y="-6.5" font-family="Helvetica,sans-Serif" font-size="10.00" fill="#000000">zmq.h</text>
</g>
<!-- Node3&#45;&gt;Node21 -->
<g id="edge21" class="edge">
<title>Node3&#45;&gt;Node21</title>
<path fill="none" stroke="#191970" d="M711.1934,-63.0231C815.2369,-57.9987 1148.3386,-40.7582 1275.9589,-18.662"/>
<polygon fill="#191970" stroke="#191970" points="1276.6561,-22.0926 1285.8665,-16.8563 1275.401,-15.2061 1276.6561,-22.0926"/>
</g>
<!-- Node22 -->
<g id="node23" class="node">
<title>Node22</title>
<g id="a_node23"><a xlink:href="src_2include_2type_8h.html" target="_top" xlink:title="type.h">
<polygon fill="#ffffff" stroke="#000000" points="1347.1108,-.5 1347.1108,-18.5 1390.3521,-18.5 1390.3521,-.5 1347.1108,-.5"/>
<text text-anchor="middle" x="1368.7314" y="-6.5" font-family="Helvetica,sans-Serif" font-size="10.00" fill="#000000">type.h</text>
</a>
</g>
</g>
<!-- Node3&#45;&gt;Node22 -->
<g id="edge22" class="edge">
<title>Node3&#45;&gt;Node22</title>
<path fill="none" stroke="#191970" d="M711.2555,-63.3175C822.5076,-58.9935 1197.1509,-43.1138 1336.889,-18.8973"/>
<polygon fill="#191970" stroke="#191970" points="1337.7221,-22.3032 1346.9307,-17.0637 1336.4646,-15.417 1337.7221,-22.3032"/>
</g>
<!-- Node23 -->
<g id="node24" class="node">
<title>Node23</title>
<polygon fill="#ffffff" stroke="#bfbfbf" points="1408.1157,-.5 1408.1157,-18.5 1451.3472,-18.5 1451.3472,-.5 1408.1157,-.5"/>
<text text-anchor="middle" x="1429.7314" y="-6.5" font-family="Helvetica,sans-Serif" font-size="10.00" fill="#000000">time.h</text>
</g>
<!-- Node3&#45;&gt;Node23 -->
<g id="edge23" class="edge">
<title>Node3&#45;&gt;Node23</title>
<path fill="none" stroke="#191970" d="M711.2271,-63.5301C829.1677,-59.7436 1245.3313,-44.9564 1397.845,-18.8933"/>
<polygon fill="#191970" stroke="#191970" points="1398.711,-22.2938 1407.9335,-17.0788 1397.4719,-15.4043 1398.711,-22.2938"/>
</g>
<!-- Node24&#45;&gt;Node3 -->
<g id="edge25" class="edge">
<title>Node24&#45;&gt;Node3</title>
<path fill="none" stroke="#191970" d="M711.4565,-110.4179C706.1529,-102.7415 698.401,-91.5217 691.8876,-82.0945"/>
<polygon fill="#191970" stroke="#191970" points="694.7066,-80.0173 686.1427,-73.7795 688.9475,-83.9963 694.7066,-80.0173"/>
</g>
</g>
</svg>
