<?xml version="1.0" encoding="UTF-8" standalone="no"?>
<!DOCTYPE svg PUBLIC "-//W3C//DTD SVG 1.1//EN"
 "http://www.w3.org/Graphics/SVG/1.1/DTD/svg11.dtd">
<!-- Generated by graphviz version 2.40.1 (20161225.0304)
 -->
<!-- Title: app_events/include/app_event_json.h Pages: 1 -->
<svg width="288pt" height="157pt"
 viewBox="0.00 0.00 288.36 157.00" xmlns="http://www.w3.org/2000/svg" xmlns:xlink="http://www.w3.org/1999/xlink">
<g id="graph0" class="graph" transform="scale(1 1) rotate(0) translate(4 153)">
<title>app_events/include/app_event_json.h</title>
<polygon fill="#ffffff" stroke="transparent" points="-4,4 -4,-153 284.3589,-153 284.3589,4 -4,4"/>
<!-- Node25 -->
<g id="node1" class="node">
<title>Node25</title>
<polygon fill="#bfbfbf" stroke="#000000" points="85.3989,-120.5 85.3989,-148.5 187.5757,-148.5 187.5757,-120.5 85.3989,-120.5"/>
<text text-anchor="start" x="93.3989" y="-136.5" font-family="Helvetica,sans-Serif" font-size="10.00" fill="#000000">app_events/include</text>
<text text-anchor="middle" x="136.4873" y="-126.5" font-family="Helvetica,sans-Serif" font-size="10.00" fill="#000000">/app_event_json.h</text>
</g>
<!-- Node26 -->
<g id="node2" class="node">
<title>Node26</title>
<g id="a_node2"><a xlink:href="app__event__msg__pack_8h.html" target="_top" xlink:title="app_events/include\l/app_event_msg_pack.h">
<polygon fill="#ffffff" stroke="#000000" points=".0049,-55.5 .0049,-83.5 124.9697,-83.5 124.9697,-55.5 .0049,-55.5"/>
<text text-anchor="start" x="8.0049" y="-71.5" font-family="Helvetica,sans-Serif" font-size="10.00" fill="#000000">app_events/include</text>
<text text-anchor="middle" x="62.4873" y="-61.5" font-family="Helvetica,sans-Serif" font-size="10.00" fill="#000000">/app_event_msg_pack.h</text>
</a>
</g>
</g>
<!-- Node25&#45;&gt;Node26 -->
<g id="edge1" class="edge">
<title>Node25&#45;&gt;Node26</title>
<path fill="none" stroke="#191970" d="M112.6909,-113.5978C101.5173,-103.7831 88.4945,-92.3442 78.5129,-83.5765"/>
<polygon fill="#191970" stroke="#191970" points="110.6074,-116.4261 120.4304,-120.396 115.227,-111.1669 110.6074,-116.4261"/>
</g>
<!-- Node28 -->
<g id="node4" class="node">
<title>Node28</title>
<g id="a_node4"><a xlink:href="ext__apps_2shim_2app__event_8c.html" target="_top" xlink:title="ext_apps/shim/app_event.c">
<polygon fill="#ffffff" stroke="#000000" points="142.6157,-60.5 142.6157,-78.5 280.3589,-78.5 280.3589,-60.5 142.6157,-60.5"/>
<text text-anchor="middle" x="211.4873" y="-66.5" font-family="Helvetica,sans-Serif" font-size="10.00" fill="#000000">ext_apps/shim/app_event.c</text>
</a>
</g>
</g>
<!-- Node25&#45;&gt;Node28 -->
<g id="edge3" class="edge">
<title>Node25&#45;&gt;Node28</title>
<path fill="none" stroke="#191970" d="M160.4247,-113.7543C174.0987,-101.9034 190.5534,-87.6427 201.017,-78.5743"/>
<polygon fill="#191970" stroke="#191970" points="158.0258,-111.2017 152.7612,-120.396 162.6104,-116.4915 158.0258,-111.2017"/>
</g>
<!-- Node27 -->
<g id="node3" class="node">
<title>Node27</title>
<g id="a_node3"><a xlink:href="app__events_2app__event_8c.html" target="_top" xlink:title="app_events/app_event.c">
<polygon fill="#ffffff" stroke="#000000" points="0,-.5 0,-18.5 124.9746,-18.5 124.9746,-.5 0,-.5"/>
<text text-anchor="middle" x="62.4873" y="-6.5" font-family="Helvetica,sans-Serif" font-size="10.00" fill="#000000">app_events/app_event.c</text>
</a>
</g>
</g>
<!-- Node26&#45;&gt;Node27 -->
<g id="edge2" class="edge">
<title>Node26&#45;&gt;Node27</title>
<path fill="none" stroke="#191970" d="M62.4873,-45.2151C62.4873,-35.8253 62.4873,-25.6598 62.4873,-18.5842"/>
<polygon fill="#191970" stroke="#191970" points="58.9874,-45.2808 62.4873,-55.2808 65.9874,-45.2809 58.9874,-45.2808"/>
</g>
</g>
</svg>
