<?xml version="1.0" encoding="UTF-8" standalone="no"?>
<!DOCTYPE svg PUBLIC "-//W3C//DTD SVG 1.1//EN"
 "http://www.w3.org/Graphics/SVG/1.1/DTD/svg11.dtd">
<!-- Generated by graphviz version 2.40.1 (20161225.0304)
 -->
<!-- Title: app_events/include/app_event_id.h Pages: 1 -->
<svg width="1198pt" height="232pt"
 viewBox="0.00 0.00 1198.27 232.00" xmlns="http://www.w3.org/2000/svg" xmlns:xlink="http://www.w3.org/1999/xlink">
<g id="graph0" class="graph" transform="scale(1 1) rotate(0) translate(4 228)">
<title>app_events/include/app_event_id.h</title>
<polygon fill="#ffffff" stroke="transparent" points="-4,4 -4,-228 1194.2681,-228 1194.2681,4 -4,4"/>
<!-- Node1 -->
<g id="node1" class="node">
<title>Node1</title>
<polygon fill="#bfbfbf" stroke="#000000" points="600.3989,-195.5 600.3989,-223.5 702.5757,-223.5 702.5757,-195.5 600.3989,-195.5"/>
<text text-anchor="start" x="608.3989" y="-211.5" font-family="Helvetica,sans-Serif" font-size="10.00" fill="#000000">app_events/include</text>
<text text-anchor="middle" x="651.4873" y="-201.5" font-family="Helvetica,sans-Serif" font-size="10.00" fill="#000000">/app_event_id.h</text>
</g>
<!-- Node2 -->
<g id="node2" class="node">
<title>Node2</title>
<g id="a_node2"><a xlink:href="app__events_2include_2app__event_8h.html" target="_top" xlink:title="app_events/include\l/app_event.h">
<polygon fill="#ffffff" stroke="#000000" points="600.3989,-130.5 600.3989,-158.5 702.5757,-158.5 702.5757,-130.5 600.3989,-130.5"/>
<text text-anchor="start" x="608.3989" y="-146.5" font-family="Helvetica,sans-Serif" font-size="10.00" fill="#000000">app_events/include</text>
<text text-anchor="middle" x="651.4873" y="-136.5" font-family="Helvetica,sans-Serif" font-size="10.00" fill="#000000">/app_event.h</text>
</a>
</g>
</g>
<!-- Node1&#45;&gt;Node2 -->
<g id="edge1" class="edge">
<title>Node1&#45;&gt;Node2</title>
<path fill="none" stroke="#191970" d="M651.4873,-185.1081C651.4873,-176.1539 651.4873,-166.3227 651.4873,-158.5765"/>
<polygon fill="#191970" stroke="#191970" points="647.9874,-185.3959 651.4873,-195.396 654.9874,-185.396 647.9874,-185.3959"/>
</g>
<!-- Node3 -->
<g id="node3" class="node">
<title>Node3</title>
<g id="a_node3"><a xlink:href="app__events_2app__event_8c.html" target="_top" xlink:title="app_events/app_event.c">
<polygon fill="#ffffff" stroke="#000000" points="0,-70.5 0,-88.5 124.9746,-88.5 124.9746,-70.5 0,-70.5"/>
<text text-anchor="middle" x="62.4873" y="-76.5" font-family="Helvetica,sans-Serif" font-size="10.00" fill="#000000">app_events/app_event.c</text>
</a>
</g>
</g>
<!-- Node2&#45;&gt;Node3 -->
<g id="edge2" class="edge">
<title>Node2&#45;&gt;Node3</title>
<path fill="none" stroke="#191970" d="M589.9306,-140.5848C492.6333,-133.928 297.5022,-118.6742 133.4873,-94 123.5346,-92.5027 112.8688,-90.5252 102.9075,-88.5139"/>
<polygon fill="#191970" stroke="#191970" points="589.9568,-144.0945 600.1704,-141.2783 590.4298,-137.1105 589.9568,-144.0945"/>
</g>
<!-- Node4 -->
<g id="node4" class="node">
<title>Node4</title>
<g id="a_node4"><a xlink:href="applications_2include_2l2__learning_8h.html" target="_top" xlink:title="applications/include\l/l2_learning.h">
<polygon fill="#ffffff" stroke="#000000" points="142.8472,-65.5 142.8472,-93.5 246.1274,-93.5 246.1274,-65.5 142.8472,-65.5"/>
<text text-anchor="start" x="150.8472" y="-81.5" font-family="Helvetica,sans-Serif" font-size="10.00" fill="#000000">applications/include</text>
<text text-anchor="middle" x="194.4873" y="-71.5" font-family="Helvetica,sans-Serif" font-size="10.00" fill="#000000">/l2_learning.h</text>
</a>
</g>
</g>
<!-- Node2&#45;&gt;Node4 -->
<g id="edge3" class="edge">
<title>Node2&#45;&gt;Node4</title>
<path fill="none" stroke="#191970" d="M589.9599,-138.8045C511.6462,-131.0676 372.3663,-115.6724 254.4873,-94 251.8523,-93.5156 249.1598,-92.9874 246.4461,-92.4288"/>
<polygon fill="#191970" stroke="#191970" points="589.8387,-142.3093 600.1321,-139.8002 590.5206,-135.3426 589.8387,-142.3093"/>
</g>
<!-- Node5 -->
<g id="node5" class="node">
<title>Node5</title>
<g id="a_node5"><a xlink:href="applications_2include_2rbac_8h.html" target="_top" xlink:title="applications/include\l/rbac.h">
<polygon fill="#ffffff" stroke="#000000" points="263.8472,-65.5 263.8472,-93.5 367.1274,-93.5 367.1274,-65.5 263.8472,-65.5"/>
<text text-anchor="start" x="271.8472" y="-81.5" font-family="Helvetica,sans-Serif" font-size="10.00" fill="#000000">applications/include</text>
<text text-anchor="middle" x="315.4873" y="-71.5" font-family="Helvetica,sans-Serif" font-size="10.00" fill="#000000">/rbac.h</text>
</a>
</g>
</g>
<!-- Node2&#45;&gt;Node5 -->
<g id="edge4" class="edge">
<title>Node2&#45;&gt;Node5</title>
<path fill="none" stroke="#191970" d="M590.3129,-134.2009C534.466,-124.5771 449.7114,-109.4154 376.4873,-94 373.5048,-93.3721 370.4449,-92.7081 367.3604,-92.0234"/>
<polygon fill="#191970" stroke="#191970" points="589.9469,-137.6892 600.395,-135.9323 591.1316,-130.7902 589.9469,-137.6892"/>
</g>
<!-- Node6 -->
<g id="node6" class="node">
<title>Node6</title>
<g id="a_node6"><a xlink:href="appint_8h.html" target="_top" xlink:title="components/include\l/appint.h">
<polygon fill="#ffffff" stroke="#000000" points="385.0146,-65.5 385.0146,-93.5 489.96,-93.5 489.96,-65.5 385.0146,-65.5"/>
<text text-anchor="start" x="393.0146" y="-81.5" font-family="Helvetica,sans-Serif" font-size="10.00" fill="#000000">components/include</text>
<text text-anchor="middle" x="437.4873" y="-71.5" font-family="Helvetica,sans-Serif" font-size="10.00" fill="#000000">/appint.h</text>
</a>
</g>
</g>
<!-- Node2&#45;&gt;Node6 -->
<g id="edge5" class="edge">
<title>Node2&#45;&gt;Node6</title>
<path fill="none" stroke="#191970" d="M595.3345,-127.4442C560.6452,-116.9078 516.6656,-103.5495 483.9448,-93.6109"/>
<polygon fill="#191970" stroke="#191970" points="594.7304,-130.9186 605.316,-130.476 596.7648,-124.2207 594.7304,-130.9186"/>
</g>
<!-- Node8 -->
<g id="node8" class="node">
<title>Node8</title>
<g id="a_node8"><a xlink:href="ext__apps_2shim_2app__event_8c.html" target="_top" xlink:title="ext_apps/shim/app_event.c">
<polygon fill="#ffffff" stroke="#000000" points="507.6157,-70.5 507.6157,-88.5 645.3589,-88.5 645.3589,-70.5 507.6157,-70.5"/>
<text text-anchor="middle" x="576.4873" y="-76.5" font-family="Helvetica,sans-Serif" font-size="10.00" fill="#000000">ext_apps/shim/app_event.c</text>
</a>
</g>
</g>
<!-- Node2&#45;&gt;Node8 -->
<g id="edge7" class="edge">
<title>Node2&#45;&gt;Node8</title>
<path fill="none" stroke="#191970" d="M627.5499,-123.7543C613.8759,-111.9034 597.4212,-97.6427 586.9577,-88.5743"/>
<polygon fill="#191970" stroke="#191970" points="625.3642,-126.4915 635.2134,-130.396 629.9488,-121.2017 625.3642,-126.4915"/>
</g>
<!-- Node9 -->
<g id="node9" class="node">
<title>Node9</title>
<g id="a_node9"><a xlink:href="ext__apps_2l2__learning_2src_2include_2l2__learning_8h.html" target="_top" xlink:title="ext_apps/l2_learning\l/src/include/l2_learning.h">
<polygon fill="#ffffff" stroke="#000000" points="663.1772,-65.5 663.1772,-93.5 789.7974,-93.5 789.7974,-65.5 663.1772,-65.5"/>
<text text-anchor="start" x="671.1772" y="-81.5" font-family="Helvetica,sans-Serif" font-size="10.00" fill="#000000">ext_apps/l2_learning</text>
<text text-anchor="middle" x="726.4873" y="-71.5" font-family="Helvetica,sans-Serif" font-size="10.00" fill="#000000">/src/include/l2_learning.h</text>
</a>
</g>
</g>
<!-- Node2&#45;&gt;Node9 -->
<g id="edge8" class="edge">
<title>Node2&#45;&gt;Node9</title>
<path fill="none" stroke="#191970" d="M675.6052,-123.5978C686.9299,-113.7831 700.1286,-102.3442 710.2452,-93.5765"/>
<polygon fill="#191970" stroke="#191970" points="673.0258,-121.2017 667.7612,-130.396 677.6104,-126.4915 673.0258,-121.2017"/>
</g>
<!-- Node12 -->
<g id="node12" class="node">
<title>Node12</title>
<g id="a_node12"><a xlink:href="ext__apps_2rbac_2src_2include_2rbac_8h.html" target="_top" xlink:title="ext_apps/rbac/src/include\l/rbac.h">
<polygon fill="#ffffff" stroke="#000000" points="807.7905,-65.5 807.7905,-93.5 937.1841,-93.5 937.1841,-65.5 807.7905,-65.5"/>
<text text-anchor="start" x="815.7905" y="-81.5" font-family="Helvetica,sans-Serif" font-size="10.00" fill="#000000">ext_apps/rbac/src/include</text>
<text text-anchor="middle" x="872.4873" y="-71.5" font-family="Helvetica,sans-Serif" font-size="10.00" fill="#000000">/rbac.h</text>
</a>
</g>
</g>
<!-- Node2&#45;&gt;Node12 -->
<g id="edge11" class="edge">
<title>Node2&#45;&gt;Node12</title>
<path fill="none" stroke="#191970" d="M709.0162,-127.5797C744.9108,-117.0225 790.574,-103.5921 824.5102,-93.6109"/>
<polygon fill="#191970" stroke="#191970" points="707.775,-124.2965 699.1689,-130.476 709.7502,-131.012 707.775,-124.2965"/>
</g>
<!-- Node15 -->
<g id="node15" class="node">
<title>Node15</title>
<g id="a_node15"><a xlink:href="application_8c.html" target="_top" xlink:title="src/application.c">
<polygon fill="#ffffff" stroke="#000000" points="955.6377,-70.5 955.6377,-88.5 1043.3369,-88.5 1043.3369,-70.5 955.6377,-70.5"/>
<text text-anchor="middle" x="999.4873" y="-76.5" font-family="Helvetica,sans-Serif" font-size="10.00" fill="#000000">src/application.c</text>
</a>
</g>
</g>
<!-- Node2&#45;&gt;Node15 -->
<g id="edge14" class="edge">
<title>Node2&#45;&gt;Node15</title>
<path fill="none" stroke="#191970" d="M712.7273,-135.7985C772.6291,-126.8687 866.2859,-111.7912 946.4873,-94 953.6584,-92.4092 961.3105,-90.4636 968.5055,-88.5205"/>
<polygon fill="#191970" stroke="#191970" points="712.0588,-132.3592 702.6791,-137.2859 713.0839,-139.2838 712.0588,-132.3592"/>
</g>
<!-- Node16 -->
<g id="node16" class="node">
<title>Node16</title>
<g id="a_node16"><a xlink:href="cli_8c.html" target="_top" xlink:title="src/cli.c">
<polygon fill="#ffffff" stroke="#000000" points="1061.8223,-70.5 1061.8223,-88.5 1111.1523,-88.5 1111.1523,-70.5 1061.8223,-70.5"/>
<text text-anchor="middle" x="1086.4873" y="-76.5" font-family="Helvetica,sans-Serif" font-size="10.00" fill="#000000">src/cli.c</text>
</a>
</g>
</g>
<!-- Node2&#45;&gt;Node16 -->
<g id="edge15" class="edge">
<title>Node2&#45;&gt;Node16</title>
<path fill="none" stroke="#191970" d="M713.021,-142.0483C792.6174,-137.6807 934.9958,-125.7837 1052.4873,-94 1057.5668,-92.6259 1062.8806,-90.6444 1067.7575,-88.5856"/>
<polygon fill="#191970" stroke="#191970" points="712.4897,-138.5713 702.6875,-142.5922 712.8577,-145.5617 712.4897,-138.5713"/>
</g>
<!-- Node17 -->
<g id="node17" class="node">
<title>Node17</title>
<g id="a_node17"><a xlink:href="main_8c.html" target="_top" xlink:title="src/main.c">
<polygon fill="#ffffff" stroke="#000000" points="1128.7065,-70.5 1128.7065,-88.5 1190.2681,-88.5 1190.2681,-70.5 1128.7065,-70.5"/>
<text text-anchor="middle" x="1159.4873" y="-76.5" font-family="Helvetica,sans-Serif" font-size="10.00" fill="#000000">src/main.c</text>
</a>
</g>
</g>
<!-- Node2&#45;&gt;Node17 -->
<g id="edge16" class="edge">
<title>Node2&#45;&gt;Node17</title>
<path fill="none" stroke="#191970" d="M712.9239,-142.7406C803.3166,-139.0648 976.9655,-127.8485 1120.4873,-94 1126.2525,-92.6403 1132.3258,-90.664 1137.9183,-88.6055"/>
<polygon fill="#191970" stroke="#191970" points="712.7065,-139.2464 702.8503,-143.1329 712.9789,-146.2411 712.7065,-139.2464"/>
</g>
<!-- Node7 -->
<g id="node7" class="node">
<title>Node7</title>
<g id="a_node7"><a xlink:href="apphdlr_8c.html" target="_top" xlink:title="components/apphdlr.c">
<polygon fill="#ffffff" stroke="#000000" points="380.564,-5.5 380.564,-23.5 494.4106,-23.5 494.4106,-5.5 380.564,-5.5"/>
<text text-anchor="middle" x="437.4873" y="-11.5" font-family="Helvetica,sans-Serif" font-size="10.00" fill="#000000">components/apphdlr.c</text>
</a>
</g>
</g>
<!-- Node6&#45;&gt;Node7 -->
<g id="edge6" class="edge">
<title>Node6&#45;&gt;Node7</title>
<path fill="none" stroke="#191970" d="M437.4873,-55.3747C437.4873,-44.2832 437.4873,-31.7952 437.4873,-23.5743"/>
<polygon fill="#191970" stroke="#191970" points="433.9874,-55.3959 437.4873,-65.396 440.9874,-55.396 433.9874,-55.3959"/>
</g>
<!-- Node10 -->
<g id="node10" class="node">
<title>Node10</title>
<g id="a_node10"><a xlink:href="applications_2l2__learning_8c.html" target="_top" xlink:title="applications/l2_learning.c">
<polygon fill="#ffffff" stroke="#000000" points="532.3398,-5.5 532.3398,-23.5 660.6348,-23.5 660.6348,-5.5 532.3398,-5.5"/>
<text text-anchor="middle" x="596.4873" y="-11.5" font-family="Helvetica,sans-Serif" font-size="10.00" fill="#000000">applications/l2_learning.c</text>
</a>
</g>
</g>
<!-- Node9&#45;&gt;Node10 -->
<g id="edge9" class="edge">
<title>Node9&#45;&gt;Node10</title>
<path fill="none" stroke="#191970" d="M689.2586,-60.8856C664.7977,-48.6552 633.8746,-33.1936 614.6359,-23.5743"/>
<polygon fill="#191970" stroke="#191970" points="687.7697,-64.0543 698.2792,-65.396 690.9002,-57.7933 687.7697,-64.0543"/>
</g>
<!-- Node11 -->
<g id="node11" class="node">
<title>Node11</title>
<g id="a_node11"><a xlink:href="ext__apps_2l2__learning_2src_2l2__learning_8c.html" target="_top" xlink:title="ext_apps/l2_learning\l/src/l2_learning.c">
<polygon fill="#ffffff" stroke="#000000" points="678.3423,-.5 678.3423,-28.5 786.6323,-28.5 786.6323,-.5 678.3423,-.5"/>
<text text-anchor="start" x="686.3423" y="-16.5" font-family="Helvetica,sans-Serif" font-size="10.00" fill="#000000">ext_apps/l2_learning</text>
<text text-anchor="middle" x="732.4873" y="-6.5" font-family="Helvetica,sans-Serif" font-size="10.00" fill="#000000">/src/l2_learning.c</text>
</a>
</g>
</g>
<!-- Node9&#45;&gt;Node11 -->
<g id="edge10" class="edge">
<title>Node9&#45;&gt;Node11</title>
<path fill="none" stroke="#191970" d="M728.7117,-55.4029C729.5454,-46.3703 730.465,-36.4078 731.1879,-28.5765"/>
<polygon fill="#191970" stroke="#191970" points="725.2233,-55.1166 727.7892,-65.396 732.1937,-55.76 725.2233,-55.1166"/>
</g>
<!-- Node13 -->
<g id="node13" class="node">
<title>Node13</title>
<g id="a_node13"><a xlink:href="applications_2rbac_8c.html" target="_top" xlink:title="applications/rbac.c">
<polygon fill="#ffffff" stroke="#000000" points="817.0762,-5.5 817.0762,-23.5 915.8984,-23.5 915.8984,-5.5 817.0762,-5.5"/>
<text text-anchor="middle" x="866.4873" y="-11.5" font-family="Helvetica,sans-Serif" font-size="10.00" fill="#000000">applications/rbac.c</text>
</a>
</g>
</g>
<!-- Node12&#45;&gt;Node13 -->
<g id="edge12" class="edge">
<title>Node12&#45;&gt;Node13</title>
<path fill="none" stroke="#191970" d="M870.2604,-55.3747C869.2365,-44.2832 868.0838,-31.7952 867.3249,-23.5743"/>
<polygon fill="#191970" stroke="#191970" points="866.781,-55.76 871.1854,-65.396 873.7513,-55.1166 866.781,-55.76"/>
</g>
<!-- Node14 -->
<g id="node14" class="node">
<title>Node14</title>
<g id="a_node14"><a xlink:href="ext__apps_2rbac_2src_2rbac_8c.html" target="_top" xlink:title="ext_apps/rbac/src/rbac.c">
<polygon fill="#ffffff" stroke="#000000" points="934.0195,-5.5 934.0195,-23.5 1058.9551,-23.5 1058.9551,-5.5 934.0195,-5.5"/>
<text text-anchor="middle" x="996.4873" y="-11.5" font-family="Helvetica,sans-Serif" font-size="10.00" fill="#000000">ext_apps/rbac/src/rbac.c</text>
</a>
</g>
</g>
<!-- Node12&#45;&gt;Node14 -->
<g id="edge13" class="edge">
<title>Node12&#45;&gt;Node14</title>
<path fill="none" stroke="#191970" d="M908.3065,-60.7238C931.5894,-48.5191 960.9065,-33.1513 979.1763,-23.5743"/>
<polygon fill="#191970" stroke="#191970" points="906.6254,-57.6533 899.3935,-65.396 909.8754,-63.8531 906.6254,-57.6533"/>
</g>
</g>
</svg>
