<?xml version="1.0" encoding="UTF-8" standalone="no"?>
<!DOCTYPE svg PUBLIC "-//W3C//DTD SVG 1.1//EN"
 "http://www.w3.org/Graphics/SVG/1.1/DTD/svg11.dtd">
<!-- Generated by graphviz version 2.40.1 (20161225.0304)
 -->
<!-- Title: app_events/include/app_event_id.h Pages: 1 -->
<svg width="1171pt" height="232pt"
 viewBox="0.00 0.00 1171.27 232.00" xmlns="http://www.w3.org/2000/svg" xmlns:xlink="http://www.w3.org/1999/xlink">
<g id="graph0" class="graph" transform="scale(1 1) rotate(0) translate(4 228)">
<title>app_events/include/app_event_id.h</title>
<polygon fill="#ffffff" stroke="transparent" points="-4,4 -4,-228 1167.2681,-228 1167.2681,4 -4,4"/>
<!-- Node1 -->
<g id="node1" class="node">
<title>Node1</title>
<polygon fill="#bfbfbf" stroke="#000000" points="576.3989,-195.5 576.3989,-223.5 678.5757,-223.5 678.5757,-195.5 576.3989,-195.5"/>
<text text-anchor="start" x="584.3989" y="-211.5" font-family="Helvetica,sans-Serif" font-size="10.00" fill="#000000">app_events/include</text>
<text text-anchor="middle" x="627.4873" y="-201.5" font-family="Helvetica,sans-Serif" font-size="10.00" fill="#000000">/app_event_id.h</text>
</g>
<!-- Node2 -->
<g id="node2" class="node">
<title>Node2</title>
<g id="a_node2"><a xlink:href="app__events_2include_2app__event_8h.html" target="_top" xlink:title="app_events/include\l/app_event.h">
<polygon fill="#ffffff" stroke="#000000" points="576.3989,-130.5 576.3989,-158.5 678.5757,-158.5 678.5757,-130.5 576.3989,-130.5"/>
<text text-anchor="start" x="584.3989" y="-146.5" font-family="Helvetica,sans-Serif" font-size="10.00" fill="#000000">app_events/include</text>
<text text-anchor="middle" x="627.4873" y="-136.5" font-family="Helvetica,sans-Serif" font-size="10.00" fill="#000000">/app_event.h</text>
</a>
</g>
</g>
<!-- Node1&#45;&gt;Node2 -->
<g id="edge1" class="edge">
<title>Node1&#45;&gt;Node2</title>
<path fill="none" stroke="#191970" d="M627.4873,-185.1081C627.4873,-176.1539 627.4873,-166.3227 627.4873,-158.5765"/>
<polygon fill="#191970" stroke="#191970" points="623.9874,-185.3959 627.4873,-195.396 630.9874,-185.396 623.9874,-185.3959"/>
</g>
<!-- Node3 -->
<g id="node3" class="node">
<title>Node3</title>
<g id="a_node3"><a xlink:href="app__events_2app__event_8c.html" target="_top" xlink:title="app_events/app_event.c">
<polygon fill="#ffffff" stroke="#000000" points="0,-70.5 0,-88.5 124.9746,-88.5 124.9746,-70.5 0,-70.5"/>
<text text-anchor="middle" x="62.4873" y="-76.5" font-family="Helvetica,sans-Serif" font-size="10.00" fill="#000000">app_events/app_event.c</text>
</a>
</g>
</g>
<!-- Node2&#45;&gt;Node3 -->
<g id="edge2" class="edge">
<title>Node2&#45;&gt;Node3</title>
<path fill="none" stroke="#191970" d="M565.9184,-140.1869C472.2098,-133.176 288.3249,-117.665 133.4873,-94 123.6625,-92.4984 113.1402,-90.5427 103.2863,-88.5562"/>
<polygon fill="#191970" stroke="#191970" points="565.8391,-143.6906 576.0706,-140.9395 566.3567,-136.7097 565.8391,-143.6906"/>
</g>
<!-- Node4 -->
<g id="node4" class="node">
<title>Node4</title>
<g id="a_node4"><a xlink:href="l2__learning_8h.html" target="_top" xlink:title="applications/include\l/l2_learning.h">
<polygon fill="#ffffff" stroke="#000000" points="142.8472,-65.5 142.8472,-93.5 246.1274,-93.5 246.1274,-65.5 142.8472,-65.5"/>
<text text-anchor="start" x="150.8472" y="-81.5" font-family="Helvetica,sans-Serif" font-size="10.00" fill="#000000">applications/include</text>
<text text-anchor="middle" x="194.4873" y="-71.5" font-family="Helvetica,sans-Serif" font-size="10.00" fill="#000000">/l2_learning.h</text>
</a>
</g>
</g>
<!-- Node2&#45;&gt;Node4 -->
<g id="edge3" class="edge">
<title>Node2&#45;&gt;Node4</title>
<path fill="none" stroke="#191970" d="M566.142,-138.1477C491.9711,-130.0182 363.5147,-114.4988 254.4873,-94 251.8543,-93.505 249.1634,-92.9683 246.4509,-92.4029"/>
<polygon fill="#191970" stroke="#191970" points="565.9202,-141.6442 576.2399,-139.2456 566.6768,-134.6852 565.9202,-141.6442"/>
</g>
<!-- Node6 -->
<g id="node6" class="node">
<title>Node6</title>
<g id="a_node6"><a xlink:href="applications_2include_2l2__shortest_8h.html" target="_top" xlink:title="applications/include\l/l2_shortest.h">
<polygon fill="#ffffff" stroke="#000000" points="263.8472,-65.5 263.8472,-93.5 367.1274,-93.5 367.1274,-65.5 263.8472,-65.5"/>
<text text-anchor="start" x="271.8472" y="-81.5" font-family="Helvetica,sans-Serif" font-size="10.00" fill="#000000">applications/include</text>
<text text-anchor="middle" x="315.4873" y="-71.5" font-family="Helvetica,sans-Serif" font-size="10.00" fill="#000000">/l2_shortest.h</text>
</a>
</g>
</g>
<!-- Node2&#45;&gt;Node6 -->
<g id="edge5" class="edge">
<title>Node2&#45;&gt;Node6</title>
<path fill="none" stroke="#191970" d="M566.3043,-132.9376C515.1849,-123.1097 440.4325,-108.3491 375.4873,-94 372.7666,-93.3989 369.9797,-92.7703 367.168,-92.126"/>
<polygon fill="#191970" stroke="#191970" points="565.7229,-136.3898 576.2032,-134.8358 567.0413,-129.5151 565.7229,-136.3898"/>
</g>
<!-- Node7 -->
<g id="node7" class="node">
<title>Node7</title>
<g id="a_node7"><a xlink:href="rbac_8h.html" target="_top" xlink:title="applications/include\l/rbac.h">
<polygon fill="#ffffff" stroke="#000000" points="384.8472,-65.5 384.8472,-93.5 488.1274,-93.5 488.1274,-65.5 384.8472,-65.5"/>
<text text-anchor="start" x="392.8472" y="-81.5" font-family="Helvetica,sans-Serif" font-size="10.00" fill="#000000">applications/include</text>
<text text-anchor="middle" x="436.4873" y="-71.5" font-family="Helvetica,sans-Serif" font-size="10.00" fill="#000000">/rbac.h</text>
</a>
</g>
</g>
<!-- Node2&#45;&gt;Node7 -->
<g id="edge6" class="edge">
<title>Node2&#45;&gt;Node7</title>
<path fill="none" stroke="#191970" d="M576.3336,-127.0917C545.5008,-116.5988 506.7407,-103.4082 477.8506,-93.5765"/>
<polygon fill="#191970" stroke="#191970" points="575.4487,-130.4876 586.0431,-130.396 577.7039,-123.8608 575.4487,-130.4876"/>
</g>
<!-- Node9 -->
<g id="node9" class="node">
<title>Node9</title>
<g id="a_node9"><a xlink:href="appint_8h.html" target="_top" xlink:title="components/include\l/appint.h">
<polygon fill="#ffffff" stroke="#000000" points="506.0146,-65.5 506.0146,-93.5 610.96,-93.5 610.96,-65.5 506.0146,-65.5"/>
<text text-anchor="start" x="514.0146" y="-81.5" font-family="Helvetica,sans-Serif" font-size="10.00" fill="#000000">components/include</text>
<text text-anchor="middle" x="558.4873" y="-71.5" font-family="Helvetica,sans-Serif" font-size="10.00" fill="#000000">/appint.h</text>
</a>
</g>
</g>
<!-- Node2&#45;&gt;Node9 -->
<g id="edge8" class="edge">
<title>Node2&#45;&gt;Node9</title>
<path fill="none" stroke="#191970" d="M604.9949,-123.3115C594.6446,-113.5612 582.6469,-102.259 573.4301,-93.5765"/>
<polygon fill="#191970" stroke="#191970" points="602.8365,-126.0866 612.5153,-130.396 607.6363,-120.9914 602.8365,-126.0866"/>
</g>
<!-- Node11 -->
<g id="node11" class="node">
<title>Node11</title>
<g id="a_node11"><a xlink:href="ext__apps_2shim_2app__event_8c.html" target="_top" xlink:title="ext_apps/shim/app_event.c">
<polygon fill="#ffffff" stroke="#000000" points="628.6157,-70.5 628.6157,-88.5 766.3589,-88.5 766.3589,-70.5 628.6157,-70.5"/>
<text text-anchor="middle" x="697.4873" y="-76.5" font-family="Helvetica,sans-Serif" font-size="10.00" fill="#000000">ext_apps/shim/app_event.c</text>
</a>
</g>
</g>
<!-- Node2&#45;&gt;Node11 -->
<g id="edge10" class="edge">
<title>Node2&#45;&gt;Node11</title>
<path fill="none" stroke="#191970" d="M650.1873,-123.4214C662.8779,-111.6373 678.0402,-97.558 687.715,-88.5743"/>
<polygon fill="#191970" stroke="#191970" points="647.6226,-121.0266 642.6763,-130.396 652.3858,-126.1562 647.6226,-121.0266"/>
</g>
<!-- Node12 -->
<g id="node12" class="node">
<title>Node12</title>
<g id="a_node12"><a xlink:href="ext__apps_2l2__shortest_2src_2include_2l2__shortest_8h.html" target="_top" xlink:title="ext_apps/l2_shortest\l/src/include/l2_shortest.h">
<polygon fill="#ffffff" stroke="#000000" points="784.1821,-65.5 784.1821,-93.5 910.7925,-93.5 910.7925,-65.5 784.1821,-65.5"/>
<text text-anchor="start" x="792.1821" y="-81.5" font-family="Helvetica,sans-Serif" font-size="10.00" fill="#000000">ext_apps/l2_shortest</text>
<text text-anchor="middle" x="847.4873" y="-71.5" font-family="Helvetica,sans-Serif" font-size="10.00" fill="#000000">/src/include/l2_shortest.h</text>
</a>
</g>
</g>
<!-- Node2&#45;&gt;Node12 -->
<g id="edge11" class="edge">
<title>Node2&#45;&gt;Node12</title>
<path fill="none" stroke="#191970" d="M684.7559,-127.5797C720.4881,-117.0225 765.9446,-103.5921 799.7273,-93.6109"/>
<polygon fill="#191970" stroke="#191970" points="683.5516,-124.2859 674.9532,-130.476 685.5351,-130.999 683.5516,-124.2859"/>
</g>
<!-- Node15 -->
<g id="node15" class="node">
<title>Node15</title>
<g id="a_node15"><a xlink:href="application_8c.html" target="_top" xlink:title="src/application.c">
<polygon fill="#ffffff" stroke="#000000" points="928.6377,-70.5 928.6377,-88.5 1016.3369,-88.5 1016.3369,-70.5 928.6377,-70.5"/>
<text text-anchor="middle" x="972.4873" y="-76.5" font-family="Helvetica,sans-Serif" font-size="10.00" fill="#000000">src/application.c</text>
</a>
</g>
</g>
<!-- Node2&#45;&gt;Node15 -->
<g id="edge14" class="edge">
<title>Node2&#45;&gt;Node15</title>
<path fill="none" stroke="#191970" d="M688.6335,-135.6706C747.945,-126.6958 840.3306,-111.6304 919.4873,-94 926.6571,-92.4031 934.3086,-90.455 941.5035,-88.5115"/>
<polygon fill="#191970" stroke="#191970" points="688.0496,-132.2189 678.6808,-137.1663 689.09,-139.1412 688.0496,-132.2189"/>
</g>
<!-- Node16 -->
<g id="node16" class="node">
<title>Node16</title>
<g id="a_node16"><a xlink:href="src_2cli_8c.html" target="_top" xlink:title="src/cli.c">
<polygon fill="#ffffff" stroke="#000000" points="1034.8223,-70.5 1034.8223,-88.5 1084.1523,-88.5 1084.1523,-70.5 1034.8223,-70.5"/>
<text text-anchor="middle" x="1059.4873" y="-76.5" font-family="Helvetica,sans-Serif" font-size="10.00" fill="#000000">src/cli.c</text>
</a>
</g>
</g>
<!-- Node2&#45;&gt;Node16 -->
<g id="edge15" class="edge">
<title>Node2&#45;&gt;Node16</title>
<path fill="none" stroke="#191970" d="M688.8882,-141.9739C767.952,-137.5319 909.0366,-125.5605 1025.4873,-94 1030.5662,-92.6235 1035.8798,-90.6412 1040.7567,-88.5823"/>
<polygon fill="#191970" stroke="#191970" points="688.4187,-138.4941 678.6218,-142.5278 688.7958,-145.4839 688.4187,-138.4941"/>
</g>
<!-- Node17 -->
<g id="node17" class="node">
<title>Node17</title>
<g id="a_node17"><a xlink:href="main_8c.html" target="_top" xlink:title="src/main.c">
<polygon fill="#ffffff" stroke="#000000" points="1101.7065,-70.5 1101.7065,-88.5 1163.2681,-88.5 1163.2681,-70.5 1101.7065,-70.5"/>
<text text-anchor="middle" x="1132.4873" y="-76.5" font-family="Helvetica,sans-Serif" font-size="10.00" fill="#000000">src/main.c</text>
</a>
</g>
</g>
<!-- Node2&#45;&gt;Node17 -->
<g id="edge16" class="edge">
<title>Node2&#45;&gt;Node17</title>
<path fill="none" stroke="#191970" d="M688.8918,-142.682C778.8073,-138.9366 951.0752,-127.6383 1093.4873,-94 1099.2521,-92.6383 1105.3252,-90.6613 1110.9177,-88.6028"/>
<polygon fill="#191970" stroke="#191970" points="688.7217,-139.186 678.8693,-143.0823 689.001,-146.1804 688.7217,-139.186"/>
</g>
<!-- Node5 -->
<g id="node5" class="node">
<title>Node5</title>
<g id="a_node5"><a xlink:href="l2__learning_8c.html" target="_top" xlink:title="applications/l2_learning.c">
<polygon fill="#ffffff" stroke="#000000" points="130.3398,-5.5 130.3398,-23.5 258.6348,-23.5 258.6348,-5.5 130.3398,-5.5"/>
<text text-anchor="middle" x="194.4873" y="-11.5" font-family="Helvetica,sans-Serif" font-size="10.00" fill="#000000">applications/l2_learning.c</text>
</a>
</g>
</g>
<!-- Node4&#45;&gt;Node5 -->
<g id="edge4" class="edge">
<title>Node4&#45;&gt;Node5</title>
<path fill="none" stroke="#191970" d="M194.4873,-55.3747C194.4873,-44.2832 194.4873,-31.7952 194.4873,-23.5743"/>
<polygon fill="#191970" stroke="#191970" points="190.9874,-55.3959 194.4873,-65.396 197.9874,-55.396 190.9874,-55.3959"/>
</g>
<!-- Node8 -->
<g id="node8" class="node">
<title>Node8</title>
<g id="a_node8"><a xlink:href="rbac_8c.html" target="_top" xlink:title="applications/rbac.c">
<polygon fill="#ffffff" stroke="#000000" points="386.0762,-5.5 386.0762,-23.5 484.8984,-23.5 484.8984,-5.5 386.0762,-5.5"/>
<text text-anchor="middle" x="435.4873" y="-11.5" font-family="Helvetica,sans-Serif" font-size="10.00" fill="#000000">applications/rbac.c</text>
</a>
</g>
</g>
<!-- Node7&#45;&gt;Node8 -->
<g id="edge7" class="edge">
<title>Node7&#45;&gt;Node8</title>
<path fill="none" stroke="#191970" d="M436.1161,-55.3747C435.9455,-44.2832 435.7534,-31.7952 435.6269,-23.5743"/>
<polygon fill="#191970" stroke="#191970" points="432.6168,-55.451 436.2703,-65.396 439.616,-55.3433 432.6168,-55.451"/>
</g>
<!-- Node10 -->
<g id="node10" class="node">
<title>Node10</title>
<g id="a_node10"><a xlink:href="apphdlr_8c.html" target="_top" xlink:title="components/apphdlr.c">
<polygon fill="#ffffff" stroke="#000000" points="502.564,-5.5 502.564,-23.5 616.4106,-23.5 616.4106,-5.5 502.564,-5.5"/>
<text text-anchor="middle" x="559.4873" y="-11.5" font-family="Helvetica,sans-Serif" font-size="10.00" fill="#000000">components/apphdlr.c</text>
</a>
</g>
</g>
<!-- Node9&#45;&gt;Node10 -->
<g id="edge9" class="edge">
<title>Node9&#45;&gt;Node10</title>
<path fill="none" stroke="#191970" d="M558.8585,-55.3747C559.0291,-44.2832 559.2212,-31.7952 559.3477,-23.5743"/>
<polygon fill="#191970" stroke="#191970" points="555.3586,-55.3433 558.7043,-65.396 562.3578,-55.451 555.3586,-55.3433"/>
</g>
<!-- Node13 -->
<g id="node13" class="node">
<title>Node13</title>
<g id="a_node13"><a xlink:href="applications_2l2__shortest_8c.html" target="_top" xlink:title="applications/l2_shortest.c">
<polygon fill="#ffffff" stroke="#000000" points="715.3447,-5.5 715.3447,-23.5 843.6299,-23.5 843.6299,-5.5 715.3447,-5.5"/>
<text text-anchor="middle" x="779.4873" y="-11.5" font-family="Helvetica,sans-Serif" font-size="10.00" fill="#000000">applications/l2_shortest.c</text>
</a>
</g>
</g>
<!-- Node12&#45;&gt;Node13 -->
<g id="edge12" class="edge">
<title>Node12&#45;&gt;Node13</title>
<path fill="none" stroke="#191970" d="M825.4358,-58.4214C813.1079,-46.6373 798.3787,-32.558 788.9804,-23.5743"/>
<polygon fill="#191970" stroke="#191970" points="823.0851,-61.0162 832.7323,-65.396 827.922,-55.9561 823.0851,-61.0162"/>
</g>
<!-- Node14 -->
<g id="node14" class="node">
<title>Node14</title>
<g id="a_node14"><a xlink:href="ext__apps_2l2__shortest_2src_2l2__shortest_8c.html" target="_top" xlink:title="ext_apps/l2_shortest\l/src/l2_shortest.c">
<polygon fill="#ffffff" stroke="#000000" points="861.3472,-.5 861.3472,-28.5 969.6274,-28.5 969.6274,-.5 861.3472,-.5"/>
<text text-anchor="start" x="869.3472" y="-16.5" font-family="Helvetica,sans-Serif" font-size="10.00" fill="#000000">ext_apps/l2_shortest</text>
<text text-anchor="middle" x="915.4873" y="-6.5" font-family="Helvetica,sans-Serif" font-size="10.00" fill="#000000">/src/l2_shortest.c</text>
</a>
</g>
</g>
<!-- Node12&#45;&gt;Node14 -->
<g id="edge13" class="edge">
<title>Node12&#45;&gt;Node14</title>
<path fill="none" stroke="#191970" d="M869.6538,-58.3115C879.854,-48.5612 891.6778,-37.259 900.7611,-28.5765"/>
<polygon fill="#191970" stroke="#191970" points="867.0526,-55.9561 862.2423,-65.396 871.8895,-61.0162 867.0526,-55.9561"/>
</g>
</g>
</svg>
