<?xml version="1.0" encoding="UTF-8" standalone="no"?>
<!DOCTYPE svg PUBLIC "-//W3C//DTD SVG 1.1//EN"
 "http://www.w3.org/Graphics/SVG/1.1/DTD/svg11.dtd">
<!-- Generated by graphviz version 2.40.1 (20161225.0304)
 -->
<!-- Title: app_events/app_event.c Pages: 1 -->
<svg width="1603pt" height="302pt"
 viewBox="0.00 0.00 1603.46 302.00" xmlns="http://www.w3.org/2000/svg" xmlns:xlink="http://www.w3.org/1999/xlink">
<g id="graph0" class="graph" transform="scale(1 1) rotate(0) translate(4 298)">
<title>app_events/app_event.c</title>
<polygon fill="#ffffff" stroke="transparent" points="-4,4 -4,-298 1599.4629,-298 1599.4629,4 -4,4"/>
<!-- Node0 -->
<g id="node1" class="node">
<title>Node0</title>
<polygon fill="#bfbfbf" stroke="#000000" points="904.1333,-275.5 904.1333,-293.5 1029.1079,-293.5 1029.1079,-275.5 904.1333,-275.5"/>
<text text-anchor="middle" x="966.6206" y="-281.5" font-family="Helvetica,sans-Serif" font-size="10.00" fill="#000000">app_events/app_event.c</text>
</g>
<!-- Node1 -->
<g id="node2" class="node">
<title>Node1</title>
<g id="a_node2"><a xlink:href="app__events_2include_2app__event_8h.html" target="_top" xlink:title="app_event.h">
<polygon fill="#ffffff" stroke="#000000" points="607.0962,-165.5 607.0962,-183.5 678.145,-183.5 678.145,-165.5 607.0962,-165.5"/>
<text text-anchor="middle" x="642.6206" y="-171.5" font-family="Helvetica,sans-Serif" font-size="10.00" fill="#000000">app_event.h</text>
</a>
</g>
</g>
<!-- Node0&#45;&gt;Node1 -->
<g id="edge1" class="edge">
<title>Node0&#45;&gt;Node1</title>
<path fill="none" stroke="#191970" d="M940.1063,-275.4982C882.317,-255.8784 744.9249,-209.2329 679.059,-186.871"/>
<polygon fill="#191970" stroke="#191970" points="680.0956,-183.5268 669.5012,-183.6261 677.8452,-190.1553 680.0956,-183.5268"/>
</g>
<!-- Node28 -->
<g id="node29" class="node">
<title>Node28</title>
<g id="a_node29"><a xlink:href="src_2include_2application_8h.html" target="_top" xlink:title="application.h">
<polygon fill="#ffffff" stroke="#000000" points="773.5444,-165.5 773.5444,-183.5 845.6968,-183.5 845.6968,-165.5 773.5444,-165.5"/>
<text text-anchor="middle" x="809.6206" y="-171.5" font-family="Helvetica,sans-Serif" font-size="10.00" fill="#000000">application.h</text>
</a>
</g>
</g>
<!-- Node0&#45;&gt;Node28 -->
<g id="edge32" class="edge">
<title>Node0&#45;&gt;Node28</title>
<path fill="none" stroke="#191970" d="M947.7391,-275.4115C930.6888,-266.8853 905.1938,-253.3309 884.6206,-239 863.2186,-224.0918 840.8136,-204.1712 826.1284,-190.4325"/>
<polygon fill="#191970" stroke="#191970" points="828.4857,-187.8446 818.8195,-183.507 823.671,-192.9258 828.4857,-187.8446"/>
</g>
<!-- Node31 -->
<g id="node32" class="node">
<title>Node31</title>
<g id="a_node32"><a xlink:href="src_2include_2cli_8h.html" target="_top" xlink:title="cli.h">
<polygon fill="#ffffff" stroke="#000000" points="863.729,-165.5 863.729,-183.5 897.5122,-183.5 897.5122,-165.5 863.729,-165.5"/>
<text text-anchor="middle" x="880.6206" y="-171.5" font-family="Helvetica,sans-Serif" font-size="10.00" fill="#000000">cli.h</text>
</a>
</g>
</g>
<!-- Node0&#45;&gt;Node31 -->
<g id="edge39" class="edge">
<title>Node0&#45;&gt;Node31</title>
<path fill="none" stroke="#191970" d="M944.4423,-275.4417C928.7909,-267.9314 908.5592,-255.7658 896.6206,-239 887.2097,-225.7839 883.31,-207.6247 881.7064,-193.9409"/>
<polygon fill="#191970" stroke="#191970" points="885.1704,-193.3704 880.8288,-183.706 878.196,-193.9685 885.1704,-193.3704"/>
</g>
<!-- Node32 -->
<g id="node33" class="node">
<title>Node32</title>
<g id="a_node33"><a xlink:href="app__event__msg__pack_8h.html" target="_top" xlink:title="app_event_msg_pack.h">
<polygon fill="#ffffff" stroke="#000000" points="905.5273,-220.5 905.5273,-238.5 1027.7139,-238.5 1027.7139,-220.5 905.5273,-220.5"/>
<text text-anchor="middle" x="966.6206" y="-226.5" font-family="Helvetica,sans-Serif" font-size="10.00" fill="#000000">app_event_msg_pack.h</text>
</a>
</g>
</g>
<!-- Node0&#45;&gt;Node32 -->
<g id="edge42" class="edge">
<title>Node0&#45;&gt;Node32</title>
<path fill="none" stroke="#191970" d="M966.6206,-275.4179C966.6206,-268.2164 966.6206,-257.8962 966.6206,-248.8632"/>
<polygon fill="#191970" stroke="#191970" points="970.1207,-248.7794 966.6206,-238.7795 963.1207,-248.7795 970.1207,-248.7794"/>
</g>
<!-- Node42 -->
<g id="node43" class="node">
<title>Node42</title>
<g id="a_node43"><a xlink:href="odp__partial_8h.html" target="_top" xlink:title="odp_partial.h">
<polygon fill="#ffffff" stroke="#000000" points="1045.7095,-220.5 1045.7095,-238.5 1119.5317,-238.5 1119.5317,-220.5 1045.7095,-220.5"/>
<text text-anchor="middle" x="1082.6206" y="-226.5" font-family="Helvetica,sans-Serif" font-size="10.00" fill="#000000">odp_partial.h</text>
</a>
</g>
</g>
<!-- Node0&#45;&gt;Node42 -->
<g id="edge53" class="edge">
<title>Node0&#45;&gt;Node42</title>
<path fill="none" stroke="#191970" d="M985.7756,-275.4179C1004.4141,-266.5807 1032.9573,-253.0473 1054.2342,-242.9591"/>
<polygon fill="#191970" stroke="#191970" points="1055.9008,-246.0424 1063.4371,-238.5956 1052.9018,-239.7174 1055.9008,-246.0424"/>
</g>
<!-- Node43 -->
<g id="node44" class="node">
<title>Node43</title>
<g id="a_node44"><a xlink:href="odp__all_8h.html" target="_top" xlink:title="odp_all.h">
<polygon fill="#ffffff" stroke="#000000" points="1137.3252,-220.5 1137.3252,-238.5 1193.916,-238.5 1193.916,-220.5 1137.3252,-220.5"/>
<text text-anchor="middle" x="1165.6206" y="-226.5" font-family="Helvetica,sans-Serif" font-size="10.00" fill="#000000">odp_all.h</text>
</a>
</g>
</g>
<!-- Node0&#45;&gt;Node43 -->
<g id="edge54" class="edge">
<title>Node0&#45;&gt;Node43</title>
<path fill="none" stroke="#191970" d="M999.4814,-275.4179C1034.597,-265.7126 1090.2068,-250.343 1127.2916,-240.0935"/>
<polygon fill="#191970" stroke="#191970" points="1128.5215,-243.3848 1137.2277,-237.3473 1126.6567,-236.6378 1128.5215,-243.3848"/>
</g>
<!-- Node44 -->
<g id="node45" class="node">
<title>Node44</title>
<g id="a_node45"><a xlink:href="app__event__direct__raise_8h.html" target="_top" xlink:title="app_event_direct_raise.h">
<polygon fill="#ffffff" stroke="#000000" points="1211.4707,-220.5 1211.4707,-238.5 1339.7705,-238.5 1339.7705,-220.5 1211.4707,-220.5"/>
<text text-anchor="middle" x="1275.6206" y="-226.5" font-family="Helvetica,sans-Serif" font-size="10.00" fill="#000000">app_event_direct_raise.h</text>
</a>
</g>
</g>
<!-- Node0&#45;&gt;Node44 -->
<g id="edge55" class="edge">
<title>Node0&#45;&gt;Node44</title>
<path fill="none" stroke="#191970" d="M1017.2997,-275.4795C1071.4082,-265.8485 1157.1367,-250.5894 1214.8367,-240.3191"/>
<polygon fill="#191970" stroke="#191970" points="1215.682,-243.7238 1224.9139,-238.5255 1214.4552,-236.8321 1215.682,-243.7238"/>
</g>
<!-- Node2 -->
<g id="node3" class="node">
<title>Node2</title>
<g id="a_node3"><a xlink:href="src_2include_2common_8h.html" target="_top" xlink:title="common.h">
<polygon fill="#ffffff" stroke="#000000" points="817.2783,-55.5 817.2783,-73.5 879.9629,-73.5 879.9629,-55.5 817.2783,-55.5"/>
<text text-anchor="middle" x="848.6206" y="-61.5" font-family="Helvetica,sans-Serif" font-size="10.00" fill="#000000">common.h</text>
</a>
</g>
</g>
<!-- Node1&#45;&gt;Node2 -->
<g id="edge2" class="edge">
<title>Node1&#45;&gt;Node2</title>
<path fill="none" stroke="#191970" d="M642.6107,-165.1223C643.127,-151.0757 646.2427,-124.66 661.6206,-110 682.2363,-90.3468 758.3322,-76.6904 806.8675,-69.76"/>
<polygon fill="#191970" stroke="#191970" points="807.6497,-73.185 817.0735,-68.3433 806.6872,-66.2515 807.6497,-73.185"/>
</g>
<!-- Node25 -->
<g id="node26" class="node">
<title>Node25</title>
<g id="a_node26"><a xlink:href="src_2include_2context_8h.html" target="_top" xlink:title="context.h">
<polygon fill="#ffffff" stroke="#000000" points="734.3301,-110.5 734.3301,-128.5 790.9111,-128.5 790.9111,-110.5 734.3301,-110.5"/>
<text text-anchor="middle" x="762.6206" y="-116.5" font-family="Helvetica,sans-Serif" font-size="10.00" fill="#000000">context.h</text>
</a>
</g>
</g>
<!-- Node1&#45;&gt;Node25 -->
<g id="edge27" class="edge">
<title>Node1&#45;&gt;Node25</title>
<path fill="none" stroke="#191970" d="M662.4362,-165.4179C681.8041,-156.5409 711.511,-142.9253 733.5523,-132.823"/>
<polygon fill="#191970" stroke="#191970" points="735.1433,-135.944 742.7756,-128.5956 732.2266,-129.5805 735.1433,-135.944"/>
</g>
<!-- Node26 -->
<g id="node27" class="node">
<title>Node26</title>
<g id="a_node27"><a xlink:href="app__events_2include_2app__event__id_8h.html" target="_top" xlink:title="app_event_id.h">
<polygon fill="#ffffff" stroke="#000000" points="530.4238,-110.5 530.4238,-128.5 614.8174,-128.5 614.8174,-110.5 530.4238,-110.5"/>
<text text-anchor="middle" x="572.6206" y="-116.5" font-family="Helvetica,sans-Serif" font-size="10.00" fill="#000000">app_event_id.h</text>
</a>
</g>
</g>
<!-- Node1&#45;&gt;Node26 -->
<g id="edge29" class="edge">
<title>Node1&#45;&gt;Node26</title>
<path fill="none" stroke="#191970" d="M631.0615,-165.4179C620.5866,-157.1876 604.9274,-144.8839 592.4542,-135.0836"/>
<polygon fill="#191970" stroke="#191970" points="594.4564,-132.2056 584.4308,-128.7795 590.1316,-137.7098 594.4564,-132.2056"/>
</g>
<!-- Node27 -->
<g id="node28" class="node">
<title>Node27</title>
<g id="a_node28"><a xlink:href="app__events_2include_2app__event__list_8h.html" target="_top" xlink:title="app_event_list.h">
<polygon fill="#ffffff" stroke="#000000" points="103.2046,-55.5 103.2046,-73.5 192.0366,-73.5 192.0366,-55.5 103.2046,-55.5"/>
<text text-anchor="middle" x="147.6206" y="-61.5" font-family="Helvetica,sans-Serif" font-size="10.00" fill="#000000">app_event_list.h</text>
</a>
</g>
</g>
<!-- Node1&#45;&gt;Node27 -->
<g id="edge30" class="edge">
<title>Node1&#45;&gt;Node27</title>
<path fill="none" stroke="#191970" d="M607.0214,-166.5891C520.4372,-147.3481 298.6038,-98.0518 198.263,-75.7539"/>
<polygon fill="#191970" stroke="#191970" points="198.8864,-72.3071 188.3652,-73.5544 197.3678,-79.1404 198.8864,-72.3071"/>
</g>
<!-- Node3 -->
<g id="node4" class="node">
<title>Node3</title>
<polygon fill="#ffffff" stroke="#bfbfbf" points="1415.8892,-.5 1415.8892,-18.5 1461.3521,-18.5 1461.3521,-.5 1415.8892,-.5"/>
<text text-anchor="middle" x="1438.6206" y="-6.5" font-family="Helvetica,sans-Serif" font-size="10.00" fill="#000000">stdio.h</text>
</g>
<!-- Node2&#45;&gt;Node3 -->
<g id="edge3" class="edge">
<title>Node2&#45;&gt;Node3</title>
<path fill="none" stroke="#191970" d="M880.2003,-62.8303C979.7667,-57.4285 1287.086,-39.6722 1405.8435,-18.9368"/>
<polygon fill="#191970" stroke="#191970" points="1406.5354,-22.3683 1415.7369,-17.1164 1405.2686,-15.4839 1406.5354,-22.3683"/>
</g>
<!-- Node4 -->
<g id="node5" class="node">
<title>Node4</title>
<polygon fill="#ffffff" stroke="#bfbfbf" points="1479.1084,-.5 1479.1084,-18.5 1530.1328,-18.5 1530.1328,-.5 1479.1084,-.5"/>
<text text-anchor="middle" x="1504.6206" y="-6.5" font-family="Helvetica,sans-Serif" font-size="10.00" fill="#000000">unistd.h</text>
</g>
<!-- Node2&#45;&gt;Node4 -->
<g id="edge4" class="edge">
<title>Node2&#45;&gt;Node4</title>
<path fill="none" stroke="#191970" d="M880.229,-63.0234C987.3361,-57.8928 1336.7854,-40.0827 1468.8807,-18.9585"/>
<polygon fill="#191970" stroke="#191970" points="1469.4716,-22.4084 1478.7541,-17.3009 1468.3126,-15.505 1469.4716,-22.4084"/>
</g>
<!-- Node5 -->
<g id="node6" class="node">
<title>Node5</title>
<polygon fill="#ffffff" stroke="#bfbfbf" points="1547.7783,-.5 1547.7783,-18.5 1595.4629,-18.5 1595.4629,-.5 1547.7783,-.5"/>
<text text-anchor="middle" x="1571.6206" y="-6.5" font-family="Helvetica,sans-Serif" font-size="10.00" fill="#000000">stdlib.h</text>
</g>
<!-- Node2&#45;&gt;Node5 -->
<g id="edge5" class="edge">
<title>Node2&#45;&gt;Node5</title>
<path fill="none" stroke="#191970" d="M880.0321,-63.3623C994.6626,-59.0696 1390.9965,-42.9557 1537.5345,-18.9813"/>
<polygon fill="#191970" stroke="#191970" points="1538.3845,-22.3865 1547.6462,-17.2416 1537.1975,-15.4879 1538.3845,-22.3865"/>
</g>
<!-- Node6 -->
<g id="node7" class="node">
<title>Node6</title>
<polygon fill="#ffffff" stroke="#bfbfbf" points="61.2241,-.5 61.2241,-18.5 110.0171,-18.5 110.0171,-.5 61.2241,-.5"/>
<text text-anchor="middle" x="85.6206" y="-6.5" font-family="Helvetica,sans-Serif" font-size="10.00" fill="#000000">string.h</text>
</g>
<!-- Node2&#45;&gt;Node6 -->
<g id="edge6" class="edge">
<title>Node2&#45;&gt;Node6</title>
<path fill="none" stroke="#191970" d="M817.1241,-63.4518C698.1872,-59.3552 275.677,-43.5139 120.6102,-18.9532"/>
<polygon fill="#191970" stroke="#191970" points="120.7906,-15.4352 110.3518,-17.2464 119.6417,-22.3403 120.7906,-15.4352"/>
</g>
<!-- Node7 -->
<g id="node8" class="node">
<title>Node7</title>
<polygon fill="#ffffff" stroke="#bfbfbf" points="127.5542,-.5 127.5542,-18.5 179.687,-18.5 179.687,-.5 127.5542,-.5"/>
<text text-anchor="middle" x="153.6206" y="-6.5" font-family="Helvetica,sans-Serif" font-size="10.00" fill="#000000">stdarg.h</text>
</g>
<!-- Node2&#45;&gt;Node7 -->
<g id="edge7" class="edge">
<title>Node2&#45;&gt;Node7</title>
<path fill="none" stroke="#191970" d="M817.0795,-63.1478C705.7626,-58.2508 330.8599,-40.6664 189.9987,-18.8632"/>
<polygon fill="#191970" stroke="#191970" points="190.3027,-15.3668 179.871,-17.2185 189.1806,-22.2763 190.3027,-15.3668"/>
</g>
<!-- Node8 -->
<g id="node9" class="node">
<title>Node8</title>
<polygon fill="#ffffff" stroke="#bfbfbf" points="197.5,-.5 197.5,-18.5 245.7412,-18.5 245.7412,-.5 197.5,-.5"/>
<text text-anchor="middle" x="221.6206" y="-6.5" font-family="Helvetica,sans-Serif" font-size="10.00" fill="#000000">stdint.h</text>
</g>
<!-- Node2&#45;&gt;Node8 -->
<g id="edge8" class="edge">
<title>Node2&#45;&gt;Node8</title>
<path fill="none" stroke="#191970" d="M816.9591,-62.9286C713.1617,-57.6472 383.0353,-39.7874 256.2028,-18.8874"/>
<polygon fill="#191970" stroke="#191970" points="256.4486,-15.3778 245.9976,-17.1177 255.2526,-22.2749 256.4486,-15.3778"/>
</g>
<!-- Node9 -->
<g id="node10" class="node">
<title>Node9</title>
<polygon fill="#ffffff" stroke="#bfbfbf" points="263.4927,-.5 263.4927,-18.5 321.7485,-18.5 321.7485,-.5 263.4927,-.5"/>
<text text-anchor="middle" x="292.6206" y="-6.5" font-family="Helvetica,sans-Serif" font-size="10.00" fill="#000000">pthread.h</text>
</g>
<!-- Node2&#45;&gt;Node9 -->
<g id="edge9" class="edge">
<title>Node2&#45;&gt;Node9</title>
<path fill="none" stroke="#191970" d="M817.1645,-63.4607C737.4773,-60.4626 521.1429,-50.0468 332.103,-19.0115"/>
<polygon fill="#191970" stroke="#191970" points="332.4221,-15.5165 321.9829,-17.3257 331.2718,-22.4213 332.4221,-15.5165"/>
</g>
<!-- Node10 -->
<g id="node11" class="node">
<title>Node10</title>
<polygon fill="#ffffff" stroke="#bfbfbf" points="339.5,-.5 339.5,-18.5 387.7412,-18.5 387.7412,-.5 339.5,-.5"/>
<text text-anchor="middle" x="363.6206" y="-6.5" font-family="Helvetica,sans-Serif" font-size="10.00" fill="#000000">ctype.h</text>
</g>
<!-- Node2&#45;&gt;Node10 -->
<g id="edge10" class="edge">
<title>Node2&#45;&gt;Node10</title>
<path fill="none" stroke="#191970" d="M817.1037,-63.279C744.6147,-60.0566 560.4334,-49.5073 398.1719,-18.9941"/>
<polygon fill="#191970" stroke="#191970" points="398.4894,-15.4915 388.01,-17.0512 397.1748,-22.367 398.4894,-15.4915"/>
</g>
<!-- Node11 -->
<g id="node12" class="node">
<title>Node11</title>
<polygon fill="#ffffff" stroke="#bfbfbf" points="405.7783,-.5 405.7783,-18.5 453.4629,-18.5 453.4629,-.5 405.7783,-.5"/>
<text text-anchor="middle" x="429.6206" y="-6.5" font-family="Helvetica,sans-Serif" font-size="10.00" fill="#000000">errno.h</text>
</g>
<!-- Node2&#45;&gt;Node11 -->
<g id="edge11" class="edge">
<title>Node2&#45;&gt;Node11</title>
<path fill="none" stroke="#191970" d="M817.2292,-62.6412C752.582,-58.423 599.8591,-46.4481 463.8026,-19.1819"/>
<polygon fill="#191970" stroke="#191970" points="464.1187,-15.6744 453.6211,-17.1061 462.7202,-22.5333 464.1187,-15.6744"/>
</g>
<!-- Node12 -->
<g id="node13" class="node">
<title>Node12</title>
<polygon fill="#ffffff" stroke="#bfbfbf" points="470.9927,-.5 470.9927,-18.5 534.2485,-18.5 534.2485,-.5 470.9927,-.5"/>
<text text-anchor="middle" x="502.6206" y="-6.5" font-family="Helvetica,sans-Serif" font-size="10.00" fill="#000000">arpa/inet.h</text>
</g>
<!-- Node2&#45;&gt;Node12 -->
<g id="edge12" class="edge">
<title>Node2&#45;&gt;Node12</title>
<path fill="none" stroke="#191970" d="M816.8671,-60.6098C762.9503,-53.8215 649.8799,-38.7961 544.2235,-18.9845"/>
<polygon fill="#191970" stroke="#191970" points="544.8285,-15.5369 534.3519,-17.1151 543.526,-22.4147 544.8285,-15.5369"/>
</g>
<!-- Node13 -->
<g id="node14" class="node">
<title>Node13</title>
<polygon fill="#ffffff" stroke="#bfbfbf" points="552.1577,-.5 552.1577,-18.5 617.0835,-18.5 617.0835,-.5 552.1577,-.5"/>
<text text-anchor="middle" x="584.6206" y="-6.5" font-family="Helvetica,sans-Serif" font-size="10.00" fill="#000000">netinet/in.h</text>
</g>
<!-- Node2&#45;&gt;Node13 -->
<g id="edge13" class="edge">
<title>Node2&#45;&gt;Node13</title>
<path fill="none" stroke="#191970" d="M817.1747,-58.3559C775.803,-50.2131 700.5854,-35.2051 627.1536,-19.2963"/>
<polygon fill="#191970" stroke="#191970" points="627.7922,-15.8534 617.2768,-17.1486 626.3047,-22.6936 627.7922,-15.8534"/>
</g>
<!-- Node14 -->
<g id="node15" class="node">
<title>Node14</title>
<polygon fill="#ffffff" stroke="#bfbfbf" points="634.7637,-.5 634.7637,-18.5 712.4775,-18.5 712.4775,-.5 634.7637,-.5"/>
<text text-anchor="middle" x="673.6206" y="-6.5" font-family="Helvetica,sans-Serif" font-size="10.00" fill="#000000">net/ethernet.h</text>
</g>
<!-- Node2&#45;&gt;Node14 -->
<g id="edge14" class="edge">
<title>Node2&#45;&gt;Node14</title>
<path fill="none" stroke="#191970" d="M819.7229,-55.4179C790.2501,-46.155 744.3603,-31.7325 711.8851,-21.526"/>
<polygon fill="#191970" stroke="#191970" points="712.8597,-18.1636 702.2704,-18.5042 710.7609,-24.8415 712.8597,-18.1636"/>
</g>
<!-- Node15 -->
<g id="node16" class="node">
<title>Node15</title>
<polygon fill="#ffffff" stroke="#bfbfbf" points="730.1577,-.5 730.1577,-18.5 795.0835,-18.5 795.0835,-.5 730.1577,-.5"/>
<text text-anchor="middle" x="762.6206" y="-6.5" font-family="Helvetica,sans-Serif" font-size="10.00" fill="#000000">netinet/ip.h</text>
</g>
<!-- Node2&#45;&gt;Node15 -->
<g id="edge15" class="edge">
<title>Node2&#45;&gt;Node15</title>
<path fill="none" stroke="#191970" d="M834.4195,-55.4179C821.0993,-46.8992 800.9556,-34.0166 785.3914,-24.0627"/>
<polygon fill="#191970" stroke="#191970" points="787.1531,-21.0348 776.8429,-18.5956 783.3816,-26.932 787.1531,-21.0348"/>
</g>
<!-- Node16 -->
<g id="node17" class="node">
<title>Node16</title>
<polygon fill="#ffffff" stroke="#bfbfbf" points="813.3794,-.5 813.3794,-18.5 883.8618,-18.5 883.8618,-.5 813.3794,-.5"/>
<text text-anchor="middle" x="848.6206" y="-6.5" font-family="Helvetica,sans-Serif" font-size="10.00" fill="#000000">netinet/tcp.h</text>
</g>
<!-- Node2&#45;&gt;Node16 -->
<g id="edge16" class="edge">
<title>Node2&#45;&gt;Node16</title>
<path fill="none" stroke="#191970" d="M848.6206,-55.4179C848.6206,-48.2164 848.6206,-37.8962 848.6206,-28.8632"/>
<polygon fill="#191970" stroke="#191970" points="852.1207,-28.7794 848.6206,-18.7795 845.1207,-28.7795 852.1207,-28.7794"/>
</g>
<!-- Node17 -->
<g id="node18" class="node">
<title>Node17</title>
<polygon fill="#ffffff" stroke="#bfbfbf" points="901.8203,-.5 901.8203,-18.5 993.4209,-18.5 993.4209,-.5 901.8203,-.5"/>
<text text-anchor="middle" x="947.6206" y="-6.5" font-family="Helvetica,sans-Serif" font-size="10.00" fill="#000000">netinet/ip_icmp.h</text>
</g>
<!-- Node2&#45;&gt;Node17 -->
<g id="edge17" class="edge">
<title>Node2&#45;&gt;Node17</title>
<path fill="none" stroke="#191970" d="M864.9684,-55.4179C880.5887,-46.7399 904.3604,-33.5334 922.4068,-23.5077"/>
<polygon fill="#191970" stroke="#191970" points="924.2067,-26.5117 931.2485,-18.5956 920.8071,-20.3925 924.2067,-26.5117"/>
</g>
<!-- Node18 -->
<g id="node19" class="node">
<title>Node18</title>
<polygon fill="#ffffff" stroke="#bfbfbf" points="1011.2168,-.5 1011.2168,-18.5 1070.0244,-18.5 1070.0244,-.5 1011.2168,-.5"/>
<text text-anchor="middle" x="1040.6206" y="-6.5" font-family="Helvetica,sans-Serif" font-size="10.00" fill="#000000">jansson.h</text>
</g>
<!-- Node2&#45;&gt;Node18 -->
<g id="edge18" class="edge">
<title>Node2&#45;&gt;Node18</title>
<path fill="none" stroke="#191970" d="M880.3255,-55.4179C913.5243,-45.9078 965.709,-30.959 1001.4593,-20.7181"/>
<polygon fill="#191970" stroke="#191970" points="1002.4279,-24.0815 1011.0774,-17.9629 1000.5002,-17.3521 1002.4279,-24.0815"/>
</g>
<!-- Node19 -->
<g id="node20" class="node">
<title>Node19</title>
<polygon fill="#ffffff" stroke="#bfbfbf" points="1087.7266,-.5 1087.7266,-18.5 1131.5146,-18.5 1131.5146,-.5 1087.7266,-.5"/>
<text text-anchor="middle" x="1109.6206" y="-6.5" font-family="Helvetica,sans-Serif" font-size="10.00" fill="#000000">libcli.h</text>
</g>
<!-- Node2&#45;&gt;Node19 -->
<g id="edge19" class="edge">
<title>Node2&#45;&gt;Node19</title>
<path fill="none" stroke="#191970" d="M880.0956,-59.3227C922.7806,-52.0738 1001.55,-37.8936 1077.9025,-18.9785"/>
<polygon fill="#191970" stroke="#191970" points="1078.8347,-22.3532 1087.683,-16.5257 1077.1319,-15.5635 1078.8347,-22.3532"/>
</g>
<!-- Node20 -->
<g id="node21" class="node">
<title>Node20</title>
<polygon fill="#ffffff" stroke="#bfbfbf" points="1150.0049,-.5 1150.0049,-18.5 1193.2363,-18.5 1193.2363,-.5 1150.0049,-.5"/>
<text text-anchor="middle" x="1171.6206" y="-6.5" font-family="Helvetica,sans-Serif" font-size="10.00" fill="#000000">zmq.h</text>
</g>
<!-- Node2&#45;&gt;Node20 -->
<g id="edge20" class="edge">
<title>Node2&#45;&gt;Node20</title>
<path fill="none" stroke="#191970" d="M880.0145,-61.0999C932.0733,-55.1412 1039.6416,-41.4726 1139.7377,-18.9206"/>
<polygon fill="#191970" stroke="#191970" points="1140.743,-22.2811 1149.71,-16.6381 1139.1811,-15.4576 1140.743,-22.2811"/>
</g>
<!-- Node21 -->
<g id="node22" class="node">
<title>Node21</title>
<g id="a_node22"><a xlink:href="mac2int_8h.html" target="_top" xlink:title="mac2int.h">
<polygon fill="#ffffff" stroke="#000000" points="1210.9434,-.5 1210.9434,-18.5 1270.2979,-18.5 1270.2979,-.5 1210.9434,-.5"/>
<text text-anchor="middle" x="1240.6206" y="-6.5" font-family="Helvetica,sans-Serif" font-size="10.00" fill="#000000">mac2int.h</text>
</a>
</g>
</g>
<!-- Node2&#45;&gt;Node21 -->
<g id="edge21" class="edge">
<title>Node2&#45;&gt;Node21</title>
<path fill="none" stroke="#191970" d="M880.1292,-61.1931C941.1614,-55.0843 1078.842,-40.6465 1193.6206,-19 1195.9323,-18.564 1198.3132,-18.0724 1200.7245,-17.5481"/>
<polygon fill="#191970" stroke="#191970" points="1201.7396,-20.9065 1210.7095,-15.2681 1200.1812,-14.0822 1201.7396,-20.9065"/>
</g>
<!-- Node22 -->
<g id="node23" class="node">
<title>Node22</title>
<g id="a_node23"><a xlink:href="ip2int_8h.html" target="_top" xlink:title="ip2int.h">
<polygon fill="#ffffff" stroke="#000000" points="1288.4976,-.5 1288.4976,-18.5 1336.7437,-18.5 1336.7437,-.5 1288.4976,-.5"/>
<text text-anchor="middle" x="1312.6206" y="-6.5" font-family="Helvetica,sans-Serif" font-size="10.00" fill="#000000">ip2int.h</text>
</a>
</g>
</g>
<!-- Node2&#45;&gt;Node22 -->
<g id="edge23" class="edge">
<title>Node2&#45;&gt;Node22</title>
<path fill="none" stroke="#191970" d="M880.0053,-62.8136C950.5759,-58.883 1126.0613,-47.2125 1270.6206,-19 1273.219,-18.4929 1275.9089,-17.8759 1278.6273,-17.2023"/>
<polygon fill="#191970" stroke="#191970" points="1279.7029,-20.5386 1288.484,-14.6104 1277.9227,-13.7687 1279.7029,-20.5386"/>
</g>
<!-- Node23 -->
<g id="node24" class="node">
<title>Node23</title>
<g id="a_node24"><a xlink:href="src_2include_2type_8h.html" target="_top" xlink:title="type.h">
<polygon fill="#ffffff" stroke="#000000" points="0,-.5 0,-18.5 43.2412,-18.5 43.2412,-.5 0,-.5"/>
<text text-anchor="middle" x="21.6206" y="-6.5" font-family="Helvetica,sans-Serif" font-size="10.00" fill="#000000">type.h</text>
</a>
</g>
</g>
<!-- Node2&#45;&gt;Node23 -->
<g id="edge25" class="edge">
<title>Node2&#45;&gt;Node23</title>
<path fill="none" stroke="#191970" d="M816.9333,-63.7048C690.6856,-60.383 222.6157,-46.5661 53.4627,-18.6385"/>
<polygon fill="#191970" stroke="#191970" points="53.9264,-15.1668 43.4758,-16.9092 52.732,-22.0641 53.9264,-15.1668"/>
</g>
<!-- Node24 -->
<g id="node25" class="node">
<title>Node24</title>
<polygon fill="#ffffff" stroke="#bfbfbf" points="1355.0049,-.5 1355.0049,-18.5 1398.2363,-18.5 1398.2363,-.5 1355.0049,-.5"/>
<text text-anchor="middle" x="1376.6206" y="-6.5" font-family="Helvetica,sans-Serif" font-size="10.00" fill="#000000">time.h</text>
</g>
<!-- Node2&#45;&gt;Node24 -->
<g id="edge26" class="edge">
<title>Node2&#45;&gt;Node24</title>
<path fill="none" stroke="#191970" d="M880.0506,-63.8634C957.6165,-61.8184 1164.328,-53.484 1344.813,-18.7575"/>
<polygon fill="#191970" stroke="#191970" points="1345.6056,-22.1689 1354.7475,-16.8138 1344.2615,-15.2991 1345.6056,-22.1689"/>
</g>
<!-- Node21&#45;&gt;Node2 -->
<g id="edge22" class="edge">
<title>Node21&#45;&gt;Node2</title>
<path fill="none" stroke="#191970" d="M1214.0478,-18.5272C1213.2327,-18.6908 1212.4225,-18.8488 1211.6206,-19 1096.6018,-40.6918 958.585,-55.1447 890.5157,-61.2313"/>
<polygon fill="#191970" stroke="#191970" points="889.8615,-57.7752 880.2059,-62.1362 890.4736,-64.7484 889.8615,-57.7752"/>
</g>
<!-- Node22&#45;&gt;Node2 -->
<g id="edge24" class="edge">
<title>Node22&#45;&gt;Node2</title>
<path fill="none" stroke="#191970" d="M1290.7441,-18.5659C1290.0316,-18.7179 1289.3228,-18.863 1288.6206,-19 1144.0887,-47.2071 968.6424,-58.8785 890.0026,-62.8114"/>
<polygon fill="#191970" stroke="#191970" points="889.8263,-59.3157 880.0072,-63.2951 890.1648,-66.3075 889.8263,-59.3157"/>
</g>
<!-- Node25&#45;&gt;Node2 -->
<g id="edge28" class="edge">
<title>Node25&#45;&gt;Node2</title>
<path fill="none" stroke="#191970" d="M776.8218,-110.4179C790.1419,-101.8992 810.2856,-89.0166 825.8498,-79.0627"/>
<polygon fill="#191970" stroke="#191970" points="827.8596,-81.932 834.3984,-73.5956 824.0881,-76.0348 827.8596,-81.932"/>
</g>
<!-- Node27&#45;&gt;Node23 -->
<g id="edge31" class="edge">
<title>Node27&#45;&gt;Node23</title>
<path fill="none" stroke="#191970" d="M126.8143,-55.4179C106.3867,-46.5011 75.0058,-32.803 51.8314,-22.6873"/>
<polygon fill="#191970" stroke="#191970" points="53.023,-19.3885 42.4579,-18.5956 50.2226,-25.804 53.023,-19.3885"/>
</g>
<!-- Node28&#45;&gt;Node2 -->
<g id="edge33" class="edge">
<title>Node28&#45;&gt;Node2</title>
<path fill="none" stroke="#191970" d="M822.533,-165.3491C832.8678,-157.1662 846.595,-144.1487 852.6206,-129 858.3871,-114.5027 856.7084,-96.723 853.9716,-83.5048"/>
<polygon fill="#191970" stroke="#191970" points="857.3366,-82.5307 851.564,-73.6466 850.5365,-84.1915 857.3366,-82.5307"/>
</g>
<!-- Node28&#45;&gt;Node25 -->
<g id="edge34" class="edge">
<title>Node28&#45;&gt;Node25</title>
<path fill="none" stroke="#191970" d="M801.8595,-165.4179C795.1645,-157.5833 785.3152,-146.0575 777.1596,-136.5137"/>
<polygon fill="#191970" stroke="#191970" points="779.7077,-134.108 770.5503,-128.7795 774.3861,-138.6556 779.7077,-134.108"/>
</g>
<!-- Node29 -->
<g id="node30" class="node">
<title>Node29</title>
<g id="a_node30"><a xlink:href="hash_8h.html" target="_top" xlink:title="hash.h">
<polygon fill="#ffffff" stroke="#000000" points="670.6084,-110.5 670.6084,-128.5 716.6328,-128.5 716.6328,-110.5 670.6084,-110.5"/>
<text text-anchor="middle" x="693.6206" y="-116.5" font-family="Helvetica,sans-Serif" font-size="10.00" fill="#000000">hash.h</text>
</a>
</g>
</g>
<!-- Node28&#45;&gt;Node29 -->
<g id="edge35" class="edge">
<title>Node28&#45;&gt;Node29</title>
<path fill="none" stroke="#191970" d="M790.4656,-165.4179C771.8272,-156.5807 743.2839,-143.0473 722.007,-132.9591"/>
<polygon fill="#191970" stroke="#191970" points="723.3394,-129.7174 712.8041,-128.5956 720.3404,-136.0424 723.3394,-129.7174"/>
</g>
<!-- Node30 -->
<g id="node31" class="node">
<title>Node30</title>
<g id="a_node31"><a xlink:href="str_8h.html" target="_top" xlink:title="str.h">
<polygon fill="#ffffff" stroke="#000000" points="809.1699,-110.5 809.1699,-128.5 844.0713,-128.5 844.0713,-110.5 809.1699,-110.5"/>
<text text-anchor="middle" x="826.6206" y="-116.5" font-family="Helvetica,sans-Serif" font-size="10.00" fill="#000000">str.h</text>
</a>
</g>
</g>
<!-- Node28&#45;&gt;Node30 -->
<g id="edge37" class="edge">
<title>Node28&#45;&gt;Node30</title>
<path fill="none" stroke="#191970" d="M812.4278,-165.4179C814.6782,-158.1372 817.9138,-147.669 820.7275,-138.5659"/>
<polygon fill="#191970" stroke="#191970" points="824.1432,-139.3671 823.7524,-128.7795 817.4554,-137.2999 824.1432,-139.3671"/>
</g>
<!-- Node29&#45;&gt;Node2 -->
<g id="edge36" class="edge">
<title>Node29&#45;&gt;Node2</title>
<path fill="none" stroke="#191970" d="M716.8257,-111.2659C742.4716,-102.1658 784.0585,-87.4091 813.6552,-76.9071"/>
<polygon fill="#191970" stroke="#191970" points="814.9385,-80.1656 823.1923,-73.5229 812.5976,-73.5686 814.9385,-80.1656"/>
</g>
<!-- Node30&#45;&gt;Node2 -->
<g id="edge38" class="edge">
<title>Node30&#45;&gt;Node2</title>
<path fill="none" stroke="#191970" d="M830.2535,-110.4179C833.1974,-103.0581 837.4442,-92.441 841.1128,-83.2695"/>
<polygon fill="#191970" stroke="#191970" points="844.4445,-84.3641 844.9088,-73.7795 837.9452,-81.7643 844.4445,-84.3641"/>
</g>
<!-- Node31&#45;&gt;Node2 -->
<g id="edge40" class="edge">
<title>Node31&#45;&gt;Node2</title>
<path fill="none" stroke="#191970" d="M883.5942,-165.432C887.2817,-152.6629 892.3134,-128.8385 885.6206,-110 881.7349,-99.0629 873.9727,-88.8438 866.5571,-80.8722"/>
<polygon fill="#191970" stroke="#191970" points="868.9522,-78.3173 859.4133,-73.7063 863.9948,-83.2594 868.9522,-78.3173"/>
</g>
<!-- Node31&#45;&gt;Node25 -->
<g id="edge41" class="edge">
<title>Node31&#45;&gt;Node25</title>
<path fill="none" stroke="#191970" d="M863.7141,-166.6198C844.8669,-157.8351 814.0621,-143.477 791.4026,-132.9154"/>
<polygon fill="#191970" stroke="#191970" points="792.7912,-129.7011 782.2487,-128.6487 789.8339,-136.0457 792.7912,-129.7011"/>
</g>
<!-- Node33 -->
<g id="node34" class="node">
<title>Node33</title>
<g id="a_node34"><a xlink:href="app__events_2include_2app__event__json_8h.html" target="_top" xlink:title="app_event_json.h">
<polygon fill="#ffffff" stroke="#000000" points="919.1431,-165.5 919.1431,-183.5 1014.0981,-183.5 1014.0981,-165.5 919.1431,-165.5"/>
<text text-anchor="middle" x="966.6206" y="-171.5" font-family="Helvetica,sans-Serif" font-size="10.00" fill="#000000">app_event_json.h</text>
</a>
</g>
</g>
<!-- Node32&#45;&gt;Node33 -->
<g id="edge43" class="edge">
<title>Node32&#45;&gt;Node33</title>
<path fill="none" stroke="#191970" d="M966.6206,-220.4179C966.6206,-213.2164 966.6206,-202.8962 966.6206,-193.8632"/>
<polygon fill="#191970" stroke="#191970" points="970.1207,-193.7794 966.6206,-183.7795 963.1207,-193.7795 970.1207,-193.7794"/>
</g>
<!-- Node35 -->
<g id="node36" class="node">
<title>Node35</title>
<g id="a_node36"><a xlink:href="app__events_2include_2app__event__epoll__env_8h.html" target="_top" xlink:title="app_event_epoll_env.h">
<polygon fill="#ffffff" stroke="#000000" points="1107.2778,-165.5 1107.2778,-183.5 1225.9634,-183.5 1225.9634,-165.5 1107.2778,-165.5"/>
<text text-anchor="middle" x="1166.6206" y="-171.5" font-family="Helvetica,sans-Serif" font-size="10.00" fill="#000000">app_event_epoll_env.h</text>
</a>
</g>
</g>
<!-- Node32&#45;&gt;Node35 -->
<g id="edge46" class="edge">
<title>Node32&#45;&gt;Node35</title>
<path fill="none" stroke="#191970" d="M999.6465,-220.4179C1033.6202,-211.0751 1086.6809,-196.4834 1123.8461,-186.263"/>
<polygon fill="#191970" stroke="#191970" points="1125.164,-189.5306 1133.878,-183.5042 1123.3079,-182.7811 1125.164,-189.5306"/>
</g>
<!-- Node34 -->
<g id="node35" class="node">
<title>Node34</title>
<g id="a_node35"><a xlink:href="base64_8h.html" target="_top" xlink:title="base64.h">
<polygon fill="#ffffff" stroke="#000000" points="938.0469,-110.5 938.0469,-128.5 995.1943,-128.5 995.1943,-110.5 938.0469,-110.5"/>
<text text-anchor="middle" x="966.6206" y="-116.5" font-family="Helvetica,sans-Serif" font-size="10.00" fill="#000000">base64.h</text>
</a>
</g>
</g>
<!-- Node33&#45;&gt;Node34 -->
<g id="edge44" class="edge">
<title>Node33&#45;&gt;Node34</title>
<path fill="none" stroke="#191970" d="M966.6206,-165.4179C966.6206,-158.2164 966.6206,-147.8962 966.6206,-138.8632"/>
<polygon fill="#191970" stroke="#191970" points="970.1207,-138.7794 966.6206,-128.7795 963.1207,-138.7795 970.1207,-138.7794"/>
</g>
<!-- Node34&#45;&gt;Node2 -->
<g id="edge45" class="edge">
<title>Node34&#45;&gt;Node2</title>
<path fill="none" stroke="#191970" d="M947.1353,-110.4179C928.0901,-101.5409 898.8784,-87.9253 877.2044,-77.823"/>
<polygon fill="#191970" stroke="#191970" points="878.6773,-74.648 868.1349,-73.5956 875.72,-80.9927 878.6773,-74.648"/>
</g>
<!-- Node36 -->
<g id="node37" class="node">
<title>Node36</title>
<polygon fill="#ffffff" stroke="#bfbfbf" points="1013.2808,-110.5 1013.2808,-128.5 1055.9604,-128.5 1055.9604,-110.5 1013.2808,-110.5"/>
<text text-anchor="middle" x="1034.6206" y="-116.5" font-family="Helvetica,sans-Serif" font-size="10.00" fill="#000000">fcntl.h</text>
</g>
<!-- Node35&#45;&gt;Node36 -->
<g id="edge47" class="edge">
<title>Node35&#45;&gt;Node36</title>
<path fill="none" stroke="#191970" d="M1144.8235,-165.4179C1123.1989,-156.4076 1089.8577,-142.5154 1065.5097,-132.3704"/>
<polygon fill="#191970" stroke="#191970" points="1066.5891,-129.0286 1056.0121,-128.4131 1063.8967,-135.4901 1066.5891,-129.0286"/>
</g>
<!-- Node37 -->
<g id="node38" class="node">
<title>Node37</title>
<polygon fill="#ffffff" stroke="#bfbfbf" points="1073.9385,-110.5 1073.9385,-128.5 1123.3027,-128.5 1123.3027,-110.5 1073.9385,-110.5"/>
<text text-anchor="middle" x="1098.6206" y="-116.5" font-family="Helvetica,sans-Serif" font-size="10.00" fill="#000000">netdb.h</text>
</g>
<!-- Node35&#45;&gt;Node37 -->
<g id="edge48" class="edge">
<title>Node35&#45;&gt;Node37</title>
<path fill="none" stroke="#191970" d="M1155.3918,-165.4179C1145.2162,-157.1876 1130.0043,-144.8839 1117.8875,-135.0836"/>
<polygon fill="#191970" stroke="#191970" points="1120.0696,-132.3469 1110.0934,-128.7795 1115.6675,-137.7895 1120.0696,-132.3469"/>
</g>
<!-- Node38 -->
<g id="node39" class="node">
<title>Node38</title>
<polygon fill="#ffffff" stroke="#bfbfbf" points="1141.3867,-110.5 1141.3867,-128.5 1191.8545,-128.5 1191.8545,-110.5 1141.3867,-110.5"/>
<text text-anchor="middle" x="1166.6206" y="-116.5" font-family="Helvetica,sans-Serif" font-size="10.00" fill="#000000">signal.h</text>
</g>
<!-- Node35&#45;&gt;Node38 -->
<g id="edge49" class="edge">
<title>Node35&#45;&gt;Node38</title>
<path fill="none" stroke="#191970" d="M1166.6206,-165.4179C1166.6206,-158.2164 1166.6206,-147.8962 1166.6206,-138.8632"/>
<polygon fill="#191970" stroke="#191970" points="1170.1207,-138.7794 1166.6206,-128.7795 1163.1207,-138.7795 1170.1207,-138.7794"/>
</g>
<!-- Node39 -->
<g id="node40" class="node">
<title>Node39</title>
<polygon fill="#ffffff" stroke="#bfbfbf" points="1210,-110.5 1210,-128.5 1263.2412,-128.5 1263.2412,-110.5 1210,-110.5"/>
<text text-anchor="middle" x="1236.6206" y="-116.5" font-family="Helvetica,sans-Serif" font-size="10.00" fill="#000000">sys/un.h</text>
</g>
<!-- Node35&#45;&gt;Node39 -->
<g id="edge50" class="edge">
<title>Node35&#45;&gt;Node39</title>
<path fill="none" stroke="#191970" d="M1178.1797,-165.4179C1188.6546,-157.1876 1204.3138,-144.8839 1216.787,-135.0836"/>
<polygon fill="#191970" stroke="#191970" points="1219.1096,-137.7098 1224.8104,-128.7795 1214.7848,-132.2056 1219.1096,-137.7098"/>
</g>
<!-- Node40 -->
<g id="node41" class="node">
<title>Node40</title>
<polygon fill="#ffffff" stroke="#bfbfbf" points="1280.9976,-110.5 1280.9976,-128.5 1344.2437,-128.5 1344.2437,-110.5 1280.9976,-110.5"/>
<text text-anchor="middle" x="1312.6206" y="-116.5" font-family="Helvetica,sans-Serif" font-size="10.00" fill="#000000">sys/epoll.h</text>
</g>
<!-- Node35&#45;&gt;Node40 -->
<g id="edge51" class="edge">
<title>Node35&#45;&gt;Node40</title>
<path fill="none" stroke="#191970" d="M1190.7295,-165.4179C1214.8222,-156.3419 1252.0643,-142.3123 1279.0437,-132.1488"/>
<polygon fill="#191970" stroke="#191970" points="1280.3517,-135.3963 1288.4759,-128.5956 1277.884,-128.8457 1280.3517,-135.3963"/>
</g>
<!-- Node41 -->
<g id="node42" class="node">
<title>Node41</title>
<polygon fill="#ffffff" stroke="#bfbfbf" points="1362.1108,-110.5 1362.1108,-128.5 1433.1304,-128.5 1433.1304,-110.5 1362.1108,-110.5"/>
<text text-anchor="middle" x="1397.6206" y="-116.5" font-family="Helvetica,sans-Serif" font-size="10.00" fill="#000000">sys/socket.h</text>
</g>
<!-- Node35&#45;&gt;Node41 -->
<g id="edge52" class="edge">
<title>Node35&#45;&gt;Node41</title>
<path fill="none" stroke="#191970" d="M1204.5069,-165.4795C1244.9142,-155.8587 1308.9098,-140.6216 1352.0434,-130.3517"/>
<polygon fill="#191970" stroke="#191970" points="1353.0748,-133.7041 1361.9922,-127.983 1351.4534,-126.8944 1353.0748,-133.7041"/>
</g>
</g>
</svg>
