<?xml version="1.0" encoding="UTF-8" standalone="no"?>
<!DOCTYPE svg PUBLIC "-//W3C//DTD SVG 1.1//EN"
 "http://www.w3.org/Graphics/SVG/1.1/DTD/svg11.dtd">
<!-- Generated by graphviz version 2.40.1 (20161225.0304)
 -->
<!-- Title: app_events/app_event.c Pages: 1 -->
<svg width="2402pt" height="357pt"
 viewBox="0.00 0.00 2402.07 357.00" xmlns="http://www.w3.org/2000/svg" xmlns:xlink="http://www.w3.org/1999/xlink">
<g id="graph0" class="graph" transform="scale(1 1) rotate(0) translate(4 353)">
<title>app_events/app_event.c</title>
<polygon fill="#ffffff" stroke="transparent" points="-4,4 -4,-353 2398.0713,-353 2398.0713,4 -4,4"/>
<!-- Node0 -->
<g id="node1" class="node">
<title>Node0</title>
<polygon fill="#bfbfbf" stroke="#000000" points="1252.1333,-330.5 1252.1333,-348.5 1377.1079,-348.5 1377.1079,-330.5 1252.1333,-330.5"/>
<text text-anchor="middle" x="1314.6206" y="-336.5" font-family="Helvetica,sans-Serif" font-size="10.00" fill="#000000">app_events/app_event.c</text>
</g>
<!-- Node1 -->
<g id="node2" class="node">
<title>Node1</title>
<g id="a_node2"><a xlink:href="app__events_2include_2app__event_8h.html" target="_top" xlink:title="app_event.h">
<polygon fill="#ffffff" stroke="#000000" points="1043.0962,-220.5 1043.0962,-238.5 1114.145,-238.5 1114.145,-220.5 1043.0962,-220.5"/>
<text text-anchor="middle" x="1078.6206" y="-226.5" font-family="Helvetica,sans-Serif" font-size="10.00" fill="#000000">app_event.h</text>
</a>
</g>
</g>
<!-- Node0&#45;&gt;Node1 -->
<g id="edge1" class="edge">
<title>Node0&#45;&gt;Node1</title>
<path fill="none" stroke="#191970" d="M1257.2116,-330.4574C1209.1898,-322.0616 1145.176,-308.6757 1123.6206,-294 1106.7475,-282.5122 1094.2349,-262.4448 1086.7443,-247.7364"/>
<polygon fill="#191970" stroke="#191970" points="1089.8389,-246.0945 1082.369,-238.581 1083.523,-249.1128 1089.8389,-246.0945"/>
</g>
<!-- Node40 -->
<g id="node41" class="node">
<title>Node40</title>
<g id="a_node41"><a xlink:href="src_2include_2application_8h.html" target="_top" xlink:title="application.h">
<polygon fill="#ffffff" stroke="#000000" points="1268.5444,-220.5 1268.5444,-238.5 1340.6968,-238.5 1340.6968,-220.5 1268.5444,-220.5"/>
<text text-anchor="middle" x="1304.6206" y="-226.5" font-family="Helvetica,sans-Serif" font-size="10.00" fill="#000000">application.h</text>
</a>
</g>
</g>
<!-- Node0&#45;&gt;Node40 -->
<g id="edge49" class="edge">
<title>Node0&#45;&gt;Node40</title>
<path fill="none" stroke="#191970" d="M1311.1554,-330.2531C1307.951,-321.1739 1303.421,-306.8549 1301.6206,-294 1299.5041,-278.8879 1300.4867,-261.61 1301.871,-248.7426"/>
<polygon fill="#191970" stroke="#191970" points="1305.3544,-249.0926 1303.1231,-238.7354 1298.4085,-248.2235 1305.3544,-249.0926"/>
</g>
<!-- Node42 -->
<g id="node43" class="node">
<title>Node42</title>
<g id="a_node43"><a xlink:href="app__event__msg__pack_8h.html" target="_top" xlink:title="app_event_msg_pack.h">
<polygon fill="#ffffff" stroke="#000000" points="1132.5273,-275.5 1132.5273,-293.5 1254.7139,-293.5 1254.7139,-275.5 1132.5273,-275.5"/>
<text text-anchor="middle" x="1193.6206" y="-281.5" font-family="Helvetica,sans-Serif" font-size="10.00" fill="#000000">app_event_msg_pack.h</text>
</a>
</g>
</g>
<!-- Node0&#45;&gt;Node42 -->
<g id="edge55" class="edge">
<title>Node0&#45;&gt;Node42</title>
<path fill="none" stroke="#191970" d="M1294.6399,-330.4179C1275.1106,-321.5409 1245.1562,-307.9253 1222.9311,-297.823"/>
<polygon fill="#191970" stroke="#191970" points="1224.183,-294.5474 1213.631,-293.5956 1221.2863,-300.92 1224.183,-294.5474"/>
</g>
<!-- Node45 -->
<g id="node46" class="node">
<title>Node45</title>
<g id="a_node46"><a xlink:href="odp__partial_8h.html" target="_top" xlink:title="odp_partial.h">
<polygon fill="#ffffff" stroke="#000000" points="1310.7095,-275.5 1310.7095,-293.5 1384.5317,-293.5 1384.5317,-275.5 1310.7095,-275.5"/>
<text text-anchor="middle" x="1347.6206" y="-281.5" font-family="Helvetica,sans-Serif" font-size="10.00" fill="#000000">odp_partial.h</text>
</a>
</g>
</g>
<!-- Node0&#45;&gt;Node45 -->
<g id="edge60" class="edge">
<title>Node0&#45;&gt;Node45</title>
<path fill="none" stroke="#191970" d="M1320.0699,-330.4179C1324.6282,-322.8207 1331.269,-311.7527 1336.8886,-302.3866"/>
<polygon fill="#191970" stroke="#191970" points="1339.9092,-304.1552 1342.0529,-293.7795 1333.9067,-300.5536 1339.9092,-304.1552"/>
</g>
<!-- Node46 -->
<g id="node47" class="node">
<title>Node46</title>
<g id="a_node47"><a xlink:href="odp__all_8h.html" target="_top" xlink:title="odp_all.h">
<polygon fill="#ffffff" stroke="#000000" points="1402.3252,-275.5 1402.3252,-293.5 1458.916,-293.5 1458.916,-275.5 1402.3252,-275.5"/>
<text text-anchor="middle" x="1430.6206" y="-281.5" font-family="Helvetica,sans-Serif" font-size="10.00" fill="#000000">odp_all.h</text>
</a>
</g>
</g>
<!-- Node0&#45;&gt;Node46 -->
<g id="edge61" class="edge">
<title>Node0&#45;&gt;Node46</title>
<path fill="none" stroke="#191970" d="M1333.7756,-330.4179C1352.4141,-321.5807 1380.9573,-308.0473 1402.2342,-297.9591"/>
<polygon fill="#191970" stroke="#191970" points="1403.9008,-301.0424 1411.4371,-293.5956 1400.9018,-294.7174 1403.9008,-301.0424"/>
</g>
<!-- Node47 -->
<g id="node48" class="node">
<title>Node47</title>
<g id="a_node48"><a xlink:href="app__event__direct__raise_8h.html" target="_top" xlink:title="app_event_direct_raise.h">
<polygon fill="#ffffff" stroke="#000000" points="1476.4707,-275.5 1476.4707,-293.5 1604.7705,-293.5 1604.7705,-275.5 1476.4707,-275.5"/>
<text text-anchor="middle" x="1540.6206" y="-281.5" font-family="Helvetica,sans-Serif" font-size="10.00" fill="#000000">app_event_direct_raise.h</text>
</a>
</g>
</g>
<!-- Node0&#45;&gt;Node47 -->
<g id="edge62" class="edge">
<title>Node0&#45;&gt;Node47</title>
<path fill="none" stroke="#191970" d="M1351.6868,-330.4795C1390.5239,-321.0279 1451.6338,-306.1561 1493.7836,-295.8984"/>
<polygon fill="#191970" stroke="#191970" points="1494.6454,-299.2909 1503.5341,-293.5255 1492.9901,-292.4894 1494.6454,-299.2909"/>
</g>
<!-- Node2 -->
<g id="node3" class="node">
<title>Node2</title>
<g id="a_node3"><a xlink:href="src_2include_2common_8h.html" target="_top" xlink:title="common.h">
<polygon fill="#ffffff" stroke="#000000" points="1245.2783,-110.5 1245.2783,-128.5 1307.9629,-128.5 1307.9629,-110.5 1245.2783,-110.5"/>
<text text-anchor="middle" x="1276.6206" y="-116.5" font-family="Helvetica,sans-Serif" font-size="10.00" fill="#000000">common.h</text>
</a>
</g>
</g>
<!-- Node1&#45;&gt;Node2 -->
<g id="edge2" class="edge">
<title>Node1&#45;&gt;Node2</title>
<path fill="none" stroke="#191970" d="M1084.4511,-220.1815C1093.6551,-206.2121 1112.8645,-179.896 1135.6206,-165 1165.9417,-145.1521 1205.5948,-133.3695 1235.1246,-126.7864"/>
<polygon fill="#191970" stroke="#191970" points="1236.0579,-130.1664 1245.1155,-124.67 1234.6073,-123.3184 1236.0579,-130.1664"/>
</g>
<!-- Node37 -->
<g id="node38" class="node">
<title>Node37</title>
<g id="a_node38"><a xlink:href="src_2include_2context_8h.html" target="_top" xlink:title="context.h">
<polygon fill="#ffffff" stroke="#000000" points="1144.3301,-165.5 1144.3301,-183.5 1200.9111,-183.5 1200.9111,-165.5 1144.3301,-165.5"/>
<text text-anchor="middle" x="1172.6206" y="-171.5" font-family="Helvetica,sans-Serif" font-size="10.00" fill="#000000">context.h</text>
</a>
</g>
</g>
<!-- Node1&#45;&gt;Node37 -->
<g id="edge44" class="edge">
<title>Node1&#45;&gt;Node37</title>
<path fill="none" stroke="#191970" d="M1094.1428,-220.4179C1108.8381,-211.8195 1131.1318,-198.7754 1148.2072,-188.7844"/>
<polygon fill="#191970" stroke="#191970" points="1150.2118,-191.6667 1157.0754,-183.5956 1146.6767,-185.6249 1150.2118,-191.6667"/>
</g>
<!-- Node38 -->
<g id="node39" class="node">
<title>Node38</title>
<g id="a_node39"><a xlink:href="app__events_2include_2app__event__id_8h.html" target="_top" xlink:title="app_event_id.h">
<polygon fill="#ffffff" stroke="#000000" points="966.4238,-165.5 966.4238,-183.5 1050.8174,-183.5 1050.8174,-165.5 966.4238,-165.5"/>
<text text-anchor="middle" x="1008.6206" y="-171.5" font-family="Helvetica,sans-Serif" font-size="10.00" fill="#000000">app_event_id.h</text>
</a>
</g>
</g>
<!-- Node1&#45;&gt;Node38 -->
<g id="edge46" class="edge">
<title>Node1&#45;&gt;Node38</title>
<path fill="none" stroke="#191970" d="M1067.0615,-220.4179C1056.5866,-212.1876 1040.9274,-199.8839 1028.4542,-190.0836"/>
<polygon fill="#191970" stroke="#191970" points="1030.4564,-187.2056 1020.4308,-183.7795 1026.1316,-192.7098 1030.4564,-187.2056"/>
</g>
<!-- Node39 -->
<g id="node40" class="node">
<title>Node39</title>
<g id="a_node40"><a xlink:href="app__events_2include_2app__event__list_8h.html" target="_top" xlink:title="app_event_list.h">
<polygon fill="#ffffff" stroke="#000000" points="187.2046,-110.5 187.2046,-128.5 276.0366,-128.5 276.0366,-110.5 187.2046,-110.5"/>
<text text-anchor="middle" x="231.6206" y="-116.5" font-family="Helvetica,sans-Serif" font-size="10.00" fill="#000000">app_event_list.h</text>
</a>
</g>
</g>
<!-- Node1&#45;&gt;Node39 -->
<g id="edge47" class="edge">
<title>Node1&#45;&gt;Node39</title>
<path fill="none" stroke="#191970" d="M1043.0362,-224.8786C910.6947,-207.6914 446.3418,-147.3859 286.313,-126.6029"/>
<polygon fill="#191970" stroke="#191970" points="286.5865,-123.1091 276.219,-125.292 285.685,-130.0508 286.5865,-123.1091"/>
</g>
<!-- Node3 -->
<g id="node4" class="node">
<title>Node3</title>
<polygon fill="#ffffff" stroke="#bfbfbf" points="1512.8892,-.5 1512.8892,-18.5 1558.3521,-18.5 1558.3521,-.5 1512.8892,-.5"/>
<text text-anchor="middle" x="1535.6206" y="-6.5" font-family="Helvetica,sans-Serif" font-size="10.00" fill="#000000">stdio.h</text>
</g>
<!-- Node2&#45;&gt;Node3 -->
<g id="edge3" class="edge">
<title>Node2&#45;&gt;Node3</title>
<path fill="none" stroke="#191970" d="M1308.0024,-117.1784C1382.9682,-111.3152 1567.5907,-94.8792 1585.6206,-74 1599.8342,-57.5402 1579.0287,-37.6309 1560.0878,-24.3258"/>
<polygon fill="#191970" stroke="#191970" points="1561.9139,-21.3369 1551.649,-18.7134 1558.0375,-27.1655 1561.9139,-21.3369"/>
</g>
<!-- Node4 -->
<g id="node5" class="node">
<title>Node4</title>
<polygon fill="#ffffff" stroke="#bfbfbf" points="1801.1084,-55.5 1801.1084,-73.5 1852.1328,-73.5 1852.1328,-55.5 1801.1084,-55.5"/>
<text text-anchor="middle" x="1826.6206" y="-61.5" font-family="Helvetica,sans-Serif" font-size="10.00" fill="#000000">unistd.h</text>
</g>
<!-- Node2&#45;&gt;Node4 -->
<g id="edge4" class="edge">
<title>Node2&#45;&gt;Node4</title>
<path fill="none" stroke="#191970" d="M1308.1558,-118.2693C1388.4486,-114.7937 1606.9677,-103.1914 1786.6206,-74 1788.0737,-73.7639 1789.5523,-73.5042 1791.0428,-73.2262"/>
<polygon fill="#191970" stroke="#191970" points="1791.8274,-76.638 1800.9098,-71.1827 1790.4078,-69.7835 1791.8274,-76.638"/>
</g>
<!-- Node5 -->
<g id="node6" class="node">
<title>Node5</title>
<polygon fill="#ffffff" stroke="#bfbfbf" points="1869.7783,-55.5 1869.7783,-73.5 1917.4629,-73.5 1917.4629,-55.5 1869.7783,-55.5"/>
<text text-anchor="middle" x="1893.6206" y="-61.5" font-family="Helvetica,sans-Serif" font-size="10.00" fill="#000000">stdlib.h</text>
</g>
<!-- Node2&#45;&gt;Node5 -->
<g id="edge5" class="edge">
<title>Node2&#45;&gt;Node5</title>
<path fill="none" stroke="#191970" d="M1308.1754,-117.9258C1410.8317,-112.6707 1735.3928,-94.9681 1859.6456,-73.9872"/>
<polygon fill="#191970" stroke="#191970" points="1860.4076,-77.4067 1869.6405,-72.2101 1859.1822,-70.5148 1860.4076,-77.4067"/>
</g>
<!-- Node6 -->
<g id="node7" class="node">
<title>Node6</title>
<polygon fill="#ffffff" stroke="#bfbfbf" points="1633.5542,-.5 1633.5542,-18.5 1685.687,-18.5 1685.687,-.5 1633.5542,-.5"/>
<text text-anchor="middle" x="1659.6206" y="-6.5" font-family="Helvetica,sans-Serif" font-size="10.00" fill="#000000">stdarg.h</text>
</g>
<!-- Node2&#45;&gt;Node6 -->
<g id="edge6" class="edge">
<title>Node2&#45;&gt;Node6</title>
<path fill="none" stroke="#191970" d="M1308.1512,-118.8949C1409.7412,-116.6229 1723.6467,-106.9691 1753.6206,-74 1775.4326,-50.0084 1730.8304,-30.3085 1695.8852,-19.2328"/>
<polygon fill="#191970" stroke="#191970" points="1696.4772,-15.7553 1685.8921,-16.2091 1694.4499,-22.4553 1696.4772,-15.7553"/>
</g>
<!-- Node7 -->
<g id="node8" class="node">
<title>Node7</title>
<polygon fill="#ffffff" stroke="#bfbfbf" points="1935.5,-55.5 1935.5,-73.5 1983.7412,-73.5 1983.7412,-55.5 1935.5,-55.5"/>
<text text-anchor="middle" x="1959.6206" y="-61.5" font-family="Helvetica,sans-Serif" font-size="10.00" fill="#000000">stdint.h</text>
</g>
<!-- Node2&#45;&gt;Node7 -->
<g id="edge7" class="edge">
<title>Node2&#45;&gt;Node7</title>
<path fill="none" stroke="#191970" d="M1308.0829,-118.1764C1418.2338,-113.4087 1786.8679,-96.2946 1925.2946,-73.8323"/>
<polygon fill="#191970" stroke="#191970" points="1925.9771,-77.2666 1935.2468,-72.136 1924.8009,-70.3661 1925.9771,-77.2666"/>
</g>
<!-- Node8 -->
<g id="node9" class="node">
<title>Node8</title>
<polygon fill="#ffffff" stroke="#bfbfbf" points="2002.2241,-55.5 2002.2241,-73.5 2051.0171,-73.5 2051.0171,-55.5 2002.2241,-55.5"/>
<text text-anchor="middle" x="2026.6206" y="-61.5" font-family="Helvetica,sans-Serif" font-size="10.00" fill="#000000">string.h</text>
</g>
<!-- Node2&#45;&gt;Node8 -->
<g id="edge8" class="edge">
<title>Node2&#45;&gt;Node8</title>
<path fill="none" stroke="#191970" d="M1308.3272,-118.3675C1426.0784,-114.0277 1838.872,-97.5886 1991.7541,-73.7165"/>
<polygon fill="#191970" stroke="#191970" points="1992.5712,-77.1294 2001.874,-72.0592 1991.4398,-70.2214 1992.5712,-77.1294"/>
</g>
<!-- Node9 -->
<g id="node10" class="node">
<title>Node9</title>
<polygon fill="#ffffff" stroke="#bfbfbf" points="2152.7241,-55.5 2152.7241,-73.5 2206.5171,-73.5 2206.5171,-55.5 2152.7241,-55.5"/>
<text text-anchor="middle" x="2179.6206" y="-61.5" font-family="Helvetica,sans-Serif" font-size="10.00" fill="#000000">strings.h</text>
</g>
<!-- Node2&#45;&gt;Node9 -->
<g id="edge9" class="edge">
<title>Node2&#45;&gt;Node9</title>
<path fill="none" stroke="#191970" d="M1308.3053,-118.7101C1441.6079,-115.2552 1958.0996,-100.5141 2142.5215,-73.7906"/>
<polygon fill="#191970" stroke="#191970" points="2143.2568,-77.2192 2152.6203,-72.2621 2142.2091,-70.2981 2143.2568,-77.2192"/>
</g>
<!-- Node10 -->
<g id="node11" class="node">
<title>Node10</title>
<polygon fill="#ffffff" stroke="#bfbfbf" points="2224.4927,-55.5 2224.4927,-73.5 2282.7485,-73.5 2282.7485,-55.5 2224.4927,-55.5"/>
<text text-anchor="middle" x="2253.6206" y="-61.5" font-family="Helvetica,sans-Serif" font-size="10.00" fill="#000000">pthread.h</text>
</g>
<!-- Node2&#45;&gt;Node10 -->
<g id="edge10" class="edge">
<title>Node2&#45;&gt;Node10</title>
<path fill="none" stroke="#191970" d="M1308.0145,-118.8084C1447.758,-115.6047 2014.7393,-101.2523 2214.2096,-73.8811"/>
<polygon fill="#191970" stroke="#191970" points="2214.8728,-77.322 2224.2766,-72.4416 2213.8819,-70.3924 2214.8728,-77.322"/>
</g>
<!-- Node11 -->
<g id="node12" class="node">
<title>Node11</title>
<polygon fill="#ffffff" stroke="#bfbfbf" points="2300.5,-55.5 2300.5,-73.5 2348.7412,-73.5 2348.7412,-55.5 2300.5,-55.5"/>
<text text-anchor="middle" x="2324.6206" y="-61.5" font-family="Helvetica,sans-Serif" font-size="10.00" fill="#000000">ctype.h</text>
</g>
<!-- Node2&#45;&gt;Node11 -->
<g id="edge11" class="edge">
<title>Node2&#45;&gt;Node11</title>
<path fill="none" stroke="#191970" d="M1308.0524,-119.0869C1454.9714,-117.0064 2075.5401,-106.5209 2290.3404,-73.782"/>
<polygon fill="#191970" stroke="#191970" points="2290.9319,-77.232 2300.2588,-72.2061 2289.8334,-70.3187 2290.9319,-77.232"/>
</g>
<!-- Node12 -->
<g id="node13" class="node">
<title>Node12</title>
<polygon fill="#ffffff" stroke="#bfbfbf" points="138.7783,-55.5 138.7783,-73.5 186.4629,-73.5 186.4629,-55.5 138.7783,-55.5"/>
<text text-anchor="middle" x="162.6206" y="-61.5" font-family="Helvetica,sans-Serif" font-size="10.00" fill="#000000">errno.h</text>
</g>
<!-- Node2&#45;&gt;Node12 -->
<g id="edge12" class="edge">
<title>Node2&#45;&gt;Node12</title>
<path fill="none" stroke="#191970" d="M1245.0218,-117.2011C1215.4598,-115.1081 1170.0661,-112.0415 1130.6206,-110 718.219,-88.6558 607.1593,-140.9158 196.6448,-73.9689"/>
<polygon fill="#191970" stroke="#191970" points="197.018,-70.4834 186.5825,-72.314 195.8819,-77.3906 197.018,-70.4834"/>
</g>
<!-- Node13 -->
<g id="node14" class="node">
<title>Node13</title>
<polygon fill="#ffffff" stroke="#bfbfbf" points="204.0049,-55.5 204.0049,-73.5 247.2363,-73.5 247.2363,-55.5 204.0049,-55.5"/>
<text text-anchor="middle" x="225.6206" y="-61.5" font-family="Helvetica,sans-Serif" font-size="10.00" fill="#000000">time.h</text>
</g>
<!-- Node2&#45;&gt;Node13 -->
<g id="edge13" class="edge">
<title>Node2&#45;&gt;Node13</title>
<path fill="none" stroke="#191970" d="M1245.0205,-117.226C1215.4576,-115.1502 1170.0633,-112.0953 1130.6206,-110 745.7115,-89.553 641.6119,-138.6411 257.4632,-73.6595"/>
<polygon fill="#191970" stroke="#191970" points="257.9143,-70.1859 247.468,-71.9538 256.7367,-77.0862 257.9143,-70.1859"/>
</g>
<!-- Node14 -->
<g id="node15" class="node">
<title>Node14</title>
<polygon fill="#ffffff" stroke="#bfbfbf" points="265.2808,-55.5 265.2808,-73.5 307.9604,-73.5 307.9604,-55.5 265.2808,-55.5"/>
<text text-anchor="middle" x="286.6206" y="-61.5" font-family="Helvetica,sans-Serif" font-size="10.00" fill="#000000">fcntl.h</text>
</g>
<!-- Node2&#45;&gt;Node14 -->
<g id="edge14" class="edge">
<title>Node2&#45;&gt;Node14</title>
<path fill="none" stroke="#191970" d="M1245.0189,-117.2541C1215.455,-115.198 1170.06,-112.1561 1130.6206,-110 772.823,-90.4397 675.8381,-134.6458 318.2462,-73.5969"/>
<polygon fill="#191970" stroke="#191970" points="318.5806,-70.103 308.1315,-71.854 317.3919,-77.0013 318.5806,-70.103"/>
</g>
<!-- Node15 -->
<g id="node16" class="node">
<title>Node15</title>
<polygon fill="#ffffff" stroke="#bfbfbf" points="326.3867,-55.5 326.3867,-73.5 376.8545,-73.5 376.8545,-55.5 326.3867,-55.5"/>
<text text-anchor="middle" x="351.6206" y="-61.5" font-family="Helvetica,sans-Serif" font-size="10.00" fill="#000000">signal.h</text>
</g>
<!-- Node2&#45;&gt;Node15 -->
<g id="edge15" class="edge">
<title>Node2&#45;&gt;Node15</title>
<path fill="none" stroke="#191970" d="M1245.0167,-117.2938C1215.4513,-115.2655 1170.0552,-112.242 1130.6206,-110 801.8737,-91.3092 716.5011,-121.1785 390.6206,-74 389.5171,-73.8402 388.3992,-73.6633 387.273,-73.4721"/>
<polygon fill="#191970" stroke="#191970" points="387.5699,-69.9624 377.0782,-71.4373 386.1997,-76.827 387.5699,-69.9624"/>
</g>
<!-- Node16 -->
<g id="node17" class="node">
<title>Node16</title>
<polygon fill="#ffffff" stroke="#bfbfbf" points="933.1157,-.5 933.1157,-18.5 994.1255,-18.5 994.1255,-.5 933.1157,-.5"/>
<text text-anchor="middle" x="963.6206" y="-6.5" font-family="Helvetica,sans-Serif" font-size="10.00" fill="#000000">sys/time.h</text>
</g>
<!-- Node2&#45;&gt;Node16 -->
<g id="edge16" class="edge">
<title>Node2&#45;&gt;Node16</title>
<path fill="none" stroke="#191970" d="M1245.0155,-117.3145C1215.4493,-115.3006 1170.0526,-112.2867 1130.6206,-110 1091.3579,-107.7231 450.7138,-102.5079 423.6206,-74 417.8033,-67.8789 417.9056,-61.2167 423.6206,-55 457.228,-18.4418 802.6888,-11.2367 922.7621,-9.8341"/>
<polygon fill="#191970" stroke="#191970" points="923.0421,-13.3314 933.0032,-9.7223 922.9656,-6.3318 923.0421,-13.3314"/>
</g>
<!-- Node17 -->
<g id="node18" class="node">
<title>Node17</title>
<polygon fill="#ffffff" stroke="#bfbfbf" points="432.5024,-55.5 432.5024,-73.5 490.7388,-73.5 490.7388,-55.5 432.5024,-55.5"/>
<text text-anchor="middle" x="461.6206" y="-61.5" font-family="Helvetica,sans-Serif" font-size="10.00" fill="#000000">sys/stat.h</text>
</g>
<!-- Node2&#45;&gt;Node17 -->
<g id="edge17" class="edge">
<title>Node2&#45;&gt;Node17</title>
<path fill="none" stroke="#191970" d="M1245.0122,-117.3702C1215.4436,-115.3952 1170.0455,-112.4073 1130.6206,-110 853.528,-93.0809 779.0629,-115.7085 500.9484,-73.9297"/>
<polygon fill="#191970" stroke="#191970" points="501.3802,-70.4553 490.9684,-72.4162 500.3305,-77.3761 501.3802,-70.4553"/>
</g>
<!-- Node18 -->
<g id="node19" class="node">
<title>Node18</title>
<polygon fill="#ffffff" stroke="#bfbfbf" points="508.6108,-55.5 508.6108,-73.5 574.6304,-73.5 574.6304,-55.5 508.6108,-55.5"/>
<text text-anchor="middle" x="541.6206" y="-61.5" font-family="Helvetica,sans-Serif" font-size="10.00" fill="#000000">sys/types.h</text>
</g>
<!-- Node2&#45;&gt;Node18 -->
<g id="edge18" class="edge">
<title>Node2&#45;&gt;Node18</title>
<path fill="none" stroke="#191970" d="M1245.2503,-117.4568C1120.2785,-109.3152 661.3077,-79.3961 585.4236,-73.473"/>
<polygon fill="#191970" stroke="#191970" points="585.2734,-69.9459 575.0029,-72.5473 584.654,-76.9185 585.2734,-69.9459"/>
</g>
<!-- Node19 -->
<g id="node20" class="node">
<title>Node19</title>
<polygon fill="#ffffff" stroke="#bfbfbf" points="592.6699,-55.5 592.6699,-73.5 652.5713,-73.5 652.5713,-55.5 592.6699,-55.5"/>
<text text-anchor="middle" x="622.6206" y="-61.5" font-family="Helvetica,sans-Serif" font-size="10.00" fill="#000000">sys/ioctl.h</text>
</g>
<!-- Node2&#45;&gt;Node19 -->
<g id="edge19" class="edge">
<title>Node2&#45;&gt;Node19</title>
<path fill="none" stroke="#191970" d="M1245.2291,-117.3313C1130.6223,-109.3955 737.8988,-82.035 662.7748,-73.8086"/>
<polygon fill="#191970" stroke="#191970" points="663.1683,-70.3306 652.8069,-72.5421 662.286,-77.2747 663.1683,-70.3306"/>
</g>
<!-- Node20 -->
<g id="node21" class="node">
<title>Node20</title>
<polygon fill="#ffffff" stroke="#bfbfbf" points="670.1108,-55.5 670.1108,-73.5 741.1304,-73.5 741.1304,-55.5 670.1108,-55.5"/>
<text text-anchor="middle" x="705.6206" y="-61.5" font-family="Helvetica,sans-Serif" font-size="10.00" fill="#000000">sys/socket.h</text>
</g>
<!-- Node2&#45;&gt;Node20 -->
<g id="edge20" class="edge">
<title>Node2&#45;&gt;Node20</title>
<path fill="none" stroke="#191970" d="M1245.1958,-117.3121C1149.9143,-110.598 864.3493,-89.8641 751.6127,-74.11"/>
<polygon fill="#191970" stroke="#191970" points="751.9703,-70.6252 741.5707,-72.6496 750.9629,-77.5524 751.9703,-70.6252"/>
</g>
<!-- Node21 -->
<g id="node22" class="node">
<title>Node21</title>
<polygon fill="#ffffff" stroke="#bfbfbf" points="759,-55.5 759,-73.5 832.2412,-73.5 832.2412,-55.5 759,-55.5"/>
<text text-anchor="middle" x="795.6206" y="-61.5" font-family="Helvetica,sans-Serif" font-size="10.00" fill="#000000">sys/sysinfo.h</text>
</g>
<!-- Node2&#45;&gt;Node21 -->
<g id="edge21" class="edge">
<title>Node2&#45;&gt;Node21</title>
<path fill="none" stroke="#191970" d="M1245.014,-117.3355C1174.519,-112.266 998.9319,-98.2987 842.6637,-74.1926"/>
<polygon fill="#191970" stroke="#191970" points="842.8201,-70.6747 832.3999,-72.5901 841.7402,-77.5909 842.8201,-70.6747"/>
</g>
<!-- Node22 -->
<g id="node23" class="node">
<title>Node22</title>
<polygon fill="#ffffff" stroke="#bfbfbf" points="849.9927,-55.5 849.9927,-73.5 913.2485,-73.5 913.2485,-55.5 849.9927,-55.5"/>
<text text-anchor="middle" x="881.6206" y="-61.5" font-family="Helvetica,sans-Serif" font-size="10.00" fill="#000000">arpa/inet.h</text>
</g>
<!-- Node2&#45;&gt;Node22 -->
<g id="edge22" class="edge">
<title>Node2&#45;&gt;Node22</title>
<path fill="none" stroke="#191970" d="M1245.206,-116.5266C1184.8591,-110.5865 1048.384,-96.0498 923.462,-73.9881"/>
<polygon fill="#191970" stroke="#191970" points="923.7998,-70.4931 913.34,-72.1792 922.5683,-77.3839 923.7998,-70.4931"/>
</g>
<!-- Node23 -->
<g id="node24" class="node">
<title>Node23</title>
<polygon fill="#ffffff" stroke="#bfbfbf" points="931.1577,-55.5 931.1577,-73.5 996.0835,-73.5 996.0835,-55.5 931.1577,-55.5"/>
<text text-anchor="middle" x="963.6206" y="-61.5" font-family="Helvetica,sans-Serif" font-size="10.00" fill="#000000">netinet/in.h</text>
</g>
<!-- Node2&#45;&gt;Node23 -->
<g id="edge23" class="edge">
<title>Node2&#45;&gt;Node23</title>
<path fill="none" stroke="#191970" d="M1245.0929,-114.8751C1196.0789,-107.5447 1098.433,-92.3807 1006.3014,-74.2474"/>
<polygon fill="#191970" stroke="#191970" points="1006.7449,-70.7672 996.2549,-72.2536 1005.3823,-77.6333 1006.7449,-70.7672"/>
</g>
<!-- Node24 -->
<g id="node25" class="node">
<title>Node24</title>
<polygon fill="#ffffff" stroke="#bfbfbf" points="1013.7637,-55.5 1013.7637,-73.5 1091.4775,-73.5 1091.4775,-55.5 1013.7637,-55.5"/>
<text text-anchor="middle" x="1052.6206" y="-61.5" font-family="Helvetica,sans-Serif" font-size="10.00" fill="#000000">net/ethernet.h</text>
</g>
<!-- Node2&#45;&gt;Node24 -->
<g id="edge24" class="edge">
<title>Node2&#45;&gt;Node24</title>
<path fill="none" stroke="#191970" d="M1245.002,-111.7365C1206.962,-102.3963 1142.7752,-86.6362 1099.0962,-75.9114"/>
<polygon fill="#191970" stroke="#191970" points="1099.8306,-72.4879 1089.2845,-73.5023 1098.1614,-79.2859 1099.8306,-72.4879"/>
</g>
<!-- Node25 -->
<g id="node26" class="node">
<title>Node25</title>
<polygon fill="#ffffff" stroke="#bfbfbf" points="1109.1577,-55.5 1109.1577,-73.5 1174.0835,-73.5 1174.0835,-55.5 1109.1577,-55.5"/>
<text text-anchor="middle" x="1141.6206" y="-61.5" font-family="Helvetica,sans-Serif" font-size="10.00" fill="#000000">netinet/ip.h</text>
</g>
<!-- Node2&#45;&gt;Node25 -->
<g id="edge25" class="edge">
<title>Node2&#45;&gt;Node25</title>
<path fill="none" stroke="#191970" d="M1254.3281,-110.4179C1232.246,-101.4215 1198.2177,-87.5581 1173.3264,-77.4172"/>
<polygon fill="#191970" stroke="#191970" points="1174.5277,-74.1273 1163.9462,-73.5956 1171.8866,-80.61 1174.5277,-74.1273"/>
</g>
<!-- Node26 -->
<g id="node27" class="node">
<title>Node26</title>
<polygon fill="#ffffff" stroke="#bfbfbf" points="1192.3794,-55.5 1192.3794,-73.5 1262.8618,-73.5 1262.8618,-55.5 1192.3794,-55.5"/>
<text text-anchor="middle" x="1227.6206" y="-61.5" font-family="Helvetica,sans-Serif" font-size="10.00" fill="#000000">netinet/tcp.h</text>
</g>
<!-- Node2&#45;&gt;Node26 -->
<g id="edge26" class="edge">
<title>Node2&#45;&gt;Node26</title>
<path fill="none" stroke="#191970" d="M1268.5293,-110.4179C1261.5493,-102.5833 1251.281,-91.0575 1242.7783,-81.5137"/>
<polygon fill="#191970" stroke="#191970" points="1245.1532,-78.9178 1235.8878,-73.7795 1239.9265,-83.5743 1245.1532,-78.9178"/>
</g>
<!-- Node27 -->
<g id="node28" class="node">
<title>Node27</title>
<polygon fill="#ffffff" stroke="#bfbfbf" points="1280.8203,-55.5 1280.8203,-73.5 1372.4209,-73.5 1372.4209,-55.5 1280.8203,-55.5"/>
<text text-anchor="middle" x="1326.6206" y="-61.5" font-family="Helvetica,sans-Serif" font-size="10.00" fill="#000000">netinet/ip_icmp.h</text>
</g>
<!-- Node2&#45;&gt;Node27 -->
<g id="edge27" class="edge">
<title>Node2&#45;&gt;Node27</title>
<path fill="none" stroke="#191970" d="M1284.8771,-110.4179C1292.0714,-102.5041 1302.6894,-90.8243 1311.416,-81.2251"/>
<polygon fill="#191970" stroke="#191970" points="1314.0478,-83.5332 1318.1847,-73.7795 1308.8682,-78.8245 1314.0478,-83.5332"/>
</g>
<!-- Node28 -->
<g id="node29" class="node">
<title>Node28</title>
<g id="a_node29"><a xlink:href="mac2int_8h.html" target="_top" xlink:title="mac2int.h">
<polygon fill="#ffffff" stroke="#000000" points="60.9434,-55.5 60.9434,-73.5 120.2979,-73.5 120.2979,-55.5 60.9434,-55.5"/>
<text text-anchor="middle" x="90.6206" y="-61.5" font-family="Helvetica,sans-Serif" font-size="10.00" fill="#000000">mac2int.h</text>
</a>
</g>
</g>
<!-- Node2&#45;&gt;Node28 -->
<g id="edge28" class="edge">
<title>Node2&#45;&gt;Node28</title>
<path fill="none" stroke="#191970" d="M1245.0948,-117.6484C1213.5032,-115.5508 1164.1128,-112.1461 1121.6206,-110 680.3758,-87.7147 563.3648,-134.2795 127.7168,-74.9358"/>
<polygon fill="#191970" stroke="#191970" points="128.0773,-71.4525 117.6941,-73.5595 127.1249,-78.3874 128.0773,-71.4525"/>
</g>
<!-- Node29 -->
<g id="node30" class="node">
<title>Node29</title>
<g id="a_node30"><a xlink:href="ip2int_8h.html" target="_top" xlink:title="ip2int.h">
<polygon fill="#ffffff" stroke="#000000" points="1390.4976,-55.5 1390.4976,-73.5 1438.7437,-73.5 1438.7437,-55.5 1390.4976,-55.5"/>
<text text-anchor="middle" x="1414.6206" y="-61.5" font-family="Helvetica,sans-Serif" font-size="10.00" fill="#000000">ip2int.h</text>
</a>
</g>
</g>
<!-- Node2&#45;&gt;Node29 -->
<g id="edge30" class="edge">
<title>Node2&#45;&gt;Node29</title>
<path fill="none" stroke="#191970" d="M1294.2422,-110.4179C1316.0107,-100.9614 1353.0885,-86.1275 1380.4455,-75.8918"/>
<polygon fill="#191970" stroke="#191970" points="1381.8712,-79.0964 1390.0382,-72.3473 1379.445,-72.5303 1381.8712,-79.0964"/>
</g>
<!-- Node30 -->
<g id="node31" class="node">
<title>Node30</title>
<g id="a_node31"><a xlink:href="database_8h.html" target="_top" xlink:title="database.h">
<polygon fill="#ffffff" stroke="#000000" points="2068.877,-55.5 2068.877,-73.5 2134.3643,-73.5 2134.3643,-55.5 2068.877,-55.5"/>
<text text-anchor="middle" x="2101.6206" y="-61.5" font-family="Helvetica,sans-Serif" font-size="10.00" fill="#000000">database.h</text>
</a>
</g>
</g>
<!-- Node2&#45;&gt;Node30 -->
<g id="edge32" class="edge">
<title>Node2&#45;&gt;Node30</title>
<path fill="none" stroke="#191970" d="M1308.3438,-118.2295C1434.9234,-113.3229 1902.9819,-94.8426 2050.6206,-74 2053.2369,-73.6306 2055.9314,-73.1822 2058.6562,-72.6835"/>
<polygon fill="#191970" stroke="#191970" points="2059.4468,-76.0949 2068.5707,-70.7094 2058.0797,-69.2297 2059.4468,-76.0949"/>
</g>
<!-- Node32 -->
<g id="node33" class="node">
<title>Node32</title>
<polygon fill="#ffffff" stroke="#bfbfbf" points="1518.2168,-55.5 1518.2168,-73.5 1577.0244,-73.5 1577.0244,-55.5 1518.2168,-55.5"/>
<text text-anchor="middle" x="1547.6206" y="-61.5" font-family="Helvetica,sans-Serif" font-size="10.00" fill="#000000">jansson.h</text>
</g>
<!-- Node2&#45;&gt;Node32 -->
<g id="edge36" class="edge">
<title>Node2&#45;&gt;Node32</title>
<path fill="none" stroke="#191970" d="M1308.0087,-113.9077C1351.0202,-106.1276 1430.906,-91.2618 1508.2863,-74.2153"/>
<polygon fill="#191970" stroke="#191970" points="1509.1934,-77.5992 1518.198,-72.0165 1507.6773,-70.7653 1509.1934,-77.5992"/>
</g>
<!-- Node33 -->
<g id="node34" class="node">
<title>Node33</title>
<g id="a_node34"><a xlink:href="libcli_8h.html" target="_top" xlink:title="libcli.h">
<polygon fill="#ffffff" stroke="#000000" points="1456.7266,-55.5 1456.7266,-73.5 1500.5146,-73.5 1500.5146,-55.5 1456.7266,-55.5"/>
<text text-anchor="middle" x="1478.6206" y="-61.5" font-family="Helvetica,sans-Serif" font-size="10.00" fill="#000000">libcli.h</text>
</a>
</g>
</g>
<!-- Node2&#45;&gt;Node33 -->
<g id="edge37" class="edge">
<title>Node2&#45;&gt;Node33</title>
<path fill="none" stroke="#191970" d="M1308.2342,-111.465C1340.6797,-103.1358 1392.8477,-89.5154 1446.8854,-74.1366"/>
<polygon fill="#191970" stroke="#191970" points="1447.9831,-77.463 1456.6353,-71.3482 1446.0583,-70.7329 1447.9831,-77.463"/>
</g>
<!-- Node34 -->
<g id="node35" class="node">
<title>Node34</title>
<polygon fill="#ffffff" stroke="#bfbfbf" points="1632.394,-55.5 1632.394,-73.5 1682.8472,-73.5 1682.8472,-55.5 1632.394,-55.5"/>
<text text-anchor="middle" x="1657.6206" y="-61.5" font-family="Helvetica,sans-Serif" font-size="10.00" fill="#000000">mysql.h</text>
</g>
<!-- Node2&#45;&gt;Node34 -->
<g id="edge41" class="edge">
<title>Node2&#45;&gt;Node34</title>
<path fill="none" stroke="#191970" d="M1308.3911,-116.4178C1369.0232,-110.283 1505.2969,-95.2778 1618.6206,-74 1619.7165,-73.7942 1620.8277,-73.5771 1621.9481,-73.3508"/>
<polygon fill="#191970" stroke="#191970" points="1623.0908,-76.6836 1632.1114,-71.1267 1621.5944,-69.8454 1623.0908,-76.6836"/>
</g>
<!-- Node35 -->
<g id="node36" class="node">
<title>Node35</title>
<polygon fill="#ffffff" stroke="#bfbfbf" points="1701.0049,-55.5 1701.0049,-73.5 1744.2363,-73.5 1744.2363,-55.5 1701.0049,-55.5"/>
<text text-anchor="middle" x="1722.6206" y="-61.5" font-family="Helvetica,sans-Serif" font-size="10.00" fill="#000000">zmq.h</text>
</g>
<!-- Node2&#45;&gt;Node35 -->
<g id="edge42" class="edge">
<title>Node2&#45;&gt;Node35</title>
<path fill="none" stroke="#191970" d="M1308.1705,-118.0682C1376.3767,-114.5422 1542.6614,-103.6249 1690.5723,-73.8466"/>
<polygon fill="#191970" stroke="#191970" points="1691.6435,-77.2 1700.7374,-71.764 1690.2384,-70.3424 1691.6435,-77.2"/>
</g>
<!-- Node36 -->
<g id="node37" class="node">
<title>Node36</title>
<g id="a_node37"><a xlink:href="src_2include_2type_8h.html" target="_top" xlink:title="type.h">
<polygon fill="#ffffff" stroke="#000000" points="0,-55.5 0,-73.5 43.2412,-73.5 43.2412,-55.5 0,-55.5"/>
<text text-anchor="middle" x="21.6206" y="-61.5" font-family="Helvetica,sans-Serif" font-size="10.00" fill="#000000">type.h</text>
</a>
</g>
</g>
<!-- Node2&#45;&gt;Node36 -->
<g id="edge43" class="edge">
<title>Node2&#45;&gt;Node36</title>
<path fill="none" stroke="#191970" d="M1245.0108,-118.8351C1069.1396,-115.0694 213.6439,-95.8632 53.7012,-73.7441"/>
<polygon fill="#191970" stroke="#191970" points="53.8247,-70.2215 43.4063,-72.1467 52.7513,-77.1387 53.8247,-70.2215"/>
</g>
<!-- Node28&#45;&gt;Node2 -->
<g id="edge29" class="edge">
<title>Node28&#45;&gt;Node2</title>
<path fill="none" stroke="#191970" d="M120.6086,-70.5166C126.6298,-71.8994 132.822,-73.198 138.6206,-74 579.5989,-134.9937 695.0108,-87.5447 1139.6206,-110 1171.6463,-111.6175 1207.5905,-113.9499 1234.7212,-115.8988"/>
<polygon fill="#191970" stroke="#191970" points="1234.8013,-119.4139 1245.0298,-116.6521 1235.3115,-112.4325 1234.8013,-119.4139"/>
</g>
<!-- Node29&#45;&gt;Node2 -->
<g id="edge31" class="edge">
<title>Node29&#45;&gt;Node2</title>
<path fill="none" stroke="#191970" d="M1396.968,-73.5956C1376.0612,-82.6765 1341.0632,-96.7066 1314.1029,-106.8663"/>
<polygon fill="#191970" stroke="#191970" points="1312.7226,-103.6455 1304.5748,-110.4179 1315.1675,-110.2046 1312.7226,-103.6455"/>
</g>
<!-- Node30&#45;&gt;Node2 -->
<g id="edge33" class="edge">
<title>Node30&#45;&gt;Node2</title>
<path fill="none" stroke="#191970" d="M2071.7605,-73.5257C2070.7056,-73.695 2069.657,-73.8537 2068.6206,-74 1922.12,-94.6819 1460.1207,-113.0379 1318.3214,-118.1136"/>
<polygon fill="#191970" stroke="#191970" points="1318.1569,-114.6172 1308.2873,-118.4696 1318.4051,-121.6128 1318.1569,-114.6172"/>
</g>
<!-- Node31 -->
<g id="node32" class="node">
<title>Node31</title>
<g id="a_node32"><a xlink:href="str_8h.html" target="_top" xlink:title="str.h">
<polygon fill="#ffffff" stroke="#000000" points="2359.1699,-.5 2359.1699,-18.5 2394.0713,-18.5 2394.0713,-.5 2359.1699,-.5"/>
<text text-anchor="middle" x="2376.6206" y="-6.5" font-family="Helvetica,sans-Serif" font-size="10.00" fill="#000000">str.h</text>
</a>
</g>
</g>
<!-- Node30&#45;&gt;Node31 -->
<g id="edge34" class="edge">
<title>Node30&#45;&gt;Node31</title>
<path fill="none" stroke="#191970" d="M2134.6155,-56.94C2137.6574,-56.2723 2140.6945,-55.6165 2143.6206,-55 2217.7641,-39.379 2305.5792,-22.7289 2349.1931,-14.5837"/>
<polygon fill="#191970" stroke="#191970" points="2349.8576,-18.0202 2359.0474,-12.7478 2348.5755,-11.1387 2349.8576,-18.0202"/>
</g>
<!-- Node31&#45;&gt;Node2 -->
<g id="edge35" class="edge">
<title>Node31&#45;&gt;Node2</title>
<path fill="none" stroke="#191970" d="M2376.9739,-18.7982C2376.9572,-33.2409 2374.5471,-60.7764 2357.6206,-74 2315.969,-106.5398 1511.7177,-117.0347 1318.2249,-119.0937"/>
<polygon fill="#191970" stroke="#191970" points="1318.1364,-115.5944 1308.1736,-119.1989 1318.2097,-122.594 1318.1364,-115.5944"/>
</g>
<!-- Node33&#45;&gt;Node3 -->
<g id="edge39" class="edge">
<title>Node33&#45;&gt;Node3</title>
<path fill="none" stroke="#191970" d="M1488.033,-55.4179C1496.3165,-47.425 1508.5815,-35.5903 1518.5851,-25.9377"/>
<polygon fill="#191970" stroke="#191970" points="1521.2378,-28.2419 1526.0037,-18.7795 1516.3772,-23.2045 1521.2378,-28.2419"/>
</g>
<!-- Node33&#45;&gt;Node6 -->
<g id="edge38" class="edge">
<title>Node33&#45;&gt;Node6</title>
<path fill="none" stroke="#191970" d="M1500.6337,-57.7456C1503.6528,-56.8217 1506.7131,-55.8865 1509.6206,-55 1548.5594,-43.1279 1593.2087,-29.5945 1623.5993,-20.395"/>
<polygon fill="#191970" stroke="#191970" points="1624.7728,-23.6967 1633.3302,-17.45 1622.7451,-16.9968 1624.7728,-23.6967"/>
</g>
<!-- Node33&#45;&gt;Node16 -->
<g id="edge40" class="edge">
<title>Node33&#45;&gt;Node16</title>
<path fill="none" stroke="#191970" d="M1456.408,-57.1001C1453.4758,-56.2984 1450.4919,-55.5687 1447.6206,-55 1285.4582,-22.8788 1088.1025,-13.2746 1004.3412,-10.5351"/>
<polygon fill="#191970" stroke="#191970" points="1004.333,-7.0332 994.2288,-10.22 1004.1149,-14.0298 1004.333,-7.0332"/>
</g>
<!-- Node37&#45;&gt;Node2 -->
<g id="edge45" class="edge">
<title>Node37&#45;&gt;Node2</title>
<path fill="none" stroke="#191970" d="M1189.7941,-165.4179C1206.2786,-156.7001 1231.4048,-143.4122 1250.3939,-133.3699"/>
<polygon fill="#191970" stroke="#191970" points="1252.2179,-136.3646 1259.4216,-128.5956 1248.9454,-130.1767 1252.2179,-136.3646"/>
</g>
<!-- Node39&#45;&gt;Node36 -->
<g id="edge48" class="edge">
<title>Node39&#45;&gt;Node36</title>
<path fill="none" stroke="#191970" d="M193.1715,-110.4774C158.7495,-102.2453 106.6892,-89.4164 53.476,-74.4261"/>
<polygon fill="#191970" stroke="#191970" points="54.1063,-70.9668 43.5305,-71.6026 52.1945,-77.7007 54.1063,-70.9668"/>
</g>
<!-- Node40&#45;&gt;Node2 -->
<g id="edge50" class="edge">
<title>Node40&#45;&gt;Node2</title>
<path fill="none" stroke="#191970" d="M1302.3292,-220.4982C1297.7761,-202.6108 1287.5048,-162.2594 1281.4129,-138.3271"/>
<polygon fill="#191970" stroke="#191970" points="1284.8023,-137.4537 1278.9436,-128.6261 1278.0187,-139.1805 1284.8023,-137.4537"/>
</g>
<!-- Node40&#45;&gt;Node31 -->
<g id="edge54" class="edge">
<title>Node40&#45;&gt;Node31</title>
<path fill="none" stroke="#191970" d="M1340.7083,-227.0336C1519.8526,-214.4325 2307.7899,-154.6801 2377.6206,-74 2388.2503,-61.7188 2386.515,-42.6514 2383.0133,-28.4286"/>
<polygon fill="#191970" stroke="#191970" points="2386.3316,-27.3058 2380.1667,-18.6893 2379.6127,-29.2696 2386.3316,-27.3058"/>
</g>
<!-- Node40&#45;&gt;Node37 -->
<g id="edge51" class="edge">
<title>Node40&#45;&gt;Node37</title>
<path fill="none" stroke="#191970" d="M1282.8235,-220.4179C1261.3277,-211.4613 1228.2542,-197.6806 1203.9454,-187.552"/>
<polygon fill="#191970" stroke="#191970" points="1205.0271,-184.2111 1194.4501,-183.5956 1202.3347,-190.6726 1205.0271,-184.2111"/>
</g>
<!-- Node41 -->
<g id="node42" class="node">
<title>Node41</title>
<g id="a_node42"><a xlink:href="hash_8h.html" target="_top" xlink:title="hash.h">
<polygon fill="#ffffff" stroke="#000000" points="1332.6084,-165.5 1332.6084,-183.5 1378.6328,-183.5 1378.6328,-165.5 1332.6084,-165.5"/>
<text text-anchor="middle" x="1355.6206" y="-171.5" font-family="Helvetica,sans-Serif" font-size="10.00" fill="#000000">hash.h</text>
</a>
</g>
</g>
<!-- Node40&#45;&gt;Node41 -->
<g id="edge52" class="edge">
<title>Node40&#45;&gt;Node41</title>
<path fill="none" stroke="#191970" d="M1313.0422,-220.4179C1320.3804,-212.5041 1331.2108,-200.8243 1340.1119,-191.2251"/>
<polygon fill="#191970" stroke="#191970" points="1342.783,-193.492 1347.016,-183.7795 1337.6501,-188.7324 1342.783,-193.492"/>
</g>
<!-- Node41&#45;&gt;Node2 -->
<g id="edge53" class="edge">
<title>Node41&#45;&gt;Node2</title>
<path fill="none" stroke="#191970" d="M1342.5754,-165.4179C1330.4537,-156.9788 1312.1806,-144.257 1297.9399,-134.3426"/>
<polygon fill="#191970" stroke="#191970" points="1299.892,-131.4369 1289.6852,-128.5956 1295.8924,-137.1818 1299.892,-131.4369"/>
</g>
<!-- Node43 -->
<g id="node44" class="node">
<title>Node43</title>
<g id="a_node44"><a xlink:href="app__events_2include_2app__event__json_8h.html" target="_top" xlink:title="app_event_json.h">
<polygon fill="#ffffff" stroke="#000000" points="1146.1431,-220.5 1146.1431,-238.5 1241.0981,-238.5 1241.0981,-220.5 1146.1431,-220.5"/>
<text text-anchor="middle" x="1193.6206" y="-226.5" font-family="Helvetica,sans-Serif" font-size="10.00" fill="#000000">app_event_json.h</text>
</a>
</g>
</g>
<!-- Node42&#45;&gt;Node43 -->
<g id="edge56" class="edge">
<title>Node42&#45;&gt;Node43</title>
<path fill="none" stroke="#191970" d="M1193.6206,-275.4179C1193.6206,-268.2164 1193.6206,-257.8962 1193.6206,-248.8632"/>
<polygon fill="#191970" stroke="#191970" points="1197.1207,-248.7794 1193.6206,-238.7795 1190.1207,-248.7795 1197.1207,-248.7794"/>
</g>
<!-- Node43&#45;&gt;Node28 -->
<g id="edge59" class="edge">
<title>Node43&#45;&gt;Node28</title>
<path fill="none" stroke="#191970" d="M1179.0299,-220.3406C1155.1123,-205.8293 1105.6152,-177.8818 1059.6206,-165 662.924,-53.8966 541.0264,-142.0954 130.4037,-73.8912"/>
<polygon fill="#191970" stroke="#191970" points="130.7831,-70.406 120.3409,-72.1982 129.6216,-77.3089 130.7831,-70.406"/>
</g>
<!-- Node44 -->
<g id="node45" class="node">
<title>Node44</title>
<g id="a_node45"><a xlink:href="base64_8h.html" target="_top" xlink:title="base64.h">
<polygon fill="#ffffff" stroke="#000000" points="1219.0469,-165.5 1219.0469,-183.5 1276.1943,-183.5 1276.1943,-165.5 1219.0469,-165.5"/>
<text text-anchor="middle" x="1247.6206" y="-171.5" font-family="Helvetica,sans-Serif" font-size="10.00" fill="#000000">base64.h</text>
</a>
</g>
</g>
<!-- Node43&#45;&gt;Node44 -->
<g id="edge57" class="edge">
<title>Node43&#45;&gt;Node44</title>
<path fill="none" stroke="#191970" d="M1202.5376,-220.4179C1210.3852,-212.425 1222.0046,-200.5903 1231.4817,-190.9377"/>
<polygon fill="#191970" stroke="#191970" points="1234.0014,-193.3672 1238.5099,-183.7795 1229.0065,-188.463 1234.0014,-193.3672"/>
</g>
<!-- Node44&#45;&gt;Node2 -->
<g id="edge58" class="edge">
<title>Node44&#45;&gt;Node2</title>
<path fill="none" stroke="#191970" d="M1252.4094,-165.4179C1256.3734,-157.8998 1262.1296,-146.9829 1267.0349,-137.6799"/>
<polygon fill="#191970" stroke="#191970" points="1270.1597,-139.2576 1271.7278,-128.7795 1263.9677,-135.9927 1270.1597,-139.2576"/>
</g>
</g>
</svg>
