<?xml version="1.0" encoding="UTF-8" standalone="no"?>
<!DOCTYPE svg PUBLIC "-//W3C//DTD SVG 1.1//EN"
 "http://www.w3.org/Graphics/SVG/1.1/DTD/svg11.dtd">
<!-- Generated by graphviz version 2.40.1 (20161225.0304)
 -->
<!-- Title: components/apphdlr.c Pages: 1 -->
<svg width="1603pt" height="302pt"
 viewBox="0.00 0.00 1603.35 302.00" xmlns="http://www.w3.org/2000/svg" xmlns:xlink="http://www.w3.org/1999/xlink">
<g id="graph0" class="graph" transform="scale(1 1) rotate(0) translate(4 298)">
<title>components/apphdlr.c</title>
<polygon fill="#ffffff" stroke="transparent" points="-4,4 -4,-298 1599.3521,-298 1599.3521,4 -4,4"/>
<!-- Node0 -->
<g id="node1" class="node">
<title>Node0</title>
<polygon fill="#bfbfbf" stroke="#000000" points="989.8081,-275.5 989.8081,-293.5 1103.6548,-293.5 1103.6548,-275.5 989.8081,-275.5"/>
<text text-anchor="middle" x="1046.7314" y="-281.5" font-family="Helvetica,sans-Serif" font-size="10.00" fill="#000000">components/apphdlr.c</text>
</g>
<!-- Node1 -->
<g id="node2" class="node">
<title>Node1</title>
<g id="a_node2"><a xlink:href="apphdlr_8h.html" target="_top" xlink:title="apphdlr.h">
<polygon fill="#ffffff" stroke="#000000" points="982.1553,-220.5 982.1553,-238.5 1039.3076,-238.5 1039.3076,-220.5 982.1553,-220.5"/>
<text text-anchor="middle" x="1010.7314" y="-226.5" font-family="Helvetica,sans-Serif" font-size="10.00" fill="#000000">apphdlr.h</text>
</a>
</g>
</g>
<!-- Node0&#45;&gt;Node1 -->
<g id="edge1" class="edge">
<title>Node0&#45;&gt;Node1</title>
<path fill="none" stroke="#191970" d="M1040.7868,-275.4179C1035.8141,-267.8207 1028.5696,-256.7527 1022.439,-247.3866"/>
<polygon fill="#191970" stroke="#191970" points="1025.2104,-245.2297 1016.8053,-238.7795 1019.3534,-249.0633 1025.2104,-245.2297"/>
</g>
<!-- Node29 -->
<g id="node30" class="node">
<title>Node29</title>
<g id="a_node30"><a xlink:href="appint_8h.html" target="_top" xlink:title="appint.h">
<polygon fill="#ffffff" stroke="#000000" points="1076.9385,-220.5 1076.9385,-238.5 1128.5244,-238.5 1128.5244,-220.5 1076.9385,-220.5"/>
<text text-anchor="middle" x="1102.7314" y="-226.5" font-family="Helvetica,sans-Serif" font-size="10.00" fill="#000000">appint.h</text>
</a>
</g>
</g>
<!-- Node0&#45;&gt;Node29 -->
<g id="edge34" class="edge">
<title>Node0&#45;&gt;Node29</title>
<path fill="none" stroke="#191970" d="M1055.9787,-275.4179C1064.1169,-267.425 1076.1667,-255.5903 1085.9948,-245.9377"/>
<polygon fill="#191970" stroke="#191970" points="1088.6013,-248.2836 1093.2833,-238.7795 1083.6963,-243.2895 1088.6013,-248.2836"/>
</g>
<!-- Node2 -->
<g id="node3" class="node">
<title>Node2</title>
<g id="a_node3"><a xlink:href="src_2include_2common_8h.html" target="_top" xlink:title="common.h">
<polygon fill="#ffffff" stroke="#000000" points="910.3892,-55.5 910.3892,-73.5 973.0737,-73.5 973.0737,-55.5 910.3892,-55.5"/>
<text text-anchor="middle" x="941.7314" y="-61.5" font-family="Helvetica,sans-Serif" font-size="10.00" fill="#000000">common.h</text>
</a>
</g>
</g>
<!-- Node1&#45;&gt;Node2 -->
<g id="edge2" class="edge">
<title>Node1&#45;&gt;Node2</title>
<path fill="none" stroke="#191970" d="M994.2258,-220.4167C968.7328,-205.3194 920.7391,-172.3795 901.7314,-129 894.0396,-111.4457 908.0014,-93.0171 921.4938,-80.3747"/>
<polygon fill="#191970" stroke="#191970" points="923.9733,-82.8566 929.2164,-73.65 919.3764,-77.5775 923.9733,-82.8566"/>
</g>
<!-- Node25 -->
<g id="node26" class="node">
<title>Node25</title>
<g id="a_node26"><a xlink:href="events_2include_2event_8h.html" target="_top" xlink:title="event.h">
<polygon fill="#ffffff" stroke="#000000" points="986.3301,-165.5 986.3301,-183.5 1035.1328,-183.5 1035.1328,-165.5 986.3301,-165.5"/>
<text text-anchor="middle" x="1010.7314" y="-171.5" font-family="Helvetica,sans-Serif" font-size="10.00" fill="#000000">event.h</text>
</a>
</g>
</g>
<!-- Node1&#45;&gt;Node25 -->
<g id="edge27" class="edge">
<title>Node1&#45;&gt;Node25</title>
<path fill="none" stroke="#191970" d="M1010.7314,-220.4179C1010.7314,-213.2164 1010.7314,-202.8962 1010.7314,-193.8632"/>
<polygon fill="#191970" stroke="#191970" points="1014.2315,-193.7794 1010.7314,-183.7795 1007.2315,-193.7795 1014.2315,-193.7794"/>
</g>
<!-- Node3 -->
<g id="node4" class="node">
<title>Node3</title>
<polygon fill="#ffffff" stroke="#bfbfbf" points="0,-.5 0,-18.5 45.4629,-18.5 45.4629,-.5 0,-.5"/>
<text text-anchor="middle" x="22.7314" y="-6.5" font-family="Helvetica,sans-Serif" font-size="10.00" fill="#000000">stdio.h</text>
</g>
<!-- Node2&#45;&gt;Node3 -->
<g id="edge3" class="edge">
<title>Node2&#45;&gt;Node3</title>
<path fill="none" stroke="#191970" d="M910.1829,-63.9236C774.9695,-61.2962 243.1398,-49.3228 55.598,-18.8938"/>
<polygon fill="#191970" stroke="#191970" points="56.0456,-15.4198 45.6006,-17.1954 54.8731,-22.3209 56.0456,-15.4198"/>
</g>
<!-- Node4 -->
<g id="node5" class="node">
<title>Node4</title>
<polygon fill="#ffffff" stroke="#bfbfbf" points="63.2192,-.5 63.2192,-18.5 114.2437,-18.5 114.2437,-.5 63.2192,-.5"/>
<text text-anchor="middle" x="88.7314" y="-6.5" font-family="Helvetica,sans-Serif" font-size="10.00" fill="#000000">unistd.h</text>
</g>
<!-- Node2&#45;&gt;Node4 -->
<g id="edge4" class="edge">
<title>Node2&#45;&gt;Node4</title>
<path fill="none" stroke="#191970" d="M910.0399,-63.6588C781.4876,-60.1074 297.9136,-45.3673 124.5742,-18.942"/>
<polygon fill="#191970" stroke="#191970" points="125.0164,-15.4683 114.5898,-17.3488 123.9134,-22.3809 125.0164,-15.4683"/>
</g>
<!-- Node5 -->
<g id="node6" class="node">
<title>Node5</title>
<polygon fill="#ffffff" stroke="#bfbfbf" points="131.8892,-.5 131.8892,-18.5 179.5737,-18.5 179.5737,-.5 131.8892,-.5"/>
<text text-anchor="middle" x="155.7314" y="-6.5" font-family="Helvetica,sans-Serif" font-size="10.00" fill="#000000">stdlib.h</text>
</g>
<!-- Node2&#45;&gt;Node5 -->
<g id="edge5" class="edge">
<title>Node2&#45;&gt;Node5</title>
<path fill="none" stroke="#191970" d="M910.0945,-63.5161C788.4755,-59.5935 350.2678,-44.1317 189.8952,-18.7584"/>
<polygon fill="#191970" stroke="#191970" points="190.1779,-15.2576 179.7398,-17.0728 189.0317,-22.1631 190.1779,-15.2576"/>
</g>
<!-- Node6 -->
<g id="node7" class="node">
<title>Node6</title>
<polygon fill="#ffffff" stroke="#bfbfbf" points="197.335,-.5 197.335,-18.5 246.1279,-18.5 246.1279,-.5 197.335,-.5"/>
<text text-anchor="middle" x="221.7314" y="-6.5" font-family="Helvetica,sans-Serif" font-size="10.00" fill="#000000">string.h</text>
</g>
<!-- Node2&#45;&gt;Node6 -->
<g id="edge6" class="edge">
<title>Node2&#45;&gt;Node6</title>
<path fill="none" stroke="#191970" d="M910.1066,-63.3059C795.6365,-58.8472 402.4019,-42.308 256.5323,-18.9308"/>
<polygon fill="#191970" stroke="#191970" points="256.9068,-15.4446 246.4644,-17.2358 255.7446,-22.3475 256.9068,-15.4446"/>
</g>
<!-- Node7 -->
<g id="node8" class="node">
<title>Node7</title>
<polygon fill="#ffffff" stroke="#bfbfbf" points="263.665,-.5 263.665,-18.5 315.7979,-18.5 315.7979,-.5 263.665,-.5"/>
<text text-anchor="middle" x="289.7314" y="-6.5" font-family="Helvetica,sans-Serif" font-size="10.00" fill="#000000">stdarg.h</text>
</g>
<!-- Node2&#45;&gt;Node7 -->
<g id="edge7" class="edge">
<title>Node2&#45;&gt;Node7</title>
<path fill="none" stroke="#191970" d="M910.3823,-62.984C804.2594,-57.731 458.2551,-39.5859 326.2305,-18.8914"/>
<polygon fill="#191970" stroke="#191970" points="326.4199,-15.3756 315.9842,-17.2047 325.2828,-22.2826 326.4199,-15.3756"/>
</g>
<!-- Node8 -->
<g id="node9" class="node">
<title>Node8</title>
<polygon fill="#ffffff" stroke="#bfbfbf" points="333.6108,-.5 333.6108,-18.5 381.8521,-18.5 381.8521,-.5 333.6108,-.5"/>
<text text-anchor="middle" x="357.7314" y="-6.5" font-family="Helvetica,sans-Serif" font-size="10.00" fill="#000000">stdint.h</text>
</g>
<!-- Node2&#45;&gt;Node8 -->
<g id="edge8" class="edge">
<title>Node2&#45;&gt;Node8</title>
<path fill="none" stroke="#191970" d="M910.3789,-64.0758C827.1648,-62.4927 593.8454,-55.0786 392.0022,-18.9018"/>
<polygon fill="#191970" stroke="#191970" points="392.5767,-15.4489 382.1115,-17.1011 391.3229,-22.3357 392.5767,-15.4489"/>
</g>
<!-- Node9 -->
<g id="node10" class="node">
<title>Node9</title>
<polygon fill="#ffffff" stroke="#bfbfbf" points="399.6035,-.5 399.6035,-18.5 457.8594,-18.5 457.8594,-.5 399.6035,-.5"/>
<text text-anchor="middle" x="428.7314" y="-6.5" font-family="Helvetica,sans-Serif" font-size="10.00" fill="#000000">pthread.h</text>
</g>
<!-- Node2&#45;&gt;Node9 -->
<g id="edge9" class="edge">
<title>Node2&#45;&gt;Node9</title>
<path fill="none" stroke="#191970" d="M910.1124,-63.1066C834.9995,-59.4491 639.8876,-47.907 468.0762,-19.0053"/>
<polygon fill="#191970" stroke="#191970" points="468.544,-15.5346 458.0977,-17.3024 467.3663,-22.4348 468.544,-15.5346"/>
</g>
<!-- Node10 -->
<g id="node11" class="node">
<title>Node10</title>
<polygon fill="#ffffff" stroke="#bfbfbf" points="475.6108,-.5 475.6108,-18.5 523.8521,-18.5 523.8521,-.5 475.6108,-.5"/>
<text text-anchor="middle" x="499.7314" y="-6.5" font-family="Helvetica,sans-Serif" font-size="10.00" fill="#000000">ctype.h</text>
</g>
<!-- Node2&#45;&gt;Node10 -->
<g id="edge10" class="edge">
<title>Node2&#45;&gt;Node10</title>
<path fill="none" stroke="#191970" d="M910.154,-62.8153C842.6784,-58.8261 679.4008,-47.0985 534.1116,-18.986"/>
<polygon fill="#191970" stroke="#191970" points="534.6141,-15.5178 524.1266,-17.0221 533.2631,-22.3862 534.6141,-15.5178"/>
</g>
<!-- Node11 -->
<g id="node12" class="node">
<title>Node11</title>
<polygon fill="#ffffff" stroke="#bfbfbf" points="541.8892,-.5 541.8892,-18.5 589.5737,-18.5 589.5737,-.5 541.8892,-.5"/>
<text text-anchor="middle" x="565.7314" y="-6.5" font-family="Helvetica,sans-Serif" font-size="10.00" fill="#000000">errno.h</text>
</g>
<!-- Node2&#45;&gt;Node11 -->
<g id="edge11" class="edge">
<title>Node2&#45;&gt;Node11</title>
<path fill="none" stroke="#191970" d="M910.1452,-61.994C850.886,-56.9351 718.921,-43.9772 599.7576,-19.1869"/>
<polygon fill="#191970" stroke="#191970" points="600.2477,-15.7132 589.7399,-17.068 598.7991,-22.5616 600.2477,-15.7132"/>
</g>
<!-- Node12 -->
<g id="node13" class="node">
<title>Node12</title>
<polygon fill="#ffffff" stroke="#bfbfbf" points="607.1035,-.5 607.1035,-18.5 670.3594,-18.5 670.3594,-.5 607.1035,-.5"/>
<text text-anchor="middle" x="638.7314" y="-6.5" font-family="Helvetica,sans-Serif" font-size="10.00" fill="#000000">arpa/inet.h</text>
</g>
<!-- Node2&#45;&gt;Node12 -->
<g id="edge12" class="edge">
<title>Node2&#45;&gt;Node12</title>
<path fill="none" stroke="#191970" d="M910.1682,-59.6015C862.6207,-52.0959 769.5758,-36.9184 680.4783,-19.0593"/>
<polygon fill="#191970" stroke="#191970" points="680.9725,-15.5885 670.4775,-17.0398 679.5868,-22.45 680.9725,-15.5885"/>
</g>
<!-- Node13 -->
<g id="node14" class="node">
<title>Node13</title>
<polygon fill="#ffffff" stroke="#bfbfbf" points="688.2686,-.5 688.2686,-18.5 753.1943,-18.5 753.1943,-.5 688.2686,-.5"/>
<text text-anchor="middle" x="720.7314" y="-6.5" font-family="Helvetica,sans-Serif" font-size="10.00" fill="#000000">netinet/in.h</text>
</g>
<!-- Node2&#45;&gt;Node13 -->
<g id="edge13" class="edge">
<title>Node2&#45;&gt;Node13</title>
<path fill="none" stroke="#191970" d="M910.0675,-56.6198C871.505,-47.0228 806.214,-30.774 763.2851,-20.0903"/>
<polygon fill="#191970" stroke="#191970" points="763.9662,-16.6531 753.4169,-17.6344 762.2756,-23.4459 763.9662,-16.6531"/>
</g>
<!-- Node14 -->
<g id="node15" class="node">
<title>Node14</title>
<polygon fill="#ffffff" stroke="#bfbfbf" points="770.8745,-.5 770.8745,-18.5 848.5884,-18.5 848.5884,-.5 770.8745,-.5"/>
<text text-anchor="middle" x="809.7314" y="-6.5" font-family="Helvetica,sans-Serif" font-size="10.00" fill="#000000">net/ethernet.h</text>
</g>
<!-- Node2&#45;&gt;Node14 -->
<g id="edge14" class="edge">
<title>Node2&#45;&gt;Node14</title>
<path fill="none" stroke="#191970" d="M919.9343,-55.4179C898.4385,-46.4613 865.365,-32.6806 841.0562,-22.552"/>
<polygon fill="#191970" stroke="#191970" points="842.1379,-19.2111 831.5609,-18.5956 839.4455,-25.6726 842.1379,-19.2111"/>
</g>
<!-- Node15 -->
<g id="node16" class="node">
<title>Node15</title>
<polygon fill="#ffffff" stroke="#bfbfbf" points="866.2686,-.5 866.2686,-18.5 931.1943,-18.5 931.1943,-.5 866.2686,-.5"/>
<text text-anchor="middle" x="898.7314" y="-6.5" font-family="Helvetica,sans-Serif" font-size="10.00" fill="#000000">netinet/ip.h</text>
</g>
<!-- Node2&#45;&gt;Node15 -->
<g id="edge15" class="edge">
<title>Node2&#45;&gt;Node15</title>
<path fill="none" stroke="#191970" d="M934.6309,-55.4179C928.5675,-47.6624 919.6764,-36.29 912.2596,-26.8035"/>
<polygon fill="#191970" stroke="#191970" points="914.9029,-24.5018 905.9863,-18.7795 909.3882,-28.8133 914.9029,-24.5018"/>
</g>
<!-- Node16 -->
<g id="node17" class="node">
<title>Node16</title>
<polygon fill="#ffffff" stroke="#bfbfbf" points="949.4902,-.5 949.4902,-18.5 1019.9727,-18.5 1019.9727,-.5 949.4902,-.5"/>
<text text-anchor="middle" x="984.7314" y="-6.5" font-family="Helvetica,sans-Serif" font-size="10.00" fill="#000000">netinet/tcp.h</text>
</g>
<!-- Node2&#45;&gt;Node16 -->
<g id="edge16" class="edge">
<title>Node2&#45;&gt;Node16</title>
<path fill="none" stroke="#191970" d="M948.832,-55.4179C954.8954,-47.6624 963.7865,-36.29 971.2033,-26.8035"/>
<polygon fill="#191970" stroke="#191970" points="974.0747,-28.8133 977.4766,-18.7795 968.56,-24.5018 974.0747,-28.8133"/>
</g>
<!-- Node17 -->
<g id="node18" class="node">
<title>Node17</title>
<polygon fill="#ffffff" stroke="#bfbfbf" points="1037.9312,-.5 1037.9312,-18.5 1129.5317,-18.5 1129.5317,-.5 1037.9312,-.5"/>
<text text-anchor="middle" x="1083.7314" y="-6.5" font-family="Helvetica,sans-Serif" font-size="10.00" fill="#000000">netinet/ip_icmp.h</text>
</g>
<!-- Node2&#45;&gt;Node17 -->
<g id="edge17" class="edge">
<title>Node2&#45;&gt;Node17</title>
<path fill="none" stroke="#191970" d="M965.1799,-55.4179C988.5097,-46.3817 1024.5167,-32.4353 1050.7287,-22.2828"/>
<polygon fill="#191970" stroke="#191970" points="1052.1874,-25.4712 1060.2482,-18.5956 1049.6591,-18.9437 1052.1874,-25.4712"/>
</g>
<!-- Node18 -->
<g id="node19" class="node">
<title>Node18</title>
<polygon fill="#ffffff" stroke="#bfbfbf" points="1147.3276,-.5 1147.3276,-18.5 1206.1353,-18.5 1206.1353,-.5 1147.3276,-.5"/>
<text text-anchor="middle" x="1176.7314" y="-6.5" font-family="Helvetica,sans-Serif" font-size="10.00" fill="#000000">jansson.h</text>
</g>
<!-- Node2&#45;&gt;Node18 -->
<g id="edge18" class="edge">
<title>Node2&#45;&gt;Node18</title>
<path fill="none" stroke="#191970" d="M973.162,-57.424C1010.1783,-49.0502 1073.7718,-34.5394 1137.4776,-19.2732"/>
<polygon fill="#191970" stroke="#191970" points="1138.3801,-22.6561 1147.2858,-16.9169 1136.7449,-15.8497 1138.3801,-22.6561"/>
</g>
<!-- Node19 -->
<g id="node20" class="node">
<title>Node19</title>
<polygon fill="#ffffff" stroke="#bfbfbf" points="1223.8374,-.5 1223.8374,-18.5 1267.6255,-18.5 1267.6255,-.5 1223.8374,-.5"/>
<text text-anchor="middle" x="1245.7314" y="-6.5" font-family="Helvetica,sans-Serif" font-size="10.00" fill="#000000">libcli.h</text>
</g>
<!-- Node2&#45;&gt;Node19 -->
<g id="edge19" class="edge">
<title>Node2&#45;&gt;Node19</title>
<path fill="none" stroke="#191970" d="M973.1142,-60.6433C1022.4226,-54.2877 1121.156,-40.3687 1213.9834,-18.9149"/>
<polygon fill="#191970" stroke="#191970" points="1214.8776,-22.3002 1223.814,-16.6089 1213.279,-15.4852 1214.8776,-22.3002"/>
</g>
<!-- Node20 -->
<g id="node21" class="node">
<title>Node20</title>
<polygon fill="#ffffff" stroke="#bfbfbf" points="1286.1157,-.5 1286.1157,-18.5 1329.3472,-18.5 1329.3472,-.5 1286.1157,-.5"/>
<text text-anchor="middle" x="1307.7314" y="-6.5" font-family="Helvetica,sans-Serif" font-size="10.00" fill="#000000">zmq.h</text>
</g>
<!-- Node2&#45;&gt;Node20 -->
<g id="edge20" class="edge">
<title>Node2&#45;&gt;Node20</title>
<path fill="none" stroke="#191970" d="M973.4373,-61.923C1031.6237,-56.8233 1159.4221,-43.9049 1276.0272,-18.8356"/>
<polygon fill="#191970" stroke="#191970" points="1276.811,-22.247 1285.833,-16.6924 1275.3163,-15.4084 1276.811,-22.247"/>
</g>
<!-- Node21 -->
<g id="node22" class="node">
<title>Node21</title>
<g id="a_node22"><a xlink:href="mac2int_8h.html" target="_top" xlink:title="mac2int.h">
<polygon fill="#ffffff" stroke="#000000" points="1347.0542,-.5 1347.0542,-18.5 1406.4087,-18.5 1406.4087,-.5 1347.0542,-.5"/>
<text text-anchor="middle" x="1376.7314" y="-6.5" font-family="Helvetica,sans-Serif" font-size="10.00" fill="#000000">mac2int.h</text>
</a>
</g>
</g>
<!-- Node2&#45;&gt;Node21 -->
<g id="edge21" class="edge">
<title>Node2&#45;&gt;Node21</title>
<path fill="none" stroke="#191970" d="M973.2063,-61.9132C1039.6566,-56.5942 1198.1611,-42.88 1329.7314,-19 1332.0461,-18.5799 1334.4291,-18.0998 1336.8419,-17.5837"/>
<polygon fill="#191970" stroke="#191970" points="1337.8508,-20.9439 1346.8299,-15.3202 1336.3037,-14.117 1337.8508,-20.9439"/>
</g>
<!-- Node22 -->
<g id="node23" class="node">
<title>Node22</title>
<g id="a_node23"><a xlink:href="ip2int_8h.html" target="_top" xlink:title="ip2int.h">
<polygon fill="#ffffff" stroke="#000000" points="1424.6084,-.5 1424.6084,-18.5 1472.8545,-18.5 1472.8545,-.5 1424.6084,-.5"/>
<text text-anchor="middle" x="1448.7314" y="-6.5" font-family="Helvetica,sans-Serif" font-size="10.00" fill="#000000">ip2int.h</text>
</a>
</g>
</g>
<!-- Node2&#45;&gt;Node22 -->
<g id="edge23" class="edge">
<title>Node2&#45;&gt;Node22</title>
<path fill="none" stroke="#191970" d="M973.2395,-63.2984C1048.8361,-60.1595 1245.32,-49.7078 1406.7314,-19 1409.3322,-18.5052 1412.0237,-17.8962 1414.7431,-17.2276"/>
<polygon fill="#191970" stroke="#191970" points="1415.8163,-20.5645 1424.6008,-14.6415 1414.04,-13.7936 1415.8163,-20.5645"/>
</g>
<!-- Node23 -->
<g id="node24" class="node">
<title>Node23</title>
<g id="a_node24"><a xlink:href="src_2include_2type_8h.html" target="_top" xlink:title="type.h">
<polygon fill="#ffffff" stroke="#000000" points="1552.1108,-.5 1552.1108,-18.5 1595.3521,-18.5 1595.3521,-.5 1552.1108,-.5"/>
<text text-anchor="middle" x="1573.7314" y="-6.5" font-family="Helvetica,sans-Serif" font-size="10.00" fill="#000000">type.h</text>
</a>
</g>
</g>
<!-- Node2&#45;&gt;Node23 -->
<g id="edge25" class="edge">
<title>Node2&#45;&gt;Node23</title>
<path fill="none" stroke="#191970" d="M973.0904,-63.089C1077.5986,-58.2408 1414.1932,-41.4158 1542.0111,-18.8893"/>
<polygon fill="#191970" stroke="#191970" points="1542.7351,-22.3147 1551.9274,-17.0467 1541.4563,-15.4325 1542.7351,-22.3147"/>
</g>
<!-- Node24 -->
<g id="node25" class="node">
<title>Node24</title>
<polygon fill="#ffffff" stroke="#bfbfbf" points="1491.1157,-.5 1491.1157,-18.5 1534.3472,-18.5 1534.3472,-.5 1491.1157,-.5"/>
<text text-anchor="middle" x="1512.7314" y="-6.5" font-family="Helvetica,sans-Serif" font-size="10.00" fill="#000000">time.h</text>
</g>
<!-- Node2&#45;&gt;Node24 -->
<g id="edge26" class="edge">
<title>Node2&#45;&gt;Node24</title>
<path fill="none" stroke="#191970" d="M973.2854,-62.7284C1070.4699,-57.1366 1365.152,-39.1358 1480.883,-18.6915"/>
<polygon fill="#191970" stroke="#191970" points="1481.6716,-22.1049 1490.8622,-16.834 1480.3906,-15.2231 1481.6716,-22.1049"/>
</g>
<!-- Node21&#45;&gt;Node2 -->
<g id="edge22" class="edge">
<title>Node21&#45;&gt;Node2</title>
<path fill="none" stroke="#191970" d="M1350.1614,-18.5422C1349.3455,-18.7013 1348.5344,-18.8543 1347.7314,-19 1216.1477,-42.8824 1057.6245,-56.5969 983.5006,-61.9148"/>
<polygon fill="#191970" stroke="#191970" points="982.9203,-58.4468 973.19,-62.6387 983.4106,-65.4296 982.9203,-58.4468"/>
</g>
<!-- Node22&#45;&gt;Node2 -->
<g id="edge24" class="edge">
<title>Node22&#45;&gt;Node2</title>
<path fill="none" stroke="#191970" d="M1426.8567,-18.5749C1426.1437,-18.7242 1425.4343,-18.8663 1424.7314,-19 1263.7098,-49.6337 1067.7849,-60.1089 983.4271,-63.2756"/>
<polygon fill="#191970" stroke="#191970" points="983.0945,-59.7852 973.2269,-63.6428 983.3464,-66.7806 983.0945,-59.7852"/>
</g>
<!-- Node25&#45;&gt;Node2 -->
<g id="edge28" class="edge">
<title>Node25&#45;&gt;Node2</title>
<path fill="none" stroke="#191970" d="M1007.5893,-165.3035C1002.959,-152.3818 993.5587,-128.3774 981.7314,-110 975.0023,-99.5442 965.9581,-89.0422 958.1718,-80.7665"/>
<polygon fill="#191970" stroke="#191970" points="960.6838,-78.3292 951.2088,-73.5883 955.6593,-83.2031 960.6838,-78.3292"/>
</g>
<!-- Node26 -->
<g id="node27" class="node">
<title>Node26</title>
<g id="a_node27"><a xlink:href="src_2include_2context_8h.html" target="_top" xlink:title="context.h">
<polygon fill="#ffffff" stroke="#000000" points="1028.4409,-110.5 1028.4409,-128.5 1085.022,-128.5 1085.022,-110.5 1028.4409,-110.5"/>
<text text-anchor="middle" x="1056.7314" y="-116.5" font-family="Helvetica,sans-Serif" font-size="10.00" fill="#000000">context.h</text>
</a>
</g>
</g>
<!-- Node25&#45;&gt;Node26 -->
<g id="edge29" class="edge">
<title>Node25&#45;&gt;Node26</title>
<path fill="none" stroke="#191970" d="M1018.3274,-165.4179C1024.88,-157.5833 1034.5197,-146.0575 1042.5018,-136.5137"/>
<polygon fill="#191970" stroke="#191970" points="1045.2396,-138.6957 1048.9704,-128.7795 1039.8701,-134.2048 1045.2396,-138.6957"/>
</g>
<!-- Node27 -->
<g id="node28" class="node">
<title>Node27</title>
<g id="a_node28"><a xlink:href="events_2include_2event__id_8h.html" target="_top" xlink:title="event_id.h">
<polygon fill="#ffffff" stroke="#000000" points="910.6577,-110.5 910.6577,-128.5 972.8052,-128.5 972.8052,-110.5 910.6577,-110.5"/>
<text text-anchor="middle" x="941.7314" y="-116.5" font-family="Helvetica,sans-Serif" font-size="10.00" fill="#000000">event_id.h</text>
</a>
</g>
</g>
<!-- Node25&#45;&gt;Node27 -->
<g id="edge31" class="edge">
<title>Node25&#45;&gt;Node27</title>
<path fill="none" stroke="#191970" d="M999.3375,-165.4179C989.0122,-157.1876 973.5767,-144.8839 961.2817,-135.0836"/>
<polygon fill="#191970" stroke="#191970" points="963.3743,-132.2757 953.3729,-128.7795 959.0111,-137.7495 963.3743,-132.2757"/>
</g>
<!-- Node28 -->
<g id="node29" class="node">
<title>Node28</title>
<g id="a_node29"><a xlink:href="events_2include_2event__list_8h.html" target="_top" xlink:title="event_list.h">
<polygon fill="#ffffff" stroke="#000000" points="1220.4385,-55.5 1220.4385,-73.5 1287.0244,-73.5 1287.0244,-55.5 1220.4385,-55.5"/>
<text text-anchor="middle" x="1253.7314" y="-61.5" font-family="Helvetica,sans-Serif" font-size="10.00" fill="#000000">event_list.h</text>
</a>
</g>
</g>
<!-- Node25&#45;&gt;Node28 -->
<g id="edge32" class="edge">
<title>Node25&#45;&gt;Node28</title>
<path fill="none" stroke="#191970" d="M1030.6172,-165.4982C1073.3362,-146.1604 1174.0533,-100.5683 1224.2396,-77.8502"/>
<polygon fill="#191970" stroke="#191970" points="1225.9043,-80.9386 1233.571,-73.6261 1223.0175,-74.5616 1225.9043,-80.9386"/>
</g>
<!-- Node26&#45;&gt;Node2 -->
<g id="edge30" class="edge">
<title>Node26&#45;&gt;Node2</title>
<path fill="none" stroke="#191970" d="M1037.7415,-110.4179C1019.2638,-101.5807 990.9667,-88.0473 969.8731,-77.9591"/>
<polygon fill="#191970" stroke="#191970" points="971.281,-74.7528 960.7496,-73.5956 968.2608,-81.0677 971.281,-74.7528"/>
</g>
<!-- Node28&#45;&gt;Node23 -->
<g id="edge33" class="edge">
<title>Node28&#45;&gt;Node23</title>
<path fill="none" stroke="#191970" d="M1287.1005,-60.9262C1339.576,-54.9481 1444.6762,-41.5303 1541.8965,-19.1738"/>
<polygon fill="#191970" stroke="#191970" points="1542.9424,-22.5237 1551.8829,-16.8387 1541.3486,-15.7076 1542.9424,-22.5237"/>
</g>
<!-- Node30 -->
<g id="node31" class="node">
<title>Node30</title>
<g id="a_node31"><a xlink:href="app__events_2include_2app__event_8h.html" target="_top" xlink:title="app_event.h">
<polygon fill="#ffffff" stroke="#000000" points="1077.207,-165.5 1077.207,-183.5 1148.2559,-183.5 1148.2559,-165.5 1077.207,-165.5"/>
<text text-anchor="middle" x="1112.7314" y="-171.5" font-family="Helvetica,sans-Serif" font-size="10.00" fill="#000000">app_event.h</text>
</a>
</g>
</g>
<!-- Node29&#45;&gt;Node30 -->
<g id="edge35" class="edge">
<title>Node29&#45;&gt;Node30</title>
<path fill="none" stroke="#191970" d="M1104.3827,-220.4179C1105.6921,-213.2164 1107.5685,-202.8962 1109.2109,-193.8632"/>
<polygon fill="#191970" stroke="#191970" points="1112.6989,-194.2443 1111.0443,-183.7795 1105.8118,-192.992 1112.6989,-194.2443"/>
</g>
<!-- Node30&#45;&gt;Node2 -->
<g id="edge36" class="edge">
<title>Node30&#45;&gt;Node2</title>
<path fill="none" stroke="#191970" d="M1112.6441,-165.2216C1112.0009,-151.3047 1108.7217,-125.0561 1093.7314,-110 1078.1769,-94.3771 1022.6493,-80.5028 983.2168,-72.2981"/>
<polygon fill="#191970" stroke="#191970" points="983.8187,-68.849 973.3219,-70.287 982.4244,-75.7087 983.8187,-68.849"/>
</g>
<!-- Node30&#45;&gt;Node26 -->
<g id="edge37" class="edge">
<title>Node30&#45;&gt;Node26</title>
<path fill="none" stroke="#191970" d="M1103.4842,-165.4179C1095.346,-157.425 1083.2962,-145.5903 1073.4681,-135.9377"/>
<polygon fill="#191970" stroke="#191970" points="1075.7666,-133.2895 1066.1796,-128.7795 1070.8616,-138.2836 1075.7666,-133.2895"/>
</g>
<!-- Node31 -->
<g id="node32" class="node">
<title>Node31</title>
<g id="a_node32"><a xlink:href="app__events_2include_2app__event__id_8h.html" target="_top" xlink:title="app_event_id.h">
<polygon fill="#ffffff" stroke="#000000" points="1178.5347,-110.5 1178.5347,-128.5 1262.9282,-128.5 1262.9282,-110.5 1178.5347,-110.5"/>
<text text-anchor="middle" x="1220.7314" y="-116.5" font-family="Helvetica,sans-Serif" font-size="10.00" fill="#000000">app_event_id.h</text>
</a>
</g>
</g>
<!-- Node30&#45;&gt;Node31 -->
<g id="edge38" class="edge">
<title>Node30&#45;&gt;Node31</title>
<path fill="none" stroke="#191970" d="M1130.5654,-165.4179C1147.7621,-156.6603 1174.0151,-143.2907 1193.7657,-133.2326"/>
<polygon fill="#191970" stroke="#191970" points="1195.5482,-136.2526 1202.8709,-128.5956 1192.3716,-130.0148 1195.5482,-136.2526"/>
</g>
<!-- Node32 -->
<g id="node33" class="node">
<title>Node32</title>
<g id="a_node33"><a xlink:href="app__events_2include_2app__event__list_8h.html" target="_top" xlink:title="app_event_list.h">
<polygon fill="#ffffff" stroke="#000000" points="1469.3154,-55.5 1469.3154,-73.5 1558.1475,-73.5 1558.1475,-55.5 1469.3154,-55.5"/>
<text text-anchor="middle" x="1513.7314" y="-61.5" font-family="Helvetica,sans-Serif" font-size="10.00" fill="#000000">app_event_list.h</text>
</a>
</g>
</g>
<!-- Node30&#45;&gt;Node32 -->
<g id="edge39" class="edge">
<title>Node30&#45;&gt;Node32</title>
<path fill="none" stroke="#191970" d="M1145.547,-165.4982C1217.7473,-145.6927 1390.3427,-98.3473 1470.9248,-76.2425"/>
<polygon fill="#191970" stroke="#191970" points="1472.0264,-79.5697 1480.7442,-73.5489 1470.1745,-72.819 1472.0264,-79.5697"/>
</g>
<!-- Node32&#45;&gt;Node23 -->
<g id="edge40" class="edge">
<title>Node32&#45;&gt;Node23</title>
<path fill="none" stroke="#191970" d="M1523.6392,-55.4179C1532.4451,-47.3458 1545.5253,-35.3556 1556.1114,-25.6517"/>
<polygon fill="#191970" stroke="#191970" points="1558.6019,-28.1168 1563.6084,-18.7795 1553.8718,-22.9567 1558.6019,-28.1168"/>
</g>
</g>
</svg>
