<?xml version="1.0" encoding="UTF-8" standalone="no"?>
<!DOCTYPE svg PUBLIC "-//W3C//DTD SVG 1.1//EN"
 "http://www.w3.org/Graphics/SVG/1.1/DTD/svg11.dtd">
<!-- Generated by graphviz version 2.40.1 (20161225.0304)
 -->
<!-- Title: components/apphdlr.c Pages: 1 -->
<svg width="2410pt" height="357pt"
 viewBox="0.00 0.00 2410.35 357.00" xmlns="http://www.w3.org/2000/svg" xmlns:xlink="http://www.w3.org/1999/xlink">
<g id="graph0" class="graph" transform="scale(1 1) rotate(0) translate(4 353)">
<title>components/apphdlr.c</title>
<polygon fill="#ffffff" stroke="transparent" points="-4,4 -4,-353 2406.3521,-353 2406.3521,4 -4,4"/>
<!-- Node0 -->
<g id="node1" class="node">
<title>Node0</title>
<polygon fill="#bfbfbf" stroke="#000000" points="1340.8081,-330.5 1340.8081,-348.5 1454.6548,-348.5 1454.6548,-330.5 1340.8081,-330.5"/>
<text text-anchor="middle" x="1397.7314" y="-336.5" font-family="Helvetica,sans-Serif" font-size="10.00" fill="#000000">components/apphdlr.c</text>
</g>
<!-- Node1 -->
<g id="node2" class="node">
<title>Node1</title>
<g id="a_node2"><a xlink:href="apphdlr_8h.html" target="_top" xlink:title="apphdlr.h">
<polygon fill="#ffffff" stroke="#000000" points="1333.1553,-275.5 1333.1553,-293.5 1390.3076,-293.5 1390.3076,-275.5 1333.1553,-275.5"/>
<text text-anchor="middle" x="1361.7314" y="-281.5" font-family="Helvetica,sans-Serif" font-size="10.00" fill="#000000">apphdlr.h</text>
</a>
</g>
</g>
<!-- Node0&#45;&gt;Node1 -->
<g id="edge1" class="edge">
<title>Node0&#45;&gt;Node1</title>
<path fill="none" stroke="#191970" d="M1391.7868,-330.4179C1386.8141,-322.8207 1379.5696,-311.7527 1373.439,-302.3866"/>
<polygon fill="#191970" stroke="#191970" points="1376.2104,-300.2297 1367.8053,-293.7795 1370.3534,-304.0633 1376.2104,-300.2297"/>
</g>
<!-- Node41 -->
<g id="node42" class="node">
<title>Node41</title>
<g id="a_node42"><a xlink:href="appint_8h.html" target="_top" xlink:title="appint.h">
<polygon fill="#ffffff" stroke="#000000" points="1427.9385,-275.5 1427.9385,-293.5 1479.5244,-293.5 1479.5244,-275.5 1427.9385,-275.5"/>
<text text-anchor="middle" x="1453.7314" y="-281.5" font-family="Helvetica,sans-Serif" font-size="10.00" fill="#000000">appint.h</text>
</a>
</g>
</g>
<!-- Node0&#45;&gt;Node41 -->
<g id="edge51" class="edge">
<title>Node0&#45;&gt;Node41</title>
<path fill="none" stroke="#191970" d="M1406.9787,-330.4179C1415.1169,-322.425 1427.1667,-310.5903 1436.9948,-300.9377"/>
<polygon fill="#191970" stroke="#191970" points="1439.6013,-303.2836 1444.2833,-293.7795 1434.6963,-298.2895 1439.6013,-303.2836"/>
</g>
<!-- Node2 -->
<g id="node3" class="node">
<title>Node2</title>
<g id="a_node3"><a xlink:href="src_2include_2common_8h.html" target="_top" xlink:title="common.h">
<polygon fill="#ffffff" stroke="#000000" points="1261.3892,-110.5 1261.3892,-128.5 1324.0737,-128.5 1324.0737,-110.5 1261.3892,-110.5"/>
<text text-anchor="middle" x="1292.7314" y="-116.5" font-family="Helvetica,sans-Serif" font-size="10.00" fill="#000000">common.h</text>
</a>
</g>
</g>
<!-- Node1&#45;&gt;Node2 -->
<g id="edge2" class="edge">
<title>Node1&#45;&gt;Node2</title>
<path fill="none" stroke="#191970" d="M1345.2258,-275.4167C1319.7328,-260.3194 1271.7391,-227.3795 1252.7314,-184 1245.0396,-166.4457 1259.0014,-148.0171 1272.4938,-135.3747"/>
<polygon fill="#191970" stroke="#191970" points="1274.9733,-137.8566 1280.2164,-128.65 1270.3764,-132.5775 1274.9733,-137.8566"/>
</g>
<!-- Node37 -->
<g id="node38" class="node">
<title>Node37</title>
<g id="a_node38"><a xlink:href="events_2include_2event_8h.html" target="_top" xlink:title="event.h">
<polygon fill="#ffffff" stroke="#000000" points="1337.3301,-220.5 1337.3301,-238.5 1386.1328,-238.5 1386.1328,-220.5 1337.3301,-220.5"/>
<text text-anchor="middle" x="1361.7314" y="-226.5" font-family="Helvetica,sans-Serif" font-size="10.00" fill="#000000">event.h</text>
</a>
</g>
</g>
<!-- Node1&#45;&gt;Node37 -->
<g id="edge44" class="edge">
<title>Node1&#45;&gt;Node37</title>
<path fill="none" stroke="#191970" d="M1361.7314,-275.4179C1361.7314,-268.2164 1361.7314,-257.8962 1361.7314,-248.8632"/>
<polygon fill="#191970" stroke="#191970" points="1365.2315,-248.7794 1361.7314,-238.7795 1358.2315,-248.7795 1365.2315,-248.7794"/>
</g>
<!-- Node3 -->
<g id="node4" class="node">
<title>Node3</title>
<polygon fill="#ffffff" stroke="#bfbfbf" points="0,-.5 0,-18.5 45.4629,-18.5 45.4629,-.5 0,-.5"/>
<text text-anchor="middle" x="22.7314" y="-6.5" font-family="Helvetica,sans-Serif" font-size="10.00" fill="#000000">stdio.h</text>
</g>
<!-- Node2&#45;&gt;Node3 -->
<g id="edge3" class="edge">
<title>Node2&#45;&gt;Node3</title>
<path fill="none" stroke="#191970" d="M1261.0958,-119.3532C1071.7524,-118.3497 95.0006,-111.3701 44.7314,-74 30.8093,-63.6502 25.618,-43.9972 23.7235,-29.093"/>
<polygon fill="#191970" stroke="#191970" points="27.186,-28.5109 22.8273,-18.8542 20.2127,-29.1213 27.186,-28.5109"/>
</g>
<!-- Node4 -->
<g id="node5" class="node">
<title>Node4</title>
<polygon fill="#ffffff" stroke="#bfbfbf" points="192.2192,-55.5 192.2192,-73.5 243.2437,-73.5 243.2437,-55.5 192.2192,-55.5"/>
<text text-anchor="middle" x="217.7314" y="-61.5" font-family="Helvetica,sans-Serif" font-size="10.00" fill="#000000">unistd.h</text>
</g>
<!-- Node2&#45;&gt;Node4 -->
<g id="edge4" class="edge">
<title>Node2&#45;&gt;Node4</title>
<path fill="none" stroke="#191970" d="M1261.2597,-119.0941C1111.9993,-117.0235 473.8714,-106.497 253.7471,-73.9479"/>
<polygon fill="#191970" stroke="#191970" points="254.0011,-70.4457 243.5846,-72.3812 252.9345,-77.364 254.0011,-70.4457"/>
</g>
<!-- Node5 -->
<g id="node6" class="node">
<title>Node5</title>
<polygon fill="#ffffff" stroke="#bfbfbf" points="260.8892,-55.5 260.8892,-73.5 308.5737,-73.5 308.5737,-55.5 260.8892,-55.5"/>
<text text-anchor="middle" x="284.7314" y="-61.5" font-family="Helvetica,sans-Serif" font-size="10.00" fill="#000000">stdlib.h</text>
</g>
<!-- Node2&#45;&gt;Node5 -->
<g id="edge5" class="edge">
<title>Node2&#45;&gt;Node5</title>
<path fill="none" stroke="#191970" d="M1261.0918,-119.0169C1117.5175,-116.675 525.7268,-105.3738 318.8761,-73.732"/>
<polygon fill="#191970" stroke="#191970" points="319.1601,-70.233 308.7332,-72.112 318.056,-77.1454 319.1601,-70.233"/>
</g>
<!-- Node6 -->
<g id="node7" class="node">
<title>Node6</title>
<polygon fill="#ffffff" stroke="#bfbfbf" points="63.665,-.5 63.665,-18.5 115.7979,-18.5 115.7979,-.5 63.665,-.5"/>
<text text-anchor="middle" x="89.7314" y="-6.5" font-family="Helvetica,sans-Serif" font-size="10.00" fill="#000000">stdarg.h</text>
</g>
<!-- Node2&#45;&gt;Node6 -->
<g id="edge6" class="edge">
<title>Node2&#45;&gt;Node6</title>
<path fill="none" stroke="#191970" d="M1261.2842,-119.436C1089.7786,-118.9266 271.2058,-114.382 166.7314,-74 141.2046,-64.1332 118.0378,-42.1238 103.9309,-26.5676"/>
<polygon fill="#191970" stroke="#191970" points="106.2817,-23.9384 97.0683,-18.7073 101.0086,-28.5422 106.2817,-23.9384"/>
</g>
<!-- Node7 -->
<g id="node8" class="node">
<title>Node7</title>
<polygon fill="#ffffff" stroke="#bfbfbf" points="326.6108,-55.5 326.6108,-73.5 374.8521,-73.5 374.8521,-55.5 326.6108,-55.5"/>
<text text-anchor="middle" x="350.7314" y="-61.5" font-family="Helvetica,sans-Serif" font-size="10.00" fill="#000000">stdint.h</text>
</g>
<!-- Node2&#45;&gt;Node7 -->
<g id="edge7" class="edge">
<title>Node2&#45;&gt;Node7</title>
<path fill="none" stroke="#191970" d="M1260.9619,-118.8556C1123.4823,-115.924 578.4596,-102.7944 385.1354,-73.5915"/>
<polygon fill="#191970" stroke="#191970" points="385.5235,-70.1095 375.1003,-72.0085 384.4327,-77.024 385.5235,-70.1095"/>
</g>
<!-- Node8 -->
<g id="node9" class="node">
<title>Node8</title>
<polygon fill="#ffffff" stroke="#bfbfbf" points="393.335,-55.5 393.335,-73.5 442.1279,-73.5 442.1279,-55.5 393.335,-55.5"/>
<text text-anchor="middle" x="417.7314" y="-61.5" font-family="Helvetica,sans-Serif" font-size="10.00" fill="#000000">string.h</text>
</g>
<!-- Node2&#45;&gt;Node8 -->
<g id="edge8" class="edge">
<title>Node2&#45;&gt;Node8</title>
<path fill="none" stroke="#191970" d="M1261.0508,-118.7472C1130.191,-115.493 630.6772,-101.6075 452.4689,-73.8984"/>
<polygon fill="#191970" stroke="#191970" points="452.8912,-70.4211 442.4588,-72.269 451.7665,-77.3302 452.8912,-70.4211"/>
</g>
<!-- Node9 -->
<g id="node10" class="node">
<title>Node9</title>
<polygon fill="#ffffff" stroke="#bfbfbf" points="459.835,-55.5 459.835,-73.5 513.6279,-73.5 513.6279,-55.5 459.835,-55.5"/>
<text text-anchor="middle" x="486.7314" y="-61.5" font-family="Helvetica,sans-Serif" font-size="10.00" fill="#000000">strings.h</text>
</g>
<!-- Node2&#45;&gt;Node9 -->
<g id="edge9" class="edge">
<title>Node2&#45;&gt;Node9</title>
<path fill="none" stroke="#191970" d="M1261.2562,-118.4766C1138.0538,-114.3442 687.6879,-98.0205 523.6557,-73.7758"/>
<polygon fill="#191970" stroke="#191970" points="524.1521,-70.311 513.7348,-72.2425 523.0829,-77.2289 524.1521,-70.311"/>
</g>
<!-- Node10 -->
<g id="node11" class="node">
<title>Node10</title>
<polygon fill="#ffffff" stroke="#bfbfbf" points="531.6035,-55.5 531.6035,-73.5 589.8594,-73.5 589.8594,-55.5 531.6035,-55.5"/>
<text text-anchor="middle" x="560.7314" y="-61.5" font-family="Helvetica,sans-Serif" font-size="10.00" fill="#000000">pthread.h</text>
</g>
<!-- Node2&#45;&gt;Node10 -->
<g id="edge10" class="edge">
<title>Node2&#45;&gt;Node10</title>
<path fill="none" stroke="#191970" d="M1261.2139,-118.1872C1146.1917,-113.2816 748.4621,-95.2885 600.3113,-73.9343"/>
<polygon fill="#191970" stroke="#191970" points="600.4934,-70.4222 590.0831,-72.3911 599.449,-77.3439 600.4934,-70.4222"/>
</g>
<!-- Node11 -->
<g id="node12" class="node">
<title>Node11</title>
<polygon fill="#ffffff" stroke="#bfbfbf" points="607.6108,-55.5 607.6108,-73.5 655.8521,-73.5 655.8521,-55.5 607.6108,-55.5"/>
<text text-anchor="middle" x="631.7314" y="-61.5" font-family="Helvetica,sans-Serif" font-size="10.00" fill="#000000">ctype.h</text>
</g>
<!-- Node2&#45;&gt;Node11 -->
<g id="edge11" class="edge">
<title>Node2&#45;&gt;Node11</title>
<path fill="none" stroke="#191970" d="M1261.1959,-118.0846C1153.4936,-113.1186 799.9513,-95.6957 666.1113,-73.8458"/>
<polygon fill="#191970" stroke="#191970" points="666.5543,-70.3707 656.1064,-72.1292 665.3705,-77.2699 666.5543,-70.3707"/>
</g>
<!-- Node12 -->
<g id="node13" class="node">
<title>Node12</title>
<polygon fill="#ffffff" stroke="#bfbfbf" points="673.8892,-55.5 673.8892,-73.5 721.5737,-73.5 721.5737,-55.5 673.8892,-55.5"/>
<text text-anchor="middle" x="697.7314" y="-61.5" font-family="Helvetica,sans-Serif" font-size="10.00" fill="#000000">errno.h</text>
</g>
<!-- Node2&#45;&gt;Node12 -->
<g id="edge12" class="edge">
<title>Node2&#45;&gt;Node12</title>
<path fill="none" stroke="#191970" d="M1261.293,-117.8226C1161.4215,-112.3623 851.3675,-94.3657 731.6829,-73.9896"/>
<polygon fill="#191970" stroke="#191970" points="732.1738,-70.5219 721.7131,-72.2022 730.9384,-77.412 732.1738,-70.5219"/>
</g>
<!-- Node13 -->
<g id="node14" class="node">
<title>Node13</title>
<polygon fill="#ffffff" stroke="#bfbfbf" points="739.1157,-55.5 739.1157,-73.5 782.3472,-73.5 782.3472,-55.5 739.1157,-55.5"/>
<text text-anchor="middle" x="760.7314" y="-61.5" font-family="Helvetica,sans-Serif" font-size="10.00" fill="#000000">time.h</text>
</g>
<!-- Node2&#45;&gt;Node13 -->
<g id="edge13" class="edge">
<title>Node2&#45;&gt;Node13</title>
<path fill="none" stroke="#191970" d="M1261.3404,-118.8965C1183.3799,-116.9224 974.7094,-108.7302 792.6265,-73.7727"/>
<polygon fill="#191970" stroke="#191970" points="793.0896,-70.2971 782.6042,-71.8158 791.7481,-77.1674 793.0896,-70.2971"/>
</g>
<!-- Node14 -->
<g id="node15" class="node">
<title>Node14</title>
<polygon fill="#ffffff" stroke="#bfbfbf" points="800.3916,-55.5 800.3916,-73.5 843.0713,-73.5 843.0713,-55.5 800.3916,-55.5"/>
<text text-anchor="middle" x="821.7314" y="-61.5" font-family="Helvetica,sans-Serif" font-size="10.00" fill="#000000">fcntl.h</text>
</g>
<!-- Node2&#45;&gt;Node14 -->
<g id="edge14" class="edge">
<title>Node2&#45;&gt;Node14</title>
<path fill="none" stroke="#191970" d="M1261.2067,-118.341C1190.0109,-115.2776 1011.349,-105.0891 853.1803,-73.6877"/>
<polygon fill="#191970" stroke="#191970" points="853.7686,-70.2359 843.2736,-71.6873 852.383,-77.0974 853.7686,-70.2359"/>
</g>
<!-- Node15 -->
<g id="node16" class="node">
<title>Node15</title>
<polygon fill="#ffffff" stroke="#bfbfbf" points="861.4976,-55.5 861.4976,-73.5 911.9653,-73.5 911.9653,-55.5 861.4976,-55.5"/>
<text text-anchor="middle" x="886.7314" y="-61.5" font-family="Helvetica,sans-Serif" font-size="10.00" fill="#000000">signal.h</text>
</g>
<!-- Node2&#45;&gt;Node15 -->
<g id="edge15" class="edge">
<title>Node2&#45;&gt;Node15</title>
<path fill="none" stroke="#191970" d="M1261.1223,-117.2508C1198.2758,-112.4336 1053.091,-99.5826 922.432,-74.0935"/>
<polygon fill="#191970" stroke="#191970" points="922.7411,-70.5868 912.2514,-72.0756 921.38,-77.4532 922.7411,-70.5868"/>
</g>
<!-- Node16 -->
<g id="node17" class="node">
<title>Node16</title>
<polygon fill="#ffffff" stroke="#bfbfbf" points="134.2266,-.5 134.2266,-18.5 195.2363,-18.5 195.2363,-.5 134.2266,-.5"/>
<text text-anchor="middle" x="164.7314" y="-6.5" font-family="Helvetica,sans-Serif" font-size="10.00" fill="#000000">sys/time.h</text>
</g>
<!-- Node2&#45;&gt;Node16 -->
<g id="edge16" class="edge">
<title>Node2&#45;&gt;Node16</title>
<path fill="none" stroke="#191970" d="M1261.1945,-119.2451C1084.7355,-117.6894 226.1302,-108.3694 182.7314,-74 169.3682,-63.417 165.4078,-43.7979 164.463,-28.9653"/>
<polygon fill="#191970" stroke="#191970" points="167.9578,-28.6992 164.2225,-18.7847 160.9597,-28.8646 167.9578,-28.6992"/>
</g>
<!-- Node17 -->
<g id="node18" class="node">
<title>Node17</title>
<polygon fill="#ffffff" stroke="#bfbfbf" points="929.6133,-55.5 929.6133,-73.5 987.8496,-73.5 987.8496,-55.5 929.6133,-55.5"/>
<text text-anchor="middle" x="958.7314" y="-61.5" font-family="Helvetica,sans-Serif" font-size="10.00" fill="#000000">sys/stat.h</text>
</g>
<!-- Node2&#45;&gt;Node17 -->
<g id="edge17" class="edge">
<title>Node2&#45;&gt;Node17</title>
<path fill="none" stroke="#191970" d="M1261.0211,-115.6046C1208.4132,-108.9311 1099.607,-94.2357 998.2294,-74.1581"/>
<polygon fill="#191970" stroke="#191970" points="998.6217,-70.6672 988.129,-72.1346 997.2466,-77.5308 998.6217,-70.6672"/>
</g>
<!-- Node18 -->
<g id="node19" class="node">
<title>Node18</title>
<polygon fill="#ffffff" stroke="#bfbfbf" points="1005.7217,-55.5 1005.7217,-73.5 1071.7412,-73.5 1071.7412,-55.5 1005.7217,-55.5"/>
<text text-anchor="middle" x="1038.7314" y="-61.5" font-family="Helvetica,sans-Serif" font-size="10.00" fill="#000000">sys/types.h</text>
</g>
<!-- Node2&#45;&gt;Node18 -->
<g id="edge18" class="edge">
<title>Node2&#45;&gt;Node18</title>
<path fill="none" stroke="#191970" d="M1261.1006,-112.825C1221.5098,-104.4454 1151.3626,-89.5167 1081.9769,-74.2585"/>
<polygon fill="#191970" stroke="#191970" points="1082.7134,-70.8369 1072.1946,-72.104 1081.2077,-77.6731 1082.7134,-70.8369"/>
</g>
<!-- Node19 -->
<g id="node20" class="node">
<title>Node19</title>
<polygon fill="#ffffff" stroke="#bfbfbf" points="1089.7808,-55.5 1089.7808,-73.5 1149.6821,-73.5 1149.6821,-55.5 1089.7808,-55.5"/>
<text text-anchor="middle" x="1119.7314" y="-61.5" font-family="Helvetica,sans-Serif" font-size="10.00" fill="#000000">sys/ioctl.h</text>
</g>
<!-- Node2&#45;&gt;Node19 -->
<g id="edge19" class="edge">
<title>Node2&#45;&gt;Node19</title>
<path fill="none" stroke="#191970" d="M1264.164,-110.4179C1235.1536,-101.1949 1190.0534,-86.8567 1157.9746,-76.6582"/>
<polygon fill="#191970" stroke="#191970" points="1158.6442,-73.1985 1148.0538,-73.5042 1156.5233,-79.8695 1158.6442,-73.1985"/>
</g>
<!-- Node20 -->
<g id="node21" class="node">
<title>Node20</title>
<polygon fill="#ffffff" stroke="#bfbfbf" points="1167.2217,-55.5 1167.2217,-73.5 1238.2412,-73.5 1238.2412,-55.5 1167.2217,-55.5"/>
<text text-anchor="middle" x="1202.7314" y="-61.5" font-family="Helvetica,sans-Serif" font-size="10.00" fill="#000000">sys/socket.h</text>
</g>
<!-- Node2&#45;&gt;Node20 -->
<g id="edge20" class="edge">
<title>Node2&#45;&gt;Node20</title>
<path fill="none" stroke="#191970" d="M1277.8698,-110.4179C1263.9301,-101.8992 1242.8494,-89.0166 1226.5614,-79.0627"/>
<polygon fill="#191970" stroke="#191970" points="1227.9731,-75.8237 1217.6152,-73.5956 1224.3229,-81.7967 1227.9731,-75.8237"/>
</g>
<!-- Node21 -->
<g id="node22" class="node">
<title>Node21</title>
<polygon fill="#ffffff" stroke="#bfbfbf" points="1256.1108,-55.5 1256.1108,-73.5 1329.3521,-73.5 1329.3521,-55.5 1256.1108,-55.5"/>
<text text-anchor="middle" x="1292.7314" y="-61.5" font-family="Helvetica,sans-Serif" font-size="10.00" fill="#000000">sys/sysinfo.h</text>
</g>
<!-- Node2&#45;&gt;Node21 -->
<g id="edge21" class="edge">
<title>Node2&#45;&gt;Node21</title>
<path fill="none" stroke="#191970" d="M1292.7314,-110.4179C1292.7314,-103.2164 1292.7314,-92.8962 1292.7314,-83.8632"/>
<polygon fill="#191970" stroke="#191970" points="1296.2315,-83.7794 1292.7314,-73.7795 1289.2315,-83.7795 1296.2315,-83.7794"/>
</g>
<!-- Node22 -->
<g id="node23" class="node">
<title>Node22</title>
<polygon fill="#ffffff" stroke="#bfbfbf" points="1347.1035,-55.5 1347.1035,-73.5 1410.3594,-73.5 1410.3594,-55.5 1347.1035,-55.5"/>
<text text-anchor="middle" x="1378.7314" y="-61.5" font-family="Helvetica,sans-Serif" font-size="10.00" fill="#000000">arpa/inet.h</text>
</g>
<!-- Node2&#45;&gt;Node22 -->
<g id="edge22" class="edge">
<title>Node2&#45;&gt;Node22</title>
<path fill="none" stroke="#191970" d="M1306.9326,-110.4179C1320.2528,-101.8992 1340.3965,-89.0166 1355.9606,-79.0627"/>
<polygon fill="#191970" stroke="#191970" points="1357.9704,-81.932 1364.5092,-73.5956 1354.199,-76.0348 1357.9704,-81.932"/>
</g>
<!-- Node23 -->
<g id="node24" class="node">
<title>Node23</title>
<polygon fill="#ffffff" stroke="#bfbfbf" points="1428.2686,-55.5 1428.2686,-73.5 1493.1943,-73.5 1493.1943,-55.5 1428.2686,-55.5"/>
<text text-anchor="middle" x="1460.7314" y="-61.5" font-family="Helvetica,sans-Serif" font-size="10.00" fill="#000000">netinet/in.h</text>
</g>
<!-- Node2&#45;&gt;Node23 -->
<g id="edge23" class="edge">
<title>Node2&#45;&gt;Node23</title>
<path fill="none" stroke="#191970" d="M1320.4732,-110.4179C1348.6452,-101.1949 1392.4419,-86.8567 1423.5936,-76.6582"/>
<polygon fill="#191970" stroke="#191970" points="1424.813,-79.9419 1433.2277,-73.5042 1422.635,-73.2893 1424.813,-79.9419"/>
</g>
<!-- Node24 -->
<g id="node25" class="node">
<title>Node24</title>
<polygon fill="#ffffff" stroke="#bfbfbf" points="1510.8745,-55.5 1510.8745,-73.5 1588.5884,-73.5 1588.5884,-55.5 1510.8745,-55.5"/>
<text text-anchor="middle" x="1549.7314" y="-61.5" font-family="Helvetica,sans-Serif" font-size="10.00" fill="#000000">net/ethernet.h</text>
</g>
<!-- Node2&#45;&gt;Node24 -->
<g id="edge24" class="edge">
<title>Node2&#45;&gt;Node24</title>
<path fill="none" stroke="#191970" d="M1324.2447,-112.7559C1368.3509,-103.3168 1448.9033,-86.078 1500.8353,-74.9642"/>
<polygon fill="#191970" stroke="#191970" points="1501.7747,-78.3424 1510.8208,-72.8272 1500.3098,-71.4974 1501.7747,-78.3424"/>
</g>
<!-- Node25 -->
<g id="node26" class="node">
<title>Node25</title>
<polygon fill="#ffffff" stroke="#bfbfbf" points="1606.2686,-55.5 1606.2686,-73.5 1671.1943,-73.5 1671.1943,-55.5 1606.2686,-55.5"/>
<text text-anchor="middle" x="1638.7314" y="-61.5" font-family="Helvetica,sans-Serif" font-size="10.00" fill="#000000">netinet/ip.h</text>
</g>
<!-- Node2&#45;&gt;Node25 -->
<g id="edge25" class="edge">
<title>Node2&#45;&gt;Node25</title>
<path fill="none" stroke="#191970" d="M1324.4849,-115.6098C1378.3475,-108.8283 1491.2445,-93.8264 1595.9976,-74.2178"/>
<polygon fill="#191970" stroke="#191970" points="1596.9319,-77.6033 1606.1074,-72.306 1595.6311,-70.7252 1596.9319,-77.6033"/>
</g>
<!-- Node26 -->
<g id="node27" class="node">
<title>Node26</title>
<polygon fill="#ffffff" stroke="#bfbfbf" points="1689.4902,-55.5 1689.4902,-73.5 1759.9727,-73.5 1759.9727,-55.5 1689.4902,-55.5"/>
<text text-anchor="middle" x="1724.7314" y="-61.5" font-family="Helvetica,sans-Serif" font-size="10.00" fill="#000000">netinet/tcp.h</text>
</g>
<!-- Node2&#45;&gt;Node26 -->
<g id="edge26" class="edge">
<title>Node2&#45;&gt;Node26</title>
<path fill="none" stroke="#191970" d="M1324.2191,-116.7778C1388.7905,-110.9854 1541.0262,-96.2522 1679.4725,-73.8956"/>
<polygon fill="#191970" stroke="#191970" points="1680.1098,-77.338 1689.4154,-72.2728 1678.9822,-70.4294 1680.1098,-77.338"/>
</g>
<!-- Node27 -->
<g id="node28" class="node">
<title>Node27</title>
<polygon fill="#ffffff" stroke="#bfbfbf" points="1777.9312,-55.5 1777.9312,-73.5 1869.5317,-73.5 1869.5317,-55.5 1777.9312,-55.5"/>
<text text-anchor="middle" x="1823.7314" y="-61.5" font-family="Helvetica,sans-Serif" font-size="10.00" fill="#000000">netinet/ip_icmp.h</text>
</g>
<!-- Node2&#45;&gt;Node27 -->
<g id="edge27" class="edge">
<title>Node2&#45;&gt;Node27</title>
<path fill="none" stroke="#191970" d="M1324.2951,-117.3138C1399.3023,-111.9414 1594.2919,-96.9343 1767.7772,-74.0341"/>
<polygon fill="#191970" stroke="#191970" points="1768.4051,-77.4815 1777.8553,-72.6915 1767.4807,-70.5428 1768.4051,-77.4815"/>
</g>
<!-- Node28 -->
<g id="node29" class="node">
<title>Node28</title>
<g id="a_node29"><a xlink:href="mac2int_8h.html" target="_top" xlink:title="mac2int.h">
<polygon fill="#ffffff" stroke="#000000" points="1887.0542,-55.5 1887.0542,-73.5 1946.4087,-73.5 1946.4087,-55.5 1887.0542,-55.5"/>
<text text-anchor="middle" x="1916.7314" y="-61.5" font-family="Helvetica,sans-Serif" font-size="10.00" fill="#000000">mac2int.h</text>
</a>
</g>
</g>
<!-- Node2&#45;&gt;Node28 -->
<g id="edge28" class="edge">
<title>Node2&#45;&gt;Node28</title>
<path fill="none" stroke="#191970" d="M1324.2745,-118.8005C1411.6918,-116.5573 1663.2579,-107.5821 1869.7314,-74 1872.0534,-73.6223 1874.4417,-73.1733 1876.8583,-72.679"/>
<polygon fill="#191970" stroke="#191970" points="1877.8503,-76.044 1886.8539,-70.4597 1876.333,-69.2105 1877.8503,-76.044"/>
</g>
<!-- Node29 -->
<g id="node30" class="node">
<title>Node29</title>
<g id="a_node30"><a xlink:href="ip2int_8h.html" target="_top" xlink:title="ip2int.h">
<polygon fill="#ffffff" stroke="#000000" points="1964.6084,-55.5 1964.6084,-73.5 2012.8545,-73.5 2012.8545,-55.5 1964.6084,-55.5"/>
<text text-anchor="middle" x="1988.7314" y="-61.5" font-family="Helvetica,sans-Serif" font-size="10.00" fill="#000000">ip2int.h</text>
</a>
</g>
</g>
<!-- Node2&#45;&gt;Node29 -->
<g id="edge30" class="edge">
<title>Node2&#45;&gt;Node29</title>
<path fill="none" stroke="#191970" d="M1324.4382,-118.0637C1438.1773,-113.0679 1824.301,-95.5723 1946.7314,-74 1949.1974,-73.5655 1951.7425,-73.0179 1954.3141,-72.4059"/>
<polygon fill="#191970" stroke="#191970" points="1955.4506,-75.7271 1964.2528,-69.8303 1953.6945,-68.9509 1955.4506,-75.7271"/>
</g>
<!-- Node30 -->
<g id="node31" class="node">
<title>Node30</title>
<g id="a_node31"><a xlink:href="database_8h.html" target="_top" xlink:title="database.h">
<polygon fill="#ffffff" stroke="#000000" points="2030.9878,-55.5 2030.9878,-73.5 2096.4751,-73.5 2096.4751,-55.5 2030.9878,-55.5"/>
<text text-anchor="middle" x="2063.7314" y="-61.5" font-family="Helvetica,sans-Serif" font-size="10.00" fill="#000000">database.h</text>
</a>
</g>
</g>
<!-- Node2&#45;&gt;Node30 -->
<g id="edge32" class="edge">
<title>Node2&#45;&gt;Node30</title>
<path fill="none" stroke="#191970" d="M1324.0775,-118.0684C1444.463,-112.7739 1876.0656,-93.5925 2012.7314,-74 2015.347,-73.625 2018.0408,-73.1725 2020.7652,-72.671"/>
<polygon fill="#191970" stroke="#191970" points="2021.558,-76.0819 2030.679,-70.6915 2020.1872,-69.2174 2021.558,-76.0819"/>
</g>
<!-- Node32 -->
<g id="node33" class="node">
<title>Node32</title>
<polygon fill="#ffffff" stroke="#bfbfbf" points="2152.3276,-55.5 2152.3276,-73.5 2211.1353,-73.5 2211.1353,-55.5 2152.3276,-55.5"/>
<text text-anchor="middle" x="2181.7314" y="-61.5" font-family="Helvetica,sans-Serif" font-size="10.00" fill="#000000">jansson.h</text>
</g>
<!-- Node2&#45;&gt;Node32 -->
<g id="edge36" class="edge">
<title>Node2&#45;&gt;Node32</title>
<path fill="none" stroke="#191970" d="M1324.5222,-118.4881C1458.3919,-114.1192 1976.7808,-96.0935 2138.7314,-74 2139.8298,-73.8502 2140.9418,-73.6868 2142.0621,-73.512"/>
<polygon fill="#191970" stroke="#191970" points="2143.015,-76.8969 2152.2377,-71.6824 2141.7762,-70.0073 2143.015,-76.8969"/>
</g>
<!-- Node33 -->
<g id="node34" class="node">
<title>Node33</title>
<g id="a_node34"><a xlink:href="libcli_8h.html" target="_top" xlink:title="libcli.h">
<polygon fill="#ffffff" stroke="#000000" points="53.8374,-55.5 53.8374,-73.5 97.6255,-73.5 97.6255,-55.5 53.8374,-55.5"/>
<text text-anchor="middle" x="75.7314" y="-61.5" font-family="Helvetica,sans-Serif" font-size="10.00" fill="#000000">libcli.h</text>
</a>
</g>
</g>
<!-- Node2&#45;&gt;Node33 -->
<g id="edge37" class="edge">
<title>Node2&#45;&gt;Node33</title>
<path fill="none" stroke="#191970" d="M1261.2031,-119.221C1097.4657,-117.6296 342.8247,-108.5145 111.7314,-74 110.4369,-73.8066 109.1218,-73.5844 107.7977,-73.3392"/>
<polygon fill="#191970" stroke="#191970" points="108.1757,-69.8385 97.6565,-71.1029 106.6682,-76.6743 108.1757,-69.8385"/>
</g>
<!-- Node34 -->
<g id="node35" class="node">
<title>Node34</title>
<polygon fill="#ffffff" stroke="#bfbfbf" points="2229.5049,-55.5 2229.5049,-73.5 2279.958,-73.5 2279.958,-55.5 2229.5049,-55.5"/>
<text text-anchor="middle" x="2254.7314" y="-61.5" font-family="Helvetica,sans-Serif" font-size="10.00" fill="#000000">mysql.h</text>
</g>
<!-- Node2&#45;&gt;Node34 -->
<g id="edge41" class="edge">
<title>Node2&#45;&gt;Node34</title>
<path fill="none" stroke="#191970" d="M1324.2082,-118.868C1463.022,-115.943 2021.9231,-102.6888 2219.2925,-73.6281"/>
<polygon fill="#191970" stroke="#191970" points="2219.9028,-77.0755 2229.2555,-72.0979 2218.8401,-70.1567 2219.9028,-77.0755"/>
</g>
<!-- Node35 -->
<g id="node36" class="node">
<title>Node35</title>
<polygon fill="#ffffff" stroke="#bfbfbf" points="2298.1157,-55.5 2298.1157,-73.5 2341.3472,-73.5 2341.3472,-55.5 2298.1157,-55.5"/>
<text text-anchor="middle" x="2319.7314" y="-61.5" font-family="Helvetica,sans-Serif" font-size="10.00" fill="#000000">zmq.h</text>
</g>
<!-- Node2&#45;&gt;Node35 -->
<g id="edge42" class="edge">
<title>Node2&#45;&gt;Node35</title>
<path fill="none" stroke="#191970" d="M1324.1908,-118.5342C1478.5573,-113.7337 2153.5254,-92.0093 2287.858,-73.4946"/>
<polygon fill="#191970" stroke="#191970" points="2288.5359,-76.9315 2297.8819,-71.9412 2287.4638,-70.014 2288.5359,-76.9315"/>
</g>
<!-- Node36 -->
<g id="node37" class="node">
<title>Node36</title>
<g id="a_node37"><a xlink:href="src_2include_2type_8h.html" target="_top" xlink:title="type.h">
<polygon fill="#ffffff" stroke="#000000" points="2359.1108,-55.5 2359.1108,-73.5 2402.3521,-73.5 2402.3521,-55.5 2359.1108,-55.5"/>
<text text-anchor="middle" x="2380.7314" y="-61.5" font-family="Helvetica,sans-Serif" font-size="10.00" fill="#000000">type.h</text>
</a>
</g>
</g>
<!-- Node2&#45;&gt;Node36 -->
<g id="edge43" class="edge">
<title>Node2&#45;&gt;Node36</title>
<path fill="none" stroke="#191970" d="M1324.2294,-118.6403C1484.5949,-114.1988 2207.943,-93.3681 2348.8034,-73.7244"/>
<polygon fill="#191970" stroke="#191970" points="2349.6075,-77.1411 2358.9431,-72.1314 2348.521,-70.2259 2349.6075,-77.1411"/>
</g>
<!-- Node28&#45;&gt;Node2 -->
<g id="edge29" class="edge">
<title>Node28&#45;&gt;Node2</title>
<path fill="none" stroke="#191970" d="M1890.5776,-73.5081C1889.6217,-73.6826 1888.6711,-73.8472 1887.7314,-74 1682.2001,-107.4288 1431.9869,-116.4748 1334.3645,-118.7694"/>
<polygon fill="#191970" stroke="#191970" points="1334.2297,-115.2714 1324.3105,-118.9942 1334.3863,-122.2697 1334.2297,-115.2714"/>
</g>
<!-- Node29&#45;&gt;Node2 -->
<g id="edge31" class="edge">
<title>Node29&#45;&gt;Node2</title>
<path fill="none" stroke="#191970" d="M1967.2189,-73.5296C1966.3842,-73.6978 1965.5534,-73.8552 1964.7314,-74 1843.162,-95.4205 1461.5955,-112.8216 1334.3659,-117.9565"/>
<polygon fill="#191970" stroke="#191970" points="1334.1026,-114.4641 1324.2502,-118.3602 1334.3818,-121.4585 1334.1026,-114.4641"/>
</g>
<!-- Node30&#45;&gt;Node2 -->
<g id="edge33" class="edge">
<title>Node30&#45;&gt;Node2</title>
<path fill="none" stroke="#191970" d="M2033.8705,-73.5197C2032.8158,-73.6908 2031.7675,-73.8515 2030.7314,-74 1895.3776,-93.4044 1470.7223,-112.4056 1334.8688,-117.9121"/>
<polygon fill="#191970" stroke="#191970" points="1334.3299,-114.4308 1324.4785,-118.3295 1334.611,-121.4252 1334.3299,-114.4308"/>
</g>
<!-- Node31 -->
<g id="node32" class="node">
<title>Node31</title>
<g id="a_node32"><a xlink:href="str_8h.html" target="_top" xlink:title="str.h">
<polygon fill="#ffffff" stroke="#000000" points="2076.2808,-.5 2076.2808,-18.5 2111.1821,-18.5 2111.1821,-.5 2076.2808,-.5"/>
<text text-anchor="middle" x="2093.7314" y="-6.5" font-family="Helvetica,sans-Serif" font-size="10.00" fill="#000000">str.h</text>
</a>
</g>
</g>
<!-- Node30&#45;&gt;Node31 -->
<g id="edge34" class="edge">
<title>Node30&#45;&gt;Node31</title>
<path fill="none" stroke="#191970" d="M2068.6853,-55.4179C2072.7861,-47.8998 2078.7408,-36.9829 2083.8152,-27.6799"/>
<polygon fill="#191970" stroke="#191970" points="2086.954,-29.2344 2088.6699,-18.7795 2080.8087,-25.8824 2086.954,-29.2344"/>
</g>
<!-- Node31&#45;&gt;Node2 -->
<g id="edge35" class="edge">
<title>Node31&#45;&gt;Node2</title>
<path fill="none" stroke="#191970" d="M2099.7301,-18.7769C2107.9004,-32.6918 2119.9743,-58.9378 2105.7314,-74 2079.001,-102.2683 1496.9205,-115.5674 1334.4891,-118.7367"/>
<polygon fill="#191970" stroke="#191970" points="1334.3379,-115.2389 1324.4072,-118.9308 1334.4728,-122.2376 1334.3379,-115.2389"/>
</g>
<!-- Node33&#45;&gt;Node3 -->
<g id="edge39" class="edge">
<title>Node33&#45;&gt;Node3</title>
<path fill="none" stroke="#191970" d="M66.9796,-55.4179C59.3536,-47.5041 48.0985,-35.8243 38.8484,-26.2251"/>
<polygon fill="#191970" stroke="#191970" points="41.1327,-23.5516 31.6735,-18.7795 36.0921,-28.4089 41.1327,-23.5516"/>
</g>
<!-- Node33&#45;&gt;Node6 -->
<g id="edge38" class="edge">
<title>Node33&#45;&gt;Node6</title>
<path fill="none" stroke="#191970" d="M78.0433,-55.4179C79.8965,-48.1372 82.5612,-37.669 84.8783,-28.5659"/>
<polygon fill="#191970" stroke="#191970" points="88.2944,-29.3338 87.3694,-18.7795 81.5107,-27.607 88.2944,-29.3338"/>
</g>
<!-- Node33&#45;&gt;Node16 -->
<g id="edge40" class="edge">
<title>Node33&#45;&gt;Node16</title>
<path fill="none" stroke="#191970" d="M90.428,-55.4179C104.2128,-46.8992 125.0592,-34.0166 141.1663,-24.0627"/>
<polygon fill="#191970" stroke="#191970" points="143.3463,-26.83 150.0131,-18.5956 139.6664,-20.8753 143.3463,-26.83"/>
</g>
<!-- Node37&#45;&gt;Node2 -->
<g id="edge45" class="edge">
<title>Node37&#45;&gt;Node2</title>
<path fill="none" stroke="#191970" d="M1358.5893,-220.3035C1353.959,-207.3818 1344.5587,-183.3774 1332.7314,-165 1326.0023,-154.5442 1316.9581,-144.0422 1309.1718,-135.7665"/>
<polygon fill="#191970" stroke="#191970" points="1311.6838,-133.3292 1302.2088,-128.5883 1306.6593,-138.2031 1311.6838,-133.3292"/>
</g>
<!-- Node38 -->
<g id="node39" class="node">
<title>Node38</title>
<g id="a_node39"><a xlink:href="src_2include_2context_8h.html" target="_top" xlink:title="context.h">
<polygon fill="#ffffff" stroke="#000000" points="1379.4409,-165.5 1379.4409,-183.5 1436.022,-183.5 1436.022,-165.5 1379.4409,-165.5"/>
<text text-anchor="middle" x="1407.7314" y="-171.5" font-family="Helvetica,sans-Serif" font-size="10.00" fill="#000000">context.h</text>
</a>
</g>
</g>
<!-- Node37&#45;&gt;Node38 -->
<g id="edge46" class="edge">
<title>Node37&#45;&gt;Node38</title>
<path fill="none" stroke="#191970" d="M1369.3274,-220.4179C1375.88,-212.5833 1385.5197,-201.0575 1393.5018,-191.5137"/>
<polygon fill="#191970" stroke="#191970" points="1396.2396,-193.6957 1399.9704,-183.7795 1390.8701,-189.2048 1396.2396,-193.6957"/>
</g>
<!-- Node39 -->
<g id="node40" class="node">
<title>Node39</title>
<g id="a_node40"><a xlink:href="events_2include_2event__id_8h.html" target="_top" xlink:title="event_id.h">
<polygon fill="#ffffff" stroke="#000000" points="1261.6577,-165.5 1261.6577,-183.5 1323.8052,-183.5 1323.8052,-165.5 1261.6577,-165.5"/>
<text text-anchor="middle" x="1292.7314" y="-171.5" font-family="Helvetica,sans-Serif" font-size="10.00" fill="#000000">event_id.h</text>
</a>
</g>
</g>
<!-- Node37&#45;&gt;Node39 -->
<g id="edge48" class="edge">
<title>Node37&#45;&gt;Node39</title>
<path fill="none" stroke="#191970" d="M1350.3375,-220.4179C1340.0122,-212.1876 1324.5767,-199.8839 1312.2817,-190.0836"/>
<polygon fill="#191970" stroke="#191970" points="1314.3743,-187.2757 1304.3729,-183.7795 1310.0111,-192.7495 1314.3743,-187.2757"/>
</g>
<!-- Node40 -->
<g id="node41" class="node">
<title>Node40</title>
<g id="a_node41"><a xlink:href="events_2include_2event__list_8h.html" target="_top" xlink:title="event_list.h">
<polygon fill="#ffffff" stroke="#000000" points="1674.4385,-110.5 1674.4385,-128.5 1741.0244,-128.5 1741.0244,-110.5 1674.4385,-110.5"/>
<text text-anchor="middle" x="1707.7314" y="-116.5" font-family="Helvetica,sans-Serif" font-size="10.00" fill="#000000">event_list.h</text>
</a>
</g>
</g>
<!-- Node37&#45;&gt;Node40 -->
<g id="edge49" class="edge">
<title>Node37&#45;&gt;Node40</title>
<path fill="none" stroke="#191970" d="M1381.4633,-220.3976C1411.1813,-206.9417 1469.4169,-181.5522 1520.7314,-165 1568.9816,-149.4362 1625.7294,-136.3376 1663.9509,-128.2496"/>
<polygon fill="#191970" stroke="#191970" points="1665.1454,-131.5756 1674.2176,-126.1033 1663.713,-124.7237 1665.1454,-131.5756"/>
</g>
<!-- Node38&#45;&gt;Node2 -->
<g id="edge47" class="edge">
<title>Node38&#45;&gt;Node2</title>
<path fill="none" stroke="#191970" d="M1388.7415,-165.4179C1370.2638,-156.5807 1341.9667,-143.0473 1320.8731,-132.9591"/>
<polygon fill="#191970" stroke="#191970" points="1322.281,-129.7528 1311.7496,-128.5956 1319.2608,-136.0677 1322.281,-129.7528"/>
</g>
<!-- Node40&#45;&gt;Node36 -->
<g id="edge50" class="edge">
<title>Node40&#45;&gt;Node36</title>
<path fill="none" stroke="#191970" d="M1741.2252,-118.1748C1852.96,-113.5949 2213.0797,-97.513 2348.7886,-73.9185"/>
<polygon fill="#191970" stroke="#191970" points="2349.725,-77.3052 2358.9298,-72.0592 2348.4626,-70.42 2349.725,-77.3052"/>
</g>
<!-- Node42 -->
<g id="node43" class="node">
<title>Node42</title>
<g id="a_node43"><a xlink:href="app__events_2include_2app__event_8h.html" target="_top" xlink:title="app_event.h">
<polygon fill="#ffffff" stroke="#000000" points="1428.207,-220.5 1428.207,-238.5 1499.2559,-238.5 1499.2559,-220.5 1428.207,-220.5"/>
<text text-anchor="middle" x="1463.7314" y="-226.5" font-family="Helvetica,sans-Serif" font-size="10.00" fill="#000000">app_event.h</text>
</a>
</g>
</g>
<!-- Node41&#45;&gt;Node42 -->
<g id="edge52" class="edge">
<title>Node41&#45;&gt;Node42</title>
<path fill="none" stroke="#191970" d="M1455.3827,-275.4179C1456.6921,-268.2164 1458.5685,-257.8962 1460.2109,-248.8632"/>
<polygon fill="#191970" stroke="#191970" points="1463.6989,-249.2443 1462.0443,-238.7795 1456.8118,-247.992 1463.6989,-249.2443"/>
</g>
<!-- Node42&#45;&gt;Node2 -->
<g id="edge53" class="edge">
<title>Node42&#45;&gt;Node2</title>
<path fill="none" stroke="#191970" d="M1463.6441,-220.2216C1463.0009,-206.3047 1459.7217,-180.0561 1444.7314,-165 1429.1769,-149.3771 1373.6493,-135.5028 1334.2168,-127.2981"/>
<polygon fill="#191970" stroke="#191970" points="1334.8187,-123.849 1324.3219,-125.287 1333.4244,-130.7087 1334.8187,-123.849"/>
</g>
<!-- Node42&#45;&gt;Node38 -->
<g id="edge54" class="edge">
<title>Node42&#45;&gt;Node38</title>
<path fill="none" stroke="#191970" d="M1454.4842,-220.4179C1446.346,-212.425 1434.2962,-200.5903 1424.4681,-190.9377"/>
<polygon fill="#191970" stroke="#191970" points="1426.7666,-188.2895 1417.1796,-183.7795 1421.8616,-193.2836 1426.7666,-188.2895"/>
</g>
<!-- Node43 -->
<g id="node44" class="node">
<title>Node43</title>
<g id="a_node44"><a xlink:href="app__events_2include_2app__event__id_8h.html" target="_top" xlink:title="app_event_id.h">
<polygon fill="#ffffff" stroke="#000000" points="1529.5347,-165.5 1529.5347,-183.5 1613.9282,-183.5 1613.9282,-165.5 1529.5347,-165.5"/>
<text text-anchor="middle" x="1571.7314" y="-171.5" font-family="Helvetica,sans-Serif" font-size="10.00" fill="#000000">app_event_id.h</text>
</a>
</g>
</g>
<!-- Node42&#45;&gt;Node43 -->
<g id="edge55" class="edge">
<title>Node42&#45;&gt;Node43</title>
<path fill="none" stroke="#191970" d="M1481.5654,-220.4179C1498.7621,-211.6603 1525.0151,-198.2907 1544.7657,-188.2326"/>
<polygon fill="#191970" stroke="#191970" points="1546.5482,-191.2526 1553.8709,-183.5956 1543.3716,-185.0148 1546.5482,-191.2526"/>
</g>
<!-- Node44 -->
<g id="node45" class="node">
<title>Node44</title>
<g id="a_node45"><a xlink:href="app__events_2include_2app__event__list_8h.html" target="_top" xlink:title="app_event_list.h">
<polygon fill="#ffffff" stroke="#000000" points="2151.3154,-110.5 2151.3154,-128.5 2240.1475,-128.5 2240.1475,-110.5 2151.3154,-110.5"/>
<text text-anchor="middle" x="2195.7314" y="-116.5" font-family="Helvetica,sans-Serif" font-size="10.00" fill="#000000">app_event_list.h</text>
</a>
</g>
</g>
<!-- Node42&#45;&gt;Node44 -->
<g id="edge56" class="edge">
<title>Node42&#45;&gt;Node44</title>
<path fill="none" stroke="#191970" d="M1499.5328,-224.12C1617.9855,-206.3197 1997.7696,-149.2484 2140.6666,-127.7748"/>
<polygon fill="#191970" stroke="#191970" points="2141.5729,-131.178 2150.9417,-126.2307 2140.5326,-124.2557 2141.5729,-131.178"/>
</g>
<!-- Node44&#45;&gt;Node36 -->
<g id="edge57" class="edge">
<title>Node44&#45;&gt;Node36</title>
<path fill="none" stroke="#191970" d="M2227.2573,-110.4573C2256.5961,-101.9953 2301.7793,-88.8457 2349.0073,-74.4893"/>
<polygon fill="#191970" stroke="#191970" points="2350.2483,-77.77 2358.7931,-71.506 2348.207,-71.0743 2350.2483,-77.77"/>
</g>
</g>
</svg>
