<?xml version="1.0" encoding="UTF-8" standalone="no"?>
<!DOCTYPE svg PUBLIC "-//W3C//DTD SVG 1.1//EN"
 "http://www.w3.org/Graphics/SVG/1.1/DTD/svg11.dtd">
<!-- Generated by graphviz version 2.40.1 (20161225.0304)
 -->
<!-- Title: components/apphdlr.c Pages: 1 -->
<svg width="1459pt" height="302pt"
 viewBox="0.00 0.00 1459.35 302.00" xmlns="http://www.w3.org/2000/svg" xmlns:xlink="http://www.w3.org/1999/xlink">
<g id="graph0" class="graph" transform="scale(1 1) rotate(0) translate(4 298)">
<title>components/apphdlr.c</title>
<polygon fill="#ffffff" stroke="transparent" points="-4,4 -4,-298 1455.3521,-298 1455.3521,4 -4,4"/>
<!-- Node0 -->
<g id="node1" class="node">
<title>Node0</title>
<polygon fill="#bfbfbf" stroke="#000000" points="812.8081,-275.5 812.8081,-293.5 926.6548,-293.5 926.6548,-275.5 812.8081,-275.5"/>
<text text-anchor="middle" x="869.7314" y="-281.5" font-family="Helvetica,sans-Serif" font-size="10.00" fill="#000000">components/apphdlr.c</text>
</g>
<!-- Node1 -->
<g id="node2" class="node">
<title>Node1</title>
<g id="a_node2"><a xlink:href="apphdlr_8h.html" target="_top" xlink:title="apphdlr.h">
<polygon fill="#ffffff" stroke="#000000" points="805.1553,-220.5 805.1553,-238.5 862.3076,-238.5 862.3076,-220.5 805.1553,-220.5"/>
<text text-anchor="middle" x="833.7314" y="-226.5" font-family="Helvetica,sans-Serif" font-size="10.00" fill="#000000">apphdlr.h</text>
</a>
</g>
</g>
<!-- Node0&#45;&gt;Node1 -->
<g id="edge1" class="edge">
<title>Node0&#45;&gt;Node1</title>
<path fill="none" stroke="#191970" d="M863.7868,-275.4179C858.8141,-267.8207 851.5696,-256.7527 845.439,-247.3866"/>
<polygon fill="#191970" stroke="#191970" points="848.2104,-245.2297 839.8053,-238.7795 842.3534,-249.0633 848.2104,-245.2297"/>
</g>
<!-- Node27 -->
<g id="node28" class="node">
<title>Node27</title>
<g id="a_node28"><a xlink:href="appint_8h.html" target="_top" xlink:title="appint.h">
<polygon fill="#ffffff" stroke="#000000" points="899.9385,-220.5 899.9385,-238.5 951.5244,-238.5 951.5244,-220.5 899.9385,-220.5"/>
<text text-anchor="middle" x="925.7314" y="-226.5" font-family="Helvetica,sans-Serif" font-size="10.00" fill="#000000">appint.h</text>
</a>
</g>
</g>
<!-- Node0&#45;&gt;Node27 -->
<g id="edge30" class="edge">
<title>Node0&#45;&gt;Node27</title>
<path fill="none" stroke="#191970" d="M878.9787,-275.4179C887.1169,-267.425 899.1667,-255.5903 908.9948,-245.9377"/>
<polygon fill="#191970" stroke="#191970" points="911.6013,-248.2836 916.2833,-238.7795 906.6963,-243.2895 911.6013,-248.2836"/>
</g>
<!-- Node2 -->
<g id="node3" class="node">
<title>Node2</title>
<g id="a_node3"><a xlink:href="src_2include_2common_8h.html" target="_top" xlink:title="common.h">
<polygon fill="#ffffff" stroke="#000000" points="733.3892,-55.5 733.3892,-73.5 796.0737,-73.5 796.0737,-55.5 733.3892,-55.5"/>
<text text-anchor="middle" x="764.7314" y="-61.5" font-family="Helvetica,sans-Serif" font-size="10.00" fill="#000000">common.h</text>
</a>
</g>
</g>
<!-- Node1&#45;&gt;Node2 -->
<g id="edge2" class="edge">
<title>Node1&#45;&gt;Node2</title>
<path fill="none" stroke="#191970" d="M817.2258,-220.4167C791.7328,-205.3194 743.7391,-172.3795 724.7314,-129 717.0396,-111.4457 731.0014,-93.0171 744.4938,-80.3747"/>
<polygon fill="#191970" stroke="#191970" points="746.9733,-82.8566 752.2164,-73.65 742.3764,-77.5775 746.9733,-82.8566"/>
</g>
<!-- Node23 -->
<g id="node24" class="node">
<title>Node23</title>
<g id="a_node24"><a xlink:href="events_2include_2event_8h.html" target="_top" xlink:title="event.h">
<polygon fill="#ffffff" stroke="#000000" points="809.3301,-165.5 809.3301,-183.5 858.1328,-183.5 858.1328,-165.5 809.3301,-165.5"/>
<text text-anchor="middle" x="833.7314" y="-171.5" font-family="Helvetica,sans-Serif" font-size="10.00" fill="#000000">event.h</text>
</a>
</g>
</g>
<!-- Node1&#45;&gt;Node23 -->
<g id="edge23" class="edge">
<title>Node1&#45;&gt;Node23</title>
<path fill="none" stroke="#191970" d="M833.7314,-220.4179C833.7314,-213.2164 833.7314,-202.8962 833.7314,-193.8632"/>
<polygon fill="#191970" stroke="#191970" points="837.2315,-193.7794 833.7314,-183.7795 830.2315,-193.7795 837.2315,-193.7794"/>
</g>
<!-- Node3 -->
<g id="node4" class="node">
<title>Node3</title>
<polygon fill="#ffffff" stroke="#bfbfbf" points="0,-.5 0,-18.5 45.4629,-18.5 45.4629,-.5 0,-.5"/>
<text text-anchor="middle" x="22.7314" y="-6.5" font-family="Helvetica,sans-Serif" font-size="10.00" fill="#000000">stdio.h</text>
</g>
<!-- Node2&#45;&gt;Node3 -->
<g id="edge3" class="edge">
<title>Node2&#45;&gt;Node3</title>
<path fill="none" stroke="#191970" d="M733.2281,-63.4623C616.2343,-59.4602 206.1215,-44.0735 55.5667,-18.9118"/>
<polygon fill="#191970" stroke="#191970" points="56.0614,-15.4452 45.6066,-17.1619 54.8501,-22.3396 56.0614,-15.4452"/>
</g>
<!-- Node4 -->
<g id="node5" class="node">
<title>Node4</title>
<polygon fill="#ffffff" stroke="#bfbfbf" points="63.2192,-.5 63.2192,-18.5 114.2437,-18.5 114.2437,-.5 63.2192,-.5"/>
<text text-anchor="middle" x="88.7314" y="-6.5" font-family="Helvetica,sans-Serif" font-size="10.00" fill="#000000">unistd.h</text>
</g>
<!-- Node2&#45;&gt;Node4 -->
<g id="edge4" class="edge">
<title>Node2&#45;&gt;Node4</title>
<path fill="none" stroke="#191970" d="M733.2763,-63.1128C624.1336,-58.1716 261.3962,-40.6485 124.8035,-19.0068"/>
<polygon fill="#191970" stroke="#191970" points="125.036,-15.4974 114.5969,-17.3071 123.8861,-22.4023 125.036,-15.4974"/>
</g>
<!-- Node5 -->
<g id="node6" class="node">
<title>Node5</title>
<polygon fill="#ffffff" stroke="#bfbfbf" points="131.8892,-.5 131.8892,-18.5 179.5737,-18.5 179.5737,-.5 131.8892,-.5"/>
<text text-anchor="middle" x="155.7314" y="-6.5" font-family="Helvetica,sans-Serif" font-size="10.00" fill="#000000">stdlib.h</text>
</g>
<!-- Node2&#45;&gt;Node5 -->
<g id="edge5" class="edge">
<title>Node2&#45;&gt;Node5</title>
<path fill="none" stroke="#191970" d="M733.3051,-62.8546C631.8437,-57.4148 312.935,-39.2886 189.6718,-18.7572"/>
<polygon fill="#191970" stroke="#191970" points="190.2029,-15.297 179.7491,-17.0202 188.9958,-22.1922 190.2029,-15.297"/>
</g>
<!-- Node6 -->
<g id="node7" class="node">
<title>Node6</title>
<polygon fill="#ffffff" stroke="#bfbfbf" points="197.335,-.5 197.335,-18.5 246.1279,-18.5 246.1279,-.5 197.335,-.5"/>
<text text-anchor="middle" x="221.7314" y="-6.5" font-family="Helvetica,sans-Serif" font-size="10.00" fill="#000000">string.h</text>
</g>
<!-- Node2&#45;&gt;Node6 -->
<g id="edge6" class="edge">
<title>Node2&#45;&gt;Node6</title>
<path fill="none" stroke="#191970" d="M733.1076,-63.7772C654.0232,-61.5253 441.3019,-52.7323 256.3746,-19.0079"/>
<polygon fill="#191970" stroke="#191970" points="256.9461,-15.5543 246.4757,-17.1736 255.6706,-22.4371 256.9461,-15.5543"/>
</g>
<!-- Node7 -->
<g id="node8" class="node">
<title>Node7</title>
<polygon fill="#ffffff" stroke="#bfbfbf" points="263.665,-.5 263.665,-18.5 315.7979,-18.5 315.7979,-.5 263.665,-.5"/>
<text text-anchor="middle" x="289.7314" y="-6.5" font-family="Helvetica,sans-Serif" font-size="10.00" fill="#000000">stdarg.h</text>
</g>
<!-- Node2&#45;&gt;Node7 -->
<g id="edge7" class="edge">
<title>Node2&#45;&gt;Node7</title>
<path fill="none" stroke="#191970" d="M733.2731,-62.9993C662.2134,-59.2366 483.8137,-47.7002 325.8906,-18.9487"/>
<polygon fill="#191970" stroke="#191970" points="326.469,-15.4964 315.9993,-17.12 325.1964,-22.3797 326.469,-15.4964"/>
</g>
<!-- Node8 -->
<g id="node9" class="node">
<title>Node8</title>
<polygon fill="#ffffff" stroke="#bfbfbf" points="333.6108,-.5 333.6108,-18.5 381.8521,-18.5 381.8521,-.5 333.6108,-.5"/>
<text text-anchor="middle" x="357.7314" y="-6.5" font-family="Helvetica,sans-Serif" font-size="10.00" fill="#000000">stdint.h</text>
</g>
<!-- Node2&#45;&gt;Node8 -->
<g id="edge8" class="edge">
<title>Node2&#45;&gt;Node8</title>
<path fill="none" stroke="#191970" d="M732.9355,-62.3484C669.6578,-57.6998 523.4119,-45.1246 391.9709,-18.9818"/>
<polygon fill="#191970" stroke="#191970" points="392.6275,-15.5438 382.1323,-16.9936 391.2408,-22.4051 392.6275,-15.5438"/>
</g>
<!-- Node9 -->
<g id="node10" class="node">
<title>Node9</title>
<polygon fill="#ffffff" stroke="#bfbfbf" points="399.6035,-.5 399.6035,-18.5 457.8594,-18.5 457.8594,-.5 399.6035,-.5"/>
<text text-anchor="middle" x="428.7314" y="-6.5" font-family="Helvetica,sans-Serif" font-size="10.00" fill="#000000">pthread.h</text>
</g>
<!-- Node2&#45;&gt;Node9 -->
<g id="edge9" class="edge">
<title>Node2&#45;&gt;Node9</title>
<path fill="none" stroke="#191970" d="M733.2423,-60.6763C680.396,-54.047 570.3544,-39.3357 468.0068,-19.1118"/>
<polygon fill="#191970" stroke="#191970" points="468.6204,-15.6653 458.1284,-17.1375 467.2485,-22.5296 468.6204,-15.6653"/>
</g>
<!-- Node10 -->
<g id="node11" class="node">
<title>Node10</title>
<polygon fill="#ffffff" stroke="#bfbfbf" points="475.6108,-.5 475.6108,-18.5 523.8521,-18.5 523.8521,-.5 475.6108,-.5"/>
<text text-anchor="middle" x="499.7314" y="-6.5" font-family="Helvetica,sans-Serif" font-size="10.00" fill="#000000">ctype.h</text>
</g>
<!-- Node2&#45;&gt;Node10 -->
<g id="edge10" class="edge">
<title>Node2&#45;&gt;Node10</title>
<path fill="none" stroke="#191970" d="M733.022,-59.179C690.0104,-51.7666 610.6083,-37.3944 533.9895,-19.1541"/>
<polygon fill="#191970" stroke="#191970" points="534.7183,-15.7297 524.177,-16.7927 533.0805,-22.5354 534.7183,-15.7297"/>
</g>
<!-- Node11 -->
<g id="node12" class="node">
<title>Node11</title>
<polygon fill="#ffffff" stroke="#bfbfbf" points="541.8892,-.5 541.8892,-18.5 589.5737,-18.5 589.5737,-.5 541.8892,-.5"/>
<text text-anchor="middle" x="565.7314" y="-6.5" font-family="Helvetica,sans-Serif" font-size="10.00" fill="#000000">errno.h</text>
</g>
<!-- Node2&#45;&gt;Node11 -->
<g id="edge11" class="edge">
<title>Node2&#45;&gt;Node11</title>
<path fill="none" stroke="#191970" d="M733.2778,-56.1573C701.6332,-47.714 651.1933,-34.1208 599.4915,-19.4648"/>
<polygon fill="#191970" stroke="#191970" points="600.4032,-16.0854 589.8272,-16.7168 598.4886,-22.8185 600.4032,-16.0854"/>
</g>
<!-- Node12 -->
<g id="node13" class="node">
<title>Node12</title>
<polygon fill="#ffffff" stroke="#bfbfbf" points="607.1035,-.5 607.1035,-18.5 670.3594,-18.5 670.3594,-.5 607.1035,-.5"/>
<text text-anchor="middle" x="638.7314" y="-6.5" font-family="Helvetica,sans-Serif" font-size="10.00" fill="#000000">arpa/inet.h</text>
</g>
<!-- Node2&#45;&gt;Node12 -->
<g id="edge12" class="edge">
<title>Node2&#45;&gt;Node12</title>
<path fill="none" stroke="#191970" d="M743.9251,-55.4179C723.4976,-46.5011 692.1166,-32.803 668.9423,-22.6873"/>
<polygon fill="#191970" stroke="#191970" points="670.1338,-19.3885 659.5687,-18.5956 667.3334,-25.804 670.1338,-19.3885"/>
</g>
<!-- Node13 -->
<g id="node14" class="node">
<title>Node13</title>
<polygon fill="#ffffff" stroke="#bfbfbf" points="688.2686,-.5 688.2686,-18.5 753.1943,-18.5 753.1943,-.5 688.2686,-.5"/>
<text text-anchor="middle" x="720.7314" y="-6.5" font-family="Helvetica,sans-Serif" font-size="10.00" fill="#000000">netinet/in.h</text>
</g>
<!-- Node2&#45;&gt;Node13 -->
<g id="edge13" class="edge">
<title>Node2&#45;&gt;Node13</title>
<path fill="none" stroke="#191970" d="M757.4657,-55.4179C751.2614,-47.6624 742.1634,-36.29 734.5742,-26.8035"/>
<polygon fill="#191970" stroke="#191970" points="737.135,-24.4017 728.155,-18.7795 731.6689,-28.7746 737.135,-24.4017"/>
</g>
<!-- Node14 -->
<g id="node15" class="node">
<title>Node14</title>
<polygon fill="#ffffff" stroke="#bfbfbf" points="770.8745,-.5 770.8745,-18.5 848.5884,-18.5 848.5884,-.5 770.8745,-.5"/>
<text text-anchor="middle" x="809.7314" y="-6.5" font-family="Helvetica,sans-Serif" font-size="10.00" fill="#000000">net/ethernet.h</text>
</g>
<!-- Node2&#45;&gt;Node14 -->
<g id="edge14" class="edge">
<title>Node2&#45;&gt;Node14</title>
<path fill="none" stroke="#191970" d="M772.1623,-55.4179C778.5077,-47.6624 787.8124,-36.29 795.574,-26.8035"/>
<polygon fill="#191970" stroke="#191970" points="798.5156,-28.7354 802.1392,-18.7795 793.0979,-24.3027 798.5156,-28.7354"/>
</g>
<!-- Node15 -->
<g id="node16" class="node">
<title>Node15</title>
<polygon fill="#ffffff" stroke="#bfbfbf" points="866.2686,-.5 866.2686,-18.5 931.1943,-18.5 931.1943,-.5 866.2686,-.5"/>
<text text-anchor="middle" x="898.7314" y="-6.5" font-family="Helvetica,sans-Serif" font-size="10.00" fill="#000000">netinet/ip.h</text>
</g>
<!-- Node2&#45;&gt;Node15 -->
<g id="edge15" class="edge">
<title>Node2&#45;&gt;Node15</title>
<path fill="none" stroke="#191970" d="M786.8588,-55.4179C808.7773,-46.4215 842.5536,-32.5581 867.2605,-22.4172"/>
<polygon fill="#191970" stroke="#191970" points="868.6491,-25.6306 876.5712,-18.5956 865.9911,-19.1549 868.6491,-25.6306"/>
</g>
<!-- Node16 -->
<g id="node17" class="node">
<title>Node16</title>
<polygon fill="#ffffff" stroke="#bfbfbf" points="949.4902,-.5 949.4902,-18.5 1019.9727,-18.5 1019.9727,-.5 949.4902,-.5"/>
<text text-anchor="middle" x="984.7314" y="-6.5" font-family="Helvetica,sans-Serif" font-size="10.00" fill="#000000">netinet/tcp.h</text>
</g>
<!-- Node2&#45;&gt;Node16 -->
<g id="edge16" class="edge">
<title>Node2&#45;&gt;Node16</title>
<path fill="none" stroke="#191970" d="M796.2521,-56.6198C833.7601,-47.2428 896.6699,-31.5154 939.397,-20.8336"/>
<polygon fill="#191970" stroke="#191970" points="940.408,-24.1887 949.2606,-18.3677 938.7102,-17.3977 940.408,-24.1887"/>
</g>
<!-- Node17 -->
<g id="node18" class="node">
<title>Node17</title>
<polygon fill="#ffffff" stroke="#bfbfbf" points="1037.9312,-.5 1037.9312,-18.5 1129.5317,-18.5 1129.5317,-.5 1037.9312,-.5"/>
<text text-anchor="middle" x="1083.7314" y="-6.5" font-family="Helvetica,sans-Serif" font-size="10.00" fill="#000000">netinet/ip_icmp.h</text>
</g>
<!-- Node2&#45;&gt;Node17 -->
<g id="edge17" class="edge">
<title>Node2&#45;&gt;Node17</title>
<path fill="none" stroke="#191970" d="M796.4293,-59.0408C844.2027,-50.8121 937.7789,-34.6909 1027.7187,-19.1743"/>
<polygon fill="#191970" stroke="#191970" points="1028.5563,-22.5815 1037.8156,-17.4322 1027.3661,-15.6835 1028.5563,-22.5815"/>
</g>
<!-- Node18 -->
<g id="node19" class="node">
<title>Node18</title>
<polygon fill="#ffffff" stroke="#bfbfbf" points="1147.3276,-.5 1147.3276,-18.5 1206.1353,-18.5 1206.1353,-.5 1147.3276,-.5"/>
<text text-anchor="middle" x="1176.7314" y="-6.5" font-family="Helvetica,sans-Serif" font-size="10.00" fill="#000000">jansson.h</text>
</g>
<!-- Node2&#45;&gt;Node18 -->
<g id="edge18" class="edge">
<title>Node2&#45;&gt;Node18</title>
<path fill="none" stroke="#191970" d="M796.4553,-61.977C859.6048,-56.6685 1005.6314,-42.9645 1137.0963,-19.128"/>
<polygon fill="#191970" stroke="#191970" points="1137.7345,-22.5694 1146.9371,-17.3194 1136.4692,-15.6847 1137.7345,-22.5694"/>
</g>
<!-- Node19 -->
<g id="node20" class="node">
<title>Node19</title>
<polygon fill="#ffffff" stroke="#bfbfbf" points="1223.8374,-.5 1223.8374,-18.5 1267.6255,-18.5 1267.6255,-.5 1223.8374,-.5"/>
<text text-anchor="middle" x="1245.7314" y="-6.5" font-family="Helvetica,sans-Serif" font-size="10.00" fill="#000000">libcli.h</text>
</g>
<!-- Node2&#45;&gt;Node19 -->
<g id="edge19" class="edge">
<title>Node2&#45;&gt;Node19</title>
<path fill="none" stroke="#191970" d="M796.1444,-63.4459C868.3868,-60.5718 1051.8984,-50.7058 1213.401,-18.9069"/>
<polygon fill="#191970" stroke="#191970" points="1214.3975,-22.2769 1223.515,-16.8806 1213.0223,-15.4133 1214.3975,-22.2769"/>
</g>
<!-- Node20 -->
<g id="node21" class="node">
<title>Node20</title>
<polygon fill="#ffffff" stroke="#bfbfbf" points="1286.1157,-.5 1286.1157,-18.5 1329.3472,-18.5 1329.3472,-.5 1286.1157,-.5"/>
<text text-anchor="middle" x="1307.7314" y="-6.5" font-family="Helvetica,sans-Serif" font-size="10.00" fill="#000000">zmq.h</text>
</g>
<!-- Node2&#45;&gt;Node20 -->
<g id="edge20" class="edge">
<title>Node2&#45;&gt;Node20</title>
<path fill="none" stroke="#191970" d="M796.2188,-63.9799C875.4564,-62.1896 1089.4855,-54.3704 1275.8819,-18.7596"/>
<polygon fill="#191970" stroke="#191970" points="1276.7107,-22.1641 1285.8598,-16.8212 1275.3758,-15.2925 1276.7107,-22.1641"/>
</g>
<!-- Node21 -->
<g id="node22" class="node">
<title>Node21</title>
<g id="a_node22"><a xlink:href="src_2include_2type_8h.html" target="_top" xlink:title="type.h">
<polygon fill="#ffffff" stroke="#000000" points="1408.1108,-.5 1408.1108,-18.5 1451.3521,-18.5 1451.3521,-.5 1408.1108,-.5"/>
<text text-anchor="middle" x="1429.7314" y="-6.5" font-family="Helvetica,sans-Serif" font-size="10.00" fill="#000000">type.h</text>
</a>
</g>
</g>
<!-- Node2&#45;&gt;Node21 -->
<g id="edge21" class="edge">
<title>Node2&#45;&gt;Node21</title>
<path fill="none" stroke="#191970" d="M796.2528,-63.2233C904.7569,-58.6795 1263.1077,-42.3987 1397.8612,-18.9075"/>
<polygon fill="#191970" stroke="#191970" points="1398.7269,-22.3071 1407.9294,-17.0569 1397.4614,-15.4224 1398.7269,-22.3071"/>
</g>
<!-- Node22 -->
<g id="node23" class="node">
<title>Node22</title>
<polygon fill="#ffffff" stroke="#bfbfbf" points="1347.1157,-.5 1347.1157,-18.5 1390.3472,-18.5 1390.3472,-.5 1347.1157,-.5"/>
<text text-anchor="middle" x="1368.7314" y="-6.5" font-family="Helvetica,sans-Serif" font-size="10.00" fill="#000000">time.h</text>
</g>
<!-- Node2&#45;&gt;Node22 -->
<g id="edge22" class="edge">
<title>Node2&#45;&gt;Node22</title>
<path fill="none" stroke="#191970" d="M796.4327,-62.9394C897.9015,-57.7991 1214.7328,-40.5896 1336.7623,-18.9412"/>
<polygon fill="#191970" stroke="#191970" points="1337.7411,-22.3188 1346.9256,-17.0372 1336.4521,-15.4385 1337.7411,-22.3188"/>
</g>
<!-- Node23&#45;&gt;Node2 -->
<g id="edge24" class="edge">
<title>Node23&#45;&gt;Node2</title>
<path fill="none" stroke="#191970" d="M830.5893,-165.3035C825.959,-152.3818 816.5587,-128.3774 804.7314,-110 798.0023,-99.5442 788.9581,-89.0422 781.1718,-80.7665"/>
<polygon fill="#191970" stroke="#191970" points="783.6838,-78.3292 774.2088,-73.5883 778.6593,-83.2031 783.6838,-78.3292"/>
</g>
<!-- Node24 -->
<g id="node25" class="node">
<title>Node24</title>
<g id="a_node25"><a xlink:href="src_2include_2context_8h.html" target="_top" xlink:title="context.h">
<polygon fill="#ffffff" stroke="#000000" points="851.4409,-110.5 851.4409,-128.5 908.022,-128.5 908.022,-110.5 851.4409,-110.5"/>
<text text-anchor="middle" x="879.7314" y="-116.5" font-family="Helvetica,sans-Serif" font-size="10.00" fill="#000000">context.h</text>
</a>
</g>
</g>
<!-- Node23&#45;&gt;Node24 -->
<g id="edge25" class="edge">
<title>Node23&#45;&gt;Node24</title>
<path fill="none" stroke="#191970" d="M841.3274,-165.4179C847.88,-157.5833 857.5197,-146.0575 865.5018,-136.5137"/>
<polygon fill="#191970" stroke="#191970" points="868.2396,-138.6957 871.9704,-128.7795 862.8701,-134.2048 868.2396,-138.6957"/>
</g>
<!-- Node25 -->
<g id="node26" class="node">
<title>Node25</title>
<g id="a_node26"><a xlink:href="events_2include_2event__id_8h.html" target="_top" xlink:title="event_id.h">
<polygon fill="#ffffff" stroke="#000000" points="733.6577,-110.5 733.6577,-128.5 795.8052,-128.5 795.8052,-110.5 733.6577,-110.5"/>
<text text-anchor="middle" x="764.7314" y="-116.5" font-family="Helvetica,sans-Serif" font-size="10.00" fill="#000000">event_id.h</text>
</a>
</g>
</g>
<!-- Node23&#45;&gt;Node25 -->
<g id="edge27" class="edge">
<title>Node23&#45;&gt;Node25</title>
<path fill="none" stroke="#191970" d="M822.3375,-165.4179C812.0122,-157.1876 796.5767,-144.8839 784.2817,-135.0836"/>
<polygon fill="#191970" stroke="#191970" points="786.3743,-132.2757 776.3729,-128.7795 782.0111,-137.7495 786.3743,-132.2757"/>
</g>
<!-- Node26 -->
<g id="node27" class="node">
<title>Node26</title>
<g id="a_node27"><a xlink:href="events_2include_2event__list_8h.html" target="_top" xlink:title="event_list.h">
<polygon fill="#ffffff" stroke="#000000" points="1052.4385,-55.5 1052.4385,-73.5 1119.0244,-73.5 1119.0244,-55.5 1052.4385,-55.5"/>
<text text-anchor="middle" x="1085.7314" y="-61.5" font-family="Helvetica,sans-Serif" font-size="10.00" fill="#000000">event_list.h</text>
</a>
</g>
</g>
<!-- Node23&#45;&gt;Node26 -->
<g id="edge28" class="edge">
<title>Node23&#45;&gt;Node26</title>
<path fill="none" stroke="#191970" d="M854.3537,-165.4982C898.7472,-146.1201 1003.5377,-100.3782 1055.4719,-77.7085"/>
<polygon fill="#191970" stroke="#191970" points="1057.0596,-80.8345 1064.8243,-73.6261 1054.2591,-74.419 1057.0596,-80.8345"/>
</g>
<!-- Node24&#45;&gt;Node2 -->
<g id="edge26" class="edge">
<title>Node24&#45;&gt;Node2</title>
<path fill="none" stroke="#191970" d="M860.7415,-110.4179C842.2638,-101.5807 813.9667,-88.0473 792.8731,-77.9591"/>
<polygon fill="#191970" stroke="#191970" points="794.281,-74.7528 783.7496,-73.5956 791.2608,-81.0677 794.281,-74.7528"/>
</g>
<!-- Node26&#45;&gt;Node21 -->
<g id="edge29" class="edge">
<title>Node26&#45;&gt;Node21</title>
<path fill="none" stroke="#191970" d="M1119.0602,-61.4711C1175.0181,-55.9989 1291.4625,-42.9551 1397.9482,-19.1318"/>
<polygon fill="#191970" stroke="#191970" points="1398.916,-22.5011 1407.8899,-16.869 1397.3625,-15.6757 1398.916,-22.5011"/>
</g>
<!-- Node28 -->
<g id="node29" class="node">
<title>Node28</title>
<g id="a_node29"><a xlink:href="app__events_2include_2app__event_8h.html" target="_top" xlink:title="app_event.h">
<polygon fill="#ffffff" stroke="#000000" points="900.207,-165.5 900.207,-183.5 971.2559,-183.5 971.2559,-165.5 900.207,-165.5"/>
<text text-anchor="middle" x="935.7314" y="-171.5" font-family="Helvetica,sans-Serif" font-size="10.00" fill="#000000">app_event.h</text>
</a>
</g>
</g>
<!-- Node27&#45;&gt;Node28 -->
<g id="edge31" class="edge">
<title>Node27&#45;&gt;Node28</title>
<path fill="none" stroke="#191970" d="M927.3827,-220.4179C928.6921,-213.2164 930.5685,-202.8962 932.2109,-193.8632"/>
<polygon fill="#191970" stroke="#191970" points="935.6989,-194.2443 934.0443,-183.7795 928.8118,-192.992 935.6989,-194.2443"/>
</g>
<!-- Node28&#45;&gt;Node2 -->
<g id="edge32" class="edge">
<title>Node28&#45;&gt;Node2</title>
<path fill="none" stroke="#191970" d="M935.6441,-165.2216C935.0009,-151.3047 931.7217,-125.0561 916.7314,-110 901.1769,-94.3771 845.6493,-80.5028 806.2168,-72.2981"/>
<polygon fill="#191970" stroke="#191970" points="806.8187,-68.849 796.3219,-70.287 805.4244,-75.7087 806.8187,-68.849"/>
</g>
<!-- Node28&#45;&gt;Node24 -->
<g id="edge33" class="edge">
<title>Node28&#45;&gt;Node24</title>
<path fill="none" stroke="#191970" d="M926.4842,-165.4179C918.346,-157.425 906.2962,-145.5903 896.4681,-135.9377"/>
<polygon fill="#191970" stroke="#191970" points="898.7666,-133.2895 889.1796,-128.7795 893.8616,-138.2836 898.7666,-133.2895"/>
</g>
<!-- Node29 -->
<g id="node30" class="node">
<title>Node29</title>
<g id="a_node30"><a xlink:href="app__events_2include_2app__event__id_8h.html" target="_top" xlink:title="app_event_id.h">
<polygon fill="#ffffff" stroke="#000000" points="1001.5347,-110.5 1001.5347,-128.5 1085.9282,-128.5 1085.9282,-110.5 1001.5347,-110.5"/>
<text text-anchor="middle" x="1043.7314" y="-116.5" font-family="Helvetica,sans-Serif" font-size="10.00" fill="#000000">app_event_id.h</text>
</a>
</g>
</g>
<!-- Node28&#45;&gt;Node29 -->
<g id="edge34" class="edge">
<title>Node28&#45;&gt;Node29</title>
<path fill="none" stroke="#191970" d="M953.5654,-165.4179C970.7621,-156.6603 997.0151,-143.2907 1016.7657,-133.2326"/>
<polygon fill="#191970" stroke="#191970" points="1018.5482,-136.2526 1025.8709,-128.5956 1015.3716,-130.0148 1018.5482,-136.2526"/>
</g>
<!-- Node30 -->
<g id="node31" class="node">
<title>Node30</title>
<g id="a_node31"><a xlink:href="app__events_2include_2app__event__list_8h.html" target="_top" xlink:title="app_event_list.h">
<polygon fill="#ffffff" stroke="#000000" points="1317.3154,-55.5 1317.3154,-73.5 1406.1475,-73.5 1406.1475,-55.5 1317.3154,-55.5"/>
<text text-anchor="middle" x="1361.7314" y="-61.5" font-family="Helvetica,sans-Serif" font-size="10.00" fill="#000000">app_event_list.h</text>
</a>
</g>
</g>
<!-- Node28&#45;&gt;Node30 -->
<g id="edge35" class="edge">
<title>Node28&#45;&gt;Node30</title>
<path fill="none" stroke="#191970" d="M970.5928,-165.4982C1047.4507,-145.6523 1231.3975,-98.1543 1316.7779,-76.1077"/>
<polygon fill="#191970" stroke="#191970" points="1317.8803,-79.4379 1326.6876,-73.5489 1316.1301,-72.6602 1317.8803,-79.4379"/>
</g>
<!-- Node30&#45;&gt;Node21 -->
<g id="edge36" class="edge">
<title>Node30&#45;&gt;Node21</title>
<path fill="none" stroke="#191970" d="M1372.9603,-55.4179C1383.1359,-47.1876 1398.3477,-34.8839 1410.4645,-25.0836"/>
<polygon fill="#191970" stroke="#191970" points="1412.6846,-27.7895 1418.2587,-18.7795 1408.2825,-22.3469 1412.6846,-27.7895"/>
</g>
</g>
</svg>
