<?xml version="1.0" encoding="UTF-8" standalone="no"?>
<!DOCTYPE svg PUBLIC "-//W3C//DTD SVG 1.1//EN"
 "http://www.w3.org/Graphics/SVG/1.1/DTD/svg11.dtd">
<!-- Generated by graphviz version 2.40.1 (20161225.0304)
 -->
<!-- Title: components/include/apphdlr.h Pages: 1 -->
<svg width="2371pt" height="312pt"
 viewBox="0.00 0.00 2371.01 312.00" xmlns="http://www.w3.org/2000/svg" xmlns:xlink="http://www.w3.org/1999/xlink">
<g id="graph0" class="graph" transform="scale(1 1) rotate(0) translate(4 308)">
<title>components/include/apphdlr.h</title>
<polygon fill="#ffffff" stroke="transparent" points="-4,4 -4,-308 2367.0097,-308 2367.0097,4 -4,4"/>
<!-- Node0 -->
<g id="node1" class="node">
<title>Node0</title>
<polygon fill="#bfbfbf" stroke="#000000" points="1302.9164,-275.5 1302.9164,-303.5 1407.8617,-303.5 1407.8617,-275.5 1302.9164,-275.5"/>
<text text-anchor="start" x="1310.9164" y="-291.5" font-family="Helvetica,sans-Serif" font-size="10.00" fill="#000000">components/include</text>
<text text-anchor="middle" x="1355.3891" y="-281.5" font-family="Helvetica,sans-Serif" font-size="10.00" fill="#000000">/apphdlr.h</text>
</g>
<!-- Node1 -->
<g id="node2" class="node">
<title>Node1</title>
<g id="a_node2"><a xlink:href="src_2include_2common_8h.html" target="_top" xlink:title="common.h">
<polygon fill="#ffffff" stroke="#000000" points="1295.0468,-110.5 1295.0468,-128.5 1357.7314,-128.5 1357.7314,-110.5 1295.0468,-110.5"/>
<text text-anchor="middle" x="1326.3891" y="-116.5" font-family="Helvetica,sans-Serif" font-size="10.00" fill="#000000">common.h</text>
</a>
</g>
</g>
<!-- Node0&#45;&gt;Node1 -->
<g id="edge1" class="edge">
<title>Node0&#45;&gt;Node1</title>
<path fill="none" stroke="#191970" d="M1352.9664,-275.2983C1347.7807,-244.8994 1335.5993,-173.4909 1329.7027,-138.9244"/>
<polygon fill="#191970" stroke="#191970" points="1333.0949,-137.9957 1327.963,-128.7266 1326.1946,-139.1728 1333.0949,-137.9957"/>
</g>
<!-- Node36 -->
<g id="node37" class="node">
<title>Node36</title>
<g id="a_node37"><a xlink:href="events_2include_2event_8h.html" target="_top" xlink:title="event.h">
<polygon fill="#ffffff" stroke="#000000" points="1379.9877,-220.5 1379.9877,-238.5 1428.7905,-238.5 1428.7905,-220.5 1379.9877,-220.5"/>
<text text-anchor="middle" x="1404.3891" y="-226.5" font-family="Helvetica,sans-Serif" font-size="10.00" fill="#000000">event.h</text>
</a>
</g>
</g>
<!-- Node0&#45;&gt;Node36 -->
<g id="edge43" class="edge">
<title>Node0&#45;&gt;Node36</title>
<path fill="none" stroke="#191970" d="M1367.0014,-275.2808C1374.0359,-266.6672 1383.052,-255.6271 1390.4677,-246.5466"/>
<polygon fill="#191970" stroke="#191970" points="1393.3558,-248.5434 1396.9703,-238.5842 1387.9341,-244.1156 1393.3558,-248.5434"/>
</g>
<!-- Node2 -->
<g id="node3" class="node">
<title>Node2</title>
<polygon fill="#ffffff" stroke="#bfbfbf" points="898.6576,-.5 898.6576,-18.5 944.1205,-18.5 944.1205,-.5 898.6576,-.5"/>
<text text-anchor="middle" x="921.3891" y="-6.5" font-family="Helvetica,sans-Serif" font-size="10.00" fill="#000000">stdio.h</text>
</g>
<!-- Node1&#45;&gt;Node2 -->
<g id="edge2" class="edge">
<title>Node1&#45;&gt;Node2</title>
<path fill="none" stroke="#191970" d="M1294.9634,-119.0168C1096.7722,-115.8974 27.5516,-97.9734 4.3891,-74 -1.4784,-67.927 -1.4322,-61.1173 4.3891,-55 35.4386,-22.3717 726.6776,-11.8887 887.96,-9.8827"/>
<polygon fill="#191970" stroke="#191970" points="888.267,-13.3793 898.2236,-9.7577 888.1817,-6.3798 888.267,-13.3793"/>
</g>
<!-- Node3 -->
<g id="node4" class="node">
<title>Node3</title>
<polygon fill="#ffffff" stroke="#bfbfbf" points="13.8769,-55.5 13.8769,-73.5 64.9013,-73.5 64.9013,-55.5 13.8769,-55.5"/>
<text text-anchor="middle" x="39.3891" y="-61.5" font-family="Helvetica,sans-Serif" font-size="10.00" fill="#000000">unistd.h</text>
</g>
<!-- Node1&#45;&gt;Node3 -->
<g id="edge3" class="edge">
<title>Node1&#45;&gt;Node3</title>
<path fill="none" stroke="#191970" d="M1294.9045,-119.363C1127.4785,-118.4837 339.6269,-112.4193 75.1783,-73.9034"/>
<polygon fill="#191970" stroke="#191970" points="75.6498,-70.435 65.239,-72.4014 74.6038,-77.3564 75.6498,-70.435"/>
</g>
<!-- Node4 -->
<g id="node5" class="node">
<title>Node4</title>
<polygon fill="#ffffff" stroke="#bfbfbf" points="82.5468,-55.5 82.5468,-73.5 130.2314,-73.5 130.2314,-55.5 82.5468,-55.5"/>
<text text-anchor="middle" x="106.3891" y="-61.5" font-family="Helvetica,sans-Serif" font-size="10.00" fill="#000000">stdlib.h</text>
</g>
<!-- Node1&#45;&gt;Node4 -->
<g id="edge4" class="edge">
<title>Node1&#45;&gt;Node4</title>
<path fill="none" stroke="#191970" d="M1294.9566,-119.3228C1133.1195,-118.2565 392.0406,-111.4636 140.5595,-73.7231"/>
<polygon fill="#191970" stroke="#191970" points="140.807,-70.2194 130.387,-72.1358 139.7278,-77.1358 140.807,-70.2194"/>
</g>
<!-- Node5 -->
<g id="node6" class="node">
<title>Node5</title>
<polygon fill="#ffffff" stroke="#bfbfbf" points="1873.3227,-.5 1873.3227,-18.5 1925.4555,-18.5 1925.4555,-.5 1873.3227,-.5"/>
<text text-anchor="middle" x="1899.3891" y="-6.5" font-family="Helvetica,sans-Serif" font-size="10.00" fill="#000000">stdarg.h</text>
</g>
<!-- Node1&#45;&gt;Node5 -->
<g id="edge5" class="edge">
<title>Node1&#45;&gt;Node5</title>
<path fill="none" stroke="#191970" d="M1358.0033,-118.1935C1476.245,-113.1568 1886.6514,-94.268 1905.3891,-74 1916.57,-61.906 1912.9944,-42.5401 1907.887,-28.1806"/>
<polygon fill="#191970" stroke="#191970" points="1911.0809,-26.7428 1904.0863,-18.7851 1904.5918,-29.3679 1911.0809,-26.7428"/>
</g>
<!-- Node6 -->
<g id="node7" class="node">
<title>Node6</title>
<polygon fill="#ffffff" stroke="#bfbfbf" points="148.2685,-55.5 148.2685,-73.5 196.5097,-73.5 196.5097,-55.5 148.2685,-55.5"/>
<text text-anchor="middle" x="172.3891" y="-61.5" font-family="Helvetica,sans-Serif" font-size="10.00" fill="#000000">stdint.h</text>
</g>
<!-- Node1&#45;&gt;Node6 -->
<g id="edge6" class="edge">
<title>Node1&#45;&gt;Node6</title>
<path fill="none" stroke="#191970" d="M1294.927,-119.2062C1138.6863,-117.5997 444.6147,-108.6909 206.7192,-73.5667"/>
<polygon fill="#191970" stroke="#191970" points="207.1687,-70.0947 196.7534,-72.0368 206.1065,-77.0137 207.1687,-70.0947"/>
</g>
<!-- Node7 -->
<g id="node8" class="node">
<title>Node7</title>
<polygon fill="#ffffff" stroke="#bfbfbf" points="214.9926,-55.5 214.9926,-73.5 263.7856,-73.5 263.7856,-55.5 214.9926,-55.5"/>
<text text-anchor="middle" x="239.3891" y="-61.5" font-family="Helvetica,sans-Serif" font-size="10.00" fill="#000000">string.h</text>
</g>
<!-- Node1&#45;&gt;Node7 -->
<g id="edge7" class="edge">
<title>Node1&#45;&gt;Node7</title>
<path fill="none" stroke="#191970" d="M1295.0271,-119.148C1144.7527,-117.3106 496.8031,-107.6426 274.0763,-73.8728"/>
<polygon fill="#191970" stroke="#191970" points="274.5352,-70.402 264.1115,-72.2986 273.4428,-77.3162 274.5352,-70.402"/>
</g>
<!-- Node8 -->
<g id="node9" class="node">
<title>Node8</title>
<polygon fill="#ffffff" stroke="#bfbfbf" points="281.4926,-55.5 281.4926,-73.5 335.2856,-73.5 335.2856,-55.5 281.4926,-55.5"/>
<text text-anchor="middle" x="308.3891" y="-61.5" font-family="Helvetica,sans-Serif" font-size="10.00" fill="#000000">strings.h</text>
</g>
<!-- Node1&#45;&gt;Node8 -->
<g id="edge8" class="edge">
<title>Node1&#45;&gt;Node8</title>
<path fill="none" stroke="#191970" d="M1295.0261,-118.9402C1151.2783,-116.2399 553.8631,-103.5207 345.3162,-73.7564"/>
<polygon fill="#191970" stroke="#191970" points="345.7925,-70.2888 335.3865,-72.2802 344.7632,-77.2127 345.7925,-70.2888"/>
</g>
<!-- Node9 -->
<g id="node10" class="node">
<title>Node9</title>
<polygon fill="#ffffff" stroke="#bfbfbf" points="353.2612,-55.5 353.2612,-73.5 411.517,-73.5 411.517,-55.5 353.2612,-55.5"/>
<text text-anchor="middle" x="382.3891" y="-61.5" font-family="Helvetica,sans-Serif" font-size="10.00" fill="#000000">pthread.h</text>
</g>
<!-- Node1&#45;&gt;Node9 -->
<g id="edge9" class="edge">
<title>Node1&#45;&gt;Node9</title>
<path fill="none" stroke="#191970" d="M1294.7075,-118.7375C1157.6057,-115.3127 614.0523,-100.4157 421.7164,-73.8723"/>
<polygon fill="#191970" stroke="#191970" points="422.1303,-70.3959 411.7338,-72.4364 421.1336,-77.3246 422.1303,-70.3959"/>
</g>
<!-- Node10 -->
<g id="node11" class="node">
<title>Node10</title>
<polygon fill="#ffffff" stroke="#bfbfbf" points="429.2685,-55.5 429.2685,-73.5 477.5097,-73.5 477.5097,-55.5 429.2685,-55.5"/>
<text text-anchor="middle" x="453.3891" y="-61.5" font-family="Helvetica,sans-Serif" font-size="10.00" fill="#000000">ctype.h</text>
</g>
<!-- Node1&#45;&gt;Node10 -->
<g id="edge10" class="edge">
<title>Node1&#45;&gt;Node10</title>
<path fill="none" stroke="#191970" d="M1294.7836,-118.7444C1164.2346,-115.4791 665.9068,-101.5551 487.763,-73.8114"/>
<polygon fill="#191970" stroke="#191970" points="488.1881,-70.3346 477.7552,-72.1801 487.0618,-77.2434 488.1881,-70.3346"/>
</g>
<!-- Node11 -->
<g id="node12" class="node">
<title>Node11</title>
<polygon fill="#ffffff" stroke="#bfbfbf" points="495.5468,-55.5 495.5468,-73.5 543.2314,-73.5 543.2314,-55.5 495.5468,-55.5"/>
<text text-anchor="middle" x="519.3891" y="-61.5" font-family="Helvetica,sans-Serif" font-size="10.00" fill="#000000">errno.h</text>
</g>
<!-- Node1&#45;&gt;Node11 -->
<g id="edge11" class="edge">
<title>Node1&#45;&gt;Node11</title>
<path fill="none" stroke="#191970" d="M1294.6882,-118.6112C1170.6056,-114.9853 717.0531,-100.3171 553.2614,-73.933"/>
<polygon fill="#191970" stroke="#191970" points="553.8035,-70.4751 543.3601,-72.2604 552.6374,-77.3773 553.8035,-70.4751"/>
</g>
<!-- Node12 -->
<g id="node13" class="node">
<title>Node12</title>
<polygon fill="#ffffff" stroke="#bfbfbf" points="560.7734,-55.5 560.7734,-73.5 604.0048,-73.5 604.0048,-55.5 560.7734,-55.5"/>
<text text-anchor="middle" x="582.3891" y="-61.5" font-family="Helvetica,sans-Serif" font-size="10.00" fill="#000000">time.h</text>
</g>
<!-- Node1&#45;&gt;Node12 -->
<g id="edge12" class="edge">
<title>Node1&#45;&gt;Node12</title>
<path fill="none" stroke="#191970" d="M1294.7972,-118.4658C1177.4744,-114.4761 766.2085,-99.128 614.3013,-73.6621"/>
<polygon fill="#191970" stroke="#191970" points="614.7033,-70.1791 604.2476,-71.8907 613.4886,-77.0729 614.7033,-70.1791"/>
</g>
<!-- Node13 -->
<g id="node14" class="node">
<title>Node13</title>
<polygon fill="#ffffff" stroke="#bfbfbf" points="622.0492,-55.5 622.0492,-73.5 664.7289,-73.5 664.7289,-55.5 622.0492,-55.5"/>
<text text-anchor="middle" x="643.3891" y="-61.5" font-family="Helvetica,sans-Serif" font-size="10.00" fill="#000000">fcntl.h</text>
</g>
<!-- Node1&#45;&gt;Node13 -->
<g id="edge13" class="edge">
<title>Node1&#45;&gt;Node13</title>
<path fill="none" stroke="#191970" d="M1294.8173,-118.2502C1184.2849,-113.73 814.3909,-97.3464 674.9414,-73.5799"/>
<polygon fill="#191970" stroke="#191970" points="675.3736,-70.1016 664.9129,-71.7818 674.1382,-76.9918 675.3736,-70.1016"/>
</g>
<!-- Node14 -->
<g id="node15" class="node">
<title>Node14</title>
<polygon fill="#ffffff" stroke="#bfbfbf" points="683.1552,-55.5 683.1552,-73.5 733.623,-73.5 733.623,-55.5 683.1552,-55.5"/>
<text text-anchor="middle" x="708.3891" y="-61.5" font-family="Helvetica,sans-Serif" font-size="10.00" fill="#000000">signal.h</text>
</g>
<!-- Node1&#45;&gt;Node14 -->
<g id="edge14" class="edge">
<title>Node1&#45;&gt;Node14</title>
<path fill="none" stroke="#191970" d="M1294.7811,-119.1925C1207.9783,-117.8931 958.6355,-111.1056 743.7679,-73.934"/>
<polygon fill="#191970" stroke="#191970" points="744.3406,-70.4811 733.8859,-72.1985 743.1297,-77.3756 744.3406,-70.4811"/>
</g>
<!-- Node15 -->
<g id="node16" class="node">
<title>Node15</title>
<polygon fill="#ffffff" stroke="#bfbfbf" points="2056.8842,-.5 2056.8842,-18.5 2117.894,-18.5 2117.894,-.5 2056.8842,-.5"/>
<text text-anchor="middle" x="2087.3891" y="-6.5" font-family="Helvetica,sans-Serif" font-size="10.00" fill="#000000">sys/time.h</text>
</g>
<!-- Node1&#45;&gt;Node15 -->
<g id="edge15" class="edge">
<title>Node1&#45;&gt;Node15</title>
<path fill="none" stroke="#191970" d="M1357.9992,-118.9565C1505.7923,-116.2649 2122.6616,-103.3008 2150.3891,-74 2167.1059,-56.3346 2140.3235,-36.3529 2116.6862,-23.3739"/>
<polygon fill="#191970" stroke="#191970" points="2118.0322,-20.1282 2107.5485,-18.5973 2114.7893,-26.3318 2118.0322,-20.1282"/>
</g>
<!-- Node16 -->
<g id="node17" class="node">
<title>Node16</title>
<polygon fill="#ffffff" stroke="#bfbfbf" points="751.2709,-55.5 751.2709,-73.5 809.5073,-73.5 809.5073,-55.5 751.2709,-55.5"/>
<text text-anchor="middle" x="780.3891" y="-61.5" font-family="Helvetica,sans-Serif" font-size="10.00" fill="#000000">sys/stat.h</text>
</g>
<!-- Node1&#45;&gt;Node16 -->
<g id="edge16" class="edge">
<title>Node1&#45;&gt;Node16</title>
<path fill="none" stroke="#191970" d="M1294.9566,-118.3862C1216.3365,-115.2395 1004.7765,-104.5492 819.6624,-73.9806"/>
<polygon fill="#191970" stroke="#191970" points="820.193,-70.5208 809.7522,-72.3206 819.0365,-77.4246 820.193,-70.5208"/>
</g>
<!-- Node17 -->
<g id="node18" class="node">
<title>Node17</title>
<polygon fill="#ffffff" stroke="#bfbfbf" points="827.3793,-55.5 827.3793,-73.5 893.3989,-73.5 893.3989,-55.5 827.3793,-55.5"/>
<text text-anchor="middle" x="860.3891" y="-61.5" font-family="Helvetica,sans-Serif" font-size="10.00" fill="#000000">sys/types.h</text>
</g>
<!-- Node1&#45;&gt;Node17 -->
<g id="edge17" class="edge">
<title>Node1&#45;&gt;Node17</title>
<path fill="none" stroke="#191970" d="M1294.8375,-117.3675C1225.716,-112.4282 1055.6069,-98.8142 903.7649,-74.0672"/>
<polygon fill="#191970" stroke="#191970" points="904.2275,-70.5963 893.791,-72.4211 903.0876,-77.5029 904.2275,-70.5963"/>
</g>
<!-- Node18 -->
<g id="node19" class="node">
<title>Node18</title>
<polygon fill="#ffffff" stroke="#bfbfbf" points="911.4384,-55.5 911.4384,-73.5 971.3398,-73.5 971.3398,-55.5 911.4384,-55.5"/>
<text text-anchor="middle" x="941.3891" y="-61.5" font-family="Helvetica,sans-Serif" font-size="10.00" fill="#000000">sys/ioctl.h</text>
</g>
<!-- Node1&#45;&gt;Node18 -->
<g id="edge18" class="edge">
<title>Node1&#45;&gt;Node18</title>
<path fill="none" stroke="#191970" d="M1294.6185,-116.5647C1234.9938,-110.792 1102.1228,-96.6792 981.7254,-74.2929"/>
<polygon fill="#191970" stroke="#191970" points="982.0781,-70.7978 971.6029,-72.3853 980.7817,-77.6768 982.0781,-70.7978"/>
</g>
<!-- Node19 -->
<g id="node20" class="node">
<title>Node19</title>
<polygon fill="#ffffff" stroke="#bfbfbf" points="988.8793,-55.5 988.8793,-73.5 1059.8989,-73.5 1059.8989,-55.5 988.8793,-55.5"/>
<text text-anchor="middle" x="1024.3891" y="-61.5" font-family="Helvetica,sans-Serif" font-size="10.00" fill="#000000">sys/socket.h</text>
</g>
<!-- Node1&#45;&gt;Node19 -->
<g id="edge19" class="edge">
<title>Node1&#45;&gt;Node19</title>
<path fill="none" stroke="#191970" d="M1294.9426,-114.3511C1248.0871,-106.593 1156.9362,-91.1702 1069.9434,-74.2523"/>
<polygon fill="#191970" stroke="#191970" points="1070.3925,-70.7739 1059.9067,-72.29 1069.0492,-77.6439 1070.3925,-70.7739"/>
</g>
<!-- Node20 -->
<g id="node21" class="node">
<title>Node20</title>
<polygon fill="#ffffff" stroke="#bfbfbf" points="1077.7685,-55.5 1077.7685,-73.5 1151.0097,-73.5 1151.0097,-55.5 1077.7685,-55.5"/>
<text text-anchor="middle" x="1114.3891" y="-61.5" font-family="Helvetica,sans-Serif" font-size="10.00" fill="#000000">sys/sysinfo.h</text>
</g>
<!-- Node1&#45;&gt;Node20 -->
<g id="edge20" class="edge">
<title>Node1&#45;&gt;Node20</title>
<path fill="none" stroke="#191970" d="M1294.6505,-111.2659C1258.6585,-101.9284 1199.7109,-86.6354 1159.0789,-76.0941"/>
<polygon fill="#191970" stroke="#191970" points="1159.727,-72.6464 1149.1684,-73.5229 1157.9691,-79.4221 1159.727,-72.6464"/>
</g>
<!-- Node21 -->
<g id="node22" class="node">
<title>Node21</title>
<polygon fill="#ffffff" stroke="#bfbfbf" points="1168.7612,-55.5 1168.7612,-73.5 1232.017,-73.5 1232.017,-55.5 1168.7612,-55.5"/>
<text text-anchor="middle" x="1200.3891" y="-61.5" font-family="Helvetica,sans-Serif" font-size="10.00" fill="#000000">arpa/inet.h</text>
</g>
<!-- Node1&#45;&gt;Node21 -->
<g id="edge21" class="edge">
<title>Node1&#45;&gt;Node21</title>
<path fill="none" stroke="#191970" d="M1305.5827,-110.4179C1285.1552,-101.5011 1253.7743,-87.803 1230.5999,-77.6873"/>
<polygon fill="#191970" stroke="#191970" points="1231.7915,-74.3885 1221.2263,-73.5956 1228.991,-80.804 1231.7915,-74.3885"/>
</g>
<!-- Node22 -->
<g id="node23" class="node">
<title>Node22</title>
<polygon fill="#ffffff" stroke="#bfbfbf" points="1249.9262,-55.5 1249.9262,-73.5 1314.852,-73.5 1314.852,-55.5 1249.9262,-55.5"/>
<text text-anchor="middle" x="1282.3891" y="-61.5" font-family="Helvetica,sans-Serif" font-size="10.00" fill="#000000">netinet/in.h</text>
</g>
<!-- Node1&#45;&gt;Node22 -->
<g id="edge22" class="edge">
<title>Node1&#45;&gt;Node22</title>
<path fill="none" stroke="#191970" d="M1319.1234,-110.4179C1312.919,-102.6624 1303.8211,-91.29 1296.2319,-81.8035"/>
<polygon fill="#191970" stroke="#191970" points="1298.7927,-79.4017 1289.8127,-73.7795 1293.3266,-83.7746 1298.7927,-79.4017"/>
</g>
<!-- Node23 -->
<g id="node24" class="node">
<title>Node23</title>
<polygon fill="#ffffff" stroke="#bfbfbf" points="1332.5322,-55.5 1332.5322,-73.5 1410.246,-73.5 1410.246,-55.5 1332.5322,-55.5"/>
<text text-anchor="middle" x="1371.3891" y="-61.5" font-family="Helvetica,sans-Serif" font-size="10.00" fill="#000000">net/ethernet.h</text>
</g>
<!-- Node1&#45;&gt;Node23 -->
<g id="edge23" class="edge">
<title>Node1&#45;&gt;Node23</title>
<path fill="none" stroke="#191970" d="M1333.8199,-110.4179C1340.1653,-102.6624 1349.47,-91.29 1357.2317,-81.8035"/>
<polygon fill="#191970" stroke="#191970" points="1360.1732,-83.7354 1363.7968,-73.7795 1354.7555,-79.3027 1360.1732,-83.7354"/>
</g>
<!-- Node24 -->
<g id="node25" class="node">
<title>Node24</title>
<polygon fill="#ffffff" stroke="#bfbfbf" points="1427.9262,-55.5 1427.9262,-73.5 1492.852,-73.5 1492.852,-55.5 1427.9262,-55.5"/>
<text text-anchor="middle" x="1460.3891" y="-61.5" font-family="Helvetica,sans-Serif" font-size="10.00" fill="#000000">netinet/ip.h</text>
</g>
<!-- Node1&#45;&gt;Node24 -->
<g id="edge24" class="edge">
<title>Node1&#45;&gt;Node24</title>
<path fill="none" stroke="#191970" d="M1348.5165,-110.4179C1370.435,-101.4215 1404.2113,-87.5581 1428.9182,-77.4172"/>
<polygon fill="#191970" stroke="#191970" points="1430.3068,-80.6306 1438.2288,-73.5956 1427.6488,-74.1549 1430.3068,-80.6306"/>
</g>
<!-- Node25 -->
<g id="node26" class="node">
<title>Node25</title>
<polygon fill="#ffffff" stroke="#bfbfbf" points="1511.1479,-55.5 1511.1479,-73.5 1581.6303,-73.5 1581.6303,-55.5 1511.1479,-55.5"/>
<text text-anchor="middle" x="1546.3891" y="-61.5" font-family="Helvetica,sans-Serif" font-size="10.00" fill="#000000">netinet/tcp.h</text>
</g>
<!-- Node1&#45;&gt;Node25 -->
<g id="edge25" class="edge">
<title>Node1&#45;&gt;Node25</title>
<path fill="none" stroke="#191970" d="M1357.9097,-111.6198C1395.4178,-102.2428 1458.3275,-86.5154 1501.0547,-75.8336"/>
<polygon fill="#191970" stroke="#191970" points="1502.0657,-79.1887 1510.9182,-73.3677 1500.3679,-72.3977 1502.0657,-79.1887"/>
</g>
<!-- Node26 -->
<g id="node27" class="node">
<title>Node26</title>
<polygon fill="#ffffff" stroke="#bfbfbf" points="1599.5888,-55.5 1599.5888,-73.5 1691.1894,-73.5 1691.1894,-55.5 1599.5888,-55.5"/>
<text text-anchor="middle" x="1645.3891" y="-61.5" font-family="Helvetica,sans-Serif" font-size="10.00" fill="#000000">netinet/ip_icmp.h</text>
</g>
<!-- Node1&#45;&gt;Node26 -->
<g id="edge26" class="edge">
<title>Node1&#45;&gt;Node26</title>
<path fill="none" stroke="#191970" d="M1358.087,-114.0408C1405.8603,-105.8121 1499.4365,-89.6909 1589.3764,-74.1743"/>
<polygon fill="#191970" stroke="#191970" points="1590.2139,-77.5815 1599.4732,-72.4322 1589.0237,-70.6835 1590.2139,-77.5815"/>
</g>
<!-- Node27 -->
<g id="node28" class="node">
<title>Node27</title>
<g id="a_node28"><a xlink:href="mac2int_8h.html" target="_top" xlink:title="mac2int.h">
<polygon fill="#ffffff" stroke="#000000" points="1708.7118,-55.5 1708.7118,-73.5 1768.0663,-73.5 1768.0663,-55.5 1708.7118,-55.5"/>
<text text-anchor="middle" x="1738.3891" y="-61.5" font-family="Helvetica,sans-Serif" font-size="10.00" fill="#000000">mac2int.h</text>
</a>
</g>
</g>
<!-- Node1&#45;&gt;Node27 -->
<g id="edge27" class="edge">
<title>Node1&#45;&gt;Node27</title>
<path fill="none" stroke="#191970" d="M1357.9569,-116.5422C1421.5907,-110.8002 1568.8655,-96.6781 1691.3891,-74 1693.7023,-73.5718 1696.0842,-73.0859 1698.4962,-72.5657"/>
<polygon fill="#191970" stroke="#191970" points="1699.5083,-75.925 1708.4827,-70.2938 1697.9555,-69.0994 1699.5083,-75.925"/>
</g>
<!-- Node28 -->
<g id="node29" class="node">
<title>Node28</title>
<g id="a_node29"><a xlink:href="ip2int_8h.html" target="_top" xlink:title="ip2int.h">
<polygon fill="#ffffff" stroke="#000000" points="1786.266,-55.5 1786.266,-73.5 1834.5121,-73.5 1834.5121,-55.5 1786.266,-55.5"/>
<text text-anchor="middle" x="1810.3891" y="-61.5" font-family="Helvetica,sans-Serif" font-size="10.00" fill="#000000">ip2int.h</text>
</a>
</g>
</g>
<!-- Node1&#45;&gt;Node28 -->
<g id="edge29" class="edge">
<title>Node1&#45;&gt;Node28</title>
<path fill="none" stroke="#191970" d="M1357.7792,-118.053C1430.679,-114.4978 1615.967,-103.3807 1768.3891,-74 1770.9887,-73.4989 1773.6793,-72.8858 1776.3982,-72.2146"/>
<polygon fill="#191970" stroke="#191970" points="1777.4726,-75.5512 1786.2554,-69.6256 1775.6943,-68.7809 1777.4726,-75.5512"/>
</g>
<!-- Node29 -->
<g id="node30" class="node">
<title>Node29</title>
<g id="a_node30"><a xlink:href="database_8h.html" target="_top" xlink:title="database.h">
<polygon fill="#ffffff" stroke="#000000" points="2197.6454,-55.5 2197.6454,-73.5 2263.1327,-73.5 2263.1327,-55.5 2197.6454,-55.5"/>
<text text-anchor="middle" x="2230.3891" y="-61.5" font-family="Helvetica,sans-Serif" font-size="10.00" fill="#000000">database.h</text>
</a>
</g>
</g>
<!-- Node1&#45;&gt;Node29 -->
<g id="edge31" class="edge">
<title>Node1&#45;&gt;Node29</title>
<path fill="none" stroke="#191970" d="M1358.1515,-118.3273C1492.2219,-113.5345 2011.2454,-94.7056 2174.3891,-74 2178.5699,-73.4694 2182.9353,-72.7771 2187.3182,-72.0079"/>
<polygon fill="#191970" stroke="#191970" points="2188.3076,-75.3839 2197.4984,-70.1132 2187.0268,-68.5021 2188.3076,-75.3839"/>
</g>
<!-- Node31 -->
<g id="node32" class="node">
<title>Node31</title>
<polygon fill="#ffffff" stroke="#bfbfbf" points="1951.9853,-55.5 1951.9853,-73.5 2010.7929,-73.5 2010.7929,-55.5 1951.9853,-55.5"/>
<text text-anchor="middle" x="1981.3891" y="-61.5" font-family="Helvetica,sans-Serif" font-size="10.00" fill="#000000">jansson.h</text>
</g>
<!-- Node1&#45;&gt;Node31 -->
<g id="edge35" class="edge">
<title>Node1&#45;&gt;Node31</title>
<path fill="none" stroke="#191970" d="M1357.7708,-118.7521C1448.2986,-116.2545 1717.55,-106.4338 1938.3891,-74 1939.4859,-73.8389 1940.5964,-73.6656 1941.7155,-73.482"/>
<polygon fill="#191970" stroke="#191970" points="1942.6871,-76.8617 1951.8839,-71.6017 1941.4142,-69.9784 1942.6871,-76.8617"/>
</g>
<!-- Node32 -->
<g id="node33" class="node">
<title>Node32</title>
<g id="a_node33"><a xlink:href="libcli_8h.html" target="_top" xlink:title="libcli.h">
<polygon fill="#ffffff" stroke="#000000" points="1852.495,-55.5 1852.495,-73.5 1896.2831,-73.5 1896.2831,-55.5 1852.495,-55.5"/>
<text text-anchor="middle" x="1874.3891" y="-61.5" font-family="Helvetica,sans-Serif" font-size="10.00" fill="#000000">libcli.h</text>
</a>
</g>
</g>
<!-- Node1&#45;&gt;Node32 -->
<g id="edge36" class="edge">
<title>Node1&#45;&gt;Node32</title>
<path fill="none" stroke="#191970" d="M1357.8864,-119.0175C1437.6564,-117.312 1654.0809,-109.6698 1842.1147,-73.8652"/>
<polygon fill="#191970" stroke="#191970" points="1843.0275,-77.2536 1852.1797,-71.9161 1841.6967,-70.3812 1843.0275,-77.2536"/>
</g>
<!-- Node33 -->
<g id="node34" class="node">
<title>Node33</title>
<polygon fill="#ffffff" stroke="#bfbfbf" points="2029.1625,-55.5 2029.1625,-73.5 2079.6156,-73.5 2079.6156,-55.5 2029.1625,-55.5"/>
<text text-anchor="middle" x="2054.3891" y="-61.5" font-family="Helvetica,sans-Serif" font-size="10.00" fill="#000000">mysql.h</text>
</g>
<!-- Node1&#45;&gt;Node33 -->
<g id="edge40" class="edge">
<title>Node1&#45;&gt;Node33</title>
<path fill="none" stroke="#191970" d="M1357.8746,-118.2686C1472.7781,-113.6481 1870.0785,-96.5291 2018.6454,-73.7014"/>
<polygon fill="#191970" stroke="#191970" points="2019.5893,-77.0946 2028.9051,-72.0481 2018.4756,-70.1837 2019.5893,-77.0946"/>
</g>
<!-- Node34 -->
<g id="node35" class="node">
<title>Node34</title>
<polygon fill="#ffffff" stroke="#bfbfbf" points="2097.7734,-55.5 2097.7734,-73.5 2141.0048,-73.5 2141.0048,-55.5 2097.7734,-55.5"/>
<text text-anchor="middle" x="2119.3891" y="-61.5" font-family="Helvetica,sans-Serif" font-size="10.00" fill="#000000">zmq.h</text>
</g>
<!-- Node1&#45;&gt;Node34 -->
<g id="edge41" class="edge">
<title>Node1&#45;&gt;Node34</title>
<path fill="none" stroke="#191970" d="M1357.9895,-118.6144C1480.5028,-115.0297 1924.9285,-100.5826 2087.2548,-73.6914"/>
<polygon fill="#191970" stroke="#191970" points="2088.2811,-77.0655 2097.5326,-71.9021 2087.0805,-70.1692 2088.2811,-77.0655"/>
</g>
<!-- Node35 -->
<g id="node36" class="node">
<title>Node35</title>
<g id="a_node36"><a xlink:href="src_2include_2type_8h.html" target="_top" xlink:title="type.h">
<polygon fill="#ffffff" stroke="#000000" points="2319.7685,-55.5 2319.7685,-73.5 2363.0097,-73.5 2363.0097,-55.5 2319.7685,-55.5"/>
<text text-anchor="middle" x="2341.3891" y="-61.5" font-family="Helvetica,sans-Serif" font-size="10.00" fill="#000000">type.h</text>
</a>
</g>
</g>
<!-- Node1&#45;&gt;Node35 -->
<g id="edge42" class="edge">
<title>Node1&#45;&gt;Node35</title>
<path fill="none" stroke="#191970" d="M1358.1435,-118.9276C1504.6735,-116.1482 2116.3955,-102.9938 2305.3891,-74 2306.6829,-73.8015 2307.9973,-73.575 2309.3209,-73.3261"/>
<polygon fill="#191970" stroke="#191970" points="2310.4563,-76.6593 2319.4597,-71.0746 2308.9387,-69.8258 2310.4563,-76.6593"/>
</g>
<!-- Node27&#45;&gt;Node1 -->
<g id="edge28" class="edge">
<title>Node27&#45;&gt;Node1</title>
<path fill="none" stroke="#191970" d="M1711.8176,-73.5346C1711.0022,-73.696 1710.1915,-73.8515 1709.3891,-74 1586.7304,-96.7031 1439.2661,-110.8314 1368.3051,-116.5611"/>
<polygon fill="#191970" stroke="#191970" points="1367.688,-113.0989 1357.9954,-117.3772 1368.2404,-120.0771 1367.688,-113.0989"/>
</g>
<!-- Node28&#45;&gt;Node1 -->
<g id="edge30" class="edge">
<title>Node28&#45;&gt;Node1</title>
<path fill="none" stroke="#191970" d="M1788.5134,-73.5703C1787.8007,-73.721 1787.0916,-73.8646 1786.3891,-74 1634.4152,-103.2943 1449.7685,-114.4323 1368.2639,-118.0215"/>
<polygon fill="#191970" stroke="#191970" points="1367.7643,-114.5394 1357.9217,-118.4602 1368.0611,-121.5331 1367.7643,-114.5394"/>
</g>
<!-- Node29&#45;&gt;Node1 -->
<g id="edge32" class="edge">
<title>Node29&#45;&gt;Node1</title>
<path fill="none" stroke="#191970" d="M2197.4117,-73.3007C2195.7213,-73.5555 2194.0408,-73.7904 2192.3891,-74 2030.543,-94.5409 1518.4561,-113.2349 1368.1554,-118.2102"/>
<polygon fill="#191970" stroke="#191970" points="1367.8485,-114.7183 1357.9687,-118.5446 1368.0782,-121.7146 1367.8485,-114.7183"/>
</g>
<!-- Node30 -->
<g id="node31" class="node">
<title>Node30</title>
<g id="a_node31"><a xlink:href="str_8h.html" target="_top" xlink:title="str.h">
<polygon fill="#ffffff" stroke="#000000" points="2242.9384,-.5 2242.9384,-18.5 2277.8398,-18.5 2277.8398,-.5 2242.9384,-.5"/>
<text text-anchor="middle" x="2260.3891" y="-6.5" font-family="Helvetica,sans-Serif" font-size="10.00" fill="#000000">str.h</text>
</a>
</g>
</g>
<!-- Node29&#45;&gt;Node30 -->
<g id="edge33" class="edge">
<title>Node29&#45;&gt;Node30</title>
<path fill="none" stroke="#191970" d="M2235.343,-55.4179C2239.4437,-47.8998 2245.3984,-36.9829 2250.4728,-27.6799"/>
<polygon fill="#191970" stroke="#191970" points="2253.6116,-29.2344 2255.3276,-18.7795 2247.4664,-25.8824 2253.6116,-29.2344"/>
</g>
<!-- Node30&#45;&gt;Node1 -->
<g id="edge34" class="edge">
<title>Node30&#45;&gt;Node1</title>
<path fill="none" stroke="#191970" d="M2266.4025,-18.7909C2274.5921,-32.7241 2286.6909,-58.9938 2272.3891,-74 2240.7598,-107.1871 1546.0551,-117.0845 1367.7827,-119.0822"/>
<polygon fill="#191970" stroke="#191970" points="1367.714,-115.5827 1357.7531,-119.1923 1367.7909,-122.5822 1367.714,-115.5827"/>
</g>
<!-- Node32&#45;&gt;Node2 -->
<g id="edge38" class="edge">
<title>Node32&#45;&gt;Node2</title>
<path fill="none" stroke="#191970" d="M1852.1992,-56.9784C1849.2633,-56.1965 1846.2723,-55.5048 1843.3891,-55 1667.4181,-24.1885 1098.6886,-12.5348 954.7393,-10.0389"/>
<polygon fill="#191970" stroke="#191970" points="954.4263,-6.5331 944.3681,-9.8622 954.307,-13.5321 954.4263,-6.5331"/>
</g>
<!-- Node32&#45;&gt;Node5 -->
<g id="edge37" class="edge">
<title>Node32&#45;&gt;Node5</title>
<path fill="none" stroke="#191970" d="M1878.5173,-55.4179C1881.8987,-47.9789 1886.7926,-37.2123 1890.9917,-27.9742"/>
<polygon fill="#191970" stroke="#191970" points="1894.2194,-29.3315 1895.1712,-18.7795 1887.8468,-26.4348 1894.2194,-29.3315"/>
</g>
<!-- Node32&#45;&gt;Node15 -->
<g id="edge39" class="edge">
<title>Node32&#45;&gt;Node15</title>
<path fill="none" stroke="#191970" d="M1896.3816,-58.8212C1931.7826,-49.6801 2001.952,-31.5612 2046.676,-20.0128"/>
<polygon fill="#191970" stroke="#191970" points="2047.8283,-23.3301 2056.6357,-17.441 2046.0782,-16.5524 2047.8283,-23.3301"/>
</g>
<!-- Node36&#45;&gt;Node1 -->
<g id="edge44" class="edge">
<title>Node36&#45;&gt;Node1</title>
<path fill="none" stroke="#191970" d="M1395.2523,-220.179C1386.7612,-211.2779 1374.0129,-197.289 1364.3891,-184 1353.5761,-169.069 1343.0795,-150.8823 1335.8683,-137.6315"/>
<polygon fill="#191970" stroke="#191970" points="1338.8414,-135.7687 1331.0435,-128.5963 1332.6667,-139.0661 1338.8414,-135.7687"/>
</g>
<!-- Node37 -->
<g id="node38" class="node">
<title>Node37</title>
<g id="a_node38"><a xlink:href="src_2include_2context_8h.html" target="_top" xlink:title="context.h">
<polygon fill="#ffffff" stroke="#000000" points="1453.0986,-165.5 1453.0986,-183.5 1509.6796,-183.5 1509.6796,-165.5 1453.0986,-165.5"/>
<text text-anchor="middle" x="1481.3891" y="-171.5" font-family="Helvetica,sans-Serif" font-size="10.00" fill="#000000">context.h</text>
</a>
</g>
</g>
<!-- Node36&#45;&gt;Node37 -->
<g id="edge45" class="edge">
<title>Node36&#45;&gt;Node37</title>
<path fill="none" stroke="#191970" d="M1417.1041,-220.4179C1428.8074,-212.0584 1446.3938,-199.4966 1460.2156,-189.6239"/>
<polygon fill="#191970" stroke="#191970" points="1462.5522,-192.2561 1468.6552,-183.5956 1458.4835,-186.56 1462.5522,-192.2561"/>
</g>
<!-- Node38 -->
<g id="node39" class="node">
<title>Node38</title>
<g id="a_node39"><a xlink:href="events_2include_2event__id_8h.html" target="_top" xlink:title="event_id.h">
<polygon fill="#ffffff" stroke="#000000" points="1373.3154,-165.5 1373.3154,-183.5 1435.4628,-183.5 1435.4628,-165.5 1373.3154,-165.5"/>
<text text-anchor="middle" x="1404.3891" y="-171.5" font-family="Helvetica,sans-Serif" font-size="10.00" fill="#000000">event_id.h</text>
</a>
</g>
</g>
<!-- Node36&#45;&gt;Node38 -->
<g id="edge47" class="edge">
<title>Node36&#45;&gt;Node38</title>
<path fill="none" stroke="#191970" d="M1404.3891,-220.4179C1404.3891,-213.2164 1404.3891,-202.8962 1404.3891,-193.8632"/>
<polygon fill="#191970" stroke="#191970" points="1407.8892,-193.7794 1404.3891,-183.7795 1400.8892,-193.7795 1407.8892,-193.7794"/>
</g>
<!-- Node39 -->
<g id="node40" class="node">
<title>Node39</title>
<g id="a_node40"><a xlink:href="events_2include_2event__list_8h.html" target="_top" xlink:title="event_list.h">
<polygon fill="#ffffff" stroke="#000000" points="2118.0961,-110.5 2118.0961,-128.5 2184.6821,-128.5 2184.6821,-110.5 2118.0961,-110.5"/>
<text text-anchor="middle" x="2151.3891" y="-116.5" font-family="Helvetica,sans-Serif" font-size="10.00" fill="#000000">event_list.h</text>
</a>
</g>
</g>
<!-- Node36&#45;&gt;Node39 -->
<g id="edge48" class="edge">
<title>Node36&#45;&gt;Node39</title>
<path fill="none" stroke="#191970" d="M1428.8184,-225.9026C1536.3858,-210.0627 1968.6417,-146.4106 2107.9132,-125.9021"/>
<polygon fill="#191970" stroke="#191970" points="2108.4255,-129.3645 2117.8089,-124.4449 2107.4057,-122.4391 2108.4255,-129.3645"/>
</g>
<!-- Node37&#45;&gt;Node1 -->
<g id="edge46" class="edge">
<title>Node37&#45;&gt;Node1</title>
<path fill="none" stroke="#191970" d="M1455.794,-165.4179C1430.027,-156.2748 1390.0929,-142.1046 1361.4023,-131.924"/>
<polygon fill="#191970" stroke="#191970" points="1362.3593,-128.5499 1351.7646,-128.5042 1360.0184,-135.1469 1362.3593,-128.5499"/>
</g>
<!-- Node39&#45;&gt;Node35 -->
<g id="edge49" class="edge">
<title>Node39&#45;&gt;Node35</title>
<path fill="none" stroke="#191970" d="M2182.7637,-110.4179C2217.9706,-100.2264 2274.7542,-83.7891 2309.9765,-73.5931"/>
<polygon fill="#191970" stroke="#191970" points="2311.1029,-76.9108 2319.7354,-70.7682 2309.1565,-70.1869 2311.1029,-76.9108"/>
</g>
</g>
</svg>
