<?xml version="1.0" encoding="UTF-8" standalone="no"?>
<!DOCTYPE svg PUBLIC "-//W3C//DTD SVG 1.1//EN"
 "http://www.w3.org/Graphics/SVG/1.1/DTD/svg11.dtd">
<!-- Generated by graphviz version 2.40.1 (20161225.0304)
 -->
<!-- Title: src/application.c Pages: 1 -->
<svg width="1459pt" height="247pt"
 viewBox="0.00 0.00 1459.35 247.00" xmlns="http://www.w3.org/2000/svg" xmlns:xlink="http://www.w3.org/1999/xlink">
<g id="graph0" class="graph" transform="scale(1 1) rotate(0) translate(4 243)">
<title>src/application.c</title>
<polygon fill="#ffffff" stroke="transparent" points="-4,4 -4,-243 1455.3521,-243 1455.3521,4 -4,4"/>
<!-- Node0 -->
<g id="node1" class="node">
<title>Node0</title>
<polygon fill="#bfbfbf" stroke="#000000" points="820.8818,-220.5 820.8818,-238.5 908.5811,-238.5 908.5811,-220.5 820.8818,-220.5"/>
<text text-anchor="middle" x="864.7314" y="-226.5" font-family="Helvetica,sans-Serif" font-size="10.00" fill="#000000">src/application.c</text>
</g>
<!-- Node1 -->
<g id="node2" class="node">
<title>Node1</title>
<g id="a_node2"><a xlink:href="src_2include_2application_8h.html" target="_top" xlink:title="application.h">
<polygon fill="#ffffff" stroke="#000000" points="680.6553,-165.5 680.6553,-183.5 752.8076,-183.5 752.8076,-165.5 680.6553,-165.5"/>
<text text-anchor="middle" x="716.7314" y="-171.5" font-family="Helvetica,sans-Serif" font-size="10.00" fill="#000000">application.h</text>
</a>
</g>
</g>
<!-- Node0&#45;&gt;Node1 -->
<g id="edge1" class="edge">
<title>Node0&#45;&gt;Node1</title>
<path fill="none" stroke="#191970" d="M840.2923,-220.4179C815.8695,-211.3419 778.1173,-197.3123 750.7683,-187.1488"/>
<polygon fill="#191970" stroke="#191970" points="751.7998,-183.7984 741.2069,-183.5956 749.3614,-190.3599 751.7998,-183.7984"/>
</g>
<!-- Node26 -->
<g id="node27" class="node">
<title>Node26</title>
<polygon fill="#ffffff" stroke="#bfbfbf" points="770.7637,-165.5 770.7637,-183.5 860.6992,-183.5 860.6992,-165.5 770.7637,-165.5"/>
<text text-anchor="middle" x="815.7314" y="-171.5" font-family="Helvetica,sans-Serif" font-size="10.00" fill="#000000">application_list.h</text>
</g>
<!-- Node0&#45;&gt;Node26 -->
<g id="edge29" class="edge">
<title>Node0&#45;&gt;Node26</title>
<path fill="none" stroke="#191970" d="M856.6401,-220.4179C849.6602,-212.5833 839.3918,-201.0575 830.8891,-191.5137"/>
<polygon fill="#191970" stroke="#191970" points="833.264,-188.9178 823.9986,-183.7795 828.0374,-193.5743 833.264,-188.9178"/>
</g>
<!-- Node27 -->
<g id="node28" class="node">
<title>Node27</title>
<g id="a_node28"><a xlink:href="app__events_2include_2app__event_8h.html" target="_top" xlink:title="app_event.h">
<polygon fill="#ffffff" stroke="#000000" points="878.207,-165.5 878.207,-183.5 949.2559,-183.5 949.2559,-165.5 878.207,-165.5"/>
<text text-anchor="middle" x="913.7314" y="-171.5" font-family="Helvetica,sans-Serif" font-size="10.00" fill="#000000">app_event.h</text>
</a>
</g>
</g>
<!-- Node0&#45;&gt;Node27 -->
<g id="edge30" class="edge">
<title>Node0&#45;&gt;Node27</title>
<path fill="none" stroke="#191970" d="M872.8228,-220.4179C879.8027,-212.5833 890.0711,-201.0575 898.5738,-191.5137"/>
<polygon fill="#191970" stroke="#191970" points="901.4255,-193.5743 905.4643,-183.7795 896.1989,-188.9178 901.4255,-193.5743"/>
</g>
<!-- Node30 -->
<g id="node31" class="node">
<title>Node30</title>
<g id="a_node31"><a xlink:href="app__events_2include_2app__event__string_8h.html" target="_top" xlink:title="app_event_string.h">
<polygon fill="#ffffff" stroke="#000000" points="967.1997,-165.5 967.1997,-183.5 1068.2632,-183.5 1068.2632,-165.5 967.1997,-165.5"/>
<text text-anchor="middle" x="1017.7314" y="-171.5" font-family="Helvetica,sans-Serif" font-size="10.00" fill="#000000">app_event_string.h</text>
</a>
</g>
</g>
<!-- Node0&#45;&gt;Node30 -->
<g id="edge36" class="edge">
<title>Node0&#45;&gt;Node30</title>
<path fill="none" stroke="#191970" d="M889.9963,-220.4179C915.4308,-211.2748 954.8496,-197.1046 983.17,-186.924"/>
<polygon fill="#191970" stroke="#191970" points="984.4569,-190.1808 992.6834,-183.5042 982.0889,-183.5935 984.4569,-190.1808"/>
</g>
<!-- Node2 -->
<g id="node3" class="node">
<title>Node2</title>
<g id="a_node3"><a xlink:href="src_2include_2common_8h.html" target="_top" xlink:title="common.h">
<polygon fill="#ffffff" stroke="#000000" points="689.3892,-55.5 689.3892,-73.5 752.0737,-73.5 752.0737,-55.5 689.3892,-55.5"/>
<text text-anchor="middle" x="720.7314" y="-61.5" font-family="Helvetica,sans-Serif" font-size="10.00" fill="#000000">common.h</text>
</a>
</g>
</g>
<!-- Node1&#45;&gt;Node2 -->
<g id="edge2" class="edge">
<title>Node1&#45;&gt;Node2</title>
<path fill="none" stroke="#191970" d="M698.2629,-165.444C677.5549,-153.9468 648.2733,-132.8413 659.7314,-110 666.4349,-96.6371 679.1303,-86.1977 691.211,-78.7082"/>
<polygon fill="#191970" stroke="#191970" points="693.2765,-81.5589 700.2199,-73.5563 689.8015,-75.4823 693.2765,-81.5589"/>
</g>
<!-- Node23 -->
<g id="node24" class="node">
<title>Node23</title>
<g id="a_node24"><a xlink:href="src_2include_2context_8h.html" target="_top" xlink:title="context.h">
<polygon fill="#ffffff" stroke="#000000" points="785.4409,-110.5 785.4409,-128.5 842.022,-128.5 842.022,-110.5 785.4409,-110.5"/>
<text text-anchor="middle" x="813.7314" y="-116.5" font-family="Helvetica,sans-Serif" font-size="10.00" fill="#000000">context.h</text>
</a>
</g>
</g>
<!-- Node1&#45;&gt;Node23 -->
<g id="edge23" class="edge">
<title>Node1&#45;&gt;Node23</title>
<path fill="none" stroke="#191970" d="M732.749,-165.4179C747.9134,-156.8195 770.9185,-143.7754 788.5389,-133.7844"/>
<polygon fill="#191970" stroke="#191970" points="790.7175,-136.5727 797.6901,-128.5956 787.2648,-130.4834 790.7175,-136.5727"/>
</g>
<!-- Node24 -->
<g id="node25" class="node">
<title>Node24</title>
<g id="a_node25"><a xlink:href="hash_8h.html" target="_top" xlink:title="hash.h">
<polygon fill="#ffffff" stroke="#000000" points="668.7192,-110.5 668.7192,-128.5 714.7437,-128.5 714.7437,-110.5 668.7192,-110.5"/>
<text text-anchor="middle" x="691.7314" y="-116.5" font-family="Helvetica,sans-Serif" font-size="10.00" fill="#000000">hash.h</text>
</a>
</g>
</g>
<!-- Node1&#45;&gt;Node24 -->
<g id="edge25" class="edge">
<title>Node1&#45;&gt;Node24</title>
<path fill="none" stroke="#191970" d="M712.6032,-165.4179C709.2219,-157.9789 704.328,-147.2123 700.1288,-137.9742"/>
<polygon fill="#191970" stroke="#191970" points="703.2738,-136.4348 695.9494,-128.7795 696.9012,-139.3315 703.2738,-136.4348"/>
</g>
<!-- Node25 -->
<g id="node26" class="node">
<title>Node25</title>
<g id="a_node26"><a xlink:href="str_8h.html" target="_top" xlink:title="str.h">
<polygon fill="#ffffff" stroke="#000000" points="732.2808,-110.5 732.2808,-128.5 767.1821,-128.5 767.1821,-110.5 732.2808,-110.5"/>
<text text-anchor="middle" x="749.7314" y="-116.5" font-family="Helvetica,sans-Serif" font-size="10.00" fill="#000000">str.h</text>
</a>
</g>
</g>
<!-- Node1&#45;&gt;Node25 -->
<g id="edge27" class="edge">
<title>Node1&#45;&gt;Node25</title>
<path fill="none" stroke="#191970" d="M722.1807,-165.4179C726.739,-157.8207 733.3798,-146.7527 738.9995,-137.3866"/>
<polygon fill="#191970" stroke="#191970" points="742.02,-139.1552 744.1638,-128.7795 736.0175,-135.5536 742.02,-139.1552"/>
</g>
<!-- Node3 -->
<g id="node4" class="node">
<title>Node3</title>
<polygon fill="#ffffff" stroke="#bfbfbf" points="0,-.5 0,-18.5 45.4629,-18.5 45.4629,-.5 0,-.5"/>
<text text-anchor="middle" x="22.7314" y="-6.5" font-family="Helvetica,sans-Serif" font-size="10.00" fill="#000000">stdio.h</text>
</g>
<!-- Node2&#45;&gt;Node3 -->
<g id="edge3" class="edge">
<title>Node2&#45;&gt;Node3</title>
<path fill="none" stroke="#191970" d="M689.2285,-63.3097C577.1505,-58.9296 197.3172,-42.8048 55.779,-18.9558"/>
<polygon fill="#191970" stroke="#191970" points="56.0664,-15.4522 45.6086,-17.1509 54.8432,-22.3445 56.0664,-15.4522"/>
</g>
<!-- Node4 -->
<g id="node5" class="node">
<title>Node4</title>
<polygon fill="#ffffff" stroke="#bfbfbf" points="63.2192,-.5 63.2192,-18.5 114.2437,-18.5 114.2437,-.5 63.2192,-.5"/>
<text text-anchor="middle" x="88.7314" y="-6.5" font-family="Helvetica,sans-Serif" font-size="10.00" fill="#000000">unistd.h</text>
</g>
<!-- Node2&#45;&gt;Node4 -->
<g id="edge4" class="edge">
<title>Node2&#45;&gt;Node4</title>
<path fill="none" stroke="#191970" d="M689.2354,-62.9231C585.0764,-57.5833 251.5816,-39.4584 124.4641,-18.9631"/>
<polygon fill="#191970" stroke="#191970" points="125.0433,-15.5114 114.5994,-17.2929 123.8748,-22.4132 125.0433,-15.5114"/>
</g>
<!-- Node5 -->
<g id="node6" class="node">
<title>Node5</title>
<polygon fill="#ffffff" stroke="#bfbfbf" points="131.8892,-.5 131.8892,-18.5 179.5737,-18.5 179.5737,-.5 131.8892,-.5"/>
<text text-anchor="middle" x="155.7314" y="-6.5" font-family="Helvetica,sans-Serif" font-size="10.00" fill="#000000">stdlib.h</text>
</g>
<!-- Node2&#45;&gt;Node5 -->
<g id="edge5" class="edge">
<title>Node2&#45;&gt;Node5</title>
<path fill="none" stroke="#191970" d="M689.2656,-63.9437C607.9767,-62.0556 384.3282,-53.9969 189.8683,-18.8592"/>
<polygon fill="#191970" stroke="#191970" points="190.2202,-15.3653 179.7525,-17.0017 188.9559,-22.2502 190.2202,-15.3653"/>
</g>
<!-- Node6 -->
<g id="node7" class="node">
<title>Node6</title>
<polygon fill="#ffffff" stroke="#bfbfbf" points="197.335,-.5 197.335,-18.5 246.1279,-18.5 246.1279,-.5 197.335,-.5"/>
<text text-anchor="middle" x="221.7314" y="-6.5" font-family="Helvetica,sans-Serif" font-size="10.00" fill="#000000">string.h</text>
</g>
<!-- Node2&#45;&gt;Node6 -->
<g id="edge6" class="edge">
<title>Node2&#45;&gt;Node6</title>
<path fill="none" stroke="#191970" d="M689.3652,-63.4171C615.3624,-60.4424 424.0805,-50.3028 256.4674,-19.0442"/>
<polygon fill="#191970" stroke="#191970" points="256.9569,-15.5747 246.48,-17.1509 255.6531,-22.4522 256.9569,-15.5747"/>
</g>
<!-- Node7 -->
<g id="node8" class="node">
<title>Node7</title>
<polygon fill="#ffffff" stroke="#bfbfbf" points="263.665,-.5 263.665,-18.5 315.7979,-18.5 315.7979,-.5 263.665,-.5"/>
<text text-anchor="middle" x="289.7314" y="-6.5" font-family="Helvetica,sans-Serif" font-size="10.00" fill="#000000">stdarg.h</text>
</g>
<!-- Node2&#45;&gt;Node7 -->
<g id="edge7" class="edge">
<title>Node2&#45;&gt;Node7</title>
<path fill="none" stroke="#191970" d="M689.1727,-62.4958C623.3495,-57.9695 466.5333,-45.3834 326.0878,-19.0102"/>
<polygon fill="#191970" stroke="#191970" points="326.4841,-15.5228 316.0055,-17.0874 325.1727,-22.3989 326.4841,-15.5228"/>
</g>
<!-- Node8 -->
<g id="node9" class="node">
<title>Node8</title>
<polygon fill="#ffffff" stroke="#bfbfbf" points="333.6108,-.5 333.6108,-18.5 381.8521,-18.5 381.8521,-.5 333.6108,-.5"/>
<text text-anchor="middle" x="357.7314" y="-6.5" font-family="Helvetica,sans-Serif" font-size="10.00" fill="#000000">stdint.h</text>
</g>
<!-- Node2&#45;&gt;Node8 -->
<g id="edge8" class="edge">
<title>Node2&#45;&gt;Node8</title>
<path fill="none" stroke="#191970" d="M689.0761,-61.6594C631.6622,-56.1808 506.4378,-42.7325 392.1084,-19.0465"/>
<polygon fill="#191970" stroke="#191970" points="392.6479,-15.5834 382.1415,-16.9493 391.2065,-22.4334 392.6479,-15.5834"/>
</g>
<!-- Node9 -->
<g id="node10" class="node">
<title>Node9</title>
<polygon fill="#ffffff" stroke="#bfbfbf" points="399.6035,-.5 399.6035,-18.5 457.8594,-18.5 457.8594,-.5 399.6035,-.5"/>
<text text-anchor="middle" x="428.7314" y="-6.5" font-family="Helvetica,sans-Serif" font-size="10.00" fill="#000000">pthread.h</text>
</g>
<!-- Node2&#45;&gt;Node9 -->
<g id="edge9" class="edge">
<title>Node2&#45;&gt;Node9</title>
<path fill="none" stroke="#191970" d="M689.3153,-59.5753C642.9872,-52.1606 553.4234,-37.2464 467.9995,-19.1663"/>
<polygon fill="#191970" stroke="#191970" points="468.6545,-15.7274 458.144,-17.0621 467.1928,-22.5731 468.6545,-15.7274"/>
</g>
<!-- Node10 -->
<g id="node11" class="node">
<title>Node10</title>
<polygon fill="#ffffff" stroke="#bfbfbf" points="475.6108,-.5 475.6108,-18.5 523.8521,-18.5 523.8521,-.5 475.6108,-.5"/>
<text text-anchor="middle" x="499.7314" y="-6.5" font-family="Helvetica,sans-Serif" font-size="10.00" fill="#000000">ctype.h</text>
</g>
<!-- Node2&#45;&gt;Node10 -->
<g id="edge10" class="edge">
<title>Node2&#45;&gt;Node10</title>
<path fill="none" stroke="#191970" d="M689.3592,-57.3406C653.9241,-49.1594 594.3055,-35.1107 534.2392,-19.3244"/>
<polygon fill="#191970" stroke="#191970" points="534.7698,-15.8445 524.2074,-16.6724 532.9808,-22.612 534.7698,-15.8445"/>
</g>
<!-- Node11 -->
<g id="node12" class="node">
<title>Node11</title>
<polygon fill="#ffffff" stroke="#bfbfbf" points="541.8892,-.5 541.8892,-18.5 589.5737,-18.5 589.5737,-.5 541.8892,-.5"/>
<text text-anchor="middle" x="565.7314" y="-6.5" font-family="Helvetica,sans-Serif" font-size="10.00" fill="#000000">errno.h</text>
</g>
<!-- Node2&#45;&gt;Node11 -->
<g id="edge11" class="edge">
<title>Node2&#45;&gt;Node11</title>
<path fill="none" stroke="#191970" d="M695.1363,-55.4179C668.9079,-46.111 628.0003,-31.5954 599.214,-21.3809"/>
<polygon fill="#191970" stroke="#191970" points="600.1761,-18.0086 589.5814,-17.9629 597.8352,-24.6055 600.1761,-18.0086"/>
</g>
<!-- Node12 -->
<g id="node13" class="node">
<title>Node12</title>
<polygon fill="#ffffff" stroke="#bfbfbf" points="607.1035,-.5 607.1035,-18.5 670.3594,-18.5 670.3594,-.5 607.1035,-.5"/>
<text text-anchor="middle" x="638.7314" y="-6.5" font-family="Helvetica,sans-Serif" font-size="10.00" fill="#000000">arpa/inet.h</text>
</g>
<!-- Node2&#45;&gt;Node12 -->
<g id="edge12" class="edge">
<title>Node2&#45;&gt;Node12</title>
<path fill="none" stroke="#191970" d="M707.1908,-55.4179C694.6089,-46.9788 675.6418,-34.257 660.8604,-24.3426"/>
<polygon fill="#191970" stroke="#191970" points="662.5467,-21.2593 652.2922,-18.5956 658.6475,-27.0727 662.5467,-21.2593"/>
</g>
<!-- Node13 -->
<g id="node14" class="node">
<title>Node13</title>
<polygon fill="#ffffff" stroke="#bfbfbf" points="688.2686,-.5 688.2686,-18.5 753.1943,-18.5 753.1943,-.5 688.2686,-.5"/>
<text text-anchor="middle" x="720.7314" y="-6.5" font-family="Helvetica,sans-Serif" font-size="10.00" fill="#000000">netinet/in.h</text>
</g>
<!-- Node2&#45;&gt;Node13 -->
<g id="edge13" class="edge">
<title>Node2&#45;&gt;Node13</title>
<path fill="none" stroke="#191970" d="M720.7314,-55.4179C720.7314,-48.2164 720.7314,-37.8962 720.7314,-28.8632"/>
<polygon fill="#191970" stroke="#191970" points="724.2315,-28.7794 720.7314,-18.7795 717.2315,-28.7795 724.2315,-28.7794"/>
</g>
<!-- Node14 -->
<g id="node15" class="node">
<title>Node14</title>
<polygon fill="#ffffff" stroke="#bfbfbf" points="770.8745,-.5 770.8745,-18.5 848.5884,-18.5 848.5884,-.5 770.8745,-.5"/>
<text text-anchor="middle" x="809.7314" y="-6.5" font-family="Helvetica,sans-Serif" font-size="10.00" fill="#000000">net/ethernet.h</text>
</g>
<!-- Node2&#45;&gt;Node14 -->
<g id="edge14" class="edge">
<title>Node2&#45;&gt;Node14</title>
<path fill="none" stroke="#191970" d="M735.428,-55.4179C749.2128,-46.8992 770.0592,-34.0166 786.1663,-24.0627"/>
<polygon fill="#191970" stroke="#191970" points="788.3463,-26.83 795.0131,-18.5956 784.6664,-20.8753 788.3463,-26.83"/>
</g>
<!-- Node15 -->
<g id="node16" class="node">
<title>Node15</title>
<polygon fill="#ffffff" stroke="#bfbfbf" points="866.2686,-.5 866.2686,-18.5 931.1943,-18.5 931.1943,-.5 866.2686,-.5"/>
<text text-anchor="middle" x="898.7314" y="-6.5" font-family="Helvetica,sans-Serif" font-size="10.00" fill="#000000">netinet/ip.h</text>
</g>
<!-- Node2&#45;&gt;Node15 -->
<g id="edge15" class="edge">
<title>Node2&#45;&gt;Node15</title>
<path fill="none" stroke="#191970" d="M750.1245,-55.4179C780.1026,-46.155 826.7791,-31.7325 859.8109,-21.526"/>
<polygon fill="#191970" stroke="#191970" points="861.0695,-24.8005 869.5905,-18.5042 859.003,-18.1124 861.0695,-24.8005"/>
</g>
<!-- Node16 -->
<g id="node17" class="node">
<title>Node16</title>
<polygon fill="#ffffff" stroke="#bfbfbf" points="949.4902,-.5 949.4902,-18.5 1019.9727,-18.5 1019.9727,-.5 949.4902,-.5"/>
<text text-anchor="middle" x="984.7314" y="-6.5" font-family="Helvetica,sans-Serif" font-size="10.00" fill="#000000">netinet/tcp.h</text>
</g>
<!-- Node2&#45;&gt;Node16 -->
<g id="edge16" class="edge">
<title>Node2&#45;&gt;Node16</title>
<path fill="none" stroke="#191970" d="M752.2899,-57.9764C793.0273,-49.5483 866.3751,-34.3488 939.5134,-19.0404"/>
<polygon fill="#191970" stroke="#191970" points="940.2901,-22.4537 949.3605,-16.9784 938.8554,-15.6023 940.2901,-22.4537"/>
</g>
<!-- Node17 -->
<g id="node18" class="node">
<title>Node17</title>
<polygon fill="#ffffff" stroke="#bfbfbf" points="1037.9312,-.5 1037.9312,-18.5 1129.5317,-18.5 1129.5317,-.5 1037.9312,-.5"/>
<text text-anchor="middle" x="1083.7314" y="-6.5" font-family="Helvetica,sans-Serif" font-size="10.00" fill="#000000">netinet/ip_icmp.h</text>
</g>
<!-- Node2&#45;&gt;Node17 -->
<g id="edge17" class="edge">
<title>Node2&#45;&gt;Node17</title>
<path fill="none" stroke="#191970" d="M752.251,-60.1023C806.3632,-52.4965 920.6632,-36.187 1027.8167,-19.1155"/>
<polygon fill="#191970" stroke="#191970" points="1028.5073,-22.5496 1037.8293,-17.5146 1027.4021,-15.6374 1028.5073,-22.5496"/>
</g>
<!-- Node18 -->
<g id="node19" class="node">
<title>Node18</title>
<polygon fill="#ffffff" stroke="#bfbfbf" points="1147.3276,-.5 1147.3276,-18.5 1206.1353,-18.5 1206.1353,-.5 1147.3276,-.5"/>
<text text-anchor="middle" x="1176.7314" y="-6.5" font-family="Helvetica,sans-Serif" font-size="10.00" fill="#000000">jansson.h</text>
</g>
<!-- Node2&#45;&gt;Node18 -->
<g id="edge18" class="edge">
<title>Node2&#45;&gt;Node18</title>
<path fill="none" stroke="#191970" d="M752.1392,-62.5528C820.4626,-58.0032 987.8052,-45.162 1136.7102,-19.1681"/>
<polygon fill="#191970" stroke="#191970" points="1137.7075,-22.5461 1146.9437,-17.3555 1136.4865,-15.6534 1137.7075,-22.5461"/>
</g>
<!-- Node19 -->
<g id="node20" class="node">
<title>Node19</title>
<polygon fill="#ffffff" stroke="#bfbfbf" points="1223.8374,-.5 1223.8374,-18.5 1267.6255,-18.5 1267.6255,-.5 1223.8374,-.5"/>
<text text-anchor="middle" x="1245.7314" y="-6.5" font-family="Helvetica,sans-Serif" font-size="10.00" fill="#000000">libcli.h</text>
</g>
<!-- Node2&#45;&gt;Node19 -->
<g id="edge19" class="edge">
<title>Node2&#45;&gt;Node19</title>
<path fill="none" stroke="#191970" d="M752.2607,-63.8363C829.5836,-61.7346 1034.7559,-53.2895 1213.672,-18.8334"/>
<polygon fill="#191970" stroke="#191970" points="1214.3789,-22.2615 1223.5199,-16.905 1213.0337,-15.392 1214.3789,-22.2615"/>
</g>
<!-- Node20 -->
<g id="node21" class="node">
<title>Node20</title>
<polygon fill="#ffffff" stroke="#bfbfbf" points="1286.1157,-.5 1286.1157,-18.5 1329.3472,-18.5 1329.3472,-.5 1286.1157,-.5"/>
<text text-anchor="middle" x="1307.7314" y="-6.5" font-family="Helvetica,sans-Serif" font-size="10.00" fill="#000000">zmq.h</text>
</g>
<!-- Node2&#45;&gt;Node20 -->
<g id="edge20" class="edge">
<title>Node2&#45;&gt;Node20</title>
<path fill="none" stroke="#191970" d="M752.1417,-62.8237C851.1739,-57.4021 1156.8444,-39.5929 1275.9357,-18.6772"/>
<polygon fill="#191970" stroke="#191970" points="1276.667,-22.1014 1285.8635,-16.8407 1275.3937,-15.2182 1276.667,-22.1014"/>
</g>
<!-- Node21 -->
<g id="node22" class="node">
<title>Node21</title>
<g id="a_node22"><a xlink:href="src_2include_2type_8h.html" target="_top" xlink:title="type.h">
<polygon fill="#ffffff" stroke="#000000" points="1408.1108,-.5 1408.1108,-18.5 1451.3521,-18.5 1451.3521,-.5 1408.1108,-.5"/>
<text text-anchor="middle" x="1429.7314" y="-6.5" font-family="Helvetica,sans-Serif" font-size="10.00" fill="#000000">type.h</text>
</a>
</g>
</g>
<!-- Node2&#45;&gt;Node21 -->
<g id="edge21" class="edge">
<title>Node2&#45;&gt;Node21</title>
<path fill="none" stroke="#191970" d="M752.4069,-63.3855C866.1274,-59.2314 1254.2586,-43.6952 1398.011,-18.8722"/>
<polygon fill="#191970" stroke="#191970" points="1398.7189,-22.301 1407.9317,-17.0689 1397.4669,-15.4138 1398.7189,-22.301"/>
</g>
<!-- Node22 -->
<g id="node23" class="node">
<title>Node22</title>
<polygon fill="#ffffff" stroke="#bfbfbf" points="1347.1157,-.5 1347.1157,-18.5 1390.3472,-18.5 1390.3472,-.5 1347.1157,-.5"/>
<text text-anchor="middle" x="1368.7314" y="-6.5" font-family="Helvetica,sans-Serif" font-size="10.00" fill="#000000">time.h</text>
</g>
<!-- Node2&#45;&gt;Node22 -->
<g id="edge22" class="edge">
<title>Node2&#45;&gt;Node22</title>
<path fill="none" stroke="#191970" d="M752.1624,-63.1561C858.5572,-58.4596 1205.4088,-41.9088 1336.7417,-18.9325"/>
<polygon fill="#191970" stroke="#191970" points="1337.7301,-22.3092 1346.9284,-17.0518 1336.4591,-15.4256 1337.7301,-22.3092"/>
</g>
<!-- Node23&#45;&gt;Node2 -->
<g id="edge24" class="edge">
<title>Node23&#45;&gt;Node2</title>
<path fill="none" stroke="#191970" d="M798.3744,-110.4179C783.8354,-101.8195 761.7789,-88.7754 744.8851,-78.7844"/>
<polygon fill="#191970" stroke="#191970" points="746.5004,-75.6735 736.1113,-73.5956 742.9371,-81.6987 746.5004,-75.6735"/>
</g>
<!-- Node24&#45;&gt;Node2 -->
<g id="edge26" class="edge">
<title>Node24&#45;&gt;Node2</title>
<path fill="none" stroke="#191970" d="M696.5202,-110.4179C700.4843,-102.8998 706.2405,-91.9829 711.1457,-82.6799"/>
<polygon fill="#191970" stroke="#191970" points="714.2705,-84.2576 715.8386,-73.7795 708.0785,-80.9927 714.2705,-84.2576"/>
</g>
<!-- Node25&#45;&gt;Node2 -->
<g id="edge28" class="edge">
<title>Node25&#45;&gt;Node2</title>
<path fill="none" stroke="#191970" d="M744.9427,-110.4179C740.9786,-102.8998 735.2224,-91.9829 730.3172,-82.6799"/>
<polygon fill="#191970" stroke="#191970" points="733.3844,-80.9927 725.6242,-73.7795 727.1924,-84.2576 733.3844,-80.9927"/>
</g>
<!-- Node27&#45;&gt;Node2 -->
<g id="edge31" class="edge">
<title>Node27&#45;&gt;Node2</title>
<path fill="none" stroke="#191970" d="M907.0066,-165.2826C896.4672,-151.4454 874.7635,-125.2995 850.7314,-110 823.4551,-92.6351 788.7224,-80.9199 762.0211,-73.731"/>
<polygon fill="#191970" stroke="#191970" points="762.7708,-70.3098 752.2131,-71.195 761.0185,-77.0869 762.7708,-70.3098"/>
</g>
<!-- Node27&#45;&gt;Node23 -->
<g id="edge32" class="edge">
<title>Node27&#45;&gt;Node23</title>
<path fill="none" stroke="#191970" d="M897.2185,-165.4179C881.4404,-156.7399 857.4286,-143.5334 839.2,-133.5077"/>
<polygon fill="#191970" stroke="#191970" points="840.7178,-130.3481 830.2689,-128.5956 837.3444,-136.4816 840.7178,-130.3481"/>
</g>
<!-- Node28 -->
<g id="node29" class="node">
<title>Node28</title>
<g id="a_node29"><a xlink:href="app__events_2include_2app__event__id_8h.html" target="_top" xlink:title="app_event_id.h">
<polygon fill="#ffffff" stroke="#000000" points="897.5347,-110.5 897.5347,-128.5 981.9282,-128.5 981.9282,-110.5 897.5347,-110.5"/>
<text text-anchor="middle" x="939.7314" y="-116.5" font-family="Helvetica,sans-Serif" font-size="10.00" fill="#000000">app_event_id.h</text>
</a>
</g>
</g>
<!-- Node27&#45;&gt;Node28 -->
<g id="edge33" class="edge">
<title>Node27&#45;&gt;Node28</title>
<path fill="none" stroke="#191970" d="M918.0248,-165.4179C921.5414,-157.9789 926.6311,-147.2123 930.9982,-137.9742"/>
<polygon fill="#191970" stroke="#191970" points="934.2352,-139.316 935.3448,-128.7795 927.9067,-136.3243 934.2352,-139.316"/>
</g>
<!-- Node29 -->
<g id="node30" class="node">
<title>Node29</title>
<g id="a_node30"><a xlink:href="app__events_2include_2app__event__list_8h.html" target="_top" xlink:title="app_event_list.h">
<polygon fill="#ffffff" stroke="#000000" points="1287.3154,-55.5 1287.3154,-73.5 1376.1475,-73.5 1376.1475,-55.5 1287.3154,-55.5"/>
<text text-anchor="middle" x="1331.7314" y="-61.5" font-family="Helvetica,sans-Serif" font-size="10.00" fill="#000000">app_event_list.h</text>
</a>
</g>
</g>
<!-- Node27&#45;&gt;Node29 -->
<g id="edge34" class="edge">
<title>Node27&#45;&gt;Node29</title>
<path fill="none" stroke="#191970" d="M947.9381,-165.4982C1023.3526,-145.6523 1203.8451,-98.1543 1287.622,-76.1077"/>
<polygon fill="#191970" stroke="#191970" points="1288.5657,-79.4786 1297.3457,-73.5489 1286.7842,-72.7091 1288.5657,-79.4786"/>
</g>
<!-- Node29&#45;&gt;Node21 -->
<g id="edge35" class="edge">
<title>Node29&#45;&gt;Node21</title>
<path fill="none" stroke="#191970" d="M1347.9142,-55.4179C1363.3767,-46.7399 1386.9082,-33.5334 1404.7723,-23.5077"/>
<polygon fill="#191970" stroke="#191970" points="1406.5172,-26.542 1413.5247,-18.5956 1403.0912,-20.4377 1406.5172,-26.542"/>
</g>
</g>
</svg>
