<?xml version="1.0" encoding="UTF-8" standalone="no"?>
<!DOCTYPE svg PUBLIC "-//W3C//DTD SVG 1.1//EN"
 "http://www.w3.org/Graphics/SVG/1.1/DTD/svg11.dtd">
<!-- Generated by graphviz version 2.40.1 (20161225.0304)
 -->
<!-- Title: ext_apps/l2_shortest/src/include/application_info.h Pages: 1 -->
<svg width="278pt" height="112pt"
 viewBox="0.00 0.00 278.34 112.00" xmlns="http://www.w3.org/2000/svg" xmlns:xlink="http://www.w3.org/1999/xlink">
<g id="graph0" class="graph" transform="scale(1 1) rotate(0) translate(4 108)">
<title>ext_apps/l2_shortest/src/include/application_info.h</title>
<polygon fill="#ffffff" stroke="transparent" points="-4,4 -4,-108 274.3442,-108 274.3442,4 -4,4"/>
<!-- Node1 -->
<g id="node1" class="node">
<title>Node1</title>
<polygon fill="#bfbfbf" stroke="#000000" points="82.2881,-65.5 82.2881,-103.5 199.4551,-103.5 199.4551,-65.5 82.2881,-65.5"/>
<text text-anchor="start" x="90.2881" y="-91.5" font-family="Helvetica,sans-Serif" font-size="10.00" fill="#000000">ext_apps/l2_shortest</text>
<text text-anchor="start" x="90.2881" y="-81.5" font-family="Helvetica,sans-Serif" font-size="10.00" fill="#000000">/src/include/application</text>
<text text-anchor="middle" x="140.8716" y="-71.5" font-family="Helvetica,sans-Serif" font-size="10.00" fill="#000000">_info.h</text>
</g>
<!-- Node2 -->
<g id="node2" class="node">
<title>Node2</title>
<g id="a_node2"><a xlink:href="ext__apps_2shim_2app__event_8c.html" target="_top" xlink:title="ext_apps/shim/app_event.c">
<polygon fill="#ffffff" stroke="#000000" points="0,-5.5 0,-23.5 137.7432,-23.5 137.7432,-5.5 0,-5.5"/>
<text text-anchor="middle" x="68.8716" y="-11.5" font-family="Helvetica,sans-Serif" font-size="10.00" fill="#000000">ext_apps/shim/app_event.c</text>
</a>
</g>
</g>
<!-- Node1&#45;&gt;Node2 -->
<g id="edge1" class="edge">
<title>Node1&#45;&gt;Node2</title>
<path fill="none" stroke="#191970" d="M114.0255,-58.3996C101.445,-46.1686 87.267,-32.3844 78.2105,-23.5795"/>
<polygon fill="#191970" stroke="#191970" points="111.5875,-60.9109 121.1973,-65.3722 116.4671,-55.8919 111.5875,-60.9109"/>
</g>
<!-- Node3 -->
<g id="node3" class="node">
<title>Node3</title>
<g id="a_node3"><a xlink:href="ext__apps_2shim_2include_2shim_8h.html" target="_top" xlink:title="ext_apps/shim/include\l/shim.h">
<polygon fill="#ffffff" stroke="#000000" points="155.3989,-.5 155.3989,-28.5 270.3442,-28.5 270.3442,-.5 155.3989,-.5"/>
<text text-anchor="start" x="163.3989" y="-16.5" font-family="Helvetica,sans-Serif" font-size="10.00" fill="#000000">ext_apps/shim/include</text>
<text text-anchor="middle" x="212.8716" y="-6.5" font-family="Helvetica,sans-Serif" font-size="10.00" fill="#000000">/shim.h</text>
</a>
</g>
</g>
<!-- Node1&#45;&gt;Node3 -->
<g id="edge2" class="edge">
<title>Node1&#45;&gt;Node3</title>
<path fill="none" stroke="#191970" d="M167.7639,-58.3547C178.0031,-48.3999 189.2943,-37.4223 198.0186,-28.9404"/>
<polygon fill="#191970" stroke="#191970" points="165.2761,-55.8919 160.5459,-65.3722 170.1557,-60.9109 165.2761,-55.8919"/>
</g>
</g>
</svg>
