<?xml version="1.0" encoding="UTF-8" standalone="no"?>
<!DOCTYPE svg PUBLIC "-//W3C//DTD SVG 1.1//EN"
 "http://www.w3.org/Graphics/SVG/1.1/DTD/svg11.dtd">
<!-- Generated by graphviz version 2.40.1 (20161225.0304)
 -->
<!-- Title: applications/rbac.c Pages: 1 -->
<svg width="170pt" height="82pt"
 viewBox="0.00 0.00 170.43 82.00" xmlns="http://www.w3.org/2000/svg" xmlns:xlink="http://www.w3.org/1999/xlink">
<g id="graph0" class="graph" transform="scale(1 1) rotate(0) translate(4 78)">
<title>applications/rbac.c</title>
<polygon fill="#ffffff" stroke="transparent" points="-4,4 -4,-78 166.4282,-78 166.4282,4 -4,4"/>
<!-- Node0 -->
<g id="node1" class="node">
<title>Node0</title>
<polygon fill="#bfbfbf" stroke="#000000" points="17.4854,-55.5 17.4854,-73.5 116.3076,-73.5 116.3076,-55.5 17.4854,-55.5"/>
<text text-anchor="middle" x="66.8965" y="-61.5" font-family="Helvetica,sans-Serif" font-size="10.00" fill="#000000">applications/rbac.c</text>
</g>
<!-- Node1 -->
<g id="node2" class="node">
<title>Node1</title>
<polygon fill="#ffffff" stroke="#bfbfbf" points="0,-.5 0,-18.5 43.793,-18.5 43.793,-.5 0,-.5"/>
<text text-anchor="middle" x="21.8965" y="-6.5" font-family="Helvetica,sans-Serif" font-size="10.00" fill="#000000">rbac.h</text>
</g>
<!-- Node0&#45;&gt;Node1 -->
<g id="edge1" class="edge">
<title>Node0&#45;&gt;Node1</title>
<path fill="none" stroke="#191970" d="M59.4656,-55.4179C53.1203,-47.6624 43.8156,-36.29 36.0539,-26.8035"/>
<polygon fill="#191970" stroke="#191970" points="38.53,-24.3027 29.4888,-18.7795 33.1123,-28.7354 38.53,-24.3027"/>
</g>
<!-- Node2 -->
<g id="node3" class="node">
<title>Node2</title>
<g id="a_node3"><a xlink:href="app__events_2include_2app__event__string_8h.html" target="_top" xlink:title="app_event_string.h">
<polygon fill="#ffffff" stroke="#000000" points="61.3647,-.5 61.3647,-18.5 162.4282,-18.5 162.4282,-.5 61.3647,-.5"/>
<text text-anchor="middle" x="111.8965" y="-6.5" font-family="Helvetica,sans-Serif" font-size="10.00" fill="#000000">app_event_string.h</text>
</a>
</g>
</g>
<!-- Node0&#45;&gt;Node2 -->
<g id="edge2" class="edge">
<title>Node0&#45;&gt;Node2</title>
<path fill="none" stroke="#191970" d="M74.3273,-55.4179C80.6727,-47.6624 89.9774,-36.29 97.7391,-26.8035"/>
<polygon fill="#191970" stroke="#191970" points="100.6806,-28.7354 104.3042,-18.7795 95.2629,-24.3027 100.6806,-28.7354"/>
</g>
</g>
</svg>
