<?xml version="1.0" encoding="UTF-8" standalone="no"?>
<!DOCTYPE svg PUBLIC "-//W3C//DTD SVG 1.1//EN"
 "http://www.w3.org/Graphics/SVG/1.1/DTD/svg11.dtd">
<!-- Generated by graphviz version 2.40.1 (20161225.0304)
 -->
<!-- Title: applications/l2_shortest.c Pages: 1 -->
<svg width="176pt" height="82pt"
 viewBox="0.00 0.00 175.93 82.00" xmlns="http://www.w3.org/2000/svg" xmlns:xlink="http://www.w3.org/1999/xlink">
<g id="graph0" class="graph" transform="scale(1 1) rotate(0) translate(4 78)">
<title>applications/l2_shortest.c</title>
<polygon fill="#ffffff" stroke="transparent" points="-4,4 -4,-78 171.9282,-78 171.9282,4 -4,4"/>
<!-- Node0 -->
<g id="node1" class="node">
<title>Node0</title>
<polygon fill="#bfbfbf" stroke="#000000" points="18.4854,-55.5 18.4854,-73.5 146.7705,-73.5 146.7705,-55.5 18.4854,-55.5"/>
<text text-anchor="middle" x="82.6279" y="-61.5" font-family="Helvetica,sans-Serif" font-size="10.00" fill="#000000">applications/l2_shortest.c</text>
</g>
<!-- Node1 -->
<g id="node2" class="node">
<title>Node1</title>
<polygon fill="#ffffff" stroke="#bfbfbf" points="0,-.5 0,-18.5 73.2559,-18.5 73.2559,-.5 0,-.5"/>
<text text-anchor="middle" x="36.6279" y="-6.5" font-family="Helvetica,sans-Serif" font-size="10.00" fill="#000000">l2_shortest.h</text>
</g>
<!-- Node0&#45;&gt;Node1 -->
<g id="edge1" class="edge">
<title>Node0&#45;&gt;Node1</title>
<path fill="none" stroke="#191970" d="M75.032,-55.4179C68.4794,-47.5833 58.8397,-36.0575 50.8576,-26.5137"/>
<polygon fill="#191970" stroke="#191970" points="53.4893,-24.2048 44.3889,-18.7795 48.1197,-28.6957 53.4893,-24.2048"/>
</g>
<!-- Node2 -->
<g id="node3" class="node">
<title>Node2</title>
<polygon fill="#ffffff" stroke="#bfbfbf" points="91.3276,-.5 91.3276,-18.5 167.9282,-18.5 167.9282,-.5 91.3276,-.5"/>
<text text-anchor="middle" x="129.6279" y="-6.5" font-family="Helvetica,sans-Serif" font-size="10.00" fill="#000000">mac_queue.h</text>
</g>
<!-- Node0&#45;&gt;Node2 -->
<g id="edge2" class="edge">
<title>Node0&#45;&gt;Node2</title>
<path fill="none" stroke="#191970" d="M90.389,-55.4179C97.0841,-47.5833 106.9333,-36.0575 115.089,-26.5137"/>
<polygon fill="#191970" stroke="#191970" points="117.8625,-28.6556 121.6982,-18.7795 112.5408,-24.108 117.8625,-28.6556"/>
</g>
</g>
</svg>
