<?xml version="1.0" encoding="UTF-8" standalone="no"?>
<!DOCTYPE svg PUBLIC "-//W3C//DTD SVG 1.1//EN"
 "http://www.w3.org/Graphics/SVG/1.1/DTD/svg11.dtd">
<!-- Generated by graphviz version 2.40.1 (20161225.0304)
 -->
<!-- Title: src/application.c Pages: 1 -->
<svg width="2409pt" height="302pt"
 viewBox="0.00 0.00 2409.41 302.00" xmlns="http://www.w3.org/2000/svg" xmlns:xlink="http://www.w3.org/1999/xlink">
<g id="graph0" class="graph" transform="scale(1 1) rotate(0) translate(4 298)">
<title>src/application.c</title>
<polygon fill="#ffffff" stroke="transparent" points="-4,4 -4,-298 2405.411,-298 2405.411,4 -4,4"/>
<!-- Node0 -->
<g id="node1" class="node">
<title>Node0</title>
<polygon fill="#bfbfbf" stroke="#000000" points="1331.9408,-275.5 1331.9408,-293.5 1419.64,-293.5 1419.64,-275.5 1331.9408,-275.5"/>
<text text-anchor="middle" x="1375.7904" y="-281.5" font-family="Helvetica,sans-Serif" font-size="10.00" fill="#000000">src/application.c</text>
</g>
<!-- Node1 -->
<g id="node2" class="node">
<title>Node1</title>
<g id="a_node2"><a xlink:href="src_2include_2application_8h.html" target="_top" xlink:title="application.h">
<polygon fill="#ffffff" stroke="#000000" points="1165.7142,-220.5 1165.7142,-238.5 1237.8665,-238.5 1237.8665,-220.5 1165.7142,-220.5"/>
<text text-anchor="middle" x="1201.7904" y="-226.5" font-family="Helvetica,sans-Serif" font-size="10.00" fill="#000000">application.h</text>
</a>
</g>
</g>
<!-- Node0&#45;&gt;Node1 -->
<g id="edge1" class="edge">
<title>Node0&#45;&gt;Node1</title>
<path fill="none" stroke="#191970" d="M1347.0578,-275.4179C1317.7534,-266.155 1272.1258,-251.7325 1239.8363,-241.526"/>
<polygon fill="#191970" stroke="#191970" points="1240.8663,-238.181 1230.2764,-238.5042 1238.7565,-244.8555 1240.8663,-238.181"/>
</g>
<!-- Node39 -->
<g id="node40" class="node">
<title>Node39</title>
<polygon fill="#ffffff" stroke="#bfbfbf" points="1379.8226,-220.5 1379.8226,-238.5 1469.7581,-238.5 1469.7581,-220.5 1379.8226,-220.5"/>
<text text-anchor="middle" x="1424.7904" y="-226.5" font-family="Helvetica,sans-Serif" font-size="10.00" fill="#000000">application_list.h</text>
</g>
<!-- Node0&#45;&gt;Node39 -->
<g id="edge49" class="edge">
<title>Node0&#45;&gt;Node39</title>
<path fill="none" stroke="#191970" d="M1383.8817,-275.4179C1390.8616,-267.5833 1401.13,-256.0575 1409.6327,-246.5137"/>
<polygon fill="#191970" stroke="#191970" points="1412.4844,-248.5743 1416.5232,-238.7795 1407.2578,-243.9178 1412.4844,-248.5743"/>
</g>
<!-- Node40 -->
<g id="node41" class="node">
<title>Node40</title>
<g id="a_node41"><a xlink:href="app__events_2include_2app__event_8h.html" target="_top" xlink:title="app_event.h">
<polygon fill="#ffffff" stroke="#000000" points="1291.266,-220.5 1291.266,-238.5 1362.3148,-238.5 1362.3148,-220.5 1291.266,-220.5"/>
<text text-anchor="middle" x="1326.7904" y="-226.5" font-family="Helvetica,sans-Serif" font-size="10.00" fill="#000000">app_event.h</text>
</a>
</g>
</g>
<!-- Node0&#45;&gt;Node40 -->
<g id="edge50" class="edge">
<title>Node0&#45;&gt;Node40</title>
<path fill="none" stroke="#191970" d="M1367.699,-275.4179C1360.7191,-267.5833 1350.4507,-256.0575 1341.948,-246.5137"/>
<polygon fill="#191970" stroke="#191970" points="1344.3229,-243.9178 1335.0575,-238.7795 1339.0963,-248.5743 1344.3229,-243.9178"/>
</g>
<!-- Node43 -->
<g id="node44" class="node">
<title>Node43</title>
<g id="a_node44"><a xlink:href="app__events_2include_2app__event__string_8h.html" target="_top" xlink:title="app_event_string.h">
<polygon fill="#ffffff" stroke="#000000" points="1487.2586,-220.5 1487.2586,-238.5 1588.3221,-238.5 1588.3221,-220.5 1487.2586,-220.5"/>
<text text-anchor="middle" x="1537.7904" y="-226.5" font-family="Helvetica,sans-Serif" font-size="10.00" fill="#000000">app_event_string.h</text>
</a>
</g>
</g>
<!-- Node0&#45;&gt;Node43 -->
<g id="edge56" class="edge">
<title>Node0&#45;&gt;Node43</title>
<path fill="none" stroke="#191970" d="M1402.5414,-275.4179C1429.5896,-266.2348 1471.5744,-251.9807 1501.5881,-241.7909"/>
<polygon fill="#191970" stroke="#191970" points="1502.9249,-245.0333 1511.2689,-238.5042 1500.6745,-238.4049 1502.9249,-245.0333"/>
</g>
<!-- Node2 -->
<g id="node3" class="node">
<title>Node2</title>
<g id="a_node3"><a xlink:href="src_2include_2common_8h.html" target="_top" xlink:title="common.h">
<polygon fill="#ffffff" stroke="#000000" points="1205.4481,-110.5 1205.4481,-128.5 1268.1327,-128.5 1268.1327,-110.5 1205.4481,-110.5"/>
<text text-anchor="middle" x="1236.7904" y="-116.5" font-family="Helvetica,sans-Serif" font-size="10.00" fill="#000000">common.h</text>
</a>
</g>
</g>
<!-- Node1&#45;&gt;Node2 -->
<g id="edge2" class="edge">
<title>Node1&#45;&gt;Node2</title>
<path fill="none" stroke="#191970" d="M1191.3515,-220.2361C1178.4791,-207.6373 1159.4924,-184.4416 1169.7904,-165 1177.2233,-150.9673 1191.1378,-140.4606 1204.3684,-133.0999"/>
<polygon fill="#191970" stroke="#191970" points="1206.0309,-136.1808 1213.3307,-128.502 1202.8356,-129.9526 1206.0309,-136.1808"/>
</g>
<!-- Node31 -->
<g id="node32" class="node">
<title>Node31</title>
<g id="a_node32"><a xlink:href="str_8h.html" target="_top" xlink:title="str.h">
<polygon fill="#ffffff" stroke="#000000" points="29.3397,-.5 29.3397,-18.5 64.2411,-18.5 64.2411,-.5 29.3397,-.5"/>
<text text-anchor="middle" x="46.7904" y="-6.5" font-family="Helvetica,sans-Serif" font-size="10.00" fill="#000000">str.h</text>
</a>
</g>
</g>
<!-- Node1&#45;&gt;Node31 -->
<g id="edge48" class="edge">
<title>Node1&#45;&gt;Node31</title>
<path fill="none" stroke="#191970" d="M1165.4266,-227.5815C973.4594,-217.0916 83.7116,-163.8369 4.7904,-74 -8.6528,-58.6975 8.8034,-38.7506 25.1283,-25.1154"/>
<polygon fill="#191970" stroke="#191970" points="27.6941,-27.5503 33.3924,-18.6184 23.3678,-22.0473 27.6941,-27.5503"/>
</g>
<!-- Node37 -->
<g id="node38" class="node">
<title>Node37</title>
<g id="a_node38"><a xlink:href="src_2include_2context_8h.html" target="_top" xlink:title="context.h">
<polygon fill="#ffffff" stroke="#000000" points="1242.4998,-165.5 1242.4998,-183.5 1299.0809,-183.5 1299.0809,-165.5 1242.4998,-165.5"/>
<text text-anchor="middle" x="1270.7904" y="-171.5" font-family="Helvetica,sans-Serif" font-size="10.00" fill="#000000">context.h</text>
</a>
</g>
</g>
<!-- Node1&#45;&gt;Node37 -->
<g id="edge44" class="edge">
<title>Node1&#45;&gt;Node37</title>
<path fill="none" stroke="#191970" d="M1213.1843,-220.4179C1223.5096,-212.1876 1238.9451,-199.8839 1251.2401,-190.0836"/>
<polygon fill="#191970" stroke="#191970" points="1253.5107,-192.7495 1259.1489,-183.7795 1249.1475,-187.2757 1253.5107,-192.7495"/>
</g>
<!-- Node38 -->
<g id="node39" class="node">
<title>Node38</title>
<g id="a_node39"><a xlink:href="hash_8h.html" target="_top" xlink:title="hash.h">
<polygon fill="#ffffff" stroke="#000000" points="1178.7782,-165.5 1178.7782,-183.5 1224.8026,-183.5 1224.8026,-165.5 1178.7782,-165.5"/>
<text text-anchor="middle" x="1201.7904" y="-171.5" font-family="Helvetica,sans-Serif" font-size="10.00" fill="#000000">hash.h</text>
</a>
</g>
</g>
<!-- Node1&#45;&gt;Node38 -->
<g id="edge46" class="edge">
<title>Node1&#45;&gt;Node38</title>
<path fill="none" stroke="#191970" d="M1201.7904,-220.4179C1201.7904,-213.2164 1201.7904,-202.8962 1201.7904,-193.8632"/>
<polygon fill="#191970" stroke="#191970" points="1205.2905,-193.7794 1201.7904,-183.7795 1198.2905,-193.7795 1205.2905,-193.7794"/>
</g>
<!-- Node3 -->
<g id="node4" class="node">
<title>Node3</title>
<polygon fill="#ffffff" stroke="#bfbfbf" points="2282.0589,-.5 2282.0589,-18.5 2327.5218,-18.5 2327.5218,-.5 2282.0589,-.5"/>
<text text-anchor="middle" x="2304.7904" y="-6.5" font-family="Helvetica,sans-Serif" font-size="10.00" fill="#000000">stdio.h</text>
</g>
<!-- Node2&#45;&gt;Node3 -->
<g id="edge3" class="edge">
<title>Node2&#45;&gt;Node3</title>
<path fill="none" stroke="#191970" d="M1268.3559,-119.1908C1439.3332,-117.3845 2248.3021,-107.1068 2288.7904,-74 2301.8862,-63.2917 2305.2294,-43.6908 2305.6957,-28.8967"/>
<polygon fill="#191970" stroke="#191970" points="2309.1943,-28.7158 2305.6053,-18.7474 2302.1946,-28.7782 2309.1943,-28.7158"/>
</g>
<!-- Node4 -->
<g id="node5" class="node">
<title>Node4</title>
<polygon fill="#ffffff" stroke="#bfbfbf" points="136.2782,-55.5 136.2782,-73.5 187.3026,-73.5 187.3026,-55.5 136.2782,-55.5"/>
<text text-anchor="middle" x="161.7904" y="-61.5" font-family="Helvetica,sans-Serif" font-size="10.00" fill="#000000">unistd.h</text>
</g>
<!-- Node2&#45;&gt;Node4 -->
<g id="edge4" class="edge">
<title>Node2&#45;&gt;Node4</title>
<path fill="none" stroke="#191970" d="M1205.3186,-119.0941C1056.0582,-117.0235 417.9303,-106.497 197.806,-73.9479"/>
<polygon fill="#191970" stroke="#191970" points="198.06,-70.4457 187.6435,-72.3812 196.9935,-77.364 198.06,-70.4457"/>
</g>
<!-- Node5 -->
<g id="node6" class="node">
<title>Node5</title>
<polygon fill="#ffffff" stroke="#bfbfbf" points="204.9481,-55.5 204.9481,-73.5 252.6327,-73.5 252.6327,-55.5 204.9481,-55.5"/>
<text text-anchor="middle" x="228.7904" y="-61.5" font-family="Helvetica,sans-Serif" font-size="10.00" fill="#000000">stdlib.h</text>
</g>
<!-- Node2&#45;&gt;Node5 -->
<g id="edge5" class="edge">
<title>Node2&#45;&gt;Node5</title>
<path fill="none" stroke="#191970" d="M1205.1507,-119.0169C1061.5764,-116.675 469.7857,-105.3738 262.935,-73.732"/>
<polygon fill="#191970" stroke="#191970" points="263.219,-70.233 252.7921,-72.112 262.1149,-77.1454 263.219,-70.233"/>
</g>
<!-- Node6 -->
<g id="node7" class="node">
<title>Node6</title>
<polygon fill="#ffffff" stroke="#bfbfbf" points="1983.724,-.5 1983.724,-18.5 2035.8568,-18.5 2035.8568,-.5 1983.724,-.5"/>
<text text-anchor="middle" x="2009.7904" y="-6.5" font-family="Helvetica,sans-Serif" font-size="10.00" fill="#000000">stdarg.h</text>
</g>
<!-- Node2&#45;&gt;Node6 -->
<g id="edge6" class="edge">
<title>Node2&#45;&gt;Node6</title>
<path fill="none" stroke="#191970" d="M1268.2679,-119.1527C1400.189,-117.4801 1904.5489,-108.8401 1965.7904,-74 1983.5961,-63.8704 1995.7129,-43.2227 2002.6523,-28.0054"/>
<polygon fill="#191970" stroke="#191970" points="2005.9852,-29.1087 2006.6357,-18.5338 1999.5326,-26.395 2005.9852,-29.1087"/>
</g>
<!-- Node7 -->
<g id="node8" class="node">
<title>Node7</title>
<polygon fill="#ffffff" stroke="#bfbfbf" points="270.6698,-55.5 270.6698,-73.5 318.911,-73.5 318.911,-55.5 270.6698,-55.5"/>
<text text-anchor="middle" x="294.7904" y="-61.5" font-family="Helvetica,sans-Serif" font-size="10.00" fill="#000000">stdint.h</text>
</g>
<!-- Node2&#45;&gt;Node7 -->
<g id="edge7" class="edge">
<title>Node2&#45;&gt;Node7</title>
<path fill="none" stroke="#191970" d="M1205.0208,-118.8556C1067.5412,-115.924 522.5185,-102.7944 329.1943,-73.5915"/>
<polygon fill="#191970" stroke="#191970" points="329.5825,-70.1095 319.1592,-72.0085 328.4917,-77.024 329.5825,-70.1095"/>
</g>
<!-- Node8 -->
<g id="node9" class="node">
<title>Node8</title>
<polygon fill="#ffffff" stroke="#bfbfbf" points="337.3939,-55.5 337.3939,-73.5 386.1869,-73.5 386.1869,-55.5 337.3939,-55.5"/>
<text text-anchor="middle" x="361.7904" y="-61.5" font-family="Helvetica,sans-Serif" font-size="10.00" fill="#000000">string.h</text>
</g>
<!-- Node2&#45;&gt;Node8 -->
<g id="edge8" class="edge">
<title>Node2&#45;&gt;Node8</title>
<path fill="none" stroke="#191970" d="M1205.1097,-118.7472C1074.25,-115.493 574.7361,-101.6075 396.5279,-73.8984"/>
<polygon fill="#191970" stroke="#191970" points="396.9501,-70.4211 386.5177,-72.269 395.8255,-77.3302 396.9501,-70.4211"/>
</g>
<!-- Node9 -->
<g id="node10" class="node">
<title>Node9</title>
<polygon fill="#ffffff" stroke="#bfbfbf" points="403.8939,-55.5 403.8939,-73.5 457.6869,-73.5 457.6869,-55.5 403.8939,-55.5"/>
<text text-anchor="middle" x="430.7904" y="-61.5" font-family="Helvetica,sans-Serif" font-size="10.00" fill="#000000">strings.h</text>
</g>
<!-- Node2&#45;&gt;Node9 -->
<g id="edge9" class="edge">
<title>Node2&#45;&gt;Node9</title>
<path fill="none" stroke="#191970" d="M1205.3151,-118.4766C1082.1127,-114.3442 631.7468,-98.0205 467.7147,-73.7758"/>
<polygon fill="#191970" stroke="#191970" points="468.211,-70.311 457.7937,-72.2425 467.1418,-77.2289 468.211,-70.311"/>
</g>
<!-- Node10 -->
<g id="node11" class="node">
<title>Node10</title>
<polygon fill="#ffffff" stroke="#bfbfbf" points="475.6624,-55.5 475.6624,-73.5 533.9183,-73.5 533.9183,-55.5 475.6624,-55.5"/>
<text text-anchor="middle" x="504.7904" y="-61.5" font-family="Helvetica,sans-Serif" font-size="10.00" fill="#000000">pthread.h</text>
</g>
<!-- Node2&#45;&gt;Node10 -->
<g id="edge10" class="edge">
<title>Node2&#45;&gt;Node10</title>
<path fill="none" stroke="#191970" d="M1205.2729,-118.1872C1090.2506,-113.2816 692.521,-95.2885 544.3702,-73.9343"/>
<polygon fill="#191970" stroke="#191970" points="544.5523,-70.4222 534.142,-72.3911 543.5079,-77.3439 544.5523,-70.4222"/>
</g>
<!-- Node11 -->
<g id="node12" class="node">
<title>Node11</title>
<polygon fill="#ffffff" stroke="#bfbfbf" points="551.6698,-55.5 551.6698,-73.5 599.911,-73.5 599.911,-55.5 551.6698,-55.5"/>
<text text-anchor="middle" x="575.7904" y="-61.5" font-family="Helvetica,sans-Serif" font-size="10.00" fill="#000000">ctype.h</text>
</g>
<!-- Node2&#45;&gt;Node11 -->
<g id="edge11" class="edge">
<title>Node2&#45;&gt;Node11</title>
<path fill="none" stroke="#191970" d="M1205.2548,-118.0846C1097.5525,-113.1186 744.0102,-95.6957 610.1702,-73.8458"/>
<polygon fill="#191970" stroke="#191970" points="610.6132,-70.3707 600.1653,-72.1292 609.4294,-77.2699 610.6132,-70.3707"/>
</g>
<!-- Node12 -->
<g id="node13" class="node">
<title>Node12</title>
<polygon fill="#ffffff" stroke="#bfbfbf" points="617.9481,-55.5 617.9481,-73.5 665.6327,-73.5 665.6327,-55.5 617.9481,-55.5"/>
<text text-anchor="middle" x="641.7904" y="-61.5" font-family="Helvetica,sans-Serif" font-size="10.00" fill="#000000">errno.h</text>
</g>
<!-- Node2&#45;&gt;Node12 -->
<g id="edge12" class="edge">
<title>Node2&#45;&gt;Node12</title>
<path fill="none" stroke="#191970" d="M1205.3519,-117.8226C1105.4804,-112.3623 795.4265,-94.3657 675.7418,-73.9896"/>
<polygon fill="#191970" stroke="#191970" points="676.2327,-70.5219 665.772,-72.2022 674.9974,-77.412 676.2327,-70.5219"/>
</g>
<!-- Node13 -->
<g id="node14" class="node">
<title>Node13</title>
<polygon fill="#ffffff" stroke="#bfbfbf" points="683.1746,-55.5 683.1746,-73.5 726.4061,-73.5 726.4061,-55.5 683.1746,-55.5"/>
<text text-anchor="middle" x="704.7904" y="-61.5" font-family="Helvetica,sans-Serif" font-size="10.00" fill="#000000">time.h</text>
</g>
<!-- Node2&#45;&gt;Node13 -->
<g id="edge13" class="edge">
<title>Node2&#45;&gt;Node13</title>
<path fill="none" stroke="#191970" d="M1205.3993,-118.8965C1127.4389,-116.9224 918.7683,-108.7302 736.6854,-73.7727"/>
<polygon fill="#191970" stroke="#191970" points="737.1485,-70.2971 726.6631,-71.8158 735.807,-77.1674 737.1485,-70.2971"/>
</g>
<!-- Node14 -->
<g id="node15" class="node">
<title>Node14</title>
<polygon fill="#ffffff" stroke="#bfbfbf" points="744.4505,-55.5 744.4505,-73.5 787.1302,-73.5 787.1302,-55.5 744.4505,-55.5"/>
<text text-anchor="middle" x="765.7904" y="-61.5" font-family="Helvetica,sans-Serif" font-size="10.00" fill="#000000">fcntl.h</text>
</g>
<!-- Node2&#45;&gt;Node14 -->
<g id="edge14" class="edge">
<title>Node2&#45;&gt;Node14</title>
<path fill="none" stroke="#191970" d="M1205.2656,-118.341C1134.0698,-115.2776 955.4079,-105.0891 797.2392,-73.6877"/>
<polygon fill="#191970" stroke="#191970" points="797.8275,-70.2359 787.3325,-71.6873 796.4419,-77.0974 797.8275,-70.2359"/>
</g>
<!-- Node15 -->
<g id="node16" class="node">
<title>Node15</title>
<polygon fill="#ffffff" stroke="#bfbfbf" points="805.5565,-55.5 805.5565,-73.5 856.0243,-73.5 856.0243,-55.5 805.5565,-55.5"/>
<text text-anchor="middle" x="830.7904" y="-61.5" font-family="Helvetica,sans-Serif" font-size="10.00" fill="#000000">signal.h</text>
</g>
<!-- Node2&#45;&gt;Node15 -->
<g id="edge15" class="edge">
<title>Node2&#45;&gt;Node15</title>
<path fill="none" stroke="#191970" d="M1205.1812,-117.2508C1142.3347,-112.4336 997.1499,-99.5826 866.4909,-74.0935"/>
<polygon fill="#191970" stroke="#191970" points="866.8,-70.5868 856.3103,-72.0756 865.439,-77.4532 866.8,-70.5868"/>
</g>
<!-- Node16 -->
<g id="node17" class="node">
<title>Node16</title>
<polygon fill="#ffffff" stroke="#bfbfbf" points="2153.2855,-.5 2153.2855,-18.5 2214.2953,-18.5 2214.2953,-.5 2153.2855,-.5"/>
<text text-anchor="middle" x="2183.7904" y="-6.5" font-family="Helvetica,sans-Serif" font-size="10.00" fill="#000000">sys/time.h</text>
</g>
<!-- Node2&#45;&gt;Node16 -->
<g id="edge16" class="edge">
<title>Node2&#45;&gt;Node16</title>
<path fill="none" stroke="#191970" d="M1268.297,-119.3273C1438.0291,-118.2466 2237.197,-111.1909 2272.7904,-74 2293.1771,-52.6982 2256.5308,-33.6133 2224.2721,-21.8295"/>
<polygon fill="#191970" stroke="#191970" points="2225.0645,-18.3992 2214.4696,-18.4125 2222.7603,-25.0091 2225.0645,-18.3992"/>
</g>
<!-- Node17 -->
<g id="node18" class="node">
<title>Node17</title>
<polygon fill="#ffffff" stroke="#bfbfbf" points="873.6722,-55.5 873.6722,-73.5 931.9085,-73.5 931.9085,-55.5 873.6722,-55.5"/>
<text text-anchor="middle" x="902.7904" y="-61.5" font-family="Helvetica,sans-Serif" font-size="10.00" fill="#000000">sys/stat.h</text>
</g>
<!-- Node2&#45;&gt;Node17 -->
<g id="edge17" class="edge">
<title>Node2&#45;&gt;Node17</title>
<path fill="none" stroke="#191970" d="M1205.0801,-115.6046C1152.4721,-108.9311 1043.6659,-94.2357 942.2884,-74.1581"/>
<polygon fill="#191970" stroke="#191970" points="942.6806,-70.6672 932.1879,-72.1346 941.3055,-77.5308 942.6806,-70.6672"/>
</g>
<!-- Node18 -->
<g id="node19" class="node">
<title>Node18</title>
<polygon fill="#ffffff" stroke="#bfbfbf" points="949.7806,-55.5 949.7806,-73.5 1015.8001,-73.5 1015.8001,-55.5 949.7806,-55.5"/>
<text text-anchor="middle" x="982.7904" y="-61.5" font-family="Helvetica,sans-Serif" font-size="10.00" fill="#000000">sys/types.h</text>
</g>
<!-- Node2&#45;&gt;Node18 -->
<g id="edge18" class="edge">
<title>Node2&#45;&gt;Node18</title>
<path fill="none" stroke="#191970" d="M1205.1595,-112.825C1165.5687,-104.4454 1095.4216,-89.5167 1026.0359,-74.2585"/>
<polygon fill="#191970" stroke="#191970" points="1026.7723,-70.8369 1016.2535,-72.104 1025.2666,-77.6731 1026.7723,-70.8369"/>
</g>
<!-- Node19 -->
<g id="node20" class="node">
<title>Node19</title>
<polygon fill="#ffffff" stroke="#bfbfbf" points="1033.8397,-55.5 1033.8397,-73.5 1093.7411,-73.5 1093.7411,-55.5 1033.8397,-55.5"/>
<text text-anchor="middle" x="1063.7904" y="-61.5" font-family="Helvetica,sans-Serif" font-size="10.00" fill="#000000">sys/ioctl.h</text>
</g>
<!-- Node2&#45;&gt;Node19 -->
<g id="edge19" class="edge">
<title>Node2&#45;&gt;Node19</title>
<path fill="none" stroke="#191970" d="M1208.2229,-110.4179C1179.2125,-101.1949 1134.1123,-86.8567 1102.0335,-76.6582"/>
<polygon fill="#191970" stroke="#191970" points="1102.7031,-73.1985 1092.1127,-73.5042 1100.5822,-79.8695 1102.7031,-73.1985"/>
</g>
<!-- Node20 -->
<g id="node21" class="node">
<title>Node20</title>
<polygon fill="#ffffff" stroke="#bfbfbf" points="1111.2806,-55.5 1111.2806,-73.5 1182.3001,-73.5 1182.3001,-55.5 1111.2806,-55.5"/>
<text text-anchor="middle" x="1146.7904" y="-61.5" font-family="Helvetica,sans-Serif" font-size="10.00" fill="#000000">sys/socket.h</text>
</g>
<!-- Node2&#45;&gt;Node20 -->
<g id="edge20" class="edge">
<title>Node2&#45;&gt;Node20</title>
<path fill="none" stroke="#191970" d="M1221.9287,-110.4179C1207.989,-101.8992 1186.9084,-89.0166 1170.6203,-79.0627"/>
<polygon fill="#191970" stroke="#191970" points="1172.032,-75.8237 1161.6741,-73.5956 1168.3819,-81.7967 1172.032,-75.8237"/>
</g>
<!-- Node21 -->
<g id="node22" class="node">
<title>Node21</title>
<polygon fill="#ffffff" stroke="#bfbfbf" points="1200.1698,-55.5 1200.1698,-73.5 1273.411,-73.5 1273.411,-55.5 1200.1698,-55.5"/>
<text text-anchor="middle" x="1236.7904" y="-61.5" font-family="Helvetica,sans-Serif" font-size="10.00" fill="#000000">sys/sysinfo.h</text>
</g>
<!-- Node2&#45;&gt;Node21 -->
<g id="edge21" class="edge">
<title>Node2&#45;&gt;Node21</title>
<path fill="none" stroke="#191970" d="M1236.7904,-110.4179C1236.7904,-103.2164 1236.7904,-92.8962 1236.7904,-83.8632"/>
<polygon fill="#191970" stroke="#191970" points="1240.2905,-83.7794 1236.7904,-73.7795 1233.2905,-83.7795 1240.2905,-83.7794"/>
</g>
<!-- Node22 -->
<g id="node23" class="node">
<title>Node22</title>
<polygon fill="#ffffff" stroke="#bfbfbf" points="1291.1624,-55.5 1291.1624,-73.5 1354.4183,-73.5 1354.4183,-55.5 1291.1624,-55.5"/>
<text text-anchor="middle" x="1322.7904" y="-61.5" font-family="Helvetica,sans-Serif" font-size="10.00" fill="#000000">arpa/inet.h</text>
</g>
<!-- Node2&#45;&gt;Node22 -->
<g id="edge22" class="edge">
<title>Node2&#45;&gt;Node22</title>
<path fill="none" stroke="#191970" d="M1250.9915,-110.4179C1264.3117,-101.8992 1284.4554,-89.0166 1300.0196,-79.0627"/>
<polygon fill="#191970" stroke="#191970" points="1302.0293,-81.932 1308.5681,-73.5956 1298.2579,-76.0348 1302.0293,-81.932"/>
</g>
<!-- Node23 -->
<g id="node24" class="node">
<title>Node23</title>
<polygon fill="#ffffff" stroke="#bfbfbf" points="1372.3275,-55.5 1372.3275,-73.5 1437.2533,-73.5 1437.2533,-55.5 1372.3275,-55.5"/>
<text text-anchor="middle" x="1404.7904" y="-61.5" font-family="Helvetica,sans-Serif" font-size="10.00" fill="#000000">netinet/in.h</text>
</g>
<!-- Node2&#45;&gt;Node23 -->
<g id="edge23" class="edge">
<title>Node2&#45;&gt;Node23</title>
<path fill="none" stroke="#191970" d="M1264.5322,-110.4179C1292.7041,-101.1949 1336.5008,-86.8567 1367.6526,-76.6582"/>
<polygon fill="#191970" stroke="#191970" points="1368.8719,-79.9419 1377.2866,-73.5042 1366.6939,-73.2893 1368.8719,-79.9419"/>
</g>
<!-- Node24 -->
<g id="node25" class="node">
<title>Node24</title>
<polygon fill="#ffffff" stroke="#bfbfbf" points="1454.9334,-55.5 1454.9334,-73.5 1532.6473,-73.5 1532.6473,-55.5 1454.9334,-55.5"/>
<text text-anchor="middle" x="1493.7904" y="-61.5" font-family="Helvetica,sans-Serif" font-size="10.00" fill="#000000">net/ethernet.h</text>
</g>
<!-- Node2&#45;&gt;Node24 -->
<g id="edge24" class="edge">
<title>Node2&#45;&gt;Node24</title>
<path fill="none" stroke="#191970" d="M1268.3036,-112.7559C1312.4098,-103.3168 1392.9622,-86.078 1444.8942,-74.9642"/>
<polygon fill="#191970" stroke="#191970" points="1445.8336,-78.3424 1454.8798,-72.8272 1444.3687,-71.4974 1445.8336,-78.3424"/>
</g>
<!-- Node25 -->
<g id="node26" class="node">
<title>Node25</title>
<polygon fill="#ffffff" stroke="#bfbfbf" points="1550.3275,-55.5 1550.3275,-73.5 1615.2533,-73.5 1615.2533,-55.5 1550.3275,-55.5"/>
<text text-anchor="middle" x="1582.7904" y="-61.5" font-family="Helvetica,sans-Serif" font-size="10.00" fill="#000000">netinet/ip.h</text>
</g>
<!-- Node2&#45;&gt;Node25 -->
<g id="edge25" class="edge">
<title>Node2&#45;&gt;Node25</title>
<path fill="none" stroke="#191970" d="M1268.5439,-115.6098C1322.4064,-108.8283 1435.3034,-93.8264 1540.0566,-74.2178"/>
<polygon fill="#191970" stroke="#191970" points="1540.9908,-77.6033 1550.1663,-72.306 1539.69,-70.7252 1540.9908,-77.6033"/>
</g>
<!-- Node26 -->
<g id="node27" class="node">
<title>Node26</title>
<polygon fill="#ffffff" stroke="#bfbfbf" points="1633.5492,-55.5 1633.5492,-73.5 1704.0316,-73.5 1704.0316,-55.5 1633.5492,-55.5"/>
<text text-anchor="middle" x="1668.7904" y="-61.5" font-family="Helvetica,sans-Serif" font-size="10.00" fill="#000000">netinet/tcp.h</text>
</g>
<!-- Node2&#45;&gt;Node26 -->
<g id="edge26" class="edge">
<title>Node2&#45;&gt;Node26</title>
<path fill="none" stroke="#191970" d="M1268.278,-116.7778C1332.8494,-110.9854 1485.0851,-96.2522 1623.5314,-73.8956"/>
<polygon fill="#191970" stroke="#191970" points="1624.1687,-77.338 1633.4743,-72.2728 1623.0411,-70.4294 1624.1687,-77.338"/>
</g>
<!-- Node27 -->
<g id="node28" class="node">
<title>Node27</title>
<polygon fill="#ffffff" stroke="#bfbfbf" points="1721.9901,-55.5 1721.9901,-73.5 1813.5907,-73.5 1813.5907,-55.5 1721.9901,-55.5"/>
<text text-anchor="middle" x="1767.7904" y="-61.5" font-family="Helvetica,sans-Serif" font-size="10.00" fill="#000000">netinet/ip_icmp.h</text>
</g>
<!-- Node2&#45;&gt;Node27 -->
<g id="edge27" class="edge">
<title>Node2&#45;&gt;Node27</title>
<path fill="none" stroke="#191970" d="M1268.354,-117.3138C1343.3612,-111.9414 1538.3508,-96.9343 1711.8362,-74.0341"/>
<polygon fill="#191970" stroke="#191970" points="1712.464,-77.4815 1721.9142,-72.6915 1711.5396,-70.5428 1712.464,-77.4815"/>
</g>
<!-- Node28 -->
<g id="node29" class="node">
<title>Node28</title>
<g id="a_node29"><a xlink:href="mac2int_8h.html" target="_top" xlink:title="mac2int.h">
<polygon fill="#ffffff" stroke="#000000" points="1831.1131,-55.5 1831.1131,-73.5 1890.4676,-73.5 1890.4676,-55.5 1831.1131,-55.5"/>
<text text-anchor="middle" x="1860.7904" y="-61.5" font-family="Helvetica,sans-Serif" font-size="10.00" fill="#000000">mac2int.h</text>
</a>
</g>
</g>
<!-- Node2&#45;&gt;Node28 -->
<g id="edge28" class="edge">
<title>Node2&#45;&gt;Node28</title>
<path fill="none" stroke="#191970" d="M1268.3334,-118.8005C1355.7507,-116.5573 1607.3168,-107.5821 1813.7904,-74 1816.1123,-73.6223 1818.5006,-73.1733 1820.9172,-72.679"/>
<polygon fill="#191970" stroke="#191970" points="1821.9093,-76.044 1830.9129,-70.4597 1820.3919,-69.2105 1821.9093,-76.044"/>
</g>
<!-- Node29 -->
<g id="node30" class="node">
<title>Node29</title>
<g id="a_node30"><a xlink:href="ip2int_8h.html" target="_top" xlink:title="ip2int.h">
<polygon fill="#ffffff" stroke="#000000" points="1908.6673,-55.5 1908.6673,-73.5 1956.9134,-73.5 1956.9134,-55.5 1908.6673,-55.5"/>
<text text-anchor="middle" x="1932.7904" y="-61.5" font-family="Helvetica,sans-Serif" font-size="10.00" fill="#000000">ip2int.h</text>
</a>
</g>
</g>
<!-- Node2&#45;&gt;Node29 -->
<g id="edge30" class="edge">
<title>Node2&#45;&gt;Node29</title>
<path fill="none" stroke="#191970" d="M1268.4972,-118.0637C1382.2362,-113.0679 1768.3599,-95.5723 1890.7904,-74 1893.2564,-73.5655 1895.8014,-73.0179 1898.373,-72.4059"/>
<polygon fill="#191970" stroke="#191970" points="1899.5095,-75.7271 1908.3117,-69.8303 1897.7534,-68.9509 1899.5095,-75.7271"/>
</g>
<!-- Node30 -->
<g id="node31" class="node">
<title>Node30</title>
<g id="a_node31"><a xlink:href="database_8h.html" target="_top" xlink:title="database.h">
<polygon fill="#ffffff" stroke="#000000" points="14.0467,-55.5 14.0467,-73.5 79.534,-73.5 79.534,-55.5 14.0467,-55.5"/>
<text text-anchor="middle" x="46.7904" y="-61.5" font-family="Helvetica,sans-Serif" font-size="10.00" fill="#000000">database.h</text>
</a>
</g>
</g>
<!-- Node2&#45;&gt;Node30 -->
<g id="edge32" class="edge">
<title>Node2&#45;&gt;Node30</title>
<path fill="none" stroke="#191970" d="M1205.2539,-118.975C1046.0981,-116.1077 330.7288,-101.4971 89.8473,-74.4996"/>
<polygon fill="#191970" stroke="#191970" points="90.1014,-71.0056 79.7643,-73.3286 89.2938,-77.9589 90.1014,-71.0056"/>
</g>
<!-- Node32 -->
<g id="node33" class="node">
<title>Node32</title>
<polygon fill="#ffffff" stroke="#bfbfbf" points="2074.3866,-55.5 2074.3866,-73.5 2133.1942,-73.5 2133.1942,-55.5 2074.3866,-55.5"/>
<text text-anchor="middle" x="2103.7904" y="-61.5" font-family="Helvetica,sans-Serif" font-size="10.00" fill="#000000">jansson.h</text>
</g>
<!-- Node2&#45;&gt;Node32 -->
<g id="edge36" class="edge">
<title>Node2&#45;&gt;Node32</title>
<path fill="none" stroke="#191970" d="M1268.4031,-118.5699C1397.7713,-114.6418 1887.9181,-98.5407 2063.891,-73.9865"/>
<polygon fill="#191970" stroke="#191970" points="2064.6373,-77.4148 2074.0279,-72.5091 2063.6277,-70.488 2064.6373,-77.4148"/>
</g>
<!-- Node33 -->
<g id="node34" class="node">
<title>Node33</title>
<g id="a_node34"><a xlink:href="libcli_8h.html" target="_top" xlink:title="libcli.h">
<polygon fill="#ffffff" stroke="#000000" points="2012.8963,-55.5 2012.8963,-73.5 2056.6844,-73.5 2056.6844,-55.5 2012.8963,-55.5"/>
<text text-anchor="middle" x="2034.7904" y="-61.5" font-family="Helvetica,sans-Serif" font-size="10.00" fill="#000000">libcli.h</text>
</a>
</g>
</g>
<!-- Node2&#45;&gt;Node33 -->
<g id="edge37" class="edge">
<title>Node2&#45;&gt;Node33</title>
<path fill="none" stroke="#191970" d="M1268.3629,-118.4509C1393.4601,-114.1648 1854.518,-97.1085 1998.7904,-74 2000.0828,-73.793 2001.3961,-73.5593 2002.7188,-73.3044"/>
<polygon fill="#191970" stroke="#191970" points="2003.864,-76.6344 2012.8536,-71.0275 2002.3296,-69.8046 2003.864,-76.6344"/>
</g>
<!-- Node34 -->
<g id="node35" class="node">
<title>Node34</title>
<polygon fill="#ffffff" stroke="#bfbfbf" points="2151.5638,-55.5 2151.5638,-73.5 2202.0169,-73.5 2202.0169,-55.5 2151.5638,-55.5"/>
<text text-anchor="middle" x="2176.7904" y="-61.5" font-family="Helvetica,sans-Serif" font-size="10.00" fill="#000000">mysql.h</text>
</g>
<!-- Node2&#45;&gt;Node34 -->
<g id="edge41" class="edge">
<title>Node2&#45;&gt;Node34</title>
<path fill="none" stroke="#191970" d="M1268.45,-118.8206C1405.4546,-115.7431 1948.6023,-102.0903 2141.3106,-73.6359"/>
<polygon fill="#191970" stroke="#191970" points="2141.9637,-77.0767 2151.3139,-72.0943 2140.8974,-70.1584 2141.9637,-77.0767"/>
</g>
<!-- Node35 -->
<g id="node36" class="node">
<title>Node35</title>
<polygon fill="#ffffff" stroke="#bfbfbf" points="2220.1746,-55.5 2220.1746,-73.5 2263.4061,-73.5 2263.4061,-55.5 2220.1746,-55.5"/>
<text text-anchor="middle" x="2241.7904" y="-61.5" font-family="Helvetica,sans-Serif" font-size="10.00" fill="#000000">zmq.h</text>
</g>
<!-- Node2&#45;&gt;Node35 -->
<g id="edge42" class="edge">
<title>Node2&#45;&gt;Node35</title>
<path fill="none" stroke="#191970" d="M1268.4097,-119.0872C1411.8899,-117.0538 2003.2729,-106.9077 2209.813,-73.6429"/>
<polygon fill="#191970" stroke="#191970" points="2210.66,-77.0497 2219.9403,-71.9384 2209.4981,-70.1468 2210.66,-77.0497"/>
</g>
<!-- Node36 -->
<g id="node37" class="node">
<title>Node36</title>
<g id="a_node37"><a xlink:href="src_2include_2type_8h.html" target="_top" xlink:title="type.h">
<polygon fill="#ffffff" stroke="#000000" points="2358.1698,-55.5 2358.1698,-73.5 2401.411,-73.5 2401.411,-55.5 2358.1698,-55.5"/>
<text text-anchor="middle" x="2379.7904" y="-61.5" font-family="Helvetica,sans-Serif" font-size="10.00" fill="#000000">type.h</text>
</a>
</g>
</g>
<!-- Node2&#45;&gt;Node36 -->
<g id="edge43" class="edge">
<title>Node2&#45;&gt;Node36</title>
<path fill="none" stroke="#191970" d="M1268.1373,-119.1295C1425.2535,-117.1328 2128.0288,-106.5083 2343.7904,-74 2345.0847,-73.805 2346.3995,-73.5814 2347.7235,-73.3349"/>
<polygon fill="#191970" stroke="#191970" points="2348.8549,-76.6694 2357.8639,-71.0937 2347.3442,-69.8344 2348.8549,-76.6694"/>
</g>
<!-- Node28&#45;&gt;Node2 -->
<g id="edge29" class="edge">
<title>Node28&#45;&gt;Node2</title>
<path fill="none" stroke="#191970" d="M1834.6366,-73.5081C1833.6806,-73.6826 1832.7301,-73.8472 1831.7904,-74 1626.2591,-107.4288 1376.0459,-116.4748 1278.4234,-118.7694"/>
<polygon fill="#191970" stroke="#191970" points="1278.2887,-115.2714 1268.3694,-118.9942 1278.4452,-122.2697 1278.2887,-115.2714"/>
</g>
<!-- Node29&#45;&gt;Node2 -->
<g id="edge31" class="edge">
<title>Node29&#45;&gt;Node2</title>
<path fill="none" stroke="#191970" d="M1911.2778,-73.5296C1910.4431,-73.6978 1909.6124,-73.8552 1908.7904,-74 1787.221,-95.4205 1405.6545,-112.8216 1278.4249,-117.9565"/>
<polygon fill="#191970" stroke="#191970" points="1278.1615,-114.4641 1268.3091,-118.3602 1278.4408,-121.4585 1278.1615,-114.4641"/>
</g>
<!-- Node30&#45;&gt;Node2 -->
<g id="edge33" class="edge">
<title>Node30&#45;&gt;Node2</title>
<path fill="none" stroke="#191970" d="M79.6734,-70.1753C87.3342,-71.6664 95.3516,-73.106 102.7904,-74 321.1384,-100.2426 1017.1797,-115.1334 1195.1184,-118.6725"/>
<polygon fill="#191970" stroke="#191970" points="1195.299,-122.1766 1205.3663,-118.8752 1195.4375,-115.178 1195.299,-122.1766"/>
</g>
<!-- Node30&#45;&gt;Node31 -->
<g id="edge34" class="edge">
<title>Node30&#45;&gt;Node31</title>
<path fill="none" stroke="#191970" d="M46.7904,-55.4179C46.7904,-48.2164 46.7904,-37.8962 46.7904,-28.8632"/>
<polygon fill="#191970" stroke="#191970" points="50.2905,-28.7794 46.7904,-18.7795 43.2905,-28.7795 50.2905,-28.7794"/>
</g>
<!-- Node31&#45;&gt;Node2 -->
<g id="edge35" class="edge">
<title>Node31&#45;&gt;Node2</title>
<path fill="none" stroke="#191970" d="M54.4968,-18.7099C67.5732,-33.5622 95.7308,-62.3178 126.7904,-74 228.1116,-112.1092 1005.4051,-118.3701 1195.1245,-119.3339"/>
<polygon fill="#191970" stroke="#191970" points="1195.2293,-122.8343 1205.2462,-119.383 1195.2633,-115.8344 1195.2293,-122.8343"/>
</g>
<!-- Node33&#45;&gt;Node3 -->
<g id="edge39" class="edge">
<title>Node33&#45;&gt;Node3</title>
<path fill="none" stroke="#191970" d="M2056.7231,-57.4545C2059.7547,-56.5757 2062.8398,-55.7306 2065.7904,-55 2138.6313,-36.9625 2225.4779,-22.0469 2271.809,-14.6073"/>
<polygon fill="#191970" stroke="#191970" points="2272.5464,-18.0341 2281.8726,-13.007 2271.447,-11.121 2272.5464,-18.0341"/>
</g>
<!-- Node33&#45;&gt;Node6 -->
<g id="edge38" class="edge">
<title>Node33&#45;&gt;Node6</title>
<path fill="none" stroke="#191970" d="M2030.6621,-55.4179C2027.2808,-47.9789 2022.3869,-37.2123 2018.1877,-27.9742"/>
<polygon fill="#191970" stroke="#191970" points="2021.3327,-26.4348 2014.0083,-18.7795 2014.9601,-29.3315 2021.3327,-26.4348"/>
</g>
<!-- Node33&#45;&gt;Node16 -->
<g id="edge40" class="edge">
<title>Node33&#45;&gt;Node16</title>
<path fill="none" stroke="#191970" d="M2056.7758,-56.3846C2081.2515,-47.3499 2121.1132,-32.6359 2149.6538,-22.1008"/>
<polygon fill="#191970" stroke="#191970" points="2151.0638,-25.3112 2159.233,-18.5648 2148.6397,-18.7443 2151.0638,-25.3112"/>
</g>
<!-- Node37&#45;&gt;Node2 -->
<g id="edge45" class="edge">
<title>Node37&#45;&gt;Node2</title>
<path fill="none" stroke="#191970" d="M1265.176,-165.4179C1260.4795,-157.8207 1253.6375,-146.7527 1247.8475,-137.3866"/>
<polygon fill="#191970" stroke="#191970" points="1250.7621,-135.445 1242.5268,-128.7795 1244.8079,-139.1258 1250.7621,-135.445"/>
</g>
<!-- Node38&#45;&gt;Node2 -->
<g id="edge47" class="edge">
<title>Node38&#45;&gt;Node2</title>
<path fill="none" stroke="#191970" d="M1207.5699,-165.4179C1212.4045,-157.8207 1219.4478,-146.7527 1225.408,-137.3866"/>
<polygon fill="#191970" stroke="#191970" points="1228.4693,-139.0952 1230.8853,-128.7795 1222.5636,-135.337 1228.4693,-139.0952"/>
</g>
<!-- Node40&#45;&gt;Node2 -->
<g id="edge51" class="edge">
<title>Node40&#45;&gt;Node2</title>
<path fill="none" stroke="#191970" d="M1326.0952,-220.2653C1324.6712,-206.8675 1320.4009,-181.8078 1307.7904,-165 1297.6532,-151.4888 1282.2322,-140.9144 1268.3489,-133.374"/>
<polygon fill="#191970" stroke="#191970" points="1269.5654,-130.0655 1259.067,-128.6396 1266.3848,-136.3012 1269.5654,-130.0655"/>
</g>
<!-- Node40&#45;&gt;Node37 -->
<g id="edge52" class="edge">
<title>Node40&#45;&gt;Node37</title>
<path fill="none" stroke="#191970" d="M1317.5431,-220.4179C1309.4049,-212.425 1297.3551,-200.5903 1287.527,-190.9377"/>
<polygon fill="#191970" stroke="#191970" points="1289.8255,-188.2895 1280.2385,-183.7795 1284.9206,-193.2836 1289.8255,-188.2895"/>
</g>
<!-- Node41 -->
<g id="node42" class="node">
<title>Node41</title>
<g id="a_node42"><a xlink:href="app__events_2include_2app__event__id_8h.html" target="_top" xlink:title="app_event_id.h">
<polygon fill="#ffffff" stroke="#000000" points="1354.5936,-165.5 1354.5936,-183.5 1438.9871,-183.5 1438.9871,-165.5 1354.5936,-165.5"/>
<text text-anchor="middle" x="1396.7904" y="-171.5" font-family="Helvetica,sans-Serif" font-size="10.00" fill="#000000">app_event_id.h</text>
</a>
</g>
</g>
<!-- Node40&#45;&gt;Node41 -->
<g id="edge53" class="edge">
<title>Node40&#45;&gt;Node41</title>
<path fill="none" stroke="#191970" d="M1338.3494,-220.4179C1348.8244,-212.1876 1364.4836,-199.8839 1376.9568,-190.0836"/>
<polygon fill="#191970" stroke="#191970" points="1379.2793,-192.7098 1384.9802,-183.7795 1374.9546,-187.2056 1379.2793,-192.7098"/>
</g>
<!-- Node42 -->
<g id="node43" class="node">
<title>Node42</title>
<g id="a_node43"><a xlink:href="app__events_2include_2app__event__list_8h.html" target="_top" xlink:title="app_event_list.h">
<polygon fill="#ffffff" stroke="#000000" points="2115.3744,-110.5 2115.3744,-128.5 2204.2064,-128.5 2204.2064,-110.5 2115.3744,-110.5"/>
<text text-anchor="middle" x="2159.7904" y="-116.5" font-family="Helvetica,sans-Serif" font-size="10.00" fill="#000000">app_event_list.h</text>
</a>
</g>
</g>
<!-- Node40&#45;&gt;Node42 -->
<g id="edge54" class="edge">
<title>Node40&#45;&gt;Node42</title>
<path fill="none" stroke="#191970" d="M1362.7598,-221.4704C1365.4721,-220.9457 1368.1715,-220.4487 1370.7904,-220 1645.0953,-173.007 1976.516,-137.7168 2105.107,-124.8291"/>
<polygon fill="#191970" stroke="#191970" points="2105.4998,-128.3074 2115.1028,-123.8315 2104.8046,-121.342 2105.4998,-128.3074"/>
</g>
<!-- Node42&#45;&gt;Node36 -->
<g id="edge55" class="edge">
<title>Node42&#45;&gt;Node36</title>
<path fill="none" stroke="#191970" d="M2197.1883,-110.4331C2234.3958,-101.3697 2293.0981,-86.9554 2343.7904,-74 2345.2386,-73.6299 2346.719,-73.2491 2348.2138,-72.8626"/>
<polygon fill="#191970" stroke="#191970" points="2349.3106,-76.1937 2358.1026,-70.2816 2347.5428,-69.4206 2349.3106,-76.1937"/>
</g>
</g>
</svg>
