<?xml version="1.0" encoding="UTF-8" standalone="no"?>
<!DOCTYPE svg PUBLIC "-//W3C//DTD SVG 1.1//EN"
 "http://www.w3.org/Graphics/SVG/1.1/DTD/svg11.dtd">
<!-- Generated by graphviz version 2.40.1 (20161225.0304)
 -->
<!-- Title: applications/include/l2_shortest.h Pages: 1 -->
<svg width="1459pt" height="257pt"
 viewBox="0.00 0.00 1459.35 257.00" xmlns="http://www.w3.org/2000/svg" xmlns:xlink="http://www.w3.org/1999/xlink">
<g id="graph0" class="graph" transform="scale(1 1) rotate(0) translate(4 253)">
<title>applications/include/l2_shortest.h</title>
<polygon fill="#ffffff" stroke="transparent" points="-4,4 -4,-253 1455.3521,-253 1455.3521,4 -4,4"/>
<!-- Node0 -->
<g id="node1" class="node">
<title>Node0</title>
<polygon fill="#bfbfbf" stroke="#000000" points="577.9805,-220.5 577.9805,-248.5 681.2607,-248.5 681.2607,-220.5 577.9805,-220.5"/>
<text text-anchor="start" x="585.9805" y="-236.5" font-family="Helvetica,sans-Serif" font-size="10.00" fill="#000000">applications/include</text>
<text text-anchor="middle" x="629.6206" y="-226.5" font-family="Helvetica,sans-Serif" font-size="10.00" fill="#000000">/l2_shortest.h</text>
</g>
<!-- Node1 -->
<g id="node2" class="node">
<title>Node1</title>
<g id="a_node2"><a xlink:href="src_2include_2common_8h.html" target="_top" xlink:title="common.h">
<polygon fill="#ffffff" stroke="#000000" points="605.2783,-55.5 605.2783,-73.5 667.9629,-73.5 667.9629,-55.5 605.2783,-55.5"/>
<text text-anchor="middle" x="636.6206" y="-61.5" font-family="Helvetica,sans-Serif" font-size="10.00" fill="#000000">common.h</text>
</a>
</g>
</g>
<!-- Node0&#45;&gt;Node1 -->
<g id="edge1" class="edge">
<title>Node0&#45;&gt;Node1</title>
<path fill="none" stroke="#191970" d="M654.2079,-220.2947C666.7154,-211.5855 680.7057,-199.1894 687.6206,-184 704.1849,-147.6144 673.3688,-104.3324 652.8378,-81.143"/>
<polygon fill="#191970" stroke="#191970" points="655.1973,-78.5388 645.8459,-73.5586 650.0506,-83.2834 655.1973,-78.5388"/>
</g>
<!-- Node22 -->
<g id="node23" class="node">
<title>Node22</title>
<g id="a_node23"><a xlink:href="app__events_2include_2app__event_8h.html" target="_top" xlink:title="app_event.h">
<polygon fill="#ffffff" stroke="#000000" points="408.0962,-165.5 408.0962,-183.5 479.145,-183.5 479.145,-165.5 408.0962,-165.5"/>
<text text-anchor="middle" x="443.6206" y="-171.5" font-family="Helvetica,sans-Serif" font-size="10.00" fill="#000000">app_event.h</text>
</a>
</g>
</g>
<!-- Node0&#45;&gt;Node22 -->
<g id="edge22" class="edge">
<title>Node0&#45;&gt;Node22</title>
<path fill="none" stroke="#191970" d="M586.0119,-220.4327C554.2733,-210.1944 511.723,-196.4685 481.4227,-186.6942"/>
<polygon fill="#191970" stroke="#191970" points="482.2416,-183.2808 471.65,-183.5417 480.0925,-189.9428 482.2416,-183.2808"/>
</g>
<!-- Node26 -->
<g id="node27" class="node">
<title>Node26</title>
<g id="a_node27"><a xlink:href="mac2int_8h.html" target="_top" xlink:title="mac2int.h">
<polygon fill="#ffffff" stroke="#000000" points="577.9434,-110.5 577.9434,-128.5 637.2979,-128.5 637.2979,-110.5 577.9434,-110.5"/>
<text text-anchor="middle" x="607.6206" y="-116.5" font-family="Helvetica,sans-Serif" font-size="10.00" fill="#000000">mac2int.h</text>
</a>
</g>
</g>
<!-- Node0&#45;&gt;Node26 -->
<g id="edge29" class="edge">
<title>Node0&#45;&gt;Node26</title>
<path fill="none" stroke="#191970" d="M626.923,-220.3987C622.9985,-199.8847 615.7034,-161.7512 611.2924,-138.6935"/>
<polygon fill="#191970" stroke="#191970" points="614.7028,-137.8929 609.3861,-128.7286 607.8275,-139.2082 614.7028,-137.8929"/>
</g>
<!-- Node27 -->
<g id="node28" class="node">
<title>Node27</title>
<g id="a_node28"><a xlink:href="hash_8h.html" target="_top" xlink:title="hash.h">
<polygon fill="#ffffff" stroke="#000000" points="632.6084,-165.5 632.6084,-183.5 678.6328,-183.5 678.6328,-165.5 632.6084,-165.5"/>
<text text-anchor="middle" x="655.6206" y="-171.5" font-family="Helvetica,sans-Serif" font-size="10.00" fill="#000000">hash.h</text>
</a>
</g>
</g>
<!-- Node0&#45;&gt;Node27 -->
<g id="edge31" class="edge">
<title>Node0&#45;&gt;Node27</title>
<path fill="none" stroke="#191970" d="M635.7822,-220.2808C639.3224,-212.1112 643.8085,-201.7588 647.6188,-192.9658"/>
<polygon fill="#191970" stroke="#191970" points="650.9194,-194.1514 651.6841,-183.5842 644.4965,-191.3681 650.9194,-194.1514"/>
</g>
<!-- Node2 -->
<g id="node3" class="node">
<title>Node2</title>
<polygon fill="#ffffff" stroke="#bfbfbf" points="1405.8892,-.5 1405.8892,-18.5 1451.3521,-18.5 1451.3521,-.5 1405.8892,-.5"/>
<text text-anchor="middle" x="1428.6206" y="-6.5" font-family="Helvetica,sans-Serif" font-size="10.00" fill="#000000">stdio.h</text>
</g>
<!-- Node1&#45;&gt;Node2 -->
<g id="edge2" class="edge">
<title>Node1&#45;&gt;Node2</title>
<path fill="none" stroke="#191970" d="M668.1795,-63.6128C790.5321,-60.0219 1234.3748,-45.5552 1395.5465,-18.9434"/>
<polygon fill="#191970" stroke="#191970" points="1396.4933,-22.3315 1405.7474,-17.173 1395.2962,-15.4346 1396.4933,-22.3315"/>
</g>
<!-- Node3 -->
<g id="node4" class="node">
<title>Node3</title>
<polygon fill="#ffffff" stroke="#bfbfbf" points="61.1084,-.5 61.1084,-18.5 112.1328,-18.5 112.1328,-.5 61.1084,-.5"/>
<text text-anchor="middle" x="86.6206" y="-6.5" font-family="Helvetica,sans-Serif" font-size="10.00" fill="#000000">unistd.h</text>
</g>
<!-- Node1&#45;&gt;Node3 -->
<g id="edge3" class="edge">
<title>Node1&#45;&gt;Node3</title>
<path fill="none" stroke="#191970" d="M605.2344,-63.7451C525.7352,-61.407 309.9793,-52.4076 122.5283,-19.073"/>
<polygon fill="#191970" stroke="#191970" points="122.9574,-15.5939 112.4944,-17.2601 121.7128,-22.4824 122.9574,-15.5939"/>
</g>
<!-- Node4 -->
<g id="node5" class="node">
<title>Node4</title>
<polygon fill="#ffffff" stroke="#bfbfbf" points="129.7783,-.5 129.7783,-18.5 177.4629,-18.5 177.4629,-.5 129.7783,-.5"/>
<text text-anchor="middle" x="153.6206" y="-6.5" font-family="Helvetica,sans-Serif" font-size="10.00" fill="#000000">stdlib.h</text>
</g>
<!-- Node1&#45;&gt;Node4 -->
<g id="edge4" class="edge">
<title>Node1&#45;&gt;Node4</title>
<path fill="none" stroke="#191970" d="M605.2432,-63.2658C533.075,-60.0157 349.7089,-49.4123 187.7909,-18.9005"/>
<polygon fill="#191970" stroke="#191970" points="188.1299,-15.4019 177.6499,-16.9577 186.8128,-22.2769 188.1299,-15.4019"/>
</g>
<!-- Node5 -->
<g id="node6" class="node">
<title>Node5</title>
<polygon fill="#ffffff" stroke="#bfbfbf" points="195.2241,-.5 195.2241,-18.5 244.0171,-18.5 244.0171,-.5 195.2241,-.5"/>
<text text-anchor="middle" x="219.6206" y="-6.5" font-family="Helvetica,sans-Serif" font-size="10.00" fill="#000000">string.h</text>
</g>
<!-- Node1&#45;&gt;Node5 -->
<g id="edge5" class="edge">
<title>Node1&#45;&gt;Node5</title>
<path fill="none" stroke="#191970" d="M605.2397,-62.515C540.9809,-58.0807 389.7201,-45.7493 254.1654,-19.0349"/>
<polygon fill="#191970" stroke="#191970" points="254.5124,-15.535 244.0197,-17.0022 253.1373,-22.3986 254.5124,-15.535"/>
</g>
<!-- Node6 -->
<g id="node7" class="node">
<title>Node6</title>
<polygon fill="#ffffff" stroke="#bfbfbf" points="261.5542,-.5 261.5542,-18.5 313.687,-18.5 313.687,-.5 261.5542,-.5"/>
<text text-anchor="middle" x="287.6206" y="-6.5" font-family="Helvetica,sans-Serif" font-size="10.00" fill="#000000">stdarg.h</text>
</g>
<!-- Node1&#45;&gt;Node6 -->
<g id="edge6" class="edge">
<title>Node1&#45;&gt;Node6</title>
<path fill="none" stroke="#191970" d="M605.2042,-61.2241C550.0887,-55.2026 432.2676,-41.109 323.7131,-19.0243"/>
<polygon fill="#191970" stroke="#191970" points="324.4124,-15.5949 313.9115,-17.0028 322.9984,-22.4506 324.4124,-15.5949"/>
</g>
<!-- Node7 -->
<g id="node8" class="node">
<title>Node7</title>
<polygon fill="#ffffff" stroke="#bfbfbf" points="331.5,-.5 331.5,-18.5 379.7412,-18.5 379.7412,-.5 331.5,-.5"/>
<text text-anchor="middle" x="355.6206" y="-6.5" font-family="Helvetica,sans-Serif" font-size="10.00" fill="#000000">stdint.h</text>
</g>
<!-- Node1&#45;&gt;Node7 -->
<g id="edge7" class="edge">
<title>Node1&#45;&gt;Node7</title>
<path fill="none" stroke="#191970" d="M605.095,-59.7408C559.5887,-52.6492 472.6954,-38.2797 389.8738,-19.1241"/>
<polygon fill="#191970" stroke="#191970" points="390.5926,-15.6978 380.0581,-16.8264 388.9971,-22.5136 390.5926,-15.6978"/>
</g>
<!-- Node8 -->
<g id="node9" class="node">
<title>Node8</title>
<polygon fill="#ffffff" stroke="#bfbfbf" points="397.4927,-.5 397.4927,-18.5 455.7485,-18.5 455.7485,-.5 397.4927,-.5"/>
<text text-anchor="middle" x="426.6206" y="-6.5" font-family="Helvetica,sans-Serif" font-size="10.00" fill="#000000">pthread.h</text>
</g>
<!-- Node1&#45;&gt;Node8 -->
<g id="edge8" class="edge">
<title>Node1&#45;&gt;Node8</title>
<path fill="none" stroke="#191970" d="M605.1815,-56.2659C567.9468,-46.514 505.9101,-30.2663 465.641,-19.7196"/>
<polygon fill="#191970" stroke="#191970" points="466.461,-16.3164 455.9005,-17.1685 464.6874,-23.088 466.461,-16.3164"/>
</g>
<!-- Node9 -->
<g id="node10" class="node">
<title>Node9</title>
<polygon fill="#ffffff" stroke="#bfbfbf" points="473.5,-.5 473.5,-18.5 521.7412,-18.5 521.7412,-.5 473.5,-.5"/>
<text text-anchor="middle" x="497.6206" y="-6.5" font-family="Helvetica,sans-Serif" font-size="10.00" fill="#000000">ctype.h</text>
</g>
<!-- Node1&#45;&gt;Node9 -->
<g id="edge9" class="edge">
<title>Node1&#45;&gt;Node9</title>
<path fill="none" stroke="#191970" d="M613.6676,-55.4179C590.8306,-46.3817 555.5843,-32.4353 529.9261,-22.2828"/>
<polygon fill="#191970" stroke="#191970" points="531.194,-19.0205 520.6077,-18.5956 528.6185,-25.5295 531.194,-19.0205"/>
</g>
<!-- Node10 -->
<g id="node11" class="node">
<title>Node10</title>
<polygon fill="#ffffff" stroke="#bfbfbf" points="539.7783,-.5 539.7783,-18.5 587.4629,-18.5 587.4629,-.5 539.7783,-.5"/>
<text text-anchor="middle" x="563.6206" y="-6.5" font-family="Helvetica,sans-Serif" font-size="10.00" fill="#000000">errno.h</text>
</g>
<!-- Node1&#45;&gt;Node10 -->
<g id="edge10" class="edge">
<title>Node1&#45;&gt;Node10</title>
<path fill="none" stroke="#191970" d="M624.5661,-55.4179C613.5373,-47.1084 596.9974,-34.6469 583.9299,-24.8015"/>
<polygon fill="#191970" stroke="#191970" points="586.03,-22.0016 575.937,-18.7795 581.8177,-27.5924 586.03,-22.0016"/>
</g>
<!-- Node11 -->
<g id="node12" class="node">
<title>Node11</title>
<polygon fill="#ffffff" stroke="#bfbfbf" points="604.9927,-.5 604.9927,-18.5 668.2485,-18.5 668.2485,-.5 604.9927,-.5"/>
<text text-anchor="middle" x="636.6206" y="-6.5" font-family="Helvetica,sans-Serif" font-size="10.00" fill="#000000">arpa/inet.h</text>
</g>
<!-- Node1&#45;&gt;Node11 -->
<g id="edge11" class="edge">
<title>Node1&#45;&gt;Node11</title>
<path fill="none" stroke="#191970" d="M636.6206,-55.4179C636.6206,-48.2164 636.6206,-37.8962 636.6206,-28.8632"/>
<polygon fill="#191970" stroke="#191970" points="640.1207,-28.7794 636.6206,-18.7795 633.1207,-28.7795 640.1207,-28.7794"/>
</g>
<!-- Node12 -->
<g id="node13" class="node">
<title>Node12</title>
<polygon fill="#ffffff" stroke="#bfbfbf" points="686.1577,-.5 686.1577,-18.5 751.0835,-18.5 751.0835,-.5 686.1577,-.5"/>
<text text-anchor="middle" x="718.6206" y="-6.5" font-family="Helvetica,sans-Serif" font-size="10.00" fill="#000000">netinet/in.h</text>
</g>
<!-- Node1&#45;&gt;Node12 -->
<g id="edge12" class="edge">
<title>Node1&#45;&gt;Node12</title>
<path fill="none" stroke="#191970" d="M650.1612,-55.4179C662.7432,-46.9788 681.7102,-34.257 696.4917,-24.3426"/>
<polygon fill="#191970" stroke="#191970" points="698.7046,-27.0727 705.0599,-18.5956 694.8053,-21.2593 698.7046,-27.0727"/>
</g>
<!-- Node13 -->
<g id="node14" class="node">
<title>Node13</title>
<polygon fill="#ffffff" stroke="#bfbfbf" points="768.7637,-.5 768.7637,-18.5 846.4775,-18.5 846.4775,-.5 768.7637,-.5"/>
<text text-anchor="middle" x="807.6206" y="-6.5" font-family="Helvetica,sans-Serif" font-size="10.00" fill="#000000">net/ethernet.h</text>
</g>
<!-- Node1&#45;&gt;Node13 -->
<g id="edge13" class="edge">
<title>Node1&#45;&gt;Node13</title>
<path fill="none" stroke="#191970" d="M664.8578,-55.4179C693.5328,-46.1949 738.1116,-31.8567 769.8196,-21.6582"/>
<polygon fill="#191970" stroke="#191970" points="771.1777,-24.8981 779.6257,-18.5042 769.0343,-18.2343 771.1777,-24.8981"/>
</g>
<!-- Node14 -->
<g id="node15" class="node">
<title>Node14</title>
<polygon fill="#ffffff" stroke="#bfbfbf" points="864.1577,-.5 864.1577,-18.5 929.0835,-18.5 929.0835,-.5 864.1577,-.5"/>
<text text-anchor="middle" x="896.6206" y="-6.5" font-family="Helvetica,sans-Serif" font-size="10.00" fill="#000000">netinet/ip.h</text>
</g>
<!-- Node1&#45;&gt;Node14 -->
<g id="edge14" class="edge">
<title>Node1&#45;&gt;Node14</title>
<path fill="none" stroke="#191970" d="M668.2207,-58.1705C708.9195,-49.9671 782.1007,-35.0432 853.8509,-19.356"/>
<polygon fill="#191970" stroke="#191970" points="854.9443,-22.6994 863.9621,-17.138 853.4444,-15.862 854.9443,-22.6994"/>
</g>
<!-- Node15 -->
<g id="node16" class="node">
<title>Node15</title>
<polygon fill="#ffffff" stroke="#bfbfbf" points="947.3794,-.5 947.3794,-18.5 1017.8618,-18.5 1017.8618,-.5 947.3794,-.5"/>
<text text-anchor="middle" x="982.6206" y="-6.5" font-family="Helvetica,sans-Serif" font-size="10.00" fill="#000000">netinet/tcp.h</text>
</g>
<!-- Node1&#45;&gt;Node15 -->
<g id="edge15" class="edge">
<title>Node1&#45;&gt;Node15</title>
<path fill="none" stroke="#191970" d="M668.3556,-60.3199C721.63,-53.1693 832.6285,-37.7011 937.1889,-18.9833"/>
<polygon fill="#191970" stroke="#191970" points="938.0657,-22.3817 947.2854,-17.1619 936.8229,-15.4929 938.0657,-22.3817"/>
</g>
<!-- Node16 -->
<g id="node17" class="node">
<title>Node16</title>
<polygon fill="#ffffff" stroke="#bfbfbf" points="1035.8203,-.5 1035.8203,-18.5 1127.4209,-18.5 1127.4209,-.5 1035.8203,-.5"/>
<text text-anchor="middle" x="1081.6206" y="-6.5" font-family="Helvetica,sans-Serif" font-size="10.00" fill="#000000">netinet/ip_icmp.h</text>
</g>
<!-- Node1&#45;&gt;Node16 -->
<g id="edge16" class="edge">
<title>Node1&#45;&gt;Node16</title>
<path fill="none" stroke="#191970" d="M668.0392,-61.4258C732.8532,-54.957 886.2962,-38.9886 1025.7215,-19.0612"/>
<polygon fill="#191970" stroke="#191970" points="1026.3353,-22.509 1035.7345,-17.6197 1025.3378,-15.5804 1026.3353,-22.509"/>
</g>
<!-- Node17 -->
<g id="node18" class="node">
<title>Node17</title>
<polygon fill="#ffffff" stroke="#bfbfbf" points="1145.2168,-.5 1145.2168,-18.5 1204.0244,-18.5 1204.0244,-.5 1145.2168,-.5"/>
<text text-anchor="middle" x="1174.6206" y="-6.5" font-family="Helvetica,sans-Serif" font-size="10.00" fill="#000000">jansson.h</text>
</g>
<!-- Node1&#45;&gt;Node17 -->
<g id="edge17" class="edge">
<title>Node1&#45;&gt;Node17</title>
<path fill="none" stroke="#191970" d="M668.1374,-63.3203C745.9392,-60.0499 953.4117,-49.1489 1134.8541,-19.085"/>
<polygon fill="#191970" stroke="#191970" points="1135.5603,-22.5155 1144.8417,-17.4061 1134.3998,-15.6123 1135.5603,-22.5155"/>
</g>
<!-- Node18 -->
<g id="node19" class="node">
<title>Node18</title>
<polygon fill="#ffffff" stroke="#bfbfbf" points="1221.7266,-.5 1221.7266,-18.5 1265.5146,-18.5 1265.5146,-.5 1221.7266,-.5"/>
<text text-anchor="middle" x="1243.6206" y="-6.5" font-family="Helvetica,sans-Serif" font-size="10.00" fill="#000000">libcli.h</text>
</g>
<!-- Node1&#45;&gt;Node18 -->
<g id="edge18" class="edge">
<title>Node1&#45;&gt;Node18</title>
<path fill="none" stroke="#191970" d="M668.0599,-62.9242C769.5611,-57.6986 1088.5791,-40.1599 1211.5214,-18.7549"/>
<polygon fill="#191970" stroke="#191970" points="1212.2112,-22.1868 1221.416,-16.9406 1210.9487,-15.3016 1212.2112,-22.1868"/>
</g>
<!-- Node19 -->
<g id="node20" class="node">
<title>Node19</title>
<polygon fill="#ffffff" stroke="#bfbfbf" points="1284.0049,-.5 1284.0049,-18.5 1327.2363,-18.5 1327.2363,-.5 1284.0049,-.5"/>
<text text-anchor="middle" x="1305.6206" y="-6.5" font-family="Helvetica,sans-Serif" font-size="10.00" fill="#000000">zmq.h</text>
</g>
<!-- Node1&#45;&gt;Node19 -->
<g id="edge19" class="edge">
<title>Node1&#45;&gt;Node19</title>
<path fill="none" stroke="#191970" d="M668.2836,-63.1909C777.2762,-58.5406 1137.2501,-41.95 1273.5679,-18.7004"/>
<polygon fill="#191970" stroke="#191970" points="1274.5346,-22.0829 1283.7582,-16.8699 1273.2969,-15.1932 1274.5346,-22.0829"/>
</g>
<!-- Node20 -->
<g id="node21" class="node">
<title>Node20</title>
<g id="a_node21"><a xlink:href="src_2include_2type_8h.html" target="_top" xlink:title="type.h">
<polygon fill="#ffffff" stroke="#000000" points="0,-.5 0,-18.5 43.2412,-18.5 43.2412,-.5 0,-.5"/>
<text text-anchor="middle" x="21.6206" y="-6.5" font-family="Helvetica,sans-Serif" font-size="10.00" fill="#000000">type.h</text>
</a>
</g>
</g>
<!-- Node1&#45;&gt;Node20 -->
<g id="edge20" class="edge">
<title>Node1&#45;&gt;Node20</title>
<path fill="none" stroke="#191970" d="M605.0517,-62.9999C502.3519,-57.9744 177.6703,-40.9064 53.4201,-18.9079"/>
<polygon fill="#191970" stroke="#191970" points="53.8984,-15.4367 43.4257,-17.041 52.613,-22.3177 53.8984,-15.4367"/>
</g>
<!-- Node21 -->
<g id="node22" class="node">
<title>Node21</title>
<polygon fill="#ffffff" stroke="#bfbfbf" points="1345.0049,-.5 1345.0049,-18.5 1388.2363,-18.5 1388.2363,-.5 1345.0049,-.5"/>
<text text-anchor="middle" x="1366.6206" y="-6.5" font-family="Helvetica,sans-Serif" font-size="10.00" fill="#000000">time.h</text>
</g>
<!-- Node1&#45;&gt;Node21 -->
<g id="edge21" class="edge">
<title>Node1&#45;&gt;Node21</title>
<path fill="none" stroke="#191970" d="M668.0481,-63.4671C783.6825,-59.5137 1186.0815,-44.3673 1334.5764,-18.9239"/>
<polygon fill="#191970" stroke="#191970" points="1335.6028,-22.2952 1344.8218,-17.0742 1334.3591,-15.4066 1335.6028,-22.2952"/>
</g>
<!-- Node22&#45;&gt;Node1 -->
<g id="edge23" class="edge">
<title>Node22&#45;&gt;Node1</title>
<path fill="none" stroke="#191970" d="M427.435,-165.4165C407.0354,-152.8292 376.4742,-129.4357 392.6206,-110 417.8569,-79.6228 532.0427,-69.4199 594.865,-66.0748"/>
<polygon fill="#191970" stroke="#191970" points="595.0415,-69.5704 604.8551,-65.5775 594.6935,-62.5791 595.0415,-69.5704"/>
</g>
<!-- Node23 -->
<g id="node24" class="node">
<title>Node23</title>
<g id="a_node24"><a xlink:href="src_2include_2context_8h.html" target="_top" xlink:title="context.h">
<polygon fill="#ffffff" stroke="#000000" points="503.3301,-110.5 503.3301,-128.5 559.9111,-128.5 559.9111,-110.5 503.3301,-110.5"/>
<text text-anchor="middle" x="531.6206" y="-116.5" font-family="Helvetica,sans-Serif" font-size="10.00" fill="#000000">context.h</text>
</a>
</g>
</g>
<!-- Node22&#45;&gt;Node23 -->
<g id="edge24" class="edge">
<title>Node22&#45;&gt;Node23</title>
<path fill="none" stroke="#191970" d="M458.152,-165.4179C471.782,-156.8992 492.3941,-144.0166 508.3202,-134.0627"/>
<polygon fill="#191970" stroke="#191970" points="510.4426,-136.8637 517.0676,-128.5956 506.7326,-130.9277 510.4426,-136.8637"/>
</g>
<!-- Node24 -->
<g id="node25" class="node">
<title>Node24</title>
<g id="a_node25"><a xlink:href="app__events_2include_2app__event__id_8h.html" target="_top" xlink:title="app_event_id.h">
<polygon fill="#ffffff" stroke="#000000" points="401.4238,-110.5 401.4238,-128.5 485.8174,-128.5 485.8174,-110.5 401.4238,-110.5"/>
<text text-anchor="middle" x="443.6206" y="-116.5" font-family="Helvetica,sans-Serif" font-size="10.00" fill="#000000">app_event_id.h</text>
</a>
</g>
</g>
<!-- Node22&#45;&gt;Node24 -->
<g id="edge26" class="edge">
<title>Node22&#45;&gt;Node24</title>
<path fill="none" stroke="#191970" d="M443.6206,-165.4179C443.6206,-158.2164 443.6206,-147.8962 443.6206,-138.8632"/>
<polygon fill="#191970" stroke="#191970" points="447.1207,-138.7794 443.6206,-128.7795 440.1207,-138.7795 447.1207,-138.7794"/>
</g>
<!-- Node25 -->
<g id="node26" class="node">
<title>Node25</title>
<g id="a_node26"><a xlink:href="app__events_2include_2app__event__list_8h.html" target="_top" xlink:title="app_event_list.h">
<polygon fill="#ffffff" stroke="#000000" points="148.2046,-55.5 148.2046,-73.5 237.0366,-73.5 237.0366,-55.5 148.2046,-55.5"/>
<text text-anchor="middle" x="192.6206" y="-61.5" font-family="Helvetica,sans-Serif" font-size="10.00" fill="#000000">app_event_list.h</text>
</a>
</g>
</g>
<!-- Node22&#45;&gt;Node25 -->
<g id="edge27" class="edge">
<title>Node22&#45;&gt;Node25</title>
<path fill="none" stroke="#191970" d="M423.0802,-165.4982C378.8629,-146.1201 274.4881,-100.3782 222.7601,-77.7085"/>
<polygon fill="#191970" stroke="#191970" points="224.0088,-74.4345 213.4448,-73.6261 221.199,-80.8458 224.0088,-74.4345"/>
</g>
<!-- Node23&#45;&gt;Node1 -->
<g id="edge25" class="edge">
<title>Node23&#45;&gt;Node1</title>
<path fill="none" stroke="#191970" d="M548.9592,-110.4179C565.6022,-101.7001 590.9701,-88.4122 610.1417,-78.3699"/>
<polygon fill="#191970" stroke="#191970" points="612.0219,-81.3362 619.2562,-73.5956 608.7739,-75.1353 612.0219,-81.3362"/>
</g>
<!-- Node25&#45;&gt;Node20 -->
<g id="edge28" class="edge">
<title>Node25&#45;&gt;Node20</title>
<path fill="none" stroke="#191970" d="M164.3834,-55.4179C133.7396,-45.5617 84.9334,-29.8638 53.082,-19.6192"/>
<polygon fill="#191970" stroke="#191970" points="53.9723,-16.229 43.3809,-16.4989 51.829,-22.8928 53.9723,-16.229"/>
</g>
<!-- Node26&#45;&gt;Node1 -->
<g id="edge30" class="edge">
<title>Node26&#45;&gt;Node1</title>
<path fill="none" stroke="#191970" d="M612.4094,-110.4179C616.3734,-102.8998 622.1296,-91.9829 627.0349,-82.6799"/>
<polygon fill="#191970" stroke="#191970" points="630.1597,-84.2576 631.7278,-73.7795 623.9677,-80.9927 630.1597,-84.2576"/>
</g>
<!-- Node27&#45;&gt;Node1 -->
<g id="edge32" class="edge">
<title>Node27&#45;&gt;Node1</title>
<path fill="none" stroke="#191970" d="M654.5625,-165.2786C653.0704,-152.728 650.134,-129.5866 646.6206,-110 645.0498,-101.2431 642.9826,-91.611 641.1356,-83.4725"/>
<polygon fill="#191970" stroke="#191970" points="644.4959,-82.4697 638.8208,-73.523 637.678,-84.056 644.4959,-82.4697"/>
</g>
</g>
</svg>
