<?xml version="1.0" encoding="UTF-8" standalone="no"?>
<!DOCTYPE svg PUBLIC "-//W3C//DTD SVG 1.1//EN"
 "http://www.w3.org/Graphics/SVG/1.1/DTD/svg11.dtd">
<!-- Generated by graphviz version 2.40.1 (20161225.0304)
 -->
<!-- Title: src/application.c Pages: 1 -->
<svg width="1603pt" height="247pt"
 viewBox="0.00 0.00 1603.35 247.00" xmlns="http://www.w3.org/2000/svg" xmlns:xlink="http://www.w3.org/1999/xlink">
<g id="graph0" class="graph" transform="scale(1 1) rotate(0) translate(4 243)">
<title>src/application.c</title>
<polygon fill="#ffffff" stroke="transparent" points="-4,4 -4,-243 1599.3521,-243 1599.3521,4 -4,4"/>
<!-- Node0 -->
<g id="node1" class="node">
<title>Node0</title>
<polygon fill="#bfbfbf" stroke="#000000" points="998.8818,-220.5 998.8818,-238.5 1086.5811,-238.5 1086.5811,-220.5 998.8818,-220.5"/>
<text text-anchor="middle" x="1042.7314" y="-226.5" font-family="Helvetica,sans-Serif" font-size="10.00" fill="#000000">src/application.c</text>
</g>
<!-- Node1 -->
<g id="node2" class="node">
<title>Node1</title>
<g id="a_node2"><a xlink:href="src_2include_2application_8h.html" target="_top" xlink:title="application.h">
<polygon fill="#ffffff" stroke="#000000" points="858.6553,-165.5 858.6553,-183.5 930.8076,-183.5 930.8076,-165.5 858.6553,-165.5"/>
<text text-anchor="middle" x="894.7314" y="-171.5" font-family="Helvetica,sans-Serif" font-size="10.00" fill="#000000">application.h</text>
</a>
</g>
</g>
<!-- Node0&#45;&gt;Node1 -->
<g id="edge1" class="edge">
<title>Node0&#45;&gt;Node1</title>
<path fill="none" stroke="#191970" d="M1018.2923,-220.4179C993.8695,-211.3419 956.1173,-197.3123 928.7683,-187.1488"/>
<polygon fill="#191970" stroke="#191970" points="929.7998,-183.7984 919.2069,-183.5956 927.3614,-190.3599 929.7998,-183.7984"/>
</g>
<!-- Node28 -->
<g id="node29" class="node">
<title>Node28</title>
<polygon fill="#ffffff" stroke="#bfbfbf" points="948.7637,-165.5 948.7637,-183.5 1038.6992,-183.5 1038.6992,-165.5 948.7637,-165.5"/>
<text text-anchor="middle" x="993.7314" y="-171.5" font-family="Helvetica,sans-Serif" font-size="10.00" fill="#000000">application_list.h</text>
</g>
<!-- Node0&#45;&gt;Node28 -->
<g id="edge33" class="edge">
<title>Node0&#45;&gt;Node28</title>
<path fill="none" stroke="#191970" d="M1034.6401,-220.4179C1027.6602,-212.5833 1017.3918,-201.0575 1008.8891,-191.5137"/>
<polygon fill="#191970" stroke="#191970" points="1011.264,-188.9178 1001.9986,-183.7795 1006.0374,-193.5743 1011.264,-188.9178"/>
</g>
<!-- Node29 -->
<g id="node30" class="node">
<title>Node29</title>
<g id="a_node30"><a xlink:href="app__events_2include_2app__event_8h.html" target="_top" xlink:title="app_event.h">
<polygon fill="#ffffff" stroke="#000000" points="1056.207,-165.5 1056.207,-183.5 1127.2559,-183.5 1127.2559,-165.5 1056.207,-165.5"/>
<text text-anchor="middle" x="1091.7314" y="-171.5" font-family="Helvetica,sans-Serif" font-size="10.00" fill="#000000">app_event.h</text>
</a>
</g>
</g>
<!-- Node0&#45;&gt;Node29 -->
<g id="edge34" class="edge">
<title>Node0&#45;&gt;Node29</title>
<path fill="none" stroke="#191970" d="M1050.8228,-220.4179C1057.8027,-212.5833 1068.0711,-201.0575 1076.5738,-191.5137"/>
<polygon fill="#191970" stroke="#191970" points="1079.4255,-193.5743 1083.4643,-183.7795 1074.1989,-188.9178 1079.4255,-193.5743"/>
</g>
<!-- Node32 -->
<g id="node33" class="node">
<title>Node32</title>
<g id="a_node33"><a xlink:href="app__events_2include_2app__event__string_8h.html" target="_top" xlink:title="app_event_string.h">
<polygon fill="#ffffff" stroke="#000000" points="1145.1997,-165.5 1145.1997,-183.5 1246.2632,-183.5 1246.2632,-165.5 1145.1997,-165.5"/>
<text text-anchor="middle" x="1195.7314" y="-171.5" font-family="Helvetica,sans-Serif" font-size="10.00" fill="#000000">app_event_string.h</text>
</a>
</g>
</g>
<!-- Node0&#45;&gt;Node32 -->
<g id="edge40" class="edge">
<title>Node0&#45;&gt;Node32</title>
<path fill="none" stroke="#191970" d="M1067.9963,-220.4179C1093.4308,-211.2748 1132.8496,-197.1046 1161.17,-186.924"/>
<polygon fill="#191970" stroke="#191970" points="1162.4569,-190.1808 1170.6834,-183.5042 1160.0889,-183.5935 1162.4569,-190.1808"/>
</g>
<!-- Node2 -->
<g id="node3" class="node">
<title>Node2</title>
<g id="a_node3"><a xlink:href="src_2include_2common_8h.html" target="_top" xlink:title="common.h">
<polygon fill="#ffffff" stroke="#000000" points="867.3892,-55.5 867.3892,-73.5 930.0737,-73.5 930.0737,-55.5 867.3892,-55.5"/>
<text text-anchor="middle" x="898.7314" y="-61.5" font-family="Helvetica,sans-Serif" font-size="10.00" fill="#000000">common.h</text>
</a>
</g>
</g>
<!-- Node1&#45;&gt;Node2 -->
<g id="edge2" class="edge">
<title>Node1&#45;&gt;Node2</title>
<path fill="none" stroke="#191970" d="M876.2629,-165.444C855.5549,-153.9468 826.2733,-132.8413 837.7314,-110 844.4349,-96.6371 857.1303,-86.1977 869.211,-78.7082"/>
<polygon fill="#191970" stroke="#191970" points="871.2765,-81.5589 878.2199,-73.5563 867.8015,-75.4823 871.2765,-81.5589"/>
</g>
<!-- Node25 -->
<g id="node26" class="node">
<title>Node25</title>
<g id="a_node26"><a xlink:href="src_2include_2context_8h.html" target="_top" xlink:title="context.h">
<polygon fill="#ffffff" stroke="#000000" points="963.4409,-110.5 963.4409,-128.5 1020.022,-128.5 1020.022,-110.5 963.4409,-110.5"/>
<text text-anchor="middle" x="991.7314" y="-116.5" font-family="Helvetica,sans-Serif" font-size="10.00" fill="#000000">context.h</text>
</a>
</g>
</g>
<!-- Node1&#45;&gt;Node25 -->
<g id="edge27" class="edge">
<title>Node1&#45;&gt;Node25</title>
<path fill="none" stroke="#191970" d="M910.749,-165.4179C925.9134,-156.8195 948.9185,-143.7754 966.5389,-133.7844"/>
<polygon fill="#191970" stroke="#191970" points="968.7175,-136.5727 975.6901,-128.5956 965.2648,-130.4834 968.7175,-136.5727"/>
</g>
<!-- Node26 -->
<g id="node27" class="node">
<title>Node26</title>
<g id="a_node27"><a xlink:href="hash_8h.html" target="_top" xlink:title="hash.h">
<polygon fill="#ffffff" stroke="#000000" points="846.7192,-110.5 846.7192,-128.5 892.7437,-128.5 892.7437,-110.5 846.7192,-110.5"/>
<text text-anchor="middle" x="869.7314" y="-116.5" font-family="Helvetica,sans-Serif" font-size="10.00" fill="#000000">hash.h</text>
</a>
</g>
</g>
<!-- Node1&#45;&gt;Node26 -->
<g id="edge29" class="edge">
<title>Node1&#45;&gt;Node26</title>
<path fill="none" stroke="#191970" d="M890.6032,-165.4179C887.2219,-157.9789 882.328,-147.2123 878.1288,-137.9742"/>
<polygon fill="#191970" stroke="#191970" points="881.2738,-136.4348 873.9494,-128.7795 874.9012,-139.3315 881.2738,-136.4348"/>
</g>
<!-- Node27 -->
<g id="node28" class="node">
<title>Node27</title>
<g id="a_node28"><a xlink:href="str_8h.html" target="_top" xlink:title="str.h">
<polygon fill="#ffffff" stroke="#000000" points="910.2808,-110.5 910.2808,-128.5 945.1821,-128.5 945.1821,-110.5 910.2808,-110.5"/>
<text text-anchor="middle" x="927.7314" y="-116.5" font-family="Helvetica,sans-Serif" font-size="10.00" fill="#000000">str.h</text>
</a>
</g>
</g>
<!-- Node1&#45;&gt;Node27 -->
<g id="edge31" class="edge">
<title>Node1&#45;&gt;Node27</title>
<path fill="none" stroke="#191970" d="M900.1807,-165.4179C904.739,-157.8207 911.3798,-146.7527 916.9995,-137.3866"/>
<polygon fill="#191970" stroke="#191970" points="920.02,-139.1552 922.1638,-128.7795 914.0175,-135.5536 920.02,-139.1552"/>
</g>
<!-- Node3 -->
<g id="node4" class="node">
<title>Node3</title>
<polygon fill="#ffffff" stroke="#bfbfbf" points="0,-.5 0,-18.5 45.4629,-18.5 45.4629,-.5 0,-.5"/>
<text text-anchor="middle" x="22.7314" y="-6.5" font-family="Helvetica,sans-Serif" font-size="10.00" fill="#000000">stdio.h</text>
</g>
<!-- Node2&#45;&gt;Node3 -->
<g id="edge3" class="edge">
<title>Node2&#45;&gt;Node3</title>
<path fill="none" stroke="#191970" d="M867.376,-63.8331C736.7038,-60.8999 234.3061,-48.0524 55.6361,-18.9046"/>
<polygon fill="#191970" stroke="#191970" points="56.0487,-15.4244 45.6018,-17.1886 54.8687,-22.3242 56.0487,-15.4244"/>
</g>
<!-- Node4 -->
<g id="node5" class="node">
<title>Node4</title>
<polygon fill="#ffffff" stroke="#bfbfbf" points="63.2192,-.5 63.2192,-18.5 114.2437,-18.5 114.2437,-.5 63.2192,-.5"/>
<text text-anchor="middle" x="88.7314" y="-6.5" font-family="Helvetica,sans-Serif" font-size="10.00" fill="#000000">unistd.h</text>
</g>
<!-- Node2&#45;&gt;Node4 -->
<g id="edge4" class="edge">
<title>Node2&#45;&gt;Node4</title>
<path fill="none" stroke="#191970" d="M867.0012,-63.5455C742.8019,-59.6721 288.8062,-44.1951 124.5234,-18.9396"/>
<polygon fill="#191970" stroke="#191970" points="125.0205,-15.4747 114.5912,-17.3404 123.9077,-22.3856 125.0205,-15.4747"/>
</g>
<!-- Node5 -->
<g id="node6" class="node">
<title>Node5</title>
<polygon fill="#ffffff" stroke="#bfbfbf" points="131.8892,-.5 131.8892,-18.5 179.5737,-18.5 179.5737,-.5 131.8892,-.5"/>
<text text-anchor="middle" x="155.7314" y="-6.5" font-family="Helvetica,sans-Serif" font-size="10.00" fill="#000000">stdlib.h</text>
</g>
<!-- Node2&#45;&gt;Node5 -->
<g id="edge5" class="edge">
<title>Node2&#45;&gt;Node5</title>
<path fill="none" stroke="#191970" d="M867.2849,-63.3902C750.5003,-59.1315 341.1032,-42.945 189.7585,-18.7433"/>
<polygon fill="#191970" stroke="#191970" points="190.183,-15.2657 179.7416,-17.0624 189.0245,-22.1692 190.183,-15.2657"/>
</g>
<!-- Node6 -->
<g id="node7" class="node">
<title>Node6</title>
<polygon fill="#ffffff" stroke="#bfbfbf" points="197.335,-.5 197.335,-18.5 246.1279,-18.5 246.1279,-.5 197.335,-.5"/>
<text text-anchor="middle" x="221.7314" y="-6.5" font-family="Helvetica,sans-Serif" font-size="10.00" fill="#000000">string.h</text>
</g>
<!-- Node2&#45;&gt;Node6 -->
<g id="edge6" class="edge">
<title>Node2&#45;&gt;Node6</title>
<path fill="none" stroke="#191970" d="M867.1727,-63.1486C757.6713,-58.3262 393.7491,-41.1512 256.7068,-18.9677"/>
<polygon fill="#191970" stroke="#191970" points="256.9122,-15.4524 246.4666,-17.2238 255.737,-22.353 256.9122,-15.4524"/>
</g>
<!-- Node7 -->
<g id="node8" class="node">
<title>Node7</title>
<polygon fill="#ffffff" stroke="#bfbfbf" points="263.665,-.5 263.665,-18.5 315.7979,-18.5 315.7979,-.5 263.665,-.5"/>
<text text-anchor="middle" x="289.7314" y="-6.5" font-family="Helvetica,sans-Serif" font-size="10.00" fill="#000000">stdarg.h</text>
</g>
<!-- Node2&#45;&gt;Node7 -->
<g id="edge7" class="edge">
<title>Node2&#45;&gt;Node7</title>
<path fill="none" stroke="#191970" d="M867.3658,-64.056C781.8402,-62.4141 537.3891,-54.8443 326.026,-18.9211"/>
<polygon fill="#191970" stroke="#191970" points="326.4364,-15.4402 315.9869,-17.1889 325.2462,-22.3383 326.4364,-15.4402"/>
</g>
<!-- Node8 -->
<g id="node9" class="node">
<title>Node8</title>
<polygon fill="#ffffff" stroke="#bfbfbf" points="333.6108,-.5 333.6108,-18.5 381.8521,-18.5 381.8521,-.5 333.6108,-.5"/>
<text text-anchor="middle" x="357.7314" y="-6.5" font-family="Helvetica,sans-Serif" font-size="10.00" fill="#000000">stdint.h</text>
</g>
<!-- Node2&#45;&gt;Node8 -->
<g id="edge8" class="edge">
<title>Node2&#45;&gt;Node8</title>
<path fill="none" stroke="#191970" d="M867.2316,-63.7653C788.4572,-61.4862 576.57,-52.6354 391.9955,-18.9158"/>
<polygon fill="#191970" stroke="#191970" points="392.5859,-15.4657 382.1151,-17.0818 391.3084,-22.3481 392.5859,-15.4657"/>
</g>
<!-- Node9 -->
<g id="node10" class="node">
<title>Node9</title>
<polygon fill="#ffffff" stroke="#bfbfbf" points="399.6035,-.5 399.6035,-18.5 457.8594,-18.5 457.8594,-.5 399.6035,-.5"/>
<text text-anchor="middle" x="428.7314" y="-6.5" font-family="Helvetica,sans-Serif" font-size="10.00" fill="#000000">pthread.h</text>
</g>
<!-- Node2&#45;&gt;Node9 -->
<g id="edge9" class="edge">
<title>Node2&#45;&gt;Node9</title>
<path fill="none" stroke="#191970" d="M867.3499,-62.7063C797.3708,-58.3847 623.1451,-45.842 468.2743,-19.0593"/>
<polygon fill="#191970" stroke="#191970" points="468.557,-15.5555 458.1025,-17.2746 467.3471,-22.4502 468.557,-15.5555"/>
</g>
<!-- Node10 -->
<g id="node11" class="node">
<title>Node10</title>
<polygon fill="#ffffff" stroke="#bfbfbf" points="475.6108,-.5 475.6108,-18.5 523.8521,-18.5 523.8521,-.5 475.6108,-.5"/>
<text text-anchor="middle" x="499.7314" y="-6.5" font-family="Helvetica,sans-Serif" font-size="10.00" fill="#000000">ctype.h</text>
</g>
<!-- Node2&#45;&gt;Node10 -->
<g id="edge10" class="edge">
<title>Node2&#45;&gt;Node10</title>
<path fill="none" stroke="#191970" d="M867.1281,-62.2477C805.0027,-57.4621 662.5309,-44.7188 534.1382,-19.0212"/>
<polygon fill="#191970" stroke="#191970" points="534.6308,-15.5498 524.1338,-16.9863 533.2355,-22.4093 534.6308,-15.5498"/>
</g>
<!-- Node11 -->
<g id="node12" class="node">
<title>Node11</title>
<polygon fill="#ffffff" stroke="#bfbfbf" points="541.8892,-.5 541.8892,-18.5 589.5737,-18.5 589.5737,-.5 541.8892,-.5"/>
<text text-anchor="middle" x="565.7314" y="-6.5" font-family="Helvetica,sans-Serif" font-size="10.00" fill="#000000">errno.h</text>
</g>
<!-- Node2&#45;&gt;Node11 -->
<g id="edge11" class="edge">
<title>Node2&#45;&gt;Node11</title>
<path fill="none" stroke="#191970" d="M867.2683,-61.1987C813.9256,-55.2891 702.2353,-41.5669 599.6477,-19.2098"/>
<polygon fill="#191970" stroke="#191970" points="600.2706,-15.7631 589.7505,-17.0193 598.7578,-22.5977 600.2706,-15.7631"/>
</g>
<!-- Node12 -->
<g id="node13" class="node">
<title>Node12</title>
<polygon fill="#ffffff" stroke="#bfbfbf" points="607.1035,-.5 607.1035,-18.5 670.3594,-18.5 670.3594,-.5 607.1035,-.5"/>
<text text-anchor="middle" x="638.7314" y="-6.5" font-family="Helvetica,sans-Serif" font-size="10.00" fill="#000000">arpa/inet.h</text>
</g>
<!-- Node2&#45;&gt;Node12 -->
<g id="edge12" class="edge">
<title>Node2&#45;&gt;Node12</title>
<path fill="none" stroke="#191970" d="M867.1313,-58.1705C826.3493,-49.9503 752.9519,-34.9821 680.2804,-19.0829"/>
<polygon fill="#191970" stroke="#191970" points="681.0172,-15.6614 670.4994,-16.9363 679.5166,-22.4987 681.0172,-15.6614"/>
</g>
<!-- Node13 -->
<g id="node14" class="node">
<title>Node13</title>
<polygon fill="#ffffff" stroke="#bfbfbf" points="688.2686,-.5 688.2686,-18.5 753.1943,-18.5 753.1943,-.5 688.2686,-.5"/>
<text text-anchor="middle" x="720.7314" y="-6.5" font-family="Helvetica,sans-Serif" font-size="10.00" fill="#000000">netinet/in.h</text>
</g>
<!-- Node2&#45;&gt;Node13 -->
<g id="edge13" class="edge">
<title>Node2&#45;&gt;Node13</title>
<path fill="none" stroke="#191970" d="M869.3384,-55.4179C839.3603,-46.155 792.6838,-31.7325 759.6519,-21.526"/>
<polygon fill="#191970" stroke="#191970" points="760.4599,-18.1124 749.8723,-18.5042 758.3934,-24.8005 760.4599,-18.1124"/>
</g>
<!-- Node14 -->
<g id="node15" class="node">
<title>Node14</title>
<polygon fill="#ffffff" stroke="#bfbfbf" points="770.8745,-.5 770.8745,-18.5 848.5884,-18.5 848.5884,-.5 770.8745,-.5"/>
<text text-anchor="middle" x="809.7314" y="-6.5" font-family="Helvetica,sans-Serif" font-size="10.00" fill="#000000">net/ethernet.h</text>
</g>
<!-- Node2&#45;&gt;Node14 -->
<g id="edge14" class="edge">
<title>Node2&#45;&gt;Node14</title>
<path fill="none" stroke="#191970" d="M884.0349,-55.4179C870.2501,-46.8992 849.4037,-34.0166 833.2966,-24.0627"/>
<polygon fill="#191970" stroke="#191970" points="834.7965,-20.8753 824.4498,-18.5956 831.1166,-26.83 834.7965,-20.8753"/>
</g>
<!-- Node15 -->
<g id="node16" class="node">
<title>Node15</title>
<polygon fill="#ffffff" stroke="#bfbfbf" points="866.2686,-.5 866.2686,-18.5 931.1943,-18.5 931.1943,-.5 866.2686,-.5"/>
<text text-anchor="middle" x="898.7314" y="-6.5" font-family="Helvetica,sans-Serif" font-size="10.00" fill="#000000">netinet/ip.h</text>
</g>
<!-- Node2&#45;&gt;Node15 -->
<g id="edge15" class="edge">
<title>Node2&#45;&gt;Node15</title>
<path fill="none" stroke="#191970" d="M898.7314,-55.4179C898.7314,-48.2164 898.7314,-37.8962 898.7314,-28.8632"/>
<polygon fill="#191970" stroke="#191970" points="902.2315,-28.7794 898.7314,-18.7795 895.2315,-28.7795 902.2315,-28.7794"/>
</g>
<!-- Node16 -->
<g id="node17" class="node">
<title>Node16</title>
<polygon fill="#ffffff" stroke="#bfbfbf" points="949.4902,-.5 949.4902,-18.5 1019.9727,-18.5 1019.9727,-.5 949.4902,-.5"/>
<text text-anchor="middle" x="984.7314" y="-6.5" font-family="Helvetica,sans-Serif" font-size="10.00" fill="#000000">netinet/tcp.h</text>
</g>
<!-- Node2&#45;&gt;Node16 -->
<g id="edge16" class="edge">
<title>Node2&#45;&gt;Node16</title>
<path fill="none" stroke="#191970" d="M912.9326,-55.4179C926.2528,-46.8992 946.3965,-34.0166 961.9606,-24.0627"/>
<polygon fill="#191970" stroke="#191970" points="963.9704,-26.932 970.5092,-18.5956 960.199,-21.0348 963.9704,-26.932"/>
</g>
<!-- Node17 -->
<g id="node18" class="node">
<title>Node17</title>
<polygon fill="#ffffff" stroke="#bfbfbf" points="1037.9312,-.5 1037.9312,-18.5 1129.5317,-18.5 1129.5317,-.5 1037.9312,-.5"/>
<text text-anchor="middle" x="1083.7314" y="-6.5" font-family="Helvetica,sans-Serif" font-size="10.00" fill="#000000">netinet/ip_icmp.h</text>
</g>
<!-- Node2&#45;&gt;Node17 -->
<g id="edge17" class="edge">
<title>Node2&#45;&gt;Node17</title>
<path fill="none" stroke="#191970" d="M929.2804,-55.4179C960.5717,-46.115 1009.3681,-31.608 1043.7235,-21.3943"/>
<polygon fill="#191970" stroke="#191970" points="1044.8566,-24.7089 1053.4446,-18.5042 1042.8618,-17.9991 1044.8566,-24.7089"/>
</g>
<!-- Node18 -->
<g id="node19" class="node">
<title>Node18</title>
<polygon fill="#ffffff" stroke="#bfbfbf" points="1147.3276,-.5 1147.3276,-18.5 1206.1353,-18.5 1206.1353,-.5 1147.3276,-.5"/>
<text text-anchor="middle" x="1176.7314" y="-6.5" font-family="Helvetica,sans-Serif" font-size="10.00" fill="#000000">jansson.h</text>
</g>
<!-- Node2&#45;&gt;Node18 -->
<g id="edge18" class="edge">
<title>Node2&#45;&gt;Node18</title>
<path fill="none" stroke="#191970" d="M930.2989,-59.1132C974.4135,-51.4556 1057.2248,-36.6108 1137.0851,-19.2707"/>
<polygon fill="#191970" stroke="#191970" points="1138.2919,-22.5895 1147.3124,-17.0325 1136.7954,-15.7514 1138.2919,-22.5895"/>
</g>
<!-- Node19 -->
<g id="node20" class="node">
<title>Node19</title>
<polygon fill="#ffffff" stroke="#bfbfbf" points="1223.8374,-.5 1223.8374,-18.5 1267.6255,-18.5 1267.6255,-.5 1223.8374,-.5"/>
<text text-anchor="middle" x="1245.7314" y="-6.5" font-family="Helvetica,sans-Serif" font-size="10.00" fill="#000000">libcli.h</text>
</g>
<!-- Node2&#45;&gt;Node19 -->
<g id="edge19" class="edge">
<title>Node2&#45;&gt;Node19</title>
<path fill="none" stroke="#191970" d="M930.4202,-61.573C985.9978,-56.0887 1104.7379,-42.8096 1213.9662,-18.8672"/>
<polygon fill="#191970" stroke="#191970" points="1214.8285,-22.261 1223.8281,-16.6702 1213.3063,-15.4285 1214.8285,-22.261"/>
</g>
<!-- Node20 -->
<g id="node21" class="node">
<title>Node20</title>
<polygon fill="#ffffff" stroke="#bfbfbf" points="1286.1157,-.5 1286.1157,-18.5 1329.3472,-18.5 1329.3472,-.5 1286.1157,-.5"/>
<text text-anchor="middle" x="1307.7314" y="-6.5" font-family="Helvetica,sans-Serif" font-size="10.00" fill="#000000">zmq.h</text>
</g>
<!-- Node2&#45;&gt;Node20 -->
<g id="edge20" class="edge">
<title>Node2&#45;&gt;Node20</title>
<path fill="none" stroke="#191970" d="M930.4037,-62.5943C994.1476,-58.3524 1142.5075,-46.4283 1275.8604,-18.8356"/>
<polygon fill="#191970" stroke="#191970" points="1276.7775,-22.2194 1285.8421,-16.7346 1275.3356,-15.3695 1276.7775,-22.2194"/>
</g>
<!-- Node21 -->
<g id="node22" class="node">
<title>Node21</title>
<g id="a_node22"><a xlink:href="mac2int_8h.html" target="_top" xlink:title="mac2int.h">
<polygon fill="#ffffff" stroke="#000000" points="1347.0542,-.5 1347.0542,-18.5 1406.4087,-18.5 1406.4087,-.5 1347.0542,-.5"/>
<text text-anchor="middle" x="1376.7314" y="-6.5" font-family="Helvetica,sans-Serif" font-size="10.00" fill="#000000">mac2int.h</text>
</a>
</g>
</g>
<!-- Node2&#45;&gt;Node21 -->
<g id="edge21" class="edge">
<title>Node2&#45;&gt;Node21</title>
<path fill="none" stroke="#191970" d="M930.2461,-62.4855C1001.8634,-57.9197 1181.2949,-45.0935 1329.7314,-19 1332.0484,-18.5927 1334.433,-18.122 1336.847,-17.6125"/>
<polygon fill="#191970" stroke="#191970" points="1337.8509,-20.9741 1346.8375,-15.3623 1336.3128,-14.1452 1337.8509,-20.9741"/>
</g>
<!-- Node22 -->
<g id="node23" class="node">
<title>Node22</title>
<g id="a_node23"><a xlink:href="ip2int_8h.html" target="_top" xlink:title="ip2int.h">
<polygon fill="#ffffff" stroke="#000000" points="1424.6084,-.5 1424.6084,-18.5 1472.8545,-18.5 1472.8545,-.5 1424.6084,-.5"/>
<text text-anchor="middle" x="1448.7314" y="-6.5" font-family="Helvetica,sans-Serif" font-size="10.00" fill="#000000">ip2int.h</text>
</a>
</g>
</g>
<!-- Node2&#45;&gt;Node22 -->
<g id="edge23" class="edge">
<title>Node2&#45;&gt;Node22</title>
<path fill="none" stroke="#191970" d="M930.1693,-63.7092C1010.4296,-61.3361 1228.2383,-52.226 1406.7314,-19 1409.3342,-18.5155 1412.0269,-17.9133 1414.747,-17.2487"/>
<polygon fill="#191970" stroke="#191970" points="1415.8183,-20.5862 1424.6057,-14.6675 1414.0453,-13.8145 1415.8183,-20.5862"/>
</g>
<!-- Node23 -->
<g id="node24" class="node">
<title>Node23</title>
<g id="a_node24"><a xlink:href="src_2include_2type_8h.html" target="_top" xlink:title="type.h">
<polygon fill="#ffffff" stroke="#000000" points="1552.1108,-.5 1552.1108,-18.5 1595.3521,-18.5 1595.3521,-.5 1552.1108,-.5"/>
<text text-anchor="middle" x="1573.7314" y="-6.5" font-family="Helvetica,sans-Serif" font-size="10.00" fill="#000000">type.h</text>
</a>
</g>
</g>
<!-- Node2&#45;&gt;Node23 -->
<g id="edge25" class="edge">
<title>Node2&#45;&gt;Node23</title>
<path fill="none" stroke="#191970" d="M930.3592,-63.2591C1040.0969,-58.8034 1404.7785,-42.7027 1541.7009,-18.9331"/>
<polygon fill="#191970" stroke="#191970" points="1542.724,-22.304 1551.9299,-17.0598 1541.463,-15.4185 1542.724,-22.304"/>
</g>
<!-- Node24 -->
<g id="node25" class="node">
<title>Node24</title>
<polygon fill="#ffffff" stroke="#bfbfbf" points="1491.1157,-.5 1491.1157,-18.5 1534.3472,-18.5 1534.3472,-.5 1491.1157,-.5"/>
<text text-anchor="middle" x="1512.7314" y="-6.5" font-family="Helvetica,sans-Serif" font-size="10.00" fill="#000000">time.h</text>
</g>
<!-- Node2&#45;&gt;Node24 -->
<g id="edge26" class="edge">
<title>Node2&#45;&gt;Node24</title>
<path fill="none" stroke="#191970" d="M930.1852,-62.9576C1032.5114,-57.8009 1356.0208,-40.3704 1480.8207,-18.6896"/>
<polygon fill="#191970" stroke="#191970" points="1481.6591,-22.0944 1490.8655,-16.8512 1480.3988,-15.2088 1481.6591,-22.0944"/>
</g>
<!-- Node21&#45;&gt;Node2 -->
<g id="edge22" class="edge">
<title>Node21&#45;&gt;Node2</title>
<path fill="none" stroke="#191970" d="M1350.1636,-18.5543C1349.347,-18.7098 1348.5352,-18.8587 1347.7314,-19 1199.3392,-45.0857 1019.9706,-57.912 940.2082,-62.4814"/>
<polygon fill="#191970" stroke="#191970" points="939.8681,-58.9949 930.0789,-63.0474 940.2586,-65.984 939.8681,-58.9949"/>
</g>
<!-- Node22&#45;&gt;Node2 -->
<g id="edge24" class="edge">
<title>Node22&#45;&gt;Node2</title>
<path fill="none" stroke="#191970" d="M1427.2151,-18.5084C1426.3815,-18.6828 1425.552,-18.8473 1424.7314,-19 1246.8587,-52.1105 1029.9434,-61.2725 940.3249,-63.6842"/>
<polygon fill="#191970" stroke="#191970" points="940.1964,-60.1862 930.2888,-63.94 940.3748,-67.1839 940.1964,-60.1862"/>
</g>
<!-- Node25&#45;&gt;Node2 -->
<g id="edge28" class="edge">
<title>Node25&#45;&gt;Node2</title>
<path fill="none" stroke="#191970" d="M976.3744,-110.4179C961.8354,-101.8195 939.7789,-88.7754 922.8851,-78.7844"/>
<polygon fill="#191970" stroke="#191970" points="924.5004,-75.6735 914.1113,-73.5956 920.9371,-81.6987 924.5004,-75.6735"/>
</g>
<!-- Node26&#45;&gt;Node2 -->
<g id="edge30" class="edge">
<title>Node26&#45;&gt;Node2</title>
<path fill="none" stroke="#191970" d="M874.5202,-110.4179C878.4843,-102.8998 884.2405,-91.9829 889.1457,-82.6799"/>
<polygon fill="#191970" stroke="#191970" points="892.2705,-84.2576 893.8386,-73.7795 886.0785,-80.9927 892.2705,-84.2576"/>
</g>
<!-- Node27&#45;&gt;Node2 -->
<g id="edge32" class="edge">
<title>Node27&#45;&gt;Node2</title>
<path fill="none" stroke="#191970" d="M922.9427,-110.4179C918.9786,-102.8998 913.2224,-91.9829 908.3172,-82.6799"/>
<polygon fill="#191970" stroke="#191970" points="911.3844,-80.9927 903.6242,-73.7795 905.1924,-84.2576 911.3844,-80.9927"/>
</g>
<!-- Node29&#45;&gt;Node2 -->
<g id="edge35" class="edge">
<title>Node29&#45;&gt;Node2</title>
<path fill="none" stroke="#191970" d="M1085.0066,-165.2826C1074.4672,-151.4454 1052.7635,-125.2995 1028.7314,-110 1001.4551,-92.6351 966.7224,-80.9199 940.0211,-73.731"/>
<polygon fill="#191970" stroke="#191970" points="940.7708,-70.3098 930.2131,-71.195 939.0185,-77.0869 940.7708,-70.3098"/>
</g>
<!-- Node29&#45;&gt;Node25 -->
<g id="edge36" class="edge">
<title>Node29&#45;&gt;Node25</title>
<path fill="none" stroke="#191970" d="M1075.2185,-165.4179C1059.4404,-156.7399 1035.4286,-143.5334 1017.2,-133.5077"/>
<polygon fill="#191970" stroke="#191970" points="1018.7178,-130.3481 1008.2689,-128.5956 1015.3444,-136.4816 1018.7178,-130.3481"/>
</g>
<!-- Node30 -->
<g id="node31" class="node">
<title>Node30</title>
<g id="a_node31"><a xlink:href="app__events_2include_2app__event__id_8h.html" target="_top" xlink:title="app_event_id.h">
<polygon fill="#ffffff" stroke="#000000" points="1075.5347,-110.5 1075.5347,-128.5 1159.9282,-128.5 1159.9282,-110.5 1075.5347,-110.5"/>
<text text-anchor="middle" x="1117.7314" y="-116.5" font-family="Helvetica,sans-Serif" font-size="10.00" fill="#000000">app_event_id.h</text>
</a>
</g>
</g>
<!-- Node29&#45;&gt;Node30 -->
<g id="edge37" class="edge">
<title>Node29&#45;&gt;Node30</title>
<path fill="none" stroke="#191970" d="M1096.0248,-165.4179C1099.5414,-157.9789 1104.6311,-147.2123 1108.9982,-137.9742"/>
<polygon fill="#191970" stroke="#191970" points="1112.2352,-139.316 1113.3448,-128.7795 1105.9067,-136.3243 1112.2352,-139.316"/>
</g>
<!-- Node31 -->
<g id="node32" class="node">
<title>Node31</title>
<g id="a_node32"><a xlink:href="app__events_2include_2app__event__list_8h.html" target="_top" xlink:title="app_event_list.h">
<polygon fill="#ffffff" stroke="#000000" points="1439.3154,-55.5 1439.3154,-73.5 1528.1475,-73.5 1528.1475,-55.5 1439.3154,-55.5"/>
<text text-anchor="middle" x="1483.7314" y="-61.5" font-family="Helvetica,sans-Serif" font-size="10.00" fill="#000000">app_event_list.h</text>
</a>
</g>
</g>
<!-- Node29&#45;&gt;Node31 -->
<g id="edge38" class="edge">
<title>Node29&#45;&gt;Node31</title>
<path fill="none" stroke="#191970" d="M1123.8105,-165.4982C1194.2466,-145.733 1362.4252,-98.54 1441.4031,-76.3779"/>
<polygon fill="#191970" stroke="#191970" points="1442.8021,-79.6205 1451.4846,-73.5489 1440.9108,-72.8809 1442.8021,-79.6205"/>
</g>
<!-- Node31&#45;&gt;Node23 -->
<g id="edge39" class="edge">
<title>Node31&#45;&gt;Node23</title>
<path fill="none" stroke="#191970" d="M1498.5931,-55.4179C1512.5328,-46.8992 1533.6134,-34.0166 1549.9015,-24.0627"/>
<polygon fill="#191970" stroke="#191970" points="1552.14,-26.7967 1558.8477,-18.5956 1548.4898,-20.8237 1552.14,-26.7967"/>
</g>
</g>
</svg>
