<?xml version="1.0" encoding="UTF-8" standalone="no"?>
<!DOCTYPE svg PUBLIC "-//W3C//DTD SVG 1.1//EN"
 "http://www.w3.org/Graphics/SVG/1.1/DTD/svg11.dtd">
<!-- Generated by graphviz version 2.40.1 (20161225.0304)
 -->
<!-- Title: components/include/arr_queue.h Pages: 1 -->
<svg width="120pt" height="157pt"
 viewBox="0.00 0.00 120.16 157.00" xmlns="http://www.w3.org/2000/svg" xmlns:xlink="http://www.w3.org/1999/xlink">
<g id="graph0" class="graph" transform="scale(1 1) rotate(0) translate(4 153)">
<title>components/include/arr_queue.h</title>
<polygon fill="#ffffff" stroke="transparent" points="-4,4 -4,-153 116.1572,-153 116.1572,4 -4,4"/>
<!-- Node1 -->
<g id="node1" class="node">
<title>Node1</title>
<polygon fill="#bfbfbf" stroke="#000000" points="3.606,-120.5 3.606,-148.5 108.5513,-148.5 108.5513,-120.5 3.606,-120.5"/>
<text text-anchor="start" x="11.606" y="-136.5" font-family="Helvetica,sans-Serif" font-size="10.00" fill="#000000">components/include</text>
<text text-anchor="middle" x="56.0786" y="-126.5" font-family="Helvetica,sans-Serif" font-size="10.00" fill="#000000">/arr_queue.h</text>
</g>
<!-- Node2 -->
<g id="node2" class="node">
<title>Node2</title>
<g id="a_node2"><a xlink:href="conflict_8h.html" target="_top" xlink:title="components/include\l/conflict.h">
<polygon fill="#ffffff" stroke="#000000" points="3.606,-55.5 3.606,-83.5 108.5513,-83.5 108.5513,-55.5 3.606,-55.5"/>
<text text-anchor="start" x="11.606" y="-71.5" font-family="Helvetica,sans-Serif" font-size="10.00" fill="#000000">components/include</text>
<text text-anchor="middle" x="56.0786" y="-61.5" font-family="Helvetica,sans-Serif" font-size="10.00" fill="#000000">/conflict.h</text>
</a>
</g>
</g>
<!-- Node1&#45;&gt;Node2 -->
<g id="edge1" class="edge">
<title>Node1&#45;&gt;Node2</title>
<path fill="none" stroke="#191970" d="M56.0786,-110.1081C56.0786,-101.1539 56.0786,-91.3227 56.0786,-83.5765"/>
<polygon fill="#191970" stroke="#191970" points="52.5787,-110.3959 56.0786,-120.396 59.5787,-110.396 52.5787,-110.3959"/>
</g>
<!-- Node3 -->
<g id="node3" class="node">
<title>Node3</title>
<g id="a_node3"><a xlink:href="conflict_8c.html" target="_top" xlink:title="components/conflict.c">
<polygon fill="#ffffff" stroke="#000000" points="0,-.5 0,-18.5 112.1572,-18.5 112.1572,-.5 0,-.5"/>
<text text-anchor="middle" x="56.0786" y="-6.5" font-family="Helvetica,sans-Serif" font-size="10.00" fill="#000000">components/conflict.c</text>
</a>
</g>
</g>
<!-- Node2&#45;&gt;Node3 -->
<g id="edge2" class="edge">
<title>Node2&#45;&gt;Node3</title>
<path fill="none" stroke="#191970" d="M56.0786,-45.2151C56.0786,-35.8253 56.0786,-25.6598 56.0786,-18.5842"/>
<polygon fill="#191970" stroke="#191970" points="52.5787,-45.2808 56.0786,-55.2808 59.5787,-45.2809 52.5787,-45.2808"/>
</g>
</g>
</svg>
