<?xml version="1.0" encoding="UTF-8" standalone="no"?>
<!DOCTYPE svg PUBLIC "-//W3C//DTD SVG 1.1//EN"
 "http://www.w3.org/Graphics/SVG/1.1/DTD/svg11.dtd">
<!-- Generated by graphviz version 2.40.1 (20161225.0304)
 -->
<!-- Title: util/include/base64.h Pages: 1 -->
<svg width="905pt" height="212pt"
 viewBox="0.00 0.00 904.56 212.00" xmlns="http://www.w3.org/2000/svg" xmlns:xlink="http://www.w3.org/1999/xlink">
<g id="graph0" class="graph" transform="scale(1 1) rotate(0) translate(4 208)">
<title>util/include/base64.h</title>
<polygon fill="#ffffff" stroke="transparent" points="-4,4 -4,-208 900.561,-208 900.561,4 -4,4"/>
<!-- Node22 -->
<g id="node1" class="node">
<title>Node22</title>
<polygon fill="#bfbfbf" stroke="#000000" points="489.8989,-185.5 489.8989,-203.5 597.0757,-203.5 597.0757,-185.5 489.8989,-185.5"/>
<text text-anchor="middle" x="543.4873" y="-191.5" font-family="Helvetica,sans-Serif" font-size="10.00" fill="#000000">util/include/base64.h</text>
</g>
<!-- Node23 -->
<g id="node2" class="node">
<title>Node23</title>
<g id="a_node2"><a xlink:href="app__events_2include_2app__event__json_8h.html" target="_top" xlink:title="app_events/include\l/app_event_json.h">
<polygon fill="#ffffff" stroke="#000000" points="160.3989,-120.5 160.3989,-148.5 262.5757,-148.5 262.5757,-120.5 160.3989,-120.5"/>
<text text-anchor="start" x="168.3989" y="-136.5" font-family="Helvetica,sans-Serif" font-size="10.00" fill="#000000">app_events/include</text>
<text text-anchor="middle" x="211.4873" y="-126.5" font-family="Helvetica,sans-Serif" font-size="10.00" fill="#000000">/app_event_json.h</text>
</a>
</g>
</g>
<!-- Node22&#45;&gt;Node23 -->
<g id="edge1" class="edge">
<title>Node22&#45;&gt;Node23</title>
<path fill="none" stroke="#191970" d="M483.2306,-183.6102C420.1783,-172.2152 322.2559,-154.5184 262.7783,-143.7695"/>
<polygon fill="#191970" stroke="#191970" points="482.961,-187.1181 493.4241,-185.4524 484.206,-180.2297 482.961,-187.1181"/>
</g>
<!-- Node27 -->
<g id="node6" class="node">
<title>Node27</title>
<g id="a_node6"><a xlink:href="cluster_8h.html" target="_top" xlink:title="components/include\l/cluster.h">
<polygon fill="#ffffff" stroke="#000000" points="302.0146,-120.5 302.0146,-148.5 406.96,-148.5 406.96,-120.5 302.0146,-120.5"/>
<text text-anchor="start" x="310.0146" y="-136.5" font-family="Helvetica,sans-Serif" font-size="10.00" fill="#000000">components/include</text>
<text text-anchor="middle" x="354.4873" y="-126.5" font-family="Helvetica,sans-Serif" font-size="10.00" fill="#000000">/cluster.h</text>
</a>
</g>
</g>
<!-- Node22&#45;&gt;Node27 -->
<g id="edge5" class="edge">
<title>Node22&#45;&gt;Node27</title>
<path fill="none" stroke="#191970" d="M505.2342,-182.3562C474.3718,-172.5586 430.9268,-158.7665 398.6,-148.504"/>
<polygon fill="#191970" stroke="#191970" points="504.192,-185.6974 514.7823,-185.3873 506.3101,-179.0255 504.192,-185.6974"/>
</g>
<!-- Node29 -->
<g id="node8" class="node">
<title>Node29</title>
<g id="a_node8"><a xlink:href="events_2include_2event__json_8h.html" target="_top" xlink:title="events/include/event\l_json.h">
<polygon fill="#ffffff" stroke="#000000" points="425.9014,-120.5 425.9014,-148.5 533.0732,-148.5 533.0732,-120.5 425.9014,-120.5"/>
<text text-anchor="start" x="433.9014" y="-136.5" font-family="Helvetica,sans-Serif" font-size="10.00" fill="#000000">events/include/event</text>
<text text-anchor="middle" x="479.4873" y="-126.5" font-family="Helvetica,sans-Serif" font-size="10.00" fill="#000000">_json.h</text>
</a>
</g>
</g>
<!-- Node22&#45;&gt;Node29 -->
<g id="edge7" class="edge">
<title>Node22&#45;&gt;Node29</title>
<path fill="none" stroke="#191970" d="M526.1991,-178.2923C516.3987,-169.1044 504.2449,-157.7103 494.7915,-148.8477"/>
<polygon fill="#191970" stroke="#191970" points="524.0779,-181.1012 533.7671,-185.3873 528.8655,-175.9945 524.0779,-181.1012"/>
</g>
<!-- Node33 -->
<g id="node12" class="node">
<title>Node33</title>
<g id="a_node12"><a xlink:href="ext__apps_2shim_2include_2app__event__json_8h.html" target="_top" xlink:title="ext_apps/shim/include\l/app_event_json.h">
<polygon fill="#ffffff" stroke="#000000" points="551.0146,-120.5 551.0146,-148.5 665.96,-148.5 665.96,-120.5 551.0146,-120.5"/>
<text text-anchor="start" x="559.0146" y="-136.5" font-family="Helvetica,sans-Serif" font-size="10.00" fill="#000000">ext_apps/shim/include</text>
<text text-anchor="middle" x="608.4873" y="-126.5" font-family="Helvetica,sans-Serif" font-size="10.00" fill="#000000">/app_event_json.h</text>
</a>
</g>
</g>
<!-- Node22&#45;&gt;Node33 -->
<g id="edge11" class="edge">
<title>Node22&#45;&gt;Node33</title>
<path fill="none" stroke="#191970" d="M560.7477,-178.5673C570.7521,-169.3325 583.2468,-157.7989 592.944,-148.8477"/>
<polygon fill="#191970" stroke="#191970" points="558.3335,-176.0326 553.3594,-185.3873 563.0815,-181.1763 558.3335,-176.0326"/>
</g>
<!-- Node34 -->
<g id="node13" class="node">
<title>Node34</title>
<g id="a_node13"><a xlink:href="ext__comps_2shim_2include_2event__json_8h.html" target="_top" xlink:title="ext_comps/shim/include\l/event_json.h">
<polygon fill="#ffffff" stroke="#000000" points="684.1304,-120.5 684.1304,-148.5 806.8442,-148.5 806.8442,-120.5 684.1304,-120.5"/>
<text text-anchor="start" x="692.1304" y="-136.5" font-family="Helvetica,sans-Serif" font-size="10.00" fill="#000000">ext_comps/shim/include</text>
<text text-anchor="middle" x="745.4873" y="-126.5" font-family="Helvetica,sans-Serif" font-size="10.00" fill="#000000">/event_json.h</text>
</a>
</g>
</g>
<!-- Node22&#45;&gt;Node34 -->
<g id="edge12" class="edge">
<title>Node22&#45;&gt;Node34</title>
<path fill="none" stroke="#191970" d="M583.944,-182.4832C616.9545,-172.6781 663.6405,-158.8109 698.3404,-148.504"/>
<polygon fill="#191970" stroke="#191970" points="582.7562,-179.1848 574.1668,-185.3873 584.7494,-185.895 582.7562,-179.1848"/>
</g>
<!-- Node35 -->
<g id="node14" class="node">
<title>Node35</title>
<g id="a_node14"><a xlink:href="base64_8c.html" target="_top" xlink:title="util/base64.c">
<polygon fill="#ffffff" stroke="#000000" points="824.4136,-125.5 824.4136,-143.5 896.561,-143.5 896.561,-125.5 824.4136,-125.5"/>
<text text-anchor="middle" x="860.4873" y="-131.5" font-family="Helvetica,sans-Serif" font-size="10.00" fill="#000000">util/base64.c</text>
</a>
</g>
</g>
<!-- Node22&#45;&gt;Node35 -->
<g id="edge13" class="edge">
<title>Node22&#45;&gt;Node35</title>
<path fill="none" stroke="#191970" d="M607.1506,-186.5291C662.6152,-178.9498 744.9779,-166.16 815.4873,-149 821.708,-147.4861 828.3155,-145.5486 834.4966,-143.5862"/>
<polygon fill="#191970" stroke="#191970" points="606.558,-183.0772 597.1161,-187.8835 607.4944,-190.0143 606.558,-183.0772"/>
</g>
<!-- Node24 -->
<g id="node3" class="node">
<title>Node24</title>
<g id="a_node3"><a xlink:href="app__event__msg__pack_8h.html" target="_top" xlink:title="app_events/include\l/app_event_msg_pack.h">
<polygon fill="#ffffff" stroke="#000000" points=".0049,-55.5 .0049,-83.5 124.9697,-83.5 124.9697,-55.5 .0049,-55.5"/>
<text text-anchor="start" x="8.0049" y="-71.5" font-family="Helvetica,sans-Serif" font-size="10.00" fill="#000000">app_events/include</text>
<text text-anchor="middle" x="62.4873" y="-61.5" font-family="Helvetica,sans-Serif" font-size="10.00" fill="#000000">/app_event_msg_pack.h</text>
</a>
</g>
</g>
<!-- Node23&#45;&gt;Node24 -->
<g id="edge2" class="edge">
<title>Node23&#45;&gt;Node24</title>
<path fill="none" stroke="#191970" d="M169.6955,-116.2687C145.9637,-105.9159 116.7069,-93.1528 94.755,-83.5765"/>
<polygon fill="#191970" stroke="#191970" points="168.5912,-119.6054 179.1565,-120.396 171.3902,-113.1894 168.5912,-119.6054"/>
</g>
<!-- Node26 -->
<g id="node5" class="node">
<title>Node26</title>
<g id="a_node5"><a xlink:href="ext__apps_2shim_2app__event_8c.html" target="_top" xlink:title="ext_apps/shim/app_event.c">
<polygon fill="#ffffff" stroke="#000000" points="142.6157,-60.5 142.6157,-78.5 280.3589,-78.5 280.3589,-60.5 142.6157,-60.5"/>
<text text-anchor="middle" x="211.4873" y="-66.5" font-family="Helvetica,sans-Serif" font-size="10.00" fill="#000000">ext_apps/shim/app_event.c</text>
</a>
</g>
</g>
<!-- Node23&#45;&gt;Node26 -->
<g id="edge4" class="edge">
<title>Node23&#45;&gt;Node26</title>
<path fill="none" stroke="#191970" d="M211.4873,-110.3747C211.4873,-99.2832 211.4873,-86.7952 211.4873,-78.5743"/>
<polygon fill="#191970" stroke="#191970" points="207.9874,-110.3959 211.4873,-120.396 214.9874,-110.396 207.9874,-110.3959"/>
</g>
<!-- Node25 -->
<g id="node4" class="node">
<title>Node25</title>
<g id="a_node4"><a xlink:href="app__events_2app__event_8c.html" target="_top" xlink:title="app_events/app_event.c">
<polygon fill="#ffffff" stroke="#000000" points="0,-.5 0,-18.5 124.9746,-18.5 124.9746,-.5 0,-.5"/>
<text text-anchor="middle" x="62.4873" y="-6.5" font-family="Helvetica,sans-Serif" font-size="10.00" fill="#000000">app_events/app_event.c</text>
</a>
</g>
</g>
<!-- Node24&#45;&gt;Node25 -->
<g id="edge3" class="edge">
<title>Node24&#45;&gt;Node25</title>
<path fill="none" stroke="#191970" d="M62.4873,-45.2151C62.4873,-35.8253 62.4873,-25.6598 62.4873,-18.5842"/>
<polygon fill="#191970" stroke="#191970" points="58.9874,-45.2808 62.4873,-55.2808 65.9874,-45.2809 58.9874,-45.2808"/>
</g>
<!-- Node28 -->
<g id="node7" class="node">
<title>Node28</title>
<g id="a_node7"><a xlink:href="cluster_8c.html" target="_top" xlink:title="components/cluster.c">
<polygon fill="#ffffff" stroke="#000000" points="298.5171,-60.5 298.5171,-78.5 408.4575,-78.5 408.4575,-60.5 298.5171,-60.5"/>
<text text-anchor="middle" x="353.4873" y="-66.5" font-family="Helvetica,sans-Serif" font-size="10.00" fill="#000000">components/cluster.c</text>
</a>
</g>
</g>
<!-- Node27&#45;&gt;Node28 -->
<g id="edge6" class="edge">
<title>Node27&#45;&gt;Node28</title>
<path fill="none" stroke="#191970" d="M354.1161,-110.3747C353.9455,-99.2832 353.7534,-86.7952 353.6269,-78.5743"/>
<polygon fill="#191970" stroke="#191970" points="350.6168,-110.451 354.2703,-120.396 357.616,-110.3433 350.6168,-110.451"/>
</g>
<!-- Node30 -->
<g id="node9" class="node">
<title>Node30</title>
<g id="a_node9"><a xlink:href="event__msg__pack_8h.html" target="_top" xlink:title="events/include/event\l_msg_pack.h">
<polygon fill="#ffffff" stroke="#000000" points="426.9014,-55.5 426.9014,-83.5 534.0732,-83.5 534.0732,-55.5 426.9014,-55.5"/>
<text text-anchor="start" x="434.9014" y="-71.5" font-family="Helvetica,sans-Serif" font-size="10.00" fill="#000000">events/include/event</text>
<text text-anchor="middle" x="480.4873" y="-61.5" font-family="Helvetica,sans-Serif" font-size="10.00" fill="#000000">_msg_pack.h</text>
</a>
</g>
</g>
<!-- Node29&#45;&gt;Node30 -->
<g id="edge8" class="edge">
<title>Node29&#45;&gt;Node30</title>
<path fill="none" stroke="#191970" d="M479.8626,-110.1081C480.0003,-101.1539 480.1516,-91.3227 480.2707,-83.5765"/>
<polygon fill="#191970" stroke="#191970" points="476.3586,-110.3433 479.7043,-120.396 483.3578,-110.451 476.3586,-110.3433"/>
</g>
<!-- Node32 -->
<g id="node11" class="node">
<title>Node32</title>
<g id="a_node11"><a xlink:href="ext__comps_2shim_2event_8c.html" target="_top" xlink:title="ext_comps/shim/event.c">
<polygon fill="#ffffff" stroke="#000000" points="551.8545,-60.5 551.8545,-78.5 675.1201,-78.5 675.1201,-60.5 551.8545,-60.5"/>
<text text-anchor="middle" x="613.4873" y="-66.5" font-family="Helvetica,sans-Serif" font-size="10.00" fill="#000000">ext_comps/shim/event.c</text>
</a>
</g>
</g>
<!-- Node29&#45;&gt;Node32 -->
<g id="edge10" class="edge">
<title>Node29&#45;&gt;Node32</title>
<path fill="none" stroke="#191970" d="M517.8615,-115.8856C543.0751,-103.6552 574.9497,-88.1936 594.7803,-78.5743"/>
<polygon fill="#191970" stroke="#191970" points="516.0331,-112.8825 508.5633,-120.396 519.0882,-119.1806 516.0331,-112.8825"/>
</g>
<!-- Node31 -->
<g id="node10" class="node">
<title>Node31</title>
<g id="a_node10"><a xlink:href="events_2event_8c.html" target="_top" xlink:title="events/event.c">
<polygon fill="#ffffff" stroke="#000000" points="440.2461,-.5 440.2461,-18.5 520.7285,-18.5 520.7285,-.5 440.2461,-.5"/>
<text text-anchor="middle" x="480.4873" y="-6.5" font-family="Helvetica,sans-Serif" font-size="10.00" fill="#000000">events/event.c</text>
</a>
</g>
</g>
<!-- Node30&#45;&gt;Node31 -->
<g id="edge9" class="edge">
<title>Node30&#45;&gt;Node31</title>
<path fill="none" stroke="#191970" d="M480.4873,-45.2151C480.4873,-35.8253 480.4873,-25.6598 480.4873,-18.5842"/>
<polygon fill="#191970" stroke="#191970" points="476.9874,-45.2808 480.4873,-55.2808 483.9874,-45.2809 476.9874,-45.2808"/>
</g>
</g>
</svg>
