<?xml version="1.0" encoding="UTF-8" standalone="no"?>
<!DOCTYPE svg PUBLIC "-//W3C//DTD SVG 1.1//EN"
 "http://www.w3.org/Graphics/SVG/1.1/DTD/svg11.dtd">
<!-- Generated by graphviz version 2.40.1 (20161225.0304)
 -->
<!-- Title: components/cac.c Pages: 1 -->
<svg width="2425pt" height="357pt"
 viewBox="0.00 0.00 2424.62 357.00" xmlns="http://www.w3.org/2000/svg" xmlns:xlink="http://www.w3.org/1999/xlink">
<g id="graph0" class="graph" transform="scale(1 1) rotate(0) translate(4 353)">
<title>components/cac.c</title>
<polygon fill="#ffffff" stroke="transparent" points="-4,4 -4,-353 2420.6206,-353 2420.6206,4 -4,4"/>
<!-- Node0 -->
<g id="node1" class="node">
<title>Node0</title>
<polygon fill="#bfbfbf" stroke="#000000" points="1280.3228,-330.5 1280.3228,-348.5 1376.9185,-348.5 1376.9185,-330.5 1280.3228,-330.5"/>
<text text-anchor="middle" x="1328.6206" y="-336.5" font-family="Helvetica,sans-Serif" font-size="10.00" fill="#000000">components/cac.c</text>
</g>
<!-- Node1 -->
<g id="node2" class="node">
<title>Node1</title>
<g id="a_node2"><a xlink:href="cac_8h.html" target="_top" xlink:title="cac.h">
<polygon fill="#ffffff" stroke="#000000" points="1270.6699,-275.5 1270.6699,-293.5 1310.5713,-293.5 1310.5713,-275.5 1270.6699,-275.5"/>
<text text-anchor="middle" x="1290.6206" y="-281.5" font-family="Helvetica,sans-Serif" font-size="10.00" fill="#000000">cac.h</text>
</a>
</g>
</g>
<!-- Node0&#45;&gt;Node1 -->
<g id="edge1" class="edge">
<title>Node0&#45;&gt;Node1</title>
<path fill="none" stroke="#191970" d="M1322.3457,-330.4179C1317.042,-322.7415 1309.2902,-311.5217 1302.7768,-302.0945"/>
<polygon fill="#191970" stroke="#191970" points="1305.5958,-300.0173 1297.0319,-293.7795 1299.8367,-303.9963 1305.5958,-300.0173"/>
</g>
<!-- Node42 -->
<g id="node43" class="node">
<title>Node42</title>
<g id="a_node43"><a xlink:href="events_2include_2event__string_8h.html" target="_top" xlink:title="event_string.h">
<polygon fill="#ffffff" stroke="#000000" points="1328.2119,-275.5 1328.2119,-293.5 1407.0293,-293.5 1407.0293,-275.5 1328.2119,-275.5"/>
<text text-anchor="middle" x="1367.6206" y="-281.5" font-family="Helvetica,sans-Serif" font-size="10.00" fill="#000000">event_string.h</text>
</a>
</g>
</g>
<!-- Node0&#45;&gt;Node42 -->
<g id="edge54" class="edge">
<title>Node0&#45;&gt;Node42</title>
<path fill="none" stroke="#191970" d="M1335.0607,-330.4179C1340.5039,-322.7415 1348.4598,-311.5217 1355.1445,-302.0945"/>
<polygon fill="#191970" stroke="#191970" points="1358.1114,-303.9613 1361.0406,-293.7795 1352.4012,-299.9123 1358.1114,-303.9613"/>
</g>
<!-- Node2 -->
<g id="node3" class="node">
<title>Node2</title>
<g id="a_node3"><a xlink:href="src_2include_2common_8h.html" target="_top" xlink:title="common.h">
<polygon fill="#ffffff" stroke="#000000" points="1240.2783,-110.5 1240.2783,-128.5 1302.9629,-128.5 1302.9629,-110.5 1240.2783,-110.5"/>
<text text-anchor="middle" x="1271.6206" y="-116.5" font-family="Helvetica,sans-Serif" font-size="10.00" fill="#000000">common.h</text>
</a>
</g>
</g>
<!-- Node1&#45;&gt;Node2 -->
<g id="edge2" class="edge">
<title>Node1&#45;&gt;Node2</title>
<path fill="none" stroke="#191970" d="M1270.4252,-279.2889C1233.7133,-268.5847 1157.0282,-240.2556 1126.6206,-184 1103.7619,-141.7102 1179.4184,-127.1047 1229.9205,-122.0911"/>
<polygon fill="#191970" stroke="#191970" points="1230.3146,-125.5698 1239.9597,-121.1855 1229.6856,-118.5981 1230.3146,-125.5698"/>
</g>
<!-- Node31 -->
<g id="node32" class="node">
<title>Node31</title>
<g id="a_node32"><a xlink:href="str_8h.html" target="_top" xlink:title="str.h">
<polygon fill="#ffffff" stroke="#000000" points="2338.1699,-.5 2338.1699,-18.5 2373.0713,-18.5 2373.0713,-.5 2338.1699,-.5"/>
<text text-anchor="middle" x="2355.6206" y="-6.5" font-family="Helvetica,sans-Serif" font-size="10.00" fill="#000000">str.h</text>
</a>
</g>
</g>
<!-- Node1&#45;&gt;Node31 -->
<g id="edge53" class="edge">
<title>Node1&#45;&gt;Node31</title>
<path fill="none" stroke="#191970" d="M1310.7447,-277.2653C1313.6933,-276.3936 1316.7152,-275.6009 1319.6206,-275 1439.4828,-250.2077 2416.6206,-296.8993 2416.6206,-174.5 2416.6206,-174.5 2416.6206,-174.5 2416.6206,-119.5 2416.6206,-89.6154 2412.3644,-80.9944 2397.6206,-55 2391.431,-44.0873 2382.1563,-33.6684 2373.8957,-25.561"/>
<polygon fill="#191970" stroke="#191970" points="2376.1103,-22.8396 2366.4202,-18.5554 2371.3237,-27.9473 2376.1103,-22.8396"/>
</g>
<!-- Node37 -->
<g id="node38" class="node">
<title>Node37</title>
<g id="a_node38"><a xlink:href="events_2include_2event_8h.html" target="_top" xlink:title="event.h">
<polygon fill="#ffffff" stroke="#000000" points="1219.2192,-220.5 1219.2192,-238.5 1268.022,-238.5 1268.022,-220.5 1219.2192,-220.5"/>
<text text-anchor="middle" x="1243.6206" y="-226.5" font-family="Helvetica,sans-Serif" font-size="10.00" fill="#000000">event.h</text>
</a>
</g>
</g>
<!-- Node1&#45;&gt;Node37 -->
<g id="edge44" class="edge">
<title>Node1&#45;&gt;Node37</title>
<path fill="none" stroke="#191970" d="M1282.8595,-275.4179C1276.1645,-267.5833 1266.3152,-256.0575 1258.1596,-246.5137"/>
<polygon fill="#191970" stroke="#191970" points="1260.7077,-244.108 1251.5503,-238.7795 1255.3861,-248.6556 1260.7077,-244.108"/>
</g>
<!-- Node41 -->
<g id="node42" class="node">
<title>Node41</title>
<g id="a_node42"><a xlink:href="hash_8h.html" target="_top" xlink:title="hash.h">
<polygon fill="#ffffff" stroke="#000000" points="1300.6084,-220.5 1300.6084,-238.5 1346.6328,-238.5 1346.6328,-220.5 1300.6084,-220.5"/>
<text text-anchor="middle" x="1323.6206" y="-226.5" font-family="Helvetica,sans-Serif" font-size="10.00" fill="#000000">hash.h</text>
</a>
</g>
</g>
<!-- Node1&#45;&gt;Node41 -->
<g id="edge51" class="edge">
<title>Node1&#45;&gt;Node41</title>
<path fill="none" stroke="#191970" d="M1296.0699,-275.4179C1300.6282,-267.8207 1307.269,-256.7527 1312.8886,-247.3866"/>
<polygon fill="#191970" stroke="#191970" points="1315.9092,-249.1552 1318.0529,-238.7795 1309.9067,-245.5536 1315.9092,-249.1552"/>
</g>
<!-- Node3 -->
<g id="node4" class="node">
<title>Node3</title>
<polygon fill="#ffffff" stroke="#bfbfbf" points="1231.8892,-.5 1231.8892,-18.5 1277.3521,-18.5 1277.3521,-.5 1231.8892,-.5"/>
<text text-anchor="middle" x="1254.6206" y="-6.5" font-family="Helvetica,sans-Serif" font-size="10.00" fill="#000000">stdio.h</text>
</g>
<!-- Node2&#45;&gt;Node3 -->
<g id="edge3" class="edge">
<title>Node2&#45;&gt;Node3</title>
<path fill="none" stroke="#191970" d="M1240.2462,-119.27C1130.1466,-118.1413 766.1627,-111.575 731.6206,-74 725.9056,-67.7833 725.9141,-61.2245 731.6206,-55 764.7764,-18.8345 1112.1788,-11.3175 1221.7248,-9.8419"/>
<polygon fill="#191970" stroke="#191970" points="1221.9018,-13.34 1231.8567,-9.7138 1221.8132,-6.3406 1221.9018,-13.34"/>
</g>
<!-- Node4 -->
<g id="node5" class="node">
<title>Node4</title>
<polygon fill="#ffffff" stroke="#bfbfbf" points="2149.1084,-55.5 2149.1084,-73.5 2200.1328,-73.5 2200.1328,-55.5 2149.1084,-55.5"/>
<text text-anchor="middle" x="2174.6206" y="-61.5" font-family="Helvetica,sans-Serif" font-size="10.00" fill="#000000">unistd.h</text>
</g>
<!-- Node2&#45;&gt;Node4 -->
<g id="edge4" class="edge">
<title>Node2&#45;&gt;Node4</title>
<path fill="none" stroke="#191970" d="M1303.1436,-118.6013C1438.2755,-114.6312 1969.2236,-97.802 2134.6206,-74 2136.0777,-73.7903 2137.5597,-73.5527 2139.0531,-73.2931"/>
<polygon fill="#191970" stroke="#191970" points="2139.8092,-76.7113 2148.9312,-71.3224 2138.4396,-69.8466 2139.8092,-76.7113"/>
</g>
<!-- Node5 -->
<g id="node6" class="node">
<title>Node5</title>
<polygon fill="#ffffff" stroke="#bfbfbf" points="2256.7783,-55.5 2256.7783,-73.5 2304.4629,-73.5 2304.4629,-55.5 2256.7783,-55.5"/>
<text text-anchor="middle" x="2280.6206" y="-61.5" font-family="Helvetica,sans-Serif" font-size="10.00" fill="#000000">stdlib.h</text>
</g>
<!-- Node2&#45;&gt;Node5 -->
<g id="edge5" class="edge">
<title>Node2&#45;&gt;Node5</title>
<path fill="none" stroke="#191970" d="M1303.1075,-118.8641C1448.4039,-115.8009 2054.99,-101.5715 2242.6206,-74 2243.9073,-73.8109 2245.2139,-73.5971 2246.5301,-73.3632"/>
<polygon fill="#191970" stroke="#191970" points="2247.5654,-76.7228 2256.6418,-71.2575 2246.1382,-69.8698 2247.5654,-76.7228"/>
</g>
<!-- Node6 -->
<g id="node7" class="node">
<title>Node6</title>
<polygon fill="#ffffff" stroke="#bfbfbf" points="1965.5542,-.5 1965.5542,-18.5 2017.687,-18.5 2017.687,-.5 1965.5542,-.5"/>
<text text-anchor="middle" x="1991.6206" y="-6.5" font-family="Helvetica,sans-Serif" font-size="10.00" fill="#000000">stdarg.h</text>
</g>
<!-- Node2&#45;&gt;Node6 -->
<g id="edge6" class="edge">
<title>Node2&#45;&gt;Node6</title>
<path fill="none" stroke="#191970" d="M1302.9667,-118.9743C1450.9489,-116.343 2073.6549,-103.5407 2101.6206,-74 2127.843,-46.3007 2068.9432,-26.67 2027.6219,-16.7939"/>
<polygon fill="#191970" stroke="#191970" points="2028.3456,-13.3691 2017.8169,-14.5509 2026.7845,-20.1928 2028.3456,-13.3691"/>
</g>
<!-- Node7 -->
<g id="node8" class="node">
<title>Node7</title>
<polygon fill="#ffffff" stroke="#bfbfbf" points="99.5,-55.5 99.5,-73.5 147.7412,-73.5 147.7412,-55.5 99.5,-55.5"/>
<text text-anchor="middle" x="123.6206" y="-61.5" font-family="Helvetica,sans-Serif" font-size="10.00" fill="#000000">stdint.h</text>
</g>
<!-- Node2&#45;&gt;Node7 -->
<g id="edge7" class="edge">
<title>Node2&#45;&gt;Node7</title>
<path fill="none" stroke="#191970" d="M1240.0661,-119.1973C1084.1507,-117.5537 394.4303,-108.5153 157.8941,-73.5586"/>
<polygon fill="#191970" stroke="#191970" points="158.4005,-70.0954 147.985,-72.0362 157.3375,-77.0142 158.4005,-70.0954"/>
</g>
<!-- Node8 -->
<g id="node9" class="node">
<title>Node8</title>
<polygon fill="#ffffff" stroke="#bfbfbf" points="166.2241,-55.5 166.2241,-73.5 215.0171,-73.5 215.0171,-55.5 166.2241,-55.5"/>
<text text-anchor="middle" x="190.6206" y="-61.5" font-family="Helvetica,sans-Serif" font-size="10.00" fill="#000000">string.h</text>
</g>
<!-- Node2&#45;&gt;Node8 -->
<g id="edge8" class="edge">
<title>Node2&#45;&gt;Node8</title>
<path fill="none" stroke="#191970" d="M1240.185,-119.1381C1090.2934,-117.2617 446.6244,-107.4639 225.2478,-73.8641"/>
<polygon fill="#191970" stroke="#191970" points="225.7671,-70.4028 215.3431,-72.2979 224.6737,-77.3169 225.7671,-70.4028"/>
</g>
<!-- Node9 -->
<g id="node10" class="node">
<title>Node9</title>
<polygon fill="#ffffff" stroke="#bfbfbf" points="232.7241,-55.5 232.7241,-73.5 286.5171,-73.5 286.5171,-55.5 232.7241,-55.5"/>
<text text-anchor="middle" x="259.6206" y="-61.5" font-family="Helvetica,sans-Serif" font-size="10.00" fill="#000000">strings.h</text>
</g>
<!-- Node2&#45;&gt;Node9 -->
<g id="edge9" class="edge">
<title>Node2&#45;&gt;Node9</title>
<path fill="none" stroke="#191970" d="M1239.9634,-118.9243C1096.3075,-116.1762 504.1553,-103.3544 296.7874,-73.791"/>
<polygon fill="#191970" stroke="#191970" points="297.0241,-70.2878 286.6182,-72.2794 295.9949,-77.2117 297.0241,-70.2878"/>
</g>
<!-- Node10 -->
<g id="node11" class="node">
<title>Node10</title>
<polygon fill="#ffffff" stroke="#bfbfbf" points="304.4927,-55.5 304.4927,-73.5 362.7485,-73.5 362.7485,-55.5 304.4927,-55.5"/>
<text text-anchor="middle" x="333.6206" y="-61.5" font-family="Helvetica,sans-Serif" font-size="10.00" fill="#000000">pthread.h</text>
</g>
<!-- Node2&#45;&gt;Node10 -->
<g id="edge10" class="edge">
<title>Node2&#45;&gt;Node10</title>
<path fill="none" stroke="#191970" d="M1240.1487,-118.7306C1103.9547,-115.2771 564,-100.2773 372.8848,-73.8641"/>
<polygon fill="#191970" stroke="#191970" points="373.3624,-70.3969 362.9655,-72.4354 372.3643,-77.3254 373.3624,-70.3969"/>
</g>
<!-- Node11 -->
<g id="node12" class="node">
<title>Node11</title>
<polygon fill="#ffffff" stroke="#bfbfbf" points="380.5,-55.5 380.5,-73.5 428.7412,-73.5 428.7412,-55.5 380.5,-55.5"/>
<text text-anchor="middle" x="404.6206" y="-61.5" font-family="Helvetica,sans-Serif" font-size="10.00" fill="#000000">ctype.h</text>
</g>
<!-- Node2&#45;&gt;Node11 -->
<g id="edge11" class="edge">
<title>Node2&#45;&gt;Node11</title>
<path fill="none" stroke="#191970" d="M1240.2408,-118.736C1110.6239,-115.4371 615.8543,-101.3981 438.9265,-73.8015"/>
<polygon fill="#191970" stroke="#191970" points="439.4202,-70.3358 428.9869,-72.179 438.2924,-77.2444 439.4202,-70.3358"/>
</g>
<!-- Node12 -->
<g id="node13" class="node">
<title>Node12</title>
<polygon fill="#ffffff" stroke="#bfbfbf" points="446.7783,-55.5 446.7783,-73.5 494.4629,-73.5 494.4629,-55.5 446.7783,-55.5"/>
<text text-anchor="middle" x="470.6206" y="-61.5" font-family="Helvetica,sans-Serif" font-size="10.00" fill="#000000">errno.h</text>
</g>
<!-- Node2&#45;&gt;Node12 -->
<g id="edge12" class="edge">
<title>Node2&#45;&gt;Node12</title>
<path fill="none" stroke="#191970" d="M1240.165,-118.6018C1117.1654,-114.9443 667.8973,-100.1864 504.9072,-74.0005"/>
<polygon fill="#191970" stroke="#191970" points="505.035,-70.4727 494.5919,-72.2592 503.8697,-77.375 505.035,-70.4727"/>
</g>
<!-- Node13 -->
<g id="node14" class="node">
<title>Node13</title>
<polygon fill="#ffffff" stroke="#bfbfbf" points="512.0049,-55.5 512.0049,-73.5 555.2363,-73.5 555.2363,-55.5 512.0049,-55.5"/>
<text text-anchor="middle" x="533.6206" y="-61.5" font-family="Helvetica,sans-Serif" font-size="10.00" fill="#000000">time.h</text>
</g>
<!-- Node2&#45;&gt;Node13 -->
<g id="edge13" class="edge">
<title>Node2&#45;&gt;Node13</title>
<path fill="none" stroke="#191970" d="M1239.8861,-118.4412C1123.0045,-114.3923 715.9649,-98.9365 565.4422,-73.6479"/>
<polygon fill="#191970" stroke="#191970" points="565.9356,-70.181 555.4794,-71.8892 564.7187,-77.0744 565.9356,-70.181"/>
</g>
<!-- Node14 -->
<g id="node15" class="node">
<title>Node14</title>
<polygon fill="#ffffff" stroke="#bfbfbf" points="573.2808,-55.5 573.2808,-73.5 615.9604,-73.5 615.9604,-55.5 573.2808,-55.5"/>
<text text-anchor="middle" x="594.6206" y="-61.5" font-family="Helvetica,sans-Serif" font-size="10.00" fill="#000000">fcntl.h</text>
</g>
<!-- Node2&#45;&gt;Node14 -->
<g id="edge14" class="edge">
<title>Node2&#45;&gt;Node14</title>
<path fill="none" stroke="#191970" d="M1239.951,-118.2227C1129.9572,-113.6415 764.1588,-97.1583 626.0759,-73.5646"/>
<polygon fill="#191970" stroke="#191970" points="626.6062,-70.1038 616.1447,-71.78 625.3681,-76.9935 626.6062,-70.1038"/>
</g>
<!-- Node15 -->
<g id="node16" class="node">
<title>Node15</title>
<polygon fill="#ffffff" stroke="#bfbfbf" points="634.3867,-55.5 634.3867,-73.5 684.8545,-73.5 684.8545,-55.5 634.3867,-55.5"/>
<text text-anchor="middle" x="659.6206" y="-61.5" font-family="Helvetica,sans-Serif" font-size="10.00" fill="#000000">signal.h</text>
</g>
<!-- Node2&#45;&gt;Node15 -->
<g id="edge15" class="edge">
<title>Node2&#45;&gt;Node15</title>
<path fill="none" stroke="#191970" d="M1240.0437,-118.7604C1153.1439,-116.3452 903.3211,-106.843 698.6206,-74 697.5197,-73.8234 696.404,-73.6317 695.2798,-73.4276"/>
<polygon fill="#191970" stroke="#191970" points="695.597,-69.9192 685.0956,-71.3233 694.1805,-76.7744 695.597,-69.9192"/>
</g>
<!-- Node16 -->
<g id="node17" class="node">
<title>Node16</title>
<polygon fill="#ffffff" stroke="#bfbfbf" points="868.1157,-.5 868.1157,-18.5 929.1255,-18.5 929.1255,-.5 868.1157,-.5"/>
<text text-anchor="middle" x="898.6206" y="-6.5" font-family="Helvetica,sans-Serif" font-size="10.00" fill="#000000">sys/time.h</text>
</g>
<!-- Node2&#45;&gt;Node16 -->
<g id="edge16" class="edge">
<title>Node2&#45;&gt;Node16</title>
<path fill="none" stroke="#191970" d="M1240.018,-118.8817C1054.1866,-115.1735 111.1384,-95.3235 90.6206,-74 84.7655,-67.915 84.8198,-61.1367 90.6206,-55 117.2148,-26.8661 697.1008,-13.447 857.7095,-10.2615"/>
<polygon fill="#191970" stroke="#191970" points="858.175,-13.7532 868.1045,-10.0581 858.0379,-6.7545 858.175,-13.7532"/>
</g>
<!-- Node17 -->
<g id="node18" class="node">
<title>Node17</title>
<polygon fill="#ffffff" stroke="#bfbfbf" points="740.5024,-55.5 740.5024,-73.5 798.7388,-73.5 798.7388,-55.5 740.5024,-55.5"/>
<text text-anchor="middle" x="769.6206" y="-61.5" font-family="Helvetica,sans-Serif" font-size="10.00" fill="#000000">sys/stat.h</text>
</g>
<!-- Node2&#45;&gt;Node17 -->
<g id="edge17" class="edge">
<title>Node2&#45;&gt;Node17</title>
<path fill="none" stroke="#191970" d="M1240.1787,-118.0168C1166.4371,-114.1979 976.5396,-102.3896 808.9742,-74.0115"/>
<polygon fill="#191970" stroke="#191970" points="809.4362,-70.5396 798.988,-72.2958 808.2509,-77.4386 809.4362,-70.5396"/>
</g>
<!-- Node18 -->
<g id="node19" class="node">
<title>Node18</title>
<polygon fill="#ffffff" stroke="#bfbfbf" points="816.6108,-55.5 816.6108,-73.5 882.6304,-73.5 882.6304,-55.5 816.6108,-55.5"/>
<text text-anchor="middle" x="849.6206" y="-61.5" font-family="Helvetica,sans-Serif" font-size="10.00" fill="#000000">sys/types.h</text>
</g>
<!-- Node2&#45;&gt;Node18 -->
<g id="edge18" class="edge">
<title>Node2&#45;&gt;Node18</title>
<path fill="none" stroke="#191970" d="M1239.932,-116.8214C1176.123,-111.1886 1027.4489,-96.8589 893.0876,-74.1076"/>
<polygon fill="#191970" stroke="#191970" points="893.4764,-70.6232 883.0289,-72.3837 892.2939,-77.5227 893.4764,-70.6232"/>
</g>
<!-- Node19 -->
<g id="node20" class="node">
<title>Node19</title>
<polygon fill="#ffffff" stroke="#bfbfbf" points="900.6699,-55.5 900.6699,-73.5 960.5713,-73.5 960.5713,-55.5 900.6699,-55.5"/>
<text text-anchor="middle" x="930.6206" y="-61.5" font-family="Helvetica,sans-Serif" font-size="10.00" fill="#000000">sys/ioctl.h</text>
</g>
<!-- Node2&#45;&gt;Node19 -->
<g id="edge19" class="edge">
<title>Node2&#45;&gt;Node19</title>
<path fill="none" stroke="#191970" d="M1240.0418,-115.7719C1186.4828,-109.2305 1074.2532,-94.5808 970.824,-74.3127"/>
<polygon fill="#191970" stroke="#191970" points="971.3343,-70.8458 960.8444,-72.3338 969.9726,-77.7121 971.3343,-70.8458"/>
</g>
<!-- Node20 -->
<g id="node21" class="node">
<title>Node20</title>
<polygon fill="#ffffff" stroke="#bfbfbf" points="978.1108,-55.5 978.1108,-73.5 1049.1304,-73.5 1049.1304,-55.5 978.1108,-55.5"/>
<text text-anchor="middle" x="1013.6206" y="-61.5" font-family="Helvetica,sans-Serif" font-size="10.00" fill="#000000">sys/socket.h</text>
</g>
<!-- Node2&#45;&gt;Node20 -->
<g id="edge20" class="edge">
<title>Node2&#45;&gt;Node20</title>
<path fill="none" stroke="#191970" d="M1240.0682,-112.8239C1200.1934,-104.3797 1129.1796,-89.3178 1059.0469,-74.3012"/>
<polygon fill="#191970" stroke="#191970" points="1059.6714,-70.8557 1049.1601,-72.1833 1058.2051,-77.7004 1059.6714,-70.8557"/>
</g>
<!-- Node21 -->
<g id="node22" class="node">
<title>Node21</title>
<polygon fill="#ffffff" stroke="#bfbfbf" points="1067,-55.5 1067,-73.5 1140.2412,-73.5 1140.2412,-55.5 1067,-55.5"/>
<text text-anchor="middle" x="1103.6206" y="-61.5" font-family="Helvetica,sans-Serif" font-size="10.00" fill="#000000">sys/sysinfo.h</text>
</g>
<!-- Node2&#45;&gt;Node21 -->
<g id="edge21" class="edge">
<title>Node2&#45;&gt;Node21</title>
<path fill="none" stroke="#191970" d="M1243.8788,-110.4179C1215.7068,-101.1949 1171.9102,-86.8567 1140.7584,-76.6582"/>
<polygon fill="#191970" stroke="#191970" points="1141.717,-73.2893 1131.1244,-73.5042 1139.5391,-79.9419 1141.717,-73.2893"/>
</g>
<!-- Node22 -->
<g id="node23" class="node">
<title>Node22</title>
<polygon fill="#ffffff" stroke="#bfbfbf" points="1157.9927,-55.5 1157.9927,-73.5 1221.2485,-73.5 1221.2485,-55.5 1157.9927,-55.5"/>
<text text-anchor="middle" x="1189.6206" y="-61.5" font-family="Helvetica,sans-Serif" font-size="10.00" fill="#000000">arpa/inet.h</text>
</g>
<!-- Node2&#45;&gt;Node22 -->
<g id="edge22" class="edge">
<title>Node2&#45;&gt;Node22</title>
<path fill="none" stroke="#191970" d="M1258.08,-110.4179C1245.498,-101.9788 1226.531,-89.257 1211.7495,-79.3426"/>
<polygon fill="#191970" stroke="#191970" points="1213.4359,-76.2593 1203.1814,-73.5956 1209.5366,-82.0727 1213.4359,-76.2593"/>
</g>
<!-- Node23 -->
<g id="node24" class="node">
<title>Node23</title>
<polygon fill="#ffffff" stroke="#bfbfbf" points="1239.1577,-55.5 1239.1577,-73.5 1304.0835,-73.5 1304.0835,-55.5 1239.1577,-55.5"/>
<text text-anchor="middle" x="1271.6206" y="-61.5" font-family="Helvetica,sans-Serif" font-size="10.00" fill="#000000">netinet/in.h</text>
</g>
<!-- Node2&#45;&gt;Node23 -->
<g id="edge23" class="edge">
<title>Node2&#45;&gt;Node23</title>
<path fill="none" stroke="#191970" d="M1271.6206,-110.4179C1271.6206,-103.2164 1271.6206,-92.8962 1271.6206,-83.8632"/>
<polygon fill="#191970" stroke="#191970" points="1275.1207,-83.7794 1271.6206,-73.7795 1268.1207,-83.7795 1275.1207,-83.7794"/>
</g>
<!-- Node24 -->
<g id="node25" class="node">
<title>Node24</title>
<polygon fill="#ffffff" stroke="#bfbfbf" points="1321.7637,-55.5 1321.7637,-73.5 1399.4775,-73.5 1399.4775,-55.5 1321.7637,-55.5"/>
<text text-anchor="middle" x="1360.6206" y="-61.5" font-family="Helvetica,sans-Serif" font-size="10.00" fill="#000000">net/ethernet.h</text>
</g>
<!-- Node2&#45;&gt;Node24 -->
<g id="edge24" class="edge">
<title>Node2&#45;&gt;Node24</title>
<path fill="none" stroke="#191970" d="M1286.3171,-110.4179C1300.102,-101.8992 1320.9484,-89.0166 1337.0555,-79.0627"/>
<polygon fill="#191970" stroke="#191970" points="1339.2354,-81.83 1345.9022,-73.5956 1335.5555,-75.8753 1339.2354,-81.83"/>
</g>
<!-- Node25 -->
<g id="node26" class="node">
<title>Node25</title>
<polygon fill="#ffffff" stroke="#bfbfbf" points="1417.1577,-55.5 1417.1577,-73.5 1482.0835,-73.5 1482.0835,-55.5 1417.1577,-55.5"/>
<text text-anchor="middle" x="1449.6206" y="-61.5" font-family="Helvetica,sans-Serif" font-size="10.00" fill="#000000">netinet/ip.h</text>
</g>
<!-- Node2&#45;&gt;Node25 -->
<g id="edge25" class="edge">
<title>Node2&#45;&gt;Node25</title>
<path fill="none" stroke="#191970" d="M1301.0137,-110.4179C1330.9918,-101.155 1377.6683,-86.7325 1410.7001,-76.526"/>
<polygon fill="#191970" stroke="#191970" points="1411.9587,-79.8005 1420.4797,-73.5042 1409.8921,-73.1124 1411.9587,-79.8005"/>
</g>
<!-- Node26 -->
<g id="node27" class="node">
<title>Node26</title>
<polygon fill="#ffffff" stroke="#bfbfbf" points="1500.3794,-55.5 1500.3794,-73.5 1570.8618,-73.5 1570.8618,-55.5 1500.3794,-55.5"/>
<text text-anchor="middle" x="1535.6206" y="-61.5" font-family="Helvetica,sans-Serif" font-size="10.00" fill="#000000">netinet/tcp.h</text>
</g>
<!-- Node2&#45;&gt;Node26 -->
<g id="edge26" class="edge">
<title>Node2&#45;&gt;Node26</title>
<path fill="none" stroke="#191970" d="M1303.1791,-112.9764C1343.9164,-104.5483 1417.2643,-89.3488 1490.4026,-74.0404"/>
<polygon fill="#191970" stroke="#191970" points="1491.1793,-77.4537 1500.2496,-71.9784 1489.7445,-70.6023 1491.1793,-77.4537"/>
</g>
<!-- Node27 -->
<g id="node28" class="node">
<title>Node27</title>
<polygon fill="#ffffff" stroke="#bfbfbf" points="1588.8203,-55.5 1588.8203,-73.5 1680.4209,-73.5 1680.4209,-55.5 1588.8203,-55.5"/>
<text text-anchor="middle" x="1634.6206" y="-61.5" font-family="Helvetica,sans-Serif" font-size="10.00" fill="#000000">netinet/ip_icmp.h</text>
</g>
<!-- Node2&#45;&gt;Node27 -->
<g id="edge27" class="edge">
<title>Node2&#45;&gt;Node27</title>
<path fill="none" stroke="#191970" d="M1303.1402,-115.1023C1357.2523,-107.4965 1471.5523,-91.187 1578.7059,-74.1155"/>
<polygon fill="#191970" stroke="#191970" points="1579.3965,-77.5496 1588.7185,-72.5146 1578.2913,-70.6374 1579.3965,-77.5496"/>
</g>
<!-- Node28 -->
<g id="node29" class="node">
<title>Node28</title>
<g id="a_node29"><a xlink:href="mac2int_8h.html" target="_top" xlink:title="mac2int.h">
<polygon fill="#ffffff" stroke="#000000" points="1697.9434,-55.5 1697.9434,-73.5 1757.2979,-73.5 1757.2979,-55.5 1697.9434,-55.5"/>
<text text-anchor="middle" x="1727.6206" y="-61.5" font-family="Helvetica,sans-Serif" font-size="10.00" fill="#000000">mac2int.h</text>
</a>
</g>
</g>
<!-- Node2&#45;&gt;Node28 -->
<g id="edge28" class="edge">
<title>Node2&#45;&gt;Node28</title>
<path fill="none" stroke="#191970" d="M1303.149,-117.2051C1372.1773,-112.2561 1540.8501,-98.958 1680.6206,-74 1682.9364,-73.5865 1685.3203,-73.1112 1687.7337,-72.5985"/>
<polygon fill="#191970" stroke="#191970" points="1688.7401,-75.9594 1697.723,-70.3418 1687.1975,-69.1315 1688.7401,-75.9594"/>
</g>
<!-- Node29 -->
<g id="node30" class="node">
<title>Node29</title>
<g id="a_node30"><a xlink:href="ip2int_8h.html" target="_top" xlink:title="ip2int.h">
<polygon fill="#ffffff" stroke="#000000" points="1775.4976,-55.5 1775.4976,-73.5 1823.7437,-73.5 1823.7437,-55.5 1775.4976,-55.5"/>
<text text-anchor="middle" x="1799.6206" y="-61.5" font-family="Helvetica,sans-Serif" font-size="10.00" fill="#000000">ip2int.h</text>
</a>
</g>
</g>
<!-- Node2&#45;&gt;Node29 -->
<g id="edge30" class="edge">
<title>Node2&#45;&gt;Node29</title>
<path fill="none" stroke="#191970" d="M1302.9667,-118.5128C1380.7696,-115.7585 1587.7854,-105.9553 1757.6206,-74 1760.2224,-73.5105 1762.9145,-72.9049 1765.6342,-72.2383"/>
<polygon fill="#191970" stroke="#191970" points="1766.7065,-75.5756 1775.4925,-69.6548 1764.9319,-68.8043 1766.7065,-75.5756"/>
</g>
<!-- Node30 -->
<g id="node31" class="node">
<title>Node30</title>
<g id="a_node31"><a xlink:href="database_8h.html" target="_top" xlink:title="database.h">
<polygon fill="#ffffff" stroke="#000000" points="2322.877,-55.5 2322.877,-73.5 2388.3643,-73.5 2388.3643,-55.5 2322.877,-55.5"/>
<text text-anchor="middle" x="2355.6206" y="-61.5" font-family="Helvetica,sans-Serif" font-size="10.00" fill="#000000">database.h</text>
</a>
</g>
</g>
<!-- Node2&#45;&gt;Node30 -->
<g id="edge32" class="edge">
<title>Node2&#45;&gt;Node30</title>
<path fill="none" stroke="#191970" d="M1302.9865,-118.8275C1453.6956,-115.6268 2103.1599,-100.9622 2304.6206,-74 2307.2395,-73.6495 2309.9358,-73.2147 2312.662,-72.7256"/>
<polygon fill="#191970" stroke="#191970" points="2313.4452,-76.1386 2322.579,-70.7698 2312.0907,-69.2709 2313.4452,-76.1386"/>
</g>
<!-- Node32 -->
<g id="node33" class="node">
<title>Node32</title>
<polygon fill="#ffffff" stroke="#bfbfbf" points="1903.2168,-55.5 1903.2168,-73.5 1962.0244,-73.5 1962.0244,-55.5 1903.2168,-55.5"/>
<text text-anchor="middle" x="1932.6206" y="-61.5" font-family="Helvetica,sans-Serif" font-size="10.00" fill="#000000">jansson.h</text>
</g>
<!-- Node2&#45;&gt;Node32 -->
<g id="edge36" class="edge">
<title>Node2&#45;&gt;Node32</title>
<path fill="none" stroke="#191970" d="M1303.2837,-119.1066C1393.9365,-117.5753 1662.2733,-110.2149 1892.9347,-74.0342"/>
<polygon fill="#191970" stroke="#191970" points="1893.524,-77.4845 1902.8501,-72.4572 1892.4245,-70.5714 1893.524,-77.4845"/>
</g>
<!-- Node33 -->
<g id="node34" class="node">
<title>Node33</title>
<g id="a_node34"><a xlink:href="libcli_8h.html" target="_top" xlink:title="libcli.h">
<polygon fill="#ffffff" stroke="#000000" points="1841.7266,-55.5 1841.7266,-73.5 1885.5146,-73.5 1885.5146,-55.5 1841.7266,-55.5"/>
<text text-anchor="middle" x="1863.6206" y="-61.5" font-family="Helvetica,sans-Serif" font-size="10.00" fill="#000000">libcli.h</text>
</a>
</g>
</g>
<!-- Node2&#45;&gt;Node33 -->
<g id="edge37" class="edge">
<title>Node2&#45;&gt;Node33</title>
<path fill="none" stroke="#191970" d="M1303.3132,-117.8346C1403.2357,-112.446 1711.6544,-94.7251 1831.4324,-73.7747"/>
<polygon fill="#191970" stroke="#191970" points="1832.2149,-77.1895 1841.4149,-71.9349 1830.9461,-70.3055 1832.2149,-77.1895"/>
</g>
<!-- Node34 -->
<g id="node35" class="node">
<title>Node34</title>
<polygon fill="#ffffff" stroke="#bfbfbf" points="1980.394,-55.5 1980.394,-73.5 2030.8472,-73.5 2030.8472,-55.5 1980.394,-55.5"/>
<text text-anchor="middle" x="2005.6206" y="-61.5" font-family="Helvetica,sans-Serif" font-size="10.00" fill="#000000">mysql.h</text>
</g>
<!-- Node2&#45;&gt;Node34 -->
<g id="edge41" class="edge">
<title>Node2&#45;&gt;Node34</title>
<path fill="none" stroke="#191970" d="M1302.9729,-118.2942C1418.4506,-113.7264 1820.6324,-96.666 1970.2314,-73.6459"/>
<polygon fill="#191970" stroke="#191970" points="1970.821,-77.0961 1980.1369,-72.0498 1969.7074,-70.1853 1970.821,-77.0961"/>
</g>
<!-- Node35 -->
<g id="node36" class="node">
<title>Node35</title>
<polygon fill="#ffffff" stroke="#bfbfbf" points="2049.0049,-55.5 2049.0049,-73.5 2092.2363,-73.5 2092.2363,-55.5 2049.0049,-55.5"/>
<text text-anchor="middle" x="2070.6206" y="-61.5" font-family="Helvetica,sans-Serif" font-size="10.00" fill="#000000">zmq.h</text>
</g>
<!-- Node2&#45;&gt;Node35 -->
<g id="edge42" class="edge">
<title>Node2&#45;&gt;Node35</title>
<path fill="none" stroke="#191970" d="M1303.0418,-118.6365C1426.0284,-115.1057 1875.5651,-100.7484 2038.8878,-73.624"/>
<polygon fill="#191970" stroke="#191970" points="2039.5134,-77.0678 2048.7644,-71.9034 2038.312,-70.1716 2039.5134,-77.0678"/>
</g>
<!-- Node36 -->
<g id="node37" class="node">
<title>Node36</title>
<g id="a_node37"><a xlink:href="src_2include_2type_8h.html" target="_top" xlink:title="type.h">
<polygon fill="#ffffff" stroke="#000000" points="0,-55.5 0,-73.5 43.2412,-73.5 43.2412,-55.5 0,-55.5"/>
<text text-anchor="middle" x="21.6206" y="-61.5" font-family="Helvetica,sans-Serif" font-size="10.00" fill="#000000">type.h</text>
</a>
</g>
</g>
<!-- Node2&#45;&gt;Node36 -->
<g id="edge43" class="edge">
<title>Node2&#45;&gt;Node36</title>
<path fill="none" stroke="#191970" d="M1240.0381,-119.2586C1073.4566,-117.8425 295.5714,-109.4116 57.6206,-74 56.3259,-73.8073 55.0108,-73.5857 53.6866,-73.3409"/>
<polygon fill="#191970" stroke="#191970" points="54.064,-69.8402 43.5451,-71.1066 52.5579,-76.6762 54.064,-69.8402"/>
</g>
<!-- Node28&#45;&gt;Node2 -->
<g id="edge29" class="edge">
<title>Node28&#45;&gt;Node2</title>
<path fill="none" stroke="#191970" d="M1701.0517,-73.5484C1700.2354,-73.7057 1699.4239,-73.8566 1698.6206,-74 1558.9519,-98.9398 1390.4229,-112.2368 1313.4229,-117.1943"/>
<polygon fill="#191970" stroke="#191970" points="1312.9383,-113.7177 1303.1778,-117.8388 1313.3779,-120.7039 1312.9383,-113.7177"/>
</g>
<!-- Node29&#45;&gt;Node2 -->
<g id="edge31" class="edge">
<title>Node29&#45;&gt;Node2</title>
<path fill="none" stroke="#191970" d="M1778.1034,-73.5041C1777.2701,-73.6798 1776.4409,-73.8457 1775.6206,-74 1606.4793,-105.8248 1400.4605,-115.678 1313.4166,-118.4787"/>
<polygon fill="#191970" stroke="#191970" points="1313.0452,-114.9883 1303.1572,-118.7934 1313.2599,-121.985 1313.0452,-114.9883"/>
</g>
<!-- Node30&#45;&gt;Node2 -->
<g id="edge33" class="edge">
<title>Node30&#45;&gt;Node2</title>
<path fill="none" stroke="#191970" d="M2325.7633,-73.5457C2324.7075,-73.7091 2323.658,-73.8612 2322.6206,-74 2122.8743,-100.7327 1482.7165,-115.3764 1313.1095,-118.7433"/>
<polygon fill="#191970" stroke="#191970" points="1313.0128,-115.2444 1303.0834,-118.94 1313.1501,-122.2431 1313.0128,-115.2444"/>
</g>
<!-- Node30&#45;&gt;Node31 -->
<g id="edge34" class="edge">
<title>Node30&#45;&gt;Node31</title>
<path fill="none" stroke="#191970" d="M2355.6206,-55.4179C2355.6206,-48.2164 2355.6206,-37.8962 2355.6206,-28.8632"/>
<polygon fill="#191970" stroke="#191970" points="2359.1207,-28.7794 2355.6206,-18.7795 2352.1207,-28.7795 2359.1207,-28.7794"/>
</g>
<!-- Node31&#45;&gt;Node2 -->
<g id="edge35" class="edge">
<title>Node31&#45;&gt;Node2</title>
<path fill="none" stroke="#191970" d="M2337.8833,-16.5603C2316.3583,-25.2227 2279.043,-40.5438 2247.6206,-55 2230.4666,-62.8919 2227.8873,-69.2177 2209.6206,-74 2122.2381,-96.8772 1483.2297,-114.243 1313.1236,-118.4959"/>
<polygon fill="#191970" stroke="#191970" points="1312.9749,-114.9984 1303.065,-118.7457 1313.1488,-121.9962 1312.9749,-114.9984"/>
</g>
<!-- Node33&#45;&gt;Node3 -->
<g id="edge39" class="edge">
<title>Node33&#45;&gt;Node3</title>
<path fill="none" stroke="#191970" d="M1841.4161,-57.0586C1838.4825,-56.2637 1835.4961,-55.5469 1832.6206,-55 1726.8614,-34.8839 1394.3004,-16.6179 1287.7887,-11.1545"/>
<polygon fill="#191970" stroke="#191970" points="1287.798,-7.6505 1277.6329,-10.6374 1287.4419,-14.6415 1287.798,-7.6505"/>
</g>
<!-- Node33&#45;&gt;Node6 -->
<g id="edge38" class="edge">
<title>Node33&#45;&gt;Node6</title>
<path fill="none" stroke="#191970" d="M1884.7572,-55.4179C1905.6016,-46.4613 1937.6729,-32.6806 1961.2451,-22.552"/>
<polygon fill="#191970" stroke="#191970" points="1962.6466,-25.7592 1970.4526,-18.5956 1959.8831,-19.3278 1962.6466,-25.7592"/>
</g>
<!-- Node33&#45;&gt;Node16 -->
<g id="edge40" class="edge">
<title>Node33&#45;&gt;Node16</title>
<path fill="none" stroke="#191970" d="M1841.4311,-56.9767C1838.495,-56.1951 1835.504,-55.5039 1832.6206,-55 1743.9666,-39.5061 1108.1302,-16.7156 939.5537,-10.8938"/>
<polygon fill="#191970" stroke="#191970" points="939.477,-7.3892 929.3624,-10.5429 939.236,-14.385 939.477,-7.3892"/>
</g>
<!-- Node37&#45;&gt;Node2 -->
<g id="edge45" class="edge">
<title>Node37&#45;&gt;Node2</title>
<path fill="none" stroke="#191970" d="M1254.4133,-220.2937C1263.3672,-211.8891 1275.4397,-198.5828 1280.6206,-184 1285.8842,-169.1843 1282.7736,-151.4321 1278.8335,-138.3055"/>
<polygon fill="#191970" stroke="#191970" points="1282.0398,-136.8642 1275.4944,-128.5331 1275.4158,-139.1276 1282.0398,-136.8642"/>
</g>
<!-- Node38 -->
<g id="node39" class="node">
<title>Node38</title>
<g id="a_node39"><a xlink:href="src_2include_2context_8h.html" target="_top" xlink:title="context.h">
<polygon fill="#ffffff" stroke="#000000" points="1215.3301,-165.5 1215.3301,-183.5 1271.9111,-183.5 1271.9111,-165.5 1215.3301,-165.5"/>
<text text-anchor="middle" x="1243.6206" y="-171.5" font-family="Helvetica,sans-Serif" font-size="10.00" fill="#000000">context.h</text>
</a>
</g>
</g>
<!-- Node37&#45;&gt;Node38 -->
<g id="edge46" class="edge">
<title>Node37&#45;&gt;Node38</title>
<path fill="none" stroke="#191970" d="M1243.6206,-220.4179C1243.6206,-213.2164 1243.6206,-202.8962 1243.6206,-193.8632"/>
<polygon fill="#191970" stroke="#191970" points="1247.1207,-193.7794 1243.6206,-183.7795 1240.1207,-193.7795 1247.1207,-193.7794"/>
</g>
<!-- Node39 -->
<g id="node40" class="node">
<title>Node39</title>
<g id="a_node40"><a xlink:href="events_2include_2event__id_8h.html" target="_top" xlink:title="event_id.h">
<polygon fill="#ffffff" stroke="#000000" points="1135.5469,-165.5 1135.5469,-183.5 1197.6943,-183.5 1197.6943,-165.5 1135.5469,-165.5"/>
<text text-anchor="middle" x="1166.6206" y="-171.5" font-family="Helvetica,sans-Serif" font-size="10.00" fill="#000000">event_id.h</text>
</a>
</g>
</g>
<!-- Node37&#45;&gt;Node39 -->
<g id="edge48" class="edge">
<title>Node37&#45;&gt;Node39</title>
<path fill="none" stroke="#191970" d="M1230.9056,-220.4179C1219.2023,-212.0584 1201.6159,-199.4966 1187.7941,-189.6239"/>
<polygon fill="#191970" stroke="#191970" points="1189.5262,-186.56 1179.3545,-183.5956 1185.4575,-192.2561 1189.5262,-186.56"/>
</g>
<!-- Node40 -->
<g id="node41" class="node">
<title>Node40</title>
<g id="a_node41"><a xlink:href="events_2include_2event__list_8h.html" target="_top" xlink:title="event_list.h">
<polygon fill="#ffffff" stroke="#000000" points="545.3276,-110.5 545.3276,-128.5 611.9136,-128.5 611.9136,-110.5 545.3276,-110.5"/>
<text text-anchor="middle" x="578.6206" y="-116.5" font-family="Helvetica,sans-Serif" font-size="10.00" fill="#000000">event_list.h</text>
</a>
</g>
</g>
<!-- Node37&#45;&gt;Node40 -->
<g id="edge49" class="edge">
<title>Node37&#45;&gt;Node40</title>
<path fill="none" stroke="#191970" d="M1219.1642,-225.4546C1120.3616,-209.1113 749.8765,-147.828 622.1932,-126.7075"/>
<polygon fill="#191970" stroke="#191970" points="622.449,-123.2023 612.0118,-125.0234 621.3066,-130.1085 622.449,-123.2023"/>
</g>
<!-- Node38&#45;&gt;Node2 -->
<g id="edge47" class="edge">
<title>Node38&#45;&gt;Node2</title>
<path fill="none" stroke="#191970" d="M1248.2442,-165.4179C1252.0313,-157.9789 1257.5125,-147.2123 1262.2156,-137.9742"/>
<polygon fill="#191970" stroke="#191970" points="1265.4787,-139.279 1266.8965,-128.7795 1259.2406,-136.1032 1265.4787,-139.279"/>
</g>
<!-- Node40&#45;&gt;Node36 -->
<g id="edge50" class="edge">
<title>Node40&#45;&gt;Node36</title>
<path fill="none" stroke="#191970" d="M545.1455,-118.5572C462.0448,-115.7886 239.8693,-105.7646 57.6206,-74 56.3311,-73.7752 55.0203,-73.5266 53.6998,-73.2593"/>
<polygon fill="#191970" stroke="#191970" points="54.1038,-69.7609 43.5737,-70.9298 52.5345,-76.5827 54.1038,-69.7609"/>
</g>
<!-- Node41&#45;&gt;Node2 -->
<g id="edge52" class="edge">
<title>Node41&#45;&gt;Node2</title>
<path fill="none" stroke="#191970" d="M1320.0778,-220.1781C1315.1837,-207.5136 1305.9029,-184.2437 1296.6206,-165 1292.1737,-155.7809 1286.7525,-145.7874 1282.0966,-137.5207"/>
<polygon fill="#191970" stroke="#191970" points="1285.089,-135.7028 1277.0865,-128.7594 1279.0123,-139.1777 1285.089,-135.7028"/>
</g>
</g>
</svg>
