<?xml version="1.0" encoding="UTF-8" standalone="no"?>
<!DOCTYPE svg PUBLIC "-//W3C//DTD SVG 1.1//EN"
 "http://www.w3.org/Graphics/SVG/1.1/DTD/svg11.dtd">
<!-- Generated by graphviz version 2.40.1 (20161225.0304)
 -->
<!-- Title: components/cac.c Pages: 1 -->
<svg width="1603pt" height="302pt"
 viewBox="0.00 0.00 1603.35 302.00" xmlns="http://www.w3.org/2000/svg" xmlns:xlink="http://www.w3.org/1999/xlink">
<g id="graph0" class="graph" transform="scale(1 1) rotate(0) translate(4 298)">
<title>components/cac.c</title>
<polygon fill="#ffffff" stroke="transparent" points="-4,4 -4,-298 1599.3521,-298 1599.3521,4 -4,4"/>
<!-- Node0 -->
<g id="node1" class="node">
<title>Node0</title>
<polygon fill="#bfbfbf" stroke="#000000" points="793.3228,-275.5 793.3228,-293.5 889.9185,-293.5 889.9185,-275.5 793.3228,-275.5"/>
<text text-anchor="middle" x="841.6206" y="-281.5" font-family="Helvetica,sans-Serif" font-size="10.00" fill="#000000">components/cac.c</text>
</g>
<!-- Node1 -->
<g id="node2" class="node">
<title>Node1</title>
<g id="a_node2"><a xlink:href="cac_8h.html" target="_top" xlink:title="cac.h">
<polygon fill="#ffffff" stroke="#000000" points="783.6699,-220.5 783.6699,-238.5 823.5713,-238.5 823.5713,-220.5 783.6699,-220.5"/>
<text text-anchor="middle" x="803.6206" y="-226.5" font-family="Helvetica,sans-Serif" font-size="10.00" fill="#000000">cac.h</text>
</a>
</g>
</g>
<!-- Node0&#45;&gt;Node1 -->
<g id="edge1" class="edge">
<title>Node0&#45;&gt;Node1</title>
<path fill="none" stroke="#191970" d="M835.3457,-275.4179C830.042,-267.7415 822.2902,-256.5217 815.7768,-247.0945"/>
<polygon fill="#191970" stroke="#191970" points="818.5958,-245.0173 810.0319,-238.7795 812.8367,-248.9963 818.5958,-245.0173"/>
</g>
<!-- Node31 -->
<g id="node32" class="node">
<title>Node31</title>
<g id="a_node32"><a xlink:href="events_2include_2event__string_8h.html" target="_top" xlink:title="event_string.h">
<polygon fill="#ffffff" stroke="#000000" points="841.2119,-220.5 841.2119,-238.5 920.0293,-238.5 920.0293,-220.5 841.2119,-220.5"/>
<text text-anchor="middle" x="880.6206" y="-226.5" font-family="Helvetica,sans-Serif" font-size="10.00" fill="#000000">event_string.h</text>
</a>
</g>
</g>
<!-- Node0&#45;&gt;Node31 -->
<g id="edge38" class="edge">
<title>Node0&#45;&gt;Node31</title>
<path fill="none" stroke="#191970" d="M848.0607,-275.4179C853.5039,-267.7415 861.4598,-256.5217 868.1445,-247.0945"/>
<polygon fill="#191970" stroke="#191970" points="871.1114,-248.9613 874.0406,-238.7795 865.4012,-244.9123 871.1114,-248.9613"/>
</g>
<!-- Node2 -->
<g id="node3" class="node">
<title>Node2</title>
<g id="a_node3"><a xlink:href="src_2include_2common_8h.html" target="_top" xlink:title="common.h">
<polygon fill="#ffffff" stroke="#000000" points="776.2783,-55.5 776.2783,-73.5 838.9629,-73.5 838.9629,-55.5 776.2783,-55.5"/>
<text text-anchor="middle" x="807.6206" y="-61.5" font-family="Helvetica,sans-Serif" font-size="10.00" fill="#000000">common.h</text>
</a>
</g>
</g>
<!-- Node1&#45;&gt;Node2 -->
<g id="edge2" class="edge">
<title>Node1&#45;&gt;Node2</title>
<path fill="none" stroke="#191970" d="M818.7583,-220.4476C830.4488,-212.4956 845.753,-199.749 852.6206,-184 868.2569,-148.1427 840.9573,-104.941 822.483,-81.5561"/>
<polygon fill="#191970" stroke="#191970" points="825.0036,-79.1113 815.9425,-73.6205 819.6018,-83.5634 825.0036,-79.1113"/>
</g>
<!-- Node25 -->
<g id="node26" class="node">
<title>Node25</title>
<g id="a_node26"><a xlink:href="events_2include_2event_8h.html" target="_top" xlink:title="event.h">
<polygon fill="#ffffff" stroke="#000000" points="612.2192,-165.5 612.2192,-183.5 661.022,-183.5 661.022,-165.5 612.2192,-165.5"/>
<text text-anchor="middle" x="636.6206" y="-171.5" font-family="Helvetica,sans-Serif" font-size="10.00" fill="#000000">event.h</text>
</a>
</g>
</g>
<!-- Node1&#45;&gt;Node25 -->
<g id="edge27" class="edge">
<title>Node1&#45;&gt;Node25</title>
<path fill="none" stroke="#191970" d="M783.4765,-222.8657C755.5255,-213.6603 704.5976,-196.8876 670.6796,-185.717"/>
<polygon fill="#191970" stroke="#191970" points="671.7639,-182.3893 661.1709,-182.5854 669.5742,-189.038 671.7639,-182.3893"/>
</g>
<!-- Node29 -->
<g id="node30" class="node">
<title>Node29</title>
<g id="a_node30"><a xlink:href="hash_8h.html" target="_top" xlink:title="hash.h">
<polygon fill="#ffffff" stroke="#000000" points="759.6084,-110.5 759.6084,-128.5 805.6328,-128.5 805.6328,-110.5 759.6084,-110.5"/>
<text text-anchor="middle" x="782.6206" y="-116.5" font-family="Helvetica,sans-Serif" font-size="10.00" fill="#000000">hash.h</text>
</a>
</g>
</g>
<!-- Node1&#45;&gt;Node29 -->
<g id="edge34" class="edge">
<title>Node1&#45;&gt;Node29</title>
<path fill="none" stroke="#191970" d="M801.9021,-220.4982C798.5026,-202.6913 790.8531,-162.6225 786.2768,-138.6515"/>
<polygon fill="#191970" stroke="#191970" points="789.6761,-137.7924 784.3629,-128.6261 782.8003,-139.1051 789.6761,-137.7924"/>
</g>
<!-- Node30 -->
<g id="node31" class="node">
<title>Node30</title>
<g id="a_node31"><a xlink:href="str_8h.html" target="_top" xlink:title="str.h">
<polygon fill="#ffffff" stroke="#000000" points="809.1699,-165.5 809.1699,-183.5 844.0713,-183.5 844.0713,-165.5 809.1699,-165.5"/>
<text text-anchor="middle" x="826.6206" y="-171.5" font-family="Helvetica,sans-Serif" font-size="10.00" fill="#000000">str.h</text>
</a>
</g>
</g>
<!-- Node1&#45;&gt;Node30 -->
<g id="edge36" class="edge">
<title>Node1&#45;&gt;Node30</title>
<path fill="none" stroke="#191970" d="M807.4186,-220.4179C810.4963,-213.0581 814.9362,-202.441 818.7715,-193.2695"/>
<polygon fill="#191970" stroke="#191970" points="822.111,-194.3556 822.7401,-183.7795 815.653,-191.6549 822.111,-194.3556"/>
</g>
<!-- Node3 -->
<g id="node4" class="node">
<title>Node3</title>
<polygon fill="#ffffff" stroke="#bfbfbf" points="1549.8892,-.5 1549.8892,-18.5 1595.3521,-18.5 1595.3521,-.5 1549.8892,-.5"/>
<text text-anchor="middle" x="1572.6206" y="-6.5" font-family="Helvetica,sans-Serif" font-size="10.00" fill="#000000">stdio.h</text>
</g>
<!-- Node2&#45;&gt;Node3 -->
<g id="edge3" class="edge">
<title>Node2&#45;&gt;Node3</title>
<path fill="none" stroke="#191970" d="M839.3022,-63.5291C958.9361,-59.7127 1383.9047,-44.7579 1539.4576,-18.9625"/>
<polygon fill="#191970" stroke="#191970" points="1540.4969,-22.3341 1549.7464,-17.1672 1539.2936,-15.4383 1540.4969,-22.3341"/>
</g>
<!-- Node4 -->
<g id="node5" class="node">
<title>Node4</title>
<polygon fill="#ffffff" stroke="#bfbfbf" points="61.1084,-.5 61.1084,-18.5 112.1328,-18.5 112.1328,-.5 61.1084,-.5"/>
<text text-anchor="middle" x="86.6206" y="-6.5" font-family="Helvetica,sans-Serif" font-size="10.00" fill="#000000">unistd.h</text>
</g>
<!-- Node2&#45;&gt;Node4 -->
<g id="edge4" class="edge">
<title>Node2&#45;&gt;Node4</title>
<path fill="none" stroke="#191970" d="M776.0013,-63.2735C661.5508,-58.7022 268.3754,-41.8204 122.5487,-18.9748"/>
<polygon fill="#191970" stroke="#191970" points="122.9193,-15.4889 112.4839,-17.3197 121.7834,-22.3961 122.9193,-15.4889"/>
</g>
<!-- Node5 -->
<g id="node6" class="node">
<title>Node5</title>
<polygon fill="#ffffff" stroke="#bfbfbf" points="129.7783,-.5 129.7783,-18.5 177.4629,-18.5 177.4629,-.5 129.7783,-.5"/>
<text text-anchor="middle" x="153.6206" y="-6.5" font-family="Helvetica,sans-Serif" font-size="10.00" fill="#000000">stdlib.h</text>
</g>
<!-- Node2&#45;&gt;Node5 -->
<g id="edge5" class="edge">
<title>Node2&#45;&gt;Node5</title>
<path fill="none" stroke="#191970" d="M776.0573,-63.0539C669.1039,-58.0218 320.1635,-40.4939 187.5512,-18.7447"/>
<polygon fill="#191970" stroke="#191970" points="188.0844,-15.285 177.6353,-17.0364 186.8959,-22.1834 188.0844,-15.285"/>
</g>
<!-- Node6 -->
<g id="node7" class="node">
<title>Node6</title>
<polygon fill="#ffffff" stroke="#bfbfbf" points="195.2241,-.5 195.2241,-18.5 244.0171,-18.5 244.0171,-.5 195.2241,-.5"/>
<text text-anchor="middle" x="219.6206" y="-6.5" font-family="Helvetica,sans-Serif" font-size="10.00" fill="#000000">string.h</text>
</g>
<!-- Node2&#45;&gt;Node6 -->
<g id="edge6" class="edge">
<title>Node2&#45;&gt;Node6</title>
<path fill="none" stroke="#191970" d="M776.0406,-64.0978C692.2227,-62.5684 457.2102,-55.2748 254.3037,-18.9989"/>
<polygon fill="#191970" stroke="#191970" points="254.8258,-15.5365 244.3613,-17.1932 253.5748,-22.4238 254.8258,-15.5365"/>
</g>
<!-- Node7 -->
<g id="node8" class="node">
<title>Node7</title>
<polygon fill="#ffffff" stroke="#bfbfbf" points="261.5542,-.5 261.5542,-18.5 313.687,-18.5 313.687,-.5 261.5542,-.5"/>
<text text-anchor="middle" x="287.6206" y="-6.5" font-family="Helvetica,sans-Serif" font-size="10.00" fill="#000000">stdarg.h</text>
</g>
<!-- Node2&#45;&gt;Node7 -->
<g id="edge7" class="edge">
<title>Node2&#45;&gt;Node7</title>
<path fill="none" stroke="#191970" d="M776.1601,-63.4165C699.9898,-60.3969 499.5859,-50.084 323.8246,-18.9364"/>
<polygon fill="#191970" stroke="#191970" points="324.3453,-15.4739 313.8834,-17.1474 323.1054,-22.3633 324.3453,-15.4739"/>
</g>
<!-- Node8 -->
<g id="node9" class="node">
<title>Node8</title>
<polygon fill="#ffffff" stroke="#bfbfbf" points="331.5,-.5 331.5,-18.5 379.7412,-18.5 379.7412,-.5 331.5,-.5"/>
<text text-anchor="middle" x="355.6206" y="-6.5" font-family="Helvetica,sans-Serif" font-size="10.00" fill="#000000">stdint.h</text>
</g>
<!-- Node2&#45;&gt;Node8 -->
<g id="edge8" class="edge">
<title>Node2&#45;&gt;Node8</title>
<path fill="none" stroke="#191970" d="M776.0676,-62.932C707.4433,-59.1267 539.4444,-47.6706 390.2661,-19.0309"/>
<polygon fill="#191970" stroke="#191970" points="390.4997,-15.5105 380.0143,-17.0294 389.1583,-22.3808 390.4997,-15.5105"/>
</g>
<!-- Node9 -->
<g id="node10" class="node">
<title>Node9</title>
<polygon fill="#ffffff" stroke="#bfbfbf" points="397.4927,-.5 397.4927,-18.5 455.7485,-18.5 455.7485,-.5 397.4927,-.5"/>
<text text-anchor="middle" x="426.6206" y="-6.5" font-family="Helvetica,sans-Serif" font-size="10.00" fill="#000000">pthread.h</text>
</g>
<!-- Node2&#45;&gt;Node9 -->
<g id="edge9" class="edge">
<title>Node2&#45;&gt;Node9</title>
<path fill="none" stroke="#191970" d="M776.2174,-61.5352C717.2819,-55.7134 585.9457,-41.5214 466.0858,-19.1052"/>
<polygon fill="#191970" stroke="#191970" points="466.4831,-15.6183 456.0062,-17.1952 465.1797,-22.4959 466.4831,-15.6183"/>
</g>
<!-- Node10 -->
<g id="node11" class="node">
<title>Node10</title>
<polygon fill="#ffffff" stroke="#bfbfbf" points="473.5,-.5 473.5,-18.5 521.7412,-18.5 521.7412,-.5 473.5,-.5"/>
<text text-anchor="middle" x="497.6206" y="-6.5" font-family="Helvetica,sans-Serif" font-size="10.00" fill="#000000">ctype.h</text>
</g>
<!-- Node2&#45;&gt;Node10 -->
<g id="edge10" class="edge">
<title>Node2&#45;&gt;Node10</title>
<path fill="none" stroke="#191970" d="M776.2339,-60.5682C726.4006,-54.062 625.9845,-39.879 531.9979,-19.1078"/>
<polygon fill="#191970" stroke="#191970" points="532.5696,-15.6492 522.0462,-16.8779 531.039,-22.4798 532.5696,-15.6492"/>
</g>
<!-- Node11 -->
<g id="node12" class="node">
<title>Node11</title>
<polygon fill="#ffffff" stroke="#bfbfbf" points="539.7783,-.5 539.7783,-18.5 587.4629,-18.5 587.4629,-.5 539.7783,-.5"/>
<text text-anchor="middle" x="563.6206" y="-6.5" font-family="Helvetica,sans-Serif" font-size="10.00" fill="#000000">errno.h</text>
</g>
<!-- Node2&#45;&gt;Node11 -->
<g id="edge11" class="edge">
<title>Node2&#45;&gt;Node11</title>
<path fill="none" stroke="#191970" d="M776.1934,-58.5431C736.5951,-50.8661 666.2594,-36.6643 597.7663,-19.4239"/>
<polygon fill="#191970" stroke="#191970" points="598.2322,-15.9311 587.6781,-16.8586 596.5071,-22.7152 598.2322,-15.9311"/>
</g>
<!-- Node12 -->
<g id="node13" class="node">
<title>Node12</title>
<polygon fill="#ffffff" stroke="#bfbfbf" points="604.9927,-.5 604.9927,-18.5 668.2485,-18.5 668.2485,-.5 604.9927,-.5"/>
<text text-anchor="middle" x="636.6206" y="-6.5" font-family="Helvetica,sans-Serif" font-size="10.00" fill="#000000">arpa/inet.h</text>
</g>
<!-- Node2&#45;&gt;Node12 -->
<g id="edge12" class="edge">
<title>Node2&#45;&gt;Node12</title>
<path fill="none" stroke="#191970" d="M779.3834,-55.4179C750.7084,-46.1949 706.1296,-31.8567 674.4216,-21.6582"/>
<polygon fill="#191970" stroke="#191970" points="675.2069,-18.2343 664.6155,-18.5042 673.0635,-24.8981 675.2069,-18.2343"/>
</g>
<!-- Node13 -->
<g id="node14" class="node">
<title>Node13</title>
<polygon fill="#ffffff" stroke="#bfbfbf" points="686.1577,-.5 686.1577,-18.5 751.0835,-18.5 751.0835,-.5 686.1577,-.5"/>
<text text-anchor="middle" x="718.6206" y="-6.5" font-family="Helvetica,sans-Serif" font-size="10.00" fill="#000000">netinet/in.h</text>
</g>
<!-- Node2&#45;&gt;Node13 -->
<g id="edge13" class="edge">
<title>Node2&#45;&gt;Node13</title>
<path fill="none" stroke="#191970" d="M792.9241,-55.4179C779.1392,-46.8992 758.2929,-34.0166 742.1857,-24.0627"/>
<polygon fill="#191970" stroke="#191970" points="743.6857,-20.8753 733.339,-18.5956 740.0058,-26.83 743.6857,-20.8753"/>
</g>
<!-- Node14 -->
<g id="node15" class="node">
<title>Node14</title>
<polygon fill="#ffffff" stroke="#bfbfbf" points="768.7637,-.5 768.7637,-18.5 846.4775,-18.5 846.4775,-.5 768.7637,-.5"/>
<text text-anchor="middle" x="807.6206" y="-6.5" font-family="Helvetica,sans-Serif" font-size="10.00" fill="#000000">net/ethernet.h</text>
</g>
<!-- Node2&#45;&gt;Node14 -->
<g id="edge14" class="edge">
<title>Node2&#45;&gt;Node14</title>
<path fill="none" stroke="#191970" d="M807.6206,-55.4179C807.6206,-48.2164 807.6206,-37.8962 807.6206,-28.8632"/>
<polygon fill="#191970" stroke="#191970" points="811.1207,-28.7794 807.6206,-18.7795 804.1207,-28.7795 811.1207,-28.7794"/>
</g>
<!-- Node15 -->
<g id="node16" class="node">
<title>Node15</title>
<polygon fill="#ffffff" stroke="#bfbfbf" points="864.1577,-.5 864.1577,-18.5 929.0835,-18.5 929.0835,-.5 864.1577,-.5"/>
<text text-anchor="middle" x="896.6206" y="-6.5" font-family="Helvetica,sans-Serif" font-size="10.00" fill="#000000">netinet/ip.h</text>
</g>
<!-- Node2&#45;&gt;Node15 -->
<g id="edge15" class="edge">
<title>Node2&#45;&gt;Node15</title>
<path fill="none" stroke="#191970" d="M822.3171,-55.4179C836.102,-46.8992 856.9484,-34.0166 873.0555,-24.0627"/>
<polygon fill="#191970" stroke="#191970" points="875.2354,-26.83 881.9022,-18.5956 871.5555,-20.8753 875.2354,-26.83"/>
</g>
<!-- Node16 -->
<g id="node17" class="node">
<title>Node16</title>
<polygon fill="#ffffff" stroke="#bfbfbf" points="947.3794,-.5 947.3794,-18.5 1017.8618,-18.5 1017.8618,-.5 947.3794,-.5"/>
<text text-anchor="middle" x="982.6206" y="-6.5" font-family="Helvetica,sans-Serif" font-size="10.00" fill="#000000">netinet/tcp.h</text>
</g>
<!-- Node2&#45;&gt;Node16 -->
<g id="edge16" class="edge">
<title>Node2&#45;&gt;Node16</title>
<path fill="none" stroke="#191970" d="M836.5183,-55.4179C865.9911,-46.155 911.881,-31.7325 944.3561,-21.526"/>
<polygon fill="#191970" stroke="#191970" points="945.4803,-24.8415 953.9708,-18.5042 943.3815,-18.1636 945.4803,-24.8415"/>
</g>
<!-- Node17 -->
<g id="node18" class="node">
<title>Node17</title>
<polygon fill="#ffffff" stroke="#bfbfbf" points="1035.8203,-.5 1035.8203,-18.5 1127.4209,-18.5 1127.4209,-.5 1035.8203,-.5"/>
<text text-anchor="middle" x="1081.6206" y="-6.5" font-family="Helvetica,sans-Serif" font-size="10.00" fill="#000000">netinet/ip_icmp.h</text>
</g>
<!-- Node2&#45;&gt;Node17 -->
<g id="edge17" class="edge">
<title>Node2&#45;&gt;Node17</title>
<path fill="none" stroke="#191970" d="M839.0519,-58.1908C884.8011,-49.0076 970.4021,-31.8249 1026.7046,-20.5233"/>
<polygon fill="#191970" stroke="#191970" points="1027.3986,-23.9539 1036.5142,-18.5542 1026.0209,-17.0908 1027.3986,-23.9539"/>
</g>
<!-- Node18 -->
<g id="node19" class="node">
<title>Node18</title>
<polygon fill="#ffffff" stroke="#bfbfbf" points="1145.2168,-.5 1145.2168,-18.5 1204.0244,-18.5 1204.0244,-.5 1145.2168,-.5"/>
<text text-anchor="middle" x="1174.6206" y="-6.5" font-family="Helvetica,sans-Serif" font-size="10.00" fill="#000000">jansson.h</text>
</g>
<!-- Node2&#45;&gt;Node18 -->
<g id="edge18" class="edge">
<title>Node2&#45;&gt;Node18</title>
<path fill="none" stroke="#191970" d="M839.1059,-61.2867C896.2275,-55.2119 1020.8868,-40.83 1134.8794,-19.1838"/>
<polygon fill="#191970" stroke="#191970" points="1135.6584,-22.5982 1144.8175,-17.2727 1134.3364,-15.7242 1135.6584,-22.5982"/>
</g>
<!-- Node19 -->
<g id="node20" class="node">
<title>Node19</title>
<polygon fill="#ffffff" stroke="#bfbfbf" points="1221.7266,-.5 1221.7266,-18.5 1265.5146,-18.5 1265.5146,-.5 1221.7266,-.5"/>
<text text-anchor="middle" x="1243.6206" y="-6.5" font-family="Helvetica,sans-Serif" font-size="10.00" fill="#000000">libcli.h</text>
</g>
<!-- Node2&#45;&gt;Node19 -->
<g id="edge19" class="edge">
<title>Node2&#45;&gt;Node19</title>
<path fill="none" stroke="#191970" d="M839.184,-62.9497C906.2284,-59.2321 1067.8007,-48.0217 1211.5208,-18.8871"/>
<polygon fill="#191970" stroke="#191970" points="1212.311,-22.2979 1221.398,-16.8503 1210.8972,-15.4421 1212.311,-22.2979"/>
</g>
<!-- Node20 -->
<g id="node21" class="node">
<title>Node20</title>
<polygon fill="#ffffff" stroke="#bfbfbf" points="1284.0049,-.5 1284.0049,-18.5 1327.2363,-18.5 1327.2363,-.5 1284.0049,-.5"/>
<text text-anchor="middle" x="1305.6206" y="-6.5" font-family="Helvetica,sans-Serif" font-size="10.00" fill="#000000">zmq.h</text>
</g>
<!-- Node2&#45;&gt;Node20 -->
<g id="edge20" class="edge">
<title>Node2&#45;&gt;Node20</title>
<path fill="none" stroke="#191970" d="M839.0895,-63.6045C913.3271,-61.0322 1105.1721,-51.7008 1273.7016,-18.7924"/>
<polygon fill="#191970" stroke="#191970" points="1274.6178,-22.1789 1283.7443,-16.7976 1273.254,-15.313 1274.6178,-22.1789"/>
</g>
<!-- Node21 -->
<g id="node22" class="node">
<title>Node21</title>
<g id="a_node22"><a xlink:href="mac2int_8h.html" target="_top" xlink:title="mac2int.h">
<polygon fill="#ffffff" stroke="#000000" points="1344.9434,-.5 1344.9434,-18.5 1404.2979,-18.5 1404.2979,-.5 1344.9434,-.5"/>
<text text-anchor="middle" x="1374.6206" y="-6.5" font-family="Helvetica,sans-Serif" font-size="10.00" fill="#000000">mac2int.h</text>
</a>
</g>
</g>
<!-- Node2&#45;&gt;Node21 -->
<g id="edge21" class="edge">
<title>Node2&#45;&gt;Node21</title>
<path fill="none" stroke="#191970" d="M839.2094,-63.3726C920.7726,-60.2621 1143.9591,-49.6557 1327.6206,-19 1329.941,-18.6127 1332.3281,-18.1566 1334.7439,-17.6574"/>
<polygon fill="#191970" stroke="#191970" points="1335.7398,-21.0213 1344.7379,-15.428 1334.2157,-14.1892 1335.7398,-21.0213"/>
</g>
<!-- Node22 -->
<g id="node23" class="node">
<title>Node22</title>
<g id="a_node23"><a xlink:href="ip2int_8h.html" target="_top" xlink:title="ip2int.h">
<polygon fill="#ffffff" stroke="#000000" points="1422.4976,-.5 1422.4976,-18.5 1470.7437,-18.5 1470.7437,-.5 1422.4976,-.5"/>
<text text-anchor="middle" x="1446.6206" y="-6.5" font-family="Helvetica,sans-Serif" font-size="10.00" fill="#000000">ip2int.h</text>
</a>
</g>
</g>
<!-- Node2&#45;&gt;Node22 -->
<g id="edge23" class="edge">
<title>Node2&#45;&gt;Node22</title>
<path fill="none" stroke="#191970" d="M839.236,-62.7997C946.3225,-57.2539 1293.7665,-38.8997 1404.6206,-19 1407.0852,-18.5576 1409.6293,-18.0046 1412.2003,-17.3893"/>
<polygon fill="#191970" stroke="#191970" points="1413.3387,-20.7099 1422.1382,-14.8091 1411.5795,-13.9345 1413.3387,-20.7099"/>
</g>
<!-- Node23 -->
<g id="node24" class="node">
<title>Node23</title>
<g id="a_node24"><a xlink:href="src_2include_2type_8h.html" target="_top" xlink:title="type.h">
<polygon fill="#ffffff" stroke="#000000" points="0,-.5 0,-18.5 43.2412,-18.5 43.2412,-.5 0,-.5"/>
<text text-anchor="middle" x="21.6206" y="-6.5" font-family="Helvetica,sans-Serif" font-size="10.00" fill="#000000">type.h</text>
</a>
</g>
</g>
<!-- Node2&#45;&gt;Node23 -->
<g id="edge25" class="edge">
<title>Node2&#45;&gt;Node23</title>
<path fill="none" stroke="#191970" d="M776.2619,-63.6429C654.6867,-60.1643 213.6744,-46.0614 53.5515,-18.895"/>
<polygon fill="#191970" stroke="#191970" points="53.8764,-15.3978 43.4171,-17.0867 52.6467,-22.2889 53.8764,-15.3978"/>
</g>
<!-- Node24 -->
<g id="node25" class="node">
<title>Node24</title>
<polygon fill="#ffffff" stroke="#bfbfbf" points="1489.0049,-.5 1489.0049,-18.5 1532.2363,-18.5 1532.2363,-.5 1489.0049,-.5"/>
<text text-anchor="middle" x="1510.6206" y="-6.5" font-family="Helvetica,sans-Serif" font-size="10.00" fill="#000000">time.h</text>
</g>
<!-- Node2&#45;&gt;Node24 -->
<g id="edge26" class="edge">
<title>Node2&#45;&gt;Node24</title>
<path fill="none" stroke="#191970" d="M839.3596,-63.319C952.3905,-58.966 1335.7234,-42.9078 1478.8752,-18.6412"/>
<polygon fill="#191970" stroke="#191970" points="1479.5291,-22.0799 1488.7601,-16.8799 1478.3011,-15.1885 1479.5291,-22.0799"/>
</g>
<!-- Node21&#45;&gt;Node2 -->
<g id="edge22" class="edge">
<title>Node21&#45;&gt;Node2</title>
<path fill="none" stroke="#191970" d="M1348.056,-18.5732C1347.2384,-18.723 1346.4255,-18.8657 1345.6206,-19 1162.6133,-49.5465 940.362,-60.1863 849.3373,-63.3391"/>
<polygon fill="#191970" stroke="#191970" points="849.0306,-59.8473 839.153,-63.6791 849.2642,-66.8434 849.0306,-59.8473"/>
</g>
<!-- Node22&#45;&gt;Node2 -->
<g id="edge24" class="edge">
<title>Node22&#45;&gt;Node2</title>
<path fill="none" stroke="#191970" d="M1425.1068,-18.5225C1424.2725,-18.6928 1423.4421,-18.8525 1422.6206,-19 1312.6202,-38.7465 969.6594,-56.9712 849.5506,-62.6693"/>
<polygon fill="#191970" stroke="#191970" points="849.1219,-59.1854 839.2971,-63.1507 849.4502,-66.1777 849.1219,-59.1854"/>
</g>
<!-- Node25&#45;&gt;Node2 -->
<g id="edge28" class="edge">
<title>Node25&#45;&gt;Node2</title>
<path fill="none" stroke="#191970" d="M623.92,-165.4852C607.2641,-152.5741 581.8046,-128.3515 596.6206,-110 617.4639,-84.183 710.4367,-72.3113 765.7747,-67.4454"/>
<polygon fill="#191970" stroke="#191970" points="766.3033,-70.9135 775.9758,-66.5901 765.7183,-63.938 766.3033,-70.9135"/>
</g>
<!-- Node26 -->
<g id="node27" class="node">
<title>Node26</title>
<g id="a_node27"><a xlink:href="src_2include_2context_8h.html" target="_top" xlink:title="context.h">
<polygon fill="#ffffff" stroke="#000000" points="685.3301,-110.5 685.3301,-128.5 741.9111,-128.5 741.9111,-110.5 685.3301,-110.5"/>
<text text-anchor="middle" x="713.6206" y="-116.5" font-family="Helvetica,sans-Serif" font-size="10.00" fill="#000000">context.h</text>
</a>
</g>
</g>
<!-- Node25&#45;&gt;Node26 -->
<g id="edge29" class="edge">
<title>Node25&#45;&gt;Node26</title>
<path fill="none" stroke="#191970" d="M649.3356,-165.4179C661.0389,-157.0584 678.6253,-144.4966 692.4471,-134.6239"/>
<polygon fill="#191970" stroke="#191970" points="694.7837,-137.2561 700.8867,-128.5956 690.715,-131.56 694.7837,-137.2561"/>
</g>
<!-- Node27 -->
<g id="node28" class="node">
<title>Node27</title>
<g id="a_node28"><a xlink:href="events_2include_2event__id_8h.html" target="_top" xlink:title="event_id.h">
<polygon fill="#ffffff" stroke="#000000" points="605.5469,-110.5 605.5469,-128.5 667.6943,-128.5 667.6943,-110.5 605.5469,-110.5"/>
<text text-anchor="middle" x="636.6206" y="-116.5" font-family="Helvetica,sans-Serif" font-size="10.00" fill="#000000">event_id.h</text>
</a>
</g>
</g>
<!-- Node25&#45;&gt;Node27 -->
<g id="edge31" class="edge">
<title>Node25&#45;&gt;Node27</title>
<path fill="none" stroke="#191970" d="M636.6206,-165.4179C636.6206,-158.2164 636.6206,-147.8962 636.6206,-138.8632"/>
<polygon fill="#191970" stroke="#191970" points="640.1207,-138.7794 636.6206,-128.7795 633.1207,-138.7795 640.1207,-138.7794"/>
</g>
<!-- Node28 -->
<g id="node29" class="node">
<title>Node28</title>
<g id="a_node29"><a xlink:href="events_2include_2event__list_8h.html" target="_top" xlink:title="event_list.h">
<polygon fill="#ffffff" stroke="#000000" points="259.3276,-55.5 259.3276,-73.5 325.9136,-73.5 325.9136,-55.5 259.3276,-55.5"/>
<text text-anchor="middle" x="292.6206" y="-61.5" font-family="Helvetica,sans-Serif" font-size="10.00" fill="#000000">event_list.h</text>
</a>
</g>
</g>
<!-- Node25&#45;&gt;Node28 -->
<g id="edge32" class="edge">
<title>Node25&#45;&gt;Node28</title>
<path fill="none" stroke="#191970" d="M612.1567,-166.6773C553.0512,-147.7772 402.1142,-99.5125 330.9051,-76.7421"/>
<polygon fill="#191970" stroke="#191970" points="331.5887,-73.2862 320.9978,-73.5741 329.4567,-79.9536 331.5887,-73.2862"/>
</g>
<!-- Node26&#45;&gt;Node2 -->
<g id="edge30" class="edge">
<title>Node26&#45;&gt;Node2</title>
<path fill="none" stroke="#191970" d="M729.1428,-110.4179C743.8381,-101.8195 766.1318,-88.7754 783.2072,-78.7844"/>
<polygon fill="#191970" stroke="#191970" points="785.2118,-81.6667 792.0754,-73.5956 781.6767,-75.6249 785.2118,-81.6667"/>
</g>
<!-- Node28&#45;&gt;Node23 -->
<g id="edge33" class="edge">
<title>Node28&#45;&gt;Node23</title>
<path fill="none" stroke="#191970" d="M259.2099,-59.494C214.3477,-52.4899 132.0226,-38.6486 53.5351,-19.2749"/>
<polygon fill="#191970" stroke="#191970" points="54.0394,-15.7932 43.4886,-16.7589 52.3387,-22.5835 54.0394,-15.7932"/>
</g>
<!-- Node29&#45;&gt;Node2 -->
<g id="edge35" class="edge">
<title>Node29&#45;&gt;Node2</title>
<path fill="none" stroke="#191970" d="M786.7488,-110.4179C790.1302,-102.9789 795.0241,-92.2123 799.2233,-82.9742"/>
<polygon fill="#191970" stroke="#191970" points="802.4509,-84.3315 803.4027,-73.7795 796.0783,-81.4348 802.4509,-84.3315"/>
</g>
<!-- Node30&#45;&gt;Node2 -->
<g id="edge37" class="edge">
<title>Node30&#45;&gt;Node2</title>
<path fill="none" stroke="#191970" d="M825.0658,-165.4982C821.99,-147.6913 815.069,-107.6225 810.9286,-83.6515"/>
<polygon fill="#191970" stroke="#191970" points="814.348,-82.8845 809.1969,-73.6261 807.4502,-84.076 814.348,-82.8845"/>
</g>
</g>
</svg>
