<?xml version="1.0" encoding="UTF-8" standalone="no"?>
<!DOCTYPE svg PUBLIC "-//W3C//DTD SVG 1.1//EN"
 "http://www.w3.org/Graphics/SVG/1.1/DTD/svg11.dtd">
<!-- Generated by graphviz version 2.40.1 (20161225.0304)
 -->
<!-- Title: components/include/channel_mgmt.h Pages: 1 -->
<svg width="116pt" height="102pt"
 viewBox="0.00 0.00 116.29 102.00" xmlns="http://www.w3.org/2000/svg" xmlns:xlink="http://www.w3.org/1999/xlink">
<g id="graph0" class="graph" transform="scale(1 1) rotate(0) translate(4 98)">
<title>components/include/channel_mgmt.h</title>
<polygon fill="#ffffff" stroke="transparent" points="-4,4 -4,-98 112.2852,-98 112.2852,4 -4,4"/>
<!-- Node40 -->
<g id="node1" class="node">
<title>Node40</title>
<polygon fill="#bfbfbf" stroke="#000000" points="1.6699,-65.5 1.6699,-93.5 106.6152,-93.5 106.6152,-65.5 1.6699,-65.5"/>
<text text-anchor="start" x="9.6699" y="-81.5" font-family="Helvetica,sans-Serif" font-size="10.00" fill="#000000">components/include</text>
<text text-anchor="middle" x="54.1426" y="-71.5" font-family="Helvetica,sans-Serif" font-size="10.00" fill="#000000">/channel_mgmt.h</text>
</g>
<!-- Node41 -->
<g id="node2" class="node">
<title>Node41</title>
<g id="a_node2"><a xlink:href="channel__mgmt_8c.html" target="_top" xlink:title="components/channel\l_mgmt.c">
<polygon fill="#ffffff" stroke="#000000" points="0,-.5 0,-28.5 108.2852,-28.5 108.2852,-.5 0,-.5"/>
<text text-anchor="start" x="8" y="-16.5" font-family="Helvetica,sans-Serif" font-size="10.00" fill="#000000">components/channel</text>
<text text-anchor="middle" x="54.1426" y="-6.5" font-family="Helvetica,sans-Serif" font-size="10.00" fill="#000000">_mgmt.c</text>
</a>
</g>
</g>
<!-- Node40&#45;&gt;Node41 -->
<g id="edge1" class="edge">
<title>Node40&#45;&gt;Node41</title>
<path fill="none" stroke="#191970" d="M54.1426,-55.1081C54.1426,-46.1539 54.1426,-36.3227 54.1426,-28.5765"/>
<polygon fill="#191970" stroke="#191970" points="50.6427,-55.3959 54.1426,-65.396 57.6427,-55.396 50.6427,-55.3959"/>
</g>
</g>
</svg>
