<?xml version="1.0" encoding="UTF-8" standalone="no"?>
<!DOCTYPE svg PUBLIC "-//W3C//DTD SVG 1.1//EN"
 "http://www.w3.org/Graphics/SVG/1.1/DTD/svg11.dtd">
<!-- Generated by graphviz version 2.40.1 (20161225.0304)
 -->
<!-- Title: src/cli.c Pages: 1 -->
<svg width="2439pt" height="302pt"
 viewBox="0.00 0.00 2438.91 302.00" xmlns="http://www.w3.org/2000/svg" xmlns:xlink="http://www.w3.org/1999/xlink">
<g id="graph0" class="graph" transform="scale(1 1) rotate(0) translate(4 298)">
<title>src/cli.c</title>
<polygon fill="#ffffff" stroke="transparent" points="-4,4 -4,-298 2434.9113,-298 2434.9113,4 -4,4"/>
<!-- Node0 -->
<g id="node1" class="node">
<title>Node0</title>
<polygon fill="#bfbfbf" stroke="#000000" points="1287.6256,-275.5 1287.6256,-293.5 1336.9557,-293.5 1336.9557,-275.5 1287.6256,-275.5"/>
<text text-anchor="middle" x="1312.2906" y="-281.5" font-family="Helvetica,sans-Serif" font-size="10.00" fill="#000000">src/cli.c</text>
</g>
<!-- Node1 -->
<g id="node2" class="node">
<title>Node1</title>
<g id="a_node2"><a xlink:href="cli_8h.html" target="_top" xlink:title="cli.h">
<polygon fill="#ffffff" stroke="#000000" points="1263.399,-220.5 1263.399,-238.5 1297.1822,-238.5 1297.1822,-220.5 1263.399,-220.5"/>
<text text-anchor="middle" x="1280.2906" y="-226.5" font-family="Helvetica,sans-Serif" font-size="10.00" fill="#000000">cli.h</text>
</a>
</g>
</g>
<!-- Node0&#45;&gt;Node1 -->
<g id="edge1" class="edge">
<title>Node0&#45;&gt;Node1</title>
<path fill="none" stroke="#191970" d="M1307.0065,-275.4179C1302.6324,-267.8998 1296.2807,-256.9829 1290.868,-247.6799"/>
<polygon fill="#191970" stroke="#191970" points="1293.7438,-245.6628 1285.6896,-238.7795 1287.6934,-249.1831 1293.7438,-245.6628"/>
</g>
<!-- Node38 -->
<g id="node39" class="node">
<title>Node38</title>
<g id="a_node39"><a xlink:href="src_2include_2component_8h.html" target="_top" xlink:title="component.h">
<polygon fill="#ffffff" stroke="#000000" points="1067.382,-220.5 1067.382,-238.5 1141.1993,-238.5 1141.1993,-220.5 1067.382,-220.5"/>
<text text-anchor="middle" x="1104.2906" y="-226.5" font-family="Helvetica,sans-Serif" font-size="10.00" fill="#000000">component.h</text>
</a>
</g>
</g>
<!-- Node0&#45;&gt;Node38 -->
<g id="edge46" class="edge">
<title>Node0&#45;&gt;Node38</title>
<path fill="none" stroke="#191970" d="M1287.6135,-277.9748C1253.3426,-268.9128 1190.7786,-252.3694 1148.3778,-241.1577"/>
<polygon fill="#191970" stroke="#191970" points="1149.1564,-237.7433 1138.5939,-238.5706 1147.3669,-244.5107 1149.1564,-237.7433"/>
</g>
<!-- Node40 -->
<g id="node41" class="node">
<title>Node40</title>
<g id="a_node41"><a xlink:href="events_2include_2event_8h.html" target="_top" xlink:title="event.h">
<polygon fill="#ffffff" stroke="#000000" points="1395.8893,-220.5 1395.8893,-238.5 1444.692,-238.5 1444.692,-220.5 1395.8893,-220.5"/>
<text text-anchor="middle" x="1420.2906" y="-226.5" font-family="Helvetica,sans-Serif" font-size="10.00" fill="#000000">event.h</text>
</a>
</g>
</g>
<!-- Node0&#45;&gt;Node40 -->
<g id="edge52" class="edge">
<title>Node0&#45;&gt;Node40</title>
<path fill="none" stroke="#191970" d="M1330.1247,-275.4179C1347.3213,-266.6603 1373.5743,-253.2907 1393.3249,-243.2326"/>
<polygon fill="#191970" stroke="#191970" points="1395.1074,-246.2526 1402.4301,-238.5956 1391.9308,-240.0148 1395.1074,-246.2526"/>
</g>
<!-- Node43 -->
<g id="node44" class="node">
<title>Node43</title>
<g id="a_node44"><a xlink:href="src_2include_2application_8h.html" target="_top" xlink:title="application.h">
<polygon fill="#ffffff" stroke="#000000" points="1159.2145,-220.5 1159.2145,-238.5 1231.3668,-238.5 1231.3668,-220.5 1159.2145,-220.5"/>
<text text-anchor="middle" x="1195.2906" y="-226.5" font-family="Helvetica,sans-Serif" font-size="10.00" fill="#000000">application.h</text>
</a>
</g>
</g>
<!-- Node0&#45;&gt;Node43 -->
<g id="edge58" class="edge">
<title>Node0&#45;&gt;Node43</title>
<path fill="none" stroke="#191970" d="M1292.9705,-275.4179C1274.1714,-266.5807 1245.3821,-253.0473 1223.9218,-242.9591"/>
<polygon fill="#191970" stroke="#191970" points="1225.1785,-239.6824 1214.6395,-238.5956 1222.2005,-246.0174 1225.1785,-239.6824"/>
</g>
<!-- Node44 -->
<g id="node45" class="node">
<title>Node44</title>
<g id="a_node45"><a xlink:href="app__events_2include_2app__event_8h.html" target="_top" xlink:title="app_event.h">
<polygon fill="#ffffff" stroke="#000000" points="1540.7662,-220.5 1540.7662,-238.5 1611.8151,-238.5 1611.8151,-220.5 1540.7662,-220.5"/>
<text text-anchor="middle" x="1576.2906" y="-226.5" font-family="Helvetica,sans-Serif" font-size="10.00" fill="#000000">app_event.h</text>
</a>
</g>
</g>
<!-- Node0&#45;&gt;Node44 -->
<g id="edge63" class="edge">
<title>Node0&#45;&gt;Node44</title>
<path fill="none" stroke="#191970" d="M1337.1271,-279.3257C1381.3534,-270.1119 1474.3655,-250.7344 1530.4729,-239.0454"/>
<polygon fill="#191970" stroke="#191970" points="1531.4238,-242.4225 1540.4998,-236.9564 1529.9961,-235.5696 1531.4238,-242.4225"/>
</g>
<!-- Node47 -->
<g id="node48" class="node">
<title>Node47</title>
<g id="a_node48"><a xlink:href="storage_8h.html" target="_top" xlink:title="storage.h">
<polygon fill="#ffffff" stroke="#000000" points="1315.4435,-220.5 1315.4435,-238.5 1373.1378,-238.5 1373.1378,-220.5 1315.4435,-220.5"/>
<text text-anchor="middle" x="1344.2906" y="-226.5" font-family="Helvetica,sans-Serif" font-size="10.00" fill="#000000">storage.h</text>
</a>
</g>
</g>
<!-- Node0&#45;&gt;Node47 -->
<g id="edge69" class="edge">
<title>Node0&#45;&gt;Node47</title>
<path fill="none" stroke="#191970" d="M1317.5748,-275.4179C1321.9489,-267.8998 1328.3006,-256.9829 1333.7133,-247.6799"/>
<polygon fill="#191970" stroke="#191970" points="1336.8879,-249.1831 1338.8917,-238.7795 1330.8375,-245.6628 1336.8879,-249.1831"/>
</g>
<!-- Node2 -->
<g id="node3" class="node">
<title>Node2</title>
<g id="a_node3"><a xlink:href="src_2include_2common_8h.html" target="_top" xlink:title="common.h">
<polygon fill="#ffffff" stroke="#000000" points="1274.9484,-110.5 1274.9484,-128.5 1337.6329,-128.5 1337.6329,-110.5 1274.9484,-110.5"/>
<text text-anchor="middle" x="1306.2906" y="-116.5" font-family="Helvetica,sans-Serif" font-size="10.00" fill="#000000">common.h</text>
</a>
</g>
</g>
<!-- Node1&#45;&gt;Node2 -->
<g id="edge2" class="edge">
<title>Node1&#45;&gt;Node2</title>
<path fill="none" stroke="#191970" d="M1270.8691,-220.2685C1259.2473,-207.7064 1242.0901,-184.5522 1251.2906,-165 1257.3277,-152.1706 1268.9545,-141.7205 1279.9688,-134.0854"/>
<polygon fill="#191970" stroke="#191970" points="1282.0284,-136.9224 1288.5521,-128.5742 1278.2463,-131.032 1282.0284,-136.9224"/>
</g>
<!-- Node37 -->
<g id="node38" class="node">
<title>Node37</title>
<g id="a_node38"><a xlink:href="src_2include_2context_8h.html" target="_top" xlink:title="context.h">
<polygon fill="#ffffff" stroke="#000000" points="1260.0001,-165.5 1260.0001,-183.5 1316.5812,-183.5 1316.5812,-165.5 1260.0001,-165.5"/>
<text text-anchor="middle" x="1288.2906" y="-171.5" font-family="Helvetica,sans-Serif" font-size="10.00" fill="#000000">context.h</text>
</a>
</g>
</g>
<!-- Node1&#45;&gt;Node37 -->
<g id="edge44" class="edge">
<title>Node1&#45;&gt;Node37</title>
<path fill="none" stroke="#191970" d="M1281.6117,-220.4179C1282.6592,-213.2164 1284.1603,-202.8962 1285.4742,-193.8632"/>
<polygon fill="#191970" stroke="#191970" points="1288.965,-194.1791 1286.9409,-183.7795 1282.0379,-193.1715 1288.965,-194.1791"/>
</g>
<!-- Node3 -->
<g id="node4" class="node">
<title>Node3</title>
<polygon fill="#ffffff" stroke="#bfbfbf" points="1734.5592,-.5 1734.5592,-18.5 1780.0221,-18.5 1780.0221,-.5 1734.5592,-.5"/>
<text text-anchor="middle" x="1757.2906" y="-6.5" font-family="Helvetica,sans-Serif" font-size="10.00" fill="#000000">stdio.h</text>
</g>
<!-- Node2&#45;&gt;Node3 -->
<g id="edge3" class="edge">
<title>Node2&#45;&gt;Node3</title>
<path fill="none" stroke="#191970" d="M1337.7959,-114.4165C1347.5582,-112.9103 1358.3588,-111.3138 1368.2906,-110 1511.4876,-91.0574 1560.7555,-135.8447 1691.2906,-74 1713.5606,-63.449 1732.8955,-42.2924 1744.7828,-27.0834"/>
<polygon fill="#191970" stroke="#191970" points="1747.689,-29.0417 1750.8872,-18.941 1742.0882,-24.8427 1747.689,-29.0417"/>
</g>
<!-- Node4 -->
<g id="node5" class="node">
<title>Node4</title>
<polygon fill="#ffffff" stroke="#bfbfbf" points="1483.7784,-55.5 1483.7784,-73.5 1534.8029,-73.5 1534.8029,-55.5 1483.7784,-55.5"/>
<text text-anchor="middle" x="1509.2906" y="-61.5" font-family="Helvetica,sans-Serif" font-size="10.00" fill="#000000">unistd.h</text>
</g>
<!-- Node2&#45;&gt;Node4 -->
<g id="edge4" class="edge">
<title>Node2&#45;&gt;Node4</title>
<path fill="none" stroke="#191970" d="M1337.7737,-111.1192C1369.7432,-102.5879 1420.9342,-88.87 1473.793,-74.395"/>
<polygon fill="#191970" stroke="#191970" points="1474.9597,-77.7043 1483.6781,-71.6844 1473.1085,-70.9535 1474.9597,-77.7043"/>
</g>
<!-- Node5 -->
<g id="node6" class="node">
<title>Node5</title>
<polygon fill="#ffffff" stroke="#bfbfbf" points="1552.4484,-55.5 1552.4484,-73.5 1600.1329,-73.5 1600.1329,-55.5 1552.4484,-55.5"/>
<text text-anchor="middle" x="1576.2906" y="-61.5" font-family="Helvetica,sans-Serif" font-size="10.00" fill="#000000">stdlib.h</text>
</g>
<!-- Node2&#45;&gt;Node5 -->
<g id="edge5" class="edge">
<title>Node2&#45;&gt;Node5</title>
<path fill="none" stroke="#191970" d="M1337.6922,-114.5229C1381.554,-107.3489 1463.8141,-93.0897 1542.213,-74.3467"/>
<polygon fill="#191970" stroke="#191970" points="1543.3521,-77.6721 1552.2478,-71.9174 1541.7051,-70.8687 1543.3521,-77.6721"/>
</g>
<!-- Node6 -->
<g id="node7" class="node">
<title>Node6</title>
<polygon fill="#ffffff" stroke="#bfbfbf" points="1903.2242,-.5 1903.2242,-18.5 1955.3571,-18.5 1955.3571,-.5 1903.2242,-.5"/>
<text text-anchor="middle" x="1929.2906" y="-6.5" font-family="Helvetica,sans-Serif" font-size="10.00" fill="#000000">stdarg.h</text>
</g>
<!-- Node2&#45;&gt;Node6 -->
<g id="edge6" class="edge">
<title>Node2&#45;&gt;Node6</title>
<path fill="none" stroke="#191970" d="M1337.7551,-114.0709C1347.5157,-112.5506 1358.3257,-111.0331 1368.2906,-110 1441.2311,-102.4377 1976.8716,-127.2486 2027.2906,-74 2050.588,-49.3952 2002.2214,-29.5309 1965.4929,-18.6364"/>
<polygon fill="#191970" stroke="#191970" points="1966.087,-15.1669 1955.5114,-15.805 1964.1767,-21.9012 1966.087,-15.1669"/>
</g>
<!-- Node7 -->
<g id="node8" class="node">
<title>Node7</title>
<polygon fill="#ffffff" stroke="#bfbfbf" points="1618.17,-55.5 1618.17,-73.5 1666.4113,-73.5 1666.4113,-55.5 1618.17,-55.5"/>
<text text-anchor="middle" x="1642.2906" y="-61.5" font-family="Helvetica,sans-Serif" font-size="10.00" fill="#000000">stdint.h</text>
</g>
<!-- Node2&#45;&gt;Node7 -->
<g id="edge7" class="edge">
<title>Node2&#45;&gt;Node7</title>
<path fill="none" stroke="#191970" d="M1337.8281,-114.6442C1347.5918,-113.1472 1358.385,-111.4987 1368.2906,-110 1472.2343,-94.2732 1501.7541,-96.8577 1608.0368,-74.0534"/>
<polygon fill="#191970" stroke="#191970" points="1608.844,-77.4598 1617.8739,-71.9181 1607.359,-70.6191 1608.844,-77.4598"/>
</g>
<!-- Node8 -->
<g id="node9" class="node">
<title>Node8</title>
<polygon fill="#ffffff" stroke="#bfbfbf" points="1821.8942,-55.5 1821.8942,-73.5 1870.6871,-73.5 1870.6871,-55.5 1821.8942,-55.5"/>
<text text-anchor="middle" x="1846.2906" y="-61.5" font-family="Helvetica,sans-Serif" font-size="10.00" fill="#000000">string.h</text>
</g>
<!-- Node2&#45;&gt;Node8 -->
<g id="edge8" class="edge">
<title>Node2&#45;&gt;Node8</title>
<path fill="none" stroke="#191970" d="M1337.7728,-114.2312C1347.5341,-112.7175 1358.3401,-111.1633 1368.2906,-110 1562.1004,-87.3414 1616.3005,-108.8836 1811.5406,-74.011"/>
<polygon fill="#191970" stroke="#191970" points="1812.3354,-77.424 1821.5505,-72.1961 1811.0865,-70.5363 1812.3354,-77.424"/>
</g>
<!-- Node9 -->
<g id="node10" class="node">
<title>Node9</title>
<polygon fill="#ffffff" stroke="#bfbfbf" points="1888.3942,-55.5 1888.3942,-73.5 1942.1871,-73.5 1942.1871,-55.5 1888.3942,-55.5"/>
<text text-anchor="middle" x="1915.2906" y="-61.5" font-family="Helvetica,sans-Serif" font-size="10.00" fill="#000000">strings.h</text>
</g>
<!-- Node2&#45;&gt;Node9 -->
<g id="edge9" class="edge">
<title>Node2&#45;&gt;Node9</title>
<path fill="none" stroke="#191970" d="M1337.7655,-114.1676C1347.5266,-112.6512 1358.3342,-111.1116 1368.2906,-110 1591.2443,-85.1074 1652.8809,-110.4452 1878.1266,-73.8811"/>
<polygon fill="#191970" stroke="#191970" points="1878.9834,-77.2873 1888.2818,-72.209 1877.846,-70.3803 1878.9834,-77.2873"/>
</g>
<!-- Node10 -->
<g id="node11" class="node">
<title>Node10</title>
<polygon fill="#ffffff" stroke="#bfbfbf" points="1960.1627,-55.5 1960.1627,-73.5 2018.4186,-73.5 2018.4186,-55.5 1960.1627,-55.5"/>
<text text-anchor="middle" x="1989.2906" y="-61.5" font-family="Helvetica,sans-Serif" font-size="10.00" fill="#000000">pthread.h</text>
</g>
<!-- Node2&#45;&gt;Node10 -->
<g id="edge10" class="edge">
<title>Node2&#45;&gt;Node10</title>
<path fill="none" stroke="#191970" d="M1337.7597,-114.1145C1347.5205,-112.5959 1358.3294,-111.0685 1368.2906,-110 1623.1376,-82.6636 1692.9663,-112.862 1949.9344,-73.9384"/>
<polygon fill="#191970" stroke="#191970" points="1950.5876,-77.3792 1959.9407,-72.4023 1949.5254,-70.4603 1950.5876,-77.3792"/>
</g>
<!-- Node11 -->
<g id="node12" class="node">
<title>Node11</title>
<polygon fill="#ffffff" stroke="#bfbfbf" points="2112.17,-55.5 2112.17,-73.5 2160.4113,-73.5 2160.4113,-55.5 2112.17,-55.5"/>
<text text-anchor="middle" x="2136.2906" y="-61.5" font-family="Helvetica,sans-Serif" font-size="10.00" fill="#000000">ctype.h</text>
</g>
<!-- Node2&#45;&gt;Node11 -->
<g id="edge11" class="edge">
<title>Node2&#45;&gt;Node11</title>
<path fill="none" stroke="#191970" d="M1337.7518,-114.0384C1347.5123,-112.5168 1358.323,-111.0067 1368.2906,-110 1691.4851,-77.3572 1776.9614,-121.6203 2098.2906,-74 2099.5393,-73.815 2100.8067,-73.6068 2102.0835,-73.3798"/>
<polygon fill="#191970" stroke="#191970" points="2102.8211,-76.8014 2111.9023,-71.344 2101.3999,-69.9472 2102.8211,-76.8014"/>
</g>
<!-- Node12 -->
<g id="node13" class="node">
<title>Node12</title>
<polygon fill="#ffffff" stroke="#bfbfbf" points="2178.4484,-55.5 2178.4484,-73.5 2226.1329,-73.5 2226.1329,-55.5 2178.4484,-55.5"/>
<text text-anchor="middle" x="2202.2906" y="-61.5" font-family="Helvetica,sans-Serif" font-size="10.00" fill="#000000">errno.h</text>
</g>
<!-- Node2&#45;&gt;Node12 -->
<g id="edge12" class="edge">
<title>Node2&#45;&gt;Node12</title>
<path fill="none" stroke="#191970" d="M1337.7491,-114.0117C1347.5095,-112.489 1358.3208,-110.985 1368.2906,-110 1719.6334,-75.288 1815.8525,-130.6467 2168.3201,-73.7451"/>
<polygon fill="#191970" stroke="#191970" points="2168.9846,-77.1831 2178.2897,-72.1169 2167.8563,-70.2746 2168.9846,-77.1831"/>
</g>
<!-- Node13 -->
<g id="node14" class="node">
<title>Node13</title>
<polygon fill="#ffffff" stroke="#bfbfbf" points="2243.6749,-55.5 2243.6749,-73.5 2286.9064,-73.5 2286.9064,-55.5 2243.6749,-55.5"/>
<text text-anchor="middle" x="2265.2906" y="-61.5" font-family="Helvetica,sans-Serif" font-size="10.00" fill="#000000">time.h</text>
</g>
<!-- Node2&#45;&gt;Node13 -->
<g id="edge13" class="edge">
<title>Node2&#45;&gt;Node13</title>
<path fill="none" stroke="#191970" d="M1337.747,-113.9907C1347.5074,-112.4671 1358.3192,-110.968 1368.2906,-110 1748.8716,-73.0554 1853.6687,-139.6454 2233.6175,-73.8657"/>
<polygon fill="#191970" stroke="#191970" points="2234.2563,-77.3072 2243.503,-72.1353 2233.0492,-70.412 2234.2563,-77.3072"/>
</g>
<!-- Node14 -->
<g id="node15" class="node">
<title>Node14</title>
<polygon fill="#ffffff" stroke="#bfbfbf" points="45.9508,-55.5 45.9508,-73.5 88.6305,-73.5 88.6305,-55.5 45.9508,-55.5"/>
<text text-anchor="middle" x="67.2906" y="-61.5" font-family="Helvetica,sans-Serif" font-size="10.00" fill="#000000">fcntl.h</text>
</g>
<!-- Node2&#45;&gt;Node14 -->
<g id="edge14" class="edge">
<title>Node2&#45;&gt;Node14</title>
<path fill="none" stroke="#191970" d="M1274.8379,-119.4187C1111.1317,-118.8302 354.6429,-114.0399 98.7823,-73.5162"/>
<polygon fill="#191970" stroke="#191970" points="99.234,-70.0435 88.7983,-71.8728 98.0971,-76.9506 99.234,-70.0435"/>
</g>
<!-- Node15 -->
<g id="node16" class="node">
<title>Node15</title>
<polygon fill="#ffffff" stroke="#bfbfbf" points="107.0568,-55.5 107.0568,-73.5 157.5245,-73.5 157.5245,-55.5 107.0568,-55.5"/>
<text text-anchor="middle" x="132.2906" y="-61.5" font-family="Helvetica,sans-Serif" font-size="10.00" fill="#000000">signal.h</text>
</g>
<!-- Node2&#45;&gt;Node15 -->
<g id="edge15" class="edge">
<title>Node2&#45;&gt;Node15</title>
<path fill="none" stroke="#191970" d="M1274.7979,-119.2319C1116.8189,-117.7384 409.0586,-109.252 167.8709,-73.8471"/>
<polygon fill="#191970" stroke="#191970" points="168.1835,-70.3544 157.7697,-72.3048 167.1268,-77.2742 168.1835,-70.3544"/>
</g>
<!-- Node16 -->
<g id="node17" class="node">
<title>Node16</title>
<polygon fill="#ffffff" stroke="#bfbfbf" points="2025.7858,-.5 2025.7858,-18.5 2086.7955,-18.5 2086.7955,-.5 2025.7858,-.5"/>
<text text-anchor="middle" x="2056.2906" y="-6.5" font-family="Helvetica,sans-Serif" font-size="10.00" fill="#000000">sys/time.h</text>
</g>
<!-- Node2&#45;&gt;Node16 -->
<g id="edge16" class="edge">
<title>Node2&#45;&gt;Node16</title>
<path fill="none" stroke="#191970" d="M1337.7542,-114.0625C1347.5148,-112.5419 1358.325,-111.0263 1368.2906,-110 1443.1125,-102.2944 1987.7431,-123.5989 2044.2906,-74 2056.846,-62.9875 2058.9557,-43.4308 2058.4665,-28.7301"/>
<polygon fill="#191970" stroke="#191970" points="2061.9494,-28.369 2057.7158,-18.6568 2054.9688,-28.8893 2061.9494,-28.369"/>
</g>
<!-- Node17 -->
<g id="node18" class="node">
<title>Node17</title>
<polygon fill="#ffffff" stroke="#bfbfbf" points="175.1725,-55.5 175.1725,-73.5 233.4088,-73.5 233.4088,-55.5 175.1725,-55.5"/>
<text text-anchor="middle" x="204.2906" y="-61.5" font-family="Helvetica,sans-Serif" font-size="10.00" fill="#000000">sys/stat.h</text>
</g>
<!-- Node2&#45;&gt;Node17 -->
<g id="edge17" class="edge">
<title>Node2&#45;&gt;Node17</title>
<path fill="none" stroke="#191970" d="M1274.909,-119.0142C1123.7963,-116.5465 469.5186,-104.3622 243.7355,-73.877"/>
<polygon fill="#191970" stroke="#191970" points="244.0217,-70.3829 233.6322,-72.4584 243.0483,-77.3149 244.0217,-70.3829"/>
</g>
<!-- Node18 -->
<g id="node19" class="node">
<title>Node18</title>
<polygon fill="#ffffff" stroke="#bfbfbf" points="251.2809,-55.5 251.2809,-73.5 317.3004,-73.5 317.3004,-55.5 251.2809,-55.5"/>
<text text-anchor="middle" x="284.2906" y="-61.5" font-family="Helvetica,sans-Serif" font-size="10.00" fill="#000000">sys/types.h</text>
</g>
<!-- Node2&#45;&gt;Node18 -->
<g id="edge18" class="edge">
<title>Node2&#45;&gt;Node18</title>
<path fill="none" stroke="#191970" d="M1274.5255,-118.7782C1130.3763,-115.3892 536.1549,-100.168 327.879,-73.9435"/>
<polygon fill="#191970" stroke="#191970" points="328.0346,-70.4341 317.6647,-72.6059 327.1256,-77.3748 328.0346,-70.4341"/>
</g>
<!-- Node19 -->
<g id="node20" class="node">
<title>Node19</title>
<polygon fill="#ffffff" stroke="#bfbfbf" points="335.34,-55.5 335.34,-73.5 395.2413,-73.5 395.2413,-55.5 335.34,-55.5"/>
<text text-anchor="middle" x="365.2906" y="-61.5" font-family="Helvetica,sans-Serif" font-size="10.00" fill="#000000">sys/ioctl.h</text>
</g>
<!-- Node2&#45;&gt;Node19 -->
<g id="edge19" class="edge">
<title>Node2&#45;&gt;Node19</title>
<path fill="none" stroke="#191970" d="M1274.7139,-118.7341C1138.066,-115.2949 596.3119,-100.3465 405.3747,-74.0306"/>
<polygon fill="#191970" stroke="#191970" points="405.863,-70.5649 395.4669,-72.6071 404.8675,-77.4937 405.863,-70.5649"/>
</g>
<!-- Node20 -->
<g id="node21" class="node">
<title>Node20</title>
<polygon fill="#ffffff" stroke="#bfbfbf" points="412.7809,-55.5 412.7809,-73.5 483.8004,-73.5 483.8004,-55.5 412.7809,-55.5"/>
<text text-anchor="middle" x="448.2906" y="-61.5" font-family="Helvetica,sans-Serif" font-size="10.00" fill="#000000">sys/socket.h</text>
</g>
<!-- Node2&#45;&gt;Node20 -->
<g id="edge20" class="edge">
<title>Node2&#45;&gt;Node20</title>
<path fill="none" stroke="#191970" d="M1274.8299,-118.4025C1147.2084,-113.8504 667.0798,-95.731 494.1891,-74.04"/>
<polygon fill="#191970" stroke="#191970" points="494.5969,-70.5636 484.2279,-72.7395 493.6906,-77.5047 494.5969,-70.5636"/>
</g>
<!-- Node21 -->
<g id="node22" class="node">
<title>Node21</title>
<polygon fill="#ffffff" stroke="#bfbfbf" points="501.67,-55.5 501.67,-73.5 574.9113,-73.5 574.9113,-55.5 501.67,-55.5"/>
<text text-anchor="middle" x="538.2906" y="-61.5" font-family="Helvetica,sans-Serif" font-size="10.00" fill="#000000">sys/sysinfo.h</text>
</g>
<!-- Node2&#45;&gt;Node21 -->
<g id="edge21" class="edge">
<title>Node2&#45;&gt;Node21</title>
<path fill="none" stroke="#191970" d="M1274.7709,-119.1472C1174.9702,-117.6868 856.9306,-110.3988 585.1074,-74.0747"/>
<polygon fill="#191970" stroke="#191970" points="585.4305,-70.5866 575.0516,-72.7147 584.4923,-77.5235 585.4305,-70.5866"/>
</g>
<!-- Node22 -->
<g id="node23" class="node">
<title>Node22</title>
<polygon fill="#ffffff" stroke="#bfbfbf" points="592.6627,-55.5 592.6627,-73.5 655.9186,-73.5 655.9186,-55.5 592.6627,-55.5"/>
<text text-anchor="middle" x="624.2906" y="-61.5" font-family="Helvetica,sans-Serif" font-size="10.00" fill="#000000">arpa/inet.h</text>
</g>
<!-- Node2&#45;&gt;Node22 -->
<g id="edge22" class="edge">
<title>Node2&#45;&gt;Node22</title>
<path fill="none" stroke="#191970" d="M1274.7502,-119.0089C1182.5138,-117.2038 905.2449,-109.1511 665.9103,-73.844"/>
<polygon fill="#191970" stroke="#191970" points="666.3878,-70.3765 655.9802,-72.36 665.3531,-77.2997 666.3878,-70.3765"/>
</g>
<!-- Node23 -->
<g id="node24" class="node">
<title>Node23</title>
<polygon fill="#ffffff" stroke="#bfbfbf" points="673.8278,-55.5 673.8278,-73.5 738.7535,-73.5 738.7535,-55.5 673.8278,-55.5"/>
<text text-anchor="middle" x="706.2906" y="-61.5" font-family="Helvetica,sans-Serif" font-size="10.00" fill="#000000">netinet/in.h</text>
</g>
<!-- Node2&#45;&gt;Node23 -->
<g id="edge23" class="edge">
<title>Node2&#45;&gt;Node23</title>
<path fill="none" stroke="#191970" d="M1274.8897,-118.5558C1190.9777,-115.6914 954.4743,-105.3842 748.9522,-74.0609"/>
<polygon fill="#191970" stroke="#191970" points="749.2975,-70.5728 738.8803,-72.505 748.2287,-77.4907 749.2975,-70.5728"/>
</g>
<!-- Node24 -->
<g id="node25" class="node">
<title>Node24</title>
<polygon fill="#ffffff" stroke="#bfbfbf" points="756.4337,-55.5 756.4337,-73.5 834.1476,-73.5 834.1476,-55.5 756.4337,-55.5"/>
<text text-anchor="middle" x="795.2906" y="-61.5" font-family="Helvetica,sans-Serif" font-size="10.00" fill="#000000">net/ethernet.h</text>
</g>
<!-- Node2&#45;&gt;Node24 -->
<g id="edge24" class="edge">
<title>Node2&#45;&gt;Node24</title>
<path fill="none" stroke="#191970" d="M1274.7232,-117.4635C1201.1211,-112.4878 1012.2625,-98.4093 844.281,-74.0145"/>
<polygon fill="#191970" stroke="#191970" points="844.6706,-70.5342 834.2682,-72.5443 843.6537,-77.46 844.6706,-70.5342"/>
</g>
<!-- Node25 -->
<g id="node26" class="node">
<title>Node25</title>
<polygon fill="#ffffff" stroke="#bfbfbf" points="851.8278,-55.5 851.8278,-73.5 916.7535,-73.5 916.7535,-55.5 851.8278,-55.5"/>
<text text-anchor="middle" x="884.2906" y="-61.5" font-family="Helvetica,sans-Serif" font-size="10.00" fill="#000000">netinet/ip.h</text>
</g>
<!-- Node2&#45;&gt;Node25 -->
<g id="edge25" class="edge">
<title>Node2&#45;&gt;Node25</title>
<path fill="none" stroke="#191970" d="M1274.6021,-116.8214C1210.7931,-111.1886 1062.119,-96.8589 926.9077,-73.9351"/>
<polygon fill="#191970" stroke="#191970" points="927.2315,-70.4395 916.7836,-72.1979 926.0476,-77.3387 927.2315,-70.4395"/>
</g>
<!-- Node26 -->
<g id="node27" class="node">
<title>Node26</title>
<polygon fill="#ffffff" stroke="#bfbfbf" points="935.0494,-55.5 935.0494,-73.5 1005.5319,-73.5 1005.5319,-55.5 935.0494,-55.5"/>
<text text-anchor="middle" x="970.2906" y="-61.5" font-family="Helvetica,sans-Serif" font-size="10.00" fill="#000000">netinet/tcp.h</text>
</g>
<!-- Node2&#45;&gt;Node26 -->
<g id="edge26" class="edge">
<title>Node2&#45;&gt;Node26</title>
<path fill="none" stroke="#191970" d="M1274.6453,-115.1833C1222.6775,-107.9615 1115.7994,-92.5527 1015.7649,-74.1947"/>
<polygon fill="#191970" stroke="#191970" points="1016.2663,-70.7282 1005.7966,-72.3512 1014.9933,-77.6115 1016.2663,-70.7282"/>
</g>
<!-- Node27 -->
<g id="node28" class="node">
<title>Node27</title>
<polygon fill="#ffffff" stroke="#bfbfbf" points="1023.4904,-55.5 1023.4904,-73.5 1115.0909,-73.5 1115.0909,-55.5 1023.4904,-55.5"/>
<text text-anchor="middle" x="1069.2906" y="-61.5" font-family="Helvetica,sans-Serif" font-size="10.00" fill="#000000">netinet/ip_icmp.h</text>
</g>
<!-- Node2&#45;&gt;Node27 -->
<g id="edge27" class="edge">
<title>Node2&#45;&gt;Node27</title>
<path fill="none" stroke="#191970" d="M1274.8189,-112.1964C1234.8169,-102.9133 1165.3271,-86.7869 1118.344,-75.8837"/>
<polygon fill="#191970" stroke="#191970" points="1118.9183,-72.424 1108.3859,-73.5727 1117.3358,-79.2428 1118.9183,-72.424"/>
</g>
<!-- Node28 -->
<g id="node29" class="node">
<title>Node28</title>
<g id="a_node29"><a xlink:href="mac2int_8h.html" target="_top" xlink:title="mac2int.h">
<polygon fill="#ffffff" stroke="#000000" points="1132.6134,-55.5 1132.6134,-73.5 1191.9679,-73.5 1191.9679,-55.5 1132.6134,-55.5"/>
<text text-anchor="middle" x="1162.2906" y="-61.5" font-family="Helvetica,sans-Serif" font-size="10.00" fill="#000000">mac2int.h</text>
</a>
</g>
</g>
<!-- Node2&#45;&gt;Node28 -->
<g id="edge28" class="edge">
<title>Node2&#45;&gt;Node28</title>
<path fill="none" stroke="#191970" d="M1277.3457,-110.4179C1251.9281,-101.4215 1215.4121,-87.5581 1190.2866,-77.4172"/>
<polygon fill="#191970" stroke="#191970" points="1191.5164,-74.1388 1180.9355,-73.5956 1188.8683,-80.6186 1191.5164,-74.1388"/>
</g>
<!-- Node29 -->
<g id="node30" class="node">
<title>Node29</title>
<g id="a_node30"><a xlink:href="ip2int_8h.html" target="_top" xlink:title="ip2int.h">
<polygon fill="#ffffff" stroke="#000000" points="1210.1676,-55.5 1210.1676,-73.5 1258.4137,-73.5 1258.4137,-55.5 1210.1676,-55.5"/>
<text text-anchor="middle" x="1234.2906" y="-61.5" font-family="Helvetica,sans-Serif" font-size="10.00" fill="#000000">ip2int.h</text>
</a>
</g>
</g>
<!-- Node2&#45;&gt;Node29 -->
<g id="edge30" class="edge">
<title>Node2&#45;&gt;Node29</title>
<path fill="none" stroke="#191970" d="M1289.235,-110.4179C1276.8761,-102.2667 1260.6367,-90.1201 1248.8802,-80.3669"/>
<polygon fill="#191970" stroke="#191970" points="1251.0928,-77.6534 1241.2315,-73.7795 1246.5246,-82.9574 1251.0928,-77.6534"/>
</g>
<!-- Node30 -->
<g id="node31" class="node">
<title>Node30</title>
<g id="a_node31"><a xlink:href="database_8h.html" target="_top" xlink:title="database.h">
<polygon fill="#ffffff" stroke="#000000" points="2304.547,-55.5 2304.547,-73.5 2370.0343,-73.5 2370.0343,-55.5 2304.547,-55.5"/>
<text text-anchor="middle" x="2337.2906" y="-61.5" font-family="Helvetica,sans-Serif" font-size="10.00" fill="#000000">database.h</text>
</a>
</g>
</g>
<!-- Node2&#45;&gt;Node30 -->
<g id="edge32" class="edge">
<title>Node2&#45;&gt;Node30</title>
<path fill="none" stroke="#191970" d="M1337.71,-112.6524C1344.7797,-111.6186 1352.2447,-110.6743 1359.2906,-110 1770.1681,-70.6794 1878.1939,-128.8294 2287.2906,-74 2289.6126,-73.6888 2291.996,-73.3065 2294.4068,-72.8759"/>
<polygon fill="#191970" stroke="#191970" points="2295.2592,-76.275 2304.3842,-70.8912 2293.8935,-69.4095 2295.2592,-76.275"/>
</g>
<!-- Node32 -->
<g id="node33" class="node">
<title>Node32</title>
<polygon fill="#ffffff" stroke="#bfbfbf" points="1276.8868,-55.5 1276.8868,-73.5 1335.6945,-73.5 1335.6945,-55.5 1276.8868,-55.5"/>
<text text-anchor="middle" x="1306.2906" y="-61.5" font-family="Helvetica,sans-Serif" font-size="10.00" fill="#000000">jansson.h</text>
</g>
<!-- Node2&#45;&gt;Node32 -->
<g id="edge36" class="edge">
<title>Node2&#45;&gt;Node32</title>
<path fill="none" stroke="#191970" d="M1306.2906,-110.4179C1306.2906,-103.2164 1306.2906,-92.8962 1306.2906,-83.8632"/>
<polygon fill="#191970" stroke="#191970" points="1309.7907,-83.7794 1306.2906,-73.7795 1302.7907,-83.7795 1309.7907,-83.7794"/>
</g>
<!-- Node33 -->
<g id="node34" class="node">
<title>Node33</title>
<g id="a_node34"><a xlink:href="libcli_8h.html" target="_top" xlink:title="libcli.h">
<polygon fill="#ffffff" stroke="#000000" points="1760.3966,-55.5 1760.3966,-73.5 1804.1847,-73.5 1804.1847,-55.5 1760.3966,-55.5"/>
<text text-anchor="middle" x="1782.2906" y="-61.5" font-family="Helvetica,sans-Serif" font-size="10.00" fill="#000000">libcli.h</text>
</a>
</g>
</g>
<!-- Node2&#45;&gt;Node33 -->
<g id="edge37" class="edge">
<title>Node2&#45;&gt;Node33</title>
<path fill="none" stroke="#191970" d="M1337.7833,-114.3184C1347.5451,-112.8081 1358.3486,-111.2341 1368.2906,-110 1535.7655,-89.2115 1580.1517,-103.6284 1746.2906,-74 1747.5793,-73.7702 1748.8893,-73.5173 1750.2092,-73.2464"/>
<polygon fill="#191970" stroke="#191970" points="1751.3801,-76.568 1760.3326,-70.902 1749.8008,-69.7484 1751.3801,-76.568"/>
</g>
<!-- Node34 -->
<g id="node35" class="node">
<title>Node34</title>
<polygon fill="#ffffff" stroke="#bfbfbf" points="1354.0641,-55.5 1354.0641,-73.5 1404.5172,-73.5 1404.5172,-55.5 1354.0641,-55.5"/>
<text text-anchor="middle" x="1379.2906" y="-61.5" font-family="Helvetica,sans-Serif" font-size="10.00" fill="#000000">mysql.h</text>
</g>
<!-- Node2&#45;&gt;Node34 -->
<g id="edge41" class="edge">
<title>Node2&#45;&gt;Node34</title>
<path fill="none" stroke="#191970" d="M1318.3451,-110.4179C1329.374,-102.1084 1345.9138,-89.6469 1358.9813,-79.8015"/>
<polygon fill="#191970" stroke="#191970" points="1361.0935,-82.5924 1366.9743,-73.7795 1356.8813,-77.0016 1361.0935,-82.5924"/>
</g>
<!-- Node35 -->
<g id="node36" class="node">
<title>Node35</title>
<polygon fill="#ffffff" stroke="#bfbfbf" points="1422.6749,-55.5 1422.6749,-73.5 1465.9064,-73.5 1465.9064,-55.5 1422.6749,-55.5"/>
<text text-anchor="middle" x="1444.2906" y="-61.5" font-family="Helvetica,sans-Serif" font-size="10.00" fill="#000000">zmq.h</text>
</g>
<!-- Node2&#45;&gt;Node35 -->
<g id="edge42" class="edge">
<title>Node2&#45;&gt;Node35</title>
<path fill="none" stroke="#191970" d="M1329.0785,-110.4179C1351.9217,-101.3137 1387.2708,-87.2253 1412.7904,-77.0544"/>
<polygon fill="#191970" stroke="#191970" points="1414.3877,-80.1857 1422.3813,-73.232 1411.796,-73.6831 1414.3877,-80.1857"/>
</g>
<!-- Node36 -->
<g id="node37" class="node">
<title>Node36</title>
<g id="a_node37"><a xlink:href="src_2include_2type_8h.html" target="_top" xlink:title="type.h">
<polygon fill="#ffffff" stroke="#000000" points="2387.67,-55.5 2387.67,-73.5 2430.9113,-73.5 2430.9113,-55.5 2387.67,-55.5"/>
<text text-anchor="middle" x="2409.2906" y="-61.5" font-family="Helvetica,sans-Serif" font-size="10.00" fill="#000000">type.h</text>
</a>
</g>
</g>
<!-- Node2&#45;&gt;Node36 -->
<g id="edge43" class="edge">
<title>Node2&#45;&gt;Node36</title>
<path fill="none" stroke="#191970" d="M1337.6877,-118.6632C1499.2158,-114.2939 2234.2792,-93.607 2377.2158,-73.7445"/>
<polygon fill="#191970" stroke="#191970" points="2378.1648,-77.1386 2387.5026,-72.133 2377.0813,-70.223 2378.1648,-77.1386"/>
</g>
<!-- Node28&#45;&gt;Node2 -->
<g id="edge29" class="edge">
<title>Node28&#45;&gt;Node2</title>
<path fill="none" stroke="#191970" d="M1191.0154,-73.5042C1216.4445,-82.4992 1253.104,-96.4155 1278.3024,-106.586"/>
<polygon fill="#191970" stroke="#191970" points="1277.0974,-109.8744 1287.6783,-110.4179 1279.7457,-103.3947 1277.0974,-109.8744"/>
</g>
<!-- Node29&#45;&gt;Node2 -->
<g id="edge31" class="edge">
<title>Node29&#45;&gt;Node2</title>
<path fill="none" stroke="#191970" d="M1251.3668,-73.5956C1263.8044,-81.8003 1280.1648,-94.0451 1291.9324,-103.8251"/>
<polygon fill="#191970" stroke="#191970" points="1289.7113,-106.5315 1299.5676,-110.4179 1294.2862,-101.2333 1289.7113,-106.5315"/>
</g>
<!-- Node30&#45;&gt;Node2 -->
<g id="edge33" class="edge">
<title>Node30&#45;&gt;Node2</title>
<path fill="none" stroke="#191970" d="M2308.3616,-73.5536C2307.3301,-73.7147 2306.3045,-73.8641 2305.2906,-74 1896.1939,-128.8294 1788.1681,-70.6794 1377.2906,-110 1367.7972,-110.9085 1357.5431,-112.3072 1347.7995,-113.7544"/>
<polygon fill="#191970" stroke="#191970" points="1347.2442,-110.2986 1337.8838,-115.2616 1348.2962,-117.2191 1347.2442,-110.2986"/>
</g>
<!-- Node31 -->
<g id="node32" class="node">
<title>Node31</title>
<g id="a_node32"><a xlink:href="str_8h.html" target="_top" xlink:title="str.h">
<polygon fill="#ffffff" stroke="#000000" points="853.84,-.5 853.84,-18.5 888.7413,-18.5 888.7413,-.5 853.84,-.5"/>
<text text-anchor="middle" x="871.2906" y="-6.5" font-family="Helvetica,sans-Serif" font-size="10.00" fill="#000000">str.h</text>
</a>
</g>
</g>
<!-- Node30&#45;&gt;Node31 -->
<g id="edge34" class="edge">
<title>Node30&#45;&gt;Node31</title>
<path fill="none" stroke="#191970" d="M2304.2738,-56.2651C2301.5844,-55.7731 2298.8989,-55.3405 2296.2906,-55 2011.5514,-17.8307 1072.3769,-10.6613 898.9549,-9.6445"/>
<polygon fill="#191970" stroke="#191970" points="898.8874,-6.1441 888.8677,-9.5873 898.8477,-13.144 898.8874,-6.1441"/>
</g>
<!-- Node31&#45;&gt;Node2 -->
<g id="edge35" class="edge">
<title>Node31&#45;&gt;Node2</title>
<path fill="none" stroke="#191970" d="M888.9167,-9.8192C1004.2442,-11.9907 1647.3234,-25.4053 1675.2906,-55 1722.8944,-105.3739 1436.9741,-100.7139 1368.2906,-110 1361.7754,-110.8809 1354.8848,-111.8747 1348.1582,-112.8791"/>
<polygon fill="#191970" stroke="#191970" points="1347.1619,-109.4902 1337.8005,-114.4516 1348.2126,-116.4109 1347.1619,-109.4902"/>
</g>
<!-- Node33&#45;&gt;Node3 -->
<g id="edge39" class="edge">
<title>Node33&#45;&gt;Node3</title>
<path fill="none" stroke="#191970" d="M1778.1624,-55.4179C1774.7811,-47.9789 1769.8872,-37.2123 1765.688,-27.9742"/>
<polygon fill="#191970" stroke="#191970" points="1768.833,-26.4348 1761.5086,-18.7795 1762.4604,-29.3315 1768.833,-26.4348"/>
</g>
<!-- Node33&#45;&gt;Node6 -->
<g id="edge38" class="edge">
<title>Node33&#45;&gt;Node6</title>
<path fill="none" stroke="#191970" d="M1804.298,-56.2659C1828.5145,-47.2053 1867.7181,-32.5374 1895.7631,-22.0443"/>
<polygon fill="#191970" stroke="#191970" points="1897.0354,-25.3053 1905.1748,-18.5229 1894.5823,-18.7492 1897.0354,-25.3053"/>
</g>
<!-- Node33&#45;&gt;Node16 -->
<g id="edge40" class="edge">
<title>Node33&#45;&gt;Node16</title>
<path fill="none" stroke="#191970" d="M1804.2213,-57.4462C1807.2533,-56.5687 1810.339,-55.7262 1813.2906,-55 1883.7649,-37.6617 1967.1573,-23.377 2015.6556,-15.6764"/>
<polygon fill="#191970" stroke="#191970" points="2016.414,-19.1002 2025.7488,-14.089 2015.3265,-12.1852 2016.414,-19.1002"/>
</g>
<!-- Node37&#45;&gt;Node2 -->
<g id="edge45" class="edge">
<title>Node37&#45;&gt;Node2</title>
<path fill="none" stroke="#191970" d="M1291.263,-165.4179C1293.6457,-158.1372 1297.0717,-147.669 1300.0509,-138.5659"/>
<polygon fill="#191970" stroke="#191970" points="1303.4697,-139.3721 1303.2537,-128.7795 1296.8169,-137.1948 1303.4697,-139.3721"/>
</g>
<!-- Node38&#45;&gt;Node2 -->
<g id="edge47" class="edge">
<title>Node38&#45;&gt;Node2</title>
<path fill="none" stroke="#191970" d="M1093.7202,-220.4119C1079.6135,-207.1968 1057.9791,-182.3624 1072.2906,-165 1096.2416,-135.9434 1204.378,-125.2052 1264.9147,-121.4245"/>
<polygon fill="#191970" stroke="#191970" points="1265.1405,-124.9174 1274.9176,-120.8361 1264.7293,-117.9295 1265.1405,-124.9174"/>
</g>
<!-- Node38&#45;&gt;Node31 -->
<g id="edge51" class="edge">
<title>Node38&#45;&gt;Node31</title>
<path fill="none" stroke="#191970" d="M1067.2992,-227.1066C883.6675,-214.8585 75.9867,-156.5441 4.2906,-74 -1.2468,-67.6247 -1.5219,-61.1256 4.2906,-55 33.8355,-23.864 697.3959,-12.1114 843.151,-9.9009"/>
<polygon fill="#191970" stroke="#191970" points="843.5212,-13.3959 853.468,-9.7474 843.417,-6.3966 843.5212,-13.3959"/>
</g>
<!-- Node38&#45;&gt;Node37 -->
<g id="edge48" class="edge">
<title>Node38&#45;&gt;Node37</title>
<path fill="none" stroke="#191970" d="M1134.6745,-220.4179C1166.3541,-210.9484 1216.0733,-196.0867 1250.3209,-185.8496"/>
<polygon fill="#191970" stroke="#191970" points="1251.3997,-189.1803 1259.9784,-182.9629 1249.3949,-182.4735 1251.3997,-189.1803"/>
</g>
<!-- Node39 -->
<g id="node40" class="node">
<title>Node39</title>
<g id="a_node40"><a xlink:href="hash_8h.html" target="_top" xlink:title="hash.h">
<polygon fill="#ffffff" stroke="#000000" points="1081.2784,-165.5 1081.2784,-183.5 1127.3029,-183.5 1127.3029,-165.5 1081.2784,-165.5"/>
<text text-anchor="middle" x="1104.2906" y="-171.5" font-family="Helvetica,sans-Serif" font-size="10.00" fill="#000000">hash.h</text>
</a>
</g>
</g>
<!-- Node38&#45;&gt;Node39 -->
<g id="edge49" class="edge">
<title>Node38&#45;&gt;Node39</title>
<path fill="none" stroke="#191970" d="M1104.2906,-220.4179C1104.2906,-213.2164 1104.2906,-202.8962 1104.2906,-193.8632"/>
<polygon fill="#191970" stroke="#191970" points="1107.7907,-193.7794 1104.2906,-183.7795 1100.7907,-193.7795 1107.7907,-193.7794"/>
</g>
<!-- Node39&#45;&gt;Node2 -->
<g id="edge50" class="edge">
<title>Node39&#45;&gt;Node2</title>
<path fill="none" stroke="#191970" d="M1127.4626,-168.1908C1160.9705,-159.0674 1223.4768,-142.0483 1264.9916,-130.7448"/>
<polygon fill="#191970" stroke="#191970" points="1266.0752,-134.0773 1274.8044,-128.073 1264.2361,-127.3231 1266.0752,-134.0773"/>
</g>
<!-- Node40&#45;&gt;Node2 -->
<g id="edge53" class="edge">
<title>Node40&#45;&gt;Node2</title>
<path fill="none" stroke="#191970" d="M1410.9615,-220.4982C1391.7556,-201.9662 1347.5608,-159.3221 1323.1891,-135.8056"/>
<polygon fill="#191970" stroke="#191970" points="1325.3752,-133.0512 1315.7486,-128.6261 1320.5146,-138.0885 1325.3752,-133.0512"/>
</g>
<!-- Node40&#45;&gt;Node37 -->
<g id="edge54" class="edge">
<title>Node40&#45;&gt;Node37</title>
<path fill="none" stroke="#191970" d="M1398.4935,-220.4179C1376.9977,-211.4613 1343.9242,-197.6806 1319.6154,-187.552"/>
<polygon fill="#191970" stroke="#191970" points="1320.6971,-184.2111 1310.1201,-183.5956 1318.0047,-190.6726 1320.6971,-184.2111"/>
</g>
<!-- Node41 -->
<g id="node42" class="node">
<title>Node41</title>
<g id="a_node42"><a xlink:href="events_2include_2event__id_8h.html" target="_top" xlink:title="event_id.h">
<polygon fill="#ffffff" stroke="#000000" points="1448.2169,-165.5 1448.2169,-183.5 1510.3644,-183.5 1510.3644,-165.5 1448.2169,-165.5"/>
<text text-anchor="middle" x="1479.2906" y="-171.5" font-family="Helvetica,sans-Serif" font-size="10.00" fill="#000000">event_id.h</text>
</a>
</g>
</g>
<!-- Node40&#45;&gt;Node41 -->
<g id="edge55" class="edge">
<title>Node40&#45;&gt;Node41</title>
<path fill="none" stroke="#191970" d="M1430.0333,-220.4179C1438.6924,-212.3458 1451.5546,-200.3556 1461.9643,-190.6517"/>
<polygon fill="#191970" stroke="#191970" points="1464.4082,-193.1584 1469.3363,-183.7795 1459.635,-188.0381 1464.4082,-193.1584"/>
</g>
<!-- Node42 -->
<g id="node43" class="node">
<title>Node42</title>
<g id="a_node43"><a xlink:href="events_2include_2event__list_8h.html" target="_top" xlink:title="event_list.h">
<polygon fill="#ffffff" stroke="#000000" points="1698.9977,-110.5 1698.9977,-128.5 1765.5836,-128.5 1765.5836,-110.5 1698.9977,-110.5"/>
<text text-anchor="middle" x="1732.2906" y="-116.5" font-family="Helvetica,sans-Serif" font-size="10.00" fill="#000000">event_list.h</text>
</a>
</g>
</g>
<!-- Node40&#45;&gt;Node42 -->
<g id="edge56" class="edge">
<title>Node40&#45;&gt;Node42</title>
<path fill="none" stroke="#191970" d="M1444.7133,-220.6425C1479.2984,-208.1235 1544.5457,-184.5944 1600.2906,-165 1632.6337,-153.6314 1669.5288,-140.9368 1696.0746,-131.8514"/>
<polygon fill="#191970" stroke="#191970" points="1697.3811,-135.1036 1705.7107,-128.5562 1695.1161,-128.4802 1697.3811,-135.1036"/>
</g>
<!-- Node42&#45;&gt;Node36 -->
<g id="edge57" class="edge">
<title>Node42&#45;&gt;Node36</title>
<path fill="none" stroke="#191970" d="M1765.5932,-118.1994C1877.5579,-113.6681 2240.6064,-97.6503 2377.277,-73.9299"/>
<polygon fill="#191970" stroke="#191970" points="2378.283,-77.3039 2387.4892,-72.0603 2377.0224,-70.4184 2378.283,-77.3039"/>
</g>
<!-- Node43&#45;&gt;Node2 -->
<g id="edge59" class="edge">
<title>Node43&#45;&gt;Node2</title>
<path fill="none" stroke="#191970" d="M1201.3748,-220.1057C1210.1502,-206.9489 1227.2928,-182.6669 1245.2906,-165 1256.8612,-153.6423 1271.3561,-142.7179 1283.3128,-134.4215"/>
<polygon fill="#191970" stroke="#191970" points="1285.5536,-137.1311 1291.871,-128.6257 1281.6284,-131.3351 1285.5536,-137.1311"/>
</g>
<!-- Node43&#45;&gt;Node31 -->
<g id="edge62" class="edge">
<title>Node43&#45;&gt;Node31</title>
<path fill="none" stroke="#191970" d="M1190.153,-220.4593C1181.2942,-205.8505 1161.6307,-177.4368 1136.2906,-165 1026.2955,-111.0146 120.28,-164.1451 37.2906,-74 31.5712,-67.7874 31.4844,-61.1316 37.2906,-55 65.6527,-25.0484 702.6439,-12.3922 843.7695,-9.9506"/>
<polygon fill="#191970" stroke="#191970" points="843.8312,-13.4502 853.7701,-9.7805 843.712,-6.4512 843.8312,-13.4502"/>
</g>
<!-- Node43&#45;&gt;Node37 -->
<g id="edge60" class="edge">
<title>Node43&#45;&gt;Node37</title>
<path fill="none" stroke="#191970" d="M1210.6477,-220.4179C1225.1867,-211.8195 1247.2432,-198.7754 1264.137,-188.7844"/>
<polygon fill="#191970" stroke="#191970" points="1266.085,-191.6987 1272.9108,-183.5956 1262.5217,-185.6735 1266.085,-191.6987"/>
</g>
<!-- Node43&#45;&gt;Node39 -->
<g id="edge61" class="edge">
<title>Node43&#45;&gt;Node39</title>
<path fill="none" stroke="#191970" d="M1180.2638,-220.4179C1166.0375,-211.8195 1144.4554,-198.7754 1127.9249,-188.7844"/>
<polygon fill="#191970" stroke="#191970" points="1129.7085,-185.7729 1119.3398,-183.5956 1126.0876,-191.7637 1129.7085,-185.7729"/>
</g>
<!-- Node44&#45;&gt;Node2 -->
<g id="edge64" class="edge">
<title>Node44&#45;&gt;Node2</title>
<path fill="none" stroke="#191970" d="M1570.9345,-220.3554C1562.0917,-206.1232 1543.0325,-178.8709 1519.2906,-165 1490.6712,-148.2794 1401.359,-133.1217 1347.9023,-125.2277"/>
<polygon fill="#191970" stroke="#191970" points="1348.1171,-121.7222 1337.7176,-123.7474 1347.1102,-128.6494 1348.1171,-121.7222"/>
</g>
<!-- Node44&#45;&gt;Node37 -->
<g id="edge65" class="edge">
<title>Node44&#45;&gt;Node37</title>
<path fill="none" stroke="#191970" d="M1540.6873,-222.7008C1486.2826,-212.311 1382.8802,-192.564 1326.7917,-181.8526"/>
<polygon fill="#191970" stroke="#191970" points="1327.3709,-178.4001 1316.8918,-179.962 1326.0577,-185.2758 1327.3709,-178.4001"/>
</g>
<!-- Node45 -->
<g id="node46" class="node">
<title>Node45</title>
<g id="a_node46"><a xlink:href="app__events_2include_2app__event__id_8h.html" target="_top" xlink:title="app_event_id.h">
<polygon fill="#ffffff" stroke="#000000" points="1642.0939,-165.5 1642.0939,-183.5 1726.4874,-183.5 1726.4874,-165.5 1642.0939,-165.5"/>
<text text-anchor="middle" x="1684.2906" y="-171.5" font-family="Helvetica,sans-Serif" font-size="10.00" fill="#000000">app_event_id.h</text>
</a>
</g>
</g>
<!-- Node44&#45;&gt;Node45 -->
<g id="edge66" class="edge">
<title>Node44&#45;&gt;Node45</title>
<path fill="none" stroke="#191970" d="M1594.1247,-220.4179C1611.3213,-211.6603 1637.5743,-198.2907 1657.3249,-188.2326"/>
<polygon fill="#191970" stroke="#191970" points="1659.1074,-191.2526 1666.4301,-183.5956 1655.9308,-185.0148 1659.1074,-191.2526"/>
</g>
<!-- Node46 -->
<g id="node47" class="node">
<title>Node46</title>
<g id="a_node47"><a xlink:href="app__events_2include_2app__event__list_8h.html" target="_top" xlink:title="app_event_list.h">
<polygon fill="#ffffff" stroke="#000000" points="2170.8746,-110.5 2170.8746,-128.5 2259.7067,-128.5 2259.7067,-110.5 2170.8746,-110.5"/>
<text text-anchor="middle" x="2215.2906" y="-116.5" font-family="Helvetica,sans-Serif" font-size="10.00" fill="#000000">app_event_list.h</text>
</a>
</g>
</g>
<!-- Node44&#45;&gt;Node46 -->
<g id="edge67" class="edge">
<title>Node44&#45;&gt;Node46</title>
<path fill="none" stroke="#191970" d="M1581.1657,-220.4517C1589.5972,-205.832 1608.4156,-177.4029 1633.2906,-165 1679.7547,-141.8326 2024.7219,-126.6015 2160.5575,-121.445"/>
<polygon fill="#191970" stroke="#191970" points="2160.8775,-124.9355 2170.7391,-121.0625 2160.6147,-117.9405 2160.8775,-124.9355"/>
</g>
<!-- Node46&#45;&gt;Node36 -->
<g id="edge68" class="edge">
<title>Node46&#45;&gt;Node36</title>
<path fill="none" stroke="#191970" d="M2249.315,-110.4442C2280.4775,-102.0653 2328.1122,-89.0461 2377.4729,-74.4773"/>
<polygon fill="#191970" stroke="#191970" points="2378.7717,-77.7429 2387.3637,-71.5439 2376.7812,-71.0319 2378.7717,-77.7429"/>
</g>
<!-- Node47&#45;&gt;Node2 -->
<g id="edge70" class="edge">
<title>Node47&#45;&gt;Node2</title>
<path fill="none" stroke="#191970" d="M1341.897,-220.2129C1338.5658,-207.5879 1332.1621,-184.3625 1325.2906,-165 1322.11,-156.0376 1318.1118,-146.2852 1314.6046,-138.1163"/>
<polygon fill="#191970" stroke="#191970" points="1317.7402,-136.5513 1310.5232,-128.7946 1311.3279,-139.3588 1317.7402,-136.5513"/>
</g>
<!-- Node47&#45;&gt;Node30 -->
<g id="edge72" class="edge">
<title>Node47&#45;&gt;Node30</title>
<path fill="none" stroke="#191970" d="M1354.884,-220.2723C1371.6317,-206.1783 1405.776,-179.4108 1439.2906,-165 1544.2054,-119.8882 1577.1666,-125.6562 1690.2906,-110 1954.2889,-73.463 2027.4764,-111.6333 2294.282,-74.0828"/>
<polygon fill="#191970" stroke="#191970" points="2294.859,-77.536 2304.2629,-72.6557 2293.8681,-70.6065 2294.859,-77.536"/>
</g>
<!-- Node47&#45;&gt;Node37 -->
<g id="edge71" class="edge">
<title>Node47&#45;&gt;Node37</title>
<path fill="none" stroke="#191970" d="M1335.0434,-220.4179C1326.9052,-212.425 1314.8554,-200.5903 1305.0273,-190.9377"/>
<polygon fill="#191970" stroke="#191970" points="1307.3258,-188.2895 1297.7388,-183.7795 1302.4208,-193.2836 1307.3258,-188.2895"/>
</g>
</g>
</svg>
