<?xml version="1.0" encoding="UTF-8" standalone="no"?>
<!DOCTYPE svg PUBLIC "-//W3C//DTD SVG 1.1//EN"
 "http://www.w3.org/Graphics/SVG/1.1/DTD/svg11.dtd">
<!-- Generated by graphviz version 2.40.1 (20161225.0304)
 -->
<!-- Title: src/include/cli.h Pages: 1 -->
<svg width="2410pt" height="247pt"
 viewBox="0.00 0.00 2410.35 247.00" xmlns="http://www.w3.org/2000/svg" xmlns:xlink="http://www.w3.org/1999/xlink">
<g id="graph0" class="graph" transform="scale(1 1) rotate(0) translate(4 243)">
<title>src/include/cli.h</title>
<polygon fill="#ffffff" stroke="transparent" points="-4,4 -4,-243 2406.3521,-243 2406.3521,4 -4,4"/>
<!-- Node0 -->
<g id="node1" class="node">
<title>Node0</title>
<polygon fill="#bfbfbf" stroke="#000000" points="1160.5518,-220.5 1160.5518,-238.5 1244.9111,-238.5 1244.9111,-220.5 1160.5518,-220.5"/>
<text text-anchor="middle" x="1202.7314" y="-226.5" font-family="Helvetica,sans-Serif" font-size="10.00" fill="#000000">src/include/cli.h</text>
</g>
<!-- Node1 -->
<g id="node2" class="node">
<title>Node1</title>
<g id="a_node2"><a xlink:href="src_2include_2common_8h.html" target="_top" xlink:title="common.h">
<polygon fill="#ffffff" stroke="#000000" points="1171.3892,-110.5 1171.3892,-128.5 1234.0737,-128.5 1234.0737,-110.5 1171.3892,-110.5"/>
<text text-anchor="middle" x="1202.7314" y="-116.5" font-family="Helvetica,sans-Serif" font-size="10.00" fill="#000000">common.h</text>
</a>
</g>
</g>
<!-- Node0&#45;&gt;Node1 -->
<g id="edge1" class="edge">
<title>Node0&#45;&gt;Node1</title>
<path fill="none" stroke="#191970" d="M1200.3298,-220.1683C1198.1093,-211.0263 1194.9717,-196.6621 1193.7314,-184 1192.2311,-168.6825 1194.871,-151.4177 1197.6724,-138.6075"/>
<polygon fill="#191970" stroke="#191970" points="1201.1299,-139.1999 1200.0757,-128.6576 1194.3255,-137.5563 1201.1299,-139.1999"/>
</g>
<!-- Node36 -->
<g id="node37" class="node">
<title>Node36</title>
<g id="a_node37"><a xlink:href="src_2include_2context_8h.html" target="_top" xlink:title="context.h">
<polygon fill="#ffffff" stroke="#000000" points="1202.4409,-165.5 1202.4409,-183.5 1259.022,-183.5 1259.022,-165.5 1202.4409,-165.5"/>
<text text-anchor="middle" x="1230.7314" y="-171.5" font-family="Helvetica,sans-Serif" font-size="10.00" fill="#000000">context.h</text>
</a>
</g>
</g>
<!-- Node0&#45;&gt;Node36 -->
<g id="edge43" class="edge">
<title>Node0&#45;&gt;Node36</title>
<path fill="none" stroke="#191970" d="M1207.3551,-220.4179C1211.1422,-212.9789 1216.6233,-202.2123 1221.3264,-192.9742"/>
<polygon fill="#191970" stroke="#191970" points="1224.5895,-194.279 1226.0074,-183.7795 1218.3514,-191.1032 1224.5895,-194.279"/>
</g>
<!-- Node2 -->
<g id="node3" class="node">
<title>Node2</title>
<polygon fill="#ffffff" stroke="#bfbfbf" points="0,-.5 0,-18.5 45.4629,-18.5 45.4629,-.5 0,-.5"/>
<text text-anchor="middle" x="22.7314" y="-6.5" font-family="Helvetica,sans-Serif" font-size="10.00" fill="#000000">stdio.h</text>
</g>
<!-- Node1&#45;&gt;Node2 -->
<g id="edge2" class="edge">
<title>Node1&#45;&gt;Node2</title>
<path fill="none" stroke="#191970" d="M1171.3492,-119.2622C990.8296,-117.7702 91.1549,-108.6133 44.7314,-74 30.8239,-63.6306 25.6305,-43.9804 23.7315,-29.0822"/>
<polygon fill="#191970" stroke="#191970" points="27.1942,-28.5033 22.8317,-18.8483 20.2211,-29.1164 27.1942,-28.5033"/>
</g>
<!-- Node3 -->
<g id="node4" class="node">
<title>Node3</title>
<polygon fill="#ffffff" stroke="#bfbfbf" points="192.2192,-55.5 192.2192,-73.5 243.2437,-73.5 243.2437,-55.5 192.2192,-55.5"/>
<text text-anchor="middle" x="217.7314" y="-61.5" font-family="Helvetica,sans-Serif" font-size="10.00" fill="#000000">unistd.h</text>
</g>
<!-- Node1&#45;&gt;Node3 -->
<g id="edge3" class="edge">
<title>Node1&#45;&gt;Node3</title>
<path fill="none" stroke="#191970" d="M1170.9185,-118.9377C1029.3126,-116.2901 454.8038,-103.9829 253.7316,-73.9524"/>
<polygon fill="#191970" stroke="#191970" points="254.0064,-70.453 243.5864,-72.3699 252.9274,-77.3694 254.0064,-70.453"/>
</g>
<!-- Node4 -->
<g id="node5" class="node">
<title>Node4</title>
<polygon fill="#ffffff" stroke="#bfbfbf" points="260.8892,-55.5 260.8892,-73.5 308.5737,-73.5 308.5737,-55.5 260.8892,-55.5"/>
<text text-anchor="middle" x="284.7314" y="-61.5" font-family="Helvetica,sans-Serif" font-size="10.00" fill="#000000">stdlib.h</text>
</g>
<!-- Node1&#45;&gt;Node4 -->
<g id="edge4" class="edge">
<title>Node1&#45;&gt;Node4</title>
<path fill="none" stroke="#191970" d="M1171.3017,-118.8484C1036.5951,-115.9104 506.7403,-102.8335 318.7595,-73.7217"/>
<polygon fill="#191970" stroke="#191970" points="319.1664,-70.242 308.7354,-72.0985 318.0474,-77.152 319.1664,-70.242"/>
</g>
<!-- Node5 -->
<g id="node6" class="node">
<title>Node5</title>
<polygon fill="#ffffff" stroke="#bfbfbf" points="63.665,-.5 63.665,-18.5 115.7979,-18.5 115.7979,-.5 63.665,-.5"/>
<text text-anchor="middle" x="89.7314" y="-6.5" font-family="Helvetica,sans-Serif" font-size="10.00" fill="#000000">stdarg.h</text>
</g>
<!-- Node1&#45;&gt;Node5 -->
<g id="edge5" class="edge">
<title>Node1&#45;&gt;Node5</title>
<path fill="none" stroke="#191970" d="M1171.1588,-119.3163C1007.7867,-118.2056 262.2798,-111.1245 166.7314,-74 141.2219,-64.0885 118.0512,-42.0892 103.9387,-26.5475"/>
<polygon fill="#191970" stroke="#191970" points="106.2902,-23.9196 97.0729,-18.6954 101.0205,-28.5274 106.2902,-23.9196"/>
</g>
<!-- Node6 -->
<g id="node7" class="node">
<title>Node6</title>
<polygon fill="#ffffff" stroke="#bfbfbf" points="326.6108,-55.5 326.6108,-73.5 374.8521,-73.5 374.8521,-55.5 326.6108,-55.5"/>
<text text-anchor="middle" x="350.7314" y="-61.5" font-family="Helvetica,sans-Serif" font-size="10.00" fill="#000000">stdint.h</text>
</g>
<!-- Node1&#45;&gt;Node6 -->
<g id="edge6" class="edge">
<title>Node1&#45;&gt;Node6</title>
<path fill="none" stroke="#191970" d="M1171.0785,-118.6574C1042.6831,-115.1005 559.6994,-100.342 385.1611,-73.6041"/>
<polygon fill="#191970" stroke="#191970" points="385.5309,-70.1188 375.103,-71.992 384.423,-77.0306 385.5309,-70.1188"/>
</g>
<!-- Node7 -->
<g id="node8" class="node">
<title>Node7</title>
<polygon fill="#ffffff" stroke="#bfbfbf" points="393.335,-55.5 393.335,-73.5 442.1279,-73.5 442.1279,-55.5 393.335,-55.5"/>
<text text-anchor="middle" x="417.7314" y="-61.5" font-family="Helvetica,sans-Serif" font-size="10.00" fill="#000000">string.h</text>
</g>
<!-- Node1&#45;&gt;Node7 -->
<g id="edge7" class="edge">
<title>Node1&#45;&gt;Node7</title>
<path fill="none" stroke="#191970" d="M1171.1365,-118.5146C1049.6789,-114.5861 612.053,-99.1058 452.5588,-73.9241"/>
<polygon fill="#191970" stroke="#191970" points="452.8993,-70.4329 442.4618,-72.2514 451.7553,-77.3388 452.8993,-70.4329"/>
</g>
<!-- Node8 -->
<g id="node9" class="node">
<title>Node8</title>
<polygon fill="#ffffff" stroke="#bfbfbf" points="459.835,-55.5 459.835,-73.5 513.6279,-73.5 513.6279,-55.5 459.835,-55.5"/>
<text text-anchor="middle" x="486.7314" y="-61.5" font-family="Helvetica,sans-Serif" font-size="10.00" fill="#000000">strings.h</text>
</g>
<!-- Node1&#45;&gt;Node8 -->
<g id="edge8" class="edge">
<title>Node1&#45;&gt;Node8</title>
<path fill="none" stroke="#191970" d="M1171.045,-118.1856C1057.2794,-113.3439 668.9467,-95.7305 523.7643,-73.8054"/>
<polygon fill="#191970" stroke="#191970" points="524.1626,-70.3249 513.7385,-72.2194 523.0689,-77.239 524.1626,-70.3249"/>
</g>
<!-- Node9 -->
<g id="node10" class="node">
<title>Node9</title>
<polygon fill="#ffffff" stroke="#bfbfbf" points="531.6035,-55.5 531.6035,-73.5 589.8594,-73.5 589.8594,-55.5 531.6035,-55.5"/>
<text text-anchor="middle" x="560.7314" y="-61.5" font-family="Helvetica,sans-Serif" font-size="10.00" fill="#000000">pthread.h</text>
</g>
<!-- Node1&#45;&gt;Node9 -->
<g id="edge9" class="edge">
<title>Node1&#45;&gt;Node9</title>
<path fill="none" stroke="#191970" d="M1171.0705,-119.0047C1082.2976,-117.217 823.4362,-109.2709 600.0272,-73.9556"/>
<polygon fill="#191970" stroke="#191970" points="600.5156,-70.4893 590.0877,-72.3624 599.4076,-77.4011 600.5156,-70.4893"/>
</g>
<!-- Node10 -->
<g id="node11" class="node">
<title>Node10</title>
<polygon fill="#ffffff" stroke="#bfbfbf" points="607.6108,-55.5 607.6108,-73.5 655.8521,-73.5 655.8521,-55.5 607.6108,-55.5"/>
<text text-anchor="middle" x="631.7314" y="-61.5" font-family="Helvetica,sans-Serif" font-size="10.00" fill="#000000">ctype.h</text>
</g>
<!-- Node1&#45;&gt;Node10 -->
<g id="edge10" class="edge">
<title>Node1&#45;&gt;Node10</title>
<path fill="none" stroke="#191970" d="M1171.2147,-118.9846C1089.2251,-117.1894 862.5521,-109.3234 666.0384,-73.9127"/>
<polygon fill="#191970" stroke="#191970" points="666.5793,-70.4536 656.1125,-72.0956 665.3188,-77.3392 666.5793,-70.4536"/>
</g>
<!-- Node11 -->
<g id="node12" class="node">
<title>Node11</title>
<polygon fill="#ffffff" stroke="#bfbfbf" points="673.8892,-55.5 673.8892,-73.5 721.5737,-73.5 721.5737,-55.5 673.8892,-55.5"/>
<text text-anchor="middle" x="697.7314" y="-61.5" font-family="Helvetica,sans-Serif" font-size="10.00" fill="#000000">errno.h</text>
</g>
<!-- Node1&#45;&gt;Node11 -->
<g id="edge11" class="edge">
<title>Node1&#45;&gt;Node11</title>
<path fill="none" stroke="#191970" d="M1171.1602,-118.5612C1096.1792,-115.8867 901.516,-106.3311 731.588,-74.0666"/>
<polygon fill="#191970" stroke="#191970" points="732.2029,-70.6208 721.7207,-72.1618 730.876,-77.4939 732.2029,-70.6208"/>
</g>
<!-- Node12 -->
<g id="node13" class="node">
<title>Node12</title>
<polygon fill="#ffffff" stroke="#bfbfbf" points="739.1157,-55.5 739.1157,-73.5 782.3472,-73.5 782.3472,-55.5 739.1157,-55.5"/>
<text text-anchor="middle" x="760.7314" y="-61.5" font-family="Helvetica,sans-Serif" font-size="10.00" fill="#000000">time.h</text>
</g>
<!-- Node1&#45;&gt;Node12 -->
<g id="edge12" class="edge">
<title>Node1&#45;&gt;Node12</title>
<path fill="none" stroke="#191970" d="M1171.2249,-118.0241C1103.5121,-114.4244 939.0689,-103.3904 792.6762,-73.8283"/>
<polygon fill="#191970" stroke="#191970" points="793.115,-70.3454 782.6152,-71.7611 791.7061,-77.2022 793.115,-70.3454"/>
</g>
<!-- Node13 -->
<g id="node14" class="node">
<title>Node13</title>
<polygon fill="#ffffff" stroke="#bfbfbf" points="800.3916,-55.5 800.3916,-73.5 843.0713,-73.5 843.0713,-55.5 800.3916,-55.5"/>
<text text-anchor="middle" x="821.7314" y="-61.5" font-family="Helvetica,sans-Serif" font-size="10.00" fill="#000000">fcntl.h</text>
</g>
<!-- Node1&#45;&gt;Node13 -->
<g id="edge13" class="edge">
<title>Node1&#45;&gt;Node13</title>
<path fill="none" stroke="#191970" d="M1171.0539,-117.1767C1110.9055,-112.3816 975.9745,-99.7892 853.2326,-73.7577"/>
<polygon fill="#191970" stroke="#191970" points="853.8023,-70.3002 843.2892,-71.6132 852.3265,-77.1429 853.8023,-70.3002"/>
</g>
<!-- Node14 -->
<g id="node15" class="node">
<title>Node14</title>
<polygon fill="#ffffff" stroke="#bfbfbf" points="861.4976,-55.5 861.4976,-73.5 911.9653,-73.5 911.9653,-55.5 861.4976,-55.5"/>
<text text-anchor="middle" x="886.7314" y="-61.5" font-family="Helvetica,sans-Serif" font-size="10.00" fill="#000000">signal.h</text>
</g>
<!-- Node1&#45;&gt;Node14 -->
<g id="edge14" class="edge">
<title>Node1&#45;&gt;Node14</title>
<path fill="none" stroke="#191970" d="M1171.2164,-115.5933C1120.6048,-109.0653 1017.9373,-94.7792 922.1193,-74.12"/>
<polygon fill="#191970" stroke="#191970" points="922.7904,-70.6842 912.2738,-71.969 921.2962,-77.5229 922.7904,-70.6842"/>
</g>
<!-- Node15 -->
<g id="node16" class="node">
<title>Node15</title>
<polygon fill="#ffffff" stroke="#bfbfbf" points="134.2266,-.5 134.2266,-18.5 195.2363,-18.5 195.2363,-.5 134.2266,-.5"/>
<text text-anchor="middle" x="164.7314" y="-6.5" font-family="Helvetica,sans-Serif" font-size="10.00" fill="#000000">sys/time.h</text>
</g>
<!-- Node1&#45;&gt;Node15 -->
<g id="edge15" class="edge">
<title>Node1&#45;&gt;Node15</title>
<path fill="none" stroke="#191970" d="M1171.3215,-119.1283C1003.8762,-117.0182 222.3653,-105.5044 182.7314,-74 169.3873,-63.3929 165.4241,-43.7773 164.4735,-28.9521"/>
<polygon fill="#191970" stroke="#191970" points="167.9683,-28.6902 164.2282,-18.7775 160.9703,-28.859 167.9683,-28.6902"/>
</g>
<!-- Node16 -->
<g id="node17" class="node">
<title>Node16</title>
<polygon fill="#ffffff" stroke="#bfbfbf" points="929.6133,-55.5 929.6133,-73.5 987.8496,-73.5 987.8496,-55.5 929.6133,-55.5"/>
<text text-anchor="middle" x="958.7314" y="-61.5" font-family="Helvetica,sans-Serif" font-size="10.00" fill="#000000">sys/stat.h</text>
</g>
<!-- Node1&#45;&gt;Node16 -->
<g id="edge16" class="edge">
<title>Node1&#45;&gt;Node16</title>
<path fill="none" stroke="#191970" d="M1171.2602,-112.8312C1132.6978,-104.598 1065.1252,-89.9722 998.0583,-74.2689"/>
<polygon fill="#191970" stroke="#191970" points="998.706,-70.8259 988.1704,-71.9449 997.1043,-77.6402 998.706,-70.8259"/>
</g>
<!-- Node17 -->
<g id="node18" class="node">
<title>Node17</title>
<polygon fill="#ffffff" stroke="#bfbfbf" points="1005.7217,-55.5 1005.7217,-73.5 1071.7412,-73.5 1071.7412,-55.5 1005.7217,-55.5"/>
<text text-anchor="middle" x="1038.7314" y="-61.5" font-family="Helvetica,sans-Serif" font-size="10.00" fill="#000000">sys/types.h</text>
</g>
<!-- Node1&#45;&gt;Node17 -->
<g id="edge17" class="edge">
<title>Node1&#45;&gt;Node17</title>
<path fill="none" stroke="#191970" d="M1175.6502,-110.4179C1148.268,-101.2348 1105.7649,-86.9807 1075.3807,-76.7909"/>
<polygon fill="#191970" stroke="#191970" points="1076.1743,-73.3655 1065.5804,-73.5042 1073.9485,-80.0023 1076.1743,-73.3655"/>
</g>
<!-- Node18 -->
<g id="node19" class="node">
<title>Node18</title>
<polygon fill="#ffffff" stroke="#bfbfbf" points="1089.7808,-55.5 1089.7808,-73.5 1149.6821,-73.5 1149.6821,-55.5 1089.7808,-55.5"/>
<text text-anchor="middle" x="1119.7314" y="-61.5" font-family="Helvetica,sans-Serif" font-size="10.00" fill="#000000">sys/ioctl.h</text>
</g>
<!-- Node1&#45;&gt;Node18 -->
<g id="edge18" class="edge">
<title>Node1&#45;&gt;Node18</title>
<path fill="none" stroke="#191970" d="M1189.0257,-110.4179C1176.2903,-101.9788 1157.092,-89.257 1142.1302,-79.3426"/>
<polygon fill="#191970" stroke="#191970" points="1143.7269,-76.2019 1133.4576,-73.5956 1139.8602,-82.037 1143.7269,-76.2019"/>
</g>
<!-- Node19 -->
<g id="node20" class="node">
<title>Node19</title>
<polygon fill="#ffffff" stroke="#bfbfbf" points="1167.2217,-55.5 1167.2217,-73.5 1238.2412,-73.5 1238.2412,-55.5 1167.2217,-55.5"/>
<text text-anchor="middle" x="1202.7314" y="-61.5" font-family="Helvetica,sans-Serif" font-size="10.00" fill="#000000">sys/socket.h</text>
</g>
<!-- Node1&#45;&gt;Node19 -->
<g id="edge19" class="edge">
<title>Node1&#45;&gt;Node19</title>
<path fill="none" stroke="#191970" d="M1202.7314,-110.4179C1202.7314,-103.2164 1202.7314,-92.8962 1202.7314,-83.8632"/>
<polygon fill="#191970" stroke="#191970" points="1206.2315,-83.7794 1202.7314,-73.7795 1199.2315,-83.7795 1206.2315,-83.7794"/>
</g>
<!-- Node20 -->
<g id="node21" class="node">
<title>Node20</title>
<polygon fill="#ffffff" stroke="#bfbfbf" points="1256.1108,-55.5 1256.1108,-73.5 1329.3521,-73.5 1329.3521,-55.5 1256.1108,-55.5"/>
<text text-anchor="middle" x="1292.7314" y="-61.5" font-family="Helvetica,sans-Serif" font-size="10.00" fill="#000000">sys/sysinfo.h</text>
</g>
<!-- Node1&#45;&gt;Node20 -->
<g id="edge20" class="edge">
<title>Node1&#45;&gt;Node20</title>
<path fill="none" stroke="#191970" d="M1217.5931,-110.4179C1231.5328,-101.8992 1252.6134,-89.0166 1268.9015,-79.0627"/>
<polygon fill="#191970" stroke="#191970" points="1271.14,-81.7967 1277.8477,-73.5956 1267.4898,-75.8237 1271.14,-81.7967"/>
</g>
<!-- Node21 -->
<g id="node22" class="node">
<title>Node21</title>
<polygon fill="#ffffff" stroke="#bfbfbf" points="1347.1035,-55.5 1347.1035,-73.5 1410.3594,-73.5 1410.3594,-55.5 1347.1035,-55.5"/>
<text text-anchor="middle" x="1378.7314" y="-61.5" font-family="Helvetica,sans-Serif" font-size="10.00" fill="#000000">arpa/inet.h</text>
</g>
<!-- Node1&#45;&gt;Node21 -->
<g id="edge21" class="edge">
<title>Node1&#45;&gt;Node21</title>
<path fill="none" stroke="#191970" d="M1231.7943,-110.4179C1261.4355,-101.155 1307.5876,-86.7325 1340.2482,-76.526"/>
<polygon fill="#191970" stroke="#191970" points="1341.4172,-79.8277 1349.918,-73.5042 1339.3292,-73.1463 1341.4172,-79.8277"/>
</g>
<!-- Node22 -->
<g id="node23" class="node">
<title>Node22</title>
<polygon fill="#ffffff" stroke="#bfbfbf" points="1428.2686,-55.5 1428.2686,-73.5 1493.1943,-73.5 1493.1943,-55.5 1428.2686,-55.5"/>
<text text-anchor="middle" x="1460.7314" y="-61.5" font-family="Helvetica,sans-Serif" font-size="10.00" fill="#000000">netinet/in.h</text>
</g>
<!-- Node1&#45;&gt;Node22 -->
<g id="edge22" class="edge">
<title>Node1&#45;&gt;Node22</title>
<path fill="none" stroke="#191970" d="M1234.4011,-113.0767C1274.8007,-104.8354 1347.0815,-89.9321 1418.0674,-74.3371"/>
<polygon fill="#191970" stroke="#191970" points="1419.0592,-77.7026 1428.0718,-72.1326 1417.5528,-70.8666 1419.0592,-77.7026"/>
</g>
<!-- Node23 -->
<g id="node24" class="node">
<title>Node23</title>
<polygon fill="#ffffff" stroke="#bfbfbf" points="1510.8745,-55.5 1510.8745,-73.5 1588.5884,-73.5 1588.5884,-55.5 1510.8745,-55.5"/>
<text text-anchor="middle" x="1549.7314" y="-61.5" font-family="Helvetica,sans-Serif" font-size="10.00" fill="#000000">net/ethernet.h</text>
</g>
<!-- Node1&#45;&gt;Node23 -->
<g id="edge23" class="edge">
<title>Node1&#45;&gt;Node23</title>
<path fill="none" stroke="#191970" d="M1234.2312,-115.1755C1287.1158,-107.8137 1397.3248,-92.0387 1500.7411,-74.1116"/>
<polygon fill="#191970" stroke="#191970" points="1501.4758,-77.5364 1510.7258,-72.3702 1500.2731,-70.6405 1501.4758,-77.5364"/>
</g>
<!-- Node24 -->
<g id="node25" class="node">
<title>Node24</title>
<polygon fill="#ffffff" stroke="#bfbfbf" points="1606.2686,-55.5 1606.2686,-73.5 1671.1943,-73.5 1671.1943,-55.5 1606.2686,-55.5"/>
<text text-anchor="middle" x="1638.7314" y="-61.5" font-family="Helvetica,sans-Serif" font-size="10.00" fill="#000000">netinet/ip.h</text>
</g>
<!-- Node1&#45;&gt;Node24 -->
<g id="edge24" class="edge">
<title>Node1&#45;&gt;Node24</title>
<path fill="none" stroke="#191970" d="M1234.1387,-117.0963C1299.6615,-111.8221 1455.8414,-97.8981 1596.0588,-74.1333"/>
<polygon fill="#191970" stroke="#191970" points="1596.8617,-77.5467 1606.1254,-72.4052 1595.6773,-70.6477 1596.8617,-77.5467"/>
</g>
<!-- Node25 -->
<g id="node26" class="node">
<title>Node25</title>
<polygon fill="#ffffff" stroke="#bfbfbf" points="1689.4902,-55.5 1689.4902,-73.5 1759.9727,-73.5 1759.9727,-55.5 1689.4902,-55.5"/>
<text text-anchor="middle" x="1724.7314" y="-61.5" font-family="Helvetica,sans-Serif" font-size="10.00" fill="#000000">netinet/tcp.h</text>
</g>
<!-- Node1&#45;&gt;Node25 -->
<g id="edge25" class="edge">
<title>Node1&#45;&gt;Node25</title>
<path fill="none" stroke="#191970" d="M1234.1357,-117.7357C1309.2146,-113.2557 1505.1428,-100.0168 1679.3096,-73.8832"/>
<polygon fill="#191970" stroke="#191970" points="1680.066,-77.3086 1689.4271,-72.3467 1679.0149,-70.3879 1680.066,-77.3086"/>
</g>
<!-- Node26 -->
<g id="node27" class="node">
<title>Node26</title>
<polygon fill="#ffffff" stroke="#bfbfbf" points="1777.9312,-55.5 1777.9312,-73.5 1869.5317,-73.5 1869.5317,-55.5 1777.9312,-55.5"/>
<text text-anchor="middle" x="1823.7314" y="-61.5" font-family="Helvetica,sans-Serif" font-size="10.00" fill="#000000">netinet/ip_icmp.h</text>
</g>
<!-- Node1&#45;&gt;Node26 -->
<g id="edge26" class="edge">
<title>Node1&#45;&gt;Node26</title>
<path fill="none" stroke="#191970" d="M1234.1269,-117.9793C1318.6393,-113.6727 1558.1457,-100.0647 1767.8972,-73.9945"/>
<polygon fill="#191970" stroke="#191970" points="1768.3759,-77.4619 1777.8621,-72.7436 1767.504,-70.5164 1768.3759,-77.4619"/>
</g>
<!-- Node27 -->
<g id="node28" class="node">
<title>Node27</title>
<g id="a_node28"><a xlink:href="mac2int_8h.html" target="_top" xlink:title="mac2int.h">
<polygon fill="#ffffff" stroke="#000000" points="1887.0542,-55.5 1887.0542,-73.5 1946.4087,-73.5 1946.4087,-55.5 1887.0542,-55.5"/>
<text text-anchor="middle" x="1916.7314" y="-61.5" font-family="Helvetica,sans-Serif" font-size="10.00" fill="#000000">mac2int.h</text>
</a>
</g>
</g>
<!-- Node1&#45;&gt;Node27 -->
<g id="edge27" class="edge">
<title>Node1&#45;&gt;Node27</title>
<path fill="none" stroke="#191970" d="M1234.3005,-117.9611C1349.2612,-112.5637 1744.2391,-93.7491 1869.7314,-74 1872.0553,-73.6343 1874.445,-73.1939 1876.8626,-72.7058"/>
<polygon fill="#191970" stroke="#191970" points="1877.8498,-76.0722 1886.8602,-70.4989 1876.3408,-69.2368 1877.8498,-76.0722"/>
</g>
<!-- Node28 -->
<g id="node29" class="node">
<title>Node28</title>
<g id="a_node29"><a xlink:href="ip2int_8h.html" target="_top" xlink:title="ip2int.h">
<polygon fill="#ffffff" stroke="#000000" points="1964.6084,-55.5 1964.6084,-73.5 2012.8545,-73.5 2012.8545,-55.5 1964.6084,-55.5"/>
<text text-anchor="middle" x="1988.7314" y="-61.5" font-family="Helvetica,sans-Serif" font-size="10.00" fill="#000000">ip2int.h</text>
</a>
</g>
</g>
<!-- Node1&#45;&gt;Node28 -->
<g id="edge29" class="edge">
<title>Node1&#45;&gt;Node28</title>
<path fill="none" stroke="#191970" d="M1234.4123,-118.4039C1357.894,-114.215 1805.8811,-98.2251 1946.7314,-74 1949.1992,-73.5756 1951.7454,-73.0347 1954.3178,-72.427"/>
<polygon fill="#191970" stroke="#191970" points="1955.4519,-75.749 1964.2575,-69.8573 1953.6997,-68.9718 1955.4519,-75.749"/>
</g>
<!-- Node29 -->
<g id="node30" class="node">
<title>Node29</title>
<g id="a_node30"><a xlink:href="database_8h.html" target="_top" xlink:title="database.h">
<polygon fill="#ffffff" stroke="#000000" points="2030.9878,-55.5 2030.9878,-73.5 2096.4751,-73.5 2096.4751,-55.5 2030.9878,-55.5"/>
<text text-anchor="middle" x="2063.7314" y="-61.5" font-family="Helvetica,sans-Serif" font-size="10.00" fill="#000000">database.h</text>
</a>
</g>
</g>
<!-- Node1&#45;&gt;Node29 -->
<g id="edge31" class="edge">
<title>Node1&#45;&gt;Node29</title>
<path fill="none" stroke="#191970" d="M1234.2728,-118.3411C1364.2468,-113.706 1857.5943,-95.6997 2012.7314,-74 2015.3482,-73.634 2018.043,-73.1879 2020.7681,-72.691"/>
<polygon fill="#191970" stroke="#191970" points="2021.5574,-76.1026 2030.6831,-70.7201 2020.1925,-69.237 2021.5574,-76.1026"/>
</g>
<!-- Node31 -->
<g id="node32" class="node">
<title>Node31</title>
<polygon fill="#ffffff" stroke="#bfbfbf" points="2152.3276,-55.5 2152.3276,-73.5 2211.1353,-73.5 2211.1353,-55.5 2152.3276,-55.5"/>
<text text-anchor="middle" x="2181.7314" y="-61.5" font-family="Helvetica,sans-Serif" font-size="10.00" fill="#000000">jansson.h</text>
</g>
<!-- Node1&#45;&gt;Node31 -->
<g id="edge35" class="edge">
<title>Node1&#45;&gt;Node31</title>
<path fill="none" stroke="#191970" d="M1234.4843,-118.6776C1376.9551,-114.877 1958.1259,-98.1641 2138.7314,-74 2139.8302,-73.853 2140.9425,-73.6922 2142.0632,-73.5195"/>
<polygon fill="#191970" stroke="#191970" points="2143.0112,-76.9057 2152.2405,-71.7027 2141.781,-70.0146 2143.0112,-76.9057"/>
</g>
<!-- Node32 -->
<g id="node33" class="node">
<title>Node32</title>
<g id="a_node33"><a xlink:href="libcli_8h.html" target="_top" xlink:title="libcli.h">
<polygon fill="#ffffff" stroke="#000000" points="53.8374,-55.5 53.8374,-73.5 97.6255,-73.5 97.6255,-55.5 53.8374,-55.5"/>
<text text-anchor="middle" x="75.7314" y="-61.5" font-family="Helvetica,sans-Serif" font-size="10.00" fill="#000000">libcli.h</text>
</a>
</g>
</g>
<!-- Node1&#45;&gt;Node32 -->
<g id="edge36" class="edge">
<title>Node1&#45;&gt;Node32</title>
<path fill="none" stroke="#191970" d="M1171.3235,-119.1069C1015.4654,-117.0165 324.1358,-106.0679 111.7314,-74 110.4372,-73.8046 109.1224,-73.5807 107.7985,-73.3339"/>
<polygon fill="#191970" stroke="#191970" points="108.1781,-69.8334 97.6582,-71.0915 106.6666,-76.6683 108.1781,-69.8334"/>
</g>
<!-- Node33 -->
<g id="node34" class="node">
<title>Node33</title>
<polygon fill="#ffffff" stroke="#bfbfbf" points="2229.5049,-55.5 2229.5049,-73.5 2279.958,-73.5 2279.958,-55.5 2229.5049,-55.5"/>
<text text-anchor="middle" x="2254.7314" y="-61.5" font-family="Helvetica,sans-Serif" font-size="10.00" fill="#000000">mysql.h</text>
</g>
<!-- Node1&#45;&gt;Node33 -->
<g id="edge40" class="edge">
<title>Node1&#45;&gt;Node33</title>
<path fill="none" stroke="#191970" d="M1234.2149,-119.0253C1381.377,-116.6661 2002.99,-105.1087 2219.2685,-73.6253"/>
<polygon fill="#191970" stroke="#191970" points="2219.8952,-77.0704 2229.2576,-72.111 2218.8459,-70.1495 2219.8952,-77.0704"/>
</g>
<!-- Node34 -->
<g id="node35" class="node">
<title>Node34</title>
<polygon fill="#ffffff" stroke="#bfbfbf" points="2298.1157,-55.5 2298.1157,-73.5 2341.3472,-73.5 2341.3472,-55.5 2298.1157,-55.5"/>
<text text-anchor="middle" x="2319.7314" y="-61.5" font-family="Helvetica,sans-Serif" font-size="10.00" fill="#000000">zmq.h</text>
</g>
<!-- Node1&#45;&gt;Node34 -->
<g id="edge41" class="edge">
<title>Node1&#45;&gt;Node34</title>
<path fill="none" stroke="#191970" d="M1234.2793,-119.2638C1387.7709,-117.9517 2058.0445,-110.3046 2287.9264,-73.6078"/>
<polygon fill="#191970" stroke="#191970" points="2288.5934,-77.045 2297.8837,-71.9518 2287.445,-70.1398 2288.5934,-77.045"/>
</g>
<!-- Node35 -->
<g id="node36" class="node">
<title>Node35</title>
<g id="a_node36"><a xlink:href="src_2include_2type_8h.html" target="_top" xlink:title="type.h">
<polygon fill="#ffffff" stroke="#000000" points="2359.1108,-55.5 2359.1108,-73.5 2402.3521,-73.5 2402.3521,-55.5 2359.1108,-55.5"/>
<text text-anchor="middle" x="2380.7314" y="-61.5" font-family="Helvetica,sans-Serif" font-size="10.00" fill="#000000">type.h</text>
</a>
</g>
</g>
<!-- Node1&#45;&gt;Node35 -->
<g id="edge42" class="edge">
<title>Node1&#45;&gt;Node35</title>
<path fill="none" stroke="#191970" d="M1234.2032,-119.3859C1392.876,-118.641 2106.737,-113.2236 2348.8087,-73.8576"/>
<polygon fill="#191970" stroke="#191970" points="2349.6699,-77.2616 2358.9446,-72.1402 2348.5004,-70.36 2349.6699,-77.2616"/>
</g>
<!-- Node27&#45;&gt;Node1 -->
<g id="edge28" class="edge">
<title>Node27&#45;&gt;Node1</title>
<path fill="none" stroke="#191970" d="M1890.5797,-73.5211C1889.6232,-73.6918 1888.6719,-73.852 1887.7314,-74 1763.2689,-93.587 1373.7253,-112.2548 1244.6386,-117.8255"/>
<polygon fill="#191970" stroke="#191970" points="1244.2223,-114.34 1234.3809,-118.264 1244.5213,-121.3336 1244.2223,-114.34"/>
</g>
<!-- Node28&#45;&gt;Node1 -->
<g id="edge30" class="edge">
<title>Node28&#45;&gt;Node1</title>
<path fill="none" stroke="#191970" d="M1967.2205,-73.5386C1966.3853,-73.7041 1965.554,-73.8585 1964.7314,-74 1824.9415,-98.0428 1382.6218,-113.9737 1244.3525,-118.3073"/>
<polygon fill="#191970" stroke="#191970" points="1244.0626,-114.8145 1234.1757,-118.6224 1244.2792,-121.8112 1244.0626,-114.8145"/>
</g>
<!-- Node29&#45;&gt;Node1 -->
<g id="edge32" class="edge">
<title>Node29&#45;&gt;Node1</title>
<path fill="none" stroke="#191970" d="M2033.8718,-73.5292C2032.8167,-73.6975 2031.768,-73.855 2030.7314,-74 1876.974,-95.5068 1390.9951,-113.3854 1244.7043,-118.2143"/>
<polygon fill="#191970" stroke="#191970" points="1244.2504,-114.7271 1234.3702,-118.5521 1244.4792,-121.7234 1244.2504,-114.7271"/>
</g>
<!-- Node30 -->
<g id="node31" class="node">
<title>Node30</title>
<g id="a_node31"><a xlink:href="str_8h.html" target="_top" xlink:title="str.h">
<polygon fill="#ffffff" stroke="#000000" points="2076.2808,-.5 2076.2808,-18.5 2111.1821,-18.5 2111.1821,-.5 2076.2808,-.5"/>
<text text-anchor="middle" x="2093.7314" y="-6.5" font-family="Helvetica,sans-Serif" font-size="10.00" fill="#000000">str.h</text>
</a>
</g>
</g>
<!-- Node29&#45;&gt;Node30 -->
<g id="edge33" class="edge">
<title>Node29&#45;&gt;Node30</title>
<path fill="none" stroke="#191970" d="M2068.6853,-55.4179C2072.7861,-47.8998 2078.7408,-36.9829 2083.8152,-27.6799"/>
<polygon fill="#191970" stroke="#191970" points="2086.954,-29.2344 2088.6699,-18.7795 2080.8087,-25.8824 2086.954,-29.2344"/>
</g>
<!-- Node30&#45;&gt;Node1 -->
<g id="edge34" class="edge">
<title>Node30&#45;&gt;Node1</title>
<path fill="none" stroke="#191970" d="M2099.7406,-18.7868C2107.9246,-32.7147 2120.0161,-58.9774 2105.7314,-74 2075.6871,-105.5964 1417.4427,-116.6224 1244.2028,-118.9826"/>
<polygon fill="#191970" stroke="#191970" points="1244.1547,-115.4828 1234.2025,-119.1165 1244.2484,-122.4822 1244.1547,-115.4828"/>
</g>
<!-- Node32&#45;&gt;Node2 -->
<g id="edge38" class="edge">
<title>Node32&#45;&gt;Node2</title>
<path fill="none" stroke="#191970" d="M66.9796,-55.4179C59.3536,-47.5041 48.0985,-35.8243 38.8484,-26.2251"/>
<polygon fill="#191970" stroke="#191970" points="41.1327,-23.5516 31.6735,-18.7795 36.0921,-28.4089 41.1327,-23.5516"/>
</g>
<!-- Node32&#45;&gt;Node5 -->
<g id="edge37" class="edge">
<title>Node32&#45;&gt;Node5</title>
<path fill="none" stroke="#191970" d="M78.0433,-55.4179C79.8965,-48.1372 82.5612,-37.669 84.8783,-28.5659"/>
<polygon fill="#191970" stroke="#191970" points="88.2944,-29.3338 87.3694,-18.7795 81.5107,-27.607 88.2944,-29.3338"/>
</g>
<!-- Node32&#45;&gt;Node15 -->
<g id="edge39" class="edge">
<title>Node32&#45;&gt;Node15</title>
<path fill="none" stroke="#191970" d="M90.428,-55.4179C104.2128,-46.8992 125.0592,-34.0166 141.1663,-24.0627"/>
<polygon fill="#191970" stroke="#191970" points="143.3463,-26.83 150.0131,-18.5956 139.6664,-20.8753 143.3463,-26.83"/>
</g>
<!-- Node36&#45;&gt;Node1 -->
<g id="edge44" class="edge">
<title>Node36&#45;&gt;Node1</title>
<path fill="none" stroke="#191970" d="M1226.1078,-165.4179C1222.3207,-157.9789 1216.8395,-147.2123 1212.1365,-137.9742"/>
<polygon fill="#191970" stroke="#191970" points="1215.1115,-136.1032 1207.4555,-128.7795 1208.8733,-139.279 1215.1115,-136.1032"/>
</g>
</g>
</svg>
