<?xml version="1.0" encoding="UTF-8" standalone="no"?>
<!DOCTYPE svg PUBLIC "-//W3C//DTD SVG 1.1//EN"
 "http://www.w3.org/Graphics/SVG/1.1/DTD/svg11.dtd">
<!-- Generated by graphviz version 2.40.1 (20161225.0304)
 -->
<!-- Title: src/include/cli.h Pages: 1 -->
<svg width="136pt" height="82pt"
 viewBox="0.00 0.00 136.45 82.00" xmlns="http://www.w3.org/2000/svg" xmlns:xlink="http://www.w3.org/1999/xlink">
<g id="graph0" class="graph" transform="scale(1 1) rotate(0) translate(4 78)">
<title>src/include/cli.h</title>
<polygon fill="#ffffff" stroke="transparent" points="-4,4 -4,-78 132.4458,-78 132.4458,4 -4,4"/>
<!-- Node37 -->
<g id="node1" class="node">
<title>Node37</title>
<polygon fill="#bfbfbf" stroke="#000000" points="18.4854,-55.5 18.4854,-73.5 102.8447,-73.5 102.8447,-55.5 18.4854,-55.5"/>
<text text-anchor="middle" x="60.665" y="-61.5" font-family="Helvetica,sans-Serif" font-size="10.00" fill="#000000">src/include/cli.h</text>
</g>
<!-- Node38 -->
<g id="node2" class="node">
<title>Node38</title>
<g id="a_node2"><a xlink:href="cli_8c.html" target="_top" xlink:title="src/cli.c">
<polygon fill="#ffffff" stroke="#000000" points="0,-.5 0,-18.5 49.3301,-18.5 49.3301,-.5 0,-.5"/>
<text text-anchor="middle" x="24.665" y="-6.5" font-family="Helvetica,sans-Serif" font-size="10.00" fill="#000000">src/cli.c</text>
</a>
</g>
</g>
<!-- Node37&#45;&gt;Node38 -->
<g id="edge1" class="edge">
<title>Node37&#45;&gt;Node38</title>
<path fill="none" stroke="#191970" d="M49.1158,-46.8553C43.0048,-37.519 35.7505,-26.4361 30.7389,-18.7795"/>
<polygon fill="#191970" stroke="#191970" points="46.3153,-48.9677 54.7204,-55.4179 52.1722,-45.134 46.3153,-48.9677"/>
</g>
<!-- Node39 -->
<g id="node3" class="node">
<title>Node39</title>
<g id="a_node3"><a xlink:href="main_8c.html" target="_top" xlink:title="src/main.c">
<polygon fill="#ffffff" stroke="#000000" points="66.8843,-.5 66.8843,-18.5 128.4458,-18.5 128.4458,-.5 66.8843,-.5"/>
<text text-anchor="middle" x="97.665" y="-6.5" font-family="Helvetica,sans-Serif" font-size="10.00" fill="#000000">src/main.c</text>
</a>
</g>
</g>
<!-- Node37&#45;&gt;Node39 -->
<g id="edge2" class="edge">
<title>Node37&#45;&gt;Node39</title>
<path fill="none" stroke="#191970" d="M72.5351,-46.8553C78.8159,-37.519 86.2716,-26.4361 91.4225,-18.7795"/>
<polygon fill="#191970" stroke="#191970" points="69.4526,-45.167 66.7748,-55.4179 75.2607,-49.0743 69.4526,-45.167"/>
</g>
</g>
</svg>
