<?xml version="1.0" encoding="UTF-8" standalone="no"?>
<!DOCTYPE svg PUBLIC "-//W3C//DTD SVG 1.1//EN"
 "http://www.w3.org/Graphics/SVG/1.1/DTD/svg11.dtd">
<!-- Generated by graphviz version 2.40.1 (20161225.0304)
 -->
<!-- Title: components/include/cluster.h Pages: 1 -->
<svg width="2395pt" height="312pt"
 viewBox="0.00 0.00 2395.36 312.00" xmlns="http://www.w3.org/2000/svg" xmlns:xlink="http://www.w3.org/1999/xlink">
<g id="graph0" class="graph" transform="scale(1 1) rotate(0) translate(4 308)">
<title>components/include/cluster.h</title>
<polygon fill="#ffffff" stroke="transparent" points="-4,4 -4,-308 2391.3643,-308 2391.3643,4 -4,4"/>
<!-- Node0 -->
<g id="node1" class="node">
<title>Node0</title>
<polygon fill="#bfbfbf" stroke="#000000" points="1091.271,-275.5 1091.271,-303.5 1196.2163,-303.5 1196.2163,-275.5 1091.271,-275.5"/>
<text text-anchor="start" x="1099.271" y="-291.5" font-family="Helvetica,sans-Serif" font-size="10.00" fill="#000000">components/include</text>
<text text-anchor="middle" x="1143.7437" y="-281.5" font-family="Helvetica,sans-Serif" font-size="10.00" fill="#000000">/cluster.h</text>
</g>
<!-- Node1 -->
<g id="node2" class="node">
<title>Node1</title>
<g id="a_node2"><a xlink:href="src_2include_2common_8h.html" target="_top" xlink:title="common.h">
<polygon fill="#ffffff" stroke="#000000" points="1160.4014,-110.5 1160.4014,-128.5 1223.0859,-128.5 1223.0859,-110.5 1160.4014,-110.5"/>
<text text-anchor="middle" x="1191.7437" y="-116.5" font-family="Helvetica,sans-Serif" font-size="10.00" fill="#000000">common.h</text>
</a>
</g>
</g>
<!-- Node0&#45;&gt;Node1 -->
<g id="edge1" class="edge">
<title>Node0&#45;&gt;Node1</title>
<path fill="none" stroke="#191970" d="M1147.7535,-275.2983C1156.3741,-244.7672 1176.6747,-172.8692 1186.3858,-138.4756"/>
<polygon fill="#191970" stroke="#191970" points="1189.7894,-139.3015 1189.1385,-128.7266 1183.0528,-137.3993 1189.7894,-139.3015"/>
</g>
<!-- Node29 -->
<g id="node30" class="node">
<title>Node29</title>
<g id="a_node30"><a xlink:href="database_8h.html" target="_top" xlink:title="database.h">
<polygon fill="#ffffff" stroke="#000000" points="0,-55.5 0,-73.5 65.4873,-73.5 65.4873,-55.5 0,-55.5"/>
<text text-anchor="middle" x="32.7437" y="-61.5" font-family="Helvetica,sans-Serif" font-size="10.00" fill="#000000">database.h</text>
</a>
</g>
</g>
<!-- Node0&#45;&gt;Node29 -->
<g id="edge50" class="edge">
<title>Node0&#45;&gt;Node29</title>
<path fill="none" stroke="#191970" d="M1090.9052,-278.7991C900.2072,-240.1789 249.551,-108.4079 75.7292,-73.2054"/>
<polygon fill="#191970" stroke="#191970" points="76.1772,-69.7252 65.6814,-71.1706 74.7877,-76.5859 76.1772,-69.7252"/>
</g>
<!-- Node36 -->
<g id="node37" class="node">
<title>Node36</title>
<g id="a_node37"><a xlink:href="events_2include_2event_8h.html" target="_top" xlink:title="event.h">
<polygon fill="#ffffff" stroke="#000000" points="1242.3423,-220.5 1242.3423,-238.5 1291.145,-238.5 1291.145,-220.5 1242.3423,-220.5"/>
<text text-anchor="middle" x="1266.7437" y="-226.5" font-family="Helvetica,sans-Serif" font-size="10.00" fill="#000000">event.h</text>
</a>
</g>
</g>
<!-- Node0&#45;&gt;Node36 -->
<g id="edge43" class="edge">
<title>Node0&#45;&gt;Node36</title>
<path fill="none" stroke="#191970" d="M1172.5817,-275.4327C1192.5965,-265.6693 1219.1132,-252.7344 1238.9064,-243.0792"/>
<polygon fill="#191970" stroke="#191970" points="1240.5718,-246.161 1248.025,-238.6311 1237.5028,-239.8697 1240.5718,-246.161"/>
</g>
<!-- Node40 -->
<g id="node41" class="node">
<title>Node40</title>
<g id="a_node41"><a xlink:href="base64_8h.html" target="_top" xlink:title="base64.h">
<polygon fill="#ffffff" stroke="#000000" points="1087.1699,-220.5 1087.1699,-238.5 1144.3174,-238.5 1144.3174,-220.5 1087.1699,-220.5"/>
<text text-anchor="middle" x="1115.7437" y="-226.5" font-family="Helvetica,sans-Serif" font-size="10.00" fill="#000000">base64.h</text>
</a>
</g>
</g>
<!-- Node0&#45;&gt;Node40 -->
<g id="edge51" class="edge">
<title>Node0&#45;&gt;Node40</title>
<path fill="none" stroke="#191970" d="M1137.108,-275.2808C1133.2541,-267.0224 1128.3593,-256.5335 1124.2275,-247.6796"/>
<polygon fill="#191970" stroke="#191970" points="1127.3835,-246.1659 1119.9829,-238.5842 1121.0402,-249.1261 1127.3835,-246.1659"/>
</g>
<!-- Node2 -->
<g id="node3" class="node">
<title>Node2</title>
<polygon fill="#ffffff" stroke="#bfbfbf" points="2199.0122,-.5 2199.0122,-18.5 2244.4751,-18.5 2244.4751,-.5 2199.0122,-.5"/>
<text text-anchor="middle" x="2221.7437" y="-6.5" font-family="Helvetica,sans-Serif" font-size="10.00" fill="#000000">stdio.h</text>
</g>
<!-- Node1&#45;&gt;Node2 -->
<g id="edge2" class="edge">
<title>Node1&#45;&gt;Node2</title>
<path fill="none" stroke="#191970" d="M1223.2503,-119.3273C1392.9823,-118.2466 2192.1503,-111.1909 2227.7437,-74 2239.1317,-62.1008 2235.5263,-42.7068 2230.3553,-28.2876"/>
<polygon fill="#191970" stroke="#191970" points="2233.5221,-26.7841 2226.5054,-18.8458 2227.0402,-29.4271 2233.5221,-26.7841"/>
</g>
<!-- Node3 -->
<g id="node4" class="node">
<title>Node3</title>
<polygon fill="#ffffff" stroke="#bfbfbf" points="2275.2314,-55.5 2275.2314,-73.5 2326.2559,-73.5 2326.2559,-55.5 2275.2314,-55.5"/>
<text text-anchor="middle" x="2300.7437" y="-61.5" font-family="Helvetica,sans-Serif" font-size="10.00" fill="#000000">unistd.h</text>
</g>
<!-- Node1&#45;&gt;Node3 -->
<g id="edge3" class="edge">
<title>Node1&#45;&gt;Node3</title>
<path fill="none" stroke="#191970" d="M1223.2657,-118.9694C1377.3883,-116.2511 2052.5982,-102.8778 2260.7437,-74 2262.2018,-73.7977 2263.6847,-73.5663 2265.1787,-73.3119"/>
<polygon fill="#191970" stroke="#191970" points="2265.9269,-76.7318 2275.0597,-71.3615 2264.5712,-69.8643 2265.9269,-76.7318"/>
</g>
<!-- Node4 -->
<g id="node5" class="node">
<title>Node4</title>
<polygon fill="#ffffff" stroke="#bfbfbf" points="121.9014,-55.5 121.9014,-73.5 169.5859,-73.5 169.5859,-55.5 121.9014,-55.5"/>
<text text-anchor="middle" x="145.7437" y="-61.5" font-family="Helvetica,sans-Serif" font-size="10.00" fill="#000000">stdlib.h</text>
</g>
<!-- Node1&#45;&gt;Node4 -->
<g id="edge4" class="edge">
<title>Node1&#45;&gt;Node4</title>
<path fill="none" stroke="#191970" d="M1160.3738,-119.0846C1013.7441,-116.9935 394.3978,-106.4675 179.6608,-73.6945"/>
<polygon fill="#191970" stroke="#191970" points="180.1703,-70.2316 169.7446,-72.117 179.0705,-77.1447 180.1703,-70.2316"/>
</g>
<!-- Node5 -->
<g id="node6" class="node">
<title>Node5</title>
<polygon fill="#ffffff" stroke="#bfbfbf" points="1344.6772,-.5 1344.6772,-18.5 1396.8101,-18.5 1396.8101,-.5 1344.6772,-.5"/>
<text text-anchor="middle" x="1370.7437" y="-6.5" font-family="Helvetica,sans-Serif" font-size="10.00" fill="#000000">stdarg.h</text>
</g>
<!-- Node1&#45;&gt;Node5 -->
<g id="edge5" class="edge">
<title>Node1&#45;&gt;Node5</title>
<path fill="none" stroke="#191970" d="M1160.1265,-119.0058C1062.0637,-116.9277 772.4016,-106.4126 819.7437,-55 854.5792,-17.1693 1217.2387,-10.7912 1334.4354,-9.7172"/>
<polygon fill="#191970" stroke="#191970" points="1334.7061,-13.2151 1344.6764,-9.6313 1334.6474,-6.2154 1334.7061,-13.2151"/>
</g>
<!-- Node6 -->
<g id="node7" class="node">
<title>Node6</title>
<polygon fill="#ffffff" stroke="#bfbfbf" points="187.623,-55.5 187.623,-73.5 235.8643,-73.5 235.8643,-55.5 187.623,-55.5"/>
<text text-anchor="middle" x="211.7437" y="-61.5" font-family="Helvetica,sans-Serif" font-size="10.00" fill="#000000">stdint.h</text>
</g>
<!-- Node1&#45;&gt;Node6 -->
<g id="edge6" class="edge">
<title>Node1&#45;&gt;Node6</title>
<path fill="none" stroke="#191970" d="M1160.0979,-118.9316C1019.2362,-116.2578 447.7469,-103.8542 246.2804,-73.6084"/>
<polygon fill="#191970" stroke="#191970" points="246.5329,-70.1053 236.1115,-72.0145 245.4489,-77.0209 246.5329,-70.1053"/>
</g>
<!-- Node7 -->
<g id="node8" class="node">
<title>Node7</title>
<polygon fill="#ffffff" stroke="#bfbfbf" points="254.3472,-55.5 254.3472,-73.5 303.1401,-73.5 303.1401,-55.5 254.3472,-55.5"/>
<text text-anchor="middle" x="278.7437" y="-61.5" font-family="Helvetica,sans-Serif" font-size="10.00" fill="#000000">string.h</text>
</g>
<!-- Node1&#45;&gt;Node7 -->
<g id="edge7" class="edge">
<title>Node1&#45;&gt;Node7</title>
<path fill="none" stroke="#191970" d="M1160.0316,-118.8316C1025.3415,-115.8462 499.4579,-102.6703 313.3905,-73.8803"/>
<polygon fill="#191970" stroke="#191970" points="313.9005,-70.4174 303.4699,-72.2753 312.7825,-77.3276 313.9005,-70.4174"/>
</g>
<!-- Node8 -->
<g id="node9" class="node">
<title>Node8</title>
<polygon fill="#ffffff" stroke="#bfbfbf" points="320.8472,-55.5 320.8472,-73.5 374.6401,-73.5 374.6401,-55.5 320.8472,-55.5"/>
<text text-anchor="middle" x="347.7437" y="-61.5" font-family="Helvetica,sans-Serif" font-size="10.00" fill="#000000">strings.h</text>
</g>
<!-- Node1&#45;&gt;Node8 -->
<g id="edge8" class="edge">
<title>Node1&#45;&gt;Node8</title>
<path fill="none" stroke="#191970" d="M1160.0485,-118.5703C1032.5993,-114.7027 556.5355,-98.9806 384.6504,-73.7687"/>
<polygon fill="#191970" stroke="#191970" points="385.1605,-70.3061 374.7457,-72.2507 384.1001,-77.2253 385.1605,-70.3061"/>
</g>
<!-- Node9 -->
<g id="node10" class="node">
<title>Node9</title>
<polygon fill="#ffffff" stroke="#bfbfbf" points="392.6157,-55.5 392.6157,-73.5 450.8716,-73.5 450.8716,-55.5 392.6157,-55.5"/>
<text text-anchor="middle" x="421.7437" y="-61.5" font-family="Helvetica,sans-Serif" font-size="10.00" fill="#000000">pthread.h</text>
</g>
<!-- Node1&#45;&gt;Node9 -->
<g id="edge9" class="edge">
<title>Node1&#45;&gt;Node9</title>
<path fill="none" stroke="#191970" d="M1160.1849,-118.3084C1041.0093,-113.6917 617.6175,-96.2051 461.4298,-73.9431"/>
<polygon fill="#191970" stroke="#191970" points="461.5007,-70.4151 451.0937,-72.4011 460.4678,-77.3385 461.5007,-70.4151"/>
</g>
<!-- Node10 -->
<g id="node11" class="node">
<title>Node10</title>
<polygon fill="#ffffff" stroke="#bfbfbf" points="468.623,-55.5 468.623,-73.5 516.8643,-73.5 516.8643,-55.5 468.623,-55.5"/>
<text text-anchor="middle" x="492.7437" y="-61.5" font-family="Helvetica,sans-Serif" font-size="10.00" fill="#000000">ctype.h</text>
</g>
<!-- Node1&#45;&gt;Node10 -->
<g id="edge10" class="edge">
<title>Node1&#45;&gt;Node10</title>
<path fill="none" stroke="#191970" d="M1160.3006,-118.2378C1048.4336,-113.6125 669.2987,-96.7531 527.322,-73.8699"/>
<polygon fill="#191970" stroke="#191970" points="527.5608,-70.3605 517.1166,-72.1407 526.3913,-77.2621 527.5608,-70.3605"/>
</g>
<!-- Node11 -->
<g id="node12" class="node">
<title>Node11</title>
<polygon fill="#ffffff" stroke="#bfbfbf" points="534.9014,-55.5 534.9014,-73.5 582.5859,-73.5 582.5859,-55.5 534.9014,-55.5"/>
<text text-anchor="middle" x="558.7437" y="-61.5" font-family="Helvetica,sans-Serif" font-size="10.00" fill="#000000">errno.h</text>
</g>
<!-- Node1&#45;&gt;Node11 -->
<g id="edge11" class="edge">
<title>Node1&#45;&gt;Node11</title>
<path fill="none" stroke="#191970" d="M1160.0777,-117.9952C1055.3586,-112.8827 720.0853,-95.3954 592.6132,-73.9652"/>
<polygon fill="#191970" stroke="#191970" points="593.1796,-70.5111 582.7228,-72.2156 591.9602,-77.4041 593.1796,-70.5111"/>
</g>
<!-- Node12 -->
<g id="node13" class="node">
<title>Node12</title>
<polygon fill="#ffffff" stroke="#bfbfbf" points="600.1279,-55.5 600.1279,-73.5 643.3594,-73.5 643.3594,-55.5 600.1279,-55.5"/>
<text text-anchor="middle" x="621.7437" y="-61.5" font-family="Helvetica,sans-Serif" font-size="10.00" fill="#000000">time.h</text>
</g>
<!-- Node1&#45;&gt;Node12 -->
<g id="edge12" class="edge">
<title>Node1&#45;&gt;Node12</title>
<path fill="none" stroke="#191970" d="M1160.2482,-117.7261C1063.2435,-112.1277 769.107,-94.1095 653.5752,-73.6888"/>
<polygon fill="#191970" stroke="#191970" points="654.0847,-70.2236 643.6129,-71.8335 652.8031,-77.1053 654.0847,-70.2236"/>
</g>
<!-- Node13 -->
<g id="node14" class="node">
<title>Node13</title>
<polygon fill="#ffffff" stroke="#bfbfbf" points="661.4038,-55.5 661.4038,-73.5 704.0835,-73.5 704.0835,-55.5 661.4038,-55.5"/>
<text text-anchor="middle" x="682.7437" y="-61.5" font-family="Helvetica,sans-Serif" font-size="10.00" fill="#000000">fcntl.h</text>
</g>
<!-- Node1&#45;&gt;Node13 -->
<g id="edge13" class="edge">
<title>Node1&#45;&gt;Node13</title>
<path fill="none" stroke="#191970" d="M1160.3896,-118.7063C1084.9997,-116.3342 887.6356,-107.3692 714.345,-73.6992"/>
<polygon fill="#191970" stroke="#191970" points="714.7701,-70.2156 704.2812,-71.7103 713.4128,-77.0828 714.7701,-70.2156"/>
</g>
<!-- Node14 -->
<g id="node15" class="node">
<title>Node14</title>
<polygon fill="#ffffff" stroke="#bfbfbf" points="722.5098,-55.5 722.5098,-73.5 772.9775,-73.5 772.9775,-55.5 722.5098,-55.5"/>
<text text-anchor="middle" x="747.7437" y="-61.5" font-family="Helvetica,sans-Serif" font-size="10.00" fill="#000000">signal.h</text>
</g>
<!-- Node1&#45;&gt;Node14 -->
<g id="edge14" class="edge">
<title>Node1&#45;&gt;Node14</title>
<path fill="none" stroke="#191970" d="M1160.2984,-117.3354C1091.9445,-112.3312 924.8627,-98.4786 786.7437,-74 785.6458,-73.8054 784.5327,-73.5981 783.4108,-73.3803"/>
<polygon fill="#191970" stroke="#191970" points="783.7503,-69.8737 773.2391,-71.2022 782.2846,-76.7185 783.7503,-69.8737"/>
</g>
<!-- Node15 -->
<g id="node16" class="node">
<title>Node15</title>
<polygon fill="#ffffff" stroke="#bfbfbf" points="2053.2388,-.5 2053.2388,-18.5 2114.2485,-18.5 2114.2485,-.5 2053.2388,-.5"/>
<text text-anchor="middle" x="2083.7437" y="-6.5" font-family="Helvetica,sans-Serif" font-size="10.00" fill="#000000">sys/time.h</text>
</g>
<!-- Node1&#45;&gt;Node15 -->
<g id="edge15" class="edge">
<title>Node1&#45;&gt;Node15</title>
<path fill="none" stroke="#191970" d="M1223.3884,-118.7954C1363.4711,-115.5304 1924.097,-100.8787 1997.7437,-74 2025.5128,-63.8652 2051.841,-41.5804 2067.8811,-26.0601"/>
<polygon fill="#191970" stroke="#191970" points="2070.6856,-28.2055 2075.2844,-18.6607 2065.7372,-23.2544 2070.6856,-28.2055"/>
</g>
<!-- Node16 -->
<g id="node17" class="node">
<title>Node16</title>
<polygon fill="#ffffff" stroke="#bfbfbf" points="828.6255,-55.5 828.6255,-73.5 886.8618,-73.5 886.8618,-55.5 828.6255,-55.5"/>
<text text-anchor="middle" x="857.7437" y="-61.5" font-family="Helvetica,sans-Serif" font-size="10.00" fill="#000000">sys/stat.h</text>
</g>
<!-- Node1&#45;&gt;Node16 -->
<g id="edge16" class="edge">
<title>Node1&#45;&gt;Node16</title>
<path fill="none" stroke="#191970" d="M1160.0333,-115.6046C1107.4254,-108.9311 998.6192,-94.2357 897.2416,-74.1581"/>
<polygon fill="#191970" stroke="#191970" points="897.6339,-70.6672 887.1412,-72.1346 896.2588,-77.5308 897.6339,-70.6672"/>
</g>
<!-- Node17 -->
<g id="node18" class="node">
<title>Node17</title>
<polygon fill="#ffffff" stroke="#bfbfbf" points="904.7339,-55.5 904.7339,-73.5 970.7534,-73.5 970.7534,-55.5 904.7339,-55.5"/>
<text text-anchor="middle" x="937.7437" y="-61.5" font-family="Helvetica,sans-Serif" font-size="10.00" fill="#000000">sys/types.h</text>
</g>
<!-- Node1&#45;&gt;Node17 -->
<g id="edge17" class="edge">
<title>Node1&#45;&gt;Node17</title>
<path fill="none" stroke="#191970" d="M1160.1128,-112.825C1120.522,-104.4454 1050.3748,-89.5167 980.9891,-74.2585"/>
<polygon fill="#191970" stroke="#191970" points="981.7256,-70.8369 971.2068,-72.104 980.2199,-77.6731 981.7256,-70.8369"/>
</g>
<!-- Node18 -->
<g id="node19" class="node">
<title>Node18</title>
<polygon fill="#ffffff" stroke="#bfbfbf" points="988.793,-55.5 988.793,-73.5 1048.6943,-73.5 1048.6943,-55.5 988.793,-55.5"/>
<text text-anchor="middle" x="1018.7437" y="-61.5" font-family="Helvetica,sans-Serif" font-size="10.00" fill="#000000">sys/ioctl.h</text>
</g>
<!-- Node1&#45;&gt;Node18 -->
<g id="edge18" class="edge">
<title>Node1&#45;&gt;Node18</title>
<path fill="none" stroke="#191970" d="M1163.1762,-110.4179C1134.1658,-101.1949 1089.0656,-86.8567 1056.9868,-76.6582"/>
<polygon fill="#191970" stroke="#191970" points="1057.6564,-73.1985 1047.066,-73.5042 1055.5355,-79.8695 1057.6564,-73.1985"/>
</g>
<!-- Node19 -->
<g id="node20" class="node">
<title>Node19</title>
<polygon fill="#ffffff" stroke="#bfbfbf" points="1066.2339,-55.5 1066.2339,-73.5 1137.2534,-73.5 1137.2534,-55.5 1066.2339,-55.5"/>
<text text-anchor="middle" x="1101.7437" y="-61.5" font-family="Helvetica,sans-Serif" font-size="10.00" fill="#000000">sys/socket.h</text>
</g>
<!-- Node1&#45;&gt;Node19 -->
<g id="edge19" class="edge">
<title>Node1&#45;&gt;Node19</title>
<path fill="none" stroke="#191970" d="M1176.882,-110.4179C1162.9423,-101.8992 1141.8617,-89.0166 1125.5736,-79.0627"/>
<polygon fill="#191970" stroke="#191970" points="1126.9853,-75.8237 1116.6274,-73.5956 1123.3351,-81.7967 1126.9853,-75.8237"/>
</g>
<!-- Node20 -->
<g id="node21" class="node">
<title>Node20</title>
<polygon fill="#ffffff" stroke="#bfbfbf" points="1155.123,-55.5 1155.123,-73.5 1228.3643,-73.5 1228.3643,-55.5 1155.123,-55.5"/>
<text text-anchor="middle" x="1191.7437" y="-61.5" font-family="Helvetica,sans-Serif" font-size="10.00" fill="#000000">sys/sysinfo.h</text>
</g>
<!-- Node1&#45;&gt;Node20 -->
<g id="edge20" class="edge">
<title>Node1&#45;&gt;Node20</title>
<path fill="none" stroke="#191970" d="M1191.7437,-110.4179C1191.7437,-103.2164 1191.7437,-92.8962 1191.7437,-83.8632"/>
<polygon fill="#191970" stroke="#191970" points="1195.2438,-83.7794 1191.7437,-73.7795 1188.2438,-83.7795 1195.2438,-83.7794"/>
</g>
<!-- Node21 -->
<g id="node22" class="node">
<title>Node21</title>
<polygon fill="#ffffff" stroke="#bfbfbf" points="1246.1157,-55.5 1246.1157,-73.5 1309.3716,-73.5 1309.3716,-55.5 1246.1157,-55.5"/>
<text text-anchor="middle" x="1277.7437" y="-61.5" font-family="Helvetica,sans-Serif" font-size="10.00" fill="#000000">arpa/inet.h</text>
</g>
<!-- Node1&#45;&gt;Node21 -->
<g id="edge21" class="edge">
<title>Node1&#45;&gt;Node21</title>
<path fill="none" stroke="#191970" d="M1205.9448,-110.4179C1219.265,-101.8992 1239.4087,-89.0166 1254.9728,-79.0627"/>
<polygon fill="#191970" stroke="#191970" points="1256.9826,-81.932 1263.5214,-73.5956 1253.2112,-76.0348 1256.9826,-81.932"/>
</g>
<!-- Node22 -->
<g id="node23" class="node">
<title>Node22</title>
<polygon fill="#ffffff" stroke="#bfbfbf" points="1327.2808,-55.5 1327.2808,-73.5 1392.2065,-73.5 1392.2065,-55.5 1327.2808,-55.5"/>
<text text-anchor="middle" x="1359.7437" y="-61.5" font-family="Helvetica,sans-Serif" font-size="10.00" fill="#000000">netinet/in.h</text>
</g>
<!-- Node1&#45;&gt;Node22 -->
<g id="edge22" class="edge">
<title>Node1&#45;&gt;Node22</title>
<path fill="none" stroke="#191970" d="M1219.4854,-110.4179C1247.6574,-101.1949 1291.4541,-86.8567 1322.6058,-76.6582"/>
<polygon fill="#191970" stroke="#191970" points="1323.8252,-79.9419 1332.2399,-73.5042 1321.6472,-73.2893 1323.8252,-79.9419"/>
</g>
<!-- Node23 -->
<g id="node24" class="node">
<title>Node23</title>
<polygon fill="#ffffff" stroke="#bfbfbf" points="1409.8867,-55.5 1409.8867,-73.5 1487.6006,-73.5 1487.6006,-55.5 1409.8867,-55.5"/>
<text text-anchor="middle" x="1448.7437" y="-61.5" font-family="Helvetica,sans-Serif" font-size="10.00" fill="#000000">net/ethernet.h</text>
</g>
<!-- Node1&#45;&gt;Node23 -->
<g id="edge23" class="edge">
<title>Node1&#45;&gt;Node23</title>
<path fill="none" stroke="#191970" d="M1223.2569,-112.7559C1267.3631,-103.3168 1347.9155,-86.078 1399.8475,-74.9642"/>
<polygon fill="#191970" stroke="#191970" points="1400.7869,-78.3424 1409.833,-72.8272 1399.322,-71.4974 1400.7869,-78.3424"/>
</g>
<!-- Node24 -->
<g id="node25" class="node">
<title>Node24</title>
<polygon fill="#ffffff" stroke="#bfbfbf" points="1505.2808,-55.5 1505.2808,-73.5 1570.2065,-73.5 1570.2065,-55.5 1505.2808,-55.5"/>
<text text-anchor="middle" x="1537.7437" y="-61.5" font-family="Helvetica,sans-Serif" font-size="10.00" fill="#000000">netinet/ip.h</text>
</g>
<!-- Node1&#45;&gt;Node24 -->
<g id="edge24" class="edge">
<title>Node1&#45;&gt;Node24</title>
<path fill="none" stroke="#191970" d="M1223.4971,-115.6098C1277.3597,-108.8283 1390.2567,-93.8264 1495.0098,-74.2178"/>
<polygon fill="#191970" stroke="#191970" points="1495.9441,-77.6033 1505.1196,-72.306 1494.6433,-70.7252 1495.9441,-77.6033"/>
</g>
<!-- Node25 -->
<g id="node26" class="node">
<title>Node25</title>
<polygon fill="#ffffff" stroke="#bfbfbf" points="1588.5024,-55.5 1588.5024,-73.5 1658.9849,-73.5 1658.9849,-55.5 1588.5024,-55.5"/>
<text text-anchor="middle" x="1623.7437" y="-61.5" font-family="Helvetica,sans-Serif" font-size="10.00" fill="#000000">netinet/tcp.h</text>
</g>
<!-- Node1&#45;&gt;Node25 -->
<g id="edge25" class="edge">
<title>Node1&#45;&gt;Node25</title>
<path fill="none" stroke="#191970" d="M1223.2313,-116.7778C1287.8027,-110.9854 1440.0384,-96.2522 1578.4847,-73.8956"/>
<polygon fill="#191970" stroke="#191970" points="1579.122,-77.338 1588.4276,-72.2728 1577.9944,-70.4294 1579.122,-77.338"/>
</g>
<!-- Node26 -->
<g id="node27" class="node">
<title>Node26</title>
<polygon fill="#ffffff" stroke="#bfbfbf" points="1676.9434,-55.5 1676.9434,-73.5 1768.5439,-73.5 1768.5439,-55.5 1676.9434,-55.5"/>
<text text-anchor="middle" x="1722.7437" y="-61.5" font-family="Helvetica,sans-Serif" font-size="10.00" fill="#000000">netinet/ip_icmp.h</text>
</g>
<!-- Node1&#45;&gt;Node26 -->
<g id="edge26" class="edge">
<title>Node1&#45;&gt;Node26</title>
<path fill="none" stroke="#191970" d="M1223.3073,-117.3138C1298.3145,-111.9414 1493.3041,-96.9343 1666.7894,-74.0341"/>
<polygon fill="#191970" stroke="#191970" points="1667.4173,-77.4815 1676.8675,-72.6915 1666.4929,-70.5428 1667.4173,-77.4815"/>
</g>
<!-- Node27 -->
<g id="node28" class="node">
<title>Node27</title>
<g id="a_node28"><a xlink:href="mac2int_8h.html" target="_top" xlink:title="mac2int.h">
<polygon fill="#ffffff" stroke="#000000" points="1786.0664,-55.5 1786.0664,-73.5 1845.4209,-73.5 1845.4209,-55.5 1786.0664,-55.5"/>
<text text-anchor="middle" x="1815.7437" y="-61.5" font-family="Helvetica,sans-Serif" font-size="10.00" fill="#000000">mac2int.h</text>
</a>
</g>
</g>
<!-- Node1&#45;&gt;Node27 -->
<g id="edge27" class="edge">
<title>Node1&#45;&gt;Node27</title>
<path fill="none" stroke="#191970" d="M1223.2867,-118.8005C1310.704,-116.5573 1562.2701,-107.5821 1768.7437,-74 1771.0656,-73.6223 1773.4539,-73.1733 1775.8705,-72.679"/>
<polygon fill="#191970" stroke="#191970" points="1776.8625,-76.044 1785.8661,-70.4597 1775.3452,-69.2105 1776.8625,-76.044"/>
</g>
<!-- Node28 -->
<g id="node29" class="node">
<title>Node28</title>
<g id="a_node29"><a xlink:href="ip2int_8h.html" target="_top" xlink:title="ip2int.h">
<polygon fill="#ffffff" stroke="#000000" points="1863.6206,-55.5 1863.6206,-73.5 1911.8667,-73.5 1911.8667,-55.5 1863.6206,-55.5"/>
<text text-anchor="middle" x="1887.7437" y="-61.5" font-family="Helvetica,sans-Serif" font-size="10.00" fill="#000000">ip2int.h</text>
</a>
</g>
</g>
<!-- Node1&#45;&gt;Node28 -->
<g id="edge29" class="edge">
<title>Node1&#45;&gt;Node28</title>
<path fill="none" stroke="#191970" d="M1223.4504,-118.0637C1337.1895,-113.0679 1723.3132,-95.5723 1845.7437,-74 1848.2096,-73.5655 1850.7547,-73.0179 1853.3263,-72.4059"/>
<polygon fill="#191970" stroke="#191970" points="1854.4628,-75.7271 1863.265,-69.8303 1852.7067,-68.9509 1854.4628,-75.7271"/>
</g>
<!-- Node1&#45;&gt;Node29 -->
<g id="edge31" class="edge">
<title>Node1&#45;&gt;Node29</title>
<path fill="none" stroke="#191970" d="M1160.2132,-118.9388C1003.7386,-115.929 310.2795,-100.8702 75.8648,-74.5094"/>
<polygon fill="#191970" stroke="#191970" points="76.056,-71.008 65.7179,-73.3262 75.2452,-77.9609 76.056,-71.008"/>
</g>
<!-- Node31 -->
<g id="node32" class="node">
<title>Node31</title>
<polygon fill="#ffffff" stroke="#bfbfbf" points="1930.3398,-55.5 1930.3398,-73.5 1989.1475,-73.5 1989.1475,-55.5 1930.3398,-55.5"/>
<text text-anchor="middle" x="1959.7437" y="-61.5" font-family="Helvetica,sans-Serif" font-size="10.00" fill="#000000">jansson.h</text>
</g>
<!-- Node1&#45;&gt;Node31 -->
<g id="edge35" class="edge">
<title>Node1&#45;&gt;Node31</title>
<path fill="none" stroke="#191970" d="M1223.1693,-118.2791C1341.8426,-113.5565 1763.4555,-95.7348 1919.6982,-73.8245"/>
<polygon fill="#191970" stroke="#191970" points="1920.6546,-77.2218 1930.041,-72.3079 1919.6389,-70.2959 1920.6546,-77.2218"/>
</g>
<!-- Node32 -->
<g id="node33" class="node">
<title>Node32</title>
<g id="a_node33"><a xlink:href="libcli_8h.html" target="_top" xlink:title="libcli.h">
<polygon fill="#ffffff" stroke="#000000" points="2174.8496,-55.5 2174.8496,-73.5 2218.6377,-73.5 2218.6377,-55.5 2174.8496,-55.5"/>
<text text-anchor="middle" x="2196.7437" y="-61.5" font-family="Helvetica,sans-Serif" font-size="10.00" fill="#000000">libcli.h</text>
</a>
</g>
</g>
<!-- Node1&#45;&gt;Node32 -->
<g id="edge36" class="edge">
<title>Node1&#45;&gt;Node32</title>
<path fill="none" stroke="#191970" d="M1223.363,-119.0872C1366.8432,-117.0538 1958.2262,-106.9077 2164.4444,-73.7289"/>
<polygon fill="#191970" stroke="#191970" points="2165.2739,-77.1387 2174.5551,-72.0288 2164.1131,-70.2356 2165.2739,-77.1387"/>
</g>
<!-- Node33 -->
<g id="node34" class="node">
<title>Node33</title>
<polygon fill="#ffffff" stroke="#bfbfbf" points="2044.5171,-55.5 2044.5171,-73.5 2094.9702,-73.5 2094.9702,-55.5 2044.5171,-55.5"/>
<text text-anchor="middle" x="2069.7437" y="-61.5" font-family="Helvetica,sans-Serif" font-size="10.00" fill="#000000">mysql.h</text>
</g>
<!-- Node1&#45;&gt;Node33 -->
<g id="edge40" class="edge">
<title>Node1&#45;&gt;Node33</title>
<path fill="none" stroke="#191970" d="M1223.2842,-118.5704C1356.0983,-114.5355 1870.3792,-97.6723 2030.7437,-74 2031.8467,-73.8372 2032.9642,-73.6576 2034.0901,-73.464"/>
<polygon fill="#191970" stroke="#191970" points="2035.1682,-76.8174 2044.283,-71.4165 2033.7896,-69.9545 2035.1682,-76.8174"/>
</g>
<!-- Node34 -->
<g id="node35" class="node">
<title>Node34</title>
<polygon fill="#ffffff" stroke="#bfbfbf" points="2113.1279,-55.5 2113.1279,-73.5 2156.3594,-73.5 2156.3594,-55.5 2113.1279,-55.5"/>
<text text-anchor="middle" x="2134.7437" y="-61.5" font-family="Helvetica,sans-Serif" font-size="10.00" fill="#000000">zmq.h</text>
</g>
<!-- Node1&#45;&gt;Node34 -->
<g id="edge41" class="edge">
<title>Node1&#45;&gt;Node34</title>
<path fill="none" stroke="#191970" d="M1223.2006,-118.9742C1360.5797,-116.5209 1909.2866,-105.0492 2102.8476,-73.635"/>
<polygon fill="#191970" stroke="#191970" points="2103.6191,-77.0541 2112.892,-71.9295 2102.4472,-70.1529 2103.6191,-77.0541"/>
</g>
<!-- Node35 -->
<g id="node36" class="node">
<title>Node35</title>
<g id="a_node36"><a xlink:href="src_2include_2type_8h.html" target="_top" xlink:title="type.h">
<polygon fill="#ffffff" stroke="#000000" points="2344.123,-55.5 2344.123,-73.5 2387.3643,-73.5 2387.3643,-55.5 2344.123,-55.5"/>
<text text-anchor="middle" x="2365.7437" y="-61.5" font-family="Helvetica,sans-Serif" font-size="10.00" fill="#000000">type.h</text>
</a>
</g>
</g>
<!-- Node1&#45;&gt;Node35 -->
<g id="edge42" class="edge">
<title>Node1&#45;&gt;Node35</title>
<path fill="none" stroke="#191970" d="M1223.1058,-119.3814C1381.226,-118.6143 2092.6008,-113.1057 2333.855,-73.8523"/>
<polygon fill="#191970" stroke="#191970" points="2334.6824,-77.262 2343.9568,-72.1398 2333.5124,-70.3605 2334.6824,-77.262"/>
</g>
<!-- Node27&#45;&gt;Node1 -->
<g id="edge28" class="edge">
<title>Node27&#45;&gt;Node1</title>
<path fill="none" stroke="#191970" d="M1789.5899,-73.5081C1788.6339,-73.6826 1787.6833,-73.8472 1786.7437,-74 1581.2123,-107.4288 1330.9992,-116.4748 1233.3767,-118.7694"/>
<polygon fill="#191970" stroke="#191970" points="1233.2419,-115.2714 1223.3227,-118.9942 1233.3985,-122.2697 1233.2419,-115.2714"/>
</g>
<!-- Node28&#45;&gt;Node1 -->
<g id="edge30" class="edge">
<title>Node28&#45;&gt;Node1</title>
<path fill="none" stroke="#191970" d="M1866.2311,-73.5296C1865.3964,-73.6978 1864.5656,-73.8552 1863.7437,-74 1742.1742,-95.4205 1360.6077,-112.8216 1233.3781,-117.9565"/>
<polygon fill="#191970" stroke="#191970" points="1233.1148,-114.4641 1223.2624,-118.3602 1233.3941,-121.4585 1233.1148,-114.4641"/>
</g>
<!-- Node29&#45;&gt;Node1 -->
<g id="edge32" class="edge">
<title>Node29&#45;&gt;Node1</title>
<path fill="none" stroke="#191970" d="M65.6273,-70.1701C73.2882,-71.661 81.3054,-73.1018 88.7437,-74 300.6951,-99.593 975.338,-114.9056 1150.1323,-118.6156"/>
<polygon fill="#191970" stroke="#191970" points="1150.139,-122.1164 1160.2107,-118.8284 1150.2869,-115.118 1150.139,-122.1164"/>
</g>
<!-- Node30 -->
<g id="node31" class="node">
<title>Node30</title>
<g id="a_node31"><a xlink:href="str_8h.html" target="_top" xlink:title="str.h">
<polygon fill="#ffffff" stroke="#000000" points="46.293,-.5 46.293,-18.5 81.1943,-18.5 81.1943,-.5 46.293,-.5"/>
<text text-anchor="middle" x="63.7437" y="-6.5" font-family="Helvetica,sans-Serif" font-size="10.00" fill="#000000">str.h</text>
</a>
</g>
</g>
<!-- Node29&#45;&gt;Node30 -->
<g id="edge33" class="edge">
<title>Node29&#45;&gt;Node30</title>
<path fill="none" stroke="#191970" d="M37.8627,-55.4179C42.1001,-47.8998 48.2533,-36.9829 53.4968,-27.6799"/>
<polygon fill="#191970" stroke="#191970" points="56.6523,-29.2096 58.5134,-18.7795 50.5542,-25.7724 56.6523,-29.2096"/>
</g>
<!-- Node30&#45;&gt;Node1 -->
<g id="edge34" class="edge">
<title>Node30&#45;&gt;Node1</title>
<path fill="none" stroke="#191970" d="M67.5314,-18.6125C74.1997,-33.3247 89.5625,-61.8835 112.7437,-74 159.4742,-98.4255 957.4611,-115.0615 1150.1279,-118.7339"/>
<polygon fill="#191970" stroke="#191970" points="1150.0747,-122.2334 1160.1392,-118.9234 1150.2073,-115.2346 1150.0747,-122.2334"/>
</g>
<!-- Node32&#45;&gt;Node2 -->
<g id="edge38" class="edge">
<title>Node32&#45;&gt;Node2</title>
<path fill="none" stroke="#191970" d="M2200.8719,-55.4179C2204.2532,-47.9789 2209.1471,-37.2123 2213.3463,-27.9742"/>
<polygon fill="#191970" stroke="#191970" points="2216.5739,-29.3315 2217.5257,-18.7795 2210.2013,-26.4348 2216.5739,-29.3315"/>
</g>
<!-- Node32&#45;&gt;Node5 -->
<g id="edge37" class="edge">
<title>Node32&#45;&gt;Node5</title>
<path fill="none" stroke="#191970" d="M2174.55,-57C2171.6146,-56.2146 2168.6249,-55.5162 2165.7437,-55 2017.0212,-28.3566 1542.6904,-14.0404 1407.2023,-10.4245"/>
<polygon fill="#191970" stroke="#191970" points="1407.0423,-6.9191 1396.9535,-10.1542 1406.8577,-13.9167 1407.0423,-6.9191"/>
</g>
<!-- Node32&#45;&gt;Node15 -->
<g id="edge39" class="edge">
<title>Node32&#45;&gt;Node15</title>
<path fill="none" stroke="#191970" d="M2178.084,-55.4179C2160.0094,-46.6205 2132.3729,-33.1691 2111.6764,-23.0956"/>
<polygon fill="#191970" stroke="#191970" points="2112.9543,-19.825 2102.431,-18.5956 2109.8908,-26.1191 2112.9543,-19.825"/>
</g>
<!-- Node36&#45;&gt;Node1 -->
<g id="edge44" class="edge">
<title>Node36&#45;&gt;Node1</title>
<path fill="none" stroke="#191970" d="M1258.6658,-220.4082C1250.8688,-211.4441 1238.9271,-197.2078 1229.7437,-184 1219.2196,-168.864 1208.6917,-150.6994 1201.3952,-137.5092"/>
<polygon fill="#191970" stroke="#191970" points="1204.3575,-135.6306 1196.499,-128.5247 1198.211,-138.9803 1204.3575,-135.6306"/>
</g>
<!-- Node37 -->
<g id="node38" class="node">
<title>Node37</title>
<g id="a_node38"><a xlink:href="src_2include_2context_8h.html" target="_top" xlink:title="context.h">
<polygon fill="#ffffff" stroke="#000000" points="1238.4531,-165.5 1238.4531,-183.5 1295.0342,-183.5 1295.0342,-165.5 1238.4531,-165.5"/>
<text text-anchor="middle" x="1266.7437" y="-171.5" font-family="Helvetica,sans-Serif" font-size="10.00" fill="#000000">context.h</text>
</a>
</g>
</g>
<!-- Node36&#45;&gt;Node37 -->
<g id="edge45" class="edge">
<title>Node36&#45;&gt;Node37</title>
<path fill="none" stroke="#191970" d="M1266.7437,-220.4179C1266.7437,-213.2164 1266.7437,-202.8962 1266.7437,-193.8632"/>
<polygon fill="#191970" stroke="#191970" points="1270.2438,-193.7794 1266.7437,-183.7795 1263.2438,-193.7795 1270.2438,-193.7794"/>
</g>
<!-- Node38 -->
<g id="node39" class="node">
<title>Node38</title>
<g id="a_node39"><a xlink:href="events_2include_2event__id_8h.html" target="_top" xlink:title="event_id.h">
<polygon fill="#ffffff" stroke="#000000" points="1312.6699,-165.5 1312.6699,-183.5 1374.8174,-183.5 1374.8174,-165.5 1312.6699,-165.5"/>
<text text-anchor="middle" x="1343.7437" y="-171.5" font-family="Helvetica,sans-Serif" font-size="10.00" fill="#000000">event_id.h</text>
</a>
</g>
</g>
<!-- Node36&#45;&gt;Node38 -->
<g id="edge47" class="edge">
<title>Node36&#45;&gt;Node38</title>
<path fill="none" stroke="#191970" d="M1279.4586,-220.4179C1291.1619,-212.0584 1308.7484,-199.4966 1322.5702,-189.6239"/>
<polygon fill="#191970" stroke="#191970" points="1324.9068,-192.2561 1331.0098,-183.5956 1320.8381,-186.56 1324.9068,-192.2561"/>
</g>
<!-- Node39 -->
<g id="node40" class="node">
<title>Node39</title>
<g id="a_node40"><a xlink:href="events_2include_2event__list_8h.html" target="_top" xlink:title="event_list.h">
<polygon fill="#ffffff" stroke="#000000" points="2096.4507,-110.5 2096.4507,-128.5 2163.0366,-128.5 2163.0366,-110.5 2096.4507,-110.5"/>
<text text-anchor="middle" x="2129.7437" y="-116.5" font-family="Helvetica,sans-Serif" font-size="10.00" fill="#000000">event_list.h</text>
</a>
</g>
</g>
<!-- Node36&#45;&gt;Node39 -->
<g id="edge48" class="edge">
<title>Node36&#45;&gt;Node39</title>
<path fill="none" stroke="#191970" d="M1291.1814,-226.3851C1410.3696,-211.1931 1931.2149,-144.8049 2086.1301,-125.0591"/>
<polygon fill="#191970" stroke="#191970" points="2086.7425,-128.5094 2096.2197,-123.773 2085.8574,-121.5656 2086.7425,-128.5094"/>
</g>
<!-- Node37&#45;&gt;Node1 -->
<g id="edge46" class="edge">
<title>Node37&#45;&gt;Node1</title>
<path fill="none" stroke="#191970" d="M1254.3589,-165.4179C1242.9596,-157.0584 1225.83,-144.4966 1212.3672,-134.6239"/>
<polygon fill="#191970" stroke="#191970" points="1214.2806,-131.6869 1204.1468,-128.5956 1210.1411,-137.3317 1214.2806,-131.6869"/>
</g>
<!-- Node39&#45;&gt;Node35 -->
<g id="edge49" class="edge">
<title>Node39&#45;&gt;Node35</title>
<path fill="none" stroke="#191970" d="M2163.1462,-113.0774C2202.0793,-105.3831 2268.5328,-91.6068 2333.8146,-74.3626"/>
<polygon fill="#191970" stroke="#191970" points="2335.0975,-77.6426 2343.8551,-71.6798 2333.2905,-70.8799 2335.0975,-77.6426"/>
</g>
<!-- Node40&#45;&gt;Node1 -->
<g id="edge52" class="edge">
<title>Node40&#45;&gt;Node1</title>
<path fill="none" stroke="#191970" d="M1121.7543,-220.2371C1129.9661,-207.6395 1145.2183,-184.4451 1158.7437,-165 1165.209,-155.7049 1172.5929,-145.4885 1178.7344,-137.0956"/>
<polygon fill="#191970" stroke="#191970" points="1181.7049,-138.9639 1184.8087,-128.8339 1176.0652,-134.8173 1181.7049,-138.9639"/>
</g>
</g>
</svg>
