<?xml version="1.0" encoding="UTF-8" standalone="no"?>
<!DOCTYPE svg PUBLIC "-//W3C//DTD SVG 1.1//EN"
 "http://www.w3.org/Graphics/SVG/1.1/DTD/svg11.dtd">
<!-- Generated by graphviz version 2.40.1 (20161225.0304)
 -->
<!-- Title: components/cluster.c Pages: 1 -->
<svg width="1604pt" height="302pt"
 viewBox="0.00 0.00 1604.30 302.00" xmlns="http://www.w3.org/2000/svg" xmlns:xlink="http://www.w3.org/1999/xlink">
<g id="graph0" class="graph" transform="scale(1 1) rotate(0) translate(4 298)">
<title>components/cluster.c</title>
<polygon fill="#ffffff" stroke="transparent" points="-4,4 -4,-298 1600.2979,-298 1600.2979,4 -4,4"/>
<!-- Node0 -->
<g id="node1" class="node">
<title>Node0</title>
<polygon fill="#bfbfbf" stroke="#000000" points="696.707,-275.5 696.707,-293.5 806.6475,-293.5 806.6475,-275.5 696.707,-275.5"/>
<text text-anchor="middle" x="751.6772" y="-281.5" font-family="Helvetica,sans-Serif" font-size="10.00" fill="#000000">components/cluster.c</text>
</g>
<!-- Node1 -->
<g id="node2" class="node">
<title>Node1</title>
<g id="a_node2"><a xlink:href="cluster_8h.html" target="_top" xlink:title="cluster.h">
<polygon fill="#ffffff" stroke="#000000" points="725.0542,-220.5 725.0542,-238.5 778.3003,-238.5 778.3003,-220.5 725.0542,-220.5"/>
<text text-anchor="middle" x="751.6772" y="-226.5" font-family="Helvetica,sans-Serif" font-size="10.00" fill="#000000">cluster.h</text>
</a>
</g>
</g>
<!-- Node0&#45;&gt;Node1 -->
<g id="edge1" class="edge">
<title>Node0&#45;&gt;Node1</title>
<path fill="none" stroke="#191970" d="M751.6772,-275.4179C751.6772,-268.2164 751.6772,-257.8962 751.6772,-248.8632"/>
<polygon fill="#191970" stroke="#191970" points="755.1773,-248.7794 751.6772,-238.7795 748.1773,-248.7795 755.1773,-248.7794"/>
</g>
<!-- Node2 -->
<g id="node3" class="node">
<title>Node2</title>
<g id="a_node3"><a xlink:href="src_2include_2common_8h.html" target="_top" xlink:title="common.h">
<polygon fill="#ffffff" stroke="#000000" points="768.335,-55.5 768.335,-73.5 831.0195,-73.5 831.0195,-55.5 768.335,-55.5"/>
<text text-anchor="middle" x="799.6772" y="-61.5" font-family="Helvetica,sans-Serif" font-size="10.00" fill="#000000">common.h</text>
</a>
</g>
</g>
<!-- Node1&#45;&gt;Node2 -->
<g id="edge2" class="edge">
<title>Node1&#45;&gt;Node2</title>
<path fill="none" stroke="#191970" d="M754.3955,-220.1561C762.0189,-193.9504 783.7192,-119.3557 794.0621,-83.8021"/>
<polygon fill="#191970" stroke="#191970" points="797.5562,-84.321 796.9888,-73.7414 790.8348,-82.3657 797.5562,-84.321"/>
</g>
<!-- Node21 -->
<g id="node22" class="node">
<title>Node21</title>
<g id="a_node22"><a xlink:href="mac2int_8h.html" target="_top" xlink:title="mac2int.h">
<polygon fill="#ffffff" stroke="#000000" points="0,-.5 0,-18.5 59.3545,-18.5 59.3545,-.5 0,-.5"/>
<text text-anchor="middle" x="29.6772" y="-6.5" font-family="Helvetica,sans-Serif" font-size="10.00" fill="#000000">mac2int.h</text>
</a>
</g>
</g>
<!-- Node1&#45;&gt;Node21 -->
<g id="edge36" class="edge">
<title>Node1&#45;&gt;Node21</title>
<path fill="none" stroke="#191970" d="M724.6917,-221.2773C614.6618,-187.7501 199.5929,-61.2748 69.1571,-21.5299"/>
<polygon fill="#191970" stroke="#191970" points="70.1387,-18.1702 59.5527,-18.6033 68.0983,-24.8662 70.1387,-18.1702"/>
</g>
<!-- Node25 -->
<g id="node26" class="node">
<title>Node25</title>
<g id="a_node26"><a xlink:href="events_2include_2event_8h.html" target="_top" xlink:title="event.h">
<polygon fill="#ffffff" stroke="#000000" points="850.2759,-165.5 850.2759,-183.5 899.0786,-183.5 899.0786,-165.5 850.2759,-165.5"/>
<text text-anchor="middle" x="874.6772" y="-171.5" font-family="Helvetica,sans-Serif" font-size="10.00" fill="#000000">event.h</text>
</a>
</g>
</g>
<!-- Node1&#45;&gt;Node25 -->
<g id="edge27" class="edge">
<title>Node1&#45;&gt;Node25</title>
<path fill="none" stroke="#191970" d="M771.9882,-220.4179C791.9294,-211.5011 822.5632,-197.803 845.1857,-187.6873"/>
<polygon fill="#191970" stroke="#191970" points="846.6359,-190.8728 854.3361,-183.5956 843.7785,-184.4826 846.6359,-190.8728"/>
</g>
<!-- Node29 -->
<g id="node30" class="node">
<title>Node29</title>
<g id="a_node30"><a xlink:href="base64_8h.html" target="_top" xlink:title="base64.h">
<polygon fill="#ffffff" stroke="#000000" points="695.1035,-165.5 695.1035,-183.5 752.251,-183.5 752.251,-165.5 695.1035,-165.5"/>
<text text-anchor="middle" x="723.6772" y="-171.5" font-family="Helvetica,sans-Serif" font-size="10.00" fill="#000000">base64.h</text>
</a>
</g>
</g>
<!-- Node1&#45;&gt;Node29 -->
<g id="edge34" class="edge">
<title>Node1&#45;&gt;Node29</title>
<path fill="none" stroke="#191970" d="M747.0536,-220.4179C743.2665,-212.9789 737.7853,-202.2123 733.0823,-192.9742"/>
<polygon fill="#191970" stroke="#191970" points="736.0573,-191.1032 728.4013,-183.7795 729.8191,-194.279 736.0573,-191.1032"/>
</g>
<!-- Node3 -->
<g id="node4" class="node">
<title>Node3</title>
<polygon fill="#ffffff" stroke="#bfbfbf" points="1420.9458,-.5 1420.9458,-18.5 1466.4087,-18.5 1466.4087,-.5 1420.9458,-.5"/>
<text text-anchor="middle" x="1443.6772" y="-6.5" font-family="Helvetica,sans-Serif" font-size="10.00" fill="#000000">stdio.h</text>
</g>
<!-- Node2&#45;&gt;Node3 -->
<g id="edge3" class="edge">
<title>Node2&#45;&gt;Node3</title>
<path fill="none" stroke="#191970" d="M831.2232,-63.0908C937.1769,-58.2161 1280.505,-41.2361 1410.6977,-18.9567"/>
<polygon fill="#191970" stroke="#191970" points="1411.5772,-22.3547 1420.7971,-17.1352 1410.3346,-15.4658 1411.5772,-22.3547"/>
</g>
<!-- Node4 -->
<g id="node5" class="node">
<title>Node4</title>
<polygon fill="#ffffff" stroke="#bfbfbf" points="1484.165,-.5 1484.165,-18.5 1535.1895,-18.5 1535.1895,-.5 1484.165,-.5"/>
<text text-anchor="middle" x="1509.6772" y="-6.5" font-family="Helvetica,sans-Serif" font-size="10.00" fill="#000000">unistd.h</text>
</g>
<!-- Node2&#45;&gt;Node4 -->
<g id="edge4" class="edge">
<title>Node2&#45;&gt;Node4</title>
<path fill="none" stroke="#191970" d="M831.1874,-63.2389C944.3183,-58.5807 1330.4713,-41.5213 1473.9123,-18.9513"/>
<polygon fill="#191970" stroke="#191970" points="1474.5171,-22.3989 1483.8135,-17.3168 1473.3769,-15.4924 1474.5171,-22.3989"/>
</g>
<!-- Node5 -->
<g id="node6" class="node">
<title>Node5</title>
<polygon fill="#ffffff" stroke="#bfbfbf" points="77.835,-.5 77.835,-18.5 125.5195,-18.5 125.5195,-.5 77.835,-.5"/>
<text text-anchor="middle" x="101.6772" y="-6.5" font-family="Helvetica,sans-Serif" font-size="10.00" fill="#000000">stdlib.h</text>
</g>
<!-- Node2&#45;&gt;Node5 -->
<g id="edge5" class="edge">
<title>Node2&#45;&gt;Node5</title>
<path fill="none" stroke="#191970" d="M768.2814,-63.236C656.5823,-58.6048 278.0165,-41.7276 135.9063,-18.7839"/>
<polygon fill="#191970" stroke="#191970" points="136.1342,-15.2726 125.6895,-17.0501 134.963,-22.174 136.1342,-15.2726"/>
</g>
<!-- Node6 -->
<g id="node7" class="node">
<title>Node6</title>
<polygon fill="#ffffff" stroke="#bfbfbf" points="143.2808,-.5 143.2808,-18.5 192.0737,-18.5 192.0737,-.5 143.2808,-.5"/>
<text text-anchor="middle" x="167.6772" y="-6.5" font-family="Helvetica,sans-Serif" font-size="10.00" fill="#000000">string.h</text>
</g>
<!-- Node2&#45;&gt;Node6 -->
<g id="edge6" class="edge">
<title>Node2&#45;&gt;Node6</title>
<path fill="none" stroke="#191970" d="M768.1229,-62.9572C663.7716,-57.7249 329.6685,-39.9013 202.2994,-18.9208"/>
<polygon fill="#191970" stroke="#191970" points="202.8655,-15.4668 192.4149,-17.2095 201.6712,-22.3642 202.8655,-15.4668"/>
</g>
<!-- Node7 -->
<g id="node8" class="node">
<title>Node7</title>
<polygon fill="#ffffff" stroke="#bfbfbf" points="209.6108,-.5 209.6108,-18.5 261.7437,-18.5 261.7437,-.5 209.6108,-.5"/>
<text text-anchor="middle" x="235.6772" y="-6.5" font-family="Helvetica,sans-Serif" font-size="10.00" fill="#000000">stdarg.h</text>
</g>
<!-- Node2&#45;&gt;Node7 -->
<g id="edge7" class="edge">
<title>Node2&#45;&gt;Node7</title>
<path fill="none" stroke="#191970" d="M768.1185,-63.7549C687.1073,-61.4256 465.1853,-52.4152 271.9866,-18.9381"/>
<polygon fill="#191970" stroke="#191970" points="272.3913,-15.4556 261.9361,-17.1696 271.1782,-22.3497 272.3913,-15.4556"/>
</g>
<!-- Node8 -->
<g id="node9" class="node">
<title>Node8</title>
<polygon fill="#ffffff" stroke="#bfbfbf" points="279.5566,-.5 279.5566,-18.5 327.7979,-18.5 327.7979,-.5 279.5566,-.5"/>
<text text-anchor="middle" x="303.6772" y="-6.5" font-family="Helvetica,sans-Serif" font-size="10.00" fill="#000000">stdint.h</text>
</g>
<!-- Node2&#45;&gt;Node8 -->
<g id="edge8" class="edge">
<title>Node2&#45;&gt;Node8</title>
<path fill="none" stroke="#191970" d="M768.2347,-63.3865C694.5062,-60.3561 504.7269,-50.122 338.0006,-18.9459"/>
<polygon fill="#191970" stroke="#191970" points="338.5431,-15.4865 328.0654,-17.0578 337.2361,-22.3634 338.5431,-15.4865"/>
</g>
<!-- Node9 -->
<g id="node10" class="node">
<title>Node9</title>
<polygon fill="#ffffff" stroke="#bfbfbf" points="345.5493,-.5 345.5493,-18.5 403.8052,-18.5 403.8052,-.5 345.5493,-.5"/>
<text text-anchor="middle" x="374.6772" y="-6.5" font-family="Helvetica,sans-Serif" font-size="10.00" fill="#000000">pthread.h</text>
</g>
<!-- Node2&#45;&gt;Node9 -->
<g id="edge9" class="edge">
<title>Node2&#45;&gt;Node9</title>
<path fill="none" stroke="#191970" d="M768.1221,-62.1669C703.4267,-57.0889 550.973,-43.6126 413.8963,-19.0282"/>
<polygon fill="#191970" stroke="#191970" points="414.5195,-15.5843 404.0547,-17.2389 413.2673,-22.4713 414.5195,-15.5843"/>
</g>
<!-- Node10 -->
<g id="node11" class="node">
<title>Node10</title>
<polygon fill="#ffffff" stroke="#bfbfbf" points="421.5566,-.5 421.5566,-18.5 469.7979,-18.5 469.7979,-.5 421.5566,-.5"/>
<text text-anchor="middle" x="445.6772" y="-6.5" font-family="Helvetica,sans-Serif" font-size="10.00" fill="#000000">ctype.h</text>
</g>
<!-- Node2&#45;&gt;Node10 -->
<g id="edge10" class="edge">
<title>Node2&#45;&gt;Node10</title>
<path fill="none" stroke="#191970" d="M767.9818,-61.4896C711.783,-55.8338 590.8907,-42.2381 480.092,-19.0633"/>
<polygon fill="#191970" stroke="#191970" points="480.5985,-15.5929 470.0895,-16.9388 479.1441,-22.4402 480.5985,-15.5929"/>
</g>
<!-- Node11 -->
<g id="node12" class="node">
<title>Node11</title>
<polygon fill="#ffffff" stroke="#bfbfbf" points="487.835,-.5 487.835,-18.5 535.5195,-18.5 535.5195,-.5 487.835,-.5"/>
<text text-anchor="middle" x="511.6772" y="-6.5" font-family="Helvetica,sans-Serif" font-size="10.00" fill="#000000">errno.h</text>
</g>
<!-- Node2&#45;&gt;Node11 -->
<g id="edge11" class="edge">
<title>Node2&#45;&gt;Node11</title>
<path fill="none" stroke="#191970" d="M768.3129,-60.0908C721.6149,-53.2742 630.905,-39.0672 545.5534,-19.2657"/>
<polygon fill="#191970" stroke="#191970" points="546.2476,-15.8335 535.7119,-16.9514 544.6452,-22.6476 546.2476,-15.8335"/>
</g>
<!-- Node12 -->
<g id="node13" class="node">
<title>Node12</title>
<polygon fill="#ffffff" stroke="#bfbfbf" points="553.0493,-.5 553.0493,-18.5 616.3052,-18.5 616.3052,-.5 553.0493,-.5"/>
<text text-anchor="middle" x="584.6772" y="-6.5" font-family="Helvetica,sans-Serif" font-size="10.00" fill="#000000">arpa/inet.h</text>
</g>
<!-- Node2&#45;&gt;Node12 -->
<g id="edge12" class="edge">
<title>Node2&#45;&gt;Node12</title>
<path fill="none" stroke="#191970" d="M767.9533,-56.3846C730.4003,-46.778 667.746,-30.7501 626.3196,-20.1527"/>
<polygon fill="#191970" stroke="#191970" points="627.0869,-16.7363 616.5314,-17.6487 625.352,-23.518 627.0869,-16.7363"/>
</g>
<!-- Node13 -->
<g id="node14" class="node">
<title>Node13</title>
<polygon fill="#ffffff" stroke="#bfbfbf" points="634.2144,-.5 634.2144,-18.5 699.1401,-18.5 699.1401,-.5 634.2144,-.5"/>
<text text-anchor="middle" x="666.6772" y="-6.5" font-family="Helvetica,sans-Serif" font-size="10.00" fill="#000000">netinet/in.h</text>
</g>
<!-- Node2&#45;&gt;Node13 -->
<g id="edge13" class="edge">
<title>Node2&#45;&gt;Node13</title>
<path fill="none" stroke="#191970" d="M777.715,-55.4179C755.9601,-46.4215 722.4358,-32.5581 697.9133,-22.4172"/>
<polygon fill="#191970" stroke="#191970" points="699.2507,-19.1828 688.6721,-18.5956 696.5756,-25.6515 699.2507,-19.1828"/>
</g>
<!-- Node14 -->
<g id="node15" class="node">
<title>Node14</title>
<polygon fill="#ffffff" stroke="#bfbfbf" points="716.8203,-.5 716.8203,-18.5 794.5342,-18.5 794.5342,-.5 716.8203,-.5"/>
<text text-anchor="middle" x="755.6772" y="-6.5" font-family="Helvetica,sans-Serif" font-size="10.00" fill="#000000">net/ethernet.h</text>
</g>
<!-- Node2&#45;&gt;Node14 -->
<g id="edge14" class="edge">
<title>Node2&#45;&gt;Node14</title>
<path fill="none" stroke="#191970" d="M792.4115,-55.4179C786.2072,-47.6624 777.1092,-36.29 769.52,-26.8035"/>
<polygon fill="#191970" stroke="#191970" points="772.0808,-24.4017 763.1008,-18.7795 766.6147,-28.7746 772.0808,-24.4017"/>
</g>
<!-- Node15 -->
<g id="node16" class="node">
<title>Node15</title>
<polygon fill="#ffffff" stroke="#bfbfbf" points="812.2144,-.5 812.2144,-18.5 877.1401,-18.5 877.1401,-.5 812.2144,-.5"/>
<text text-anchor="middle" x="844.6772" y="-6.5" font-family="Helvetica,sans-Serif" font-size="10.00" fill="#000000">netinet/ip.h</text>
</g>
<!-- Node2&#45;&gt;Node15 -->
<g id="edge15" class="edge">
<title>Node2&#45;&gt;Node15</title>
<path fill="none" stroke="#191970" d="M807.1081,-55.4179C813.4535,-47.6624 822.7582,-36.29 830.5198,-26.8035"/>
<polygon fill="#191970" stroke="#191970" points="833.4614,-28.7354 837.085,-18.7795 828.0437,-24.3027 833.4614,-28.7354"/>
</g>
<!-- Node16 -->
<g id="node17" class="node">
<title>Node16</title>
<polygon fill="#ffffff" stroke="#bfbfbf" points="895.436,-.5 895.436,-18.5 965.9185,-18.5 965.9185,-.5 895.436,-.5"/>
<text text-anchor="middle" x="930.6772" y="-6.5" font-family="Helvetica,sans-Serif" font-size="10.00" fill="#000000">netinet/tcp.h</text>
</g>
<!-- Node2&#45;&gt;Node16 -->
<g id="edge16" class="edge">
<title>Node2&#45;&gt;Node16</title>
<path fill="none" stroke="#191970" d="M821.3092,-55.4179C842.6422,-46.4613 875.4652,-32.6806 899.5898,-22.552"/>
<polygon fill="#191970" stroke="#191970" points="901.1477,-25.6939 909.0131,-18.5956 898.4379,-19.2397 901.1477,-25.6939"/>
</g>
<!-- Node17 -->
<g id="node18" class="node">
<title>Node17</title>
<polygon fill="#ffffff" stroke="#bfbfbf" points="983.877,-.5 983.877,-18.5 1075.4775,-18.5 1075.4775,-.5 983.877,-.5"/>
<text text-anchor="middle" x="1029.6772" y="-6.5" font-family="Helvetica,sans-Serif" font-size="10.00" fill="#000000">netinet/ip_icmp.h</text>
</g>
<!-- Node2&#45;&gt;Node17 -->
<g id="edge17" class="edge">
<title>Node2&#45;&gt;Node17</title>
<path fill="none" stroke="#191970" d="M831.1755,-56.9678C870.0644,-47.6683 936.5938,-31.7591 981.8125,-20.9459"/>
<polygon fill="#191970" stroke="#191970" points="982.7736,-24.3149 991.6853,-18.585 981.1455,-17.5068 982.7736,-24.3149"/>
</g>
<!-- Node18 -->
<g id="node19" class="node">
<title>Node18</title>
<polygon fill="#ffffff" stroke="#bfbfbf" points="1093.2734,-.5 1093.2734,-18.5 1152.0811,-18.5 1152.0811,-.5 1093.2734,-.5"/>
<text text-anchor="middle" x="1122.6772" y="-6.5" font-family="Helvetica,sans-Serif" font-size="10.00" fill="#000000">jansson.h</text>
</g>
<!-- Node2&#45;&gt;Node18 -->
<g id="edge18" class="edge">
<title>Node2&#45;&gt;Node18</title>
<path fill="none" stroke="#191970" d="M831.045,-60.3986C881.9584,-53.5459 985.92,-38.742 1082.8978,-19.239"/>
<polygon fill="#191970" stroke="#191970" points="1083.7601,-22.6354 1092.8623,-17.2132 1082.3654,-15.7757 1083.7601,-22.6354"/>
</g>
<!-- Node19 -->
<g id="node20" class="node">
<title>Node19</title>
<polygon fill="#ffffff" stroke="#bfbfbf" points="1169.7832,-.5 1169.7832,-18.5 1213.5713,-18.5 1213.5713,-.5 1169.7832,-.5"/>
<text text-anchor="middle" x="1191.6772" y="-6.5" font-family="Helvetica,sans-Serif" font-size="10.00" fill="#000000">libcli.h</text>
</g>
<!-- Node2&#45;&gt;Node19 -->
<g id="edge19" class="edge">
<title>Node2&#45;&gt;Node19</title>
<path fill="none" stroke="#191970" d="M831.3707,-62.3469C892.9687,-57.769 1033.1877,-45.4255 1159.5969,-18.9144"/>
<polygon fill="#191970" stroke="#191970" points="1160.397,-22.3226 1169.4469,-16.8134 1158.9367,-15.4766 1160.397,-22.3226"/>
</g>
<!-- Node20 -->
<g id="node21" class="node">
<title>Node20</title>
<polygon fill="#ffffff" stroke="#bfbfbf" points="1232.0615,-.5 1232.0615,-18.5 1275.293,-18.5 1275.293,-.5 1232.0615,-.5"/>
<text text-anchor="middle" x="1253.6772" y="-6.5" font-family="Helvetica,sans-Serif" font-size="10.00" fill="#000000">zmq.h</text>
</g>
<!-- Node2&#45;&gt;Node20 -->
<g id="edge20" class="edge">
<title>Node2&#45;&gt;Node20</title>
<path fill="none" stroke="#191970" d="M831.036,-63.1679C900.1127,-59.8 1070.6113,-49.1107 1221.8618,-18.795"/>
<polygon fill="#191970" stroke="#191970" points="1222.6961,-22.197 1231.7952,-16.7697 1221.2976,-15.3381 1222.6961,-22.197"/>
</g>
<!-- Node2&#45;&gt;Node21 -->
<g id="edge21" class="edge">
<title>Node2&#45;&gt;Node21</title>
<path fill="none" stroke="#191970" d="M768.2592,-63.4101C648.2178,-58.9012 218.9556,-40.9758 66.798,-19.9777"/>
<polygon fill="#191970" stroke="#191970" points="67.1536,-16.4928 56.7556,-18.5256 66.1518,-23.4208 67.1536,-16.4928"/>
</g>
<!-- Node22 -->
<g id="node23" class="node">
<title>Node22</title>
<g id="a_node23"><a xlink:href="ip2int_8h.html" target="_top" xlink:title="ip2int.h">
<polygon fill="#ffffff" stroke="#000000" points="1293.5542,-.5 1293.5542,-18.5 1341.8003,-18.5 1341.8003,-.5 1293.5542,-.5"/>
<text text-anchor="middle" x="1317.6772" y="-6.5" font-family="Helvetica,sans-Serif" font-size="10.00" fill="#000000">ip2int.h</text>
</a>
</g>
</g>
<!-- Node2&#45;&gt;Node22 -->
<g id="edge23" class="edge">
<title>Node2&#45;&gt;Node22</title>
<path fill="none" stroke="#191970" d="M831.1562,-63.4111C907.9584,-60.472 1109.8968,-50.3537 1275.6772,-19 1278.2786,-18.508 1280.9704,-17.9009 1283.6899,-17.2333"/>
<polygon fill="#191970" stroke="#191970" points="1284.7626,-20.5704 1293.548,-14.6486 1282.9872,-13.7993 1284.7626,-20.5704"/>
</g>
<!-- Node23 -->
<g id="node24" class="node">
<title>Node23</title>
<g id="a_node24"><a xlink:href="src_2include_2type_8h.html" target="_top" xlink:title="type.h">
<polygon fill="#ffffff" stroke="#000000" points="1553.0566,-.5 1553.0566,-18.5 1596.2979,-18.5 1596.2979,-.5 1553.0566,-.5"/>
<text text-anchor="middle" x="1574.6772" y="-6.5" font-family="Helvetica,sans-Serif" font-size="10.00" fill="#000000">type.h</text>
</a>
</g>
</g>
<!-- Node2&#45;&gt;Node23 -->
<g id="edge25" class="edge">
<title>Node2&#45;&gt;Node23</title>
<path fill="none" stroke="#191970" d="M831.4179,-63.5996C952.4057,-60.0102 1385.3766,-45.6907 1542.9086,-18.8691"/>
<polygon fill="#191970" stroke="#191970" points="1543.6535,-22.2915 1552.8804,-17.0844 1542.4201,-15.401 1543.6535,-22.2915"/>
</g>
<!-- Node24 -->
<g id="node25" class="node">
<title>Node24</title>
<polygon fill="#ffffff" stroke="#bfbfbf" points="1360.0615,-.5 1360.0615,-18.5 1403.293,-18.5 1403.293,-.5 1360.0615,-.5"/>
<text text-anchor="middle" x="1381.6772" y="-6.5" font-family="Helvetica,sans-Serif" font-size="10.00" fill="#000000">time.h</text>
</g>
<!-- Node2&#45;&gt;Node24 -->
<g id="edge26" class="edge">
<title>Node2&#45;&gt;Node24</title>
<path fill="none" stroke="#191970" d="M831.1595,-62.793C929.6776,-57.3151 1232.0216,-39.437 1349.975,-18.6623"/>
<polygon fill="#191970" stroke="#191970" points="1350.6148,-22.1034 1359.8089,-16.8386 1349.3384,-15.2207 1350.6148,-22.1034"/>
</g>
<!-- Node21&#45;&gt;Node2 -->
<g id="edge22" class="edge">
<title>Node21&#45;&gt;Node2</title>
<path fill="none" stroke="#191970" d="M59.6801,-15.4138C65.7012,-16.7974 71.8897,-18.122 77.6772,-19 210.9427,-39.2161 624.832,-57.1539 758.0316,-62.7219"/>
<polygon fill="#191970" stroke="#191970" points="758.0874,-66.2272 768.2246,-63.1468 758.3791,-59.2332 758.0874,-66.2272"/>
</g>
<!-- Node22&#45;&gt;Node2 -->
<g id="edge24" class="edge">
<title>Node22&#45;&gt;Node2</title>
<path fill="none" stroke="#191970" d="M1296.1597,-18.5021C1295.3265,-18.6783 1294.4974,-18.8449 1293.6772,-19 1128.3522,-50.2676 927.0678,-60.4163 841.3432,-63.3867"/>
<polygon fill="#191970" stroke="#191970" points="841.1093,-59.8924 831.2308,-63.7219 841.3413,-66.8886 841.1093,-59.8924"/>
</g>
<!-- Node25&#45;&gt;Node2 -->
<g id="edge28" class="edge">
<title>Node25&#45;&gt;Node2</title>
<path fill="none" stroke="#191970" d="M866.5994,-165.4082C858.8024,-156.4441 846.8607,-142.2078 837.6772,-129 827.1532,-113.864 816.6253,-95.6994 809.3288,-82.5092"/>
<polygon fill="#191970" stroke="#191970" points="812.2911,-80.6306 804.4326,-73.5247 806.1446,-83.9803 812.2911,-80.6306"/>
</g>
<!-- Node26 -->
<g id="node27" class="node">
<title>Node26</title>
<g id="a_node27"><a xlink:href="src_2include_2context_8h.html" target="_top" xlink:title="context.h">
<polygon fill="#ffffff" stroke="#000000" points="846.3867,-110.5 846.3867,-128.5 902.9678,-128.5 902.9678,-110.5 846.3867,-110.5"/>
<text text-anchor="middle" x="874.6772" y="-116.5" font-family="Helvetica,sans-Serif" font-size="10.00" fill="#000000">context.h</text>
</a>
</g>
</g>
<!-- Node25&#45;&gt;Node26 -->
<g id="edge29" class="edge">
<title>Node25&#45;&gt;Node26</title>
<path fill="none" stroke="#191970" d="M874.6772,-165.4179C874.6772,-158.2164 874.6772,-147.8962 874.6772,-138.8632"/>
<polygon fill="#191970" stroke="#191970" points="878.1773,-138.7794 874.6772,-128.7795 871.1773,-138.7795 878.1773,-138.7794"/>
</g>
<!-- Node27 -->
<g id="node28" class="node">
<title>Node27</title>
<g id="a_node28"><a xlink:href="events_2include_2event__id_8h.html" target="_top" xlink:title="event_id.h">
<polygon fill="#ffffff" stroke="#000000" points="920.6035,-110.5 920.6035,-128.5 982.751,-128.5 982.751,-110.5 920.6035,-110.5"/>
<text text-anchor="middle" x="951.6772" y="-116.5" font-family="Helvetica,sans-Serif" font-size="10.00" fill="#000000">event_id.h</text>
</a>
</g>
</g>
<!-- Node25&#45;&gt;Node27 -->
<g id="edge31" class="edge">
<title>Node25&#45;&gt;Node27</title>
<path fill="none" stroke="#191970" d="M887.3922,-165.4179C899.0955,-157.0584 916.682,-144.4966 930.5038,-134.6239"/>
<polygon fill="#191970" stroke="#191970" points="932.8404,-137.2561 938.9434,-128.5956 928.7717,-131.56 932.8404,-137.2561"/>
</g>
<!-- Node28 -->
<g id="node29" class="node">
<title>Node28</title>
<g id="a_node29"><a xlink:href="events_2include_2event__list_8h.html" target="_top" xlink:title="event_list.h">
<polygon fill="#ffffff" stroke="#000000" points="1415.3843,-55.5 1415.3843,-73.5 1481.9702,-73.5 1481.9702,-55.5 1415.3843,-55.5"/>
<text text-anchor="middle" x="1448.6772" y="-61.5" font-family="Helvetica,sans-Serif" font-size="10.00" fill="#000000">event_list.h</text>
</a>
</g>
</g>
<!-- Node25&#45;&gt;Node28 -->
<g id="edge32" class="edge">
<title>Node25&#45;&gt;Node28</title>
<path fill="none" stroke="#191970" d="M899.3413,-169.7734C987.9869,-152.7856 1291.2015,-94.6783 1405.0303,-72.8644"/>
<polygon fill="#191970" stroke="#191970" points="1405.9625,-76.2495 1415.125,-70.9299 1404.6449,-69.3746 1405.9625,-76.2495"/>
</g>
<!-- Node26&#45;&gt;Node2 -->
<g id="edge30" class="edge">
<title>Node26&#45;&gt;Node2</title>
<path fill="none" stroke="#191970" d="M862.2925,-110.4179C850.8932,-102.0584 833.7636,-89.4966 820.3008,-79.6239"/>
<polygon fill="#191970" stroke="#191970" points="822.2142,-76.6869 812.0804,-73.5956 818.0747,-82.3317 822.2142,-76.6869"/>
</g>
<!-- Node28&#45;&gt;Node23 -->
<g id="edge33" class="edge">
<title>Node28&#45;&gt;Node23</title>
<path fill="none" stroke="#191970" d="M1469.4836,-55.4179C1489.9111,-46.5011 1521.2921,-32.803 1544.4664,-22.6873"/>
<polygon fill="#191970" stroke="#191970" points="1546.0753,-25.804 1553.84,-18.5956 1543.2749,-19.3885 1546.0753,-25.804"/>
</g>
<!-- Node29&#45;&gt;Node2 -->
<g id="edge35" class="edge">
<title>Node29&#45;&gt;Node2</title>
<path fill="none" stroke="#191970" d="M729.6879,-165.2371C737.8997,-152.6395 753.1518,-129.4451 766.6772,-110 773.1426,-100.7049 780.5265,-90.4885 786.668,-82.0956"/>
<polygon fill="#191970" stroke="#191970" points="789.6385,-83.9639 792.7423,-73.8339 783.9988,-79.8173 789.6385,-83.9639"/>
</g>
</g>
</svg>
