<?xml version="1.0" encoding="UTF-8" standalone="no"?>
<!DOCTYPE svg PUBLIC "-//W3C//DTD SVG 1.1//EN"
 "http://www.w3.org/Graphics/SVG/1.1/DTD/svg11.dtd">
<!-- Generated by graphviz version 2.40.1 (20161225.0304)
 -->
<!-- Title: ext_comps/topo_mgmt/src/include/component_info.h Pages: 1 -->
<svg width="338pt" height="167pt"
 viewBox="0.00 0.00 337.59 167.00" xmlns="http://www.w3.org/2000/svg" xmlns:xlink="http://www.w3.org/1999/xlink">
<g id="graph0" class="graph" transform="scale(1 1) rotate(0) translate(4 163)">
<title>ext_comps/topo_mgmt/src/include/component_info.h</title>
<polygon fill="#ffffff" stroke="transparent" points="-4,4 -4,-163 333.5908,-163 333.5908,4 -4,4"/>
<!-- Node1 -->
<g id="node1" class="node">
<title>Node1</title>
<polygon fill="#bfbfbf" stroke="#000000" points="72.2168,-120.5 72.2168,-158.5 191.0488,-158.5 191.0488,-120.5 72.2168,-120.5"/>
<text text-anchor="start" x="80.2168" y="-146.5" font-family="Helvetica,sans-Serif" font-size="10.00" fill="#000000">ext_comps/topo_mgmt</text>
<text text-anchor="start" x="80.2168" y="-136.5" font-family="Helvetica,sans-Serif" font-size="10.00" fill="#000000">/src/include/component</text>
<text text-anchor="middle" x="131.6328" y="-126.5" font-family="Helvetica,sans-Serif" font-size="10.00" fill="#000000">_info.h</text>
</g>
<!-- Node2 -->
<g id="node2" class="node">
<title>Node2</title>
<g id="a_node2"><a xlink:href="ext__comps_2shim_2event_8c.html" target="_top" xlink:title="ext_comps/shim/event.c">
<polygon fill="#ffffff" stroke="#000000" points="0,-60.5 0,-78.5 123.2656,-78.5 123.2656,-60.5 0,-60.5"/>
<text text-anchor="middle" x="61.6328" y="-66.5" font-family="Helvetica,sans-Serif" font-size="10.00" fill="#000000">ext_comps/shim/event.c</text>
</a>
</g>
</g>
<!-- Node1&#45;&gt;Node2 -->
<g id="edge1" class="edge">
<title>Node1&#45;&gt;Node2</title>
<path fill="none" stroke="#191970" d="M105.1891,-113.0563C93.0442,-100.9114 79.435,-87.3022 70.7123,-78.5795"/>
<polygon fill="#191970" stroke="#191970" points="102.959,-115.776 112.505,-120.3722 107.9088,-110.8262 102.959,-115.776"/>
</g>
<!-- Node3 -->
<g id="node3" class="node">
<title>Node3</title>
<g id="a_node3"><a xlink:href="ext__comps_2shim_2include_2shim_8h.html" target="_top" xlink:title="ext_comps/shim/include\l/shim.h">
<polygon fill="#ffffff" stroke="#000000" points="141.2759,-55.5 141.2759,-83.5 263.9897,-83.5 263.9897,-55.5 141.2759,-55.5"/>
<text text-anchor="start" x="149.2759" y="-71.5" font-family="Helvetica,sans-Serif" font-size="10.00" fill="#000000">ext_comps/shim/include</text>
<text text-anchor="middle" x="202.6328" y="-61.5" font-family="Helvetica,sans-Serif" font-size="10.00" fill="#000000">/shim.h</text>
</a>
</g>
</g>
<!-- Node1&#45;&gt;Node3 -->
<g id="edge2" class="edge">
<title>Node1&#45;&gt;Node3</title>
<path fill="none" stroke="#191970" d="M158.446,-113.0645C168.4646,-103.187 179.4666,-92.34 187.9861,-83.9404"/>
<polygon fill="#191970" stroke="#191970" points="155.6977,-110.859 151.0339,-120.3722 160.6122,-115.8438 155.6977,-110.859"/>
</g>
<!-- Node4 -->
<g id="node4" class="node">
<title>Node4</title>
<g id="a_node4"><a xlink:href="ext__apps_2shim_2shim_8c.html" target="_top" xlink:title="ext_apps/shim/shim.c">
<polygon fill="#ffffff" stroke="#000000" points="79.5591,-.5 79.5591,-18.5 191.7065,-18.5 191.7065,-.5 79.5591,-.5"/>
<text text-anchor="middle" x="135.6328" y="-6.5" font-family="Helvetica,sans-Serif" font-size="10.00" fill="#000000">ext_apps/shim/shim.c</text>
</a>
</g>
</g>
<!-- Node3&#45;&gt;Node4 -->
<g id="edge3" class="edge">
<title>Node3&#45;&gt;Node4</title>
<path fill="none" stroke="#191970" d="M179.1917,-48.508C167.7629,-38.2733 154.6125,-26.4967 145.7768,-18.5842"/>
<polygon fill="#191970" stroke="#191970" points="176.9703,-51.2169 186.7547,-55.2808 181.6401,-46.0023 176.9703,-51.2169"/>
</g>
<!-- Node5 -->
<g id="node5" class="node">
<title>Node5</title>
<g id="a_node5"><a xlink:href="ext__comps_2shim_2shim_8c.html" target="_top" xlink:title="ext_comps/shim/shim.c">
<polygon fill="#ffffff" stroke="#000000" points="209.6748,-.5 209.6748,-18.5 329.5908,-18.5 329.5908,-.5 209.6748,-.5"/>
<text text-anchor="middle" x="269.6328" y="-6.5" font-family="Helvetica,sans-Serif" font-size="10.00" fill="#000000">ext_comps/shim/shim.c</text>
</a>
</g>
</g>
<!-- Node3&#45;&gt;Node5 -->
<g id="edge4" class="edge">
<title>Node3&#45;&gt;Node5</title>
<path fill="none" stroke="#191970" d="M226.0739,-48.508C237.5027,-38.2733 250.6531,-26.4967 259.4888,-18.5842"/>
<polygon fill="#191970" stroke="#191970" points="223.6255,-46.0023 218.5109,-55.2808 228.2953,-51.2169 223.6255,-46.0023"/>
</g>
</g>
</svg>
