<?xml version="1.0" encoding="UTF-8" standalone="no"?>
<!DOCTYPE svg PUBLIC "-//W3C//DTD SVG 1.1//EN"
 "http://www.w3.org/Graphics/SVG/1.1/DTD/svg11.dtd">
<!-- Generated by graphviz version 2.40.1 (20161225.0304)
 -->
<!-- Title: components/conflict.c Pages: 1 -->
<svg width="152pt" height="82pt"
 viewBox="0.00 0.00 151.70 82.00" xmlns="http://www.w3.org/2000/svg" xmlns:xlink="http://www.w3.org/1999/xlink">
<g id="graph0" class="graph" transform="scale(1 1) rotate(0) translate(4 78)">
<title>components/conflict.c</title>
<polygon fill="#ffffff" stroke="transparent" points="-4,4 -4,-78 147.6968,-78 147.6968,4 -4,4"/>
<!-- Node0 -->
<g id="node1" class="node">
<title>Node0</title>
<polygon fill="#bfbfbf" stroke="#000000" points="11.6528,-55.5 11.6528,-73.5 123.8101,-73.5 123.8101,-55.5 11.6528,-55.5"/>
<text text-anchor="middle" x="67.7314" y="-61.5" font-family="Helvetica,sans-Serif" font-size="10.00" fill="#000000">components/conflict.c</text>
</g>
<!-- Node1 -->
<g id="node2" class="node">
<title>Node1</title>
<polygon fill="#ffffff" stroke="#bfbfbf" points="0,-.5 0,-18.5 55.4629,-18.5 55.4629,-.5 0,-.5"/>
<text text-anchor="middle" x="27.7314" y="-6.5" font-family="Helvetica,sans-Serif" font-size="10.00" fill="#000000">conflict.h</text>
</g>
<!-- Node0&#45;&gt;Node1 -->
<g id="edge1" class="edge">
<title>Node0&#45;&gt;Node1</title>
<path fill="none" stroke="#191970" d="M61.1263,-55.4179C55.5435,-47.7415 47.3836,-36.5217 40.5274,-27.0945"/>
<polygon fill="#191970" stroke="#191970" points="43.1925,-24.8082 34.4801,-18.7795 37.5313,-28.9255 43.1925,-24.8082"/>
</g>
<!-- Node2 -->
<g id="node3" class="node">
<title>Node2</title>
<polygon fill="#ffffff" stroke="#bfbfbf" points="73.7661,-.5 73.7661,-18.5 143.6968,-18.5 143.6968,-.5 73.7661,-.5"/>
<text text-anchor="middle" x="108.7314" y="-6.5" font-family="Helvetica,sans-Serif" font-size="10.00" fill="#000000">arr_queue.h</text>
</g>
<!-- Node0&#45;&gt;Node2 -->
<g id="edge2" class="edge">
<title>Node0&#45;&gt;Node2</title>
<path fill="none" stroke="#191970" d="M74.5018,-55.4179C80.2831,-47.6624 88.7607,-36.29 95.8325,-26.8035"/>
<polygon fill="#191970" stroke="#191970" points="98.6435,-28.8888 101.814,-18.7795 93.0312,-24.7051 98.6435,-28.8888"/>
</g>
</g>
</svg>
