<?xml version="1.0" encoding="UTF-8" standalone="no"?>
<!DOCTYPE svg PUBLIC "-//W3C//DTD SVG 1.1//EN"
 "http://www.w3.org/Graphics/SVG/1.1/DTD/svg11.dtd">
<!-- Generated by graphviz version 2.40.1 (20161225.0304)
 -->
<!-- Title: src/component.c Pages: 1 -->
<svg width="1459pt" height="247pt"
 viewBox="0.00 0.00 1459.35 247.00" xmlns="http://www.w3.org/2000/svg" xmlns:xlink="http://www.w3.org/1999/xlink">
<g id="graph0" class="graph" transform="scale(1 1) rotate(0) translate(4 243)">
<title>src/component.c</title>
<polygon fill="#ffffff" stroke="transparent" points="-4,4 -4,-243 1455.3521,-243 1455.3521,4 -4,4"/>
<!-- Node0 -->
<g id="node1" class="node">
<title>Node0</title>
<polygon fill="#bfbfbf" stroke="#000000" points="816.0493,-220.5 816.0493,-238.5 905.4136,-238.5 905.4136,-220.5 816.0493,-220.5"/>
<text text-anchor="middle" x="860.7314" y="-226.5" font-family="Helvetica,sans-Serif" font-size="10.00" fill="#000000">src/component.c</text>
</g>
<!-- Node1 -->
<g id="node2" class="node">
<title>Node1</title>
<g id="a_node2"><a xlink:href="src_2include_2component_8h.html" target="_top" xlink:title="component.h">
<polygon fill="#ffffff" stroke="#000000" points="678.8228,-165.5 678.8228,-183.5 752.6401,-183.5 752.6401,-165.5 678.8228,-165.5"/>
<text text-anchor="middle" x="715.7314" y="-171.5" font-family="Helvetica,sans-Serif" font-size="10.00" fill="#000000">component.h</text>
</a>
</g>
</g>
<!-- Node0&#45;&gt;Node1 -->
<g id="edge1" class="edge">
<title>Node0&#45;&gt;Node1</title>
<path fill="none" stroke="#191970" d="M836.7876,-220.4179C812.86,-211.3419 775.873,-197.3123 749.0783,-187.1488"/>
<polygon fill="#191970" stroke="#191970" points="750.3021,-183.8697 739.7108,-183.5956 747.8195,-190.4147 750.3021,-183.8697"/>
</g>
<!-- Node26 -->
<g id="node27" class="node">
<title>Node26</title>
<polygon fill="#ffffff" stroke="#bfbfbf" points="770.9312,-165.5 770.9312,-183.5 862.5317,-183.5 862.5317,-165.5 770.9312,-165.5"/>
<text text-anchor="middle" x="816.7314" y="-171.5" font-family="Helvetica,sans-Serif" font-size="10.00" fill="#000000">component_list.h</text>
</g>
<!-- Node0&#45;&gt;Node26 -->
<g id="edge29" class="edge">
<title>Node0&#45;&gt;Node26</title>
<path fill="none" stroke="#191970" d="M853.4657,-220.4179C847.2614,-212.6624 838.1634,-201.29 830.5742,-191.8035"/>
<polygon fill="#191970" stroke="#191970" points="833.135,-189.4017 824.155,-183.7795 827.6689,-193.7746 833.135,-189.4017"/>
</g>
<!-- Node27 -->
<g id="node28" class="node">
<title>Node27</title>
<g id="a_node28"><a xlink:href="events_2include_2event_8h.html" target="_top" xlink:title="event.h">
<polygon fill="#ffffff" stroke="#000000" points="880.3301,-165.5 880.3301,-183.5 929.1328,-183.5 929.1328,-165.5 880.3301,-165.5"/>
<text text-anchor="middle" x="904.7314" y="-171.5" font-family="Helvetica,sans-Serif" font-size="10.00" fill="#000000">event.h</text>
</a>
</g>
</g>
<!-- Node0&#45;&gt;Node27 -->
<g id="edge30" class="edge">
<title>Node0&#45;&gt;Node27</title>
<path fill="none" stroke="#191970" d="M867.9972,-220.4179C874.2015,-212.6624 883.2994,-201.29 890.8886,-191.8035"/>
<polygon fill="#191970" stroke="#191970" points="893.7939,-193.7746 897.3079,-183.7795 888.3278,-189.4017 893.7939,-193.7746"/>
</g>
<!-- Node30 -->
<g id="node31" class="node">
<title>Node30</title>
<g id="a_node31"><a xlink:href="events_2include_2event__string_8h.html" target="_top" xlink:title="event_string.h">
<polygon fill="#ffffff" stroke="#000000" points="947.3228,-165.5 947.3228,-183.5 1026.1401,-183.5 1026.1401,-165.5 947.3228,-165.5"/>
<text text-anchor="middle" x="986.7314" y="-171.5" font-family="Helvetica,sans-Serif" font-size="10.00" fill="#000000">event_string.h</text>
</a>
</g>
</g>
<!-- Node0&#45;&gt;Node30 -->
<g id="edge36" class="edge">
<title>Node0&#45;&gt;Node30</title>
<path fill="none" stroke="#191970" d="M881.5378,-220.4179C901.9653,-211.5011 933.3463,-197.803 956.5206,-187.6873"/>
<polygon fill="#191970" stroke="#191970" points="958.1295,-190.804 965.8942,-183.5956 955.3291,-184.3885 958.1295,-190.804"/>
</g>
<!-- Node2 -->
<g id="node3" class="node">
<title>Node2</title>
<g id="a_node3"><a xlink:href="src_2include_2common_8h.html" target="_top" xlink:title="common.h">
<polygon fill="#ffffff" stroke="#000000" points="689.3892,-55.5 689.3892,-73.5 752.0737,-73.5 752.0737,-55.5 689.3892,-55.5"/>
<text text-anchor="middle" x="720.7314" y="-61.5" font-family="Helvetica,sans-Serif" font-size="10.00" fill="#000000">common.h</text>
</a>
</g>
</g>
<!-- Node1&#45;&gt;Node2 -->
<g id="edge2" class="edge">
<title>Node1&#45;&gt;Node2</title>
<path fill="none" stroke="#191970" d="M697.5495,-165.3862C677.167,-153.8307 648.361,-132.6664 659.7314,-110 666.4349,-96.6371 679.1303,-86.1977 691.211,-78.7082"/>
<polygon fill="#191970" stroke="#191970" points="693.2765,-81.5589 700.2199,-73.5563 689.8015,-75.4823 693.2765,-81.5589"/>
</g>
<!-- Node23 -->
<g id="node24" class="node">
<title>Node23</title>
<g id="a_node24"><a xlink:href="src_2include_2context_8h.html" target="_top" xlink:title="context.h">
<polygon fill="#ffffff" stroke="#000000" points="785.4409,-110.5 785.4409,-128.5 842.022,-128.5 842.022,-110.5 785.4409,-110.5"/>
<text text-anchor="middle" x="813.7314" y="-116.5" font-family="Helvetica,sans-Serif" font-size="10.00" fill="#000000">context.h</text>
</a>
</g>
</g>
<!-- Node1&#45;&gt;Node23 -->
<g id="edge23" class="edge">
<title>Node1&#45;&gt;Node23</title>
<path fill="none" stroke="#191970" d="M731.9142,-165.4179C747.3767,-156.7399 770.9082,-143.5334 788.7723,-133.5077"/>
<polygon fill="#191970" stroke="#191970" points="790.5172,-136.542 797.5247,-128.5956 787.0912,-130.4377 790.5172,-136.542"/>
</g>
<!-- Node24 -->
<g id="node25" class="node">
<title>Node24</title>
<g id="a_node25"><a xlink:href="hash_8h.html" target="_top" xlink:title="hash.h">
<polygon fill="#ffffff" stroke="#000000" points="668.7192,-110.5 668.7192,-128.5 714.7437,-128.5 714.7437,-110.5 668.7192,-110.5"/>
<text text-anchor="middle" x="691.7314" y="-116.5" font-family="Helvetica,sans-Serif" font-size="10.00" fill="#000000">hash.h</text>
</a>
</g>
</g>
<!-- Node1&#45;&gt;Node24 -->
<g id="edge25" class="edge">
<title>Node1&#45;&gt;Node24</title>
<path fill="none" stroke="#191970" d="M711.7683,-165.4179C708.5223,-157.9789 703.8241,-147.2123 699.7929,-137.9742"/>
<polygon fill="#191970" stroke="#191970" points="702.9881,-136.545 695.7807,-128.7795 696.5723,-139.3447 702.9881,-136.545"/>
</g>
<!-- Node25 -->
<g id="node26" class="node">
<title>Node25</title>
<g id="a_node26"><a xlink:href="str_8h.html" target="_top" xlink:title="str.h">
<polygon fill="#ffffff" stroke="#000000" points="732.2808,-110.5 732.2808,-128.5 767.1821,-128.5 767.1821,-110.5 732.2808,-110.5"/>
<text text-anchor="middle" x="749.7314" y="-116.5" font-family="Helvetica,sans-Serif" font-size="10.00" fill="#000000">str.h</text>
</a>
</g>
</g>
<!-- Node1&#45;&gt;Node25 -->
<g id="edge27" class="edge">
<title>Node1&#45;&gt;Node25</title>
<path fill="none" stroke="#191970" d="M721.3459,-165.4179C726.0423,-157.8207 732.8843,-146.7527 738.6743,-137.3866"/>
<polygon fill="#191970" stroke="#191970" points="741.7139,-139.1258 743.9951,-128.7795 735.7597,-135.445 741.7139,-139.1258"/>
</g>
<!-- Node3 -->
<g id="node4" class="node">
<title>Node3</title>
<polygon fill="#ffffff" stroke="#bfbfbf" points="0,-.5 0,-18.5 45.4629,-18.5 45.4629,-.5 0,-.5"/>
<text text-anchor="middle" x="22.7314" y="-6.5" font-family="Helvetica,sans-Serif" font-size="10.00" fill="#000000">stdio.h</text>
</g>
<!-- Node2&#45;&gt;Node3 -->
<g id="edge3" class="edge">
<title>Node2&#45;&gt;Node3</title>
<path fill="none" stroke="#191970" d="M689.2285,-63.3097C577.1505,-58.9296 197.3172,-42.8048 55.779,-18.9558"/>
<polygon fill="#191970" stroke="#191970" points="56.0664,-15.4522 45.6086,-17.1509 54.8432,-22.3445 56.0664,-15.4522"/>
</g>
<!-- Node4 -->
<g id="node5" class="node">
<title>Node4</title>
<polygon fill="#ffffff" stroke="#bfbfbf" points="63.2192,-.5 63.2192,-18.5 114.2437,-18.5 114.2437,-.5 63.2192,-.5"/>
<text text-anchor="middle" x="88.7314" y="-6.5" font-family="Helvetica,sans-Serif" font-size="10.00" fill="#000000">unistd.h</text>
</g>
<!-- Node2&#45;&gt;Node4 -->
<g id="edge4" class="edge">
<title>Node2&#45;&gt;Node4</title>
<path fill="none" stroke="#191970" d="M689.2354,-62.9231C585.0764,-57.5833 251.5816,-39.4584 124.4641,-18.9631"/>
<polygon fill="#191970" stroke="#191970" points="125.0433,-15.5114 114.5994,-17.2929 123.8748,-22.4132 125.0433,-15.5114"/>
</g>
<!-- Node5 -->
<g id="node6" class="node">
<title>Node5</title>
<polygon fill="#ffffff" stroke="#bfbfbf" points="131.8892,-.5 131.8892,-18.5 179.5737,-18.5 179.5737,-.5 131.8892,-.5"/>
<text text-anchor="middle" x="155.7314" y="-6.5" font-family="Helvetica,sans-Serif" font-size="10.00" fill="#000000">stdlib.h</text>
</g>
<!-- Node2&#45;&gt;Node5 -->
<g id="edge5" class="edge">
<title>Node2&#45;&gt;Node5</title>
<path fill="none" stroke="#191970" d="M689.2656,-63.9437C607.9767,-62.0556 384.3282,-53.9969 189.8683,-18.8592"/>
<polygon fill="#191970" stroke="#191970" points="190.2202,-15.3653 179.7525,-17.0017 188.9559,-22.2502 190.2202,-15.3653"/>
</g>
<!-- Node6 -->
<g id="node7" class="node">
<title>Node6</title>
<polygon fill="#ffffff" stroke="#bfbfbf" points="197.335,-.5 197.335,-18.5 246.1279,-18.5 246.1279,-.5 197.335,-.5"/>
<text text-anchor="middle" x="221.7314" y="-6.5" font-family="Helvetica,sans-Serif" font-size="10.00" fill="#000000">string.h</text>
</g>
<!-- Node2&#45;&gt;Node6 -->
<g id="edge6" class="edge">
<title>Node2&#45;&gt;Node6</title>
<path fill="none" stroke="#191970" d="M689.3652,-63.4171C615.3624,-60.4424 424.0805,-50.3028 256.4674,-19.0442"/>
<polygon fill="#191970" stroke="#191970" points="256.9569,-15.5747 246.48,-17.1509 255.6531,-22.4522 256.9569,-15.5747"/>
</g>
<!-- Node7 -->
<g id="node8" class="node">
<title>Node7</title>
<polygon fill="#ffffff" stroke="#bfbfbf" points="263.665,-.5 263.665,-18.5 315.7979,-18.5 315.7979,-.5 263.665,-.5"/>
<text text-anchor="middle" x="289.7314" y="-6.5" font-family="Helvetica,sans-Serif" font-size="10.00" fill="#000000">stdarg.h</text>
</g>
<!-- Node2&#45;&gt;Node7 -->
<g id="edge7" class="edge">
<title>Node2&#45;&gt;Node7</title>
<path fill="none" stroke="#191970" d="M689.1727,-62.4958C623.3495,-57.9695 466.5333,-45.3834 326.0878,-19.0102"/>
<polygon fill="#191970" stroke="#191970" points="326.4841,-15.5228 316.0055,-17.0874 325.1727,-22.3989 326.4841,-15.5228"/>
</g>
<!-- Node8 -->
<g id="node9" class="node">
<title>Node8</title>
<polygon fill="#ffffff" stroke="#bfbfbf" points="333.6108,-.5 333.6108,-18.5 381.8521,-18.5 381.8521,-.5 333.6108,-.5"/>
<text text-anchor="middle" x="357.7314" y="-6.5" font-family="Helvetica,sans-Serif" font-size="10.00" fill="#000000">stdint.h</text>
</g>
<!-- Node2&#45;&gt;Node8 -->
<g id="edge8" class="edge">
<title>Node2&#45;&gt;Node8</title>
<path fill="none" stroke="#191970" d="M689.0761,-61.6594C631.6622,-56.1808 506.4378,-42.7325 392.1084,-19.0465"/>
<polygon fill="#191970" stroke="#191970" points="392.6479,-15.5834 382.1415,-16.9493 391.2065,-22.4334 392.6479,-15.5834"/>
</g>
<!-- Node9 -->
<g id="node10" class="node">
<title>Node9</title>
<polygon fill="#ffffff" stroke="#bfbfbf" points="399.6035,-.5 399.6035,-18.5 457.8594,-18.5 457.8594,-.5 399.6035,-.5"/>
<text text-anchor="middle" x="428.7314" y="-6.5" font-family="Helvetica,sans-Serif" font-size="10.00" fill="#000000">pthread.h</text>
</g>
<!-- Node2&#45;&gt;Node9 -->
<g id="edge9" class="edge">
<title>Node2&#45;&gt;Node9</title>
<path fill="none" stroke="#191970" d="M689.3153,-59.5753C642.9872,-52.1606 553.4234,-37.2464 467.9995,-19.1663"/>
<polygon fill="#191970" stroke="#191970" points="468.6545,-15.7274 458.144,-17.0621 467.1928,-22.5731 468.6545,-15.7274"/>
</g>
<!-- Node10 -->
<g id="node11" class="node">
<title>Node10</title>
<polygon fill="#ffffff" stroke="#bfbfbf" points="475.6108,-.5 475.6108,-18.5 523.8521,-18.5 523.8521,-.5 475.6108,-.5"/>
<text text-anchor="middle" x="499.7314" y="-6.5" font-family="Helvetica,sans-Serif" font-size="10.00" fill="#000000">ctype.h</text>
</g>
<!-- Node2&#45;&gt;Node10 -->
<g id="edge10" class="edge">
<title>Node2&#45;&gt;Node10</title>
<path fill="none" stroke="#191970" d="M689.3592,-57.3406C653.9241,-49.1594 594.3055,-35.1107 534.2392,-19.3244"/>
<polygon fill="#191970" stroke="#191970" points="534.7698,-15.8445 524.2074,-16.6724 532.9808,-22.612 534.7698,-15.8445"/>
</g>
<!-- Node11 -->
<g id="node12" class="node">
<title>Node11</title>
<polygon fill="#ffffff" stroke="#bfbfbf" points="541.8892,-.5 541.8892,-18.5 589.5737,-18.5 589.5737,-.5 541.8892,-.5"/>
<text text-anchor="middle" x="565.7314" y="-6.5" font-family="Helvetica,sans-Serif" font-size="10.00" fill="#000000">errno.h</text>
</g>
<!-- Node2&#45;&gt;Node11 -->
<g id="edge11" class="edge">
<title>Node2&#45;&gt;Node11</title>
<path fill="none" stroke="#191970" d="M695.1363,-55.4179C668.9079,-46.111 628.0003,-31.5954 599.214,-21.3809"/>
<polygon fill="#191970" stroke="#191970" points="600.1761,-18.0086 589.5814,-17.9629 597.8352,-24.6055 600.1761,-18.0086"/>
</g>
<!-- Node12 -->
<g id="node13" class="node">
<title>Node12</title>
<polygon fill="#ffffff" stroke="#bfbfbf" points="607.1035,-.5 607.1035,-18.5 670.3594,-18.5 670.3594,-.5 607.1035,-.5"/>
<text text-anchor="middle" x="638.7314" y="-6.5" font-family="Helvetica,sans-Serif" font-size="10.00" fill="#000000">arpa/inet.h</text>
</g>
<!-- Node2&#45;&gt;Node12 -->
<g id="edge12" class="edge">
<title>Node2&#45;&gt;Node12</title>
<path fill="none" stroke="#191970" d="M707.1908,-55.4179C694.6089,-46.9788 675.6418,-34.257 660.8604,-24.3426"/>
<polygon fill="#191970" stroke="#191970" points="662.5467,-21.2593 652.2922,-18.5956 658.6475,-27.0727 662.5467,-21.2593"/>
</g>
<!-- Node13 -->
<g id="node14" class="node">
<title>Node13</title>
<polygon fill="#ffffff" stroke="#bfbfbf" points="688.2686,-.5 688.2686,-18.5 753.1943,-18.5 753.1943,-.5 688.2686,-.5"/>
<text text-anchor="middle" x="720.7314" y="-6.5" font-family="Helvetica,sans-Serif" font-size="10.00" fill="#000000">netinet/in.h</text>
</g>
<!-- Node2&#45;&gt;Node13 -->
<g id="edge13" class="edge">
<title>Node2&#45;&gt;Node13</title>
<path fill="none" stroke="#191970" d="M720.7314,-55.4179C720.7314,-48.2164 720.7314,-37.8962 720.7314,-28.8632"/>
<polygon fill="#191970" stroke="#191970" points="724.2315,-28.7794 720.7314,-18.7795 717.2315,-28.7795 724.2315,-28.7794"/>
</g>
<!-- Node14 -->
<g id="node15" class="node">
<title>Node14</title>
<polygon fill="#ffffff" stroke="#bfbfbf" points="770.8745,-.5 770.8745,-18.5 848.5884,-18.5 848.5884,-.5 770.8745,-.5"/>
<text text-anchor="middle" x="809.7314" y="-6.5" font-family="Helvetica,sans-Serif" font-size="10.00" fill="#000000">net/ethernet.h</text>
</g>
<!-- Node2&#45;&gt;Node14 -->
<g id="edge14" class="edge">
<title>Node2&#45;&gt;Node14</title>
<path fill="none" stroke="#191970" d="M735.428,-55.4179C749.2128,-46.8992 770.0592,-34.0166 786.1663,-24.0627"/>
<polygon fill="#191970" stroke="#191970" points="788.3463,-26.83 795.0131,-18.5956 784.6664,-20.8753 788.3463,-26.83"/>
</g>
<!-- Node15 -->
<g id="node16" class="node">
<title>Node15</title>
<polygon fill="#ffffff" stroke="#bfbfbf" points="866.2686,-.5 866.2686,-18.5 931.1943,-18.5 931.1943,-.5 866.2686,-.5"/>
<text text-anchor="middle" x="898.7314" y="-6.5" font-family="Helvetica,sans-Serif" font-size="10.00" fill="#000000">netinet/ip.h</text>
</g>
<!-- Node2&#45;&gt;Node15 -->
<g id="edge15" class="edge">
<title>Node2&#45;&gt;Node15</title>
<path fill="none" stroke="#191970" d="M750.1245,-55.4179C780.1026,-46.155 826.7791,-31.7325 859.8109,-21.526"/>
<polygon fill="#191970" stroke="#191970" points="861.0695,-24.8005 869.5905,-18.5042 859.003,-18.1124 861.0695,-24.8005"/>
</g>
<!-- Node16 -->
<g id="node17" class="node">
<title>Node16</title>
<polygon fill="#ffffff" stroke="#bfbfbf" points="949.4902,-.5 949.4902,-18.5 1019.9727,-18.5 1019.9727,-.5 949.4902,-.5"/>
<text text-anchor="middle" x="984.7314" y="-6.5" font-family="Helvetica,sans-Serif" font-size="10.00" fill="#000000">netinet/tcp.h</text>
</g>
<!-- Node2&#45;&gt;Node16 -->
<g id="edge16" class="edge">
<title>Node2&#45;&gt;Node16</title>
<path fill="none" stroke="#191970" d="M752.2899,-57.9764C793.0273,-49.5483 866.3751,-34.3488 939.5134,-19.0404"/>
<polygon fill="#191970" stroke="#191970" points="940.2901,-22.4537 949.3605,-16.9784 938.8554,-15.6023 940.2901,-22.4537"/>
</g>
<!-- Node17 -->
<g id="node18" class="node">
<title>Node17</title>
<polygon fill="#ffffff" stroke="#bfbfbf" points="1037.9312,-.5 1037.9312,-18.5 1129.5317,-18.5 1129.5317,-.5 1037.9312,-.5"/>
<text text-anchor="middle" x="1083.7314" y="-6.5" font-family="Helvetica,sans-Serif" font-size="10.00" fill="#000000">netinet/ip_icmp.h</text>
</g>
<!-- Node2&#45;&gt;Node17 -->
<g id="edge17" class="edge">
<title>Node2&#45;&gt;Node17</title>
<path fill="none" stroke="#191970" d="M752.251,-60.1023C806.3632,-52.4965 920.6632,-36.187 1027.8167,-19.1155"/>
<polygon fill="#191970" stroke="#191970" points="1028.5073,-22.5496 1037.8293,-17.5146 1027.4021,-15.6374 1028.5073,-22.5496"/>
</g>
<!-- Node18 -->
<g id="node19" class="node">
<title>Node18</title>
<polygon fill="#ffffff" stroke="#bfbfbf" points="1147.3276,-.5 1147.3276,-18.5 1206.1353,-18.5 1206.1353,-.5 1147.3276,-.5"/>
<text text-anchor="middle" x="1176.7314" y="-6.5" font-family="Helvetica,sans-Serif" font-size="10.00" fill="#000000">jansson.h</text>
</g>
<!-- Node2&#45;&gt;Node18 -->
<g id="edge18" class="edge">
<title>Node2&#45;&gt;Node18</title>
<path fill="none" stroke="#191970" d="M752.1392,-62.5528C820.4626,-58.0032 987.8052,-45.162 1136.7102,-19.1681"/>
<polygon fill="#191970" stroke="#191970" points="1137.7075,-22.5461 1146.9437,-17.3555 1136.4865,-15.6534 1137.7075,-22.5461"/>
</g>
<!-- Node19 -->
<g id="node20" class="node">
<title>Node19</title>
<polygon fill="#ffffff" stroke="#bfbfbf" points="1223.8374,-.5 1223.8374,-18.5 1267.6255,-18.5 1267.6255,-.5 1223.8374,-.5"/>
<text text-anchor="middle" x="1245.7314" y="-6.5" font-family="Helvetica,sans-Serif" font-size="10.00" fill="#000000">libcli.h</text>
</g>
<!-- Node2&#45;&gt;Node19 -->
<g id="edge19" class="edge">
<title>Node2&#45;&gt;Node19</title>
<path fill="none" stroke="#191970" d="M752.2607,-63.8363C829.5836,-61.7346 1034.7559,-53.2895 1213.672,-18.8334"/>
<polygon fill="#191970" stroke="#191970" points="1214.3789,-22.2615 1223.5199,-16.905 1213.0337,-15.392 1214.3789,-22.2615"/>
</g>
<!-- Node20 -->
<g id="node21" class="node">
<title>Node20</title>
<polygon fill="#ffffff" stroke="#bfbfbf" points="1286.1157,-.5 1286.1157,-18.5 1329.3472,-18.5 1329.3472,-.5 1286.1157,-.5"/>
<text text-anchor="middle" x="1307.7314" y="-6.5" font-family="Helvetica,sans-Serif" font-size="10.00" fill="#000000">zmq.h</text>
</g>
<!-- Node2&#45;&gt;Node20 -->
<g id="edge20" class="edge">
<title>Node2&#45;&gt;Node20</title>
<path fill="none" stroke="#191970" d="M752.1417,-62.8237C851.1739,-57.4021 1156.8444,-39.5929 1275.9357,-18.6772"/>
<polygon fill="#191970" stroke="#191970" points="1276.667,-22.1014 1285.8635,-16.8407 1275.3937,-15.2182 1276.667,-22.1014"/>
</g>
<!-- Node21 -->
<g id="node22" class="node">
<title>Node21</title>
<g id="a_node22"><a xlink:href="src_2include_2type_8h.html" target="_top" xlink:title="type.h">
<polygon fill="#ffffff" stroke="#000000" points="1408.1108,-.5 1408.1108,-18.5 1451.3521,-18.5 1451.3521,-.5 1408.1108,-.5"/>
<text text-anchor="middle" x="1429.7314" y="-6.5" font-family="Helvetica,sans-Serif" font-size="10.00" fill="#000000">type.h</text>
</a>
</g>
</g>
<!-- Node2&#45;&gt;Node21 -->
<g id="edge21" class="edge">
<title>Node2&#45;&gt;Node21</title>
<path fill="none" stroke="#191970" d="M752.4069,-63.3855C866.1274,-59.2314 1254.2586,-43.6952 1398.011,-18.8722"/>
<polygon fill="#191970" stroke="#191970" points="1398.7189,-22.301 1407.9317,-17.0689 1397.4669,-15.4138 1398.7189,-22.301"/>
</g>
<!-- Node22 -->
<g id="node23" class="node">
<title>Node22</title>
<polygon fill="#ffffff" stroke="#bfbfbf" points="1347.1157,-.5 1347.1157,-18.5 1390.3472,-18.5 1390.3472,-.5 1347.1157,-.5"/>
<text text-anchor="middle" x="1368.7314" y="-6.5" font-family="Helvetica,sans-Serif" font-size="10.00" fill="#000000">time.h</text>
</g>
<!-- Node2&#45;&gt;Node22 -->
<g id="edge22" class="edge">
<title>Node2&#45;&gt;Node22</title>
<path fill="none" stroke="#191970" d="M752.1624,-63.1561C858.5572,-58.4596 1205.4088,-41.9088 1336.7417,-18.9325"/>
<polygon fill="#191970" stroke="#191970" points="1337.7301,-22.3092 1346.9284,-17.0518 1336.4591,-15.4256 1337.7301,-22.3092"/>
</g>
<!-- Node23&#45;&gt;Node2 -->
<g id="edge24" class="edge">
<title>Node23&#45;&gt;Node2</title>
<path fill="none" stroke="#191970" d="M798.3744,-110.4179C783.8354,-101.8195 761.7789,-88.7754 744.8851,-78.7844"/>
<polygon fill="#191970" stroke="#191970" points="746.5004,-75.6735 736.1113,-73.5956 742.9371,-81.6987 746.5004,-75.6735"/>
</g>
<!-- Node24&#45;&gt;Node2 -->
<g id="edge26" class="edge">
<title>Node24&#45;&gt;Node2</title>
<path fill="none" stroke="#191970" d="M696.5202,-110.4179C700.4843,-102.8998 706.2405,-91.9829 711.1457,-82.6799"/>
<polygon fill="#191970" stroke="#191970" points="714.2705,-84.2576 715.8386,-73.7795 708.0785,-80.9927 714.2705,-84.2576"/>
</g>
<!-- Node25&#45;&gt;Node2 -->
<g id="edge28" class="edge">
<title>Node25&#45;&gt;Node2</title>
<path fill="none" stroke="#191970" d="M744.9427,-110.4179C740.9786,-102.8998 735.2224,-91.9829 730.3172,-82.6799"/>
<polygon fill="#191970" stroke="#191970" points="733.3844,-80.9927 725.6242,-73.7795 727.1924,-84.2576 733.3844,-80.9927"/>
</g>
<!-- Node27&#45;&gt;Node2 -->
<g id="edge31" class="edge">
<title>Node27&#45;&gt;Node2</title>
<path fill="none" stroke="#191970" d="M899.283,-165.2382C890.6617,-151.343 872.5899,-125.1225 850.7314,-110 824.053,-91.5429 789.1407,-79.8699 762.2142,-72.9742"/>
<polygon fill="#191970" stroke="#191970" points="762.8638,-69.5301 752.3193,-70.5611 761.2052,-76.3308 762.8638,-69.5301"/>
</g>
<!-- Node27&#45;&gt;Node23 -->
<g id="edge32" class="edge">
<title>Node27&#45;&gt;Node23</title>
<path fill="none" stroke="#191970" d="M889.7046,-165.4179C875.4783,-156.8195 853.8962,-143.7754 837.3657,-133.7844"/>
<polygon fill="#191970" stroke="#191970" points="839.1493,-130.7729 828.7806,-128.5956 835.5284,-136.7637 839.1493,-130.7729"/>
</g>
<!-- Node28 -->
<g id="node29" class="node">
<title>Node28</title>
<g id="a_node29"><a xlink:href="events_2include_2event__id_8h.html" target="_top" xlink:title="event_id.h">
<polygon fill="#ffffff" stroke="#000000" points="897.6577,-110.5 897.6577,-128.5 959.8052,-128.5 959.8052,-110.5 897.6577,-110.5"/>
<text text-anchor="middle" x="928.7314" y="-116.5" font-family="Helvetica,sans-Serif" font-size="10.00" fill="#000000">event_id.h</text>
</a>
</g>
</g>
<!-- Node27&#45;&gt;Node28 -->
<g id="edge33" class="edge">
<title>Node27&#45;&gt;Node28</title>
<path fill="none" stroke="#191970" d="M908.6946,-165.4179C911.9406,-157.9789 916.6388,-147.2123 920.67,-137.9742"/>
<polygon fill="#191970" stroke="#191970" points="923.8906,-139.3447 924.6822,-128.7795 917.4748,-136.545 923.8906,-139.3447"/>
</g>
<!-- Node29 -->
<g id="node30" class="node">
<title>Node29</title>
<g id="a_node30"><a xlink:href="events_2include_2event__list_8h.html" target="_top" xlink:title="event_list.h">
<polygon fill="#ffffff" stroke="#000000" points="1292.4385,-55.5 1292.4385,-73.5 1359.0244,-73.5 1359.0244,-55.5 1292.4385,-55.5"/>
<text text-anchor="middle" x="1325.7314" y="-61.5" font-family="Helvetica,sans-Serif" font-size="10.00" fill="#000000">event_list.h</text>
</a>
</g>
</g>
<!-- Node27&#45;&gt;Node29 -->
<g id="edge34" class="edge">
<title>Node27&#45;&gt;Node29</title>
<path fill="none" stroke="#191970" d="M929.2307,-167.5967C932.4243,-166.7138 935.6542,-165.8294 938.7314,-165 1063.1426,-131.4679 1210.6002,-93.7256 1282.2746,-75.5078"/>
<polygon fill="#191970" stroke="#191970" points="1283.4573,-78.8186 1292.2879,-72.9645 1281.734,-72.0341 1283.4573,-78.8186"/>
</g>
<!-- Node29&#45;&gt;Node21 -->
<g id="edge35" class="edge">
<title>Node29&#45;&gt;Node21</title>
<path fill="none" stroke="#191970" d="M1342.9049,-55.4179C1359.3894,-46.7001 1384.5157,-33.4122 1403.5047,-23.3699"/>
<polygon fill="#191970" stroke="#191970" points="1405.3287,-26.3646 1412.5324,-18.5956 1402.0562,-20.1767 1405.3287,-26.3646"/>
</g>
</g>
</svg>
