<?xml version="1.0" encoding="UTF-8" standalone="no"?>
<!DOCTYPE svg PUBLIC "-//W3C//DTD SVG 1.1//EN"
 "http://www.w3.org/Graphics/SVG/1.1/DTD/svg11.dtd">
<!-- Generated by graphviz version 2.40.1 (20161225.0304)
 -->
<!-- Title: components/include/conn.h Pages: 1 -->
<svg width="2614pt" height="312pt"
 viewBox="0.00 0.00 2614.24 312.00" xmlns="http://www.w3.org/2000/svg" xmlns:xlink="http://www.w3.org/1999/xlink">
<g id="graph0" class="graph" transform="scale(1 1) rotate(0) translate(4 308)">
<title>components/include/conn.h</title>
<polygon fill="#ffffff" stroke="transparent" points="-4,4 -4,-308 2610.2437,-308 2610.2437,4 -4,4"/>
<!-- Node0 -->
<g id="node1" class="node">
<title>Node0</title>
<polygon fill="#bfbfbf" stroke="#000000" points="1006.1479,-275.5 1006.1479,-303.5 1111.0933,-303.5 1111.0933,-275.5 1006.1479,-275.5"/>
<text text-anchor="start" x="1014.1479" y="-291.5" font-family="Helvetica,sans-Serif" font-size="10.00" fill="#000000">components/include</text>
<text text-anchor="middle" x="1058.6206" y="-281.5" font-family="Helvetica,sans-Serif" font-size="10.00" fill="#000000">/conn.h</text>
</g>
<!-- Node1 -->
<g id="node2" class="node">
<title>Node1</title>
<g id="a_node2"><a xlink:href="src_2include_2common_8h.html" target="_top" xlink:title="common.h">
<polygon fill="#ffffff" stroke="#000000" points="1017.2783,-110.5 1017.2783,-128.5 1079.9629,-128.5 1079.9629,-110.5 1017.2783,-110.5"/>
<text text-anchor="middle" x="1048.6206" y="-116.5" font-family="Helvetica,sans-Serif" font-size="10.00" fill="#000000">common.h</text>
</a>
</g>
</g>
<!-- Node0&#45;&gt;Node1 -->
<g id="edge1" class="edge">
<title>Node0&#45;&gt;Node1</title>
<path fill="none" stroke="#191970" d="M1032.8148,-275.3947C1004.744,-258.2012 962.1879,-226.1472 949.6206,-184 947.2077,-175.9076 945.0637,-172.1094 949.6206,-165 962.398,-145.0654 986.3497,-133.7469 1007.4932,-127.3848"/>
<polygon fill="#191970" stroke="#191970" points="1008.5437,-130.7262 1017.2718,-124.7205 1006.7034,-123.9725 1008.5437,-130.7262"/>
</g>
<!-- Node36 -->
<g id="node37" class="node">
<title>Node36</title>
<g id="a_node37"><a xlink:href="events_2include_2event_8h.html" target="_top" xlink:title="event.h">
<polygon fill="#ffffff" stroke="#000000" points="994.2192,-220.5 994.2192,-238.5 1043.022,-238.5 1043.022,-220.5 994.2192,-220.5"/>
<text text-anchor="middle" x="1018.6206" y="-226.5" font-family="Helvetica,sans-Serif" font-size="10.00" fill="#000000">event.h</text>
</a>
</g>
</g>
<!-- Node0&#45;&gt;Node36 -->
<g id="edge43" class="edge">
<title>Node0&#45;&gt;Node36</title>
<path fill="none" stroke="#191970" d="M1049.1412,-275.2808C1043.5171,-266.8448 1036.3415,-256.0813 1030.3611,-247.1107"/>
<polygon fill="#191970" stroke="#191970" points="1033.136,-244.9632 1024.6767,-238.5842 1027.3116,-248.8462 1033.136,-244.9632"/>
</g>
<!-- Node40 -->
<g id="node41" class="node">
<title>Node40</title>
<polygon fill="#ffffff" stroke="#bfbfbf" points="1060.8745,-220.5 1060.8745,-238.5 1136.3667,-238.5 1136.3667,-220.5 1060.8745,-220.5"/>
<text text-anchor="middle" x="1098.6206" y="-226.5" font-family="Helvetica,sans-Serif" font-size="10.00" fill="#000000">openflow10.h</text>
</g>
<!-- Node0&#45;&gt;Node40 -->
<g id="edge50" class="edge">
<title>Node0&#45;&gt;Node40</title>
<path fill="none" stroke="#191970" d="M1068.1,-275.2808C1073.7241,-266.8448 1080.8997,-256.0813 1086.8801,-247.1107"/>
<polygon fill="#191970" stroke="#191970" points="1089.9296,-248.8462 1092.5645,-238.5842 1084.1053,-244.9632 1089.9296,-248.8462"/>
</g>
<!-- Node41 -->
<g id="node42" class="node">
<title>Node41</title>
<g id="a_node42"><a xlink:href="epoll__env_8h.html" target="_top" xlink:title="epoll_env.h">
<polygon fill="#ffffff" stroke="#000000" points="2318.4131,-110.5 2318.4131,-128.5 2384.8281,-128.5 2384.8281,-110.5 2318.4131,-110.5"/>
<text text-anchor="middle" x="2351.6206" y="-116.5" font-family="Helvetica,sans-Serif" font-size="10.00" fill="#000000">epoll_env.h</text>
</a>
</g>
</g>
<!-- Node0&#45;&gt;Node41 -->
<g id="edge51" class="edge">
<title>Node0&#45;&gt;Node41</title>
<path fill="none" stroke="#191970" d="M1111.313,-282.5721C1323.5961,-254.6618 2114.0188,-150.7392 2308.2861,-125.1975"/>
<polygon fill="#191970" stroke="#191970" points="2308.9378,-128.642 2318.3962,-123.8682 2308.0253,-121.7017 2308.9378,-128.642"/>
</g>
<!-- Node2 -->
<g id="node3" class="node">
<title>Node2</title>
<polygon fill="#ffffff" stroke="#bfbfbf" points="553.8892,-.5 553.8892,-18.5 599.3521,-18.5 599.3521,-.5 553.8892,-.5"/>
<text text-anchor="middle" x="576.6206" y="-6.5" font-family="Helvetica,sans-Serif" font-size="10.00" fill="#000000">stdio.h</text>
</g>
<!-- Node1&#45;&gt;Node2 -->
<g id="edge2" class="edge">
<title>Node1&#45;&gt;Node2</title>
<path fill="none" stroke="#191970" d="M1016.8529,-118.3054C959.5613,-115.4028 835.6808,-105.6887 736.6206,-74 719.0136,-68.3677 716.5422,-62.4424 699.6206,-55 669.5793,-41.7873 634.3735,-29.0288 609.3427,-20.4018"/>
<polygon fill="#191970" stroke="#191970" points="610.2107,-16.9998 599.6162,-17.0808 607.9489,-23.6243 610.2107,-16.9998"/>
</g>
<!-- Node3 -->
<g id="node4" class="node">
<title>Node3</title>
<polygon fill="#ffffff" stroke="#bfbfbf" points="785.1084,-55.5 785.1084,-73.5 836.1328,-73.5 836.1328,-55.5 785.1084,-55.5"/>
<text text-anchor="middle" x="810.6206" y="-61.5" font-family="Helvetica,sans-Serif" font-size="10.00" fill="#000000">unistd.h</text>
</g>
<!-- Node1&#45;&gt;Node3 -->
<g id="edge3" class="edge">
<title>Node1&#45;&gt;Node3</title>
<path fill="none" stroke="#191970" d="M1017.0458,-113.0001C978.7343,-104.9949 911.9678,-90.6655 845.9354,-74.2421"/>
<polygon fill="#191970" stroke="#191970" points="846.7524,-70.8387 836.2017,-71.8043 845.0517,-77.629 846.7524,-70.8387"/>
</g>
<!-- Node4 -->
<g id="node5" class="node">
<title>Node4</title>
<polygon fill="#ffffff" stroke="#bfbfbf" points="853.7783,-55.5 853.7783,-73.5 901.4629,-73.5 901.4629,-55.5 853.7783,-55.5"/>
<text text-anchor="middle" x="877.6206" y="-61.5" font-family="Helvetica,sans-Serif" font-size="10.00" fill="#000000">stdlib.h</text>
</g>
<!-- Node1&#45;&gt;Node4 -->
<g id="edge4" class="edge">
<title>Node1&#45;&gt;Node4</title>
<path fill="none" stroke="#191970" d="M1020.3834,-110.4179C990.4244,-100.7819 943.1056,-85.5624 911.2423,-75.314"/>
<polygon fill="#191970" stroke="#191970" points="912.0732,-71.9047 901.4818,-72.1746 909.9298,-78.5685 912.0732,-71.9047"/>
</g>
<!-- Node5 -->
<g id="node6" class="node">
<title>Node5</title>
<polygon fill="#ffffff" stroke="#bfbfbf" points="655.5542,-.5 655.5542,-18.5 707.687,-18.5 707.687,-.5 655.5542,-.5"/>
<text text-anchor="middle" x="681.6206" y="-6.5" font-family="Helvetica,sans-Serif" font-size="10.00" fill="#000000">stdarg.h</text>
</g>
<!-- Node1&#45;&gt;Node5 -->
<g id="edge5" class="edge">
<title>Node1&#45;&gt;Node5</title>
<path fill="none" stroke="#191970" d="M1016.9073,-115.965C954.7258,-108.7487 819.07,-91.519 775.6206,-74 746.5953,-62.2969 717.5633,-40.443 699.6066,-25.4431"/>
<polygon fill="#191970" stroke="#191970" points="701.6039,-22.5457 691.7298,-18.7046 697.0534,-27.8648 701.6039,-22.5457"/>
</g>
<!-- Node6 -->
<g id="node7" class="node">
<title>Node6</title>
<polygon fill="#ffffff" stroke="#bfbfbf" points="957.5,-55.5 957.5,-73.5 1005.7412,-73.5 1005.7412,-55.5 957.5,-55.5"/>
<text text-anchor="middle" x="981.6206" y="-61.5" font-family="Helvetica,sans-Serif" font-size="10.00" fill="#000000">stdint.h</text>
</g>
<!-- Node1&#45;&gt;Node6 -->
<g id="edge6" class="edge">
<title>Node1&#45;&gt;Node6</title>
<path fill="none" stroke="#191970" d="M1037.5569,-110.4179C1027.6273,-102.2667 1012.8306,-90.1201 1000.9494,-80.3669"/>
<polygon fill="#191970" stroke="#191970" points="1002.8747,-77.4192 992.9247,-73.7795 998.4332,-82.8297 1002.8747,-77.4192"/>
</g>
<!-- Node7 -->
<g id="node8" class="node">
<title>Node7</title>
<polygon fill="#ffffff" stroke="#bfbfbf" points="1024.2241,-55.5 1024.2241,-73.5 1073.0171,-73.5 1073.0171,-55.5 1024.2241,-55.5"/>
<text text-anchor="middle" x="1048.6206" y="-61.5" font-family="Helvetica,sans-Serif" font-size="10.00" fill="#000000">string.h</text>
</g>
<!-- Node1&#45;&gt;Node7 -->
<g id="edge7" class="edge">
<title>Node1&#45;&gt;Node7</title>
<path fill="none" stroke="#191970" d="M1048.6206,-110.4179C1048.6206,-103.2164 1048.6206,-92.8962 1048.6206,-83.8632"/>
<polygon fill="#191970" stroke="#191970" points="1052.1207,-83.7794 1048.6206,-73.7795 1045.1207,-83.7795 1052.1207,-83.7794"/>
</g>
<!-- Node8 -->
<g id="node9" class="node">
<title>Node8</title>
<polygon fill="#ffffff" stroke="#bfbfbf" points="1090.7241,-55.5 1090.7241,-73.5 1144.5171,-73.5 1144.5171,-55.5 1090.7241,-55.5"/>
<text text-anchor="middle" x="1117.6206" y="-61.5" font-family="Helvetica,sans-Serif" font-size="10.00" fill="#000000">strings.h</text>
</g>
<!-- Node1&#45;&gt;Node8 -->
<g id="edge8" class="edge">
<title>Node1&#45;&gt;Node8</title>
<path fill="none" stroke="#191970" d="M1060.0146,-110.4179C1070.3398,-102.1876 1085.7753,-89.8839 1098.0703,-80.0836"/>
<polygon fill="#191970" stroke="#191970" points="1100.341,-82.7495 1105.9791,-73.7795 1095.9777,-77.2757 1100.341,-82.7495"/>
</g>
<!-- Node9 -->
<g id="node10" class="node">
<title>Node9</title>
<polygon fill="#ffffff" stroke="#bfbfbf" points="1162.4927,-55.5 1162.4927,-73.5 1220.7485,-73.5 1220.7485,-55.5 1162.4927,-55.5"/>
<text text-anchor="middle" x="1191.6206" y="-61.5" font-family="Helvetica,sans-Serif" font-size="10.00" fill="#000000">pthread.h</text>
</g>
<!-- Node1&#45;&gt;Node9 -->
<g id="edge9" class="edge">
<title>Node1&#45;&gt;Node9</title>
<path fill="none" stroke="#191970" d="M1072.2341,-110.4179C1095.7283,-101.3817 1131.9889,-87.4353 1158.3854,-77.2828"/>
<polygon fill="#191970" stroke="#191970" points="1159.895,-80.4522 1167.972,-73.5956 1157.3821,-73.9188 1159.895,-80.4522"/>
</g>
<!-- Node10 -->
<g id="node11" class="node">
<title>Node10</title>
<polygon fill="#ffffff" stroke="#bfbfbf" points="1238.5,-55.5 1238.5,-73.5 1286.7412,-73.5 1286.7412,-55.5 1238.5,-55.5"/>
<text text-anchor="middle" x="1262.6206" y="-61.5" font-family="Helvetica,sans-Serif" font-size="10.00" fill="#000000">ctype.h</text>
</g>
<!-- Node1&#45;&gt;Node10 -->
<g id="edge10" class="edge">
<title>Node1&#45;&gt;Node10</title>
<path fill="none" stroke="#191970" d="M1080.0953,-111.932C1114.3611,-103.6173 1170.9997,-89.6547 1228.8307,-74.1503"/>
<polygon fill="#191970" stroke="#191970" points="1229.7507,-77.5274 1238.4965,-71.5473 1227.9304,-70.7682 1229.7507,-77.5274"/>
</g>
<!-- Node11 -->
<g id="node12" class="node">
<title>Node11</title>
<polygon fill="#ffffff" stroke="#bfbfbf" points="1304.7783,-55.5 1304.7783,-73.5 1352.4629,-73.5 1352.4629,-55.5 1304.7783,-55.5"/>
<text text-anchor="middle" x="1328.6206" y="-61.5" font-family="Helvetica,sans-Serif" font-size="10.00" fill="#000000">errno.h</text>
</g>
<!-- Node1&#45;&gt;Node11 -->
<g id="edge11" class="edge">
<title>Node1&#45;&gt;Node11</title>
<path fill="none" stroke="#191970" d="M1080.0182,-114.7297C1125.3398,-107.6245 1211.8813,-93.238 1294.7221,-74.0312"/>
<polygon fill="#191970" stroke="#191970" points="1295.6058,-77.419 1304.5419,-71.7273 1294.0068,-70.6041 1295.6058,-77.419"/>
</g>
<!-- Node12 -->
<g id="node13" class="node">
<title>Node12</title>
<polygon fill="#ffffff" stroke="#bfbfbf" points="1370.0049,-55.5 1370.0049,-73.5 1413.2363,-73.5 1413.2363,-55.5 1370.0049,-55.5"/>
<text text-anchor="middle" x="1391.6206" y="-61.5" font-family="Helvetica,sans-Serif" font-size="10.00" fill="#000000">time.h</text>
</g>
<!-- Node1&#45;&gt;Node12 -->
<g id="edge12" class="edge">
<title>Node1&#45;&gt;Node12</title>
<path fill="none" stroke="#191970" d="M1080.029,-116.6386C1135.0553,-111.2605 1252.5348,-98.1554 1359.768,-74.1482"/>
<polygon fill="#191970" stroke="#191970" points="1360.8059,-77.5015 1369.7788,-71.8678 1359.2512,-70.6763 1360.8059,-77.5015"/>
</g>
<!-- Node13 -->
<g id="node14" class="node">
<title>Node13</title>
<polygon fill="#ffffff" stroke="#bfbfbf" points="2186.2808,-55.5 2186.2808,-73.5 2228.9604,-73.5 2228.9604,-55.5 2186.2808,-55.5"/>
<text text-anchor="middle" x="2207.6206" y="-61.5" font-family="Helvetica,sans-Serif" font-size="10.00" fill="#000000">fcntl.h</text>
</g>
<!-- Node1&#45;&gt;Node13 -->
<g id="edge13" class="edge">
<title>Node1&#45;&gt;Node13</title>
<path fill="none" stroke="#191970" d="M1080.0613,-119.3215C1236.9813,-118.267 1936.9902,-111.594 2176.0966,-73.5251"/>
<polygon fill="#191970" stroke="#191970" points="2176.8186,-76.9533 2186.1117,-71.8652 2175.6739,-70.0475 2176.8186,-76.9533"/>
</g>
<!-- Node14 -->
<g id="node15" class="node">
<title>Node14</title>
<polygon fill="#ffffff" stroke="#bfbfbf" points="2247.3867,-55.5 2247.3867,-73.5 2297.8545,-73.5 2297.8545,-55.5 2247.3867,-55.5"/>
<text text-anchor="middle" x="2272.6206" y="-61.5" font-family="Helvetica,sans-Serif" font-size="10.00" fill="#000000">signal.h</text>
</g>
<!-- Node1&#45;&gt;Node14 -->
<g id="edge14" class="edge">
<title>Node1&#45;&gt;Node14</title>
<path fill="none" stroke="#191970" d="M1080.096,-119.2606C1242.1553,-117.8832 1984.2707,-109.7815 2236.9282,-73.6493"/>
<polygon fill="#191970" stroke="#191970" points="2237.7728,-77.0623 2247.1498,-72.1305 2236.7439,-70.1383 2237.7728,-77.0623"/>
</g>
<!-- Node15 -->
<g id="node16" class="node">
<title>Node15</title>
<polygon fill="#ffffff" stroke="#bfbfbf" points="448.1157,-.5 448.1157,-18.5 509.1255,-18.5 509.1255,-.5 448.1157,-.5"/>
<text text-anchor="middle" x="478.6206" y="-6.5" font-family="Helvetica,sans-Serif" font-size="10.00" fill="#000000">sys/time.h</text>
</g>
<!-- Node1&#45;&gt;Node15 -->
<g id="edge15" class="edge">
<title>Node1&#45;&gt;Node15</title>
<path fill="none" stroke="#191970" d="M1017.0611,-118.3534C893.9482,-113.7303 451.7469,-95.6651 431.6206,-74 417.1144,-58.3846 437.0118,-38.2465 455.2049,-24.6592"/>
<polygon fill="#191970" stroke="#191970" points="457.6892,-27.1898 463.8409,-18.5639 453.6527,-21.4708 457.6892,-27.1898"/>
</g>
<!-- Node16 -->
<g id="node17" class="node">
<title>Node16</title>
<polygon fill="#ffffff" stroke="#bfbfbf" points="1514.5024,-55.5 1514.5024,-73.5 1572.7388,-73.5 1572.7388,-55.5 1514.5024,-55.5"/>
<text text-anchor="middle" x="1543.6206" y="-61.5" font-family="Helvetica,sans-Serif" font-size="10.00" fill="#000000">sys/stat.h</text>
</g>
<!-- Node1&#45;&gt;Node16 -->
<g id="edge16" class="edge">
<title>Node1&#45;&gt;Node16</title>
<path fill="none" stroke="#191970" d="M1080.1394,-117.9476C1153.09,-114.0173 1339.2901,-102.0532 1503.9401,-74.0702"/>
<polygon fill="#191970" stroke="#191970" points="1504.993,-77.4403 1514.2525,-72.2914 1503.8031,-70.5422 1504.993,-77.4403"/>
</g>
<!-- Node17 -->
<g id="node18" class="node">
<title>Node17</title>
<polygon fill="#ffffff" stroke="#bfbfbf" points="1590.6108,-55.5 1590.6108,-73.5 1656.6304,-73.5 1656.6304,-55.5 1590.6108,-55.5"/>
<text text-anchor="middle" x="1623.6206" y="-61.5" font-family="Helvetica,sans-Serif" font-size="10.00" fill="#000000">sys/types.h</text>
</g>
<!-- Node1&#45;&gt;Node17 -->
<g id="edge17" class="edge">
<title>Node1&#45;&gt;Node17</title>
<path fill="none" stroke="#191970" d="M1080.0395,-118.3251C1161.2296,-114.9694 1384.7485,-103.7031 1580.0678,-74.0508"/>
<polygon fill="#191970" stroke="#191970" points="1580.8779,-77.4674 1590.2293,-72.4874 1579.8134,-70.5489 1580.8779,-77.4674"/>
</g>
<!-- Node18 -->
<g id="node19" class="node">
<title>Node18</title>
<polygon fill="#ffffff" stroke="#bfbfbf" points="1674.6699,-55.5 1674.6699,-73.5 1734.5713,-73.5 1734.5713,-55.5 1674.6699,-55.5"/>
<text text-anchor="middle" x="1704.6206" y="-61.5" font-family="Helvetica,sans-Serif" font-size="10.00" fill="#000000">sys/ioctl.h</text>
</g>
<!-- Node1&#45;&gt;Node18 -->
<g id="edge18" class="edge">
<title>Node1&#45;&gt;Node18</title>
<path fill="none" stroke="#191970" d="M1079.9684,-119.0147C1169.6762,-117.2406 1435.1439,-109.3012 1664.2916,-73.9564"/>
<polygon fill="#191970" stroke="#191970" points="1665.1475,-77.3651 1674.4865,-72.3618 1664.0657,-70.4492 1665.1475,-77.3651"/>
</g>
<!-- Node19 -->
<g id="node20" class="node">
<title>Node19</title>
<polygon fill="#ffffff" stroke="#bfbfbf" points="2316.1108,-55.5 2316.1108,-73.5 2387.1304,-73.5 2387.1304,-55.5 2316.1108,-55.5"/>
<text text-anchor="middle" x="2351.6206" y="-61.5" font-family="Helvetica,sans-Serif" font-size="10.00" fill="#000000">sys/socket.h</text>
</g>
<!-- Node1&#45;&gt;Node19 -->
<g id="edge19" class="edge">
<title>Node1&#45;&gt;Node19</title>
<path fill="none" stroke="#191970" d="M1080.1928,-119.0943C1248.0901,-116.8263 2038.2327,-104.7414 2305.7928,-73.8319"/>
<polygon fill="#191970" stroke="#191970" points="2306.3382,-77.2917 2315.8524,-72.6302 2305.5079,-70.3411 2306.3382,-77.2917"/>
</g>
<!-- Node20 -->
<g id="node21" class="node">
<title>Node20</title>
<polygon fill="#ffffff" stroke="#bfbfbf" points="1753,-55.5 1753,-73.5 1826.2412,-73.5 1826.2412,-55.5 1753,-55.5"/>
<text text-anchor="middle" x="1789.6206" y="-61.5" font-family="Helvetica,sans-Serif" font-size="10.00" fill="#000000">sys/sysinfo.h</text>
</g>
<!-- Node1&#45;&gt;Node20 -->
<g id="edge20" class="edge">
<title>Node1&#45;&gt;Node20</title>
<path fill="none" stroke="#191970" d="M1080.2937,-118.9833C1177.6895,-117.0662 1481.4448,-108.6373 1742.7322,-73.9257"/>
<polygon fill="#191970" stroke="#191970" points="1743.3455,-77.3749 1752.79,-72.5736 1742.4128,-70.4373 1743.3455,-77.3749"/>
</g>
<!-- Node21 -->
<g id="node22" class="node">
<title>Node21</title>
<polygon fill="#ffffff" stroke="#bfbfbf" points="1843.9927,-55.5 1843.9927,-73.5 1907.2485,-73.5 1907.2485,-55.5 1843.9927,-55.5"/>
<text text-anchor="middle" x="1875.6206" y="-61.5" font-family="Helvetica,sans-Serif" font-size="10.00" fill="#000000">arpa/inet.h</text>
</g>
<!-- Node1&#45;&gt;Node21 -->
<g id="edge21" class="edge">
<title>Node1&#45;&gt;Node21</title>
<path fill="none" stroke="#191970" d="M1080.3392,-118.4104C1205.568,-113.9956 1666.5374,-96.6531 1833.7316,-74.0082"/>
<polygon fill="#191970" stroke="#191970" points="1834.4296,-77.4444 1843.8412,-72.5789 1833.4497,-70.5133 1834.4296,-77.4444"/>
</g>
<!-- Node22 -->
<g id="node23" class="node">
<title>Node22</title>
<polygon fill="#ffffff" stroke="#bfbfbf" points="1925.1577,-55.5 1925.1577,-73.5 1990.0835,-73.5 1990.0835,-55.5 1925.1577,-55.5"/>
<text text-anchor="middle" x="1957.6206" y="-61.5" font-family="Helvetica,sans-Serif" font-size="10.00" fill="#000000">netinet/in.h</text>
</g>
<!-- Node1&#45;&gt;Node22 -->
<g id="edge22" class="edge">
<title>Node1&#45;&gt;Node22</title>
<path fill="none" stroke="#191970" d="M1080.3229,-118.5838C1213.7023,-114.6167 1730.5209,-98.0871 1914.9451,-73.9672"/>
<polygon fill="#191970" stroke="#191970" points="1915.6079,-77.4093 1925.0437,-72.5911 1914.6627,-70.4734 1915.6079,-77.4093"/>
</g>
<!-- Node23 -->
<g id="node24" class="node">
<title>Node23</title>
<polygon fill="#ffffff" stroke="#bfbfbf" points="2007.7637,-55.5 2007.7637,-73.5 2085.4775,-73.5 2085.4775,-55.5 2007.7637,-55.5"/>
<text text-anchor="middle" x="2046.6206" y="-61.5" font-family="Helvetica,sans-Serif" font-size="10.00" fill="#000000">net/ethernet.h</text>
</g>
<!-- Node1&#45;&gt;Node23 -->
<g id="edge23" class="edge">
<title>Node1&#45;&gt;Node23</title>
<path fill="none" stroke="#191970" d="M1080.3539,-118.6105C1221.6121,-114.5559 1794.7858,-97.0742 1997.4352,-73.9221"/>
<polygon fill="#191970" stroke="#191970" points="1998.1469,-77.3623 2007.6653,-72.7093 1997.3228,-70.411 1998.1469,-77.3623"/>
</g>
<!-- Node24 -->
<g id="node25" class="node">
<title>Node24</title>
<polygon fill="#ffffff" stroke="#bfbfbf" points="2103.1577,-55.5 2103.1577,-73.5 2168.0835,-73.5 2168.0835,-55.5 2103.1577,-55.5"/>
<text text-anchor="middle" x="2135.6206" y="-61.5" font-family="Helvetica,sans-Serif" font-size="10.00" fill="#000000">netinet/ip.h</text>
</g>
<!-- Node1&#45;&gt;Node24 -->
<g id="edge24" class="edge">
<title>Node1&#45;&gt;Node24</title>
<path fill="none" stroke="#191970" d="M1079.9633,-118.9157C1229.4166,-116.0123 1871.2609,-102.1903 2093.1189,-73.931"/>
<polygon fill="#191970" stroke="#191970" points="2093.5927,-77.3989 2103.0474,-72.6177 2092.6748,-70.4593 2093.5927,-77.3989"/>
</g>
<!-- Node25 -->
<g id="node26" class="node">
<title>Node25</title>
<polygon fill="#ffffff" stroke="#bfbfbf" points="61.3794,-55.5 61.3794,-73.5 131.8618,-73.5 131.8618,-55.5 61.3794,-55.5"/>
<text text-anchor="middle" x="96.6206" y="-61.5" font-family="Helvetica,sans-Serif" font-size="10.00" fill="#000000">netinet/tcp.h</text>
</g>
<!-- Node1&#45;&gt;Node25 -->
<g id="edge25" class="edge">
<title>Node1&#45;&gt;Node25</title>
<path fill="none" stroke="#191970" d="M1016.8882,-118.6032C879.564,-114.6178 335.0978,-97.7116 142.0936,-73.9546"/>
<polygon fill="#191970" stroke="#191970" points="142.4388,-70.4703 132.0754,-72.6728 141.5504,-77.4137 142.4388,-70.4703"/>
</g>
<!-- Node26 -->
<g id="node27" class="node">
<title>Node26</title>
<polygon fill="#ffffff" stroke="#bfbfbf" points="149.8203,-55.5 149.8203,-73.5 241.4209,-73.5 241.4209,-55.5 149.8203,-55.5"/>
<text text-anchor="middle" x="195.6206" y="-61.5" font-family="Helvetica,sans-Serif" font-size="10.00" fill="#000000">netinet/ip_icmp.h</text>
</g>
<!-- Node1&#45;&gt;Node26 -->
<g id="edge26" class="edge">
<title>Node1&#45;&gt;Node26</title>
<path fill="none" stroke="#191970" d="M1016.9123,-119.0286C910.2844,-117.1625 554.8031,-108.6638 251.8266,-74.1394"/>
<polygon fill="#191970" stroke="#191970" points="251.8585,-70.62 241.5237,-72.9529 251.0576,-77.5741 251.8585,-70.62"/>
</g>
<!-- Node27 -->
<g id="node28" class="node">
<title>Node27</title>
<g id="a_node28"><a xlink:href="mac2int_8h.html" target="_top" xlink:title="mac2int.h">
<polygon fill="#ffffff" stroke="#000000" points="258.9434,-55.5 258.9434,-73.5 318.2979,-73.5 318.2979,-55.5 258.9434,-55.5"/>
<text text-anchor="middle" x="288.6206" y="-61.5" font-family="Helvetica,sans-Serif" font-size="10.00" fill="#000000">mac2int.h</text>
</a>
</g>
</g>
<!-- Node1&#45;&gt;Node27 -->
<g id="edge27" class="edge">
<title>Node1&#45;&gt;Node27</title>
<path fill="none" stroke="#191970" d="M1017.178,-118.382C898.2509,-113.8037 476.3707,-95.7659 326.0454,-75.0225"/>
<polygon fill="#191970" stroke="#191970" points="326.0975,-71.4937 315.6991,-73.5245 325.0944,-78.4214 326.0975,-71.4937"/>
</g>
<!-- Node28 -->
<g id="node29" class="node">
<title>Node28</title>
<g id="a_node29"><a xlink:href="ip2int_8h.html" target="_top" xlink:title="ip2int.h">
<polygon fill="#ffffff" stroke="#000000" points="336.4976,-55.5 336.4976,-73.5 384.7437,-73.5 384.7437,-55.5 336.4976,-55.5"/>
<text text-anchor="middle" x="360.6206" y="-61.5" font-family="Helvetica,sans-Serif" font-size="10.00" fill="#000000">ip2int.h</text>
</a>
</g>
</g>
<!-- Node1&#45;&gt;Node28 -->
<g id="edge29" class="edge">
<title>Node1&#45;&gt;Node28</title>
<path fill="none" stroke="#191970" d="M1017.1037,-119.2889C922.9064,-118.2485 636.4109,-112.0822 395.1356,-74.7827"/>
<polygon fill="#191970" stroke="#191970" points="395.5506,-71.3051 385.1291,-73.2137 394.4662,-78.2206 395.5506,-71.3051"/>
</g>
<!-- Node29 -->
<g id="node30" class="node">
<title>Node29</title>
<g id="a_node30"><a xlink:href="database_8h.html" target="_top" xlink:title="database.h">
<polygon fill="#ffffff" stroke="#000000" points="1430.877,-55.5 1430.877,-73.5 1496.3643,-73.5 1496.3643,-55.5 1430.877,-55.5"/>
<text text-anchor="middle" x="1463.6206" y="-61.5" font-family="Helvetica,sans-Serif" font-size="10.00" fill="#000000">database.h</text>
</a>
</g>
</g>
<!-- Node1&#45;&gt;Node29 -->
<g id="edge31" class="edge">
<title>Node1&#45;&gt;Node29</title>
<path fill="none" stroke="#191970" d="M1080.1509,-116.334C1143.7243,-110.2578 1290.9055,-95.6181 1413.6206,-74 1415.9278,-73.5936 1418.3001,-73.1399 1420.7029,-72.6572"/>
<polygon fill="#191970" stroke="#191970" points="1421.6,-76.0451 1430.6623,-70.5564 1420.1551,-69.1958 1421.6,-76.0451"/>
</g>
<!-- Node31 -->
<g id="node32" class="node">
<title>Node31</title>
<polygon fill="#ffffff" stroke="#bfbfbf" points="440.2168,-55.5 440.2168,-73.5 499.0244,-73.5 499.0244,-55.5 440.2168,-55.5"/>
<text text-anchor="middle" x="469.6206" y="-61.5" font-family="Helvetica,sans-Serif" font-size="10.00" fill="#000000">jansson.h</text>
</g>
<!-- Node1&#45;&gt;Node31 -->
<g id="edge35" class="edge">
<title>Node1&#45;&gt;Node31</title>
<path fill="none" stroke="#191970" d="M1016.9953,-118.6184C934.709,-115.948 707.1249,-106.1566 509.3845,-74.0698"/>
<polygon fill="#191970" stroke="#191970" points="509.832,-70.5965 499.3962,-72.4257 508.6949,-77.5035 509.832,-70.5965"/>
</g>
<!-- Node32 -->
<g id="node33" class="node">
<title>Node32</title>
<g id="a_node33"><a xlink:href="libcli_8h.html" target="_top" xlink:title="libcli.h">
<polygon fill="#ffffff" stroke="#000000" points="516.7266,-55.5 516.7266,-73.5 560.5146,-73.5 560.5146,-55.5 516.7266,-55.5"/>
<text text-anchor="middle" x="538.6206" y="-61.5" font-family="Helvetica,sans-Serif" font-size="10.00" fill="#000000">libcli.h</text>
</a>
</g>
</g>
<!-- Node1&#45;&gt;Node32 -->
<g id="edge36" class="edge">
<title>Node1&#45;&gt;Node32</title>
<path fill="none" stroke="#191970" d="M1017.201,-118.7129C941.6534,-116.3554 743.8765,-107.4201 570.8796,-73.8785"/>
<polygon fill="#191970" stroke="#191970" points="571.322,-70.3984 560.8337,-71.8972 569.9674,-77.2661 571.322,-70.3984"/>
</g>
<!-- Node33 -->
<g id="node34" class="node">
<title>Node33</title>
<polygon fill="#ffffff" stroke="#bfbfbf" points="578.394,-55.5 578.394,-73.5 628.8472,-73.5 628.8472,-55.5 578.394,-55.5"/>
<text text-anchor="middle" x="603.6206" y="-61.5" font-family="Helvetica,sans-Serif" font-size="10.00" fill="#000000">mysql.h</text>
</g>
<!-- Node1&#45;&gt;Node33 -->
<g id="edge40" class="edge">
<title>Node1&#45;&gt;Node33</title>
<path fill="none" stroke="#191970" d="M1017.1663,-117.7627C949.5549,-113.6569 785.2982,-101.6914 639.1765,-74.0386"/>
<polygon fill="#191970" stroke="#191970" points="639.6153,-70.559 629.1343,-72.1076 638.2934,-77.433 639.6153,-70.559"/>
</g>
<!-- Node34 -->
<g id="node35" class="node">
<title>Node34</title>
<polygon fill="#ffffff" stroke="#bfbfbf" points="647.0049,-55.5 647.0049,-73.5 690.2363,-73.5 690.2363,-55.5 647.0049,-55.5"/>
<text text-anchor="middle" x="668.6206" y="-61.5" font-family="Helvetica,sans-Serif" font-size="10.00" fill="#000000">zmq.h</text>
</g>
<!-- Node1&#45;&gt;Node34 -->
<g id="edge41" class="edge">
<title>Node1&#45;&gt;Node34</title>
<path fill="none" stroke="#191970" d="M1017.0993,-116.6776C956.2852,-110.9357 818.6903,-96.5009 704.6206,-74 703.3364,-73.7467 702.0301,-73.474 700.7133,-73.1866"/>
<polygon fill="#191970" stroke="#191970" points="701.1424,-69.6907 690.6029,-70.7724 699.5166,-76.4993 701.1424,-69.6907"/>
</g>
<!-- Node35 -->
<g id="node36" class="node">
<title>Node35</title>
<g id="a_node36"><a xlink:href="src_2include_2type_8h.html" target="_top" xlink:title="type.h">
<polygon fill="#ffffff" stroke="#000000" points="0,-55.5 0,-73.5 43.2412,-73.5 43.2412,-55.5 0,-55.5"/>
<text text-anchor="middle" x="21.6206" y="-61.5" font-family="Helvetica,sans-Serif" font-size="10.00" fill="#000000">type.h</text>
</a>
</g>
</g>
<!-- Node1&#45;&gt;Node35 -->
<g id="edge42" class="edge">
<title>Node1&#45;&gt;Node35</title>
<path fill="none" stroke="#191970" d="M1017.2761,-119.1284C872.2396,-117.2496 264.7334,-107.5904 53.5245,-73.6294"/>
<polygon fill="#191970" stroke="#191970" points="53.9117,-70.1455 43.4702,-71.9412 52.7525,-77.0489 53.9117,-70.1455"/>
</g>
<!-- Node27&#45;&gt;Node1 -->
<g id="edge28" class="edge">
<title>Node27&#45;&gt;Node1</title>
<path fill="none" stroke="#191970" d="M318.624,-70.4104C324.6451,-71.7941 330.8334,-73.1195 336.6206,-74 467.9106,-93.9741 875.3528,-112.0372 1007.1444,-117.6831"/>
<polygon fill="#191970" stroke="#191970" points="1007.0939,-121.184 1017.2342,-118.1143 1007.3928,-114.1904 1007.0939,-121.184"/>
</g>
<!-- Node28&#45;&gt;Node1 -->
<g id="edge30" class="edge">
<title>Node28&#45;&gt;Node1</title>
<path fill="none" stroke="#191970" d="M385.0888,-69.1997C392.4706,-70.9778 400.3671,-72.8485 407.6206,-74 631.7946,-109.5867 903.868,-117.3403 1006.7069,-119.0295"/>
<polygon fill="#191970" stroke="#191970" points="1006.9271,-122.5332 1016.9796,-119.187 1007.0345,-115.534 1006.9271,-122.5332"/>
</g>
<!-- Node29&#45;&gt;Node1 -->
<g id="edge32" class="edge">
<title>Node29&#45;&gt;Node1</title>
<path fill="none" stroke="#191970" d="M1434.2348,-73.5248C1433.3567,-73.6891 1432.4841,-73.8479 1431.6206,-74 1308.7703,-95.642 1161.3998,-110.2901 1090.4993,-116.3541"/>
<polygon fill="#191970" stroke="#191970" points="1089.8702,-112.8945 1080.1985,-117.2199 1090.4565,-119.8699 1089.8702,-112.8945"/>
</g>
<!-- Node30 -->
<g id="node31" class="node">
<title>Node30</title>
<g id="a_node31"><a xlink:href="str_8h.html" target="_top" xlink:title="str.h">
<polygon fill="#ffffff" stroke="#000000" points="1179.1699,-.5 1179.1699,-18.5 1214.0713,-18.5 1214.0713,-.5 1179.1699,-.5"/>
<text text-anchor="middle" x="1196.6206" y="-6.5" font-family="Helvetica,sans-Serif" font-size="10.00" fill="#000000">str.h</text>
</a>
</g>
</g>
<!-- Node29&#45;&gt;Node30 -->
<g id="edge33" class="edge">
<title>Node29&#45;&gt;Node30</title>
<path fill="none" stroke="#191970" d="M1430.5208,-56.7438C1427.85,-56.1444 1425.1915,-55.5565 1422.6206,-55 1351.2192,-39.5438 1266.7425,-22.9969 1224.1358,-14.7724"/>
<polygon fill="#191970" stroke="#191970" points="1224.7206,-11.3208 1214.2391,-12.8665 1223.3968,-18.1945 1224.7206,-11.3208"/>
</g>
<!-- Node30&#45;&gt;Node1 -->
<g id="edge34" class="edge">
<title>Node30&#45;&gt;Node1</title>
<path fill="none" stroke="#191970" d="M1179.0661,-9.9346C1127.4892,-11.6168 978.1831,-19.5203 948.6206,-55 927.6477,-80.1709 971.0368,-98.9086 1007.0933,-109.5239"/>
<polygon fill="#191970" stroke="#191970" points="1006.4356,-112.9744 1017.0091,-112.3012 1008.3236,-106.2338 1006.4356,-112.9744"/>
</g>
<!-- Node32&#45;&gt;Node2 -->
<g id="edge38" class="edge">
<title>Node32&#45;&gt;Node2</title>
<path fill="none" stroke="#191970" d="M544.8955,-55.4179C550.1992,-47.7415 557.9511,-36.5217 564.4644,-27.0945"/>
<polygon fill="#191970" stroke="#191970" points="567.4045,-28.9963 570.2093,-18.7795 561.6454,-25.0173 567.4045,-28.9963"/>
</g>
<!-- Node32&#45;&gt;Node5 -->
<g id="edge37" class="edge">
<title>Node32&#45;&gt;Node5</title>
<path fill="none" stroke="#191970" d="M560.651,-56.0268C584.0957,-47.0096 621.4591,-32.6391 648.462,-22.2533"/>
<polygon fill="#191970" stroke="#191970" points="649.8197,-25.4811 657.8967,-18.6246 647.3068,-18.9477 649.8197,-25.4811"/>
</g>
<!-- Node32&#45;&gt;Node15 -->
<g id="edge39" class="edge">
<title>Node32&#45;&gt;Node15</title>
<path fill="none" stroke="#191970" d="M528.7128,-55.4179C519.907,-47.3458 506.8267,-35.3556 496.2406,-25.6517"/>
<polygon fill="#191970" stroke="#191970" points="498.4803,-22.9567 488.7436,-18.7795 493.7502,-28.1168 498.4803,-22.9567"/>
</g>
<!-- Node36&#45;&gt;Node1 -->
<g id="edge44" class="edge">
<title>Node36&#45;&gt;Node1</title>
<path fill="none" stroke="#191970" d="M1021.0756,-220.4982C1025.954,-202.6108 1036.9589,-162.2594 1043.486,-138.3271"/>
<polygon fill="#191970" stroke="#191970" points="1046.8771,-139.1947 1046.1317,-128.6261 1040.1237,-137.3528 1046.8771,-139.1947"/>
</g>
<!-- Node37 -->
<g id="node38" class="node">
<title>Node37</title>
<g id="a_node38"><a xlink:href="src_2include_2context_8h.html" target="_top" xlink:title="context.h">
<polygon fill="#ffffff" stroke="#000000" points="1076.3301,-165.5 1076.3301,-183.5 1132.9111,-183.5 1132.9111,-165.5 1076.3301,-165.5"/>
<text text-anchor="middle" x="1104.6206" y="-171.5" font-family="Helvetica,sans-Serif" font-size="10.00" fill="#000000">context.h</text>
</a>
</g>
</g>
<!-- Node36&#45;&gt;Node37 -->
<g id="edge45" class="edge">
<title>Node36&#45;&gt;Node37</title>
<path fill="none" stroke="#191970" d="M1032.8218,-220.4179C1046.1419,-211.8992 1066.2856,-199.0166 1081.8498,-189.0627"/>
<polygon fill="#191970" stroke="#191970" points="1083.8596,-191.932 1090.3984,-183.5956 1080.0881,-186.0348 1083.8596,-191.932"/>
</g>
<!-- Node38 -->
<g id="node39" class="node">
<title>Node38</title>
<g id="a_node39"><a xlink:href="events_2include_2event__id_8h.html" target="_top" xlink:title="event_id.h">
<polygon fill="#ffffff" stroke="#000000" points="958.5469,-165.5 958.5469,-183.5 1020.6943,-183.5 1020.6943,-165.5 958.5469,-165.5"/>
<text text-anchor="middle" x="989.6206" y="-171.5" font-family="Helvetica,sans-Serif" font-size="10.00" fill="#000000">event_id.h</text>
</a>
</g>
</g>
<!-- Node36&#45;&gt;Node38 -->
<g id="edge47" class="edge">
<title>Node36&#45;&gt;Node38</title>
<path fill="none" stroke="#191970" d="M1013.8318,-220.4179C1009.8678,-212.8998 1004.1116,-201.9829 999.2063,-192.6799"/>
<polygon fill="#191970" stroke="#191970" points="1002.2736,-190.9927 994.5134,-183.7795 996.0816,-194.2576 1002.2736,-190.9927"/>
</g>
<!-- Node39 -->
<g id="node40" class="node">
<title>Node39</title>
<g id="a_node40"><a xlink:href="events_2include_2event__list_8h.html" target="_top" xlink:title="event_list.h">
<polygon fill="#ffffff" stroke="#000000" points="443.3276,-110.5 443.3276,-128.5 509.9136,-128.5 509.9136,-110.5 443.3276,-110.5"/>
<text text-anchor="middle" x="476.6206" y="-116.5" font-family="Helvetica,sans-Serif" font-size="10.00" fill="#000000">event_list.h</text>
</a>
</g>
</g>
<!-- Node36&#45;&gt;Node39 -->
<g id="edge48" class="edge">
<title>Node36&#45;&gt;Node39</title>
<path fill="none" stroke="#191970" d="M993.9236,-224.4877C909.0612,-207.2647 628.6717,-150.3591 520.097,-128.3236"/>
<polygon fill="#191970" stroke="#191970" points="520.6348,-124.8615 510.1384,-126.3025 519.2425,-131.7216 520.6348,-124.8615"/>
</g>
<!-- Node37&#45;&gt;Node1 -->
<g id="edge46" class="edge">
<title>Node37&#45;&gt;Node1</title>
<path fill="none" stroke="#191970" d="M1095.3733,-165.4179C1087.2351,-157.425 1075.1853,-145.5903 1065.3572,-135.9377"/>
<polygon fill="#191970" stroke="#191970" points="1067.6558,-133.2895 1058.0688,-128.7795 1062.7508,-138.2836 1067.6558,-133.2895"/>
</g>
<!-- Node39&#45;&gt;Node35 -->
<g id="edge49" class="edge">
<title>Node39&#45;&gt;Node35</title>
<path fill="none" stroke="#191970" d="M443.3036,-118.0835C372.8759,-114.6291 203.6995,-103.9033 53.3755,-73.7826"/>
<polygon fill="#191970" stroke="#191970" points="54,-70.338 43.5025,-71.7704 52.6021,-77.197 54,-70.338"/>
</g>
<!-- Node41&#45;&gt;Node13 -->
<g id="edge52" class="edge">
<title>Node41&#45;&gt;Node13</title>
<path fill="none" stroke="#191970" d="M2327.8419,-110.4179C2303.4752,-101.1111 2265.4713,-86.5958 2238.728,-76.3813"/>
<polygon fill="#191970" stroke="#191970" points="2239.6723,-72.9954 2229.0816,-72.6969 2237.1746,-79.5347 2239.6723,-72.9954"/>
</g>
<!-- Node41&#45;&gt;Node14 -->
<g id="edge54" class="edge">
<title>Node41&#45;&gt;Node14</title>
<path fill="none" stroke="#191970" d="M2338.5754,-110.4179C2326.4537,-101.9788 2308.1806,-89.257 2293.9399,-79.3426"/>
<polygon fill="#191970" stroke="#191970" points="2295.892,-76.4369 2285.6852,-73.5956 2291.8924,-82.1818 2295.892,-76.4369"/>
</g>
<!-- Node41&#45;&gt;Node19 -->
<g id="edge57" class="edge">
<title>Node41&#45;&gt;Node19</title>
<path fill="none" stroke="#191970" d="M2351.6206,-110.4179C2351.6206,-103.2164 2351.6206,-92.8962 2351.6206,-83.8632"/>
<polygon fill="#191970" stroke="#191970" points="2355.1207,-83.7794 2351.6206,-73.7795 2348.1207,-83.7795 2355.1207,-83.7794"/>
</g>
<!-- Node42 -->
<g id="node43" class="node">
<title>Node42</title>
<polygon fill="#ffffff" stroke="#bfbfbf" points="2404.9385,-55.5 2404.9385,-73.5 2454.3027,-73.5 2454.3027,-55.5 2404.9385,-55.5"/>
<text text-anchor="middle" x="2429.6206" y="-61.5" font-family="Helvetica,sans-Serif" font-size="10.00" fill="#000000">netdb.h</text>
</g>
<!-- Node41&#45;&gt;Node42 -->
<g id="edge53" class="edge">
<title>Node41&#45;&gt;Node42</title>
<path fill="none" stroke="#191970" d="M2364.5007,-110.4179C2376.356,-102.0584 2394.1708,-89.4966 2408.1722,-79.6239"/>
<polygon fill="#191970" stroke="#191970" points="2410.5657,-82.2188 2416.7214,-73.5956 2406.5318,-76.498 2410.5657,-82.2188"/>
</g>
<!-- Node43 -->
<g id="node44" class="node">
<title>Node43</title>
<polygon fill="#ffffff" stroke="#bfbfbf" points="2472,-55.5 2472,-73.5 2525.2412,-73.5 2525.2412,-55.5 2472,-55.5"/>
<text text-anchor="middle" x="2498.6206" y="-61.5" font-family="Helvetica,sans-Serif" font-size="10.00" fill="#000000">sys/un.h</text>
</g>
<!-- Node41&#45;&gt;Node43 -->
<g id="edge55" class="edge">
<title>Node41&#45;&gt;Node43</title>
<path fill="none" stroke="#191970" d="M2375.8947,-110.4179C2400.1524,-101.3419 2437.6495,-87.3123 2464.8138,-77.1488"/>
<polygon fill="#191970" stroke="#191970" points="2466.1711,-80.378 2474.3105,-73.5956 2463.7181,-73.8219 2466.1711,-80.378"/>
</g>
<!-- Node44 -->
<g id="node45" class="node">
<title>Node44</title>
<polygon fill="#ffffff" stroke="#bfbfbf" points="2542.9976,-55.5 2542.9976,-73.5 2606.2437,-73.5 2606.2437,-55.5 2542.9976,-55.5"/>
<text text-anchor="middle" x="2574.6206" y="-61.5" font-family="Helvetica,sans-Serif" font-size="10.00" fill="#000000">sys/epoll.h</text>
</g>
<!-- Node41&#45;&gt;Node44 -->
<g id="edge56" class="edge">
<title>Node41&#45;&gt;Node44</title>
<path fill="none" stroke="#191970" d="M2385.006,-111.2659C2424.4883,-101.5282 2490.2314,-85.3135 2532.9982,-74.7656"/>
<polygon fill="#191970" stroke="#191970" points="2533.9445,-78.1372 2542.8155,-72.3443 2532.2683,-71.3408 2533.9445,-78.1372"/>
</g>
</g>
</svg>
