<?xml version="1.0" encoding="UTF-8" standalone="no"?>
<!DOCTYPE svg PUBLIC "-//W3C//DTD SVG 1.1//EN"
 "http://www.w3.org/Graphics/SVG/1.1/DTD/svg11.dtd">
<!-- Generated by graphviz version 2.40.1 (20161225.0304)
 -->
<!-- Title: util/include/database.h Pages: 1 -->
<svg width="2289pt" height="247pt"
 viewBox="0.00 0.00 2289.35 247.00" xmlns="http://www.w3.org/2000/svg" xmlns:xlink="http://www.w3.org/1999/xlink">
<g id="graph0" class="graph" transform="scale(1 1) rotate(0) translate(4 243)">
<title>util/include/database.h</title>
<polygon fill="#ffffff" stroke="transparent" points="-4,4 -4,-243 2285.3521,-243 2285.3521,4 -4,4"/>
<!-- Node0 -->
<g id="node1" class="node">
<title>Node0</title>
<polygon fill="#bfbfbf" stroke="#000000" points="1020.9731,-220.5 1020.9731,-238.5 1136.4897,-238.5 1136.4897,-220.5 1020.9731,-220.5"/>
<text text-anchor="middle" x="1078.7314" y="-226.5" font-family="Helvetica,sans-Serif" font-size="10.00" fill="#000000">util/include/database.h</text>
</g>
<!-- Node1 -->
<g id="node2" class="node">
<title>Node1</title>
<g id="a_node2"><a xlink:href="src_2include_2common_8h.html" target="_top" xlink:title="common.h">
<polygon fill="#ffffff" stroke="#000000" points="1047.3892,-110.5 1047.3892,-128.5 1110.0737,-128.5 1110.0737,-110.5 1047.3892,-110.5"/>
<text text-anchor="middle" x="1078.7314" y="-116.5" font-family="Helvetica,sans-Serif" font-size="10.00" fill="#000000">common.h</text>
</a>
</g>
</g>
<!-- Node0&#45;&gt;Node1 -->
<g id="edge1" class="edge">
<title>Node0&#45;&gt;Node1</title>
<path fill="none" stroke="#191970" d="M1074.8196,-220.4982C1071.5593,-202.6913 1071.1079,-162.6225 1073.4655,-138.6515"/>
<polygon fill="#191970" stroke="#191970" points="1076.9499,-138.9999 1074.797,-128.6261 1070.0108,-138.0783 1076.9499,-138.9999"/>
</g>
<!-- Node34 -->
<g id="node35" class="node">
<title>Node34</title>
<g id="a_node35"><a xlink:href="str_8h.html" target="_top" xlink:title="str.h">
<polygon fill="#ffffff" stroke="#000000" points="1115.2808,-165.5 1115.2808,-183.5 1150.1821,-183.5 1150.1821,-165.5 1115.2808,-165.5"/>
<text text-anchor="middle" x="1132.7314" y="-171.5" font-family="Helvetica,sans-Serif" font-size="10.00" fill="#000000">str.h</text>
</a>
</g>
</g>
<!-- Node0&#45;&gt;Node34 -->
<g id="edge40" class="edge">
<title>Node0&#45;&gt;Node34</title>
<path fill="none" stroke="#191970" d="M1087.6484,-220.4179C1095.496,-212.425 1107.1155,-200.5903 1116.5926,-190.9377"/>
<polygon fill="#191970" stroke="#191970" points="1119.1123,-193.3672 1123.6207,-183.7795 1114.1173,-188.463 1119.1123,-193.3672"/>
</g>
<!-- Node1&#45;&gt;Node0 -->
<g id="edge31" class="edge">
<title>Node1&#45;&gt;Node0</title>
<path fill="none" stroke="#191970" d="M1082.6659,-128.6261C1085.9132,-146.5362 1086.3515,-186.6191 1083.9809,-210.5152"/>
<polygon fill="#191970" stroke="#191970" points="1080.5024,-210.122 1082.6433,-220.4982 1087.4404,-211.0517 1080.5024,-210.122"/>
</g>
<!-- Node2 -->
<g id="node3" class="node">
<title>Node2</title>
<polygon fill="#ffffff" stroke="#bfbfbf" points="0,-.5 0,-18.5 45.4629,-18.5 45.4629,-.5 0,-.5"/>
<text text-anchor="middle" x="22.7314" y="-6.5" font-family="Helvetica,sans-Serif" font-size="10.00" fill="#000000">stdio.h</text>
</g>
<!-- Node1&#45;&gt;Node2 -->
<g id="edge2" class="edge">
<title>Node1&#45;&gt;Node2</title>
<path fill="none" stroke="#191970" d="M1047.1991,-119.1067C878.2053,-116.8746 85.827,-104.7915 44.7314,-74 30.8483,-63.5979 25.6514,-43.9524 23.7449,-29.0644"/>
<polygon fill="#191970" stroke="#191970" points="27.2079,-28.4907 22.839,-18.8386 20.2352,-29.1084 27.2079,-28.4907"/>
</g>
<!-- Node3 -->
<g id="node4" class="node">
<title>Node3</title>
<polygon fill="#ffffff" stroke="#bfbfbf" points="192.2192,-55.5 192.2192,-73.5 243.2437,-73.5 243.2437,-55.5 192.2192,-55.5"/>
<text text-anchor="middle" x="217.7314" y="-61.5" font-family="Helvetica,sans-Serif" font-size="10.00" fill="#000000">unistd.h</text>
</g>
<!-- Node1&#45;&gt;Node3 -->
<g id="edge3" class="edge">
<title>Node1&#45;&gt;Node3</title>
<path fill="none" stroke="#191970" d="M1047.1768,-118.682C918.0492,-115.196 428.8413,-100.5997 253.6783,-73.9569"/>
<polygon fill="#191970" stroke="#191970" points="254.0156,-70.4665 243.5896,-72.3503 252.9147,-77.3794 254.0156,-70.4665"/>
</g>
<!-- Node4 -->
<g id="node5" class="node">
<title>Node4</title>
<polygon fill="#ffffff" stroke="#bfbfbf" points="260.8892,-55.5 260.8892,-73.5 308.5737,-73.5 308.5737,-55.5 260.8892,-55.5"/>
<text text-anchor="middle" x="284.7314" y="-61.5" font-family="Helvetica,sans-Serif" font-size="10.00" fill="#000000">stdlib.h</text>
</g>
<!-- Node1&#45;&gt;Node4 -->
<g id="edge4" class="edge">
<title>Node1&#45;&gt;Node4</title>
<path fill="none" stroke="#191970" d="M1047.185,-118.5421C924.8788,-114.6876 481.1864,-99.3668 319.0084,-73.7752"/>
<polygon fill="#191970" stroke="#191970" points="319.177,-70.2555 308.7395,-72.0746 318.0333,-77.1614 319.177,-70.2555"/>
</g>
<!-- Node5 -->
<g id="node6" class="node">
<title>Node5</title>
<polygon fill="#ffffff" stroke="#bfbfbf" points="63.665,-.5 63.665,-18.5 115.7979,-18.5 115.7979,-.5 63.665,-.5"/>
<text text-anchor="middle" x="89.7314" y="-6.5" font-family="Helvetica,sans-Serif" font-size="10.00" fill="#000000">stdarg.h</text>
</g>
<!-- Node1&#45;&gt;Node5 -->
<g id="edge5" class="edge">
<title>Node1&#45;&gt;Node5</title>
<path fill="none" stroke="#191970" d="M1047.2791,-119.1153C896.3354,-117.1104 250.0774,-106.6694 166.7314,-74 141.2515,-64.0125 118.0742,-42.0304 103.952,-26.5134"/>
<polygon fill="#191970" stroke="#191970" points="106.3047,-23.8877 97.0808,-18.6752 101.0409,-28.5021 106.3047,-23.8877"/>
</g>
<!-- Node6 -->
<g id="node7" class="node">
<title>Node6</title>
<polygon fill="#ffffff" stroke="#bfbfbf" points="326.6108,-55.5 326.6108,-73.5 374.8521,-73.5 374.8521,-55.5 326.6108,-55.5"/>
<text text-anchor="middle" x="350.7314" y="-61.5" font-family="Helvetica,sans-Serif" font-size="10.00" fill="#000000">stdint.h</text>
</g>
<!-- Node1&#45;&gt;Node6 -->
<g id="edge6" class="edge">
<title>Node1&#45;&gt;Node6</title>
<path fill="none" stroke="#191970" d="M1047.1953,-118.3009C932.108,-113.7933 534.1789,-97.0205 385.3834,-73.6559"/>
<polygon fill="#191970" stroke="#191970" points="385.5441,-70.1353 375.108,-71.9624 384.4056,-77.0421 385.5441,-70.1353"/>
</g>
<!-- Node7 -->
<g id="node8" class="node">
<title>Node7</title>
<polygon fill="#ffffff" stroke="#bfbfbf" points="393.335,-55.5 393.335,-73.5 442.1279,-73.5 442.1279,-55.5 393.335,-55.5"/>
<text text-anchor="middle" x="417.7314" y="-61.5" font-family="Helvetica,sans-Serif" font-size="10.00" fill="#000000">string.h</text>
</g>
<!-- Node1&#45;&gt;Node7 -->
<g id="edge7" class="edge">
<title>Node1&#45;&gt;Node7</title>
<path fill="none" stroke="#191970" d="M1047.1959,-118.0846C939.4936,-113.1186 585.9513,-95.6957 452.4455,-73.9289"/>
<polygon fill="#191970" stroke="#191970" points="452.915,-70.4584 442.4674,-72.219 451.7326,-77.3578 452.915,-70.4584"/>
</g>
<!-- Node8 -->
<g id="node9" class="node">
<title>Node8</title>
<polygon fill="#ffffff" stroke="#bfbfbf" points="459.835,-55.5 459.835,-73.5 513.6279,-73.5 513.6279,-55.5 459.835,-55.5"/>
<text text-anchor="middle" x="486.7314" y="-61.5" font-family="Helvetica,sans-Serif" font-size="10.00" fill="#000000">strings.h</text>
</g>
<!-- Node1&#45;&gt;Node8 -->
<g id="edge8" class="edge">
<title>Node1&#45;&gt;Node8</title>
<path fill="none" stroke="#191970" d="M1047.1374,-118.8614C963.2733,-116.7548 728.0721,-108.1672 523.7585,-73.8808"/>
<polygon fill="#191970" stroke="#191970" points="524.1916,-70.4043 513.7459,-72.1755 523.0163,-77.3049 524.1916,-70.4043"/>
</g>
<!-- Node9 -->
<g id="node10" class="node">
<title>Node9</title>
<polygon fill="#ffffff" stroke="#bfbfbf" points="531.6035,-55.5 531.6035,-73.5 589.8594,-73.5 589.8594,-55.5 531.6035,-55.5"/>
<text text-anchor="middle" x="560.7314" y="-61.5" font-family="Helvetica,sans-Serif" font-size="10.00" fill="#000000">pthread.h</text>
</g>
<!-- Node1&#45;&gt;Node9 -->
<g id="edge9" class="edge">
<title>Node1&#45;&gt;Node9</title>
<path fill="none" stroke="#191970" d="M1047.3495,-118.1614C971.8705,-114.5945 774.1434,-103.1866 600.1993,-74.0238"/>
<polygon fill="#191970" stroke="#191970" points="600.5425,-70.532 590.0972,-72.3053 599.3685,-77.4329 600.5425,-70.532"/>
</g>
<!-- Node10 -->
<g id="node11" class="node">
<title>Node10</title>
<polygon fill="#ffffff" stroke="#bfbfbf" points="607.6108,-55.5 607.6108,-73.5 655.8521,-73.5 655.8521,-55.5 607.6108,-55.5"/>
<text text-anchor="middle" x="631.7314" y="-61.5" font-family="Helvetica,sans-Serif" font-size="10.00" fill="#000000">ctype.h</text>
</g>
<!-- Node1&#45;&gt;Node10 -->
<g id="edge10" class="edge">
<title>Node1&#45;&gt;Node10</title>
<path fill="none" stroke="#191970" d="M1047.2937,-117.8817C979.3224,-113.9919 813.5688,-102.4016 666.2501,-74.0096"/>
<polygon fill="#191970" stroke="#191970" points="666.6123,-70.5141 656.1258,-72.0258 665.2662,-77.3834 666.6123,-70.5141"/>
</g>
<!-- Node11 -->
<g id="node12" class="node">
<title>Node11</title>
<polygon fill="#ffffff" stroke="#bfbfbf" points="673.8892,-55.5 673.8892,-73.5 721.5737,-73.5 721.5737,-55.5 673.8892,-55.5"/>
<text text-anchor="middle" x="697.7314" y="-61.5" font-family="Helvetica,sans-Serif" font-size="10.00" fill="#000000">errno.h</text>
</g>
<!-- Node1&#45;&gt;Node11 -->
<g id="edge11" class="edge">
<title>Node1&#45;&gt;Node11</title>
<path fill="none" stroke="#191970" d="M1047.164,-117.0771C987.2206,-112.1143 852.7292,-99.2474 731.5526,-74.1397"/>
<polygon fill="#191970" stroke="#191970" points="732.2455,-70.7089 721.7388,-72.0729 730.8028,-77.5587 732.2455,-70.7089"/>
</g>
<!-- Node12 -->
<g id="node13" class="node">
<title>Node12</title>
<polygon fill="#ffffff" stroke="#bfbfbf" points="739.1157,-55.5 739.1157,-73.5 782.3472,-73.5 782.3472,-55.5 739.1157,-55.5"/>
<text text-anchor="middle" x="760.7314" y="-61.5" font-family="Helvetica,sans-Serif" font-size="10.00" fill="#000000">time.h</text>
</g>
<!-- Node1&#45;&gt;Node12 -->
<g id="edge12" class="edge">
<title>Node1&#45;&gt;Node12</title>
<path fill="none" stroke="#191970" d="M1047.0265,-115.9483C995.5391,-109.8631 890.4561,-96.1253 792.4125,-73.8813"/>
<polygon fill="#191970" stroke="#191970" points="793.1743,-70.4652 782.6437,-71.6308 791.6027,-77.2865 793.1743,-70.4652"/>
</g>
<!-- Node13 -->
<g id="node14" class="node">
<title>Node13</title>
<polygon fill="#ffffff" stroke="#bfbfbf" points="800.3916,-55.5 800.3916,-73.5 843.0713,-73.5 843.0713,-55.5 800.3916,-55.5"/>
<text text-anchor="middle" x="821.7314" y="-61.5" font-family="Helvetica,sans-Serif" font-size="10.00" fill="#000000">fcntl.h</text>
</g>
<!-- Node1&#45;&gt;Node13 -->
<g id="edge13" class="edge">
<title>Node1&#45;&gt;Node13</title>
<path fill="none" stroke="#191970" d="M1047.068,-114.1436C1005.0406,-106.8132 928.3606,-92.6738 853.4158,-73.9655"/>
<polygon fill="#191970" stroke="#191970" points="853.8877,-70.4748 843.3349,-71.4182 852.1727,-77.2615 853.8877,-70.4748"/>
</g>
<!-- Node14 -->
<g id="node15" class="node">
<title>Node14</title>
<polygon fill="#ffffff" stroke="#bfbfbf" points="861.4976,-55.5 861.4976,-73.5 911.9653,-73.5 911.9653,-55.5 861.4976,-55.5"/>
<text text-anchor="middle" x="886.7314" y="-61.5" font-family="Helvetica,sans-Serif" font-size="10.00" fill="#000000">signal.h</text>
</g>
<!-- Node1&#45;&gt;Node14 -->
<g id="edge14" class="edge">
<title>Node1&#45;&gt;Node14</title>
<path fill="none" stroke="#191970" d="M1047.0266,-110.4179C1012.6124,-100.5597 957.7969,-84.8573 922.0345,-74.6128"/>
<polygon fill="#191970" stroke="#191970" points="922.616,-71.1387 912.0388,-71.7495 920.6883,-77.8681 922.616,-71.1387"/>
</g>
<!-- Node15 -->
<g id="node16" class="node">
<title>Node15</title>
<polygon fill="#ffffff" stroke="#bfbfbf" points="134.2266,-.5 134.2266,-18.5 195.2363,-18.5 195.2363,-.5 134.2266,-.5"/>
<text text-anchor="middle" x="164.7314" y="-6.5" font-family="Helvetica,sans-Serif" font-size="10.00" fill="#000000">sys/time.h</text>
</g>
<!-- Node1&#45;&gt;Node15 -->
<g id="edge15" class="edge">
<title>Node1&#45;&gt;Node15</title>
<path fill="none" stroke="#191970" d="M1047.1515,-118.924C892.0659,-115.9665 217.1678,-101.5464 182.7314,-74 169.42,-63.3519 165.4521,-43.7422 164.4914,-28.9296"/>
<polygon fill="#191970" stroke="#191970" points="167.9862,-28.6749 164.238,-18.7653 160.9884,-28.8495 167.9862,-28.6749"/>
</g>
<!-- Node16 -->
<g id="node17" class="node">
<title>Node16</title>
<polygon fill="#ffffff" stroke="#bfbfbf" points="929.6133,-55.5 929.6133,-73.5 987.8496,-73.5 987.8496,-55.5 929.6133,-55.5"/>
<text text-anchor="middle" x="958.7314" y="-61.5" font-family="Helvetica,sans-Serif" font-size="10.00" fill="#000000">sys/stat.h</text>
</g>
<!-- Node1&#45;&gt;Node16 -->
<g id="edge16" class="edge">
<title>Node1&#45;&gt;Node16</title>
<path fill="none" stroke="#191970" d="M1058.9159,-110.4179C1039.5479,-101.5409 1009.8411,-87.9253 987.7997,-77.823"/>
<polygon fill="#191970" stroke="#191970" points="989.1254,-74.5805 978.5764,-73.5956 986.2088,-80.944 989.1254,-74.5805"/>
</g>
<!-- Node17 -->
<g id="node18" class="node">
<title>Node17</title>
<polygon fill="#ffffff" stroke="#bfbfbf" points="1005.7217,-55.5 1005.7217,-73.5 1071.7412,-73.5 1071.7412,-55.5 1005.7217,-55.5"/>
<text text-anchor="middle" x="1038.7314" y="-61.5" font-family="Helvetica,sans-Serif" font-size="10.00" fill="#000000">sys/types.h</text>
</g>
<!-- Node1&#45;&gt;Node17 -->
<g id="edge17" class="edge">
<title>Node1&#45;&gt;Node17</title>
<path fill="none" stroke="#191970" d="M1072.1263,-110.4179C1066.5435,-102.7415 1058.3836,-91.5217 1051.5274,-82.0945"/>
<polygon fill="#191970" stroke="#191970" points="1054.1925,-79.8082 1045.4801,-73.7795 1048.5313,-83.9255 1054.1925,-79.8082"/>
</g>
<!-- Node18 -->
<g id="node19" class="node">
<title>Node18</title>
<polygon fill="#ffffff" stroke="#bfbfbf" points="1089.7808,-55.5 1089.7808,-73.5 1149.6821,-73.5 1149.6821,-55.5 1089.7808,-55.5"/>
<text text-anchor="middle" x="1119.7314" y="-61.5" font-family="Helvetica,sans-Serif" font-size="10.00" fill="#000000">sys/ioctl.h</text>
</g>
<!-- Node1&#45;&gt;Node18 -->
<g id="edge18" class="edge">
<title>Node1&#45;&gt;Node18</title>
<path fill="none" stroke="#191970" d="M1085.5018,-110.4179C1091.2831,-102.6624 1099.7607,-91.29 1106.8325,-81.8035"/>
<polygon fill="#191970" stroke="#191970" points="1109.6435,-83.8888 1112.814,-73.7795 1104.0312,-79.7051 1109.6435,-83.8888"/>
</g>
<!-- Node19 -->
<g id="node20" class="node">
<title>Node19</title>
<polygon fill="#ffffff" stroke="#bfbfbf" points="1167.2217,-55.5 1167.2217,-73.5 1238.2412,-73.5 1238.2412,-55.5 1167.2217,-55.5"/>
<text text-anchor="middle" x="1202.7314" y="-61.5" font-family="Helvetica,sans-Serif" font-size="10.00" fill="#000000">sys/socket.h</text>
</g>
<!-- Node1&#45;&gt;Node19 -->
<g id="edge19" class="edge">
<title>Node1&#45;&gt;Node19</title>
<path fill="none" stroke="#191970" d="M1099.2075,-110.4179C1119.3108,-101.5011 1150.1937,-87.803 1173.0002,-77.6873"/>
<polygon fill="#191970" stroke="#191970" points="1174.5029,-80.8496 1182.2249,-73.5956 1171.6647,-74.4508 1174.5029,-80.8496"/>
</g>
<!-- Node20 -->
<g id="node21" class="node">
<title>Node20</title>
<polygon fill="#ffffff" stroke="#bfbfbf" points="1256.1108,-55.5 1256.1108,-73.5 1329.3521,-73.5 1329.3521,-55.5 1256.1108,-55.5"/>
<text text-anchor="middle" x="1292.7314" y="-61.5" font-family="Helvetica,sans-Serif" font-size="10.00" fill="#000000">sys/sysinfo.h</text>
</g>
<!-- Node1&#45;&gt;Node20 -->
<g id="edge20" class="edge">
<title>Node1&#45;&gt;Node20</title>
<path fill="none" stroke="#191970" d="M1110.3079,-111.3846C1146.6121,-102.054 1206.4856,-86.666 1247.6769,-76.0794"/>
<polygon fill="#191970" stroke="#191970" points="1248.6472,-79.4439 1257.4612,-73.5648 1246.9047,-72.6642 1248.6472,-79.4439"/>
</g>
<!-- Node21 -->
<g id="node22" class="node">
<title>Node21</title>
<polygon fill="#ffffff" stroke="#bfbfbf" points="1347.1035,-55.5 1347.1035,-73.5 1410.3594,-73.5 1410.3594,-55.5 1347.1035,-55.5"/>
<text text-anchor="middle" x="1378.7314" y="-61.5" font-family="Helvetica,sans-Serif" font-size="10.00" fill="#000000">arpa/inet.h</text>
</g>
<!-- Node1&#45;&gt;Node21 -->
<g id="edge21" class="edge">
<title>Node1&#45;&gt;Node21</title>
<path fill="none" stroke="#191970" d="M1110.4656,-114.5756C1157.7401,-107.1034 1249.6697,-92.0496 1336.8386,-74.3065"/>
<polygon fill="#191970" stroke="#191970" points="1337.8006,-77.6821 1346.893,-72.2434 1336.3935,-70.825 1337.8006,-77.6821"/>
</g>
<!-- Node22 -->
<g id="node23" class="node">
<title>Node22</title>
<polygon fill="#ffffff" stroke="#bfbfbf" points="1428.2686,-55.5 1428.2686,-73.5 1493.1943,-73.5 1493.1943,-55.5 1428.2686,-55.5"/>
<text text-anchor="middle" x="1460.7314" y="-61.5" font-family="Helvetica,sans-Serif" font-size="10.00" fill="#000000">netinet/in.h</text>
</g>
<!-- Node1&#45;&gt;Node22 -->
<g id="edge22" class="edge">
<title>Node1&#45;&gt;Node22</title>
<path fill="none" stroke="#191970" d="M1110.387,-116.2932C1169.1526,-110.1215 1299.2487,-95.435 1418.1191,-74.1615"/>
<polygon fill="#191970" stroke="#191970" points="1418.8993,-77.5773 1428.1159,-72.3518 1417.6523,-70.6892 1418.8993,-77.5773"/>
</g>
<!-- Node23 -->
<g id="node24" class="node">
<title>Node23</title>
<polygon fill="#ffffff" stroke="#bfbfbf" points="1510.8745,-55.5 1510.8745,-73.5 1588.5884,-73.5 1588.5884,-55.5 1510.8745,-55.5"/>
<text text-anchor="middle" x="1549.7314" y="-61.5" font-family="Helvetica,sans-Serif" font-size="10.00" fill="#000000">net/ethernet.h</text>
</g>
<!-- Node1&#45;&gt;Node23 -->
<g id="edge23" class="edge">
<title>Node1&#45;&gt;Node23</title>
<path fill="none" stroke="#191970" d="M1110.1627,-117.0743C1179.0302,-111.5551 1348.568,-96.8554 1500.7516,-74.0293"/>
<polygon fill="#191970" stroke="#191970" points="1501.3867,-77.4731 1510.7493,-72.5141 1500.3377,-70.5522 1501.3867,-77.4731"/>
</g>
<!-- Node24 -->
<g id="node25" class="node">
<title>Node24</title>
<polygon fill="#ffffff" stroke="#bfbfbf" points="1606.2686,-55.5 1606.2686,-73.5 1671.1943,-73.5 1671.1943,-55.5 1606.2686,-55.5"/>
<text text-anchor="middle" x="1638.7314" y="-61.5" font-family="Helvetica,sans-Serif" font-size="10.00" fill="#000000">netinet/ip.h</text>
</g>
<!-- Node1&#45;&gt;Node24 -->
<g id="edge24" class="edge">
<title>Node1&#45;&gt;Node24</title>
<path fill="none" stroke="#191970" d="M1110.2178,-118.2791C1189.9881,-114.8593 1406.5882,-103.5388 1595.9987,-74.0849"/>
<polygon fill="#191970" stroke="#191970" points="1596.8059,-77.5009 1606.1388,-72.4864 1595.7158,-70.5863 1596.8059,-77.5009"/>
</g>
<!-- Node25 -->
<g id="node26" class="node">
<title>Node25</title>
<polygon fill="#ffffff" stroke="#bfbfbf" points="1689.4902,-55.5 1689.4902,-73.5 1759.9727,-73.5 1759.9727,-55.5 1689.4902,-55.5"/>
<text text-anchor="middle" x="1724.7314" y="-61.5" font-family="Helvetica,sans-Serif" font-size="10.00" fill="#000000">netinet/tcp.h</text>
</g>
<!-- Node1&#45;&gt;Node25 -->
<g id="edge25" class="edge">
<title>Node1&#45;&gt;Node25</title>
<path fill="none" stroke="#191970" d="M1110.1737,-118.5877C1198.3466,-115.7188 1455.547,-105.223 1679.4728,-73.8267"/>
<polygon fill="#191970" stroke="#191970" points="1680.0279,-77.2831 1689.4368,-72.4126 1679.0442,-70.3526 1680.0279,-77.2831"/>
</g>
<!-- Node26 -->
<g id="node27" class="node">
<title>Node26</title>
<polygon fill="#ffffff" stroke="#bfbfbf" points="1777.9312,-55.5 1777.9312,-73.5 1869.5317,-73.5 1869.5317,-55.5 1777.9312,-55.5"/>
<text text-anchor="middle" x="1823.7314" y="-61.5" font-family="Helvetica,sans-Serif" font-size="10.00" fill="#000000">netinet/ip_icmp.h</text>
</g>
<!-- Node1&#45;&gt;Node26 -->
<g id="edge26" class="edge">
<title>Node1&#45;&gt;Node26</title>
<path fill="none" stroke="#191970" d="M1110.1307,-118.6058C1206.6942,-115.6072 1507.926,-104.3996 1767.862,-73.9764"/>
<polygon fill="#191970" stroke="#191970" points="1768.3484,-77.4433 1777.8682,-72.7932 1767.5264,-70.4918 1768.3484,-77.4433"/>
</g>
<!-- Node27 -->
<g id="node28" class="node">
<title>Node27</title>
<g id="a_node28"><a xlink:href="mac2int_8h.html" target="_top" xlink:title="mac2int.h">
<polygon fill="#ffffff" stroke="#000000" points="1887.0542,-55.5 1887.0542,-73.5 1946.4087,-73.5 1946.4087,-55.5 1887.0542,-55.5"/>
<text text-anchor="middle" x="1916.7314" y="-61.5" font-family="Helvetica,sans-Serif" font-size="10.00" fill="#000000">mac2int.h</text>
</a>
</g>
</g>
<!-- Node1&#45;&gt;Node27 -->
<g id="edge27" class="edge">
<title>Node1&#45;&gt;Node27</title>
<path fill="none" stroke="#191970" d="M1110.3503,-118.3886C1238.5516,-113.995 1718.7895,-96.951 1869.7314,-74 1872.0572,-73.6464 1874.4483,-73.2148 1876.8668,-72.7329"/>
<polygon fill="#191970" stroke="#191970" points="1877.849,-76.1007 1886.8664,-70.5386 1876.3485,-69.2634 1877.849,-76.1007"/>
</g>
<!-- Node28 -->
<g id="node29" class="node">
<title>Node28</title>
<g id="a_node29"><a xlink:href="ip2int_8h.html" target="_top" xlink:title="ip2int.h">
<polygon fill="#ffffff" stroke="#000000" points="1964.6084,-55.5 1964.6084,-73.5 2012.8545,-73.5 2012.8545,-55.5 1964.6084,-55.5"/>
<text text-anchor="middle" x="1988.7314" y="-61.5" font-family="Helvetica,sans-Serif" font-size="10.00" fill="#000000">ip2int.h</text>
</a>
</g>
</g>
<!-- Node1&#45;&gt;Node28 -->
<g id="edge29" class="edge">
<title>Node1&#45;&gt;Node28</title>
<path fill="none" stroke="#191970" d="M1110.438,-118.7536C1246.5049,-115.555 1780.391,-101.8805 1946.7314,-74 1949.201,-73.5861 1951.7484,-73.0523 1954.3215,-72.4491"/>
<polygon fill="#191970" stroke="#191970" points="1955.4531,-75.7718 1964.2623,-69.8854 1953.705,-68.9936 1955.4531,-75.7718"/>
</g>
<!-- Node29 -->
<g id="node30" class="node">
<title>Node29</title>
<polygon fill="#ffffff" stroke="#bfbfbf" points="2031.3276,-55.5 2031.3276,-73.5 2090.1353,-73.5 2090.1353,-55.5 2031.3276,-55.5"/>
<text text-anchor="middle" x="2060.7314" y="-61.5" font-family="Helvetica,sans-Serif" font-size="10.00" fill="#000000">jansson.h</text>
</g>
<!-- Node1&#45;&gt;Node29 -->
<g id="edge32" class="edge">
<title>Node1&#45;&gt;Node29</title>
<path fill="none" stroke="#191970" d="M1110.2553,-118.7874C1250.578,-115.4935 1819.9153,-100.8096 2020.8905,-73.7734"/>
<polygon fill="#191970" stroke="#191970" points="2021.6177,-77.2057 2031.0353,-72.3519 2020.6463,-70.2735 2021.6177,-77.2057"/>
</g>
<!-- Node30 -->
<g id="node31" class="node">
<title>Node30</title>
<g id="a_node31"><a xlink:href="libcli_8h.html" target="_top" xlink:title="libcli.h">
<polygon fill="#ffffff" stroke="#000000" points="53.8374,-55.5 53.8374,-73.5 97.6255,-73.5 97.6255,-55.5 53.8374,-55.5"/>
<text text-anchor="middle" x="75.7314" y="-61.5" font-family="Helvetica,sans-Serif" font-size="10.00" fill="#000000">libcli.h</text>
</a>
</g>
</g>
<!-- Node1&#45;&gt;Node30 -->
<g id="edge33" class="edge">
<title>Node1&#45;&gt;Node30</title>
<path fill="none" stroke="#191970" d="M1047.3661,-118.9142C902.6315,-116.0747 298.4052,-102.6929 111.7314,-74 110.4377,-73.8011 109.1234,-73.5743 107.7998,-73.3251"/>
<polygon fill="#191970" stroke="#191970" points="108.1823,-69.8248 97.6611,-71.0725 106.6639,-76.6582 108.1823,-69.8248"/>
</g>
<!-- Node31 -->
<g id="node32" class="node">
<title>Node31</title>
<polygon fill="#ffffff" stroke="#bfbfbf" points="2108.5049,-55.5 2108.5049,-73.5 2158.958,-73.5 2158.958,-55.5 2108.5049,-55.5"/>
<text text-anchor="middle" x="2133.7314" y="-61.5" font-family="Helvetica,sans-Serif" font-size="10.00" fill="#000000">mysql.h</text>
</g>
<!-- Node1&#45;&gt;Node31 -->
<g id="edge37" class="edge">
<title>Node1&#45;&gt;Node31</title>
<path fill="none" stroke="#191970" d="M1110.3077,-119.0286C1257.9038,-116.6844 1881.3498,-105.1844 2098.2403,-73.6292"/>
<polygon fill="#191970" stroke="#191970" points="2098.8949,-77.0701 2108.2576,-72.1114 2097.8461,-70.1491 2098.8949,-77.0701"/>
</g>
<!-- Node32 -->
<g id="node33" class="node">
<title>Node32</title>
<polygon fill="#ffffff" stroke="#bfbfbf" points="2177.1157,-55.5 2177.1157,-73.5 2220.3472,-73.5 2220.3472,-55.5 2177.1157,-55.5"/>
<text text-anchor="middle" x="2198.7314" y="-61.5" font-family="Helvetica,sans-Serif" font-size="10.00" fill="#000000">zmq.h</text>
</g>
<!-- Node1&#45;&gt;Node32 -->
<g id="edge38" class="edge">
<title>Node1&#45;&gt;Node32</title>
<path fill="none" stroke="#191970" d="M1110.1083,-119.2695C1263.5275,-117.9801 1936.271,-110.4095 2166.8946,-73.6127"/>
<polygon fill="#191970" stroke="#191970" points="2167.5931,-77.0447 2176.8838,-71.9521 2166.4452,-70.1394 2167.5931,-77.0447"/>
</g>
<!-- Node33 -->
<g id="node34" class="node">
<title>Node33</title>
<g id="a_node34"><a xlink:href="src_2include_2type_8h.html" target="_top" xlink:title="type.h">
<polygon fill="#ffffff" stroke="#000000" points="2238.1108,-55.5 2238.1108,-73.5 2281.3521,-73.5 2281.3521,-55.5 2238.1108,-55.5"/>
<text text-anchor="middle" x="2259.7314" y="-61.5" font-family="Helvetica,sans-Serif" font-size="10.00" fill="#000000">type.h</text>
</a>
</g>
</g>
<!-- Node1&#45;&gt;Node33 -->
<g id="edge39" class="edge">
<title>Node1&#45;&gt;Node33</title>
<path fill="none" stroke="#191970" d="M1110.2854,-119.3893C1269.3726,-118.6609 1985.0983,-113.312 2227.7831,-73.8616"/>
<polygon fill="#191970" stroke="#191970" points="2228.6696,-77.2614 2237.9447,-72.1405 2227.5006,-70.3597 2228.6696,-77.2614"/>
</g>
<!-- Node27&#45;&gt;Node1 -->
<g id="edge28" class="edge">
<title>Node27&#45;&gt;Node1</title>
<path fill="none" stroke="#191970" d="M1890.5817,-73.5342C1889.6246,-73.701 1888.6727,-73.8569 1887.7314,-74 1737.9588,-96.7732 1263.9725,-113.7305 1120.3082,-118.2842"/>
<polygon fill="#191970" stroke="#191970" points="1120.0388,-114.7908 1110.1534,-118.6027 1120.2583,-121.7874 1120.0388,-114.7908"/>
</g>
<!-- Node28&#45;&gt;Node1 -->
<g id="edge30" class="edge">
<title>Node28&#45;&gt;Node1</title>
<path fill="none" stroke="#191970" d="M1967.2221,-73.548C1966.3865,-73.7107 1965.5546,-73.862 1964.7314,-74 1799.7199,-101.6577 1273.0119,-115.3356 1120.4313,-118.675"/>
<polygon fill="#191970" stroke="#191970" points="1120.0244,-115.1828 1110.1022,-118.8976 1120.1753,-122.1812 1120.0244,-115.1828"/>
</g>
<!-- Node30&#45;&gt;Node2 -->
<g id="edge35" class="edge">
<title>Node30&#45;&gt;Node2</title>
<path fill="none" stroke="#191970" d="M66.9796,-55.4179C59.3536,-47.5041 48.0985,-35.8243 38.8484,-26.2251"/>
<polygon fill="#191970" stroke="#191970" points="41.1327,-23.5516 31.6735,-18.7795 36.0921,-28.4089 41.1327,-23.5516"/>
</g>
<!-- Node30&#45;&gt;Node5 -->
<g id="edge34" class="edge">
<title>Node30&#45;&gt;Node5</title>
<path fill="none" stroke="#191970" d="M78.0433,-55.4179C79.8965,-48.1372 82.5612,-37.669 84.8783,-28.5659"/>
<polygon fill="#191970" stroke="#191970" points="88.2944,-29.3338 87.3694,-18.7795 81.5107,-27.607 88.2944,-29.3338"/>
</g>
<!-- Node30&#45;&gt;Node15 -->
<g id="edge36" class="edge">
<title>Node30&#45;&gt;Node15</title>
<path fill="none" stroke="#191970" d="M90.428,-55.4179C104.2128,-46.8992 125.0592,-34.0166 141.1663,-24.0627"/>
<polygon fill="#191970" stroke="#191970" points="143.3463,-26.83 150.0131,-18.5956 139.6664,-20.8753 143.3463,-26.83"/>
</g>
<!-- Node34&#45;&gt;Node1 -->
<g id="edge41" class="edge">
<title>Node34&#45;&gt;Node1</title>
<path fill="none" stroke="#191970" d="M1123.8144,-165.4179C1115.9669,-157.425 1104.3474,-145.5903 1094.8703,-135.9377"/>
<polygon fill="#191970" stroke="#191970" points="1097.3456,-133.463 1087.8422,-128.7795 1092.3506,-138.3672 1097.3456,-133.463"/>
</g>
</g>
</svg>
