<?xml version="1.0" encoding="UTF-8" standalone="no"?>
<!DOCTYPE svg PUBLIC "-//W3C//DTD SVG 1.1//EN"
 "http://www.w3.org/Graphics/SVG/1.1/DTD/svg11.dtd">
<!-- Generated by graphviz version 2.40.1 (20161225.0304)
 -->
<!-- Title: app_events Pages: 1 -->
<svg width="194pt" height="204pt"
 viewBox="0.00 0.00 194.00 204.00" xmlns="http://www.w3.org/2000/svg" xmlns:xlink="http://www.w3.org/1999/xlink">
<g id="graph0" class="graph" transform="scale(1 1) rotate(0) translate(4 200)">
<title>app_events</title>
<polygon fill="#ffffff" stroke="transparent" points="-4,4 -4,-200 190,-200 190,4 -4,4"/>
<g id="clust1" class="cluster">
<title>clusterdir_25b35af5d6fe939e26498b93aa0ed469</title>
<g id="a_clust1"><a xlink:href="dir_25b35af5d6fe939e26498b93aa0ed469.html" target="_top">
<polygon fill="#eeeeff" stroke="#000000" points="8,-64 8,-188 92,-188 92,-64 8,-64"/>
</a>
</g>
</g>
<!-- dir_25b35af5d6fe939e26498b93aa0ed469 -->
<g id="node1" class="node">
<title>dir_25b35af5d6fe939e26498b93aa0ed469</title>
<text text-anchor="middle" x="50" y="-159" font-family="Helvetica,sans-Serif" font-size="10.00" fill="#000000">app_events</text>
</g>
<!-- dir_e0bcca101b3d6ab550a1a21801861a65 -->
<g id="node2" class="node">
<title>dir_e0bcca101b3d6ab550a1a21801861a65</title>
<g id="a_node2"><a xlink:href="dir_e0bcca101b3d6ab550a1a21801861a65.html" target="_top" xlink:title="include">
<polygon fill="#ffffff" stroke="#000000" points="82,-108 28,-108 28,-72 82,-72 82,-108"/>
<text text-anchor="middle" x="55" y="-87" font-family="Helvetica,sans-Serif" font-size="10.00" fill="#000000">include</text>
</a>
</g>
</g>
<!-- dir_25b35af5d6fe939e26498b93aa0ed469&#45;&gt;dir_e0bcca101b3d6ab550a1a21801861a65 -->
<g id="edge8" class="edge">
<title>dir_25b35af5d6fe939e26498b93aa0ed469&#45;&gt;dir_e0bcca101b3d6ab550a1a21801861a65</title>
<path fill="none" stroke="#000000" d="M51.2617,-143.8314C51.7965,-136.131 52.4323,-126.9743 53.0266,-118.4166"/>
<polygon fill="#000000" stroke="#000000" points="56.52,-118.6317 53.7213,-108.4133 49.5368,-118.1467 56.52,-118.6317"/>
<g id="a_edge8&#45;headlabel"><a xlink:href="dir_000000_000003.html" target="_top" xlink:title="3">
<text text-anchor="middle" x="59.1035" y="-119.4144" font-family="Helvetica,sans-Serif" font-size="10.00" fill="#000000">3</text>
</a>
</g>
</g>
<!-- dir_68267d1309a1af8e8297ef4c3efbcdba -->
<g id="node3" class="node">
<title>dir_68267d1309a1af8e8297ef4c3efbcdba</title>
<g id="a_node3"><a xlink:href="dir_68267d1309a1af8e8297ef4c3efbcdba.html" target="_top" xlink:title="src">
<polygon fill="#ffffff" stroke="#ff0000" points="156,-180 102,-180 102,-144 156,-144 156,-180"/>
<text text-anchor="middle" x="129" y="-159" font-family="Helvetica,sans-Serif" font-size="10.00" fill="#000000">src</text>
</a>
</g>
</g>
<!-- dir_25b35af5d6fe939e26498b93aa0ed469&#45;&gt;dir_68267d1309a1af8e8297ef4c3efbcdba -->
<g id="edge6" class="edge">
<title>dir_25b35af5d6fe939e26498b93aa0ed469&#45;&gt;dir_68267d1309a1af8e8297ef4c3efbcdba</title>
<path fill="none" stroke="#000000" d="M83.9453,-162C86.5632,-162 89.1812,-162 91.7991,-162"/>
<polygon fill="#000000" stroke="#000000" points="91.8968,-165.5001 101.8968,-162 91.8968,-158.5001 91.8968,-165.5001"/>
<g id="a_edge6&#45;headlabel"><a xlink:href="dir_000000_000020.html" target="_top" xlink:title="5">
<text text-anchor="middle" x="88.3022" y="-165.3393" font-family="Helvetica,sans-Serif" font-size="10.00" fill="#000000">5</text>
</a>
</g>
</g>
<!-- dir_7d604191edc08013a26f918aa8ef79ad -->
<g id="node5" class="node">
<title>dir_7d604191edc08013a26f918aa8ef79ad</title>
<g id="a_node5"><a xlink:href="dir_7d604191edc08013a26f918aa8ef79ad.html" target="_top" xlink:title="events">
<polygon fill="#ffffff" stroke="#ff0000" points="154,-108 100,-108 100,-72 154,-72 154,-108"/>
<text text-anchor="middle" x="127" y="-87" font-family="Helvetica,sans-Serif" font-size="10.00" fill="#000000">events</text>
</a>
</g>
</g>
<!-- dir_25b35af5d6fe939e26498b93aa0ed469&#45;&gt;dir_7d604191edc08013a26f918aa8ef79ad -->
<g id="edge7" class="edge">
<title>dir_25b35af5d6fe939e26498b93aa0ed469&#45;&gt;dir_7d604191edc08013a26f918aa8ef79ad</title>
<path fill="none" stroke="#000000" d="M69.4304,-143.8314C78.732,-135.1337 90.0204,-124.5783 100.1286,-115.1265"/>
<polygon fill="#000000" stroke="#000000" points="102.6621,-117.5493 107.5759,-108.1628 97.8811,-112.4363 102.6621,-117.5493"/>
<g id="a_edge7&#45;headlabel"><a xlink:href="dir_000000_000016.html" target="_top" xlink:title="2">
<text text-anchor="middle" x="101.9757" y="-119.0782" font-family="Helvetica,sans-Serif" font-size="10.00" fill="#000000">2</text>
</a>
</g>
</g>
<!-- dir_e0bcca101b3d6ab550a1a21801861a65&#45;&gt;dir_68267d1309a1af8e8297ef4c3efbcdba -->
<g id="edge11" class="edge">
<title>dir_e0bcca101b3d6ab550a1a21801861a65&#45;&gt;dir_68267d1309a1af8e8297ef4c3efbcdba</title>
<path fill="none" stroke="#000000" d="M67.9487,-108.4133C76.0263,-117.0787 86.6215,-127.5464 96.7598,-136.9223"/>
<polygon fill="#000000" stroke="#000000" points="94.6166,-139.7037 104.3743,-143.8314 99.3204,-134.5196 94.6166,-139.7037"/>
<g id="a_edge11&#45;headlabel"><a xlink:href="dir_000003_000020.html" target="_top" xlink:title="3">
<text text-anchor="middle" x="90.0466" y="-136.391" font-family="Helvetica,sans-Serif" font-size="10.00" fill="#000000">3</text>
</a>
</g>
</g>
<!-- dir_23ec12649285f9fabf3a6b7380226c28 -->
<g id="node4" class="node">
<title>dir_23ec12649285f9fabf3a6b7380226c28</title>
<g id="a_node4"><a xlink:href="dir_23ec12649285f9fabf3a6b7380226c28.html" target="_top" xlink:title="util">
<polygon fill="#ffffff" stroke="#ff0000" points="186,-36 132,-36 132,0 186,0 186,-36"/>
<text text-anchor="middle" x="159" y="-15" font-family="Helvetica,sans-Serif" font-size="10.00" fill="#000000">util</text>
</a>
</g>
</g>
<!-- dir_e0bcca101b3d6ab550a1a21801861a65&#45;&gt;dir_23ec12649285f9fabf3a6b7380226c28 -->
<g id="edge12" class="edge">
<title>dir_e0bcca101b3d6ab550a1a21801861a65&#45;&gt;dir_23ec12649285f9fabf3a6b7380226c28</title>
<path fill="none" stroke="#000000" d="M79.7167,-71.997C83.4831,-69.2978 87.3352,-66.5621 91,-64 101.4038,-56.7267 112.799,-48.9466 123.2366,-41.8926"/>
<polygon fill="#000000" stroke="#000000" points="125.3991,-44.6559 131.7361,-36.1651 121.4873,-38.8509 125.3991,-44.6559"/>
<g id="a_edge12&#45;headlabel"><a xlink:href="dir_000003_000028.html" target="_top" xlink:title="1">
<text text-anchor="middle" x="124.0048" y="-46.0192" font-family="Helvetica,sans-Serif" font-size="10.00" fill="#000000">1</text>
</a>
</g>
</g>
<!-- dir_68267d1309a1af8e8297ef4c3efbcdba&#45;&gt;dir_25b35af5d6fe939e26498b93aa0ed469 -->
<g id="edge2" class="edge">
<title>dir_68267d1309a1af8e8297ef4c3efbcdba&#45;&gt;dir_25b35af5d6fe939e26498b93aa0ed469</title>
<path fill="none" stroke="#000000" d="M101.8968,-162C99.2789,-162 96.6609,-162 94.043,-162"/>
<polygon fill="#000000" stroke="#000000" points="93.9453,-158.5001 83.9453,-162 93.9453,-165.5001 93.9453,-158.5001"/>
<g id="a_edge2&#45;headlabel"><a xlink:href="dir_000020_000000.html" target="_top" xlink:title="4">
<text text-anchor="middle" x="97.5399" y="-152.6607" font-family="Helvetica,sans-Serif" font-size="10.00" fill="#000000">4</text>
</a>
</g>
</g>
<!-- dir_68267d1309a1af8e8297ef4c3efbcdba&#45;&gt;dir_e0bcca101b3d6ab550a1a21801861a65 -->
<g id="edge4" class="edge">
<title>dir_68267d1309a1af8e8297ef4c3efbcdba&#45;&gt;dir_e0bcca101b3d6ab550a1a21801861a65</title>
<path fill="none" stroke="#000000" d="M116.2791,-143.8314C108.1875,-135.1337 97.5109,-124.5783 87.293,-115.1265"/>
<polygon fill="#000000" stroke="#000000" points="89.3767,-112.2911 79.6192,-108.1628 84.6726,-117.4749 89.3767,-112.2911"/>
<g id="a_edge4&#45;headlabel"><a xlink:href="dir_000020_000003.html" target="_top" xlink:title="4">
<text text-anchor="middle" x="93.9466" y="-109.6041" font-family="Helvetica,sans-Serif" font-size="10.00" fill="#000000">4</text>
</a>
</g>
</g>
<!-- dir_68267d1309a1af8e8297ef4c3efbcdba&#45;&gt;dir_23ec12649285f9fabf3a6b7380226c28 -->
<g id="edge1" class="edge">
<title>dir_68267d1309a1af8e8297ef4c3efbcdba&#45;&gt;dir_23ec12649285f9fabf3a6b7380226c28</title>
<path fill="none" stroke="#000000" d="M136.0881,-143.7768C142.3549,-133.8586 150.2524,-120.9858 154,-108 159.7733,-87.9951 158.4605,-64.4582 157.1357,-46.4725"/>
<polygon fill="#000000" stroke="#000000" points="160.6142,-46.0496 156.3902,-36.3332 153.633,-46.563 160.6142,-46.0496"/>
<g id="a_edge1&#45;headlabel"><a xlink:href="dir_000020_000028.html" target="_top" xlink:title="6">
<text text-anchor="middle" x="163.7093" y="-46.4264" font-family="Helvetica,sans-Serif" font-size="10.00" fill="#000000">6</text>
</a>
</g>
</g>
<!-- dir_68267d1309a1af8e8297ef4c3efbcdba&#45;&gt;dir_7d604191edc08013a26f918aa8ef79ad -->
<g id="edge3" class="edge">
<title>dir_68267d1309a1af8e8297ef4c3efbcdba&#45;&gt;dir_7d604191edc08013a26f918aa8ef79ad</title>
<path fill="none" stroke="#000000" d="M122.5429,-143.8314C121.5786,-136.131 121.1033,-126.9743 121.1743,-118.4166"/>
<polygon fill="#000000" stroke="#000000" points="124.6722,-118.5331 121.5355,-108.4133 117.6768,-118.2804 124.6722,-118.5331"/>
<g id="a_edge3&#45;headlabel"><a xlink:href="dir_000020_000016.html" target="_top" xlink:title="4">
<text text-anchor="middle" x="127.3801" y="-119.2278" font-family="Helvetica,sans-Serif" font-size="10.00" fill="#000000">4</text>
</a>
</g>
</g>
<!-- dir_23ec12649285f9fabf3a6b7380226c28&#45;&gt;dir_68267d1309a1af8e8297ef4c3efbcdba -->
<g id="edge5" class="edge">
<title>dir_23ec12649285f9fabf3a6b7380226c28&#45;&gt;dir_68267d1309a1af8e8297ef4c3efbcdba</title>
<path fill="none" stroke="#000000" d="M169.9957,-36.3332C175.6416,-54.8112 178.9388,-83.9566 172,-108 169.2185,-117.6379 164.1512,-127.2135 158.3647,-135.5652"/>
<polygon fill="#000000" stroke="#000000" points="155.3918,-133.6933 152.1399,-143.7768 160.9701,-137.922 155.3918,-133.6933"/>
<g id="a_edge5&#45;headlabel"><a xlink:href="dir_000028_000020.html" target="_top" xlink:title="5">
<text text-anchor="middle" x="155.3006" y="-126.1136" font-family="Helvetica,sans-Serif" font-size="10.00" fill="#000000">5</text>
</a>
</g>
</g>
<!-- dir_7d604191edc08013a26f918aa8ef79ad&#45;&gt;dir_68267d1309a1af8e8297ef4c3efbcdba -->
<g id="edge9" class="edge">
<title>dir_7d604191edc08013a26f918aa8ef79ad&#45;&gt;dir_68267d1309a1af8e8297ef4c3efbcdba</title>
<path fill="none" stroke="#000000" d="M133.4875,-108.4133C134.431,-116.0593 134.8955,-125.1084 134.8258,-133.5726"/>
<polygon fill="#000000" stroke="#000000" points="131.3185,-133.7092 134.4477,-143.8314 138.3138,-133.9671 131.3185,-133.7092"/>
<g id="a_edge9&#45;headlabel"><a xlink:href="dir_000016_000020.html" target="_top" xlink:title="5">
<text text-anchor="middle" x="128.6135" y="-127.0125" font-family="Helvetica,sans-Serif" font-size="10.00" fill="#000000">5</text>
</a>
</g>
</g>
<!-- dir_7d604191edc08013a26f918aa8ef79ad&#45;&gt;dir_23ec12649285f9fabf3a6b7380226c28 -->
<g id="edge10" class="edge">
<title>dir_7d604191edc08013a26f918aa8ef79ad&#45;&gt;dir_23ec12649285f9fabf3a6b7380226c28</title>
<path fill="none" stroke="#000000" d="M135.075,-71.8314C138.6102,-63.8771 142.836,-54.369 146.7456,-45.5723"/>
<polygon fill="#000000" stroke="#000000" points="149.9532,-46.9729 150.8163,-36.4133 143.5565,-44.1299 149.9532,-46.9729"/>
<g id="a_edge10&#45;headlabel"><a xlink:href="dir_000016_000028.html" target="_top" xlink:title="2">
<text text-anchor="middle" x="151.0879" y="-48.4108" font-family="Helvetica,sans-Serif" font-size="10.00" fill="#000000">2</text>
</a>
</g>
</g>
</g>
</svg>
