<?xml version="1.0" encoding="UTF-8" standalone="no"?>
<!DOCTYPE svg PUBLIC "-//W3C//DTD SVG 1.1//EN"
 "http://www.w3.org/Graphics/SVG/1.1/DTD/svg11.dtd">
<!-- Generated by graphviz version 2.40.1 (20161225.0304)
 -->
<!-- Title: ext_apps/shim Pages: 1 -->
<svg width="207pt" height="374pt"
 viewBox="0.00 0.00 207.00 374.00" xmlns="http://www.w3.org/2000/svg" xmlns:xlink="http://www.w3.org/1999/xlink">
<g id="graph0" class="graph" transform="scale(1 1) rotate(0) translate(4 370)">
<title>ext_apps/shim</title>
<polygon fill="#ffffff" stroke="transparent" points="-4,4 -4,-370 203,-370 203,4 -4,4"/>
<g id="clust1" class="cluster">
<title>clusterdir_5080acda003337cdd5d82dfb43391e70</title>
<g id="a_clust1"><a xlink:href="dir_5080acda003337cdd5d82dfb43391e70.html" target="_top" xlink:title="ext_apps">
<polygon fill="#ddddee" stroke="#000000" points="33,-272 33,-358 191,-358 191,-272 33,-272"/>
<text text-anchor="middle" x="112" y="-346" font-family="Helvetica,sans-Serif" font-size="10.00" fill="#000000">ext_apps</text>
</a>
</g>
</g>
<g id="clust2" class="cluster">
<title>clusterdir_ddf0054a38fb57287aea25b7b6b8abd0</title>
<g id="a_clust2"><a xlink:href="dir_ddf0054a38fb57287aea25b7b6b8abd0.html" target="_top">
<polygon fill="#eeeeff" stroke="#000000" points="41,-280 41,-332 183,-332 183,-280 41,-280"/>
</a>
</g>
</g>
<!-- dir_ddf0054a38fb57287aea25b7b6b8abd0 -->
<g id="node1" class="node">
<title>dir_ddf0054a38fb57287aea25b7b6b8abd0</title>
<text text-anchor="middle" x="76" y="-303" font-family="Helvetica,sans-Serif" font-size="10.00" fill="#000000">shim</text>
</g>
<!-- dir_68267d1309a1af8e8297ef4c3efbcdba -->
<g id="node3" class="node">
<title>dir_68267d1309a1af8e8297ef4c3efbcdba</title>
<g id="a_node3"><a xlink:href="dir_68267d1309a1af8e8297ef4c3efbcdba.html" target="_top" xlink:title="src">
<polygon fill="#ffffff" stroke="#ff0000" points="54,-180 0,-180 0,-144 54,-144 54,-180"/>
<text text-anchor="middle" x="27" y="-159" font-family="Helvetica,sans-Serif" font-size="10.00" fill="#000000">src</text>
</a>
</g>
</g>
<!-- dir_ddf0054a38fb57287aea25b7b6b8abd0&#45;&gt;dir_68267d1309a1af8e8297ef4c3efbcdba -->
<g id="edge6" class="edge">
<title>dir_ddf0054a38fb57287aea25b7b6b8abd0&#45;&gt;dir_68267d1309a1af8e8297ef4c3efbcdba</title>
<path fill="none" stroke="#000000" d="M69.7941,-287.7623C61.3628,-262.9846 46.216,-218.4714 36.3896,-189.5939"/>
<polygon fill="#000000" stroke="#000000" points="39.6904,-188.429 33.1555,-180.0896 33.0635,-190.6841 39.6904,-188.429"/>
<g id="a_edge6&#45;headlabel"><a xlink:href="dir_000002_000020.html" target="_top" xlink:title="2">
<text text-anchor="middle" x="43.5362" y="-187.9174" font-family="Helvetica,sans-Serif" font-size="10.00" fill="#000000">2</text>
</a>
</g>
</g>
<!-- dir_25b35af5d6fe939e26498b93aa0ed469 -->
<g id="node5" class="node">
<title>dir_25b35af5d6fe939e26498b93aa0ed469</title>
<g id="a_node5"><a xlink:href="dir_25b35af5d6fe939e26498b93aa0ed469.html" target="_top" xlink:title="app_events">
<polygon fill="#ffffff" stroke="#ff0000" points="130.7096,-108 63.2904,-108 63.2904,-72 130.7096,-72 130.7096,-108"/>
<text text-anchor="middle" x="97" y="-87" font-family="Helvetica,sans-Serif" font-size="10.00" fill="#000000">app_events</text>
</a>
</g>
</g>
<!-- dir_ddf0054a38fb57287aea25b7b6b8abd0&#45;&gt;dir_25b35af5d6fe939e26498b93aa0ed469 -->
<g id="edge7" class="edge">
<title>dir_ddf0054a38fb57287aea25b7b6b8abd0&#45;&gt;dir_25b35af5d6fe939e26498b93aa0ed469</title>
<path fill="none" stroke="#000000" d="M77.7543,-287.9555C81.4139,-250.3144 89.8846,-163.1867 94.2657,-118.1246"/>
<polygon fill="#000000" stroke="#000000" points="97.7517,-118.4369 95.2359,-108.1451 90.7846,-117.7594 97.7517,-118.4369"/>
<g id="a_edge7&#45;headlabel"><a xlink:href="dir_000002_000000.html" target="_top" xlink:title="3">
<text text-anchor="middle" x="100.2299" y="-119.2893" font-family="Helvetica,sans-Serif" font-size="10.00" fill="#000000">3</text>
</a>
</g>
</g>
<!-- dir_16793c05e3522f9e206b4b7a39610266 -->
<g id="node2" class="node">
<title>dir_16793c05e3522f9e206b4b7a39610266</title>
<g id="a_node2"><a xlink:href="dir_16793c05e3522f9e206b4b7a39610266.html" target="_top" xlink:title="include">
<polygon fill="#ffffff" stroke="#000000" points="175,-324 121,-324 121,-288 175,-288 175,-324"/>
<text text-anchor="middle" x="148" y="-303" font-family="Helvetica,sans-Serif" font-size="10.00" fill="#000000">include</text>
</a>
</g>
</g>
<!-- dir_23ec12649285f9fabf3a6b7380226c28 -->
<g id="node4" class="node">
<title>dir_23ec12649285f9fabf3a6b7380226c28</title>
<g id="a_node4"><a xlink:href="dir_23ec12649285f9fabf3a6b7380226c28.html" target="_top" xlink:title="util">
<polygon fill="#ffffff" stroke="#ff0000" points="124,-36 70,-36 70,0 124,0 124,-36"/>
<text text-anchor="middle" x="97" y="-15" font-family="Helvetica,sans-Serif" font-size="10.00" fill="#000000">util</text>
</a>
</g>
</g>
<!-- dir_16793c05e3522f9e206b4b7a39610266&#45;&gt;dir_23ec12649285f9fabf3a6b7380226c28 -->
<g id="edge11" class="edge">
<title>dir_16793c05e3522f9e206b4b7a39610266&#45;&gt;dir_23ec12649285f9fabf3a6b7380226c28</title>
<path fill="none" stroke="#000000" d="M163.5525,-287.8462C171.0046,-277.947 179.1347,-265.0702 183,-252 198.0199,-201.2111 182.908,-116.6295 158,-72 151.6365,-60.598 141.9296,-50.397 132.1182,-42.0136"/>
<polygon fill="#000000" stroke="#000000" points="134.2683,-39.2511 124.2892,-35.6917 129.8705,-44.6972 134.2683,-39.2511"/>
<g id="a_edge11&#45;headlabel"><a xlink:href="dir_000004_000028.html" target="_top" xlink:title="5">
<text text-anchor="middle" x="138.8487" y="-36.3004" font-family="Helvetica,sans-Serif" font-size="10.00" fill="#000000">5</text>
</a>
</g>
</g>
<!-- dir_2598932614e4229b9624aa17324a3575 -->
<g id="node6" class="node">
<title>dir_2598932614e4229b9624aa17324a3575</title>
<g id="a_node6"><a xlink:href="dir_2598932614e4229b9624aa17324a3575.html" target="_top" xlink:title="l2_shortest">
<polygon fill="#ffffff" stroke="#ff0000" points="174.4161,-252 109.5839,-252 109.5839,-216 174.4161,-216 174.4161,-252"/>
<text text-anchor="middle" x="142" y="-231" font-family="Helvetica,sans-Serif" font-size="10.00" fill="#000000">l2_shortest</text>
</a>
</g>
</g>
<!-- dir_16793c05e3522f9e206b4b7a39610266&#45;&gt;dir_2598932614e4229b9624aa17324a3575 -->
<g id="edge12" class="edge">
<title>dir_16793c05e3522f9e206b4b7a39610266&#45;&gt;dir_2598932614e4229b9624aa17324a3575</title>
<path fill="none" stroke="#000000" d="M146.4859,-287.8314C145.8442,-280.131 145.0812,-270.9743 144.3681,-262.4166"/>
<polygon fill="#000000" stroke="#000000" points="147.8529,-262.088 143.5344,-252.4133 140.8771,-262.6694 147.8529,-262.088"/>
<g id="a_edge12&#45;headlabel"><a xlink:href="dir_000004_000007.html" target="_top" xlink:title="1">
<text text-anchor="middle" x="150.9808" y="-262.4345" font-family="Helvetica,sans-Serif" font-size="10.00" fill="#000000">1</text>
</a>
</g>
</g>
<!-- dir_68267d1309a1af8e8297ef4c3efbcdba&#45;&gt;dir_23ec12649285f9fabf3a6b7380226c28 -->
<g id="edge1" class="edge">
<title>dir_68267d1309a1af8e8297ef4c3efbcdba&#45;&gt;dir_23ec12649285f9fabf3a6b7380226c28</title>
<path fill="none" stroke="#000000" d="M23.5736,-143.9795C25.192,-125.2372 32.7505,-95.4166 45,-72 50.1887,-62.0812 57.3155,-52.2115 64.7126,-43.6756"/>
<polygon fill="#000000" stroke="#000000" points="67.3474,-45.981 71.534,-36.2484 62.1919,-41.246 67.3474,-45.981"/>
<g id="a_edge1&#45;headlabel"><a xlink:href="dir_000020_000028.html" target="_top" xlink:title="6">
<text text-anchor="middle" x="67.0071" y="-47.549" font-family="Helvetica,sans-Serif" font-size="10.00" fill="#000000">6</text>
</a>
</g>
</g>
<!-- dir_68267d1309a1af8e8297ef4c3efbcdba&#45;&gt;dir_25b35af5d6fe939e26498b93aa0ed469 -->
<g id="edge2" class="edge">
<title>dir_68267d1309a1af8e8297ef4c3efbcdba&#45;&gt;dir_25b35af5d6fe939e26498b93aa0ed469</title>
<path fill="none" stroke="#000000" d="M38.7116,-143.8314C46.32,-135.1337 56.4101,-124.5783 66.1029,-115.1265"/>
<polygon fill="#000000" stroke="#000000" points="68.5783,-117.6021 73.3899,-108.1628 63.7421,-112.5414 68.5783,-117.6021"/>
<g id="a_edge2&#45;headlabel"><a xlink:href="dir_000020_000000.html" target="_top" xlink:title="4">
<text text-anchor="middle" x="67.9412" y="-119.1382" font-family="Helvetica,sans-Serif" font-size="10.00" fill="#000000">4</text>
</a>
</g>
</g>
<!-- dir_23ec12649285f9fabf3a6b7380226c28&#45;&gt;dir_68267d1309a1af8e8297ef4c3efbcdba -->
<g id="edge3" class="edge">
<title>dir_23ec12649285f9fabf3a6b7380226c28&#45;&gt;dir_68267d1309a1af8e8297ef4c3efbcdba</title>
<path fill="none" stroke="#000000" d="M87.5858,-36.2484C79.8605,-46.1735 69.777,-59.0448 63,-72 52.7123,-91.6663 45.7334,-115.8495 40.1011,-134.1938"/>
<polygon fill="#000000" stroke="#000000" points="36.6847,-133.3898 37.0122,-143.9795 43.3601,-135.4969 36.6847,-133.3898"/>
<g id="a_edge3&#45;headlabel"><a xlink:href="dir_000028_000020.html" target="_top" xlink:title="5">
<text text-anchor="middle" x="35.0591" y="-126.1072" font-family="Helvetica,sans-Serif" font-size="10.00" fill="#000000">5</text>
</a>
</g>
</g>
<!-- dir_25b35af5d6fe939e26498b93aa0ed469&#45;&gt;dir_68267d1309a1af8e8297ef4c3efbcdba -->
<g id="edge4" class="edge">
<title>dir_25b35af5d6fe939e26498b93aa0ed469&#45;&gt;dir_68267d1309a1af8e8297ef4c3efbcdba</title>
<path fill="none" stroke="#000000" d="M85.0742,-108.4133C77.4781,-117.0787 67.4644,-127.5464 57.847,-136.9223"/>
<polygon fill="#000000" stroke="#000000" points="55.4284,-134.3924 50.6163,-143.8314 60.2644,-139.4534 55.4284,-134.3924"/>
<g id="a_edge4&#45;headlabel"><a xlink:href="dir_000000_000020.html" target="_top" xlink:title="5">
<text text-anchor="middle" x="56.0659" y="-126.8563" font-family="Helvetica,sans-Serif" font-size="10.00" fill="#000000">5</text>
</a>
</g>
</g>
<!-- dir_25b35af5d6fe939e26498b93aa0ed469&#45;&gt;dir_23ec12649285f9fabf3a6b7380226c28 -->
<g id="edge5" class="edge">
<title>dir_25b35af5d6fe939e26498b93aa0ed469&#45;&gt;dir_23ec12649285f9fabf3a6b7380226c28</title>
<path fill="none" stroke="#000000" d="M97,-71.8314C97,-64.131 97,-54.9743 97,-46.4166"/>
<polygon fill="#000000" stroke="#000000" points="100.5001,-46.4132 97,-36.4133 93.5001,-46.4133 100.5001,-46.4132"/>
<g id="a_edge5&#45;headlabel"><a xlink:href="dir_000000_000028.html" target="_top" xlink:title="1">
<text text-anchor="middle" x="103.3393" y="-47.0079" font-family="Helvetica,sans-Serif" font-size="10.00" fill="#000000">1</text>
</a>
</g>
</g>
<!-- dir_2598932614e4229b9624aa17324a3575&#45;&gt;dir_68267d1309a1af8e8297ef4c3efbcdba -->
<g id="edge8" class="edge">
<title>dir_2598932614e4229b9624aa17324a3575&#45;&gt;dir_68267d1309a1af8e8297ef4c3efbcdba</title>
<path fill="none" stroke="#000000" d="M112.9806,-215.8314C97.71,-206.2706 78.8539,-194.4651 62.6949,-184.3481"/>
<polygon fill="#000000" stroke="#000000" points="64.3682,-181.2664 54.0351,-178.9263 60.6536,-187.1995 64.3682,-181.2664"/>
<g id="a_edge8&#45;headlabel"><a xlink:href="dir_000007_000020.html" target="_top" xlink:title="1">
<text text-anchor="middle" x="68.9216" y="-177.7674" font-family="Helvetica,sans-Serif" font-size="10.00" fill="#000000">1</text>
</a>
</g>
</g>
<!-- dir_2598932614e4229b9624aa17324a3575&#45;&gt;dir_23ec12649285f9fabf3a6b7380226c28 -->
<g id="edge9" class="edge">
<title>dir_2598932614e4229b9624aa17324a3575&#45;&gt;dir_23ec12649285f9fabf3a6b7380226c28</title>
<path fill="none" stroke="#000000" d="M145.4913,-215.8354C150.5871,-185.1482 157.6602,-121.5443 140,-72 136.3408,-61.7345 129.8554,-51.9482 123.0133,-43.5959"/>
<polygon fill="#000000" stroke="#000000" points="125.6413,-41.2842 116.4247,-36.0587 120.371,-45.8912 125.6413,-41.2842"/>
<g id="a_edge9&#45;headlabel"><a xlink:href="dir_000007_000028.html" target="_top" xlink:title="1">
<text text-anchor="middle" x="130.1447" y="-39.1219" font-family="Helvetica,sans-Serif" font-size="10.00" fill="#000000">1</text>
</a>
</g>
</g>
<!-- dir_2598932614e4229b9624aa17324a3575&#45;&gt;dir_25b35af5d6fe939e26498b93aa0ed469 -->
<g id="edge10" class="edge">
<title>dir_2598932614e4229b9624aa17324a3575&#45;&gt;dir_25b35af5d6fe939e26498b93aa0ed469</title>
<path fill="none" stroke="#000000" d="M136.3007,-215.7623C128.5915,-191.0928 114.7687,-146.8598 105.7416,-117.9731"/>
<polygon fill="#000000" stroke="#000000" points="108.9765,-116.5904 102.653,-108.0896 102.2951,-118.6784 108.9765,-116.5904"/>
<g id="a_edge10&#45;headlabel"><a xlink:href="dir_000007_000000.html" target="_top" xlink:title="1">
<text text-anchor="middle" x="112.7586" y="-116.1746" font-family="Helvetica,sans-Serif" font-size="10.00" fill="#000000">1</text>
</a>
</g>
</g>
</g>
</svg>
