<?xml version="1.0" encoding="UTF-8" standalone="no"?>
<!DOCTYPE svg PUBLIC "-//W3C//DTD SVG 1.1//EN"
 "http://www.w3.org/Graphics/SVG/1.1/DTD/svg11.dtd">
<!-- Generated by graphviz version 2.40.1 (20161225.0304)
 -->
<!-- Title: applications Pages: 1 -->
<svg width="180pt" height="276pt"
 viewBox="0.00 0.00 180.00 276.00" xmlns="http://www.w3.org/2000/svg" xmlns:xlink="http://www.w3.org/1999/xlink">
<g id="graph0" class="graph" transform="scale(1 1) rotate(0) translate(4 272)">
<title>applications</title>
<polygon fill="#ffffff" stroke="transparent" points="-4,4 -4,-272 176,-272 176,4 -4,4"/>
<g id="clust1" class="cluster">
<title>clusterdir_a6e4fee11f07c3b70486e88fe92cbbdc</title>
<g id="a_clust1"><a xlink:href="dir_a6e4fee11f07c3b70486e88fe92cbbdc.html" target="_top">
<polygon fill="#eeeeff" stroke="#000000" points="8,-208 8,-260 164,-260 164,-208 8,-208"/>
</a>
</g>
</g>
<!-- dir_a6e4fee11f07c3b70486e88fe92cbbdc -->
<g id="node1" class="node">
<title>dir_a6e4fee11f07c3b70486e88fe92cbbdc</title>
<text text-anchor="middle" x="122" y="-231" font-family="Helvetica,sans-Serif" font-size="10.00" fill="#000000">applications</text>
</g>
<!-- dir_25b35af5d6fe939e26498b93aa0ed469 -->
<g id="node5" class="node">
<title>dir_25b35af5d6fe939e26498b93aa0ed469</title>
<g id="a_node5"><a xlink:href="dir_25b35af5d6fe939e26498b93aa0ed469.html" target="_top" xlink:title="app_events">
<polygon fill="#ffffff" stroke="#ff0000" points="147.7096,-180 80.2904,-180 80.2904,-144 147.7096,-144 147.7096,-180"/>
<text text-anchor="middle" x="114" y="-159" font-family="Helvetica,sans-Serif" font-size="10.00" fill="#000000">app_events</text>
</a>
</g>
</g>
<!-- dir_a6e4fee11f07c3b70486e88fe92cbbdc&#45;&gt;dir_25b35af5d6fe939e26498b93aa0ed469 -->
<g id="edge4" class="edge">
<title>dir_a6e4fee11f07c3b70486e88fe92cbbdc&#45;&gt;dir_25b35af5d6fe939e26498b93aa0ed469</title>
<path fill="none" stroke="#000000" d="M119.9813,-215.8314C119.1257,-208.131 118.1083,-198.9743 117.1574,-190.4166"/>
<polygon fill="#000000" stroke="#000000" points="120.6289,-189.9656 116.0459,-180.4133 113.6717,-190.7386 120.6289,-189.9656"/>
<g id="a_edge4&#45;headlabel"><a xlink:href="dir_000005_000000.html" target="_top" xlink:title="3">
<text text-anchor="middle" x="123.8477" y="-190.2247" font-family="Helvetica,sans-Serif" font-size="10.00" fill="#000000">3</text>
</a>
</g>
</g>
<!-- dir_b48e99e00c13f140bbfb4c281bca5194 -->
<g id="node2" class="node">
<title>dir_b48e99e00c13f140bbfb4c281bca5194</title>
<g id="a_node2"><a xlink:href="dir_b48e99e00c13f140bbfb4c281bca5194.html" target="_top" xlink:title="include">
<polygon fill="#ffffff" stroke="#000000" points="70,-252 16,-252 16,-216 70,-216 70,-252"/>
<text text-anchor="middle" x="43" y="-231" font-family="Helvetica,sans-Serif" font-size="10.00" fill="#000000">include</text>
</a>
</g>
</g>
<!-- dir_68267d1309a1af8e8297ef4c3efbcdba -->
<g id="node3" class="node">
<title>dir_68267d1309a1af8e8297ef4c3efbcdba</title>
<g id="a_node3"><a xlink:href="dir_68267d1309a1af8e8297ef4c3efbcdba.html" target="_top" xlink:title="src">
<polygon fill="#ffffff" stroke="#ff0000" points="96,-108 42,-108 42,-72 96,-72 96,-108"/>
<text text-anchor="middle" x="69" y="-87" font-family="Helvetica,sans-Serif" font-size="10.00" fill="#000000">src</text>
</a>
</g>
</g>
<!-- dir_b48e99e00c13f140bbfb4c281bca5194&#45;&gt;dir_68267d1309a1af8e8297ef4c3efbcdba -->
<g id="edge5" class="edge">
<title>dir_b48e99e00c13f140bbfb4c281bca5194&#45;&gt;dir_68267d1309a1af8e8297ef4c3efbcdba</title>
<path fill="none" stroke="#000000" d="M46.2929,-215.7623C50.7471,-191.0928 58.7337,-146.8598 63.9493,-117.9731"/>
<polygon fill="#000000" stroke="#000000" points="67.4012,-118.5524 65.7338,-108.0896 60.5126,-117.3086 67.4012,-118.5524"/>
<g id="a_edge5&#45;headlabel"><a xlink:href="dir_000006_000023.html" target="_top" xlink:title="3">
<text text-anchor="middle" x="69.5567" y="-119.5943" font-family="Helvetica,sans-Serif" font-size="10.00" fill="#000000">3</text>
</a>
</g>
</g>
<!-- dir_23ec12649285f9fabf3a6b7380226c28 -->
<g id="node4" class="node">
<title>dir_23ec12649285f9fabf3a6b7380226c28</title>
<g id="a_node4"><a xlink:href="dir_23ec12649285f9fabf3a6b7380226c28.html" target="_top" xlink:title="util">
<polygon fill="#ffffff" stroke="#ff0000" points="96,-36 42,-36 42,0 96,0 96,-36"/>
<text text-anchor="middle" x="69" y="-15" font-family="Helvetica,sans-Serif" font-size="10.00" fill="#000000">util</text>
</a>
</g>
</g>
<!-- dir_b48e99e00c13f140bbfb4c281bca5194&#45;&gt;dir_23ec12649285f9fabf3a6b7380226c28 -->
<g id="edge6" class="edge">
<title>dir_b48e99e00c13f140bbfb4c281bca5194&#45;&gt;dir_23ec12649285f9fabf3a6b7380226c28</title>
<path fill="none" stroke="#000000" d="M37.7591,-215.5385C29.9729,-184.9517 17.8118,-122.1632 33,-72 35.9564,-62.2355 41.3252,-52.6229 47.03,-44.2762"/>
<polygon fill="#000000" stroke="#000000" points="49.9414,-46.2239 53.0095,-36.0831 44.2871,-42.0973 49.9414,-46.2239"/>
<g id="a_edge6&#45;headlabel"><a xlink:href="dir_000006_000026.html" target="_top" xlink:title="4">
<text text-anchor="middle" x="50.1158" y="-47.8013" font-family="Helvetica,sans-Serif" font-size="10.00" fill="#000000">4</text>
</a>
</g>
</g>
<!-- dir_b48e99e00c13f140bbfb4c281bca5194&#45;&gt;dir_25b35af5d6fe939e26498b93aa0ed469 -->
<g id="edge7" class="edge">
<title>dir_b48e99e00c13f140bbfb4c281bca5194&#45;&gt;dir_25b35af5d6fe939e26498b93aa0ed469</title>
<path fill="none" stroke="#000000" d="M60.9163,-215.8314C69.3442,-207.2848 79.541,-196.9443 88.736,-187.6198"/>
<polygon fill="#000000" stroke="#000000" points="91.3131,-189.9912 95.8425,-180.4133 86.3289,-185.0761 91.3131,-189.9912"/>
<g id="a_edge7&#45;headlabel"><a xlink:href="dir_000006_000000.html" target="_top" xlink:title="2">
<text text-anchor="middle" x="90.8109" y="-191.5442" font-family="Helvetica,sans-Serif" font-size="10.00" fill="#000000">2</text>
</a>
</g>
</g>
<!-- dir_68267d1309a1af8e8297ef4c3efbcdba&#45;&gt;dir_23ec12649285f9fabf3a6b7380226c28 -->
<g id="edge1" class="edge">
<title>dir_68267d1309a1af8e8297ef4c3efbcdba&#45;&gt;dir_23ec12649285f9fabf3a6b7380226c28</title>
<path fill="none" stroke="#000000" d="M63.0476,-71.8314C62.2972,-64.131 62.0763,-54.9743 62.3849,-46.4166"/>
<polygon fill="#000000" stroke="#000000" points="65.8792,-46.6161 63.024,-36.4133 58.8935,-46.1697 65.8792,-46.6161"/>
<g id="a_edge1&#45;headlabel"><a xlink:href="dir_000023_000026.html" target="_top" xlink:title="8">
<text text-anchor="middle" x="68.4836" y="-47.3844" font-family="Helvetica,sans-Serif" font-size="10.00" fill="#000000">8</text>
</a>
</g>
</g>
<!-- dir_68267d1309a1af8e8297ef4c3efbcdba&#45;&gt;dir_25b35af5d6fe939e26498b93aa0ed469 -->
<g id="edge2" class="edge">
<title>dir_68267d1309a1af8e8297ef4c3efbcdba&#45;&gt;dir_25b35af5d6fe939e26498b93aa0ed469</title>
<path fill="none" stroke="#000000" d="M86.4843,-108.4133C92.3003,-116.484 98.5162,-126.1182 103.6708,-134.9775"/>
<polygon fill="#000000" stroke="#000000" points="100.6765,-136.7946 108.597,-143.8314 106.7934,-133.3911 100.6765,-136.7946"/>
<g id="a_edge2&#45;headlabel"><a xlink:href="dir_000023_000000.html" target="_top" xlink:title="4">
<text text-anchor="middle" x="96.4478" y="-132.0339" font-family="Helvetica,sans-Serif" font-size="10.00" fill="#000000">4</text>
</a>
</g>
</g>
<!-- dir_23ec12649285f9fabf3a6b7380226c28&#45;&gt;dir_68267d1309a1af8e8297ef4c3efbcdba -->
<g id="edge3" class="edge">
<title>dir_23ec12649285f9fabf3a6b7380226c28&#45;&gt;dir_68267d1309a1af8e8297ef4c3efbcdba</title>
<path fill="none" stroke="#000000" d="M74.976,-36.4133C75.7071,-44.0593 75.9203,-53.1084 75.6155,-61.5726"/>
<polygon fill="#000000" stroke="#000000" points="72.1048,-61.6264 74.9524,-71.8314 79.0902,-62.078 72.1048,-61.6264"/>
<g id="a_edge3&#45;headlabel"><a xlink:href="dir_000026_000023.html" target="_top" xlink:title="6">
<text text-anchor="middle" x="69.5032" y="-54.8562" font-family="Helvetica,sans-Serif" font-size="10.00" fill="#000000">6</text>
</a>
</g>
</g>
<!-- dir_25b35af5d6fe939e26498b93aa0ed469&#45;&gt;dir_68267d1309a1af8e8297ef4c3efbcdba -->
<g id="edge8" class="edge">
<title>dir_25b35af5d6fe939e26498b93aa0ed469&#45;&gt;dir_68267d1309a1af8e8297ef4c3efbcdba</title>
<path fill="none" stroke="#000000" d="M96.6922,-143.8314C90.8845,-135.7925 84.662,-126.1666 79.486,-117.2918"/>
<polygon fill="#000000" stroke="#000000" points="82.4612,-115.4406 74.5323,-108.4133 76.3483,-118.8513 82.4612,-115.4406"/>
<g id="a_edge8&#45;headlabel"><a xlink:href="dir_000000_000023.html" target="_top" xlink:title="4">
<text text-anchor="middle" x="86.692" y="-114.1963" font-family="Helvetica,sans-Serif" font-size="10.00" fill="#000000">4</text>
</a>
</g>
</g>
<!-- dir_25b35af5d6fe939e26498b93aa0ed469&#45;&gt;dir_23ec12649285f9fabf3a6b7380226c28 -->
<g id="edge9" class="edge">
<title>dir_25b35af5d6fe939e26498b93aa0ed469&#45;&gt;dir_23ec12649285f9fabf3a6b7380226c28</title>
<path fill="none" stroke="#000000" d="M114.7226,-143.8501C114.885,-125.2626 113.5225,-95.8019 105,-72 101.5608,-62.3949 96.0508,-52.8289 90.3651,-44.4759"/>
<polygon fill="#000000" stroke="#000000" points="93.1362,-42.3344 84.4559,-36.2596 87.4533,-46.4216 93.1362,-42.3344"/>
<g id="a_edge9&#45;headlabel"><a xlink:href="dir_000000_000026.html" target="_top" xlink:title="2">
<text text-anchor="middle" x="97.54" y="-40.5949" font-family="Helvetica,sans-Serif" font-size="10.00" fill="#000000">2</text>
</a>
</g>
</g>
</g>
</svg>
