<?xml version="1.0" encoding="UTF-8" standalone="no"?>
<!DOCTYPE svg PUBLIC "-//W3C//DTD SVG 1.1//EN"
 "http://www.w3.org/Graphics/SVG/1.1/DTD/svg11.dtd">
<!-- Generated by graphviz version 2.40.1 (20161225.0304)
 -->
<!-- Title: ext_apps/shim Pages: 1 -->
<svg width="225pt" height="302pt"
 viewBox="0.00 0.00 225.00 302.00" xmlns="http://www.w3.org/2000/svg" xmlns:xlink="http://www.w3.org/1999/xlink">
<g id="graph0" class="graph" transform="scale(1 1) rotate(0) translate(4 298)">
<title>ext_apps/shim</title>
<polygon fill="#ffffff" stroke="transparent" points="-4,4 -4,-298 221,-298 221,4 -4,4"/>
<g id="clust1" class="cluster">
<title>clusterdir_5080acda003337cdd5d82dfb43391e70</title>
<g id="a_clust1"><a xlink:href="dir_5080acda003337cdd5d82dfb43391e70.html" target="_top" xlink:title="ext_apps">
<polygon fill="#ddddee" stroke="#000000" points="8,-200 8,-286 166,-286 166,-200 8,-200"/>
<text text-anchor="middle" x="87" y="-274" font-family="Helvetica,sans-Serif" font-size="10.00" fill="#000000">ext_apps</text>
</a>
</g>
</g>
<g id="clust2" class="cluster">
<title>clusterdir_ddf0054a38fb57287aea25b7b6b8abd0</title>
<g id="a_clust2"><a xlink:href="dir_ddf0054a38fb57287aea25b7b6b8abd0.html" target="_top">
<polygon fill="#eeeeff" stroke="#000000" points="16,-208 16,-260 158,-260 158,-208 16,-208"/>
</a>
</g>
</g>
<!-- dir_ddf0054a38fb57287aea25b7b6b8abd0 -->
<g id="node1" class="node">
<title>dir_ddf0054a38fb57287aea25b7b6b8abd0</title>
<text text-anchor="middle" x="123" y="-231" font-family="Helvetica,sans-Serif" font-size="10.00" fill="#000000">shim</text>
</g>
<!-- dir_68267d1309a1af8e8297ef4c3efbcdba -->
<g id="node3" class="node">
<title>dir_68267d1309a1af8e8297ef4c3efbcdba</title>
<g id="a_node3"><a xlink:href="dir_68267d1309a1af8e8297ef4c3efbcdba.html" target="_top" xlink:title="src">
<polygon fill="#ffffff" stroke="#ff0000" points="189,-180 135,-180 135,-144 189,-144 189,-180"/>
<text text-anchor="middle" x="162" y="-159" font-family="Helvetica,sans-Serif" font-size="10.00" fill="#000000">src</text>
</a>
</g>
</g>
<!-- dir_ddf0054a38fb57287aea25b7b6b8abd0&#45;&gt;dir_68267d1309a1af8e8297ef4c3efbcdba -->
<g id="edge7" class="edge">
<title>dir_ddf0054a38fb57287aea25b7b6b8abd0&#45;&gt;dir_68267d1309a1af8e8297ef4c3efbcdba</title>
<path fill="none" stroke="#000000" d="M132.8413,-215.8314C137.1957,-207.7925 142.4098,-198.1666 147.2169,-189.2918"/>
<polygon fill="#000000" stroke="#000000" points="150.3408,-190.8732 152.0261,-180.4133 144.1857,-187.5392 150.3408,-190.8732"/>
<g id="a_edge7&#45;headlabel"><a xlink:href="dir_000002_000023.html" target="_top" xlink:title="1">
<text text-anchor="middle" x="151.1253" y="-192.3862" font-family="Helvetica,sans-Serif" font-size="10.00" fill="#000000">1</text>
</a>
</g>
</g>
<!-- dir_25b35af5d6fe939e26498b93aa0ed469 -->
<g id="node5" class="node">
<title>dir_25b35af5d6fe939e26498b93aa0ed469</title>
<g id="a_node5"><a xlink:href="dir_25b35af5d6fe939e26498b93aa0ed469.html" target="_top" xlink:title="app_events">
<polygon fill="#ffffff" stroke="#ff0000" points="188.7096,-108 121.2904,-108 121.2904,-72 188.7096,-72 188.7096,-108"/>
<text text-anchor="middle" x="155" y="-87" font-family="Helvetica,sans-Serif" font-size="10.00" fill="#000000">app_events</text>
</a>
</g>
</g>
<!-- dir_ddf0054a38fb57287aea25b7b6b8abd0&#45;&gt;dir_25b35af5d6fe939e26498b93aa0ed469 -->
<g id="edge8" class="edge">
<title>dir_ddf0054a38fb57287aea25b7b6b8abd0&#45;&gt;dir_25b35af5d6fe939e26498b93aa0ed469</title>
<path fill="none" stroke="#000000" d="M121.2049,-215.7131C119.9494,-197.2712 119.495,-168.1533 126,-144 128.4932,-134.7426 132.8233,-125.313 137.3886,-116.979"/>
<polygon fill="#000000" stroke="#000000" points="140.5498,-118.5055 142.5575,-108.1026 134.5007,-114.9829 140.5498,-118.5055"/>
<g id="a_edge8&#45;headlabel"><a xlink:href="dir_000002_000000.html" target="_top" xlink:title="2">
<text text-anchor="middle" x="141.1945" y="-120.0406" font-family="Helvetica,sans-Serif" font-size="10.00" fill="#000000">2</text>
</a>
</g>
</g>
<!-- dir_16793c05e3522f9e206b4b7a39610266 -->
<g id="node2" class="node">
<title>dir_16793c05e3522f9e206b4b7a39610266</title>
<g id="a_node2"><a xlink:href="dir_16793c05e3522f9e206b4b7a39610266.html" target="_top" xlink:title="include">
<polygon fill="#ffffff" stroke="#000000" points="78,-252 24,-252 24,-216 78,-216 78,-252"/>
<text text-anchor="middle" x="51" y="-231" font-family="Helvetica,sans-Serif" font-size="10.00" fill="#000000">include</text>
</a>
</g>
</g>
<!-- dir_23ec12649285f9fabf3a6b7380226c28 -->
<g id="node4" class="node">
<title>dir_23ec12649285f9fabf3a6b7380226c28</title>
<g id="a_node4"><a xlink:href="dir_23ec12649285f9fabf3a6b7380226c28.html" target="_top" xlink:title="util">
<polygon fill="#ffffff" stroke="#ff0000" points="217,-36 163,-36 163,0 217,0 217,-36"/>
<text text-anchor="middle" x="190" y="-15" font-family="Helvetica,sans-Serif" font-size="10.00" fill="#000000">util</text>
</a>
</g>
</g>
<!-- dir_16793c05e3522f9e206b4b7a39610266&#45;&gt;dir_23ec12649285f9fabf3a6b7380226c28 -->
<g id="edge9" class="edge">
<title>dir_16793c05e3522f9e206b4b7a39610266&#45;&gt;dir_23ec12649285f9fabf3a6b7380226c28</title>
<path fill="none" stroke="#000000" d="M43.0424,-215.9868C30.179,-183.8313 9.202,-115.8202 40,-72 53.2864,-53.0958 113.0485,-35.8802 153.0107,-26.192"/>
<polygon fill="#000000" stroke="#000000" points="154.0289,-29.5477 162.9528,-23.8369 152.4153,-22.7362 154.0289,-29.5477"/>
<g id="a_edge9&#45;headlabel"><a xlink:href="dir_000004_000026.html" target="_top" xlink:title="9">
<text text-anchor="middle" x="151.1855" y="-30.139" font-family="Helvetica,sans-Serif" font-size="10.00" fill="#000000">9</text>
</a>
</g>
</g>
<!-- dir_2ebfa31ad3219d1ad0a75b1e329dc997 -->
<g id="node6" class="node">
<title>dir_2ebfa31ad3219d1ad0a75b1e329dc997</title>
<g id="a_node6"><a xlink:href="dir_2ebfa31ad3219d1ad0a75b1e329dc997.html" target="_top" xlink:title="libcli">
<polygon fill="none" stroke="#000000" points="103,-108 49,-108 49,-72 103,-72 103,-108"/>
<text text-anchor="middle" x="76" y="-87" font-family="Helvetica,sans-Serif" font-size="10.00" fill="#000000">libcli</text>
</a>
</g>
</g>
<!-- dir_16793c05e3522f9e206b4b7a39610266&#45;&gt;dir_2ebfa31ad3219d1ad0a75b1e329dc997 -->
<g id="edge10" class="edge">
<title>dir_16793c05e3522f9e206b4b7a39610266&#45;&gt;dir_2ebfa31ad3219d1ad0a75b1e329dc997</title>
<path fill="none" stroke="#000000" d="M54.1663,-215.7623C58.4492,-191.0928 66.1285,-146.8598 71.1436,-117.9731"/>
<polygon fill="#000000" stroke="#000000" points="74.5973,-118.541 72.8594,-108.0896 67.7004,-117.3435 74.5973,-118.541"/>
<g id="a_edge10&#45;headlabel"><a xlink:href="dir_000004_000025.html" target="_top" xlink:title="1">
<text text-anchor="middle" x="76.7799" y="-119.5682" font-family="Helvetica,sans-Serif" font-size="10.00" fill="#000000">1</text>
</a>
</g>
</g>
<!-- dir_68267d1309a1af8e8297ef4c3efbcdba&#45;&gt;dir_23ec12649285f9fabf3a6b7380226c28 -->
<g id="edge1" class="edge">
<title>dir_68267d1309a1af8e8297ef4c3efbcdba&#45;&gt;dir_23ec12649285f9fabf3a6b7380226c28</title>
<path fill="none" stroke="#000000" d="M169.9646,-143.9169C176.6538,-134.0371 185.0166,-121.1563 189,-108 195.0515,-88.0132 192.6458,-64.4757 190.208,-46.4851"/>
<polygon fill="#000000" stroke="#000000" points="193.6415,-45.7647 188.7969,-36.3424 186.7083,-46.7294 193.6415,-45.7647"/>
<g id="a_edge1&#45;headlabel"><a xlink:href="dir_000023_000026.html" target="_top" xlink:title="8">
<text text-anchor="middle" x="196.949" y="-45.9338" font-family="Helvetica,sans-Serif" font-size="10.00" fill="#000000">8</text>
</a>
</g>
</g>
<!-- dir_68267d1309a1af8e8297ef4c3efbcdba&#45;&gt;dir_25b35af5d6fe939e26498b93aa0ed469 -->
<g id="edge2" class="edge">
<title>dir_68267d1309a1af8e8297ef4c3efbcdba&#45;&gt;dir_25b35af5d6fe939e26498b93aa0ed469</title>
<path fill="none" stroke="#000000" d="M154.2812,-143.8314C152.7821,-136.131 151.671,-126.9743 151.1476,-118.4166"/>
<polygon fill="#000000" stroke="#000000" points="154.6455,-118.2911 150.8142,-108.4133 147.6494,-118.5244 154.6455,-118.2911"/>
<g id="a_edge2&#45;headlabel"><a xlink:href="dir_000023_000000.html" target="_top" xlink:title="4">
<text text-anchor="middle" x="157.6029" y="-118.7891" font-family="Helvetica,sans-Serif" font-size="10.00" fill="#000000">4</text>
</a>
</g>
</g>
<!-- dir_68267d1309a1af8e8297ef4c3efbcdba&#45;&gt;dir_2ebfa31ad3219d1ad0a75b1e329dc997 -->
<g id="edge3" class="edge">
<title>dir_68267d1309a1af8e8297ef4c3efbcdba&#45;&gt;dir_2ebfa31ad3219d1ad0a75b1e329dc997</title>
<path fill="none" stroke="#000000" d="M140.2986,-143.8314C129.8079,-135.0485 117.0545,-124.3712 105.6806,-114.8489"/>
<polygon fill="#000000" stroke="#000000" points="107.6089,-111.8986 97.6945,-108.1628 103.1153,-117.2659 107.6089,-111.8986"/>
<g id="a_edge3&#45;headlabel"><a xlink:href="dir_000023_000025.html" target="_top" xlink:title="1">
<text text-anchor="middle" x="112.1877" y="-109.029" font-family="Helvetica,sans-Serif" font-size="10.00" fill="#000000">1</text>
</a>
</g>
</g>
<!-- dir_23ec12649285f9fabf3a6b7380226c28&#45;&gt;dir_68267d1309a1af8e8297ef4c3efbcdba -->
<g id="edge4" class="edge">
<title>dir_23ec12649285f9fabf3a6b7380226c28&#45;&gt;dir_68267d1309a1af8e8297ef4c3efbcdba</title>
<path fill="none" stroke="#000000" d="M202.4024,-36.3424C209.3299,-54.8275 214.2732,-83.9784 207,-108 204.0124,-117.8673 198.5615,-127.5795 192.3788,-135.987"/>
<polygon fill="#000000" stroke="#000000" points="189.5445,-133.9268 186.0164,-143.9169 195.0044,-138.3074 189.5445,-133.9268"/>
<g id="a_edge4&#45;headlabel"><a xlink:href="dir_000026_000023.html" target="_top" xlink:title="6">
<text text-anchor="middle" x="189.5794" y="-126.3463" font-family="Helvetica,sans-Serif" font-size="10.00" fill="#000000">6</text>
</a>
</g>
</g>
<!-- dir_25b35af5d6fe939e26498b93aa0ed469&#45;&gt;dir_68267d1309a1af8e8297ef4c3efbcdba -->
<g id="edge5" class="edge">
<title>dir_25b35af5d6fe939e26498b93aa0ed469&#45;&gt;dir_68267d1309a1af8e8297ef4c3efbcdba</title>
<path fill="none" stroke="#000000" d="M162.7662,-108.4133C164.2407,-116.0593 165.3336,-125.1084 165.8517,-133.5726"/>
<polygon fill="#000000" stroke="#000000" points="162.3621,-133.9507 166.186,-143.8314 169.3584,-133.7226 162.3621,-133.9507"/>
<g id="a_edge5&#45;headlabel"><a xlink:href="dir_000000_000023.html" target="_top" xlink:title="4">
<text text-anchor="middle" x="159.4073" y="-127.4504" font-family="Helvetica,sans-Serif" font-size="10.00" fill="#000000">4</text>
</a>
</g>
</g>
<!-- dir_25b35af5d6fe939e26498b93aa0ed469&#45;&gt;dir_23ec12649285f9fabf3a6b7380226c28 -->
<g id="edge6" class="edge">
<title>dir_25b35af5d6fe939e26498b93aa0ed469&#45;&gt;dir_23ec12649285f9fabf3a6b7380226c28</title>
<path fill="none" stroke="#000000" d="M163.832,-71.8314C167.6986,-63.8771 172.3206,-54.369 176.5968,-45.5723"/>
<polygon fill="#000000" stroke="#000000" points="179.8249,-46.9371 181.0491,-36.4133 173.5293,-43.8768 179.8249,-46.9371"/>
<g id="a_edge6&#45;headlabel"><a xlink:href="dir_000000_000026.html" target="_top" xlink:title="2">
<text text-anchor="middle" x="180.807" y="-48.4113" font-family="Helvetica,sans-Serif" font-size="10.00" fill="#000000">2</text>
</a>
</g>
</g>
</g>
</svg>
