<?xml version="1.0" encoding="UTF-8" standalone="no"?>
<!DOCTYPE svg PUBLIC "-//W3C//DTD SVG 1.1//EN"
 "http://www.w3.org/Graphics/SVG/1.1/DTD/svg11.dtd">
<!-- Generated by graphviz version 2.40.1 (20161225.0304)
 -->
<!-- Title: ext_comps Pages: 1 -->
<svg width="224pt" height="348pt"
 viewBox="0.00 0.00 223.73 348.00" xmlns="http://www.w3.org/2000/svg" xmlns:xlink="http://www.w3.org/1999/xlink">
<g id="graph0" class="graph" transform="scale(1 1) rotate(0) translate(4 344)">
<title>ext_comps</title>
<polygon fill="#ffffff" stroke="transparent" points="-4,4 -4,-344 219.7347,-344 219.7347,4 -4,4"/>
<g id="clust1" class="cluster">
<title>clusterdir_d7c209a246552ade0a12df4403b93cd5</title>
<g id="a_clust1"><a xlink:href="dir_d7c209a246552ade0a12df4403b93cd5.html" target="_top">
<polygon fill="#eeeeff" stroke="#000000" points="8,-208 8,-332 160,-332 160,-208 8,-208"/>
</a>
</g>
</g>
<!-- dir_d7c209a246552ade0a12df4403b93cd5 -->
<g id="node1" class="node">
<title>dir_d7c209a246552ade0a12df4403b93cd5</title>
<text text-anchor="middle" x="120" y="-303" font-family="Helvetica,sans-Serif" font-size="10.00" fill="#000000">ext_comps</text>
</g>
<!-- dir_6c4861834e4980f643fd42e1bccda41f -->
<g id="node2" class="node">
<title>dir_6c4861834e4980f643fd42e1bccda41f</title>
<g id="a_node2"><a xlink:href="dir_6c4861834e4980f643fd42e1bccda41f.html" target="_top" xlink:title="shim">
<polygon fill="#ffffff" stroke="#ff0000" points="70,-324 16,-324 16,-288 70,-288 70,-324"/>
<text text-anchor="middle" x="43" y="-303" font-family="Helvetica,sans-Serif" font-size="10.00" fill="#000000">shim</text>
</a>
</g>
</g>
<!-- dir_e58e4659d14cfa13982aff34da34673d -->
<g id="node3" class="node">
<title>dir_e58e4659d14cfa13982aff34da34673d</title>
<g id="a_node3"><a xlink:href="dir_e58e4659d14cfa13982aff34da34673d.html" target="_top" xlink:title="topo_mgmt">
<polygon fill="#ffffff" stroke="#ff0000" points="82.0244,-252 15.9756,-252 15.9756,-216 82.0244,-216 82.0244,-252"/>
<text text-anchor="middle" x="49" y="-231" font-family="Helvetica,sans-Serif" font-size="10.00" fill="#000000">topo_mgmt</text>
</a>
</g>
</g>
<!-- dir_6c4861834e4980f643fd42e1bccda41f&#45;&gt;dir_e58e4659d14cfa13982aff34da34673d -->
<g id="edge9" class="edge">
<title>dir_6c4861834e4980f643fd42e1bccda41f&#45;&gt;dir_e58e4659d14cfa13982aff34da34673d</title>
<path fill="none" stroke="#000000" d="M44.5141,-287.8314C45.1558,-280.131 45.9188,-270.9743 46.6319,-262.4166"/>
<polygon fill="#000000" stroke="#000000" points="50.1229,-262.6694 47.4656,-252.4133 43.1471,-262.088 50.1229,-262.6694"/>
<g id="a_edge9&#45;headlabel"><a xlink:href="dir_000020_000016.html" target="_top" xlink:title="2">
<text text-anchor="middle" x="52.654" y="-263.4874" font-family="Helvetica,sans-Serif" font-size="10.00" fill="#000000">2</text>
</a>
</g>
</g>
<!-- dir_68267d1309a1af8e8297ef4c3efbcdba -->
<g id="node4" class="node">
<title>dir_68267d1309a1af8e8297ef4c3efbcdba</title>
<g id="a_node4"><a xlink:href="dir_68267d1309a1af8e8297ef4c3efbcdba.html" target="_top" xlink:title="src">
<polygon fill="#ffffff" stroke="#ff0000" points="137,-180 83,-180 83,-144 137,-144 137,-180"/>
<text text-anchor="middle" x="110" y="-159" font-family="Helvetica,sans-Serif" font-size="10.00" fill="#000000">src</text>
</a>
</g>
</g>
<!-- dir_6c4861834e4980f643fd42e1bccda41f&#45;&gt;dir_68267d1309a1af8e8297ef4c3efbcdba -->
<g id="edge5" class="edge">
<title>dir_6c4861834e4980f643fd42e1bccda41f&#45;&gt;dir_68267d1309a1af8e8297ef4c3efbcdba</title>
<path fill="none" stroke="#000000" d="M63.5055,-287.8496C73.2481,-278.143 84.2188,-265.4379 91,-252 100.743,-232.693 105.4949,-208.6276 107.8098,-190.2408"/>
<polygon fill="#000000" stroke="#000000" points="111.3054,-190.4706 108.9104,-180.15 104.3466,-189.7115 111.3054,-190.4706"/>
<g id="a_edge5&#45;headlabel"><a xlink:href="dir_000020_000023.html" target="_top" xlink:title="1">
<text text-anchor="middle" x="113.7382" y="-191.3519" font-family="Helvetica,sans-Serif" font-size="10.00" fill="#000000">1</text>
</a>
</g>
</g>
<!-- dir_23ec12649285f9fabf3a6b7380226c28 -->
<g id="node5" class="node">
<title>dir_23ec12649285f9fabf3a6b7380226c28</title>
<g id="a_node5"><a xlink:href="dir_23ec12649285f9fabf3a6b7380226c28.html" target="_top" xlink:title="util">
<polygon fill="#ffffff" stroke="#ff0000" points="138,-36 84,-36 84,0 138,0 138,-36"/>
<text text-anchor="middle" x="111" y="-15" font-family="Helvetica,sans-Serif" font-size="10.00" fill="#000000">util</text>
</a>
</g>
</g>
<!-- dir_6c4861834e4980f643fd42e1bccda41f&#45;&gt;dir_23ec12649285f9fabf3a6b7380226c28 -->
<g id="edge6" class="edge">
<title>dir_6c4861834e4980f643fd42e1bccda41f&#45;&gt;dir_23ec12649285f9fabf3a6b7380226c28</title>
<path fill="none" stroke="#000000" d="M70.1644,-291.7732C96.6342,-277.7428 133.6588,-257.6081 139,-252 188.3485,-200.1856 194.5602,-177.64 211,-108 214.676,-92.428 219.1964,-85.7411 211,-72 197.3529,-49.1208 170.2841,-35.3542 147.7476,-27.4522"/>
<polygon fill="#000000" stroke="#000000" points="148.6907,-24.0786 138.0986,-24.3189 146.5287,-30.7364 148.6907,-24.0786"/>
<g id="a_edge6&#45;headlabel"><a xlink:href="dir_000020_000026.html" target="_top" xlink:title="9">
<text text-anchor="middle" x="152.9864" y="-19.4883" font-family="Helvetica,sans-Serif" font-size="10.00" fill="#000000">9</text>
</a>
</g>
</g>
<!-- dir_2ebfa31ad3219d1ad0a75b1e329dc997 -->
<g id="node6" class="node">
<title>dir_2ebfa31ad3219d1ad0a75b1e329dc997</title>
<g id="a_node6"><a xlink:href="dir_2ebfa31ad3219d1ad0a75b1e329dc997.html" target="_top" xlink:title="libcli">
<polygon fill="none" stroke="#000000" points="202,-108 148,-108 148,-72 202,-72 202,-108"/>
<text text-anchor="middle" x="175" y="-87" font-family="Helvetica,sans-Serif" font-size="10.00" fill="#000000">libcli</text>
</a>
</g>
</g>
<!-- dir_6c4861834e4980f643fd42e1bccda41f&#45;&gt;dir_2ebfa31ad3219d1ad0a75b1e329dc997 -->
<g id="edge7" class="edge">
<title>dir_6c4861834e4980f643fd42e1bccda41f&#45;&gt;dir_2ebfa31ad3219d1ad0a75b1e329dc997</title>
<path fill="none" stroke="#000000" d="M70.0653,-289.2566C83.9384,-279.6563 100.3232,-266.6193 112,-252 144.3428,-211.5071 161.6435,-152.4388 169.5287,-117.94"/>
<polygon fill="#000000" stroke="#000000" points="172.97,-118.586 171.6798,-108.07 166.1306,-117.0953 172.97,-118.586"/>
<g id="a_edge7&#45;headlabel"><a xlink:href="dir_000020_000025.html" target="_top" xlink:title="1">
<text text-anchor="middle" x="174.9788" y="-119.7027" font-family="Helvetica,sans-Serif" font-size="10.00" fill="#000000">1</text>
</a>
</g>
</g>
<!-- dir_7d604191edc08013a26f918aa8ef79ad -->
<g id="node7" class="node">
<title>dir_7d604191edc08013a26f918aa8ef79ad</title>
<g id="a_node7"><a xlink:href="dir_7d604191edc08013a26f918aa8ef79ad.html" target="_top" xlink:title="events">
<polygon fill="#ffffff" stroke="#ff0000" points="74,-108 20,-108 20,-72 74,-72 74,-108"/>
<text text-anchor="middle" x="47" y="-87" font-family="Helvetica,sans-Serif" font-size="10.00" fill="#000000">events</text>
</a>
</g>
</g>
<!-- dir_6c4861834e4980f643fd42e1bccda41f&#45;&gt;dir_7d604191edc08013a26f918aa8ef79ad -->
<g id="edge8" class="edge">
<title>dir_6c4861834e4980f643fd42e1bccda41f&#45;&gt;dir_7d604191edc08013a26f918aa8ef79ad</title>
<path fill="none" stroke="#000000" d="M27.0095,-287.9169C19.3462,-278.0371 10.9834,-265.1563 7,-252 -7.2117,-205.0619 14.8645,-149.3604 31.4501,-117.0117"/>
<polygon fill="#000000" stroke="#000000" points="34.5595,-118.6187 36.161,-108.1456 28.3779,-115.3342 34.5595,-118.6187"/>
<g id="a_edge8&#45;headlabel"><a xlink:href="dir_000020_000019.html" target="_top" xlink:title="2">
<text text-anchor="middle" x="35.3802" y="-120.1253" font-family="Helvetica,sans-Serif" font-size="10.00" fill="#000000">2</text>
</a>
</g>
</g>
<!-- dir_e58e4659d14cfa13982aff34da34673d&#45;&gt;dir_68267d1309a1af8e8297ef4c3efbcdba -->
<g id="edge12" class="edge">
<title>dir_e58e4659d14cfa13982aff34da34673d&#45;&gt;dir_68267d1309a1af8e8297ef4c3efbcdba</title>
<path fill="none" stroke="#000000" d="M64.3929,-215.8314C71.4904,-207.454 80.048,-197.3531 87.824,-188.1749"/>
<polygon fill="#000000" stroke="#000000" points="90.6061,-190.3056 94.3999,-180.4133 85.2652,-185.7807 90.6061,-190.3056"/>
<g id="a_edge12&#45;headlabel"><a xlink:href="dir_000016_000023.html" target="_top" xlink:title="1">
<text text-anchor="middle" x="90.4488" y="-191.8836" font-family="Helvetica,sans-Serif" font-size="10.00" fill="#000000">1</text>
</a>
</g>
</g>
<!-- dir_e58e4659d14cfa13982aff34da34673d&#45;&gt;dir_23ec12649285f9fabf3a6b7380226c28 -->
<g id="edge13" class="edge">
<title>dir_e58e4659d14cfa13982aff34da34673d&#45;&gt;dir_23ec12649285f9fabf3a6b7380226c28</title>
<path fill="none" stroke="#000000" d="M36.4919,-215.6546C16.7134,-184.1466 -16.8217,-118.6427 11,-72 24.6471,-49.1208 51.7159,-35.3542 74.2524,-27.4522"/>
<polygon fill="#000000" stroke="#000000" points="75.4713,-30.7364 83.9014,-24.3189 73.3093,-24.0786 75.4713,-30.7364"/>
<g id="a_edge13&#45;headlabel"><a xlink:href="dir_000016_000026.html" target="_top" xlink:title="1">
<text text-anchor="middle" x="72.9293" y="-31.547" font-family="Helvetica,sans-Serif" font-size="10.00" fill="#000000">1</text>
</a>
</g>
</g>
<!-- dir_e58e4659d14cfa13982aff34da34673d&#45;&gt;dir_7d604191edc08013a26f918aa8ef79ad -->
<g id="edge14" class="edge">
<title>dir_e58e4659d14cfa13982aff34da34673d&#45;&gt;dir_7d604191edc08013a26f918aa8ef79ad</title>
<path fill="none" stroke="#000000" d="M48.7467,-215.7623C48.4056,-191.201 47.7951,-147.2474 47.3938,-118.3541"/>
<polygon fill="#000000" stroke="#000000" points="50.8899,-118.04 47.2512,-108.0896 43.8906,-118.1373 50.8899,-118.04"/>
<g id="a_edge14&#45;headlabel"><a xlink:href="dir_000016_000019.html" target="_top" xlink:title="1">
<text text-anchor="middle" x="53.7787" y="-118.5949" font-family="Helvetica,sans-Serif" font-size="10.00" fill="#000000">1</text>
</a>
</g>
</g>
<!-- dir_68267d1309a1af8e8297ef4c3efbcdba&#45;&gt;dir_23ec12649285f9fabf3a6b7380226c28 -->
<g id="edge1" class="edge">
<title>dir_68267d1309a1af8e8297ef4c3efbcdba&#45;&gt;dir_23ec12649285f9fabf3a6b7380226c28</title>
<path fill="none" stroke="#000000" d="M105.4535,-143.7623C103.1642,-119.201 103.1947,-75.2474 105.3057,-46.3541"/>
<polygon fill="#000000" stroke="#000000" points="108.8188,-46.3598 106.2161,-36.0896 101.8462,-45.7413 108.8188,-46.3598"/>
<g id="a_edge1&#45;headlabel"><a xlink:href="dir_000023_000026.html" target="_top" xlink:title="8">
<text text-anchor="middle" x="111.3295" y="-47.1911" font-family="Helvetica,sans-Serif" font-size="10.00" fill="#000000">8</text>
</a>
</g>
</g>
<!-- dir_68267d1309a1af8e8297ef4c3efbcdba&#45;&gt;dir_2ebfa31ad3219d1ad0a75b1e329dc997 -->
<g id="edge2" class="edge">
<title>dir_68267d1309a1af8e8297ef4c3efbcdba&#45;&gt;dir_2ebfa31ad3219d1ad0a75b1e329dc997</title>
<path fill="none" stroke="#000000" d="M126.4022,-143.8314C134.0415,-135.3694 143.2683,-125.1489 151.6207,-115.8971"/>
<polygon fill="#000000" stroke="#000000" points="154.2738,-118.1813 158.3769,-108.4133 149.0779,-113.4906 154.2738,-118.1813"/>
<g id="a_edge2&#45;headlabel"><a xlink:href="dir_000023_000025.html" target="_top" xlink:title="1">
<text text-anchor="middle" x="153.9726" y="-119.7521" font-family="Helvetica,sans-Serif" font-size="10.00" fill="#000000">1</text>
</a>
</g>
</g>
<!-- dir_68267d1309a1af8e8297ef4c3efbcdba&#45;&gt;dir_7d604191edc08013a26f918aa8ef79ad -->
<g id="edge3" class="edge">
<title>dir_68267d1309a1af8e8297ef4c3efbcdba&#45;&gt;dir_7d604191edc08013a26f918aa8ef79ad</title>
<path fill="none" stroke="#000000" d="M88.15,-143.8314C80.0857,-135.5386 71.1578,-125.557 63.6122,-116.4533"/>
<polygon fill="#000000" stroke="#000000" points="66.1345,-114.0052 57.1356,-108.4133 60.6832,-118.3965 66.1345,-114.0052"/>
<g id="a_edge3&#45;headlabel"><a xlink:href="dir_000023_000019.html" target="_top" xlink:title="4">
<text text-anchor="middle" x="70.6006" y="-112.0234" font-family="Helvetica,sans-Serif" font-size="10.00" fill="#000000">4</text>
</a>
</g>
</g>
<!-- dir_23ec12649285f9fabf3a6b7380226c28&#45;&gt;dir_68267d1309a1af8e8297ef4c3efbcdba -->
<g id="edge4" class="edge">
<title>dir_23ec12649285f9fabf3a6b7380226c28&#45;&gt;dir_68267d1309a1af8e8297ef4c3efbcdba</title>
<path fill="none" stroke="#000000" d="M115.5327,-36.0896C117.8313,-60.5727 117.8096,-104.5174 115.707,-133.4713"/>
<polygon fill="#000000" stroke="#000000" points="112.1916,-133.4935 114.7998,-143.7623 119.1646,-134.1083 112.1916,-133.4935"/>
<g id="a_edge4&#45;headlabel"><a xlink:href="dir_000026_000023.html" target="_top" xlink:title="6">
<text text-anchor="middle" x="109.6789" y="-126.6635" font-family="Helvetica,sans-Serif" font-size="10.00" fill="#000000">6</text>
</a>
</g>
</g>
<!-- dir_7d604191edc08013a26f918aa8ef79ad&#45;&gt;dir_68267d1309a1af8e8297ef4c3efbcdba -->
<g id="edge10" class="edge">
<title>dir_7d604191edc08013a26f918aa8ef79ad&#45;&gt;dir_68267d1309a1af8e8297ef4c3efbcdba</title>
<path fill="none" stroke="#000000" d="M69.0876,-108.4133C77.1687,-116.7389 86.0913,-126.7282 93.6095,-135.8144"/>
<polygon fill="#000000" stroke="#000000" points="91.0613,-138.2307 100.0548,-143.8314 96.5168,-133.8447 91.0613,-138.2307"/>
<g id="a_edge10&#45;headlabel"><a xlink:href="dir_000019_000023.html" target="_top" xlink:title="4">
<text text-anchor="middle" x="86.5962" y="-134.2083" font-family="Helvetica,sans-Serif" font-size="10.00" fill="#000000">4</text>
</a>
</g>
</g>
<!-- dir_7d604191edc08013a26f918aa8ef79ad&#45;&gt;dir_23ec12649285f9fabf3a6b7380226c28 -->
<g id="edge11" class="edge">
<title>dir_7d604191edc08013a26f918aa8ef79ad&#45;&gt;dir_23ec12649285f9fabf3a6b7380226c28</title>
<path fill="none" stroke="#000000" d="M63.1499,-71.8314C70.6717,-63.3694 79.7565,-53.1489 87.9804,-43.8971"/>
<polygon fill="#000000" stroke="#000000" points="90.6049,-46.2127 94.6327,-36.4133 85.373,-41.5621 90.6049,-46.2127"/>
<g id="a_edge11&#45;headlabel"><a xlink:href="dir_000019_000026.html" target="_top" xlink:title="2">
<text text-anchor="middle" x="90.3389" y="-47.7856" font-family="Helvetica,sans-Serif" font-size="10.00" fill="#000000">2</text>
</a>
</g>
</g>
</g>
</svg>
