<?xml version="1.0" encoding="UTF-8" standalone="no"?>
<!DOCTYPE svg PUBLIC "-//W3C//DTD SVG 1.1//EN"
 "http://www.w3.org/Graphics/SVG/1.1/DTD/svg11.dtd">
<!-- Generated by graphviz version 2.40.1 (20161225.0304)
 -->
<!-- Title: components Pages: 1 -->
<svg width="182pt" height="420pt"
 viewBox="0.00 0.00 182.15 420.00" xmlns="http://www.w3.org/2000/svg" xmlns:xlink="http://www.w3.org/1999/xlink">
<g id="graph0" class="graph" transform="scale(1 1) rotate(0) translate(4 416)">
<title>components</title>
<polygon fill="#ffffff" stroke="transparent" points="-4,4 -4,-416 178.1528,-416 178.1528,4 -4,4"/>
<g id="clust1" class="cluster">
<title>clusterdir_409f97388efe006bc3438b95e9edef48</title>
<g id="a_clust1"><a xlink:href="dir_409f97388efe006bc3438b95e9edef48.html" target="_top">
<polygon fill="#eeeeff" stroke="#000000" points="35,-280 35,-404 121,-404 121,-280 35,-280"/>
</a>
</g>
</g>
<!-- dir_409f97388efe006bc3438b95e9edef48 -->
<g id="node1" class="node">
<title>dir_409f97388efe006bc3438b95e9edef48</title>
<text text-anchor="middle" x="78" y="-375" font-family="Helvetica,sans-Serif" font-size="10.00" fill="#000000">components</text>
</g>
<!-- dir_74b77db838fca204c81ae8864cd83d58 -->
<g id="node2" class="node">
<title>dir_74b77db838fca204c81ae8864cd83d58</title>
<g id="a_node2"><a xlink:href="dir_74b77db838fca204c81ae8864cd83d58.html" target="_top" xlink:title="include">
<polygon fill="#ffffff" stroke="#000000" points="109,-324 55,-324 55,-288 109,-288 109,-324"/>
<text text-anchor="middle" x="82" y="-303" font-family="Helvetica,sans-Serif" font-size="10.00" fill="#000000">include</text>
</a>
</g>
</g>
<!-- dir_409f97388efe006bc3438b95e9edef48&#45;&gt;dir_74b77db838fca204c81ae8864cd83d58 -->
<g id="edge5" class="edge">
<title>dir_409f97388efe006bc3438b95e9edef48&#45;&gt;dir_74b77db838fca204c81ae8864cd83d58</title>
<path fill="none" stroke="#000000" d="M79.0094,-359.8314C79.4372,-352.131 79.9459,-342.9743 80.4213,-334.4166"/>
<polygon fill="#000000" stroke="#000000" points="83.9169,-334.592 80.977,-324.4133 76.9276,-334.2037 83.9169,-334.592"/>
<g id="a_edge5&#45;headlabel"><a xlink:href="dir_000013_000014.html" target="_top" xlink:title="16">
<text text-anchor="middle" x="86.5525" y="-335.3386" font-family="Helvetica,sans-Serif" font-size="10.00" fill="#000000">16</text>
</a>
</g>
</g>
<!-- dir_7d604191edc08013a26f918aa8ef79ad -->
<g id="node6" class="node">
<title>dir_7d604191edc08013a26f918aa8ef79ad</title>
<g id="a_node6"><a xlink:href="dir_7d604191edc08013a26f918aa8ef79ad.html" target="_top" xlink:title="events">
<polygon fill="#ffffff" stroke="#ff0000" points="54,-252 0,-252 0,-216 54,-216 54,-252"/>
<text text-anchor="middle" x="27" y="-231" font-family="Helvetica,sans-Serif" font-size="10.00" fill="#000000">events</text>
</a>
</g>
</g>
<!-- dir_409f97388efe006bc3438b95e9edef48&#45;&gt;dir_7d604191edc08013a26f918aa8ef79ad -->
<g id="edge6" class="edge">
<title>dir_409f97388efe006bc3438b95e9edef48&#45;&gt;dir_7d604191edc08013a26f918aa8ef79ad</title>
<path fill="none" stroke="#000000" d="M65.1628,-359.7775C58.5665,-349.6539 50.9054,-336.591 46,-324 38.1978,-303.9736 33.3479,-280.1291 30.5025,-262.0161"/>
<polygon fill="#000000" stroke="#000000" points="33.9606,-261.4748 29.0516,-252.0859 27.0342,-262.4869 33.9606,-261.4748"/>
<g id="a_edge6&#45;headlabel"><a xlink:href="dir_000013_000019.html" target="_top" xlink:title="17">
<text text-anchor="middle" x="37.2897" y="-261.6212" font-family="Helvetica,sans-Serif" font-size="10.00" fill="#000000">17</text>
</a>
</g>
</g>
<!-- dir_68267d1309a1af8e8297ef4c3efbcdba -->
<g id="node3" class="node">
<title>dir_68267d1309a1af8e8297ef4c3efbcdba</title>
<g id="a_node3"><a xlink:href="dir_68267d1309a1af8e8297ef4c3efbcdba.html" target="_top" xlink:title="src">
<polygon fill="#ffffff" stroke="#ff0000" points="160,-180 106,-180 106,-144 160,-144 160,-180"/>
<text text-anchor="middle" x="133" y="-159" font-family="Helvetica,sans-Serif" font-size="10.00" fill="#000000">src</text>
</a>
</g>
</g>
<!-- dir_74b77db838fca204c81ae8864cd83d58&#45;&gt;dir_68267d1309a1af8e8297ef4c3efbcdba -->
<g id="edge7" class="edge">
<title>dir_74b77db838fca204c81ae8864cd83d58&#45;&gt;dir_68267d1309a1af8e8297ef4c3efbcdba</title>
<path fill="none" stroke="#000000" d="M88.4592,-287.7623C97.2346,-262.9846 112.9997,-218.4714 123.2272,-189.5939"/>
<polygon fill="#000000" stroke="#000000" points="126.5539,-190.6844 126.5933,-180.0896 119.9555,-188.3474 126.5539,-190.6844"/>
<g id="a_edge7&#45;headlabel"><a xlink:href="dir_000014_000023.html" target="_top" xlink:title="16">
<text text-anchor="middle" x="128.0303" y="-192.0206" font-family="Helvetica,sans-Serif" font-size="10.00" fill="#000000">16</text>
</a>
</g>
</g>
<!-- dir_23ec12649285f9fabf3a6b7380226c28 -->
<g id="node4" class="node">
<title>dir_23ec12649285f9fabf3a6b7380226c28</title>
<g id="a_node4"><a xlink:href="dir_23ec12649285f9fabf3a6b7380226c28.html" target="_top" xlink:title="util">
<polygon fill="#ffffff" stroke="#ff0000" points="165,-36 111,-36 111,0 165,0 165,-36"/>
<text text-anchor="middle" x="138" y="-15" font-family="Helvetica,sans-Serif" font-size="10.00" fill="#000000">util</text>
</a>
</g>
</g>
<!-- dir_74b77db838fca204c81ae8864cd83d58&#45;&gt;dir_23ec12649285f9fabf3a6b7380226c28 -->
<g id="edge8" class="edge">
<title>dir_74b77db838fca204c81ae8864cd83d58&#45;&gt;dir_23ec12649285f9fabf3a6b7380226c28</title>
<path fill="none" stroke="#000000" d="M100.048,-287.9409C121.4347,-265.1099 155.8273,-223.5063 169,-180 182.9874,-133.8027 165.1147,-78.2068 151.2741,-45.6183"/>
<polygon fill="#000000" stroke="#000000" points="154.3907,-44.0116 147.1479,-36.2791 147.9878,-46.8406 154.3907,-44.0116"/>
<g id="a_edge8&#45;headlabel"><a xlink:href="dir_000014_000026.html" target="_top" xlink:title="12">
<text text-anchor="middle" x="158.4404" y="-43.1522" font-family="Helvetica,sans-Serif" font-size="10.00" fill="#000000">12</text>
</a>
</g>
</g>
<!-- dir_25b35af5d6fe939e26498b93aa0ed469 -->
<g id="node5" class="node">
<title>dir_25b35af5d6fe939e26498b93aa0ed469</title>
<g id="a_node5"><a xlink:href="dir_25b35af5d6fe939e26498b93aa0ed469.html" target="_top" xlink:title="app_events">
<polygon fill="#ffffff" stroke="#ff0000" points="100.7096,-108 33.2904,-108 33.2904,-72 100.7096,-72 100.7096,-108"/>
<text text-anchor="middle" x="67" y="-87" font-family="Helvetica,sans-Serif" font-size="10.00" fill="#000000">app_events</text>
</a>
</g>
</g>
<!-- dir_74b77db838fca204c81ae8864cd83d58&#45;&gt;dir_25b35af5d6fe939e26498b93aa0ed469 -->
<g id="edge9" class="edge">
<title>dir_74b77db838fca204c81ae8864cd83d58&#45;&gt;dir_25b35af5d6fe939e26498b93aa0ed469</title>
<path fill="none" stroke="#000000" d="M80.7469,-287.9555C78.1329,-250.3144 72.0824,-163.1867 68.9531,-118.1246"/>
<polygon fill="#000000" stroke="#000000" points="72.4445,-117.8785 68.2601,-108.1451 65.4614,-118.3635 72.4445,-117.8785"/>
<g id="a_edge9&#45;headlabel"><a xlink:href="dir_000014_000000.html" target="_top" xlink:title="1">
<text text-anchor="middle" x="75.5259" y="-118.2679" font-family="Helvetica,sans-Serif" font-size="10.00" fill="#000000">1</text>
</a>
</g>
</g>
<!-- dir_74b77db838fca204c81ae8864cd83d58&#45;&gt;dir_7d604191edc08013a26f918aa8ef79ad -->
<g id="edge10" class="edge">
<title>dir_74b77db838fca204c81ae8864cd83d58&#45;&gt;dir_7d604191edc08013a26f918aa8ef79ad</title>
<path fill="none" stroke="#000000" d="M68.1212,-287.8314C61.7864,-279.5386 54.1616,-269.557 47.2074,-260.4533"/>
<polygon fill="#000000" stroke="#000000" points="49.9175,-258.2353 41.0657,-252.4133 44.3548,-262.4847 49.9175,-258.2353"/>
<g id="a_edge10&#45;headlabel"><a xlink:href="dir_000014_000019.html" target="_top" xlink:title="16">
<text text-anchor="middle" x="54.3558" y="-256.3683" font-family="Helvetica,sans-Serif" font-size="10.00" fill="#000000">16</text>
</a>
</g>
</g>
<!-- dir_68267d1309a1af8e8297ef4c3efbcdba&#45;&gt;dir_23ec12649285f9fabf3a6b7380226c28 -->
<g id="edge1" class="edge">
<title>dir_68267d1309a1af8e8297ef4c3efbcdba&#45;&gt;dir_23ec12649285f9fabf3a6b7380226c28</title>
<path fill="none" stroke="#000000" d="M128.9601,-143.7623C127.3531,-119.201 128.6045,-75.2474 131.5181,-46.3541"/>
<polygon fill="#000000" stroke="#000000" points="135.0331,-46.4274 132.7136,-36.0896 128.0801,-45.6175 135.0331,-46.4274"/>
<g id="a_edge1&#45;headlabel"><a xlink:href="dir_000023_000026.html" target="_top" xlink:title="8">
<text text-anchor="middle" x="137.4375" y="-47.3263" font-family="Helvetica,sans-Serif" font-size="10.00" fill="#000000">8</text>
</a>
</g>
</g>
<!-- dir_68267d1309a1af8e8297ef4c3efbcdba&#45;&gt;dir_25b35af5d6fe939e26498b93aa0ed469 -->
<g id="edge2" class="edge">
<title>dir_68267d1309a1af8e8297ef4c3efbcdba&#45;&gt;dir_25b35af5d6fe939e26498b93aa0ed469</title>
<path fill="none" stroke="#000000" d="M110.393,-143.8314C101.8974,-135.454 92.4486,-125.3531 84.4723,-116.1749"/>
<polygon fill="#000000" stroke="#000000" points="87.0349,-113.785 77.9028,-108.4133 81.6918,-118.3074 87.0349,-113.785"/>
<g id="a_edge2&#45;headlabel"><a xlink:href="dir_000023_000000.html" target="_top" xlink:title="4">
<text text-anchor="middle" x="91.5244" y="-111.6945" font-family="Helvetica,sans-Serif" font-size="10.00" fill="#000000">4</text>
</a>
</g>
</g>
<!-- dir_68267d1309a1af8e8297ef4c3efbcdba&#45;&gt;dir_7d604191edc08013a26f918aa8ef79ad -->
<g id="edge3" class="edge">
<title>dir_68267d1309a1af8e8297ef4c3efbcdba&#45;&gt;dir_7d604191edc08013a26f918aa8ef79ad</title>
<path fill="none" stroke="#000000" d="M112.3777,-180.0423C98.343,-190.2582 79.5541,-203.0677 63.1199,-213.642"/>
<polygon fill="#000000" stroke="#000000" points="60.8436,-210.9413 54.2773,-219.256 64.5955,-216.8509 60.8436,-210.9413"/>
<g id="a_edge3&#45;headlabel"><a xlink:href="dir_000023_000019.html" target="_top" xlink:title="4">
<text text-anchor="middle" x="62.3565" y="-203.6177" font-family="Helvetica,sans-Serif" font-size="10.00" fill="#000000">4</text>
</a>
</g>
</g>
<!-- dir_23ec12649285f9fabf3a6b7380226c28&#45;&gt;dir_68267d1309a1af8e8297ef4c3efbcdba -->
<g id="edge4" class="edge">
<title>dir_23ec12649285f9fabf3a6b7380226c28&#45;&gt;dir_68267d1309a1af8e8297ef4c3efbcdba</title>
<path fill="none" stroke="#000000" d="M142.0302,-36.0896C143.6487,-60.5727 142.4064,-104.5174 139.4995,-133.4713"/>
<polygon fill="#000000" stroke="#000000" points="135.9814,-133.4257 138.3064,-143.7623 142.9349,-134.2319 135.9814,-133.4257"/>
<g id="a_edge4&#45;headlabel"><a xlink:href="dir_000026_000023.html" target="_top" xlink:title="6">
<text text-anchor="middle" x="133.5749" y="-126.5281" font-family="Helvetica,sans-Serif" font-size="10.00" fill="#000000">6</text>
</a>
</g>
</g>
<!-- dir_25b35af5d6fe939e26498b93aa0ed469&#45;&gt;dir_68267d1309a1af8e8297ef4c3efbcdba -->
<g id="edge11" class="edge">
<title>dir_25b35af5d6fe939e26498b93aa0ed469&#45;&gt;dir_68267d1309a1af8e8297ef4c3efbcdba</title>
<path fill="none" stroke="#000000" d="M89.6011,-108.1628C98.1616,-116.6038 107.6906,-126.7956 115.706,-136.0303"/>
<polygon fill="#000000" stroke="#000000" points="113.1701,-138.4521 122.2978,-143.8314 118.5169,-133.9341 113.1701,-138.4521"/>
<g id="a_edge11&#45;headlabel"><a xlink:href="dir_000000_000023.html" target="_top" xlink:title="4">
<text text-anchor="middle" x="108.6814" y="-134.539" font-family="Helvetica,sans-Serif" font-size="10.00" fill="#000000">4</text>
</a>
</g>
</g>
<!-- dir_25b35af5d6fe939e26498b93aa0ed469&#45;&gt;dir_23ec12649285f9fabf3a6b7380226c28 -->
<g id="edge12" class="edge">
<title>dir_25b35af5d6fe939e26498b93aa0ed469&#45;&gt;dir_23ec12649285f9fabf3a6b7380226c28</title>
<path fill="none" stroke="#000000" d="M84.9163,-71.8314C93.3442,-63.2848 103.541,-52.9443 112.736,-43.6198"/>
<polygon fill="#000000" stroke="#000000" points="115.3131,-45.9912 119.8425,-36.4133 110.3289,-41.0761 115.3131,-45.9912"/>
<g id="a_edge12&#45;headlabel"><a xlink:href="dir_000000_000026.html" target="_top" xlink:title="2">
<text text-anchor="middle" x="114.8109" y="-47.5442" font-family="Helvetica,sans-Serif" font-size="10.00" fill="#000000">2</text>
</a>
</g>
</g>
<!-- dir_25b35af5d6fe939e26498b93aa0ed469&#45;&gt;dir_7d604191edc08013a26f918aa8ef79ad -->
<g id="edge13" class="edge">
<title>dir_25b35af5d6fe939e26498b93aa0ed469&#45;&gt;dir_7d604191edc08013a26f918aa8ef79ad</title>
<path fill="none" stroke="#000000" d="M61.9751,-108.0896C55.1443,-132.6805 42.8597,-176.905 34.8186,-205.8531"/>
<polygon fill="#000000" stroke="#000000" points="31.3702,-205.1903 32.066,-215.7623 38.1149,-207.0639 31.3702,-205.1903"/>
<g id="a_edge13&#45;headlabel"><a xlink:href="dir_000000_000019.html" target="_top" xlink:title="2">
<text text-anchor="middle" x="29.5965" y="-197.967" font-family="Helvetica,sans-Serif" font-size="10.00" fill="#000000">2</text>
</a>
</g>
</g>
<!-- dir_7d604191edc08013a26f918aa8ef79ad&#45;&gt;dir_68267d1309a1af8e8297ef4c3efbcdba -->
<g id="edge14" class="edge">
<title>dir_7d604191edc08013a26f918aa8ef79ad&#45;&gt;dir_68267d1309a1af8e8297ef4c3efbcdba</title>
<path fill="none" stroke="#000000" d="M47.7959,-215.8314C61.8095,-205.6379 80.5078,-192.8928 96.8724,-182.3629"/>
<polygon fill="#000000" stroke="#000000" points="99.1132,-185.0861 105.6792,-176.7712 95.3611,-179.1767 99.1132,-185.0861"/>
<g id="a_edge14&#45;headlabel"><a xlink:href="dir_000019_000023.html" target="_top" xlink:title="4">
<text text-anchor="middle" x="97.6005" y="-186.4098" font-family="Helvetica,sans-Serif" font-size="10.00" fill="#000000">4</text>
</a>
</g>
</g>
<!-- dir_7d604191edc08013a26f918aa8ef79ad&#45;&gt;dir_23ec12649285f9fabf3a6b7380226c28 -->
<g id="edge15" class="edge">
<title>dir_7d604191edc08013a26f918aa8ef79ad&#45;&gt;dir_23ec12649285f9fabf3a6b7380226c28</title>
<path fill="none" stroke="#000000" d="M20.649,-215.7506C10.7538,-183.8152 -4.4301,-116.9253 24,-72 40.8225,-45.4171 74.6603,-31.6643 101.1211,-24.713"/>
<polygon fill="#000000" stroke="#000000" points="101.9482,-28.114 110.8505,-22.3693 100.3088,-21.3086 101.9482,-28.114"/>
<g id="a_edge15&#45;headlabel"><a xlink:href="dir_000019_000026.html" target="_top" xlink:title="2">
<text text-anchor="middle" x="99.1185" y="-28.716" font-family="Helvetica,sans-Serif" font-size="10.00" fill="#000000">2</text>
</a>
</g>
</g>
</g>
</svg>
