<?xml version="1.0" encoding="UTF-8" standalone="no"?>
<!DOCTYPE svg PUBLIC "-//W3C//DTD SVG 1.1//EN"
 "http://www.w3.org/Graphics/SVG/1.1/DTD/svg11.dtd">
<!-- Generated by graphviz version 2.40.1 (20161225.0304)
 -->
<!-- Title: events Pages: 1 -->
<svg width="150pt" height="204pt"
 viewBox="0.00 0.00 150.00 204.00" xmlns="http://www.w3.org/2000/svg" xmlns:xlink="http://www.w3.org/1999/xlink">
<g id="graph0" class="graph" transform="scale(1 1) rotate(0) translate(4 200)">
<title>events</title>
<polygon fill="#ffffff" stroke="transparent" points="-4,4 -4,-200 146,-200 146,4 -4,4"/>
<g id="clust1" class="cluster">
<title>clusterdir_7d604191edc08013a26f918aa8ef79ad</title>
<g id="a_clust1"><a xlink:href="dir_7d604191edc08013a26f918aa8ef79ad.html" target="_top">
<polygon fill="#eeeeff" stroke="#000000" points="8,-64 8,-188 78,-188 78,-64 8,-64"/>
</a>
</g>
</g>
<!-- dir_7d604191edc08013a26f918aa8ef79ad -->
<g id="node1" class="node">
<title>dir_7d604191edc08013a26f918aa8ef79ad</title>
<text text-anchor="middle" x="43" y="-159" font-family="Helvetica,sans-Serif" font-size="10.00" fill="#000000">events</text>
</g>
<!-- dir_5ba165ccf1070c73e131dc4926949605 -->
<g id="node2" class="node">
<title>dir_5ba165ccf1070c73e131dc4926949605</title>
<g id="a_node2"><a xlink:href="dir_5ba165ccf1070c73e131dc4926949605.html" target="_top" xlink:title="include">
<polygon fill="#ffffff" stroke="#000000" points="70,-108 16,-108 16,-72 70,-72 70,-108"/>
<text text-anchor="middle" x="43" y="-87" font-family="Helvetica,sans-Serif" font-size="10.00" fill="#000000">include</text>
</a>
</g>
</g>
<!-- dir_7d604191edc08013a26f918aa8ef79ad&#45;&gt;dir_5ba165ccf1070c73e131dc4926949605 -->
<g id="edge6" class="edge">
<title>dir_7d604191edc08013a26f918aa8ef79ad&#45;&gt;dir_5ba165ccf1070c73e131dc4926949605</title>
<path fill="none" stroke="#000000" d="M43,-143.8314C43,-136.131 43,-126.9743 43,-118.4166"/>
<polygon fill="#000000" stroke="#000000" points="46.5001,-118.4132 43,-108.4133 39.5001,-118.4133 46.5001,-118.4132"/>
<g id="a_edge6&#45;headlabel"><a xlink:href="dir_000016_000018.html" target="_top" xlink:title="6">
<text text-anchor="middle" x="49.3393" y="-119.0079" font-family="Helvetica,sans-Serif" font-size="10.00" fill="#000000">6</text>
</a>
</g>
</g>
<!-- dir_68267d1309a1af8e8297ef4c3efbcdba -->
<g id="node3" class="node">
<title>dir_68267d1309a1af8e8297ef4c3efbcdba</title>
<g id="a_node3"><a xlink:href="dir_68267d1309a1af8e8297ef4c3efbcdba.html" target="_top" xlink:title="src">
<polygon fill="#ffffff" stroke="#ff0000" points="142,-108 88,-108 88,-72 142,-72 142,-108"/>
<text text-anchor="middle" x="115" y="-87" font-family="Helvetica,sans-Serif" font-size="10.00" fill="#000000">src</text>
</a>
</g>
</g>
<!-- dir_7d604191edc08013a26f918aa8ef79ad&#45;&gt;dir_68267d1309a1af8e8297ef4c3efbcdba -->
<g id="edge5" class="edge">
<title>dir_7d604191edc08013a26f918aa8ef79ad&#45;&gt;dir_68267d1309a1af8e8297ef4c3efbcdba</title>
<path fill="none" stroke="#000000" d="M55.2162,-143.8314C63.0663,-135.1337 73.4496,-124.5783 83.4049,-115.1265"/>
<polygon fill="#000000" stroke="#000000" points="85.9508,-117.5384 90.8853,-108.1628 81.1812,-112.4148 85.9508,-117.5384"/>
<g id="a_edge5&#45;headlabel"><a xlink:href="dir_000016_000020.html" target="_top" xlink:title="5">
<text text-anchor="middle" x="85.2544" y="-119.0658" font-family="Helvetica,sans-Serif" font-size="10.00" fill="#000000">5</text>
</a>
</g>
</g>
<!-- dir_5ba165ccf1070c73e131dc4926949605&#45;&gt;dir_68267d1309a1af8e8297ef4c3efbcdba -->
<g id="edge7" class="edge">
<title>dir_5ba165ccf1070c73e131dc4926949605&#45;&gt;dir_68267d1309a1af8e8297ef4c3efbcdba</title>
<path fill="none" stroke="#000000" d="M70.2813,-90C72.7377,-90 75.1942,-90 77.6507,-90"/>
<polygon fill="#000000" stroke="#000000" points="77.7495,-93.5001 87.7495,-90 77.7495,-86.5001 77.7495,-93.5001"/>
<g id="a_edge7&#45;headlabel"><a xlink:href="dir_000018_000020.html" target="_top" xlink:title="3">
<text text-anchor="middle" x="74.1549" y="-93.3393" font-family="Helvetica,sans-Serif" font-size="10.00" fill="#000000">3</text>
</a>
</g>
</g>
<!-- dir_23ec12649285f9fabf3a6b7380226c28 -->
<g id="node4" class="node">
<title>dir_23ec12649285f9fabf3a6b7380226c28</title>
<g id="a_node4"><a xlink:href="dir_23ec12649285f9fabf3a6b7380226c28.html" target="_top" xlink:title="util">
<polygon fill="#ffffff" stroke="#ff0000" points="142,-36 88,-36 88,0 142,0 142,-36"/>
<text text-anchor="middle" x="115" y="-15" font-family="Helvetica,sans-Serif" font-size="10.00" fill="#000000">util</text>
</a>
</g>
</g>
<!-- dir_5ba165ccf1070c73e131dc4926949605&#45;&gt;dir_23ec12649285f9fabf3a6b7380226c28 -->
<g id="edge8" class="edge">
<title>dir_5ba165ccf1070c73e131dc4926949605&#45;&gt;dir_23ec12649285f9fabf3a6b7380226c28</title>
<path fill="none" stroke="#000000" d="M61.1686,-71.8314C69.7152,-63.2848 80.0557,-52.9443 89.3802,-43.6198"/>
<polygon fill="#000000" stroke="#000000" points="91.9905,-45.9592 96.5867,-36.4133 87.0408,-41.0095 91.9905,-45.9592"/>
<g id="a_edge8&#45;headlabel"><a xlink:href="dir_000018_000028.html" target="_top" xlink:title="2">
<text text-anchor="middle" x="91.4564" y="-47.5087" font-family="Helvetica,sans-Serif" font-size="10.00" fill="#000000">2</text>
</a>
</g>
</g>
<!-- dir_68267d1309a1af8e8297ef4c3efbcdba&#45;&gt;dir_7d604191edc08013a26f918aa8ef79ad -->
<g id="edge2" class="edge">
<title>dir_68267d1309a1af8e8297ef4c3efbcdba&#45;&gt;dir_7d604191edc08013a26f918aa8ef79ad</title>
<path fill="none" stroke="#000000" d="M102.5627,-108.4133C94.7259,-117.0787 84.4215,-127.5464 74.5436,-136.9223"/>
<polygon fill="#000000" stroke="#000000" points="72.0561,-134.4561 67.121,-143.8314 76.8255,-139.5799 72.0561,-134.4561"/>
<g id="a_edge2&#45;headlabel"><a xlink:href="dir_000020_000016.html" target="_top" xlink:title="4">
<text text-anchor="middle" x="72.7528" y="-126.9287" font-family="Helvetica,sans-Serif" font-size="10.00" fill="#000000">4</text>
</a>
</g>
</g>
<!-- dir_68267d1309a1af8e8297ef4c3efbcdba&#45;&gt;dir_5ba165ccf1070c73e131dc4926949605 -->
<g id="edge3" class="edge">
<title>dir_68267d1309a1af8e8297ef4c3efbcdba&#45;&gt;dir_5ba165ccf1070c73e131dc4926949605</title>
<path fill="none" stroke="#000000" d="M87.7495,-90C85.293,-90 82.8366,-90 80.3801,-90"/>
<polygon fill="#000000" stroke="#000000" points="80.2813,-86.5001 70.2813,-90 80.2812,-93.5001 80.2813,-86.5001"/>
<g id="a_edge3&#45;headlabel"><a xlink:href="dir_000020_000018.html" target="_top" xlink:title="4">
<text text-anchor="middle" x="83.8759" y="-80.6607" font-family="Helvetica,sans-Serif" font-size="10.00" fill="#000000">4</text>
</a>
</g>
</g>
<!-- dir_68267d1309a1af8e8297ef4c3efbcdba&#45;&gt;dir_23ec12649285f9fabf3a6b7380226c28 -->
<g id="edge1" class="edge">
<title>dir_68267d1309a1af8e8297ef4c3efbcdba&#45;&gt;dir_23ec12649285f9fabf3a6b7380226c28</title>
<path fill="none" stroke="#000000" d="M109.0476,-71.8314C108.2972,-64.131 108.0763,-54.9743 108.3849,-46.4166"/>
<polygon fill="#000000" stroke="#000000" points="111.8792,-46.6161 109.024,-36.4133 104.8935,-46.1697 111.8792,-46.6161"/>
<g id="a_edge1&#45;headlabel"><a xlink:href="dir_000020_000028.html" target="_top" xlink:title="6">
<text text-anchor="middle" x="114.4836" y="-47.3844" font-family="Helvetica,sans-Serif" font-size="10.00" fill="#000000">6</text>
</a>
</g>
</g>
<!-- dir_23ec12649285f9fabf3a6b7380226c28&#45;&gt;dir_68267d1309a1af8e8297ef4c3efbcdba -->
<g id="edge4" class="edge">
<title>dir_23ec12649285f9fabf3a6b7380226c28&#45;&gt;dir_68267d1309a1af8e8297ef4c3efbcdba</title>
<path fill="none" stroke="#000000" d="M120.976,-36.4133C121.7071,-44.0593 121.9203,-53.1084 121.6155,-61.5726"/>
<polygon fill="#000000" stroke="#000000" points="118.1048,-61.6264 120.9524,-71.8314 125.0902,-62.078 118.1048,-61.6264"/>
<g id="a_edge4&#45;headlabel"><a xlink:href="dir_000028_000020.html" target="_top" xlink:title="5">
<text text-anchor="middle" x="115.5032" y="-54.8562" font-family="Helvetica,sans-Serif" font-size="10.00" fill="#000000">5</text>
</a>
</g>
</g>
</g>
</svg>
