<?xml version="1.0" encoding="UTF-8" standalone="no"?>
<!DOCTYPE svg PUBLIC "-//W3C//DTD SVG 1.1//EN"
 "http://www.w3.org/Graphics/SVG/1.1/DTD/svg11.dtd">
<!-- Generated by graphviz version 2.40.1 (20161225.0304)
 -->
<!-- Title: ext_apps/l2_learning/src Pages: 1 -->
<svg width="213pt" height="302pt"
 viewBox="0.00 0.00 213.00 302.00" xmlns="http://www.w3.org/2000/svg" xmlns:xlink="http://www.w3.org/1999/xlink">
<g id="graph0" class="graph" transform="scale(1 1) rotate(0) translate(4 298)">
<title>ext_apps/l2_learning/src</title>
<polygon fill="#ffffff" stroke="transparent" points="-4,4 -4,-298 209,-298 209,4 -4,4"/>
<g id="clust1" class="cluster">
<title>clusterdir_1bed0c6bb7f5280ca8efc79caf3a5455</title>
<g id="a_clust1"><a xlink:href="dir_1bed0c6bb7f5280ca8efc79caf3a5455.html" target="_top" xlink:title="l2_learning">
<polygon fill="#ddddee" stroke="#000000" points="39,-200 39,-286 197,-286 197,-200 39,-200"/>
<text text-anchor="middle" x="118" y="-274" font-family="Helvetica,sans-Serif" font-size="10.00" fill="#000000">l2_learning</text>
</a>
</g>
</g>
<g id="clust2" class="cluster">
<title>clusterdir_867349cd57b41c1978bad80173bc0122</title>
<g id="a_clust2"><a xlink:href="dir_867349cd57b41c1978bad80173bc0122.html" target="_top">
<polygon fill="#eeeeff" stroke="#000000" points="47,-208 47,-260 189,-260 189,-208 47,-208"/>
</a>
</g>
</g>
<!-- dir_867349cd57b41c1978bad80173bc0122 -->
<g id="node1" class="node">
<title>dir_867349cd57b41c1978bad80173bc0122</title>
<text text-anchor="middle" x="154" y="-231" font-family="Helvetica,sans-Serif" font-size="10.00" fill="#000000">src</text>
</g>
<!-- dir_ee419848dbba527f2277f0b7f985f01a -->
<g id="node2" class="node">
<title>dir_ee419848dbba527f2277f0b7f985f01a</title>
<g id="a_node2"><a xlink:href="dir_ee419848dbba527f2277f0b7f985f01a.html" target="_top" xlink:title="include">
<polygon fill="#ffffff" stroke="#000000" points="109,-252 55,-252 55,-216 109,-216 109,-252"/>
<text text-anchor="middle" x="82" y="-231" font-family="Helvetica,sans-Serif" font-size="10.00" fill="#000000">include</text>
</a>
</g>
</g>
<!-- dir_68267d1309a1af8e8297ef4c3efbcdba -->
<g id="node3" class="node">
<title>dir_68267d1309a1af8e8297ef4c3efbcdba</title>
<g id="a_node3"><a xlink:href="dir_68267d1309a1af8e8297ef4c3efbcdba.html" target="_top" xlink:title="src">
<polygon fill="#ffffff" stroke="#ff0000" points="54,-180 0,-180 0,-144 54,-144 54,-180"/>
<text text-anchor="middle" x="27" y="-159" font-family="Helvetica,sans-Serif" font-size="10.00" fill="#000000">src</text>
</a>
</g>
</g>
<!-- dir_ee419848dbba527f2277f0b7f985f01a&#45;&gt;dir_68267d1309a1af8e8297ef4c3efbcdba -->
<g id="edge4" class="edge">
<title>dir_ee419848dbba527f2277f0b7f985f01a&#45;&gt;dir_68267d1309a1af8e8297ef4c3efbcdba</title>
<path fill="none" stroke="#000000" d="M68.1212,-215.8314C61.7864,-207.5386 54.1616,-197.557 47.2074,-188.4533"/>
<polygon fill="#000000" stroke="#000000" points="49.9175,-186.2353 41.0657,-180.4133 44.3548,-190.4847 49.9175,-186.2353"/>
<g id="a_edge4&#45;headlabel"><a xlink:href="dir_000009_000023.html" target="_top" xlink:title="1">
<text text-anchor="middle" x="54.3558" y="-184.3683" font-family="Helvetica,sans-Serif" font-size="10.00" fill="#000000">1</text>
</a>
</g>
</g>
<!-- dir_23ec12649285f9fabf3a6b7380226c28 -->
<g id="node4" class="node">
<title>dir_23ec12649285f9fabf3a6b7380226c28</title>
<g id="a_node4"><a xlink:href="dir_23ec12649285f9fabf3a6b7380226c28.html" target="_top" xlink:title="util">
<polygon fill="#ffffff" stroke="#ff0000" points="61,-36 7,-36 7,0 61,0 61,-36"/>
<text text-anchor="middle" x="34" y="-15" font-family="Helvetica,sans-Serif" font-size="10.00" fill="#000000">util</text>
</a>
</g>
</g>
<!-- dir_ee419848dbba527f2277f0b7f985f01a&#45;&gt;dir_23ec12649285f9fabf3a6b7380226c28 -->
<g id="edge5" class="edge">
<title>dir_ee419848dbba527f2277f0b7f985f01a&#45;&gt;dir_23ec12649285f9fabf3a6b7380226c28</title>
<path fill="none" stroke="#000000" d="M92.7183,-215.8595C109.63,-184.6609 138.1266,-119.6109 113,-72 103.9253,-54.805 86.6376,-42.0461 70.5425,-33.2609"/>
<polygon fill="#000000" stroke="#000000" points="71.7745,-29.9607 61.2749,-28.544 68.5993,-36.1992 71.7745,-29.9607"/>
<g id="a_edge5&#45;headlabel"><a xlink:href="dir_000009_000026.html" target="_top" xlink:title="2">
<text text-anchor="middle" x="76.266" y="-26.0608" font-family="Helvetica,sans-Serif" font-size="10.00" fill="#000000">2</text>
</a>
</g>
</g>
<!-- dir_25b35af5d6fe939e26498b93aa0ed469 -->
<g id="node5" class="node">
<title>dir_25b35af5d6fe939e26498b93aa0ed469</title>
<g id="a_node5"><a xlink:href="dir_25b35af5d6fe939e26498b93aa0ed469.html" target="_top" xlink:title="app_events">
<polygon fill="#ffffff" stroke="#ff0000" points="103.7096,-108 36.2904,-108 36.2904,-72 103.7096,-72 103.7096,-108"/>
<text text-anchor="middle" x="70" y="-87" font-family="Helvetica,sans-Serif" font-size="10.00" fill="#000000">app_events</text>
</a>
</g>
</g>
<!-- dir_ee419848dbba527f2277f0b7f985f01a&#45;&gt;dir_25b35af5d6fe939e26498b93aa0ed469 -->
<g id="edge6" class="edge">
<title>dir_ee419848dbba527f2277f0b7f985f01a&#45;&gt;dir_25b35af5d6fe939e26498b93aa0ed469</title>
<path fill="none" stroke="#000000" d="M80.4802,-215.7623C78.4334,-191.201 74.7706,-147.2474 72.3628,-118.3541"/>
<polygon fill="#000000" stroke="#000000" points="75.8259,-117.7644 71.5075,-108.0896 68.8501,-118.3458 75.8259,-117.7644"/>
<g id="a_edge6&#45;headlabel"><a xlink:href="dir_000009_000000.html" target="_top" xlink:title="1">
<text text-anchor="middle" x="78.9538" y="-118.1108" font-family="Helvetica,sans-Serif" font-size="10.00" fill="#000000">1</text>
</a>
</g>
</g>
<!-- dir_68267d1309a1af8e8297ef4c3efbcdba&#45;&gt;dir_23ec12649285f9fabf3a6b7380226c28 -->
<g id="edge1" class="edge">
<title>dir_68267d1309a1af8e8297ef4c3efbcdba&#45;&gt;dir_23ec12649285f9fabf3a6b7380226c28</title>
<path fill="none" stroke="#000000" d="M19.4671,-143.7063C16.7873,-125.506 16.3998,-96.7922 18,-72 18.5395,-63.6422 19.5439,-54.6019 20.9999,-46.3525"/>
<polygon fill="#000000" stroke="#000000" points="24.4521,-46.9432 23.0846,-36.437 17.6019,-45.5029 24.4521,-46.9432"/>
<g id="a_edge1&#45;headlabel"><a xlink:href="dir_000023_000026.html" target="_top" xlink:title="8">
<text text-anchor="middle" x="26.4911" y="-48.0451" font-family="Helvetica,sans-Serif" font-size="10.00" fill="#000000">8</text>
</a>
</g>
</g>
<!-- dir_68267d1309a1af8e8297ef4c3efbcdba&#45;&gt;dir_25b35af5d6fe939e26498b93aa0ed469 -->
<g id="edge2" class="edge">
<title>dir_68267d1309a1af8e8297ef4c3efbcdba&#45;&gt;dir_25b35af5d6fe939e26498b93aa0ed469</title>
<path fill="none" stroke="#000000" d="M31.8983,-143.8314C35.9582,-135.7079 41.5753,-125.9637 47.3085,-117.0118"/>
<polygon fill="#000000" stroke="#000000" points="50.4037,-118.6782 53.0272,-108.4133 44.575,-114.8017 50.4037,-118.6782"/>
<g id="a_edge2&#45;headlabel"><a xlink:href="dir_000023_000000.html" target="_top" xlink:title="4">
<text text-anchor="middle" x="50.7772" y="-120.2436" font-family="Helvetica,sans-Serif" font-size="10.00" fill="#000000">4</text>
</a>
</g>
</g>
<!-- dir_23ec12649285f9fabf3a6b7380226c28&#45;&gt;dir_68267d1309a1af8e8297ef4c3efbcdba -->
<g id="edge3" class="edge">
<title>dir_23ec12649285f9fabf3a6b7380226c28&#45;&gt;dir_68267d1309a1af8e8297ef4c3efbcdba</title>
<path fill="none" stroke="#000000" d="M38.9384,-36.437C38.4749,-46.8463 36.7672,-60.1134 36,-72 34.6748,-92.531 34.7128,-115.7515 33.8377,-133.4633"/>
<polygon fill="#000000" stroke="#000000" points="30.3279,-133.4955 33.1545,-143.7063 37.3123,-133.9614 30.3279,-133.4955"/>
<g id="a_edge3&#45;headlabel"><a xlink:href="dir_000026_000023.html" target="_top" xlink:title="6">
<text text-anchor="middle" x="27.734" y="-126.7199" font-family="Helvetica,sans-Serif" font-size="10.00" fill="#000000">6</text>
</a>
</g>
</g>
<!-- dir_25b35af5d6fe939e26498b93aa0ed469&#45;&gt;dir_68267d1309a1af8e8297ef4c3efbcdba -->
<g id="edge7" class="edge">
<title>dir_25b35af5d6fe939e26498b93aa0ed469&#45;&gt;dir_68267d1309a1af8e8297ef4c3efbcdba</title>
<path fill="none" stroke="#000000" d="M64.9792,-108.4133C60.8883,-116.569 55.2546,-126.3212 49.5191,-135.257"/>
<polygon fill="#000000" stroke="#000000" points="46.4378,-133.5693 43.8031,-143.8314 52.2622,-137.4522 46.4378,-133.5693"/>
<g id="a_edge7&#45;headlabel"><a xlink:href="dir_000000_000023.html" target="_top" xlink:title="4">
<text text-anchor="middle" x="46.0692" y="-126.0035" font-family="Helvetica,sans-Serif" font-size="10.00" fill="#000000">4</text>
</a>
</g>
</g>
<!-- dir_25b35af5d6fe939e26498b93aa0ed469&#45;&gt;dir_23ec12649285f9fabf3a6b7380226c28 -->
<g id="edge8" class="edge">
<title>dir_25b35af5d6fe939e26498b93aa0ed469&#45;&gt;dir_23ec12649285f9fabf3a6b7380226c28</title>
<path fill="none" stroke="#000000" d="M60.9157,-71.8314C56.9385,-63.8771 52.1845,-54.369 47.7861,-45.5723"/>
<polygon fill="#000000" stroke="#000000" points="50.8093,-43.7923 43.2066,-36.4133 44.5483,-46.9228 50.8093,-43.7923"/>
<g id="a_edge8&#45;headlabel"><a xlink:href="dir_000000_000026.html" target="_top" xlink:title="2">
<text text-anchor="middle" x="54.9563" y="-42.7377" font-family="Helvetica,sans-Serif" font-size="10.00" fill="#000000">2</text>
</a>
</g>
</g>
</g>
</svg>
