<?xml version="1.0" encoding="UTF-8" standalone="no"?>
<!DOCTYPE svg PUBLIC "-//W3C//DTD SVG 1.1//EN"
 "http://www.w3.org/Graphics/SVG/1.1/DTD/svg11.dtd">
<!-- Generated by graphviz version 2.40.1 (20161225.0304)
 -->
<!-- Title: ext_comps Pages: 1 -->
<svg width="198pt" height="348pt"
 viewBox="0.00 0.00 198.00 348.00" xmlns="http://www.w3.org/2000/svg" xmlns:xlink="http://www.w3.org/1999/xlink">
<g id="graph0" class="graph" transform="scale(1 1) rotate(0) translate(4 344)">
<title>ext_comps</title>
<polygon fill="#ffffff" stroke="transparent" points="-4,4 -4,-344 194,-344 194,4 -4,4"/>
<g id="clust1" class="cluster">
<title>clusterdir_d7c209a246552ade0a12df4403b93cd5</title>
<g id="a_clust1"><a xlink:href="dir_d7c209a246552ade0a12df4403b93cd5.html" target="_top">
<polygon fill="#eeeeff" stroke="#000000" points="30,-208 30,-332 182,-332 182,-208 30,-208"/>
</a>
</g>
</g>
<!-- dir_d7c209a246552ade0a12df4403b93cd5 -->
<g id="node1" class="node">
<title>dir_d7c209a246552ade0a12df4403b93cd5</title>
<text text-anchor="middle" x="142" y="-303" font-family="Helvetica,sans-Serif" font-size="10.00" fill="#000000">ext_comps</text>
</g>
<!-- dir_90773cd7cea9981a02d706a4ae4d09c1 -->
<g id="node2" class="node">
<title>dir_90773cd7cea9981a02d706a4ae4d09c1</title>
<g id="a_node2"><a xlink:href="dir_90773cd7cea9981a02d706a4ae4d09c1.html" target="_top" xlink:title="conflict">
<polygon fill="#ffffff" stroke="#ff0000" points="92,-252 38,-252 38,-216 92,-216 92,-252"/>
<text text-anchor="middle" x="65" y="-231" font-family="Helvetica,sans-Serif" font-size="10.00" fill="#000000">conflict</text>
</a>
</g>
</g>
<!-- dir_68267d1309a1af8e8297ef4c3efbcdba -->
<g id="node4" class="node">
<title>dir_68267d1309a1af8e8297ef4c3efbcdba</title>
<g id="a_node4"><a xlink:href="dir_68267d1309a1af8e8297ef4c3efbcdba.html" target="_top" xlink:title="src">
<polygon fill="#ffffff" stroke="#ff0000" points="54,-180 0,-180 0,-144 54,-144 54,-180"/>
<text text-anchor="middle" x="27" y="-159" font-family="Helvetica,sans-Serif" font-size="10.00" fill="#000000">src</text>
</a>
</g>
</g>
<!-- dir_90773cd7cea9981a02d706a4ae4d09c1&#45;&gt;dir_68267d1309a1af8e8297ef4c3efbcdba -->
<g id="edge8" class="edge">
<title>dir_90773cd7cea9981a02d706a4ae4d09c1&#45;&gt;dir_68267d1309a1af8e8297ef4c3efbcdba</title>
<path fill="none" stroke="#000000" d="M55.411,-215.8314C51.1683,-207.7925 46.0879,-198.1666 41.404,-189.2918"/>
<polygon fill="#000000" stroke="#000000" points="44.4811,-187.6235 36.7181,-180.4133 38.2904,-190.8908 44.4811,-187.6235"/>
<g id="a_edge8&#45;headlabel"><a xlink:href="dir_000012_000020.html" target="_top" xlink:title="1">
<text text-anchor="middle" x="48.6699" y="-186.4772" font-family="Helvetica,sans-Serif" font-size="10.00" fill="#000000">1</text>
</a>
</g>
</g>
<!-- dir_7d604191edc08013a26f918aa8ef79ad -->
<g id="node6" class="node">
<title>dir_7d604191edc08013a26f918aa8ef79ad</title>
<g id="a_node6"><a xlink:href="dir_7d604191edc08013a26f918aa8ef79ad.html" target="_top" xlink:title="events">
<polygon fill="#ffffff" stroke="#ff0000" points="118,-108 64,-108 64,-72 118,-72 118,-108"/>
<text text-anchor="middle" x="91" y="-87" font-family="Helvetica,sans-Serif" font-size="10.00" fill="#000000">events</text>
</a>
</g>
</g>
<!-- dir_90773cd7cea9981a02d706a4ae4d09c1&#45;&gt;dir_7d604191edc08013a26f918aa8ef79ad -->
<g id="edge9" class="edge">
<title>dir_90773cd7cea9981a02d706a4ae4d09c1&#45;&gt;dir_7d604191edc08013a26f918aa8ef79ad</title>
<path fill="none" stroke="#000000" d="M68.2929,-215.7623C72.7471,-191.0928 80.7337,-146.8598 85.9493,-117.9731"/>
<polygon fill="#000000" stroke="#000000" points="89.4012,-118.5524 87.7338,-108.0896 82.5126,-117.3086 89.4012,-118.5524"/>
<g id="a_edge9&#45;headlabel"><a xlink:href="dir_000012_000016.html" target="_top" xlink:title="1">
<text text-anchor="middle" x="91.5567" y="-119.5943" font-family="Helvetica,sans-Serif" font-size="10.00" fill="#000000">1</text>
</a>
</g>
</g>
<!-- dir_6c4861834e4980f643fd42e1bccda41f -->
<g id="node3" class="node">
<title>dir_6c4861834e4980f643fd42e1bccda41f</title>
<g id="a_node3"><a xlink:href="dir_6c4861834e4980f643fd42e1bccda41f.html" target="_top" xlink:title="shim">
<polygon fill="#ffffff" stroke="#ff0000" points="92,-324 38,-324 38,-288 92,-288 92,-324"/>
<text text-anchor="middle" x="65" y="-303" font-family="Helvetica,sans-Serif" font-size="10.00" fill="#000000">shim</text>
</a>
</g>
</g>
<!-- dir_6c4861834e4980f643fd42e1bccda41f&#45;&gt;dir_90773cd7cea9981a02d706a4ae4d09c1 -->
<g id="edge6" class="edge">
<title>dir_6c4861834e4980f643fd42e1bccda41f&#45;&gt;dir_90773cd7cea9981a02d706a4ae4d09c1</title>
<path fill="none" stroke="#000000" d="M65,-287.8314C65,-280.131 65,-270.9743 65,-262.4166"/>
<polygon fill="#000000" stroke="#000000" points="68.5001,-262.4132 65,-252.4133 61.5001,-262.4133 68.5001,-262.4132"/>
<g id="a_edge6&#45;headlabel"><a xlink:href="dir_000017_000012.html" target="_top" xlink:title="2">
<text text-anchor="middle" x="71.3393" y="-263.0079" font-family="Helvetica,sans-Serif" font-size="10.00" fill="#000000">2</text>
</a>
</g>
</g>
<!-- dir_6c4861834e4980f643fd42e1bccda41f&#45;&gt;dir_68267d1309a1af8e8297ef4c3efbcdba -->
<g id="edge4" class="edge">
<title>dir_6c4861834e4980f643fd42e1bccda41f&#45;&gt;dir_68267d1309a1af8e8297ef4c3efbcdba</title>
<path fill="none" stroke="#000000" d="M49.1294,-287.8799C41.4989,-277.9899 33.1293,-265.1113 29,-252 22.7109,-232.031 22.4559,-208.3173 23.6422,-190.2457"/>
<polygon fill="#000000" stroke="#000000" points="27.1477,-190.3263 24.4991,-180.0679 20.1724,-189.739 27.1477,-190.3263"/>
<g id="a_edge4&#45;headlabel"><a xlink:href="dir_000017_000020.html" target="_top" xlink:title="2">
<text text-anchor="middle" x="29.6755" y="-191.1464" font-family="Helvetica,sans-Serif" font-size="10.00" fill="#000000">2</text>
</a>
</g>
</g>
<!-- dir_23ec12649285f9fabf3a6b7380226c28 -->
<g id="node5" class="node">
<title>dir_23ec12649285f9fabf3a6b7380226c28</title>
<g id="a_node5"><a xlink:href="dir_23ec12649285f9fabf3a6b7380226c28.html" target="_top" xlink:title="util">
<polygon fill="#ffffff" stroke="#ff0000" points="86,-36 32,-36 32,0 86,0 86,-36"/>
<text text-anchor="middle" x="59" y="-15" font-family="Helvetica,sans-Serif" font-size="10.00" fill="#000000">util</text>
</a>
</g>
</g>
<!-- dir_6c4861834e4980f643fd42e1bccda41f&#45;&gt;dir_23ec12649285f9fabf3a6b7380226c28 -->
<g id="edge5" class="edge">
<title>dir_6c4861834e4980f643fd42e1bccda41f&#45;&gt;dir_23ec12649285f9fabf3a6b7380226c28</title>
<path fill="none" stroke="#000000" d="M89.3743,-287.9441C100.1356,-278.524 111.7438,-266.0382 118,-252 150.6057,-178.8367 161.8282,-144.1318 127,-72 120.0765,-57.6608 107.2901,-45.9615 94.6575,-37.1646"/>
<polygon fill="#000000" stroke="#000000" points="96.3018,-34.059 86.0104,-31.5415 92.4856,-39.9273 96.3018,-34.059"/>
<g id="a_edge5&#45;headlabel"><a xlink:href="dir_000017_000028.html" target="_top" xlink:title="4">
<text text-anchor="middle" x="100.8631" y="-30.6383" font-family="Helvetica,sans-Serif" font-size="10.00" fill="#000000">4</text>
</a>
</g>
</g>
<!-- dir_6c4861834e4980f643fd42e1bccda41f&#45;&gt;dir_7d604191edc08013a26f918aa8ef79ad -->
<g id="edge7" class="edge">
<title>dir_6c4861834e4980f643fd42e1bccda41f&#45;&gt;dir_7d604191edc08013a26f918aa8ef79ad</title>
<path fill="none" stroke="#000000" d="M80.9905,-287.9169C88.6538,-278.0371 97.0166,-265.1563 101,-252 114.705,-206.7356 106.1415,-151.1913 98.6177,-118.302"/>
<polygon fill="#000000" stroke="#000000" points="101.9909,-117.3603 96.2409,-108.4615 95.1866,-119.0037 101.9909,-117.3603"/>
<g id="a_edge7&#45;headlabel"><a xlink:href="dir_000017_000016.html" target="_top" xlink:title="2">
<text text-anchor="middle" x="105.5947" y="-117.1878" font-family="Helvetica,sans-Serif" font-size="10.00" fill="#000000">2</text>
</a>
</g>
</g>
<!-- dir_68267d1309a1af8e8297ef4c3efbcdba&#45;&gt;dir_23ec12649285f9fabf3a6b7380226c28 -->
<g id="edge1" class="edge">
<title>dir_68267d1309a1af8e8297ef4c3efbcdba&#45;&gt;dir_23ec12649285f9fabf3a6b7380226c28</title>
<path fill="none" stroke="#000000" d="M26.3797,-143.7623C29.3911,-119.0928 38.9544,-74.8598 47.3117,-45.9731"/>
<polygon fill="#000000" stroke="#000000" points="50.7564,-46.6755 50.3218,-36.0896 44.0601,-44.6361 50.7564,-46.6755"/>
<g id="a_edge1&#45;headlabel"><a xlink:href="dir_000020_000028.html" target="_top" xlink:title="4">
<text text-anchor="middle" x="52.4253" y="-47.9414" font-family="Helvetica,sans-Serif" font-size="10.00" fill="#000000">4</text>
</a>
</g>
</g>
<!-- dir_68267d1309a1af8e8297ef4c3efbcdba&#45;&gt;dir_7d604191edc08013a26f918aa8ef79ad -->
<g id="edge2" class="edge">
<title>dir_68267d1309a1af8e8297ef4c3efbcdba&#45;&gt;dir_7d604191edc08013a26f918aa8ef79ad</title>
<path fill="none" stroke="#000000" d="M37.1975,-143.8314C43.8946,-135.3694 52.7943,-125.1489 61.4724,-115.8971"/>
<polygon fill="#000000" stroke="#000000" points="64.2563,-118.0511 68.6566,-108.4133 59.2065,-113.2034 64.2563,-118.0511"/>
<g id="a_edge2&#45;headlabel"><a xlink:href="dir_000020_000016.html" target="_top" xlink:title="4">
<text text-anchor="middle" x="63.8152" y="-119.6105" font-family="Helvetica,sans-Serif" font-size="10.00" fill="#000000">4</text>
</a>
</g>
</g>
<!-- dir_23ec12649285f9fabf3a6b7380226c28&#45;&gt;dir_68267d1309a1af8e8297ef4c3efbcdba -->
<g id="edge3" class="edge">
<title>dir_23ec12649285f9fabf3a6b7380226c28&#45;&gt;dir_68267d1309a1af8e8297ef4c3efbcdba</title>
<path fill="none" stroke="#000000" d="M59.6384,-36.0896C56.6532,-60.6805 47.1007,-104.905 38.7385,-133.8531"/>
<polygon fill="#000000" stroke="#000000" points="35.2861,-133.1766 35.726,-143.7623 41.9834,-135.2127 35.2861,-133.1766"/>
<g id="a_edge3&#45;headlabel"><a xlink:href="dir_000028_000020.html" target="_top" xlink:title="4">
<text text-anchor="middle" x="33.6151" y="-125.9116" font-family="Helvetica,sans-Serif" font-size="10.00" fill="#000000">4</text>
</a>
</g>
</g>
<!-- dir_7d604191edc08013a26f918aa8ef79ad&#45;&gt;dir_68267d1309a1af8e8297ef4c3efbcdba -->
<g id="edge10" class="edge">
<title>dir_7d604191edc08013a26f918aa8ef79ad&#45;&gt;dir_68267d1309a1af8e8297ef4c3efbcdba</title>
<path fill="none" stroke="#000000" d="M80.6087,-108.4133C73.8694,-116.9088 64.9509,-127.1366 56.2773,-136.3696"/>
<polygon fill="#000000" stroke="#000000" points="53.5106,-134.1972 49.1023,-143.8314 58.5564,-139.049 53.5106,-134.1972"/>
<g id="a_edge10&#45;headlabel"><a xlink:href="dir_000016_000020.html" target="_top" xlink:title="5">
<text text-anchor="middle" x="53.9555" y="-126.6382" font-family="Helvetica,sans-Serif" font-size="10.00" fill="#000000">5</text>
</a>
</g>
</g>
<!-- dir_7d604191edc08013a26f918aa8ef79ad&#45;&gt;dir_23ec12649285f9fabf3a6b7380226c28 -->
<g id="edge11" class="edge">
<title>dir_7d604191edc08013a26f918aa8ef79ad&#45;&gt;dir_23ec12649285f9fabf3a6b7380226c28</title>
<path fill="none" stroke="#000000" d="M82.925,-71.8314C79.3898,-63.8771 75.164,-54.369 71.2544,-45.5723"/>
<polygon fill="#000000" stroke="#000000" points="74.4435,-44.1299 67.1837,-36.4133 68.0468,-46.9729 74.4435,-44.1299"/>
<g id="a_edge11&#45;headlabel"><a xlink:href="dir_000016_000028.html" target="_top" xlink:title="2">
<text text-anchor="middle" x="78.4979" y="-43.2616" font-family="Helvetica,sans-Serif" font-size="10.00" fill="#000000">2</text>
</a>
</g>
</g>
</g>
</svg>
