<?xml version="1.0" encoding="UTF-8" standalone="no"?>
<!DOCTYPE svg PUBLIC "-//W3C//DTD SVG 1.1//EN"
 "http://www.w3.org/Graphics/SVG/1.1/DTD/svg11.dtd">
<!-- Generated by graphviz version 2.40.1 (20161225.0304)
 -->
<!-- Title: applications Pages: 1 -->
<svg width="148pt" height="348pt"
 viewBox="0.00 0.00 147.85 348.00" xmlns="http://www.w3.org/2000/svg" xmlns:xlink="http://www.w3.org/1999/xlink">
<g id="graph0" class="graph" transform="scale(1 1) rotate(0) translate(4 344)">
<title>applications</title>
<polygon fill="#ffffff" stroke="transparent" points="-4,4 -4,-344 143.8545,-344 143.8545,4 -4,4"/>
<g id="clust1" class="cluster">
<title>clusterdir_a6e4fee11f07c3b70486e88fe92cbbdc</title>
<g id="a_clust1"><a xlink:href="dir_a6e4fee11f07c3b70486e88fe92cbbdc.html" target="_top">
<polygon fill="#eeeeff" stroke="#000000" points="8,-208 8,-332 92,-332 92,-208 8,-208"/>
</a>
</g>
</g>
<!-- dir_a6e4fee11f07c3b70486e88fe92cbbdc -->
<g id="node1" class="node">
<title>dir_a6e4fee11f07c3b70486e88fe92cbbdc</title>
<text text-anchor="middle" x="50" y="-303" font-family="Helvetica,sans-Serif" font-size="10.00" fill="#000000">applications</text>
</g>
<!-- dir_b48e99e00c13f140bbfb4c281bca5194 -->
<g id="node2" class="node">
<title>dir_b48e99e00c13f140bbfb4c281bca5194</title>
<g id="a_node2"><a xlink:href="dir_b48e99e00c13f140bbfb4c281bca5194.html" target="_top" xlink:title="include">
<polygon fill="#ffffff" stroke="#000000" points="73,-252 19,-252 19,-216 73,-216 73,-252"/>
<text text-anchor="middle" x="46" y="-231" font-family="Helvetica,sans-Serif" font-size="10.00" fill="#000000">include</text>
</a>
</g>
</g>
<!-- dir_a6e4fee11f07c3b70486e88fe92cbbdc&#45;&gt;dir_b48e99e00c13f140bbfb4c281bca5194 -->
<g id="edge4" class="edge">
<title>dir_a6e4fee11f07c3b70486e88fe92cbbdc&#45;&gt;dir_b48e99e00c13f140bbfb4c281bca5194</title>
<path fill="none" stroke="#000000" d="M48.9906,-287.8314C48.5628,-280.131 48.0541,-270.9743 47.5787,-262.4166"/>
<polygon fill="#000000" stroke="#000000" points="51.0724,-262.2037 47.023,-252.4133 44.0831,-262.592 51.0724,-262.2037"/>
<g id="a_edge4&#45;headlabel"><a xlink:href="dir_000005_000006.html" target="_top" xlink:title="2">
<text text-anchor="middle" x="54.1066" y="-262.6353" font-family="Helvetica,sans-Serif" font-size="10.00" fill="#000000">2</text>
</a>
</g>
</g>
<!-- dir_25b35af5d6fe939e26498b93aa0ed469 -->
<g id="node5" class="node">
<title>dir_25b35af5d6fe939e26498b93aa0ed469</title>
<g id="a_node5"><a xlink:href="dir_25b35af5d6fe939e26498b93aa0ed469.html" target="_top" xlink:title="app_events">
<polygon fill="#ffffff" stroke="#ff0000" points="139.7096,-180 72.2904,-180 72.2904,-144 139.7096,-144 139.7096,-180"/>
<text text-anchor="middle" x="106" y="-159" font-family="Helvetica,sans-Serif" font-size="10.00" fill="#000000">app_events</text>
</a>
</g>
</g>
<!-- dir_a6e4fee11f07c3b70486e88fe92cbbdc&#45;&gt;dir_25b35af5d6fe939e26498b93aa0ed469 -->
<g id="edge5" class="edge">
<title>dir_a6e4fee11f07c3b70486e88fe92cbbdc&#45;&gt;dir_25b35af5d6fe939e26498b93aa0ed469</title>
<path fill="none" stroke="#000000" d="M62.5747,-287.6712C69.0941,-277.5166 76.7655,-264.4578 82,-252 90.4307,-231.9353 96.6303,-208.0928 100.6144,-189.9902"/>
<polygon fill="#000000" stroke="#000000" points="104.0683,-190.5737 102.7044,-180.067 97.2185,-189.131 104.0683,-190.5737"/>
<g id="a_edge5&#45;headlabel"><a xlink:href="dir_000005_000000.html" target="_top" xlink:title="4">
<text text-anchor="middle" x="106.1059" y="-191.6762" font-family="Helvetica,sans-Serif" font-size="10.00" fill="#000000">4</text>
</a>
</g>
</g>
<!-- dir_68267d1309a1af8e8297ef4c3efbcdba -->
<g id="node3" class="node">
<title>dir_68267d1309a1af8e8297ef4c3efbcdba</title>
<g id="a_node3"><a xlink:href="dir_68267d1309a1af8e8297ef4c3efbcdba.html" target="_top" xlink:title="src">
<polygon fill="#ffffff" stroke="#ff0000" points="88,-108 34,-108 34,-72 88,-72 88,-108"/>
<text text-anchor="middle" x="61" y="-87" font-family="Helvetica,sans-Serif" font-size="10.00" fill="#000000">src</text>
</a>
</g>
</g>
<!-- dir_b48e99e00c13f140bbfb4c281bca5194&#45;&gt;dir_68267d1309a1af8e8297ef4c3efbcdba -->
<g id="edge6" class="edge">
<title>dir_b48e99e00c13f140bbfb4c281bca5194&#45;&gt;dir_68267d1309a1af8e8297ef4c3efbcdba</title>
<path fill="none" stroke="#000000" d="M47.8998,-215.7623C50.4582,-191.201 55.0367,-147.2474 58.0465,-118.3541"/>
<polygon fill="#000000" stroke="#000000" points="61.5607,-118.3985 59.1157,-108.0896 54.5984,-117.6731 61.5607,-118.3985"/>
<g id="a_edge6&#45;headlabel"><a xlink:href="dir_000006_000020.html" target="_top" xlink:title="3">
<text text-anchor="middle" x="64.0123" y="-119.2679" font-family="Helvetica,sans-Serif" font-size="10.00" fill="#000000">3</text>
</a>
</g>
</g>
<!-- dir_23ec12649285f9fabf3a6b7380226c28 -->
<g id="node4" class="node">
<title>dir_23ec12649285f9fabf3a6b7380226c28</title>
<g id="a_node4"><a xlink:href="dir_23ec12649285f9fabf3a6b7380226c28.html" target="_top" xlink:title="util">
<polygon fill="#ffffff" stroke="#ff0000" points="88,-36 34,-36 34,0 88,0 88,-36"/>
<text text-anchor="middle" x="61" y="-15" font-family="Helvetica,sans-Serif" font-size="10.00" fill="#000000">util</text>
</a>
</g>
</g>
<!-- dir_b48e99e00c13f140bbfb4c281bca5194&#45;&gt;dir_23ec12649285f9fabf3a6b7380226c28 -->
<g id="edge7" class="edge">
<title>dir_b48e99e00c13f140bbfb4c281bca5194&#45;&gt;dir_23ec12649285f9fabf3a6b7380226c28</title>
<path fill="none" stroke="#000000" d="M38.7195,-215.6111C27.7261,-185.1286 9.7138,-122.4868 25,-72 27.9564,-62.2355 33.3252,-52.6229 39.03,-44.2762"/>
<polygon fill="#000000" stroke="#000000" points="41.9414,-46.2239 45.0095,-36.0831 36.2871,-42.0973 41.9414,-46.2239"/>
<g id="a_edge7&#45;headlabel"><a xlink:href="dir_000006_000028.html" target="_top" xlink:title="4">
<text text-anchor="middle" x="42.1158" y="-47.8013" font-family="Helvetica,sans-Serif" font-size="10.00" fill="#000000">4</text>
</a>
</g>
</g>
<!-- dir_b48e99e00c13f140bbfb4c281bca5194&#45;&gt;dir_25b35af5d6fe939e26498b93aa0ed469 -->
<g id="edge8" class="edge">
<title>dir_b48e99e00c13f140bbfb4c281bca5194&#45;&gt;dir_25b35af5d6fe939e26498b93aa0ed469</title>
<path fill="none" stroke="#000000" d="M61.1405,-215.8314C68.1217,-207.454 76.5391,-197.3531 84.1876,-188.1749"/>
<polygon fill="#000000" stroke="#000000" points="86.9425,-190.3362 90.6556,-180.4133 81.5649,-185.8548 86.9425,-190.3362"/>
<g id="a_edge8&#45;headlabel"><a xlink:href="dir_000006_000000.html" target="_top" xlink:title="3">
<text text-anchor="middle" x="86.8225" y="-191.9152" font-family="Helvetica,sans-Serif" font-size="10.00" fill="#000000">3</text>
</a>
</g>
</g>
<!-- dir_68267d1309a1af8e8297ef4c3efbcdba&#45;&gt;dir_23ec12649285f9fabf3a6b7380226c28 -->
<g id="edge1" class="edge">
<title>dir_68267d1309a1af8e8297ef4c3efbcdba&#45;&gt;dir_23ec12649285f9fabf3a6b7380226c28</title>
<path fill="none" stroke="#000000" d="M55.0476,-71.8314C54.2972,-64.131 54.0763,-54.9743 54.3849,-46.4166"/>
<polygon fill="#000000" stroke="#000000" points="57.8792,-46.6161 55.024,-36.4133 50.8935,-46.1697 57.8792,-46.6161"/>
<g id="a_edge1&#45;headlabel"><a xlink:href="dir_000020_000028.html" target="_top" xlink:title="6">
<text text-anchor="middle" x="60.4836" y="-47.3844" font-family="Helvetica,sans-Serif" font-size="10.00" fill="#000000">6</text>
</a>
</g>
</g>
<!-- dir_68267d1309a1af8e8297ef4c3efbcdba&#45;&gt;dir_25b35af5d6fe939e26498b93aa0ed469 -->
<g id="edge2" class="edge">
<title>dir_68267d1309a1af8e8297ef4c3efbcdba&#45;&gt;dir_25b35af5d6fe939e26498b93aa0ed469</title>
<path fill="none" stroke="#000000" d="M78.4843,-108.4133C84.3003,-116.484 90.5162,-126.1182 95.6708,-134.9775"/>
<polygon fill="#000000" stroke="#000000" points="92.6765,-136.7946 100.597,-143.8314 98.7934,-133.3911 92.6765,-136.7946"/>
<g id="a_edge2&#45;headlabel"><a xlink:href="dir_000020_000000.html" target="_top" xlink:title="4">
<text text-anchor="middle" x="88.4478" y="-132.0339" font-family="Helvetica,sans-Serif" font-size="10.00" fill="#000000">4</text>
</a>
</g>
</g>
<!-- dir_23ec12649285f9fabf3a6b7380226c28&#45;&gt;dir_68267d1309a1af8e8297ef4c3efbcdba -->
<g id="edge3" class="edge">
<title>dir_23ec12649285f9fabf3a6b7380226c28&#45;&gt;dir_68267d1309a1af8e8297ef4c3efbcdba</title>
<path fill="none" stroke="#000000" d="M66.976,-36.4133C67.7071,-44.0593 67.9203,-53.1084 67.6155,-61.5726"/>
<polygon fill="#000000" stroke="#000000" points="64.1048,-61.6264 66.9524,-71.8314 71.0902,-62.078 64.1048,-61.6264"/>
<g id="a_edge3&#45;headlabel"><a xlink:href="dir_000028_000020.html" target="_top" xlink:title="5">
<text text-anchor="middle" x="61.5032" y="-54.8562" font-family="Helvetica,sans-Serif" font-size="10.00" fill="#000000">5</text>
</a>
</g>
</g>
<!-- dir_25b35af5d6fe939e26498b93aa0ed469&#45;&gt;dir_68267d1309a1af8e8297ef4c3efbcdba -->
<g id="edge9" class="edge">
<title>dir_25b35af5d6fe939e26498b93aa0ed469&#45;&gt;dir_68267d1309a1af8e8297ef4c3efbcdba</title>
<path fill="none" stroke="#000000" d="M88.6922,-143.8314C82.8845,-135.7925 76.662,-126.1666 71.486,-117.2918"/>
<polygon fill="#000000" stroke="#000000" points="74.4612,-115.4406 66.5323,-108.4133 68.3483,-118.8513 74.4612,-115.4406"/>
<g id="a_edge9&#45;headlabel"><a xlink:href="dir_000000_000020.html" target="_top" xlink:title="5">
<text text-anchor="middle" x="78.692" y="-114.1963" font-family="Helvetica,sans-Serif" font-size="10.00" fill="#000000">5</text>
</a>
</g>
</g>
<!-- dir_25b35af5d6fe939e26498b93aa0ed469&#45;&gt;dir_23ec12649285f9fabf3a6b7380226c28 -->
<g id="edge10" class="edge">
<title>dir_25b35af5d6fe939e26498b93aa0ed469&#45;&gt;dir_23ec12649285f9fabf3a6b7380226c28</title>
<path fill="none" stroke="#000000" d="M106.7226,-143.8501C106.885,-125.2626 105.5225,-95.8019 97,-72 93.5608,-62.3949 88.0508,-52.8289 82.3651,-44.4759"/>
<polygon fill="#000000" stroke="#000000" points="85.1362,-42.3344 76.4559,-36.2596 79.4533,-46.4216 85.1362,-42.3344"/>
<g id="a_edge10&#45;headlabel"><a xlink:href="dir_000000_000028.html" target="_top" xlink:title="1">
<text text-anchor="middle" x="89.54" y="-40.5949" font-family="Helvetica,sans-Serif" font-size="10.00" fill="#000000">1</text>
</a>
</g>
</g>
</g>
</svg>
