<?xml version="1.0" encoding="UTF-8" standalone="no"?>
<!DOCTYPE svg PUBLIC "-//W3C//DTD SVG 1.1//EN"
 "http://www.w3.org/Graphics/SVG/1.1/DTD/svg11.dtd">
<!-- Generated by graphviz version 2.40.1 (20161225.0304)
 -->
<!-- Title: components Pages: 1 -->
<svg width="218pt" height="420pt"
 viewBox="0.00 0.00 218.07 420.00" xmlns="http://www.w3.org/2000/svg" xmlns:xlink="http://www.w3.org/1999/xlink">
<g id="graph0" class="graph" transform="scale(1 1) rotate(0) translate(4 416)">
<title>components</title>
<polygon fill="#ffffff" stroke="transparent" points="-4,4 -4,-416 214.0718,-416 214.0718,4 -4,4"/>
<g id="clust1" class="cluster">
<title>clusterdir_409f97388efe006bc3438b95e9edef48</title>
<g id="a_clust1"><a xlink:href="dir_409f97388efe006bc3438b95e9edef48.html" target="_top">
<polygon fill="#eeeeff" stroke="#000000" points="56.0718,-280 56.0718,-404 142.0718,-404 142.0718,-280 56.0718,-280"/>
</a>
</g>
</g>
<!-- dir_409f97388efe006bc3438b95e9edef48 -->
<g id="node1" class="node">
<title>dir_409f97388efe006bc3438b95e9edef48</title>
<text text-anchor="middle" x="99.0718" y="-375" font-family="Helvetica,sans-Serif" font-size="10.00" fill="#000000">components</text>
</g>
<!-- dir_74b77db838fca204c81ae8864cd83d58 -->
<g id="node2" class="node">
<title>dir_74b77db838fca204c81ae8864cd83d58</title>
<g id="a_node2"><a xlink:href="dir_74b77db838fca204c81ae8864cd83d58.html" target="_top" xlink:title="include">
<polygon fill="#ffffff" stroke="#000000" points="118.0718,-324 64.0718,-324 64.0718,-288 118.0718,-288 118.0718,-324"/>
<text text-anchor="middle" x="91.0718" y="-303" font-family="Helvetica,sans-Serif" font-size="10.00" fill="#000000">include</text>
</a>
</g>
</g>
<!-- dir_409f97388efe006bc3438b95e9edef48&#45;&gt;dir_74b77db838fca204c81ae8864cd83d58 -->
<g id="edge6" class="edge">
<title>dir_409f97388efe006bc3438b95e9edef48&#45;&gt;dir_74b77db838fca204c81ae8864cd83d58</title>
<path fill="none" stroke="#000000" d="M97.0531,-359.8314C96.1975,-352.131 95.1801,-342.9743 94.2292,-334.4166"/>
<polygon fill="#000000" stroke="#000000" points="97.7007,-333.9656 93.1177,-324.4133 90.7435,-334.7386 97.7007,-333.9656"/>
<g id="a_edge6&#45;headlabel"><a xlink:href="dir_000010_000014.html" target="_top" xlink:title="20">
<text text-anchor="middle" x="100.9195" y="-334.2247" font-family="Helvetica,sans-Serif" font-size="10.00" fill="#000000">20</text>
</a>
</g>
</g>
<!-- dir_68267d1309a1af8e8297ef4c3efbcdba -->
<g id="node3" class="node">
<title>dir_68267d1309a1af8e8297ef4c3efbcdba</title>
<g id="a_node3"><a xlink:href="dir_68267d1309a1af8e8297ef4c3efbcdba.html" target="_top" xlink:title="src">
<polygon fill="#ffffff" stroke="#ff0000" points="146.0718,-252 92.0718,-252 92.0718,-216 146.0718,-216 146.0718,-252"/>
<text text-anchor="middle" x="119.0718" y="-231" font-family="Helvetica,sans-Serif" font-size="10.00" fill="#000000">src</text>
</a>
</g>
</g>
<!-- dir_409f97388efe006bc3438b95e9edef48&#45;&gt;dir_68267d1309a1af8e8297ef4c3efbcdba -->
<g id="edge5" class="edge">
<title>dir_409f97388efe006bc3438b95e9edef48&#45;&gt;dir_68267d1309a1af8e8297ef4c3efbcdba</title>
<path fill="none" stroke="#000000" d="M111.2535,-359.882C117.3033,-349.7891 123.9696,-336.7221 127.0718,-324 132.0422,-303.6164 129.6352,-279.9652 126.2029,-262.0248"/>
<polygon fill="#000000" stroke="#000000" points="129.6149,-261.2428 124.1115,-252.1895 122.768,-262.6988 129.6149,-261.2428"/>
<g id="a_edge5&#45;headlabel"><a xlink:href="dir_000010_000020.html" target="_top" xlink:title="17">
<text text-anchor="middle" x="133.1397" y="-261.1683" font-family="Helvetica,sans-Serif" font-size="10.00" fill="#000000">17</text>
</a>
</g>
</g>
<!-- dir_7d604191edc08013a26f918aa8ef79ad -->
<g id="node6" class="node">
<title>dir_7d604191edc08013a26f918aa8ef79ad</title>
<g id="a_node6"><a xlink:href="dir_7d604191edc08013a26f918aa8ef79ad.html" target="_top" xlink:title="events">
<polygon fill="#ffffff" stroke="#ff0000" points="210.0718,-108 156.0718,-108 156.0718,-72 210.0718,-72 210.0718,-108"/>
<text text-anchor="middle" x="183.0718" y="-87" font-family="Helvetica,sans-Serif" font-size="10.00" fill="#000000">events</text>
</a>
</g>
</g>
<!-- dir_409f97388efe006bc3438b95e9edef48&#45;&gt;dir_7d604191edc08013a26f918aa8ef79ad -->
<g id="edge7" class="edge">
<title>dir_409f97388efe006bc3438b95e9edef48&#45;&gt;dir_7d604191edc08013a26f918aa8ef79ad</title>
<path fill="none" stroke="#000000" d="M115.7826,-359.8891C124.5771,-349.7982 135.1479,-336.7309 143.0718,-324 179.028,-266.2308 186.3181,-247.4796 195.0718,-180 197.1301,-164.133 196.8177,-159.9045 195.0718,-144 194.1434,-135.5425 192.4204,-126.4715 190.564,-118.2246"/>
<polygon fill="#000000" stroke="#000000" points="193.9262,-117.2356 188.1909,-108.3273 187.1191,-118.8678 193.9262,-117.2356"/>
<g id="a_edge7&#45;headlabel"><a xlink:href="dir_000010_000016.html" target="_top" xlink:title="17">
<text text-anchor="middle" x="197.5252" y="-117.0692" font-family="Helvetica,sans-Serif" font-size="10.00" fill="#000000">17</text>
</a>
</g>
</g>
<!-- dir_74b77db838fca204c81ae8864cd83d58&#45;&gt;dir_68267d1309a1af8e8297ef4c3efbcdba -->
<g id="edge8" class="edge">
<title>dir_74b77db838fca204c81ae8864cd83d58&#45;&gt;dir_68267d1309a1af8e8297ef4c3efbcdba</title>
<path fill="none" stroke="#000000" d="M98.1374,-287.8314C101.1978,-279.9617 104.8497,-270.5712 108.24,-261.8533"/>
<polygon fill="#000000" stroke="#000000" points="111.5486,-263.0019 111.9111,-252.4133 105.0246,-260.4647 111.5486,-263.0019"/>
<g id="a_edge8&#45;headlabel"><a xlink:href="dir_000014_000020.html" target="_top" xlink:title="16">
<text text-anchor="middle" x="112.892" y="-264.3812" font-family="Helvetica,sans-Serif" font-size="10.00" fill="#000000">16</text>
</a>
</g>
</g>
<!-- dir_23ec12649285f9fabf3a6b7380226c28 -->
<g id="node4" class="node">
<title>dir_23ec12649285f9fabf3a6b7380226c28</title>
<g id="a_node4"><a xlink:href="dir_23ec12649285f9fabf3a6b7380226c28.html" target="_top" xlink:title="util">
<polygon fill="#ffffff" stroke="#ff0000" points="146.0718,-36 92.0718,-36 92.0718,0 146.0718,0 146.0718,-36"/>
<text text-anchor="middle" x="119.0718" y="-15" font-family="Helvetica,sans-Serif" font-size="10.00" fill="#000000">util</text>
</a>
</g>
</g>
<!-- dir_74b77db838fca204c81ae8864cd83d58&#45;&gt;dir_23ec12649285f9fabf3a6b7380226c28 -->
<g id="edge9" class="edge">
<title>dir_74b77db838fca204c81ae8864cd83d58&#45;&gt;dir_23ec12649285f9fabf3a6b7380226c28</title>
<path fill="none" stroke="#000000" d="M69.751,-287.9771C37.944,-258.768 -16.0479,-198.8218 5.0718,-144 21.2872,-101.9087 58.8021,-65.1476 86.3876,-42.3657"/>
<polygon fill="#000000" stroke="#000000" points="88.6494,-45.0381 94.2364,-36.0361 84.2551,-39.5892 88.6494,-45.0381"/>
<g id="a_edge9&#45;headlabel"><a xlink:href="dir_000014_000028.html" target="_top" xlink:title="9">
<text text-anchor="middle" x="87.6336" y="-46.5047" font-family="Helvetica,sans-Serif" font-size="10.00" fill="#000000">9</text>
</a>
</g>
</g>
<!-- dir_25b35af5d6fe939e26498b93aa0ed469 -->
<g id="node5" class="node">
<title>dir_25b35af5d6fe939e26498b93aa0ed469</title>
<g id="a_node5"><a xlink:href="dir_25b35af5d6fe939e26498b93aa0ed469.html" target="_top" xlink:title="app_events">
<polygon fill="#ffffff" stroke="#ff0000" points="81.7814,-180 14.3622,-180 14.3622,-144 81.7814,-144 81.7814,-180"/>
<text text-anchor="middle" x="48.0718" y="-159" font-family="Helvetica,sans-Serif" font-size="10.00" fill="#000000">app_events</text>
</a>
</g>
</g>
<!-- dir_74b77db838fca204c81ae8864cd83d58&#45;&gt;dir_25b35af5d6fe939e26498b93aa0ed469 -->
<g id="edge10" class="edge">
<title>dir_74b77db838fca204c81ae8864cd83d58&#45;&gt;dir_25b35af5d6fe939e26498b93aa0ed469</title>
<path fill="none" stroke="#000000" d="M85.6258,-287.7623C78.2593,-263.0928 65.0508,-218.8598 56.4249,-189.9731"/>
<polygon fill="#000000" stroke="#000000" points="59.6886,-188.6701 53.4736,-180.0896 52.9812,-190.673 59.6886,-188.6701"/>
<g id="a_edge10&#45;headlabel"><a xlink:href="dir_000014_000000.html" target="_top" xlink:title="1">
<text text-anchor="middle" x="63.4376" y="-188.302" font-family="Helvetica,sans-Serif" font-size="10.00" fill="#000000">1</text>
</a>
</g>
</g>
<!-- dir_74b77db838fca204c81ae8864cd83d58&#45;&gt;dir_7d604191edc08013a26f918aa8ef79ad -->
<g id="edge11" class="edge">
<title>dir_74b77db838fca204c81ae8864cd83d58&#45;&gt;dir_7d604191edc08013a26f918aa8ef79ad</title>
<path fill="none" stroke="#000000" d="M118.2538,-289.0064C131.2033,-279.5946 145.8426,-266.8042 155.0718,-252 180.8232,-210.6932 184.6907,-152.5265 184.4032,-118.2955"/>
<polygon fill="#000000" stroke="#000000" points="187.8978,-117.9978 184.1863,-108.0743 180.8993,-118.1463 187.8978,-117.9978"/>
<g id="a_edge11&#45;headlabel"><a xlink:href="dir_000014_000016.html" target="_top" xlink:title="16">
<text text-anchor="middle" x="190.8126" y="-118.5314" font-family="Helvetica,sans-Serif" font-size="10.00" fill="#000000">16</text>
</a>
</g>
</g>
<!-- dir_68267d1309a1af8e8297ef4c3efbcdba&#45;&gt;dir_23ec12649285f9fabf3a6b7380226c28 -->
<g id="edge1" class="edge">
<title>dir_68267d1309a1af8e8297ef4c3efbcdba&#45;&gt;dir_23ec12649285f9fabf3a6b7380226c28</title>
<path fill="none" stroke="#000000" d="M115.1259,-215.9555C111.6674,-178.3144 111.4081,-91.1867 114.348,-46.1246"/>
<polygon fill="#000000" stroke="#000000" points="117.8382,-46.3844 115.1167,-36.1451 110.8589,-45.8467 117.8382,-46.3844"/>
<g id="a_edge1&#45;headlabel"><a xlink:href="dir_000020_000028.html" target="_top" xlink:title="4">
<text text-anchor="middle" x="120.3931" y="-47.1864" font-family="Helvetica,sans-Serif" font-size="10.00" fill="#000000">4</text>
</a>
</g>
</g>
<!-- dir_68267d1309a1af8e8297ef4c3efbcdba&#45;&gt;dir_25b35af5d6fe939e26498b93aa0ed469 -->
<g id="edge2" class="edge">
<title>dir_68267d1309a1af8e8297ef4c3efbcdba&#45;&gt;dir_25b35af5d6fe939e26498b93aa0ed469</title>
<path fill="none" stroke="#000000" d="M95.2031,-215.8314C86.034,-207.3694 75.7703,-197.1489 67.1012,-187.8971"/>
<polygon fill="#000000" stroke="#000000" points="69.5862,-185.4281 60.2533,-180.4133 64.4219,-190.1536 69.5862,-185.4281"/>
<g id="a_edge2&#45;headlabel"><a xlink:href="dir_000020_000000.html" target="_top" xlink:title="4">
<text text-anchor="middle" x="74.1075" y="-183.1633" font-family="Helvetica,sans-Serif" font-size="10.00" fill="#000000">4</text>
</a>
</g>
</g>
<!-- dir_68267d1309a1af8e8297ef4c3efbcdba&#45;&gt;dir_7d604191edc08013a26f918aa8ef79ad -->
<g id="edge3" class="edge">
<title>dir_68267d1309a1af8e8297ef4c3efbcdba&#45;&gt;dir_7d604191edc08013a26f918aa8ef79ad</title>
<path fill="none" stroke="#000000" d="M122.5043,-215.7623C131.0723,-190.8764 150.7318,-146.0822 165.5551,-117.2165"/>
<polygon fill="#000000" stroke="#000000" points="168.7999,-118.5669 170.3737,-108.0896 162.6097,-115.2987 168.7999,-118.5669"/>
<g id="a_edge3&#45;headlabel"><a xlink:href="dir_000020_000016.html" target="_top" xlink:title="4">
<text text-anchor="middle" x="169.6325" y="-120.0713" font-family="Helvetica,sans-Serif" font-size="10.00" fill="#000000">4</text>
</a>
</g>
</g>
<!-- dir_23ec12649285f9fabf3a6b7380226c28&#45;&gt;dir_68267d1309a1af8e8297ef4c3efbcdba -->
<g id="edge4" class="edge">
<title>dir_23ec12649285f9fabf3a6b7380226c28&#45;&gt;dir_68267d1309a1af8e8297ef4c3efbcdba</title>
<path fill="none" stroke="#000000" d="M123.0269,-36.1451C126.4724,-73.7945 126.7322,-160.6409 123.8064,-205.7103"/>
<polygon fill="#000000" stroke="#000000" points="120.2957,-205.7163 123.0177,-215.9555 127.275,-206.2537 120.2957,-205.7163"/>
<g id="a_edge4&#45;headlabel"><a xlink:href="dir_000028_000020.html" target="_top" xlink:title="4">
<text text-anchor="middle" x="117.7406" y="-198.9144" font-family="Helvetica,sans-Serif" font-size="10.00" fill="#000000">4</text>
</a>
</g>
</g>
<!-- dir_25b35af5d6fe939e26498b93aa0ed469&#45;&gt;dir_68267d1309a1af8e8297ef4c3efbcdba -->
<g id="edge12" class="edge">
<title>dir_25b35af5d6fe939e26498b93aa0ed469&#45;&gt;dir_68267d1309a1af8e8297ef4c3efbcdba</title>
<path fill="none" stroke="#000000" d="M71.9342,-180.1628C81.1733,-188.6891 91.5246,-199.0016 100.2362,-208.3099"/>
<polygon fill="#000000" stroke="#000000" points="97.7789,-210.8093 107.1079,-215.8314 102.9469,-206.0878 97.7789,-210.8093"/>
<g id="a_edge12&#45;headlabel"><a xlink:href="dir_000000_000020.html" target="_top" xlink:title="5">
<text text-anchor="middle" x="93.2582" y="-207.0706" font-family="Helvetica,sans-Serif" font-size="10.00" fill="#000000">5</text>
</a>
</g>
</g>
<!-- dir_25b35af5d6fe939e26498b93aa0ed469&#45;&gt;dir_23ec12649285f9fabf3a6b7380226c28 -->
<g id="edge13" class="edge">
<title>dir_25b35af5d6fe939e26498b93aa0ed469&#45;&gt;dir_23ec12649285f9fabf3a6b7380226c28</title>
<path fill="none" stroke="#000000" d="M57.064,-143.7623C69.3341,-118.8764 91.4201,-74.0822 105.6526,-45.2165"/>
<polygon fill="#000000" stroke="#000000" points="108.8695,-46.6065 110.1526,-36.0896 102.5912,-43.5109 108.8695,-46.6065"/>
<g id="a_edge13&#45;headlabel"><a xlink:href="dir_000000_000028.html" target="_top" xlink:title="2">
<text text-anchor="middle" x="109.8265" y="-48.0861" font-family="Helvetica,sans-Serif" font-size="10.00" fill="#000000">2</text>
</a>
</g>
</g>
<!-- dir_25b35af5d6fe939e26498b93aa0ed469&#45;&gt;dir_7d604191edc08013a26f918aa8ef79ad -->
<g id="edge14" class="edge">
<title>dir_25b35af5d6fe939e26498b93aa0ed469&#45;&gt;dir_7d604191edc08013a26f918aa8ef79ad</title>
<path fill="none" stroke="#000000" d="M81.7898,-144.0171C101.5656,-133.47 126.5538,-120.143 146.7614,-109.3655"/>
<polygon fill="#000000" stroke="#000000" points="148.4973,-112.4065 155.6738,-104.6123 145.2031,-106.23 148.4973,-112.4065"/>
<g id="a_edge14&#45;headlabel"><a xlink:href="dir_000000_000016.html" target="_top" xlink:title="2">
<text text-anchor="middle" x="146.6617" y="-113.6032" font-family="Helvetica,sans-Serif" font-size="10.00" fill="#000000">2</text>
</a>
</g>
</g>
<!-- dir_7d604191edc08013a26f918aa8ef79ad&#45;&gt;dir_68267d1309a1af8e8297ef4c3efbcdba -->
<g id="edge15" class="edge">
<title>dir_7d604191edc08013a26f918aa8ef79ad&#45;&gt;dir_68267d1309a1af8e8297ef4c3efbcdba</title>
<path fill="none" stroke="#000000" d="M179.6903,-108.0896C171.1663,-132.8962 151.5194,-177.6824 136.677,-206.6113"/>
<polygon fill="#000000" stroke="#000000" points="133.4199,-205.2843 131.8506,-215.7623 139.6115,-208.5499 133.4199,-205.2843"/>
<g id="a_edge15&#45;headlabel"><a xlink:href="dir_000016_000020.html" target="_top" xlink:title="5">
<text text-anchor="middle" x="132.5854" y="-197.7803" font-family="Helvetica,sans-Serif" font-size="10.00" fill="#000000">5</text>
</a>
</g>
</g>
<!-- dir_7d604191edc08013a26f918aa8ef79ad&#45;&gt;dir_23ec12649285f9fabf3a6b7380226c28 -->
<g id="edge16" class="edge">
<title>dir_7d604191edc08013a26f918aa8ef79ad&#45;&gt;dir_23ec12649285f9fabf3a6b7380226c28</title>
<path fill="none" stroke="#000000" d="M166.9219,-71.8314C159.4001,-63.3694 150.3153,-53.1489 142.0914,-43.8971"/>
<polygon fill="#000000" stroke="#000000" points="144.6988,-41.5621 135.4392,-36.4133 139.4669,-46.2127 144.6988,-41.5621"/>
<g id="a_edge16&#45;headlabel"><a xlink:href="dir_000016_000028.html" target="_top" xlink:title="2">
<text text-anchor="middle" x="149.209" y="-39.3624" font-family="Helvetica,sans-Serif" font-size="10.00" fill="#000000">2</text>
</a>
</g>
</g>
</g>
</svg>
