<?xml version="1.0" encoding="UTF-8" standalone="no"?>
<!DOCTYPE svg PUBLIC "-//W3C//DTD SVG 1.1//EN"
 "http://www.w3.org/Graphics/SVG/1.1/DTD/svg11.dtd">
<!-- Generated by graphviz version 2.40.1 (20161225.0304)
 -->
<!-- Title: ext_comps/topo_mgmt Pages: 1 -->
<svg width="225pt" height="302pt"
 viewBox="0.00 0.00 225.00 302.00" xmlns="http://www.w3.org/2000/svg" xmlns:xlink="http://www.w3.org/1999/xlink">
<g id="graph0" class="graph" transform="scale(1 1) rotate(0) translate(4 298)">
<title>ext_comps/topo_mgmt</title>
<polygon fill="#ffffff" stroke="transparent" points="-4,4 -4,-298 221,-298 221,4 -4,4"/>
<g id="clust1" class="cluster">
<title>clusterdir_d7c209a246552ade0a12df4403b93cd5</title>
<g id="a_clust1"><a xlink:href="dir_d7c209a246552ade0a12df4403b93cd5.html" target="_top" xlink:title="ext_comps">
<polygon fill="#ddddee" stroke="#000000" points="39,-200 39,-286 209,-286 209,-200 39,-200"/>
<text text-anchor="middle" x="124" y="-274" font-family="Helvetica,sans-Serif" font-size="10.00" fill="#000000">ext_comps</text>
</a>
</g>
</g>
<g id="clust2" class="cluster">
<title>clusterdir_e58e4659d14cfa13982aff34da34673d</title>
<g id="a_clust2"><a xlink:href="dir_e58e4659d14cfa13982aff34da34673d.html" target="_top">
<polygon fill="#eeeeff" stroke="#000000" points="47,-208 47,-260 201,-260 201,-208 47,-208"/>
</a>
</g>
</g>
<!-- dir_e58e4659d14cfa13982aff34da34673d -->
<g id="node1" class="node">
<title>dir_e58e4659d14cfa13982aff34da34673d</title>
<text text-anchor="middle" x="160" y="-231" font-family="Helvetica,sans-Serif" font-size="10.00" fill="#000000">topo_mgmt</text>
</g>
<!-- dir_2f2c8ae1ac77ada78b481f01c6b6fbc9 -->
<g id="node2" class="node">
<title>dir_2f2c8ae1ac77ada78b481f01c6b6fbc9</title>
<g id="a_node2"><a xlink:href="dir_2f2c8ae1ac77ada78b481f01c6b6fbc9.html" target="_top" xlink:title="src">
<polygon fill="#ffffff" stroke="#ff0000" points="109,-252 55,-252 55,-216 109,-216 109,-252"/>
<text text-anchor="middle" x="82" y="-231" font-family="Helvetica,sans-Serif" font-size="10.00" fill="#000000">src</text>
</a>
</g>
</g>
<!-- dir_68267d1309a1af8e8297ef4c3efbcdba -->
<g id="node3" class="node">
<title>dir_68267d1309a1af8e8297ef4c3efbcdba</title>
<g id="a_node3"><a xlink:href="dir_68267d1309a1af8e8297ef4c3efbcdba.html" target="_top" xlink:title="src">
<polygon fill="#ffffff" stroke="#ff0000" points="54,-180 0,-180 0,-144 54,-144 54,-180"/>
<text text-anchor="middle" x="27" y="-159" font-family="Helvetica,sans-Serif" font-size="10.00" fill="#000000">src</text>
</a>
</g>
</g>
<!-- dir_2f2c8ae1ac77ada78b481f01c6b6fbc9&#45;&gt;dir_68267d1309a1af8e8297ef4c3efbcdba -->
<g id="edge4" class="edge">
<title>dir_2f2c8ae1ac77ada78b481f01c6b6fbc9&#45;&gt;dir_68267d1309a1af8e8297ef4c3efbcdba</title>
<path fill="none" stroke="#000000" d="M68.1212,-215.8314C61.7864,-207.5386 54.1616,-197.557 47.2074,-188.4533"/>
<polygon fill="#000000" stroke="#000000" points="49.9175,-186.2353 41.0657,-180.4133 44.3548,-190.4847 49.9175,-186.2353"/>
<g id="a_edge4&#45;headlabel"><a xlink:href="dir_000017_000023.html" target="_top" xlink:title="1">
<text text-anchor="middle" x="54.3558" y="-184.3683" font-family="Helvetica,sans-Serif" font-size="10.00" fill="#000000">1</text>
</a>
</g>
</g>
<!-- dir_23ec12649285f9fabf3a6b7380226c28 -->
<g id="node4" class="node">
<title>dir_23ec12649285f9fabf3a6b7380226c28</title>
<g id="a_node4"><a xlink:href="dir_23ec12649285f9fabf3a6b7380226c28.html" target="_top" xlink:title="util">
<polygon fill="#ffffff" stroke="#ff0000" points="69,-36 15,-36 15,0 69,0 69,-36"/>
<text text-anchor="middle" x="42" y="-15" font-family="Helvetica,sans-Serif" font-size="10.00" fill="#000000">util</text>
</a>
</g>
</g>
<!-- dir_2f2c8ae1ac77ada78b481f01c6b6fbc9&#45;&gt;dir_23ec12649285f9fabf3a6b7380226c28 -->
<g id="edge5" class="edge">
<title>dir_2f2c8ae1ac77ada78b481f01c6b6fbc9&#45;&gt;dir_23ec12649285f9fabf3a6b7380226c28</title>
<path fill="none" stroke="#000000" d="M91.9395,-215.7621C107.4324,-184.6941 133.2694,-120.1926 110,-72 103.0765,-57.6608 90.2901,-45.9615 77.6575,-37.1646"/>
<polygon fill="#000000" stroke="#000000" points="79.3018,-34.059 69.0104,-31.5415 75.4856,-39.9273 79.3018,-34.059"/>
<g id="a_edge5&#45;headlabel"><a xlink:href="dir_000017_000026.html" target="_top" xlink:title="1">
<text text-anchor="middle" x="83.8631" y="-30.6383" font-family="Helvetica,sans-Serif" font-size="10.00" fill="#000000">1</text>
</a>
</g>
</g>
<!-- dir_7d604191edc08013a26f918aa8ef79ad -->
<g id="node5" class="node">
<title>dir_7d604191edc08013a26f918aa8ef79ad</title>
<g id="a_node5"><a xlink:href="dir_7d604191edc08013a26f918aa8ef79ad.html" target="_top" xlink:title="events">
<polygon fill="#ffffff" stroke="#ff0000" points="101,-108 47,-108 47,-72 101,-72 101,-108"/>
<text text-anchor="middle" x="74" y="-87" font-family="Helvetica,sans-Serif" font-size="10.00" fill="#000000">events</text>
</a>
</g>
</g>
<!-- dir_2f2c8ae1ac77ada78b481f01c6b6fbc9&#45;&gt;dir_7d604191edc08013a26f918aa8ef79ad -->
<g id="edge6" class="edge">
<title>dir_2f2c8ae1ac77ada78b481f01c6b6fbc9&#45;&gt;dir_7d604191edc08013a26f918aa8ef79ad</title>
<path fill="none" stroke="#000000" d="M80.9868,-215.7623C79.6223,-191.201 77.1804,-147.2474 75.5752,-118.3541"/>
<polygon fill="#000000" stroke="#000000" points="79.0544,-117.88 75.005,-108.0896 72.0652,-118.2684 79.0544,-117.88"/>
<g id="a_edge6&#45;headlabel"><a xlink:href="dir_000017_000019.html" target="_top" xlink:title="1">
<text text-anchor="middle" x="82.0886" y="-118.3117" font-family="Helvetica,sans-Serif" font-size="10.00" fill="#000000">1</text>
</a>
</g>
</g>
<!-- dir_68267d1309a1af8e8297ef4c3efbcdba&#45;&gt;dir_23ec12649285f9fabf3a6b7380226c28 -->
<g id="edge1" class="edge">
<title>dir_68267d1309a1af8e8297ef4c3efbcdba&#45;&gt;dir_23ec12649285f9fabf3a6b7380226c28</title>
<path fill="none" stroke="#000000" d="M24.2266,-143.7623C24.3257,-119.0928 28.667,-74.8598 33.6141,-45.9731"/>
<polygon fill="#000000" stroke="#000000" points="37.0646,-46.5618 35.4574,-36.0896 30.1832,-45.2784 37.0646,-46.5618"/>
<g id="a_edge1&#45;headlabel"><a xlink:href="dir_000023_000026.html" target="_top" xlink:title="8">
<text text-anchor="middle" x="39.1967" y="-47.616" font-family="Helvetica,sans-Serif" font-size="10.00" fill="#000000">8</text>
</a>
</g>
</g>
<!-- dir_68267d1309a1af8e8297ef4c3efbcdba&#45;&gt;dir_7d604191edc08013a26f918aa8ef79ad -->
<g id="edge2" class="edge">
<title>dir_68267d1309a1af8e8297ef4c3efbcdba&#45;&gt;dir_7d604191edc08013a26f918aa8ef79ad</title>
<path fill="none" stroke="#000000" d="M32.9077,-143.8314C37.4659,-135.6232 43.7058,-125.7606 50.0026,-116.7323"/>
<polygon fill="#000000" stroke="#000000" points="52.9919,-118.5709 56.0042,-108.4133 47.315,-114.4754 52.9919,-118.5709"/>
<g id="a_edge2&#45;headlabel"><a xlink:href="dir_000023_000019.html" target="_top" xlink:title="4">
<text text-anchor="middle" x="53.1915" y="-120.1472" font-family="Helvetica,sans-Serif" font-size="10.00" fill="#000000">4</text>
</a>
</g>
</g>
<!-- dir_23ec12649285f9fabf3a6b7380226c28&#45;&gt;dir_68267d1309a1af8e8297ef4c3efbcdba -->
<g id="edge3" class="edge">
<title>dir_23ec12649285f9fabf3a6b7380226c28&#45;&gt;dir_68267d1309a1af8e8297ef4c3efbcdba</title>
<path fill="none" stroke="#000000" d="M44.774,-36.0896C44.6919,-60.6805 40.3603,-104.905 35.4156,-133.8531"/>
<polygon fill="#000000" stroke="#000000" points="31.9603,-133.2909 33.5729,-143.7623 38.8423,-134.5708 31.9603,-133.2909"/>
<g id="a_edge3&#45;headlabel"><a xlink:href="dir_000026_000023.html" target="_top" xlink:title="6">
<text text-anchor="middle" x="29.8259" y="-126.2378" font-family="Helvetica,sans-Serif" font-size="10.00" fill="#000000">6</text>
</a>
</g>
</g>
<!-- dir_7d604191edc08013a26f918aa8ef79ad&#45;&gt;dir_68267d1309a1af8e8297ef4c3efbcdba -->
<g id="edge7" class="edge">
<title>dir_7d604191edc08013a26f918aa8ef79ad&#45;&gt;dir_68267d1309a1af8e8297ef4c3efbcdba</title>
<path fill="none" stroke="#000000" d="M67.9562,-108.4133C63.3649,-116.654 57.1079,-126.5245 50.8101,-135.536"/>
<polygon fill="#000000" stroke="#000000" points="47.8353,-133.6769 44.8125,-143.8314 53.5079,-137.7783 47.8353,-133.6769"/>
<g id="a_edge7&#45;headlabel"><a xlink:href="dir_000019_000023.html" target="_top" xlink:title="4">
<text text-anchor="middle" x="47.6405" y="-126.1004" font-family="Helvetica,sans-Serif" font-size="10.00" fill="#000000">4</text>
</a>
</g>
</g>
<!-- dir_7d604191edc08013a26f918aa8ef79ad&#45;&gt;dir_23ec12649285f9fabf3a6b7380226c28 -->
<g id="edge8" class="edge">
<title>dir_7d604191edc08013a26f918aa8ef79ad&#45;&gt;dir_23ec12649285f9fabf3a6b7380226c28</title>
<path fill="none" stroke="#000000" d="M65.925,-71.8314C62.3898,-63.8771 58.164,-54.369 54.2544,-45.5723"/>
<polygon fill="#000000" stroke="#000000" points="57.4435,-44.1299 50.1837,-36.4133 51.0468,-46.9729 57.4435,-44.1299"/>
<g id="a_edge8&#45;headlabel"><a xlink:href="dir_000019_000026.html" target="_top" xlink:title="2">
<text text-anchor="middle" x="61.4979" y="-43.2616" font-family="Helvetica,sans-Serif" font-size="10.00" fill="#000000">2</text>
</a>
</g>
</g>
</g>
</svg>
