<?xml version="1.0" encoding="UTF-8" standalone="no"?>
<!DOCTYPE svg PUBLIC "-//W3C//DTD SVG 1.1//EN"
 "http://www.w3.org/Graphics/SVG/1.1/DTD/svg11.dtd">
<!-- Generated by graphviz version 2.40.1 (20161225.0304)
 -->
<!-- Title: src Pages: 1 -->
<svg width="203pt" height="204pt"
 viewBox="0.00 0.00 202.67 204.00" xmlns="http://www.w3.org/2000/svg" xmlns:xlink="http://www.w3.org/1999/xlink">
<g id="graph0" class="graph" transform="scale(1 1) rotate(0) translate(4 200)">
<title>src</title>
<polygon fill="#ffffff" stroke="transparent" points="-4,4 -4,-200 198.6745,-200 198.6745,4 -4,4"/>
<g id="clust1" class="cluster">
<title>clusterdir_68267d1309a1af8e8297ef4c3efbcdba</title>
<g id="a_clust1"><a xlink:href="dir_68267d1309a1af8e8297ef4c3efbcdba.html" target="_top">
<polygon fill="#eeeeff" stroke="#000000" points="8,-8 8,-132 78,-132 78,-8 8,-8"/>
</a>
</g>
</g>
<!-- dir_68267d1309a1af8e8297ef4c3efbcdba -->
<g id="node1" class="node">
<title>dir_68267d1309a1af8e8297ef4c3efbcdba</title>
<text text-anchor="middle" x="43" y="-103" font-family="Helvetica,sans-Serif" font-size="10.00" fill="#000000">src</text>
</g>
<!-- dir_b0856f6b0d80ccb263b2f415c91f9e17 -->
<g id="node2" class="node">
<title>dir_b0856f6b0d80ccb263b2f415c91f9e17</title>
<g id="a_node2"><a xlink:href="dir_b0856f6b0d80ccb263b2f415c91f9e17.html" target="_top" xlink:title="include">
<polygon fill="#ffffff" stroke="#000000" points="70,-52 16,-52 16,-16 70,-16 70,-52"/>
<text text-anchor="middle" x="43" y="-31" font-family="Helvetica,sans-Serif" font-size="10.00" fill="#000000">include</text>
</a>
</g>
</g>
<!-- dir_68267d1309a1af8e8297ef4c3efbcdba&#45;&gt;dir_b0856f6b0d80ccb263b2f415c91f9e17 -->
<g id="edge3" class="edge">
<title>dir_68267d1309a1af8e8297ef4c3efbcdba&#45;&gt;dir_b0856f6b0d80ccb263b2f415c91f9e17</title>
<path fill="none" stroke="#000000" d="M43,-87.8314C43,-80.131 43,-70.9743 43,-62.4166"/>
<polygon fill="#000000" stroke="#000000" points="46.5001,-62.4132 43,-52.4133 39.5001,-62.4133 46.5001,-62.4132"/>
<g id="a_edge3&#45;headlabel"><a xlink:href="dir_000020_000021.html" target="_top" xlink:title="10">
<text text-anchor="middle" x="49.3393" y="-63.0079" font-family="Helvetica,sans-Serif" font-size="10.00" fill="#000000">10</text>
</a>
</g>
</g>
<!-- dir_25b35af5d6fe939e26498b93aa0ed469 -->
<g id="node4" class="node">
<title>dir_25b35af5d6fe939e26498b93aa0ed469</title>
<g id="a_node4"><a xlink:href="dir_25b35af5d6fe939e26498b93aa0ed469.html" target="_top" xlink:title="app_events">
<polygon fill="#ffffff" stroke="#ff0000" points="158.7096,-196 91.2904,-196 91.2904,-160 158.7096,-160 158.7096,-196"/>
<text text-anchor="middle" x="125" y="-175" font-family="Helvetica,sans-Serif" font-size="10.00" fill="#000000">app_events</text>
</a>
</g>
</g>
<!-- dir_68267d1309a1af8e8297ef4c3efbcdba&#45;&gt;dir_25b35af5d6fe939e26498b93aa0ed469 -->
<g id="edge1" class="edge">
<title>dir_68267d1309a1af8e8297ef4c3efbcdba&#45;&gt;dir_25b35af5d6fe939e26498b93aa0ed469</title>
<path fill="none" stroke="#000000" d="M57.7336,-124.1628C66.968,-133.0301 79.105,-143.8295 90.5698,-153.4219"/>
<polygon fill="#000000" stroke="#000000" points="88.4106,-156.1778 98.3555,-159.8314 92.8596,-150.7735 88.4106,-156.1778"/>
<g id="a_edge1&#45;headlabel"><a xlink:href="dir_000020_000000.html" target="_top" xlink:title="4">
<text text-anchor="middle" x="83.8309" y="-153.0853" font-family="Helvetica,sans-Serif" font-size="10.00" fill="#000000">4</text>
</a>
</g>
</g>
<!-- dir_7d604191edc08013a26f918aa8ef79ad -->
<g id="node5" class="node">
<title>dir_7d604191edc08013a26f918aa8ef79ad</title>
<g id="a_node5"><a xlink:href="dir_7d604191edc08013a26f918aa8ef79ad.html" target="_top" xlink:title="events">
<polygon fill="#ffffff" stroke="#ff0000" points="180,-124 126,-124 126,-88 180,-88 180,-124"/>
<text text-anchor="middle" x="153" y="-103" font-family="Helvetica,sans-Serif" font-size="10.00" fill="#000000">events</text>
</a>
</g>
</g>
<!-- dir_68267d1309a1af8e8297ef4c3efbcdba&#45;&gt;dir_7d604191edc08013a26f918aa8ef79ad -->
<g id="edge2" class="edge">
<title>dir_68267d1309a1af8e8297ef4c3efbcdba&#45;&gt;dir_7d604191edc08013a26f918aa8ef79ad</title>
<path fill="none" stroke="#000000" d="M70.0703,-106C85.3058,-106 100.5413,-106 115.7768,-106"/>
<polygon fill="#000000" stroke="#000000" points="115.7887,-109.5001 125.7887,-106 115.7887,-102.5001 115.7887,-109.5001"/>
<g id="a_edge2&#45;headlabel"><a xlink:href="dir_000020_000016.html" target="_top" xlink:title="4">
<text text-anchor="middle" x="112.1941" y="-109.3393" font-family="Helvetica,sans-Serif" font-size="10.00" fill="#000000">4</text>
</a>
</g>
</g>
<!-- dir_23ec12649285f9fabf3a6b7380226c28 -->
<g id="node3" class="node">
<title>dir_23ec12649285f9fabf3a6b7380226c28</title>
<g id="a_node3"><a xlink:href="dir_23ec12649285f9fabf3a6b7380226c28.html" target="_top" xlink:title="util">
<polygon fill="#ffffff" stroke="#ff0000" points="180,-52 126,-52 126,-16 180,-16 180,-52"/>
<text text-anchor="middle" x="153" y="-31" font-family="Helvetica,sans-Serif" font-size="10.00" fill="#000000">util</text>
</a>
</g>
</g>
<!-- dir_b0856f6b0d80ccb263b2f415c91f9e17&#45;&gt;dir_23ec12649285f9fabf3a6b7380226c28 -->
<g id="edge12" class="edge">
<title>dir_b0856f6b0d80ccb263b2f415c91f9e17&#45;&gt;dir_23ec12649285f9fabf3a6b7380226c28</title>
<path fill="none" stroke="#000000" d="M70.0703,-34C85.3058,-34 100.5413,-34 115.7768,-34"/>
<polygon fill="#000000" stroke="#000000" points="115.7887,-37.5001 125.7887,-34 115.7887,-30.5001 115.7887,-37.5001"/>
<g id="a_edge12&#45;headlabel"><a xlink:href="dir_000021_000028.html" target="_top" xlink:title="6">
<text text-anchor="middle" x="112.1941" y="-37.3393" font-family="Helvetica,sans-Serif" font-size="10.00" fill="#000000">6</text>
</a>
</g>
</g>
<!-- dir_23ec12649285f9fabf3a6b7380226c28&#45;&gt;dir_b0856f6b0d80ccb263b2f415c91f9e17 -->
<g id="edge4" class="edge">
<title>dir_23ec12649285f9fabf3a6b7380226c28&#45;&gt;dir_b0856f6b0d80ccb263b2f415c91f9e17</title>
<path fill="none" stroke="#000000" d="M125.7887,-34C110.5532,-34 95.3177,-34 80.0822,-34"/>
<polygon fill="#000000" stroke="#000000" points="80.0703,-30.5001 70.0703,-34 80.0703,-37.5001 80.0703,-30.5001"/>
<g id="a_edge4&#45;headlabel"><a xlink:href="dir_000028_000021.html" target="_top" xlink:title="5">
<text text-anchor="middle" x="83.6649" y="-24.6607" font-family="Helvetica,sans-Serif" font-size="10.00" fill="#000000">5</text>
</a>
</g>
</g>
<!-- dir_25b35af5d6fe939e26498b93aa0ed469&#45;&gt;dir_68267d1309a1af8e8297ef4c3efbcdba -->
<g id="edge5" class="edge">
<title>dir_25b35af5d6fe939e26498b93aa0ed469&#45;&gt;dir_68267d1309a1af8e8297ef4c3efbcdba</title>
<path fill="none" stroke="#000000" d="M110.2603,-159.8314C101.0247,-150.9632 88.8872,-140.1637 77.4227,-130.5718"/>
<polygon fill="#000000" stroke="#000000" points="79.5823,-127.8162 69.6373,-124.1628 75.1334,-133.2206 79.5823,-127.8162"/>
<g id="a_edge5&#45;headlabel"><a xlink:href="dir_000000_000020.html" target="_top" xlink:title="5">
<text text-anchor="middle" x="84.162" y="-124.9087" font-family="Helvetica,sans-Serif" font-size="10.00" fill="#000000">5</text>
</a>
</g>
</g>
<!-- dir_25b35af5d6fe939e26498b93aa0ed469&#45;&gt;dir_b0856f6b0d80ccb263b2f415c91f9e17 -->
<g id="edge8" class="edge">
<title>dir_25b35af5d6fe939e26498b93aa0ed469&#45;&gt;dir_b0856f6b0d80ccb263b2f415c91f9e17</title>
<path fill="none" stroke="#000000" d="M116.4357,-159.7416C107.6184,-141.3218 93.1995,-112.2208 79,-88 73.6711,-78.9102 67.4315,-69.2555 61.6578,-60.6616"/>
<polygon fill="#000000" stroke="#000000" points="64.3887,-58.4536 55.8672,-52.158 58.6028,-62.3936 64.3887,-58.4536"/>
<g id="a_edge8&#45;headlabel"><a xlink:href="dir_000000_000021.html" target="_top" xlink:title="5">
<text text-anchor="middle" x="68.7587" y="-56.8267" font-family="Helvetica,sans-Serif" font-size="10.00" fill="#000000">5</text>
</a>
</g>
</g>
<!-- dir_25b35af5d6fe939e26498b93aa0ed469&#45;&gt;dir_23ec12649285f9fabf3a6b7380226c28 -->
<g id="edge6" class="edge">
<title>dir_25b35af5d6fe939e26498b93aa0ed469&#45;&gt;dir_23ec12649285f9fabf3a6b7380226c28</title>
<path fill="none" stroke="#000000" d="M159.0274,-161.9997C170.727,-154.6292 182.507,-144.6631 189,-132 197.9226,-114.5987 194.6669,-106.7165 189,-88 186.0436,-78.2355 180.6748,-68.6229 174.97,-60.2762"/>
<polygon fill="#000000" stroke="#000000" points="177.7129,-58.0973 168.9905,-52.0831 172.0586,-62.2239 177.7129,-58.0973"/>
<g id="a_edge6&#45;headlabel"><a xlink:href="dir_000000_000028.html" target="_top" xlink:title="1">
<text text-anchor="middle" x="182.1253" y="-56.327" font-family="Helvetica,sans-Serif" font-size="10.00" fill="#000000">1</text>
</a>
</g>
</g>
<!-- dir_25b35af5d6fe939e26498b93aa0ed469&#45;&gt;dir_7d604191edc08013a26f918aa8ef79ad -->
<g id="edge7" class="edge">
<title>dir_25b35af5d6fe939e26498b93aa0ed469&#45;&gt;dir_7d604191edc08013a26f918aa8ef79ad</title>
<path fill="none" stroke="#000000" d="M132.0656,-159.8314C135.126,-151.9617 138.7779,-142.5712 142.1682,-133.8533"/>
<polygon fill="#000000" stroke="#000000" points="145.4768,-135.0019 145.8393,-124.4133 138.9527,-132.4647 145.4768,-135.0019"/>
<g id="a_edge7&#45;headlabel"><a xlink:href="dir_000000_000016.html" target="_top" xlink:title="2">
<text text-anchor="middle" x="146.8202" y="-136.3812" font-family="Helvetica,sans-Serif" font-size="10.00" fill="#000000">2</text>
</a>
</g>
</g>
<!-- dir_7d604191edc08013a26f918aa8ef79ad&#45;&gt;dir_68267d1309a1af8e8297ef4c3efbcdba -->
<g id="edge9" class="edge">
<title>dir_7d604191edc08013a26f918aa8ef79ad&#45;&gt;dir_68267d1309a1af8e8297ef4c3efbcdba</title>
<path fill="none" stroke="#000000" d="M125.7887,-106C110.5532,-106 95.3177,-106 80.0822,-106"/>
<polygon fill="#000000" stroke="#000000" points="80.0703,-102.5001 70.0703,-106 80.0703,-109.5001 80.0703,-102.5001"/>
<g id="a_edge9&#45;headlabel"><a xlink:href="dir_000016_000020.html" target="_top" xlink:title="5">
<text text-anchor="middle" x="83.6649" y="-96.6607" font-family="Helvetica,sans-Serif" font-size="10.00" fill="#000000">5</text>
</a>
</g>
</g>
<!-- dir_7d604191edc08013a26f918aa8ef79ad&#45;&gt;dir_b0856f6b0d80ccb263b2f415c91f9e17 -->
<g id="edge11" class="edge">
<title>dir_7d604191edc08013a26f918aa8ef79ad&#45;&gt;dir_b0856f6b0d80ccb263b2f415c91f9e17</title>
<path fill="none" stroke="#000000" d="M125.809,-88.2022C111.6622,-78.9425 94.1843,-67.5025 78.937,-57.5224"/>
<polygon fill="#000000" stroke="#000000" points="80.5433,-54.3907 70.2594,-51.8425 76.7097,-60.2476 80.5433,-54.3907"/>
<g id="a_edge11&#45;headlabel"><a xlink:href="dir_000016_000021.html" target="_top" xlink:title="5">
<text text-anchor="middle" x="85.1058" y="-50.9837" font-family="Helvetica,sans-Serif" font-size="10.00" fill="#000000">5</text>
</a>
</g>
</g>
<!-- dir_7d604191edc08013a26f918aa8ef79ad&#45;&gt;dir_23ec12649285f9fabf3a6b7380226c28 -->
<g id="edge10" class="edge">
<title>dir_7d604191edc08013a26f918aa8ef79ad&#45;&gt;dir_23ec12649285f9fabf3a6b7380226c28</title>
<path fill="none" stroke="#000000" d="M153,-87.8314C153,-80.131 153,-70.9743 153,-62.4166"/>
<polygon fill="#000000" stroke="#000000" points="156.5001,-62.4132 153,-52.4133 149.5001,-62.4133 156.5001,-62.4132"/>
<g id="a_edge10&#45;headlabel"><a xlink:href="dir_000016_000028.html" target="_top" xlink:title="2">
<text text-anchor="middle" x="159.3393" y="-63.0079" font-family="Helvetica,sans-Serif" font-size="10.00" fill="#000000">2</text>
</a>
</g>
</g>
</g>
</svg>
