<?xml version="1.0" encoding="UTF-8" standalone="no"?>
<!DOCTYPE svg PUBLIC "-//W3C//DTD SVG 1.1//EN"
 "http://www.w3.org/Graphics/SVG/1.1/DTD/svg11.dtd">
<!-- Generated by graphviz version 2.40.1 (20161225.0304)
 -->
<!-- Title: components/include Pages: 1 -->
<svg width="214pt" height="366pt"
 viewBox="0.00 0.00 214.02 366.00" xmlns="http://www.w3.org/2000/svg" xmlns:xlink="http://www.w3.org/1999/xlink">
<g id="graph0" class="graph" transform="scale(1 1) rotate(0) translate(4 362)">
<title>components/include</title>
<polygon fill="#ffffff" stroke="transparent" points="-4,4 -4,-362 210.0169,-362 210.0169,4 -4,4"/>
<g id="clust1" class="cluster">
<title>clusterdir_409f97388efe006bc3438b95e9edef48</title>
<g id="a_clust1"><a xlink:href="dir_409f97388efe006bc3438b95e9edef48.html" target="_top" xlink:title="components">
<polygon fill="#ddddee" stroke="#000000" points="79,-280 79,-350 149,-350 149,-280 79,-280"/>
<text text-anchor="middle" x="114" y="-338" font-family="Helvetica,sans-Serif" font-size="10.00" fill="#000000">components</text>
</a>
</g>
</g>
<!-- dir_74b77db838fca204c81ae8864cd83d58 -->
<g id="node1" class="node">
<title>dir_74b77db838fca204c81ae8864cd83d58</title>
<g id="a_node1"><a xlink:href="dir_74b77db838fca204c81ae8864cd83d58.html" target="_top" xlink:title="include">
<polygon fill="#eeeeff" stroke="#000000" points="141,-324 87,-324 87,-288 141,-288 141,-324"/>
<text text-anchor="middle" x="114" y="-303" font-family="Helvetica,sans-Serif" font-size="10.00" fill="#000000">include</text>
</a>
</g>
</g>
<!-- dir_68267d1309a1af8e8297ef4c3efbcdba -->
<g id="node2" class="node">
<title>dir_68267d1309a1af8e8297ef4c3efbcdba</title>
<g id="a_node2"><a xlink:href="dir_68267d1309a1af8e8297ef4c3efbcdba.html" target="_top" xlink:title="src">
<polygon fill="#ffffff" stroke="#ff0000" points="110,-252 56,-252 56,-216 110,-216 110,-252"/>
<text text-anchor="middle" x="83" y="-231" font-family="Helvetica,sans-Serif" font-size="10.00" fill="#000000">src</text>
</a>
</g>
</g>
<!-- dir_74b77db838fca204c81ae8864cd83d58&#45;&gt;dir_68267d1309a1af8e8297ef4c3efbcdba -->
<g id="edge5" class="edge">
<title>dir_74b77db838fca204c81ae8864cd83d58&#45;&gt;dir_68267d1309a1af8e8297ef4c3efbcdba</title>
<path fill="none" stroke="#000000" d="M106.1774,-287.8314C102.7891,-279.9617 98.7459,-270.5712 94.9924,-261.8533"/>
<polygon fill="#000000" stroke="#000000" points="98.0973,-260.214 90.9279,-252.4133 91.6679,-262.9822 98.0973,-260.214"/>
<g id="a_edge5&#45;headlabel"><a xlink:href="dir_000014_000020.html" target="_top" xlink:title="16">
<text text-anchor="middle" x="102.1266" y="-259.3928" font-family="Helvetica,sans-Serif" font-size="10.00" fill="#000000">16</text>
</a>
</g>
</g>
<!-- dir_23ec12649285f9fabf3a6b7380226c28 -->
<g id="node3" class="node">
<title>dir_23ec12649285f9fabf3a6b7380226c28</title>
<g id="a_node3"><a xlink:href="dir_23ec12649285f9fabf3a6b7380226c28.html" target="_top" xlink:title="util">
<polygon fill="#ffffff" stroke="#ff0000" points="54,-36 0,-36 0,0 54,0 54,-36"/>
<text text-anchor="middle" x="27" y="-15" font-family="Helvetica,sans-Serif" font-size="10.00" fill="#000000">util</text>
</a>
</g>
</g>
<!-- dir_74b77db838fca204c81ae8864cd83d58&#45;&gt;dir_23ec12649285f9fabf3a6b7380226c28 -->
<g id="edge6" class="edge">
<title>dir_74b77db838fca204c81ae8864cd83d58&#45;&gt;dir_23ec12649285f9fabf3a6b7380226c28</title>
<path fill="none" stroke="#000000" d="M86.8947,-291.444C72.4689,-282.1719 55.91,-268.7511 47,-252 11.459,-185.1815 16.9431,-92.2382 22.6448,-46.1837"/>
<polygon fill="#000000" stroke="#000000" points="26.1437,-46.4245 23.9993,-36.049 19.2054,-45.4972 26.1437,-46.4245"/>
<g id="a_edge6&#45;headlabel"><a xlink:href="dir_000014_000028.html" target="_top" xlink:title="9">
<text text-anchor="middle" x="28.4819" y="-47.3635" font-family="Helvetica,sans-Serif" font-size="10.00" fill="#000000">9</text>
</a>
</g>
</g>
<!-- dir_25b35af5d6fe939e26498b93aa0ed469 -->
<g id="node4" class="node">
<title>dir_25b35af5d6fe939e26498b93aa0ed469</title>
<g id="a_node4"><a xlink:href="dir_25b35af5d6fe939e26498b93aa0ed469.html" target="_top" xlink:title="app_events">
<polygon fill="#ffffff" stroke="#ff0000" points="187.7096,-180 120.2904,-180 120.2904,-144 187.7096,-144 187.7096,-180"/>
<text text-anchor="middle" x="154" y="-159" font-family="Helvetica,sans-Serif" font-size="10.00" fill="#000000">app_events</text>
</a>
</g>
</g>
<!-- dir_74b77db838fca204c81ae8864cd83d58&#45;&gt;dir_25b35af5d6fe939e26498b93aa0ed469 -->
<g id="edge7" class="edge">
<title>dir_74b77db838fca204c81ae8864cd83d58&#45;&gt;dir_25b35af5d6fe939e26498b93aa0ed469</title>
<path fill="none" stroke="#000000" d="M119.066,-287.7623C125.9187,-263.0928 138.2056,-218.8598 146.2297,-189.9731"/>
<polygon fill="#000000" stroke="#000000" points="149.6709,-190.6616 148.9751,-180.0896 142.9263,-188.788 149.6709,-190.6616"/>
<g id="a_edge7&#45;headlabel"><a xlink:href="dir_000014_000000.html" target="_top" xlink:title="1">
<text text-anchor="middle" x="151.4446" y="-191.8849" font-family="Helvetica,sans-Serif" font-size="10.00" fill="#000000">1</text>
</a>
</g>
</g>
<!-- dir_7d604191edc08013a26f918aa8ef79ad -->
<g id="node5" class="node">
<title>dir_7d604191edc08013a26f918aa8ef79ad</title>
<g id="a_node5"><a xlink:href="dir_7d604191edc08013a26f918aa8ef79ad.html" target="_top" xlink:title="events">
<polygon fill="#ffffff" stroke="#ff0000" points="118,-108 64,-108 64,-72 118,-72 118,-108"/>
<text text-anchor="middle" x="91" y="-87" font-family="Helvetica,sans-Serif" font-size="10.00" fill="#000000">events</text>
</a>
</g>
</g>
<!-- dir_74b77db838fca204c81ae8864cd83d58&#45;&gt;dir_7d604191edc08013a26f918aa8ef79ad -->
<g id="edge8" class="edge">
<title>dir_74b77db838fca204c81ae8864cd83d58&#45;&gt;dir_7d604191edc08013a26f918aa8ef79ad</title>
<path fill="none" stroke="#000000" d="M135.8401,-287.774C169.6704,-257.2637 227.7962,-194.2508 197,-144 182.0136,-119.5464 152.0953,-105.7329 127.8544,-98.2116"/>
<polygon fill="#000000" stroke="#000000" points="128.7892,-94.8387 118.212,-95.4497 126.8617,-101.5681 128.7892,-94.8387"/>
<g id="a_edge8&#45;headlabel"><a xlink:href="dir_000014_000016.html" target="_top" xlink:title="16">
<text text-anchor="middle" x="133.0267" y="-90.0989" font-family="Helvetica,sans-Serif" font-size="10.00" fill="#000000">16</text>
</a>
</g>
</g>
<!-- dir_68267d1309a1af8e8297ef4c3efbcdba&#45;&gt;dir_23ec12649285f9fabf3a6b7380226c28 -->
<g id="edge1" class="edge">
<title>dir_68267d1309a1af8e8297ef4c3efbcdba&#45;&gt;dir_23ec12649285f9fabf3a6b7380226c28</title>
<path fill="none" stroke="#000000" d="M74.3759,-215.9555C61.1586,-178.3144 38.3107,-91.1867 29.5677,-46.1246"/>
<polygon fill="#000000" stroke="#000000" points="32.9853,-45.3556 27.7491,-36.1451 26.0987,-46.6106 32.9853,-45.3556"/>
<g id="a_edge1&#45;headlabel"><a xlink:href="dir_000020_000028.html" target="_top" xlink:title="4">
<text text-anchor="middle" x="36.4229" y="-45.383" font-family="Helvetica,sans-Serif" font-size="10.00" fill="#000000">4</text>
</a>
</g>
</g>
<!-- dir_68267d1309a1af8e8297ef4c3efbcdba&#45;&gt;dir_25b35af5d6fe939e26498b93aa0ed469 -->
<g id="edge2" class="edge">
<title>dir_68267d1309a1af8e8297ef4c3efbcdba&#45;&gt;dir_25b35af5d6fe939e26498b93aa0ed469</title>
<path fill="none" stroke="#000000" d="M94.9639,-215.8314C102.6931,-207.1337 112.9299,-196.5783 122.7539,-187.1265"/>
<polygon fill="#000000" stroke="#000000" points="125.264,-189.5702 130.1376,-180.1628 120.4612,-184.4778 125.264,-189.5702"/>
<g id="a_edge2&#45;headlabel"><a xlink:href="dir_000020_000000.html" target="_top" xlink:title="4">
<text text-anchor="middle" x="124.5971" y="-191.1021" font-family="Helvetica,sans-Serif" font-size="10.00" fill="#000000">4</text>
</a>
</g>
</g>
<!-- dir_68267d1309a1af8e8297ef4c3efbcdba&#45;&gt;dir_7d604191edc08013a26f918aa8ef79ad -->
<g id="edge3" class="edge">
<title>dir_68267d1309a1af8e8297ef4c3efbcdba&#45;&gt;dir_7d604191edc08013a26f918aa8ef79ad</title>
<path fill="none" stroke="#000000" d="M79.34,-215.7623C78.2447,-191.201 80.4119,-147.2474 83.9274,-118.3541"/>
<polygon fill="#000000" stroke="#000000" points="87.4438,-118.4728 85.3367,-108.0896 80.5089,-117.5205 87.4438,-118.4728"/>
<g id="a_edge3&#45;headlabel"><a xlink:href="dir_000020_000016.html" target="_top" xlink:title="4">
<text text-anchor="middle" x="89.7678" y="-119.4202" font-family="Helvetica,sans-Serif" font-size="10.00" fill="#000000">4</text>
</a>
</g>
</g>
<!-- dir_23ec12649285f9fabf3a6b7380226c28&#45;&gt;dir_68267d1309a1af8e8297ef4c3efbcdba -->
<g id="edge4" class="edge">
<title>dir_23ec12649285f9fabf3a6b7380226c28&#45;&gt;dir_68267d1309a1af8e8297ef4c3efbcdba</title>
<path fill="none" stroke="#000000" d="M35.6594,-36.1451C48.8938,-73.8741 71.7377,-161.0083 80.4556,-205.9956"/>
<polygon fill="#000000" stroke="#000000" points="77.0341,-206.7435 82.2677,-215.9555 83.9211,-205.4905 77.0341,-206.7435"/>
<g id="a_edge4&#45;headlabel"><a xlink:href="dir_000028_000020.html" target="_top" xlink:title="4">
<text text-anchor="middle" x="73.5974" y="-200.7152" font-family="Helvetica,sans-Serif" font-size="10.00" fill="#000000">4</text>
</a>
</g>
</g>
<!-- dir_25b35af5d6fe939e26498b93aa0ed469&#45;&gt;dir_68267d1309a1af8e8297ef4c3efbcdba -->
<g id="edge9" class="edge">
<title>dir_25b35af5d6fe939e26498b93aa0ed469&#45;&gt;dir_68267d1309a1af8e8297ef4c3efbcdba</title>
<path fill="none" stroke="#000000" d="M141.8185,-180.4133C134.102,-189.0787 123.9429,-199.5464 114.1953,-208.9223"/>
<polygon fill="#000000" stroke="#000000" points="111.7428,-206.4242 106.8687,-215.8314 116.5453,-211.517 111.7428,-206.4242"/>
<g id="a_edge9&#45;headlabel"><a xlink:href="dir_000000_000020.html" target="_top" xlink:title="5">
<text text-anchor="middle" x="112.4101" y="-198.8925" font-family="Helvetica,sans-Serif" font-size="10.00" fill="#000000">5</text>
</a>
</g>
</g>
<!-- dir_25b35af5d6fe939e26498b93aa0ed469&#45;&gt;dir_23ec12649285f9fabf3a6b7380226c28 -->
<g id="edge10" class="edge">
<title>dir_25b35af5d6fe939e26498b93aa0ed469&#45;&gt;dir_23ec12649285f9fabf3a6b7380226c28</title>
<path fill="none" stroke="#000000" d="M152.6345,-143.8792C150.3018,-124.2245 143.9993,-92.8691 127,-72 110.6829,-51.9683 84.8946,-38.3008 63.5934,-29.7279"/>
<polygon fill="#000000" stroke="#000000" points="64.7633,-26.4283 54.1723,-26.143 62.2737,-32.9707 64.7633,-26.4283"/>
<g id="a_edge10&#45;headlabel"><a xlink:href="dir_000000_000028.html" target="_top" xlink:title="2">
<text text-anchor="middle" x="69.1326" y="-22.053" font-family="Helvetica,sans-Serif" font-size="10.00" fill="#000000">2</text>
</a>
</g>
</g>
<!-- dir_25b35af5d6fe939e26498b93aa0ed469&#45;&gt;dir_7d604191edc08013a26f918aa8ef79ad -->
<g id="edge11" class="edge">
<title>dir_25b35af5d6fe939e26498b93aa0ed469&#45;&gt;dir_7d604191edc08013a26f918aa8ef79ad</title>
<path fill="none" stroke="#000000" d="M138.1024,-143.8314C130.7722,-135.454 121.934,-125.3531 113.9031,-116.1749"/>
<polygon fill="#000000" stroke="#000000" points="116.3307,-113.6343 107.1116,-108.4133 111.0627,-118.2438 116.3307,-113.6343"/>
<g id="a_edge11&#45;headlabel"><a xlink:href="dir_000000_000016.html" target="_top" xlink:title="2">
<text text-anchor="middle" x="120.8345" y="-111.4698" font-family="Helvetica,sans-Serif" font-size="10.00" fill="#000000">2</text>
</a>
</g>
</g>
<!-- dir_7d604191edc08013a26f918aa8ef79ad&#45;&gt;dir_68267d1309a1af8e8297ef4c3efbcdba -->
<g id="edge12" class="edge">
<title>dir_7d604191edc08013a26f918aa8ef79ad&#45;&gt;dir_68267d1309a1af8e8297ef4c3efbcdba</title>
<path fill="none" stroke="#000000" d="M94.6533,-108.0896C95.7666,-132.6805 93.5848,-176.905 90.0474,-205.8531"/>
<polygon fill="#000000" stroke="#000000" points="86.5797,-205.379 88.6864,-215.7623 93.5146,-206.3316 86.5797,-205.379"/>
<g id="a_edge12&#45;headlabel"><a xlink:href="dir_000016_000020.html" target="_top" xlink:title="5">
<text text-anchor="middle" x="84.2559" y="-198.4315" font-family="Helvetica,sans-Serif" font-size="10.00" fill="#000000">5</text>
</a>
</g>
</g>
<!-- dir_7d604191edc08013a26f918aa8ef79ad&#45;&gt;dir_23ec12649285f9fabf3a6b7380226c28 -->
<g id="edge13" class="edge">
<title>dir_7d604191edc08013a26f918aa8ef79ad&#45;&gt;dir_23ec12649285f9fabf3a6b7380226c28</title>
<path fill="none" stroke="#000000" d="M74.8501,-71.8314C67.3283,-63.3694 58.2435,-53.1489 50.0196,-43.8971"/>
<polygon fill="#000000" stroke="#000000" points="52.627,-41.5621 43.3673,-36.4133 47.3951,-46.2127 52.627,-41.5621"/>
<g id="a_edge13&#45;headlabel"><a xlink:href="dir_000016_000028.html" target="_top" xlink:title="2">
<text text-anchor="middle" x="57.1372" y="-39.3624" font-family="Helvetica,sans-Serif" font-size="10.00" fill="#000000">2</text>
</a>
</g>
</g>
</g>
</svg>
