<?xml version="1.0" encoding="UTF-8" standalone="no"?>
<!DOCTYPE svg PUBLIC "-//W3C//DTD SVG 1.1//EN"
 "http://www.w3.org/Graphics/SVG/1.1/DTD/svg11.dtd">
<!-- Generated by graphviz version 2.40.1 (20161225.0304)
 -->
<!-- Title: util Pages: 1 -->
<svg width="94pt" height="204pt"
 viewBox="0.00 0.00 94.00 204.00" xmlns="http://www.w3.org/2000/svg" xmlns:xlink="http://www.w3.org/1999/xlink">
<g id="graph0" class="graph" transform="scale(1 1) rotate(0) translate(4 200)">
<title>util</title>
<polygon fill="#ffffff" stroke="transparent" points="-4,4 -4,-200 90,-200 90,4 -4,4"/>
<g id="clust1" class="cluster">
<title>clusterdir_23ec12649285f9fabf3a6b7380226c28</title>
<g id="a_clust1"><a xlink:href="dir_23ec12649285f9fabf3a6b7380226c28.html" target="_top">
<polygon fill="#eeeeff" stroke="#000000" points="8,-64 8,-188 78,-188 78,-64 8,-64"/>
</a>
</g>
</g>
<!-- dir_23ec12649285f9fabf3a6b7380226c28 -->
<g id="node1" class="node">
<title>dir_23ec12649285f9fabf3a6b7380226c28</title>
<text text-anchor="middle" x="43" y="-159" font-family="Helvetica,sans-Serif" font-size="10.00" fill="#000000">util</text>
</g>
<!-- dir_03a6cfce30b88f6a84e388fa6a89390f -->
<g id="node2" class="node">
<title>dir_03a6cfce30b88f6a84e388fa6a89390f</title>
<g id="a_node2"><a xlink:href="dir_03a6cfce30b88f6a84e388fa6a89390f.html" target="_top" xlink:title="include">
<polygon fill="#ffffff" stroke="#000000" points="70,-108 16,-108 16,-72 70,-72 70,-108"/>
<text text-anchor="middle" x="43" y="-87" font-family="Helvetica,sans-Serif" font-size="10.00" fill="#000000">include</text>
</a>
</g>
</g>
<!-- dir_23ec12649285f9fabf3a6b7380226c28&#45;&gt;dir_03a6cfce30b88f6a84e388fa6a89390f -->
<g id="edge2" class="edge">
<title>dir_23ec12649285f9fabf3a6b7380226c28&#45;&gt;dir_03a6cfce30b88f6a84e388fa6a89390f</title>
<path fill="none" stroke="#000000" d="M43,-143.8314C43,-136.131 43,-126.9743 43,-118.4166"/>
<polygon fill="#000000" stroke="#000000" points="46.5001,-118.4132 43,-108.4133 39.5001,-118.4133 46.5001,-118.4132"/>
<g id="a_edge2&#45;headlabel"><a xlink:href="dir_000026_000027.html" target="_top" xlink:title="6">
<text text-anchor="middle" x="49.3393" y="-119.0079" font-family="Helvetica,sans-Serif" font-size="10.00" fill="#000000">6</text>
</a>
</g>
</g>
<!-- dir_68267d1309a1af8e8297ef4c3efbcdba -->
<g id="node3" class="node">
<title>dir_68267d1309a1af8e8297ef4c3efbcdba</title>
<g id="a_node3"><a xlink:href="dir_68267d1309a1af8e8297ef4c3efbcdba.html" target="_top" xlink:title="src">
<polygon fill="#ffffff" stroke="#ff0000" points="70,-36 16,-36 16,0 70,0 70,-36"/>
<text text-anchor="middle" x="43" y="-15" font-family="Helvetica,sans-Serif" font-size="10.00" fill="#000000">src</text>
</a>
</g>
</g>
<!-- dir_03a6cfce30b88f6a84e388fa6a89390f&#45;&gt;dir_68267d1309a1af8e8297ef4c3efbcdba -->
<g id="edge3" class="edge">
<title>dir_03a6cfce30b88f6a84e388fa6a89390f&#45;&gt;dir_68267d1309a1af8e8297ef4c3efbcdba</title>
<path fill="none" stroke="#000000" d="M37.0476,-71.8314C36.2972,-64.131 36.0763,-54.9743 36.3849,-46.4166"/>
<polygon fill="#000000" stroke="#000000" points="39.8792,-46.6161 37.024,-36.4133 32.8935,-46.1697 39.8792,-46.6161"/>
<g id="a_edge3&#45;headlabel"><a xlink:href="dir_000027_000023.html" target="_top" xlink:title="6">
<text text-anchor="middle" x="42.4836" y="-47.3844" font-family="Helvetica,sans-Serif" font-size="10.00" fill="#000000">6</text>
</a>
</g>
</g>
<!-- dir_68267d1309a1af8e8297ef4c3efbcdba&#45;&gt;dir_03a6cfce30b88f6a84e388fa6a89390f -->
<g id="edge1" class="edge">
<title>dir_68267d1309a1af8e8297ef4c3efbcdba&#45;&gt;dir_03a6cfce30b88f6a84e388fa6a89390f</title>
<path fill="none" stroke="#000000" d="M48.976,-36.4133C49.7071,-44.0593 49.9203,-53.1084 49.6155,-61.5726"/>
<polygon fill="#000000" stroke="#000000" points="46.1048,-61.6264 48.9524,-71.8314 53.0902,-62.078 46.1048,-61.6264"/>
<g id="a_edge1&#45;headlabel"><a xlink:href="dir_000023_000027.html" target="_top" xlink:title="8">
<text text-anchor="middle" x="43.5032" y="-54.8562" font-family="Helvetica,sans-Serif" font-size="10.00" fill="#000000">8</text>
</a>
</g>
</g>
</g>
</svg>
