<?xml version="1.0" encoding="UTF-8" standalone="no"?>
<!DOCTYPE svg PUBLIC "-//W3C//DTD SVG 1.1//EN"
 "http://www.w3.org/Graphics/SVG/1.1/DTD/svg11.dtd">
<!-- Generated by graphviz version 2.40.1 (20161225.0304)
 -->
<!-- Title: ext_comps/shim/include Pages: 1 -->
<svg width="162pt" height="222pt"
 viewBox="0.00 0.00 162.01 222.00" xmlns="http://www.w3.org/2000/svg" xmlns:xlink="http://www.w3.org/1999/xlink">
<g id="graph0" class="graph" transform="scale(1 1) rotate(0) translate(4 218)">
<title>ext_comps/shim/include</title>
<polygon fill="#ffffff" stroke="transparent" points="-4,4 -4,-218 158.0122,-218 158.0122,4 -4,4"/>
<g id="clust1" class="cluster">
<title>clusterdir_6c4861834e4980f643fd42e1bccda41f</title>
<g id="a_clust1"><a xlink:href="dir_6c4861834e4980f643fd42e1bccda41f.html" target="_top" xlink:title="shim">
<polygon fill="#ddddee" stroke="#000000" points="8,-136 8,-206 78,-206 78,-136 8,-136"/>
<text text-anchor="middle" x="43" y="-194" font-family="Helvetica,sans-Serif" font-size="10.00" fill="#000000">shim</text>
</a>
</g>
</g>
<!-- dir_74dfbba08cf6ef0a71c77669f06dfb6d -->
<g id="node1" class="node">
<title>dir_74dfbba08cf6ef0a71c77669f06dfb6d</title>
<g id="a_node1"><a xlink:href="dir_74dfbba08cf6ef0a71c77669f06dfb6d.html" target="_top" xlink:title="include">
<polygon fill="#eeeeff" stroke="#000000" points="70,-180 16,-180 16,-144 70,-144 70,-180"/>
<text text-anchor="middle" x="43" y="-159" font-family="Helvetica,sans-Serif" font-size="10.00" fill="#000000">include</text>
</a>
</g>
</g>
<!-- dir_23ec12649285f9fabf3a6b7380226c28 -->
<g id="node2" class="node">
<title>dir_23ec12649285f9fabf3a6b7380226c28</title>
<g id="a_node2"><a xlink:href="dir_23ec12649285f9fabf3a6b7380226c28.html" target="_top" xlink:title="util">
<polygon fill="#ffffff" stroke="#ff0000" points="81,-36 27,-36 27,0 81,0 81,-36"/>
<text text-anchor="middle" x="54" y="-15" font-family="Helvetica,sans-Serif" font-size="10.00" fill="#000000">util</text>
</a>
</g>
</g>
<!-- dir_74dfbba08cf6ef0a71c77669f06dfb6d&#45;&gt;dir_23ec12649285f9fabf3a6b7380226c28 -->
<g id="edge2" class="edge">
<title>dir_74dfbba08cf6ef0a71c77669f06dfb6d&#45;&gt;dir_23ec12649285f9fabf3a6b7380226c28</title>
<path fill="none" stroke="#000000" d="M27.0095,-143.9169C19.3462,-134.0371 10.9834,-121.1563 7,-108 2.3635,-92.6865 1.3921,-86.985 7,-72 10.8954,-61.5911 17.8041,-51.8652 25.1456,-43.6152"/>
<polygon fill="#000000" stroke="#000000" points="27.8643,-45.8358 32.2328,-36.1835 22.7986,-41.0048 27.8643,-45.8358"/>
<g id="a_edge2&#45;headlabel"><a xlink:href="dir_000022_000026.html" target="_top" xlink:title="9">
<text text-anchor="middle" x="27.4383" y="-47.3966" font-family="Helvetica,sans-Serif" font-size="10.00" fill="#000000">9</text>
</a>
</g>
</g>
<!-- dir_2ebfa31ad3219d1ad0a75b1e329dc997 -->
<g id="node3" class="node">
<title>dir_2ebfa31ad3219d1ad0a75b1e329dc997</title>
<g id="a_node3"><a xlink:href="dir_2ebfa31ad3219d1ad0a75b1e329dc997.html" target="_top" xlink:title="libcli">
<polygon fill="none" stroke="#000000" points="70,-108 16,-108 16,-72 70,-72 70,-108"/>
<text text-anchor="middle" x="43" y="-87" font-family="Helvetica,sans-Serif" font-size="10.00" fill="#000000">libcli</text>
</a>
</g>
</g>
<!-- dir_74dfbba08cf6ef0a71c77669f06dfb6d&#45;&gt;dir_2ebfa31ad3219d1ad0a75b1e329dc997 -->
<g id="edge3" class="edge">
<title>dir_74dfbba08cf6ef0a71c77669f06dfb6d&#45;&gt;dir_2ebfa31ad3219d1ad0a75b1e329dc997</title>
<path fill="none" stroke="#000000" d="M43,-143.8314C43,-136.131 43,-126.9743 43,-118.4166"/>
<polygon fill="#000000" stroke="#000000" points="46.5001,-118.4132 43,-108.4133 39.5001,-118.4133 46.5001,-118.4132"/>
<g id="a_edge3&#45;headlabel"><a xlink:href="dir_000022_000025.html" target="_top" xlink:title="1">
<text text-anchor="middle" x="49.3393" y="-119.0079" font-family="Helvetica,sans-Serif" font-size="10.00" fill="#000000">1</text>
</a>
</g>
</g>
<!-- dir_e58e4659d14cfa13982aff34da34673d -->
<g id="node4" class="node">
<title>dir_e58e4659d14cfa13982aff34da34673d</title>
<g id="a_node4"><a xlink:href="dir_e58e4659d14cfa13982aff34da34673d.html" target="_top" xlink:title="topo_mgmt">
<polygon fill="#ffffff" stroke="#ff0000" points="154.0244,-108 87.9756,-108 87.9756,-72 154.0244,-72 154.0244,-108"/>
<text text-anchor="middle" x="121" y="-87" font-family="Helvetica,sans-Serif" font-size="10.00" fill="#000000">topo_mgmt</text>
</a>
</g>
</g>
<!-- dir_74dfbba08cf6ef0a71c77669f06dfb6d&#45;&gt;dir_e58e4659d14cfa13982aff34da34673d -->
<g id="edge4" class="edge">
<title>dir_74dfbba08cf6ef0a71c77669f06dfb6d&#45;&gt;dir_e58e4659d14cfa13982aff34da34673d</title>
<path fill="none" stroke="#000000" d="M62.6827,-143.8314C72.1051,-135.1337 83.5401,-124.5783 93.7796,-115.1265"/>
<polygon fill="#000000" stroke="#000000" points="96.3495,-117.5175 101.3236,-108.1628 91.6016,-112.3738 96.3495,-117.5175"/>
<g id="a_edge4&#45;headlabel"><a xlink:href="dir_000022_000016.html" target="_top" xlink:title="1">
<text text-anchor="middle" x="95.634" y="-119.0419" font-family="Helvetica,sans-Serif" font-size="10.00" fill="#000000">1</text>
</a>
</g>
</g>
<!-- dir_e58e4659d14cfa13982aff34da34673d&#45;&gt;dir_23ec12649285f9fabf3a6b7380226c28 -->
<g id="edge1" class="edge">
<title>dir_e58e4659d14cfa13982aff34da34673d&#45;&gt;dir_23ec12649285f9fabf3a6b7380226c28</title>
<path fill="none" stroke="#000000" d="M104.0931,-71.8314C96.2187,-63.3694 86.708,-53.1489 78.0987,-43.8971"/>
<polygon fill="#000000" stroke="#000000" points="80.5092,-41.3497 71.1346,-36.4133 75.3847,-46.1183 80.5092,-41.3497"/>
<g id="a_edge1&#45;headlabel"><a xlink:href="dir_000016_000026.html" target="_top" xlink:title="1">
<text text-anchor="middle" x="85.0364" y="-39.047" font-family="Helvetica,sans-Serif" font-size="10.00" fill="#000000">1</text>
</a>
</g>
</g>
</g>
</svg>
