<?xml version="1.0" encoding="UTF-8" standalone="no"?>
<!DOCTYPE svg PUBLIC "-//W3C//DTD SVG 1.1//EN"
 "http://www.w3.org/Graphics/SVG/1.1/DTD/svg11.dtd">
<!-- Generated by graphviz version 2.40.1 (20161225.0304)
 -->
<!-- Title: ext_apps/shim/include Pages: 1 -->
<svg width="113pt" height="222pt"
 viewBox="0.00 0.00 113.46 222.00" xmlns="http://www.w3.org/2000/svg" xmlns:xlink="http://www.w3.org/1999/xlink">
<g id="graph0" class="graph" transform="scale(1 1) rotate(0) translate(4 218)">
<title>ext_apps/shim/include</title>
<polygon fill="#ffffff" stroke="transparent" points="-4,4 -4,-218 109.458,-218 109.458,4 -4,4"/>
<g id="clust1" class="cluster">
<title>clusterdir_ddf0054a38fb57287aea25b7b6b8abd0</title>
<g id="a_clust1"><a xlink:href="dir_ddf0054a38fb57287aea25b7b6b8abd0.html" target="_top" xlink:title="shim">
<polygon fill="#ddddee" stroke="#000000" points="8,-136 8,-206 78,-206 78,-136 8,-136"/>
<text text-anchor="middle" x="43" y="-194" font-family="Helvetica,sans-Serif" font-size="10.00" fill="#000000">shim</text>
</a>
</g>
</g>
<!-- dir_16793c05e3522f9e206b4b7a39610266 -->
<g id="node1" class="node">
<title>dir_16793c05e3522f9e206b4b7a39610266</title>
<g id="a_node1"><a xlink:href="dir_16793c05e3522f9e206b4b7a39610266.html" target="_top" xlink:title="include">
<polygon fill="#eeeeff" stroke="#000000" points="70,-180 16,-180 16,-144 70,-144 70,-180"/>
<text text-anchor="middle" x="43" y="-159" font-family="Helvetica,sans-Serif" font-size="10.00" fill="#000000">include</text>
</a>
</g>
</g>
<!-- dir_23ec12649285f9fabf3a6b7380226c28 -->
<g id="node2" class="node">
<title>dir_23ec12649285f9fabf3a6b7380226c28</title>
<g id="a_node2"><a xlink:href="dir_23ec12649285f9fabf3a6b7380226c28.html" target="_top" xlink:title="util">
<polygon fill="#ffffff" stroke="#ff0000" points="70,-36 16,-36 16,0 70,0 70,-36"/>
<text text-anchor="middle" x="43" y="-15" font-family="Helvetica,sans-Serif" font-size="10.00" fill="#000000">util</text>
</a>
</g>
</g>
<!-- dir_16793c05e3522f9e206b4b7a39610266&#45;&gt;dir_23ec12649285f9fabf3a6b7380226c28 -->
<g id="edge2" class="edge">
<title>dir_16793c05e3522f9e206b4b7a39610266&#45;&gt;dir_23ec12649285f9fabf3a6b7380226c28</title>
<path fill="none" stroke="#000000" d="M38.3066,-143.6463C35.8929,-133.2631 33.2092,-119.9943 32,-108 30.3951,-92.0807 30.3951,-87.9193 32,-72 32.8502,-63.5665 34.4294,-54.5029 36.1311,-46.2554"/>
<polygon fill="#000000" stroke="#000000" points="39.5791,-46.8719 38.3066,-36.3537 32.7422,-45.3697 39.5791,-46.8719"/>
<g id="a_edge2&#45;headlabel"><a xlink:href="dir_000004_000028.html" target="_top" xlink:title="5">
<text text-anchor="middle" x="41.5809" y="-47.992" font-family="Helvetica,sans-Serif" font-size="10.00" fill="#000000">5</text>
</a>
</g>
</g>
<!-- dir_2598932614e4229b9624aa17324a3575 -->
<g id="node3" class="node">
<title>dir_2598932614e4229b9624aa17324a3575</title>
<g id="a_node3"><a xlink:href="dir_2598932614e4229b9624aa17324a3575.html" target="_top" xlink:title="l2_shortest">
<polygon fill="#ffffff" stroke="#ff0000" points="105.4161,-108 40.5839,-108 40.5839,-72 105.4161,-72 105.4161,-108"/>
<text text-anchor="middle" x="73" y="-87" font-family="Helvetica,sans-Serif" font-size="10.00" fill="#000000">l2_shortest</text>
</a>
</g>
</g>
<!-- dir_16793c05e3522f9e206b4b7a39610266&#45;&gt;dir_2598932614e4229b9624aa17324a3575 -->
<g id="edge3" class="edge">
<title>dir_16793c05e3522f9e206b4b7a39610266&#45;&gt;dir_2598932614e4229b9624aa17324a3575</title>
<path fill="none" stroke="#000000" d="M50.5703,-143.8314C53.8493,-135.9617 57.762,-126.5712 61.3945,-117.8533"/>
<polygon fill="#000000" stroke="#000000" points="64.7124,-118.9902 65.3278,-108.4133 58.2508,-116.2979 64.7124,-118.9902"/>
<g id="a_edge3&#45;headlabel"><a xlink:href="dir_000004_000007.html" target="_top" xlink:title="1">
<text text-anchor="middle" x="65.9507" y="-120.4003" font-family="Helvetica,sans-Serif" font-size="10.00" fill="#000000">1</text>
</a>
</g>
</g>
<!-- dir_2598932614e4229b9624aa17324a3575&#45;&gt;dir_23ec12649285f9fabf3a6b7380226c28 -->
<g id="edge1" class="edge">
<title>dir_2598932614e4229b9624aa17324a3575&#45;&gt;dir_23ec12649285f9fabf3a6b7380226c28</title>
<path fill="none" stroke="#000000" d="M65.4297,-71.8314C62.1507,-63.9617 58.238,-54.5712 54.6055,-45.8533"/>
<polygon fill="#000000" stroke="#000000" points="57.7492,-44.2979 50.6722,-36.4133 51.2876,-46.9902 57.7492,-44.2979"/>
<g id="a_edge1&#45;headlabel"><a xlink:href="dir_000007_000028.html" target="_top" xlink:title="1">
<text text-anchor="middle" x="61.7525" y="-43.524" font-family="Helvetica,sans-Serif" font-size="10.00" fill="#000000">1</text>
</a>
</g>
</g>
</g>
</svg>
