<?xml version="1.0" encoding="UTF-8" standalone="no"?>
<!DOCTYPE svg PUBLIC "-//W3C//DTD SVG 1.1//EN"
 "http://www.w3.org/Graphics/SVG/1.1/DTD/svg11.dtd">
<!-- Generated by graphviz version 2.40.1 (20161225.0304)
 -->
<!-- Title: ext_comps/shim Pages: 1 -->
<svg width="199pt" height="374pt"
 viewBox="0.00 0.00 199.00 374.00" xmlns="http://www.w3.org/2000/svg" xmlns:xlink="http://www.w3.org/1999/xlink">
<g id="graph0" class="graph" transform="scale(1 1) rotate(0) translate(4 370)">
<title>ext_comps/shim</title>
<polygon fill="#ffffff" stroke="transparent" points="-4,4 -4,-370 195,-370 195,4 -4,4"/>
<g id="clust1" class="cluster">
<title>clusterdir_d7c209a246552ade0a12df4403b93cd5</title>
<g id="a_clust1"><a xlink:href="dir_d7c209a246552ade0a12df4403b93cd5.html" target="_top" xlink:title="ext_comps">
<polygon fill="#ddddee" stroke="#000000" points="25,-272 25,-358 183,-358 183,-272 25,-272"/>
<text text-anchor="middle" x="104" y="-346" font-family="Helvetica,sans-Serif" font-size="10.00" fill="#000000">ext_comps</text>
</a>
</g>
</g>
<g id="clust2" class="cluster">
<title>clusterdir_6c4861834e4980f643fd42e1bccda41f</title>
<g id="a_clust2"><a xlink:href="dir_6c4861834e4980f643fd42e1bccda41f.html" target="_top">
<polygon fill="#eeeeff" stroke="#000000" points="33,-280 33,-332 175,-332 175,-280 33,-280"/>
</a>
</g>
</g>
<!-- dir_6c4861834e4980f643fd42e1bccda41f -->
<g id="node1" class="node">
<title>dir_6c4861834e4980f643fd42e1bccda41f</title>
<text text-anchor="middle" x="68" y="-303" font-family="Helvetica,sans-Serif" font-size="10.00" fill="#000000">shim</text>
</g>
<!-- dir_68267d1309a1af8e8297ef4c3efbcdba -->
<g id="node3" class="node">
<title>dir_68267d1309a1af8e8297ef4c3efbcdba</title>
<g id="a_node3"><a xlink:href="dir_68267d1309a1af8e8297ef4c3efbcdba.html" target="_top" xlink:title="src">
<polygon fill="#ffffff" stroke="#ff0000" points="54,-180 0,-180 0,-144 54,-144 54,-180"/>
<text text-anchor="middle" x="27" y="-159" font-family="Helvetica,sans-Serif" font-size="10.00" fill="#000000">src</text>
</a>
</g>
</g>
<!-- dir_6c4861834e4980f643fd42e1bccda41f&#45;&gt;dir_68267d1309a1af8e8297ef4c3efbcdba -->
<g id="edge4" class="edge">
<title>dir_6c4861834e4980f643fd42e1bccda41f&#45;&gt;dir_68267d1309a1af8e8297ef4c3efbcdba</title>
<path fill="none" stroke="#000000" d="M62.8073,-287.7623C55.7834,-263.0928 43.1892,-218.8598 34.9646,-189.9731"/>
<polygon fill="#000000" stroke="#000000" points="38.2552,-188.7489 32.1505,-180.0896 31.5228,-190.6658 38.2552,-188.7489"/>
<g id="a_edge4&#45;headlabel"><a xlink:href="dir_000017_000020.html" target="_top" xlink:title="2">
<text text-anchor="middle" x="41.9702" y="-188.4286" font-family="Helvetica,sans-Serif" font-size="10.00" fill="#000000">2</text>
</a>
</g>
</g>
<!-- dir_7d604191edc08013a26f918aa8ef79ad -->
<g id="node6" class="node">
<title>dir_7d604191edc08013a26f918aa8ef79ad</title>
<g id="a_node6"><a xlink:href="dir_7d604191edc08013a26f918aa8ef79ad.html" target="_top" xlink:title="events">
<polygon fill="#ffffff" stroke="#ff0000" points="118,-108 64,-108 64,-72 118,-72 118,-108"/>
<text text-anchor="middle" x="91" y="-87" font-family="Helvetica,sans-Serif" font-size="10.00" fill="#000000">events</text>
</a>
</g>
</g>
<!-- dir_6c4861834e4980f643fd42e1bccda41f&#45;&gt;dir_7d604191edc08013a26f918aa8ef79ad -->
<g id="edge5" class="edge">
<title>dir_6c4861834e4980f643fd42e1bccda41f&#45;&gt;dir_7d604191edc08013a26f918aa8ef79ad</title>
<path fill="none" stroke="#000000" d="M69.9214,-287.9555C73.9295,-250.3144 83.207,-163.1867 88.0053,-118.1246"/>
<polygon fill="#000000" stroke="#000000" points="91.4893,-118.4595 89.0679,-108.1451 84.5286,-117.7182 91.4893,-118.4595"/>
<g id="a_edge5&#45;headlabel"><a xlink:href="dir_000017_000016.html" target="_top" xlink:title="3">
<text text-anchor="middle" x="93.9321" y="-119.3345" font-family="Helvetica,sans-Serif" font-size="10.00" fill="#000000">3</text>
</a>
</g>
</g>
<!-- dir_74dfbba08cf6ef0a71c77669f06dfb6d -->
<g id="node2" class="node">
<title>dir_74dfbba08cf6ef0a71c77669f06dfb6d</title>
<g id="a_node2"><a xlink:href="dir_74dfbba08cf6ef0a71c77669f06dfb6d.html" target="_top" xlink:title="include">
<polygon fill="#ffffff" stroke="#000000" points="167,-324 113,-324 113,-288 167,-288 167,-324"/>
<text text-anchor="middle" x="140" y="-303" font-family="Helvetica,sans-Serif" font-size="10.00" fill="#000000">include</text>
</a>
</g>
</g>
<!-- dir_23ec12649285f9fabf3a6b7380226c28 -->
<g id="node4" class="node">
<title>dir_23ec12649285f9fabf3a6b7380226c28</title>
<g id="a_node4"><a xlink:href="dir_23ec12649285f9fabf3a6b7380226c28.html" target="_top" xlink:title="util">
<polygon fill="#ffffff" stroke="#ff0000" points="86,-36 32,-36 32,0 86,0 86,-36"/>
<text text-anchor="middle" x="59" y="-15" font-family="Helvetica,sans-Serif" font-size="10.00" fill="#000000">util</text>
</a>
</g>
</g>
<!-- dir_74dfbba08cf6ef0a71c77669f06dfb6d&#45;&gt;dir_23ec12649285f9fabf3a6b7380226c28 -->
<g id="edge10" class="edge">
<title>dir_74dfbba08cf6ef0a71c77669f06dfb6d&#45;&gt;dir_23ec12649285f9fabf3a6b7380226c28</title>
<path fill="none" stroke="#000000" d="M152.1817,-287.882C158.2315,-277.7891 164.8978,-264.7221 168,-252 183.3503,-189.0486 131.7934,-79.1822 127,-72 118.6496,-59.4884 106.4781,-48.5264 94.7327,-39.8067"/>
<polygon fill="#000000" stroke="#000000" points="96.504,-36.7728 86.3163,-33.8637 92.4662,-42.491 96.504,-36.7728"/>
<g id="a_edge10&#45;headlabel"><a xlink:href="dir_000019_000028.html" target="_top" xlink:title="6">
<text text-anchor="middle" x="101.078" y="-33.5269" font-family="Helvetica,sans-Serif" font-size="10.00" fill="#000000">6</text>
</a>
</g>
</g>
<!-- dir_90773cd7cea9981a02d706a4ae4d09c1 -->
<g id="node5" class="node">
<title>dir_90773cd7cea9981a02d706a4ae4d09c1</title>
<g id="a_node5"><a xlink:href="dir_90773cd7cea9981a02d706a4ae4d09c1.html" target="_top" xlink:title="conflict">
<polygon fill="#ffffff" stroke="#ff0000" points="159,-252 105,-252 105,-216 159,-216 159,-252"/>
<text text-anchor="middle" x="132" y="-231" font-family="Helvetica,sans-Serif" font-size="10.00" fill="#000000">conflict</text>
</a>
</g>
</g>
<!-- dir_74dfbba08cf6ef0a71c77669f06dfb6d&#45;&gt;dir_90773cd7cea9981a02d706a4ae4d09c1 -->
<g id="edge11" class="edge">
<title>dir_74dfbba08cf6ef0a71c77669f06dfb6d&#45;&gt;dir_90773cd7cea9981a02d706a4ae4d09c1</title>
<path fill="none" stroke="#000000" d="M137.9813,-287.8314C137.1257,-280.131 136.1083,-270.9743 135.1574,-262.4166"/>
<polygon fill="#000000" stroke="#000000" points="138.6289,-261.9656 134.0459,-252.4133 131.6717,-262.7386 138.6289,-261.9656"/>
<g id="a_edge11&#45;headlabel"><a xlink:href="dir_000019_000012.html" target="_top" xlink:title="1">
<text text-anchor="middle" x="141.8477" y="-262.2247" font-family="Helvetica,sans-Serif" font-size="10.00" fill="#000000">1</text>
</a>
</g>
</g>
<!-- dir_68267d1309a1af8e8297ef4c3efbcdba&#45;&gt;dir_23ec12649285f9fabf3a6b7380226c28 -->
<g id="edge1" class="edge">
<title>dir_68267d1309a1af8e8297ef4c3efbcdba&#45;&gt;dir_23ec12649285f9fabf3a6b7380226c28</title>
<path fill="none" stroke="#000000" d="M26.3797,-143.7623C29.3911,-119.0928 38.9544,-74.8598 47.3117,-45.9731"/>
<polygon fill="#000000" stroke="#000000" points="50.7564,-46.6755 50.3218,-36.0896 44.0601,-44.6361 50.7564,-46.6755"/>
<g id="a_edge1&#45;headlabel"><a xlink:href="dir_000020_000028.html" target="_top" xlink:title="6">
<text text-anchor="middle" x="52.4253" y="-47.9414" font-family="Helvetica,sans-Serif" font-size="10.00" fill="#000000">6</text>
</a>
</g>
</g>
<!-- dir_68267d1309a1af8e8297ef4c3efbcdba&#45;&gt;dir_7d604191edc08013a26f918aa8ef79ad -->
<g id="edge2" class="edge">
<title>dir_68267d1309a1af8e8297ef4c3efbcdba&#45;&gt;dir_7d604191edc08013a26f918aa8ef79ad</title>
<path fill="none" stroke="#000000" d="M37.1975,-143.8314C43.8946,-135.3694 52.7943,-125.1489 61.4724,-115.8971"/>
<polygon fill="#000000" stroke="#000000" points="64.2563,-118.0511 68.6566,-108.4133 59.2065,-113.2034 64.2563,-118.0511"/>
<g id="a_edge2&#45;headlabel"><a xlink:href="dir_000020_000016.html" target="_top" xlink:title="4">
<text text-anchor="middle" x="63.8152" y="-119.6105" font-family="Helvetica,sans-Serif" font-size="10.00" fill="#000000">4</text>
</a>
</g>
</g>
<!-- dir_23ec12649285f9fabf3a6b7380226c28&#45;&gt;dir_68267d1309a1af8e8297ef4c3efbcdba -->
<g id="edge3" class="edge">
<title>dir_23ec12649285f9fabf3a6b7380226c28&#45;&gt;dir_68267d1309a1af8e8297ef4c3efbcdba</title>
<path fill="none" stroke="#000000" d="M59.6384,-36.0896C56.6532,-60.6805 47.1007,-104.905 38.7385,-133.8531"/>
<polygon fill="#000000" stroke="#000000" points="35.2861,-133.1766 35.726,-143.7623 41.9834,-135.2127 35.2861,-133.1766"/>
<g id="a_edge3&#45;headlabel"><a xlink:href="dir_000028_000020.html" target="_top" xlink:title="5">
<text text-anchor="middle" x="33.6151" y="-125.9116" font-family="Helvetica,sans-Serif" font-size="10.00" fill="#000000">5</text>
</a>
</g>
</g>
<!-- dir_90773cd7cea9981a02d706a4ae4d09c1&#45;&gt;dir_68267d1309a1af8e8297ef4c3efbcdba -->
<g id="edge6" class="edge">
<title>dir_90773cd7cea9981a02d706a4ae4d09c1&#45;&gt;dir_68267d1309a1af8e8297ef4c3efbcdba</title>
<path fill="none" stroke="#000000" d="M105.5041,-215.8314C92.3226,-206.7927 76.2153,-195.7476 62.0289,-186.0198"/>
<polygon fill="#000000" stroke="#000000" points="63.7141,-182.9316 53.4875,-180.1628 59.7554,-188.7047 63.7141,-182.9316"/>
<g id="a_edge6&#45;headlabel"><a xlink:href="dir_000012_000020.html" target="_top" xlink:title="1">
<text text-anchor="middle" x="68.2844" y="-179.6228" font-family="Helvetica,sans-Serif" font-size="10.00" fill="#000000">1</text>
</a>
</g>
</g>
<!-- dir_90773cd7cea9981a02d706a4ae4d09c1&#45;&gt;dir_7d604191edc08013a26f918aa8ef79ad -->
<g id="edge7" class="edge">
<title>dir_90773cd7cea9981a02d706a4ae4d09c1&#45;&gt;dir_7d604191edc08013a26f918aa8ef79ad</title>
<path fill="none" stroke="#000000" d="M126.8073,-215.7623C119.7834,-191.0928 107.1892,-146.8598 98.9646,-117.9731"/>
<polygon fill="#000000" stroke="#000000" points="102.2552,-116.7489 96.1505,-108.0896 95.5228,-118.6658 102.2552,-116.7489"/>
<g id="a_edge7&#45;headlabel"><a xlink:href="dir_000012_000016.html" target="_top" xlink:title="1">
<text text-anchor="middle" x="105.9702" y="-116.4286" font-family="Helvetica,sans-Serif" font-size="10.00" fill="#000000">1</text>
</a>
</g>
</g>
<!-- dir_7d604191edc08013a26f918aa8ef79ad&#45;&gt;dir_68267d1309a1af8e8297ef4c3efbcdba -->
<g id="edge8" class="edge">
<title>dir_7d604191edc08013a26f918aa8ef79ad&#45;&gt;dir_68267d1309a1af8e8297ef4c3efbcdba</title>
<path fill="none" stroke="#000000" d="M80.6087,-108.4133C73.8694,-116.9088 64.9509,-127.1366 56.2773,-136.3696"/>
<polygon fill="#000000" stroke="#000000" points="53.5106,-134.1972 49.1023,-143.8314 58.5564,-139.049 53.5106,-134.1972"/>
<g id="a_edge8&#45;headlabel"><a xlink:href="dir_000016_000020.html" target="_top" xlink:title="5">
<text text-anchor="middle" x="53.9555" y="-126.6382" font-family="Helvetica,sans-Serif" font-size="10.00" fill="#000000">5</text>
</a>
</g>
</g>
<!-- dir_7d604191edc08013a26f918aa8ef79ad&#45;&gt;dir_23ec12649285f9fabf3a6b7380226c28 -->
<g id="edge9" class="edge">
<title>dir_7d604191edc08013a26f918aa8ef79ad&#45;&gt;dir_23ec12649285f9fabf3a6b7380226c28</title>
<path fill="none" stroke="#000000" d="M82.925,-71.8314C79.3898,-63.8771 75.164,-54.369 71.2544,-45.5723"/>
<polygon fill="#000000" stroke="#000000" points="74.4435,-44.1299 67.1837,-36.4133 68.0468,-46.9729 74.4435,-44.1299"/>
<g id="a_edge9&#45;headlabel"><a xlink:href="dir_000016_000028.html" target="_top" xlink:title="2">
<text text-anchor="middle" x="78.4979" y="-43.2616" font-family="Helvetica,sans-Serif" font-size="10.00" fill="#000000">2</text>
</a>
</g>
</g>
</g>
</svg>
