<?xml version="1.0" encoding="UTF-8" standalone="no"?>
<!DOCTYPE svg PUBLIC "-//W3C//DTD SVG 1.1//EN"
 "http://www.w3.org/Graphics/SVG/1.1/DTD/svg11.dtd">
<!-- Generated by graphviz version 2.40.1 (20161225.0304)
 -->
<!-- Title: ext_apps Pages: 1 -->
<svg width="172pt" height="348pt"
 viewBox="0.00 0.00 171.85 348.00" xmlns="http://www.w3.org/2000/svg" xmlns:xlink="http://www.w3.org/1999/xlink">
<g id="graph0" class="graph" transform="scale(1 1) rotate(0) translate(4 344)">
<title>ext_apps</title>
<polygon fill="#ffffff" stroke="transparent" points="-4,4 -4,-344 167.8545,-344 167.8545,4 -4,4"/>
<g id="clust1" class="cluster">
<title>clusterdir_5080acda003337cdd5d82dfb43391e70</title>
<g id="a_clust1"><a xlink:href="dir_5080acda003337cdd5d82dfb43391e70.html" target="_top">
<polygon fill="#eeeeff" stroke="#000000" points="8,-208 8,-332 152,-332 152,-208 8,-208"/>
</a>
</g>
</g>
<!-- dir_5080acda003337cdd5d82dfb43391e70 -->
<g id="node1" class="node">
<title>dir_5080acda003337cdd5d82dfb43391e70</title>
<text text-anchor="middle" x="116" y="-303" font-family="Helvetica,sans-Serif" font-size="10.00" fill="#000000">ext_apps</text>
</g>
<!-- dir_2598932614e4229b9624aa17324a3575 -->
<g id="node2" class="node">
<title>dir_2598932614e4229b9624aa17324a3575</title>
<g id="a_node2"><a xlink:href="dir_2598932614e4229b9624aa17324a3575.html" target="_top" xlink:title="l2_shortest">
<polygon fill="#ffffff" stroke="#ff0000" points="80.4161,-252 15.5839,-252 15.5839,-216 80.4161,-216 80.4161,-252"/>
<text text-anchor="middle" x="48" y="-231" font-family="Helvetica,sans-Serif" font-size="10.00" fill="#000000">l2_shortest</text>
</a>
</g>
</g>
<!-- dir_68267d1309a1af8e8297ef4c3efbcdba -->
<g id="node4" class="node">
<title>dir_68267d1309a1af8e8297ef4c3efbcdba</title>
<g id="a_node4"><a xlink:href="dir_68267d1309a1af8e8297ef4c3efbcdba.html" target="_top" xlink:title="src">
<polygon fill="#ffffff" stroke="#ff0000" points="94,-180 40,-180 40,-144 94,-144 94,-180"/>
<text text-anchor="middle" x="67" y="-159" font-family="Helvetica,sans-Serif" font-size="10.00" fill="#000000">src</text>
</a>
</g>
</g>
<!-- dir_2598932614e4229b9624aa17324a3575&#45;&gt;dir_68267d1309a1af8e8297ef4c3efbcdba -->
<g id="edge10" class="edge">
<title>dir_2598932614e4229b9624aa17324a3575&#45;&gt;dir_68267d1309a1af8e8297ef4c3efbcdba</title>
<path fill="none" stroke="#000000" d="M52.7945,-215.8314C54.8489,-208.0463 57.296,-198.7729 59.5756,-190.1347"/>
<polygon fill="#000000" stroke="#000000" points="62.9735,-190.9753 62.1409,-180.4133 56.2052,-189.1892 62.9735,-190.9753"/>
<g id="a_edge10&#45;headlabel"><a xlink:href="dir_000007_000020.html" target="_top" xlink:title="1">
<text text-anchor="middle" x="64.8017" y="-192.1754" font-family="Helvetica,sans-Serif" font-size="10.00" fill="#000000">1</text>
</a>
</g>
</g>
<!-- dir_23ec12649285f9fabf3a6b7380226c28 -->
<g id="node5" class="node">
<title>dir_23ec12649285f9fabf3a6b7380226c28</title>
<g id="a_node5"><a xlink:href="dir_23ec12649285f9fabf3a6b7380226c28.html" target="_top" xlink:title="util">
<polygon fill="#ffffff" stroke="#ff0000" points="86,-36 32,-36 32,0 86,0 86,-36"/>
<text text-anchor="middle" x="59" y="-15" font-family="Helvetica,sans-Serif" font-size="10.00" fill="#000000">util</text>
</a>
</g>
</g>
<!-- dir_2598932614e4229b9624aa17324a3575&#45;&gt;dir_23ec12649285f9fabf3a6b7380226c28 -->
<g id="edge11" class="edge">
<title>dir_2598932614e4229b9624aa17324a3575&#45;&gt;dir_23ec12649285f9fabf3a6b7380226c28</title>
<path fill="none" stroke="#000000" d="M40.7561,-215.8366C37.0288,-205.513 32.8812,-192.2403 31,-180 23.7623,-132.9067 37.8698,-78.3464 48.5623,-46.082"/>
<polygon fill="#000000" stroke="#000000" points="51.94,-47.0224 51.8825,-36.4277 45.3205,-44.7458 51.94,-47.0224"/>
<g id="a_edge11&#45;headlabel"><a xlink:href="dir_000007_000028.html" target="_top" xlink:title="2">
<text text-anchor="middle" x="53.456" y="-48.3449" font-family="Helvetica,sans-Serif" font-size="10.00" fill="#000000">2</text>
</a>
</g>
</g>
<!-- dir_25b35af5d6fe939e26498b93aa0ed469 -->
<g id="node6" class="node">
<title>dir_25b35af5d6fe939e26498b93aa0ed469</title>
<g id="a_node6"><a xlink:href="dir_25b35af5d6fe939e26498b93aa0ed469.html" target="_top" xlink:title="app_events">
<polygon fill="#ffffff" stroke="#ff0000" points="163.7096,-108 96.2904,-108 96.2904,-72 163.7096,-72 163.7096,-108"/>
<text text-anchor="middle" x="130" y="-87" font-family="Helvetica,sans-Serif" font-size="10.00" fill="#000000">app_events</text>
</a>
</g>
</g>
<!-- dir_2598932614e4229b9624aa17324a3575&#45;&gt;dir_25b35af5d6fe939e26498b93aa0ed469 -->
<g id="edge12" class="edge">
<title>dir_2598932614e4229b9624aa17324a3575&#45;&gt;dir_25b35af5d6fe939e26498b93aa0ed469</title>
<path fill="none" stroke="#000000" d="M71.3261,-215.8706C82.3088,-206.2604 94.7717,-193.6335 103,-180 114.4684,-160.998 121.3729,-136.7729 125.3254,-118.2437"/>
<polygon fill="#000000" stroke="#000000" points="128.7775,-118.8282 127.2757,-108.3404 121.9094,-117.4756 128.7775,-118.8282"/>
<g id="a_edge12&#45;headlabel"><a xlink:href="dir_000007_000000.html" target="_top" xlink:title="1">
<text text-anchor="middle" x="130.8687" y="-119.9037" font-family="Helvetica,sans-Serif" font-size="10.00" fill="#000000">1</text>
</a>
</g>
</g>
<!-- dir_ddf0054a38fb57287aea25b7b6b8abd0 -->
<g id="node3" class="node">
<title>dir_ddf0054a38fb57287aea25b7b6b8abd0</title>
<g id="a_node3"><a xlink:href="dir_ddf0054a38fb57287aea25b7b6b8abd0.html" target="_top" xlink:title="shim">
<polygon fill="#ffffff" stroke="#ff0000" points="70,-324 16,-324 16,-288 70,-288 70,-324"/>
<text text-anchor="middle" x="43" y="-303" font-family="Helvetica,sans-Serif" font-size="10.00" fill="#000000">shim</text>
</a>
</g>
</g>
<!-- dir_ddf0054a38fb57287aea25b7b6b8abd0&#45;&gt;dir_2598932614e4229b9624aa17324a3575 -->
<g id="edge9" class="edge">
<title>dir_ddf0054a38fb57287aea25b7b6b8abd0&#45;&gt;dir_2598932614e4229b9624aa17324a3575</title>
<path fill="none" stroke="#000000" d="M44.2617,-287.8314C44.7965,-280.131 45.4323,-270.9743 46.0266,-262.4166"/>
<polygon fill="#000000" stroke="#000000" points="49.52,-262.6317 46.7213,-252.4133 42.5368,-262.1467 49.52,-262.6317"/>
<g id="a_edge9&#45;headlabel"><a xlink:href="dir_000002_000007.html" target="_top" xlink:title="2">
<text text-anchor="middle" x="52.1035" y="-263.4144" font-family="Helvetica,sans-Serif" font-size="10.00" fill="#000000">2</text>
</a>
</g>
</g>
<!-- dir_ddf0054a38fb57287aea25b7b6b8abd0&#45;&gt;dir_68267d1309a1af8e8297ef4c3efbcdba -->
<g id="edge6" class="edge">
<title>dir_ddf0054a38fb57287aea25b7b6b8abd0&#45;&gt;dir_68267d1309a1af8e8297ef4c3efbcdba</title>
<path fill="none" stroke="#000000" d="M64.3127,-287.7308C73.8134,-278.1756 83.979,-265.6372 89,-252 95.7567,-233.6488 93.3258,-227.0711 89,-208 87.5607,-201.6546 85.1344,-195.161 82.4064,-189.1274"/>
<polygon fill="#000000" stroke="#000000" points="85.5257,-187.539 77.9699,-180.1119 79.245,-190.6298 85.5257,-187.539"/>
<g id="a_edge6&#45;headlabel"><a xlink:href="dir_000002_000020.html" target="_top" xlink:title="2">
<text text-anchor="middle" x="89.6603" y="-186.5106" font-family="Helvetica,sans-Serif" font-size="10.00" fill="#000000">2</text>
</a>
</g>
</g>
<!-- dir_ddf0054a38fb57287aea25b7b6b8abd0&#45;&gt;dir_23ec12649285f9fabf3a6b7380226c28 -->
<g id="edge7" class="edge">
<title>dir_ddf0054a38fb57287aea25b7b6b8abd0&#45;&gt;dir_23ec12649285f9fabf3a6b7380226c28</title>
<path fill="none" stroke="#000000" d="M27.0095,-287.9169C19.3462,-278.0371 10.9834,-265.1563 7,-252 1.3331,-233.2835 5.3638,-227.487 7,-208 12.1291,-146.9122 10.1246,-129.9913 30,-72 33.1083,-62.9307 37.6206,-53.5567 42.1637,-45.2159"/>
<polygon fill="#000000" stroke="#000000" points="45.3283,-46.7313 47.2328,-36.309 39.2446,-43.2689 45.3283,-46.7313"/>
<g id="a_edge7&#45;headlabel"><a xlink:href="dir_000002_000028.html" target="_top" xlink:title="4">
<text text-anchor="middle" x="46.018" y="-48.2598" font-family="Helvetica,sans-Serif" font-size="10.00" fill="#000000">4</text>
</a>
</g>
</g>
<!-- dir_ddf0054a38fb57287aea25b7b6b8abd0&#45;&gt;dir_25b35af5d6fe939e26498b93aa0ed469 -->
<g id="edge8" class="edge">
<title>dir_ddf0054a38fb57287aea25b7b6b8abd0&#45;&gt;dir_25b35af5d6fe939e26498b93aa0ed469</title>
<path fill="none" stroke="#000000" d="M70.1886,-288.0731C82.4755,-278.6824 96.1836,-266.184 105,-252 130.6208,-210.7807 133.2003,-152.585 132.0674,-118.3248"/>
<polygon fill="#000000" stroke="#000000" points="135.5526,-117.9216 131.5937,-108.0943 128.5601,-118.2455 135.5526,-117.9216"/>
<g id="a_edge8&#45;headlabel"><a xlink:href="dir_000002_000000.html" target="_top" xlink:title="2">
<text text-anchor="middle" x="138.555" y="-118.3811" font-family="Helvetica,sans-Serif" font-size="10.00" fill="#000000">2</text>
</a>
</g>
</g>
<!-- dir_68267d1309a1af8e8297ef4c3efbcdba&#45;&gt;dir_23ec12649285f9fabf3a6b7380226c28 -->
<g id="edge1" class="edge">
<title>dir_68267d1309a1af8e8297ef4c3efbcdba&#45;&gt;dir_23ec12649285f9fabf3a6b7380226c28</title>
<path fill="none" stroke="#000000" d="M61.3136,-143.7623C57.4893,-119.201 54.7727,-75.2474 55.0778,-46.3541"/>
<polygon fill="#000000" stroke="#000000" points="58.5835,-46.1779 55.3467,-36.0896 51.5859,-45.9945 58.5835,-46.1779"/>
<g id="a_edge1&#45;headlabel"><a xlink:href="dir_000020_000028.html" target="_top" xlink:title="4">
<text text-anchor="middle" x="61.3278" y="-46.8456" font-family="Helvetica,sans-Serif" font-size="10.00" fill="#000000">4</text>
</a>
</g>
</g>
<!-- dir_68267d1309a1af8e8297ef4c3efbcdba&#45;&gt;dir_25b35af5d6fe939e26498b93aa0ed469 -->
<g id="edge2" class="edge">
<title>dir_68267d1309a1af8e8297ef4c3efbcdba&#45;&gt;dir_25b35af5d6fe939e26498b93aa0ed469</title>
<path fill="none" stroke="#000000" d="M76.9452,-143.8314C83.5248,-135.3694 92.2825,-125.1489 100.8321,-115.8971"/>
<polygon fill="#000000" stroke="#000000" points="103.5823,-118.0829 107.9124,-108.4133 98.4974,-113.2721 103.5823,-118.0829"/>
<g id="a_edge2&#45;headlabel"><a xlink:href="dir_000020_000000.html" target="_top" xlink:title="4">
<text text-anchor="middle" x="103.1744" y="-119.6453" font-family="Helvetica,sans-Serif" font-size="10.00" fill="#000000">4</text>
</a>
</g>
</g>
<!-- dir_23ec12649285f9fabf3a6b7380226c28&#45;&gt;dir_68267d1309a1af8e8297ef4c3efbcdba -->
<g id="edge3" class="edge">
<title>dir_23ec12649285f9fabf3a6b7380226c28&#45;&gt;dir_68267d1309a1af8e8297ef4c3efbcdba</title>
<path fill="none" stroke="#000000" d="M64.6633,-36.0896C68.492,-60.5727 71.217,-104.5174 70.924,-133.4713"/>
<polygon fill="#000000" stroke="#000000" points="67.4177,-133.6758 70.66,-143.7623 74.4154,-133.8554 67.4177,-133.6758"/>
<g id="a_edge3&#45;headlabel"><a xlink:href="dir_000028_000020.html" target="_top" xlink:title="4">
<text text-anchor="middle" x="64.6715" y="-127.0096" font-family="Helvetica,sans-Serif" font-size="10.00" fill="#000000">4</text>
</a>
</g>
</g>
<!-- dir_25b35af5d6fe939e26498b93aa0ed469&#45;&gt;dir_68267d1309a1af8e8297ef4c3efbcdba -->
<g id="edge4" class="edge">
<title>dir_25b35af5d6fe939e26498b93aa0ed469&#45;&gt;dir_68267d1309a1af8e8297ef4c3efbcdba</title>
<path fill="none" stroke="#000000" d="M119.8644,-108.4133C113.2431,-116.9088 104.4667,-127.1366 95.9213,-136.3696"/>
<polygon fill="#000000" stroke="#000000" points="93.1882,-134.1654 88.85,-143.8314 98.2691,-138.9805 93.1882,-134.1654"/>
<g id="a_edge4&#45;headlabel"><a xlink:href="dir_000000_000020.html" target="_top" xlink:title="5">
<text text-anchor="middle" x="93.5999" y="-126.6033" font-family="Helvetica,sans-Serif" font-size="10.00" fill="#000000">5</text>
</a>
</g>
</g>
<!-- dir_25b35af5d6fe939e26498b93aa0ed469&#45;&gt;dir_23ec12649285f9fabf3a6b7380226c28 -->
<g id="edge5" class="edge">
<title>dir_25b35af5d6fe939e26498b93aa0ed469&#45;&gt;dir_23ec12649285f9fabf3a6b7380226c28</title>
<path fill="none" stroke="#000000" d="M112.0837,-71.8314C103.6558,-63.2848 93.459,-52.9443 84.264,-43.6198"/>
<polygon fill="#000000" stroke="#000000" points="86.6711,-41.0761 77.1575,-36.4133 81.6869,-45.9912 86.6711,-41.0761"/>
<g id="a_edge5&#45;headlabel"><a xlink:href="dir_000000_000028.html" target="_top" xlink:title="2">
<text text-anchor="middle" x="91.2167" y="-38.642" font-family="Helvetica,sans-Serif" font-size="10.00" fill="#000000">2</text>
</a>
</g>
</g>
</g>
</svg>
