<?xml version="1.0" encoding="UTF-8" standalone="no"?>
<!DOCTYPE svg PUBLIC "-//W3C//DTD SVG 1.1//EN"
 "http://www.w3.org/Graphics/SVG/1.1/DTD/svg11.dtd">
<!-- Generated by graphviz version 2.40.1 (20161225.0304)
 -->
<!-- Title: ext_comps/conflict/src Pages: 1 -->
<svg width="186pt" height="230pt"
 viewBox="0.00 0.00 186.00 230.00" xmlns="http://www.w3.org/2000/svg" xmlns:xlink="http://www.w3.org/1999/xlink">
<g id="graph0" class="graph" transform="scale(1 1) rotate(0) translate(4 226)">
<title>ext_comps/conflict/src</title>
<polygon fill="#ffffff" stroke="transparent" points="-4,4 -4,-226 182,-226 182,4 -4,4"/>
<g id="clust1" class="cluster">
<title>clusterdir_90773cd7cea9981a02d706a4ae4d09c1</title>
<g id="a_clust1"><a xlink:href="dir_90773cd7cea9981a02d706a4ae4d09c1.html" target="_top" xlink:title="conflict">
<polygon fill="#ddddee" stroke="#000000" points="12,-128 12,-214 170,-214 170,-128 12,-128"/>
<text text-anchor="middle" x="91" y="-202" font-family="Helvetica,sans-Serif" font-size="10.00" fill="#000000">conflict</text>
</a>
</g>
</g>
<g id="clust2" class="cluster">
<title>clusterdir_2c2cd8d81774f74cbdcd2ccdbe2293d7</title>
<g id="a_clust2"><a xlink:href="dir_2c2cd8d81774f74cbdcd2ccdbe2293d7.html" target="_top">
<polygon fill="#eeeeff" stroke="#000000" points="20,-136 20,-188 162,-188 162,-136 20,-136"/>
</a>
</g>
</g>
<!-- dir_2c2cd8d81774f74cbdcd2ccdbe2293d7 -->
<g id="node1" class="node">
<title>dir_2c2cd8d81774f74cbdcd2ccdbe2293d7</title>
<text text-anchor="middle" x="127" y="-159" font-family="Helvetica,sans-Serif" font-size="10.00" fill="#000000">src</text>
</g>
<!-- dir_7292ca50d7ba108003280f31cd1ee4a4 -->
<g id="node2" class="node">
<title>dir_7292ca50d7ba108003280f31cd1ee4a4</title>
<g id="a_node2"><a xlink:href="dir_7292ca50d7ba108003280f31cd1ee4a4.html" target="_top" xlink:title="include">
<polygon fill="#ffffff" stroke="#000000" points="82,-180 28,-180 28,-144 82,-144 82,-180"/>
<text text-anchor="middle" x="55" y="-159" font-family="Helvetica,sans-Serif" font-size="10.00" fill="#000000">include</text>
</a>
</g>
</g>
<!-- dir_68267d1309a1af8e8297ef4c3efbcdba -->
<g id="node3" class="node">
<title>dir_68267d1309a1af8e8297ef4c3efbcdba</title>
<g id="a_node3"><a xlink:href="dir_68267d1309a1af8e8297ef4c3efbcdba.html" target="_top" xlink:title="src">
<polygon fill="#ffffff" stroke="#ff0000" points="54,-108 0,-108 0,-72 54,-72 54,-108"/>
<text text-anchor="middle" x="27" y="-87" font-family="Helvetica,sans-Serif" font-size="10.00" fill="#000000">src</text>
</a>
</g>
</g>
<!-- dir_7292ca50d7ba108003280f31cd1ee4a4&#45;&gt;dir_68267d1309a1af8e8297ef4c3efbcdba -->
<g id="edge2" class="edge">
<title>dir_7292ca50d7ba108003280f31cd1ee4a4&#45;&gt;dir_68267d1309a1af8e8297ef4c3efbcdba</title>
<path fill="none" stroke="#000000" d="M47.9344,-143.8314C44.874,-135.9617 41.2221,-126.5712 37.8318,-117.8533"/>
<polygon fill="#000000" stroke="#000000" points="41.0473,-116.4647 34.1607,-108.4133 34.5232,-119.0019 41.0473,-116.4647"/>
<g id="a_edge2&#45;headlabel"><a xlink:href="dir_000015_000020.html" target="_top" xlink:title="1">
<text text-anchor="middle" x="44.9963" y="-115.7859" font-family="Helvetica,sans-Serif" font-size="10.00" fill="#000000">1</text>
</a>
</g>
</g>
<!-- dir_7d604191edc08013a26f918aa8ef79ad -->
<g id="node4" class="node">
<title>dir_7d604191edc08013a26f918aa8ef79ad</title>
<g id="a_node4"><a xlink:href="dir_7d604191edc08013a26f918aa8ef79ad.html" target="_top" xlink:title="events">
<polygon fill="#ffffff" stroke="#ff0000" points="54,-36 0,-36 0,0 54,0 54,-36"/>
<text text-anchor="middle" x="27" y="-15" font-family="Helvetica,sans-Serif" font-size="10.00" fill="#000000">events</text>
</a>
</g>
</g>
<!-- dir_7292ca50d7ba108003280f31cd1ee4a4&#45;&gt;dir_7d604191edc08013a26f918aa8ef79ad -->
<g id="edge3" class="edge">
<title>dir_7292ca50d7ba108003280f31cd1ee4a4&#45;&gt;dir_7d604191edc08013a26f918aa8ef79ad</title>
<path fill="none" stroke="#000000" d="M60.5996,-143.6576C65.3299,-125.1725 70.2732,-96.0216 63,-72 60.0436,-62.2355 54.6748,-52.6229 48.97,-44.2762"/>
<polygon fill="#000000" stroke="#000000" points="51.7129,-42.0973 42.9905,-36.0831 46.0586,-46.2239 51.7129,-42.0973"/>
<g id="a_edge3&#45;headlabel"><a xlink:href="dir_000015_000016.html" target="_top" xlink:title="1">
<text text-anchor="middle" x="56.1253" y="-40.327" font-family="Helvetica,sans-Serif" font-size="10.00" fill="#000000">1</text>
</a>
</g>
</g>
<!-- dir_68267d1309a1af8e8297ef4c3efbcdba&#45;&gt;dir_7d604191edc08013a26f918aa8ef79ad -->
<g id="edge1" class="edge">
<title>dir_68267d1309a1af8e8297ef4c3efbcdba&#45;&gt;dir_7d604191edc08013a26f918aa8ef79ad</title>
<path fill="none" stroke="#000000" d="M21.0476,-71.8314C20.2972,-64.131 20.0763,-54.9743 20.3849,-46.4166"/>
<polygon fill="#000000" stroke="#000000" points="23.8792,-46.6161 21.024,-36.4133 16.8935,-46.1697 23.8792,-46.6161"/>
<g id="a_edge1&#45;headlabel"><a xlink:href="dir_000020_000016.html" target="_top" xlink:title="4">
<text text-anchor="middle" x="26.4836" y="-47.3844" font-family="Helvetica,sans-Serif" font-size="10.00" fill="#000000">4</text>
</a>
</g>
</g>
<!-- dir_7d604191edc08013a26f918aa8ef79ad&#45;&gt;dir_68267d1309a1af8e8297ef4c3efbcdba -->
<g id="edge4" class="edge">
<title>dir_7d604191edc08013a26f918aa8ef79ad&#45;&gt;dir_68267d1309a1af8e8297ef4c3efbcdba</title>
<path fill="none" stroke="#000000" d="M32.976,-36.4133C33.7071,-44.0593 33.9203,-53.1084 33.6155,-61.5726"/>
<polygon fill="#000000" stroke="#000000" points="30.1048,-61.6264 32.9524,-71.8314 37.0902,-62.078 30.1048,-61.6264"/>
<g id="a_edge4&#45;headlabel"><a xlink:href="dir_000016_000020.html" target="_top" xlink:title="5">
<text text-anchor="middle" x="27.5032" y="-54.8562" font-family="Helvetica,sans-Serif" font-size="10.00" fill="#000000">5</text>
</a>
</g>
</g>
</g>
</svg>
