<?xml version="1.0" encoding="UTF-8" standalone="no"?>
<!DOCTYPE svg PUBLIC "-//W3C//DTD SVG 1.1//EN"
 "http://www.w3.org/Graphics/SVG/1.1/DTD/svg11.dtd">
<!-- Generated by graphviz version 2.40.1 (20161225.0304)
 -->
<!-- Title: ext_apps Pages: 1 -->
<svg width="365pt" height="276pt"
 viewBox="0.00 0.00 365.24 276.00" xmlns="http://www.w3.org/2000/svg" xmlns:xlink="http://www.w3.org/1999/xlink">
<g id="graph0" class="graph" transform="scale(1 1) rotate(0) translate(4 272)">
<title>ext_apps</title>
<polygon fill="#ffffff" stroke="transparent" points="-4,4 -4,-272 361.24,-272 361.24,4 -4,4"/>
<g id="clust1" class="cluster">
<title>clusterdir_5080acda003337cdd5d82dfb43391e70</title>
<g id="a_clust1"><a xlink:href="dir_5080acda003337cdd5d82dfb43391e70.html" target="_top">
<polygon fill="#eeeeff" stroke="#000000" points="50.24,-208 50.24,-260 349.24,-260 349.24,-208 50.24,-208"/>
</a>
</g>
</g>
<!-- dir_5080acda003337cdd5d82dfb43391e70 -->
<g id="node1" class="node">
<title>dir_5080acda003337cdd5d82dfb43391e70</title>
<text text-anchor="middle" x="313.24" y="-231" font-family="Helvetica,sans-Serif" font-size="10.00" fill="#000000">ext_apps</text>
</g>
<!-- dir_1bed0c6bb7f5280ca8efc79caf3a5455 -->
<g id="node2" class="node">
<title>dir_1bed0c6bb7f5280ca8efc79caf3a5455</title>
<g id="a_node2"><a xlink:href="dir_1bed0c6bb7f5280ca8efc79caf3a5455.html" target="_top" xlink:title="l2_learning">
<polygon fill="#ffffff" stroke="#ff0000" points="266.6658,-252 201.8141,-252 201.8141,-216 266.6658,-216 266.6658,-252"/>
<text text-anchor="middle" x="234.24" y="-231" font-family="Helvetica,sans-Serif" font-size="10.00" fill="#000000">l2_learning</text>
</a>
</g>
</g>
<!-- dir_68267d1309a1af8e8297ef4c3efbcdba -->
<g id="node5" class="node">
<title>dir_68267d1309a1af8e8297ef4c3efbcdba</title>
<g id="a_node5"><a xlink:href="dir_68267d1309a1af8e8297ef4c3efbcdba.html" target="_top" xlink:title="src">
<polygon fill="#ffffff" stroke="#ff0000" points="121.24,-180 67.24,-180 67.24,-144 121.24,-144 121.24,-180"/>
<text text-anchor="middle" x="94.24" y="-159" font-family="Helvetica,sans-Serif" font-size="10.00" fill="#000000">src</text>
</a>
</g>
</g>
<!-- dir_1bed0c6bb7f5280ca8efc79caf3a5455&#45;&gt;dir_68267d1309a1af8e8297ef4c3efbcdba -->
<g id="edge1" class="edge">
<title>dir_1bed0c6bb7f5280ca8efc79caf3a5455&#45;&gt;dir_68267d1309a1af8e8297ef4c3efbcdba</title>
<path fill="none" stroke="#000000" d="M206.7452,-215.8793C202.2878,-213.1412 197.6779,-210.4248 193.24,-208 173.0364,-196.9612 149.7152,-186.041 130.7843,-177.6123"/>
<polygon fill="#000000" stroke="#000000" points="132.1636,-174.3954 121.6013,-173.565 129.3404,-180.8008 132.1636,-174.3954"/>
<g id="a_edge1&#45;headlabel"><a xlink:href="dir_000007_000023.html" target="_top" xlink:title="1">
<text text-anchor="middle" x="136.5979" y="-170.2469" font-family="Helvetica,sans-Serif" font-size="10.00" fill="#000000">1</text>
</a>
</g>
</g>
<!-- dir_23ec12649285f9fabf3a6b7380226c28 -->
<g id="node6" class="node">
<title>dir_23ec12649285f9fabf3a6b7380226c28</title>
<g id="a_node6"><a xlink:href="dir_23ec12649285f9fabf3a6b7380226c28.html" target="_top" xlink:title="util">
<polygon fill="#ffffff" stroke="#ff0000" points="172.24,-36 118.24,-36 118.24,0 172.24,0 172.24,-36"/>
<text text-anchor="middle" x="145.24" y="-15" font-family="Helvetica,sans-Serif" font-size="10.00" fill="#000000">util</text>
</a>
</g>
</g>
<!-- dir_1bed0c6bb7f5280ca8efc79caf3a5455&#45;&gt;dir_23ec12649285f9fabf3a6b7380226c28 -->
<g id="edge2" class="edge">
<title>dir_1bed0c6bb7f5280ca8efc79caf3a5455&#45;&gt;dir_23ec12649285f9fabf3a6b7380226c28</title>
<path fill="none" stroke="#000000" d="M240.947,-215.9566C251.4845,-184.3399 268.1007,-117.9278 241.24,-72 228.5149,-50.2421 203.443,-36.574 182.1123,-28.4333"/>
<polygon fill="#000000" stroke="#000000" points="183.2276,-25.1153 172.6329,-25.0727 180.8886,-31.7129 183.2276,-25.1153"/>
<g id="a_edge2&#45;headlabel"><a xlink:href="dir_000007_000026.html" target="_top" xlink:title="2">
<text text-anchor="middle" x="187.5643" y="-20.6402" font-family="Helvetica,sans-Serif" font-size="10.00" fill="#000000">2</text>
</a>
</g>
</g>
<!-- dir_25b35af5d6fe939e26498b93aa0ed469 -->
<g id="node7" class="node">
<title>dir_25b35af5d6fe939e26498b93aa0ed469</title>
<g id="a_node7"><a xlink:href="dir_25b35af5d6fe939e26498b93aa0ed469.html" target="_top" xlink:title="app_events">
<polygon fill="#ffffff" stroke="#ff0000" points="214.9496,-108 147.5304,-108 147.5304,-72 214.9496,-72 214.9496,-108"/>
<text text-anchor="middle" x="181.24" y="-87" font-family="Helvetica,sans-Serif" font-size="10.00" fill="#000000">app_events</text>
</a>
</g>
</g>
<!-- dir_1bed0c6bb7f5280ca8efc79caf3a5455&#45;&gt;dir_25b35af5d6fe939e26498b93aa0ed469 -->
<g id="edge3" class="edge">
<title>dir_1bed0c6bb7f5280ca8efc79caf3a5455&#45;&gt;dir_25b35af5d6fe939e26498b93aa0ed469</title>
<path fill="none" stroke="#000000" d="M227.5275,-215.7623C218.4079,-190.9846 202.0246,-146.4714 191.396,-117.5939"/>
<polygon fill="#000000" stroke="#000000" points="194.6366,-116.2652 187.898,-108.0896 188.0675,-118.6831 194.6366,-116.2652"/>
<g id="a_edge3&#45;headlabel"><a xlink:href="dir_000007_000000.html" target="_top" xlink:title="1">
<text text-anchor="middle" x="198.5427" y="-115.6579" font-family="Helvetica,sans-Serif" font-size="10.00" fill="#000000">1</text>
</a>
</g>
</g>
<!-- dir_185afc8c919317820dfdc8dae01e990e -->
<g id="node3" class="node">
<title>dir_185afc8c919317820dfdc8dae01e990e</title>
<g id="a_node3"><a xlink:href="dir_185afc8c919317820dfdc8dae01e990e.html" target="_top" xlink:title="rbac">
<polygon fill="#ffffff" stroke="#ff0000" points="112.24,-252 58.24,-252 58.24,-216 112.24,-216 112.24,-252"/>
<text text-anchor="middle" x="85.24" y="-231" font-family="Helvetica,sans-Serif" font-size="10.00" fill="#000000">rbac</text>
</a>
</g>
</g>
<!-- dir_185afc8c919317820dfdc8dae01e990e&#45;&gt;dir_68267d1309a1af8e8297ef4c3efbcdba -->
<g id="edge14" class="edge">
<title>dir_185afc8c919317820dfdc8dae01e990e&#45;&gt;dir_68267d1309a1af8e8297ef4c3efbcdba</title>
<path fill="none" stroke="#000000" d="M87.511,-215.8314C88.4736,-208.131 89.6182,-198.9743 90.6879,-190.4166"/>
<polygon fill="#000000" stroke="#000000" points="94.1708,-190.7702 91.9383,-180.4133 87.2249,-189.9019 94.1708,-190.7702"/>
<g id="a_edge14&#45;headlabel"><a xlink:href="dir_000010_000023.html" target="_top" xlink:title="2">
<text text-anchor="middle" x="96.5424" y="-191.6892" font-family="Helvetica,sans-Serif" font-size="10.00" fill="#000000">2</text>
</a>
</g>
</g>
<!-- dir_185afc8c919317820dfdc8dae01e990e&#45;&gt;dir_23ec12649285f9fabf3a6b7380226c28 -->
<g id="edge15" class="edge">
<title>dir_185afc8c919317820dfdc8dae01e990e&#45;&gt;dir_23ec12649285f9fabf3a6b7380226c28</title>
<path fill="none" stroke="#000000" d="M65.2616,-215.9945C33.3342,-184.9998 -22.426,-120.2487 10.24,-72 31.9184,-39.9802 75.9901,-26.9453 107.894,-21.6398"/>
<polygon fill="#000000" stroke="#000000" points="108.8147,-25.042 118.1972,-20.1207 107.7936,-18.1169 108.8147,-25.042"/>
<g id="a_edge15&#45;headlabel"><a xlink:href="dir_000010_000026.html" target="_top" xlink:title="2">
<text text-anchor="middle" x="105.6727" y="-25.3752" font-family="Helvetica,sans-Serif" font-size="10.00" fill="#000000">2</text>
</a>
</g>
</g>
<!-- dir_185afc8c919317820dfdc8dae01e990e&#45;&gt;dir_25b35af5d6fe939e26498b93aa0ed469 -->
<g id="edge16" class="edge">
<title>dir_185afc8c919317820dfdc8dae01e990e&#45;&gt;dir_25b35af5d6fe939e26498b93aa0ed469</title>
<path fill="none" stroke="#000000" d="M101.9281,-215.6611C110.8046,-205.5035 121.6315,-192.4452 130.24,-180 144.2472,-159.75 157.8789,-135.3763 167.5197,-117.104"/>
<polygon fill="#000000" stroke="#000000" points="170.6634,-118.645 172.1784,-108.159 164.4549,-115.4115 170.6634,-118.645"/>
<g id="a_edge16&#45;headlabel"><a xlink:href="dir_000010_000000.html" target="_top" xlink:title="2">
<text text-anchor="middle" x="171.5212" y="-120.1446" font-family="Helvetica,sans-Serif" font-size="10.00" fill="#000000">2</text>
</a>
</g>
</g>
<!-- dir_ddf0054a38fb57287aea25b7b6b8abd0 -->
<g id="node4" class="node">
<title>dir_ddf0054a38fb57287aea25b7b6b8abd0</title>
<g id="a_node4"><a xlink:href="dir_ddf0054a38fb57287aea25b7b6b8abd0.html" target="_top" xlink:title="shim">
<polygon fill="#ffffff" stroke="#ff0000" points="184.24,-252 130.24,-252 130.24,-216 184.24,-216 184.24,-252"/>
<text text-anchor="middle" x="157.24" y="-231" font-family="Helvetica,sans-Serif" font-size="10.00" fill="#000000">shim</text>
</a>
</g>
</g>
<!-- dir_ddf0054a38fb57287aea25b7b6b8abd0&#45;&gt;dir_68267d1309a1af8e8297ef4c3efbcdba -->
<g id="edge10" class="edge">
<title>dir_ddf0054a38fb57287aea25b7b6b8abd0&#45;&gt;dir_68267d1309a1af8e8297ef4c3efbcdba</title>
<path fill="none" stroke="#000000" d="M141.3424,-215.8314C134.0122,-207.454 125.174,-197.3531 117.143,-188.1749"/>
<polygon fill="#000000" stroke="#000000" points="119.5707,-185.6343 110.3516,-180.4133 114.3026,-190.2438 119.5707,-185.6343"/>
<g id="a_edge10&#45;headlabel"><a xlink:href="dir_000002_000023.html" target="_top" xlink:title="1">
<text text-anchor="middle" x="124.0745" y="-183.4698" font-family="Helvetica,sans-Serif" font-size="10.00" fill="#000000">1</text>
</a>
</g>
</g>
<!-- dir_ddf0054a38fb57287aea25b7b6b8abd0&#45;&gt;dir_23ec12649285f9fabf3a6b7380226c28 -->
<g id="edge11" class="edge">
<title>dir_ddf0054a38fb57287aea25b7b6b8abd0&#45;&gt;dir_23ec12649285f9fabf3a6b7380226c28</title>
<path fill="none" stroke="#000000" d="M175.4554,-215.5166C203.3207,-184.8983 250.6621,-122.0656 224.24,-72 215.1653,-54.805 197.8775,-42.0461 181.7824,-33.2609"/>
<polygon fill="#000000" stroke="#000000" points="183.0145,-29.9607 172.5148,-28.544 179.8393,-36.1992 183.0145,-29.9607"/>
<g id="a_edge11&#45;headlabel"><a xlink:href="dir_000002_000026.html" target="_top" xlink:title="9">
<text text-anchor="middle" x="187.5059" y="-26.0608" font-family="Helvetica,sans-Serif" font-size="10.00" fill="#000000">9</text>
</a>
</g>
</g>
<!-- dir_ddf0054a38fb57287aea25b7b6b8abd0&#45;&gt;dir_25b35af5d6fe939e26498b93aa0ed469 -->
<g id="edge12" class="edge">
<title>dir_ddf0054a38fb57287aea25b7b6b8abd0&#45;&gt;dir_25b35af5d6fe939e26498b93aa0ed469</title>
<path fill="none" stroke="#000000" d="M160.2796,-215.7623C164.3912,-191.0928 171.7633,-146.8598 176.5778,-117.9731"/>
<polygon fill="#000000" stroke="#000000" points="180.0333,-118.529 178.225,-108.0896 173.1286,-117.3781 180.0333,-118.529"/>
<g id="a_edge12&#45;headlabel"><a xlink:href="dir_000002_000000.html" target="_top" xlink:title="2">
<text text-anchor="middle" x="182.2431" y="-119.5414" font-family="Helvetica,sans-Serif" font-size="10.00" fill="#000000">2</text>
</a>
</g>
</g>
<!-- dir_2ebfa31ad3219d1ad0a75b1e329dc997 -->
<g id="node8" class="node">
<title>dir_2ebfa31ad3219d1ad0a75b1e329dc997</title>
<g id="a_node8"><a xlink:href="dir_2ebfa31ad3219d1ad0a75b1e329dc997.html" target="_top" xlink:title="libcli">
<polygon fill="none" stroke="#000000" points="73.24,-108 19.24,-108 19.24,-72 73.24,-72 73.24,-108"/>
<text text-anchor="middle" x="46.24" y="-87" font-family="Helvetica,sans-Serif" font-size="10.00" fill="#000000">libcli</text>
</a>
</g>
</g>
<!-- dir_ddf0054a38fb57287aea25b7b6b8abd0&#45;&gt;dir_2ebfa31ad3219d1ad0a75b1e329dc997 -->
<g id="edge13" class="edge">
<title>dir_ddf0054a38fb57287aea25b7b6b8abd0&#45;&gt;dir_2ebfa31ad3219d1ad0a75b1e329dc997</title>
<path fill="none" stroke="#000000" d="M133.6908,-215.9415C129.6319,-213.1364 125.3837,-210.3827 121.24,-208 94.6775,-192.7259 76.6015,-204.53 58.24,-180 45.0892,-162.4313 42.6929,-137.3542 43.2433,-118.131"/>
<polygon fill="#000000" stroke="#000000" points="46.7381,-118.3186 43.8026,-108.1386 39.7491,-117.9273 46.7381,-118.3186"/>
<g id="a_edge13&#45;headlabel"><a xlink:href="dir_000002_000025.html" target="_top" xlink:title="1">
<text text-anchor="middle" x="49.3722" y="-119.0662" font-family="Helvetica,sans-Serif" font-size="10.00" fill="#000000">1</text>
</a>
</g>
</g>
<!-- dir_68267d1309a1af8e8297ef4c3efbcdba&#45;&gt;dir_23ec12649285f9fabf3a6b7380226c28 -->
<g id="edge4" class="edge">
<title>dir_68267d1309a1af8e8297ef4c3efbcdba&#45;&gt;dir_23ec12649285f9fabf3a6b7380226c28</title>
<path fill="none" stroke="#000000" d="M96.026,-143.7623C102.3199,-118.9846 117.8273,-74.4714 130.0207,-45.5939"/>
<polygon fill="#000000" stroke="#000000" points="133.3769,-46.6544 134.1749,-36.0896 126.9628,-43.8508 133.3769,-46.6544"/>
<g id="a_edge4&#45;headlabel"><a xlink:href="dir_000023_000026.html" target="_top" xlink:title="8">
<text text-anchor="middle" x="134.5389" y="-48.0852" font-family="Helvetica,sans-Serif" font-size="10.00" fill="#000000">8</text>
</a>
</g>
</g>
<!-- dir_68267d1309a1af8e8297ef4c3efbcdba&#45;&gt;dir_25b35af5d6fe939e26498b93aa0ed469 -->
<g id="edge5" class="edge">
<title>dir_68267d1309a1af8e8297ef4c3efbcdba&#45;&gt;dir_25b35af5d6fe939e26498b93aa0ed469</title>
<path fill="none" stroke="#000000" d="M110.2413,-143.8314C120.0928,-134.9632 132.9803,-124.1637 145.1109,-114.5718"/>
<polygon fill="#000000" stroke="#000000" points="147.6017,-117.0683 153.3414,-108.1628 143.301,-111.5452 147.6017,-117.0683"/>
<g id="a_edge5&#45;headlabel"><a xlink:href="dir_000023_000000.html" target="_top" xlink:title="4">
<text text-anchor="middle" x="146.5099" y="-118.5169" font-family="Helvetica,sans-Serif" font-size="10.00" fill="#000000">4</text>
</a>
</g>
</g>
<!-- dir_68267d1309a1af8e8297ef4c3efbcdba&#45;&gt;dir_2ebfa31ad3219d1ad0a75b1e329dc997 -->
<g id="edge6" class="edge">
<title>dir_68267d1309a1af8e8297ef4c3efbcdba&#45;&gt;dir_2ebfa31ad3219d1ad0a75b1e329dc997</title>
<path fill="none" stroke="#000000" d="M82.1275,-143.8314C76.7119,-135.7079 70.2158,-125.9637 64.2478,-117.0118"/>
<polygon fill="#000000" stroke="#000000" points="66.9747,-114.7923 58.5155,-108.4133 61.1503,-118.6753 66.9747,-114.7923"/>
<g id="a_edge6&#45;headlabel"><a xlink:href="dir_000023_000025.html" target="_top" xlink:title="1">
<text text-anchor="middle" x="71.331" y="-113.2083" font-family="Helvetica,sans-Serif" font-size="10.00" fill="#000000">1</text>
</a>
</g>
</g>
<!-- dir_23ec12649285f9fabf3a6b7380226c28&#45;&gt;dir_68267d1309a1af8e8297ef4c3efbcdba -->
<g id="edge7" class="edge">
<title>dir_23ec12649285f9fabf3a6b7380226c28&#45;&gt;dir_68267d1309a1af8e8297ef4c3efbcdba</title>
<path fill="none" stroke="#000000" d="M143.4915,-36.0896C137.2344,-60.7884 121.7389,-105.2933 109.5322,-134.2331"/>
<polygon fill="#000000" stroke="#000000" points="106.1655,-133.1972 105.3723,-143.7623 112.5809,-135.9978 106.1655,-133.1972"/>
<g id="a_edge7&#45;headlabel"><a xlink:href="dir_000026_000023.html" target="_top" xlink:title="6">
<text text-anchor="middle" x="105.0015" y="-125.7669" font-family="Helvetica,sans-Serif" font-size="10.00" fill="#000000">6</text>
</a>
</g>
</g>
<!-- dir_25b35af5d6fe939e26498b93aa0ed469&#45;&gt;dir_68267d1309a1af8e8297ef4c3efbcdba -->
<g id="edge8" class="edge">
<title>dir_25b35af5d6fe939e26498b93aa0ed469&#45;&gt;dir_68267d1309a1af8e8297ef4c3efbcdba</title>
<path fill="none" stroke="#000000" d="M165.3225,-108.0931C155.2598,-117.1561 142.007,-128.2506 129.6278,-138.0136"/>
<polygon fill="#000000" stroke="#000000" points="127.4112,-135.3034 121.6613,-144.2022 131.7056,-140.8314 127.4112,-135.3034"/>
<g id="a_edge8&#45;headlabel"><a xlink:href="dir_000000_000023.html" target="_top" xlink:title="4">
<text text-anchor="middle" x="128.5081" y="-127.856" font-family="Helvetica,sans-Serif" font-size="10.00" fill="#000000">4</text>
</a>
</g>
</g>
<!-- dir_25b35af5d6fe939e26498b93aa0ed469&#45;&gt;dir_23ec12649285f9fabf3a6b7380226c28 -->
<g id="edge9" class="edge">
<title>dir_25b35af5d6fe939e26498b93aa0ed469&#45;&gt;dir_23ec12649285f9fabf3a6b7380226c28</title>
<path fill="none" stroke="#000000" d="M172.1556,-71.8314C168.1785,-63.8771 163.4245,-54.369 159.0261,-45.5723"/>
<polygon fill="#000000" stroke="#000000" points="162.0493,-43.7923 154.4466,-36.4133 155.7883,-46.9228 162.0493,-43.7923"/>
<g id="a_edge9&#45;headlabel"><a xlink:href="dir_000000_000026.html" target="_top" xlink:title="2">
<text text-anchor="middle" x="166.1963" y="-42.7377" font-family="Helvetica,sans-Serif" font-size="10.00" fill="#000000">2</text>
</a>
</g>
</g>
</g>
</svg>
