<?xml version="1.0" encoding="UTF-8" standalone="no"?>
<!DOCTYPE svg PUBLIC "-//W3C//DTD SVG 1.1//EN"
 "http://www.w3.org/Graphics/SVG/1.1/DTD/svg11.dtd">
<!-- Generated by graphviz version 2.40.1 (20161225.0304)
 -->
<!-- Title: src Pages: 1 -->
<svg width="203pt" height="260pt"
 viewBox="0.00 0.00 202.67 260.00" xmlns="http://www.w3.org/2000/svg" xmlns:xlink="http://www.w3.org/1999/xlink">
<g id="graph0" class="graph" transform="scale(1 1) rotate(0) translate(4 256)">
<title>src</title>
<polygon fill="#ffffff" stroke="transparent" points="-4,4 -4,-256 198.6745,-256 198.6745,4 -4,4"/>
<g id="clust1" class="cluster">
<title>clusterdir_68267d1309a1af8e8297ef4c3efbcdba</title>
<g id="a_clust1"><a xlink:href="dir_68267d1309a1af8e8297ef4c3efbcdba.html" target="_top">
<polygon fill="#eeeeff" stroke="#000000" points="8,-64 8,-188 78,-188 78,-64 8,-64"/>
</a>
</g>
</g>
<!-- dir_68267d1309a1af8e8297ef4c3efbcdba -->
<g id="node1" class="node">
<title>dir_68267d1309a1af8e8297ef4c3efbcdba</title>
<text text-anchor="middle" x="43" y="-159" font-family="Helvetica,sans-Serif" font-size="10.00" fill="#000000">src</text>
</g>
<!-- dir_b0856f6b0d80ccb263b2f415c91f9e17 -->
<g id="node2" class="node">
<title>dir_b0856f6b0d80ccb263b2f415c91f9e17</title>
<g id="a_node2"><a xlink:href="dir_b0856f6b0d80ccb263b2f415c91f9e17.html" target="_top" xlink:title="include">
<polygon fill="#ffffff" stroke="#000000" points="70,-108 16,-108 16,-72 70,-72 70,-108"/>
<text text-anchor="middle" x="43" y="-87" font-family="Helvetica,sans-Serif" font-size="10.00" fill="#000000">include</text>
</a>
</g>
</g>
<!-- dir_68267d1309a1af8e8297ef4c3efbcdba&#45;&gt;dir_b0856f6b0d80ccb263b2f415c91f9e17 -->
<g id="edge3" class="edge">
<title>dir_68267d1309a1af8e8297ef4c3efbcdba&#45;&gt;dir_b0856f6b0d80ccb263b2f415c91f9e17</title>
<path fill="none" stroke="#000000" d="M43,-143.8314C43,-136.131 43,-126.9743 43,-118.4166"/>
<polygon fill="#000000" stroke="#000000" points="46.5001,-118.4132 43,-108.4133 39.5001,-118.4133 46.5001,-118.4132"/>
<g id="a_edge3&#45;headlabel"><a xlink:href="dir_000023_000024.html" target="_top" xlink:title="12">
<text text-anchor="middle" x="49.3393" y="-119.0079" font-family="Helvetica,sans-Serif" font-size="10.00" fill="#000000">12</text>
</a>
</g>
</g>
<!-- dir_25b35af5d6fe939e26498b93aa0ed469 -->
<g id="node4" class="node">
<title>dir_25b35af5d6fe939e26498b93aa0ed469</title>
<g id="a_node4"><a xlink:href="dir_25b35af5d6fe939e26498b93aa0ed469.html" target="_top" xlink:title="app_events">
<polygon fill="#ffffff" stroke="#ff0000" points="158.7096,-252 91.2904,-252 91.2904,-216 158.7096,-216 158.7096,-252"/>
<text text-anchor="middle" x="125" y="-231" font-family="Helvetica,sans-Serif" font-size="10.00" fill="#000000">app_events</text>
</a>
</g>
</g>
<!-- dir_68267d1309a1af8e8297ef4c3efbcdba&#45;&gt;dir_25b35af5d6fe939e26498b93aa0ed469 -->
<g id="edge1" class="edge">
<title>dir_68267d1309a1af8e8297ef4c3efbcdba&#45;&gt;dir_25b35af5d6fe939e26498b93aa0ed469</title>
<path fill="none" stroke="#000000" d="M57.7336,-180.1628C66.968,-189.0301 79.105,-199.8295 90.5698,-209.4219"/>
<polygon fill="#000000" stroke="#000000" points="88.4106,-212.1778 98.3555,-215.8314 92.8596,-206.7735 88.4106,-212.1778"/>
<g id="a_edge1&#45;headlabel"><a xlink:href="dir_000023_000000.html" target="_top" xlink:title="4">
<text text-anchor="middle" x="83.8309" y="-209.0853" font-family="Helvetica,sans-Serif" font-size="10.00" fill="#000000">4</text>
</a>
</g>
</g>
<!-- dir_7d604191edc08013a26f918aa8ef79ad -->
<g id="node6" class="node">
<title>dir_7d604191edc08013a26f918aa8ef79ad</title>
<g id="a_node6"><a xlink:href="dir_7d604191edc08013a26f918aa8ef79ad.html" target="_top" xlink:title="events">
<polygon fill="#ffffff" stroke="#ff0000" points="180,-180 126,-180 126,-144 180,-144 180,-180"/>
<text text-anchor="middle" x="153" y="-159" font-family="Helvetica,sans-Serif" font-size="10.00" fill="#000000">events</text>
</a>
</g>
</g>
<!-- dir_68267d1309a1af8e8297ef4c3efbcdba&#45;&gt;dir_7d604191edc08013a26f918aa8ef79ad -->
<g id="edge2" class="edge">
<title>dir_68267d1309a1af8e8297ef4c3efbcdba&#45;&gt;dir_7d604191edc08013a26f918aa8ef79ad</title>
<path fill="none" stroke="#000000" d="M70.0703,-162C85.3058,-162 100.5413,-162 115.7768,-162"/>
<polygon fill="#000000" stroke="#000000" points="115.7887,-165.5001 125.7887,-162 115.7887,-158.5001 115.7887,-165.5001"/>
<g id="a_edge2&#45;headlabel"><a xlink:href="dir_000023_000019.html" target="_top" xlink:title="4">
<text text-anchor="middle" x="112.1941" y="-165.3393" font-family="Helvetica,sans-Serif" font-size="10.00" fill="#000000">4</text>
</a>
</g>
</g>
<!-- dir_23ec12649285f9fabf3a6b7380226c28 -->
<g id="node3" class="node">
<title>dir_23ec12649285f9fabf3a6b7380226c28</title>
<g id="a_node3"><a xlink:href="dir_23ec12649285f9fabf3a6b7380226c28.html" target="_top" xlink:title="util">
<polygon fill="#ffffff" stroke="#ff0000" points="180,-108 126,-108 126,-72 180,-72 180,-108"/>
<text text-anchor="middle" x="153" y="-87" font-family="Helvetica,sans-Serif" font-size="10.00" fill="#000000">util</text>
</a>
</g>
</g>
<!-- dir_b0856f6b0d80ccb263b2f415c91f9e17&#45;&gt;dir_23ec12649285f9fabf3a6b7380226c28 -->
<g id="edge12" class="edge">
<title>dir_b0856f6b0d80ccb263b2f415c91f9e17&#45;&gt;dir_23ec12649285f9fabf3a6b7380226c28</title>
<path fill="none" stroke="#000000" d="M70.0703,-90C85.3058,-90 100.5413,-90 115.7768,-90"/>
<polygon fill="#000000" stroke="#000000" points="115.7887,-93.5001 125.7887,-90 115.7887,-86.5001 115.7887,-93.5001"/>
<g id="a_edge12&#45;headlabel"><a xlink:href="dir_000024_000026.html" target="_top" xlink:title="8">
<text text-anchor="middle" x="112.1941" y="-93.3393" font-family="Helvetica,sans-Serif" font-size="10.00" fill="#000000">8</text>
</a>
</g>
</g>
<!-- dir_2ebfa31ad3219d1ad0a75b1e329dc997 -->
<g id="node5" class="node">
<title>dir_2ebfa31ad3219d1ad0a75b1e329dc997</title>
<g id="a_node5"><a xlink:href="dir_2ebfa31ad3219d1ad0a75b1e329dc997.html" target="_top" xlink:title="libcli">
<polygon fill="none" stroke="#000000" points="70,-36 16,-36 16,0 70,0 70,-36"/>
<text text-anchor="middle" x="43" y="-15" font-family="Helvetica,sans-Serif" font-size="10.00" fill="#000000">libcli</text>
</a>
</g>
</g>
<!-- dir_b0856f6b0d80ccb263b2f415c91f9e17&#45;&gt;dir_2ebfa31ad3219d1ad0a75b1e329dc997 -->
<g id="edge13" class="edge">
<title>dir_b0856f6b0d80ccb263b2f415c91f9e17&#45;&gt;dir_2ebfa31ad3219d1ad0a75b1e329dc997</title>
<path fill="none" stroke="#000000" d="M43,-71.8314C43,-64.131 43,-54.9743 43,-46.4166"/>
<polygon fill="#000000" stroke="#000000" points="46.5001,-46.4132 43,-36.4133 39.5001,-46.4133 46.5001,-46.4132"/>
<g id="a_edge13&#45;headlabel"><a xlink:href="dir_000024_000025.html" target="_top" xlink:title="1">
<text text-anchor="middle" x="49.3393" y="-47.0079" font-family="Helvetica,sans-Serif" font-size="10.00" fill="#000000">1</text>
</a>
</g>
</g>
<!-- dir_23ec12649285f9fabf3a6b7380226c28&#45;&gt;dir_b0856f6b0d80ccb263b2f415c91f9e17 -->
<g id="edge4" class="edge">
<title>dir_23ec12649285f9fabf3a6b7380226c28&#45;&gt;dir_b0856f6b0d80ccb263b2f415c91f9e17</title>
<path fill="none" stroke="#000000" d="M125.7887,-90C110.5532,-90 95.3177,-90 80.0822,-90"/>
<polygon fill="#000000" stroke="#000000" points="80.0703,-86.5001 70.0703,-90 80.0703,-93.5001 80.0703,-86.5001"/>
<g id="a_edge4&#45;headlabel"><a xlink:href="dir_000026_000024.html" target="_top" xlink:title="6">
<text text-anchor="middle" x="83.6649" y="-80.6607" font-family="Helvetica,sans-Serif" font-size="10.00" fill="#000000">6</text>
</a>
</g>
</g>
<!-- dir_25b35af5d6fe939e26498b93aa0ed469&#45;&gt;dir_68267d1309a1af8e8297ef4c3efbcdba -->
<g id="edge5" class="edge">
<title>dir_25b35af5d6fe939e26498b93aa0ed469&#45;&gt;dir_68267d1309a1af8e8297ef4c3efbcdba</title>
<path fill="none" stroke="#000000" d="M110.2603,-215.8314C101.0247,-206.9632 88.8872,-196.1637 77.4227,-186.5718"/>
<polygon fill="#000000" stroke="#000000" points="79.5823,-183.8162 69.6373,-180.1628 75.1334,-189.2206 79.5823,-183.8162"/>
<g id="a_edge5&#45;headlabel"><a xlink:href="dir_000000_000023.html" target="_top" xlink:title="4">
<text text-anchor="middle" x="84.162" y="-180.9087" font-family="Helvetica,sans-Serif" font-size="10.00" fill="#000000">4</text>
</a>
</g>
</g>
<!-- dir_25b35af5d6fe939e26498b93aa0ed469&#45;&gt;dir_b0856f6b0d80ccb263b2f415c91f9e17 -->
<g id="edge8" class="edge">
<title>dir_25b35af5d6fe939e26498b93aa0ed469&#45;&gt;dir_b0856f6b0d80ccb263b2f415c91f9e17</title>
<path fill="none" stroke="#000000" d="M116.4357,-215.7416C107.6184,-197.3218 93.1995,-168.2208 79,-144 73.6711,-134.9102 67.4315,-125.2555 61.6578,-116.6616"/>
<polygon fill="#000000" stroke="#000000" points="64.3887,-114.4536 55.8672,-108.158 58.6028,-118.3936 64.3887,-114.4536"/>
<g id="a_edge8&#45;headlabel"><a xlink:href="dir_000000_000024.html" target="_top" xlink:title="4">
<text text-anchor="middle" x="68.7587" y="-112.8267" font-family="Helvetica,sans-Serif" font-size="10.00" fill="#000000">4</text>
</a>
</g>
</g>
<!-- dir_25b35af5d6fe939e26498b93aa0ed469&#45;&gt;dir_23ec12649285f9fabf3a6b7380226c28 -->
<g id="edge6" class="edge">
<title>dir_25b35af5d6fe939e26498b93aa0ed469&#45;&gt;dir_23ec12649285f9fabf3a6b7380226c28</title>
<path fill="none" stroke="#000000" d="M159.0274,-217.9997C170.727,-210.6292 182.507,-200.6631 189,-188 197.9226,-170.5987 194.6669,-162.7165 189,-144 186.0436,-134.2355 180.6748,-124.6229 174.97,-116.2762"/>
<polygon fill="#000000" stroke="#000000" points="177.7129,-114.0973 168.9905,-108.0831 172.0586,-118.2239 177.7129,-114.0973"/>
<g id="a_edge6&#45;headlabel"><a xlink:href="dir_000000_000026.html" target="_top" xlink:title="2">
<text text-anchor="middle" x="182.1253" y="-112.327" font-family="Helvetica,sans-Serif" font-size="10.00" fill="#000000">2</text>
</a>
</g>
</g>
<!-- dir_25b35af5d6fe939e26498b93aa0ed469&#45;&gt;dir_7d604191edc08013a26f918aa8ef79ad -->
<g id="edge7" class="edge">
<title>dir_25b35af5d6fe939e26498b93aa0ed469&#45;&gt;dir_7d604191edc08013a26f918aa8ef79ad</title>
<path fill="none" stroke="#000000" d="M132.0656,-215.8314C135.126,-207.9617 138.7779,-198.5712 142.1682,-189.8533"/>
<polygon fill="#000000" stroke="#000000" points="145.4768,-191.0019 145.8393,-180.4133 138.9527,-188.4647 145.4768,-191.0019"/>
<g id="a_edge7&#45;headlabel"><a xlink:href="dir_000000_000019.html" target="_top" xlink:title="2">
<text text-anchor="middle" x="146.8202" y="-192.3812" font-family="Helvetica,sans-Serif" font-size="10.00" fill="#000000">2</text>
</a>
</g>
</g>
<!-- dir_7d604191edc08013a26f918aa8ef79ad&#45;&gt;dir_68267d1309a1af8e8297ef4c3efbcdba -->
<g id="edge9" class="edge">
<title>dir_7d604191edc08013a26f918aa8ef79ad&#45;&gt;dir_68267d1309a1af8e8297ef4c3efbcdba</title>
<path fill="none" stroke="#000000" d="M125.7887,-162C110.5532,-162 95.3177,-162 80.0822,-162"/>
<polygon fill="#000000" stroke="#000000" points="80.0703,-158.5001 70.0703,-162 80.0703,-165.5001 80.0703,-158.5001"/>
<g id="a_edge9&#45;headlabel"><a xlink:href="dir_000019_000023.html" target="_top" xlink:title="4">
<text text-anchor="middle" x="83.6649" y="-152.6607" font-family="Helvetica,sans-Serif" font-size="10.00" fill="#000000">4</text>
</a>
</g>
</g>
<!-- dir_7d604191edc08013a26f918aa8ef79ad&#45;&gt;dir_b0856f6b0d80ccb263b2f415c91f9e17 -->
<g id="edge11" class="edge">
<title>dir_7d604191edc08013a26f918aa8ef79ad&#45;&gt;dir_b0856f6b0d80ccb263b2f415c91f9e17</title>
<path fill="none" stroke="#000000" d="M125.809,-144.2022C111.6622,-134.9425 94.1843,-123.5025 78.937,-113.5224"/>
<polygon fill="#000000" stroke="#000000" points="80.5433,-110.3907 70.2594,-107.8425 76.7097,-116.2476 80.5433,-110.3907"/>
<g id="a_edge11&#45;headlabel"><a xlink:href="dir_000019_000024.html" target="_top" xlink:title="4">
<text text-anchor="middle" x="85.1058" y="-106.9837" font-family="Helvetica,sans-Serif" font-size="10.00" fill="#000000">4</text>
</a>
</g>
</g>
<!-- dir_7d604191edc08013a26f918aa8ef79ad&#45;&gt;dir_23ec12649285f9fabf3a6b7380226c28 -->
<g id="edge10" class="edge">
<title>dir_7d604191edc08013a26f918aa8ef79ad&#45;&gt;dir_23ec12649285f9fabf3a6b7380226c28</title>
<path fill="none" stroke="#000000" d="M153,-143.8314C153,-136.131 153,-126.9743 153,-118.4166"/>
<polygon fill="#000000" stroke="#000000" points="156.5001,-118.4132 153,-108.4133 149.5001,-118.4133 156.5001,-118.4132"/>
<g id="a_edge10&#45;headlabel"><a xlink:href="dir_000019_000026.html" target="_top" xlink:title="2">
<text text-anchor="middle" x="159.3393" y="-119.0079" font-family="Helvetica,sans-Serif" font-size="10.00" fill="#000000">2</text>
</a>
</g>
</g>
</g>
</svg>
