<?xml version="1.0" encoding="UTF-8" standalone="no"?>
<!DOCTYPE svg PUBLIC "-//W3C//DTD SVG 1.1//EN"
 "http://www.w3.org/Graphics/SVG/1.1/DTD/svg11.dtd">
<!-- Generated by graphviz version 2.40.1 (20161225.0304)
 -->
<!-- Title: ext_comps/shim Pages: 1 -->
<svg width="253pt" height="374pt"
 viewBox="0.00 0.00 252.75 374.00" xmlns="http://www.w3.org/2000/svg" xmlns:xlink="http://www.w3.org/1999/xlink">
<g id="graph0" class="graph" transform="scale(1 1) rotate(0) translate(4 370)">
<title>ext_comps/shim</title>
<polygon fill="#ffffff" stroke="transparent" points="-4,4 -4,-370 248.7517,-370 248.7517,4 -4,4"/>
<g id="clust1" class="cluster">
<title>clusterdir_d7c209a246552ade0a12df4403b93cd5</title>
<g id="a_clust1"><a xlink:href="dir_d7c209a246552ade0a12df4403b93cd5.html" target="_top" xlink:title="ext_comps">
<polygon fill="#ddddee" stroke="#000000" points="58.7517,-272 58.7517,-358 216.7517,-358 216.7517,-272 58.7517,-272"/>
<text text-anchor="middle" x="137.7517" y="-346" font-family="Helvetica,sans-Serif" font-size="10.00" fill="#000000">ext_comps</text>
</a>
</g>
</g>
<g id="clust2" class="cluster">
<title>clusterdir_6c4861834e4980f643fd42e1bccda41f</title>
<g id="a_clust2"><a xlink:href="dir_6c4861834e4980f643fd42e1bccda41f.html" target="_top">
<polygon fill="#eeeeff" stroke="#000000" points="66.7517,-280 66.7517,-332 208.7517,-332 208.7517,-280 66.7517,-280"/>
</a>
</g>
</g>
<!-- dir_6c4861834e4980f643fd42e1bccda41f -->
<g id="node1" class="node">
<title>dir_6c4861834e4980f643fd42e1bccda41f</title>
<text text-anchor="middle" x="173.7517" y="-303" font-family="Helvetica,sans-Serif" font-size="10.00" fill="#000000">shim</text>
</g>
<!-- dir_68267d1309a1af8e8297ef4c3efbcdba -->
<g id="node3" class="node">
<title>dir_68267d1309a1af8e8297ef4c3efbcdba</title>
<g id="a_node3"><a xlink:href="dir_68267d1309a1af8e8297ef4c3efbcdba.html" target="_top" xlink:title="src">
<polygon fill="#ffffff" stroke="#ff0000" points="188.7517,-180 134.7517,-180 134.7517,-144 188.7517,-144 188.7517,-180"/>
<text text-anchor="middle" x="161.7517" y="-159" font-family="Helvetica,sans-Serif" font-size="10.00" fill="#000000">src</text>
</a>
</g>
</g>
<!-- dir_6c4861834e4980f643fd42e1bccda41f&#45;&gt;dir_68267d1309a1af8e8297ef4c3efbcdba -->
<g id="edge5" class="edge">
<title>dir_6c4861834e4980f643fd42e1bccda41f&#45;&gt;dir_68267d1309a1af8e8297ef4c3efbcdba</title>
<path fill="none" stroke="#000000" d="M172.2319,-287.7623C170.1851,-263.201 166.5223,-219.2474 164.1145,-190.3541"/>
<polygon fill="#000000" stroke="#000000" points="167.5776,-189.7644 163.2592,-180.0896 160.6018,-190.3458 167.5776,-189.7644"/>
<g id="a_edge5&#45;headlabel"><a xlink:href="dir_000020_000023.html" target="_top" xlink:title="1">
<text text-anchor="middle" x="170.7055" y="-190.1108" font-family="Helvetica,sans-Serif" font-size="10.00" fill="#000000">1</text>
</a>
</g>
</g>
<!-- dir_7d604191edc08013a26f918aa8ef79ad -->
<g id="node6" class="node">
<title>dir_7d604191edc08013a26f918aa8ef79ad</title>
<g id="a_node6"><a xlink:href="dir_7d604191edc08013a26f918aa8ef79ad.html" target="_top" xlink:title="events">
<polygon fill="#ffffff" stroke="#ff0000" points="244.7517,-108 190.7517,-108 190.7517,-72 244.7517,-72 244.7517,-108"/>
<text text-anchor="middle" x="217.7517" y="-87" font-family="Helvetica,sans-Serif" font-size="10.00" fill="#000000">events</text>
</a>
</g>
</g>
<!-- dir_6c4861834e4980f643fd42e1bccda41f&#45;&gt;dir_7d604191edc08013a26f918aa8ef79ad -->
<g id="edge6" class="edge">
<title>dir_6c4861834e4980f643fd42e1bccda41f&#45;&gt;dir_7d604191edc08013a26f918aa8ef79ad</title>
<path fill="none" stroke="#000000" d="M182.5217,-287.7568C193.5437,-263.7212 211.8536,-219.8241 218.7517,-180 221.4824,-164.2348 218.8998,-159.9993 218.7517,-144 218.6756,-135.7856 218.5345,-126.8691 218.3818,-118.6933"/>
<polygon fill="#000000" stroke="#000000" points="221.8772,-118.4215 218.1788,-108.4932 214.8785,-118.5609 221.8772,-118.4215"/>
<g id="a_edge6&#45;headlabel"><a xlink:href="dir_000020_000019.html" target="_top" xlink:title="2">
<text text-anchor="middle" x="224.7873" y="-118.959" font-family="Helvetica,sans-Serif" font-size="10.00" fill="#000000">2</text>
</a>
</g>
</g>
<!-- dir_74dfbba08cf6ef0a71c77669f06dfb6d -->
<g id="node2" class="node">
<title>dir_74dfbba08cf6ef0a71c77669f06dfb6d</title>
<g id="a_node2"><a xlink:href="dir_74dfbba08cf6ef0a71c77669f06dfb6d.html" target="_top" xlink:title="include">
<polygon fill="#ffffff" stroke="#000000" points="128.7517,-324 74.7517,-324 74.7517,-288 128.7517,-288 128.7517,-324"/>
<text text-anchor="middle" x="101.7517" y="-303" font-family="Helvetica,sans-Serif" font-size="10.00" fill="#000000">include</text>
</a>
</g>
</g>
<!-- dir_23ec12649285f9fabf3a6b7380226c28 -->
<g id="node4" class="node">
<title>dir_23ec12649285f9fabf3a6b7380226c28</title>
<g id="a_node4"><a xlink:href="dir_23ec12649285f9fabf3a6b7380226c28.html" target="_top" xlink:title="util">
<polygon fill="#ffffff" stroke="#ff0000" points="180.7517,-36 126.7517,-36 126.7517,0 180.7517,0 180.7517,-36"/>
<text text-anchor="middle" x="153.7517" y="-15" font-family="Helvetica,sans-Serif" font-size="10.00" fill="#000000">util</text>
</a>
</g>
</g>
<!-- dir_74dfbba08cf6ef0a71c77669f06dfb6d&#45;&gt;dir_23ec12649285f9fabf3a6b7380226c28 -->
<g id="edge12" class="edge">
<title>dir_74dfbba08cf6ef0a71c77669f06dfb6d&#45;&gt;dir_23ec12649285f9fabf3a6b7380226c28</title>
<path fill="none" stroke="#000000" d="M84.4801,-287.8807C47.2928,-246.6156 -33.1695,-143.6762 15.7517,-72 27.5505,-54.7132 80.0947,-37.5874 116.8261,-27.4008"/>
<polygon fill="#000000" stroke="#000000" points="117.9849,-30.713 126.7199,-24.7173 116.1524,-23.9571 117.9849,-30.713"/>
<g id="a_edge12&#45;headlabel"><a xlink:href="dir_000022_000026.html" target="_top" xlink:title="9">
<text text-anchor="middle" x="115.2588" y="-31.3942" font-family="Helvetica,sans-Serif" font-size="10.00" fill="#000000">9</text>
</a>
</g>
</g>
<!-- dir_2ebfa31ad3219d1ad0a75b1e329dc997 -->
<g id="node5" class="node">
<title>dir_2ebfa31ad3219d1ad0a75b1e329dc997</title>
<g id="a_node5"><a xlink:href="dir_2ebfa31ad3219d1ad0a75b1e329dc997.html" target="_top" xlink:title="libcli">
<polygon fill="none" stroke="#000000" points="78.7517,-108 24.7517,-108 24.7517,-72 78.7517,-72 78.7517,-108"/>
<text text-anchor="middle" x="51.7517" y="-87" font-family="Helvetica,sans-Serif" font-size="10.00" fill="#000000">libcli</text>
</a>
</g>
</g>
<!-- dir_74dfbba08cf6ef0a71c77669f06dfb6d&#45;&gt;dir_2ebfa31ad3219d1ad0a75b1e329dc997 -->
<g id="edge13" class="edge">
<title>dir_74dfbba08cf6ef0a71c77669f06dfb6d&#45;&gt;dir_2ebfa31ad3219d1ad0a75b1e329dc997</title>
<path fill="none" stroke="#000000" d="M88.8778,-287.887C82.3594,-277.7956 74.9548,-264.7284 70.7517,-252 55.8335,-206.8233 52.313,-151.1697 51.6553,-118.2486"/>
<polygon fill="#000000" stroke="#000000" points="55.1521,-117.9598 51.5297,-108.0035 48.1526,-118.0457 55.1521,-117.9598"/>
<g id="a_edge13&#45;headlabel"><a xlink:href="dir_000022_000025.html" target="_top" xlink:title="1">
<text text-anchor="middle" x="58.0352" y="-118.5194" font-family="Helvetica,sans-Serif" font-size="10.00" fill="#000000">1</text>
</a>
</g>
</g>
<!-- dir_e58e4659d14cfa13982aff34da34673d -->
<g id="node7" class="node">
<title>dir_e58e4659d14cfa13982aff34da34673d</title>
<g id="a_node7"><a xlink:href="dir_e58e4659d14cfa13982aff34da34673d.html" target="_top" xlink:title="topo_mgmt">
<polygon fill="#ffffff" stroke="#ff0000" points="145.7761,-252 79.7273,-252 79.7273,-216 145.7761,-216 145.7761,-252"/>
<text text-anchor="middle" x="112.7517" y="-231" font-family="Helvetica,sans-Serif" font-size="10.00" fill="#000000">topo_mgmt</text>
</a>
</g>
</g>
<!-- dir_74dfbba08cf6ef0a71c77669f06dfb6d&#45;&gt;dir_e58e4659d14cfa13982aff34da34673d -->
<g id="edge14" class="edge">
<title>dir_74dfbba08cf6ef0a71c77669f06dfb6d&#45;&gt;dir_e58e4659d14cfa13982aff34da34673d</title>
<path fill="none" stroke="#000000" d="M104.5274,-287.8314C105.7039,-280.131 107.1028,-270.9743 108.4103,-262.4166"/>
<polygon fill="#000000" stroke="#000000" points="111.8881,-262.8272 109.9385,-252.4133 104.9684,-261.7699 111.8881,-262.8272"/>
<g id="a_edge14&#45;headlabel"><a xlink:href="dir_000022_000016.html" target="_top" xlink:title="1">
<text text-anchor="middle" x="114.152" y="-263.8093" font-family="Helvetica,sans-Serif" font-size="10.00" fill="#000000">1</text>
</a>
</g>
</g>
<!-- dir_68267d1309a1af8e8297ef4c3efbcdba&#45;&gt;dir_23ec12649285f9fabf3a6b7380226c28 -->
<g id="edge1" class="edge">
<title>dir_68267d1309a1af8e8297ef4c3efbcdba&#45;&gt;dir_23ec12649285f9fabf3a6b7380226c28</title>
<path fill="none" stroke="#000000" d="M156.0653,-143.7623C152.241,-119.201 149.5244,-75.2474 149.8295,-46.3541"/>
<polygon fill="#000000" stroke="#000000" points="153.3352,-46.1779 150.0984,-36.0896 146.3376,-45.9945 153.3352,-46.1779"/>
<g id="a_edge1&#45;headlabel"><a xlink:href="dir_000023_000026.html" target="_top" xlink:title="8">
<text text-anchor="middle" x="156.0795" y="-46.8456" font-family="Helvetica,sans-Serif" font-size="10.00" fill="#000000">8</text>
</a>
</g>
</g>
<!-- dir_68267d1309a1af8e8297ef4c3efbcdba&#45;&gt;dir_2ebfa31ad3219d1ad0a75b1e329dc997 -->
<g id="edge2" class="edge">
<title>dir_68267d1309a1af8e8297ef4c3efbcdba&#45;&gt;dir_2ebfa31ad3219d1ad0a75b1e329dc997</title>
<path fill="none" stroke="#000000" d="M134.5607,-144.2022C120.4139,-134.9425 102.936,-123.5025 87.6887,-113.5224"/>
<polygon fill="#000000" stroke="#000000" points="89.295,-110.3907 79.0111,-107.8425 85.4613,-116.2476 89.295,-110.3907"/>
<g id="a_edge2&#45;headlabel"><a xlink:href="dir_000023_000025.html" target="_top" xlink:title="1">
<text text-anchor="middle" x="93.8575" y="-106.9837" font-family="Helvetica,sans-Serif" font-size="10.00" fill="#000000">1</text>
</a>
</g>
</g>
<!-- dir_68267d1309a1af8e8297ef4c3efbcdba&#45;&gt;dir_7d604191edc08013a26f918aa8ef79ad -->
<g id="edge3" class="edge">
<title>dir_68267d1309a1af8e8297ef4c3efbcdba&#45;&gt;dir_7d604191edc08013a26f918aa8ef79ad</title>
<path fill="none" stroke="#000000" d="M169.9305,-143.8314C175.6298,-135.454 183.2963,-125.3531 190.872,-116.1749"/>
<polygon fill="#000000" stroke="#000000" points="193.6557,-118.3038 197.4542,-108.4133 188.317,-113.7763 193.6557,-118.3038"/>
<g id="a_edge3&#45;headlabel"><a xlink:href="dir_000023_000019.html" target="_top" xlink:title="4">
<text text-anchor="middle" x="193.4963" y="-119.8817" font-family="Helvetica,sans-Serif" font-size="10.00" fill="#000000">4</text>
</a>
</g>
</g>
<!-- dir_23ec12649285f9fabf3a6b7380226c28&#45;&gt;dir_68267d1309a1af8e8297ef4c3efbcdba -->
<g id="edge4" class="edge">
<title>dir_23ec12649285f9fabf3a6b7380226c28&#45;&gt;dir_68267d1309a1af8e8297ef4c3efbcdba</title>
<path fill="none" stroke="#000000" d="M159.415,-36.0896C163.2437,-60.5727 165.9687,-104.5174 165.6757,-133.4713"/>
<polygon fill="#000000" stroke="#000000" points="162.1694,-133.6758 165.4117,-143.7623 169.1671,-133.8554 162.1694,-133.6758"/>
<g id="a_edge4&#45;headlabel"><a xlink:href="dir_000026_000023.html" target="_top" xlink:title="6">
<text text-anchor="middle" x="159.4231" y="-127.0096" font-family="Helvetica,sans-Serif" font-size="10.00" fill="#000000">6</text>
</a>
</g>
</g>
<!-- dir_7d604191edc08013a26f918aa8ef79ad&#45;&gt;dir_68267d1309a1af8e8297ef4c3efbcdba -->
<g id="edge7" class="edge">
<title>dir_7d604191edc08013a26f918aa8ef79ad&#45;&gt;dir_68267d1309a1af8e8297ef4c3efbcdba</title>
<path fill="none" stroke="#000000" d="M209.4063,-108.4133C203.6689,-116.8239 195.9843,-126.9323 188.4106,-136.0923"/>
<polygon fill="#000000" stroke="#000000" points="185.6429,-133.9444 181.8352,-143.8314 190.9774,-138.4768 185.6429,-133.9444"/>
<g id="a_edge7&#45;headlabel"><a xlink:href="dir_000019_000023.html" target="_top" xlink:title="4">
<text text-anchor="middle" x="185.8066" y="-126.3666" font-family="Helvetica,sans-Serif" font-size="10.00" fill="#000000">4</text>
</a>
</g>
</g>
<!-- dir_7d604191edc08013a26f918aa8ef79ad&#45;&gt;dir_23ec12649285f9fabf3a6b7380226c28 -->
<g id="edge8" class="edge">
<title>dir_7d604191edc08013a26f918aa8ef79ad&#45;&gt;dir_23ec12649285f9fabf3a6b7380226c28</title>
<path fill="none" stroke="#000000" d="M201.6018,-71.8314C194.08,-63.3694 184.9952,-53.1489 176.7713,-43.8971"/>
<polygon fill="#000000" stroke="#000000" points="179.3786,-41.5621 170.119,-36.4133 174.1468,-46.2127 179.3786,-41.5621"/>
<g id="a_edge8&#45;headlabel"><a xlink:href="dir_000019_000026.html" target="_top" xlink:title="2">
<text text-anchor="middle" x="183.8888" y="-39.3624" font-family="Helvetica,sans-Serif" font-size="10.00" fill="#000000">2</text>
</a>
</g>
</g>
<!-- dir_e58e4659d14cfa13982aff34da34673d&#45;&gt;dir_68267d1309a1af8e8297ef4c3efbcdba -->
<g id="edge9" class="edge">
<title>dir_e58e4659d14cfa13982aff34da34673d&#45;&gt;dir_68267d1309a1af8e8297ef4c3efbcdba</title>
<path fill="none" stroke="#000000" d="M125.1165,-215.8314C130.7025,-207.6232 137.4146,-197.7606 143.5589,-188.7323"/>
<polygon fill="#000000" stroke="#000000" points="146.4877,-190.6496 149.2204,-180.4133 140.7006,-186.7112 146.4877,-190.6496"/>
<g id="a_edge9&#45;headlabel"><a xlink:href="dir_000016_000023.html" target="_top" xlink:title="1">
<text text-anchor="middle" x="146.8125" y="-192.2187" font-family="Helvetica,sans-Serif" font-size="10.00" fill="#000000">1</text>
</a>
</g>
</g>
<!-- dir_e58e4659d14cfa13982aff34da34673d&#45;&gt;dir_23ec12649285f9fabf3a6b7380226c28 -->
<g id="edge10" class="edge">
<title>dir_e58e4659d14cfa13982aff34da34673d&#45;&gt;dir_23ec12649285f9fabf3a6b7380226c28</title>
<path fill="none" stroke="#000000" d="M114.9897,-215.6628C117.3114,-197.4295 121.2316,-168.6913 125.7517,-144 131.9581,-110.097 140.8141,-71.4496 146.8955,-45.997"/>
<polygon fill="#000000" stroke="#000000" points="150.2981,-46.8165 149.2369,-36.275 143.4927,-45.1775 150.2981,-46.8165"/>
<g id="a_edge10&#45;headlabel"><a xlink:href="dir_000016_000026.html" target="_top" xlink:title="1">
<text text-anchor="middle" x="152.2169" y="-47.976" font-family="Helvetica,sans-Serif" font-size="10.00" fill="#000000">1</text>
</a>
</g>
</g>
<!-- dir_e58e4659d14cfa13982aff34da34673d&#45;&gt;dir_7d604191edc08013a26f918aa8ef79ad -->
<g id="edge11" class="edge">
<title>dir_e58e4659d14cfa13982aff34da34673d&#45;&gt;dir_7d604191edc08013a26f918aa8ef79ad</title>
<path fill="none" stroke="#000000" d="M146.0361,-220.53C163.9813,-211.6087 185.0002,-198.1768 197.7517,-180 210.4127,-161.9522 215.2392,-137.2723 216.9966,-118.3212"/>
<polygon fill="#000000" stroke="#000000" points="220.4989,-118.4085 217.7002,-108.1901 213.5157,-117.9235 220.4989,-118.4085"/>
<g id="a_edge11&#45;headlabel"><a xlink:href="dir_000016_000019.html" target="_top" xlink:title="1">
<text text-anchor="middle" x="223.0824" y="-119.1912" font-family="Helvetica,sans-Serif" font-size="10.00" fill="#000000">1</text>
</a>
</g>
</g>
</g>
</svg>
