<?xml version="1.0" encoding="UTF-8" standalone="no"?>
<!DOCTYPE svg PUBLIC "-//W3C//DTD SVG 1.1//EN"
 "http://www.w3.org/Graphics/SVG/1.1/DTD/svg11.dtd">
<!-- Generated by graphviz version 2.40.1 (20161225.0304)
 -->
<!-- Title: components/include/dit.h Pages: 1 -->
<svg width="2372pt" height="312pt"
 viewBox="0.00 0.00 2371.66 312.00" xmlns="http://www.w3.org/2000/svg" xmlns:xlink="http://www.w3.org/1999/xlink">
<g id="graph0" class="graph" transform="scale(1 1) rotate(0) translate(4 308)">
<title>components/include/dit.h</title>
<polygon fill="#ffffff" stroke="transparent" points="-4,4 -4,-308 2367.6563,-308 2367.6563,4 -4,4"/>
<!-- Node0 -->
<g id="node1" class="node">
<title>Node0</title>
<polygon fill="#bfbfbf" stroke="#000000" points="1151.1479,-275.5 1151.1479,-303.5 1256.0933,-303.5 1256.0933,-275.5 1151.1479,-275.5"/>
<text text-anchor="start" x="1159.1479" y="-291.5" font-family="Helvetica,sans-Serif" font-size="10.00" fill="#000000">components/include</text>
<text text-anchor="middle" x="1203.6206" y="-281.5" font-family="Helvetica,sans-Serif" font-size="10.00" fill="#000000">/dit.h</text>
</g>
<!-- Node1 -->
<g id="node2" class="node">
<title>Node1</title>
<g id="a_node2"><a xlink:href="src_2include_2common_8h.html" target="_top" xlink:title="common.h">
<polygon fill="#ffffff" stroke="#000000" points="1185.2783,-110.5 1185.2783,-128.5 1247.9629,-128.5 1247.9629,-110.5 1185.2783,-110.5"/>
<text text-anchor="middle" x="1216.6206" y="-116.5" font-family="Helvetica,sans-Serif" font-size="10.00" fill="#000000">common.h</text>
</a>
</g>
</g>
<!-- Node0&#45;&gt;Node1 -->
<g id="edge1" class="edge">
<title>Node0&#45;&gt;Node1</title>
<path fill="none" stroke="#191970" d="M1215.8557,-275.125C1223.159,-265.5676 1231.7449,-252.3574 1235.6206,-239 1245.7227,-204.1839 1233.5712,-162.0045 1224.578,-138.21"/>
<polygon fill="#191970" stroke="#191970" points="1227.7231,-136.6485 1220.7595,-128.6636 1221.2238,-139.2483 1227.7231,-136.6485"/>
</g>
<!-- Node36 -->
<g id="node37" class="node">
<title>Node36</title>
<g id="a_node37"><a xlink:href="events_2include_2event_8h.html" target="_top" xlink:title="event.h">
<polygon fill="#ffffff" stroke="#000000" points="1080.2192,-220.5 1080.2192,-238.5 1129.022,-238.5 1129.022,-220.5 1080.2192,-220.5"/>
<text text-anchor="middle" x="1104.6206" y="-226.5" font-family="Helvetica,sans-Serif" font-size="10.00" fill="#000000">event.h</text>
</a>
</g>
</g>
<!-- Node0&#45;&gt;Node36 -->
<g id="edge43" class="edge">
<title>Node0&#45;&gt;Node36</title>
<path fill="none" stroke="#191970" d="M1180.4095,-275.4327C1164.7394,-265.9356 1144.1176,-253.4376 1128.3415,-243.8763"/>
<polygon fill="#191970" stroke="#191970" points="1130.0529,-240.8209 1119.6869,-238.6311 1126.4248,-246.8073 1130.0529,-240.8209"/>
</g>
<!-- Node40 -->
<g id="node41" class="node">
<title>Node40</title>
<g id="a_node41"><a xlink:href="hash_8h.html" target="_top" xlink:title="hash.h">
<polygon fill="#ffffff" stroke="#000000" points="1180.6084,-220.5 1180.6084,-238.5 1226.6328,-238.5 1226.6328,-220.5 1180.6084,-220.5"/>
<text text-anchor="middle" x="1203.6206" y="-226.5" font-family="Helvetica,sans-Serif" font-size="10.00" fill="#000000">hash.h</text>
</a>
</g>
</g>
<!-- Node0&#45;&gt;Node40 -->
<g id="edge50" class="edge">
<title>Node0&#45;&gt;Node40</title>
<path fill="none" stroke="#191970" d="M1203.6206,-275.2808C1203.6206,-267.3776 1203.6206,-257.4316 1203.6206,-248.8308"/>
<polygon fill="#191970" stroke="#191970" points="1207.1207,-248.5842 1203.6206,-238.5842 1200.1207,-248.5842 1207.1207,-248.5842"/>
</g>
<!-- Node2 -->
<g id="node3" class="node">
<title>Node2</title>
<polygon fill="#ffffff" stroke="#bfbfbf" points="598.8892,-.5 598.8892,-18.5 644.3521,-18.5 644.3521,-.5 598.8892,-.5"/>
<text text-anchor="middle" x="621.6206" y="-6.5" font-family="Helvetica,sans-Serif" font-size="10.00" fill="#000000">stdio.h</text>
</g>
<!-- Node1&#45;&gt;Node2 -->
<g id="edge2" class="edge">
<title>Node1&#45;&gt;Node2</title>
<path fill="none" stroke="#191970" d="M1248.1895,-118.8408C1390.2825,-115.7232 1964.7347,-101.4523 1990.6206,-74 1996.4139,-67.8562 1996.4917,-61.0695 1990.6206,-55 1978.6287,-42.6029 863.0945,-15.285 654.8832,-10.2917"/>
<polygon fill="#191970" stroke="#191970" points="654.6707,-6.7857 644.5898,-10.0453 654.5032,-13.7837 654.6707,-6.7857"/>
</g>
<!-- Node3 -->
<g id="node4" class="node">
<title>Node3</title>
<polygon fill="#ffffff" stroke="#bfbfbf" points="161.1084,-55.5 161.1084,-73.5 212.1328,-73.5 212.1328,-55.5 161.1084,-55.5"/>
<text text-anchor="middle" x="186.6206" y="-61.5" font-family="Helvetica,sans-Serif" font-size="10.00" fill="#000000">unistd.h</text>
</g>
<!-- Node1&#45;&gt;Node3 -->
<g id="edge3" class="edge">
<title>Node1&#45;&gt;Node3</title>
<path fill="none" stroke="#191970" d="M1184.8011,-119.0168C1038.9622,-116.6562 432.8721,-105.2204 222.4889,-73.9292"/>
<polygon fill="#191970" stroke="#191970" points="222.8929,-70.4501 212.4746,-72.3758 221.8199,-77.3674 222.8929,-70.4501"/>
</g>
<!-- Node4 -->
<g id="node5" class="node">
<title>Node4</title>
<polygon fill="#ffffff" stroke="#bfbfbf" points="229.7783,-55.5 229.7783,-73.5 277.4629,-73.5 277.4629,-55.5 229.7783,-55.5"/>
<text text-anchor="middle" x="253.6206" y="-61.5" font-family="Helvetica,sans-Serif" font-size="10.00" fill="#000000">stdlib.h</text>
</g>
<!-- Node1&#45;&gt;Node4 -->
<g id="edge4" class="edge">
<title>Node1&#45;&gt;Node4</title>
<path fill="none" stroke="#191970" d="M1185.0317,-118.9355C1045.7247,-116.2981 484.8545,-104.0924 287.5796,-73.707"/>
<polygon fill="#191970" stroke="#191970" points="288.0524,-70.2382 277.6234,-72.1056 286.9406,-77.1493 288.0524,-70.2382"/>
</g>
<!-- Node5 -->
<g id="node6" class="node">
<title>Node5</title>
<polygon fill="#ffffff" stroke="#bfbfbf" points="1115.5542,-.5 1115.5542,-18.5 1167.687,-18.5 1167.687,-.5 1115.5542,-.5"/>
<text text-anchor="middle" x="1141.6206" y="-6.5" font-family="Helvetica,sans-Serif" font-size="10.00" fill="#000000">stdarg.h</text>
</g>
<!-- Node1&#45;&gt;Node5 -->
<g id="edge5" class="edge">
<title>Node1&#45;&gt;Node5</title>
<path fill="none" stroke="#191970" d="M1248.0628,-118.9217C1393.6665,-116.0941 1996.5102,-102.682 2023.6206,-74 2029.4212,-67.8631 2029.4359,-61.123 2023.6206,-55 1994.0744,-23.8903 1341.7849,-12.3964 1178.4468,-10.0005"/>
<polygon fill="#191970" stroke="#191970" points="1178.0251,-6.4941 1167.9756,-9.8496 1177.9241,-13.4934 1178.0251,-6.4941"/>
</g>
<!-- Node6 -->
<g id="node7" class="node">
<title>Node6</title>
<polygon fill="#ffffff" stroke="#bfbfbf" points="295.5,-55.5 295.5,-73.5 343.7412,-73.5 343.7412,-55.5 295.5,-55.5"/>
<text text-anchor="middle" x="319.6206" y="-61.5" font-family="Helvetica,sans-Serif" font-size="10.00" fill="#000000">stdint.h</text>
</g>
<!-- Node1&#45;&gt;Node6 -->
<g id="edge6" class="edge">
<title>Node1&#45;&gt;Node6</title>
<path fill="none" stroke="#191970" d="M1185.0724,-118.7654C1052.3453,-115.5349 538.0988,-101.5775 354.0693,-73.6024"/>
<polygon fill="#191970" stroke="#191970" points="354.4161,-70.1136 343.9907,-72.0007 353.3174,-77.0269 354.4161,-70.1136"/>
</g>
<!-- Node7 -->
<g id="node8" class="node">
<title>Node7</title>
<polygon fill="#ffffff" stroke="#bfbfbf" points="362.2241,-55.5 362.2241,-73.5 411.0171,-73.5 411.0171,-55.5 362.2241,-55.5"/>
<text text-anchor="middle" x="386.6206" y="-61.5" font-family="Helvetica,sans-Serif" font-size="10.00" fill="#000000">string.h</text>
</g>
<!-- Node1&#45;&gt;Node7 -->
<g id="edge7" class="edge">
<title>Node1&#45;&gt;Node7</title>
<path fill="none" stroke="#191970" d="M1184.9059,-118.6351C1058.5474,-115.0463 590.0482,-100.3423 421.3098,-73.8962"/>
<polygon fill="#191970" stroke="#191970" points="421.7843,-70.4273 411.3493,-72.2607 420.6501,-77.3348 421.7843,-70.4273"/>
</g>
<!-- Node8 -->
<g id="node9" class="node">
<title>Node8</title>
<polygon fill="#ffffff" stroke="#bfbfbf" points="428.7241,-55.5 428.7241,-73.5 482.5171,-73.5 482.5171,-55.5 428.7241,-55.5"/>
<text text-anchor="middle" x="455.6206" y="-61.5" font-family="Helvetica,sans-Serif" font-size="10.00" fill="#000000">strings.h</text>
</g>
<!-- Node1&#45;&gt;Node8 -->
<g id="edge8" class="edge">
<title>Node1&#45;&gt;Node8</title>
<path fill="none" stroke="#191970" d="M1184.9416,-118.3366C1066.3091,-113.8548 647.6544,-96.8847 492.8704,-73.8304"/>
<polygon fill="#191970" stroke="#191970" points="493.0458,-70.3155 482.6257,-72.2317 491.9664,-77.2318 493.0458,-70.3155"/>
</g>
<!-- Node9 -->
<g id="node10" class="node">
<title>Node9</title>
<polygon fill="#ffffff" stroke="#bfbfbf" points="500.4927,-55.5 500.4927,-73.5 558.7485,-73.5 558.7485,-55.5 500.4927,-55.5"/>
<text text-anchor="middle" x="529.6206" y="-61.5" font-family="Helvetica,sans-Serif" font-size="10.00" fill="#000000">pthread.h</text>
</g>
<!-- Node1&#45;&gt;Node9 -->
<g id="edge9" class="edge">
<title>Node1&#45;&gt;Node9</title>
<path fill="none" stroke="#191970" d="M1184.9937,-119.2371C1091.8671,-118.0511 810.5522,-111.5158 568.9958,-73.9575"/>
<polygon fill="#191970" stroke="#191970" points="569.3974,-70.4777 558.9744,-72.3777 568.3073,-77.3923 569.3974,-70.4777"/>
</g>
<!-- Node10 -->
<g id="node11" class="node">
<title>Node10</title>
<polygon fill="#ffffff" stroke="#bfbfbf" points="576.5,-55.5 576.5,-73.5 624.7412,-73.5 624.7412,-55.5 576.5,-55.5"/>
<text text-anchor="middle" x="600.6206" y="-61.5" font-family="Helvetica,sans-Serif" font-size="10.00" fill="#000000">ctype.h</text>
</g>
<!-- Node1&#45;&gt;Node10 -->
<g id="edge10" class="edge">
<title>Node1&#45;&gt;Node10</title>
<path fill="none" stroke="#191970" d="M1185.1798,-117.8879C1082.8937,-112.5151 759.495,-94.4876 635.0157,-73.8594"/>
<polygon fill="#191970" stroke="#191970" points="635.4508,-70.3825 624.9984,-72.1137 634.249,-77.2786 635.4508,-70.3825"/>
</g>
<!-- Node11 -->
<g id="node12" class="node">
<title>Node11</title>
<polygon fill="#ffffff" stroke="#bfbfbf" points="642.7783,-55.5 642.7783,-73.5 690.4629,-73.5 690.4629,-55.5 642.7783,-55.5"/>
<text text-anchor="middle" x="666.6206" y="-61.5" font-family="Helvetica,sans-Serif" font-size="10.00" fill="#000000">errno.h</text>
</g>
<!-- Node1&#45;&gt;Node11 -->
<g id="edge11" class="edge">
<title>Node1&#45;&gt;Node11</title>
<path fill="none" stroke="#191970" d="M1185.0806,-118.9296C1105.1984,-117.0199 888.4458,-108.9396 700.657,-74.0807"/>
<polygon fill="#191970" stroke="#191970" points="701.0813,-70.5991 690.6057,-72.1837 699.7831,-77.4777 701.0813,-70.5991"/>
</g>
<!-- Node12 -->
<g id="node13" class="node">
<title>Node12</title>
<polygon fill="#ffffff" stroke="#bfbfbf" points="708.0049,-55.5 708.0049,-73.5 751.2363,-73.5 751.2363,-55.5 708.0049,-55.5"/>
<text text-anchor="middle" x="729.6206" y="-61.5" font-family="Helvetica,sans-Serif" font-size="10.00" fill="#000000">time.h</text>
</g>
<!-- Node1&#45;&gt;Node12 -->
<g id="edge12" class="edge">
<title>Node1&#45;&gt;Node12</title>
<path fill="none" stroke="#191970" d="M1185.0665,-118.4985C1112.0563,-115.7264 925.8312,-106.0467 761.7726,-73.8436"/>
<polygon fill="#191970" stroke="#191970" points="761.9902,-70.318 751.4983,-71.7911 760.6188,-77.1823 761.9902,-70.318"/>
</g>
<!-- Node13 -->
<g id="node14" class="node">
<title>Node13</title>
<polygon fill="#ffffff" stroke="#bfbfbf" points="769.2808,-55.5 769.2808,-73.5 811.9604,-73.5 811.9604,-55.5 769.2808,-55.5"/>
<text text-anchor="middle" x="790.6206" y="-61.5" font-family="Helvetica,sans-Serif" font-size="10.00" fill="#000000">fcntl.h</text>
</g>
<!-- Node1&#45;&gt;Node13 -->
<g id="edge13" class="edge">
<title>Node1&#45;&gt;Node13</title>
<path fill="none" stroke="#191970" d="M1185.0738,-117.8271C1119.2899,-113.9213 962.6427,-102.4451 822.2484,-73.7503"/>
<polygon fill="#191970" stroke="#191970" points="822.6727,-70.2637 812.1695,-71.6544 821.2475,-77.1171 822.6727,-70.2637"/>
</g>
<!-- Node14 -->
<g id="node15" class="node">
<title>Node14</title>
<polygon fill="#ffffff" stroke="#bfbfbf" points="830.3867,-55.5 830.3867,-73.5 880.8545,-73.5 880.8545,-55.5 830.3867,-55.5"/>
<text text-anchor="middle" x="855.6206" y="-61.5" font-family="Helvetica,sans-Serif" font-size="10.00" fill="#000000">signal.h</text>
</g>
<!-- Node1&#45;&gt;Node14 -->
<g id="edge14" class="edge">
<title>Node1&#45;&gt;Node14</title>
<path fill="none" stroke="#191970" d="M1185.2707,-116.553C1128.407,-110.9041 1004.3654,-97.1892 891.0305,-74.0745"/>
<polygon fill="#191970" stroke="#191970" points="891.6519,-70.629 881.15,-72.0295 890.233,-77.4837 891.6519,-70.629"/>
</g>
<!-- Node15 -->
<g id="node16" class="node">
<title>Node15</title>
<polygon fill="#ffffff" stroke="#bfbfbf" points="66.1157,-.5 66.1157,-18.5 127.1255,-18.5 127.1255,-.5 66.1157,-.5"/>
<text text-anchor="middle" x="96.6206" y="-6.5" font-family="Helvetica,sans-Serif" font-size="10.00" fill="#000000">sys/time.h</text>
</g>
<!-- Node1&#45;&gt;Node15 -->
<g id="edge15" class="edge">
<title>Node1&#45;&gt;Node15</title>
<path fill="none" stroke="#191970" d="M1185.0337,-118.8215C1004.4449,-114.8697 110.1123,-94.2952 90.6206,-74 79.2117,-62.1208 82.8202,-42.7239 87.9975,-28.2986"/>
<polygon fill="#191970" stroke="#191970" points="91.3147,-29.4332 91.8524,-18.852 84.8335,-26.7884 91.3147,-29.4332"/>
</g>
<!-- Node16 -->
<g id="node17" class="node">
<title>Node16</title>
<polygon fill="#ffffff" stroke="#bfbfbf" points="898.5024,-55.5 898.5024,-73.5 956.7388,-73.5 956.7388,-55.5 898.5024,-55.5"/>
<text text-anchor="middle" x="927.6206" y="-61.5" font-family="Helvetica,sans-Serif" font-size="10.00" fill="#000000">sys/stat.h</text>
</g>
<!-- Node1&#45;&gt;Node16 -->
<g id="edge16" class="edge">
<title>Node1&#45;&gt;Node16</title>
<path fill="none" stroke="#191970" d="M1185.1857,-114.4828C1139.3381,-107.0176 1051.241,-92.1169 967.0176,-74.1983"/>
<polygon fill="#191970" stroke="#191970" points="967.5463,-70.7322 957.0345,-72.056 966.0775,-77.5764 967.5463,-70.7322"/>
</g>
<!-- Node17 -->
<g id="node18" class="node">
<title>Node17</title>
<polygon fill="#ffffff" stroke="#bfbfbf" points="974.6108,-55.5 974.6108,-73.5 1040.6304,-73.5 1040.6304,-55.5 974.6108,-55.5"/>
<text text-anchor="middle" x="1007.6206" y="-61.5" font-family="Helvetica,sans-Serif" font-size="10.00" fill="#000000">sys/types.h</text>
</g>
<!-- Node1&#45;&gt;Node17 -->
<g id="edge17" class="edge">
<title>Node1&#45;&gt;Node17</title>
<path fill="none" stroke="#191970" d="M1184.878,-111.1467C1148.9802,-101.6999 1090.342,-86.2688 1050.4205,-75.7631"/>
<polygon fill="#191970" stroke="#191970" points="1051.2609,-72.3652 1040.6994,-73.205 1049.4794,-79.1347 1051.2609,-72.3652"/>
</g>
<!-- Node18 -->
<g id="node19" class="node">
<title>Node18</title>
<polygon fill="#ffffff" stroke="#bfbfbf" points="1058.6699,-55.5 1058.6699,-73.5 1118.5713,-73.5 1118.5713,-55.5 1058.6699,-55.5"/>
<text text-anchor="middle" x="1088.6206" y="-61.5" font-family="Helvetica,sans-Serif" font-size="10.00" fill="#000000">sys/ioctl.h</text>
</g>
<!-- Node1&#45;&gt;Node18 -->
<g id="edge18" class="edge">
<title>Node1&#45;&gt;Node18</title>
<path fill="none" stroke="#191970" d="M1195.484,-110.4179C1174.6396,-101.4613 1142.5683,-87.6806 1118.9962,-77.552"/>
<polygon fill="#191970" stroke="#191970" points="1120.3581,-74.3278 1109.7886,-73.5956 1117.5946,-80.7592 1120.3581,-74.3278"/>
</g>
<!-- Node19 -->
<g id="node20" class="node">
<title>Node19</title>
<polygon fill="#ffffff" stroke="#bfbfbf" points="1136.1108,-55.5 1136.1108,-73.5 1207.1304,-73.5 1207.1304,-55.5 1136.1108,-55.5"/>
<text text-anchor="middle" x="1171.6206" y="-61.5" font-family="Helvetica,sans-Serif" font-size="10.00" fill="#000000">sys/socket.h</text>
</g>
<!-- Node1&#45;&gt;Node19 -->
<g id="edge19" class="edge">
<title>Node1&#45;&gt;Node19</title>
<path fill="none" stroke="#191970" d="M1209.1898,-110.4179C1202.8444,-102.6624 1193.5397,-91.29 1185.778,-81.8035"/>
<polygon fill="#191970" stroke="#191970" points="1188.2542,-79.3027 1179.2129,-73.7795 1182.8364,-83.7354 1188.2542,-79.3027"/>
</g>
<!-- Node20 -->
<g id="node21" class="node">
<title>Node20</title>
<polygon fill="#ffffff" stroke="#bfbfbf" points="1225,-55.5 1225,-73.5 1298.2412,-73.5 1298.2412,-55.5 1225,-55.5"/>
<text text-anchor="middle" x="1261.6206" y="-61.5" font-family="Helvetica,sans-Serif" font-size="10.00" fill="#000000">sys/sysinfo.h</text>
</g>
<!-- Node1&#45;&gt;Node20 -->
<g id="edge20" class="edge">
<title>Node1&#45;&gt;Node20</title>
<path fill="none" stroke="#191970" d="M1224.0514,-110.4179C1230.3968,-102.6624 1239.7015,-91.29 1247.4632,-81.8035"/>
<polygon fill="#191970" stroke="#191970" points="1250.4048,-83.7354 1254.0283,-73.7795 1244.9871,-79.3027 1250.4048,-83.7354"/>
</g>
<!-- Node21 -->
<g id="node22" class="node">
<title>Node21</title>
<polygon fill="#ffffff" stroke="#bfbfbf" points="1315.9927,-55.5 1315.9927,-73.5 1379.2485,-73.5 1379.2485,-55.5 1315.9927,-55.5"/>
<text text-anchor="middle" x="1347.6206" y="-61.5" font-family="Helvetica,sans-Serif" font-size="10.00" fill="#000000">arpa/inet.h</text>
</g>
<!-- Node1&#45;&gt;Node21 -->
<g id="edge21" class="edge">
<title>Node1&#45;&gt;Node21</title>
<path fill="none" stroke="#191970" d="M1238.2526,-110.4179C1259.5856,-101.4613 1292.4085,-87.6806 1316.5331,-77.552"/>
<polygon fill="#191970" stroke="#191970" points="1318.0911,-80.6939 1325.9565,-73.5956 1315.3812,-74.2397 1318.0911,-80.6939"/>
</g>
<!-- Node22 -->
<g id="node23" class="node">
<title>Node22</title>
<polygon fill="#ffffff" stroke="#bfbfbf" points="1397.1577,-55.5 1397.1577,-73.5 1462.0835,-73.5 1462.0835,-55.5 1397.1577,-55.5"/>
<text text-anchor="middle" x="1429.6206" y="-61.5" font-family="Helvetica,sans-Serif" font-size="10.00" fill="#000000">netinet/in.h</text>
</g>
<!-- Node1&#45;&gt;Node22 -->
<g id="edge22" class="edge">
<title>Node1&#45;&gt;Node22</title>
<path fill="none" stroke="#191970" d="M1248.0495,-111.3846C1284.9324,-101.8608 1346.2562,-86.026 1387.2996,-75.428"/>
<polygon fill="#191970" stroke="#191970" points="1388.2059,-78.8088 1397.0132,-72.9197 1386.4557,-72.0311 1388.2059,-78.8088"/>
</g>
<!-- Node23 -->
<g id="node24" class="node">
<title>Node23</title>
<polygon fill="#ffffff" stroke="#bfbfbf" points="1479.7637,-55.5 1479.7637,-73.5 1557.4775,-73.5 1557.4775,-55.5 1479.7637,-55.5"/>
<text text-anchor="middle" x="1518.6206" y="-61.5" font-family="Helvetica,sans-Serif" font-size="10.00" fill="#000000">net/ethernet.h</text>
</g>
<!-- Node1&#45;&gt;Node23 -->
<g id="edge23" class="edge">
<title>Node1&#45;&gt;Node23</title>
<path fill="none" stroke="#191970" d="M1248.3332,-114.0095C1294.6539,-105.9485 1383.7838,-90.2814 1469.6846,-74.151"/>
<polygon fill="#191970" stroke="#191970" points="1470.4196,-77.5742 1479.5993,-72.2844 1469.1244,-70.6951 1470.4196,-77.5742"/>
</g>
<!-- Node24 -->
<g id="node25" class="node">
<title>Node24</title>
<polygon fill="#ffffff" stroke="#bfbfbf" points="1575.1577,-55.5 1575.1577,-73.5 1640.0835,-73.5 1640.0835,-55.5 1575.1577,-55.5"/>
<text text-anchor="middle" x="1607.6206" y="-61.5" font-family="Helvetica,sans-Serif" font-size="10.00" fill="#000000">netinet/ip.h</text>
</g>
<!-- Node1&#45;&gt;Node24 -->
<g id="edge24" class="edge">
<title>Node1&#45;&gt;Node24</title>
<path fill="none" stroke="#191970" d="M1248.1544,-116.4522C1308.0605,-110.4365 1442.5952,-95.8465 1565.0837,-74.1409"/>
<polygon fill="#191970" stroke="#191970" points="1565.7815,-77.5717 1575.0069,-72.3618 1564.5461,-70.6815 1565.7815,-77.5717"/>
</g>
<!-- Node25 -->
<g id="node26" class="node">
<title>Node25</title>
<polygon fill="#ffffff" stroke="#bfbfbf" points="1658.3794,-55.5 1658.3794,-73.5 1728.8618,-73.5 1728.8618,-55.5 1658.3794,-55.5"/>
<text text-anchor="middle" x="1693.6206" y="-61.5" font-family="Helvetica,sans-Serif" font-size="10.00" fill="#000000">netinet/tcp.h</text>
</g>
<!-- Node1&#45;&gt;Node25 -->
<g id="edge25" class="edge">
<title>Node1&#45;&gt;Node25</title>
<path fill="none" stroke="#191970" d="M1248.2046,-117.2955C1318.2297,-112.1684 1491.9555,-98.1289 1648.0558,-73.9227"/>
<polygon fill="#191970" stroke="#191970" points="1648.9746,-77.3214 1658.3111,-72.3135 1647.8894,-70.406 1648.9746,-77.3214"/>
</g>
<!-- Node26 -->
<g id="node27" class="node">
<title>Node26</title>
<polygon fill="#ffffff" stroke="#bfbfbf" points="1746.8203,-55.5 1746.8203,-73.5 1838.4209,-73.5 1838.4209,-55.5 1746.8203,-55.5"/>
<text text-anchor="middle" x="1792.6206" y="-61.5" font-family="Helvetica,sans-Serif" font-size="10.00" fill="#000000">netinet/ip_icmp.h</text>
</g>
<!-- Node1&#45;&gt;Node26 -->
<g id="edge26" class="edge">
<title>Node1&#45;&gt;Node26</title>
<path fill="none" stroke="#191970" d="M1248.1395,-117.6727C1328.0508,-112.8428 1545.2194,-98.4895 1736.7803,-74.0061"/>
<polygon fill="#191970" stroke="#191970" points="1737.2784,-77.4709 1746.7482,-72.7198 1736.3825,-70.5284 1737.2784,-77.4709"/>
</g>
<!-- Node27 -->
<g id="node28" class="node">
<title>Node27</title>
<g id="a_node28"><a xlink:href="mac2int_8h.html" target="_top" xlink:title="mac2int.h">
<polygon fill="#ffffff" stroke="#000000" points="1855.9434,-55.5 1855.9434,-73.5 1915.2979,-73.5 1915.2979,-55.5 1855.9434,-55.5"/>
<text text-anchor="middle" x="1885.6206" y="-61.5" font-family="Helvetica,sans-Serif" font-size="10.00" fill="#000000">mac2int.h</text>
</a>
</g>
</g>
<!-- Node1&#45;&gt;Node27 -->
<g id="edge27" class="edge">
<title>Node1&#45;&gt;Node27</title>
<path fill="none" stroke="#191970" d="M1248.2065,-119.0809C1340.1143,-117.4846 1614.1154,-109.8807 1838.6206,-74 1840.9436,-73.6287 1843.3327,-73.1843 1845.7497,-72.6933"/>
<polygon fill="#191970" stroke="#191970" points="1846.7392,-76.0591 1855.7465,-70.4807 1845.2264,-69.2245 1846.7392,-76.0591"/>
</g>
<!-- Node28 -->
<g id="node29" class="node">
<title>Node28</title>
<g id="a_node29"><a xlink:href="ip2int_8h.html" target="_top" xlink:title="ip2int.h">
<polygon fill="#ffffff" stroke="#000000" points="1933.4976,-55.5 1933.4976,-73.5 1981.7437,-73.5 1981.7437,-55.5 1933.4976,-55.5"/>
<text text-anchor="middle" x="1957.6206" y="-61.5" font-family="Helvetica,sans-Serif" font-size="10.00" fill="#000000">ip2int.h</text>
</a>
</g>
</g>
<!-- Node1&#45;&gt;Node28 -->
<g id="edge29" class="edge">
<title>Node1&#45;&gt;Node28</title>
<path fill="none" stroke="#191970" d="M1248.2236,-118.2485C1366.7918,-113.6714 1783.9583,-96.9043 1915.6206,-74 1918.0875,-73.5708 1920.6332,-73.0268 1923.2052,-72.4171"/>
<polygon fill="#191970" stroke="#191970" points="1924.3405,-75.7387 1933.1445,-69.8446 1922.5864,-68.962 1924.3405,-75.7387"/>
</g>
<!-- Node29 -->
<g id="node30" class="node">
<title>Node29</title>
<g id="a_node30"><a xlink:href="database_8h.html" target="_top" xlink:title="database.h">
<polygon fill="#ffffff" stroke="#000000" points="2281.877,-55.5 2281.877,-73.5 2347.3643,-73.5 2347.3643,-55.5 2281.877,-55.5"/>
<text text-anchor="middle" x="2314.6206" y="-61.5" font-family="Helvetica,sans-Serif" font-size="10.00" fill="#000000">database.h</text>
</a>
</g>
</g>
<!-- Node1&#45;&gt;Node29 -->
<g id="edge31" class="edge">
<title>Node1&#45;&gt;Node29</title>
<path fill="none" stroke="#191970" d="M1247.9742,-118.8766C1399.9953,-115.8696 2060.1016,-101.8529 2264.6206,-74 2266.9419,-73.6839 2269.3248,-73.2979 2271.7353,-72.8646"/>
<polygon fill="#191970" stroke="#191970" points="2272.59,-76.2631 2281.7118,-70.8739 2271.2202,-69.3984 2272.59,-76.2631"/>
</g>
<!-- Node31 -->
<g id="node32" class="node">
<title>Node31</title>
<polygon fill="#ffffff" stroke="#bfbfbf" points="2075.2168,-55.5 2075.2168,-73.5 2134.0244,-73.5 2134.0244,-55.5 2075.2168,-55.5"/>
<text text-anchor="middle" x="2104.6206" y="-61.5" font-family="Helvetica,sans-Serif" font-size="10.00" fill="#000000">jansson.h</text>
</g>
<!-- Node1&#45;&gt;Node31 -->
<g id="edge35" class="edge">
<title>Node1&#45;&gt;Node31</title>
<path fill="none" stroke="#191970" d="M1248.3738,-118.487C1382.0853,-114.1137 1899.8615,-96.0726 2061.6206,-74 2062.719,-73.8501 2063.8309,-73.6867 2064.9513,-73.5119"/>
<polygon fill="#191970" stroke="#191970" points="2065.9042,-76.8968 2075.1269,-71.6821 2064.6653,-70.0072 2065.9042,-76.8968"/>
</g>
<!-- Node32 -->
<g id="node33" class="node">
<title>Node32</title>
<g id="a_node33"><a xlink:href="libcli_8h.html" target="_top" xlink:title="libcli.h">
<polygon fill="#ffffff" stroke="#000000" points="99.7266,-55.5 99.7266,-73.5 143.5146,-73.5 143.5146,-55.5 99.7266,-55.5"/>
<text text-anchor="middle" x="121.6206" y="-61.5" font-family="Helvetica,sans-Serif" font-size="10.00" fill="#000000">libcli.h</text>
</a>
</g>
</g>
<!-- Node1&#45;&gt;Node32 -->
<g id="edge36" class="edge">
<title>Node1&#45;&gt;Node32</title>
<path fill="none" stroke="#191970" d="M1185.168,-119.2736C1033.7197,-118.0154 378.0619,-110.6146 153.7702,-73.9328"/>
<polygon fill="#191970" stroke="#191970" points="154.1839,-70.4529 143.7376,-72.2207 153.0063,-77.3531 154.1839,-70.4529"/>
</g>
<!-- Node33 -->
<g id="node34" class="node">
<title>Node33</title>
<polygon fill="#ffffff" stroke="#bfbfbf" points="2152.394,-55.5 2152.394,-73.5 2202.8472,-73.5 2202.8472,-55.5 2152.394,-55.5"/>
<text text-anchor="middle" x="2177.6206" y="-61.5" font-family="Helvetica,sans-Serif" font-size="10.00" fill="#000000">mysql.h</text>
</g>
<!-- Node1&#45;&gt;Node33 -->
<g id="edge40" class="edge">
<title>Node1&#45;&gt;Node33</title>
<path fill="none" stroke="#191970" d="M1248.0634,-118.8668C1386.7275,-115.9367 1945.0259,-102.6638 2142.1919,-73.6267"/>
<polygon fill="#191970" stroke="#191970" points="2142.7921,-77.0756 2152.1447,-72.0978 2141.7291,-70.1568 2142.7921,-77.0756"/>
</g>
<!-- Node34 -->
<g id="node35" class="node">
<title>Node34</title>
<polygon fill="#ffffff" stroke="#bfbfbf" points="2221.0049,-55.5 2221.0049,-73.5 2264.2363,-73.5 2264.2363,-55.5 2221.0049,-55.5"/>
<text text-anchor="middle" x="2242.6206" y="-61.5" font-family="Helvetica,sans-Serif" font-size="10.00" fill="#000000">zmq.h</text>
</g>
<!-- Node1&#45;&gt;Node34 -->
<g id="edge41" class="edge">
<title>Node1&#45;&gt;Node34</title>
<path fill="none" stroke="#191970" d="M1248.4257,-119.1208C1394.196,-117.2209 1999.9714,-107.5257 2210.7374,-73.6262"/>
<polygon fill="#191970" stroke="#191970" points="2211.4888,-77.0491 2220.771,-71.9411 2210.3294,-70.1458 2211.4888,-77.0491"/>
</g>
<!-- Node35 -->
<g id="node36" class="node">
<title>Node35</title>
<g id="a_node36"><a xlink:href="src_2include_2type_8h.html" target="_top" xlink:title="type.h">
<polygon fill="#ffffff" stroke="#000000" points="0,-55.5 0,-73.5 43.2412,-73.5 43.2412,-55.5 0,-55.5"/>
<text text-anchor="middle" x="21.6206" y="-61.5" font-family="Helvetica,sans-Serif" font-size="10.00" fill="#000000">type.h</text>
</a>
</g>
</g>
<!-- Node1&#45;&gt;Node35 -->
<g id="edge42" class="edge">
<title>Node1&#45;&gt;Node35</title>
<path fill="none" stroke="#191970" d="M1185.1481,-119.1949C1023.3657,-117.4851 284.1541,-107.9181 57.6206,-74 56.3261,-73.8062 55.0111,-73.5836 53.687,-73.338"/>
<polygon fill="#191970" stroke="#191970" points="54.0654,-69.8373 43.5461,-71.1003 52.557,-76.6729 54.0654,-69.8373"/>
</g>
<!-- Node27&#45;&gt;Node1 -->
<g id="edge28" class="edge">
<title>Node27&#45;&gt;Node1</title>
<path fill="none" stroke="#191970" d="M1859.4679,-73.5151C1858.5116,-73.6875 1857.5607,-73.8498 1856.6206,-74 1633.242,-109.7006 1360.8632,-117.4075 1258.2303,-119.0564"/>
<polygon fill="#191970" stroke="#191970" points="1257.9279,-115.5604 1247.9814,-119.2097 1258.0327,-122.5596 1257.9279,-115.5604"/>
</g>
<!-- Node28&#45;&gt;Node1 -->
<g id="edge30" class="edge">
<title>Node28&#45;&gt;Node1</title>
<path fill="none" stroke="#191970" d="M1936.1089,-73.5344C1935.274,-73.7011 1934.4429,-73.8569 1933.6206,-74 1802.9192,-96.7371 1390.8658,-113.4263 1258.1424,-118.1463"/>
<polygon fill="#191970" stroke="#191970" points="1257.856,-114.6541 1247.9851,-118.5034 1258.1019,-121.6498 1257.856,-114.6541"/>
</g>
<!-- Node29&#45;&gt;Node1 -->
<g id="edge32" class="edge">
<title>Node29&#45;&gt;Node1</title>
<path fill="none" stroke="#191970" d="M2285.6908,-73.5478C2284.6595,-73.7106 2283.6342,-73.862 2282.6206,-74 2079.8447,-101.6155 1429.2143,-115.6297 1258.1,-118.7974"/>
<polygon fill="#191970" stroke="#191970" points="1257.9255,-115.2999 1247.9911,-118.9821 1258.0534,-122.2987 1257.9255,-115.2999"/>
</g>
<!-- Node30 -->
<g id="node31" class="node">
<title>Node30</title>
<g id="a_node31"><a xlink:href="str_8h.html" target="_top" xlink:title="str.h">
<polygon fill="#ffffff" stroke="#000000" points="2327.1699,-.5 2327.1699,-18.5 2362.0713,-18.5 2362.0713,-.5 2327.1699,-.5"/>
<text text-anchor="middle" x="2344.6206" y="-6.5" font-family="Helvetica,sans-Serif" font-size="10.00" fill="#000000">str.h</text>
</a>
</g>
</g>
<!-- Node29&#45;&gt;Node30 -->
<g id="edge33" class="edge">
<title>Node29&#45;&gt;Node30</title>
<path fill="none" stroke="#191970" d="M2319.5745,-55.4179C2323.6753,-47.8998 2329.6299,-36.9829 2334.7043,-27.6799"/>
<polygon fill="#191970" stroke="#191970" points="2337.8431,-29.2344 2339.5591,-18.7795 2331.6979,-25.8824 2337.8431,-29.2344"/>
</g>
<!-- Node30&#45;&gt;Node1 -->
<g id="edge34" class="edge">
<title>Node30&#45;&gt;Node1</title>
<path fill="none" stroke="#191970" d="M2350.6494,-18.8056C2358.859,-32.758 2370.9836,-59.0523 2356.6206,-74 2337.2078,-94.2031 1461.0914,-114.2467 1258.24,-118.622"/>
<polygon fill="#191970" stroke="#191970" points="1257.9293,-115.1278 1248.0068,-118.8417 1258.0796,-122.1262 1257.9293,-115.1278"/>
</g>
<!-- Node32&#45;&gt;Node2 -->
<g id="edge38" class="edge">
<title>Node32&#45;&gt;Node2</title>
<path fill="none" stroke="#191970" d="M143.7637,-56.9166C146.3909,-56.1872 149.0514,-55.5251 151.6206,-55 313.4797,-21.9212 511.7565,-12.7261 588.8156,-10.3105"/>
<polygon fill="#191970" stroke="#191970" points="588.9761,-13.8074 598.8681,-10.0129 588.7689,-6.8105 588.9761,-13.8074"/>
</g>
<!-- Node32&#45;&gt;Node5 -->
<g id="edge37" class="edge">
<title>Node32&#45;&gt;Node5</title>
<path fill="none" stroke="#191970" d="M143.7391,-56.7876C146.3706,-56.0814 149.0389,-55.4599 151.6206,-55 339.9919,-21.4414 948.3109,-11.8502 1104.6945,-9.9112"/>
<polygon fill="#191970" stroke="#191970" points="1105.2042,-13.4053 1115.1611,-9.7845 1105.1194,-6.4059 1105.2042,-13.4053"/>
</g>
<!-- Node32&#45;&gt;Node15 -->
<g id="edge39" class="edge">
<title>Node32&#45;&gt;Node15</title>
<path fill="none" stroke="#191970" d="M117.4924,-55.4179C114.111,-47.9789 109.2171,-37.2123 105.018,-27.9742"/>
<polygon fill="#191970" stroke="#191970" points="108.1629,-26.4348 100.8385,-18.7795 101.7903,-29.3315 108.1629,-26.4348"/>
</g>
<!-- Node36&#45;&gt;Node1 -->
<g id="edge44" class="edge">
<title>Node36&#45;&gt;Node1</title>
<path fill="none" stroke="#191970" d="M1105.0661,-220.0665C1106.1791,-206.4211 1110.0658,-181.056 1123.6206,-165 1136.9876,-149.1665 1157.1749,-138.3665 1175.3292,-131.2774"/>
<polygon fill="#191970" stroke="#191970" points="1176.6681,-134.5148 1184.8691,-127.8071 1174.2751,-127.9365 1176.6681,-134.5148"/>
</g>
<!-- Node37 -->
<g id="node38" class="node">
<title>Node37</title>
<g id="a_node38"><a xlink:href="src_2include_2context_8h.html" target="_top" xlink:title="context.h">
<polygon fill="#ffffff" stroke="#000000" points="1132.3301,-165.5 1132.3301,-183.5 1188.9111,-183.5 1188.9111,-165.5 1132.3301,-165.5"/>
<text text-anchor="middle" x="1160.6206" y="-171.5" font-family="Helvetica,sans-Serif" font-size="10.00" fill="#000000">context.h</text>
</a>
</g>
</g>
<!-- Node36&#45;&gt;Node37 -->
<g id="edge45" class="edge">
<title>Node36&#45;&gt;Node37</title>
<path fill="none" stroke="#191970" d="M1113.8679,-220.4179C1122.0061,-212.425 1134.0559,-200.5903 1143.884,-190.9377"/>
<polygon fill="#191970" stroke="#191970" points="1146.4904,-193.2836 1151.1724,-183.7795 1141.5854,-188.2895 1146.4904,-193.2836"/>
</g>
<!-- Node38 -->
<g id="node39" class="node">
<title>Node38</title>
<g id="a_node39"><a xlink:href="events_2include_2event__id_8h.html" target="_top" xlink:title="event_id.h">
<polygon fill="#ffffff" stroke="#000000" points="1014.5469,-165.5 1014.5469,-183.5 1076.6943,-183.5 1076.6943,-165.5 1014.5469,-165.5"/>
<text text-anchor="middle" x="1045.6206" y="-171.5" font-family="Helvetica,sans-Serif" font-size="10.00" fill="#000000">event_id.h</text>
</a>
</g>
</g>
<!-- Node36&#45;&gt;Node38 -->
<g id="edge47" class="edge">
<title>Node36&#45;&gt;Node38</title>
<path fill="none" stroke="#191970" d="M1094.878,-220.4179C1086.2189,-212.3458 1073.3566,-200.3556 1062.947,-190.6517"/>
<polygon fill="#191970" stroke="#191970" points="1065.2762,-188.0381 1055.5749,-183.7795 1060.5031,-193.1584 1065.2762,-188.0381"/>
</g>
<!-- Node39 -->
<g id="node40" class="node">
<title>Node39</title>
<g id="a_node40"><a xlink:href="events_2include_2event__list_8h.html" target="_top" xlink:title="event_list.h">
<polygon fill="#ffffff" stroke="#000000" points="448.3276,-110.5 448.3276,-128.5 514.9136,-128.5 514.9136,-110.5 448.3276,-110.5"/>
<text text-anchor="middle" x="481.6206" y="-116.5" font-family="Helvetica,sans-Serif" font-size="10.00" fill="#000000">event_list.h</text>
</a>
</g>
</g>
<!-- Node36&#45;&gt;Node39 -->
<g id="edge48" class="edge">
<title>Node36&#45;&gt;Node39</title>
<path fill="none" stroke="#191970" d="M1080.1983,-225.1879C986.0922,-208.572 646.2051,-148.5599 524.9631,-127.1528"/>
<polygon fill="#191970" stroke="#191970" points="525.387,-123.6736 514.9308,-125.3814 524.1699,-130.5669 525.387,-123.6736"/>
</g>
<!-- Node37&#45;&gt;Node1 -->
<g id="edge46" class="edge">
<title>Node37&#45;&gt;Node1</title>
<path fill="none" stroke="#191970" d="M1169.8679,-165.4179C1178.0061,-157.425 1190.0559,-145.5903 1199.884,-135.9377"/>
<polygon fill="#191970" stroke="#191970" points="1202.4904,-138.2836 1207.1724,-128.7795 1197.5854,-133.2895 1202.4904,-138.2836"/>
</g>
<!-- Node39&#45;&gt;Node35 -->
<g id="edge49" class="edge">
<title>Node39&#45;&gt;Node35</title>
<path fill="none" stroke="#191970" d="M448.116,-117.6308C376.138,-113.2382 201.5922,-100.5637 57.6206,-74 56.3334,-73.7625 55.0245,-73.5031 53.7056,-73.2268"/>
<polygon fill="#191970" stroke="#191970" points="54.1207,-69.7295 43.5863,-70.8596 52.5261,-76.5455 54.1207,-69.7295"/>
</g>
<!-- Node40&#45;&gt;Node1 -->
<g id="edge51" class="edge">
<title>Node40&#45;&gt;Node1</title>
<path fill="none" stroke="#191970" d="M1204.6845,-220.4982C1206.7889,-202.6913 1211.5243,-162.6225 1214.3573,-138.6515"/>
<polygon fill="#191970" stroke="#191970" points="1217.8441,-138.9678 1215.5421,-128.6261 1210.8925,-138.1462 1217.8441,-138.9678"/>
</g>
</g>
</svg>
