<?xml version="1.0" encoding="UTF-8" standalone="no"?>
<!DOCTYPE svg PUBLIC "-//W3C//DTD SVG 1.1//EN"
 "http://www.w3.org/Graphics/SVG/1.1/DTD/svg11.dtd">
<!-- Generated by graphviz version 2.40.1 (20161225.0304)
 -->
<!-- Title: events/include/event_json.h Pages: 1 -->
<svg width="256pt" height="157pt"
 viewBox="0.00 0.00 256.22 157.00" xmlns="http://www.w3.org/2000/svg" xmlns:xlink="http://www.w3.org/1999/xlink">
<g id="graph0" class="graph" transform="scale(1 1) rotate(0) translate(4 153)">
<title>events/include/event_json.h</title>
<polygon fill="#ffffff" stroke="transparent" points="-4,4 -4,-153 252.2188,-153 252.2188,4 -4,4"/>
<!-- Node25 -->
<g id="node1" class="node">
<title>Node25</title>
<polygon fill="#bfbfbf" stroke="#000000" points="66,-120.5 66,-148.5 173.1719,-148.5 173.1719,-120.5 66,-120.5"/>
<text text-anchor="start" x="74" y="-136.5" font-family="Helvetica,sans-Serif" font-size="10.00" fill="#000000">events/include/event</text>
<text text-anchor="middle" x="119.5859" y="-126.5" font-family="Helvetica,sans-Serif" font-size="10.00" fill="#000000">_json.h</text>
</g>
<!-- Node26 -->
<g id="node2" class="node">
<title>Node26</title>
<g id="a_node2"><a xlink:href="event__msg__pack_8h.html" target="_top" xlink:title="events/include/event\l_msg_pack.h">
<polygon fill="#ffffff" stroke="#000000" points="0,-55.5 0,-83.5 107.1719,-83.5 107.1719,-55.5 0,-55.5"/>
<text text-anchor="start" x="8" y="-71.5" font-family="Helvetica,sans-Serif" font-size="10.00" fill="#000000">events/include/event</text>
<text text-anchor="middle" x="53.5859" y="-61.5" font-family="Helvetica,sans-Serif" font-size="10.00" fill="#000000">_msg_pack.h</text>
</a>
</g>
</g>
<!-- Node25&#45;&gt;Node26 -->
<g id="edge1" class="edge">
<title>Node25&#45;&gt;Node26</title>
<path fill="none" stroke="#191970" d="M98.0714,-113.3115C88.1712,-103.5612 76.6951,-92.259 67.879,-83.5765"/>
<polygon fill="#191970" stroke="#191970" points="95.6841,-115.8728 105.2649,-120.396 100.596,-110.8853 95.6841,-115.8728"/>
</g>
<!-- Node28 -->
<g id="node4" class="node">
<title>Node28</title>
<g id="a_node4"><a xlink:href="ext__comps_2shim_2event_8c.html" target="_top" xlink:title="ext_comps/shim/event.c">
<polygon fill="#ffffff" stroke="#000000" points="124.9531,-60.5 124.9531,-78.5 248.2188,-78.5 248.2188,-60.5 124.9531,-60.5"/>
<text text-anchor="middle" x="186.5859" y="-66.5" font-family="Helvetica,sans-Serif" font-size="10.00" fill="#000000">ext_comps/shim/event.c</text>
</a>
</g>
</g>
<!-- Node25&#45;&gt;Node28 -->
<g id="edge3" class="edge">
<title>Node25&#45;&gt;Node28</title>
<path fill="none" stroke="#191970" d="M141.3131,-113.4214C153.4598,-101.6373 167.9723,-87.558 177.2324,-78.5743"/>
<polygon fill="#191970" stroke="#191970" points="138.8642,-110.9207 134.1239,-120.396 143.7385,-115.9449 138.8642,-110.9207"/>
</g>
<!-- Node27 -->
<g id="node3" class="node">
<title>Node27</title>
<g id="a_node3"><a xlink:href="events_2event_8c.html" target="_top" xlink:title="events/event.c">
<polygon fill="#ffffff" stroke="#000000" points="13.3447,-.5 13.3447,-18.5 93.8271,-18.5 93.8271,-.5 13.3447,-.5"/>
<text text-anchor="middle" x="53.5859" y="-6.5" font-family="Helvetica,sans-Serif" font-size="10.00" fill="#000000">events/event.c</text>
</a>
</g>
</g>
<!-- Node26&#45;&gt;Node27 -->
<g id="edge2" class="edge">
<title>Node26&#45;&gt;Node27</title>
<path fill="none" stroke="#191970" d="M53.5859,-45.2151C53.5859,-35.8253 53.5859,-25.6598 53.5859,-18.5842"/>
<polygon fill="#191970" stroke="#191970" points="50.086,-45.2808 53.5859,-55.2808 57.086,-45.2809 50.086,-45.2808"/>
</g>
</g>
</svg>
