<?xml version="1.0" encoding="UTF-8" standalone="no"?>
<!DOCTYPE svg PUBLIC "-//W3C//DTD SVG 1.1//EN"
 "http://www.w3.org/Graphics/SVG/1.1/DTD/svg11.dtd">
<!-- Generated by graphviz version 2.40.1 (20161225.0304)
 -->
<!-- Title: events/include/event_msg_pack.h Pages: 1 -->
<svg width="1717pt" height="257pt"
 viewBox="0.00 0.00 1717.24 257.00" xmlns="http://www.w3.org/2000/svg" xmlns:xlink="http://www.w3.org/1999/xlink">
<g id="graph0" class="graph" transform="scale(1 1) rotate(0) translate(4 253)">
<title>events/include/event_msg_pack.h</title>
<polygon fill="#ffffff" stroke="transparent" points="-4,4 -4,-253 1713.2412,-253 1713.2412,4 -4,4"/>
<!-- Node0 -->
<g id="node1" class="node">
<title>Node0</title>
<polygon fill="#bfbfbf" stroke="#000000" points="1298.1455,-220.5 1298.1455,-248.5 1405.3174,-248.5 1405.3174,-220.5 1298.1455,-220.5"/>
<text text-anchor="start" x="1306.1455" y="-236.5" font-family="Helvetica,sans-Serif" font-size="10.00" fill="#000000">events/include/event</text>
<text text-anchor="middle" x="1351.7314" y="-226.5" font-family="Helvetica,sans-Serif" font-size="10.00" fill="#000000">_msg_pack.h</text>
</g>
<!-- Node1 -->
<g id="node2" class="node">
<title>Node1</title>
<g id="a_node2"><a xlink:href="events_2include_2event__json_8h.html" target="_top" xlink:title="event_json.h">
<polygon fill="#ffffff" stroke="#000000" points="1225.377,-165.5 1225.377,-183.5 1298.0859,-183.5 1298.0859,-165.5 1225.377,-165.5"/>
<text text-anchor="middle" x="1261.7314" y="-171.5" font-family="Helvetica,sans-Serif" font-size="10.00" fill="#000000">event_json.h</text>
</a>
</g>
</g>
<!-- Node0&#45;&gt;Node1 -->
<g id="edge1" class="edge">
<title>Node0&#45;&gt;Node1</title>
<path fill="none" stroke="#191970" d="M1330.4027,-220.2808C1316.4166,-210.9568 1298.1657,-198.7895 1283.9949,-189.3423"/>
<polygon fill="#191970" stroke="#191970" points="1285.6197,-186.2191 1275.3577,-183.5842 1281.7368,-192.0434 1285.6197,-186.2191"/>
</g>
<!-- Node26 -->
<g id="node27" class="node">
<title>Node26</title>
<g id="a_node27"><a xlink:href="events_2include_2event__epoll__env_8h.html" target="_top" xlink:title="event_epoll_env.h">
<polygon fill="#ffffff" stroke="#000000" points="1394.5117,-165.5 1394.5117,-183.5 1490.9512,-183.5 1490.9512,-165.5 1394.5117,-165.5"/>
<text text-anchor="middle" x="1442.7314" y="-171.5" font-family="Helvetica,sans-Serif" font-size="10.00" fill="#000000">event_epoll_env.h</text>
</a>
</g>
</g>
<!-- Node0&#45;&gt;Node26 -->
<g id="edge29" class="edge">
<title>Node0&#45;&gt;Node26</title>
<path fill="none" stroke="#191970" d="M1373.2972,-220.2808C1387.4387,-210.9568 1405.8923,-198.7895 1420.2206,-189.3423"/>
<polygon fill="#191970" stroke="#191970" points="1422.5317,-192.0108 1428.9538,-183.5842 1418.6785,-186.1668 1422.5317,-192.0108"/>
</g>
<!-- Node2 -->
<g id="node3" class="node">
<title>Node2</title>
<g id="a_node3"><a xlink:href="base64_8h.html" target="_top" xlink:title="base64.h">
<polygon fill="#ffffff" stroke="#000000" points="1175.1577,-110.5 1175.1577,-128.5 1232.3052,-128.5 1232.3052,-110.5 1175.1577,-110.5"/>
<text text-anchor="middle" x="1203.7314" y="-116.5" font-family="Helvetica,sans-Serif" font-size="10.00" fill="#000000">base64.h</text>
</a>
</g>
</g>
<!-- Node1&#45;&gt;Node2 -->
<g id="edge2" class="edge">
<title>Node1&#45;&gt;Node2</title>
<path fill="none" stroke="#191970" d="M1252.1539,-165.4179C1243.7251,-157.425 1231.2449,-145.5903 1221.0658,-135.9377"/>
<polygon fill="#191970" stroke="#191970" points="1223.1816,-133.1207 1213.5171,-128.7795 1218.365,-138.2001 1223.1816,-133.1207"/>
</g>
<!-- Node22 -->
<g id="node23" class="node">
<title>Node22</title>
<g id="a_node23"><a xlink:href="mac2int_8h.html" target="_top" xlink:title="mac2int.h">
<polygon fill="#ffffff" stroke="#000000" points="1536.0542,-.5 1536.0542,-18.5 1595.4087,-18.5 1595.4087,-.5 1536.0542,-.5"/>
<text text-anchor="middle" x="1565.7314" y="-6.5" font-family="Helvetica,sans-Serif" font-size="10.00" fill="#000000">mac2int.h</text>
</a>
</g>
</g>
<!-- Node1&#45;&gt;Node22 -->
<g id="edge28" class="edge">
<title>Node1&#45;&gt;Node22</title>
<path fill="none" stroke="#191970" d="M1261.9107,-165.311C1262.6741,-151.5108 1266.1081,-125.4127 1280.7314,-110 1298.1915,-91.5975 1451.9346,-43.6399 1526.0766,-21.2871"/>
<polygon fill="#191970" stroke="#191970" points="1527.418,-24.5387 1535.9876,-18.3087 1525.4034,-17.8348 1527.418,-24.5387"/>
</g>
<!-- Node3 -->
<g id="node4" class="node">
<title>Node3</title>
<g id="a_node4"><a xlink:href="src_2include_2common_8h.html" target="_top" xlink:title="common.h">
<polygon fill="#ffffff" stroke="#000000" points="867.3892,-55.5 867.3892,-73.5 930.0737,-73.5 930.0737,-55.5 867.3892,-55.5"/>
<text text-anchor="middle" x="898.7314" y="-61.5" font-family="Helvetica,sans-Serif" font-size="10.00" fill="#000000">common.h</text>
</a>
</g>
</g>
<!-- Node2&#45;&gt;Node3 -->
<g id="edge3" class="edge">
<title>Node2&#45;&gt;Node3</title>
<path fill="none" stroke="#191970" d="M1175.0378,-114.3257C1120.8156,-104.548 1003.1201,-83.3242 940.2639,-71.9895"/>
<polygon fill="#191970" stroke="#191970" points="940.759,-68.5224 930.2966,-70.1921 939.5167,-75.4113 940.759,-68.5224"/>
</g>
<!-- Node4 -->
<g id="node5" class="node">
<title>Node4</title>
<polygon fill="#ffffff" stroke="#bfbfbf" points="0,-.5 0,-18.5 45.4629,-18.5 45.4629,-.5 0,-.5"/>
<text text-anchor="middle" x="22.7314" y="-6.5" font-family="Helvetica,sans-Serif" font-size="10.00" fill="#000000">stdio.h</text>
</g>
<!-- Node3&#45;&gt;Node4 -->
<g id="edge4" class="edge">
<title>Node3&#45;&gt;Node4</title>
<path fill="none" stroke="#191970" d="M867.376,-63.8331C736.7038,-60.8999 234.3061,-48.0524 55.6361,-18.9046"/>
<polygon fill="#191970" stroke="#191970" points="56.0487,-15.4244 45.6018,-17.1886 54.8687,-22.3242 56.0487,-15.4244"/>
</g>
<!-- Node5 -->
<g id="node6" class="node">
<title>Node5</title>
<polygon fill="#ffffff" stroke="#bfbfbf" points="63.2192,-.5 63.2192,-18.5 114.2437,-18.5 114.2437,-.5 63.2192,-.5"/>
<text text-anchor="middle" x="88.7314" y="-6.5" font-family="Helvetica,sans-Serif" font-size="10.00" fill="#000000">unistd.h</text>
</g>
<!-- Node3&#45;&gt;Node5 -->
<g id="edge5" class="edge">
<title>Node3&#45;&gt;Node5</title>
<path fill="none" stroke="#191970" d="M867.0012,-63.5455C742.8019,-59.6721 288.8062,-44.1951 124.5234,-18.9396"/>
<polygon fill="#191970" stroke="#191970" points="125.0205,-15.4747 114.5912,-17.3404 123.9077,-22.3856 125.0205,-15.4747"/>
</g>
<!-- Node6 -->
<g id="node7" class="node">
<title>Node6</title>
<polygon fill="#ffffff" stroke="#bfbfbf" points="131.8892,-.5 131.8892,-18.5 179.5737,-18.5 179.5737,-.5 131.8892,-.5"/>
<text text-anchor="middle" x="155.7314" y="-6.5" font-family="Helvetica,sans-Serif" font-size="10.00" fill="#000000">stdlib.h</text>
</g>
<!-- Node3&#45;&gt;Node6 -->
<g id="edge6" class="edge">
<title>Node3&#45;&gt;Node6</title>
<path fill="none" stroke="#191970" d="M867.2849,-63.3902C750.5003,-59.1315 341.1032,-42.945 189.7585,-18.7433"/>
<polygon fill="#191970" stroke="#191970" points="190.183,-15.2657 179.7416,-17.0624 189.0245,-22.1692 190.183,-15.2657"/>
</g>
<!-- Node7 -->
<g id="node8" class="node">
<title>Node7</title>
<polygon fill="#ffffff" stroke="#bfbfbf" points="197.335,-.5 197.335,-18.5 246.1279,-18.5 246.1279,-.5 197.335,-.5"/>
<text text-anchor="middle" x="221.7314" y="-6.5" font-family="Helvetica,sans-Serif" font-size="10.00" fill="#000000">string.h</text>
</g>
<!-- Node3&#45;&gt;Node7 -->
<g id="edge7" class="edge">
<title>Node3&#45;&gt;Node7</title>
<path fill="none" stroke="#191970" d="M867.1727,-63.1486C757.6713,-58.3262 393.7491,-41.1512 256.7068,-18.9677"/>
<polygon fill="#191970" stroke="#191970" points="256.9122,-15.4524 246.4666,-17.2238 255.737,-22.353 256.9122,-15.4524"/>
</g>
<!-- Node8 -->
<g id="node9" class="node">
<title>Node8</title>
<polygon fill="#ffffff" stroke="#bfbfbf" points="263.665,-.5 263.665,-18.5 315.7979,-18.5 315.7979,-.5 263.665,-.5"/>
<text text-anchor="middle" x="289.7314" y="-6.5" font-family="Helvetica,sans-Serif" font-size="10.00" fill="#000000">stdarg.h</text>
</g>
<!-- Node3&#45;&gt;Node8 -->
<g id="edge8" class="edge">
<title>Node3&#45;&gt;Node8</title>
<path fill="none" stroke="#191970" d="M867.3658,-64.056C781.8402,-62.4141 537.3891,-54.8443 326.026,-18.9211"/>
<polygon fill="#191970" stroke="#191970" points="326.4364,-15.4402 315.9869,-17.1889 325.2462,-22.3383 326.4364,-15.4402"/>
</g>
<!-- Node9 -->
<g id="node10" class="node">
<title>Node9</title>
<polygon fill="#ffffff" stroke="#bfbfbf" points="333.6108,-.5 333.6108,-18.5 381.8521,-18.5 381.8521,-.5 333.6108,-.5"/>
<text text-anchor="middle" x="357.7314" y="-6.5" font-family="Helvetica,sans-Serif" font-size="10.00" fill="#000000">stdint.h</text>
</g>
<!-- Node3&#45;&gt;Node9 -->
<g id="edge9" class="edge">
<title>Node3&#45;&gt;Node9</title>
<path fill="none" stroke="#191970" d="M867.2316,-63.7653C788.4572,-61.4862 576.57,-52.6354 391.9955,-18.9158"/>
<polygon fill="#191970" stroke="#191970" points="392.5859,-15.4657 382.1151,-17.0818 391.3084,-22.3481 392.5859,-15.4657"/>
</g>
<!-- Node10 -->
<g id="node11" class="node">
<title>Node10</title>
<polygon fill="#ffffff" stroke="#bfbfbf" points="399.6035,-.5 399.6035,-18.5 457.8594,-18.5 457.8594,-.5 399.6035,-.5"/>
<text text-anchor="middle" x="428.7314" y="-6.5" font-family="Helvetica,sans-Serif" font-size="10.00" fill="#000000">pthread.h</text>
</g>
<!-- Node3&#45;&gt;Node10 -->
<g id="edge10" class="edge">
<title>Node3&#45;&gt;Node10</title>
<path fill="none" stroke="#191970" d="M867.3499,-62.7063C797.3708,-58.3847 623.1451,-45.842 468.2743,-19.0593"/>
<polygon fill="#191970" stroke="#191970" points="468.557,-15.5555 458.1025,-17.2746 467.3471,-22.4502 468.557,-15.5555"/>
</g>
<!-- Node11 -->
<g id="node12" class="node">
<title>Node11</title>
<polygon fill="#ffffff" stroke="#bfbfbf" points="475.6108,-.5 475.6108,-18.5 523.8521,-18.5 523.8521,-.5 475.6108,-.5"/>
<text text-anchor="middle" x="499.7314" y="-6.5" font-family="Helvetica,sans-Serif" font-size="10.00" fill="#000000">ctype.h</text>
</g>
<!-- Node3&#45;&gt;Node11 -->
<g id="edge11" class="edge">
<title>Node3&#45;&gt;Node11</title>
<path fill="none" stroke="#191970" d="M867.1281,-62.2477C805.0027,-57.4621 662.5309,-44.7188 534.1382,-19.0212"/>
<polygon fill="#191970" stroke="#191970" points="534.6308,-15.5498 524.1338,-16.9863 533.2355,-22.4093 534.6308,-15.5498"/>
</g>
<!-- Node12 -->
<g id="node13" class="node">
<title>Node12</title>
<polygon fill="#ffffff" stroke="#bfbfbf" points="541.8892,-.5 541.8892,-18.5 589.5737,-18.5 589.5737,-.5 541.8892,-.5"/>
<text text-anchor="middle" x="565.7314" y="-6.5" font-family="Helvetica,sans-Serif" font-size="10.00" fill="#000000">errno.h</text>
</g>
<!-- Node3&#45;&gt;Node12 -->
<g id="edge12" class="edge">
<title>Node3&#45;&gt;Node12</title>
<path fill="none" stroke="#191970" d="M867.2683,-61.1987C813.9256,-55.2891 702.2353,-41.5669 599.6477,-19.2098"/>
<polygon fill="#191970" stroke="#191970" points="600.2706,-15.7631 589.7505,-17.0193 598.7578,-22.5977 600.2706,-15.7631"/>
</g>
<!-- Node13 -->
<g id="node14" class="node">
<title>Node13</title>
<polygon fill="#ffffff" stroke="#bfbfbf" points="607.1035,-.5 607.1035,-18.5 670.3594,-18.5 670.3594,-.5 607.1035,-.5"/>
<text text-anchor="middle" x="638.7314" y="-6.5" font-family="Helvetica,sans-Serif" font-size="10.00" fill="#000000">arpa/inet.h</text>
</g>
<!-- Node3&#45;&gt;Node13 -->
<g id="edge13" class="edge">
<title>Node3&#45;&gt;Node13</title>
<path fill="none" stroke="#191970" d="M867.1313,-58.1705C826.3493,-49.9503 752.9519,-34.9821 680.2804,-19.0829"/>
<polygon fill="#191970" stroke="#191970" points="681.0172,-15.6614 670.4994,-16.9363 679.5166,-22.4987 681.0172,-15.6614"/>
</g>
<!-- Node14 -->
<g id="node15" class="node">
<title>Node14</title>
<polygon fill="#ffffff" stroke="#bfbfbf" points="688.2686,-.5 688.2686,-18.5 753.1943,-18.5 753.1943,-.5 688.2686,-.5"/>
<text text-anchor="middle" x="720.7314" y="-6.5" font-family="Helvetica,sans-Serif" font-size="10.00" fill="#000000">netinet/in.h</text>
</g>
<!-- Node3&#45;&gt;Node14 -->
<g id="edge14" class="edge">
<title>Node3&#45;&gt;Node14</title>
<path fill="none" stroke="#191970" d="M869.3384,-55.4179C839.3603,-46.155 792.6838,-31.7325 759.6519,-21.526"/>
<polygon fill="#191970" stroke="#191970" points="760.4599,-18.1124 749.8723,-18.5042 758.3934,-24.8005 760.4599,-18.1124"/>
</g>
<!-- Node15 -->
<g id="node16" class="node">
<title>Node15</title>
<polygon fill="#ffffff" stroke="#bfbfbf" points="770.8745,-.5 770.8745,-18.5 848.5884,-18.5 848.5884,-.5 770.8745,-.5"/>
<text text-anchor="middle" x="809.7314" y="-6.5" font-family="Helvetica,sans-Serif" font-size="10.00" fill="#000000">net/ethernet.h</text>
</g>
<!-- Node3&#45;&gt;Node15 -->
<g id="edge15" class="edge">
<title>Node3&#45;&gt;Node15</title>
<path fill="none" stroke="#191970" d="M884.0349,-55.4179C870.2501,-46.8992 849.4037,-34.0166 833.2966,-24.0627"/>
<polygon fill="#191970" stroke="#191970" points="834.7965,-20.8753 824.4498,-18.5956 831.1166,-26.83 834.7965,-20.8753"/>
</g>
<!-- Node16 -->
<g id="node17" class="node">
<title>Node16</title>
<polygon fill="#ffffff" stroke="#bfbfbf" points="866.2686,-.5 866.2686,-18.5 931.1943,-18.5 931.1943,-.5 866.2686,-.5"/>
<text text-anchor="middle" x="898.7314" y="-6.5" font-family="Helvetica,sans-Serif" font-size="10.00" fill="#000000">netinet/ip.h</text>
</g>
<!-- Node3&#45;&gt;Node16 -->
<g id="edge16" class="edge">
<title>Node3&#45;&gt;Node16</title>
<path fill="none" stroke="#191970" d="M898.7314,-55.4179C898.7314,-48.2164 898.7314,-37.8962 898.7314,-28.8632"/>
<polygon fill="#191970" stroke="#191970" points="902.2315,-28.7794 898.7314,-18.7795 895.2315,-28.7795 902.2315,-28.7794"/>
</g>
<!-- Node17 -->
<g id="node18" class="node">
<title>Node17</title>
<polygon fill="#ffffff" stroke="#bfbfbf" points="949.4902,-.5 949.4902,-18.5 1019.9727,-18.5 1019.9727,-.5 949.4902,-.5"/>
<text text-anchor="middle" x="984.7314" y="-6.5" font-family="Helvetica,sans-Serif" font-size="10.00" fill="#000000">netinet/tcp.h</text>
</g>
<!-- Node3&#45;&gt;Node17 -->
<g id="edge17" class="edge">
<title>Node3&#45;&gt;Node17</title>
<path fill="none" stroke="#191970" d="M912.9326,-55.4179C926.2528,-46.8992 946.3965,-34.0166 961.9606,-24.0627"/>
<polygon fill="#191970" stroke="#191970" points="963.9704,-26.932 970.5092,-18.5956 960.199,-21.0348 963.9704,-26.932"/>
</g>
<!-- Node18 -->
<g id="node19" class="node">
<title>Node18</title>
<polygon fill="#ffffff" stroke="#bfbfbf" points="1037.9312,-.5 1037.9312,-18.5 1129.5317,-18.5 1129.5317,-.5 1037.9312,-.5"/>
<text text-anchor="middle" x="1083.7314" y="-6.5" font-family="Helvetica,sans-Serif" font-size="10.00" fill="#000000">netinet/ip_icmp.h</text>
</g>
<!-- Node3&#45;&gt;Node18 -->
<g id="edge18" class="edge">
<title>Node3&#45;&gt;Node18</title>
<path fill="none" stroke="#191970" d="M929.2804,-55.4179C960.5717,-46.115 1009.3681,-31.608 1043.7235,-21.3943"/>
<polygon fill="#191970" stroke="#191970" points="1044.8566,-24.7089 1053.4446,-18.5042 1042.8618,-17.9991 1044.8566,-24.7089"/>
</g>
<!-- Node19 -->
<g id="node20" class="node">
<title>Node19</title>
<polygon fill="#ffffff" stroke="#bfbfbf" points="1147.3276,-.5 1147.3276,-18.5 1206.1353,-18.5 1206.1353,-.5 1147.3276,-.5"/>
<text text-anchor="middle" x="1176.7314" y="-6.5" font-family="Helvetica,sans-Serif" font-size="10.00" fill="#000000">jansson.h</text>
</g>
<!-- Node3&#45;&gt;Node19 -->
<g id="edge19" class="edge">
<title>Node3&#45;&gt;Node19</title>
<path fill="none" stroke="#191970" d="M930.2989,-59.1132C974.4135,-51.4556 1057.2248,-36.6108 1137.0851,-19.2707"/>
<polygon fill="#191970" stroke="#191970" points="1138.2919,-22.5895 1147.3124,-17.0325 1136.7954,-15.7514 1138.2919,-22.5895"/>
</g>
<!-- Node20 -->
<g id="node21" class="node">
<title>Node20</title>
<polygon fill="#ffffff" stroke="#bfbfbf" points="1223.8374,-.5 1223.8374,-18.5 1267.6255,-18.5 1267.6255,-.5 1223.8374,-.5"/>
<text text-anchor="middle" x="1245.7314" y="-6.5" font-family="Helvetica,sans-Serif" font-size="10.00" fill="#000000">libcli.h</text>
</g>
<!-- Node3&#45;&gt;Node20 -->
<g id="edge20" class="edge">
<title>Node3&#45;&gt;Node20</title>
<path fill="none" stroke="#191970" d="M930.4202,-61.573C985.9978,-56.0887 1104.7379,-42.8096 1213.9662,-18.8672"/>
<polygon fill="#191970" stroke="#191970" points="1214.8285,-22.261 1223.8281,-16.6702 1213.3063,-15.4285 1214.8285,-22.261"/>
</g>
<!-- Node21 -->
<g id="node22" class="node">
<title>Node21</title>
<polygon fill="#ffffff" stroke="#bfbfbf" points="1286.1157,-.5 1286.1157,-18.5 1329.3472,-18.5 1329.3472,-.5 1286.1157,-.5"/>
<text text-anchor="middle" x="1307.7314" y="-6.5" font-family="Helvetica,sans-Serif" font-size="10.00" fill="#000000">zmq.h</text>
</g>
<!-- Node3&#45;&gt;Node21 -->
<g id="edge21" class="edge">
<title>Node3&#45;&gt;Node21</title>
<path fill="none" stroke="#191970" d="M930.4037,-62.5943C994.1476,-58.3524 1142.5075,-46.4283 1275.8604,-18.8356"/>
<polygon fill="#191970" stroke="#191970" points="1276.7775,-22.2194 1285.8421,-16.7346 1275.3356,-15.3695 1276.7775,-22.2194"/>
</g>
<!-- Node3&#45;&gt;Node22 -->
<g id="edge22" class="edge">
<title>Node3&#45;&gt;Node22</title>
<path fill="none" stroke="#191970" d="M930.2038,-64.0713C1021.8054,-62.451 1294.9382,-54.7931 1518.7314,-19 1521.0544,-18.6285 1523.4434,-18.1839 1525.8605,-17.6928"/>
<polygon fill="#191970" stroke="#191970" points="1526.8501,-21.0585 1535.8572,-15.4798 1525.3371,-14.224 1526.8501,-21.0585"/>
</g>
<!-- Node23 -->
<g id="node24" class="node">
<title>Node23</title>
<g id="a_node24"><a xlink:href="ip2int_8h.html" target="_top" xlink:title="ip2int.h">
<polygon fill="#ffffff" stroke="#000000" points="1347.6084,-.5 1347.6084,-18.5 1395.8545,-18.5 1395.8545,-.5 1347.6084,-.5"/>
<text text-anchor="middle" x="1371.7314" y="-6.5" font-family="Helvetica,sans-Serif" font-size="10.00" fill="#000000">ip2int.h</text>
</a>
</g>
</g>
<!-- Node3&#45;&gt;Node23 -->
<g id="edge24" class="edge">
<title>Node3&#45;&gt;Node23</title>
<path fill="none" stroke="#191970" d="M930.3252,-62.9132C1002.0893,-59.1414 1181.7788,-47.7107 1329.7314,-19 1332.3304,-18.4957 1335.0206,-17.8805 1337.7393,-17.208"/>
<polygon fill="#191970" stroke="#191970" points="1338.8143,-20.5444 1347.5962,-14.6174 1337.035,-13.7743 1338.8143,-20.5444"/>
</g>
<!-- Node24 -->
<g id="node25" class="node">
<title>Node24</title>
<g id="a_node25"><a xlink:href="src_2include_2type_8h.html" target="_top" xlink:title="type.h">
<polygon fill="#ffffff" stroke="#000000" points="1414.1108,-.5 1414.1108,-18.5 1457.3521,-18.5 1457.3521,-.5 1414.1108,-.5"/>
<text text-anchor="middle" x="1435.7314" y="-6.5" font-family="Helvetica,sans-Serif" font-size="10.00" fill="#000000">type.h</text>
</a>
</g>
</g>
<!-- Node3&#45;&gt;Node24 -->
<g id="edge26" class="edge">
<title>Node3&#45;&gt;Node24</title>
<path fill="none" stroke="#191970" d="M930.1422,-63.9353C1008.6863,-62.0456 1219.9086,-54.0202 1404.0043,-18.7385"/>
<polygon fill="#191970" stroke="#191970" points="1404.7132,-22.1663 1413.8592,-16.8183 1403.3744,-15.2955 1404.7132,-22.1663"/>
</g>
<!-- Node25 -->
<g id="node26" class="node">
<title>Node25</title>
<polygon fill="#ffffff" stroke="#bfbfbf" points="1475.1157,-.5 1475.1157,-18.5 1518.3472,-18.5 1518.3472,-.5 1475.1157,-.5"/>
<text text-anchor="middle" x="1496.7314" y="-6.5" font-family="Helvetica,sans-Serif" font-size="10.00" fill="#000000">time.h</text>
</g>
<!-- Node3&#45;&gt;Node25 -->
<g id="edge27" class="edge">
<title>Node3&#45;&gt;Node25</title>
<path fill="none" stroke="#191970" d="M930.1014,-62.9261C1030.51,-57.7454 1344.0304,-40.4257 1464.8612,-18.9254"/>
<polygon fill="#191970" stroke="#191970" points="1465.7432,-22.321 1474.9252,-17.035 1464.4509,-15.4413 1465.7432,-22.321"/>
</g>
<!-- Node22&#45;&gt;Node3 -->
<g id="edge23" class="edge">
<title>Node22&#45;&gt;Node3</title>
<path fill="none" stroke="#191970" d="M1539.5787,-18.5148C1538.6224,-18.6873 1537.6715,-18.8496 1536.7314,-19 1314.3223,-54.5717 1043.1821,-62.3552 940.5835,-64.0405"/>
<polygon fill="#191970" stroke="#191970" points="940.2789,-60.5446 930.3337,-64.1975 940.3862,-67.5438 940.2789,-60.5446"/>
</g>
<!-- Node23&#45;&gt;Node3 -->
<g id="edge25" class="edge">
<title>Node23&#45;&gt;Node3</title>
<path fill="none" stroke="#191970" d="M1349.8553,-18.5679C1349.1428,-18.7193 1348.4338,-18.8637 1347.7314,-19 1199.823,-47.7021 1020.1966,-59.1346 940.2875,-62.9098"/>
<polygon fill="#191970" stroke="#191970" points="939.9691,-59.4206 930.1391,-63.3729 940.2883,-66.4134 939.9691,-59.4206"/>
</g>
<!-- Node27 -->
<g id="node28" class="node">
<title>Node27</title>
<polygon fill="#ffffff" stroke="#bfbfbf" points="1289.3916,-110.5 1289.3916,-128.5 1332.0713,-128.5 1332.0713,-110.5 1289.3916,-110.5"/>
<text text-anchor="middle" x="1310.7314" y="-116.5" font-family="Helvetica,sans-Serif" font-size="10.00" fill="#000000">fcntl.h</text>
</g>
<!-- Node26&#45;&gt;Node27 -->
<g id="edge30" class="edge">
<title>Node26&#45;&gt;Node27</title>
<path fill="none" stroke="#191970" d="M1420.9343,-165.4179C1399.3098,-156.4076 1365.9685,-142.5154 1341.6205,-132.3704"/>
<polygon fill="#191970" stroke="#191970" points="1342.6999,-129.0286 1332.123,-128.4131 1340.0076,-135.4901 1342.6999,-129.0286"/>
</g>
<!-- Node28 -->
<g id="node29" class="node">
<title>Node28</title>
<polygon fill="#ffffff" stroke="#bfbfbf" points="1350.0493,-110.5 1350.0493,-128.5 1399.4136,-128.5 1399.4136,-110.5 1350.0493,-110.5"/>
<text text-anchor="middle" x="1374.7314" y="-116.5" font-family="Helvetica,sans-Serif" font-size="10.00" fill="#000000">netdb.h</text>
</g>
<!-- Node26&#45;&gt;Node28 -->
<g id="edge31" class="edge">
<title>Node26&#45;&gt;Node28</title>
<path fill="none" stroke="#191970" d="M1431.5026,-165.4179C1421.327,-157.1876 1406.1152,-144.8839 1393.9984,-135.0836"/>
<polygon fill="#191970" stroke="#191970" points="1396.1804,-132.3469 1386.2042,-128.7795 1391.7783,-137.7895 1396.1804,-132.3469"/>
</g>
<!-- Node29 -->
<g id="node30" class="node">
<title>Node29</title>
<polygon fill="#ffffff" stroke="#bfbfbf" points="1417.4976,-110.5 1417.4976,-128.5 1467.9653,-128.5 1467.9653,-110.5 1417.4976,-110.5"/>
<text text-anchor="middle" x="1442.7314" y="-116.5" font-family="Helvetica,sans-Serif" font-size="10.00" fill="#000000">signal.h</text>
</g>
<!-- Node26&#45;&gt;Node29 -->
<g id="edge32" class="edge">
<title>Node26&#45;&gt;Node29</title>
<path fill="none" stroke="#191970" d="M1442.7314,-165.4179C1442.7314,-158.2164 1442.7314,-147.8962 1442.7314,-138.8632"/>
<polygon fill="#191970" stroke="#191970" points="1446.2315,-138.7794 1442.7314,-128.7795 1439.2315,-138.7795 1446.2315,-138.7794"/>
</g>
<!-- Node30 -->
<g id="node31" class="node">
<title>Node30</title>
<polygon fill="#ffffff" stroke="#bfbfbf" points="1486.1108,-110.5 1486.1108,-128.5 1539.3521,-128.5 1539.3521,-110.5 1486.1108,-110.5"/>
<text text-anchor="middle" x="1512.7314" y="-116.5" font-family="Helvetica,sans-Serif" font-size="10.00" fill="#000000">sys/un.h</text>
</g>
<!-- Node26&#45;&gt;Node30 -->
<g id="edge33" class="edge">
<title>Node26&#45;&gt;Node30</title>
<path fill="none" stroke="#191970" d="M1454.2905,-165.4179C1464.7654,-157.1876 1480.4247,-144.8839 1492.8978,-135.0836"/>
<polygon fill="#191970" stroke="#191970" points="1495.2204,-137.7098 1500.9212,-128.7795 1490.8956,-132.2056 1495.2204,-137.7098"/>
</g>
<!-- Node31 -->
<g id="node32" class="node">
<title>Node31</title>
<polygon fill="#ffffff" stroke="#bfbfbf" points="1557.1084,-110.5 1557.1084,-128.5 1620.3545,-128.5 1620.3545,-110.5 1557.1084,-110.5"/>
<text text-anchor="middle" x="1588.7314" y="-116.5" font-family="Helvetica,sans-Serif" font-size="10.00" fill="#000000">sys/epoll.h</text>
</g>
<!-- Node26&#45;&gt;Node31 -->
<g id="edge34" class="edge">
<title>Node26&#45;&gt;Node31</title>
<path fill="none" stroke="#191970" d="M1466.8404,-165.4179C1490.9331,-156.3419 1528.1751,-142.3123 1555.1546,-132.1488"/>
<polygon fill="#191970" stroke="#191970" points="1556.4625,-135.3963 1564.5867,-128.5956 1553.9948,-128.8457 1556.4625,-135.3963"/>
</g>
<!-- Node32 -->
<g id="node33" class="node">
<title>Node32</title>
<polygon fill="#ffffff" stroke="#bfbfbf" points="1638.2217,-110.5 1638.2217,-128.5 1709.2412,-128.5 1709.2412,-110.5 1638.2217,-110.5"/>
<text text-anchor="middle" x="1673.7314" y="-116.5" font-family="Helvetica,sans-Serif" font-size="10.00" fill="#000000">sys/socket.h</text>
</g>
<!-- Node26&#45;&gt;Node32 -->
<g id="edge35" class="edge">
<title>Node26&#45;&gt;Node32</title>
<path fill="none" stroke="#191970" d="M1480.6177,-165.4795C1521.025,-155.8587 1585.0206,-140.6216 1628.1542,-130.3517"/>
<polygon fill="#191970" stroke="#191970" points="1629.1856,-133.7041 1638.103,-127.983 1627.5642,-126.8944 1629.1856,-133.7041"/>
</g>
</g>
</svg>
