<?xml version="1.0" encoding="UTF-8" standalone="no"?>
<!DOCTYPE svg PUBLIC "-//W3C//DTD SVG 1.1//EN"
 "http://www.w3.org/Graphics/SVG/1.1/DTD/svg11.dtd">
<!-- Generated by graphviz version 2.40.1 (20161225.0304)
 -->
<!-- Title: events/event.c Pages: 1 -->
<svg width="1459pt" height="302pt"
 viewBox="0.00 0.00 1459.46 302.00" xmlns="http://www.w3.org/2000/svg" xmlns:xlink="http://www.w3.org/1999/xlink">
<g id="graph0" class="graph" transform="scale(1 1) rotate(0) translate(4 298)">
<title>events/event.c</title>
<polygon fill="#ffffff" stroke="transparent" points="-4,4 -4,-298 1455.4629,-298 1455.4629,4 -4,4"/>
<!-- Node0 -->
<g id="node1" class="node">
<title>Node0</title>
<polygon fill="#bfbfbf" stroke="#000000" points="750.3794,-275.5 750.3794,-293.5 830.8618,-293.5 830.8618,-275.5 750.3794,-275.5"/>
<text text-anchor="middle" x="790.6206" y="-281.5" font-family="Helvetica,sans-Serif" font-size="10.00" fill="#000000">events/event.c</text>
</g>
<!-- Node1 -->
<g id="node2" class="node">
<title>Node1</title>
<g id="a_node2"><a xlink:href="events_2include_2event_8h.html" target="_top" xlink:title="event.h">
<polygon fill="#ffffff" stroke="#000000" points="400.2192,-165.5 400.2192,-183.5 449.022,-183.5 449.022,-165.5 400.2192,-165.5"/>
<text text-anchor="middle" x="424.6206" y="-171.5" font-family="Helvetica,sans-Serif" font-size="10.00" fill="#000000">event.h</text>
</a>
</g>
</g>
<!-- Node0&#45;&gt;Node1 -->
<g id="edge1" class="edge">
<title>Node0&#45;&gt;Node1</title>
<path fill="none" stroke="#191970" d="M760.3343,-275.4524C729.6533,-266.2825 680.8309,-251.6788 638.6206,-239 575.2771,-219.9734 501.4169,-197.6902 459.1242,-184.9213"/>
<polygon fill="#191970" stroke="#191970" points="459.915,-181.5041 449.3302,-181.964 457.8916,-188.2053 459.915,-181.5041"/>
</g>
<!-- Node26 -->
<g id="node27" class="node">
<title>Node26</title>
<g id="a_node27"><a xlink:href="src_2include_2component_8h.html" target="_top" xlink:title="component.h">
<polygon fill="#ffffff" stroke="#000000" points="560.7119,-165.5 560.7119,-183.5 634.5293,-183.5 634.5293,-165.5 560.7119,-165.5"/>
<text text-anchor="middle" x="597.6206" y="-171.5" font-family="Helvetica,sans-Serif" font-size="10.00" fill="#000000">component.h</text>
</a>
</g>
</g>
<!-- Node0&#45;&gt;Node26 -->
<g id="edge28" class="edge">
<title>Node0&#45;&gt;Node26</title>
<path fill="none" stroke="#191970" d="M754.7036,-275.4633C728.9767,-268.0285 694.1567,-255.9467 666.6206,-239 645.3739,-225.924 625.0108,-205.6093 611.9852,-191.2781"/>
<polygon fill="#191970" stroke="#191970" points="614.463,-188.7968 605.2126,-183.6315 609.2228,-193.438 614.463,-188.7968"/>
</g>
<!-- Node29 -->
<g id="node30" class="node">
<title>Node29</title>
<g id="a_node30"><a xlink:href="src_2include_2cli_8h.html" target="_top" xlink:title="cli.h">
<polygon fill="#ffffff" stroke="#000000" points="652.729,-165.5 652.729,-183.5 686.5122,-183.5 686.5122,-165.5 652.729,-165.5"/>
<text text-anchor="middle" x="669.6206" y="-171.5" font-family="Helvetica,sans-Serif" font-size="10.00" fill="#000000">cli.h</text>
</a>
</g>
</g>
<!-- Node0&#45;&gt;Node29 -->
<g id="edge35" class="edge">
<title>Node0&#45;&gt;Node29</title>
<path fill="none" stroke="#191970" d="M750.2505,-278.1451C726.0642,-272.1811 696.774,-260.7497 679.6206,-239 669.654,-226.3627 667.6684,-207.894 667.8757,-193.9545"/>
<polygon fill="#191970" stroke="#191970" points="671.3721,-194.1141 668.4017,-183.9442 664.3817,-193.7468 671.3721,-194.1141"/>
</g>
<!-- Node30 -->
<g id="node31" class="node">
<title>Node30</title>
<g id="a_node31"><a xlink:href="event__msg__pack_8h.html" target="_top" xlink:title="event_msg_pack.h">
<polygon fill="#ffffff" stroke="#000000" points="688.6504,-220.5 688.6504,-238.5 788.5908,-238.5 788.5908,-220.5 688.6504,-220.5"/>
<text text-anchor="middle" x="738.6206" y="-226.5" font-family="Helvetica,sans-Serif" font-size="10.00" fill="#000000">event_msg_pack.h</text>
</a>
</g>
</g>
<!-- Node0&#45;&gt;Node30 -->
<g id="edge38" class="edge">
<title>Node0&#45;&gt;Node30</title>
<path fill="none" stroke="#191970" d="M782.0339,-275.4179C774.5518,-267.5041 763.509,-255.8243 754.4334,-246.2251"/>
<polygon fill="#191970" stroke="#191970" points="756.8073,-243.6414 747.3939,-238.7795 751.7208,-248.4505 756.8073,-243.6414"/>
</g>
<!-- Node34 -->
<g id="node35" class="node">
<title>Node34</title>
<g id="a_node35"><a xlink:href="odp__partial_8h.html" target="_top" xlink:title="odp_partial.h">
<polygon fill="#ffffff" stroke="#000000" points="806.7095,-220.5 806.7095,-238.5 880.5317,-238.5 880.5317,-220.5 806.7095,-220.5"/>
<text text-anchor="middle" x="843.6206" y="-226.5" font-family="Helvetica,sans-Serif" font-size="10.00" fill="#000000">odp_partial.h</text>
</a>
</g>
</g>
<!-- Node0&#45;&gt;Node34 -->
<g id="edge44" class="edge">
<title>Node0&#45;&gt;Node34</title>
<path fill="none" stroke="#191970" d="M799.3725,-275.4179C806.9985,-267.5041 818.2535,-255.8243 827.5037,-246.2251"/>
<polygon fill="#191970" stroke="#191970" points="830.2599,-248.4089 834.6786,-238.7795 825.2193,-243.5516 830.2599,-248.4089"/>
</g>
<!-- Node35 -->
<g id="node36" class="node">
<title>Node35</title>
<g id="a_node36"><a xlink:href="odp__all_8h.html" target="_top" xlink:title="odp_all.h">
<polygon fill="#ffffff" stroke="#000000" points="898.3252,-220.5 898.3252,-238.5 954.916,-238.5 954.916,-220.5 898.3252,-220.5"/>
<text text-anchor="middle" x="926.6206" y="-226.5" font-family="Helvetica,sans-Serif" font-size="10.00" fill="#000000">odp_all.h</text>
</a>
</g>
</g>
<!-- Node0&#45;&gt;Node35 -->
<g id="edge45" class="edge">
<title>Node0&#45;&gt;Node35</title>
<path fill="none" stroke="#191970" d="M813.0782,-275.4179C835.3239,-266.4215 869.6043,-252.5581 894.68,-242.4172"/>
<polygon fill="#191970" stroke="#191970" points="896.1712,-245.5895 904.1296,-238.5956 893.5468,-239.1001 896.1712,-245.5895"/>
</g>
<!-- Node36 -->
<g id="node37" class="node">
<title>Node36</title>
<g id="a_node37"><a xlink:href="event__rw__raise_8h.html" target="_top" xlink:title="event_rw_raise.h">
<polygon fill="#ffffff" stroke="#000000" points="972.5444,-220.5 972.5444,-238.5 1064.6968,-238.5 1064.6968,-220.5 972.5444,-220.5"/>
<text text-anchor="middle" x="1018.6206" y="-226.5" font-family="Helvetica,sans-Serif" font-size="10.00" fill="#000000">event_rw_raise.h</text>
</a>
</g>
</g>
<!-- Node0&#45;&gt;Node36 -->
<g id="edge46" class="edge">
<title>Node0&#45;&gt;Node36</title>
<path fill="none" stroke="#191970" d="M828.0149,-275.4795C867.1957,-266.0279 928.8463,-251.1561 971.3692,-240.8984"/>
<polygon fill="#191970" stroke="#191970" points="972.3056,-244.273 981.2059,-238.5255 970.664,-237.4682 972.3056,-244.273"/>
</g>
<!-- Node37 -->
<g id="node38" class="node">
<title>Node37</title>
<g id="a_node38"><a xlink:href="event__direct__raise_8h.html" target="_top" xlink:title="event_direct_raise.h">
<polygon fill="#ffffff" stroke="#000000" points="1082.5938,-220.5 1082.5938,-238.5 1188.6475,-238.5 1188.6475,-220.5 1082.5938,-220.5"/>
<text text-anchor="middle" x="1135.6206" y="-226.5" font-family="Helvetica,sans-Serif" font-size="10.00" fill="#000000">event_direct_raise.h</text>
</a>
</g>
</g>
<!-- Node0&#45;&gt;Node37 -->
<g id="edge47" class="edge">
<title>Node0&#45;&gt;Node37</title>
<path fill="none" stroke="#191970" d="M830.8717,-278.0832C890.2522,-268.6167 1001.8846,-250.8202 1072.302,-239.5943"/>
<polygon fill="#191970" stroke="#191970" points="1073.057,-243.0182 1082.3813,-237.9874 1071.955,-236.1055 1073.057,-243.0182"/>
</g>
<!-- Node2 -->
<g id="node3" class="node">
<title>Node2</title>
<g id="a_node3"><a xlink:href="src_2include_2common_8h.html" target="_top" xlink:title="common.h">
<polygon fill="#ffffff" stroke="#000000" points="642.2783,-55.5 642.2783,-73.5 704.9629,-73.5 704.9629,-55.5 642.2783,-55.5"/>
<text text-anchor="middle" x="673.6206" y="-61.5" font-family="Helvetica,sans-Serif" font-size="10.00" fill="#000000">common.h</text>
</a>
</g>
</g>
<!-- Node1&#45;&gt;Node2 -->
<g id="edge2" class="edge">
<title>Node1&#45;&gt;Node2</title>
<path fill="none" stroke="#191970" d="M411.7816,-165.3702C394.9573,-152.3192 369.2946,-127.9277 384.6206,-110 400.4997,-91.4254 555.827,-75.0643 631.9681,-68.0858"/>
<polygon fill="#191970" stroke="#191970" points="632.5194,-71.5504 642.1636,-67.1641 631.8891,-64.5788 632.5194,-71.5504"/>
</g>
<!-- Node23 -->
<g id="node24" class="node">
<title>Node23</title>
<g id="a_node24"><a xlink:href="src_2include_2context_8h.html" target="_top" xlink:title="context.h">
<polygon fill="#ffffff" stroke="#000000" points="473.3301,-110.5 473.3301,-128.5 529.9111,-128.5 529.9111,-110.5 473.3301,-110.5"/>
<text text-anchor="middle" x="501.6206" y="-116.5" font-family="Helvetica,sans-Serif" font-size="10.00" fill="#000000">context.h</text>
</a>
</g>
</g>
<!-- Node1&#45;&gt;Node23 -->
<g id="edge23" class="edge">
<title>Node1&#45;&gt;Node23</title>
<path fill="none" stroke="#191970" d="M437.3356,-165.4179C449.0389,-157.0584 466.6253,-144.4966 480.4471,-134.6239"/>
<polygon fill="#191970" stroke="#191970" points="482.7837,-137.2561 488.8867,-128.5956 478.715,-131.56 482.7837,-137.2561"/>
</g>
<!-- Node24 -->
<g id="node25" class="node">
<title>Node24</title>
<g id="a_node25"><a xlink:href="events_2include_2event__id_8h.html" target="_top" xlink:title="event_id.h">
<polygon fill="#ffffff" stroke="#000000" points="393.5469,-110.5 393.5469,-128.5 455.6943,-128.5 455.6943,-110.5 393.5469,-110.5"/>
<text text-anchor="middle" x="424.6206" y="-116.5" font-family="Helvetica,sans-Serif" font-size="10.00" fill="#000000">event_id.h</text>
</a>
</g>
</g>
<!-- Node1&#45;&gt;Node24 -->
<g id="edge25" class="edge">
<title>Node1&#45;&gt;Node24</title>
<path fill="none" stroke="#191970" d="M424.6206,-165.4179C424.6206,-158.2164 424.6206,-147.8962 424.6206,-138.8632"/>
<polygon fill="#191970" stroke="#191970" points="428.1207,-138.7794 424.6206,-128.7795 421.1207,-138.7795 428.1207,-138.7794"/>
</g>
<!-- Node25 -->
<g id="node26" class="node">
<title>Node25</title>
<g id="a_node26"><a xlink:href="events_2include_2event__list_8h.html" target="_top" xlink:title="event_list.h">
<polygon fill="#ffffff" stroke="#000000" points="64.3276,-55.5 64.3276,-73.5 130.9136,-73.5 130.9136,-55.5 64.3276,-55.5"/>
<text text-anchor="middle" x="97.6206" y="-61.5" font-family="Helvetica,sans-Serif" font-size="10.00" fill="#000000">event_list.h</text>
</a>
</g>
</g>
<!-- Node1&#45;&gt;Node25 -->
<g id="edge26" class="edge">
<title>Node1&#45;&gt;Node25</title>
<path fill="none" stroke="#191970" d="M400.0425,-166.2321C343.1074,-147.0797 201.9119,-99.5827 134.5365,-76.9182"/>
<polygon fill="#191970" stroke="#191970" points="135.3595,-73.5024 124.7654,-73.6313 133.1276,-80.137 135.3595,-73.5024"/>
</g>
<!-- Node3 -->
<g id="node4" class="node">
<title>Node3</title>
<polygon fill="#ffffff" stroke="#bfbfbf" points="1271.8892,-.5 1271.8892,-18.5 1317.3521,-18.5 1317.3521,-.5 1271.8892,-.5"/>
<text text-anchor="middle" x="1294.6206" y="-6.5" font-family="Helvetica,sans-Serif" font-size="10.00" fill="#000000">stdio.h</text>
</g>
<!-- Node2&#45;&gt;Node3 -->
<g id="edge3" class="edge">
<title>Node2&#45;&gt;Node3</title>
<path fill="none" stroke="#191970" d="M705.0818,-62.9905C808.2207,-57.9026 1136.2368,-40.5814 1261.6517,-18.961"/>
<polygon fill="#191970" stroke="#191970" points="1262.5262,-22.3595 1271.7391,-17.1276 1261.2743,-15.4723 1262.5262,-22.3595"/>
</g>
<!-- Node4 -->
<g id="node5" class="node">
<title>Node4</title>
<polygon fill="#ffffff" stroke="#bfbfbf" points="1335.1084,-.5 1335.1084,-18.5 1386.1328,-18.5 1386.1328,-.5 1335.1084,-.5"/>
<text text-anchor="middle" x="1360.6206" y="-6.5" font-family="Helvetica,sans-Serif" font-size="10.00" fill="#000000">unistd.h</text>
</g>
<!-- Node2&#45;&gt;Node4 -->
<g id="edge4" class="edge">
<title>Node2&#45;&gt;Node4</title>
<path fill="none" stroke="#191970" d="M705.2224,-63.1493C815.8626,-58.2912 1186.1416,-40.91 1324.7896,-18.9662"/>
<polygon fill="#191970" stroke="#191970" points="1325.4646,-22.4021 1334.7557,-17.3104 1324.3173,-15.4968 1325.4646,-22.4021"/>
</g>
<!-- Node5 -->
<g id="node6" class="node">
<title>Node5</title>
<polygon fill="#ffffff" stroke="#bfbfbf" points="1403.7783,-.5 1403.7783,-18.5 1451.4629,-18.5 1451.4629,-.5 1403.7783,-.5"/>
<text text-anchor="middle" x="1427.6206" y="-6.5" font-family="Helvetica,sans-Serif" font-size="10.00" fill="#000000">stdlib.h</text>
</g>
<!-- Node2&#45;&gt;Node5 -->
<g id="edge5" class="edge">
<title>Node2&#45;&gt;Node5</title>
<path fill="none" stroke="#191970" d="M705.1901,-63.4588C823.4091,-59.4163 1240.5745,-43.8253 1393.5295,-18.9765"/>
<polygon fill="#191970" stroke="#191970" points="1394.3792,-22.3822 1403.6475,-17.249 1393.2011,-15.482 1394.3792,-22.3822"/>
</g>
<!-- Node6 -->
<g id="node7" class="node">
<title>Node6</title>
<polygon fill="#ffffff" stroke="#bfbfbf" points="61.2241,-.5 61.2241,-18.5 110.0171,-18.5 110.0171,-.5 61.2241,-.5"/>
<text text-anchor="middle" x="85.6206" y="-6.5" font-family="Helvetica,sans-Serif" font-size="10.00" fill="#000000">string.h</text>
</g>
<!-- Node2&#45;&gt;Node6 -->
<g id="edge6" class="edge">
<title>Node2&#45;&gt;Node6</title>
<path fill="none" stroke="#191970" d="M642.0406,-64.0978C558.2227,-62.5684 323.2102,-55.2748 120.3037,-18.9989"/>
<polygon fill="#191970" stroke="#191970" points="120.8258,-15.5365 110.3613,-17.1932 119.5748,-22.4238 120.8258,-15.5365"/>
</g>
<!-- Node7 -->
<g id="node8" class="node">
<title>Node7</title>
<polygon fill="#ffffff" stroke="#bfbfbf" points="127.5542,-.5 127.5542,-18.5 179.687,-18.5 179.687,-.5 127.5542,-.5"/>
<text text-anchor="middle" x="153.6206" y="-6.5" font-family="Helvetica,sans-Serif" font-size="10.00" fill="#000000">stdarg.h</text>
</g>
<!-- Node2&#45;&gt;Node7 -->
<g id="edge7" class="edge">
<title>Node2&#45;&gt;Node7</title>
<path fill="none" stroke="#191970" d="M642.1601,-63.4165C565.9898,-60.3969 365.5859,-50.084 189.8246,-18.9364"/>
<polygon fill="#191970" stroke="#191970" points="190.3453,-15.4739 179.8834,-17.1474 189.1054,-22.3633 190.3453,-15.4739"/>
</g>
<!-- Node8 -->
<g id="node9" class="node">
<title>Node8</title>
<polygon fill="#ffffff" stroke="#bfbfbf" points="197.5,-.5 197.5,-18.5 245.7412,-18.5 245.7412,-.5 197.5,-.5"/>
<text text-anchor="middle" x="221.6206" y="-6.5" font-family="Helvetica,sans-Serif" font-size="10.00" fill="#000000">stdint.h</text>
</g>
<!-- Node2&#45;&gt;Node8 -->
<g id="edge8" class="edge">
<title>Node2&#45;&gt;Node8</title>
<path fill="none" stroke="#191970" d="M642.0676,-62.932C573.4433,-59.1267 405.4444,-47.6706 256.2661,-19.0309"/>
<polygon fill="#191970" stroke="#191970" points="256.4997,-15.5105 246.0143,-17.0294 255.1583,-22.3808 256.4997,-15.5105"/>
</g>
<!-- Node9 -->
<g id="node10" class="node">
<title>Node9</title>
<polygon fill="#ffffff" stroke="#bfbfbf" points="263.4927,-.5 263.4927,-18.5 321.7485,-18.5 321.7485,-.5 263.4927,-.5"/>
<text text-anchor="middle" x="292.6206" y="-6.5" font-family="Helvetica,sans-Serif" font-size="10.00" fill="#000000">pthread.h</text>
</g>
<!-- Node2&#45;&gt;Node9 -->
<g id="edge9" class="edge">
<title>Node2&#45;&gt;Node9</title>
<path fill="none" stroke="#191970" d="M642.2174,-61.5352C583.2819,-55.7134 451.9457,-41.5214 332.0858,-19.1052"/>
<polygon fill="#191970" stroke="#191970" points="332.4831,-15.6183 322.0062,-17.1952 331.1797,-22.4959 332.4831,-15.6183"/>
</g>
<!-- Node10 -->
<g id="node11" class="node">
<title>Node10</title>
<polygon fill="#ffffff" stroke="#bfbfbf" points="339.5,-.5 339.5,-18.5 387.7412,-18.5 387.7412,-.5 339.5,-.5"/>
<text text-anchor="middle" x="363.6206" y="-6.5" font-family="Helvetica,sans-Serif" font-size="10.00" fill="#000000">ctype.h</text>
</g>
<!-- Node2&#45;&gt;Node10 -->
<g id="edge10" class="edge">
<title>Node2&#45;&gt;Node10</title>
<path fill="none" stroke="#191970" d="M642.2339,-60.5682C592.4006,-54.062 491.9845,-39.879 397.9979,-19.1078"/>
<polygon fill="#191970" stroke="#191970" points="398.5696,-15.6492 388.0462,-16.8779 397.039,-22.4798 398.5696,-15.6492"/>
</g>
<!-- Node11 -->
<g id="node12" class="node">
<title>Node11</title>
<polygon fill="#ffffff" stroke="#bfbfbf" points="405.7783,-.5 405.7783,-18.5 453.4629,-18.5 453.4629,-.5 405.7783,-.5"/>
<text text-anchor="middle" x="429.6206" y="-6.5" font-family="Helvetica,sans-Serif" font-size="10.00" fill="#000000">errno.h</text>
</g>
<!-- Node2&#45;&gt;Node11 -->
<g id="edge11" class="edge">
<title>Node2&#45;&gt;Node11</title>
<path fill="none" stroke="#191970" d="M642.1934,-58.5431C602.5951,-50.8661 532.2594,-36.6643 463.7663,-19.4239"/>
<polygon fill="#191970" stroke="#191970" points="464.2322,-15.9311 453.6781,-16.8586 462.5071,-22.7152 464.2322,-15.9311"/>
</g>
<!-- Node12 -->
<g id="node13" class="node">
<title>Node12</title>
<polygon fill="#ffffff" stroke="#bfbfbf" points="470.9927,-.5 470.9927,-18.5 534.2485,-18.5 534.2485,-.5 470.9927,-.5"/>
<text text-anchor="middle" x="502.6206" y="-6.5" font-family="Helvetica,sans-Serif" font-size="10.00" fill="#000000">arpa/inet.h</text>
</g>
<!-- Node2&#45;&gt;Node12 -->
<g id="edge12" class="edge">
<title>Node2&#45;&gt;Node12</title>
<path fill="none" stroke="#191970" d="M645.3834,-55.4179C616.7084,-46.1949 572.1296,-31.8567 540.4216,-21.6582"/>
<polygon fill="#191970" stroke="#191970" points="541.2069,-18.2343 530.6155,-18.5042 539.0635,-24.8981 541.2069,-18.2343"/>
</g>
<!-- Node13 -->
<g id="node14" class="node">
<title>Node13</title>
<polygon fill="#ffffff" stroke="#bfbfbf" points="552.1577,-.5 552.1577,-18.5 617.0835,-18.5 617.0835,-.5 552.1577,-.5"/>
<text text-anchor="middle" x="584.6206" y="-6.5" font-family="Helvetica,sans-Serif" font-size="10.00" fill="#000000">netinet/in.h</text>
</g>
<!-- Node2&#45;&gt;Node13 -->
<g id="edge13" class="edge">
<title>Node2&#45;&gt;Node13</title>
<path fill="none" stroke="#191970" d="M658.9241,-55.4179C645.1392,-46.8992 624.2929,-34.0166 608.1857,-24.0627"/>
<polygon fill="#191970" stroke="#191970" points="609.6857,-20.8753 599.339,-18.5956 606.0058,-26.83 609.6857,-20.8753"/>
</g>
<!-- Node14 -->
<g id="node15" class="node">
<title>Node14</title>
<polygon fill="#ffffff" stroke="#bfbfbf" points="634.7637,-.5 634.7637,-18.5 712.4775,-18.5 712.4775,-.5 634.7637,-.5"/>
<text text-anchor="middle" x="673.6206" y="-6.5" font-family="Helvetica,sans-Serif" font-size="10.00" fill="#000000">net/ethernet.h</text>
</g>
<!-- Node2&#45;&gt;Node14 -->
<g id="edge14" class="edge">
<title>Node2&#45;&gt;Node14</title>
<path fill="none" stroke="#191970" d="M673.6206,-55.4179C673.6206,-48.2164 673.6206,-37.8962 673.6206,-28.8632"/>
<polygon fill="#191970" stroke="#191970" points="677.1207,-28.7794 673.6206,-18.7795 670.1207,-28.7795 677.1207,-28.7794"/>
</g>
<!-- Node15 -->
<g id="node16" class="node">
<title>Node15</title>
<polygon fill="#ffffff" stroke="#bfbfbf" points="730.1577,-.5 730.1577,-18.5 795.0835,-18.5 795.0835,-.5 730.1577,-.5"/>
<text text-anchor="middle" x="762.6206" y="-6.5" font-family="Helvetica,sans-Serif" font-size="10.00" fill="#000000">netinet/ip.h</text>
</g>
<!-- Node2&#45;&gt;Node15 -->
<g id="edge15" class="edge">
<title>Node2&#45;&gt;Node15</title>
<path fill="none" stroke="#191970" d="M688.3171,-55.4179C702.102,-46.8992 722.9484,-34.0166 739.0555,-24.0627"/>
<polygon fill="#191970" stroke="#191970" points="741.2354,-26.83 747.9022,-18.5956 737.5555,-20.8753 741.2354,-26.83"/>
</g>
<!-- Node16 -->
<g id="node17" class="node">
<title>Node16</title>
<polygon fill="#ffffff" stroke="#bfbfbf" points="813.3794,-.5 813.3794,-18.5 883.8618,-18.5 883.8618,-.5 813.3794,-.5"/>
<text text-anchor="middle" x="848.6206" y="-6.5" font-family="Helvetica,sans-Serif" font-size="10.00" fill="#000000">netinet/tcp.h</text>
</g>
<!-- Node2&#45;&gt;Node16 -->
<g id="edge16" class="edge">
<title>Node2&#45;&gt;Node16</title>
<path fill="none" stroke="#191970" d="M702.5183,-55.4179C731.9911,-46.155 777.881,-31.7325 810.3561,-21.526"/>
<polygon fill="#191970" stroke="#191970" points="811.4803,-24.8415 819.9708,-18.5042 809.3815,-18.1636 811.4803,-24.8415"/>
</g>
<!-- Node17 -->
<g id="node18" class="node">
<title>Node17</title>
<polygon fill="#ffffff" stroke="#bfbfbf" points="901.8203,-.5 901.8203,-18.5 993.4209,-18.5 993.4209,-.5 901.8203,-.5"/>
<text text-anchor="middle" x="947.6206" y="-6.5" font-family="Helvetica,sans-Serif" font-size="10.00" fill="#000000">netinet/ip_icmp.h</text>
</g>
<!-- Node2&#45;&gt;Node17 -->
<g id="edge17" class="edge">
<title>Node2&#45;&gt;Node17</title>
<path fill="none" stroke="#191970" d="M705.0519,-58.1908C750.8011,-49.0076 836.4021,-31.8249 892.7046,-20.5233"/>
<polygon fill="#191970" stroke="#191970" points="893.3986,-23.9539 902.5142,-18.5542 892.0209,-17.0908 893.3986,-23.9539"/>
</g>
<!-- Node18 -->
<g id="node19" class="node">
<title>Node18</title>
<polygon fill="#ffffff" stroke="#bfbfbf" points="1011.2168,-.5 1011.2168,-18.5 1070.0244,-18.5 1070.0244,-.5 1011.2168,-.5"/>
<text text-anchor="middle" x="1040.6206" y="-6.5" font-family="Helvetica,sans-Serif" font-size="10.00" fill="#000000">jansson.h</text>
</g>
<!-- Node2&#45;&gt;Node18 -->
<g id="edge18" class="edge">
<title>Node2&#45;&gt;Node18</title>
<path fill="none" stroke="#191970" d="M705.1059,-61.2867C762.2275,-55.2119 886.8868,-40.83 1000.8794,-19.1838"/>
<polygon fill="#191970" stroke="#191970" points="1001.6584,-22.5982 1010.8175,-17.2727 1000.3364,-15.7242 1001.6584,-22.5982"/>
</g>
<!-- Node19 -->
<g id="node20" class="node">
<title>Node19</title>
<polygon fill="#ffffff" stroke="#bfbfbf" points="1087.7266,-.5 1087.7266,-18.5 1131.5146,-18.5 1131.5146,-.5 1087.7266,-.5"/>
<text text-anchor="middle" x="1109.6206" y="-6.5" font-family="Helvetica,sans-Serif" font-size="10.00" fill="#000000">libcli.h</text>
</g>
<!-- Node2&#45;&gt;Node19 -->
<g id="edge19" class="edge">
<title>Node2&#45;&gt;Node19</title>
<path fill="none" stroke="#191970" d="M705.184,-62.9497C772.2284,-59.2321 933.8007,-48.0217 1077.5208,-18.8871"/>
<polygon fill="#191970" stroke="#191970" points="1078.311,-22.2979 1087.398,-16.8503 1076.8972,-15.4421 1078.311,-22.2979"/>
</g>
<!-- Node20 -->
<g id="node21" class="node">
<title>Node20</title>
<polygon fill="#ffffff" stroke="#bfbfbf" points="1150.0049,-.5 1150.0049,-18.5 1193.2363,-18.5 1193.2363,-.5 1150.0049,-.5"/>
<text text-anchor="middle" x="1171.6206" y="-6.5" font-family="Helvetica,sans-Serif" font-size="10.00" fill="#000000">zmq.h</text>
</g>
<!-- Node2&#45;&gt;Node20 -->
<g id="edge20" class="edge">
<title>Node2&#45;&gt;Node20</title>
<path fill="none" stroke="#191970" d="M705.0895,-63.6045C779.3271,-61.0322 971.1721,-51.7008 1139.7016,-18.7924"/>
<polygon fill="#191970" stroke="#191970" points="1140.6178,-22.1789 1149.7443,-16.7976 1139.254,-15.313 1140.6178,-22.1789"/>
</g>
<!-- Node21 -->
<g id="node22" class="node">
<title>Node21</title>
<g id="a_node22"><a xlink:href="src_2include_2type_8h.html" target="_top" xlink:title="type.h">
<polygon fill="#ffffff" stroke="#000000" points="0,-.5 0,-18.5 43.2412,-18.5 43.2412,-.5 0,-.5"/>
<text text-anchor="middle" x="21.6206" y="-6.5" font-family="Helvetica,sans-Serif" font-size="10.00" fill="#000000">type.h</text>
</a>
</g>
</g>
<!-- Node2&#45;&gt;Node21 -->
<g id="edge21" class="edge">
<title>Node2&#45;&gt;Node21</title>
<path fill="none" stroke="#191970" d="M642.0444,-63.124C535.0495,-58.3189 185.99,-41.4419 53.398,-18.6571"/>
<polygon fill="#191970" stroke="#191970" points="53.9472,-15.1998 43.484,-16.8644 52.7016,-22.0881 53.9472,-15.1998"/>
</g>
<!-- Node22 -->
<g id="node23" class="node">
<title>Node22</title>
<polygon fill="#ffffff" stroke="#bfbfbf" points="1211.0049,-.5 1211.0049,-18.5 1254.2363,-18.5 1254.2363,-.5 1211.0049,-.5"/>
<text text-anchor="middle" x="1232.6206" y="-6.5" font-family="Helvetica,sans-Serif" font-size="10.00" fill="#000000">time.h</text>
</g>
<!-- Node2&#45;&gt;Node22 -->
<g id="edge22" class="edge">
<title>Node2&#45;&gt;Node22</title>
<path fill="none" stroke="#191970" d="M705.2318,-62.7003C801.0684,-57.1036 1088.2185,-39.2671 1200.7899,-18.9313"/>
<polygon fill="#191970" stroke="#191970" points="1201.6442,-22.3315 1210.8113,-17.0197 1200.3326,-15.4555 1201.6442,-22.3315"/>
</g>
<!-- Node23&#45;&gt;Node2 -->
<g id="edge24" class="edge">
<title>Node23&#45;&gt;Node2</title>
<path fill="none" stroke="#191970" d="M530.0229,-110.4179C558.8656,-101.1949 603.7051,-86.8567 635.5986,-76.6582"/>
<polygon fill="#191970" stroke="#191970" points="637.0031,-79.8837 645.462,-73.5042 634.8711,-73.2163 637.0031,-79.8837"/>
</g>
<!-- Node25&#45;&gt;Node21 -->
<g id="edge27" class="edge">
<title>Node25&#45;&gt;Node21</title>
<path fill="none" stroke="#191970" d="M85.0708,-55.4179C73.5195,-47.0584 56.1614,-34.4966 42.5191,-24.6239"/>
<polygon fill="#191970" stroke="#191970" points="44.3422,-21.6229 34.1891,-18.5956 40.2383,-27.2938 44.3422,-21.6229"/>
</g>
<!-- Node26&#45;&gt;Node2 -->
<g id="edge29" class="edge">
<title>Node26&#45;&gt;Node2</title>
<path fill="none" stroke="#191970" d="M613.9135,-165.3429C626.749,-157.3301 644.1665,-144.5529 654.6206,-129 663.7784,-115.3757 668.6084,-97.2567 671.1018,-83.6922"/>
<polygon fill="#191970" stroke="#191970" points="674.5979,-83.9895 672.6905,-73.5678 667.6825,-82.9043 674.5979,-83.9895"/>
</g>
<!-- Node26&#45;&gt;Node23 -->
<g id="edge30" class="edge">
<title>Node26&#45;&gt;Node23</title>
<path fill="none" stroke="#191970" d="M581.7682,-165.4179C566.7602,-156.8195 543.9922,-143.7754 526.5534,-133.7844"/>
<polygon fill="#191970" stroke="#191970" points="527.9134,-130.5299 517.4966,-128.5956 524.4336,-136.6037 527.9134,-130.5299"/>
</g>
<!-- Node27 -->
<g id="node28" class="node">
<title>Node27</title>
<g id="a_node28"><a xlink:href="hash_8h.html" target="_top" xlink:title="hash.h">
<polygon fill="#ffffff" stroke="#000000" points="547.6084,-110.5 547.6084,-128.5 593.6328,-128.5 593.6328,-110.5 547.6084,-110.5"/>
<text text-anchor="middle" x="570.6206" y="-116.5" font-family="Helvetica,sans-Serif" font-size="10.00" fill="#000000">hash.h</text>
</a>
</g>
</g>
<!-- Node26&#45;&gt;Node27 -->
<g id="edge31" class="edge">
<title>Node26&#45;&gt;Node27</title>
<path fill="none" stroke="#191970" d="M593.1621,-165.4179C589.5103,-157.9789 584.2248,-147.2123 579.6897,-137.9742"/>
<polygon fill="#191970" stroke="#191970" points="582.7246,-136.2138 575.176,-128.7795 576.4409,-139.2985 582.7246,-136.2138"/>
</g>
<!-- Node28 -->
<g id="node29" class="node">
<title>Node28</title>
<g id="a_node29"><a xlink:href="str_8h.html" target="_top" xlink:title="str.h">
<polygon fill="#ffffff" stroke="#000000" points="611.1699,-110.5 611.1699,-128.5 646.0713,-128.5 646.0713,-110.5 611.1699,-110.5"/>
<text text-anchor="middle" x="628.6206" y="-116.5" font-family="Helvetica,sans-Serif" font-size="10.00" fill="#000000">str.h</text>
</a>
</g>
</g>
<!-- Node26&#45;&gt;Node28 -->
<g id="edge33" class="edge">
<title>Node26&#45;&gt;Node28</title>
<path fill="none" stroke="#191970" d="M602.7396,-165.4179C606.9771,-157.8998 613.1303,-146.9829 618.3738,-137.6799"/>
<polygon fill="#191970" stroke="#191970" points="621.5292,-139.2096 623.3904,-128.7795 615.4311,-135.7724 621.5292,-139.2096"/>
</g>
<!-- Node27&#45;&gt;Node2 -->
<g id="edge32" class="edge">
<title>Node27&#45;&gt;Node2</title>
<path fill="none" stroke="#191970" d="M587.629,-110.4179C603.9549,-101.7001 628.8396,-88.4122 647.646,-78.3699"/>
<polygon fill="#191970" stroke="#191970" points="649.4144,-81.3934 656.587,-73.5956 646.1172,-75.2186 649.4144,-81.3934"/>
</g>
<!-- Node28&#45;&gt;Node2 -->
<g id="edge34" class="edge">
<title>Node28&#45;&gt;Node2</title>
<path fill="none" stroke="#191970" d="M636.0514,-110.4179C642.3968,-102.6624 651.7015,-91.29 659.4632,-81.8035"/>
<polygon fill="#191970" stroke="#191970" points="662.4048,-83.7354 666.0283,-73.7795 656.9871,-79.3027 662.4048,-83.7354"/>
</g>
<!-- Node29&#45;&gt;Node2 -->
<g id="edge36" class="edge">
<title>Node29&#45;&gt;Node2</title>
<path fill="none" stroke="#191970" d="M674.4096,-165.3981C678.8399,-156.4264 685.1074,-142.1847 687.6206,-129 690.5708,-113.523 686.313,-96.0643 681.7391,-83.2176"/>
<polygon fill="#191970" stroke="#191970" points="684.8945,-81.6781 677.974,-73.6558 678.3813,-84.2429 684.8945,-81.6781"/>
</g>
<!-- Node29&#45;&gt;Node23 -->
<g id="edge37" class="edge">
<title>Node29&#45;&gt;Node23</title>
<path fill="none" stroke="#191970" d="M652.5929,-168.1672C649.6099,-167.0896 646.5301,-165.9972 643.6206,-165 608.5708,-152.9867 568.3271,-140.1842 539.6528,-131.23"/>
<polygon fill="#191970" stroke="#191970" points="540.6087,-127.8619 530.0203,-128.2308 538.5277,-134.5455 540.6087,-127.8619"/>
</g>
<!-- Node31 -->
<g id="node32" class="node">
<title>Node31</title>
<g id="a_node32"><a xlink:href="events_2include_2event__json_8h.html" target="_top" xlink:title="event_json.h">
<polygon fill="#ffffff" stroke="#000000" points="732.2661,-165.5 732.2661,-183.5 804.9751,-183.5 804.9751,-165.5 732.2661,-165.5"/>
<text text-anchor="middle" x="768.6206" y="-171.5" font-family="Helvetica,sans-Serif" font-size="10.00" fill="#000000">event_json.h</text>
</a>
</g>
</g>
<!-- Node30&#45;&gt;Node31 -->
<g id="edge39" class="edge">
<title>Node30&#45;&gt;Node31</title>
<path fill="none" stroke="#191970" d="M743.5745,-220.4179C747.6753,-212.8998 753.6299,-201.9829 758.7043,-192.6799"/>
<polygon fill="#191970" stroke="#191970" points="761.8431,-194.2344 763.5591,-183.7795 755.6979,-190.8824 761.8431,-194.2344"/>
</g>
<!-- Node32 -->
<g id="node33" class="node">
<title>Node32</title>
<g id="a_node33"><a xlink:href="base64_8h.html" target="_top" xlink:title="base64.h">
<polygon fill="#ffffff" stroke="#000000" points="740.0469,-110.5 740.0469,-128.5 797.1943,-128.5 797.1943,-110.5 740.0469,-110.5"/>
<text text-anchor="middle" x="768.6206" y="-116.5" font-family="Helvetica,sans-Serif" font-size="10.00" fill="#000000">base64.h</text>
</a>
</g>
</g>
<!-- Node31&#45;&gt;Node32 -->
<g id="edge40" class="edge">
<title>Node31&#45;&gt;Node32</title>
<path fill="none" stroke="#191970" d="M768.6206,-165.4179C768.6206,-158.2164 768.6206,-147.8962 768.6206,-138.8632"/>
<polygon fill="#191970" stroke="#191970" points="772.1207,-138.7794 768.6206,-128.7795 765.1207,-138.7795 772.1207,-138.7794"/>
</g>
<!-- Node33 -->
<g id="node34" class="node">
<title>Node33</title>
<g id="a_node34"><a xlink:href="mac2int_8h.html" target="_top" xlink:title="mac2int.h">
<polygon fill="#ffffff" stroke="#000000" points="814.9434,-110.5 814.9434,-128.5 874.2979,-128.5 874.2979,-110.5 814.9434,-110.5"/>
<text text-anchor="middle" x="844.6206" y="-116.5" font-family="Helvetica,sans-Serif" font-size="10.00" fill="#000000">mac2int.h</text>
</a>
</g>
</g>
<!-- Node31&#45;&gt;Node33 -->
<g id="edge42" class="edge">
<title>Node31&#45;&gt;Node33</title>
<path fill="none" stroke="#191970" d="M781.1705,-165.4179C792.7218,-157.0584 810.0798,-144.4966 823.7221,-134.6239"/>
<polygon fill="#191970" stroke="#191970" points="826.0029,-137.2938 832.0521,-128.5956 821.899,-131.6229 826.0029,-137.2938"/>
</g>
<!-- Node32&#45;&gt;Node2 -->
<g id="edge41" class="edge">
<title>Node32&#45;&gt;Node2</title>
<path fill="none" stroke="#191970" d="M752.9333,-110.4179C738.0816,-101.8195 715.5508,-88.7754 698.2937,-78.7844"/>
<polygon fill="#191970" stroke="#191970" points="699.7391,-75.577 689.3312,-73.5956 696.2319,-81.635 699.7391,-75.577"/>
</g>
<!-- Node33&#45;&gt;Node2 -->
<g id="edge43" class="edge">
<title>Node33&#45;&gt;Node2</title>
<path fill="none" stroke="#191970" d="M816.3834,-110.4179C787.7084,-101.1949 743.1296,-86.8567 711.4216,-76.6582"/>
<polygon fill="#191970" stroke="#191970" points="712.2069,-73.2343 701.6155,-73.5042 710.0635,-79.8981 712.2069,-73.2343"/>
</g>
</g>
</svg>
