<?xml version="1.0" encoding="UTF-8" standalone="no"?>
<!DOCTYPE svg PUBLIC "-//W3C//DTD SVG 1.1//EN"
 "http://www.w3.org/Graphics/SVG/1.1/DTD/svg11.dtd">
<!-- Generated by graphviz version 2.40.1 (20161225.0304)
 -->
<!-- Title: events/include/event_json.h Pages: 1 -->
<svg width="2371pt" height="257pt"
 viewBox="0.00 0.00 2371.06 257.00" xmlns="http://www.w3.org/2000/svg" xmlns:xlink="http://www.w3.org/1999/xlink">
<g id="graph0" class="graph" transform="scale(1 1) rotate(0) translate(4 253)">
<title>events/include/event_json.h</title>
<polygon fill="#ffffff" stroke="transparent" points="-4,4 -4,-253 2367.0647,-253 2367.0647,4 -4,4"/>
<!-- Node0 -->
<g id="node1" class="node">
<title>Node0</title>
<polygon fill="#bfbfbf" stroke="#000000" points="1775.8015,-220.5 1775.8015,-248.5 1882.9734,-248.5 1882.9734,-220.5 1775.8015,-220.5"/>
<text text-anchor="start" x="1783.8015" y="-236.5" font-family="Helvetica,sans-Serif" font-size="10.00" fill="#000000">events/include/event</text>
<text text-anchor="middle" x="1829.3875" y="-226.5" font-family="Helvetica,sans-Serif" font-size="10.00" fill="#000000">_json.h</text>
</g>
<!-- Node1 -->
<g id="node2" class="node">
<title>Node1</title>
<g id="a_node2"><a xlink:href="base64_8h.html" target="_top" xlink:title="base64.h">
<polygon fill="#ffffff" stroke="#000000" points="1772.8137,-165.5 1772.8137,-183.5 1829.9612,-183.5 1829.9612,-165.5 1772.8137,-165.5"/>
<text text-anchor="middle" x="1801.3875" y="-171.5" font-family="Helvetica,sans-Serif" font-size="10.00" fill="#000000">base64.h</text>
</a>
</g>
</g>
<!-- Node0&#45;&gt;Node1 -->
<g id="edge1" class="edge">
<title>Node0&#45;&gt;Node1</title>
<path fill="none" stroke="#191970" d="M1822.7518,-220.2808C1818.8979,-212.0224 1814.0031,-201.5335 1809.8713,-192.6796"/>
<polygon fill="#191970" stroke="#191970" points="1813.0273,-191.1659 1805.6267,-183.5842 1806.684,-194.1261 1813.0273,-191.1659"/>
</g>
<!-- Node28 -->
<g id="node29" class="node">
<title>Node28</title>
<g id="a_node29"><a xlink:href="mac2int_8h.html" target="_top" xlink:title="mac2int.h">
<polygon fill="#ffffff" stroke="#000000" points="2303.7102,-55.5 2303.7102,-73.5 2363.0647,-73.5 2363.0647,-55.5 2303.7102,-55.5"/>
<text text-anchor="middle" x="2333.3875" y="-61.5" font-family="Helvetica,sans-Serif" font-size="10.00" fill="#000000">mac2int.h</text>
</a>
</g>
</g>
<!-- Node0&#45;&gt;Node28 -->
<g id="edge44" class="edge">
<title>Node0&#45;&gt;Node28</title>
<path fill="none" stroke="#191970" d="M1871.0607,-220.4436C1967.6726,-187.8562 2205.6411,-107.5891 2296.9268,-76.7982"/>
<polygon fill="#191970" stroke="#191970" points="2298.2025,-80.0617 2306.5594,-73.5491 2295.9652,-73.4289 2298.2025,-80.0617"/>
</g>
<!-- Node2 -->
<g id="node3" class="node">
<title>Node2</title>
<g id="a_node3"><a xlink:href="src_2include_2common_8h.html" target="_top" xlink:title="common.h">
<polygon fill="#ffffff" stroke="#000000" points="1295.0452,-110.5 1295.0452,-128.5 1357.7297,-128.5 1357.7297,-110.5 1295.0452,-110.5"/>
<text text-anchor="middle" x="1326.3875" y="-116.5" font-family="Helvetica,sans-Serif" font-size="10.00" fill="#000000">common.h</text>
</a>
</g>
</g>
<!-- Node1&#45;&gt;Node2 -->
<g id="edge2" class="edge">
<title>Node1&#45;&gt;Node2</title>
<path fill="none" stroke="#191970" d="M1772.7438,-171.1834C1692.0286,-161.8374 1462.4589,-135.2556 1367.8851,-124.305"/>
<polygon fill="#191970" stroke="#191970" points="1368.1694,-120.8146 1357.8332,-123.1411 1367.3642,-127.7682 1368.1694,-120.8146"/>
</g>
<!-- Node3 -->
<g id="node4" class="node">
<title>Node3</title>
<polygon fill="#ffffff" stroke="#bfbfbf" points="860.656,-.5 860.656,-18.5 906.1189,-18.5 906.1189,-.5 860.656,-.5"/>
<text text-anchor="middle" x="883.3875" y="-6.5" font-family="Helvetica,sans-Serif" font-size="10.00" fill="#000000">stdio.h</text>
</g>
<!-- Node2&#45;&gt;Node3 -->
<g id="edge3" class="edge">
<title>Node2&#45;&gt;Node3</title>
<path fill="none" stroke="#191970" d="M1294.9617,-119.0168C1096.7706,-115.8974 27.55,-97.9734 4.3875,-74 -1.4801,-67.927 -1.4273,-61.1235 4.3875,-55 34.0261,-23.7875 692.5575,-12.2695 849.862,-9.9584"/>
<polygon fill="#191970" stroke="#191970" points="850.3578,-13.4517 860.3062,-9.8078 850.2568,-6.4525 850.3578,-13.4517"/>
</g>
<!-- Node4 -->
<g id="node5" class="node">
<title>Node4</title>
<polygon fill="#ffffff" stroke="#bfbfbf" points="13.8752,-55.5 13.8752,-73.5 64.8997,-73.5 64.8997,-55.5 13.8752,-55.5"/>
<text text-anchor="middle" x="39.3875" y="-61.5" font-family="Helvetica,sans-Serif" font-size="10.00" fill="#000000">unistd.h</text>
</g>
<!-- Node2&#45;&gt;Node4 -->
<g id="edge4" class="edge">
<title>Node2&#45;&gt;Node4</title>
<path fill="none" stroke="#191970" d="M1294.9029,-119.363C1127.4769,-118.4837 339.6252,-112.4193 75.1766,-73.9034"/>
<polygon fill="#191970" stroke="#191970" points="75.6481,-70.435 65.2374,-72.4014 74.6022,-77.3564 75.6481,-70.435"/>
</g>
<!-- Node5 -->
<g id="node6" class="node">
<title>Node5</title>
<polygon fill="#ffffff" stroke="#bfbfbf" points="82.5452,-55.5 82.5452,-73.5 130.2297,-73.5 130.2297,-55.5 82.5452,-55.5"/>
<text text-anchor="middle" x="106.3875" y="-61.5" font-family="Helvetica,sans-Serif" font-size="10.00" fill="#000000">stdlib.h</text>
</g>
<!-- Node2&#45;&gt;Node5 -->
<g id="edge5" class="edge">
<title>Node2&#45;&gt;Node5</title>
<path fill="none" stroke="#191970" d="M1294.9549,-119.3228C1133.1179,-118.2565 392.0389,-111.4636 140.5579,-73.7231"/>
<polygon fill="#191970" stroke="#191970" points="140.8054,-70.2194 130.3853,-72.1358 139.7261,-77.1358 140.8054,-70.2194"/>
</g>
<!-- Node6 -->
<g id="node7" class="node">
<title>Node6</title>
<polygon fill="#ffffff" stroke="#bfbfbf" points="1796.321,-.5 1796.321,-18.5 1848.4539,-18.5 1848.4539,-.5 1796.321,-.5"/>
<text text-anchor="middle" x="1822.3875" y="-6.5" font-family="Helvetica,sans-Serif" font-size="10.00" fill="#000000">stdarg.h</text>
</g>
<!-- Node2&#45;&gt;Node6 -->
<g id="edge6" class="edge">
<title>Node2&#45;&gt;Node6</title>
<path fill="none" stroke="#191970" d="M1358.083,-119.0513C1463.3729,-117.2366 1796.6273,-108.769 1828.3875,-74 1839.4958,-61.8393 1835.9307,-42.483 1830.8455,-28.144"/>
<polygon fill="#191970" stroke="#191970" points="1834.0488,-26.729 1827.062,-18.7643 1827.557,-29.3476 1834.0488,-26.729"/>
</g>
<!-- Node7 -->
<g id="node8" class="node">
<title>Node7</title>
<polygon fill="#ffffff" stroke="#bfbfbf" points="148.2668,-55.5 148.2668,-73.5 196.5081,-73.5 196.5081,-55.5 148.2668,-55.5"/>
<text text-anchor="middle" x="172.3875" y="-61.5" font-family="Helvetica,sans-Serif" font-size="10.00" fill="#000000">stdint.h</text>
</g>
<!-- Node2&#45;&gt;Node7 -->
<g id="edge7" class="edge">
<title>Node2&#45;&gt;Node7</title>
<path fill="none" stroke="#191970" d="M1294.9254,-119.2062C1138.6847,-117.5997 444.6131,-108.6909 206.7175,-73.5667"/>
<polygon fill="#191970" stroke="#191970" points="207.167,-70.0947 196.7517,-72.0368 206.1049,-77.0137 207.167,-70.0947"/>
</g>
<!-- Node8 -->
<g id="node9" class="node">
<title>Node8</title>
<polygon fill="#ffffff" stroke="#bfbfbf" points="214.991,-55.5 214.991,-73.5 263.7839,-73.5 263.7839,-55.5 214.991,-55.5"/>
<text text-anchor="middle" x="239.3875" y="-61.5" font-family="Helvetica,sans-Serif" font-size="10.00" fill="#000000">string.h</text>
</g>
<!-- Node2&#45;&gt;Node8 -->
<g id="edge8" class="edge">
<title>Node2&#45;&gt;Node8</title>
<path fill="none" stroke="#191970" d="M1295.0255,-119.148C1144.751,-117.3106 496.8014,-107.6426 274.0747,-73.8728"/>
<polygon fill="#191970" stroke="#191970" points="274.5335,-70.402 264.1098,-72.2986 273.4412,-77.3162 274.5335,-70.402"/>
</g>
<!-- Node9 -->
<g id="node10" class="node">
<title>Node9</title>
<polygon fill="#ffffff" stroke="#bfbfbf" points="281.491,-55.5 281.491,-73.5 335.2839,-73.5 335.2839,-55.5 281.491,-55.5"/>
<text text-anchor="middle" x="308.3875" y="-61.5" font-family="Helvetica,sans-Serif" font-size="10.00" fill="#000000">strings.h</text>
</g>
<!-- Node2&#45;&gt;Node9 -->
<g id="edge9" class="edge">
<title>Node2&#45;&gt;Node9</title>
<path fill="none" stroke="#191970" d="M1295.0245,-118.9402C1151.2767,-116.2399 553.8615,-103.5207 345.3145,-73.7564"/>
<polygon fill="#191970" stroke="#191970" points="345.7909,-70.2888 335.3849,-72.2802 344.7615,-77.2127 345.7909,-70.2888"/>
</g>
<!-- Node10 -->
<g id="node11" class="node">
<title>Node10</title>
<polygon fill="#ffffff" stroke="#bfbfbf" points="353.2595,-55.5 353.2595,-73.5 411.5154,-73.5 411.5154,-55.5 353.2595,-55.5"/>
<text text-anchor="middle" x="382.3875" y="-61.5" font-family="Helvetica,sans-Serif" font-size="10.00" fill="#000000">pthread.h</text>
</g>
<!-- Node2&#45;&gt;Node10 -->
<g id="edge10" class="edge">
<title>Node2&#45;&gt;Node10</title>
<path fill="none" stroke="#191970" d="M1294.7058,-118.7375C1157.6041,-115.3127 614.0507,-100.4157 421.7147,-73.8723"/>
<polygon fill="#191970" stroke="#191970" points="422.1287,-70.3959 411.7322,-72.4364 421.1319,-77.3246 422.1287,-70.3959"/>
</g>
<!-- Node11 -->
<g id="node12" class="node">
<title>Node11</title>
<polygon fill="#ffffff" stroke="#bfbfbf" points="429.2668,-55.5 429.2668,-73.5 477.5081,-73.5 477.5081,-55.5 429.2668,-55.5"/>
<text text-anchor="middle" x="453.3875" y="-61.5" font-family="Helvetica,sans-Serif" font-size="10.00" fill="#000000">ctype.h</text>
</g>
<!-- Node2&#45;&gt;Node11 -->
<g id="edge11" class="edge">
<title>Node2&#45;&gt;Node11</title>
<path fill="none" stroke="#191970" d="M1294.782,-118.7444C1164.233,-115.4791 665.9052,-101.5551 487.7613,-73.8114"/>
<polygon fill="#191970" stroke="#191970" points="488.1865,-70.3346 477.7536,-72.1801 487.0602,-77.2434 488.1865,-70.3346"/>
</g>
<!-- Node12 -->
<g id="node13" class="node">
<title>Node12</title>
<polygon fill="#ffffff" stroke="#bfbfbf" points="495.5452,-55.5 495.5452,-73.5 543.2297,-73.5 543.2297,-55.5 495.5452,-55.5"/>
<text text-anchor="middle" x="519.3875" y="-61.5" font-family="Helvetica,sans-Serif" font-size="10.00" fill="#000000">errno.h</text>
</g>
<!-- Node2&#45;&gt;Node12 -->
<g id="edge12" class="edge">
<title>Node2&#45;&gt;Node12</title>
<path fill="none" stroke="#191970" d="M1294.6865,-118.6112C1170.6039,-114.9853 717.0515,-100.3171 553.2598,-73.933"/>
<polygon fill="#191970" stroke="#191970" points="553.8018,-70.4751 543.3585,-72.2604 552.6358,-77.3773 553.8018,-70.4751"/>
</g>
<!-- Node13 -->
<g id="node14" class="node">
<title>Node13</title>
<polygon fill="#ffffff" stroke="#bfbfbf" points="560.7717,-55.5 560.7717,-73.5 604.0032,-73.5 604.0032,-55.5 560.7717,-55.5"/>
<text text-anchor="middle" x="582.3875" y="-61.5" font-family="Helvetica,sans-Serif" font-size="10.00" fill="#000000">time.h</text>
</g>
<!-- Node2&#45;&gt;Node13 -->
<g id="edge13" class="edge">
<title>Node2&#45;&gt;Node13</title>
<path fill="none" stroke="#191970" d="M1294.7955,-118.4658C1177.4728,-114.4761 766.2068,-99.128 614.2996,-73.6621"/>
<polygon fill="#191970" stroke="#191970" points="614.7017,-70.1791 604.246,-71.8907 613.4869,-77.0729 614.7017,-70.1791"/>
</g>
<!-- Node14 -->
<g id="node15" class="node">
<title>Node14</title>
<polygon fill="#ffffff" stroke="#bfbfbf" points="622.0476,-55.5 622.0476,-73.5 664.7273,-73.5 664.7273,-55.5 622.0476,-55.5"/>
<text text-anchor="middle" x="643.3875" y="-61.5" font-family="Helvetica,sans-Serif" font-size="10.00" fill="#000000">fcntl.h</text>
</g>
<!-- Node2&#45;&gt;Node14 -->
<g id="edge14" class="edge">
<title>Node2&#45;&gt;Node14</title>
<path fill="none" stroke="#191970" d="M1294.8156,-118.2502C1184.2833,-113.73 814.3893,-97.3464 674.9398,-73.5799"/>
<polygon fill="#191970" stroke="#191970" points="675.372,-70.1016 664.9113,-71.7818 674.1366,-76.9918 675.372,-70.1016"/>
</g>
<!-- Node15 -->
<g id="node16" class="node">
<title>Node15</title>
<polygon fill="#ffffff" stroke="#bfbfbf" points="683.1536,-55.5 683.1536,-73.5 733.6213,-73.5 733.6213,-55.5 683.1536,-55.5"/>
<text text-anchor="middle" x="708.3875" y="-61.5" font-family="Helvetica,sans-Serif" font-size="10.00" fill="#000000">signal.h</text>
</g>
<!-- Node2&#45;&gt;Node15 -->
<g id="edge15" class="edge">
<title>Node2&#45;&gt;Node15</title>
<path fill="none" stroke="#191970" d="M1294.7795,-119.1925C1207.9766,-117.8931 958.6339,-111.1056 743.7663,-73.934"/>
<polygon fill="#191970" stroke="#191970" points="744.339,-70.4811 733.8843,-72.1985 743.1281,-77.3756 744.339,-70.4811"/>
</g>
<!-- Node16 -->
<g id="node17" class="node">
<title>Node16</title>
<polygon fill="#ffffff" stroke="#bfbfbf" points="2009.8826,-.5 2009.8826,-18.5 2070.8923,-18.5 2070.8923,-.5 2009.8826,-.5"/>
<text text-anchor="middle" x="2040.3875" y="-6.5" font-family="Helvetica,sans-Serif" font-size="10.00" fill="#000000">sys/time.h</text>
</g>
<!-- Node2&#45;&gt;Node16 -->
<g id="edge16" class="edge">
<title>Node2&#45;&gt;Node16</title>
<path fill="none" stroke="#191970" d="M1357.8686,-118.9233C1503.6525,-116.1024 2107.2425,-102.7165 2134.3875,-74 2155.7951,-51.353 2115.3076,-32.164 2080.9656,-20.7468"/>
<polygon fill="#191970" stroke="#191970" points="2081.631,-17.286 2071.0408,-17.597 2079.5136,-23.958 2081.631,-17.286"/>
</g>
<!-- Node17 -->
<g id="node18" class="node">
<title>Node17</title>
<polygon fill="#ffffff" stroke="#bfbfbf" points="751.2693,-55.5 751.2693,-73.5 809.5056,-73.5 809.5056,-55.5 751.2693,-55.5"/>
<text text-anchor="middle" x="780.3875" y="-61.5" font-family="Helvetica,sans-Serif" font-size="10.00" fill="#000000">sys/stat.h</text>
</g>
<!-- Node2&#45;&gt;Node17 -->
<g id="edge17" class="edge">
<title>Node2&#45;&gt;Node17</title>
<path fill="none" stroke="#191970" d="M1294.955,-118.3862C1216.3349,-115.2395 1004.7748,-104.5492 819.6608,-73.9806"/>
<polygon fill="#191970" stroke="#191970" points="820.1914,-70.5208 809.7506,-72.3206 819.0349,-77.4246 820.1914,-70.5208"/>
</g>
<!-- Node18 -->
<g id="node19" class="node">
<title>Node18</title>
<polygon fill="#ffffff" stroke="#bfbfbf" points="827.3777,-55.5 827.3777,-73.5 893.3972,-73.5 893.3972,-55.5 827.3777,-55.5"/>
<text text-anchor="middle" x="860.3875" y="-61.5" font-family="Helvetica,sans-Serif" font-size="10.00" fill="#000000">sys/types.h</text>
</g>
<!-- Node2&#45;&gt;Node18 -->
<g id="edge18" class="edge">
<title>Node2&#45;&gt;Node18</title>
<path fill="none" stroke="#191970" d="M1294.8358,-117.3675C1225.7144,-112.4282 1055.6052,-98.8142 903.7633,-74.0672"/>
<polygon fill="#191970" stroke="#191970" points="904.2259,-70.5963 893.7894,-72.4211 903.0859,-77.5029 904.2259,-70.5963"/>
</g>
<!-- Node19 -->
<g id="node20" class="node">
<title>Node19</title>
<polygon fill="#ffffff" stroke="#bfbfbf" points="911.4368,-55.5 911.4368,-73.5 971.3381,-73.5 971.3381,-55.5 911.4368,-55.5"/>
<text text-anchor="middle" x="941.3875" y="-61.5" font-family="Helvetica,sans-Serif" font-size="10.00" fill="#000000">sys/ioctl.h</text>
</g>
<!-- Node2&#45;&gt;Node19 -->
<g id="edge19" class="edge">
<title>Node2&#45;&gt;Node19</title>
<path fill="none" stroke="#191970" d="M1294.6168,-116.5647C1234.9922,-110.792 1102.1212,-96.6792 981.7238,-74.2929"/>
<polygon fill="#191970" stroke="#191970" points="982.0765,-70.7978 971.6012,-72.3853 980.7801,-77.6768 982.0765,-70.7978"/>
</g>
<!-- Node20 -->
<g id="node21" class="node">
<title>Node20</title>
<polygon fill="#ffffff" stroke="#bfbfbf" points="988.8777,-55.5 988.8777,-73.5 1059.8972,-73.5 1059.8972,-55.5 988.8777,-55.5"/>
<text text-anchor="middle" x="1024.3875" y="-61.5" font-family="Helvetica,sans-Serif" font-size="10.00" fill="#000000">sys/socket.h</text>
</g>
<!-- Node2&#45;&gt;Node20 -->
<g id="edge20" class="edge">
<title>Node2&#45;&gt;Node20</title>
<path fill="none" stroke="#191970" d="M1294.9409,-114.3511C1248.0855,-106.593 1156.9346,-91.1702 1069.9417,-74.2523"/>
<polygon fill="#191970" stroke="#191970" points="1070.3908,-70.7739 1059.905,-72.29 1069.0476,-77.6439 1070.3908,-70.7739"/>
</g>
<!-- Node21 -->
<g id="node22" class="node">
<title>Node21</title>
<polygon fill="#ffffff" stroke="#bfbfbf" points="1077.7668,-55.5 1077.7668,-73.5 1151.0081,-73.5 1151.0081,-55.5 1077.7668,-55.5"/>
<text text-anchor="middle" x="1114.3875" y="-61.5" font-family="Helvetica,sans-Serif" font-size="10.00" fill="#000000">sys/sysinfo.h</text>
</g>
<!-- Node2&#45;&gt;Node21 -->
<g id="edge21" class="edge">
<title>Node2&#45;&gt;Node21</title>
<path fill="none" stroke="#191970" d="M1294.6489,-111.2659C1258.6568,-101.9284 1199.7093,-86.6354 1159.0773,-76.0941"/>
<polygon fill="#191970" stroke="#191970" points="1159.7253,-72.6464 1149.1668,-73.5229 1157.9674,-79.4221 1159.7253,-72.6464"/>
</g>
<!-- Node22 -->
<g id="node23" class="node">
<title>Node22</title>
<polygon fill="#ffffff" stroke="#bfbfbf" points="1168.7595,-55.5 1168.7595,-73.5 1232.0154,-73.5 1232.0154,-55.5 1168.7595,-55.5"/>
<text text-anchor="middle" x="1200.3875" y="-61.5" font-family="Helvetica,sans-Serif" font-size="10.00" fill="#000000">arpa/inet.h</text>
</g>
<!-- Node2&#45;&gt;Node22 -->
<g id="edge22" class="edge">
<title>Node2&#45;&gt;Node22</title>
<path fill="none" stroke="#191970" d="M1305.5811,-110.4179C1285.1536,-101.5011 1253.7726,-87.803 1230.5983,-77.6873"/>
<polygon fill="#191970" stroke="#191970" points="1231.7898,-74.3885 1221.2247,-73.5956 1228.9894,-80.804 1231.7898,-74.3885"/>
</g>
<!-- Node23 -->
<g id="node24" class="node">
<title>Node23</title>
<polygon fill="#ffffff" stroke="#bfbfbf" points="1249.9246,-55.5 1249.9246,-73.5 1314.8503,-73.5 1314.8503,-55.5 1249.9246,-55.5"/>
<text text-anchor="middle" x="1282.3875" y="-61.5" font-family="Helvetica,sans-Serif" font-size="10.00" fill="#000000">netinet/in.h</text>
</g>
<!-- Node2&#45;&gt;Node23 -->
<g id="edge23" class="edge">
<title>Node2&#45;&gt;Node23</title>
<path fill="none" stroke="#191970" d="M1319.1217,-110.4179C1312.9174,-102.6624 1303.8194,-91.29 1296.2302,-81.8035"/>
<polygon fill="#191970" stroke="#191970" points="1298.7911,-79.4017 1289.811,-73.7795 1293.325,-83.7746 1298.7911,-79.4017"/>
</g>
<!-- Node24 -->
<g id="node25" class="node">
<title>Node24</title>
<polygon fill="#ffffff" stroke="#bfbfbf" points="1332.5305,-55.5 1332.5305,-73.5 1410.2444,-73.5 1410.2444,-55.5 1332.5305,-55.5"/>
<text text-anchor="middle" x="1371.3875" y="-61.5" font-family="Helvetica,sans-Serif" font-size="10.00" fill="#000000">net/ethernet.h</text>
</g>
<!-- Node2&#45;&gt;Node24 -->
<g id="edge24" class="edge">
<title>Node2&#45;&gt;Node24</title>
<path fill="none" stroke="#191970" d="M1333.8183,-110.4179C1340.1637,-102.6624 1349.4684,-91.29 1357.23,-81.8035"/>
<polygon fill="#191970" stroke="#191970" points="1360.1716,-83.7354 1363.7952,-73.7795 1354.7539,-79.3027 1360.1716,-83.7354"/>
</g>
<!-- Node25 -->
<g id="node26" class="node">
<title>Node25</title>
<polygon fill="#ffffff" stroke="#bfbfbf" points="1427.9246,-55.5 1427.9246,-73.5 1492.8503,-73.5 1492.8503,-55.5 1427.9246,-55.5"/>
<text text-anchor="middle" x="1460.3875" y="-61.5" font-family="Helvetica,sans-Serif" font-size="10.00" fill="#000000">netinet/ip.h</text>
</g>
<!-- Node2&#45;&gt;Node25 -->
<g id="edge25" class="edge">
<title>Node2&#45;&gt;Node25</title>
<path fill="none" stroke="#191970" d="M1348.5148,-110.4179C1370.4333,-101.4215 1404.2096,-87.5581 1428.9165,-77.4172"/>
<polygon fill="#191970" stroke="#191970" points="1430.3051,-80.6306 1438.2272,-73.5956 1427.6471,-74.1549 1430.3051,-80.6306"/>
</g>
<!-- Node26 -->
<g id="node27" class="node">
<title>Node26</title>
<polygon fill="#ffffff" stroke="#bfbfbf" points="1511.1462,-55.5 1511.1462,-73.5 1581.6287,-73.5 1581.6287,-55.5 1511.1462,-55.5"/>
<text text-anchor="middle" x="1546.3875" y="-61.5" font-family="Helvetica,sans-Serif" font-size="10.00" fill="#000000">netinet/tcp.h</text>
</g>
<!-- Node2&#45;&gt;Node26 -->
<g id="edge26" class="edge">
<title>Node2&#45;&gt;Node26</title>
<path fill="none" stroke="#191970" d="M1357.9081,-111.6198C1395.4161,-102.2428 1458.3259,-86.5154 1501.053,-75.8336"/>
<polygon fill="#191970" stroke="#191970" points="1502.064,-79.1887 1510.9166,-73.3677 1500.3662,-72.3977 1502.064,-79.1887"/>
</g>
<!-- Node27 -->
<g id="node28" class="node">
<title>Node27</title>
<polygon fill="#ffffff" stroke="#bfbfbf" points="1599.5872,-55.5 1599.5872,-73.5 1691.1877,-73.5 1691.1877,-55.5 1599.5872,-55.5"/>
<text text-anchor="middle" x="1645.3875" y="-61.5" font-family="Helvetica,sans-Serif" font-size="10.00" fill="#000000">netinet/ip_icmp.h</text>
</g>
<!-- Node2&#45;&gt;Node27 -->
<g id="edge27" class="edge">
<title>Node2&#45;&gt;Node27</title>
<path fill="none" stroke="#191970" d="M1358.0853,-114.0408C1405.8587,-105.8121 1499.4349,-89.6909 1589.3747,-74.1743"/>
<polygon fill="#191970" stroke="#191970" points="1590.2123,-77.5815 1599.4716,-72.4322 1589.0221,-70.6835 1590.2123,-77.5815"/>
</g>
<!-- Node2&#45;&gt;Node28 -->
<g id="edge28" class="edge">
<title>Node2&#45;&gt;Node28</title>
<path fill="none" stroke="#191970" d="M1357.9921,-118.6321C1501.9509,-114.7594 2095.3384,-98.1794 2280.3875,-74 2284.5719,-73.4532 2288.9488,-72.7144 2293.3353,-71.8889"/>
<polygon fill="#191970" stroke="#191970" points="2294.3826,-75.2489 2303.5016,-69.855 2293.0093,-68.3849 2294.3826,-75.2489"/>
</g>
<!-- Node29 -->
<g id="node30" class="node">
<title>Node29</title>
<g id="a_node30"><a xlink:href="ip2int_8h.html" target="_top" xlink:title="ip2int.h">
<polygon fill="#ffffff" stroke="#000000" points="1709.2644,-55.5 1709.2644,-73.5 1757.5105,-73.5 1757.5105,-55.5 1709.2644,-55.5"/>
<text text-anchor="middle" x="1733.3875" y="-61.5" font-family="Helvetica,sans-Serif" font-size="10.00" fill="#000000">ip2int.h</text>
</a>
</g>
</g>
<!-- Node2&#45;&gt;Node29 -->
<g id="edge30" class="edge">
<title>Node2&#45;&gt;Node29</title>
<path fill="none" stroke="#191970" d="M1357.7871,-116.9863C1421.4167,-111.9399 1569.1232,-98.8709 1691.3875,-74 1693.9817,-73.4723 1696.669,-72.8418 1699.3858,-72.16"/>
<polygon fill="#191970" stroke="#191970" points="1700.4651,-75.4951 1709.2405,-69.5584 1698.6783,-68.727 1700.4651,-75.4951"/>
</g>
<!-- Node30 -->
<g id="node31" class="node">
<title>Node30</title>
<g id="a_node31"><a xlink:href="database_8h.html" target="_top" xlink:title="database.h">
<polygon fill="#ffffff" stroke="#000000" points="2181.6438,-55.5 2181.6438,-73.5 2247.1311,-73.5 2247.1311,-55.5 2181.6438,-55.5"/>
<text text-anchor="middle" x="2214.3875" y="-61.5" font-family="Helvetica,sans-Serif" font-size="10.00" fill="#000000">database.h</text>
</a>
</g>
</g>
<!-- Node2&#45;&gt;Node30 -->
<g id="edge32" class="edge">
<title>Node2&#45;&gt;Node30</title>
<path fill="none" stroke="#191970" d="M1357.9448,-118.2934C1490.1098,-113.4074 1998.4725,-94.3777 2158.3875,-74 2162.568,-73.4673 2166.9332,-72.7737 2171.316,-72.0038"/>
<polygon fill="#191970" stroke="#191970" points="2172.3057,-75.3798 2181.4961,-70.1084 2171.0244,-68.498 2172.3057,-75.3798"/>
</g>
<!-- Node32 -->
<g id="node33" class="node">
<title>Node32</title>
<polygon fill="#ffffff" stroke="#bfbfbf" points="1874.9836,-55.5 1874.9836,-73.5 1933.7913,-73.5 1933.7913,-55.5 1874.9836,-55.5"/>
<text text-anchor="middle" x="1904.3875" y="-61.5" font-family="Helvetica,sans-Serif" font-size="10.00" fill="#000000">jansson.h</text>
</g>
<!-- Node2&#45;&gt;Node32 -->
<g id="edge36" class="edge">
<title>Node2&#45;&gt;Node32</title>
<path fill="none" stroke="#191970" d="M1357.9159,-118.2797C1440.8076,-114.7563 1671.549,-102.9127 1861.3875,-74 1862.4834,-73.8331 1863.5931,-73.6546 1864.7116,-73.4664"/>
<polygon fill="#191970" stroke="#191970" points="1865.6927,-76.8435 1874.8761,-71.5599 1864.4022,-69.9635 1865.6927,-76.8435"/>
</g>
<!-- Node33 -->
<g id="node34" class="node">
<title>Node33</title>
<g id="a_node34"><a xlink:href="libcli_8h.html" target="_top" xlink:title="libcli.h">
<polygon fill="#ffffff" stroke="#000000" points="1775.4934,-55.5 1775.4934,-73.5 1819.2815,-73.5 1819.2815,-55.5 1775.4934,-55.5"/>
<text text-anchor="middle" x="1797.3875" y="-61.5" font-family="Helvetica,sans-Serif" font-size="10.00" fill="#000000">libcli.h</text>
</a>
</g>
</g>
<!-- Node2&#45;&gt;Node33 -->
<g id="edge37" class="edge">
<title>Node2&#45;&gt;Node33</title>
<path fill="none" stroke="#191970" d="M1357.9122,-118.341C1429.108,-115.2776 1607.7699,-105.0891 1765.3038,-73.8635"/>
<polygon fill="#191970" stroke="#191970" points="1766.0588,-77.2818 1775.1698,-71.8744 1764.6753,-70.4199 1766.0588,-77.2818"/>
</g>
<!-- Node34 -->
<g id="node35" class="node">
<title>Node34</title>
<polygon fill="#ffffff" stroke="#bfbfbf" points="1952.1609,-55.5 1952.1609,-73.5 2002.614,-73.5 2002.614,-55.5 1952.1609,-55.5"/>
<text text-anchor="middle" x="1977.3875" y="-61.5" font-family="Helvetica,sans-Serif" font-size="10.00" fill="#000000">mysql.h</text>
</g>
<!-- Node2&#45;&gt;Node34 -->
<g id="edge41" class="edge">
<title>Node2&#45;&gt;Node34</title>
<path fill="none" stroke="#191970" d="M1358.0638,-117.9635C1464.5659,-112.6749 1809.9406,-94.502 1942.0188,-73.6578"/>
<polygon fill="#191970" stroke="#191970" points="1942.6045,-77.1086 1951.8993,-72.0234 1941.4621,-70.2024 1942.6045,-77.1086"/>
</g>
<!-- Node35 -->
<g id="node36" class="node">
<title>Node35</title>
<polygon fill="#ffffff" stroke="#bfbfbf" points="2020.7717,-55.5 2020.7717,-73.5 2064.0032,-73.5 2064.0032,-55.5 2020.7717,-55.5"/>
<text text-anchor="middle" x="2042.3875" y="-61.5" font-family="Helvetica,sans-Serif" font-size="10.00" fill="#000000">zmq.h</text>
</g>
<!-- Node2&#45;&gt;Node35 -->
<g id="edge42" class="edge">
<title>Node2&#45;&gt;Node35</title>
<path fill="none" stroke="#191970" d="M1357.9329,-118.3729C1472.1136,-114.1465 1864.3372,-98.3145 2010.4407,-73.6728"/>
<polygon fill="#191970" stroke="#191970" points="2011.2927,-77.0764 2020.5276,-71.8835 2010.0699,-70.184 2011.2927,-77.0764"/>
</g>
<!-- Node36 -->
<g id="node37" class="node">
<title>Node36</title>
<g id="a_node37"><a xlink:href="src_2include_2type_8h.html" target="_top" xlink:title="type.h">
<polygon fill="#ffffff" stroke="#000000" points="2081.7668,-55.5 2081.7668,-73.5 2125.0081,-73.5 2125.0081,-55.5 2081.7668,-55.5"/>
<text text-anchor="middle" x="2103.3875" y="-61.5" font-family="Helvetica,sans-Serif" font-size="10.00" fill="#000000">type.h</text>
</a>
</g>
</g>
<!-- Node2&#45;&gt;Node36 -->
<g id="edge43" class="edge">
<title>Node2&#45;&gt;Node36</title>
<path fill="none" stroke="#191970" d="M1357.7918,-118.6154C1478.514,-115.0595 1913.4623,-100.777 2071.5822,-73.875"/>
<polygon fill="#191970" stroke="#191970" points="2072.3632,-77.291 2081.5907,-72.0848 2071.1306,-70.4003 2072.3632,-77.291"/>
</g>
<!-- Node28&#45;&gt;Node2 -->
<g id="edge29" class="edge">
<title>Node28&#45;&gt;Node2</title>
<path fill="none" stroke="#191970" d="M2303.5738,-73.2432C2301.829,-73.5226 2300.0922,-73.7772 2298.3875,-74 2114.8781,-97.9783 1529.7972,-114.4829 1368.075,-118.5328"/>
<polygon fill="#191970" stroke="#191970" points="1367.9538,-115.0346 1358.0437,-118.7815 1368.1274,-122.0325 1367.9538,-115.0346"/>
</g>
<!-- Node29&#45;&gt;Node2 -->
<g id="edge31" class="edge">
<title>Node29&#45;&gt;Node2</title>
<path fill="none" stroke="#191970" d="M1711.5079,-73.5507C1710.7964,-73.7073 1710.0885,-73.8574 1709.3875,-74 1587.1489,-98.8657 1439.4787,-111.9344 1368.3855,-116.9831"/>
<polygon fill="#191970" stroke="#191970" points="1367.7906,-113.5158 1358.056,-117.6978 1368.2738,-120.4991 1367.7906,-113.5158"/>
</g>
<!-- Node30&#45;&gt;Node2 -->
<g id="edge33" class="edge">
<title>Node30&#45;&gt;Node2</title>
<path fill="none" stroke="#191970" d="M2181.4098,-73.2985C2179.7194,-73.554 2178.039,-73.7895 2176.3875,-74 2017.7417,-94.2159 1516.1571,-113.1053 1367.9319,-118.1744"/>
<polygon fill="#191970" stroke="#191970" points="1367.7555,-114.6782 1357.8799,-118.5153 1367.9928,-121.6742 1367.7555,-114.6782"/>
</g>
<!-- Node31 -->
<g id="node32" class="node">
<title>Node31</title>
<g id="a_node32"><a xlink:href="str_8h.html" target="_top" xlink:title="str.h">
<polygon fill="#ffffff" stroke="#000000" points="2226.9368,-.5 2226.9368,-18.5 2261.8381,-18.5 2261.8381,-.5 2226.9368,-.5"/>
<text text-anchor="middle" x="2244.3875" y="-6.5" font-family="Helvetica,sans-Serif" font-size="10.00" fill="#000000">str.h</text>
</a>
</g>
</g>
<!-- Node30&#45;&gt;Node31 -->
<g id="edge34" class="edge">
<title>Node30&#45;&gt;Node31</title>
<path fill="none" stroke="#191970" d="M2219.3413,-55.4179C2223.4421,-47.8998 2229.3968,-36.9829 2234.4712,-27.6799"/>
<polygon fill="#191970" stroke="#191970" points="2237.61,-29.2344 2239.3259,-18.7795 2231.4647,-25.8824 2237.61,-29.2344"/>
</g>
<!-- Node31&#45;&gt;Node2 -->
<g id="edge35" class="edge">
<title>Node31&#45;&gt;Node2</title>
<path fill="none" stroke="#191970" d="M2250.3993,-18.7894C2258.5869,-32.7207 2270.6831,-58.9879 2256.3875,-74 2225.355,-106.5879 1544.5202,-116.9107 1367.9248,-119.0449"/>
<polygon fill="#191970" stroke="#191970" points="1367.701,-115.5472 1357.7432,-119.1655 1367.784,-122.5467 1367.701,-115.5472"/>
</g>
<!-- Node33&#45;&gt;Node3 -->
<g id="edge39" class="edge">
<title>Node33&#45;&gt;Node3</title>
<path fill="none" stroke="#191970" d="M1775.1965,-56.9844C1772.2607,-56.2015 1769.2701,-55.508 1766.3875,-55 1598.242,-25.3703 1055.5702,-12.8779 916.2375,-10.1128"/>
<polygon fill="#191970" stroke="#191970" points="916.2493,-6.6124 906.1828,-9.9163 916.1125,-13.6111 916.2493,-6.6124"/>
</g>
<!-- Node33&#45;&gt;Node6 -->
<g id="edge38" class="edge">
<title>Node33&#45;&gt;Node6</title>
<path fill="none" stroke="#191970" d="M1801.5157,-55.4179C1804.897,-47.9789 1809.7909,-37.2123 1813.9901,-27.9742"/>
<polygon fill="#191970" stroke="#191970" points="1817.2177,-29.3315 1818.1695,-18.7795 1810.8451,-26.4348 1817.2177,-29.3315"/>
</g>
<!-- Node33&#45;&gt;Node16 -->
<g id="edge40" class="edge">
<title>Node33&#45;&gt;Node16</title>
<path fill="none" stroke="#191970" d="M1819.3807,-59.5221C1860.1249,-50.3002 1947.9033,-30.4326 1999.7369,-18.7007"/>
<polygon fill="#191970" stroke="#191970" points="2000.6191,-22.0897 2009.5998,-16.4684 1999.0738,-15.2624 2000.6191,-22.0897"/>
</g>
</g>
</svg>
