<?xml version="1.0" encoding="UTF-8" standalone="no"?>
<!DOCTYPE svg PUBLIC "-//W3C//DTD SVG 1.1//EN"
 "http://www.w3.org/Graphics/SVG/1.1/DTD/svg11.dtd">
<!-- Generated by graphviz version 2.40.1 (20161225.0304)
 -->
<!-- Title: events/include/event_list.h Pages: 1 -->
<svg width="2611pt" height="222pt"
 viewBox="0.00 0.00 2610.70 222.00" xmlns="http://www.w3.org/2000/svg" xmlns:xlink="http://www.w3.org/1999/xlink">
<g id="graph0" class="graph" transform="scale(1 1) rotate(0) translate(4 218)">
<title>events/include/event_list.h</title>
<polygon fill="#ffffff" stroke="transparent" points="-4,4 -4,-218 2606.7041,-218 2606.7041,4 -4,4"/>
<!-- Node2 -->
<g id="node1" class="node">
<title>Node2</title>
<polygon fill="#bfbfbf" stroke="#000000" points="1303.3374,-185.5 1303.3374,-213.5 1410.5093,-213.5 1410.5093,-185.5 1303.3374,-185.5"/>
<text text-anchor="start" x="1311.3374" y="-201.5" font-family="Helvetica,sans-Serif" font-size="10.00" fill="#000000">events/include/event</text>
<text text-anchor="middle" x="1356.9233" y="-191.5" font-family="Helvetica,sans-Serif" font-size="10.00" fill="#000000">_list.h</text>
</g>
<!-- Node3 -->
<g id="node2" class="node">
<title>Node3</title>
<g id="a_node2"><a xlink:href="events_2include_2event_8h.html" target="_top" xlink:title="events/include/event.h">
<polygon fill="#ffffff" stroke="#000000" points="1299.1675,-130.5 1299.1675,-148.5 1414.6792,-148.5 1414.6792,-130.5 1299.1675,-130.5"/>
<text text-anchor="middle" x="1356.9233" y="-136.5" font-family="Helvetica,sans-Serif" font-size="10.00" fill="#000000">events/include/event.h</text>
</a>
</g>
</g>
<!-- Node2&#45;&gt;Node3 -->
<g id="edge1" class="edge">
<title>Node2&#45;&gt;Node3</title>
<path fill="none" stroke="#191970" d="M1356.9233,-175.2151C1356.9233,-165.8253 1356.9233,-155.6598 1356.9233,-148.5842"/>
<polygon fill="#191970" stroke="#191970" points="1353.4234,-175.2808 1356.9233,-185.2808 1360.4234,-175.2809 1353.4234,-175.2808"/>
</g>
<!-- Node4 -->
<g id="node3" class="node">
<title>Node4</title>
<g id="a_node3"><a xlink:href="apphdlr_8h.html" target="_top" xlink:title="components/include\l/apphdlr.h">
<polygon fill="#ffffff" stroke="#000000" points="4.4507,-65.5 4.4507,-93.5 109.396,-93.5 109.396,-65.5 4.4507,-65.5"/>
<text text-anchor="start" x="12.4507" y="-81.5" font-family="Helvetica,sans-Serif" font-size="10.00" fill="#000000">components/include</text>
<text text-anchor="middle" x="56.9233" y="-71.5" font-family="Helvetica,sans-Serif" font-size="10.00" fill="#000000">/apphdlr.h</text>
</a>
</g>
</g>
<!-- Node3&#45;&gt;Node4 -->
<g id="edge2" class="edge">
<title>Node3&#45;&gt;Node4</title>
<path fill="none" stroke="#191970" d="M1288.9111,-138.7292C1064.3541,-135.9127 347.8921,-124.6894 118.9233,-94 115.8556,-93.5888 112.7172,-93.0941 109.5603,-92.5391"/>
<polygon fill="#191970" stroke="#191970" points="1288.8702,-142.2288 1298.9129,-138.8531 1288.9571,-135.2294 1288.8702,-142.2288"/>
</g>
<!-- Node6 -->
<g id="node5" class="node">
<title>Node6</title>
<g id="a_node5"><a xlink:href="cac_8h.html" target="_top" xlink:title="components/include\l/cac.h">
<polygon fill="#ffffff" stroke="#000000" points="127.4507,-65.5 127.4507,-93.5 232.396,-93.5 232.396,-65.5 127.4507,-65.5"/>
<text text-anchor="start" x="135.4507" y="-81.5" font-family="Helvetica,sans-Serif" font-size="10.00" fill="#000000">components/include</text>
<text text-anchor="middle" x="179.9233" y="-71.5" font-family="Helvetica,sans-Serif" font-size="10.00" fill="#000000">/cac.h</text>
</a>
</g>
</g>
<!-- Node3&#45;&gt;Node6 -->
<g id="edge4" class="edge">
<title>Node3&#45;&gt;Node6</title>
<path fill="none" stroke="#191970" d="M1288.5932,-138.2719C1079.3243,-134.2625 449.1387,-120.2777 245.9233,-94 241.6185,-93.4433 237.1793,-92.7447 232.7346,-91.9567"/>
<polygon fill="#191970" stroke="#191970" points="1288.7631,-141.7756 1298.8278,-138.4664 1288.8962,-134.7769 1288.7631,-141.7756"/>
</g>
<!-- Node8 -->
<g id="node7" class="node">
<title>Node8</title>
<g id="a_node7"><a xlink:href="channel__mgmt_8h.html" target="_top" xlink:title="components/include\l/channel_mgmt.h">
<polygon fill="#ffffff" stroke="#000000" points="254.4507,-65.5 254.4507,-93.5 359.396,-93.5 359.396,-65.5 254.4507,-65.5"/>
<text text-anchor="start" x="262.4507" y="-81.5" font-family="Helvetica,sans-Serif" font-size="10.00" fill="#000000">components/include</text>
<text text-anchor="middle" x="306.9233" y="-71.5" font-family="Helvetica,sans-Serif" font-size="10.00" fill="#000000">/channel_mgmt.h</text>
</a>
</g>
</g>
<!-- Node3&#45;&gt;Node8 -->
<g id="edge6" class="edge">
<title>Node3&#45;&gt;Node8</title>
<path fill="none" stroke="#191970" d="M1288.9509,-137.9968C1095.9711,-133.4702 547.1878,-118.7362 368.9233,-94 365.8575,-93.5746 362.7206,-93.0688 359.5649,-92.5052"/>
<polygon fill="#191970" stroke="#191970" points="1288.885,-141.4961 1298.9638,-138.2299 1289.048,-134.498 1288.885,-141.4961"/>
</g>
<!-- Node10 -->
<g id="node9" class="node">
<title>Node10</title>
<g id="a_node9"><a xlink:href="cluster_8h.html" target="_top" xlink:title="components/include\l/cluster.h">
<polygon fill="#ffffff" stroke="#000000" points="377.4507,-65.5 377.4507,-93.5 482.396,-93.5 482.396,-65.5 377.4507,-65.5"/>
<text text-anchor="start" x="385.4507" y="-81.5" font-family="Helvetica,sans-Serif" font-size="10.00" fill="#000000">components/include</text>
<text text-anchor="middle" x="429.9233" y="-71.5" font-family="Helvetica,sans-Serif" font-size="10.00" fill="#000000">/cluster.h</text>
</a>
</g>
</g>
<!-- Node3&#45;&gt;Node10 -->
<g id="edge8" class="edge">
<title>Node3&#45;&gt;Node10</title>
<path fill="none" stroke="#191970" d="M1288.7582,-137.3392C1113.2162,-131.5434 648.7242,-114.681 495.9233,-94 491.6219,-93.4178 487.1851,-92.701 482.742,-91.9007"/>
<polygon fill="#191970" stroke="#191970" points="1288.7905,-140.8421 1298.9,-137.6724 1289.0203,-133.8459 1288.7905,-140.8421"/>
</g>
<!-- Node12 -->
<g id="node11" class="node">
<title>Node12</title>
<g id="a_node11"><a xlink:href="conflict_8h.html" target="_top" xlink:title="components/include\l/conflict.h">
<polygon fill="#ffffff" stroke="#000000" points="504.4507,-65.5 504.4507,-93.5 609.396,-93.5 609.396,-65.5 504.4507,-65.5"/>
<text text-anchor="start" x="512.4507" y="-81.5" font-family="Helvetica,sans-Serif" font-size="10.00" fill="#000000">components/include</text>
<text text-anchor="middle" x="556.9233" y="-71.5" font-family="Helvetica,sans-Serif" font-size="10.00" fill="#000000">/conflict.h</text>
</a>
</g>
</g>
<!-- Node3&#45;&gt;Node12 -->
<g id="edge10" class="edge">
<title>Node3&#45;&gt;Node12</title>
<path fill="none" stroke="#191970" d="M1289.0625,-136.7419C1132.1623,-130.1329 747.9464,-112.5558 619.9233,-94 616.48,-93.5009 612.9469,-92.9101 609.3961,-92.2571"/>
<polygon fill="#191970" stroke="#191970" points="1288.9255,-140.2392 1299.0634,-137.1613 1289.2188,-133.2453 1288.9255,-140.2392"/>
</g>
<!-- Node14 -->
<g id="node13" class="node">
<title>Node14</title>
<g id="a_node13"><a xlink:href="conn_8h.html" target="_top" xlink:title="components/include\l/conn.h">
<polygon fill="#ffffff" stroke="#000000" points="628.4507,-65.5 628.4507,-93.5 733.396,-93.5 733.396,-65.5 628.4507,-65.5"/>
<text text-anchor="start" x="636.4507" y="-81.5" font-family="Helvetica,sans-Serif" font-size="10.00" fill="#000000">components/include</text>
<text text-anchor="middle" x="680.9233" y="-71.5" font-family="Helvetica,sans-Serif" font-size="10.00" fill="#000000">/conn.h</text>
</a>
</g>
</g>
<!-- Node3&#45;&gt;Node14 -->
<g id="edge12" class="edge">
<title>Node3&#45;&gt;Node14</title>
<path fill="none" stroke="#191970" d="M1288.732,-137.9109C1174.9991,-134.4874 939.648,-124.1055 742.9233,-94 739.8637,-93.5318 736.7317,-92.9925 733.5798,-92.4034"/>
<polygon fill="#191970" stroke="#191970" points="1288.9253,-141.418 1299.0232,-138.2116 1289.1297,-134.421 1288.9253,-141.418"/>
</g>
<!-- Node16 -->
<g id="node15" class="node">
<title>Node16</title>
<g id="a_node15"><a xlink:href="dit_8h.html" target="_top" xlink:title="components/include\l/dit.h">
<polygon fill="#ffffff" stroke="#000000" points="751.4507,-65.5 751.4507,-93.5 856.396,-93.5 856.396,-65.5 751.4507,-65.5"/>
<text text-anchor="start" x="759.4507" y="-81.5" font-family="Helvetica,sans-Serif" font-size="10.00" fill="#000000">components/include</text>
<text text-anchor="middle" x="803.9233" y="-71.5" font-family="Helvetica,sans-Serif" font-size="10.00" fill="#000000">/dit.h</text>
</a>
</g>
</g>
<!-- Node3&#45;&gt;Node16 -->
<g id="edge14" class="edge">
<title>Node3&#45;&gt;Node16</title>
<path fill="none" stroke="#191970" d="M1289.0929,-136.1662C1194.0176,-130.8241 1015.9375,-118.3744 865.9233,-94 862.8682,-93.5036 859.7397,-92.9423 856.5903,-92.3363"/>
<polygon fill="#191970" stroke="#191970" points="1288.9718,-139.6647 1299.1498,-136.7221 1289.3582,-132.6754 1288.9718,-139.6647"/>
</g>
<!-- Node18 -->
<g id="node17" class="node">
<title>Node18</title>
<g id="a_node17"><a xlink:href="flow__mgmt_8h.html" target="_top" xlink:title="components/include\l/flow_mgmt.h">
<polygon fill="#ffffff" stroke="#000000" points="874.4507,-65.5 874.4507,-93.5 979.396,-93.5 979.396,-65.5 874.4507,-65.5"/>
<text text-anchor="start" x="882.4507" y="-81.5" font-family="Helvetica,sans-Serif" font-size="10.00" fill="#000000">components/include</text>
<text text-anchor="middle" x="926.9233" y="-71.5" font-family="Helvetica,sans-Serif" font-size="10.00" fill="#000000">/flow_mgmt.h</text>
</a>
</g>
</g>
<!-- Node3&#45;&gt;Node18 -->
<g id="edge16" class="edge">
<title>Node3&#45;&gt;Node18</title>
<path fill="none" stroke="#191970" d="M1288.8194,-133.2767C1214.7074,-125.9937 1092.883,-112.5289 988.9233,-94 985.8761,-93.4569 982.7538,-92.8591 979.6093,-92.2252"/>
<polygon fill="#191970" stroke="#191970" points="1288.6613,-136.7778 1298.9534,-134.2632 1289.3396,-129.8107 1288.6613,-136.7778"/>
</g>
<!-- Node20 -->
<g id="node19" class="node">
<title>Node20</title>
<g id="a_node19"><a xlink:href="host__mgmt_8h.html" target="_top" xlink:title="components/include\l/host_mgmt.h">
<polygon fill="#ffffff" stroke="#000000" points="997.4507,-65.5 997.4507,-93.5 1102.396,-93.5 1102.396,-65.5 997.4507,-65.5"/>
<text text-anchor="start" x="1005.4507" y="-81.5" font-family="Helvetica,sans-Serif" font-size="10.00" fill="#000000">components/include</text>
<text text-anchor="middle" x="1049.9233" y="-71.5" font-family="Helvetica,sans-Serif" font-size="10.00" fill="#000000">/host_mgmt.h</text>
</a>
</g>
</g>
<!-- Node3&#45;&gt;Node20 -->
<g id="edge18" class="edge">
<title>Node3&#45;&gt;Node20</title>
<path fill="none" stroke="#191970" d="M1294.2779,-128.6868C1244.683,-119.9285 1173.7184,-106.957 1111.9233,-94 1108.894,-93.3648 1105.7856,-92.6951 1102.6518,-92.0061"/>
<polygon fill="#191970" stroke="#191970" points="1293.7586,-132.1491 1304.2139,-130.4356 1294.972,-125.2551 1293.7586,-132.1491"/>
</g>
<!-- Node22 -->
<g id="node21" class="node">
<title>Node22</title>
<g id="a_node21"><a xlink:href="log_8h.html" target="_top" xlink:title="components/include\l/log.h">
<polygon fill="#ffffff" stroke="#000000" points="1120.4507,-65.5 1120.4507,-93.5 1225.396,-93.5 1225.396,-65.5 1120.4507,-65.5"/>
<text text-anchor="start" x="1128.4507" y="-81.5" font-family="Helvetica,sans-Serif" font-size="10.00" fill="#000000">components/include</text>
<text text-anchor="middle" x="1172.9233" y="-71.5" font-family="Helvetica,sans-Serif" font-size="10.00" fill="#000000">/log.h</text>
</a>
</g>
</g>
<!-- Node3&#45;&gt;Node22 -->
<g id="edge20" class="edge">
<title>Node3&#45;&gt;Node22</title>
<path fill="none" stroke="#191970" d="M1319.2913,-127.2287C1289.2703,-117.4392 1247.2044,-103.7221 1215.869,-93.504"/>
<polygon fill="#191970" stroke="#191970" points="1318.3853,-130.6146 1328.9777,-130.3873 1320.5555,-123.9595 1318.3853,-130.6146"/>
</g>
<!-- Node24 -->
<g id="node23" class="node">
<title>Node24</title>
<g id="a_node23"><a xlink:href="ofp10_8h.html" target="_top" xlink:title="components/include\l/ofp10.h">
<polygon fill="#ffffff" stroke="#000000" points="1243.4507,-65.5 1243.4507,-93.5 1348.396,-93.5 1348.396,-65.5 1243.4507,-65.5"/>
<text text-anchor="start" x="1251.4507" y="-81.5" font-family="Helvetica,sans-Serif" font-size="10.00" fill="#000000">components/include</text>
<text text-anchor="middle" x="1295.9233" y="-71.5" font-family="Helvetica,sans-Serif" font-size="10.00" fill="#000000">/ofp10.h</text>
</a>
</g>
</g>
<!-- Node3&#45;&gt;Node24 -->
<g id="edge22" class="edge">
<title>Node3&#45;&gt;Node24</title>
<path fill="none" stroke="#191970" d="M1340.4455,-123.2923C1331.1045,-114.1044 1319.5204,-102.7103 1310.5101,-93.8477"/>
<polygon fill="#191970" stroke="#191970" points="1338.0751,-125.8701 1347.6588,-130.3873 1342.9838,-120.8796 1338.0751,-125.8701"/>
</g>
<!-- Node26 -->
<g id="node25" class="node">
<title>Node26</title>
<g id="a_node25"><a xlink:href="ofp10__veri_8h.html" target="_top" xlink:title="components/include\l/ofp10_veri.h">
<polygon fill="#ffffff" stroke="#000000" points="1366.4507,-65.5 1366.4507,-93.5 1471.396,-93.5 1471.396,-65.5 1366.4507,-65.5"/>
<text text-anchor="start" x="1374.4507" y="-81.5" font-family="Helvetica,sans-Serif" font-size="10.00" fill="#000000">components/include</text>
<text text-anchor="middle" x="1418.9233" y="-71.5" font-family="Helvetica,sans-Serif" font-size="10.00" fill="#000000">/ofp10_veri.h</text>
</a>
</g>
</g>
<!-- Node3&#45;&gt;Node26 -->
<g id="edge24" class="edge">
<title>Node3&#45;&gt;Node26</title>
<path fill="none" stroke="#191970" d="M1373.6713,-123.2923C1383.1655,-114.1044 1394.9394,-102.7103 1404.0974,-93.8477"/>
<polygon fill="#191970" stroke="#191970" points="1371.0919,-120.9179 1366.3398,-130.3873 1375.9598,-125.9482 1371.0919,-120.9179"/>
</g>
<!-- Node28 -->
<g id="node27" class="node">
<title>Node28</title>
<g id="a_node27"><a xlink:href="resource__mgmt_8h.html" target="_top" xlink:title="components/include\l/resource_mgmt.h">
<polygon fill="#ffffff" stroke="#000000" points="1489.4507,-65.5 1489.4507,-93.5 1594.396,-93.5 1594.396,-65.5 1489.4507,-65.5"/>
<text text-anchor="start" x="1497.4507" y="-81.5" font-family="Helvetica,sans-Serif" font-size="10.00" fill="#000000">components/include</text>
<text text-anchor="middle" x="1541.9233" y="-71.5" font-family="Helvetica,sans-Serif" font-size="10.00" fill="#000000">/resource_mgmt.h</text>
</a>
</g>
</g>
<!-- Node3&#45;&gt;Node28 -->
<g id="edge26" class="edge">
<title>Node3&#45;&gt;Node28</title>
<path fill="none" stroke="#191970" d="M1394.7599,-127.2287C1424.944,-117.4392 1467.2386,-103.7221 1498.7443,-93.504"/>
<polygon fill="#191970" stroke="#191970" points="1393.4533,-123.9729 1385.0209,-130.3873 1395.6129,-130.6315 1393.4533,-123.9729"/>
</g>
<!-- Node30 -->
<g id="node29" class="node">
<title>Node30</title>
<g id="a_node29"><a xlink:href="stat__mgmt_8h.html" target="_top" xlink:title="components/include\l/stat_mgmt.h">
<polygon fill="#ffffff" stroke="#000000" points="1612.4507,-65.5 1612.4507,-93.5 1717.396,-93.5 1717.396,-65.5 1612.4507,-65.5"/>
<text text-anchor="start" x="1620.4507" y="-81.5" font-family="Helvetica,sans-Serif" font-size="10.00" fill="#000000">components/include</text>
<text text-anchor="middle" x="1664.9233" y="-71.5" font-family="Helvetica,sans-Serif" font-size="10.00" fill="#000000">/stat_mgmt.h</text>
</a>
</g>
</g>
<!-- Node3&#45;&gt;Node30 -->
<g id="edge28" class="edge">
<title>Node3&#45;&gt;Node30</title>
<path fill="none" stroke="#191970" d="M1419.8265,-128.7026C1469.6249,-119.953 1540.8797,-106.9854 1602.9233,-94 1605.9529,-93.3659 1609.0615,-92.6971 1612.1955,-92.0087"/>
<polygon fill="#191970" stroke="#191970" points="1419.0961,-125.2772 1409.8497,-130.4496 1420.3035,-132.1723 1419.0961,-125.2772"/>
</g>
<!-- Node32 -->
<g id="node31" class="node">
<title>Node32</title>
<g id="a_node31"><a xlink:href="switch__mgmt_8h.html" target="_top" xlink:title="components/include\l/switch_mgmt.h">
<polygon fill="#ffffff" stroke="#000000" points="1735.4507,-65.5 1735.4507,-93.5 1840.396,-93.5 1840.396,-65.5 1735.4507,-65.5"/>
<text text-anchor="start" x="1743.4507" y="-81.5" font-family="Helvetica,sans-Serif" font-size="10.00" fill="#000000">components/include</text>
<text text-anchor="middle" x="1787.9233" y="-71.5" font-family="Helvetica,sans-Serif" font-size="10.00" fill="#000000">/switch_mgmt.h</text>
</a>
</g>
</g>
<!-- Node3&#45;&gt;Node32 -->
<g id="edge30" class="edge">
<title>Node3&#45;&gt;Node32</title>
<path fill="none" stroke="#191970" d="M1424.8886,-133.321C1499.171,-126.0562 1621.5307,-112.5883 1725.9233,-94 1728.9706,-93.4574 1732.093,-92.86 1735.2376,-92.2264"/>
<polygon fill="#191970" stroke="#191970" points="1424.3489,-129.8568 1414.733,-134.3048 1425.024,-136.8242 1424.3489,-129.8568"/>
</g>
<!-- Node34 -->
<g id="node33" class="node">
<title>Node34</title>
<g id="a_node33"><a xlink:href="components_2include_2topo__mgmt_8h.html" target="_top" xlink:title="components/include\l/topo_mgmt.h">
<polygon fill="#ffffff" stroke="#000000" points="1858.4507,-65.5 1858.4507,-93.5 1963.396,-93.5 1963.396,-65.5 1858.4507,-65.5"/>
<text text-anchor="start" x="1866.4507" y="-81.5" font-family="Helvetica,sans-Serif" font-size="10.00" fill="#000000">components/include</text>
<text text-anchor="middle" x="1910.9233" y="-71.5" font-family="Helvetica,sans-Serif" font-size="10.00" fill="#000000">/topo_mgmt.h</text>
</a>
</g>
</g>
<!-- Node3&#45;&gt;Node34 -->
<g id="edge32" class="edge">
<title>Node3&#45;&gt;Node34</title>
<path fill="none" stroke="#191970" d="M1424.892,-136.1761C1520.1611,-130.8457 1698.604,-118.4096 1848.9233,-94 1851.9785,-93.5039 1855.1071,-92.9428 1858.2565,-92.337"/>
<polygon fill="#191970" stroke="#191970" points="1424.6071,-132.6864 1414.8146,-136.7307 1424.9919,-139.6758 1424.6071,-132.6864"/>
</g>
<!-- Node35 -->
<g id="node34" class="node">
<title>Node35</title>
<g id="a_node34"><a xlink:href="events_2event_8c.html" target="_top" xlink:title="events/event.c">
<polygon fill="#ffffff" stroke="#000000" points="1981.6821,-70.5 1981.6821,-88.5 2062.1646,-88.5 2062.1646,-70.5 1981.6821,-70.5"/>
<text text-anchor="middle" x="2021.9233" y="-76.5" font-family="Helvetica,sans-Serif" font-size="10.00" fill="#000000">events/event.c</text>
</a>
</g>
</g>
<!-- Node3&#45;&gt;Node35 -->
<g id="edge33" class="edge">
<title>Node3&#45;&gt;Node35</title>
<path fill="none" stroke="#191970" d="M1425.1244,-136.2505C1562.5801,-129.4061 1868.5869,-112.5963 1971.9233,-94 1979.3954,-92.6553 1987.3472,-90.6319 1994.6595,-88.52"/>
<polygon fill="#191970" stroke="#191970" points="1424.5458,-132.7748 1414.7311,-136.765 1424.892,-139.7662 1424.5458,-132.7748"/>
</g>
<!-- Node36 -->
<g id="node35" class="node">
<title>Node36</title>
<g id="a_node35"><a xlink:href="ext__comps_2shim_2event_8c.html" target="_top" xlink:title="ext_comps/shim/event.c">
<polygon fill="#ffffff" stroke="#000000" points="2080.2905,-70.5 2080.2905,-88.5 2203.5562,-88.5 2203.5562,-70.5 2080.2905,-70.5"/>
<text text-anchor="middle" x="2141.9233" y="-76.5" font-family="Helvetica,sans-Serif" font-size="10.00" fill="#000000">ext_comps/shim/event.c</text>
</a>
</g>
</g>
<!-- Node3&#45;&gt;Node36 -->
<g id="edge34" class="edge">
<title>Node3&#45;&gt;Node36</title>
<path fill="none" stroke="#191970" d="M1425.0332,-138.2799C1552.395,-135.3077 1835.0714,-125.4459 2070.9233,-94 2081.2738,-92.62 2092.376,-90.6106 2102.6545,-88.525"/>
<polygon fill="#191970" stroke="#191970" points="1424.9497,-134.7808 1415.0316,-138.5065 1425.1084,-141.779 1424.9497,-134.7808"/>
</g>
<!-- Node37 -->
<g id="node36" class="node">
<title>Node37</title>
<g id="a_node36"><a xlink:href="ext__comps_2topo__mgmt_2src_2include_2topo__mgmt_8h.html" target="_top" xlink:title="ext_comps/topo_mgmt\l/src/include/topo_mgmt.h">
<polygon fill="#ffffff" stroke="#000000" points="2221.064,-65.5 2221.064,-93.5 2348.7827,-93.5 2348.7827,-65.5 2221.064,-65.5"/>
<text text-anchor="start" x="2229.064" y="-81.5" font-family="Helvetica,sans-Serif" font-size="10.00" fill="#000000">ext_comps/topo_mgmt</text>
<text text-anchor="middle" x="2284.9233" y="-71.5" font-family="Helvetica,sans-Serif" font-size="10.00" fill="#000000">/src/include/topo_mgmt.h</text>
</a>
</g>
</g>
<!-- Node3&#45;&gt;Node37 -->
<g id="edge35" class="edge">
<title>Node3&#45;&gt;Node37</title>
<path fill="none" stroke="#191970" d="M1424.9844,-137.1648C1599.6965,-130.9644 2060.9264,-113.2409 2212.9233,-94 2215.5798,-93.6637 2218.285,-93.285 2221.013,-92.8732"/>
<polygon fill="#191970" stroke="#191970" points="1424.7594,-133.6705 1414.8893,-137.5215 1425.0067,-140.6661 1424.7594,-133.6705"/>
</g>
<!-- Node40 -->
<g id="node39" class="node">
<title>Node40</title>
<g id="a_node39"><a xlink:href="cli_8c.html" target="_top" xlink:title="src/cli.c">
<polygon fill="#ffffff" stroke="#000000" points="2367.2583,-70.5 2367.2583,-88.5 2416.5884,-88.5 2416.5884,-70.5 2367.2583,-70.5"/>
<text text-anchor="middle" x="2391.9233" y="-76.5" font-family="Helvetica,sans-Serif" font-size="10.00" fill="#000000">src/cli.c</text>
</a>
</g>
</g>
<!-- Node3&#45;&gt;Node40 -->
<g id="edge38" class="edge">
<title>Node3&#45;&gt;Node40</title>
<path fill="none" stroke="#191970" d="M1425.1606,-137.8073C1635.9047,-132.3831 2267.6994,-114.5807 2357.9233,-94 2363.3039,-92.7727 2368.9064,-90.7336 2373.9746,-88.5666"/>
<polygon fill="#191970" stroke="#191970" points="1424.759,-134.3163 1414.852,-138.0714 1424.9383,-141.314 1424.759,-134.3163"/>
</g>
<!-- Node41 -->
<g id="node40" class="node">
<title>Node41</title>
<g id="a_node40"><a xlink:href="component_8c.html" target="_top" xlink:title="src/component.c">
<polygon fill="#ffffff" stroke="#000000" points="2434.2412,-70.5 2434.2412,-88.5 2523.6055,-88.5 2523.6055,-70.5 2434.2412,-70.5"/>
<text text-anchor="middle" x="2478.9233" y="-76.5" font-family="Helvetica,sans-Serif" font-size="10.00" fill="#000000">src/component.c</text>
</a>
</g>
</g>
<!-- Node3&#45;&gt;Node41 -->
<g id="edge39" class="edge">
<title>Node3&#45;&gt;Node41</title>
<path fill="none" stroke="#191970" d="M1425.1518,-138.5967C1629.0833,-135.5802 2231.8799,-124.2789 2425.9233,-94 2434.0292,-92.7351 2442.6703,-90.6837 2450.5721,-88.517"/>
<polygon fill="#191970" stroke="#191970" points="1424.8284,-135.1009 1414.8805,-138.7466 1424.9306,-142.1002 1424.8284,-135.1009"/>
</g>
<!-- Node42 -->
<g id="node41" class="node">
<title>Node42</title>
<g id="a_node41"><a xlink:href="main_8c.html" target="_top" xlink:title="src/main.c">
<polygon fill="#ffffff" stroke="#000000" points="2541.1426,-70.5 2541.1426,-88.5 2602.7041,-88.5 2602.7041,-70.5 2541.1426,-70.5"/>
<text text-anchor="middle" x="2571.9233" y="-76.5" font-family="Helvetica,sans-Serif" font-size="10.00" fill="#000000">src/main.c</text>
</a>
</g>
</g>
<!-- Node3&#45;&gt;Node42 -->
<g id="edge40" class="edge">
<title>Node3&#45;&gt;Node42</title>
<path fill="none" stroke="#191970" d="M1424.8301,-138.1267C1659.0195,-133.2174 2424.5274,-115.67 2532.9233,-94 2539.0151,-92.7822 2545.4153,-90.7462 2551.2292,-88.5792"/>
<polygon fill="#191970" stroke="#191970" points="1424.6665,-134.6292 1414.7417,-138.3372 1424.8126,-141.6277 1424.6665,-134.6292"/>
</g>
<!-- Node5 -->
<g id="node4" class="node">
<title>Node5</title>
<g id="a_node4"><a xlink:href="apphdlr_8c.html" target="_top" xlink:title="components/apphdlr.c">
<polygon fill="#ffffff" stroke="#000000" points="0,-5.5 0,-23.5 113.8467,-23.5 113.8467,-5.5 0,-5.5"/>
<text text-anchor="middle" x="56.9233" y="-11.5" font-family="Helvetica,sans-Serif" font-size="10.00" fill="#000000">components/apphdlr.c</text>
</a>
</g>
</g>
<!-- Node4&#45;&gt;Node5 -->
<g id="edge3" class="edge">
<title>Node4&#45;&gt;Node5</title>
<path fill="none" stroke="#191970" d="M56.9233,-55.3747C56.9233,-44.2832 56.9233,-31.7952 56.9233,-23.5743"/>
<polygon fill="#191970" stroke="#191970" points="53.4234,-55.3959 56.9233,-65.396 60.4234,-55.396 53.4234,-55.3959"/>
</g>
<!-- Node7 -->
<g id="node6" class="node">
<title>Node7</title>
<g id="a_node6"><a xlink:href="cac_8c.html" target="_top" xlink:title="components/cac.c">
<polygon fill="#ffffff" stroke="#000000" points="131.6255,-5.5 131.6255,-23.5 228.2212,-23.5 228.2212,-5.5 131.6255,-5.5"/>
<text text-anchor="middle" x="179.9233" y="-11.5" font-family="Helvetica,sans-Serif" font-size="10.00" fill="#000000">components/cac.c</text>
</a>
</g>
</g>
<!-- Node6&#45;&gt;Node7 -->
<g id="edge5" class="edge">
<title>Node6&#45;&gt;Node7</title>
<path fill="none" stroke="#191970" d="M179.9233,-55.3747C179.9233,-44.2832 179.9233,-31.7952 179.9233,-23.5743"/>
<polygon fill="#191970" stroke="#191970" points="176.4234,-55.3959 179.9233,-65.396 183.4234,-55.396 176.4234,-55.3959"/>
</g>
<!-- Node9 -->
<g id="node8" class="node">
<title>Node9</title>
<g id="a_node8"><a xlink:href="channel__mgmt_8c.html" target="_top" xlink:title="components/channel\l_mgmt.c">
<polygon fill="#ffffff" stroke="#000000" points="245.7808,-.5 245.7808,-28.5 354.0659,-28.5 354.0659,-.5 245.7808,-.5"/>
<text text-anchor="start" x="253.7808" y="-16.5" font-family="Helvetica,sans-Serif" font-size="10.00" fill="#000000">components/channel</text>
<text text-anchor="middle" x="299.9233" y="-6.5" font-family="Helvetica,sans-Serif" font-size="10.00" fill="#000000">_mgmt.c</text>
</a>
</g>
</g>
<!-- Node8&#45;&gt;Node9 -->
<g id="edge7" class="edge">
<title>Node8&#45;&gt;Node9</title>
<path fill="none" stroke="#191970" d="M304.3283,-55.4029C303.3555,-46.3703 302.2826,-36.4078 301.4393,-28.5765"/>
<polygon fill="#191970" stroke="#191970" points="300.8537,-55.8282 305.4044,-65.396 307.8135,-55.0787 300.8537,-55.8282"/>
</g>
<!-- Node11 -->
<g id="node10" class="node">
<title>Node11</title>
<g id="a_node10"><a xlink:href="cluster_8c.html" target="_top" xlink:title="components/cluster.c">
<polygon fill="#ffffff" stroke="#000000" points="371.9531,-5.5 371.9531,-23.5 481.8936,-23.5 481.8936,-5.5 371.9531,-5.5"/>
<text text-anchor="middle" x="426.9233" y="-11.5" font-family="Helvetica,sans-Serif" font-size="10.00" fill="#000000">components/cluster.c</text>
</a>
</g>
</g>
<!-- Node10&#45;&gt;Node11 -->
<g id="edge9" class="edge">
<title>Node10&#45;&gt;Node11</title>
<path fill="none" stroke="#191970" d="M428.8099,-55.3747C428.298,-44.2832 427.7216,-31.7952 427.3422,-23.5743"/>
<polygon fill="#191970" stroke="#191970" points="425.315,-55.568 429.2724,-65.396 432.3075,-55.2452 425.315,-55.568"/>
</g>
<!-- Node13 -->
<g id="node12" class="node">
<title>Node13</title>
<g id="a_node12"><a xlink:href="conflict_8c.html" target="_top" xlink:title="components/conflict.c">
<polygon fill="#ffffff" stroke="#000000" points="499.8447,-5.5 499.8447,-23.5 612.002,-23.5 612.002,-5.5 499.8447,-5.5"/>
<text text-anchor="middle" x="555.9233" y="-11.5" font-family="Helvetica,sans-Serif" font-size="10.00" fill="#000000">components/conflict.c</text>
</a>
</g>
</g>
<!-- Node12&#45;&gt;Node13 -->
<g id="edge11" class="edge">
<title>Node12&#45;&gt;Node13</title>
<path fill="none" stroke="#191970" d="M556.5522,-55.3747C556.3815,-44.2832 556.1894,-31.7952 556.0629,-23.5743"/>
<polygon fill="#191970" stroke="#191970" points="553.0528,-55.451 556.7064,-65.396 560.052,-55.3433 553.0528,-55.451"/>
</g>
<!-- Node15 -->
<g id="node14" class="node">
<title>Node15</title>
<g id="a_node14"><a xlink:href="conn_8c.html" target="_top" xlink:title="components/conn.c">
<polygon fill="#ffffff" stroke="#000000" points="629.564,-5.5 629.564,-23.5 732.2827,-23.5 732.2827,-5.5 629.564,-5.5"/>
<text text-anchor="middle" x="680.9233" y="-11.5" font-family="Helvetica,sans-Serif" font-size="10.00" fill="#000000">components/conn.c</text>
</a>
</g>
</g>
<!-- Node14&#45;&gt;Node15 -->
<g id="edge13" class="edge">
<title>Node14&#45;&gt;Node15</title>
<path fill="none" stroke="#191970" d="M680.9233,-55.3747C680.9233,-44.2832 680.9233,-31.7952 680.9233,-23.5743"/>
<polygon fill="#191970" stroke="#191970" points="677.4234,-55.3959 680.9233,-65.396 684.4234,-55.396 677.4234,-55.3959"/>
</g>
<!-- Node17 -->
<g id="node16" class="node">
<title>Node17</title>
<g id="a_node16"><a xlink:href="dit_8c.html" target="_top" xlink:title="components/dit.c">
<polygon fill="#ffffff" stroke="#000000" points="750.1255,-5.5 750.1255,-23.5 841.7212,-23.5 841.7212,-5.5 750.1255,-5.5"/>
<text text-anchor="middle" x="795.9233" y="-11.5" font-family="Helvetica,sans-Serif" font-size="10.00" fill="#000000">components/dit.c</text>
</a>
</g>
</g>
<!-- Node16&#45;&gt;Node17 -->
<g id="edge15" class="edge">
<title>Node16&#45;&gt;Node17</title>
<path fill="none" stroke="#191970" d="M800.9541,-55.3747C799.589,-44.2832 798.052,-31.7952 797.0402,-23.5743"/>
<polygon fill="#191970" stroke="#191970" points="797.492,-55.8984 802.1875,-65.396 804.4396,-55.0433 797.492,-55.8984"/>
</g>
<!-- Node19 -->
<g id="node18" class="node">
<title>Node19</title>
<g id="a_node18"><a xlink:href="flow__mgmt_8c.html" target="_top" xlink:title="components/flow_mgmt.c">
<polygon fill="#ffffff" stroke="#000000" points="859.2339,-5.5 859.2339,-23.5 988.6128,-23.5 988.6128,-5.5 859.2339,-5.5"/>
<text text-anchor="middle" x="923.9233" y="-11.5" font-family="Helvetica,sans-Serif" font-size="10.00" fill="#000000">components/flow_mgmt.c</text>
</a>
</g>
</g>
<!-- Node18&#45;&gt;Node19 -->
<g id="edge17" class="edge">
<title>Node18&#45;&gt;Node19</title>
<path fill="none" stroke="#191970" d="M925.8099,-55.3747C925.298,-44.2832 924.7216,-31.7952 924.3422,-23.5743"/>
<polygon fill="#191970" stroke="#191970" points="922.315,-55.568 926.2724,-65.396 929.3075,-55.2452 922.315,-55.568"/>
</g>
<!-- Node21 -->
<g id="node20" class="node">
<title>Node21</title>
<g id="a_node20"><a xlink:href="host__mgmt_8c.html" target="_top" xlink:title="components/host_mgmt.c">
<polygon fill="#ffffff" stroke="#000000" points="1006.6748,-5.5 1006.6748,-23.5 1137.1719,-23.5 1137.1719,-5.5 1006.6748,-5.5"/>
<text text-anchor="middle" x="1071.9233" y="-11.5" font-family="Helvetica,sans-Serif" font-size="10.00" fill="#000000">components/host_mgmt.c</text>
</a>
</g>
</g>
<!-- Node20&#45;&gt;Node21 -->
<g id="edge19" class="edge">
<title>Node20&#45;&gt;Node21</title>
<path fill="none" stroke="#191970" d="M1057.9729,-55.7173C1061.7556,-44.5412 1066.0409,-31.88 1068.852,-23.5743"/>
<polygon fill="#191970" stroke="#191970" points="1054.5878,-54.8017 1054.697,-65.396 1061.2183,-57.0459 1054.5878,-54.8017"/>
</g>
<!-- Node23 -->
<g id="node22" class="node">
<title>Node23</title>
<g id="a_node22"><a xlink:href="log_8c.html" target="_top" xlink:title="components/log.c">
<polygon fill="#ffffff" stroke="#000000" points="1154.7339,-5.5 1154.7339,-23.5 1249.1128,-23.5 1249.1128,-5.5 1154.7339,-5.5"/>
<text text-anchor="middle" x="1201.9233" y="-11.5" font-family="Helvetica,sans-Serif" font-size="10.00" fill="#000000">components/log.c</text>
</a>
</g>
</g>
<!-- Node22&#45;&gt;Node23 -->
<g id="edge21" class="edge">
<title>Node22&#45;&gt;Node23</title>
<path fill="none" stroke="#191970" d="M1183.3817,-56.0589C1188.4049,-44.8 1194.1314,-31.9647 1197.8748,-23.5743"/>
<polygon fill="#191970" stroke="#191970" points="1180.0941,-54.8376 1179.2159,-65.396 1186.4867,-57.6897 1180.0941,-54.8376"/>
</g>
<!-- Node25 -->
<g id="node24" class="node">
<title>Node25</title>
<g id="a_node24"><a xlink:href="ofp10_8c.html" target="_top" xlink:title="components/ofp10.c">
<polygon fill="#ffffff" stroke="#000000" points="1266.894,-5.5 1266.894,-23.5 1372.9526,-23.5 1372.9526,-5.5 1266.894,-5.5"/>
<text text-anchor="middle" x="1319.9233" y="-11.5" font-family="Helvetica,sans-Serif" font-size="10.00" fill="#000000">components/ofp10.c</text>
</a>
</g>
</g>
<!-- Node24&#45;&gt;Node25 -->
<g id="edge23" class="edge">
<title>Node24&#45;&gt;Node25</title>
<path fill="none" stroke="#191970" d="M1304.7047,-55.7173C1308.8312,-44.5412 1313.5061,-31.88 1316.5728,-23.5743"/>
<polygon fill="#191970" stroke="#191970" points="1301.3114,-54.8027 1301.131,-65.396 1307.8781,-57.2273 1301.3114,-54.8027"/>
</g>
<!-- Node27 -->
<g id="node26" class="node">
<title>Node27</title>
<g id="a_node26"><a xlink:href="ofp10__veri_8c.html" target="_top" xlink:title="components/ofp10_veri.c">
<polygon fill="#ffffff" stroke="#000000" points="1391.0566,-5.5 1391.0566,-23.5 1518.79,-23.5 1518.79,-5.5 1391.0566,-5.5"/>
<text text-anchor="middle" x="1454.9233" y="-11.5" font-family="Helvetica,sans-Serif" font-size="10.00" fill="#000000">components/ofp10_veri.c</text>
</a>
</g>
</g>
<!-- Node26&#45;&gt;Node27 -->
<g id="edge25" class="edge">
<title>Node26&#45;&gt;Node27</title>
<path fill="none" stroke="#191970" d="M1431.7174,-56.3996C1437.9979,-45.0598 1445.2036,-32.0495 1449.8976,-23.5743"/>
<polygon fill="#191970" stroke="#191970" points="1428.5181,-54.9523 1426.7348,-65.396 1434.6416,-58.3438 1428.5181,-54.9523"/>
</g>
<!-- Node29 -->
<g id="node28" class="node">
<title>Node29</title>
<g id="a_node28"><a xlink:href="resource__mgmt_8c.html" target="_top" xlink:title="components/resource\l_mgmt.c">
<polygon fill="#ffffff" stroke="#000000" points="1536.8423,-.5 1536.8423,-28.5 1649.0044,-28.5 1649.0044,-.5 1536.8423,-.5"/>
<text text-anchor="start" x="1544.8423" y="-16.5" font-family="Helvetica,sans-Serif" font-size="10.00" fill="#000000">components/resource</text>
<text text-anchor="middle" x="1592.9233" y="-6.5" font-family="Helvetica,sans-Serif" font-size="10.00" fill="#000000">_mgmt.c</text>
</a>
</g>
</g>
<!-- Node28&#45;&gt;Node29 -->
<g id="edge27" class="edge">
<title>Node28&#45;&gt;Node29</title>
<path fill="none" stroke="#191970" d="M1559.2263,-57.4472C1566.7183,-47.8986 1575.2666,-37.0037 1581.8787,-28.5765"/>
<polygon fill="#191970" stroke="#191970" points="1556.4089,-55.368 1552.9896,-65.396 1561.9161,-59.6891 1556.4089,-55.368"/>
</g>
<!-- Node31 -->
<g id="node30" class="node">
<title>Node31</title>
<g id="a_node30"><a xlink:href="stat__mgmt_8c.html" target="_top" xlink:title="components/stat_mgmt.c">
<polygon fill="#ffffff" stroke="#000000" points="1667.0664,-5.5 1667.0664,-23.5 1794.7803,-23.5 1794.7803,-5.5 1667.0664,-5.5"/>
<text text-anchor="middle" x="1730.9233" y="-11.5" font-family="Helvetica,sans-Serif" font-size="10.00" fill="#000000">components/stat_mgmt.c</text>
</a>
</g>
</g>
<!-- Node30&#45;&gt;Node31 -->
<g id="edge29" class="edge">
<title>Node30&#45;&gt;Node31</title>
<path fill="none" stroke="#191970" d="M1686.6655,-58.0873C1698.5609,-46.3721 1712.6736,-32.4732 1721.7094,-23.5743"/>
<polygon fill="#191970" stroke="#191970" points="1683.9133,-55.8854 1679.2444,-65.396 1688.8251,-60.8728 1683.9133,-55.8854"/>
</g>
<!-- Node33 -->
<g id="node32" class="node">
<title>Node33</title>
<g id="a_node32"><a xlink:href="switch__mgmt_8c.html" target="_top" xlink:title="components/switch_mgmt.c">
<polygon fill="#ffffff" stroke="#000000" points="1813.2339,-5.5 1813.2339,-23.5 1952.6128,-23.5 1952.6128,-5.5 1813.2339,-5.5"/>
<text text-anchor="middle" x="1882.9233" y="-11.5" font-family="Helvetica,sans-Serif" font-size="10.00" fill="#000000">components/switch_mgmt.c</text>
</a>
</g>
</g>
<!-- Node32&#45;&gt;Node33 -->
<g id="edge31" class="edge">
<title>Node32&#45;&gt;Node33</title>
<path fill="none" stroke="#191970" d="M1816.7957,-59.7452C1834.3898,-47.7072 1856.0354,-32.897 1869.6609,-23.5743"/>
<polygon fill="#191970" stroke="#191970" points="1814.8136,-56.8605 1808.5369,-65.396 1818.7664,-62.6377 1814.8136,-56.8605"/>
</g>
<!-- Node38 -->
<g id="node37" class="node">
<title>Node38</title>
<g id="a_node37"><a xlink:href="components_2topo__mgmt_8c.html" target="_top" xlink:title="components/topo_mgmt.c">
<polygon fill="#ffffff" stroke="#000000" points="2148.394,-5.5 2148.394,-23.5 2279.4526,-23.5 2279.4526,-5.5 2148.394,-5.5"/>
<text text-anchor="middle" x="2213.9233" y="-11.5" font-family="Helvetica,sans-Serif" font-size="10.00" fill="#000000">components/topo_mgmt.c</text>
</a>
</g>
</g>
<!-- Node37&#45;&gt;Node38 -->
<g id="edge36" class="edge">
<title>Node37&#45;&gt;Node38</title>
<path fill="none" stroke="#191970" d="M2261.899,-58.4214C2249.0272,-46.6373 2233.6482,-32.558 2223.8353,-23.5743"/>
<polygon fill="#191970" stroke="#191970" points="2259.7781,-61.225 2269.5174,-65.396 2264.5049,-56.0618 2259.7781,-61.225"/>
</g>
<!-- Node39 -->
<g id="node38" class="node">
<title>Node39</title>
<g id="a_node38"><a xlink:href="ext__comps_2topo__mgmt_2src_2topo__mgmt_8c.html" target="_top" xlink:title="ext_comps/topo_mgmt\l/src/topo_mgmt.c">
<polygon fill="#ffffff" stroke="#000000" points="2297.3447,-.5 2297.3447,-28.5 2414.502,-28.5 2414.502,-.5 2297.3447,-.5"/>
<text text-anchor="start" x="2305.3447" y="-16.5" font-family="Helvetica,sans-Serif" font-size="10.00" fill="#000000">ext_comps/topo_mgmt</text>
<text text-anchor="middle" x="2355.9233" y="-6.5" font-family="Helvetica,sans-Serif" font-size="10.00" fill="#000000">/src/topo_mgmt.c</text>
</a>
</g>
</g>
<!-- Node37&#45;&gt;Node39 -->
<g id="edge37" class="edge">
<title>Node37&#45;&gt;Node39</title>
<path fill="none" stroke="#191970" d="M2307.755,-58.5978C2318.4757,-48.7831 2330.9705,-37.3442 2340.5475,-28.5765"/>
<polygon fill="#191970" stroke="#191970" points="2305.3418,-56.0618 2300.3293,-65.396 2310.0686,-61.225 2305.3418,-56.0618"/>
</g>
</g>
</svg>
