<?xml version="1.0" encoding="UTF-8" standalone="no"?>
<!DOCTYPE svg PUBLIC "-//W3C//DTD SVG 1.1//EN"
 "http://www.w3.org/Graphics/SVG/1.1/DTD/svg11.dtd">
<!-- Generated by graphviz version 2.40.1 (20161225.0304)
 -->
<!-- Title: events/include/event_list.h Pages: 1 -->
<svg width="2583pt" height="222pt"
 viewBox="0.00 0.00 2582.70 222.00" xmlns="http://www.w3.org/2000/svg" xmlns:xlink="http://www.w3.org/1999/xlink">
<g id="graph0" class="graph" transform="scale(1 1) rotate(0) translate(4 218)">
<title>events/include/event_list.h</title>
<polygon fill="#ffffff" stroke="transparent" points="-4,4 -4,-218 2578.7041,-218 2578.7041,4 -4,4"/>
<!-- Node2 -->
<g id="node1" class="node">
<title>Node2</title>
<polygon fill="#bfbfbf" stroke="#000000" points="1294.3374,-185.5 1294.3374,-213.5 1401.5093,-213.5 1401.5093,-185.5 1294.3374,-185.5"/>
<text text-anchor="start" x="1302.3374" y="-201.5" font-family="Helvetica,sans-Serif" font-size="10.00" fill="#000000">events/include/event</text>
<text text-anchor="middle" x="1347.9233" y="-191.5" font-family="Helvetica,sans-Serif" font-size="10.00" fill="#000000">_list.h</text>
</g>
<!-- Node3 -->
<g id="node2" class="node">
<title>Node3</title>
<g id="a_node2"><a xlink:href="events_2include_2event_8h.html" target="_top" xlink:title="events/include/event.h">
<polygon fill="#ffffff" stroke="#000000" points="1290.1675,-130.5 1290.1675,-148.5 1405.6792,-148.5 1405.6792,-130.5 1290.1675,-130.5"/>
<text text-anchor="middle" x="1347.9233" y="-136.5" font-family="Helvetica,sans-Serif" font-size="10.00" fill="#000000">events/include/event.h</text>
</a>
</g>
</g>
<!-- Node2&#45;&gt;Node3 -->
<g id="edge1" class="edge">
<title>Node2&#45;&gt;Node3</title>
<path fill="none" stroke="#191970" d="M1347.9233,-175.2151C1347.9233,-165.8253 1347.9233,-155.6598 1347.9233,-148.5842"/>
<polygon fill="#191970" stroke="#191970" points="1344.4234,-175.2808 1347.9233,-185.2808 1351.4234,-175.2809 1344.4234,-175.2808"/>
</g>
<!-- Node4 -->
<g id="node3" class="node">
<title>Node4</title>
<g id="a_node3"><a xlink:href="apphdlr_8h.html" target="_top" xlink:title="components/include\l/apphdlr.h">
<polygon fill="#ffffff" stroke="#000000" points="4.4507,-65.5 4.4507,-93.5 109.396,-93.5 109.396,-65.5 4.4507,-65.5"/>
<text text-anchor="start" x="12.4507" y="-81.5" font-family="Helvetica,sans-Serif" font-size="10.00" fill="#000000">components/include</text>
<text text-anchor="middle" x="56.9233" y="-71.5" font-family="Helvetica,sans-Serif" font-size="10.00" fill="#000000">/apphdlr.h</text>
</a>
</g>
</g>
<!-- Node3&#45;&gt;Node4 -->
<g id="edge2" class="edge">
<title>Node3&#45;&gt;Node4</title>
<path fill="none" stroke="#191970" d="M1279.6891,-138.705C1055.961,-135.8266 345.9828,-124.4646 118.9233,-94 115.8556,-93.5884 112.7173,-93.0934 109.5604,-92.5381"/>
<polygon fill="#191970" stroke="#191970" points="1279.9277,-142.2083 1289.9714,-138.8357 1280.0168,-135.2088 1279.9277,-142.2083"/>
</g>
<!-- Node6 -->
<g id="node5" class="node">
<title>Node6</title>
<g id="a_node5"><a xlink:href="cac_8h.html" target="_top" xlink:title="components/include\l/cac.h">
<polygon fill="#ffffff" stroke="#000000" points="127.4507,-65.5 127.4507,-93.5 232.396,-93.5 232.396,-65.5 127.4507,-65.5"/>
<text text-anchor="start" x="135.4507" y="-81.5" font-family="Helvetica,sans-Serif" font-size="10.00" fill="#000000">components/include</text>
<text text-anchor="middle" x="179.9233" y="-71.5" font-family="Helvetica,sans-Serif" font-size="10.00" fill="#000000">/cac.h</text>
</a>
</g>
</g>
<!-- Node3&#45;&gt;Node6 -->
<g id="edge4" class="edge">
<title>Node3&#45;&gt;Node6</title>
<path fill="none" stroke="#191970" d="M1279.8849,-138.3824C1071.5115,-134.6939 444.0422,-121.5413 241.9233,-94 238.8565,-93.5821 235.7188,-93.0822 232.5624,-92.5231"/>
<polygon fill="#191970" stroke="#191970" points="1280.0158,-141.8851 1290.0756,-138.5611 1280.1386,-134.8862 1280.0158,-141.8851"/>
</g>
<!-- Node8 -->
<g id="node7" class="node">
<title>Node8</title>
<g id="a_node7"><a xlink:href="cluster_8h.html" target="_top" xlink:title="components/include\l/cluster.h">
<polygon fill="#ffffff" stroke="#000000" points="250.4507,-65.5 250.4507,-93.5 355.396,-93.5 355.396,-65.5 250.4507,-65.5"/>
<text text-anchor="start" x="258.4507" y="-81.5" font-family="Helvetica,sans-Serif" font-size="10.00" fill="#000000">components/include</text>
<text text-anchor="middle" x="302.9233" y="-71.5" font-family="Helvetica,sans-Serif" font-size="10.00" fill="#000000">/cluster.h</text>
</a>
</g>
</g>
<!-- Node3&#45;&gt;Node8 -->
<g id="edge6" class="edge">
<title>Node3&#45;&gt;Node8</title>
<path fill="none" stroke="#191970" d="M1279.67,-137.9717C1087.1096,-133.4004 542.0927,-118.6054 364.9233,-94 361.8575,-93.5742 358.7207,-93.0681 355.565,-92.5044"/>
<polygon fill="#191970" stroke="#191970" points="1279.8565,-141.477 1289.9362,-138.2136 1280.0215,-134.4789 1279.8565,-141.477"/>
</g>
<!-- Node10 -->
<g id="node9" class="node">
<title>Node10</title>
<g id="a_node9"><a xlink:href="components_2include_2conflict_8h.html" target="_top" xlink:title="components/include\l/conflict.h">
<polygon fill="#ffffff" stroke="#000000" points="373.4507,-65.5 373.4507,-93.5 478.396,-93.5 478.396,-65.5 373.4507,-65.5"/>
<text text-anchor="start" x="381.4507" y="-81.5" font-family="Helvetica,sans-Serif" font-size="10.00" fill="#000000">components/include</text>
<text text-anchor="middle" x="425.9233" y="-71.5" font-family="Helvetica,sans-Serif" font-size="10.00" fill="#000000">/conflict.h</text>
</a>
</g>
</g>
<!-- Node3&#45;&gt;Node10 -->
<g id="edge8" class="edge">
<title>Node3&#45;&gt;Node10</title>
<path fill="none" stroke="#191970" d="M1279.821,-137.4546C1104.4435,-131.9374 640.4039,-115.69 487.9233,-94 484.859,-93.5641 481.7232,-93.0501 478.5684,-92.4803"/>
<polygon fill="#191970" stroke="#191970" points="1279.8488,-140.9571 1289.9534,-137.7715 1280.0677,-133.9605 1279.8488,-140.9571"/>
</g>
<!-- Node11 -->
<g id="node10" class="node">
<title>Node11</title>
<g id="a_node10"><a xlink:href="conn_8h.html" target="_top" xlink:title="components/include\l/conn.h">
<polygon fill="#ffffff" stroke="#000000" points="496.4507,-65.5 496.4507,-93.5 601.396,-93.5 601.396,-65.5 496.4507,-65.5"/>
<text text-anchor="start" x="504.4507" y="-81.5" font-family="Helvetica,sans-Serif" font-size="10.00" fill="#000000">components/include</text>
<text text-anchor="middle" x="548.9233" y="-71.5" font-family="Helvetica,sans-Serif" font-size="10.00" fill="#000000">/conn.h</text>
</a>
</g>
</g>
<!-- Node3&#45;&gt;Node11 -->
<g id="edge9" class="edge">
<title>Node3&#45;&gt;Node11</title>
<path fill="none" stroke="#191970" d="M1280.0581,-136.7722C1123.1484,-130.2283 738.9135,-112.7813 610.9233,-94 607.8609,-93.5506 604.7267,-93.0261 601.573,-92.4482"/>
<polygon fill="#191970" stroke="#191970" points="1279.923,-140.2695 1290.0595,-137.1874 1280.2133,-133.2756 1279.923,-140.2695"/>
</g>
<!-- Node13 -->
<g id="node12" class="node">
<title>Node13</title>
<g id="a_node12"><a xlink:href="dit_8h.html" target="_top" xlink:title="components/include\l/dit.h">
<polygon fill="#ffffff" stroke="#000000" points="619.4507,-65.5 619.4507,-93.5 724.396,-93.5 724.396,-65.5 619.4507,-65.5"/>
<text text-anchor="start" x="627.4507" y="-81.5" font-family="Helvetica,sans-Serif" font-size="10.00" fill="#000000">components/include</text>
<text text-anchor="middle" x="671.9233" y="-71.5" font-family="Helvetica,sans-Serif" font-size="10.00" fill="#000000">/dit.h</text>
</a>
</g>
</g>
<!-- Node3&#45;&gt;Node13 -->
<g id="edge11" class="edge">
<title>Node3&#45;&gt;Node13</title>
<path fill="none" stroke="#191970" d="M1279.732,-137.9109C1165.9991,-134.4874 930.648,-124.1055 733.9233,-94 730.8637,-93.5318 727.7317,-92.9925 724.5798,-92.4034"/>
<polygon fill="#191970" stroke="#191970" points="1279.9253,-141.418 1290.0232,-138.2116 1280.1297,-134.421 1279.9253,-141.418"/>
</g>
<!-- Node15 -->
<g id="node14" class="node">
<title>Node15</title>
<g id="a_node14"><a xlink:href="flow__mgmt_8h.html" target="_top" xlink:title="components/include\l/flow_mgmt.h">
<polygon fill="#ffffff" stroke="#000000" points="742.4507,-65.5 742.4507,-93.5 847.396,-93.5 847.396,-65.5 742.4507,-65.5"/>
<text text-anchor="start" x="750.4507" y="-81.5" font-family="Helvetica,sans-Serif" font-size="10.00" fill="#000000">components/include</text>
<text text-anchor="middle" x="794.9233" y="-71.5" font-family="Helvetica,sans-Serif" font-size="10.00" fill="#000000">/flow_mgmt.h</text>
</a>
</g>
</g>
<!-- Node3&#45;&gt;Node15 -->
<g id="edge13" class="edge">
<title>Node3&#45;&gt;Node15</title>
<path fill="none" stroke="#191970" d="M1280.0929,-136.1662C1185.0176,-130.8241 1006.9375,-118.3744 856.9233,-94 853.8682,-93.5036 850.7397,-92.9423 847.5903,-92.3363"/>
<polygon fill="#191970" stroke="#191970" points="1279.9718,-139.6647 1290.1498,-136.7221 1280.3582,-132.6754 1279.9718,-139.6647"/>
</g>
<!-- Node17 -->
<g id="node16" class="node">
<title>Node17</title>
<g id="a_node16"><a xlink:href="host__mgmt_8h.html" target="_top" xlink:title="components/include\l/host_mgmt.h">
<polygon fill="#ffffff" stroke="#000000" points="865.4507,-65.5 865.4507,-93.5 970.396,-93.5 970.396,-65.5 865.4507,-65.5"/>
<text text-anchor="start" x="873.4507" y="-81.5" font-family="Helvetica,sans-Serif" font-size="10.00" fill="#000000">components/include</text>
<text text-anchor="middle" x="917.9233" y="-71.5" font-family="Helvetica,sans-Serif" font-size="10.00" fill="#000000">/host_mgmt.h</text>
</a>
</g>
</g>
<!-- Node3&#45;&gt;Node17 -->
<g id="edge15" class="edge">
<title>Node3&#45;&gt;Node17</title>
<path fill="none" stroke="#191970" d="M1279.8194,-133.2767C1205.7074,-125.9937 1083.883,-112.5289 979.9233,-94 976.8761,-93.4569 973.7538,-92.8591 970.6093,-92.2252"/>
<polygon fill="#191970" stroke="#191970" points="1279.6613,-136.7778 1289.9534,-134.2632 1280.3396,-129.8107 1279.6613,-136.7778"/>
</g>
<!-- Node19 -->
<g id="node18" class="node">
<title>Node19</title>
<g id="a_node18"><a xlink:href="log_8h.html" target="_top" xlink:title="components/include\l/log.h">
<polygon fill="#ffffff" stroke="#000000" points="988.4507,-65.5 988.4507,-93.5 1093.396,-93.5 1093.396,-65.5 988.4507,-65.5"/>
<text text-anchor="start" x="996.4507" y="-81.5" font-family="Helvetica,sans-Serif" font-size="10.00" fill="#000000">components/include</text>
<text text-anchor="middle" x="1040.9233" y="-71.5" font-family="Helvetica,sans-Serif" font-size="10.00" fill="#000000">/log.h</text>
</a>
</g>
</g>
<!-- Node3&#45;&gt;Node19 -->
<g id="edge17" class="edge">
<title>Node3&#45;&gt;Node19</title>
<path fill="none" stroke="#191970" d="M1285.2779,-128.6868C1235.683,-119.9285 1164.7184,-106.957 1102.9233,-94 1099.894,-93.3648 1096.7856,-92.6951 1093.6518,-92.0061"/>
<polygon fill="#191970" stroke="#191970" points="1284.7586,-132.1491 1295.2139,-130.4356 1285.972,-125.2551 1284.7586,-132.1491"/>
</g>
<!-- Node21 -->
<g id="node20" class="node">
<title>Node21</title>
<g id="a_node20"><a xlink:href="ofp10_8h.html" target="_top" xlink:title="components/include\l/ofp10.h">
<polygon fill="#ffffff" stroke="#000000" points="1111.4507,-65.5 1111.4507,-93.5 1216.396,-93.5 1216.396,-65.5 1111.4507,-65.5"/>
<text text-anchor="start" x="1119.4507" y="-81.5" font-family="Helvetica,sans-Serif" font-size="10.00" fill="#000000">components/include</text>
<text text-anchor="middle" x="1163.9233" y="-71.5" font-family="Helvetica,sans-Serif" font-size="10.00" fill="#000000">/ofp10.h</text>
</a>
</g>
</g>
<!-- Node3&#45;&gt;Node21 -->
<g id="edge19" class="edge">
<title>Node3&#45;&gt;Node21</title>
<path fill="none" stroke="#191970" d="M1310.2913,-127.2287C1280.2703,-117.4392 1238.2044,-103.7221 1206.869,-93.504"/>
<polygon fill="#191970" stroke="#191970" points="1309.3853,-130.6146 1319.9777,-130.3873 1311.5555,-123.9595 1309.3853,-130.6146"/>
</g>
<!-- Node23 -->
<g id="node22" class="node">
<title>Node23</title>
<g id="a_node22"><a xlink:href="ofp10__veri_8h.html" target="_top" xlink:title="components/include\l/ofp10_veri.h">
<polygon fill="#ffffff" stroke="#000000" points="1234.4507,-65.5 1234.4507,-93.5 1339.396,-93.5 1339.396,-65.5 1234.4507,-65.5"/>
<text text-anchor="start" x="1242.4507" y="-81.5" font-family="Helvetica,sans-Serif" font-size="10.00" fill="#000000">components/include</text>
<text text-anchor="middle" x="1286.9233" y="-71.5" font-family="Helvetica,sans-Serif" font-size="10.00" fill="#000000">/ofp10_veri.h</text>
</a>
</g>
</g>
<!-- Node3&#45;&gt;Node23 -->
<g id="edge21" class="edge">
<title>Node3&#45;&gt;Node23</title>
<path fill="none" stroke="#191970" d="M1331.4455,-123.2923C1322.1045,-114.1044 1310.5204,-102.7103 1301.5101,-93.8477"/>
<polygon fill="#191970" stroke="#191970" points="1329.0751,-125.8701 1338.6588,-130.3873 1333.9838,-120.8796 1329.0751,-125.8701"/>
</g>
<!-- Node25 -->
<g id="node24" class="node">
<title>Node25</title>
<g id="a_node24"><a xlink:href="resource__mgmt_8h.html" target="_top" xlink:title="components/include\l/resource_mgmt.h">
<polygon fill="#ffffff" stroke="#000000" points="1357.4507,-65.5 1357.4507,-93.5 1462.396,-93.5 1462.396,-65.5 1357.4507,-65.5"/>
<text text-anchor="start" x="1365.4507" y="-81.5" font-family="Helvetica,sans-Serif" font-size="10.00" fill="#000000">components/include</text>
<text text-anchor="middle" x="1409.9233" y="-71.5" font-family="Helvetica,sans-Serif" font-size="10.00" fill="#000000">/resource_mgmt.h</text>
</a>
</g>
</g>
<!-- Node3&#45;&gt;Node25 -->
<g id="edge23" class="edge">
<title>Node3&#45;&gt;Node25</title>
<path fill="none" stroke="#191970" d="M1364.6713,-123.2923C1374.1655,-114.1044 1385.9394,-102.7103 1395.0974,-93.8477"/>
<polygon fill="#191970" stroke="#191970" points="1362.0919,-120.9179 1357.3398,-130.3873 1366.9598,-125.9482 1362.0919,-120.9179"/>
</g>
<!-- Node27 -->
<g id="node26" class="node">
<title>Node27</title>
<g id="a_node26"><a xlink:href="stat__mgmt_8h.html" target="_top" xlink:title="components/include\l/stat_mgmt.h">
<polygon fill="#ffffff" stroke="#000000" points="1480.4507,-65.5 1480.4507,-93.5 1585.396,-93.5 1585.396,-65.5 1480.4507,-65.5"/>
<text text-anchor="start" x="1488.4507" y="-81.5" font-family="Helvetica,sans-Serif" font-size="10.00" fill="#000000">components/include</text>
<text text-anchor="middle" x="1532.9233" y="-71.5" font-family="Helvetica,sans-Serif" font-size="10.00" fill="#000000">/stat_mgmt.h</text>
</a>
</g>
</g>
<!-- Node3&#45;&gt;Node27 -->
<g id="edge25" class="edge">
<title>Node3&#45;&gt;Node27</title>
<path fill="none" stroke="#191970" d="M1385.7599,-127.2287C1415.944,-117.4392 1458.2386,-103.7221 1489.7443,-93.504"/>
<polygon fill="#191970" stroke="#191970" points="1384.4533,-123.9729 1376.0209,-130.3873 1386.6129,-130.6315 1384.4533,-123.9729"/>
</g>
<!-- Node29 -->
<g id="node28" class="node">
<title>Node29</title>
<g id="a_node28"><a xlink:href="switch__mgmt_8h.html" target="_top" xlink:title="components/include\l/switch_mgmt.h">
<polygon fill="#ffffff" stroke="#000000" points="1603.4507,-65.5 1603.4507,-93.5 1708.396,-93.5 1708.396,-65.5 1603.4507,-65.5"/>
<text text-anchor="start" x="1611.4507" y="-81.5" font-family="Helvetica,sans-Serif" font-size="10.00" fill="#000000">components/include</text>
<text text-anchor="middle" x="1655.9233" y="-71.5" font-family="Helvetica,sans-Serif" font-size="10.00" fill="#000000">/switch_mgmt.h</text>
</a>
</g>
</g>
<!-- Node3&#45;&gt;Node29 -->
<g id="edge27" class="edge">
<title>Node3&#45;&gt;Node29</title>
<path fill="none" stroke="#191970" d="M1410.8265,-128.7026C1460.6249,-119.953 1531.8797,-106.9854 1593.9233,-94 1596.9529,-93.3659 1600.0615,-92.6971 1603.1955,-92.0087"/>
<polygon fill="#191970" stroke="#191970" points="1410.0961,-125.2772 1400.8497,-130.4496 1411.3035,-132.1723 1410.0961,-125.2772"/>
</g>
<!-- Node31 -->
<g id="node30" class="node">
<title>Node31</title>
<g id="a_node30"><a xlink:href="topo__mgmt_8h.html" target="_top" xlink:title="components/include\l/topo_mgmt.h">
<polygon fill="#ffffff" stroke="#000000" points="1726.4507,-65.5 1726.4507,-93.5 1831.396,-93.5 1831.396,-65.5 1726.4507,-65.5"/>
<text text-anchor="start" x="1734.4507" y="-81.5" font-family="Helvetica,sans-Serif" font-size="10.00" fill="#000000">components/include</text>
<text text-anchor="middle" x="1778.9233" y="-71.5" font-family="Helvetica,sans-Serif" font-size="10.00" fill="#000000">/topo_mgmt.h</text>
</a>
</g>
</g>
<!-- Node3&#45;&gt;Node31 -->
<g id="edge29" class="edge">
<title>Node3&#45;&gt;Node31</title>
<path fill="none" stroke="#191970" d="M1415.8886,-133.321C1490.171,-126.0562 1612.5307,-112.5883 1716.9233,-94 1719.9706,-93.4574 1723.093,-92.86 1726.2376,-92.2264"/>
<polygon fill="#191970" stroke="#191970" points="1415.3489,-129.8568 1405.733,-134.3048 1416.024,-136.8242 1415.3489,-129.8568"/>
</g>
<!-- Node33 -->
<g id="node32" class="node">
<title>Node33</title>
<g id="a_node32"><a xlink:href="traffic__mgmt_8h.html" target="_top" xlink:title="components/include\l/traffic_mgmt.h">
<polygon fill="#ffffff" stroke="#000000" points="1849.4507,-65.5 1849.4507,-93.5 1954.396,-93.5 1954.396,-65.5 1849.4507,-65.5"/>
<text text-anchor="start" x="1857.4507" y="-81.5" font-family="Helvetica,sans-Serif" font-size="10.00" fill="#000000">components/include</text>
<text text-anchor="middle" x="1901.9233" y="-71.5" font-family="Helvetica,sans-Serif" font-size="10.00" fill="#000000">/traffic_mgmt.h</text>
</a>
</g>
</g>
<!-- Node3&#45;&gt;Node33 -->
<g id="edge31" class="edge">
<title>Node3&#45;&gt;Node33</title>
<path fill="none" stroke="#191970" d="M1415.892,-136.1761C1511.1611,-130.8457 1689.604,-118.4096 1839.9233,-94 1842.9785,-93.5039 1846.1071,-92.9428 1849.2565,-92.337"/>
<polygon fill="#191970" stroke="#191970" points="1415.6071,-132.6864 1405.8146,-136.7307 1415.9919,-139.6758 1415.6071,-132.6864"/>
</g>
<!-- Node35 -->
<g id="node34" class="node">
<title>Node35</title>
<g id="a_node34"><a xlink:href="events_2event_8c.html" target="_top" xlink:title="events/event.c">
<polygon fill="#ffffff" stroke="#000000" points="1972.6821,-70.5 1972.6821,-88.5 2053.1646,-88.5 2053.1646,-70.5 1972.6821,-70.5"/>
<text text-anchor="middle" x="2012.9233" y="-76.5" font-family="Helvetica,sans-Serif" font-size="10.00" fill="#000000">events/event.c</text>
</a>
</g>
</g>
<!-- Node3&#45;&gt;Node35 -->
<g id="edge33" class="edge">
<title>Node3&#45;&gt;Node35</title>
<path fill="none" stroke="#191970" d="M1416.1244,-136.2505C1553.5801,-129.4061 1859.5869,-112.5963 1962.9233,-94 1970.3954,-92.6553 1978.3472,-90.6319 1985.6595,-88.52"/>
<polygon fill="#191970" stroke="#191970" points="1415.5458,-132.7748 1405.7311,-136.765 1415.892,-139.7662 1415.5458,-132.7748"/>
</g>
<!-- Node36 -->
<g id="node35" class="node">
<title>Node36</title>
<g id="a_node35"><a xlink:href="ext__comps_2shim_2event_8c.html" target="_top" xlink:title="ext_comps/shim/event.c">
<polygon fill="#ffffff" stroke="#000000" points="2071.2905,-70.5 2071.2905,-88.5 2194.5562,-88.5 2194.5562,-70.5 2071.2905,-70.5"/>
<text text-anchor="middle" x="2132.9233" y="-76.5" font-family="Helvetica,sans-Serif" font-size="10.00" fill="#000000">ext_comps/shim/event.c</text>
</a>
</g>
</g>
<!-- Node3&#45;&gt;Node36 -->
<g id="edge34" class="edge">
<title>Node3&#45;&gt;Node36</title>
<path fill="none" stroke="#191970" d="M1416.0332,-138.2799C1543.395,-135.3077 1826.0714,-125.4459 2061.9233,-94 2072.2738,-92.62 2083.376,-90.6106 2093.6545,-88.525"/>
<polygon fill="#191970" stroke="#191970" points="1415.9497,-134.7808 1406.0316,-138.5065 1416.1084,-141.779 1415.9497,-134.7808"/>
</g>
<!-- Node37 -->
<g id="node36" class="node">
<title>Node37</title>
<g id="a_node36"><a xlink:href="ext__comps_2conflict_2src_2include_2conflict_8h.html" target="_top" xlink:title="ext_comps/conflict\l/src/include/conflict.h">
<polygon fill="#ffffff" stroke="#000000" points="2212.5146,-65.5 2212.5146,-93.5 2321.332,-93.5 2321.332,-65.5 2212.5146,-65.5"/>
<text text-anchor="start" x="2220.5146" y="-81.5" font-family="Helvetica,sans-Serif" font-size="10.00" fill="#000000">ext_comps/conflict</text>
<text text-anchor="middle" x="2266.9233" y="-71.5" font-family="Helvetica,sans-Serif" font-size="10.00" fill="#000000">/src/include/conflict.h</text>
</a>
</g>
</g>
<!-- Node3&#45;&gt;Node37 -->
<g id="edge35" class="edge">
<title>Node3&#45;&gt;Node37</title>
<path fill="none" stroke="#191970" d="M1416.0165,-137.4046C1590.8056,-131.7814 2052.2052,-115.3281 2203.9233,-94 2206.7019,-93.6094 2209.5386,-93.1568 2212.3955,-92.6581"/>
<polygon fill="#191970" stroke="#191970" points="1415.7998,-133.9097 1405.9168,-137.7277 1416.0237,-140.9061 1415.7998,-133.9097"/>
</g>
<!-- Node40 -->
<g id="node39" class="node">
<title>Node40</title>
<g id="a_node39"><a xlink:href="src_2cli_8c.html" target="_top" xlink:title="src/cli.c">
<polygon fill="#ffffff" stroke="#000000" points="2339.2583,-70.5 2339.2583,-88.5 2388.5884,-88.5 2388.5884,-70.5 2339.2583,-70.5"/>
<text text-anchor="middle" x="2363.9233" y="-76.5" font-family="Helvetica,sans-Serif" font-size="10.00" fill="#000000">src/cli.c</text>
</a>
</g>
</g>
<!-- Node3&#45;&gt;Node40 -->
<g id="edge38" class="edge">
<title>Node3&#45;&gt;Node40</title>
<path fill="none" stroke="#191970" d="M1415.9445,-137.7485C1623.7579,-132.2021 2241.5706,-114.1946 2329.9233,-94 2335.3033,-92.7703 2340.9057,-90.7304 2345.9739,-88.5635"/>
<polygon fill="#191970" stroke="#191970" points="1415.6782,-134.2542 1405.7747,-138.0187 1415.8642,-141.2518 1415.6782,-134.2542"/>
</g>
<!-- Node41 -->
<g id="node40" class="node">
<title>Node41</title>
<g id="a_node40"><a xlink:href="component_8c.html" target="_top" xlink:title="src/component.c">
<polygon fill="#ffffff" stroke="#000000" points="2406.2412,-70.5 2406.2412,-88.5 2495.6055,-88.5 2495.6055,-70.5 2406.2412,-70.5"/>
<text text-anchor="middle" x="2450.9233" y="-76.5" font-family="Helvetica,sans-Serif" font-size="10.00" fill="#000000">src/component.c</text>
</a>
</g>
</g>
<!-- Node3&#45;&gt;Node41 -->
<g id="edge39" class="edge">
<title>Node3&#45;&gt;Node41</title>
<path fill="none" stroke="#191970" d="M1415.9907,-138.538C1617.3108,-135.3782 2207.6661,-123.7631 2397.9233,-94 2406.0288,-92.732 2414.6696,-90.6796 2422.5714,-88.5128"/>
<polygon fill="#191970" stroke="#191970" points="1415.7911,-135.0406 1405.8466,-138.6952 1415.8997,-142.0398 1415.7911,-135.0406"/>
</g>
<!-- Node42 -->
<g id="node41" class="node">
<title>Node42</title>
<g id="a_node41"><a xlink:href="main_8c.html" target="_top" xlink:title="src/main.c">
<polygon fill="#ffffff" stroke="#000000" points="2513.1426,-70.5 2513.1426,-88.5 2574.7041,-88.5 2574.7041,-70.5 2513.1426,-70.5"/>
<text text-anchor="middle" x="2543.9233" y="-76.5" font-family="Helvetica,sans-Serif" font-size="10.00" fill="#000000">src/main.c</text>
</a>
</g>
</g>
<!-- Node3&#45;&gt;Node42 -->
<g id="edge40" class="edge">
<title>Node3&#45;&gt;Node42</title>
<path fill="none" stroke="#191970" d="M1416.263,-138.0709C1648.4539,-133.0414 2398.5177,-115.3073 2504.9233,-94 2511.0148,-92.7802 2517.4148,-90.7436 2523.2287,-88.5766"/>
<polygon fill="#191970" stroke="#191970" points="1415.8505,-134.5789 1405.9284,-138.2938 1416.0015,-141.5773 1415.8505,-134.5789"/>
</g>
<!-- Node5 -->
<g id="node4" class="node">
<title>Node5</title>
<g id="a_node4"><a xlink:href="apphdlr_8c.html" target="_top" xlink:title="components/apphdlr.c">
<polygon fill="#ffffff" stroke="#000000" points="0,-5.5 0,-23.5 113.8467,-23.5 113.8467,-5.5 0,-5.5"/>
<text text-anchor="middle" x="56.9233" y="-11.5" font-family="Helvetica,sans-Serif" font-size="10.00" fill="#000000">components/apphdlr.c</text>
</a>
</g>
</g>
<!-- Node4&#45;&gt;Node5 -->
<g id="edge3" class="edge">
<title>Node4&#45;&gt;Node5</title>
<path fill="none" stroke="#191970" d="M56.9233,-55.3747C56.9233,-44.2832 56.9233,-31.7952 56.9233,-23.5743"/>
<polygon fill="#191970" stroke="#191970" points="53.4234,-55.3959 56.9233,-65.396 60.4234,-55.396 53.4234,-55.3959"/>
</g>
<!-- Node7 -->
<g id="node6" class="node">
<title>Node7</title>
<g id="a_node6"><a xlink:href="cac_8c.html" target="_top" xlink:title="components/cac.c">
<polygon fill="#ffffff" stroke="#000000" points="131.6255,-5.5 131.6255,-23.5 228.2212,-23.5 228.2212,-5.5 131.6255,-5.5"/>
<text text-anchor="middle" x="179.9233" y="-11.5" font-family="Helvetica,sans-Serif" font-size="10.00" fill="#000000">components/cac.c</text>
</a>
</g>
</g>
<!-- Node6&#45;&gt;Node7 -->
<g id="edge5" class="edge">
<title>Node6&#45;&gt;Node7</title>
<path fill="none" stroke="#191970" d="M179.9233,-55.3747C179.9233,-44.2832 179.9233,-31.7952 179.9233,-23.5743"/>
<polygon fill="#191970" stroke="#191970" points="176.4234,-55.3959 179.9233,-65.396 183.4234,-55.396 176.4234,-55.3959"/>
</g>
<!-- Node9 -->
<g id="node8" class="node">
<title>Node9</title>
<g id="a_node8"><a xlink:href="cluster_8c.html" target="_top" xlink:title="components/cluster.c">
<polygon fill="#ffffff" stroke="#000000" points="247.9531,-5.5 247.9531,-23.5 357.8936,-23.5 357.8936,-5.5 247.9531,-5.5"/>
<text text-anchor="middle" x="302.9233" y="-11.5" font-family="Helvetica,sans-Serif" font-size="10.00" fill="#000000">components/cluster.c</text>
</a>
</g>
</g>
<!-- Node8&#45;&gt;Node9 -->
<g id="edge7" class="edge">
<title>Node8&#45;&gt;Node9</title>
<path fill="none" stroke="#191970" d="M302.9233,-55.3747C302.9233,-44.2832 302.9233,-31.7952 302.9233,-23.5743"/>
<polygon fill="#191970" stroke="#191970" points="299.4234,-55.3959 302.9233,-65.396 306.4234,-55.396 299.4234,-55.3959"/>
</g>
<!-- Node12 -->
<g id="node11" class="node">
<title>Node12</title>
<g id="a_node11"><a xlink:href="conn_8c.html" target="_top" xlink:title="components/conn.c">
<polygon fill="#ffffff" stroke="#000000" points="464.564,-5.5 464.564,-23.5 567.2827,-23.5 567.2827,-5.5 464.564,-5.5"/>
<text text-anchor="middle" x="515.9233" y="-11.5" font-family="Helvetica,sans-Serif" font-size="10.00" fill="#000000">components/conn.c</text>
</a>
</g>
</g>
<!-- Node11&#45;&gt;Node12 -->
<g id="edge10" class="edge">
<title>Node11&#45;&gt;Node12</title>
<path fill="none" stroke="#191970" d="M537.1954,-56.3996C531.4383,-45.0598 524.8331,-32.0495 520.5303,-23.5743"/>
<polygon fill="#191970" stroke="#191970" points="534.115,-58.0637 541.7628,-65.396 540.3567,-54.8948 534.115,-58.0637"/>
</g>
<!-- Node14 -->
<g id="node13" class="node">
<title>Node14</title>
<g id="a_node13"><a xlink:href="dit_8c.html" target="_top" xlink:title="components/dit.c">
<polygon fill="#ffffff" stroke="#000000" points="585.1255,-5.5 585.1255,-23.5 676.7212,-23.5 676.7212,-5.5 585.1255,-5.5"/>
<text text-anchor="middle" x="630.9233" y="-11.5" font-family="Helvetica,sans-Serif" font-size="10.00" fill="#000000">components/dit.c</text>
</a>
</g>
</g>
<!-- Node13&#45;&gt;Node14 -->
<g id="edge12" class="edge">
<title>Node13&#45;&gt;Node14</title>
<path fill="none" stroke="#191970" d="M657.5666,-56.7393C650.3639,-45.3204 642.0465,-32.1342 636.6471,-23.5743"/>
<polygon fill="#191970" stroke="#191970" points="654.7316,-58.8053 663.027,-65.396 660.6522,-55.0707 654.7316,-58.8053"/>
</g>
<!-- Node16 -->
<g id="node15" class="node">
<title>Node16</title>
<g id="a_node15"><a xlink:href="flow__mgmt_8c.html" target="_top" xlink:title="components/flow_mgmt.c">
<polygon fill="#ffffff" stroke="#000000" points="694.2339,-5.5 694.2339,-23.5 823.6128,-23.5 823.6128,-5.5 694.2339,-5.5"/>
<text text-anchor="middle" x="758.9233" y="-11.5" font-family="Helvetica,sans-Serif" font-size="10.00" fill="#000000">components/flow_mgmt.c</text>
</a>
</g>
</g>
<!-- Node15&#45;&gt;Node16 -->
<g id="edge14" class="edge">
<title>Node15&#45;&gt;Node16</title>
<path fill="none" stroke="#191970" d="M782.1293,-56.3996C775.8487,-45.0598 768.6431,-32.0495 763.9491,-23.5743"/>
<polygon fill="#191970" stroke="#191970" points="779.2051,-58.3438 787.1119,-65.396 785.3286,-54.9523 779.2051,-58.3438"/>
</g>
<!-- Node18 -->
<g id="node17" class="node">
<title>Node18</title>
<g id="a_node17"><a xlink:href="host__mgmt_8c.html" target="_top" xlink:title="components/host_mgmt.c">
<polygon fill="#ffffff" stroke="#000000" points="841.6748,-5.5 841.6748,-23.5 972.1719,-23.5 972.1719,-5.5 841.6748,-5.5"/>
<text text-anchor="middle" x="906.9233" y="-11.5" font-family="Helvetica,sans-Serif" font-size="10.00" fill="#000000">components/host_mgmt.c</text>
</a>
</g>
</g>
<!-- Node17&#45;&gt;Node18 -->
<g id="edge16" class="edge">
<title>Node17&#45;&gt;Node18</title>
<path fill="none" stroke="#191970" d="M913.8406,-55.3747C911.9636,-44.2832 909.8502,-31.7952 908.459,-23.5743"/>
<polygon fill="#191970" stroke="#191970" points="910.4169,-56.1202 915.5365,-65.396 917.3188,-54.9521 910.4169,-56.1202"/>
</g>
<!-- Node20 -->
<g id="node19" class="node">
<title>Node20</title>
<g id="a_node19"><a xlink:href="log_8c.html" target="_top" xlink:title="components/log.c">
<polygon fill="#ffffff" stroke="#000000" points="989.7339,-5.5 989.7339,-23.5 1084.1128,-23.5 1084.1128,-5.5 989.7339,-5.5"/>
<text text-anchor="middle" x="1036.9233" y="-11.5" font-family="Helvetica,sans-Serif" font-size="10.00" fill="#000000">components/log.c</text>
</a>
</g>
</g>
<!-- Node19&#45;&gt;Node20 -->
<g id="edge18" class="edge">
<title>Node19&#45;&gt;Node20</title>
<path fill="none" stroke="#191970" d="M1039.4387,-55.3747C1038.7562,-44.2832 1037.9877,-31.7952 1037.4818,-23.5743"/>
<polygon fill="#191970" stroke="#191970" points="1035.9477,-55.6299 1040.0554,-65.396 1042.9345,-55.1998 1035.9477,-55.6299"/>
</g>
<!-- Node22 -->
<g id="node21" class="node">
<title>Node22</title>
<g id="a_node21"><a xlink:href="ofp10_8c.html" target="_top" xlink:title="components/ofp10.c">
<polygon fill="#ffffff" stroke="#000000" points="1101.894,-5.5 1101.894,-23.5 1207.9526,-23.5 1207.9526,-5.5 1101.894,-5.5"/>
<text text-anchor="middle" x="1154.9233" y="-11.5" font-family="Helvetica,sans-Serif" font-size="10.00" fill="#000000">components/ofp10.c</text>
</a>
</g>
</g>
<!-- Node21&#45;&gt;Node22 -->
<g id="edge20" class="edge">
<title>Node21&#45;&gt;Node22</title>
<path fill="none" stroke="#191970" d="M1160.5829,-55.3747C1159.0472,-44.2832 1157.3181,-31.7952 1156.1798,-23.5743"/>
<polygon fill="#191970" stroke="#191970" points="1157.1319,-55.9705 1161.9705,-65.396 1164.0658,-55.0104 1157.1319,-55.9705"/>
</g>
<!-- Node24 -->
<g id="node23" class="node">
<title>Node24</title>
<g id="a_node23"><a xlink:href="ofp10__veri_8c.html" target="_top" xlink:title="components/ofp10_veri.c">
<polygon fill="#ffffff" stroke="#000000" points="1226.0566,-5.5 1226.0566,-23.5 1353.79,-23.5 1353.79,-5.5 1226.0566,-5.5"/>
<text text-anchor="middle" x="1289.9233" y="-11.5" font-family="Helvetica,sans-Serif" font-size="10.00" fill="#000000">components/ofp10_veri.c</text>
</a>
</g>
</g>
<!-- Node23&#45;&gt;Node24 -->
<g id="edge22" class="edge">
<title>Node23&#45;&gt;Node24</title>
<path fill="none" stroke="#191970" d="M1288.0368,-55.3747C1288.5487,-44.2832 1289.1251,-31.7952 1289.5045,-23.5743"/>
<polygon fill="#191970" stroke="#191970" points="1284.5392,-55.2452 1287.5743,-65.396 1291.5317,-55.568 1284.5392,-55.2452"/>
</g>
<!-- Node26 -->
<g id="node25" class="node">
<title>Node26</title>
<g id="a_node25"><a xlink:href="resource__mgmt_8c.html" target="_top" xlink:title="components/resource\l_mgmt.c">
<polygon fill="#ffffff" stroke="#000000" points="1371.8423,-.5 1371.8423,-28.5 1484.0044,-28.5 1484.0044,-.5 1371.8423,-.5"/>
<text text-anchor="start" x="1379.8423" y="-16.5" font-family="Helvetica,sans-Serif" font-size="10.00" fill="#000000">components/resource</text>
<text text-anchor="middle" x="1427.9233" y="-6.5" font-family="Helvetica,sans-Serif" font-size="10.00" fill="#000000">_mgmt.c</text>
</a>
</g>
</g>
<!-- Node25&#45;&gt;Node26 -->
<g id="edge24" class="edge">
<title>Node25&#45;&gt;Node26</title>
<path fill="none" stroke="#191970" d="M1416.5149,-55.6971C1419.0377,-46.5871 1421.833,-36.4929 1424.0252,-28.5765"/>
<polygon fill="#191970" stroke="#191970" points="1413.1249,-54.8246 1413.8291,-65.396 1419.871,-56.6928 1413.1249,-54.8246"/>
</g>
<!-- Node28 -->
<g id="node27" class="node">
<title>Node28</title>
<g id="a_node27"><a xlink:href="stat__mgmt_8c.html" target="_top" xlink:title="components/stat_mgmt.c">
<polygon fill="#ffffff" stroke="#000000" points="1502.0664,-5.5 1502.0664,-23.5 1629.7803,-23.5 1629.7803,-5.5 1502.0664,-5.5"/>
<text text-anchor="middle" x="1565.9233" y="-11.5" font-family="Helvetica,sans-Serif" font-size="10.00" fill="#000000">components/stat_mgmt.c</text>
</a>
</g>
</g>
<!-- Node27&#45;&gt;Node28 -->
<g id="edge26" class="edge">
<title>Node27&#45;&gt;Node28</title>
<path fill="none" stroke="#191970" d="M1544.6512,-56.3996C1550.4084,-45.0598 1557.0136,-32.0495 1561.3164,-23.5743"/>
<polygon fill="#191970" stroke="#191970" points="1541.49,-54.8948 1540.0838,-65.396 1547.7317,-58.0637 1541.49,-54.8948"/>
</g>
<!-- Node30 -->
<g id="node29" class="node">
<title>Node30</title>
<g id="a_node29"><a xlink:href="switch__mgmt_8c.html" target="_top" xlink:title="components/switch_mgmt.c">
<polygon fill="#ffffff" stroke="#000000" points="1648.2339,-5.5 1648.2339,-23.5 1787.6128,-23.5 1787.6128,-5.5 1648.2339,-5.5"/>
<text text-anchor="middle" x="1717.9233" y="-11.5" font-family="Helvetica,sans-Serif" font-size="10.00" fill="#000000">components/switch_mgmt.c</text>
</a>
</g>
</g>
<!-- Node29&#45;&gt;Node30 -->
<g id="edge28" class="edge">
<title>Node29&#45;&gt;Node30</title>
<path fill="none" stroke="#191970" d="M1676.3478,-58.0873C1687.5222,-46.3721 1700.7796,-32.4732 1709.2678,-23.5743"/>
<polygon fill="#191970" stroke="#191970" points="1673.7459,-55.7441 1669.3764,-65.396 1678.8112,-60.5756 1673.7459,-55.7441"/>
</g>
<!-- Node32 -->
<g id="node31" class="node">
<title>Node32</title>
<g id="a_node31"><a xlink:href="topo__mgmt_8c.html" target="_top" xlink:title="components/topo_mgmt.c">
<polygon fill="#ffffff" stroke="#000000" points="1805.394,-5.5 1805.394,-23.5 1936.4526,-23.5 1936.4526,-5.5 1805.394,-5.5"/>
<text text-anchor="middle" x="1870.9233" y="-11.5" font-family="Helvetica,sans-Serif" font-size="10.00" fill="#000000">components/topo_mgmt.c</text>
</a>
</g>
</g>
<!-- Node31&#45;&gt;Node32 -->
<g id="edge30" class="edge">
<title>Node31&#45;&gt;Node32</title>
<path fill="none" stroke="#191970" d="M1807.3496,-59.4163C1824.3029,-47.4383 1845.0045,-32.8122 1858.0797,-23.5743"/>
<polygon fill="#191970" stroke="#191970" points="1805.0336,-56.7671 1798.886,-65.396 1809.0728,-62.4841 1805.0336,-56.7671"/>
</g>
<!-- Node34 -->
<g id="node33" class="node">
<title>Node34</title>
<g id="a_node33"><a xlink:href="traffic__mgmt_8c.html" target="_top" xlink:title="components/traffic\l_mgmt.c">
<polygon fill="#ffffff" stroke="#000000" points="1954.0713,-.5 1954.0713,-28.5 2051.7754,-28.5 2051.7754,-.5 1954.0713,-.5"/>
<text text-anchor="start" x="1962.0713" y="-16.5" font-family="Helvetica,sans-Serif" font-size="10.00" fill="#000000">components/traffic</text>
<text text-anchor="middle" x="2002.9233" y="-6.5" font-family="Helvetica,sans-Serif" font-size="10.00" fill="#000000">_mgmt.c</text>
</a>
</g>
</g>
<!-- Node33&#45;&gt;Node34 -->
<g id="edge32" class="edge">
<title>Node33&#45;&gt;Node34</title>
<path fill="none" stroke="#191970" d="M1932.6372,-59.7337C1948.2659,-49.6755 1966.8979,-37.6847 1981.0506,-28.5765"/>
<polygon fill="#191970" stroke="#191970" points="1930.3538,-57.041 1923.8388,-65.396 1934.1421,-62.9273 1930.3538,-57.041"/>
</g>
<!-- Node38 -->
<g id="node37" class="node">
<title>Node38</title>
<g id="a_node37"><a xlink:href="components_2conflict_8c.html" target="_top" xlink:title="components/conflict.c">
<polygon fill="#ffffff" stroke="#000000" points="2148.8447,-5.5 2148.8447,-23.5 2261.002,-23.5 2261.002,-5.5 2148.8447,-5.5"/>
<text text-anchor="middle" x="2204.9233" y="-11.5" font-family="Helvetica,sans-Serif" font-size="10.00" fill="#000000">components/conflict.c</text>
</a>
</g>
</g>
<!-- Node37&#45;&gt;Node38 -->
<g id="edge36" class="edge">
<title>Node37&#45;&gt;Node38</title>
<path fill="none" stroke="#191970" d="M2246.4989,-58.0873C2235.3244,-46.3721 2222.067,-32.4732 2213.5788,-23.5743"/>
<polygon fill="#191970" stroke="#191970" points="2244.0355,-60.5756 2253.4703,-65.396 2249.1008,-55.7441 2244.0355,-60.5756"/>
</g>
<!-- Node39 -->
<g id="node38" class="node">
<title>Node39</title>
<g id="a_node38"><a xlink:href="ext__comps_2conflict_2src_2conflict_8c.html" target="_top" xlink:title="ext_comps/conflict\l/src/conflict.c">
<polygon fill="#ffffff" stroke="#000000" points="2278.7954,-.5 2278.7954,-28.5 2377.0513,-28.5 2377.0513,-.5 2278.7954,-.5"/>
<text text-anchor="start" x="2286.7954" y="-16.5" font-family="Helvetica,sans-Serif" font-size="10.00" fill="#000000">ext_comps/conflict</text>
<text text-anchor="middle" x="2327.9233" y="-6.5" font-family="Helvetica,sans-Serif" font-size="10.00" fill="#000000">/src/conflict.c</text>
</a>
</g>
</g>
<!-- Node37&#45;&gt;Node39 -->
<g id="edge37" class="edge">
<title>Node37&#45;&gt;Node39</title>
<path fill="none" stroke="#191970" d="M2287.0775,-58.0243C2296.166,-48.3398 2306.6447,-37.1739 2314.7131,-28.5765"/>
<polygon fill="#191970" stroke="#191970" points="2284.4504,-55.709 2280.1594,-65.396 2289.5548,-60.4992 2284.4504,-55.709"/>
</g>
</g>
</svg>
