<?xml version="1.0" encoding="UTF-8" standalone="no"?>
<!DOCTYPE svg PUBLIC "-//W3C//DTD SVG 1.1//EN"
 "http://www.w3.org/Graphics/SVG/1.1/DTD/svg11.dtd">
<!-- Generated by graphviz version 2.40.1 (20161225.0304)
 -->
<!-- Title: events/include/event_string.h Pages: 1 -->
<svg width="212pt" height="92pt"
 viewBox="0.00 0.00 211.98 92.00" xmlns="http://www.w3.org/2000/svg" xmlns:xlink="http://www.w3.org/1999/xlink">
<g id="graph0" class="graph" transform="scale(1 1) rotate(0) translate(4 88)">
<title>events/include/event_string.h</title>
<polygon fill="#ffffff" stroke="transparent" points="-4,4 -4,-88 207.98,-88 207.98,4 -4,4"/>
<!-- Node1 -->
<g id="node1" class="node">
<title>Node1</title>
<polygon fill="#bfbfbf" stroke="#000000" points="49.7119,-55.5 49.7119,-83.5 156.8838,-83.5 156.8838,-55.5 49.7119,-55.5"/>
<text text-anchor="start" x="57.7119" y="-71.5" font-family="Helvetica,sans-Serif" font-size="10.00" fill="#000000">events/include/event</text>
<text text-anchor="middle" x="103.2979" y="-61.5" font-family="Helvetica,sans-Serif" font-size="10.00" fill="#000000">_string.h</text>
</g>
<!-- Node2 -->
<g id="node2" class="node">
<title>Node2</title>
<g id="a_node2"><a xlink:href="cac_8c.html" target="_top" xlink:title="components/cac.c">
<polygon fill="#ffffff" stroke="#000000" points="0,-.5 0,-18.5 96.5957,-18.5 96.5957,-.5 0,-.5"/>
<text text-anchor="middle" x="48.2979" y="-6.5" font-family="Helvetica,sans-Serif" font-size="10.00" fill="#000000">components/cac.c</text>
</a>
</g>
</g>
<!-- Node1&#45;&gt;Node2 -->
<g id="edge1" class="edge">
<title>Node1&#45;&gt;Node2</title>
<path fill="none" stroke="#191970" d="M83.2399,-47.6186C74.0535,-37.5971 63.669,-26.2685 56.625,-18.5842"/>
<polygon fill="#191970" stroke="#191970" points="80.9263,-50.2743 90.2636,-55.2808 86.0864,-45.5442 80.9263,-50.2743"/>
</g>
<!-- Node3 -->
<g id="node3" class="node">
<title>Node3</title>
<g id="a_node3"><a xlink:href="component_8c.html" target="_top" xlink:title="src/component.c">
<polygon fill="#ffffff" stroke="#000000" points="114.6157,-.5 114.6157,-18.5 203.98,-18.5 203.98,-.5 114.6157,-.5"/>
<text text-anchor="middle" x="159.2979" y="-6.5" font-family="Helvetica,sans-Serif" font-size="10.00" fill="#000000">src/component.c</text>
</a>
</g>
</g>
<!-- Node1&#45;&gt;Node3 -->
<g id="edge2" class="edge">
<title>Node1&#45;&gt;Node3</title>
<path fill="none" stroke="#191970" d="M123.443,-47.9159C132.8642,-37.8217 143.5763,-26.3446 150.8193,-18.5842"/>
<polygon fill="#191970" stroke="#191970" points="120.8336,-45.5821 116.5691,-55.2808 125.951,-50.3584 120.8336,-45.5821"/>
</g>
</g>
</svg>
