<?xml version="1.0" encoding="UTF-8" standalone="no"?>
<!DOCTYPE svg PUBLIC "-//W3C//DTD SVG 1.1//EN"
 "http://www.w3.org/Graphics/SVG/1.1/DTD/svg11.dtd">
<!-- Generated by graphviz version 2.40.1 (20161225.0304)
 -->
<!-- Title: events/event.c Pages: 1 -->
<svg width="1633pt" height="302pt"
 viewBox="0.00 0.00 1633.13 302.00" xmlns="http://www.w3.org/2000/svg" xmlns:xlink="http://www.w3.org/1999/xlink">
<g id="graph0" class="graph" transform="scale(1 1) rotate(0) translate(4 298)">
<title>events/event.c</title>
<polygon fill="#ffffff" stroke="transparent" points="-4,4 -4,-298 1629.1304,-298 1629.1304,4 -4,4"/>
<!-- Node0 -->
<g id="node1" class="node">
<title>Node0</title>
<polygon fill="#bfbfbf" stroke="#000000" points="1116.3794,-275.5 1116.3794,-293.5 1196.8618,-293.5 1196.8618,-275.5 1116.3794,-275.5"/>
<text text-anchor="middle" x="1156.6206" y="-281.5" font-family="Helvetica,sans-Serif" font-size="10.00" fill="#000000">events/event.c</text>
</g>
<!-- Node1 -->
<g id="node2" class="node">
<title>Node1</title>
<g id="a_node2"><a xlink:href="events_2include_2event_8h.html" target="_top" xlink:title="event.h">
<polygon fill="#ffffff" stroke="#000000" points="773.2192,-165.5 773.2192,-183.5 822.022,-183.5 822.022,-165.5 773.2192,-165.5"/>
<text text-anchor="middle" x="797.6206" y="-171.5" font-family="Helvetica,sans-Serif" font-size="10.00" fill="#000000">event.h</text>
</a>
</g>
</g>
<!-- Node0&#45;&gt;Node1 -->
<g id="edge1" class="edge">
<title>Node0&#45;&gt;Node1</title>
<path fill="none" stroke="#191970" d="M1122.6784,-275.4189C1089.8159,-266.5203 1038.6424,-252.3821 994.6206,-239 937.1307,-221.5238 870.8323,-199.407 831.6703,-186.1369"/>
<polygon fill="#191970" stroke="#191970" points="832.6783,-182.783 822.0839,-182.8815 830.4274,-189.4112 832.6783,-182.783"/>
</g>
<!-- Node28 -->
<g id="node29" class="node">
<title>Node28</title>
<g id="a_node29"><a xlink:href="src_2include_2component_8h.html" target="_top" xlink:title="component.h">
<polygon fill="#ffffff" stroke="#000000" points="901.7119,-165.5 901.7119,-183.5 975.5293,-183.5 975.5293,-165.5 901.7119,-165.5"/>
<text text-anchor="middle" x="938.6206" y="-171.5" font-family="Helvetica,sans-Serif" font-size="10.00" fill="#000000">component.h</text>
</a>
</g>
</g>
<!-- Node0&#45;&gt;Node28 -->
<g id="edge32" class="edge">
<title>Node0&#45;&gt;Node28</title>
<path fill="none" stroke="#191970" d="M1123.7615,-275.4301C1097.4969,-267.5492 1060.1538,-254.908 1029.6206,-239 1002.9077,-225.0824 975.0608,-204.2652 957.32,-190.0711"/>
<polygon fill="#191970" stroke="#191970" points="959.4401,-187.2841 949.4719,-183.6943 955.0259,-192.7168 959.4401,-187.2841"/>
</g>
<!-- Node31 -->
<g id="node32" class="node">
<title>Node31</title>
<g id="a_node32"><a xlink:href="src_2include_2cli_8h.html" target="_top" xlink:title="cli.h">
<polygon fill="#ffffff" stroke="#000000" points="1009.729,-165.5 1009.729,-183.5 1043.5122,-183.5 1043.5122,-165.5 1009.729,-165.5"/>
<text text-anchor="middle" x="1026.6206" y="-171.5" font-family="Helvetica,sans-Serif" font-size="10.00" fill="#000000">cli.h</text>
</a>
</g>
</g>
<!-- Node0&#45;&gt;Node31 -->
<g id="edge39" class="edge">
<title>Node0&#45;&gt;Node31</title>
<path fill="none" stroke="#191970" d="M1116.145,-277.0376C1092.5364,-270.6954 1063.8987,-259.2557 1045.6206,-239 1034.3895,-226.5538 1029.7799,-207.7739 1027.8973,-193.6832"/>
<polygon fill="#191970" stroke="#191970" points="1031.3671,-193.2045 1026.8976,-183.5986 1024.4012,-193.8951 1031.3671,-193.2045"/>
</g>
<!-- Node32 -->
<g id="node33" class="node">
<title>Node32</title>
<g id="a_node33"><a xlink:href="event__msg__pack_8h.html" target="_top" xlink:title="event_msg_pack.h">
<polygon fill="#ffffff" stroke="#000000" points="1054.6504,-220.5 1054.6504,-238.5 1154.5908,-238.5 1154.5908,-220.5 1054.6504,-220.5"/>
<text text-anchor="middle" x="1104.6206" y="-226.5" font-family="Helvetica,sans-Serif" font-size="10.00" fill="#000000">event_msg_pack.h</text>
</a>
</g>
</g>
<!-- Node0&#45;&gt;Node32 -->
<g id="edge42" class="edge">
<title>Node0&#45;&gt;Node32</title>
<path fill="none" stroke="#191970" d="M1148.0339,-275.4179C1140.5518,-267.5041 1129.509,-255.8243 1120.4334,-246.2251"/>
<polygon fill="#191970" stroke="#191970" points="1122.8073,-243.6414 1113.3939,-238.7795 1117.7208,-248.4505 1122.8073,-243.6414"/>
</g>
<!-- Node42 -->
<g id="node43" class="node">
<title>Node42</title>
<g id="a_node43"><a xlink:href="odp__partial_8h.html" target="_top" xlink:title="odp_partial.h">
<polygon fill="#ffffff" stroke="#000000" points="1172.7095,-220.5 1172.7095,-238.5 1246.5317,-238.5 1246.5317,-220.5 1172.7095,-220.5"/>
<text text-anchor="middle" x="1209.6206" y="-226.5" font-family="Helvetica,sans-Serif" font-size="10.00" fill="#000000">odp_partial.h</text>
</a>
</g>
</g>
<!-- Node0&#45;&gt;Node42 -->
<g id="edge54" class="edge">
<title>Node0&#45;&gt;Node42</title>
<path fill="none" stroke="#191970" d="M1165.3725,-275.4179C1172.9985,-267.5041 1184.2535,-255.8243 1193.5037,-246.2251"/>
<polygon fill="#191970" stroke="#191970" points="1196.2599,-248.4089 1200.6786,-238.7795 1191.2193,-243.5516 1196.2599,-248.4089"/>
</g>
<!-- Node43 -->
<g id="node44" class="node">
<title>Node43</title>
<g id="a_node44"><a xlink:href="odp__all_8h.html" target="_top" xlink:title="odp_all.h">
<polygon fill="#ffffff" stroke="#000000" points="1264.3252,-220.5 1264.3252,-238.5 1320.916,-238.5 1320.916,-220.5 1264.3252,-220.5"/>
<text text-anchor="middle" x="1292.6206" y="-226.5" font-family="Helvetica,sans-Serif" font-size="10.00" fill="#000000">odp_all.h</text>
</a>
</g>
</g>
<!-- Node0&#45;&gt;Node43 -->
<g id="edge55" class="edge">
<title>Node0&#45;&gt;Node43</title>
<path fill="none" stroke="#191970" d="M1179.0782,-275.4179C1201.3239,-266.4215 1235.6043,-252.5581 1260.68,-242.4172"/>
<polygon fill="#191970" stroke="#191970" points="1262.1712,-245.5895 1270.1296,-238.5956 1259.5468,-239.1001 1262.1712,-245.5895"/>
</g>
<!-- Node44 -->
<g id="node45" class="node">
<title>Node44</title>
<g id="a_node45"><a xlink:href="event__rw__raise_8h.html" target="_top" xlink:title="event_rw_raise.h">
<polygon fill="#ffffff" stroke="#000000" points="1338.5444,-220.5 1338.5444,-238.5 1430.6968,-238.5 1430.6968,-220.5 1338.5444,-220.5"/>
<text text-anchor="middle" x="1384.6206" y="-226.5" font-family="Helvetica,sans-Serif" font-size="10.00" fill="#000000">event_rw_raise.h</text>
</a>
</g>
</g>
<!-- Node0&#45;&gt;Node44 -->
<g id="edge56" class="edge">
<title>Node0&#45;&gt;Node44</title>
<path fill="none" stroke="#191970" d="M1194.0149,-275.4795C1233.1957,-266.0279 1294.8463,-251.1561 1337.3692,-240.8984"/>
<polygon fill="#191970" stroke="#191970" points="1338.3056,-244.273 1347.2059,-238.5255 1336.664,-237.4682 1338.3056,-244.273"/>
</g>
<!-- Node45 -->
<g id="node46" class="node">
<title>Node45</title>
<g id="a_node46"><a xlink:href="event__direct__raise_8h.html" target="_top" xlink:title="event_direct_raise.h">
<polygon fill="#ffffff" stroke="#000000" points="1448.5938,-220.5 1448.5938,-238.5 1554.6475,-238.5 1554.6475,-220.5 1448.5938,-220.5"/>
<text text-anchor="middle" x="1501.6206" y="-226.5" font-family="Helvetica,sans-Serif" font-size="10.00" fill="#000000">event_direct_raise.h</text>
</a>
</g>
</g>
<!-- Node0&#45;&gt;Node45 -->
<g id="edge57" class="edge">
<title>Node0&#45;&gt;Node45</title>
<path fill="none" stroke="#191970" d="M1196.8717,-278.0832C1256.2522,-268.6167 1367.8846,-250.8202 1438.302,-239.5943"/>
<polygon fill="#191970" stroke="#191970" points="1439.057,-243.0182 1448.3813,-237.9874 1437.955,-236.1055 1439.057,-243.0182"/>
</g>
<!-- Node2 -->
<g id="node3" class="node">
<title>Node2</title>
<g id="a_node3"><a xlink:href="src_2include_2common_8h.html" target="_top" xlink:title="common.h">
<polygon fill="#ffffff" stroke="#000000" points="907.2783,-55.5 907.2783,-73.5 969.9629,-73.5 969.9629,-55.5 907.2783,-55.5"/>
<text text-anchor="middle" x="938.6206" y="-61.5" font-family="Helvetica,sans-Serif" font-size="10.00" fill="#000000">common.h</text>
</a>
</g>
</g>
<!-- Node1&#45;&gt;Node2 -->
<g id="edge2" class="edge">
<title>Node1&#45;&gt;Node2</title>
<path fill="none" stroke="#191970" d="M797.8347,-165.3437C798.6436,-151.5864 802.1362,-125.5434 816.6206,-110 837.5728,-87.516 870.6788,-76.0806 897.1206,-70.2999"/>
<polygon fill="#191970" stroke="#191970" points="898.1292,-73.6679 907.2541,-68.2841 896.7634,-66.8024 898.1292,-73.6679"/>
</g>
<!-- Node25 -->
<g id="node26" class="node">
<title>Node25</title>
<g id="a_node26"><a xlink:href="src_2include_2context_8h.html" target="_top" xlink:title="context.h">
<polygon fill="#ffffff" stroke="#000000" points="979.3301,-110.5 979.3301,-128.5 1035.9111,-128.5 1035.9111,-110.5 979.3301,-110.5"/>
<text text-anchor="middle" x="1007.6206" y="-116.5" font-family="Helvetica,sans-Serif" font-size="10.00" fill="#000000">context.h</text>
</a>
</g>
</g>
<!-- Node1&#45;&gt;Node25 -->
<g id="edge27" class="edge">
<title>Node1&#45;&gt;Node25</title>
<path fill="none" stroke="#191970" d="M822.1213,-168.0832C858.3809,-158.5866 926.6486,-140.7069 969.4871,-129.4874"/>
<polygon fill="#191970" stroke="#191970" points="970.4831,-132.8446 979.2701,-126.9251 968.7096,-126.073 970.4831,-132.8446"/>
</g>
<!-- Node26 -->
<g id="node27" class="node">
<title>Node26</title>
<g id="a_node27"><a xlink:href="events_2include_2event__id_8h.html" target="_top" xlink:title="event_id.h">
<polygon fill="#ffffff" stroke="#000000" points="707.5469,-110.5 707.5469,-128.5 769.6943,-128.5 769.6943,-110.5 707.5469,-110.5"/>
<text text-anchor="middle" x="738.6206" y="-116.5" font-family="Helvetica,sans-Serif" font-size="10.00" fill="#000000">event_id.h</text>
</a>
</g>
</g>
<!-- Node1&#45;&gt;Node26 -->
<g id="edge29" class="edge">
<title>Node1&#45;&gt;Node26</title>
<path fill="none" stroke="#191970" d="M787.878,-165.4179C779.2189,-157.3458 766.3566,-145.3556 755.947,-135.6517"/>
<polygon fill="#191970" stroke="#191970" points="758.2762,-133.0381 748.5749,-128.7795 753.5031,-138.1584 758.2762,-133.0381"/>
</g>
<!-- Node27 -->
<g id="node28" class="node">
<title>Node27</title>
<g id="a_node28"><a xlink:href="events_2include_2event__list_8h.html" target="_top" xlink:title="event_list.h">
<polygon fill="#ffffff" stroke="#000000" points="145.3276,-55.5 145.3276,-73.5 211.9136,-73.5 211.9136,-55.5 145.3276,-55.5"/>
<text text-anchor="middle" x="178.6206" y="-61.5" font-family="Helvetica,sans-Serif" font-size="10.00" fill="#000000">event_list.h</text>
</a>
</g>
</g>
<!-- Node1&#45;&gt;Node27 -->
<g id="edge30" class="edge">
<title>Node1&#45;&gt;Node27</title>
<path fill="none" stroke="#191970" d="M772.9731,-170.12C679.023,-153.4245 342.6001,-93.6401 222.0149,-72.2114"/>
<polygon fill="#191970" stroke="#191970" points="222.4908,-68.7412 212.0327,-70.4375 221.266,-75.6333 222.4908,-68.7412"/>
</g>
<!-- Node3 -->
<g id="node4" class="node">
<title>Node3</title>
<polygon fill="#ffffff" stroke="#bfbfbf" points="1136.8892,-.5 1136.8892,-18.5 1182.3521,-18.5 1182.3521,-.5 1136.8892,-.5"/>
<text text-anchor="middle" x="1159.6206" y="-6.5" font-family="Helvetica,sans-Serif" font-size="10.00" fill="#000000">stdio.h</text>
</g>
<!-- Node2&#45;&gt;Node3 -->
<g id="edge3" class="edge">
<title>Node2&#45;&gt;Node3</title>
<path fill="none" stroke="#191970" d="M970.0402,-57.6067C1005.9234,-49.5962 1066.5913,-35.6355 1126.9614,-19.3489"/>
<polygon fill="#191970" stroke="#191970" points="1127.913,-22.7173 1136.644,-16.7156 1126.076,-15.9626 1127.913,-22.7173"/>
</g>
<!-- Node4 -->
<g id="node5" class="node">
<title>Node4</title>
<polygon fill="#ffffff" stroke="#bfbfbf" points="1200.1084,-.5 1200.1084,-18.5 1251.1328,-18.5 1251.1328,-.5 1200.1084,-.5"/>
<text text-anchor="middle" x="1225.6206" y="-6.5" font-family="Helvetica,sans-Serif" font-size="10.00" fill="#000000">unistd.h</text>
</g>
<!-- Node2&#45;&gt;Node4 -->
<g id="edge4" class="edge">
<title>Node2&#45;&gt;Node4</title>
<path fill="none" stroke="#191970" d="M969.9727,-59.8389C1016.1934,-52.7558 1105.5004,-38.2653 1190.287,-19.1497"/>
<polygon fill="#191970" stroke="#191970" points="1191.0958,-22.5552 1200.0671,-16.9191 1189.5392,-15.7305 1191.0958,-22.5552"/>
</g>
<!-- Node5 -->
<g id="node6" class="node">
<title>Node5</title>
<polygon fill="#ffffff" stroke="#bfbfbf" points="1268.7783,-.5 1268.7783,-18.5 1316.4629,-18.5 1316.4629,-.5 1268.7783,-.5"/>
<text text-anchor="middle" x="1292.6206" y="-6.5" font-family="Helvetica,sans-Serif" font-size="10.00" fill="#000000">stdlib.h</text>
</g>
<!-- Node2&#45;&gt;Node5 -->
<g id="edge5" class="edge">
<title>Node2&#45;&gt;Node5</title>
<path fill="none" stroke="#191970" d="M969.9775,-61.6286C1026.176,-56.1484 1147.8521,-42.7666 1258.6106,-19.2058"/>
<polygon fill="#191970" stroke="#191970" points="1259.5726,-22.5788 1268.6071,-17.0446 1258.0933,-15.7368 1259.5726,-22.5788"/>
</g>
<!-- Node6 -->
<g id="node7" class="node">
<title>Node6</title>
<polygon fill="#ffffff" stroke="#bfbfbf" points="1334.2241,-.5 1334.2241,-18.5 1383.0171,-18.5 1383.0171,-.5 1334.2241,-.5"/>
<text text-anchor="middle" x="1358.6206" y="-6.5" font-family="Helvetica,sans-Serif" font-size="10.00" fill="#000000">string.h</text>
</g>
<!-- Node2&#45;&gt;Node6 -->
<g id="edge6" class="edge">
<title>Node2&#45;&gt;Node6</title>
<path fill="none" stroke="#191970" d="M969.9944,-62.5549C1034.6739,-58.1732 1187.5806,-45.8965 1324.4002,-18.9689"/>
<polygon fill="#191970" stroke="#191970" points="1325.1026,-22.3979 1334.222,-17.0047 1323.7298,-15.5338 1325.1026,-22.3979"/>
</g>
<!-- Node7 -->
<g id="node8" class="node">
<title>Node7</title>
<polygon fill="#ffffff" stroke="#bfbfbf" points="1400.5542,-.5 1400.5542,-18.5 1452.687,-18.5 1452.687,-.5 1400.5542,-.5"/>
<text text-anchor="middle" x="1426.6206" y="-6.5" font-family="Helvetica,sans-Serif" font-size="10.00" fill="#000000">stdarg.h</text>
</g>
<!-- Node2&#45;&gt;Node7 -->
<g id="edge7" class="edge">
<title>Node2&#45;&gt;Node7</title>
<path fill="none" stroke="#191970" d="M970.1766,-63.1233C1042.7622,-59.5758 1227.2257,-48.3889 1390.1503,-18.9986"/>
<polygon fill="#191970" stroke="#191970" points="1391.1491,-22.3739 1400.3543,-17.1285 1389.8872,-15.4886 1391.1491,-22.3739"/>
</g>
<!-- Node8 -->
<g id="node9" class="node">
<title>Node8</title>
<polygon fill="#ffffff" stroke="#bfbfbf" points="1470.5,-.5 1470.5,-18.5 1518.7412,-18.5 1518.7412,-.5 1470.5,-.5"/>
<text text-anchor="middle" x="1494.6206" y="-6.5" font-family="Helvetica,sans-Serif" font-size="10.00" fill="#000000">stdint.h</text>
</g>
<!-- Node2&#45;&gt;Node8 -->
<g id="edge8" class="edge">
<title>Node2&#45;&gt;Node8</title>
<path fill="none" stroke="#191970" d="M970.1489,-63.8775C1050.5575,-61.8413 1269.8045,-53.4763 1460.3274,-18.9155"/>
<polygon fill="#191970" stroke="#191970" points="1461.0383,-22.3435 1470.2383,-17.0889 1459.7695,-15.4594 1461.0383,-22.3435"/>
</g>
<!-- Node9 -->
<g id="node10" class="node">
<title>Node9</title>
<polygon fill="#ffffff" stroke="#bfbfbf" points="61.4927,-.5 61.4927,-18.5 119.7485,-18.5 119.7485,-.5 61.4927,-.5"/>
<text text-anchor="middle" x="90.6206" y="-6.5" font-family="Helvetica,sans-Serif" font-size="10.00" fill="#000000">pthread.h</text>
</g>
<!-- Node2&#45;&gt;Node9 -->
<g id="edge9" class="edge">
<title>Node2&#45;&gt;Node9</title>
<path fill="none" stroke="#191970" d="M906.8555,-63.5183C779.1238,-59.4494 301.9919,-43.0529 129.885,-18.873"/>
<polygon fill="#191970" stroke="#191970" points="130.37,-15.4068 119.968,-17.4188 129.3543,-22.3327 130.37,-15.4068"/>
</g>
<!-- Node10 -->
<g id="node11" class="node">
<title>Node10</title>
<polygon fill="#ffffff" stroke="#bfbfbf" points="137.5,-.5 137.5,-18.5 185.7412,-18.5 185.7412,-.5 137.5,-.5"/>
<text text-anchor="middle" x="161.6206" y="-6.5" font-family="Helvetica,sans-Serif" font-size="10.00" fill="#000000">ctype.h</text>
</g>
<!-- Node2&#45;&gt;Node10 -->
<g id="edge10" class="edge">
<title>Node2&#45;&gt;Node10</title>
<path fill="none" stroke="#191970" d="M906.9422,-63.4882C786.1886,-59.4912 354.028,-43.8712 195.9967,-18.824"/>
<polygon fill="#191970" stroke="#191970" points="196.4287,-15.3479 185.9901,-17.1606 195.2807,-22.2531 196.4287,-15.3479"/>
</g>
<!-- Node11 -->
<g id="node12" class="node">
<title>Node11</title>
<polygon fill="#ffffff" stroke="#bfbfbf" points="203.7783,-.5 203.7783,-18.5 251.4629,-18.5 251.4629,-.5 203.7783,-.5"/>
<text text-anchor="middle" x="227.6206" y="-6.5" font-family="Helvetica,sans-Serif" font-size="10.00" fill="#000000">errno.h</text>
</g>
<!-- Node2&#45;&gt;Node11 -->
<g id="edge11" class="edge">
<title>Node2&#45;&gt;Node11</title>
<path fill="none" stroke="#191970" d="M906.959,-63.3107C793.2858,-58.8994 405.2979,-42.5861 261.5185,-18.9527"/>
<polygon fill="#191970" stroke="#191970" points="262.0454,-15.492 251.5956,-17.2385 260.8538,-22.3898 262.0454,-15.492"/>
</g>
<!-- Node12 -->
<g id="node13" class="node">
<title>Node12</title>
<polygon fill="#ffffff" stroke="#bfbfbf" points="268.9927,-.5 268.9927,-18.5 332.2485,-18.5 332.2485,-.5 268.9927,-.5"/>
<text text-anchor="middle" x="300.6206" y="-6.5" font-family="Helvetica,sans-Serif" font-size="10.00" fill="#000000">arpa/inet.h</text>
</g>
<!-- Node2&#45;&gt;Node12 -->
<g id="edge12" class="edge">
<title>Node2&#45;&gt;Node12</title>
<path fill="none" stroke="#191970" d="M907.0361,-63.7772C819.1096,-61.4091 563.9924,-52.1165 342.5007,-18.8924"/>
<polygon fill="#191970" stroke="#191970" points="342.7252,-15.3864 332.3127,-17.3435 341.673,-22.3068 342.7252,-15.3864"/>
</g>
<!-- Node13 -->
<g id="node14" class="node">
<title>Node13</title>
<polygon fill="#ffffff" stroke="#bfbfbf" points="350.1577,-.5 350.1577,-18.5 415.0835,-18.5 415.0835,-.5 350.1577,-.5"/>
<text text-anchor="middle" x="382.6206" y="-6.5" font-family="Helvetica,sans-Serif" font-size="10.00" fill="#000000">netinet/in.h</text>
</g>
<!-- Node2&#45;&gt;Node13 -->
<g id="edge13" class="edge">
<title>Node2&#45;&gt;Node13</title>
<path fill="none" stroke="#191970" d="M907.082,-63.2471C827.6872,-59.7678 613.0591,-48.3458 425.2671,-19.0729"/>
<polygon fill="#191970" stroke="#191970" points="425.6373,-15.588 415.2135,-17.4844 424.5447,-22.5022 425.6373,-15.588"/>
</g>
<!-- Node14 -->
<g id="node15" class="node">
<title>Node14</title>
<polygon fill="#ffffff" stroke="#bfbfbf" points="432.7637,-.5 432.7637,-18.5 510.4775,-18.5 510.4775,-.5 432.7637,-.5"/>
<text text-anchor="middle" x="471.6206" y="-6.5" font-family="Helvetica,sans-Serif" font-size="10.00" fill="#000000">net/ethernet.h</text>
</g>
<!-- Node2&#45;&gt;Node14 -->
<g id="edge14" class="edge">
<title>Node2&#45;&gt;Node14</title>
<path fill="none" stroke="#191970" d="M907.2247,-62.0332C838.8403,-56.4587 671.1487,-41.6962 520.5003,-19.0161"/>
<polygon fill="#191970" stroke="#191970" points="521.0159,-15.5543 510.6032,-17.5108 519.9632,-22.4747 521.0159,-15.5543"/>
</g>
<!-- Node15 -->
<g id="node16" class="node">
<title>Node15</title>
<polygon fill="#ffffff" stroke="#bfbfbf" points="528.1577,-.5 528.1577,-18.5 593.0835,-18.5 593.0835,-.5 528.1577,-.5"/>
<text text-anchor="middle" x="560.6206" y="-6.5" font-family="Helvetica,sans-Serif" font-size="10.00" fill="#000000">netinet/ip.h</text>
</g>
<!-- Node2&#45;&gt;Node15 -->
<g id="edge15" class="edge">
<title>Node2&#45;&gt;Node15</title>
<path fill="none" stroke="#191970" d="M906.9755,-61.1538C848.8672,-54.8072 721.0861,-39.9141 603.0521,-18.9319"/>
<polygon fill="#191970" stroke="#191970" points="603.5837,-15.4714 593.1223,-17.1479 602.3458,-22.3611 603.5837,-15.4714"/>
</g>
<!-- Node16 -->
<g id="node17" class="node">
<title>Node16</title>
<polygon fill="#ffffff" stroke="#bfbfbf" points="611.3794,-.5 611.3794,-18.5 681.8618,-18.5 681.8618,-.5 611.3794,-.5"/>
<text text-anchor="middle" x="646.6206" y="-6.5" font-family="Helvetica,sans-Serif" font-size="10.00" fill="#000000">netinet/tcp.h</text>
</g>
<!-- Node2&#45;&gt;Node16 -->
<g id="edge16" class="edge">
<title>Node2&#45;&gt;Node16</title>
<path fill="none" stroke="#191970" d="M907.2415,-59.0665C861.915,-51.1474 775.2466,-35.7431 692.0104,-19.2346"/>
<polygon fill="#191970" stroke="#191970" points="692.6335,-15.7901 682.1424,-17.2689 691.2659,-22.6552 692.6335,-15.7901"/>
</g>
<!-- Node17 -->
<g id="node18" class="node">
<title>Node17</title>
<polygon fill="#ffffff" stroke="#bfbfbf" points="699.8203,-.5 699.8203,-18.5 791.4209,-18.5 791.4209,-.5 699.8203,-.5"/>
<text text-anchor="middle" x="745.6206" y="-6.5" font-family="Helvetica,sans-Serif" font-size="10.00" fill="#000000">netinet/ip_icmp.h</text>
</g>
<!-- Node2&#45;&gt;Node17 -->
<g id="edge17" class="edge">
<title>Node2&#45;&gt;Node17</title>
<path fill="none" stroke="#191970" d="M907.1823,-55.5409C874.4746,-46.2201 823.1015,-31.58 787.0884,-21.3173"/>
<polygon fill="#191970" stroke="#191970" points="787.9428,-17.9215 777.3665,-18.5467 786.0243,-24.6534 787.9428,-17.9215"/>
</g>
<!-- Node18 -->
<g id="node19" class="node">
<title>Node18</title>
<polygon fill="#ffffff" stroke="#bfbfbf" points="809.2168,-.5 809.2168,-18.5 868.0244,-18.5 868.0244,-.5 809.2168,-.5"/>
<text text-anchor="middle" x="838.6206" y="-6.5" font-family="Helvetica,sans-Serif" font-size="10.00" fill="#000000">jansson.h</text>
</g>
<!-- Node2&#45;&gt;Node18 -->
<g id="edge18" class="edge">
<title>Node2&#45;&gt;Node18</title>
<path fill="none" stroke="#191970" d="M922.1076,-55.4179C906.3296,-46.7399 882.3178,-33.5334 864.0891,-23.5077"/>
<polygon fill="#191970" stroke="#191970" points="865.607,-20.3481 855.1581,-18.5956 862.2335,-26.4816 865.607,-20.3481"/>
</g>
<!-- Node19 -->
<g id="node20" class="node">
<title>Node19</title>
<polygon fill="#ffffff" stroke="#bfbfbf" points="885.7266,-.5 885.7266,-18.5 929.5146,-18.5 929.5146,-.5 885.7266,-.5"/>
<text text-anchor="middle" x="907.6206" y="-6.5" font-family="Helvetica,sans-Serif" font-size="10.00" fill="#000000">libcli.h</text>
</g>
<!-- Node2&#45;&gt;Node19 -->
<g id="edge19" class="edge">
<title>Node2&#45;&gt;Node19</title>
<path fill="none" stroke="#191970" d="M933.5016,-55.4179C929.2641,-47.8998 923.111,-36.9829 917.8674,-27.6799"/>
<polygon fill="#191970" stroke="#191970" points="920.8101,-25.7724 912.8508,-18.7795 914.712,-29.2096 920.8101,-25.7724"/>
</g>
<!-- Node20 -->
<g id="node21" class="node">
<title>Node20</title>
<polygon fill="#ffffff" stroke="#bfbfbf" points="948.0049,-.5 948.0049,-18.5 991.2363,-18.5 991.2363,-.5 948.0049,-.5"/>
<text text-anchor="middle" x="969.6206" y="-6.5" font-family="Helvetica,sans-Serif" font-size="10.00" fill="#000000">zmq.h</text>
</g>
<!-- Node2&#45;&gt;Node20 -->
<g id="edge20" class="edge">
<title>Node2&#45;&gt;Node20</title>
<path fill="none" stroke="#191970" d="M943.7396,-55.4179C947.9771,-47.8998 954.1303,-36.9829 959.3738,-27.6799"/>
<polygon fill="#191970" stroke="#191970" points="962.5292,-29.2096 964.3904,-18.7795 956.4311,-25.7724 962.5292,-29.2096"/>
</g>
<!-- Node21 -->
<g id="node22" class="node">
<title>Node21</title>
<g id="a_node22"><a xlink:href="mac2int_8h.html" target="_top" xlink:title="mac2int.h">
<polygon fill="#ffffff" stroke="#000000" points="1536.9434,-.5 1536.9434,-18.5 1596.2979,-18.5 1596.2979,-.5 1536.9434,-.5"/>
<text text-anchor="middle" x="1566.6206" y="-6.5" font-family="Helvetica,sans-Serif" font-size="10.00" fill="#000000">mac2int.h</text>
</a>
</g>
</g>
<!-- Node2&#45;&gt;Node21 -->
<g id="edge21" class="edge">
<title>Node2&#45;&gt;Node21</title>
<path fill="none" stroke="#191970" d="M970.3149,-62.5128C1075.4221,-56.2255 1410.8799,-36.1679 1518.6206,-19 1521.2401,-18.5826 1523.9427,-18.0793 1526.6755,-17.5249"/>
<polygon fill="#191970" stroke="#191970" points="1527.5859,-20.9087 1536.6086,-15.3553 1526.0921,-14.0699 1527.5859,-20.9087"/>
</g>
<!-- Node22 -->
<g id="node23" class="node">
<title>Node22</title>
<g id="a_node23"><a xlink:href="ip2int_8h.html" target="_top" xlink:title="ip2int.h">
<polygon fill="#ffffff" stroke="#000000" points="1009.4976,-.5 1009.4976,-18.5 1057.7437,-18.5 1057.7437,-.5 1009.4976,-.5"/>
<text text-anchor="middle" x="1033.6206" y="-6.5" font-family="Helvetica,sans-Serif" font-size="10.00" fill="#000000">ip2int.h</text>
</a>
</g>
</g>
<!-- Node2&#45;&gt;Node22 -->
<g id="edge23" class="edge">
<title>Node2&#45;&gt;Node22</title>
<path fill="none" stroke="#191970" d="M949.1416,-55.4179C962.394,-46.7001 985.0842,-33.4122 1003.7122,-23.3699"/>
<polygon fill="#191970" stroke="#191970" points="1005.5369,-26.3643 1012.7409,-18.5956 1002.2646,-20.1762 1005.5369,-26.3643"/>
</g>
<!-- Node23 -->
<g id="node24" class="node">
<title>Node23</title>
<g id="a_node24"><a xlink:href="src_2include_2type_8h.html" target="_top" xlink:title="type.h">
<polygon fill="#ffffff" stroke="#000000" points="0,-.5 0,-18.5 43.2412,-18.5 43.2412,-.5 0,-.5"/>
<text text-anchor="middle" x="21.6206" y="-6.5" font-family="Helvetica,sans-Serif" font-size="10.00" fill="#000000">type.h</text>
</a>
</g>
</g>
<!-- Node2&#45;&gt;Node23 -->
<g id="edge25" class="edge">
<title>Node2&#45;&gt;Node23</title>
<path fill="none" stroke="#191970" d="M907.1431,-63.9208C772.234,-61.2818 241.6017,-49.267 53.5029,-18.6351"/>
<polygon fill="#191970" stroke="#191970" points="53.9189,-15.1557 43.4729,-16.9254 52.7426,-22.0561 53.9189,-15.1557"/>
</g>
<!-- Node24 -->
<g id="node25" class="node">
<title>Node24</title>
<polygon fill="#ffffff" stroke="#bfbfbf" points="1076.0049,-.5 1076.0049,-18.5 1119.2363,-18.5 1119.2363,-.5 1076.0049,-.5"/>
<text text-anchor="middle" x="1097.6206" y="-6.5" font-family="Helvetica,sans-Serif" font-size="10.00" fill="#000000">time.h</text>
</g>
<!-- Node2&#45;&gt;Node24 -->
<g id="edge26" class="edge">
<title>Node2&#45;&gt;Node24</title>
<path fill="none" stroke="#191970" d="M964.8762,-55.4179C992.6495,-45.8108 1036.4678,-30.6535 1066.0919,-20.4062"/>
<polygon fill="#191970" stroke="#191970" points="1067.6224,-23.5803 1075.9288,-17.0035 1065.334,-16.9649 1067.6224,-23.5803"/>
</g>
<!-- Node21&#45;&gt;Node2 -->
<g id="edge22" class="edge">
<title>Node21&#45;&gt;Node2</title>
<path fill="none" stroke="#191970" d="M1539.5392,-18.5063C1538.5588,-18.6813 1537.5841,-18.8465 1536.6206,-19 1429.5785,-36.0566 1097.7625,-55.9656 980.2565,-62.3888"/>
<polygon fill="#191970" stroke="#191970" points="980.0107,-58.8969 970.2148,-62.9331 980.3896,-65.8866 980.0107,-58.8969"/>
</g>
<!-- Node22&#45;&gt;Node2 -->
<g id="edge24" class="edge">
<title>Node22&#45;&gt;Node2</title>
<path fill="none" stroke="#191970" d="M1023.0791,-18.5956C1009.817,-27.3181 987.124,-40.6067 968.5002,-50.6456"/>
<polygon fill="#191970" stroke="#191970" points="966.6787,-47.6495 959.4742,-55.4179 969.9506,-53.8378 966.6787,-47.6495"/>
</g>
<!-- Node25&#45;&gt;Node2 -->
<g id="edge28" class="edge">
<title>Node25&#45;&gt;Node2</title>
<path fill="none" stroke="#191970" d="M996.2267,-110.4179C985.9014,-102.1876 970.4659,-89.8839 958.1709,-80.0836"/>
<polygon fill="#191970" stroke="#191970" points="960.2635,-77.2757 950.2621,-73.7795 955.9003,-82.7495 960.2635,-77.2757"/>
</g>
<!-- Node27&#45;&gt;Node23 -->
<g id="edge31" class="edge">
<title>Node27&#45;&gt;Node23</title>
<path fill="none" stroke="#191970" d="M152.6952,-55.4179C125.4272,-45.8654 82.4953,-30.8255 53.2527,-20.5813"/>
<polygon fill="#191970" stroke="#191970" points="54.1231,-17.1777 43.5282,-17.1746 51.8087,-23.7841 54.1231,-17.1777"/>
</g>
<!-- Node28&#45;&gt;Node2 -->
<g id="edge33" class="edge">
<title>Node28&#45;&gt;Node2</title>
<path fill="none" stroke="#191970" d="M928.8545,-165.2692C917.2,-153.0821 900.0586,-130.7371 906.6206,-110 909.9156,-99.5871 916.5446,-89.4946 922.9187,-81.4715"/>
<polygon fill="#191970" stroke="#191970" points="925.7502,-83.5448 929.5654,-73.6607 920.4191,-79.0082 925.7502,-83.5448"/>
</g>
<!-- Node28&#45;&gt;Node25 -->
<g id="edge34" class="edge">
<title>Node28&#45;&gt;Node25</title>
<path fill="none" stroke="#191970" d="M950.0146,-165.4179C960.3398,-157.1876 975.7753,-144.8839 988.0703,-135.0836"/>
<polygon fill="#191970" stroke="#191970" points="990.341,-137.7495 995.9791,-128.7795 985.9777,-132.2757 990.341,-137.7495"/>
</g>
<!-- Node29 -->
<g id="node30" class="node">
<title>Node29</title>
<g id="a_node30"><a xlink:href="hash_8h.html" target="_top" xlink:title="hash.h">
<polygon fill="#ffffff" stroke="#000000" points="915.6084,-110.5 915.6084,-128.5 961.6328,-128.5 961.6328,-110.5 915.6084,-110.5"/>
<text text-anchor="middle" x="938.6206" y="-116.5" font-family="Helvetica,sans-Serif" font-size="10.00" fill="#000000">hash.h</text>
</a>
</g>
</g>
<!-- Node28&#45;&gt;Node29 -->
<g id="edge35" class="edge">
<title>Node28&#45;&gt;Node29</title>
<path fill="none" stroke="#191970" d="M938.6206,-165.4179C938.6206,-158.2164 938.6206,-147.8962 938.6206,-138.8632"/>
<polygon fill="#191970" stroke="#191970" points="942.1207,-138.7794 938.6206,-128.7795 935.1207,-138.7795 942.1207,-138.7794"/>
</g>
<!-- Node30 -->
<g id="node31" class="node">
<title>Node30</title>
<g id="a_node31"><a xlink:href="str_8h.html" target="_top" xlink:title="str.h">
<polygon fill="#ffffff" stroke="#000000" points="825.1699,-110.5 825.1699,-128.5 860.0713,-128.5 860.0713,-110.5 825.1699,-110.5"/>
<text text-anchor="middle" x="842.6206" y="-116.5" font-family="Helvetica,sans-Serif" font-size="10.00" fill="#000000">str.h</text>
</a>
</g>
</g>
<!-- Node28&#45;&gt;Node30 -->
<g id="edge37" class="edge">
<title>Node28&#45;&gt;Node30</title>
<path fill="none" stroke="#191970" d="M922.7682,-165.4179C907.7602,-156.8195 884.9922,-143.7754 867.5534,-133.7844"/>
<polygon fill="#191970" stroke="#191970" points="868.9134,-130.5299 858.4966,-128.5956 865.4336,-136.6037 868.9134,-130.5299"/>
</g>
<!-- Node29&#45;&gt;Node2 -->
<g id="edge36" class="edge">
<title>Node29&#45;&gt;Node2</title>
<path fill="none" stroke="#191970" d="M938.6206,-110.4179C938.6206,-103.2164 938.6206,-92.8962 938.6206,-83.8632"/>
<polygon fill="#191970" stroke="#191970" points="942.1207,-83.7794 938.6206,-73.7795 935.1207,-83.7795 942.1207,-83.7794"/>
</g>
<!-- Node30&#45;&gt;Node2 -->
<g id="edge38" class="edge">
<title>Node30&#45;&gt;Node2</title>
<path fill="none" stroke="#191970" d="M858.4731,-110.4179C873.4811,-101.8195 896.249,-88.7754 913.6878,-78.7844"/>
<polygon fill="#191970" stroke="#191970" points="915.8076,-81.6037 922.7446,-73.5956 912.3278,-75.5299 915.8076,-81.6037"/>
</g>
<!-- Node31&#45;&gt;Node2 -->
<g id="edge40" class="edge">
<title>Node31&#45;&gt;Node2</title>
<path fill="none" stroke="#191970" d="M1033.4825,-165.4413C1042.5586,-152.2627 1056.1354,-127.4735 1044.6206,-110 1030.3179,-88.2959 1003.2706,-76.904 980.0784,-70.9468"/>
<polygon fill="#191970" stroke="#191970" points="980.6202,-67.4799 970.0894,-68.6433 979.0472,-74.3009 980.6202,-67.4799"/>
</g>
<!-- Node31&#45;&gt;Node25 -->
<g id="edge41" class="edge">
<title>Node31&#45;&gt;Node25</title>
<path fill="none" stroke="#191970" d="M1023.4831,-165.4179C1020.9407,-158.0581 1017.273,-147.441 1014.1046,-138.2695"/>
<polygon fill="#191970" stroke="#191970" points="1017.3997,-137.0885 1010.8262,-128.7795 1010.7833,-139.3742 1017.3997,-137.0885"/>
</g>
<!-- Node33 -->
<g id="node34" class="node">
<title>Node33</title>
<g id="a_node34"><a xlink:href="events_2include_2event__json_8h.html" target="_top" xlink:title="event_json.h">
<polygon fill="#ffffff" stroke="#000000" points="1084.2661,-165.5 1084.2661,-183.5 1156.9751,-183.5 1156.9751,-165.5 1084.2661,-165.5"/>
<text text-anchor="middle" x="1120.6206" y="-171.5" font-family="Helvetica,sans-Serif" font-size="10.00" fill="#000000">event_json.h</text>
</a>
</g>
</g>
<!-- Node32&#45;&gt;Node33 -->
<g id="edge43" class="edge">
<title>Node32&#45;&gt;Node33</title>
<path fill="none" stroke="#191970" d="M1107.2627,-220.4179C1109.3807,-213.1372 1112.426,-202.669 1115.0742,-193.5659"/>
<polygon fill="#191970" stroke="#191970" points="1118.4884,-194.3591 1117.9211,-183.7795 1111.7671,-192.4037 1118.4884,-194.3591"/>
</g>
<!-- Node35 -->
<g id="node36" class="node">
<title>Node35</title>
<g id="a_node36"><a xlink:href="events_2include_2event__epoll__env_8h.html" target="_top" xlink:title="event_epoll_env.h">
<polygon fill="#ffffff" stroke="#000000" points="1310.4009,-165.5 1310.4009,-183.5 1406.8403,-183.5 1406.8403,-165.5 1310.4009,-165.5"/>
<text text-anchor="middle" x="1358.6206" y="-171.5" font-family="Helvetica,sans-Serif" font-size="10.00" fill="#000000">event_epoll_env.h</text>
</a>
</g>
</g>
<!-- Node32&#45;&gt;Node35 -->
<g id="edge47" class="edge">
<title>Node32&#45;&gt;Node35</title>
<path fill="none" stroke="#191970" d="M1146.2791,-220.4795C1190.2042,-210.9681 1259.4793,-195.9676 1306.8777,-185.7042"/>
<polygon fill="#191970" stroke="#191970" points="1307.9066,-189.0626 1316.9393,-183.5255 1306.4251,-182.2211 1307.9066,-189.0626"/>
</g>
<!-- Node33&#45;&gt;Node21 -->
<g id="edge46" class="edge">
<title>Node33&#45;&gt;Node21</title>
<path fill="none" stroke="#191970" d="M1129.0137,-165.1246C1142.0944,-151.081 1168.7489,-124.6693 1196.6206,-110 1226.2555,-94.4028 1437.9463,-41.2219 1527.1476,-19.1858"/>
<polygon fill="#191970" stroke="#191970" points="1528.027,-22.5739 1536.8977,-16.7807 1526.3505,-15.7776 1528.027,-22.5739"/>
</g>
<!-- Node34 -->
<g id="node35" class="node">
<title>Node34</title>
<g id="a_node35"><a xlink:href="base64_8h.html" target="_top" xlink:title="base64.h">
<polygon fill="#ffffff" stroke="#000000" points="1092.0469,-110.5 1092.0469,-128.5 1149.1943,-128.5 1149.1943,-110.5 1092.0469,-110.5"/>
<text text-anchor="middle" x="1120.6206" y="-116.5" font-family="Helvetica,sans-Serif" font-size="10.00" fill="#000000">base64.h</text>
</a>
</g>
</g>
<!-- Node33&#45;&gt;Node34 -->
<g id="edge44" class="edge">
<title>Node33&#45;&gt;Node34</title>
<path fill="none" stroke="#191970" d="M1120.6206,-165.4179C1120.6206,-158.2164 1120.6206,-147.8962 1120.6206,-138.8632"/>
<polygon fill="#191970" stroke="#191970" points="1124.1207,-138.7794 1120.6206,-128.7795 1117.1207,-138.7795 1124.1207,-138.7794"/>
</g>
<!-- Node34&#45;&gt;Node2 -->
<g id="edge45" class="edge">
<title>Node34&#45;&gt;Node2</title>
<path fill="none" stroke="#191970" d="M1091.7822,-110.7851C1061.1298,-101.522 1012.4529,-86.812 978.2187,-76.4664"/>
<polygon fill="#191970" stroke="#191970" points="979.119,-73.0823 968.534,-73.5398 977.094,-79.783 979.119,-73.0823"/>
</g>
<!-- Node36 -->
<g id="node37" class="node">
<title>Node36</title>
<polygon fill="#ffffff" stroke="#bfbfbf" points="1205.2808,-110.5 1205.2808,-128.5 1247.9604,-128.5 1247.9604,-110.5 1205.2808,-110.5"/>
<text text-anchor="middle" x="1226.6206" y="-116.5" font-family="Helvetica,sans-Serif" font-size="10.00" fill="#000000">fcntl.h</text>
</g>
<!-- Node35&#45;&gt;Node36 -->
<g id="edge48" class="edge">
<title>Node35&#45;&gt;Node36</title>
<path fill="none" stroke="#191970" d="M1336.8235,-165.4179C1315.1989,-156.4076 1281.8577,-142.5154 1257.5097,-132.3704"/>
<polygon fill="#191970" stroke="#191970" points="1258.5891,-129.0286 1248.0121,-128.4131 1255.8967,-135.4901 1258.5891,-129.0286"/>
</g>
<!-- Node37 -->
<g id="node38" class="node">
<title>Node37</title>
<polygon fill="#ffffff" stroke="#bfbfbf" points="1265.9385,-110.5 1265.9385,-128.5 1315.3027,-128.5 1315.3027,-110.5 1265.9385,-110.5"/>
<text text-anchor="middle" x="1290.6206" y="-116.5" font-family="Helvetica,sans-Serif" font-size="10.00" fill="#000000">netdb.h</text>
</g>
<!-- Node35&#45;&gt;Node37 -->
<g id="edge49" class="edge">
<title>Node35&#45;&gt;Node37</title>
<path fill="none" stroke="#191970" d="M1347.3918,-165.4179C1337.2162,-157.1876 1322.0043,-144.8839 1309.8875,-135.0836"/>
<polygon fill="#191970" stroke="#191970" points="1312.0696,-132.3469 1302.0934,-128.7795 1307.6675,-137.7895 1312.0696,-132.3469"/>
</g>
<!-- Node38 -->
<g id="node39" class="node">
<title>Node38</title>
<polygon fill="#ffffff" stroke="#bfbfbf" points="1333.3867,-110.5 1333.3867,-128.5 1383.8545,-128.5 1383.8545,-110.5 1333.3867,-110.5"/>
<text text-anchor="middle" x="1358.6206" y="-116.5" font-family="Helvetica,sans-Serif" font-size="10.00" fill="#000000">signal.h</text>
</g>
<!-- Node35&#45;&gt;Node38 -->
<g id="edge50" class="edge">
<title>Node35&#45;&gt;Node38</title>
<path fill="none" stroke="#191970" d="M1358.6206,-165.4179C1358.6206,-158.2164 1358.6206,-147.8962 1358.6206,-138.8632"/>
<polygon fill="#191970" stroke="#191970" points="1362.1207,-138.7794 1358.6206,-128.7795 1355.1207,-138.7795 1362.1207,-138.7794"/>
</g>
<!-- Node39 -->
<g id="node40" class="node">
<title>Node39</title>
<polygon fill="#ffffff" stroke="#bfbfbf" points="1402,-110.5 1402,-128.5 1455.2412,-128.5 1455.2412,-110.5 1402,-110.5"/>
<text text-anchor="middle" x="1428.6206" y="-116.5" font-family="Helvetica,sans-Serif" font-size="10.00" fill="#000000">sys/un.h</text>
</g>
<!-- Node35&#45;&gt;Node39 -->
<g id="edge51" class="edge">
<title>Node35&#45;&gt;Node39</title>
<path fill="none" stroke="#191970" d="M1370.1797,-165.4179C1380.6546,-157.1876 1396.3138,-144.8839 1408.787,-135.0836"/>
<polygon fill="#191970" stroke="#191970" points="1411.1096,-137.7098 1416.8104,-128.7795 1406.7848,-132.2056 1411.1096,-137.7098"/>
</g>
<!-- Node40 -->
<g id="node41" class="node">
<title>Node40</title>
<polygon fill="#ffffff" stroke="#bfbfbf" points="1472.9976,-110.5 1472.9976,-128.5 1536.2437,-128.5 1536.2437,-110.5 1472.9976,-110.5"/>
<text text-anchor="middle" x="1504.6206" y="-116.5" font-family="Helvetica,sans-Serif" font-size="10.00" fill="#000000">sys/epoll.h</text>
</g>
<!-- Node35&#45;&gt;Node40 -->
<g id="edge52" class="edge">
<title>Node35&#45;&gt;Node40</title>
<path fill="none" stroke="#191970" d="M1382.7295,-165.4179C1406.8222,-156.3419 1444.0643,-142.3123 1471.0437,-132.1488"/>
<polygon fill="#191970" stroke="#191970" points="1472.3517,-135.3963 1480.4759,-128.5956 1469.884,-128.8457 1472.3517,-135.3963"/>
</g>
<!-- Node41 -->
<g id="node42" class="node">
<title>Node41</title>
<polygon fill="#ffffff" stroke="#bfbfbf" points="1554.1108,-110.5 1554.1108,-128.5 1625.1304,-128.5 1625.1304,-110.5 1554.1108,-110.5"/>
<text text-anchor="middle" x="1589.6206" y="-116.5" font-family="Helvetica,sans-Serif" font-size="10.00" fill="#000000">sys/socket.h</text>
</g>
<!-- Node35&#45;&gt;Node41 -->
<g id="edge53" class="edge">
<title>Node35&#45;&gt;Node41</title>
<path fill="none" stroke="#191970" d="M1396.5069,-165.4795C1436.9142,-155.8587 1500.9098,-140.6216 1544.0434,-130.3517"/>
<polygon fill="#191970" stroke="#191970" points="1545.0748,-133.7041 1553.9922,-127.983 1543.4534,-126.8944 1545.0748,-133.7041"/>
</g>
</g>
</svg>
