<?xml version="1.0" encoding="UTF-8" standalone="no"?>
<!DOCTYPE svg PUBLIC "-//W3C//DTD SVG 1.1//EN"
 "http://www.w3.org/Graphics/SVG/1.1/DTD/svg11.dtd">
<!-- Generated by graphviz version 2.40.1 (20161225.0304)
 -->
<!-- Title: ext_comps/topo_mgmt/src/include/component_list.h Pages: 1 -->
<svg width="300pt" height="167pt"
 viewBox="0.00 0.00 299.76 167.00" xmlns="http://www.w3.org/2000/svg" xmlns:xlink="http://www.w3.org/1999/xlink">
<g id="graph0" class="graph" transform="scale(1 1) rotate(0) translate(4 163)">
<title>ext_comps/topo_mgmt/src/include/component_list.h</title>
<polygon fill="#ffffff" stroke="transparent" points="-4,4 -4,-163 295.7559,-163 295.7559,4 -4,4"/>
<!-- Node1 -->
<g id="node1" class="node">
<title>Node1</title>
<polygon fill="#bfbfbf" stroke="#000000" points="125.6577,-120.5 125.6577,-158.5 244.4897,-158.5 244.4897,-120.5 125.6577,-120.5"/>
<text text-anchor="start" x="133.6577" y="-146.5" font-family="Helvetica,sans-Serif" font-size="10.00" fill="#000000">ext_comps/topo_mgmt</text>
<text text-anchor="start" x="133.6577" y="-136.5" font-family="Helvetica,sans-Serif" font-size="10.00" fill="#000000">/src/include/component</text>
<text text-anchor="middle" x="185.0737" y="-126.5" font-family="Helvetica,sans-Serif" font-size="10.00" fill="#000000">_list.h</text>
</g>
<!-- Node2 -->
<g id="node2" class="node">
<title>Node2</title>
<g id="a_node2"><a xlink:href="ext__comps_2shim_2include_2shim_8h.html" target="_top" xlink:title="ext_comps/shim/include\l/shim.h">
<polygon fill="#ffffff" stroke="#000000" points="61.7168,-55.5 61.7168,-83.5 184.4307,-83.5 184.4307,-55.5 61.7168,-55.5"/>
<text text-anchor="start" x="69.7168" y="-71.5" font-family="Helvetica,sans-Serif" font-size="10.00" fill="#000000">ext_comps/shim/include</text>
<text text-anchor="middle" x="123.0737" y="-61.5" font-family="Helvetica,sans-Serif" font-size="10.00" fill="#000000">/shim.h</text>
</a>
</g>
</g>
<!-- Node1&#45;&gt;Node2 -->
<g id="edge1" class="edge">
<title>Node1&#45;&gt;Node2</title>
<path fill="none" stroke="#191970" d="M161.4018,-112.7737C152.7226,-102.9746 143.2305,-92.2576 135.8638,-83.9404"/>
<polygon fill="#191970" stroke="#191970" points="158.8815,-115.2069 168.132,-120.3722 164.1216,-110.5657 158.8815,-115.2069"/>
</g>
<!-- Node5 -->
<g id="node5" class="node">
<title>Node5</title>
<g id="a_node5"><a xlink:href="component_8c.html" target="_top" xlink:title="src/component.c">
<polygon fill="#ffffff" stroke="#000000" points="202.3916,-60.5 202.3916,-78.5 291.7559,-78.5 291.7559,-60.5 202.3916,-60.5"/>
<text text-anchor="middle" x="247.0737" y="-66.5" font-family="Helvetica,sans-Serif" font-size="10.00" fill="#000000">src/component.c</text>
</a>
</g>
</g>
<!-- Node1&#45;&gt;Node5 -->
<g id="edge4" class="edge">
<title>Node1&#45;&gt;Node5</title>
<path fill="none" stroke="#191970" d="M208.8001,-112.7122C219.4793,-100.655 231.379,-87.2199 239.0319,-78.5795"/>
<polygon fill="#191970" stroke="#191970" points="206.0258,-110.5657 202.0155,-120.3722 211.266,-115.2069 206.0258,-110.5657"/>
</g>
<!-- Node3 -->
<g id="node3" class="node">
<title>Node3</title>
<g id="a_node3"><a xlink:href="ext__apps_2shim_2shim_8c.html" target="_top" xlink:title="ext_apps/shim/shim.c">
<polygon fill="#ffffff" stroke="#000000" points="0,-.5 0,-18.5 112.1475,-18.5 112.1475,-.5 0,-.5"/>
<text text-anchor="middle" x="56.0737" y="-6.5" font-family="Helvetica,sans-Serif" font-size="10.00" fill="#000000">ext_apps/shim/shim.c</text>
</a>
</g>
</g>
<!-- Node2&#45;&gt;Node3 -->
<g id="edge2" class="edge">
<title>Node2&#45;&gt;Node3</title>
<path fill="none" stroke="#191970" d="M99.6327,-48.508C88.2039,-38.2733 75.0534,-26.4967 66.2177,-18.5842"/>
<polygon fill="#191970" stroke="#191970" points="97.4112,-51.2169 107.1957,-55.2808 102.0811,-46.0023 97.4112,-51.2169"/>
</g>
<!-- Node4 -->
<g id="node4" class="node">
<title>Node4</title>
<g id="a_node4"><a xlink:href="ext__comps_2shim_2shim_8c.html" target="_top" xlink:title="ext_comps/shim/shim.c">
<polygon fill="#ffffff" stroke="#000000" points="130.1157,-.5 130.1157,-18.5 250.0317,-18.5 250.0317,-.5 130.1157,-.5"/>
<text text-anchor="middle" x="190.0737" y="-6.5" font-family="Helvetica,sans-Serif" font-size="10.00" fill="#000000">ext_comps/shim/shim.c</text>
</a>
</g>
</g>
<!-- Node2&#45;&gt;Node4 -->
<g id="edge3" class="edge">
<title>Node2&#45;&gt;Node4</title>
<path fill="none" stroke="#191970" d="M146.5148,-48.508C157.9436,-38.2733 171.094,-26.4967 179.9297,-18.5842"/>
<polygon fill="#191970" stroke="#191970" points="144.0664,-46.0023 138.9518,-55.2808 148.7363,-51.2169 144.0664,-46.0023"/>
</g>
</g>
</svg>
