<?xml version="1.0" encoding="UTF-8" standalone="no"?>
<!DOCTYPE svg PUBLIC "-//W3C//DTD SVG 1.1//EN"
 "http://www.w3.org/Graphics/SVG/1.1/DTD/svg11.dtd">
<!-- Generated by graphviz version 2.40.1 (20161225.0304)
 -->
<!-- Title: ext_comps/shim/include/common.h Pages: 1 -->
<svg width="1459pt" height="92pt"
 viewBox="0.00 0.00 1459.35 92.00" xmlns="http://www.w3.org/2000/svg" xmlns:xlink="http://www.w3.org/1999/xlink">
<g id="graph0" class="graph" transform="scale(1 1) rotate(0) translate(4 88)">
<title>ext_comps/shim/include/common.h</title>
<polygon fill="#ffffff" stroke="transparent" points="-4,4 -4,-88 1455.3472,-88 1455.3472,4 -4,4"/>
<!-- Node0 -->
<g id="node1" class="node">
<title>Node0</title>
<polygon fill="#bfbfbf" stroke="#000000" points="618.3745,-55.5 618.3745,-83.5 741.0884,-83.5 741.0884,-55.5 618.3745,-55.5"/>
<text text-anchor="start" x="626.3745" y="-71.5" font-family="Helvetica,sans-Serif" font-size="10.00" fill="#000000">ext_comps/shim/include</text>
<text text-anchor="middle" x="679.7314" y="-61.5" font-family="Helvetica,sans-Serif" font-size="10.00" fill="#000000">/common.h</text>
</g>
<!-- Node1 -->
<g id="node2" class="node">
<title>Node1</title>
<polygon fill="#ffffff" stroke="#bfbfbf" points="0,-.5 0,-18.5 45.4629,-18.5 45.4629,-.5 0,-.5"/>
<text text-anchor="middle" x="22.7314" y="-6.5" font-family="Helvetica,sans-Serif" font-size="10.00" fill="#000000">stdio.h</text>
</g>
<!-- Node0&#45;&gt;Node1 -->
<g id="edge1" class="edge">
<title>Node0&#45;&gt;Node1</title>
<path fill="none" stroke="#191970" d="M618.3453,-66.2473C486.3749,-58.9858 178.2863,-40.5243 55.521,-18.9454"/>
<polygon fill="#191970" stroke="#191970" points="56.0838,-15.4903 45.6148,-17.1183 54.814,-22.3742 56.0838,-15.4903"/>
</g>
<!-- Node2 -->
<g id="node3" class="node">
<title>Node2</title>
<polygon fill="#ffffff" stroke="#bfbfbf" points="63.2192,-.5 63.2192,-18.5 114.2437,-18.5 114.2437,-.5 63.2192,-.5"/>
<text text-anchor="middle" x="88.7314" y="-6.5" font-family="Helvetica,sans-Serif" font-size="10.00" fill="#000000">unistd.h</text>
</g>
<!-- Node0&#45;&gt;Node2 -->
<g id="edge2" class="edge">
<title>Node0&#45;&gt;Node2</title>
<path fill="none" stroke="#191970" d="M618.2462,-67.58C516.8756,-63.6154 308.3434,-52.0914 124.4529,-19.0479"/>
<polygon fill="#191970" stroke="#191970" points="125.072,-15.6031 114.6065,-17.2534 123.8169,-22.4897 125.072,-15.6031"/>
</g>
<!-- Node3 -->
<g id="node4" class="node">
<title>Node3</title>
<polygon fill="#ffffff" stroke="#bfbfbf" points="131.8892,-.5 131.8892,-18.5 179.5737,-18.5 179.5737,-.5 131.8892,-.5"/>
<text text-anchor="middle" x="155.7314" y="-6.5" font-family="Helvetica,sans-Serif" font-size="10.00" fill="#000000">stdlib.h</text>
</g>
<!-- Node0&#45;&gt;Node3 -->
<g id="edge3" class="edge">
<title>Node0&#45;&gt;Node3</title>
<path fill="none" stroke="#191970" d="M618.3662,-66.6967C526.8293,-61.7442 349.1135,-49.1579 189.7467,-18.8781"/>
<polygon fill="#191970" stroke="#191970" points="190.2436,-15.4095 179.7617,-16.9528 188.9182,-22.2829 190.2436,-15.4095"/>
</g>
<!-- Node4 -->
<g id="node5" class="node">
<title>Node4</title>
<polygon fill="#ffffff" stroke="#bfbfbf" points="197.335,-.5 197.335,-18.5 246.1279,-18.5 246.1279,-.5 197.335,-.5"/>
<text text-anchor="middle" x="221.7314" y="-6.5" font-family="Helvetica,sans-Serif" font-size="10.00" fill="#000000">string.h</text>
</g>
<!-- Node0&#45;&gt;Node4 -->
<g id="edge4" class="edge">
<title>Node0&#45;&gt;Node4</title>
<path fill="none" stroke="#191970" d="M618.3602,-65.3451C537.3208,-59.1643 390.1434,-45.539 256.1633,-19.0168"/>
<polygon fill="#191970" stroke="#191970" points="256.6242,-15.5395 246.1307,-17.0013 255.2455,-22.4024 256.6242,-15.5395"/>
</g>
<!-- Node5 -->
<g id="node6" class="node">
<title>Node5</title>
<polygon fill="#ffffff" stroke="#bfbfbf" points="263.665,-.5 263.665,-18.5 315.7979,-18.5 315.7979,-.5 263.665,-.5"/>
<text text-anchor="middle" x="289.7314" y="-6.5" font-family="Helvetica,sans-Serif" font-size="10.00" fill="#000000">stdarg.h</text>
</g>
<!-- Node0&#45;&gt;Node5 -->
<g id="edge5" class="edge">
<title>Node0&#45;&gt;Node5</title>
<path fill="none" stroke="#191970" d="M618.0839,-63.0749C549.114,-55.3621 433.943,-40.9171 326.098,-19.0773"/>
<polygon fill="#191970" stroke="#191970" points="326.5202,-15.5911 316.0208,-17.0103 325.1135,-22.4483 326.5202,-15.5911"/>
</g>
<!-- Node6 -->
<g id="node7" class="node">
<title>Node6</title>
<polygon fill="#ffffff" stroke="#bfbfbf" points="333.6108,-.5 333.6108,-18.5 381.8521,-18.5 381.8521,-.5 333.6108,-.5"/>
<text text-anchor="middle" x="357.7314" y="-6.5" font-family="Helvetica,sans-Serif" font-size="10.00" fill="#000000">stdint.h</text>
</g>
<!-- Node0&#45;&gt;Node6 -->
<g id="edge6" class="edge">
<title>Node0&#45;&gt;Node6</title>
<path fill="none" stroke="#191970" d="M618.1773,-60.7039C561.6439,-52.1818 475.4041,-38.0672 392.049,-19.1227"/>
<polygon fill="#191970" stroke="#191970" points="392.6935,-15.6796 382.1635,-16.8497 391.1249,-22.5016 392.6935,-15.6796"/>
</g>
<!-- Node7 -->
<g id="node8" class="node">
<title>Node7</title>
<polygon fill="#ffffff" stroke="#bfbfbf" points="399.6035,-.5 399.6035,-18.5 457.8594,-18.5 457.8594,-.5 399.6035,-.5"/>
<text text-anchor="middle" x="428.7314" y="-6.5" font-family="Helvetica,sans-Serif" font-size="10.00" fill="#000000">pthread.h</text>
</g>
<!-- Node0&#45;&gt;Node7 -->
<g id="edge7" class="edge">
<title>Node0&#45;&gt;Node7</title>
<path fill="none" stroke="#191970" d="M619.5482,-55.4375C579.1966,-45.9612 524.6058,-33.05 468.0196,-19.2952"/>
<polygon fill="#191970" stroke="#191970" points="468.7253,-15.8648 458.1811,-16.9 467.0694,-22.6662 468.7253,-15.8648"/>
</g>
<!-- Node8 -->
<g id="node9" class="node">
<title>Node8</title>
<polygon fill="#ffffff" stroke="#bfbfbf" points="475.6108,-.5 475.6108,-18.5 523.8521,-18.5 523.8521,-.5 475.6108,-.5"/>
<text text-anchor="middle" x="499.7314" y="-6.5" font-family="Helvetica,sans-Serif" font-size="10.00" fill="#000000">ctype.h</text>
</g>
<!-- Node0&#45;&gt;Node8 -->
<g id="edge8" class="edge">
<title>Node0&#45;&gt;Node8</title>
<path fill="none" stroke="#191970" d="M637.5294,-55.4327C605.9258,-44.8981 563.2447,-30.6711 533.7986,-20.8557"/>
<polygon fill="#191970" stroke="#191970" points="534.5686,-17.4231 523.9749,-17.5812 532.3549,-24.0639 534.5686,-17.4231"/>
</g>
<!-- Node9 -->
<g id="node10" class="node">
<title>Node9</title>
<polygon fill="#ffffff" stroke="#bfbfbf" points="541.8892,-.5 541.8892,-18.5 589.5737,-18.5 589.5737,-.5 541.8892,-.5"/>
<text text-anchor="middle" x="565.7314" y="-6.5" font-family="Helvetica,sans-Serif" font-size="10.00" fill="#000000">errno.h</text>
</g>
<!-- Node0&#45;&gt;Node9 -->
<g id="edge9" class="edge">
<title>Node0&#45;&gt;Node9</title>
<path fill="none" stroke="#191970" d="M653.0035,-55.4327C634.6218,-45.7581 610.3231,-32.9693 592.0337,-23.3433"/>
<polygon fill="#191970" stroke="#191970" points="593.5598,-20.1914 583.0805,-18.6311 590.2995,-26.3858 593.5598,-20.1914"/>
</g>
<!-- Node10 -->
<g id="node11" class="node">
<title>Node10</title>
<polygon fill="#ffffff" stroke="#bfbfbf" points="607.1035,-.5 607.1035,-18.5 670.3594,-18.5 670.3594,-.5 607.1035,-.5"/>
<text text-anchor="middle" x="638.7314" y="-6.5" font-family="Helvetica,sans-Serif" font-size="10.00" fill="#000000">arpa/inet.h</text>
</g>
<!-- Node0&#45;&gt;Node10 -->
<g id="edge10" class="edge">
<title>Node0&#45;&gt;Node10</title>
<path fill="none" stroke="#191970" d="M670.015,-55.2808C664.2504,-46.8448 656.8953,-36.0813 650.7655,-27.1107"/>
<polygon fill="#191970" stroke="#191970" points="653.4707,-24.866 644.939,-18.5842 647.6912,-28.8153 653.4707,-24.866"/>
</g>
<!-- Node11 -->
<g id="node12" class="node">
<title>Node11</title>
<polygon fill="#ffffff" stroke="#bfbfbf" points="688.2686,-.5 688.2686,-18.5 753.1943,-18.5 753.1943,-.5 688.2686,-.5"/>
<text text-anchor="middle" x="720.7314" y="-6.5" font-family="Helvetica,sans-Serif" font-size="10.00" fill="#000000">netinet/in.h</text>
</g>
<!-- Node0&#45;&gt;Node11 -->
<g id="edge11" class="edge">
<title>Node0&#45;&gt;Node11</title>
<path fill="none" stroke="#191970" d="M689.4479,-55.2808C695.2125,-46.8448 702.5676,-36.0813 708.6974,-27.1107"/>
<polygon fill="#191970" stroke="#191970" points="711.7717,-28.8153 714.5239,-18.5842 705.9922,-24.866 711.7717,-28.8153"/>
</g>
<!-- Node12 -->
<g id="node13" class="node">
<title>Node12</title>
<polygon fill="#ffffff" stroke="#bfbfbf" points="770.8745,-.5 770.8745,-18.5 848.5884,-18.5 848.5884,-.5 770.8745,-.5"/>
<text text-anchor="middle" x="809.7314" y="-6.5" font-family="Helvetica,sans-Serif" font-size="10.00" fill="#000000">net/ethernet.h</text>
</g>
<!-- Node0&#45;&gt;Node12 -->
<g id="edge12" class="edge">
<title>Node0&#45;&gt;Node12</title>
<path fill="none" stroke="#191970" d="M710.2107,-55.4327C731.4607,-45.625 759.6452,-32.6167 780.5948,-22.9477"/>
<polygon fill="#191970" stroke="#191970" points="782.3346,-25.9996 789.9475,-18.6311 779.4012,-19.6438 782.3346,-25.9996"/>
</g>
<!-- Node13 -->
<g id="node14" class="node">
<title>Node13</title>
<polygon fill="#ffffff" stroke="#bfbfbf" points="866.2686,-.5 866.2686,-18.5 931.1943,-18.5 931.1943,-.5 866.2686,-.5"/>
<text text-anchor="middle" x="898.7314" y="-6.5" font-family="Helvetica,sans-Serif" font-size="10.00" fill="#000000">netinet/ip.h</text>
</g>
<!-- Node0&#45;&gt;Node13 -->
<g id="edge13" class="edge">
<title>Node0&#45;&gt;Node13</title>
<path fill="none" stroke="#191970" d="M731.0772,-55.4327C769.2123,-44.9847 820.6042,-30.9047 856.3964,-21.0986"/>
<polygon fill="#191970" stroke="#191970" points="857.3343,-24.4708 866.054,-18.4527 855.4846,-17.7195 857.3343,-24.4708"/>
</g>
<!-- Node14 -->
<g id="node15" class="node">
<title>Node14</title>
<polygon fill="#ffffff" stroke="#bfbfbf" points="949.4902,-.5 949.4902,-18.5 1019.9727,-18.5 1019.9727,-.5 949.4902,-.5"/>
<text text-anchor="middle" x="984.7314" y="-6.5" font-family="Helvetica,sans-Serif" font-size="10.00" fill="#000000">netinet/tcp.h</text>
</g>
<!-- Node0&#45;&gt;Node14 -->
<g id="edge14" class="edge">
<title>Node0&#45;&gt;Node14</title>
<path fill="none" stroke="#191970" d="M741.2502,-57.8423C791.7037,-48.2149 865.2554,-34.0283 939.3834,-19.0445"/>
<polygon fill="#191970" stroke="#191970" points="940.2633,-22.4375 949.3694,-17.0218 938.8736,-15.5768 940.2633,-22.4375"/>
</g>
<!-- Node15 -->
<g id="node16" class="node">
<title>Node15</title>
<polygon fill="#ffffff" stroke="#bfbfbf" points="1037.9312,-.5 1037.9312,-18.5 1129.5317,-18.5 1129.5317,-.5 1037.9312,-.5"/>
<text text-anchor="middle" x="1083.7314" y="-6.5" font-family="Helvetica,sans-Serif" font-size="10.00" fill="#000000">netinet/ip_icmp.h</text>
</g>
<!-- Node0&#45;&gt;Node15 -->
<g id="edge15" class="edge">
<title>Node0&#45;&gt;Node15</title>
<path fill="none" stroke="#191970" d="M741.2755,-61.1129C808.9483,-51.7739 921.1592,-35.9458 1027.8558,-19.1049"/>
<polygon fill="#191970" stroke="#191970" points="1028.5017,-22.5463 1037.8309,-17.5248 1027.4065,-15.6325 1028.5017,-22.5463"/>
</g>
<!-- Node16 -->
<g id="node17" class="node">
<title>Node16</title>
<polygon fill="#ffffff" stroke="#bfbfbf" points="1147.3276,-.5 1147.3276,-18.5 1206.1353,-18.5 1206.1353,-.5 1147.3276,-.5"/>
<text text-anchor="middle" x="1176.7314" y="-6.5" font-family="Helvetica,sans-Serif" font-size="10.00" fill="#000000">jansson.h</text>
</g>
<!-- Node0&#45;&gt;Node16 -->
<g id="edge16" class="edge">
<title>Node0&#45;&gt;Node16</title>
<path fill="none" stroke="#191970" d="M741.3613,-65.3835C827.8338,-59.0189 990.1761,-44.9233 1136.8581,-19.1475"/>
<polygon fill="#191970" stroke="#191970" points="1137.7113,-22.5507 1146.9431,-17.3522 1136.4845,-15.659 1137.7113,-22.5507"/>
</g>
<!-- Node17 -->
<g id="node18" class="node">
<title>Node17</title>
<polygon fill="#ffffff" stroke="#bfbfbf" points="1223.8374,-.5 1223.8374,-18.5 1267.6255,-18.5 1267.6255,-.5 1223.8374,-.5"/>
<text text-anchor="middle" x="1245.7314" y="-6.5" font-family="Helvetica,sans-Serif" font-size="10.00" fill="#000000">libcli.h</text>
</g>
<!-- Node0&#45;&gt;Node17 -->
<g id="edge17" class="edge">
<title>Node0&#45;&gt;Node17</title>
<path fill="none" stroke="#191970" d="M741.2935,-67.7475C839.571,-64.0624 1037.8972,-52.9897 1213.5797,-18.8594"/>
<polygon fill="#191970" stroke="#191970" points="1214.3851,-22.268 1223.5187,-16.8988 1213.0303,-15.4004 1214.3851,-22.268"/>
</g>
<!-- Node18 -->
<g id="node19" class="node">
<title>Node18</title>
<polygon fill="#ffffff" stroke="#bfbfbf" points="1286.1157,-.5 1286.1157,-18.5 1329.3472,-18.5 1329.3472,-.5 1286.1157,-.5"/>
<text text-anchor="middle" x="1307.7314" y="-6.5" font-family="Helvetica,sans-Serif" font-size="10.00" fill="#000000">zmq.h</text>
</g>
<!-- Node0&#45;&gt;Node18 -->
<g id="edge18" class="edge">
<title>Node0&#45;&gt;Node18</title>
<path fill="none" stroke="#191970" d="M741.2158,-65.9657C868.5522,-58.3815 1158.3404,-39.6852 1276.0194,-18.6757"/>
<polygon fill="#191970" stroke="#191970" points="1276.6769,-22.1136 1285.8621,-16.8331 1275.3887,-15.2331 1276.6769,-22.1136"/>
</g>
<!-- Node19 -->
<g id="node20" class="node">
<title>Node19</title>
<g id="a_node20"><a xlink:href="ext__comps_2shim_2include_2type_8h.html" target="_top" xlink:title="type.h">
<polygon fill="#ffffff" stroke="#000000" points="1347.1108,-.5 1347.1108,-18.5 1390.3521,-18.5 1390.3521,-.5 1347.1108,-.5"/>
<text text-anchor="middle" x="1368.7314" y="-6.5" font-family="Helvetica,sans-Serif" font-size="10.00" fill="#000000">type.h</text>
</a>
</g>
</g>
<!-- Node0&#45;&gt;Node19 -->
<g id="edge19" class="edge">
<title>Node0&#45;&gt;Node19</title>
<path fill="none" stroke="#191970" d="M741.1858,-66.6011C878.4153,-59.8423 1207.2876,-41.9876 1336.8473,-18.9287"/>
<polygon fill="#191970" stroke="#191970" points="1337.7406,-22.3224 1346.9269,-17.044 1336.4539,-15.4417 1337.7406,-22.3224"/>
</g>
<!-- Node20 -->
<g id="node21" class="node">
<title>Node20</title>
<polygon fill="#ffffff" stroke="#bfbfbf" points="1408.1157,-.5 1408.1157,-18.5 1451.3472,-18.5 1451.3472,-.5 1408.1157,-.5"/>
<text text-anchor="middle" x="1429.7314" y="-6.5" font-family="Helvetica,sans-Serif" font-size="10.00" fill="#000000">time.h</text>
</g>
<!-- Node0&#45;&gt;Node20 -->
<g id="edge20" class="edge">
<title>Node0&#45;&gt;Node20</title>
<path fill="none" stroke="#191970" d="M741.2432,-67.0578C887.8498,-60.9432 1255.6326,-43.7967 1397.6958,-18.9413"/>
<polygon fill="#191970" stroke="#191970" points="1398.7273,-22.3104 1407.9301,-17.0608 1397.4623,-15.4257 1398.7273,-22.3104"/>
</g>
</g>
</svg>
