<?xml version="1.0" encoding="UTF-8" standalone="no"?>
<!DOCTYPE svg PUBLIC "-//W3C//DTD SVG 1.1//EN"
 "http://www.w3.org/Graphics/SVG/1.1/DTD/svg11.dtd">
<!-- Generated by graphviz version 2.40.1 (20161225.0304)
 -->
<!-- Title: ext_apps/l2_shortest/src/include/mac_queue.h Pages: 1 -->
<svg width="408pt" height="102pt"
 viewBox="0.00 0.00 408.29 102.00" xmlns="http://www.w3.org/2000/svg" xmlns:xlink="http://www.w3.org/1999/xlink">
<g id="graph0" class="graph" transform="scale(1 1) rotate(0) translate(4 98)">
<title>ext_apps/l2_shortest/src/include/mac_queue.h</title>
<polygon fill="#ffffff" stroke="transparent" points="-4,4 -4,-98 404.2876,-98 404.2876,4 -4,4"/>
<!-- Node1 -->
<g id="node1" class="node">
<title>Node1</title>
<polygon fill="#bfbfbf" stroke="#000000" points="145.1699,-65.5 145.1699,-93.5 275.125,-93.5 275.125,-65.5 145.1699,-65.5"/>
<text text-anchor="start" x="153.1699" y="-81.5" font-family="Helvetica,sans-Serif" font-size="10.00" fill="#000000">ext_apps/l2_shortest</text>
<text text-anchor="middle" x="210.1475" y="-71.5" font-family="Helvetica,sans-Serif" font-size="10.00" fill="#000000">/src/include/mac_queue.h</text>
</g>
<!-- Node2 -->
<g id="node2" class="node">
<title>Node2</title>
<g id="a_node2"><a xlink:href="l2__learning_8c.html" target="_top" xlink:title="applications/l2_learning.c">
<polygon fill="#ffffff" stroke="#000000" points="0,-5.5 0,-23.5 128.2949,-23.5 128.2949,-5.5 0,-5.5"/>
<text text-anchor="middle" x="64.1475" y="-11.5" font-family="Helvetica,sans-Serif" font-size="10.00" fill="#000000">applications/l2_learning.c</text>
</a>
</g>
</g>
<!-- Node1&#45;&gt;Node2 -->
<g id="edge1" class="edge">
<title>Node1&#45;&gt;Node2</title>
<path fill="none" stroke="#191970" d="M169.0612,-61.2082C141.4783,-48.9281 106.3266,-33.2784 84.5297,-23.5743"/>
<polygon fill="#191970" stroke="#191970" points="167.9086,-64.5262 178.4676,-65.396 170.7556,-58.1313 167.9086,-64.5262"/>
</g>
<!-- Node3 -->
<g id="node3" class="node">
<title>Node3</title>
<g id="a_node3"><a xlink:href="applications_2l2__shortest_8c.html" target="_top" xlink:title="applications/l2_shortest.c">
<polygon fill="#ffffff" stroke="#000000" points="146.0049,-5.5 146.0049,-23.5 274.29,-23.5 274.29,-5.5 146.0049,-5.5"/>
<text text-anchor="middle" x="210.1475" y="-11.5" font-family="Helvetica,sans-Serif" font-size="10.00" fill="#000000">applications/l2_shortest.c</text>
</a>
</g>
</g>
<!-- Node1&#45;&gt;Node3 -->
<g id="edge2" class="edge">
<title>Node1&#45;&gt;Node3</title>
<path fill="none" stroke="#191970" d="M210.1475,-55.3747C210.1475,-44.2832 210.1475,-31.7952 210.1475,-23.5743"/>
<polygon fill="#191970" stroke="#191970" points="206.6476,-55.3959 210.1475,-65.396 213.6476,-55.396 206.6476,-55.3959"/>
</g>
<!-- Node4 -->
<g id="node4" class="node">
<title>Node4</title>
<g id="a_node4"><a xlink:href="ext__apps_2l2__shortest_2src_2l2__shortest_8c.html" target="_top" xlink:title="ext_apps/l2_shortest\l/src/l2_shortest.c">
<polygon fill="#ffffff" stroke="#000000" points="292.0073,-.5 292.0073,-28.5 400.2876,-28.5 400.2876,-.5 292.0073,-.5"/>
<text text-anchor="start" x="300.0073" y="-16.5" font-family="Helvetica,sans-Serif" font-size="10.00" fill="#000000">ext_apps/l2_shortest</text>
<text text-anchor="middle" x="346.1475" y="-6.5" font-family="Helvetica,sans-Serif" font-size="10.00" fill="#000000">/src/l2_shortest.c</text>
</a>
</g>
</g>
<!-- Node1&#45;&gt;Node4 -->
<g id="edge3" class="edge">
<title>Node1&#45;&gt;Node4</title>
<path fill="none" stroke="#191970" d="M248.8718,-60.9921C270.4285,-50.6892 296.8365,-38.0677 316.6951,-28.5765"/>
<polygon fill="#191970" stroke="#191970" points="247.1706,-57.9258 239.6574,-65.396 250.1892,-64.2416 247.1706,-57.9258"/>
</g>
</g>
</svg>
