<?xml version="1.0" encoding="UTF-8" standalone="no"?>
<!DOCTYPE svg PUBLIC "-//W3C//DTD SVG 1.1//EN"
 "http://www.w3.org/Graphics/SVG/1.1/DTD/svg11.dtd">
<!-- Generated by graphviz version 2.40.1 (20161225.0304)
 -->
<!-- Title: ext_apps/rbac/src/include/rbac.h Pages: 1 -->
<svg width="250pt" height="92pt"
 viewBox="0.00 0.00 249.88 92.00" xmlns="http://www.w3.org/2000/svg" xmlns:xlink="http://www.w3.org/1999/xlink">
<g id="graph0" class="graph" transform="scale(1 1) rotate(0) translate(4 88)">
<title>ext_apps/rbac/src/include/rbac.h</title>
<polygon fill="#ffffff" stroke="transparent" points="-4,4 -4,-88 245.8789,-88 245.8789,4 -4,4"/>
<!-- Node42 -->
<g id="node1" class="node">
<title>Node42</title>
<polygon fill="#bfbfbf" stroke="#000000" points="49.7144,-55.5 49.7144,-83.5 179.1079,-83.5 179.1079,-55.5 49.7144,-55.5"/>
<text text-anchor="start" x="57.7144" y="-71.5" font-family="Helvetica,sans-Serif" font-size="10.00" fill="#000000">ext_apps/rbac/src/include</text>
<text text-anchor="middle" x="114.4111" y="-61.5" font-family="Helvetica,sans-Serif" font-size="10.00" fill="#000000">/rbac.h</text>
</g>
<!-- Node43 -->
<g id="node2" class="node">
<title>Node43</title>
<g id="a_node2"><a xlink:href="applications_2rbac_8c.html" target="_top" xlink:title="applications/rbac.c">
<polygon fill="#ffffff" stroke="#000000" points="0,-.5 0,-18.5 98.8223,-18.5 98.8223,-.5 0,-.5"/>
<text text-anchor="middle" x="49.4111" y="-6.5" font-family="Helvetica,sans-Serif" font-size="10.00" fill="#000000">applications/rbac.c</text>
</a>
</g>
</g>
<!-- Node42&#45;&gt;Node43 -->
<g id="edge1" class="edge">
<title>Node42&#45;&gt;Node43</title>
<path fill="none" stroke="#191970" d="M91.3495,-48.2123C80.3372,-38.0471 67.7418,-26.4206 59.2523,-18.5842"/>
<polygon fill="#191970" stroke="#191970" points="89.285,-51.0698 99.007,-55.2808 94.033,-45.9262 89.285,-51.0698"/>
</g>
<!-- Node44 -->
<g id="node3" class="node">
<title>Node44</title>
<g id="a_node3"><a xlink:href="ext__apps_2rbac_2src_2rbac_8c.html" target="_top" xlink:title="ext_apps/rbac/src/rbac.c">
<polygon fill="#ffffff" stroke="#000000" points="116.9434,-.5 116.9434,-18.5 241.8789,-18.5 241.8789,-.5 116.9434,-.5"/>
<text text-anchor="middle" x="179.4111" y="-6.5" font-family="Helvetica,sans-Serif" font-size="10.00" fill="#000000">ext_apps/rbac/src/rbac.c</text>
</a>
</g>
</g>
<!-- Node42&#45;&gt;Node44 -->
<g id="edge2" class="edge">
<title>Node42&#45;&gt;Node44</title>
<path fill="none" stroke="#191970" d="M137.4728,-48.2123C148.4851,-38.0471 161.0804,-26.4206 169.5699,-18.5842"/>
<polygon fill="#191970" stroke="#191970" points="134.7893,-45.9262 129.8152,-55.2808 139.5373,-51.0698 134.7893,-45.9262"/>
</g>
</g>
</svg>
