<?xml version="1.0" encoding="UTF-8" standalone="no"?>
<!DOCTYPE svg PUBLIC "-//W3C//DTD SVG 1.1//EN"
 "http://www.w3.org/Graphics/SVG/1.1/DTD/svg11.dtd">
<!-- Generated by graphviz version 2.40.1 (20161225.0304)
 -->
<!-- Title: ext_comps/shim/include/type.h Pages: 1 -->
<svg width="415pt" height="352pt"
 viewBox="0.00 0.00 415.43 352.00" xmlns="http://www.w3.org/2000/svg" xmlns:xlink="http://www.w3.org/1999/xlink">
<g id="graph0" class="graph" transform="scale(1 1) rotate(0) translate(4 348)">
<title>ext_comps/shim/include/type.h</title>
<polygon fill="#ffffff" stroke="transparent" points="-4,4 -4,-348 411.4307,-348 411.4307,4 -4,4"/>
<!-- Node1 -->
<g id="node1" class="node">
<title>Node1</title>
<polygon fill="#bfbfbf" stroke="#000000" points="150.7168,-315.5 150.7168,-343.5 273.4307,-343.5 273.4307,-315.5 150.7168,-315.5"/>
<text text-anchor="start" x="158.7168" y="-331.5" font-family="Helvetica,sans-Serif" font-size="10.00" fill="#000000">ext_comps/shim/include</text>
<text text-anchor="middle" x="212.0737" y="-321.5" font-family="Helvetica,sans-Serif" font-size="10.00" fill="#000000">/type.h</text>
</g>
<!-- Node2 -->
<g id="node2" class="node">
<title>Node2</title>
<g id="a_node2"><a xlink:href="ext__comps_2shim_2include_2common_8h.html" target="_top" xlink:title="ext_comps/shim/include\l/common.h">
<polygon fill="#ffffff" stroke="#000000" points="106.7168,-250.5 106.7168,-278.5 229.4307,-278.5 229.4307,-250.5 106.7168,-250.5"/>
<text text-anchor="start" x="114.7168" y="-266.5" font-family="Helvetica,sans-Serif" font-size="10.00" fill="#000000">ext_comps/shim/include</text>
<text text-anchor="middle" x="168.0737" y="-256.5" font-family="Helvetica,sans-Serif" font-size="10.00" fill="#000000">/common.h</text>
</a>
</g>
</g>
<!-- Node1&#45;&gt;Node2 -->
<g id="edge1" class="edge">
<title>Node1&#45;&gt;Node2</title>
<path fill="none" stroke="#191970" d="M196.7529,-306.8669C190.3847,-297.4594 183.1917,-286.8334 177.6024,-278.5765"/>
<polygon fill="#191970" stroke="#191970" points="194.0223,-309.0769 202.5264,-315.396 199.8191,-305.1529 194.0223,-309.0769"/>
</g>
<!-- Node9 -->
<g id="node9" class="node">
<title>Node9</title>
<g id="a_node9"><a xlink:href="ext__comps_2shim_2include_2event__list_8h.html" target="_top" xlink:title="ext_comps/shim/include\l/event_list.h">
<polygon fill="#ffffff" stroke="#000000" points="284.7168,-185.5 284.7168,-213.5 407.4307,-213.5 407.4307,-185.5 284.7168,-185.5"/>
<text text-anchor="start" x="292.7168" y="-201.5" font-family="Helvetica,sans-Serif" font-size="10.00" fill="#000000">ext_comps/shim/include</text>
<text text-anchor="middle" x="346.0737" y="-191.5" font-family="Helvetica,sans-Serif" font-size="10.00" fill="#000000">/event_list.h</text>
</a>
</g>
</g>
<!-- Node1&#45;&gt;Node9 -->
<g id="edge12" class="edge">
<title>Node1&#45;&gt;Node9</title>
<path fill="none" stroke="#191970" d="M233.8892,-308.3358C261.4008,-281.6454 307.9471,-236.4886 331.4963,-213.6423"/>
<polygon fill="#191970" stroke="#191970" points="231.4095,-305.865 226.6692,-315.3402 236.2837,-310.8892 231.4095,-305.865"/>
</g>
<!-- Node3 -->
<g id="node3" class="node">
<title>Node3</title>
<g id="a_node3"><a xlink:href="ext__comps_2shim_2include_2component_8h.html" target="_top" xlink:title="ext_comps/shim/include\l/component.h">
<polygon fill="#ffffff" stroke="#000000" points="61.7168,-120.5 61.7168,-148.5 184.4307,-148.5 184.4307,-120.5 61.7168,-120.5"/>
<text text-anchor="start" x="69.7168" y="-136.5" font-family="Helvetica,sans-Serif" font-size="10.00" fill="#000000">ext_comps/shim/include</text>
<text text-anchor="middle" x="123.0737" y="-126.5" font-family="Helvetica,sans-Serif" font-size="10.00" fill="#000000">/component.h</text>
</a>
</g>
</g>
<!-- Node2&#45;&gt;Node3 -->
<g id="edge2" class="edge">
<title>Node2&#45;&gt;Node3</title>
<path fill="none" stroke="#191970" d="M128.1082,-245.1248C116.2428,-237.2308 104.6646,-226.8819 98.0737,-214 87.0023,-192.3609 101.2287,-164.8853 112.3176,-148.5528"/>
<polygon fill="#191970" stroke="#191970" points="126.3823,-248.1724 136.7316,-250.44 130.0553,-242.2134 126.3823,-248.1724"/>
</g>
<!-- Node4 -->
<g id="node4" class="node">
<title>Node4</title>
<g id="a_node4"><a xlink:href="ext__comps_2shim_2include_2shim_8h.html" target="_top" xlink:title="ext_comps/shim/include\l/shim.h">
<polygon fill="#ffffff" stroke="#000000" points="61.7168,-55.5 61.7168,-83.5 184.4307,-83.5 184.4307,-55.5 61.7168,-55.5"/>
<text text-anchor="start" x="69.7168" y="-71.5" font-family="Helvetica,sans-Serif" font-size="10.00" fill="#000000">ext_comps/shim/include</text>
<text text-anchor="middle" x="123.0737" y="-61.5" font-family="Helvetica,sans-Serif" font-size="10.00" fill="#000000">/shim.h</text>
</a>
</g>
</g>
<!-- Node2&#45;&gt;Node4 -->
<g id="edge11" class="edge">
<title>Node2&#45;&gt;Node4</title>
<path fill="none" stroke="#191970" d="M131.3744,-245.2208C117.6648,-236.8532 102.634,-226.1708 91.0737,-214 68.0279,-189.737 61.8225,-181.2996 53.0737,-149 49.704,-136.5594 47.203,-131.4743 53.0737,-120 61.2644,-103.9914 77.1571,-91.8947 91.7316,-83.56"/>
<polygon fill="#191970" stroke="#191970" points="129.7489,-248.3252 140.1431,-250.3776 133.2975,-242.2913 129.7489,-248.3252"/>
</g>
<!-- Node7 -->
<g id="node7" class="node">
<title>Node7</title>
<g id="a_node7"><a xlink:href="ext__comps_2shim_2include_2context_8h.html" target="_top" xlink:title="ext_comps/shim/include\l/context.h">
<polygon fill="#ffffff" stroke="#000000" points="106.7168,-185.5 106.7168,-213.5 229.4307,-213.5 229.4307,-185.5 106.7168,-185.5"/>
<text text-anchor="start" x="114.7168" y="-201.5" font-family="Helvetica,sans-Serif" font-size="10.00" fill="#000000">ext_comps/shim/include</text>
<text text-anchor="middle" x="168.0737" y="-191.5" font-family="Helvetica,sans-Serif" font-size="10.00" fill="#000000">/context.h</text>
</a>
</g>
</g>
<!-- Node2&#45;&gt;Node7 -->
<g id="edge6" class="edge">
<title>Node2&#45;&gt;Node7</title>
<path fill="none" stroke="#191970" d="M168.0737,-240.1081C168.0737,-231.1539 168.0737,-221.3227 168.0737,-213.5765"/>
<polygon fill="#191970" stroke="#191970" points="164.5738,-240.3959 168.0737,-250.396 171.5738,-240.396 164.5738,-240.3959"/>
</g>
<!-- Node8 -->
<g id="node8" class="node">
<title>Node8</title>
<g id="a_node8"><a xlink:href="ext__comps_2shim_2include_2event_8h.html" target="_top" xlink:title="ext_comps/shim/include\l/event.h">
<polygon fill="#ffffff" stroke="#000000" points="202.7168,-120.5 202.7168,-148.5 325.4307,-148.5 325.4307,-120.5 202.7168,-120.5"/>
<text text-anchor="start" x="210.7168" y="-136.5" font-family="Helvetica,sans-Serif" font-size="10.00" fill="#000000">ext_comps/shim/include</text>
<text text-anchor="middle" x="264.0737" y="-126.5" font-family="Helvetica,sans-Serif" font-size="10.00" fill="#000000">/event.h</text>
</a>
</g>
</g>
<!-- Node2&#45;&gt;Node8 -->
<g id="edge10" class="edge">
<title>Node2&#45;&gt;Node8</title>
<path fill="none" stroke="#191970" d="M204.0229,-244.9142C216.2672,-236.7402 229.1108,-226.2683 238.0737,-214 252.6367,-194.0666 259.3237,-165.5494 262.173,-148.639"/>
<polygon fill="#191970" stroke="#191970" points="201.8528,-242.1456 195.277,-250.4529 205.598,-248.0595 201.8528,-242.1456"/>
</g>
<!-- Node3&#45;&gt;Node4 -->
<g id="edge3" class="edge">
<title>Node3&#45;&gt;Node4</title>
<path fill="none" stroke="#191970" d="M123.0737,-110.1081C123.0737,-101.1539 123.0737,-91.3227 123.0737,-83.5765"/>
<polygon fill="#191970" stroke="#191970" points="119.5738,-110.3959 123.0737,-120.396 126.5738,-110.396 119.5738,-110.3959"/>
</g>
<!-- Node5 -->
<g id="node5" class="node">
<title>Node5</title>
<g id="a_node5"><a xlink:href="ext__apps_2shim_2shim_8c.html" target="_top" xlink:title="ext_apps/shim/shim.c">
<polygon fill="#ffffff" stroke="#000000" points="0,-.5 0,-18.5 112.1475,-18.5 112.1475,-.5 0,-.5"/>
<text text-anchor="middle" x="56.0737" y="-6.5" font-family="Helvetica,sans-Serif" font-size="10.00" fill="#000000">ext_apps/shim/shim.c</text>
</a>
</g>
</g>
<!-- Node4&#45;&gt;Node5 -->
<g id="edge4" class="edge">
<title>Node4&#45;&gt;Node5</title>
<path fill="none" stroke="#191970" d="M99.6327,-48.508C88.2039,-38.2733 75.0534,-26.4967 66.2177,-18.5842"/>
<polygon fill="#191970" stroke="#191970" points="97.4112,-51.2169 107.1957,-55.2808 102.0811,-46.0023 97.4112,-51.2169"/>
</g>
<!-- Node6 -->
<g id="node6" class="node">
<title>Node6</title>
<g id="a_node6"><a xlink:href="ext__comps_2shim_2shim_8c.html" target="_top" xlink:title="ext_comps/shim/shim.c">
<polygon fill="#ffffff" stroke="#000000" points="130.1157,-.5 130.1157,-18.5 250.0317,-18.5 250.0317,-.5 130.1157,-.5"/>
<text text-anchor="middle" x="190.0737" y="-6.5" font-family="Helvetica,sans-Serif" font-size="10.00" fill="#000000">ext_comps/shim/shim.c</text>
</a>
</g>
</g>
<!-- Node4&#45;&gt;Node6 -->
<g id="edge5" class="edge">
<title>Node4&#45;&gt;Node6</title>
<path fill="none" stroke="#191970" d="M146.5148,-48.508C157.9436,-38.2733 171.094,-26.4967 179.9297,-18.5842"/>
<polygon fill="#191970" stroke="#191970" points="144.0664,-46.0023 138.9518,-55.2808 148.7363,-51.2169 144.0664,-46.0023"/>
</g>
<!-- Node7&#45;&gt;Node3 -->
<g id="edge7" class="edge">
<title>Node7&#45;&gt;Node3</title>
<path fill="none" stroke="#191970" d="M152.6058,-177.1575C146.0437,-167.6788 138.5943,-156.9186 132.819,-148.5765"/>
<polygon fill="#191970" stroke="#191970" points="149.7396,-179.1663 158.3094,-185.396 155.4949,-175.1818 149.7396,-179.1663"/>
</g>
<!-- Node7&#45;&gt;Node8 -->
<g id="edge8" class="edge">
<title>Node7&#45;&gt;Node8</title>
<path fill="none" stroke="#191970" d="M197.2671,-179.7337C212.1222,-169.6755 229.8318,-157.6847 243.2838,-148.5765"/>
<polygon fill="#191970" stroke="#191970" points="195.2225,-176.8912 188.9043,-185.396 199.1471,-182.6875 195.2225,-176.8912"/>
</g>
<!-- Node8&#45;&gt;Node4 -->
<g id="edge9" class="edge">
<title>Node8&#45;&gt;Node4</title>
<path fill="none" stroke="#191970" d="M224.2261,-116.1305C201.8222,-105.8025 174.2899,-93.1103 153.6089,-83.5765"/>
<polygon fill="#191970" stroke="#191970" points="222.932,-119.3879 233.4788,-120.396 225.8626,-113.0309 222.932,-119.3879"/>
</g>
<!-- Node9&#45;&gt;Node8 -->
<g id="edge13" class="edge">
<title>Node9&#45;&gt;Node8</title>
<path fill="none" stroke="#191970" d="M320.4237,-179.1677C307.8848,-169.2283 293.1073,-157.5144 281.8318,-148.5765"/>
<polygon fill="#191970" stroke="#191970" points="318.2702,-181.9268 328.281,-185.396 322.6185,-176.4412 318.2702,-181.9268"/>
</g>
</g>
</svg>
