<?xml version="1.0" encoding="UTF-8" standalone="no"?>
<!DOCTYPE svg PUBLIC "-//W3C//DTD SVG 1.1//EN"
 "http://www.w3.org/Graphics/SVG/1.1/DTD/svg11.dtd">
<!-- Generated by graphviz version 2.40.1 (20161225.0304)
 -->
<!-- Title: ext_apps/shim/app_event.c Pages: 1 -->
<svg width="2408pt" height="302pt"
 viewBox="0.00 0.00 2407.71 302.00" xmlns="http://www.w3.org/2000/svg" xmlns:xlink="http://www.w3.org/1999/xlink">
<g id="graph0" class="graph" transform="scale(1 1) rotate(0) translate(4 298)">
<title>ext_apps/shim/app_event.c</title>
<polygon fill="#ffffff" stroke="transparent" points="-4,4 -4,-298 2403.7066,-298 2403.7066,4 -4,4"/>
<!-- Node0 -->
<g id="node1" class="node">
<title>Node0</title>
<polygon fill="#bfbfbf" stroke="#000000" points="1430.749,-275.5 1430.749,-293.5 1568.4922,-293.5 1568.4922,-275.5 1430.749,-275.5"/>
<text text-anchor="middle" x="1499.6206" y="-281.5" font-family="Helvetica,sans-Serif" font-size="10.00" fill="#000000">ext_apps/shim/app_event.c</text>
</g>
<!-- Node1 -->
<g id="node2" class="node">
<title>Node1</title>
<g id="a_node2"><a xlink:href="app__events_2include_2app__event_8h.html" target="_top" xlink:title="app_event.h">
<polygon fill="#ffffff" stroke="#000000" points="1302.0962,-220.5 1302.0962,-238.5 1373.145,-238.5 1373.145,-220.5 1302.0962,-220.5"/>
<text text-anchor="middle" x="1337.6206" y="-226.5" font-family="Helvetica,sans-Serif" font-size="10.00" fill="#000000">app_event.h</text>
</a>
</g>
</g>
<!-- Node0&#45;&gt;Node1 -->
<g id="edge1" class="edge">
<title>Node0&#45;&gt;Node1</title>
<path fill="none" stroke="#191970" d="M1472.8696,-275.4179C1445.8214,-266.2348 1403.8366,-251.9807 1373.8229,-241.7909"/>
<polygon fill="#191970" stroke="#191970" points="1374.7365,-238.4049 1364.1421,-238.5042 1372.486,-245.0333 1374.7365,-238.4049"/>
</g>
<!-- Node40 -->
<g id="node41" class="node">
<title>Node40</title>
<g id="a_node41"><a xlink:href="src_2include_2application_8h.html" target="_top" xlink:title="application.h">
<polygon fill="#ffffff" stroke="#000000" points="1413.5444,-220.5 1413.5444,-238.5 1485.6968,-238.5 1485.6968,-220.5 1413.5444,-220.5"/>
<text text-anchor="middle" x="1449.6206" y="-226.5" font-family="Helvetica,sans-Serif" font-size="10.00" fill="#000000">application.h</text>
</a>
</g>
</g>
<!-- Node0&#45;&gt;Node40 -->
<g id="edge49" class="edge">
<title>Node0&#45;&gt;Node40</title>
<path fill="none" stroke="#191970" d="M1491.3641,-275.4179C1484.1698,-267.5041 1473.5518,-255.8243 1464.8252,-246.2251"/>
<polygon fill="#191970" stroke="#191970" points="1467.373,-243.8245 1458.0565,-238.7795 1462.1934,-248.5332 1467.373,-243.8245"/>
</g>
<!-- Node42 -->
<g id="node43" class="node">
<title>Node42</title>
<polygon fill="#ffffff" stroke="#bfbfbf" points="1503.7021,-220.5 1503.7021,-238.5 1597.5391,-238.5 1597.5391,-220.5 1503.7021,-220.5"/>
<text text-anchor="middle" x="1550.6206" y="-226.5" font-family="Helvetica,sans-Serif" font-size="10.00" fill="#000000">application_info.h</text>
</g>
<!-- Node0&#45;&gt;Node42 -->
<g id="edge55" class="edge">
<title>Node0&#45;&gt;Node42</title>
<path fill="none" stroke="#191970" d="M1508.0422,-275.4179C1515.3804,-267.5041 1526.2108,-255.8243 1535.1119,-246.2251"/>
<polygon fill="#191970" stroke="#191970" points="1537.783,-248.492 1542.016,-238.7795 1532.6501,-243.7324 1537.783,-248.492"/>
</g>
<!-- Node43 -->
<g id="node44" class="node">
<title>Node43</title>
<g id="a_node44"><a xlink:href="app__events_2include_2app__event__json_8h.html" target="_top" xlink:title="app_event_json.h">
<polygon fill="#ffffff" stroke="#000000" points="1615.1431,-220.5 1615.1431,-238.5 1710.0981,-238.5 1710.0981,-220.5 1615.1431,-220.5"/>
<text text-anchor="middle" x="1662.6206" y="-226.5" font-family="Helvetica,sans-Serif" font-size="10.00" fill="#000000">app_event_json.h</text>
</a>
</g>
</g>
<!-- Node0&#45;&gt;Node43 -->
<g id="edge56" class="edge">
<title>Node0&#45;&gt;Node43</title>
<path fill="none" stroke="#191970" d="M1526.5367,-275.4179C1553.7519,-266.2348 1595.9959,-251.9807 1626.1949,-241.7909"/>
<polygon fill="#191970" stroke="#191970" points="1627.5793,-245.0177 1635.9354,-238.5042 1625.3412,-238.3851 1627.5793,-245.0177"/>
</g>
<!-- Node2 -->
<g id="node3" class="node">
<title>Node2</title>
<g id="a_node3"><a xlink:href="src_2include_2common_8h.html" target="_top" xlink:title="common.h">
<polygon fill="#ffffff" stroke="#000000" points="1390.2783,-110.5 1390.2783,-128.5 1452.9629,-128.5 1452.9629,-110.5 1390.2783,-110.5"/>
<text text-anchor="middle" x="1421.6206" y="-116.5" font-family="Helvetica,sans-Serif" font-size="10.00" fill="#000000">common.h</text>
</a>
</g>
</g>
<!-- Node1&#45;&gt;Node2 -->
<g id="edge2" class="edge">
<title>Node1&#45;&gt;Node2</title>
<path fill="none" stroke="#191970" d="M1338.4071,-220.3324C1339.945,-207.0182 1344.3557,-182.0617 1356.6206,-165 1366.0019,-151.9497 1380.3344,-141.3435 1393.156,-133.6646"/>
<polygon fill="#191970" stroke="#191970" points="1395.1448,-136.5611 1402.1326,-128.5974 1391.7037,-130.4653 1395.1448,-136.5611"/>
</g>
<!-- Node37 -->
<g id="node38" class="node">
<title>Node37</title>
<g id="a_node38"><a xlink:href="src_2include_2context_8h.html" target="_top" xlink:title="context.h">
<polygon fill="#ffffff" stroke="#000000" points="1365.3301,-165.5 1365.3301,-183.5 1421.9111,-183.5 1421.9111,-165.5 1365.3301,-165.5"/>
<text text-anchor="middle" x="1393.6206" y="-171.5" font-family="Helvetica,sans-Serif" font-size="10.00" fill="#000000">context.h</text>
</a>
</g>
</g>
<!-- Node1&#45;&gt;Node37 -->
<g id="edge44" class="edge">
<title>Node1&#45;&gt;Node37</title>
<path fill="none" stroke="#191970" d="M1346.8679,-220.4179C1355.0061,-212.425 1367.0559,-200.5903 1376.884,-190.9377"/>
<polygon fill="#191970" stroke="#191970" points="1379.4904,-193.2836 1384.1724,-183.7795 1374.5854,-188.2895 1379.4904,-193.2836"/>
</g>
<!-- Node38 -->
<g id="node39" class="node">
<title>Node38</title>
<g id="a_node39"><a xlink:href="app__events_2include_2app__event__id_8h.html" target="_top" xlink:title="app_event_id.h">
<polygon fill="#ffffff" stroke="#000000" points="1225.4238,-165.5 1225.4238,-183.5 1309.8174,-183.5 1309.8174,-165.5 1225.4238,-165.5"/>
<text text-anchor="middle" x="1267.6206" y="-171.5" font-family="Helvetica,sans-Serif" font-size="10.00" fill="#000000">app_event_id.h</text>
</a>
</g>
</g>
<!-- Node1&#45;&gt;Node38 -->
<g id="edge46" class="edge">
<title>Node1&#45;&gt;Node38</title>
<path fill="none" stroke="#191970" d="M1326.0615,-220.4179C1315.5866,-212.1876 1299.9274,-199.8839 1287.4542,-190.0836"/>
<polygon fill="#191970" stroke="#191970" points="1289.4564,-187.2056 1279.4308,-183.7795 1285.1316,-192.7098 1289.4564,-187.2056"/>
</g>
<!-- Node39 -->
<g id="node40" class="node">
<title>Node39</title>
<g id="a_node40"><a xlink:href="app__events_2include_2app__event__list_8h.html" target="_top" xlink:title="app_event_list.h">
<polygon fill="#ffffff" stroke="#000000" points="253.2046,-110.5 253.2046,-128.5 342.0366,-128.5 342.0366,-110.5 253.2046,-110.5"/>
<text text-anchor="middle" x="297.6206" y="-116.5" font-family="Helvetica,sans-Serif" font-size="10.00" fill="#000000">app_event_list.h</text>
</a>
</g>
</g>
<!-- Node1&#45;&gt;Node39 -->
<g id="edge47" class="edge">
<title>Node1&#45;&gt;Node39</title>
<path fill="none" stroke="#191970" d="M1301.8215,-225.7136C1147.5804,-209.3996 539.1605,-145.0475 352.4204,-125.2961"/>
<polygon fill="#191970" stroke="#191970" points="352.6,-121.7957 342.2873,-124.2244 351.8636,-128.7569 352.6,-121.7957"/>
</g>
<!-- Node3 -->
<g id="node4" class="node">
<title>Node3</title>
<polygon fill="#ffffff" stroke="#bfbfbf" points="310.8892,-.5 310.8892,-18.5 356.3521,-18.5 356.3521,-.5 310.8892,-.5"/>
<text text-anchor="middle" x="333.6206" y="-6.5" font-family="Helvetica,sans-Serif" font-size="10.00" fill="#000000">stdio.h</text>
</g>
<!-- Node2&#45;&gt;Node3 -->
<g id="edge3" class="edge">
<title>Node2&#45;&gt;Node3</title>
<path fill="none" stroke="#191970" d="M1389.981,-119.021C1190.441,-115.9272 113.9434,-98.1338 90.6206,-74 84.7524,-67.9277 85.2269,-61.4974 90.6206,-55 116.9352,-23.3009 240.4333,-13.5572 300.5617,-10.6662"/>
<polygon fill="#191970" stroke="#191970" points="300.8378,-14.1574 310.6723,-10.2163 300.5265,-7.1644 300.8378,-14.1574"/>
</g>
<!-- Node4 -->
<g id="node5" class="node">
<title>Node4</title>
<polygon fill="#ffffff" stroke="#bfbfbf" points="1789.1084,-55.5 1789.1084,-73.5 1840.1328,-73.5 1840.1328,-55.5 1789.1084,-55.5"/>
<text text-anchor="middle" x="1814.6206" y="-61.5" font-family="Helvetica,sans-Serif" font-size="10.00" fill="#000000">unistd.h</text>
</g>
<!-- Node2&#45;&gt;Node4 -->
<g id="edge4" class="edge">
<title>Node2&#45;&gt;Node4</title>
<path fill="none" stroke="#191970" d="M1453.0844,-117.0718C1514.1864,-112.0231 1653.2545,-98.9048 1778.92,-74.1041"/>
<polygon fill="#191970" stroke="#191970" points="1779.9814,-77.461 1789.0982,-72.0634 1778.6052,-70.5976 1779.9814,-77.461"/>
</g>
<!-- Node5 -->
<g id="node6" class="node">
<title>Node5</title>
<polygon fill="#ffffff" stroke="#bfbfbf" points="1857.7783,-55.5 1857.7783,-73.5 1905.4629,-73.5 1905.4629,-55.5 1857.7783,-55.5"/>
<text text-anchor="middle" x="1881.6206" y="-61.5" font-family="Helvetica,sans-Serif" font-size="10.00" fill="#000000">stdlib.h</text>
</g>
<!-- Node2&#45;&gt;Node5 -->
<g id="edge5" class="edge">
<title>Node2&#45;&gt;Node5</title>
<path fill="none" stroke="#191970" d="M1453.0638,-118.1252C1522.7443,-114.6605 1695.437,-103.7696 1847.6322,-74.1159"/>
<polygon fill="#191970" stroke="#191970" points="1848.4972,-77.5126 1857.6261,-72.1354 1847.1365,-70.6461 1848.4972,-77.5126"/>
</g>
<!-- Node6 -->
<g id="node7" class="node">
<title>Node6</title>
<polygon fill="#ffffff" stroke="#bfbfbf" points="526.5542,-.5 526.5542,-18.5 578.687,-18.5 578.687,-.5 526.5542,-.5"/>
<text text-anchor="middle" x="552.6206" y="-6.5" font-family="Helvetica,sans-Serif" font-size="10.00" fill="#000000">stdarg.h</text>
</g>
<!-- Node2&#45;&gt;Node6 -->
<g id="edge6" class="edge">
<title>Node2&#45;&gt;Node6</title>
<path fill="none" stroke="#191970" d="M1447.218,-110.4431C1476.9525,-98.6169 1519.4342,-76.8387 1498.6206,-55 1482.6307,-38.2226 760.6173,-15.6931 588.96,-10.5674"/>
<polygon fill="#191970" stroke="#191970" points="589.0129,-7.0675 578.9132,-10.2685 588.8047,-14.0644 589.0129,-7.0675"/>
</g>
<!-- Node7 -->
<g id="node8" class="node">
<title>Node7</title>
<polygon fill="#ffffff" stroke="#bfbfbf" points="2007.5,-55.5 2007.5,-73.5 2055.7412,-73.5 2055.7412,-55.5 2007.5,-55.5"/>
<text text-anchor="middle" x="2031.6206" y="-61.5" font-family="Helvetica,sans-Serif" font-size="10.00" fill="#000000">stdint.h</text>
</g>
<!-- Node2&#45;&gt;Node7 -->
<g id="edge7" class="edge">
<title>Node2&#45;&gt;Node7</title>
<path fill="none" stroke="#191970" d="M1453.1015,-117.8566C1554.739,-112.423 1874.2013,-94.3136 1997.3326,-73.8432"/>
<polygon fill="#191970" stroke="#191970" points="1997.9943,-77.2807 2007.2424,-72.1115 1996.7892,-70.3852 1997.9943,-77.2807"/>
</g>
<!-- Node8 -->
<g id="node9" class="node">
<title>Node8</title>
<polygon fill="#ffffff" stroke="#bfbfbf" points="2074.2241,-55.5 2074.2241,-73.5 2123.0171,-73.5 2123.0171,-55.5 2074.2241,-55.5"/>
<text text-anchor="middle" x="2098.6206" y="-61.5" font-family="Helvetica,sans-Serif" font-size="10.00" fill="#000000">string.h</text>
</g>
<!-- Node2&#45;&gt;Node8 -->
<g id="edge8" class="edge">
<title>Node2&#45;&gt;Node8</title>
<path fill="none" stroke="#191970" d="M1453.1248,-118.1146C1562.5469,-113.1742 1926.468,-95.6381 2063.9796,-73.6938"/>
<polygon fill="#191970" stroke="#191970" points="2064.5855,-77.1411 2073.8704,-72.0381 2063.4298,-70.2372 2064.5855,-77.1411"/>
</g>
<!-- Node9 -->
<g id="node10" class="node">
<title>Node9</title>
<polygon fill="#ffffff" stroke="#bfbfbf" points="2178.7241,-55.5 2178.7241,-73.5 2232.5171,-73.5 2232.5171,-55.5 2178.7241,-55.5"/>
<text text-anchor="middle" x="2205.6206" y="-61.5" font-family="Helvetica,sans-Serif" font-size="10.00" fill="#000000">strings.h</text>
</g>
<!-- Node2&#45;&gt;Node9 -->
<g id="edge9" class="edge">
<title>Node2&#45;&gt;Node9</title>
<path fill="none" stroke="#191970" d="M1453.2216,-118.2675C1576.3305,-113.3573 2023.9425,-94.46 2164.6206,-74 2165.8814,-73.8166 2167.1607,-73.6142 2168.4501,-73.396"/>
<polygon fill="#191970" stroke="#191970" points="2169.2392,-76.8084 2178.3937,-71.475 2167.9113,-69.9355 2169.2392,-76.8084"/>
</g>
<!-- Node10 -->
<g id="node11" class="node">
<title>Node10</title>
<polygon fill="#ffffff" stroke="#bfbfbf" points="2250.4927,-55.5 2250.4927,-73.5 2308.7485,-73.5 2308.7485,-55.5 2250.4927,-55.5"/>
<text text-anchor="middle" x="2279.6206" y="-61.5" font-family="Helvetica,sans-Serif" font-size="10.00" fill="#000000">pthread.h</text>
</g>
<!-- Node2&#45;&gt;Node10 -->
<g id="edge10" class="edge">
<title>Node2&#45;&gt;Node10</title>
<path fill="none" stroke="#191970" d="M1453.3326,-118.5449C1581.9706,-114.5491 2065.8941,-98.308 2240.2289,-73.8898"/>
<polygon fill="#191970" stroke="#191970" points="2240.8853,-77.3311 2250.2735,-72.4208 2239.8723,-70.4048 2240.8853,-77.3311"/>
</g>
<!-- Node11 -->
<g id="node12" class="node">
<title>Node11</title>
<polygon fill="#ffffff" stroke="#bfbfbf" points="99.5,-55.5 99.5,-73.5 147.7412,-73.5 147.7412,-55.5 99.5,-55.5"/>
<text text-anchor="middle" x="123.6206" y="-61.5" font-family="Helvetica,sans-Serif" font-size="10.00" fill="#000000">ctype.h</text>
</g>
<!-- Node2&#45;&gt;Node11 -->
<g id="edge11" class="edge">
<title>Node2&#45;&gt;Node11</title>
<path fill="none" stroke="#191970" d="M1390.1096,-119.4085C1221.6558,-118.7635 425.4161,-113.7104 158.0283,-73.7882"/>
<polygon fill="#191970" stroke="#191970" points="158.3965,-70.3036 147.9784,-72.2308 157.3245,-77.221 158.3965,-70.3036"/>
</g>
<!-- Node12 -->
<g id="node13" class="node">
<title>Node12</title>
<polygon fill="#ffffff" stroke="#bfbfbf" points="165.7783,-55.5 165.7783,-73.5 213.4629,-73.5 213.4629,-55.5 165.7783,-55.5"/>
<text text-anchor="middle" x="189.6206" y="-61.5" font-family="Helvetica,sans-Serif" font-size="10.00" fill="#000000">errno.h</text>
</g>
<!-- Node2&#45;&gt;Node12 -->
<g id="edge12" class="edge">
<title>Node2&#45;&gt;Node12</title>
<path fill="none" stroke="#191970" d="M1390.1107,-119.3724C1227.0358,-118.552 477.0364,-112.7867 223.8227,-73.9496"/>
<polygon fill="#191970" stroke="#191970" points="224.0089,-70.4351 213.5823,-72.3154 222.9058,-77.3476 224.0089,-70.4351"/>
</g>
<!-- Node13 -->
<g id="node14" class="node">
<title>Node13</title>
<polygon fill="#ffffff" stroke="#bfbfbf" points="231.0049,-55.5 231.0049,-73.5 274.2363,-73.5 274.2363,-55.5 231.0049,-55.5"/>
<text text-anchor="middle" x="252.6206" y="-61.5" font-family="Helvetica,sans-Serif" font-size="10.00" fill="#000000">time.h</text>
</g>
<!-- Node2&#45;&gt;Node13 -->
<g id="edge13" class="edge">
<title>Node2&#45;&gt;Node13</title>
<path fill="none" stroke="#191970" d="M1390.166,-119.3343C1232.3807,-118.3393 525.5196,-111.8999 284.5592,-73.6262"/>
<polygon fill="#191970" stroke="#191970" points="284.9045,-70.1358 274.4674,-71.9572 283.7623,-77.042 284.9045,-70.1358"/>
</g>
<!-- Node14 -->
<g id="node15" class="node">
<title>Node14</title>
<polygon fill="#ffffff" stroke="#bfbfbf" points="292.2808,-55.5 292.2808,-73.5 334.9604,-73.5 334.9604,-55.5 292.2808,-55.5"/>
<text text-anchor="middle" x="313.6206" y="-61.5" font-family="Helvetica,sans-Serif" font-size="10.00" fill="#000000">fcntl.h</text>
</g>
<!-- Node2&#45;&gt;Node14 -->
<g id="edge14" class="edge">
<title>Node2&#45;&gt;Node14</title>
<path fill="none" stroke="#191970" d="M1390.0778,-119.2511C1237.3682,-117.8833 573.2589,-110.029 345.0176,-73.5077"/>
<polygon fill="#191970" stroke="#191970" points="345.5699,-70.0515 335.1305,-71.8598 344.419,-76.9563 345.5699,-70.0515"/>
</g>
<!-- Node15 -->
<g id="node16" class="node">
<title>Node15</title>
<polygon fill="#ffffff" stroke="#bfbfbf" points="353.3867,-55.5 353.3867,-73.5 403.8545,-73.5 403.8545,-55.5 353.3867,-55.5"/>
<text text-anchor="middle" x="378.6206" y="-61.5" font-family="Helvetica,sans-Serif" font-size="10.00" fill="#000000">signal.h</text>
</g>
<!-- Node2&#45;&gt;Node15 -->
<g id="edge15" class="edge">
<title>Node2&#45;&gt;Node15</title>
<path fill="none" stroke="#191970" d="M1389.8847,-119.0397C1243.0343,-116.7638 627.9006,-105.5909 414.271,-73.8655"/>
<polygon fill="#191970" stroke="#191970" points="414.5199,-70.3624 404.102,-72.2902 413.4483,-77.2799 414.5199,-70.3624"/>
</g>
<!-- Node16 -->
<g id="node17" class="node">
<title>Node16</title>
<polygon fill="#ffffff" stroke="#bfbfbf" points="1045.1157,-.5 1045.1157,-18.5 1106.1255,-18.5 1106.1255,-.5 1045.1157,-.5"/>
<text text-anchor="middle" x="1075.6206" y="-6.5" font-family="Helvetica,sans-Serif" font-size="10.00" fill="#000000">sys/time.h</text>
</g>
<!-- Node2&#45;&gt;Node16 -->
<g id="edge16" class="edge">
<title>Node2&#45;&gt;Node16</title>
<path fill="none" stroke="#191970" d="M1453.0367,-116.6519C1502.0343,-111.4871 1593.0782,-98.7447 1612.6206,-74 1617.8543,-67.373 1618.3341,-61.2181 1612.6206,-55 1579.2455,-18.6774 1236.4502,-11.3216 1116.6654,-9.857"/>
<polygon fill="#191970" stroke="#191970" points="1116.4833,-6.3548 1106.4438,-9.7399 1116.403,-13.3543 1116.4833,-6.3548"/>
</g>
<!-- Node17 -->
<g id="node18" class="node">
<title>Node17</title>
<polygon fill="#ffffff" stroke="#bfbfbf" points="483.5024,-55.5 483.5024,-73.5 541.7388,-73.5 541.7388,-55.5 483.5024,-55.5"/>
<text text-anchor="middle" x="512.6206" y="-61.5" font-family="Helvetica,sans-Serif" font-size="10.00" fill="#000000">sys/stat.h</text>
</g>
<!-- Node2&#45;&gt;Node17 -->
<g id="edge17" class="edge">
<title>Node2&#45;&gt;Node17</title>
<path fill="none" stroke="#191970" d="M1390.256,-118.6727C1257.1046,-115.0381 737.3845,-99.5827 552.1108,-73.8981"/>
<polygon fill="#191970" stroke="#191970" points="552.3644,-70.3984 541.9662,-72.4304 551.362,-77.3263 552.3644,-70.3984"/>
</g>
<!-- Node18 -->
<g id="node19" class="node">
<title>Node18</title>
<polygon fill="#ffffff" stroke="#bfbfbf" points="559.6108,-55.5 559.6108,-73.5 625.6304,-73.5 625.6304,-55.5 559.6108,-55.5"/>
<text text-anchor="middle" x="592.6206" y="-61.5" font-family="Helvetica,sans-Serif" font-size="10.00" fill="#000000">sys/types.h</text>
</g>
<!-- Node2&#45;&gt;Node18 -->
<g id="edge18" class="edge">
<title>Node2&#45;&gt;Node18</title>
<path fill="none" stroke="#191970" d="M1389.9085,-118.3653C1264.7042,-113.7795 803.8159,-95.8736 636.1401,-73.9532"/>
<polygon fill="#191970" stroke="#191970" points="636.3806,-70.4537 625.9995,-72.5712 635.4352,-77.3896 636.3806,-70.4537"/>
</g>
<!-- Node19 -->
<g id="node20" class="node">
<title>Node19</title>
<polygon fill="#ffffff" stroke="#bfbfbf" points="643.6699,-55.5 643.6699,-73.5 703.5713,-73.5 703.5713,-55.5 643.6699,-55.5"/>
<text text-anchor="middle" x="673.6206" y="-61.5" font-family="Helvetica,sans-Serif" font-size="10.00" fill="#000000">sys/ioctl.h</text>
</g>
<!-- Node2&#45;&gt;Node19 -->
<g id="edge19" class="edge">
<title>Node2&#45;&gt;Node19</title>
<path fill="none" stroke="#191970" d="M1390.1981,-118.2443C1273.4991,-113.466 864.3688,-95.6605 713.7676,-74.0637"/>
<polygon fill="#191970" stroke="#191970" points="714.2112,-70.5912 703.8026,-72.5692 713.1729,-77.5138 714.2112,-70.5912"/>
</g>
<!-- Node20 -->
<g id="node21" class="node">
<title>Node20</title>
<polygon fill="#ffffff" stroke="#bfbfbf" points="721.1108,-55.5 721.1108,-73.5 792.1304,-73.5 792.1304,-55.5 721.1108,-55.5"/>
<text text-anchor="middle" x="756.6206" y="-61.5" font-family="Helvetica,sans-Serif" font-size="10.00" fill="#000000">sys/socket.h</text>
</g>
<!-- Node2&#45;&gt;Node20 -->
<g id="edge20" class="edge">
<title>Node2&#45;&gt;Node20</title>
<path fill="none" stroke="#191970" d="M1390.1131,-118.7431C1299.8944,-116.2476 1032.763,-106.569 802.4653,-74.1014"/>
<polygon fill="#191970" stroke="#191970" points="802.9593,-70.6365 792.565,-72.6881 801.9701,-77.5662 802.9593,-70.6365"/>
</g>
<!-- Node21 -->
<g id="node22" class="node">
<title>Node21</title>
<polygon fill="#ffffff" stroke="#bfbfbf" points="810,-55.5 810,-73.5 883.2412,-73.5 883.2412,-55.5 810,-55.5"/>
<text text-anchor="middle" x="846.6206" y="-61.5" font-family="Helvetica,sans-Serif" font-size="10.00" fill="#000000">sys/sysinfo.h</text>
</g>
<!-- Node2&#45;&gt;Node21 -->
<g id="edge21" class="edge">
<title>Node2&#45;&gt;Node21</title>
<path fill="none" stroke="#191970" d="M1390.1026,-118.1427C1309.1747,-114.3712 1087.3469,-102.2279 893.4776,-74.126"/>
<polygon fill="#191970" stroke="#191970" points="893.7937,-70.6349 883.3914,-72.6456 892.7771,-77.5607 893.7937,-70.6349"/>
</g>
<!-- Node22 -->
<g id="node23" class="node">
<title>Node22</title>
<polygon fill="#ffffff" stroke="#bfbfbf" points="900.9927,-55.5 900.9927,-73.5 964.2485,-73.5 964.2485,-55.5 900.9927,-55.5"/>
<text text-anchor="middle" x="932.6206" y="-61.5" font-family="Helvetica,sans-Serif" font-size="10.00" fill="#000000">arpa/inet.h</text>
</g>
<!-- Node2&#45;&gt;Node22 -->
<g id="edge22" class="edge">
<title>Node2&#45;&gt;Node22</title>
<path fill="none" stroke="#191970" d="M1390.2095,-117.6811C1318.3794,-113.2297 1136.4954,-100.3024 974.4749,-73.9373"/>
<polygon fill="#191970" stroke="#191970" points="974.7617,-70.4374 964.3255,-72.2636 973.6227,-77.3441 974.7617,-70.4374"/>
</g>
<!-- Node23 -->
<g id="node24" class="node">
<title>Node23</title>
<polygon fill="#ffffff" stroke="#bfbfbf" points="982.1577,-55.5 982.1577,-73.5 1047.0835,-73.5 1047.0835,-55.5 982.1577,-55.5"/>
<text text-anchor="middle" x="1014.6206" y="-61.5" font-family="Helvetica,sans-Serif" font-size="10.00" fill="#000000">netinet/in.h</text>
</g>
<!-- Node2&#45;&gt;Node23 -->
<g id="edge23" class="edge">
<title>Node2&#45;&gt;Node23</title>
<path fill="none" stroke="#191970" d="M1390.1222,-116.6982C1328.1808,-110.9498 1186.0203,-96.5781 1057.2654,-74.1479"/>
<polygon fill="#191970" stroke="#191970" points="1057.6873,-70.6684 1047.2314,-72.3784 1056.4716,-77.562 1057.6873,-70.6684"/>
</g>
<!-- Node24 -->
<g id="node25" class="node">
<title>Node24</title>
<polygon fill="#ffffff" stroke="#bfbfbf" points="1064.7637,-55.5 1064.7637,-73.5 1142.4775,-73.5 1142.4775,-55.5 1064.7637,-55.5"/>
<text text-anchor="middle" x="1103.6206" y="-61.5" font-family="Helvetica,sans-Serif" font-size="10.00" fill="#000000">net/ethernet.h</text>
</g>
<!-- Node2&#45;&gt;Node24 -->
<g id="edge24" class="edge">
<title>Node2&#45;&gt;Node24</title>
<path fill="none" stroke="#191970" d="M1389.9783,-114.467C1341.2722,-106.6549 1244.7525,-90.9172 1152.68,-74.1542"/>
<polygon fill="#191970" stroke="#191970" points="1153.102,-70.6734 1142.6356,-72.3181 1151.8432,-77.5593 1153.102,-70.6734"/>
</g>
<!-- Node25 -->
<g id="node26" class="node">
<title>Node25</title>
<polygon fill="#ffffff" stroke="#bfbfbf" points="1160.1577,-55.5 1160.1577,-73.5 1225.0835,-73.5 1225.0835,-55.5 1160.1577,-55.5"/>
<text text-anchor="middle" x="1192.6206" y="-61.5" font-family="Helvetica,sans-Serif" font-size="10.00" fill="#000000">netinet/ip.h</text>
</g>
<!-- Node2&#45;&gt;Node25 -->
<g id="edge25" class="edge">
<title>Node2&#45;&gt;Node25</title>
<path fill="none" stroke="#191970" d="M1390.2593,-111.9678C1350.059,-102.3127 1280.1936,-85.5328 1235.2087,-74.7286"/>
<polygon fill="#191970" stroke="#191970" points="1235.9935,-71.3176 1225.4526,-72.3854 1234.3587,-78.124 1235.9935,-71.3176"/>
</g>
<!-- Node26 -->
<g id="node27" class="node">
<title>Node26</title>
<polygon fill="#ffffff" stroke="#bfbfbf" points="1243.3794,-55.5 1243.3794,-73.5 1313.8618,-73.5 1313.8618,-55.5 1243.3794,-55.5"/>
<text text-anchor="middle" x="1278.6206" y="-61.5" font-family="Helvetica,sans-Serif" font-size="10.00" fill="#000000">netinet/tcp.h</text>
</g>
<!-- Node2&#45;&gt;Node26 -->
<g id="edge26" class="edge">
<title>Node2&#45;&gt;Node26</title>
<path fill="none" stroke="#191970" d="M1398.0071,-110.4179C1374.5129,-101.3817 1338.2523,-87.4353 1311.8558,-77.2828"/>
<polygon fill="#191970" stroke="#191970" points="1312.8591,-73.9188 1302.2692,-73.5956 1310.3462,-80.4522 1312.8591,-73.9188"/>
</g>
<!-- Node27 -->
<g id="node28" class="node">
<title>Node27</title>
<polygon fill="#ffffff" stroke="#bfbfbf" points="1331.8203,-55.5 1331.8203,-73.5 1423.4209,-73.5 1423.4209,-55.5 1331.8203,-55.5"/>
<text text-anchor="middle" x="1377.6206" y="-61.5" font-family="Helvetica,sans-Serif" font-size="10.00" fill="#000000">netinet/ip_icmp.h</text>
</g>
<!-- Node2&#45;&gt;Node27 -->
<g id="edge27" class="edge">
<title>Node2&#45;&gt;Node27</title>
<path fill="none" stroke="#191970" d="M1414.3549,-110.4179C1408.1505,-102.6624 1399.0526,-91.29 1391.4634,-81.8035"/>
<polygon fill="#191970" stroke="#191970" points="1394.0242,-79.4017 1385.0442,-73.7795 1388.5581,-83.7746 1394.0242,-79.4017"/>
</g>
<!-- Node28 -->
<g id="node29" class="node">
<title>Node28</title>
<g id="a_node29"><a xlink:href="mac2int_8h.html" target="_top" xlink:title="mac2int.h">
<polygon fill="#ffffff" stroke="#000000" points="2326.9434,-55.5 2326.9434,-73.5 2386.2979,-73.5 2386.2979,-55.5 2326.9434,-55.5"/>
<text text-anchor="middle" x="2356.6206" y="-61.5" font-family="Helvetica,sans-Serif" font-size="10.00" fill="#000000">mac2int.h</text>
</a>
</g>
</g>
<!-- Node2&#45;&gt;Node28 -->
<g id="edge28" class="edge">
<title>Node2&#45;&gt;Node28</title>
<path fill="none" stroke="#191970" d="M1453.1162,-118.6131C1590.6072,-114.8091 2137.7344,-98.9252 2308.6206,-74 2311.2453,-73.6172 2313.9517,-73.1382 2316.687,-72.6"/>
<polygon fill="#191970" stroke="#191970" points="2317.5862,-75.9867 2326.6244,-70.4586 2316.1115,-69.1438 2317.5862,-75.9867"/>
</g>
<!-- Node29 -->
<g id="node30" class="node">
<title>Node29</title>
<g id="a_node30"><a xlink:href="ip2int_8h.html" target="_top" xlink:title="ip2int.h">
<polygon fill="#ffffff" stroke="#000000" points="1441.4976,-55.5 1441.4976,-73.5 1489.7437,-73.5 1489.7437,-55.5 1441.4976,-55.5"/>
<text text-anchor="middle" x="1465.6206" y="-61.5" font-family="Helvetica,sans-Serif" font-size="10.00" fill="#000000">ip2int.h</text>
</a>
</g>
</g>
<!-- Node2&#45;&gt;Node29 -->
<g id="edge30" class="edge">
<title>Node2&#45;&gt;Node29</title>
<path fill="none" stroke="#191970" d="M1423.72,-110.4179C1428.4119,-102.5041 1437.389,-90.8243 1445.9739,-81.2251"/>
<polygon fill="#191970" stroke="#191970" points="1448.6793,-83.4576 1452.9903,-73.7795 1443.5849,-78.6569 1448.6793,-83.4576"/>
</g>
<!-- Node30 -->
<g id="node31" class="node">
<title>Node30</title>
<g id="a_node31"><a xlink:href="database_8h.html" target="_top" xlink:title="database.h">
<polygon fill="#ffffff" stroke="#000000" points="1923.877,-55.5 1923.877,-73.5 1989.3643,-73.5 1989.3643,-55.5 1923.877,-55.5"/>
<text text-anchor="middle" x="1956.6206" y="-61.5" font-family="Helvetica,sans-Serif" font-size="10.00" fill="#000000">database.h</text>
</a>
</g>
</g>
<!-- Node2&#45;&gt;Node30 -->
<g id="edge32" class="edge">
<title>Node2&#45;&gt;Node30</title>
<path fill="none" stroke="#191970" d="M1452.9899,-117.7852C1530.4353,-113.5483 1735.8333,-100.9195 1905.6206,-74 1908.2303,-73.5862 1910.9199,-73.1057 1913.6414,-72.5846"/>
<polygon fill="#191970" stroke="#191970" points="1914.4488,-75.9921 1923.5494,-70.5673 1913.0521,-69.1328 1914.4488,-75.9921"/>
</g>
<!-- Node32 -->
<g id="node33" class="node">
<title>Node32</title>
<polygon fill="#ffffff" stroke="#bfbfbf" points="1545.2168,-55.5 1545.2168,-73.5 1604.0244,-73.5 1604.0244,-55.5 1545.2168,-55.5"/>
<text text-anchor="middle" x="1574.6206" y="-61.5" font-family="Helvetica,sans-Serif" font-size="10.00" fill="#000000">jansson.h</text>
</g>
<!-- Node2&#45;&gt;Node32 -->
<g id="edge36" class="edge">
<title>Node2&#45;&gt;Node32</title>
<path fill="none" stroke="#191970" d="M1446.8854,-110.4179C1472.3199,-101.2748 1511.7387,-87.1046 1540.0592,-76.924"/>
<polygon fill="#191970" stroke="#191970" points="1541.3461,-80.1808 1549.5725,-73.5042 1538.9781,-73.5935 1541.3461,-80.1808"/>
</g>
<!-- Node33 -->
<g id="node34" class="node">
<title>Node33</title>
<g id="a_node34"><a xlink:href="libcli_8h.html" target="_top" xlink:title="libcli.h">
<polygon fill="#ffffff" stroke="#000000" points="421.7266,-55.5 421.7266,-73.5 465.5146,-73.5 465.5146,-55.5 421.7266,-55.5"/>
<text text-anchor="middle" x="443.6206" y="-61.5" font-family="Helvetica,sans-Serif" font-size="10.00" fill="#000000">libcli.h</text>
</a>
</g>
</g>
<!-- Node2&#45;&gt;Node33 -->
<g id="edge37" class="edge">
<title>Node2&#45;&gt;Node33</title>
<path fill="none" stroke="#191970" d="M1389.9239,-119.0374C1248.8378,-116.8185 676.4667,-106.0882 475.9286,-73.7326"/>
<polygon fill="#191970" stroke="#191970" points="476.2528,-70.2379 465.8098,-72.0252 475.0881,-77.1403 476.2528,-70.2379"/>
</g>
<!-- Node34 -->
<g id="node35" class="node">
<title>Node34</title>
<polygon fill="#ffffff" stroke="#bfbfbf" points="1659.394,-55.5 1659.394,-73.5 1709.8472,-73.5 1709.8472,-55.5 1659.394,-55.5"/>
<text text-anchor="middle" x="1684.6206" y="-61.5" font-family="Helvetica,sans-Serif" font-size="10.00" fill="#000000">mysql.h</text>
</g>
<!-- Node2&#45;&gt;Node34 -->
<g id="edge41" class="edge">
<title>Node2&#45;&gt;Node34</title>
<path fill="none" stroke="#191970" d="M1453.2337,-113.477C1496.6868,-105.1075 1577.2631,-89.2622 1645.6206,-74 1646.7088,-73.757 1647.8134,-73.5073 1648.9279,-73.2527"/>
<polygon fill="#191970" stroke="#191970" points="1650.1236,-76.5673 1659.0598,-70.8756 1648.5247,-69.7523 1650.1236,-76.5673"/>
</g>
<!-- Node35 -->
<g id="node36" class="node">
<title>Node35</title>
<polygon fill="#ffffff" stroke="#bfbfbf" points="1728.0049,-55.5 1728.0049,-73.5 1771.2363,-73.5 1771.2363,-55.5 1728.0049,-55.5"/>
<text text-anchor="middle" x="1749.6206" y="-61.5" font-family="Helvetica,sans-Serif" font-size="10.00" fill="#000000">zmq.h</text>
</g>
<!-- Node2&#45;&gt;Node35 -->
<g id="edge42" class="edge">
<title>Node2&#45;&gt;Node35</title>
<path fill="none" stroke="#191970" d="M1453.1177,-116.1995C1505.9529,-110.3355 1615.8667,-96.7356 1717.8675,-73.8855"/>
<polygon fill="#191970" stroke="#191970" points="1718.7376,-77.277 1727.7116,-71.6452 1717.1843,-70.4515 1718.7376,-77.277"/>
</g>
<!-- Node36 -->
<g id="node37" class="node">
<title>Node36</title>
<g id="a_node37"><a xlink:href="src_2include_2type_8h.html" target="_top" xlink:title="type.h">
<polygon fill="#ffffff" stroke="#000000" points="0,-55.5 0,-73.5 43.2412,-73.5 43.2412,-55.5 0,-55.5"/>
<text text-anchor="middle" x="21.6206" y="-61.5" font-family="Helvetica,sans-Serif" font-size="10.00" fill="#000000">type.h</text>
</a>
</g>
</g>
<!-- Node2&#45;&gt;Node36 -->
<g id="edge43" class="edge">
<title>Node2&#45;&gt;Node36</title>
<path fill="none" stroke="#191970" d="M1390.0318,-119.4092C1211.4628,-118.75 326.9193,-113.5103 57.6206,-74 56.3255,-73.81 55.0101,-73.5906 53.6856,-73.3477"/>
<polygon fill="#191970" stroke="#191970" points="54.0609,-69.8468 43.543,-71.1213 52.56,-76.684 54.0609,-69.8468"/>
</g>
<!-- Node28&#45;&gt;Node2 -->
<g id="edge29" class="edge">
<title>Node28&#45;&gt;Node2</title>
<path fill="none" stroke="#191970" d="M2329.5444,-73.5404C2328.5625,-73.7054 2327.586,-73.8592 2326.6206,-74 2157.1243,-98.7225 1617.483,-114.5501 1463.1364,-118.5179"/>
<polygon fill="#191970" stroke="#191970" points="1463.0243,-115.0195 1453.1165,-118.7725 1463.2023,-122.0172 1463.0243,-115.0195"/>
</g>
<!-- Node29&#45;&gt;Node2 -->
<g id="edge31" class="edge">
<title>Node29&#45;&gt;Node2</title>
<path fill="none" stroke="#191970" d="M1463.4038,-73.7795C1458.6412,-81.7552 1449.6323,-93.4485 1441.0542,-103.0129"/>
<polygon fill="#191970" stroke="#191970" points="1438.3798,-100.747 1434.0526,-110.4179 1443.4662,-105.5563 1438.3798,-100.747"/>
</g>
<!-- Node30&#45;&gt;Node2 -->
<g id="edge33" class="edge">
<title>Node30&#45;&gt;Node2</title>
<path fill="none" stroke="#191970" d="M1926.3026,-73.5565C1925.4019,-73.7113 1924.5066,-73.8595 1923.6206,-74 1754.5194,-100.8107 1550.0946,-113.446 1463.4554,-117.7335"/>
<polygon fill="#191970" stroke="#191970" points="1463.0598,-114.2484 1453.2403,-118.2268 1463.3976,-121.2402 1463.0598,-114.2484"/>
</g>
<!-- Node31 -->
<g id="node32" class="node">
<title>Node31</title>
<g id="a_node32"><a xlink:href="str_8h.html" target="_top" xlink:title="str.h">
<polygon fill="#ffffff" stroke="#000000" points="2133.1699,-.5 2133.1699,-18.5 2168.0713,-18.5 2168.0713,-.5 2133.1699,-.5"/>
<text text-anchor="middle" x="2150.6206" y="-6.5" font-family="Helvetica,sans-Serif" font-size="10.00" fill="#000000">str.h</text>
</a>
</g>
</g>
<!-- Node30&#45;&gt;Node31 -->
<g id="edge34" class="edge">
<title>Node30&#45;&gt;Node31</title>
<path fill="none" stroke="#191970" d="M1988.6558,-55.4179C2026.269,-44.7543 2088.0015,-27.2528 2123.3983,-17.2177"/>
<polygon fill="#191970" stroke="#191970" points="2124.3961,-20.5728 2133.0622,-14.4779 2122.4867,-13.8382 2124.3961,-20.5728"/>
</g>
<!-- Node31&#45;&gt;Node2 -->
<g id="edge35" class="edge">
<title>Node31&#45;&gt;Node2</title>
<path fill="none" stroke="#191970" d="M2150.9393,-18.7544C2150.875,-33.137 2148.4011,-60.5916 2131.6206,-74 2105.3825,-94.9656 1611.093,-113.1536 1463.1256,-118.1466"/>
<polygon fill="#191970" stroke="#191970" points="1462.9588,-114.6502 1453.0817,-118.4832 1463.1933,-121.6462 1462.9588,-114.6502"/>
</g>
<!-- Node33&#45;&gt;Node3 -->
<g id="edge39" class="edge">
<title>Node33&#45;&gt;Node3</title>
<path fill="none" stroke="#191970" d="M425.4563,-55.4179C407.8616,-46.6205 380.9588,-33.1691 360.8118,-23.0956"/>
<polygon fill="#191970" stroke="#191970" points="362.3214,-19.9373 351.8119,-18.5956 359.1909,-26.1983 362.3214,-19.9373"/>
</g>
<!-- Node33&#45;&gt;Node6 -->
<g id="edge38" class="edge">
<title>Node33&#45;&gt;Node6</title>
<path fill="none" stroke="#191970" d="M461.6197,-55.4179C478.9756,-46.6603 505.4717,-33.2907 525.4052,-23.2326"/>
<polygon fill="#191970" stroke="#191970" points="527.2436,-26.2253 534.5947,-18.5956 524.0902,-19.9758 527.2436,-26.2253"/>
</g>
<!-- Node33&#45;&gt;Node16 -->
<g id="edge40" class="edge">
<title>Node33&#45;&gt;Node16</title>
<path fill="none" stroke="#191970" d="M465.8236,-57.0504C468.7574,-56.2568 471.7443,-55.5426 474.6206,-55 582.559,-34.6368 917.6684,-17.0716 1034.747,-11.4107"/>
<polygon fill="#191970" stroke="#191970" points="1035.2404,-14.8912 1045.061,-10.9156 1034.9047,-7.8992 1035.2404,-14.8912"/>
</g>
<!-- Node37&#45;&gt;Node2 -->
<g id="edge45" class="edge">
<title>Node37&#45;&gt;Node2</title>
<path fill="none" stroke="#191970" d="M1398.2442,-165.4179C1402.0313,-157.9789 1407.5125,-147.2123 1412.2156,-137.9742"/>
<polygon fill="#191970" stroke="#191970" points="1415.4787,-139.279 1416.8965,-128.7795 1409.2406,-136.1032 1415.4787,-139.279"/>
</g>
<!-- Node39&#45;&gt;Node36 -->
<g id="edge48" class="edge">
<title>Node39&#45;&gt;Node36</title>
<path fill="none" stroke="#191970" d="M253.1928,-112.0459C204.8718,-103.7133 125.4538,-89.3601 57.6206,-74 56.1627,-73.6699 54.6745,-73.3219 53.1732,-72.9619"/>
<polygon fill="#191970" stroke="#191970" points="53.8127,-69.514 43.2616,-70.4757 52.1096,-76.3036 53.8127,-69.514"/>
</g>
<!-- Node40&#45;&gt;Node2 -->
<g id="edge50" class="edge">
<title>Node40&#45;&gt;Node2</title>
<path fill="none" stroke="#191970" d="M1447.3292,-220.4982C1442.7761,-202.6108 1432.5048,-162.2594 1426.4129,-138.3271"/>
<polygon fill="#191970" stroke="#191970" points="1429.8023,-137.4537 1423.9436,-128.6261 1423.0187,-139.1805 1429.8023,-137.4537"/>
</g>
<!-- Node40&#45;&gt;Node31 -->
<g id="edge54" class="edge">
<title>Node40&#45;&gt;Node31</title>
<path fill="none" stroke="#191970" d="M1485.9405,-221.6782C1488.8739,-221.0935 1491.7948,-220.5269 1494.6206,-220 1694.0175,-182.8188 2264.1658,-228.4707 2395.6206,-74 2401.0934,-67.569 2401.0191,-61.4934 2395.6206,-55 2368.2737,-22.1068 2236.979,-12.8813 2178.6502,-10.386"/>
<polygon fill="#191970" stroke="#191970" points="2178.4581,-6.8759 2168.3291,-9.9829 2178.1849,-13.8706 2178.4581,-6.8759"/>
</g>
<!-- Node40&#45;&gt;Node37 -->
<g id="edge51" class="edge">
<title>Node40&#45;&gt;Node37</title>
<path fill="none" stroke="#191970" d="M1440.3733,-220.4179C1432.2351,-212.425 1420.1853,-200.5903 1410.3572,-190.9377"/>
<polygon fill="#191970" stroke="#191970" points="1412.6558,-188.2895 1403.0688,-183.7795 1407.7508,-193.2836 1412.6558,-188.2895"/>
</g>
<!-- Node41 -->
<g id="node42" class="node">
<title>Node41</title>
<g id="a_node42"><a xlink:href="hash_8h.html" target="_top" xlink:title="hash.h">
<polygon fill="#ffffff" stroke="#000000" points="1477.6084,-165.5 1477.6084,-183.5 1523.6328,-183.5 1523.6328,-165.5 1477.6084,-165.5"/>
<text text-anchor="middle" x="1500.6206" y="-171.5" font-family="Helvetica,sans-Serif" font-size="10.00" fill="#000000">hash.h</text>
</a>
</g>
</g>
<!-- Node40&#45;&gt;Node41 -->
<g id="edge52" class="edge">
<title>Node40&#45;&gt;Node41</title>
<path fill="none" stroke="#191970" d="M1458.0422,-220.4179C1465.3804,-212.5041 1476.2108,-200.8243 1485.1119,-191.2251"/>
<polygon fill="#191970" stroke="#191970" points="1487.783,-193.492 1492.016,-183.7795 1482.6501,-188.7324 1487.783,-193.492"/>
</g>
<!-- Node41&#45;&gt;Node2 -->
<g id="edge53" class="edge">
<title>Node41&#45;&gt;Node2</title>
<path fill="none" stroke="#191970" d="M1487.5754,-165.4179C1475.4537,-156.9788 1457.1806,-144.257 1442.9399,-134.3426"/>
<polygon fill="#191970" stroke="#191970" points="1444.892,-131.4369 1434.6852,-128.5956 1440.8924,-137.1818 1444.892,-131.4369"/>
</g>
<!-- Node43&#45;&gt;Node28 -->
<g id="edge59" class="edge">
<title>Node43&#45;&gt;Node28</title>
<path fill="none" stroke="#191970" d="M1701.0297,-220.4643C1800.6712,-197.006 2075.8678,-132.1047 2316.8152,-74.1839"/>
<polygon fill="#191970" stroke="#191970" points="2317.9099,-77.5205 2326.8145,-71.7795 2316.2733,-70.7145 2317.9099,-77.5205"/>
</g>
<!-- Node44 -->
<g id="node45" class="node">
<title>Node44</title>
<g id="a_node45"><a xlink:href="base64_8h.html" target="_top" xlink:title="base64.h">
<polygon fill="#ffffff" stroke="#000000" points="1588.0469,-165.5 1588.0469,-183.5 1645.1943,-183.5 1645.1943,-165.5 1588.0469,-165.5"/>
<text text-anchor="middle" x="1616.6206" y="-171.5" font-family="Helvetica,sans-Serif" font-size="10.00" fill="#000000">base64.h</text>
</a>
</g>
</g>
<!-- Node43&#45;&gt;Node44 -->
<g id="edge57" class="edge">
<title>Node43&#45;&gt;Node44</title>
<path fill="none" stroke="#191970" d="M1655.0246,-220.4179C1648.4721,-212.5833 1638.8324,-201.0575 1630.8502,-191.5137"/>
<polygon fill="#191970" stroke="#191970" points="1633.482,-189.2048 1624.3816,-183.7795 1628.1124,-193.6957 1633.482,-189.2048"/>
</g>
<!-- Node44&#45;&gt;Node2 -->
<g id="edge58" class="edge">
<title>Node44&#45;&gt;Node2</title>
<path fill="none" stroke="#191970" d="M1587.8477,-166.3846C1554.7821,-157.0584 1500.2596,-141.6802 1462.7271,-131.0941"/>
<polygon fill="#191970" stroke="#191970" points="1463.6743,-127.7248 1453.0997,-128.3787 1461.774,-134.462 1463.6743,-127.7248"/>
</g>
</g>
</svg>
