<?xml version="1.0" encoding="UTF-8" standalone="no"?>
<!DOCTYPE svg PUBLIC "-//W3C//DTD SVG 1.1//EN"
 "http://www.w3.org/Graphics/SVG/1.1/DTD/svg11.dtd">
<!-- Generated by graphviz version 2.40.1 (20161225.0304)
 -->
<!-- Title: ext_apps/rbac/src/include/application_list.h Pages: 1 -->
<svg width="228pt" height="102pt"
 viewBox="0.00 0.00 228.32 102.00" xmlns="http://www.w3.org/2000/svg" xmlns:xlink="http://www.w3.org/1999/xlink">
<g id="graph0" class="graph" transform="scale(1 1) rotate(0) translate(4 98)">
<title>ext_apps/rbac/src/include/application_list.h</title>
<polygon fill="#ffffff" stroke="transparent" points="-4,4 -4,-98 224.3223,-98 224.3223,4 -4,4"/>
<!-- Node1 -->
<g id="node1" class="node">
<title>Node1</title>
<polygon fill="#bfbfbf" stroke="#000000" points="51.7759,-65.5 51.7759,-93.5 181.1694,-93.5 181.1694,-65.5 51.7759,-65.5"/>
<text text-anchor="start" x="59.7759" y="-81.5" font-family="Helvetica,sans-Serif" font-size="10.00" fill="#000000">ext_apps/rbac/src/include</text>
<text text-anchor="middle" x="116.4727" y="-71.5" font-family="Helvetica,sans-Serif" font-size="10.00" fill="#000000">/application_list.h</text>
</g>
<!-- Node2 -->
<g id="node2" class="node">
<title>Node2</title>
<g id="a_node2"><a xlink:href="ext__apps_2shim_2include_2shim_8h.html" target="_top" xlink:title="ext_apps/shim/include\l/shim.h">
<polygon fill="#ffffff" stroke="#000000" points="0,-.5 0,-28.5 114.9453,-28.5 114.9453,-.5 0,-.5"/>
<text text-anchor="start" x="8" y="-16.5" font-family="Helvetica,sans-Serif" font-size="10.00" fill="#000000">ext_apps/shim/include</text>
<text text-anchor="middle" x="57.4727" y="-6.5" font-family="Helvetica,sans-Serif" font-size="10.00" fill="#000000">/shim.h</text>
</a>
</g>
</g>
<!-- Node1&#45;&gt;Node2 -->
<g id="edge1" class="edge">
<title>Node1&#45;&gt;Node2</title>
<path fill="none" stroke="#191970" d="M96.7178,-57.7362C87.9884,-48.119 77.9763,-37.0888 70.2498,-28.5765"/>
<polygon fill="#191970" stroke="#191970" points="94.3578,-60.3438 103.6705,-65.396 99.541,-55.639 94.3578,-60.3438"/>
</g>
<!-- Node3 -->
<g id="node3" class="node">
<title>Node3</title>
<g id="a_node3"><a xlink:href="application_8c.html" target="_top" xlink:title="src/application.c">
<polygon fill="#ffffff" stroke="#000000" points="132.623,-5.5 132.623,-23.5 220.3223,-23.5 220.3223,-5.5 132.623,-5.5"/>
<text text-anchor="middle" x="176.4727" y="-11.5" font-family="Helvetica,sans-Serif" font-size="10.00" fill="#000000">src/application.c</text>
</a>
</g>
</g>
<!-- Node1&#45;&gt;Node3 -->
<g id="edge2" class="edge">
<title>Node1&#45;&gt;Node3</title>
<path fill="none" stroke="#191970" d="M136.5478,-57.752C147.2962,-46.1078 159.9602,-32.3885 168.0964,-23.5743"/>
<polygon fill="#191970" stroke="#191970" points="133.7028,-55.6739 129.4918,-65.396 138.8464,-60.4219 133.7028,-55.6739"/>
</g>
</g>
</svg>
