<?xml version="1.0" encoding="UTF-8" standalone="no"?>
<!DOCTYPE svg PUBLIC "-//W3C//DTD SVG 1.1//EN"
 "http://www.w3.org/Graphics/SVG/1.1/DTD/svg11.dtd">
<!-- Generated by graphviz version 2.40.1 (20161225.0304)
 -->
<!-- Title: ext_apps/l2_learning/src/include/l2_learning.h Pages: 1 -->
<svg width="262pt" height="102pt"
 viewBox="0.00 0.00 262.29 102.00" xmlns="http://www.w3.org/2000/svg" xmlns:xlink="http://www.w3.org/1999/xlink">
<g id="graph0" class="graph" transform="scale(1 1) rotate(0) translate(4 98)">
<title>ext_apps/l2_learning/src/include/l2_learning.h</title>
<polygon fill="#ffffff" stroke="transparent" points="-4,4 -4,-98 258.2925,-98 258.2925,4 -4,4"/>
<!-- Node41 -->
<g id="node1" class="node">
<title>Node41</title>
<polygon fill="#bfbfbf" stroke="#000000" points="68.8374,-65.5 68.8374,-93.5 195.4575,-93.5 195.4575,-65.5 68.8374,-65.5"/>
<text text-anchor="start" x="76.8374" y="-81.5" font-family="Helvetica,sans-Serif" font-size="10.00" fill="#000000">ext_apps/l2_learning</text>
<text text-anchor="middle" x="132.1475" y="-71.5" font-family="Helvetica,sans-Serif" font-size="10.00" fill="#000000">/src/include/l2_learning.h</text>
</g>
<!-- Node42 -->
<g id="node2" class="node">
<title>Node42</title>
<g id="a_node2"><a xlink:href="applications_2l2__learning_8c.html" target="_top" xlink:title="applications/l2_learning.c">
<polygon fill="#ffffff" stroke="#000000" points="0,-5.5 0,-23.5 128.2949,-23.5 128.2949,-5.5 0,-5.5"/>
<text text-anchor="middle" x="64.1475" y="-11.5" font-family="Helvetica,sans-Serif" font-size="10.00" fill="#000000">applications/l2_learning.c</text>
</a>
</g>
</g>
<!-- Node41&#45;&gt;Node42 -->
<g id="edge1" class="edge">
<title>Node41&#45;&gt;Node42</title>
<path fill="none" stroke="#191970" d="M110.096,-58.4214C97.768,-46.6373 83.0389,-32.558 73.6406,-23.5743"/>
<polygon fill="#191970" stroke="#191970" points="107.7453,-61.0162 117.3925,-65.396 112.5822,-55.9561 107.7453,-61.0162"/>
</g>
<!-- Node43 -->
<g id="node3" class="node">
<title>Node43</title>
<g id="a_node3"><a xlink:href="ext__apps_2l2__learning_2src_2l2__learning_8c.html" target="_top" xlink:title="ext_apps/l2_learning\l/src/l2_learning.c">
<polygon fill="#ffffff" stroke="#000000" points="146.0024,-.5 146.0024,-28.5 254.2925,-28.5 254.2925,-.5 146.0024,-.5"/>
<text text-anchor="start" x="154.0024" y="-16.5" font-family="Helvetica,sans-Serif" font-size="10.00" fill="#000000">ext_apps/l2_learning</text>
<text text-anchor="middle" x="200.1475" y="-6.5" font-family="Helvetica,sans-Serif" font-size="10.00" fill="#000000">/src/l2_learning.c</text>
</a>
</g>
</g>
<!-- Node41&#45;&gt;Node43 -->
<g id="edge2" class="edge">
<title>Node41&#45;&gt;Node43</title>
<path fill="none" stroke="#191970" d="M154.3139,-58.3115C164.5142,-48.5612 176.338,-37.259 185.4213,-28.5765"/>
<polygon fill="#191970" stroke="#191970" points="151.7128,-55.9561 146.9024,-65.396 156.5496,-61.0162 151.7128,-55.9561"/>
</g>
</g>
</svg>
