<?xml version="1.0" encoding="UTF-8" standalone="no"?>
<!DOCTYPE svg PUBLIC "-//W3C//DTD SVG 1.1//EN"
 "http://www.w3.org/Graphics/SVG/1.1/DTD/svg11.dtd">
<!-- Generated by graphviz version 2.40.1 (20161225.0304)
 -->
<!-- Title: ext_comps/shim/cli.c Pages: 1 -->
<svg width="1603pt" height="247pt"
 viewBox="0.00 0.00 1603.35 247.00" xmlns="http://www.w3.org/2000/svg" xmlns:xlink="http://www.w3.org/1999/xlink">
<g id="graph0" class="graph" transform="scale(1 1) rotate(0) translate(4 243)">
<title>ext_comps/shim/cli.c</title>
<polygon fill="#ffffff" stroke="transparent" points="-4,4 -4,-243 1599.3472,-243 1599.3472,4 -4,4"/>
<!-- Node0 -->
<g id="node1" class="node">
<title>Node0</title>
<polygon fill="#bfbfbf" stroke="#000000" points="799.6084,-220.5 799.6084,-238.5 907.8545,-238.5 907.8545,-220.5 799.6084,-220.5"/>
<text text-anchor="middle" x="853.7314" y="-226.5" font-family="Helvetica,sans-Serif" font-size="10.00" fill="#000000">ext_comps/shim/cli.c</text>
</g>
<!-- Node1 -->
<g id="node2" class="node">
<title>Node1</title>
<g id="a_node2"><a xlink:href="src_2include_2cli_8h.html" target="_top" xlink:title="cli.h">
<polygon fill="#ffffff" stroke="#000000" points="836.8398,-165.5 836.8398,-183.5 870.623,-183.5 870.623,-165.5 836.8398,-165.5"/>
<text text-anchor="middle" x="853.7314" y="-171.5" font-family="Helvetica,sans-Serif" font-size="10.00" fill="#000000">cli.h</text>
</a>
</g>
</g>
<!-- Node0&#45;&gt;Node1 -->
<g id="edge1" class="edge">
<title>Node0&#45;&gt;Node1</title>
<path fill="none" stroke="#191970" d="M853.7314,-220.4179C853.7314,-213.2164 853.7314,-202.8962 853.7314,-193.8632"/>
<polygon fill="#191970" stroke="#191970" points="857.2315,-193.7794 853.7314,-183.7795 850.2315,-193.7795 857.2315,-193.7794"/>
</g>
<!-- Node2 -->
<g id="node3" class="node">
<title>Node2</title>
<g id="a_node3"><a xlink:href="src_2include_2common_8h.html" target="_top" xlink:title="common.h">
<polygon fill="#ffffff" stroke="#000000" points="822.3892,-55.5 822.3892,-73.5 885.0737,-73.5 885.0737,-55.5 822.3892,-55.5"/>
<text text-anchor="middle" x="853.7314" y="-61.5" font-family="Helvetica,sans-Serif" font-size="10.00" fill="#000000">common.h</text>
</a>
</g>
</g>
<!-- Node1&#45;&gt;Node2 -->
<g id="edge2" class="edge">
<title>Node1&#45;&gt;Node2</title>
<path fill="none" stroke="#191970" d="M851.3298,-165.1683C849.1093,-156.0263 845.9717,-141.6621 844.7314,-129 843.2311,-113.6825 845.871,-96.4177 848.6724,-83.6075"/>
<polygon fill="#191970" stroke="#191970" points="852.1299,-84.1999 851.0757,-73.6576 845.3255,-82.5563 852.1299,-84.1999"/>
</g>
<!-- Node25 -->
<g id="node26" class="node">
<title>Node25</title>
<g id="a_node26"><a xlink:href="src_2include_2context_8h.html" target="_top" xlink:title="context.h">
<polygon fill="#ffffff" stroke="#000000" points="853.4409,-110.5 853.4409,-128.5 910.022,-128.5 910.022,-110.5 853.4409,-110.5"/>
<text text-anchor="middle" x="881.7314" y="-116.5" font-family="Helvetica,sans-Serif" font-size="10.00" fill="#000000">context.h</text>
</a>
</g>
</g>
<!-- Node1&#45;&gt;Node25 -->
<g id="edge27" class="edge">
<title>Node1&#45;&gt;Node25</title>
<path fill="none" stroke="#191970" d="M858.3551,-165.4179C862.1422,-157.9789 867.6233,-147.2123 872.3264,-137.9742"/>
<polygon fill="#191970" stroke="#191970" points="875.5895,-139.279 877.0074,-128.7795 869.3514,-136.1032 875.5895,-139.279"/>
</g>
<!-- Node3 -->
<g id="node4" class="node">
<title>Node3</title>
<polygon fill="#ffffff" stroke="#bfbfbf" points="0,-.5 0,-18.5 45.4629,-18.5 45.4629,-.5 0,-.5"/>
<text text-anchor="middle" x="22.7314" y="-6.5" font-family="Helvetica,sans-Serif" font-size="10.00" fill="#000000">stdio.h</text>
</g>
<!-- Node2&#45;&gt;Node3 -->
<g id="edge3" class="edge">
<title>Node2&#45;&gt;Node3</title>
<path fill="none" stroke="#191970" d="M822.3225,-63.7225C696.0913,-60.4451 224.7899,-46.7071 55.5891,-18.9023"/>
<polygon fill="#191970" stroke="#191970" points="56.0525,-15.4306 45.6032,-17.1806 54.8631,-22.3289 56.0525,-15.4306"/>
</g>
<!-- Node4 -->
<g id="node5" class="node">
<title>Node4</title>
<polygon fill="#ffffff" stroke="#bfbfbf" points="63.2192,-.5 63.2192,-18.5 114.2437,-18.5 114.2437,-.5 63.2192,-.5"/>
<text text-anchor="middle" x="88.7314" y="-6.5" font-family="Helvetica,sans-Serif" font-size="10.00" fill="#000000">unistd.h</text>
</g>
<!-- Node2&#45;&gt;Node4 -->
<g id="edge4" class="edge">
<title>Node2&#45;&gt;Node4</title>
<path fill="none" stroke="#191970" d="M822.1973,-63.421C703.1177,-59.2125 280.0926,-43.0173 124.862,-18.9986"/>
<polygon fill="#191970" stroke="#191970" points="125.0247,-15.4792 114.5929,-17.3306 123.9024,-22.3887 125.0247,-15.4792"/>
</g>
<!-- Node5 -->
<g id="node6" class="node">
<title>Node5</title>
<polygon fill="#ffffff" stroke="#bfbfbf" points="131.8892,-.5 131.8892,-18.5 179.5737,-18.5 179.5737,-.5 131.8892,-.5"/>
<text text-anchor="middle" x="155.7314" y="-6.5" font-family="Helvetica,sans-Serif" font-size="10.00" fill="#000000">stdlib.h</text>
</g>
<!-- Node2&#45;&gt;Node5 -->
<g id="edge5" class="edge">
<title>Node2&#45;&gt;Node5</title>
<path fill="none" stroke="#191970" d="M822.3356,-63.236C710.6365,-58.6048 332.0707,-41.7276 189.9605,-18.7839"/>
<polygon fill="#191970" stroke="#191970" points="190.1884,-15.2726 179.7437,-17.0501 189.0172,-22.174 190.1884,-15.2726"/>
</g>
<!-- Node6 -->
<g id="node7" class="node">
<title>Node6</title>
<polygon fill="#ffffff" stroke="#bfbfbf" points="197.335,-.5 197.335,-18.5 246.1279,-18.5 246.1279,-.5 197.335,-.5"/>
<text text-anchor="middle" x="221.7314" y="-6.5" font-family="Helvetica,sans-Serif" font-size="10.00" fill="#000000">string.h</text>
</g>
<!-- Node2&#45;&gt;Node6 -->
<g id="edge6" class="edge">
<title>Node2&#45;&gt;Node6</title>
<path fill="none" stroke="#191970" d="M822.1771,-62.9572C717.8258,-57.7249 383.7227,-39.9013 256.3536,-18.9208"/>
<polygon fill="#191970" stroke="#191970" points="256.9197,-15.4668 246.4691,-17.2095 255.7254,-22.3642 256.9197,-15.4668"/>
</g>
<!-- Node7 -->
<g id="node8" class="node">
<title>Node7</title>
<polygon fill="#ffffff" stroke="#bfbfbf" points="263.665,-.5 263.665,-18.5 315.7979,-18.5 315.7979,-.5 263.665,-.5"/>
<text text-anchor="middle" x="289.7314" y="-6.5" font-family="Helvetica,sans-Serif" font-size="10.00" fill="#000000">stdarg.h</text>
</g>
<!-- Node2&#45;&gt;Node7 -->
<g id="edge7" class="edge">
<title>Node2&#45;&gt;Node7</title>
<path fill="none" stroke="#191970" d="M822.1727,-63.7549C741.1615,-61.4256 519.2395,-52.4152 326.0408,-18.9381"/>
<polygon fill="#191970" stroke="#191970" points="326.4455,-15.4556 315.9903,-17.1696 325.2324,-22.3497 326.4455,-15.4556"/>
</g>
<!-- Node8 -->
<g id="node9" class="node">
<title>Node8</title>
<polygon fill="#ffffff" stroke="#bfbfbf" points="333.6108,-.5 333.6108,-18.5 381.8521,-18.5 381.8521,-.5 333.6108,-.5"/>
<text text-anchor="middle" x="357.7314" y="-6.5" font-family="Helvetica,sans-Serif" font-size="10.00" fill="#000000">stdint.h</text>
</g>
<!-- Node2&#45;&gt;Node8 -->
<g id="edge8" class="edge">
<title>Node2&#45;&gt;Node8</title>
<path fill="none" stroke="#191970" d="M822.2889,-63.3865C748.5604,-60.3561 558.7811,-50.122 392.0548,-18.9459"/>
<polygon fill="#191970" stroke="#191970" points="392.5973,-15.4865 382.1196,-17.0578 391.2903,-22.3634 392.5973,-15.4865"/>
</g>
<!-- Node9 -->
<g id="node10" class="node">
<title>Node9</title>
<polygon fill="#ffffff" stroke="#bfbfbf" points="399.6035,-.5 399.6035,-18.5 457.8594,-18.5 457.8594,-.5 399.6035,-.5"/>
<text text-anchor="middle" x="428.7314" y="-6.5" font-family="Helvetica,sans-Serif" font-size="10.00" fill="#000000">pthread.h</text>
</g>
<!-- Node2&#45;&gt;Node9 -->
<g id="edge9" class="edge">
<title>Node2&#45;&gt;Node9</title>
<path fill="none" stroke="#191970" d="M822.1763,-62.1669C757.4809,-57.0889 605.0272,-43.6126 467.9504,-19.0282"/>
<polygon fill="#191970" stroke="#191970" points="468.5737,-15.5843 458.1089,-17.2389 467.3215,-22.4713 468.5737,-15.5843"/>
</g>
<!-- Node10 -->
<g id="node11" class="node">
<title>Node10</title>
<polygon fill="#ffffff" stroke="#bfbfbf" points="475.6108,-.5 475.6108,-18.5 523.8521,-18.5 523.8521,-.5 475.6108,-.5"/>
<text text-anchor="middle" x="499.7314" y="-6.5" font-family="Helvetica,sans-Serif" font-size="10.00" fill="#000000">ctype.h</text>
</g>
<!-- Node2&#45;&gt;Node10 -->
<g id="edge10" class="edge">
<title>Node2&#45;&gt;Node10</title>
<path fill="none" stroke="#191970" d="M822.036,-61.4896C765.8372,-55.8338 644.9449,-42.2381 534.1462,-19.0633"/>
<polygon fill="#191970" stroke="#191970" points="534.6527,-15.5929 524.1437,-16.9388 533.1983,-22.4402 534.6527,-15.5929"/>
</g>
<!-- Node11 -->
<g id="node12" class="node">
<title>Node11</title>
<polygon fill="#ffffff" stroke="#bfbfbf" points="541.8892,-.5 541.8892,-18.5 589.5737,-18.5 589.5737,-.5 541.8892,-.5"/>
<text text-anchor="middle" x="565.7314" y="-6.5" font-family="Helvetica,sans-Serif" font-size="10.00" fill="#000000">errno.h</text>
</g>
<!-- Node2&#45;&gt;Node11 -->
<g id="edge11" class="edge">
<title>Node2&#45;&gt;Node11</title>
<path fill="none" stroke="#191970" d="M822.3671,-60.0908C775.6691,-53.2742 684.9592,-39.0672 599.6076,-19.2657"/>
<polygon fill="#191970" stroke="#191970" points="600.3018,-15.8335 589.7661,-16.9514 598.6994,-22.6476 600.3018,-15.8335"/>
</g>
<!-- Node12 -->
<g id="node13" class="node">
<title>Node12</title>
<polygon fill="#ffffff" stroke="#bfbfbf" points="607.1035,-.5 607.1035,-18.5 670.3594,-18.5 670.3594,-.5 607.1035,-.5"/>
<text text-anchor="middle" x="638.7314" y="-6.5" font-family="Helvetica,sans-Serif" font-size="10.00" fill="#000000">arpa/inet.h</text>
</g>
<!-- Node2&#45;&gt;Node12 -->
<g id="edge12" class="edge">
<title>Node2&#45;&gt;Node12</title>
<path fill="none" stroke="#191970" d="M822.0075,-56.3846C784.4545,-46.778 721.8002,-30.7501 680.3738,-20.1527"/>
<polygon fill="#191970" stroke="#191970" points="681.1411,-16.7363 670.5856,-17.6487 679.4062,-23.518 681.1411,-16.7363"/>
</g>
<!-- Node13 -->
<g id="node14" class="node">
<title>Node13</title>
<polygon fill="#ffffff" stroke="#bfbfbf" points="688.2686,-.5 688.2686,-18.5 753.1943,-18.5 753.1943,-.5 688.2686,-.5"/>
<text text-anchor="middle" x="720.7314" y="-6.5" font-family="Helvetica,sans-Serif" font-size="10.00" fill="#000000">netinet/in.h</text>
</g>
<!-- Node2&#45;&gt;Node13 -->
<g id="edge13" class="edge">
<title>Node2&#45;&gt;Node13</title>
<path fill="none" stroke="#191970" d="M831.7692,-55.4179C810.0143,-46.4215 776.49,-32.5581 751.9675,-22.4172"/>
<polygon fill="#191970" stroke="#191970" points="753.3049,-19.1828 742.7263,-18.5956 750.6298,-25.6515 753.3049,-19.1828"/>
</g>
<!-- Node14 -->
<g id="node15" class="node">
<title>Node14</title>
<polygon fill="#ffffff" stroke="#bfbfbf" points="770.8745,-.5 770.8745,-18.5 848.5884,-18.5 848.5884,-.5 770.8745,-.5"/>
<text text-anchor="middle" x="809.7314" y="-6.5" font-family="Helvetica,sans-Serif" font-size="10.00" fill="#000000">net/ethernet.h</text>
</g>
<!-- Node2&#45;&gt;Node14 -->
<g id="edge14" class="edge">
<title>Node2&#45;&gt;Node14</title>
<path fill="none" stroke="#191970" d="M846.4657,-55.4179C840.2614,-47.6624 831.1634,-36.29 823.5742,-26.8035"/>
<polygon fill="#191970" stroke="#191970" points="826.135,-24.4017 817.155,-18.7795 820.6689,-28.7746 826.135,-24.4017"/>
</g>
<!-- Node15 -->
<g id="node16" class="node">
<title>Node15</title>
<polygon fill="#ffffff" stroke="#bfbfbf" points="866.2686,-.5 866.2686,-18.5 931.1943,-18.5 931.1943,-.5 866.2686,-.5"/>
<text text-anchor="middle" x="898.7314" y="-6.5" font-family="Helvetica,sans-Serif" font-size="10.00" fill="#000000">netinet/ip.h</text>
</g>
<!-- Node2&#45;&gt;Node15 -->
<g id="edge15" class="edge">
<title>Node2&#45;&gt;Node15</title>
<path fill="none" stroke="#191970" d="M861.1623,-55.4179C867.5077,-47.6624 876.8124,-36.29 884.574,-26.8035"/>
<polygon fill="#191970" stroke="#191970" points="887.5156,-28.7354 891.1392,-18.7795 882.0979,-24.3027 887.5156,-28.7354"/>
</g>
<!-- Node16 -->
<g id="node17" class="node">
<title>Node16</title>
<polygon fill="#ffffff" stroke="#bfbfbf" points="949.4902,-.5 949.4902,-18.5 1019.9727,-18.5 1019.9727,-.5 949.4902,-.5"/>
<text text-anchor="middle" x="984.7314" y="-6.5" font-family="Helvetica,sans-Serif" font-size="10.00" fill="#000000">netinet/tcp.h</text>
</g>
<!-- Node2&#45;&gt;Node16 -->
<g id="edge16" class="edge">
<title>Node2&#45;&gt;Node16</title>
<path fill="none" stroke="#191970" d="M875.3634,-55.4179C896.6964,-46.4613 929.5194,-32.6806 953.644,-22.552"/>
<polygon fill="#191970" stroke="#191970" points="955.2019,-25.6939 963.0673,-18.5956 952.4921,-19.2397 955.2019,-25.6939"/>
</g>
<!-- Node17 -->
<g id="node18" class="node">
<title>Node17</title>
<polygon fill="#ffffff" stroke="#bfbfbf" points="1037.9312,-.5 1037.9312,-18.5 1129.5317,-18.5 1129.5317,-.5 1037.9312,-.5"/>
<text text-anchor="middle" x="1083.7314" y="-6.5" font-family="Helvetica,sans-Serif" font-size="10.00" fill="#000000">netinet/ip_icmp.h</text>
</g>
<!-- Node2&#45;&gt;Node17 -->
<g id="edge17" class="edge">
<title>Node2&#45;&gt;Node17</title>
<path fill="none" stroke="#191970" d="M885.2297,-56.9678C924.1186,-47.6683 990.648,-31.7591 1035.8667,-20.9459"/>
<polygon fill="#191970" stroke="#191970" points="1036.8278,-24.3149 1045.7395,-18.585 1035.1997,-17.5068 1036.8278,-24.3149"/>
</g>
<!-- Node18 -->
<g id="node19" class="node">
<title>Node18</title>
<polygon fill="#ffffff" stroke="#bfbfbf" points="1147.3276,-.5 1147.3276,-18.5 1206.1353,-18.5 1206.1353,-.5 1147.3276,-.5"/>
<text text-anchor="middle" x="1176.7314" y="-6.5" font-family="Helvetica,sans-Serif" font-size="10.00" fill="#000000">jansson.h</text>
</g>
<!-- Node2&#45;&gt;Node18 -->
<g id="edge18" class="edge">
<title>Node2&#45;&gt;Node18</title>
<path fill="none" stroke="#191970" d="M885.0992,-60.3986C936.0126,-53.5459 1039.9742,-38.742 1136.952,-19.239"/>
<polygon fill="#191970" stroke="#191970" points="1137.8143,-22.6354 1146.9165,-17.2132 1136.4196,-15.7757 1137.8143,-22.6354"/>
</g>
<!-- Node19 -->
<g id="node20" class="node">
<title>Node19</title>
<polygon fill="#ffffff" stroke="#bfbfbf" points="1223.8374,-.5 1223.8374,-18.5 1267.6255,-18.5 1267.6255,-.5 1223.8374,-.5"/>
<text text-anchor="middle" x="1245.7314" y="-6.5" font-family="Helvetica,sans-Serif" font-size="10.00" fill="#000000">libcli.h</text>
</g>
<!-- Node2&#45;&gt;Node19 -->
<g id="edge19" class="edge">
<title>Node2&#45;&gt;Node19</title>
<path fill="none" stroke="#191970" d="M885.4249,-62.3469C947.0229,-57.769 1087.2419,-45.4255 1213.6511,-18.9144"/>
<polygon fill="#191970" stroke="#191970" points="1214.4512,-22.3226 1223.501,-16.8134 1212.9909,-15.4766 1214.4512,-22.3226"/>
</g>
<!-- Node20 -->
<g id="node21" class="node">
<title>Node20</title>
<polygon fill="#ffffff" stroke="#bfbfbf" points="1286.1157,-.5 1286.1157,-18.5 1329.3472,-18.5 1329.3472,-.5 1286.1157,-.5"/>
<text text-anchor="middle" x="1307.7314" y="-6.5" font-family="Helvetica,sans-Serif" font-size="10.00" fill="#000000">zmq.h</text>
</g>
<!-- Node2&#45;&gt;Node20 -->
<g id="edge20" class="edge">
<title>Node2&#45;&gt;Node20</title>
<path fill="none" stroke="#191970" d="M885.0902,-63.1679C954.1669,-59.8 1124.6655,-49.1107 1275.916,-18.795"/>
<polygon fill="#191970" stroke="#191970" points="1276.7503,-22.197 1285.8494,-16.7697 1275.3518,-15.3381 1276.7503,-22.197"/>
</g>
<!-- Node21 -->
<g id="node22" class="node">
<title>Node21</title>
<g id="a_node22"><a xlink:href="mac2int_8h.html" target="_top" xlink:title="mac2int.h">
<polygon fill="#ffffff" stroke="#000000" points="1347.0542,-.5 1347.0542,-18.5 1406.4087,-18.5 1406.4087,-.5 1347.0542,-.5"/>
<text text-anchor="middle" x="1376.7314" y="-6.5" font-family="Helvetica,sans-Serif" font-size="10.00" fill="#000000">mac2int.h</text>
</a>
</g>
</g>
<!-- Node2&#45;&gt;Node21 -->
<g id="edge21" class="edge">
<title>Node2&#45;&gt;Node21</title>
<path fill="none" stroke="#191970" d="M885.1333,-62.9826C961.7797,-59.1776 1163.4231,-47.4212 1329.7314,-19 1332.0503,-18.6037 1334.4363,-18.1411 1336.8513,-17.6372"/>
<polygon fill="#191970" stroke="#191970" points="1337.8509,-21.0001 1346.8437,-15.3985 1336.3204,-14.1694 1337.8509,-21.0001"/>
</g>
<!-- Node22 -->
<g id="node23" class="node">
<title>Node22</title>
<g id="a_node23"><a xlink:href="ip2int_8h.html" target="_top" xlink:title="ip2int.h">
<polygon fill="#ffffff" stroke="#000000" points="1424.6084,-.5 1424.6084,-18.5 1472.8545,-18.5 1472.8545,-.5 1424.6084,-.5"/>
<text text-anchor="middle" x="1448.7314" y="-6.5" font-family="Helvetica,sans-Serif" font-size="10.00" fill="#000000">ip2int.h</text>
</a>
</g>
</g>
<!-- Node2&#45;&gt;Node22 -->
<g id="edge23" class="edge">
<title>Node2&#45;&gt;Node22</title>
<path fill="none" stroke="#191970" d="M885.1134,-64.0691C970.0493,-62.46 1210.2842,-54.8574 1406.7314,-19 1409.1947,-18.5504 1411.738,-17.9926 1414.3084,-17.3742"/>
<polygon fill="#191970" stroke="#191970" points="1415.4485,-20.6942 1424.2455,-14.7898 1413.6865,-13.9196 1415.4485,-20.6942"/>
</g>
<!-- Node23 -->
<g id="node24" class="node">
<title>Node23</title>
<g id="a_node24"><a xlink:href="src_2include_2type_8h.html" target="_top" xlink:title="type.h">
<polygon fill="#ffffff" stroke="#000000" points="1491.1108,-.5 1491.1108,-18.5 1534.3521,-18.5 1534.3521,-.5 1491.1108,-.5"/>
<text text-anchor="middle" x="1512.7314" y="-6.5" font-family="Helvetica,sans-Serif" font-size="10.00" fill="#000000">type.h</text>
</a>
</g>
</g>
<!-- Node2&#45;&gt;Node23 -->
<g id="edge25" class="edge">
<title>Node2&#45;&gt;Node23</title>
<path fill="none" stroke="#191970" d="M885.2798,-63.1548C993.0239,-58.4176 1346.6868,-41.6554 1480.8388,-18.6753"/>
<polygon fill="#191970" stroke="#191970" points="1481.6483,-22.0859 1490.8685,-16.8667 1480.406,-15.197 1481.6483,-22.0859"/>
</g>
<!-- Node24 -->
<g id="node25" class="node">
<title>Node24</title>
<polygon fill="#ffffff" stroke="#bfbfbf" points="1552.1157,-.5 1552.1157,-18.5 1595.3472,-18.5 1595.3472,-.5 1552.1157,-.5"/>
<text text-anchor="middle" x="1573.7314" y="-6.5" font-family="Helvetica,sans-Serif" font-size="10.00" fill="#000000">time.h</text>
</g>
<!-- Node2&#45;&gt;Node24 -->
<g id="edge26" class="edge">
<title>Node2&#45;&gt;Node24</title>
<path fill="none" stroke="#191970" d="M885.1111,-63.4348C999.6235,-59.3955 1395.5303,-44.0589 1541.8368,-18.9001"/>
<polygon fill="#191970" stroke="#191970" points="1542.716,-22.2979 1551.9322,-17.0717 1541.4685,-15.4099 1542.716,-22.2979"/>
</g>
<!-- Node21&#45;&gt;Node2 -->
<g id="edge22" class="edge">
<title>Node21&#45;&gt;Node2</title>
<path fill="none" stroke="#191970" d="M1350.1654,-18.5647C1349.3483,-18.7171 1348.5358,-18.8625 1347.7314,-19 1181.88,-47.3431 980.8874,-59.1129 895.319,-62.951"/>
<polygon fill="#191970" stroke="#191970" points="895.0636,-59.4587 885.2254,-63.3905 895.3682,-66.4521 895.0636,-59.4587"/>
</g>
<!-- Node22&#45;&gt;Node2 -->
<g id="edge24" class="edge">
<title>Node22&#45;&gt;Node2</title>
<path fill="none" stroke="#191970" d="M1427.2165,-18.5161C1426.3825,-18.6882 1425.5525,-18.8501 1424.7314,-19 1229.1172,-54.7054 990.0858,-62.3951 895.2091,-64.0483"/>
<polygon fill="#191970" stroke="#191970" points="895.0991,-60.5495 885.1567,-64.21 895.2118,-67.5486 895.0991,-60.5495"/>
</g>
<!-- Node25&#45;&gt;Node2 -->
<g id="edge28" class="edge">
<title>Node25&#45;&gt;Node2</title>
<path fill="none" stroke="#191970" d="M877.1078,-110.4179C873.3207,-102.9789 867.8395,-92.2123 863.1365,-82.9742"/>
<polygon fill="#191970" stroke="#191970" points="866.1115,-81.1032 858.4555,-73.7795 859.8733,-84.279 866.1115,-81.1032"/>
</g>
</g>
</svg>
