<?xml version="1.0" encoding="UTF-8" standalone="no"?>
<!DOCTYPE svg PUBLIC "-//W3C//DTD SVG 1.1//EN"
 "http://www.w3.org/Graphics/SVG/1.1/DTD/svg11.dtd">
<!-- Generated by graphviz version 2.40.1 (20161225.0304)
 -->
<!-- Title: ext_apps/rbac/src/include/rbac.h Pages: 1 -->
<svg width="2461pt" height="312pt"
 viewBox="0.00 0.00 2460.62 312.00" xmlns="http://www.w3.org/2000/svg" xmlns:xlink="http://www.w3.org/1999/xlink">
<g id="graph0" class="graph" transform="scale(1 1) rotate(0) translate(4 308)">
<title>ext_apps/rbac/src/include/rbac.h</title>
<polygon fill="#ffffff" stroke="transparent" points="-4,4 -4,-308 2456.6206,-308 2456.6206,4 -4,4"/>
<!-- Node0 -->
<g id="node1" class="node">
<title>Node0</title>
<polygon fill="#bfbfbf" stroke="#000000" points="1155.3032,-275.5 1155.3032,-303.5 1284.6968,-303.5 1284.6968,-275.5 1155.3032,-275.5"/>
<text text-anchor="start" x="1163.3032" y="-291.5" font-family="Helvetica,sans-Serif" font-size="10.00" fill="#000000">ext_apps/rbac/src/include</text>
<text text-anchor="middle" x="1220" y="-281.5" font-family="Helvetica,sans-Serif" font-size="10.00" fill="#000000">/rbac.h</text>
</g>
<!-- Node1 -->
<g id="node2" class="node">
<title>Node1</title>
<g id="a_node2"><a xlink:href="src_2include_2common_8h.html" target="_top" xlink:title="common.h">
<polygon fill="#ffffff" stroke="#000000" points="1343.6577,-110.5 1343.6577,-128.5 1406.3423,-128.5 1406.3423,-110.5 1343.6577,-110.5"/>
<text text-anchor="middle" x="1375" y="-116.5" font-family="Helvetica,sans-Serif" font-size="10.00" fill="#000000">common.h</text>
</a>
</g>
</g>
<!-- Node0&#45;&gt;Node1 -->
<g id="edge1" class="edge">
<title>Node0&#45;&gt;Node1</title>
<path fill="none" stroke="#191970" d="M1200.9248,-275.49C1185.1562,-262.0546 1166.6109,-240.7957 1175,-220 1200.1616,-157.6274 1282.7173,-133.6556 1333.5602,-124.6701"/>
<polygon fill="#191970" stroke="#191970" points="1334.2895,-128.0972 1343.5878,-123.0187 1333.1519,-121.1903 1334.2895,-128.0972"/>
</g>
<!-- Node30 -->
<g id="node31" class="node">
<title>Node30</title>
<g id="a_node31"><a xlink:href="str_8h.html" target="_top" xlink:title="str.h">
<polygon fill="#ffffff" stroke="#000000" points="762.5493,-.5 762.5493,-18.5 797.4507,-18.5 797.4507,-.5 762.5493,-.5"/>
<text text-anchor="middle" x="780" y="-6.5" font-family="Helvetica,sans-Serif" font-size="10.00" fill="#000000">str.h</text>
</a>
</g>
</g>
<!-- Node0&#45;&gt;Node30 -->
<g id="edge57" class="edge">
<title>Node0&#45;&gt;Node30</title>
<path fill="none" stroke="#191970" d="M1155.2689,-286.825C903.0499,-275.9823 0,-233.0712 0,-174.5 0,-174.5 0,-174.5 0,-119.5 0,-83.4993 17.2633,-71.995 49,-55 111.8383,-21.3501 625.4294,-11.7404 751.9269,-9.8735"/>
<polygon fill="#191970" stroke="#191970" points="752.3507,-13.3679 762.2996,-9.7252 752.2505,-6.3687 752.3507,-13.3679"/>
</g>
<!-- Node36 -->
<g id="node37" class="node">
<title>Node36</title>
<g id="a_node37"><a xlink:href="src_2include_2application_8h.html" target="_top" xlink:title="application.h">
<polygon fill="#ffffff" stroke="#000000" points="1183.9238,-220.5 1183.9238,-238.5 1256.0762,-238.5 1256.0762,-220.5 1183.9238,-220.5"/>
<text text-anchor="middle" x="1220" y="-226.5" font-family="Helvetica,sans-Serif" font-size="10.00" fill="#000000">application.h</text>
</a>
</g>
</g>
<!-- Node0&#45;&gt;Node36 -->
<g id="edge43" class="edge">
<title>Node0&#45;&gt;Node36</title>
<path fill="none" stroke="#191970" d="M1220,-275.2808C1220,-267.3776 1220,-257.4316 1220,-248.8308"/>
<polygon fill="#191970" stroke="#191970" points="1223.5001,-248.5842 1220,-238.5842 1216.5001,-248.5842 1223.5001,-248.5842"/>
</g>
<!-- Node38 -->
<g id="node39" class="node">
<title>Node38</title>
<g id="a_node39"><a xlink:href="hash_8h.html" target="_top" xlink:title="hash.h">
<polygon fill="#ffffff" stroke="#000000" points="1254.9878,-165.5 1254.9878,-183.5 1301.0122,-183.5 1301.0122,-165.5 1254.9878,-165.5"/>
<text text-anchor="middle" x="1278" y="-171.5" font-family="Helvetica,sans-Serif" font-size="10.00" fill="#000000">hash.h</text>
</a>
</g>
</g>
<!-- Node0&#45;&gt;Node38 -->
<g id="edge56" class="edge">
<title>Node0&#45;&gt;Node38</title>
<path fill="none" stroke="#191970" d="M1236.569,-275.1931C1246.3239,-265.8594 1258.0715,-252.8664 1265,-239 1272.0293,-224.932 1275.2578,-207.3411 1276.7407,-194.0849"/>
<polygon fill="#191970" stroke="#191970" points="1280.26,-194.0163 1277.646,-183.749 1273.2867,-193.4054 1280.26,-194.0163"/>
</g>
<!-- Node39 -->
<g id="node40" class="node">
<title>Node39</title>
<g id="a_node40"><a xlink:href="app__events_2include_2app__event_8h.html" target="_top" xlink:title="app_event.h">
<polygon fill="#ffffff" stroke="#000000" points="1367.4756,-220.5 1367.4756,-238.5 1438.5244,-238.5 1438.5244,-220.5 1367.4756,-220.5"/>
<text text-anchor="middle" x="1403" y="-226.5" font-family="Helvetica,sans-Serif" font-size="10.00" fill="#000000">app_event.h</text>
</a>
</g>
</g>
<!-- Node0&#45;&gt;Node39 -->
<g id="edge50" class="edge">
<title>Node0&#45;&gt;Node39</title>
<path fill="none" stroke="#191970" d="M1262.9054,-275.4327C1294.132,-265.1944 1335.9961,-251.4685 1365.8076,-241.6942"/>
<polygon fill="#191970" stroke="#191970" points="1367.0109,-244.9831 1375.4227,-238.5417 1364.83,-238.3315 1367.0109,-244.9831"/>
</g>
<!-- Node2 -->
<g id="node3" class="node">
<title>Node2</title>
<polygon fill="#ffffff" stroke="#bfbfbf" points="2052.2686,-.5 2052.2686,-18.5 2097.7314,-18.5 2097.7314,-.5 2052.2686,-.5"/>
<text text-anchor="middle" x="2075" y="-6.5" font-family="Helvetica,sans-Serif" font-size="10.00" fill="#000000">stdio.h</text>
</g>
<!-- Node1&#45;&gt;Node2 -->
<g id="edge2" class="edge">
<title>Node1&#45;&gt;Node2</title>
<path fill="none" stroke="#191970" d="M1406.4521,-118.6593C1540.4083,-114.9288 2057.6084,-98.9477 2081,-74 2092.2657,-61.9849 2088.6779,-42.6076 2083.5444,-28.224"/>
<polygon fill="#191970" stroke="#191970" points="2086.7274,-26.7594 2079.7236,-18.8097 2080.2412,-29.3919 2086.7274,-26.7594"/>
</g>
<!-- Node3 -->
<g id="node4" class="node">
<title>Node3</title>
<polygon fill="#ffffff" stroke="#bfbfbf" points="1893.4878,-55.5 1893.4878,-73.5 1944.5122,-73.5 1944.5122,-55.5 1893.4878,-55.5"/>
<text text-anchor="middle" x="1919" y="-61.5" font-family="Helvetica,sans-Serif" font-size="10.00" fill="#000000">unistd.h</text>
</g>
<!-- Node1&#45;&gt;Node3 -->
<g id="edge3" class="edge">
<title>Node1&#45;&gt;Node3</title>
<path fill="none" stroke="#191970" d="M1406.4553,-118.2265C1486.039,-114.6661 1701.6758,-102.9089 1879,-74 1880.453,-73.7631 1881.9314,-73.5028 1883.4219,-73.2242"/>
<polygon fill="#191970" stroke="#191970" points="1884.2073,-76.6359 1893.2885,-71.1787 1882.7862,-69.7817 1884.2073,-76.6359"/>
</g>
<!-- Node4 -->
<g id="node5" class="node">
<title>Node4</title>
<polygon fill="#ffffff" stroke="#bfbfbf" points="1962.1577,-55.5 1962.1577,-73.5 2009.8423,-73.5 2009.8423,-55.5 1962.1577,-55.5"/>
<text text-anchor="middle" x="1986" y="-61.5" font-family="Helvetica,sans-Serif" font-size="10.00" fill="#000000">stdlib.h</text>
</g>
<!-- Node1&#45;&gt;Node4 -->
<g id="edge4" class="edge">
<title>Node1&#45;&gt;Node4</title>
<path fill="none" stroke="#191970" d="M1406.5962,-117.8946C1508.6051,-112.5779 1829.2272,-94.7892 1952.132,-73.9708"/>
<polygon fill="#191970" stroke="#191970" points="1952.789,-77.4089 1962.0195,-72.208 1951.5604,-70.5176 1952.789,-77.4089"/>
</g>
<!-- Node5 -->
<g id="node6" class="node">
<title>Node5</title>
<polygon fill="#ffffff" stroke="#bfbfbf" points="1832.9336,-.5 1832.9336,-18.5 1885.0664,-18.5 1885.0664,-.5 1832.9336,-.5"/>
<text text-anchor="middle" x="1859" y="-6.5" font-family="Helvetica,sans-Serif" font-size="10.00" fill="#000000">stdarg.h</text>
</g>
<!-- Node1&#45;&gt;Node5 -->
<g id="edge5" class="edge">
<title>Node1&#45;&gt;Node5</title>
<path fill="none" stroke="#191970" d="M1406.5284,-117.6006C1500.2793,-111.7573 1772.9877,-93.2742 1808,-74 1826.8759,-63.6089 1841.2224,-43.049 1849.8187,-27.9235"/>
<polygon fill="#191970" stroke="#191970" points="1852.9986,-29.3992 1854.6272,-18.9302 1846.8256,-26.0986 1852.9986,-29.3992"/>
</g>
<!-- Node6 -->
<g id="node7" class="node">
<title>Node6</title>
<polygon fill="#ffffff" stroke="#bfbfbf" points="2127.8794,-55.5 2127.8794,-73.5 2176.1206,-73.5 2176.1206,-55.5 2127.8794,-55.5"/>
<text text-anchor="middle" x="2152" y="-61.5" font-family="Helvetica,sans-Serif" font-size="10.00" fill="#000000">stdint.h</text>
</g>
<!-- Node1&#45;&gt;Node6 -->
<g id="edge6" class="edge">
<title>Node1&#45;&gt;Node6</title>
<path fill="none" stroke="#191970" d="M1406.4417,-118.3341C1528.9282,-113.6729 1974.2611,-95.5821 2114,-74 2115.2475,-73.8073 2116.5139,-73.5926 2117.7899,-73.3602"/>
<polygon fill="#191970" stroke="#191970" points="2118.5376,-76.7796 2127.6048,-71.2992 2117.099,-69.929 2118.5376,-76.7796"/>
</g>
<!-- Node7 -->
<g id="node8" class="node">
<title>Node7</title>
<polygon fill="#ffffff" stroke="#bfbfbf" points="2194.6035,-55.5 2194.6035,-73.5 2243.3965,-73.5 2243.3965,-55.5 2194.6035,-55.5"/>
<text text-anchor="middle" x="2219" y="-61.5" font-family="Helvetica,sans-Serif" font-size="10.00" fill="#000000">string.h</text>
</g>
<!-- Node1&#45;&gt;Node7 -->
<g id="edge7" class="edge">
<title>Node1&#45;&gt;Node7</title>
<path fill="none" stroke="#191970" d="M1406.3435,-118.6461C1533.4836,-115.0455 2011.7454,-100.139 2184.3133,-73.676"/>
<polygon fill="#191970" stroke="#191970" points="2184.9377,-77.1207 2194.2571,-72.0808 2183.8289,-70.209 2184.9377,-77.1207"/>
</g>
<!-- Node8 -->
<g id="node9" class="node">
<title>Node8</title>
<polygon fill="#ffffff" stroke="#bfbfbf" points="2261.1035,-55.5 2261.1035,-73.5 2314.8965,-73.5 2314.8965,-55.5 2261.1035,-55.5"/>
<text text-anchor="middle" x="2288" y="-61.5" font-family="Helvetica,sans-Serif" font-size="10.00" fill="#000000">strings.h</text>
</g>
<!-- Node1&#45;&gt;Node8 -->
<g id="edge8" class="edge">
<title>Node1&#45;&gt;Node8</title>
<path fill="none" stroke="#191970" d="M1406.5889,-118.7343C1540.7582,-115.3504 2064.6319,-100.7708 2251.0572,-73.767"/>
<polygon fill="#191970" stroke="#191970" points="2251.6356,-77.2194 2261,-72.2638 2250.5891,-70.298 2251.6356,-77.2194"/>
</g>
<!-- Node9 -->
<g id="node10" class="node">
<title>Node9</title>
<polygon fill="#ffffff" stroke="#bfbfbf" points="2332.8721,-55.5 2332.8721,-73.5 2391.1279,-73.5 2391.1279,-55.5 2332.8721,-55.5"/>
<text text-anchor="middle" x="2362" y="-61.5" font-family="Helvetica,sans-Serif" font-size="10.00" fill="#000000">pthread.h</text>
</g>
<!-- Node1&#45;&gt;Node9 -->
<g id="edge9" class="edge">
<title>Node1&#45;&gt;Node9</title>
<path fill="none" stroke="#191970" d="M1406.7281,-118.8193C1547.9593,-115.6628 2120.977,-101.4838 2322.4865,-73.8944"/>
<polygon fill="#191970" stroke="#191970" points="2323.251,-77.3208 2332.6563,-72.4431 2322.2621,-70.391 2323.251,-77.3208"/>
</g>
<!-- Node10 -->
<g id="node11" class="node">
<title>Node10</title>
<polygon fill="#ffffff" stroke="#bfbfbf" points="65.8794,-55.5 65.8794,-73.5 114.1206,-73.5 114.1206,-55.5 65.8794,-55.5"/>
<text text-anchor="middle" x="90" y="-61.5" font-family="Helvetica,sans-Serif" font-size="10.00" fill="#000000">ctype.h</text>
</g>
<!-- Node1&#45;&gt;Node10 -->
<g id="edge10" class="edge">
<title>Node1&#45;&gt;Node10</title>
<path fill="none" stroke="#191970" d="M1343.5353,-119.3951C1176.216,-118.6816 388.8763,-113.3361 124.3024,-73.773"/>
<polygon fill="#191970" stroke="#191970" points="124.7765,-70.3048 114.358,-72.2298 123.703,-77.222 124.7765,-70.3048"/>
</g>
<!-- Node11 -->
<g id="node12" class="node">
<title>Node11</title>
<polygon fill="#ffffff" stroke="#bfbfbf" points="132.1577,-55.5 132.1577,-73.5 179.8423,-73.5 179.8423,-55.5 132.1577,-55.5"/>
<text text-anchor="middle" x="156" y="-61.5" font-family="Helvetica,sans-Serif" font-size="10.00" fill="#000000">errno.h</text>
</g>
<!-- Node1&#45;&gt;Node11 -->
<g id="edge11" class="edge">
<title>Node1&#45;&gt;Node11</title>
<path fill="none" stroke="#191970" d="M1343.5618,-119.3576C1181.6964,-118.4653 440.4983,-112.4043 190.0892,-73.9329"/>
<polygon fill="#191970" stroke="#191970" points="190.389,-70.4365 179.9619,-72.3143 189.2842,-77.3487 190.389,-70.4365"/>
</g>
<!-- Node12 -->
<g id="node13" class="node">
<title>Node12</title>
<polygon fill="#ffffff" stroke="#bfbfbf" points="197.3843,-55.5 197.3843,-73.5 240.6157,-73.5 240.6157,-55.5 197.3843,-55.5"/>
<text text-anchor="middle" x="219" y="-61.5" font-family="Helvetica,sans-Serif" font-size="10.00" fill="#000000">time.h</text>
</g>
<!-- Node1&#45;&gt;Node12 -->
<g id="edge12" class="edge">
<title>Node1&#45;&gt;Node12</title>
<path fill="none" stroke="#191970" d="M1343.6429,-119.3181C1187.14,-118.2475 488.9921,-111.5083 250.8223,-73.6084"/>
<polygon fill="#191970" stroke="#191970" points="251.2846,-70.1373 240.847,-71.9559 250.1405,-77.0432 251.2846,-70.1373"/>
</g>
<!-- Node13 -->
<g id="node14" class="node">
<title>Node13</title>
<polygon fill="#ffffff" stroke="#bfbfbf" points="258.6602,-55.5 258.6602,-73.5 301.3398,-73.5 301.3398,-55.5 258.6602,-55.5"/>
<text text-anchor="middle" x="280" y="-61.5" font-family="Helvetica,sans-Serif" font-size="10.00" fill="#000000">fcntl.h</text>
</g>
<!-- Node1&#45;&gt;Node13 -->
<g id="edge13" class="edge">
<title>Node1&#45;&gt;Node13</title>
<path fill="none" stroke="#191970" d="M1343.5836,-119.2335C1192.3091,-117.7884 537.3914,-109.6482 311.6129,-73.543"/>
<polygon fill="#191970" stroke="#191970" points="311.9496,-70.0509 301.5101,-71.8583 310.7982,-76.9555 311.9496,-70.0509"/>
</g>
<!-- Node14 -->
<g id="node15" class="node">
<title>Node14</title>
<polygon fill="#ffffff" stroke="#bfbfbf" points="319.7661,-55.5 319.7661,-73.5 370.2339,-73.5 370.2339,-55.5 319.7661,-55.5"/>
<text text-anchor="middle" x="345" y="-61.5" font-family="Helvetica,sans-Serif" font-size="10.00" fill="#000000">signal.h</text>
</g>
<!-- Node1&#45;&gt;Node14 -->
<g id="edge14" class="edge">
<title>Node1&#45;&gt;Node14</title>
<path fill="none" stroke="#191970" d="M1343.1805,-119.0168C1197.3416,-116.6562 591.2515,-105.2204 380.5136,-73.8461"/>
<polygon fill="#191970" stroke="#191970" points="380.9002,-70.3643 370.4816,-72.2886 379.8262,-77.2814 380.9002,-70.3643"/>
</g>
<!-- Node15 -->
<g id="node16" class="node">
<title>Node15</title>
<polygon fill="#ffffff" stroke="#bfbfbf" points="1935.4951,-.5 1935.4951,-18.5 1996.5049,-18.5 1996.5049,-.5 1935.4951,-.5"/>
<text text-anchor="middle" x="1966" y="-6.5" font-family="Helvetica,sans-Serif" font-size="10.00" fill="#000000">sys/time.h</text>
</g>
<!-- Node1&#45;&gt;Node15 -->
<g id="edge15" class="edge">
<title>Node1&#45;&gt;Node15</title>
<path fill="none" stroke="#191970" d="M1406.5485,-117.8118C1496.3999,-112.7752 1752.3545,-96.7786 1833,-74 1873.6907,-62.5068 1917.0971,-39.0894 1942.8677,-23.858"/>
<polygon fill="#191970" stroke="#191970" points="1944.7584,-26.8053 1951.5266,-18.6541 1941.1524,-20.8055 1944.7584,-26.8053"/>
</g>
<!-- Node16 -->
<g id="node17" class="node">
<title>Node16</title>
<polygon fill="#ffffff" stroke="#bfbfbf" points="387.8818,-55.5 387.8818,-73.5 446.1182,-73.5 446.1182,-55.5 387.8818,-55.5"/>
<text text-anchor="middle" x="417" y="-61.5" font-family="Helvetica,sans-Serif" font-size="10.00" fill="#000000">sys/stat.h</text>
</g>
<!-- Node1&#45;&gt;Node16 -->
<g id="edge16" class="edge">
<title>Node1&#45;&gt;Node16</title>
<path fill="none" stroke="#191970" d="M1343.3029,-118.7649C1204.8694,-115.4291 651.894,-100.768 456.4857,-73.893"/>
<polygon fill="#191970" stroke="#191970" points="456.74,-70.3937 446.3444,-72.4386 455.7463,-77.3228 456.74,-70.3937"/>
</g>
<!-- Node17 -->
<g id="node18" class="node">
<title>Node17</title>
<polygon fill="#ffffff" stroke="#bfbfbf" points="463.9902,-55.5 463.9902,-73.5 530.0098,-73.5 530.0098,-55.5 463.9902,-55.5"/>
<text text-anchor="middle" x="497" y="-61.5" font-family="Helvetica,sans-Serif" font-size="10.00" fill="#000000">sys/types.h</text>
</g>
<!-- Node1&#45;&gt;Node17 -->
<g id="edge17" class="edge">
<title>Node1&#45;&gt;Node17</title>
<path fill="none" stroke="#191970" d="M1343.5821,-118.498C1213.8021,-114.2522 718.3533,-96.9615 540.3784,-73.9293"/>
<polygon fill="#191970" stroke="#191970" points="540.7553,-70.4485 530.3774,-72.5815 539.8204,-77.3858 540.7553,-70.4485"/>
</g>
<!-- Node18 -->
<g id="node19" class="node">
<title>Node18</title>
<polygon fill="#ffffff" stroke="#bfbfbf" points="548.0493,-55.5 548.0493,-73.5 607.9507,-73.5 607.9507,-55.5 548.0493,-55.5"/>
<text text-anchor="middle" x="578" y="-61.5" font-family="Helvetica,sans-Serif" font-size="10.00" fill="#000000">sys/ioctl.h</text>
</g>
<!-- Node1&#45;&gt;Node18 -->
<g id="edge18" class="edge">
<title>Node1&#45;&gt;Node18</title>
<path fill="none" stroke="#191970" d="M1343.5602,-118.3926C1221.664,-113.9815 779.4248,-96.8563 618.3753,-74.0884"/>
<polygon fill="#191970" stroke="#191970" points="618.5847,-70.5814 608.1803,-72.5806 617.5606,-77.506 618.5847,-70.5814"/>
</g>
<!-- Node19 -->
<g id="node20" class="node">
<title>Node19</title>
<polygon fill="#ffffff" stroke="#bfbfbf" points="625.4902,-55.5 625.4902,-73.5 696.5098,-73.5 696.5098,-55.5 625.4902,-55.5"/>
<text text-anchor="middle" x="661" y="-61.5" font-family="Helvetica,sans-Serif" font-size="10.00" fill="#000000">sys/socket.h</text>
</g>
<!-- Node1&#45;&gt;Node19 -->
<g id="edge19" class="edge">
<title>Node1&#45;&gt;Node19</title>
<path fill="none" stroke="#191970" d="M1343.4366,-118.9776C1248.4683,-117.0637 956.9853,-108.6889 706.941,-74.1042"/>
<polygon fill="#191970" stroke="#191970" points="707.331,-70.6247 696.9422,-72.704 706.3601,-77.5571 707.331,-70.6247"/>
</g>
<!-- Node20 -->
<g id="node21" class="node">
<title>Node20</title>
<polygon fill="#ffffff" stroke="#bfbfbf" points="714.3794,-55.5 714.3794,-73.5 787.6206,-73.5 787.6206,-55.5 714.3794,-55.5"/>
<text text-anchor="middle" x="751" y="-61.5" font-family="Helvetica,sans-Serif" font-size="10.00" fill="#000000">sys/sysinfo.h</text>
</g>
<!-- Node1&#45;&gt;Node20 -->
<g id="edge20" class="edge">
<title>Node1&#45;&gt;Node20</title>
<path fill="none" stroke="#191970" d="M1343.4601,-118.4586C1257.4384,-115.314 1011.4302,-104.2906 797.9099,-74.1188"/>
<polygon fill="#191970" stroke="#191970" points="798.1626,-70.6194 787.7676,-72.6675 797.171,-77.5488 798.1626,-70.6194"/>
</g>
<!-- Node21 -->
<g id="node22" class="node">
<title>Node21</title>
<polygon fill="#ffffff" stroke="#bfbfbf" points="805.3721,-55.5 805.3721,-73.5 868.6279,-73.5 868.6279,-55.5 805.3721,-55.5"/>
<text text-anchor="middle" x="837" y="-61.5" font-family="Helvetica,sans-Serif" font-size="10.00" fill="#000000">arpa/inet.h</text>
</g>
<!-- Node1&#45;&gt;Node21 -->
<g id="edge21" class="edge">
<title>Node1&#45;&gt;Node21</title>
<path fill="none" stroke="#191970" d="M1343.4135,-118.1054C1265.9217,-114.366 1060.1296,-102.5109 878.6889,-73.8918"/>
<polygon fill="#191970" stroke="#191970" points="879.1268,-70.4175 868.6997,-72.2951 878.0219,-77.3297 879.1268,-70.4175"/>
</g>
<!-- Node22 -->
<g id="node23" class="node">
<title>Node22</title>
<polygon fill="#ffffff" stroke="#bfbfbf" points="886.5371,-55.5 886.5371,-73.5 951.4629,-73.5 951.4629,-55.5 886.5371,-55.5"/>
<text text-anchor="middle" x="919" y="-61.5" font-family="Helvetica,sans-Serif" font-size="10.00" fill="#000000">netinet/in.h</text>
</g>
<!-- Node1&#45;&gt;Node22 -->
<g id="edge22" class="edge">
<title>Node1&#45;&gt;Node22</title>
<path fill="none" stroke="#191970" d="M1343.5882,-117.3338C1275.6512,-112.3761 1109.8647,-98.8092 961.7814,-74.1396"/>
<polygon fill="#191970" stroke="#191970" points="962.0464,-70.6349 951.6033,-72.4215 960.8812,-77.5373 962.0464,-70.6349"/>
</g>
<!-- Node23 -->
<g id="node24" class="node">
<title>Node23</title>
<polygon fill="#ffffff" stroke="#bfbfbf" points="969.1431,-55.5 969.1431,-73.5 1046.8569,-73.5 1046.8569,-55.5 969.1431,-55.5"/>
<text text-anchor="middle" x="1008" y="-61.5" font-family="Helvetica,sans-Serif" font-size="10.00" fill="#000000">net/ethernet.h</text>
</g>
<!-- Node1&#45;&gt;Node23 -->
<g id="edge23" class="edge">
<title>Node1&#45;&gt;Node23</title>
<path fill="none" stroke="#191970" d="M1343.2179,-115.5417C1287.432,-108.4698 1168.0489,-92.7837 1057.0278,-74.1005"/>
<polygon fill="#191970" stroke="#191970" points="1057.4447,-70.6213 1047.0004,-72.4008 1056.2748,-77.5229 1057.4447,-70.6213"/>
</g>
<!-- Node24 -->
<g id="node25" class="node">
<title>Node24</title>
<polygon fill="#ffffff" stroke="#bfbfbf" points="1064.5371,-55.5 1064.5371,-73.5 1129.4629,-73.5 1129.4629,-55.5 1064.5371,-55.5"/>
<text text-anchor="middle" x="1097" y="-61.5" font-family="Helvetica,sans-Serif" font-size="10.00" fill="#000000">netinet/ip.h</text>
</g>
<!-- Node1&#45;&gt;Node24 -->
<g id="edge24" class="edge">
<title>Node1&#45;&gt;Node24</title>
<path fill="none" stroke="#191970" d="M1343.6327,-113.7827C1300.216,-105.7973 1219.1114,-90.6221 1139.7122,-74.095"/>
<polygon fill="#191970" stroke="#191970" points="1140.0416,-70.5883 1129.5369,-71.9675 1138.6089,-77.4401 1140.0416,-70.5883"/>
</g>
<!-- Node25 -->
<g id="node26" class="node">
<title>Node25</title>
<polygon fill="#ffffff" stroke="#bfbfbf" points="1147.7588,-55.5 1147.7588,-73.5 1218.2412,-73.5 1218.2412,-55.5 1147.7588,-55.5"/>
<text text-anchor="middle" x="1183" y="-61.5" font-family="Helvetica,sans-Serif" font-size="10.00" fill="#000000">netinet/tcp.h</text>
</g>
<!-- Node1&#45;&gt;Node25 -->
<g id="edge25" class="edge">
<title>Node1&#45;&gt;Node25</title>
<path fill="none" stroke="#191970" d="M1343.2951,-110.4179C1310.6804,-101.0751 1259.7421,-86.4834 1224.0635,-76.263"/>
<polygon fill="#191970" stroke="#191970" points="1225.0101,-72.8934 1214.4329,-73.5042 1223.0824,-79.6228 1225.0101,-72.8934"/>
</g>
<!-- Node26 -->
<g id="node27" class="node">
<title>Node26</title>
<polygon fill="#ffffff" stroke="#bfbfbf" points="1236.1997,-55.5 1236.1997,-73.5 1327.8003,-73.5 1327.8003,-55.5 1236.1997,-55.5"/>
<text text-anchor="middle" x="1282" y="-61.5" font-family="Helvetica,sans-Serif" font-size="10.00" fill="#000000">netinet/ip_icmp.h</text>
</g>
<!-- Node1&#45;&gt;Node26 -->
<g id="edge26" class="edge">
<title>Node1&#45;&gt;Node26</title>
<path fill="none" stroke="#191970" d="M1359.6429,-110.4179C1345.1039,-101.8195 1323.0475,-88.7754 1306.1537,-78.7844"/>
<polygon fill="#191970" stroke="#191970" points="1307.769,-75.6735 1297.3799,-73.5956 1304.2056,-81.6987 1307.769,-75.6735"/>
</g>
<!-- Node27 -->
<g id="node28" class="node">
<title>Node27</title>
<g id="a_node28"><a xlink:href="mac2int_8h.html" target="_top" xlink:title="mac2int.h">
<polygon fill="#ffffff" stroke="#000000" points="1345.3228,-55.5 1345.3228,-73.5 1404.6772,-73.5 1404.6772,-55.5 1345.3228,-55.5"/>
<text text-anchor="middle" x="1375" y="-61.5" font-family="Helvetica,sans-Serif" font-size="10.00" fill="#000000">mac2int.h</text>
</a>
</g>
</g>
<!-- Node1&#45;&gt;Node27 -->
<g id="edge27" class="edge">
<title>Node1&#45;&gt;Node27</title>
<path fill="none" stroke="#191970" d="M1369.8337,-110.4179C1368.3421,-103.2164 1367.9042,-92.8962 1368.5198,-83.8632"/>
<polygon fill="#191970" stroke="#191970" points="1372.0126,-84.1392 1369.7932,-73.7795 1365.0678,-83.2621 1372.0126,-84.1392"/>
</g>
<!-- Node28 -->
<g id="node29" class="node">
<title>Node28</title>
<g id="a_node29"><a xlink:href="ip2int_8h.html" target="_top" xlink:title="ip2int.h">
<polygon fill="#ffffff" stroke="#000000" points="1422.877,-55.5 1422.877,-73.5 1471.123,-73.5 1471.123,-55.5 1422.877,-55.5"/>
<text text-anchor="middle" x="1447" y="-61.5" font-family="Helvetica,sans-Serif" font-size="10.00" fill="#000000">ip2int.h</text>
</a>
</g>
</g>
<!-- Node1&#45;&gt;Node28 -->
<g id="edge29" class="edge">
<title>Node1&#45;&gt;Node28</title>
<path fill="none" stroke="#191970" d="M1381.723,-110.4179C1391.0227,-101.9788 1407.3756,-89.257 1421.5002,-79.3426"/>
<polygon fill="#191970" stroke="#191970" points="1423.6357,-82.1226 1429.9239,-73.5956 1419.6907,-76.3402 1423.6357,-82.1226"/>
</g>
<!-- Node29 -->
<g id="node30" class="node">
<title>Node29</title>
<g id="a_node30"><a xlink:href="database_8h.html" target="_top" xlink:title="database.h">
<polygon fill="#ffffff" stroke="#000000" points="1489.2563,-55.5 1489.2563,-73.5 1554.7437,-73.5 1554.7437,-55.5 1489.2563,-55.5"/>
<text text-anchor="middle" x="1522" y="-61.5" font-family="Helvetica,sans-Serif" font-size="10.00" fill="#000000">database.h</text>
</a>
</g>
</g>
<!-- Node1&#45;&gt;Node29 -->
<g id="edge31" class="edge">
<title>Node1&#45;&gt;Node29</title>
<path fill="none" stroke="#191970" d="M1394.1077,-110.4179C1416.6511,-101.2748 1454.3287,-87.1046 1483.0414,-76.924"/>
<polygon fill="#191970" stroke="#191970" points="1484.5077,-80.1188 1492.7841,-73.5042 1482.1893,-73.5139 1484.5077,-80.1188"/>
</g>
<!-- Node31 -->
<g id="node32" class="node">
<title>Node31</title>
<polygon fill="#ffffff" stroke="#bfbfbf" points="1572.5962,-55.5 1572.5962,-73.5 1631.4038,-73.5 1631.4038,-55.5 1572.5962,-55.5"/>
<text text-anchor="middle" x="1602" y="-61.5" font-family="Helvetica,sans-Serif" font-size="10.00" fill="#000000">jansson.h</text>
</g>
<!-- Node1&#45;&gt;Node31 -->
<g id="edge35" class="edge">
<title>Node1&#45;&gt;Node31</title>
<path fill="none" stroke="#191970" d="M1406.4554,-112.0162C1442.0762,-103.5218 1502.1122,-89.1468 1562.805,-74.2795"/>
<polygon fill="#191970" stroke="#191970" points="1563.6694,-77.6713 1572.5479,-71.89 1562.002,-70.8728 1563.6694,-77.6713"/>
</g>
<!-- Node32 -->
<g id="node33" class="node">
<title>Node32</title>
<g id="a_node33"><a xlink:href="libcli_8h.html" target="_top" xlink:title="libcli.h">
<polygon fill="#ffffff" stroke="#000000" points="2028.106,-55.5 2028.106,-73.5 2071.894,-73.5 2071.894,-55.5 2028.106,-55.5"/>
<text text-anchor="middle" x="2050" y="-61.5" font-family="Helvetica,sans-Serif" font-size="10.00" fill="#000000">libcli.h</text>
</a>
</g>
</g>
<!-- Node1&#45;&gt;Node32 -->
<g id="edge36" class="edge">
<title>Node1&#45;&gt;Node32</title>
<path fill="none" stroke="#191970" d="M1406.5716,-118.2189C1516.225,-113.625 1880.8913,-97.1044 2017.9455,-73.7309"/>
<polygon fill="#191970" stroke="#191970" points="2018.5747,-77.174 2027.7996,-71.9634 2017.3388,-70.284 2018.5747,-77.174"/>
</g>
<!-- Node33 -->
<g id="node34" class="node">
<title>Node33</title>
<polygon fill="#ffffff" stroke="#bfbfbf" points="1686.7734,-55.5 1686.7734,-73.5 1737.2266,-73.5 1737.2266,-55.5 1686.7734,-55.5"/>
<text text-anchor="middle" x="1712" y="-61.5" font-family="Helvetica,sans-Serif" font-size="10.00" fill="#000000">mysql.h</text>
</g>
<!-- Node1&#45;&gt;Node33 -->
<g id="edge40" class="edge">
<title>Node1&#45;&gt;Node33</title>
<path fill="none" stroke="#191970" d="M1406.4768,-115.6146C1461.0093,-108.6782 1576.4779,-93.0867 1673,-74 1674.0938,-73.7837 1675.2033,-73.5573 1676.3221,-73.323"/>
<polygon fill="#191970" stroke="#191970" points="1677.4801,-76.6507 1686.4771,-71.0556 1675.9547,-69.8189 1677.4801,-76.6507"/>
</g>
<!-- Node34 -->
<g id="node35" class="node">
<title>Node34</title>
<polygon fill="#ffffff" stroke="#bfbfbf" points="1755.3843,-55.5 1755.3843,-73.5 1798.6157,-73.5 1798.6157,-55.5 1755.3843,-55.5"/>
<text text-anchor="middle" x="1777" y="-61.5" font-family="Helvetica,sans-Serif" font-size="10.00" fill="#000000">zmq.h</text>
</g>
<!-- Node1&#45;&gt;Node34 -->
<g id="edge41" class="edge">
<title>Node1&#45;&gt;Node34</title>
<path fill="none" stroke="#191970" d="M1406.5775,-117.5023C1469.4126,-113.1271 1614.5966,-101.0196 1745.3237,-73.8003"/>
<polygon fill="#191970" stroke="#191970" points="1746.0513,-77.224 1755.1094,-71.7283 1744.6012,-70.3758 1746.0513,-77.224"/>
</g>
<!-- Node35 -->
<g id="node36" class="node">
<title>Node35</title>
<g id="a_node36"><a xlink:href="src_2include_2type_8h.html" target="_top" xlink:title="type.h">
<polygon fill="#ffffff" stroke="#000000" points="2409.3794,-55.5 2409.3794,-73.5 2452.6206,-73.5 2452.6206,-55.5 2409.3794,-55.5"/>
<text text-anchor="middle" x="2431" y="-61.5" font-family="Helvetica,sans-Serif" font-size="10.00" fill="#000000">type.h</text>
</a>
</g>
</g>
<!-- Node1&#45;&gt;Node35 -->
<g id="edge42" class="edge">
<title>Node1&#45;&gt;Node35</title>
<path fill="none" stroke="#191970" d="M1406.7534,-119.1705C1555.174,-117.4682 2182.0649,-108.4376 2399.128,-73.6223"/>
<polygon fill="#191970" stroke="#191970" points="2399.866,-77.0475 2409.1511,-71.9448 2398.7105,-70.1436 2399.866,-77.0475"/>
</g>
<!-- Node27&#45;&gt;Node1 -->
<g id="edge28" class="edge">
<title>Node27&#45;&gt;Node1</title>
<path fill="none" stroke="#191970" d="M1380.2068,-73.7795C1381.6791,-81.0373 1382.0979,-91.3738 1381.4632,-100.383"/>
<polygon fill="#191970" stroke="#191970" points="1377.9769,-100.0517 1380.1663,-110.4179 1384.9192,-100.949 1377.9769,-100.0517"/>
</g>
<!-- Node28&#45;&gt;Node1 -->
<g id="edge30" class="edge">
<title>Node28&#45;&gt;Node1</title>
<path fill="none" stroke="#191970" d="M1440.0591,-73.7795C1430.7068,-82.2337 1414.4567,-94.8651 1400.4245,-104.7102"/>
<polygon fill="#191970" stroke="#191970" points="1398.3451,-101.8918 1392.0557,-110.4179 1402.2893,-107.6749 1398.3451,-101.8918"/>
</g>
<!-- Node29&#45;&gt;Node1 -->
<g id="edge32" class="edge">
<title>Node29&#45;&gt;Node1</title>
<path fill="none" stroke="#191970" d="M1502.859,-73.5956C1480.3681,-82.7164 1442.845,-96.8298 1414.1735,-106.9997"/>
<polygon fill="#191970" stroke="#191970" points="1412.7157,-103.8021 1404.4404,-110.4179 1415.0352,-110.4066 1412.7157,-103.8021"/>
</g>
<!-- Node29&#45;&gt;Node30 -->
<g id="edge33" class="edge">
<title>Node29&#45;&gt;Node30</title>
<path fill="none" stroke="#191970" d="M1489.0765,-56.5378C1486.0196,-55.9545 1482.9595,-55.4282 1480,-55 1220.5867,-17.4694 902.5841,-10.8844 807.871,-9.7388"/>
<polygon fill="#191970" stroke="#191970" points="807.7264,-6.2371 797.6885,-9.6267 807.6493,-13.2367 807.7264,-6.2371"/>
</g>
<!-- Node30&#45;&gt;Node1 -->
<g id="edge34" class="edge">
<title>Node30&#45;&gt;Node1</title>
<path fill="none" stroke="#191970" d="M797.6789,-9.7531C917.7698,-11.5558 1609.9363,-23.3036 1640,-55 1645.8112,-61.1268 1645.4425,-67.5434 1640,-74 1625.7519,-90.903 1487.4861,-107.7045 1416.5443,-115.2993"/>
<polygon fill="#191970" stroke="#191970" points="1416.1653,-111.8198 1406.5888,-116.3519 1416.9014,-118.781 1416.1653,-111.8198"/>
</g>
<!-- Node32&#45;&gt;Node2 -->
<g id="edge38" class="edge">
<title>Node32&#45;&gt;Node2</title>
<path fill="none" stroke="#191970" d="M2054.1282,-55.4179C2057.5096,-47.9789 2062.4035,-37.2123 2066.6027,-27.9742"/>
<polygon fill="#191970" stroke="#191970" points="2069.8303,-29.3315 2070.7821,-18.7795 2063.4577,-26.4348 2069.8303,-29.3315"/>
</g>
<!-- Node32&#45;&gt;Node5 -->
<g id="edge37" class="edge">
<title>Node32&#45;&gt;Node5</title>
<path fill="none" stroke="#191970" d="M2028.0012,-57.6981C2024.9798,-56.7816 2021.9151,-55.8611 2019,-55 1976.5145,-42.4506 1927.4958,-28.6037 1895.0281,-19.5202"/>
<polygon fill="#191970" stroke="#191970" points="1895.6704,-16.0657 1885.0974,-16.746 1893.787,-22.8076 1895.6704,-16.0657"/>
</g>
<!-- Node32&#45;&gt;Node15 -->
<g id="edge39" class="edge">
<title>Node32&#45;&gt;Node15</title>
<path fill="none" stroke="#191970" d="M2036.1291,-55.4179C2023.2403,-46.9788 2003.8106,-34.257 1988.6686,-24.3426"/>
<polygon fill="#191970" stroke="#191970" points="1990.175,-21.1454 1979.8915,-18.5956 1986.3404,-27.0017 1990.175,-21.1454"/>
</g>
<!-- Node36&#45;&gt;Node1 -->
<g id="edge44" class="edge">
<title>Node36&#45;&gt;Node1</title>
<path fill="none" stroke="#191970" d="M1221.2817,-220.2555C1223.6802,-206.383 1230.1235,-180.1915 1246,-165 1269.8396,-142.1889 1305.7995,-130.7361 1333.7017,-125.0317"/>
<polygon fill="#191970" stroke="#191970" points="1334.3958,-128.4626 1343.5796,-123.1798 1333.1058,-121.5825 1334.3958,-128.4626"/>
</g>
<!-- Node36&#45;&gt;Node30 -->
<g id="edge49" class="edge">
<title>Node36&#45;&gt;Node30</title>
<path fill="none" stroke="#191970" d="M1183.7398,-227.4439C995.2887,-216.3976 133.4284,-161.3275 57,-74 51.4386,-67.6455 51.2194,-61.1558 57,-55 81.2341,-29.1929 622.2617,-13.5815 752.1513,-10.1972"/>
<polygon fill="#191970" stroke="#191970" points="752.5311,-13.6887 762.4378,-9.9325 752.351,-6.691 752.5311,-13.6887"/>
</g>
<!-- Node37 -->
<g id="node38" class="node">
<title>Node37</title>
<g id="a_node38"><a xlink:href="src_2include_2context_8h.html" target="_top" xlink:title="context.h">
<polygon fill="#ffffff" stroke="#000000" points="1318.7095,-165.5 1318.7095,-183.5 1375.2905,-183.5 1375.2905,-165.5 1318.7095,-165.5"/>
<text text-anchor="middle" x="1347" y="-171.5" font-family="Helvetica,sans-Serif" font-size="10.00" fill="#000000">context.h</text>
</a>
</g>
</g>
<!-- Node36&#45;&gt;Node37 -->
<g id="edge45" class="edge">
<title>Node36&#45;&gt;Node37</title>
<path fill="none" stroke="#191970" d="M1240.9715,-220.4179C1261.5611,-211.5011 1293.1911,-197.803 1316.5494,-187.6873"/>
<polygon fill="#191970" stroke="#191970" points="1318.2119,-190.7815 1325.9974,-183.5956 1315.43,-184.358 1318.2119,-190.7815"/>
</g>
<!-- Node36&#45;&gt;Node38 -->
<g id="edge47" class="edge">
<title>Node36&#45;&gt;Node38</title>
<path fill="none" stroke="#191970" d="M1229.5775,-220.4179C1238.0064,-212.425 1250.4866,-200.5903 1260.6656,-190.9377"/>
<polygon fill="#191970" stroke="#191970" points="1263.3665,-193.2001 1268.2144,-183.7795 1258.5498,-188.1207 1263.3665,-193.2001"/>
</g>
<!-- Node37&#45;&gt;Node1 -->
<g id="edge46" class="edge">
<title>Node37&#45;&gt;Node1</title>
<path fill="none" stroke="#191970" d="M1351.6236,-165.4179C1355.4107,-157.9789 1360.8919,-147.2123 1365.595,-137.9742"/>
<polygon fill="#191970" stroke="#191970" points="1368.8581,-139.279 1370.2759,-128.7795 1362.62,-136.1032 1368.8581,-139.279"/>
</g>
<!-- Node38&#45;&gt;Node1 -->
<g id="edge48" class="edge">
<title>Node38&#45;&gt;Node1</title>
<path fill="none" stroke="#191970" d="M1294.0176,-165.4179C1309.1819,-156.8195 1332.1871,-143.7754 1349.8075,-133.7844"/>
<polygon fill="#191970" stroke="#191970" points="1351.986,-136.5727 1358.9586,-128.5956 1348.5333,-130.4834 1351.986,-136.5727"/>
</g>
<!-- Node39&#45;&gt;Node1 -->
<g id="edge51" class="edge">
<title>Node39&#45;&gt;Node1</title>
<path fill="none" stroke="#191970" d="M1400.7086,-220.4982C1396.1555,-202.6108 1385.8842,-162.2594 1379.7923,-138.3271"/>
<polygon fill="#191970" stroke="#191970" points="1383.1817,-137.4537 1377.323,-128.6261 1376.398,-139.1805 1383.1817,-137.4537"/>
</g>
<!-- Node39&#45;&gt;Node37 -->
<g id="edge52" class="edge">
<title>Node39&#45;&gt;Node37</title>
<path fill="none" stroke="#191970" d="M1393.7527,-220.4179C1385.6145,-212.425 1373.5647,-200.5903 1363.7366,-190.9377"/>
<polygon fill="#191970" stroke="#191970" points="1366.0352,-188.2895 1356.4482,-183.7795 1361.1302,-193.2836 1366.0352,-188.2895"/>
</g>
<!-- Node40 -->
<g id="node41" class="node">
<title>Node40</title>
<g id="a_node41"><a xlink:href="app__events_2include_2app__event__id_8h.html" target="_top" xlink:title="app_event_id.h">
<polygon fill="#ffffff" stroke="#000000" points="1430.8032,-165.5 1430.8032,-183.5 1515.1968,-183.5 1515.1968,-165.5 1430.8032,-165.5"/>
<text text-anchor="middle" x="1473" y="-171.5" font-family="Helvetica,sans-Serif" font-size="10.00" fill="#000000">app_event_id.h</text>
</a>
</g>
</g>
<!-- Node39&#45;&gt;Node40 -->
<g id="edge53" class="edge">
<title>Node39&#45;&gt;Node40</title>
<path fill="none" stroke="#191970" d="M1414.5591,-220.4179C1425.034,-212.1876 1440.6932,-199.8839 1453.1664,-190.0836"/>
<polygon fill="#191970" stroke="#191970" points="1455.489,-192.7098 1461.1898,-183.7795 1451.1642,-187.2056 1455.489,-192.7098"/>
</g>
<!-- Node41 -->
<g id="node42" class="node">
<title>Node41</title>
<g id="a_node42"><a xlink:href="app__events_2include_2app__event__list_8h.html" target="_top" xlink:title="app_event_list.h">
<polygon fill="#ffffff" stroke="#000000" points="2171.584,-110.5 2171.584,-128.5 2260.416,-128.5 2260.416,-110.5 2171.584,-110.5"/>
<text text-anchor="middle" x="2216" y="-116.5" font-family="Helvetica,sans-Serif" font-size="10.00" fill="#000000">app_event_list.h</text>
</a>
</g>
</g>
<!-- Node39&#45;&gt;Node41 -->
<g id="edge54" class="edge">
<title>Node39&#45;&gt;Node41</title>
<path fill="none" stroke="#191970" d="M1438.7191,-224.6672C1567.1647,-207.2883 2006.1731,-147.8899 2161.2242,-126.9112"/>
<polygon fill="#191970" stroke="#191970" points="2162.0146,-130.3363 2171.455,-125.527 2161.076,-123.3995 2162.0146,-130.3363"/>
</g>
<!-- Node41&#45;&gt;Node35 -->
<g id="edge55" class="edge">
<title>Node41&#45;&gt;Node35</title>
<path fill="none" stroke="#191970" d="M2255.2869,-110.4454C2290.6086,-102.1575 2344.1138,-89.241 2399.6993,-73.9697"/>
<polygon fill="#191970" stroke="#191970" points="2400.6593,-77.3357 2409.3642,-71.2962 2398.793,-70.5891 2400.6593,-77.3357"/>
</g>
</g>
</svg>
