<?xml version="1.0" encoding="UTF-8" standalone="no"?>
<!DOCTYPE svg PUBLIC "-//W3C//DTD SVG 1.1//EN"
 "http://www.w3.org/Graphics/SVG/1.1/DTD/svg11.dtd">
<!-- Generated by graphviz version 2.40.1 (20161225.0304)
 -->
<!-- Title: ext_comps/shim/include/type.h Pages: 1 -->
<svg width="487pt" height="352pt"
 viewBox="0.00 0.00 486.71 352.00" xmlns="http://www.w3.org/2000/svg" xmlns:xlink="http://www.w3.org/1999/xlink">
<g id="graph0" class="graph" transform="scale(1 1) rotate(0) translate(4 348)">
<title>ext_comps/shim/include/type.h</title>
<polygon fill="#ffffff" stroke="transparent" points="-4,4 -4,-348 482.7139,-348 482.7139,4 -4,4"/>
<!-- Node1 -->
<g id="node1" class="node">
<title>Node1</title>
<polygon fill="#bfbfbf" stroke="#000000" points="244,-315.5 244,-343.5 366.7139,-343.5 366.7139,-315.5 244,-315.5"/>
<text text-anchor="start" x="252" y="-331.5" font-family="Helvetica,sans-Serif" font-size="10.00" fill="#000000">ext_comps/shim/include</text>
<text text-anchor="middle" x="305.3569" y="-321.5" font-family="Helvetica,sans-Serif" font-size="10.00" fill="#000000">/type.h</text>
</g>
<!-- Node2 -->
<g id="node2" class="node">
<title>Node2</title>
<g id="a_node2"><a xlink:href="ext__comps_2shim_2include_2common_8h.html" target="_top" xlink:title="ext_comps/shim/include\l/common.h">
<polygon fill="#ffffff" stroke="#000000" points="178,-250.5 178,-278.5 300.7139,-278.5 300.7139,-250.5 178,-250.5"/>
<text text-anchor="start" x="186" y="-266.5" font-family="Helvetica,sans-Serif" font-size="10.00" fill="#000000">ext_comps/shim/include</text>
<text text-anchor="middle" x="239.3569" y="-256.5" font-family="Helvetica,sans-Serif" font-size="10.00" fill="#000000">/common.h</text>
</a>
</g>
</g>
<!-- Node1&#45;&gt;Node2 -->
<g id="edge1" class="edge">
<title>Node1&#45;&gt;Node2</title>
<path fill="none" stroke="#191970" d="M283.8424,-308.3115C273.9422,-298.5612 262.4661,-287.259 253.65,-278.5765"/>
<polygon fill="#191970" stroke="#191970" points="281.4551,-310.8728 291.0359,-315.396 286.367,-305.8853 281.4551,-310.8728"/>
</g>
<!-- Node9 -->
<g id="node9" class="node">
<title>Node9</title>
<g id="a_node9"><a xlink:href="ext__comps_2shim_2include_2event__list_8h.html" target="_top" xlink:title="ext_comps/shim/include\l/event_list.h">
<polygon fill="#ffffff" stroke="#000000" points="356,-185.5 356,-213.5 478.7139,-213.5 478.7139,-185.5 356,-185.5"/>
<text text-anchor="start" x="364" y="-201.5" font-family="Helvetica,sans-Serif" font-size="10.00" fill="#000000">ext_comps/shim/include</text>
<text text-anchor="middle" x="417.3569" y="-191.5" font-family="Helvetica,sans-Serif" font-size="10.00" fill="#000000">/event_list.h</text>
</a>
</g>
</g>
<!-- Node1&#45;&gt;Node9 -->
<g id="edge11" class="edge">
<title>Node1&#45;&gt;Node9</title>
<path fill="none" stroke="#191970" d="M324.1838,-307.6474C347.2492,-280.8751 385.6581,-236.2933 405.1728,-213.6423"/>
<polygon fill="#191970" stroke="#191970" points="321.4316,-305.4796 317.5561,-315.3402 326.7349,-310.0486 321.4316,-305.4796"/>
</g>
<!-- Node3 -->
<g id="node3" class="node">
<title>Node3</title>
<g id="a_node3"><a xlink:href="ext__comps_2shim_2include_2component_8h.html" target="_top" xlink:title="ext_comps/shim/include\l/component.h">
<polygon fill="#ffffff" stroke="#000000" points="0,-120.5 0,-148.5 122.7139,-148.5 122.7139,-120.5 0,-120.5"/>
<text text-anchor="start" x="8" y="-136.5" font-family="Helvetica,sans-Serif" font-size="10.00" fill="#000000">ext_comps/shim/include</text>
<text text-anchor="middle" x="61.3569" y="-126.5" font-family="Helvetica,sans-Serif" font-size="10.00" fill="#000000">/component.h</text>
</a>
</g>
</g>
<!-- Node2&#45;&gt;Node3 -->
<g id="edge2" class="edge">
<title>Node2&#45;&gt;Node3</title>
<path fill="none" stroke="#191970" d="M193.5768,-246.3269C174.959,-237.8747 153.7741,-226.8379 136.3569,-214 110.2385,-194.7485 85.549,-165.7443 72.033,-148.6061"/>
<polygon fill="#191970" stroke="#191970" points="192.2013,-249.5455 202.7628,-250.3858 195.0305,-243.1427 192.2013,-249.5455"/>
</g>
<!-- Node4 -->
<g id="node4" class="node">
<title>Node4</title>
<g id="a_node4"><a xlink:href="ext__comps_2shim_2include_2shim_8h.html" target="_top" xlink:title="ext_comps/shim/include\l/shim.h">
<polygon fill="#ffffff" stroke="#000000" points="89,-55.5 89,-83.5 211.7139,-83.5 211.7139,-55.5 89,-55.5"/>
<text text-anchor="start" x="97" y="-71.5" font-family="Helvetica,sans-Serif" font-size="10.00" fill="#000000">ext_comps/shim/include</text>
<text text-anchor="middle" x="150.3569" y="-61.5" font-family="Helvetica,sans-Serif" font-size="10.00" fill="#000000">/shim.h</text>
</a>
</g>
</g>
<!-- Node2&#45;&gt;Node4 -->
<g id="edge10" class="edge">
<title>Node2&#45;&gt;Node4</title>
<path fill="none" stroke="#191970" d="M200.9441,-244.9864C188.9506,-237.0009 176.8989,-226.6309 169.3569,-214 144.3213,-172.0714 146.2356,-111.2331 148.694,-83.8286"/>
<polygon fill="#191970" stroke="#191970" points="199.2629,-248.0626 209.6016,-250.378 202.9633,-242.1206 199.2629,-248.0626"/>
</g>
<!-- Node7 -->
<g id="node7" class="node">
<title>Node7</title>
<g id="a_node7"><a xlink:href="ext__comps_2shim_2include_2context_8h.html" target="_top" xlink:title="ext_comps/shim/include\l/context.h">
<polygon fill="#ffffff" stroke="#000000" points="178,-185.5 178,-213.5 300.7139,-213.5 300.7139,-185.5 178,-185.5"/>
<text text-anchor="start" x="186" y="-201.5" font-family="Helvetica,sans-Serif" font-size="10.00" fill="#000000">ext_comps/shim/include</text>
<text text-anchor="middle" x="239.3569" y="-191.5" font-family="Helvetica,sans-Serif" font-size="10.00" fill="#000000">/context.h</text>
</a>
</g>
</g>
<!-- Node2&#45;&gt;Node7 -->
<g id="edge6" class="edge">
<title>Node2&#45;&gt;Node7</title>
<path fill="none" stroke="#191970" d="M239.3569,-240.1081C239.3569,-231.1539 239.3569,-221.3227 239.3569,-213.5765"/>
<polygon fill="#191970" stroke="#191970" points="235.857,-240.3959 239.3569,-250.396 242.857,-240.396 235.857,-240.3959"/>
</g>
<!-- Node8 -->
<g id="node8" class="node">
<title>Node8</title>
<g id="a_node8"><a xlink:href="ext__comps_2shim_2include_2event_8h.html" target="_top" xlink:title="ext_comps/shim/include\l/event.h">
<polygon fill="#ffffff" stroke="#000000" points="222,-120.5 222,-148.5 344.7139,-148.5 344.7139,-120.5 222,-120.5"/>
<text text-anchor="start" x="230" y="-136.5" font-family="Helvetica,sans-Serif" font-size="10.00" fill="#000000">ext_comps/shim/include</text>
<text text-anchor="middle" x="283.3569" y="-126.5" font-family="Helvetica,sans-Serif" font-size="10.00" fill="#000000">/event.h</text>
</a>
</g>
</g>
<!-- Node2&#45;&gt;Node8 -->
<g id="edge9" class="edge">
<title>Node2&#45;&gt;Node8</title>
<path fill="none" stroke="#191970" d="M279.3224,-245.1248C291.1878,-237.2308 302.766,-226.8819 309.3569,-214 320.469,-192.2816 305.7992,-164.8308 294.4007,-148.5247"/>
<polygon fill="#191970" stroke="#191970" points="277.3754,-242.2134 270.6991,-250.44 281.0484,-248.1724 277.3754,-242.2134"/>
</g>
<!-- Node3&#45;&gt;Node4 -->
<g id="edge3" class="edge">
<title>Node3&#45;&gt;Node4</title>
<path fill="none" stroke="#191970" d="M88.8084,-114.4511C102.5,-104.4517 118.7283,-92.5995 131.0829,-83.5765"/>
<polygon fill="#191970" stroke="#191970" points="86.6799,-111.6716 80.6686,-120.396 90.8085,-117.3245 86.6799,-111.6716"/>
</g>
<!-- Node5 -->
<g id="node5" class="node">
<title>Node5</title>
<g id="a_node5"><a xlink:href="ext__apps_2shim_2shim_8c.html" target="_top" xlink:title="ext_apps/shim/shim.c">
<polygon fill="#ffffff" stroke="#000000" points="27.2832,-.5 27.2832,-18.5 139.4307,-18.5 139.4307,-.5 27.2832,-.5"/>
<text text-anchor="middle" x="83.3569" y="-6.5" font-family="Helvetica,sans-Serif" font-size="10.00" fill="#000000">ext_apps/shim/shim.c</text>
</a>
</g>
</g>
<!-- Node4&#45;&gt;Node5 -->
<g id="edge4" class="edge">
<title>Node4&#45;&gt;Node5</title>
<path fill="none" stroke="#191970" d="M126.9159,-48.508C115.4871,-38.2733 102.3366,-26.4967 93.5009,-18.5842"/>
<polygon fill="#191970" stroke="#191970" points="124.6944,-51.2169 134.4789,-55.2808 129.3643,-46.0023 124.6944,-51.2169"/>
</g>
<!-- Node6 -->
<g id="node6" class="node">
<title>Node6</title>
<g id="a_node6"><a xlink:href="ext__comps_2shim_2shim_8c.html" target="_top" xlink:title="ext_comps/shim/shim.c">
<polygon fill="#ffffff" stroke="#000000" points="157.3989,-.5 157.3989,-18.5 277.3149,-18.5 277.3149,-.5 157.3989,-.5"/>
<text text-anchor="middle" x="217.3569" y="-6.5" font-family="Helvetica,sans-Serif" font-size="10.00" fill="#000000">ext_comps/shim/shim.c</text>
</a>
</g>
</g>
<!-- Node4&#45;&gt;Node6 -->
<g id="edge5" class="edge">
<title>Node4&#45;&gt;Node6</title>
<path fill="none" stroke="#191970" d="M173.798,-48.508C185.2268,-38.2733 198.3773,-26.4967 207.2129,-18.5842"/>
<polygon fill="#191970" stroke="#191970" points="171.3496,-46.0023 166.235,-55.2808 176.0195,-51.2169 171.3496,-46.0023"/>
</g>
<!-- Node7&#45;&gt;Node8 -->
<g id="edge7" class="edge">
<title>Node7&#45;&gt;Node8</title>
<path fill="none" stroke="#191970" d="M254.6778,-176.8669C261.0459,-167.4594 268.2389,-156.8334 273.8282,-148.5765"/>
<polygon fill="#191970" stroke="#191970" points="251.6116,-175.1529 248.9043,-185.396 257.4084,-179.0769 251.6116,-175.1529"/>
</g>
<!-- Node8&#45;&gt;Node4 -->
<g id="edge8" class="edge">
<title>Node8&#45;&gt;Node4</title>
<path fill="none" stroke="#191970" d="M245.4868,-115.9921C224.4057,-105.6892 198.5801,-93.0677 179.1596,-83.5765"/>
<polygon fill="#191970" stroke="#191970" points="243.9766,-119.1496 254.4979,-120.396 247.0503,-112.8605 243.9766,-119.1496"/>
</g>
<!-- Node9&#45;&gt;Node8 -->
<g id="edge12" class="edge">
<title>Node9&#45;&gt;Node8</title>
<path fill="none" stroke="#191970" d="M379.2021,-180.9921C357.9624,-170.6892 331.9427,-158.0677 312.3762,-148.5765"/>
<polygon fill="#191970" stroke="#191970" points="377.756,-184.1806 388.2809,-185.396 380.8111,-177.8825 377.756,-184.1806"/>
</g>
</g>
</svg>
