<?xml version="1.0" encoding="UTF-8" standalone="no"?>
<!DOCTYPE svg PUBLIC "-//W3C//DTD SVG 1.1//EN"
 "http://www.w3.org/Graphics/SVG/1.1/DTD/svg11.dtd">
<!-- Generated by graphviz version 2.40.1 (20161225.0304)
 -->
<!-- Title: ext_apps/shim/include/common.h Pages: 1 -->
<svg width="268pt" height="232pt"
 viewBox="0.00 0.00 268.20 232.00" xmlns="http://www.w3.org/2000/svg" xmlns:xlink="http://www.w3.org/1999/xlink">
<g id="graph0" class="graph" transform="scale(1 1) rotate(0) translate(4 228)">
<title>ext_apps/shim/include/common.h</title>
<polygon fill="#ffffff" stroke="transparent" points="-4,4 -4,-228 264.2037,-228 264.2037,4 -4,4"/>
<!-- Node37 -->
<g id="node1" class="node">
<title>Node37</title>
<polygon fill="#bfbfbf" stroke="#000000" points="17.2584,-195.5 17.2584,-223.5 132.2037,-223.5 132.2037,-195.5 17.2584,-195.5"/>
<text text-anchor="start" x="25.2584" y="-211.5" font-family="Helvetica,sans-Serif" font-size="10.00" fill="#000000">ext_apps/shim/include</text>
<text text-anchor="middle" x="74.7311" y="-201.5" font-family="Helvetica,sans-Serif" font-size="10.00" fill="#000000">/common.h</text>
</g>
<!-- Node38 -->
<g id="node2" class="node">
<title>Node38</title>
<g id="a_node2"><a xlink:href="ext__apps_2shim_2include_2app__event_8h.html" target="_top" xlink:title="ext_apps/shim/include\l/app_event.h">
<polygon fill="#ffffff" stroke="#000000" points="12.2584,-65.5 12.2584,-93.5 127.2037,-93.5 127.2037,-65.5 12.2584,-65.5"/>
<text text-anchor="start" x="20.2584" y="-81.5" font-family="Helvetica,sans-Serif" font-size="10.00" fill="#000000">ext_apps/shim/include</text>
<text text-anchor="middle" x="69.7311" y="-71.5" font-family="Helvetica,sans-Serif" font-size="10.00" fill="#000000">/app_event.h</text>
</a>
</g>
</g>
<!-- Node37&#45;&gt;Node38 -->
<g id="edge1" class="edge">
<title>Node37&#45;&gt;Node38</title>
<path fill="none" stroke="#191970" d="M61.6947,-186.38C57.6663,-178.0212 53.7575,-168.3382 51.7311,-159 46.7494,-136.0429 55.7968,-109.4308 62.774,-93.5566"/>
<polygon fill="#191970" stroke="#191970" points="58.6894,-188.1894 66.373,-195.4842 64.9155,-184.99 58.6894,-188.1894"/>
</g>
<!-- Node39 -->
<g id="node3" class="node">
<title>Node39</title>
<g id="a_node3"><a xlink:href="ext__apps_2shim_2include_2shim_8h.html" target="_top" xlink:title="ext_apps/shim/include\l/shim.h">
<polygon fill="#ffffff" stroke="#000000" points="12.2584,-.5 12.2584,-28.5 127.2037,-28.5 127.2037,-.5 12.2584,-.5"/>
<text text-anchor="start" x="20.2584" y="-16.5" font-family="Helvetica,sans-Serif" font-size="10.00" fill="#000000">ext_apps/shim/include</text>
<text text-anchor="middle" x="69.7311" y="-6.5" font-family="Helvetica,sans-Serif" font-size="10.00" fill="#000000">/shim.h</text>
</a>
</g>
</g>
<!-- Node37&#45;&gt;Node39 -->
<g id="edge8" class="edge">
<title>Node37&#45;&gt;Node39</title>
<path fill="none" stroke="#191970" d="M55.9397,-187.4237C38.5316,-165.4058 13.8523,-129.7916 3.7311,-94 .2239,-81.5975 -1.9775,-76.5558 3.7311,-65 11.527,-49.2187 26.8818,-37.0098 40.8204,-28.5525"/>
<polygon fill="#191970" stroke="#191970" points="53.4218,-189.8758 62.4367,-195.4418 58.8605,-185.4688 53.4218,-189.8758"/>
</g>
<!-- Node40 -->
<g id="node4" class="node">
<title>Node40</title>
<g id="a_node4"><a xlink:href="ext__apps_2shim_2include_2context_8h.html" target="_top" xlink:title="ext_apps/shim/include\l/context.h">
<polygon fill="#ffffff" stroke="#000000" points="60.2584,-130.5 60.2584,-158.5 175.2037,-158.5 175.2037,-130.5 60.2584,-130.5"/>
<text text-anchor="start" x="68.2584" y="-146.5" font-family="Helvetica,sans-Serif" font-size="10.00" fill="#000000">ext_apps/shim/include</text>
<text text-anchor="middle" x="117.7311" y="-136.5" font-family="Helvetica,sans-Serif" font-size="10.00" fill="#000000">/context.h</text>
</a>
</g>
</g>
<!-- Node37&#45;&gt;Node40 -->
<g id="edge3" class="edge">
<title>Node37&#45;&gt;Node40</title>
<path fill="none" stroke="#191970" d="M89.7037,-186.8669C95.9271,-177.4594 102.9566,-166.8334 108.4189,-158.5765"/>
<polygon fill="#191970" stroke="#191970" points="86.6598,-185.1247 84.0614,-195.396 92.4979,-188.9869 86.6598,-185.1247"/>
</g>
<!-- Node41 -->
<g id="node5" class="node">
<title>Node41</title>
<g id="a_node5"><a xlink:href="ext__apps_2shim_2include_2application_8h.html" target="_top" xlink:title="ext_apps/shim/include\l/application.h">
<polygon fill="#ffffff" stroke="#000000" points="145.2584,-65.5 145.2584,-93.5 260.2037,-93.5 260.2037,-65.5 145.2584,-65.5"/>
<text text-anchor="start" x="153.2584" y="-81.5" font-family="Helvetica,sans-Serif" font-size="10.00" fill="#000000">ext_apps/shim/include</text>
<text text-anchor="middle" x="202.7311" y="-71.5" font-family="Helvetica,sans-Serif" font-size="10.00" fill="#000000">/application.h</text>
</a>
</g>
</g>
<!-- Node37&#45;&gt;Node41 -->
<g id="edge7" class="edge">
<title>Node37&#45;&gt;Node41</title>
<path fill="none" stroke="#191970" d="M138.1134,-191.5183C155.056,-183.9493 171.9188,-173.4362 183.7311,-159 199.098,-140.2195 202.4131,-111.0571 202.9205,-93.7619"/>
<polygon fill="#191970" stroke="#191970" points="136.6112,-188.3524 128.7242,-195.4267 139.3013,-194.8149 136.6112,-188.3524"/>
</g>
<!-- Node38&#45;&gt;Node39 -->
<g id="edge2" class="edge">
<title>Node38&#45;&gt;Node39</title>
<path fill="none" stroke="#191970" d="M69.7311,-55.1081C69.7311,-46.1539 69.7311,-36.3227 69.7311,-28.5765"/>
<polygon fill="#191970" stroke="#191970" points="66.2312,-55.3959 69.7311,-65.396 73.2312,-55.396 66.2312,-55.3959"/>
</g>
<!-- Node40&#45;&gt;Node38 -->
<g id="edge4" class="edge">
<title>Node40&#45;&gt;Node38</title>
<path fill="none" stroke="#191970" d="M101.232,-122.1575C94.2323,-112.6788 86.2863,-101.9186 80.126,-93.5765"/>
<polygon fill="#191970" stroke="#191970" points="98.5598,-124.4308 107.3158,-130.396 104.1908,-120.2725 98.5598,-124.4308"/>
</g>
<!-- Node40&#45;&gt;Node41 -->
<g id="edge5" class="edge">
<title>Node40&#45;&gt;Node41</title>
<path fill="none" stroke="#191970" d="M144.3195,-124.1677C157.3171,-114.2283 172.6353,-102.5144 184.3233,-93.5765"/>
<polygon fill="#191970" stroke="#191970" points="141.9923,-121.5412 136.1748,-130.396 146.2445,-127.1017 141.9923,-121.5412"/>
</g>
<!-- Node41&#45;&gt;Node39 -->
<g id="edge6" class="edge">
<title>Node41&#45;&gt;Node39</title>
<path fill="none" stroke="#191970" d="M164.861,-60.9921C143.7798,-50.6892 117.9542,-38.0677 98.5338,-28.5765"/>
<polygon fill="#191970" stroke="#191970" points="163.3508,-64.1496 173.872,-65.396 166.4244,-57.8605 163.3508,-64.1496"/>
</g>
</g>
</svg>
