<?xml version="1.0" encoding="UTF-8" standalone="no"?>
<!DOCTYPE svg PUBLIC "-//W3C//DTD SVG 1.1//EN"
 "http://www.w3.org/Graphics/SVG/1.1/DTD/svg11.dtd">
<!-- Generated by graphviz version 2.40.1 (20161225.0304)
 -->
<!-- Title: ext_comps/conflict/src/conflict.c Pages: 1 -->
<svg width="152pt" height="92pt"
 viewBox="0.00 0.00 151.70 92.00" xmlns="http://www.w3.org/2000/svg" xmlns:xlink="http://www.w3.org/1999/xlink">
<g id="graph0" class="graph" transform="scale(1 1) rotate(0) translate(4 88)">
<title>ext_comps/conflict/src/conflict.c</title>
<polygon fill="#ffffff" stroke="transparent" points="-4,4 -4,-88 147.6968,-88 147.6968,4 -4,4"/>
<!-- Node0 -->
<g id="node1" class="node">
<title>Node0</title>
<polygon fill="#bfbfbf" stroke="#000000" points="18.6035,-55.5 18.6035,-83.5 116.8594,-83.5 116.8594,-55.5 18.6035,-55.5"/>
<text text-anchor="start" x="26.6035" y="-71.5" font-family="Helvetica,sans-Serif" font-size="10.00" fill="#000000">ext_comps/conflict</text>
<text text-anchor="middle" x="67.7314" y="-61.5" font-family="Helvetica,sans-Serif" font-size="10.00" fill="#000000">/src/conflict.c</text>
</g>
<!-- Node1 -->
<g id="node2" class="node">
<title>Node1</title>
<polygon fill="#ffffff" stroke="#bfbfbf" points="0,-.5 0,-18.5 55.4629,-18.5 55.4629,-.5 0,-.5"/>
<text text-anchor="middle" x="27.7314" y="-6.5" font-family="Helvetica,sans-Serif" font-size="10.00" fill="#000000">conflict.h</text>
</g>
<!-- Node0&#45;&gt;Node1 -->
<g id="edge1" class="edge">
<title>Node0&#45;&gt;Node1</title>
<path fill="none" stroke="#191970" d="M58.252,-55.2808C52.628,-46.8448 45.4523,-36.0813 39.4719,-27.1107"/>
<polygon fill="#191970" stroke="#191970" points="42.2468,-24.9632 33.7876,-18.5842 36.4224,-28.8462 42.2468,-24.9632"/>
</g>
<!-- Node2 -->
<g id="node3" class="node">
<title>Node2</title>
<polygon fill="#ffffff" stroke="#bfbfbf" points="73.7661,-.5 73.7661,-18.5 143.6968,-18.5 143.6968,-.5 73.7661,-.5"/>
<text text-anchor="middle" x="108.7314" y="-6.5" font-family="Helvetica,sans-Serif" font-size="10.00" fill="#000000">arr_queue.h</text>
</g>
<!-- Node0&#45;&gt;Node2 -->
<g id="edge2" class="edge">
<title>Node0&#45;&gt;Node2</title>
<path fill="none" stroke="#191970" d="M77.4479,-55.2808C83.2125,-46.8448 90.5676,-36.0813 96.6974,-27.1107"/>
<polygon fill="#191970" stroke="#191970" points="99.7717,-28.8153 102.5239,-18.5842 93.9922,-24.866 99.7717,-28.8153"/>
</g>
</g>
</svg>
