<?xml version="1.0" encoding="UTF-8" standalone="no"?>
<!DOCTYPE svg PUBLIC "-//W3C//DTD SVG 1.1//EN"
 "http://www.w3.org/Graphics/SVG/1.1/DTD/svg11.dtd">
<!-- Generated by graphviz version 2.40.1 (20161225.0304)
 -->
<!-- Title: ext_apps/shim/app_event.c Pages: 1 -->
<svg width="1459pt" height="247pt"
 viewBox="0.00 0.00 1459.35 247.00" xmlns="http://www.w3.org/2000/svg" xmlns:xlink="http://www.w3.org/1999/xlink">
<g id="graph0" class="graph" transform="scale(1 1) rotate(0) translate(4 243)">
<title>ext_apps/shim/app_event.c</title>
<polygon fill="#ffffff" stroke="transparent" points="-4,4 -4,-243 1455.3521,-243 1455.3521,4 -4,4"/>
<!-- Node0 -->
<g id="node1" class="node">
<title>Node0</title>
<polygon fill="#bfbfbf" stroke="#000000" points="537.749,-220.5 537.749,-238.5 675.4922,-238.5 675.4922,-220.5 537.749,-220.5"/>
<text text-anchor="middle" x="606.6206" y="-226.5" font-family="Helvetica,sans-Serif" font-size="10.00" fill="#000000">ext_apps/shim/app_event.c</text>
</g>
<!-- Node1 -->
<g id="node2" class="node">
<title>Node1</title>
<g id="a_node2"><a xlink:href="app__events_2include_2app__event_8h.html" target="_top" xlink:title="app_event.h">
<polygon fill="#ffffff" stroke="#000000" points="409.0962,-165.5 409.0962,-183.5 480.145,-183.5 480.145,-165.5 409.0962,-165.5"/>
<text text-anchor="middle" x="444.6206" y="-171.5" font-family="Helvetica,sans-Serif" font-size="10.00" fill="#000000">app_event.h</text>
</a>
</g>
</g>
<!-- Node0&#45;&gt;Node1 -->
<g id="edge1" class="edge">
<title>Node0&#45;&gt;Node1</title>
<path fill="none" stroke="#191970" d="M579.8696,-220.4179C552.8214,-211.2348 510.8366,-196.9807 480.8229,-186.7909"/>
<polygon fill="#191970" stroke="#191970" points="481.7365,-183.4049 471.1421,-183.5042 479.486,-190.0333 481.7365,-183.4049"/>
</g>
<!-- Node26 -->
<g id="node27" class="node">
<title>Node26</title>
<g id="a_node27"><a xlink:href="src_2include_2application_8h.html" target="_top" xlink:title="application.h">
<polygon fill="#ffffff" stroke="#000000" points="520.5444,-165.5 520.5444,-183.5 592.6968,-183.5 592.6968,-165.5 520.5444,-165.5"/>
<text text-anchor="middle" x="556.6206" y="-171.5" font-family="Helvetica,sans-Serif" font-size="10.00" fill="#000000">application.h</text>
</a>
</g>
</g>
<!-- Node0&#45;&gt;Node26 -->
<g id="edge28" class="edge">
<title>Node0&#45;&gt;Node26</title>
<path fill="none" stroke="#191970" d="M598.3641,-220.4179C591.1698,-212.5041 580.5518,-200.8243 571.8252,-191.2251"/>
<polygon fill="#191970" stroke="#191970" points="574.373,-188.8245 565.0565,-183.7795 569.1934,-193.5332 574.373,-188.8245"/>
</g>
<!-- Node29 -->
<g id="node30" class="node">
<title>Node29</title>
<g id="a_node30"><a xlink:href="application__info_8h.html" target="_top" xlink:title="application_info.h">
<polygon fill="#ffffff" stroke="#000000" points="610.7021,-165.5 610.7021,-183.5 704.5391,-183.5 704.5391,-165.5 610.7021,-165.5"/>
<text text-anchor="middle" x="657.6206" y="-171.5" font-family="Helvetica,sans-Serif" font-size="10.00" fill="#000000">application_info.h</text>
</a>
</g>
</g>
<!-- Node0&#45;&gt;Node29 -->
<g id="edge35" class="edge">
<title>Node0&#45;&gt;Node29</title>
<path fill="none" stroke="#191970" d="M615.0422,-220.4179C622.3804,-212.5041 633.2108,-200.8243 642.1119,-191.2251"/>
<polygon fill="#191970" stroke="#191970" points="644.783,-193.492 649.016,-183.7795 639.6501,-188.7324 644.783,-193.492"/>
</g>
<!-- Node30 -->
<g id="node31" class="node">
<title>Node30</title>
<g id="a_node31"><a xlink:href="app__events_2include_2app__event__json_8h.html" target="_top" xlink:title="app_event_json.h">
<polygon fill="#ffffff" stroke="#000000" points="722.1431,-165.5 722.1431,-183.5 817.0981,-183.5 817.0981,-165.5 722.1431,-165.5"/>
<text text-anchor="middle" x="769.6206" y="-171.5" font-family="Helvetica,sans-Serif" font-size="10.00" fill="#000000">app_event_json.h</text>
</a>
</g>
</g>
<!-- Node0&#45;&gt;Node30 -->
<g id="edge36" class="edge">
<title>Node0&#45;&gt;Node30</title>
<path fill="none" stroke="#191970" d="M633.5367,-220.4179C660.7519,-211.2348 702.9959,-196.9807 733.1949,-186.7909"/>
<polygon fill="#191970" stroke="#191970" points="734.5793,-190.0177 742.9354,-183.5042 732.3412,-183.3851 734.5793,-190.0177"/>
</g>
<!-- Node2 -->
<g id="node3" class="node">
<title>Node2</title>
<g id="a_node3"><a xlink:href="src_2include_2common_8h.html" target="_top" xlink:title="common.h">
<polygon fill="#ffffff" stroke="#000000" points="605.2783,-55.5 605.2783,-73.5 667.9629,-73.5 667.9629,-55.5 605.2783,-55.5"/>
<text text-anchor="middle" x="636.6206" y="-61.5" font-family="Helvetica,sans-Serif" font-size="10.00" fill="#000000">common.h</text>
</a>
</g>
</g>
<!-- Node1&#45;&gt;Node2 -->
<g id="edge2" class="edge">
<title>Node1&#45;&gt;Node2</title>
<path fill="none" stroke="#191970" d="M444.6449,-165.1578C445.2058,-151.1576 448.379,-124.8016 463.6206,-110 482.2229,-91.9347 550.1698,-78.0771 595.1696,-70.6247"/>
<polygon fill="#191970" stroke="#191970" points="595.9187,-74.0491 605.2334,-69.0008 594.8035,-67.1385 595.9187,-74.0491"/>
</g>
<!-- Node23 -->
<g id="node24" class="node">
<title>Node23</title>
<g id="a_node24"><a xlink:href="src_2include_2context_8h.html" target="_top" xlink:title="context.h">
<polygon fill="#ffffff" stroke="#000000" points="472.3301,-110.5 472.3301,-128.5 528.9111,-128.5 528.9111,-110.5 472.3301,-110.5"/>
<text text-anchor="middle" x="500.6206" y="-116.5" font-family="Helvetica,sans-Serif" font-size="10.00" fill="#000000">context.h</text>
</a>
</g>
</g>
<!-- Node1&#45;&gt;Node23 -->
<g id="edge23" class="edge">
<title>Node1&#45;&gt;Node23</title>
<path fill="none" stroke="#191970" d="M453.8679,-165.4179C462.0061,-157.425 474.0559,-145.5903 483.884,-135.9377"/>
<polygon fill="#191970" stroke="#191970" points="486.4904,-138.2836 491.1724,-128.7795 481.5854,-133.2895 486.4904,-138.2836"/>
</g>
<!-- Node24 -->
<g id="node25" class="node">
<title>Node24</title>
<g id="a_node25"><a xlink:href="app__events_2include_2app__event__id_8h.html" target="_top" xlink:title="app_event_id.h">
<polygon fill="#ffffff" stroke="#000000" points="332.4238,-110.5 332.4238,-128.5 416.8174,-128.5 416.8174,-110.5 332.4238,-110.5"/>
<text text-anchor="middle" x="374.6206" y="-116.5" font-family="Helvetica,sans-Serif" font-size="10.00" fill="#000000">app_event_id.h</text>
</a>
</g>
</g>
<!-- Node1&#45;&gt;Node24 -->
<g id="edge25" class="edge">
<title>Node1&#45;&gt;Node24</title>
<path fill="none" stroke="#191970" d="M433.0615,-165.4179C422.5866,-157.1876 406.9274,-144.8839 394.4542,-135.0836"/>
<polygon fill="#191970" stroke="#191970" points="396.4564,-132.2056 386.4308,-128.7795 392.1316,-137.7098 396.4564,-132.2056"/>
</g>
<!-- Node25 -->
<g id="node26" class="node">
<title>Node25</title>
<g id="a_node26"><a xlink:href="app__events_2include_2app__event__list_8h.html" target="_top" xlink:title="app_event_list.h">
<polygon fill="#ffffff" stroke="#000000" points="55.2046,-55.5 55.2046,-73.5 144.0366,-73.5 144.0366,-55.5 55.2046,-55.5"/>
<text text-anchor="middle" x="99.6206" y="-61.5" font-family="Helvetica,sans-Serif" font-size="10.00" fill="#000000">app_event_list.h</text>
</a>
</g>
</g>
<!-- Node1&#45;&gt;Node25 -->
<g id="edge26" class="edge">
<title>Node1&#45;&gt;Node25</title>
<path fill="none" stroke="#191970" d="M416.3878,-165.4982C354.7265,-145.8381 207.9545,-99.0413 137.9896,-76.7336"/>
<polygon fill="#191970" stroke="#191970" points="138.8342,-73.3293 128.2435,-73.6261 136.7077,-79.9986 138.8342,-73.3293"/>
</g>
<!-- Node3 -->
<g id="node4" class="node">
<title>Node3</title>
<polygon fill="#ffffff" stroke="#bfbfbf" points="1405.8892,-.5 1405.8892,-18.5 1451.3521,-18.5 1451.3521,-.5 1405.8892,-.5"/>
<text text-anchor="middle" x="1428.6206" y="-6.5" font-family="Helvetica,sans-Serif" font-size="10.00" fill="#000000">stdio.h</text>
</g>
<!-- Node2&#45;&gt;Node3 -->
<g id="edge3" class="edge">
<title>Node2&#45;&gt;Node3</title>
<path fill="none" stroke="#191970" d="M668.1795,-63.6128C790.5321,-60.0219 1234.3748,-45.5552 1395.5465,-18.9434"/>
<polygon fill="#191970" stroke="#191970" points="1396.4933,-22.3315 1405.7474,-17.173 1395.2962,-15.4346 1396.4933,-22.3315"/>
</g>
<!-- Node4 -->
<g id="node5" class="node">
<title>Node4</title>
<polygon fill="#ffffff" stroke="#bfbfbf" points="61.1084,-.5 61.1084,-18.5 112.1328,-18.5 112.1328,-.5 61.1084,-.5"/>
<text text-anchor="middle" x="86.6206" y="-6.5" font-family="Helvetica,sans-Serif" font-size="10.00" fill="#000000">unistd.h</text>
</g>
<!-- Node2&#45;&gt;Node4 -->
<g id="edge4" class="edge">
<title>Node2&#45;&gt;Node4</title>
<path fill="none" stroke="#191970" d="M605.2344,-63.7451C525.7352,-61.407 309.9793,-52.4076 122.5283,-19.073"/>
<polygon fill="#191970" stroke="#191970" points="122.9574,-15.5939 112.4944,-17.2601 121.7128,-22.4824 122.9574,-15.5939"/>
</g>
<!-- Node5 -->
<g id="node6" class="node">
<title>Node5</title>
<polygon fill="#ffffff" stroke="#bfbfbf" points="129.7783,-.5 129.7783,-18.5 177.4629,-18.5 177.4629,-.5 129.7783,-.5"/>
<text text-anchor="middle" x="153.6206" y="-6.5" font-family="Helvetica,sans-Serif" font-size="10.00" fill="#000000">stdlib.h</text>
</g>
<!-- Node2&#45;&gt;Node5 -->
<g id="edge5" class="edge">
<title>Node2&#45;&gt;Node5</title>
<path fill="none" stroke="#191970" d="M605.2432,-63.2658C533.075,-60.0157 349.7089,-49.4123 187.7909,-18.9005"/>
<polygon fill="#191970" stroke="#191970" points="188.1299,-15.4019 177.6499,-16.9577 186.8128,-22.2769 188.1299,-15.4019"/>
</g>
<!-- Node6 -->
<g id="node7" class="node">
<title>Node6</title>
<polygon fill="#ffffff" stroke="#bfbfbf" points="195.2241,-.5 195.2241,-18.5 244.0171,-18.5 244.0171,-.5 195.2241,-.5"/>
<text text-anchor="middle" x="219.6206" y="-6.5" font-family="Helvetica,sans-Serif" font-size="10.00" fill="#000000">string.h</text>
</g>
<!-- Node2&#45;&gt;Node6 -->
<g id="edge6" class="edge">
<title>Node2&#45;&gt;Node6</title>
<path fill="none" stroke="#191970" d="M605.2397,-62.515C540.9809,-58.0807 389.7201,-45.7493 254.1654,-19.0349"/>
<polygon fill="#191970" stroke="#191970" points="254.5124,-15.535 244.0197,-17.0022 253.1373,-22.3986 254.5124,-15.535"/>
</g>
<!-- Node7 -->
<g id="node8" class="node">
<title>Node7</title>
<polygon fill="#ffffff" stroke="#bfbfbf" points="261.5542,-.5 261.5542,-18.5 313.687,-18.5 313.687,-.5 261.5542,-.5"/>
<text text-anchor="middle" x="287.6206" y="-6.5" font-family="Helvetica,sans-Serif" font-size="10.00" fill="#000000">stdarg.h</text>
</g>
<!-- Node2&#45;&gt;Node7 -->
<g id="edge7" class="edge">
<title>Node2&#45;&gt;Node7</title>
<path fill="none" stroke="#191970" d="M605.2042,-61.2241C550.0887,-55.2026 432.2676,-41.109 323.7131,-19.0243"/>
<polygon fill="#191970" stroke="#191970" points="324.4124,-15.5949 313.9115,-17.0028 322.9984,-22.4506 324.4124,-15.5949"/>
</g>
<!-- Node8 -->
<g id="node9" class="node">
<title>Node8</title>
<polygon fill="#ffffff" stroke="#bfbfbf" points="331.5,-.5 331.5,-18.5 379.7412,-18.5 379.7412,-.5 331.5,-.5"/>
<text text-anchor="middle" x="355.6206" y="-6.5" font-family="Helvetica,sans-Serif" font-size="10.00" fill="#000000">stdint.h</text>
</g>
<!-- Node2&#45;&gt;Node8 -->
<g id="edge8" class="edge">
<title>Node2&#45;&gt;Node8</title>
<path fill="none" stroke="#191970" d="M605.095,-59.7408C559.5887,-52.6492 472.6954,-38.2797 389.8738,-19.1241"/>
<polygon fill="#191970" stroke="#191970" points="390.5926,-15.6978 380.0581,-16.8264 388.9971,-22.5136 390.5926,-15.6978"/>
</g>
<!-- Node9 -->
<g id="node10" class="node">
<title>Node9</title>
<polygon fill="#ffffff" stroke="#bfbfbf" points="397.4927,-.5 397.4927,-18.5 455.7485,-18.5 455.7485,-.5 397.4927,-.5"/>
<text text-anchor="middle" x="426.6206" y="-6.5" font-family="Helvetica,sans-Serif" font-size="10.00" fill="#000000">pthread.h</text>
</g>
<!-- Node2&#45;&gt;Node9 -->
<g id="edge9" class="edge">
<title>Node2&#45;&gt;Node9</title>
<path fill="none" stroke="#191970" d="M605.1815,-56.2659C567.9468,-46.514 505.9101,-30.2663 465.641,-19.7196"/>
<polygon fill="#191970" stroke="#191970" points="466.461,-16.3164 455.9005,-17.1685 464.6874,-23.088 466.461,-16.3164"/>
</g>
<!-- Node10 -->
<g id="node11" class="node">
<title>Node10</title>
<polygon fill="#ffffff" stroke="#bfbfbf" points="473.5,-.5 473.5,-18.5 521.7412,-18.5 521.7412,-.5 473.5,-.5"/>
<text text-anchor="middle" x="497.6206" y="-6.5" font-family="Helvetica,sans-Serif" font-size="10.00" fill="#000000">ctype.h</text>
</g>
<!-- Node2&#45;&gt;Node10 -->
<g id="edge10" class="edge">
<title>Node2&#45;&gt;Node10</title>
<path fill="none" stroke="#191970" d="M613.6676,-55.4179C590.8306,-46.3817 555.5843,-32.4353 529.9261,-22.2828"/>
<polygon fill="#191970" stroke="#191970" points="531.194,-19.0205 520.6077,-18.5956 528.6185,-25.5295 531.194,-19.0205"/>
</g>
<!-- Node11 -->
<g id="node12" class="node">
<title>Node11</title>
<polygon fill="#ffffff" stroke="#bfbfbf" points="539.7783,-.5 539.7783,-18.5 587.4629,-18.5 587.4629,-.5 539.7783,-.5"/>
<text text-anchor="middle" x="563.6206" y="-6.5" font-family="Helvetica,sans-Serif" font-size="10.00" fill="#000000">errno.h</text>
</g>
<!-- Node2&#45;&gt;Node11 -->
<g id="edge11" class="edge">
<title>Node2&#45;&gt;Node11</title>
<path fill="none" stroke="#191970" d="M624.5661,-55.4179C613.5373,-47.1084 596.9974,-34.6469 583.9299,-24.8015"/>
<polygon fill="#191970" stroke="#191970" points="586.03,-22.0016 575.937,-18.7795 581.8177,-27.5924 586.03,-22.0016"/>
</g>
<!-- Node12 -->
<g id="node13" class="node">
<title>Node12</title>
<polygon fill="#ffffff" stroke="#bfbfbf" points="604.9927,-.5 604.9927,-18.5 668.2485,-18.5 668.2485,-.5 604.9927,-.5"/>
<text text-anchor="middle" x="636.6206" y="-6.5" font-family="Helvetica,sans-Serif" font-size="10.00" fill="#000000">arpa/inet.h</text>
</g>
<!-- Node2&#45;&gt;Node12 -->
<g id="edge12" class="edge">
<title>Node2&#45;&gt;Node12</title>
<path fill="none" stroke="#191970" d="M636.6206,-55.4179C636.6206,-48.2164 636.6206,-37.8962 636.6206,-28.8632"/>
<polygon fill="#191970" stroke="#191970" points="640.1207,-28.7794 636.6206,-18.7795 633.1207,-28.7795 640.1207,-28.7794"/>
</g>
<!-- Node13 -->
<g id="node14" class="node">
<title>Node13</title>
<polygon fill="#ffffff" stroke="#bfbfbf" points="686.1577,-.5 686.1577,-18.5 751.0835,-18.5 751.0835,-.5 686.1577,-.5"/>
<text text-anchor="middle" x="718.6206" y="-6.5" font-family="Helvetica,sans-Serif" font-size="10.00" fill="#000000">netinet/in.h</text>
</g>
<!-- Node2&#45;&gt;Node13 -->
<g id="edge13" class="edge">
<title>Node2&#45;&gt;Node13</title>
<path fill="none" stroke="#191970" d="M650.1612,-55.4179C662.7432,-46.9788 681.7102,-34.257 696.4917,-24.3426"/>
<polygon fill="#191970" stroke="#191970" points="698.7046,-27.0727 705.0599,-18.5956 694.8053,-21.2593 698.7046,-27.0727"/>
</g>
<!-- Node14 -->
<g id="node15" class="node">
<title>Node14</title>
<polygon fill="#ffffff" stroke="#bfbfbf" points="768.7637,-.5 768.7637,-18.5 846.4775,-18.5 846.4775,-.5 768.7637,-.5"/>
<text text-anchor="middle" x="807.6206" y="-6.5" font-family="Helvetica,sans-Serif" font-size="10.00" fill="#000000">net/ethernet.h</text>
</g>
<!-- Node2&#45;&gt;Node14 -->
<g id="edge14" class="edge">
<title>Node2&#45;&gt;Node14</title>
<path fill="none" stroke="#191970" d="M664.8578,-55.4179C693.5328,-46.1949 738.1116,-31.8567 769.8196,-21.6582"/>
<polygon fill="#191970" stroke="#191970" points="771.1777,-24.8981 779.6257,-18.5042 769.0343,-18.2343 771.1777,-24.8981"/>
</g>
<!-- Node15 -->
<g id="node16" class="node">
<title>Node15</title>
<polygon fill="#ffffff" stroke="#bfbfbf" points="864.1577,-.5 864.1577,-18.5 929.0835,-18.5 929.0835,-.5 864.1577,-.5"/>
<text text-anchor="middle" x="896.6206" y="-6.5" font-family="Helvetica,sans-Serif" font-size="10.00" fill="#000000">netinet/ip.h</text>
</g>
<!-- Node2&#45;&gt;Node15 -->
<g id="edge15" class="edge">
<title>Node2&#45;&gt;Node15</title>
<path fill="none" stroke="#191970" d="M668.2207,-58.1705C708.9195,-49.9671 782.1007,-35.0432 853.8509,-19.356"/>
<polygon fill="#191970" stroke="#191970" points="854.9443,-22.6994 863.9621,-17.138 853.4444,-15.862 854.9443,-22.6994"/>
</g>
<!-- Node16 -->
<g id="node17" class="node">
<title>Node16</title>
<polygon fill="#ffffff" stroke="#bfbfbf" points="947.3794,-.5 947.3794,-18.5 1017.8618,-18.5 1017.8618,-.5 947.3794,-.5"/>
<text text-anchor="middle" x="982.6206" y="-6.5" font-family="Helvetica,sans-Serif" font-size="10.00" fill="#000000">netinet/tcp.h</text>
</g>
<!-- Node2&#45;&gt;Node16 -->
<g id="edge16" class="edge">
<title>Node2&#45;&gt;Node16</title>
<path fill="none" stroke="#191970" d="M668.3556,-60.3199C721.63,-53.1693 832.6285,-37.7011 937.1889,-18.9833"/>
<polygon fill="#191970" stroke="#191970" points="938.0657,-22.3817 947.2854,-17.1619 936.8229,-15.4929 938.0657,-22.3817"/>
</g>
<!-- Node17 -->
<g id="node18" class="node">
<title>Node17</title>
<polygon fill="#ffffff" stroke="#bfbfbf" points="1035.8203,-.5 1035.8203,-18.5 1127.4209,-18.5 1127.4209,-.5 1035.8203,-.5"/>
<text text-anchor="middle" x="1081.6206" y="-6.5" font-family="Helvetica,sans-Serif" font-size="10.00" fill="#000000">netinet/ip_icmp.h</text>
</g>
<!-- Node2&#45;&gt;Node17 -->
<g id="edge17" class="edge">
<title>Node2&#45;&gt;Node17</title>
<path fill="none" stroke="#191970" d="M668.0392,-61.4258C732.8532,-54.957 886.2962,-38.9886 1025.7215,-19.0612"/>
<polygon fill="#191970" stroke="#191970" points="1026.3353,-22.509 1035.7345,-17.6197 1025.3378,-15.5804 1026.3353,-22.509"/>
</g>
<!-- Node18 -->
<g id="node19" class="node">
<title>Node18</title>
<polygon fill="#ffffff" stroke="#bfbfbf" points="1145.2168,-.5 1145.2168,-18.5 1204.0244,-18.5 1204.0244,-.5 1145.2168,-.5"/>
<text text-anchor="middle" x="1174.6206" y="-6.5" font-family="Helvetica,sans-Serif" font-size="10.00" fill="#000000">jansson.h</text>
</g>
<!-- Node2&#45;&gt;Node18 -->
<g id="edge18" class="edge">
<title>Node2&#45;&gt;Node18</title>
<path fill="none" stroke="#191970" d="M668.1374,-63.3203C745.9392,-60.0499 953.4117,-49.1489 1134.8541,-19.085"/>
<polygon fill="#191970" stroke="#191970" points="1135.5603,-22.5155 1144.8417,-17.4061 1134.3998,-15.6123 1135.5603,-22.5155"/>
</g>
<!-- Node19 -->
<g id="node20" class="node">
<title>Node19</title>
<polygon fill="#ffffff" stroke="#bfbfbf" points="1221.7266,-.5 1221.7266,-18.5 1265.5146,-18.5 1265.5146,-.5 1221.7266,-.5"/>
<text text-anchor="middle" x="1243.6206" y="-6.5" font-family="Helvetica,sans-Serif" font-size="10.00" fill="#000000">libcli.h</text>
</g>
<!-- Node2&#45;&gt;Node19 -->
<g id="edge19" class="edge">
<title>Node2&#45;&gt;Node19</title>
<path fill="none" stroke="#191970" d="M668.0599,-62.9242C769.5611,-57.6986 1088.5791,-40.1599 1211.5214,-18.7549"/>
<polygon fill="#191970" stroke="#191970" points="1212.2112,-22.1868 1221.416,-16.9406 1210.9487,-15.3016 1212.2112,-22.1868"/>
</g>
<!-- Node20 -->
<g id="node21" class="node">
<title>Node20</title>
<polygon fill="#ffffff" stroke="#bfbfbf" points="1284.0049,-.5 1284.0049,-18.5 1327.2363,-18.5 1327.2363,-.5 1284.0049,-.5"/>
<text text-anchor="middle" x="1305.6206" y="-6.5" font-family="Helvetica,sans-Serif" font-size="10.00" fill="#000000">zmq.h</text>
</g>
<!-- Node2&#45;&gt;Node20 -->
<g id="edge20" class="edge">
<title>Node2&#45;&gt;Node20</title>
<path fill="none" stroke="#191970" d="M668.2836,-63.1909C777.2762,-58.5406 1137.2501,-41.95 1273.5679,-18.7004"/>
<polygon fill="#191970" stroke="#191970" points="1274.5346,-22.0829 1283.7582,-16.8699 1273.2969,-15.1932 1274.5346,-22.0829"/>
</g>
<!-- Node21 -->
<g id="node22" class="node">
<title>Node21</title>
<g id="a_node22"><a xlink:href="src_2include_2type_8h.html" target="_top" xlink:title="type.h">
<polygon fill="#ffffff" stroke="#000000" points="0,-.5 0,-18.5 43.2412,-18.5 43.2412,-.5 0,-.5"/>
<text text-anchor="middle" x="21.6206" y="-6.5" font-family="Helvetica,sans-Serif" font-size="10.00" fill="#000000">type.h</text>
</a>
</g>
</g>
<!-- Node2&#45;&gt;Node21 -->
<g id="edge21" class="edge">
<title>Node2&#45;&gt;Node21</title>
<path fill="none" stroke="#191970" d="M605.0517,-62.9999C502.3519,-57.9744 177.6703,-40.9064 53.4201,-18.9079"/>
<polygon fill="#191970" stroke="#191970" points="53.8984,-15.4367 43.4257,-17.041 52.613,-22.3177 53.8984,-15.4367"/>
</g>
<!-- Node22 -->
<g id="node23" class="node">
<title>Node22</title>
<polygon fill="#ffffff" stroke="#bfbfbf" points="1345.0049,-.5 1345.0049,-18.5 1388.2363,-18.5 1388.2363,-.5 1345.0049,-.5"/>
<text text-anchor="middle" x="1366.6206" y="-6.5" font-family="Helvetica,sans-Serif" font-size="10.00" fill="#000000">time.h</text>
</g>
<!-- Node2&#45;&gt;Node22 -->
<g id="edge22" class="edge">
<title>Node2&#45;&gt;Node22</title>
<path fill="none" stroke="#191970" d="M668.0481,-63.4671C783.6825,-59.5137 1186.0815,-44.3673 1334.5764,-18.9239"/>
<polygon fill="#191970" stroke="#191970" points="1335.6028,-22.2952 1344.8218,-17.0742 1334.3591,-15.4066 1335.6028,-22.2952"/>
</g>
<!-- Node23&#45;&gt;Node2 -->
<g id="edge24" class="edge">
<title>Node23&#45;&gt;Node2</title>
<path fill="none" stroke="#191970" d="M523.0782,-110.4179C545.3239,-101.4215 579.6043,-87.5581 604.68,-77.4172"/>
<polygon fill="#191970" stroke="#191970" points="606.1712,-80.5895 614.1296,-73.5956 603.5468,-74.1001 606.1712,-80.5895"/>
</g>
<!-- Node25&#45;&gt;Node21 -->
<g id="edge27" class="edge">
<title>Node25&#45;&gt;Node21</title>
<path fill="none" stroke="#191970" d="M86.7405,-55.4179C74.8852,-47.0584 57.0704,-34.4966 43.0691,-24.6239"/>
<polygon fill="#191970" stroke="#191970" points="44.7094,-21.498 34.5199,-18.5956 40.6755,-27.2188 44.7094,-21.498"/>
</g>
<!-- Node26&#45;&gt;Node2 -->
<g id="edge29" class="edge">
<title>Node26&#45;&gt;Node2</title>
<path fill="none" stroke="#191970" d="M557.4755,-165.3808C559.0985,-152.1268 563.6143,-127.2446 575.6206,-110 584.4637,-97.2988 597.9861,-86.6945 610.0539,-78.9274"/>
<polygon fill="#191970" stroke="#191970" points="612.1692,-81.7376 618.8972,-73.5532 608.5338,-75.7556 612.1692,-81.7376"/>
</g>
<!-- Node26&#45;&gt;Node23 -->
<g id="edge30" class="edge">
<title>Node26&#45;&gt;Node23</title>
<path fill="none" stroke="#191970" d="M547.3733,-165.4179C539.2351,-157.425 527.1853,-145.5903 517.3572,-135.9377"/>
<polygon fill="#191970" stroke="#191970" points="519.6558,-133.2895 510.0688,-128.7795 514.7508,-138.2836 519.6558,-133.2895"/>
</g>
<!-- Node27 -->
<g id="node28" class="node">
<title>Node27</title>
<g id="a_node28"><a xlink:href="hash_8h.html" target="_top" xlink:title="hash.h">
<polygon fill="#ffffff" stroke="#000000" points="584.6084,-110.5 584.6084,-128.5 630.6328,-128.5 630.6328,-110.5 584.6084,-110.5"/>
<text text-anchor="middle" x="607.6206" y="-116.5" font-family="Helvetica,sans-Serif" font-size="10.00" fill="#000000">hash.h</text>
</a>
</g>
</g>
<!-- Node26&#45;&gt;Node27 -->
<g id="edge31" class="edge">
<title>Node26&#45;&gt;Node27</title>
<path fill="none" stroke="#191970" d="M565.0422,-165.4179C572.3804,-157.5041 583.2108,-145.8243 592.1119,-136.2251"/>
<polygon fill="#191970" stroke="#191970" points="594.783,-138.492 599.016,-128.7795 589.6501,-133.7324 594.783,-138.492"/>
</g>
<!-- Node28 -->
<g id="node29" class="node">
<title>Node28</title>
<g id="a_node29"><a xlink:href="str_8h.html" target="_top" xlink:title="str.h">
<polygon fill="#ffffff" stroke="#000000" points="648.1699,-110.5 648.1699,-128.5 683.0713,-128.5 683.0713,-110.5 648.1699,-110.5"/>
<text text-anchor="middle" x="665.6206" y="-116.5" font-family="Helvetica,sans-Serif" font-size="10.00" fill="#000000">str.h</text>
</a>
</g>
</g>
<!-- Node26&#45;&gt;Node28 -->
<g id="edge33" class="edge">
<title>Node26&#45;&gt;Node28</title>
<path fill="none" stroke="#191970" d="M574.6197,-165.4179C592.0796,-156.6079 618.7893,-143.1305 638.7626,-133.0522"/>
<polygon fill="#191970" stroke="#191970" points="640.6053,-136.0428 647.9564,-128.4131 637.4518,-129.7933 640.6053,-136.0428"/>
</g>
<!-- Node27&#45;&gt;Node2 -->
<g id="edge32" class="edge">
<title>Node27&#45;&gt;Node2</title>
<path fill="none" stroke="#191970" d="M612.4094,-110.4179C616.3734,-102.8998 622.1296,-91.9829 627.0349,-82.6799"/>
<polygon fill="#191970" stroke="#191970" points="630.1597,-84.2576 631.7278,-73.7795 623.9677,-80.9927 630.1597,-84.2576"/>
</g>
<!-- Node28&#45;&gt;Node2 -->
<g id="edge34" class="edge">
<title>Node28&#45;&gt;Node2</title>
<path fill="none" stroke="#191970" d="M660.8318,-110.4179C656.8678,-102.8998 651.1116,-91.9829 646.2063,-82.6799"/>
<polygon fill="#191970" stroke="#191970" points="649.2736,-80.9927 641.5134,-73.7795 643.0816,-84.2576 649.2736,-80.9927"/>
</g>
<!-- Node31 -->
<g id="node32" class="node">
<title>Node31</title>
<g id="a_node32"><a xlink:href="base64_8h.html" target="_top" xlink:title="base64.h">
<polygon fill="#ffffff" stroke="#000000" points="778.0469,-110.5 778.0469,-128.5 835.1943,-128.5 835.1943,-110.5 778.0469,-110.5"/>
<text text-anchor="middle" x="806.6206" y="-116.5" font-family="Helvetica,sans-Serif" font-size="10.00" fill="#000000">base64.h</text>
</a>
</g>
</g>
<!-- Node30&#45;&gt;Node31 -->
<g id="edge37" class="edge">
<title>Node30&#45;&gt;Node31</title>
<path fill="none" stroke="#191970" d="M775.7304,-165.4179C780.8945,-157.7415 788.4424,-146.5217 794.7843,-137.0945"/>
<polygon fill="#191970" stroke="#191970" points="797.7003,-139.0303 800.3781,-128.7795 791.8922,-135.1231 797.7003,-139.0303"/>
</g>
<!-- Node32 -->
<g id="node33" class="node">
<title>Node32</title>
<g id="a_node33"><a xlink:href="mac2int_8h.html" target="_top" xlink:title="mac2int.h">
<polygon fill="#ffffff" stroke="#000000" points="700.9434,-110.5 700.9434,-128.5 760.2979,-128.5 760.2979,-110.5 700.9434,-110.5"/>
<text text-anchor="middle" x="730.6206" y="-116.5" font-family="Helvetica,sans-Serif" font-size="10.00" fill="#000000">mac2int.h</text>
</a>
</g>
</g>
<!-- Node30&#45;&gt;Node32 -->
<g id="edge39" class="edge">
<title>Node30&#45;&gt;Node32</title>
<path fill="none" stroke="#191970" d="M763.1805,-165.4179C757.7373,-157.7415 749.7815,-146.5217 743.0967,-137.0945"/>
<polygon fill="#191970" stroke="#191970" points="745.84,-134.9123 737.2006,-128.7795 740.1298,-138.9613 745.84,-134.9123"/>
</g>
<!-- Node31&#45;&gt;Node2 -->
<g id="edge38" class="edge">
<title>Node31&#45;&gt;Node2</title>
<path fill="none" stroke="#191970" d="M778.5486,-110.4179C750.0412,-101.1949 705.7231,-86.8567 674.2005,-76.6582"/>
<polygon fill="#191970" stroke="#191970" points="675.0436,-73.2524 664.4518,-73.5042 672.8889,-79.9125 675.0436,-73.2524"/>
</g>
<!-- Node32&#45;&gt;Node2 -->
<g id="edge40" class="edge">
<title>Node32&#45;&gt;Node2</title>
<path fill="none" stroke="#191970" d="M715.0984,-110.4179C700.4031,-101.8195 678.1094,-88.7754 661.034,-78.7844"/>
<polygon fill="#191970" stroke="#191970" points="662.5645,-75.6249 652.1659,-73.5956 659.0294,-81.6667 662.5645,-75.6249"/>
</g>
</g>
</svg>
