<?xml version="1.0" encoding="UTF-8" standalone="no"?>
<!DOCTYPE svg PUBLIC "-//W3C//DTD SVG 1.1//EN"
 "http://www.w3.org/Graphics/SVG/1.1/DTD/svg11.dtd">
<!-- Generated by graphviz version 2.40.1 (20161225.0304)
 -->
<!-- Title: ext_comps/conflict/src/include/conflict.h Pages: 1 -->
<svg width="236pt" height="102pt"
 viewBox="0.00 0.00 236.21 102.00" xmlns="http://www.w3.org/2000/svg" xmlns:xlink="http://www.w3.org/1999/xlink">
<g id="graph0" class="graph" transform="scale(1 1) rotate(0) translate(4 98)">
<title>ext_comps/conflict/src/include/conflict.h</title>
<polygon fill="#ffffff" stroke="transparent" points="-4,4 -4,-98 232.2065,-98 232.2065,4 -4,4"/>
<!-- Node28 -->
<g id="node1" class="node">
<title>Node28</title>
<polygon fill="#bfbfbf" stroke="#000000" points="62.6699,-65.5 62.6699,-93.5 171.4873,-93.5 171.4873,-65.5 62.6699,-65.5"/>
<text text-anchor="start" x="70.6699" y="-81.5" font-family="Helvetica,sans-Serif" font-size="10.00" fill="#000000">ext_comps/conflict</text>
<text text-anchor="middle" x="117.0786" y="-71.5" font-family="Helvetica,sans-Serif" font-size="10.00" fill="#000000">/src/include/conflict.h</text>
</g>
<!-- Node29 -->
<g id="node2" class="node">
<title>Node29</title>
<g id="a_node2"><a xlink:href="components_2conflict_8c.html" target="_top" xlink:title="components/conflict.c">
<polygon fill="#ffffff" stroke="#000000" points="0,-5.5 0,-23.5 112.1572,-23.5 112.1572,-5.5 0,-5.5"/>
<text text-anchor="middle" x="56.0786" y="-11.5" font-family="Helvetica,sans-Serif" font-size="10.00" fill="#000000">components/conflict.c</text>
</a>
</g>
</g>
<!-- Node28&#45;&gt;Node29 -->
<g id="edge1" class="edge">
<title>Node28&#45;&gt;Node29</title>
<path fill="none" stroke="#191970" d="M96.9836,-58.0873C85.9894,-46.3721 72.9458,-32.4732 64.5945,-23.5743"/>
<polygon fill="#191970" stroke="#191970" points="94.4472,-60.4992 103.8425,-65.396 99.5515,-55.709 94.4472,-60.4992"/>
</g>
<!-- Node30 -->
<g id="node3" class="node">
<title>Node30</title>
<g id="a_node3"><a xlink:href="ext__comps_2conflict_2src_2conflict_8c.html" target="_top" xlink:title="ext_comps/conflict\l/src/conflict.c">
<polygon fill="#ffffff" stroke="#000000" points="129.9507,-.5 129.9507,-28.5 228.2065,-28.5 228.2065,-.5 129.9507,-.5"/>
<text text-anchor="start" x="137.9507" y="-16.5" font-family="Helvetica,sans-Serif" font-size="10.00" fill="#000000">ext_comps/conflict</text>
<text text-anchor="middle" x="179.0786" y="-6.5" font-family="Helvetica,sans-Serif" font-size="10.00" fill="#000000">/src/conflict.c</text>
</a>
</g>
</g>
<!-- Node28&#45;&gt;Node30 -->
<g id="edge2" class="edge">
<title>Node28&#45;&gt;Node30</title>
<path fill="none" stroke="#191970" d="M137.5632,-58.0243C146.8006,-48.3398 157.4512,-37.1739 165.6518,-28.5765"/>
<polygon fill="#191970" stroke="#191970" points="134.9012,-55.7441 130.5317,-65.396 139.9665,-60.5756 134.9012,-55.7441"/>
</g>
</g>
</svg>
