<?xml version="1.0" encoding="UTF-8" standalone="no"?>
<!DOCTYPE svg PUBLIC "-//W3C//DTD SVG 1.1//EN"
 "http://www.w3.org/Graphics/SVG/1.1/DTD/svg11.dtd">
<!-- Generated by graphviz version 2.40.1 (20161225.0304)
 -->
<!-- Title: ext_comps/shim/include/shim.h Pages: 1 -->
<svg width="1520pt" height="257pt"
 viewBox="0.00 0.00 1520.24 257.00" xmlns="http://www.w3.org/2000/svg" xmlns:xlink="http://www.w3.org/1999/xlink">
<g id="graph0" class="graph" transform="scale(1 1) rotate(0) translate(4 253)">
<title>ext_comps/shim/include/shim.h</title>
<polygon fill="#ffffff" stroke="transparent" points="-4,4 -4,-253 1516.2412,-253 1516.2412,4 -4,4"/>
<!-- Node0 -->
<g id="node1" class="node">
<title>Node0</title>
<polygon fill="#bfbfbf" stroke="#000000" points="765.2637,-220.5 765.2637,-248.5 887.9775,-248.5 887.9775,-220.5 765.2637,-220.5"/>
<text text-anchor="start" x="773.2637" y="-236.5" font-family="Helvetica,sans-Serif" font-size="10.00" fill="#000000">ext_comps/shim/include</text>
<text text-anchor="middle" x="826.6206" y="-226.5" font-family="Helvetica,sans-Serif" font-size="10.00" fill="#000000">/shim.h</text>
</g>
<!-- Node1 -->
<g id="node2" class="node">
<title>Node1</title>
<g id="a_node2"><a xlink:href="ext__comps_2shim_2include_2common_8h.html" target="_top" xlink:title="common.h">
<polygon fill="#ffffff" stroke="#000000" points="652.2783,-55.5 652.2783,-73.5 714.9629,-73.5 714.9629,-55.5 652.2783,-55.5"/>
<text text-anchor="middle" x="683.6206" y="-61.5" font-family="Helvetica,sans-Serif" font-size="10.00" fill="#000000">common.h</text>
</a>
</g>
</g>
<!-- Node0&#45;&gt;Node1 -->
<g id="edge1" class="edge">
<title>Node0&#45;&gt;Node1</title>
<path fill="none" stroke="#191970" d="M765.2282,-230.0734C697.5946,-223.9389 594.6636,-210.4776 566.6206,-184 542.2826,-161.0206 533.2197,-137.2763 552.6206,-110 563.2894,-95.0005 607.9484,-81.6867 642.1874,-73.3961"/>
<polygon fill="#191970" stroke="#191970" points="643.0477,-76.7894 651.9796,-71.091 641.4436,-69.9756 643.0477,-76.7894"/>
</g>
<!-- Node22 -->
<g id="node23" class="node">
<title>Node22</title>
<g id="a_node23"><a xlink:href="ext__comps_2shim_2include_2event_8h.html" target="_top" xlink:title="event.h">
<polygon fill="#ffffff" stroke="#000000" points="575.2192,-165.5 575.2192,-183.5 624.022,-183.5 624.022,-165.5 575.2192,-165.5"/>
<text text-anchor="middle" x="599.6206" y="-171.5" font-family="Helvetica,sans-Serif" font-size="10.00" fill="#000000">event.h</text>
</a>
</g>
</g>
<!-- Node0&#45;&gt;Node22 -->
<g id="edge22" class="edge">
<title>Node0&#45;&gt;Node22</title>
<path fill="none" stroke="#191970" d="M773.3992,-220.4327C730.3974,-209.0666 671.1332,-193.402 634.1162,-183.6178"/>
<polygon fill="#191970" stroke="#191970" points="634.8599,-180.1942 624.2974,-181.0225 633.071,-186.9618 634.8599,-180.1942"/>
</g>
<!-- Node26 -->
<g id="node27" class="node">
<title>Node26</title>
<g id="a_node27"><a xlink:href="ext__comps_2shim_2include_2component_8h.html" target="_top" xlink:title="component.h">
<polygon fill="#ffffff" stroke="#000000" points="722.7119,-110.5 722.7119,-128.5 796.5293,-128.5 796.5293,-110.5 722.7119,-110.5"/>
<text text-anchor="middle" x="759.6206" y="-116.5" font-family="Helvetica,sans-Serif" font-size="10.00" fill="#000000">component.h</text>
</a>
</g>
</g>
<!-- Node0&#45;&gt;Node26 -->
<g id="edge29" class="edge">
<title>Node0&#45;&gt;Node26</title>
<path fill="none" stroke="#191970" d="M809.3609,-220.1678C799.1114,-210.8245 786.599,-197.8303 778.6206,-184 770.5087,-169.9384 765.6033,-152.121 762.8144,-138.7775"/>
<polygon fill="#191970" stroke="#191970" points="766.2271,-137.9864 760.9456,-128.8019 759.3468,-139.2754 766.2271,-137.9864"/>
</g>
<!-- Node27 -->
<g id="node28" class="node">
<title>Node27</title>
<polygon fill="#ffffff" stroke="#bfbfbf" points="877.8203,-165.5 877.8203,-183.5 969.4209,-183.5 969.4209,-165.5 877.8203,-165.5"/>
<text text-anchor="middle" x="923.6206" y="-171.5" font-family="Helvetica,sans-Serif" font-size="10.00" fill="#000000">component_list.h</text>
</g>
<!-- Node0&#45;&gt;Node27 -->
<g id="edge31" class="edge">
<title>Node0&#45;&gt;Node27</title>
<path fill="none" stroke="#191970" d="M849.6083,-220.2808C864.8257,-210.868 884.7276,-198.5575 900.0607,-189.0732"/>
<polygon fill="#191970" stroke="#191970" points="902.2712,-191.8213 908.9345,-183.5842 898.5888,-185.8682 902.2712,-191.8213"/>
</g>
<!-- Node28 -->
<g id="node29" class="node">
<title>Node28</title>
<g id="a_node29"><a xlink:href="component__info_8h.html" target="_top" xlink:title="component_info.h">
<polygon fill="#ffffff" stroke="#000000" points="987.8696,-165.5 987.8696,-183.5 1083.3716,-183.5 1083.3716,-165.5 987.8696,-165.5"/>
<text text-anchor="middle" x="1035.6206" y="-171.5" font-family="Helvetica,sans-Serif" font-size="10.00" fill="#000000">component_info.h</text>
</a>
</g>
</g>
<!-- Node0&#45;&gt;Node28 -->
<g id="edge32" class="edge">
<title>Node0&#45;&gt;Node28</title>
<path fill="none" stroke="#191970" d="M875.6218,-220.4327C911.7502,-210.0609 960.3463,-196.1098 994.4692,-186.3138"/>
<polygon fill="#191970" stroke="#191970" points="995.4793,-189.6653 1004.1253,-183.5417 993.5477,-182.937 995.4793,-189.6653"/>
</g>
<!-- Node29 -->
<g id="node30" class="node">
<title>Node29</title>
<g id="a_node30"><a xlink:href="str_8h.html" target="_top" xlink:title="str.h">
<polygon fill="#ffffff" stroke="#000000" points="787.1699,-165.5 787.1699,-183.5 822.0713,-183.5 822.0713,-165.5 787.1699,-165.5"/>
<text text-anchor="middle" x="804.6206" y="-171.5" font-family="Helvetica,sans-Serif" font-size="10.00" fill="#000000">str.h</text>
</a>
</g>
</g>
<!-- Node0&#45;&gt;Node29 -->
<g id="edge33" class="edge">
<title>Node0&#45;&gt;Node29</title>
<path fill="none" stroke="#191970" d="M821.4069,-220.2808C818.4439,-212.2 814.6979,-201.9836 811.4967,-193.2531"/>
<polygon fill="#191970" stroke="#191970" points="814.6802,-191.768 807.9515,-183.5842 808.108,-194.1779 814.6802,-191.768"/>
</g>
<!-- Node32 -->
<g id="node33" class="node">
<title>Node32</title>
<g id="a_node33"><a xlink:href="hash_8h.html" target="_top" xlink:title="hash.h">
<polygon fill="#ffffff" stroke="#000000" points="852.6084,-110.5 852.6084,-128.5 898.6328,-128.5 898.6328,-110.5 852.6084,-110.5"/>
<text text-anchor="middle" x="875.6206" y="-116.5" font-family="Helvetica,sans-Serif" font-size="10.00" fill="#000000">hash.h</text>
</a>
</g>
</g>
<!-- Node0&#45;&gt;Node32 -->
<g id="edge55" class="edge">
<title>Node0&#45;&gt;Node32</title>
<path fill="none" stroke="#191970" d="M832.629,-220.3987C841.4492,-199.6982 857.914,-161.0564 867.7088,-138.0684"/>
<polygon fill="#191970" stroke="#191970" points="870.9884,-139.3003 871.6884,-128.7286 864.5486,-136.5564 870.9884,-139.3003"/>
</g>
<!-- Node33 -->
<g id="node34" class="node">
<title>Node33</title>
<polygon fill="#ffffff" stroke="#bfbfbf" points="1101.3867,-165.5 1101.3867,-183.5 1151.8545,-183.5 1151.8545,-165.5 1101.3867,-165.5"/>
<text text-anchor="middle" x="1126.6206" y="-171.5" font-family="Helvetica,sans-Serif" font-size="10.00" fill="#000000">signal.h</text>
</g>
<!-- Node0&#45;&gt;Node33 -->
<g id="edge57" class="edge">
<title>Node0&#45;&gt;Node33</title>
<path fill="none" stroke="#191970" d="M888.2093,-224.3345C939.9976,-215.4393 1016.1658,-201.5488 1090.9926,-184.2437"/>
<polygon fill="#191970" stroke="#191970" points="1092.1189,-187.5749 1101.0609,-181.8923 1090.5269,-180.7583 1092.1189,-187.5749"/>
</g>
<!-- Node2 -->
<g id="node3" class="node">
<title>Node2</title>
<polygon fill="#ffffff" stroke="#bfbfbf" points="602.8892,-.5 602.8892,-18.5 648.3521,-18.5 648.3521,-.5 602.8892,-.5"/>
<text text-anchor="middle" x="625.6206" y="-6.5" font-family="Helvetica,sans-Serif" font-size="10.00" fill="#000000">stdio.h</text>
</g>
<!-- Node1&#45;&gt;Node2 -->
<g id="edge2" class="edge">
<title>Node1&#45;&gt;Node2</title>
<path fill="none" stroke="#191970" d="M674.0431,-55.4179C665.6142,-47.425 653.1341,-35.5903 642.955,-25.9377"/>
<polygon fill="#191970" stroke="#191970" points="645.0708,-23.1207 635.4062,-18.7795 640.2541,-28.2001 645.0708,-23.1207"/>
</g>
<!-- Node3 -->
<g id="node4" class="node">
<title>Node3</title>
<polygon fill="#ffffff" stroke="#bfbfbf" points="666.1084,-.5 666.1084,-18.5 717.1328,-18.5 717.1328,-.5 666.1084,-.5"/>
<text text-anchor="middle" x="691.6206" y="-6.5" font-family="Helvetica,sans-Serif" font-size="10.00" fill="#000000">unistd.h</text>
</g>
<!-- Node1&#45;&gt;Node3 -->
<g id="edge3" class="edge">
<title>Node1&#45;&gt;Node3</title>
<path fill="none" stroke="#191970" d="M684.9416,-55.4179C685.9891,-48.2164 687.4903,-37.8962 688.8041,-28.8632"/>
<polygon fill="#191970" stroke="#191970" points="692.2949,-29.1791 690.2709,-18.7795 685.3678,-28.1715 692.2949,-29.1791"/>
</g>
<!-- Node4 -->
<g id="node5" class="node">
<title>Node4</title>
<polygon fill="#ffffff" stroke="#bfbfbf" points="734.7783,-.5 734.7783,-18.5 782.4629,-18.5 782.4629,-.5 734.7783,-.5"/>
<text text-anchor="middle" x="758.6206" y="-6.5" font-family="Helvetica,sans-Serif" font-size="10.00" fill="#000000">stdlib.h</text>
</g>
<!-- Node1&#45;&gt;Node4 -->
<g id="edge4" class="edge">
<title>Node1&#45;&gt;Node4</title>
<path fill="none" stroke="#191970" d="M696.0053,-55.4179C707.4046,-47.0584 724.5343,-34.4966 737.9971,-24.6239"/>
<polygon fill="#191970" stroke="#191970" points="740.2232,-27.3317 746.2175,-18.5956 736.0836,-21.6869 740.2232,-27.3317"/>
</g>
<!-- Node5 -->
<g id="node6" class="node">
<title>Node5</title>
<polygon fill="#ffffff" stroke="#bfbfbf" points="800.2241,-.5 800.2241,-18.5 849.0171,-18.5 849.0171,-.5 800.2241,-.5"/>
<text text-anchor="middle" x="824.6206" y="-6.5" font-family="Helvetica,sans-Serif" font-size="10.00" fill="#000000">string.h</text>
</g>
<!-- Node1&#45;&gt;Node5 -->
<g id="edge5" class="edge">
<title>Node1&#45;&gt;Node5</title>
<path fill="none" stroke="#191970" d="M706.9039,-55.4179C730.0694,-46.3817 765.8229,-32.4353 791.8502,-22.2828"/>
<polygon fill="#191970" stroke="#191970" points="793.2583,-25.4904 801.3027,-18.5956 790.7145,-18.969 793.2583,-25.4904"/>
</g>
<!-- Node6 -->
<g id="node7" class="node">
<title>Node6</title>
<polygon fill="#ffffff" stroke="#bfbfbf" points="866.5542,-.5 866.5542,-18.5 918.687,-18.5 918.687,-.5 866.5542,-.5"/>
<text text-anchor="middle" x="892.6206" y="-6.5" font-family="Helvetica,sans-Serif" font-size="10.00" fill="#000000">stdarg.h</text>
</g>
<!-- Node1&#45;&gt;Node6 -->
<g id="edge6" class="edge">
<title>Node1&#45;&gt;Node6</title>
<path fill="none" stroke="#191970" d="M715.0773,-56.3679C747.9701,-47.8439 801.3535,-33.9524 856.3373,-19.3261"/>
<polygon fill="#191970" stroke="#191970" points="857.4921,-22.6406 866.2544,-16.6846 855.6904,-15.8765 857.4921,-22.6406"/>
</g>
<!-- Node7 -->
<g id="node8" class="node">
<title>Node7</title>
<polygon fill="#ffffff" stroke="#bfbfbf" points="936.5,-.5 936.5,-18.5 984.7412,-18.5 984.7412,-.5 936.5,-.5"/>
<text text-anchor="middle" x="960.6206" y="-6.5" font-family="Helvetica,sans-Serif" font-size="10.00" fill="#000000">stdint.h</text>
</g>
<!-- Node1&#45;&gt;Node7 -->
<g id="edge7" class="edge">
<title>Node1&#45;&gt;Node7</title>
<path fill="none" stroke="#191970" d="M715.0207,-59.6347C759.8519,-52.4739 844.9457,-38.0898 926.2836,-19.1505"/>
<polygon fill="#191970" stroke="#191970" points="927.2505,-22.5186 936.1812,-16.8184 925.645,-15.7051 927.2505,-22.5186"/>
</g>
<!-- Node8 -->
<g id="node9" class="node">
<title>Node8</title>
<polygon fill="#ffffff" stroke="#bfbfbf" points="1002.4927,-.5 1002.4927,-18.5 1060.7485,-18.5 1060.7485,-.5 1002.4927,-.5"/>
<text text-anchor="middle" x="1031.6206" y="-6.5" font-family="Helvetica,sans-Serif" font-size="10.00" fill="#000000">pthread.h</text>
</g>
<!-- Node1&#45;&gt;Node8 -->
<g id="edge8" class="edge">
<title>Node1&#45;&gt;Node8</title>
<path fill="none" stroke="#191970" d="M715.0375,-60.935C769.5213,-54.5272 885.2174,-39.929 992.232,-19.1214"/>
<polygon fill="#191970" stroke="#191970" points="993.091,-22.5195 1002.2271,-17.1545 991.7394,-15.6513 993.091,-22.5195"/>
</g>
<!-- Node9 -->
<g id="node10" class="node">
<title>Node9</title>
<polygon fill="#ffffff" stroke="#bfbfbf" points="1078.5,-.5 1078.5,-18.5 1126.7412,-18.5 1126.7412,-.5 1078.5,-.5"/>
<text text-anchor="middle" x="1102.6206" y="-6.5" font-family="Helvetica,sans-Serif" font-size="10.00" fill="#000000">ctype.h</text>
</g>
<!-- Node1&#45;&gt;Node9 -->
<g id="edge9" class="edge">
<title>Node1&#45;&gt;Node9</title>
<path fill="none" stroke="#191970" d="M715.1117,-61.4571C791.3191,-53.9903 984.9571,-34.3773 1068.1688,-18.9581"/>
<polygon fill="#191970" stroke="#191970" points="1069.0734,-22.3478 1078.2218,-17.0039 1067.7377,-15.4764 1069.0734,-22.3478"/>
</g>
<!-- Node10 -->
<g id="node11" class="node">
<title>Node10</title>
<polygon fill="#ffffff" stroke="#bfbfbf" points="1144.7783,-.5 1144.7783,-18.5 1192.4629,-18.5 1192.4629,-.5 1144.7783,-.5"/>
<text text-anchor="middle" x="1168.6206" y="-6.5" font-family="Helvetica,sans-Serif" font-size="10.00" fill="#000000">errno.h</text>
</g>
<!-- Node1&#45;&gt;Node10 -->
<g id="edge10" class="edge">
<title>Node1&#45;&gt;Node10</title>
<path fill="none" stroke="#191970" d="M715.1483,-61.4835C807.4015,-52.6376 1073.6797,-26.9616 1134.4853,-18.5552"/>
<polygon fill="#191970" stroke="#191970" points="1135.26,-21.9763 1144.5915,-16.959 1134.1679,-15.062 1135.26,-21.9763"/>
</g>
<!-- Node11 -->
<g id="node12" class="node">
<title>Node11</title>
<polygon fill="#ffffff" stroke="#bfbfbf" points="1209.9927,-.5 1209.9927,-18.5 1273.2485,-18.5 1273.2485,-.5 1209.9927,-.5"/>
<text text-anchor="middle" x="1241.6206" y="-6.5" font-family="Helvetica,sans-Serif" font-size="10.00" fill="#000000">arpa/inet.h</text>
</g>
<!-- Node1&#45;&gt;Node11 -->
<g id="edge11" class="edge">
<title>Node1&#45;&gt;Node11</title>
<path fill="none" stroke="#191970" d="M715.0063,-61.4854C734.9413,-59.5861 761.2912,-57.1042 784.6206,-55 966.6345,-38.5835 1016.2311,-48.2191 1199.8424,-19.097"/>
<polygon fill="#191970" stroke="#191970" points="1200.5086,-22.535 1209.8285,-17.4962 1199.4005,-15.6232 1200.5086,-22.535"/>
</g>
<!-- Node12 -->
<g id="node13" class="node">
<title>Node12</title>
<polygon fill="#ffffff" stroke="#bfbfbf" points="1291.1577,-.5 1291.1577,-18.5 1356.0835,-18.5 1356.0835,-.5 1291.1577,-.5"/>
<text text-anchor="middle" x="1323.6206" y="-6.5" font-family="Helvetica,sans-Serif" font-size="10.00" fill="#000000">netinet/in.h</text>
</g>
<!-- Node1&#45;&gt;Node12 -->
<g id="edge12" class="edge">
<title>Node1&#45;&gt;Node12</title>
<path fill="none" stroke="#191970" d="M714.9965,-61.3727C734.9277,-59.4297 761.2771,-56.9414 784.6206,-55 1002.5286,-36.8778 1061.4814,-51.6979 1281.1314,-19.0211"/>
<polygon fill="#191970" stroke="#191970" points="1281.6666,-22.48 1291.0351,-17.532 1280.6258,-15.5578 1281.6666,-22.48"/>
</g>
<!-- Node13 -->
<g id="node14" class="node">
<title>Node13</title>
<polygon fill="#ffffff" stroke="#bfbfbf" points="1373.7637,-.5 1373.7637,-18.5 1451.4775,-18.5 1451.4775,-.5 1373.7637,-.5"/>
<text text-anchor="middle" x="1412.6206" y="-6.5" font-family="Helvetica,sans-Serif" font-size="10.00" fill="#000000">net/ethernet.h</text>
</g>
<!-- Node1&#45;&gt;Node13 -->
<g id="edge13" class="edge">
<title>Node1&#45;&gt;Node13</title>
<path fill="none" stroke="#191970" d="M714.9899,-61.2904C734.9185,-59.3156 761.2675,-56.8226 784.6206,-55 1038.8425,-35.1594 1106.7665,-51.714 1363.6552,-18.9512"/>
<polygon fill="#191970" stroke="#191970" points="1364.1885,-22.4115 1373.6594,-17.6627 1363.2942,-15.4689 1364.1885,-22.4115"/>
</g>
<!-- Node14 -->
<g id="node15" class="node">
<title>Node14</title>
<polygon fill="#ffffff" stroke="#bfbfbf" points="61.1577,-.5 61.1577,-18.5 126.0835,-18.5 126.0835,-.5 61.1577,-.5"/>
<text text-anchor="middle" x="93.6206" y="-6.5" font-family="Helvetica,sans-Serif" font-size="10.00" fill="#000000">netinet/ip.h</text>
</g>
<!-- Node1&#45;&gt;Node14 -->
<g id="edge14" class="edge">
<title>Node1&#45;&gt;Node14</title>
<path fill="none" stroke="#191970" d="M652.2387,-63.4282C569.4674,-60.2761 338.3132,-49.3706 136.0098,-18.8322"/>
<polygon fill="#191970" stroke="#191970" points="136.5085,-15.3678 126.0943,-17.3159 135.4503,-22.2874 136.5085,-15.3678"/>
</g>
<!-- Node15 -->
<g id="node16" class="node">
<title>Node15</title>
<polygon fill="#ffffff" stroke="#bfbfbf" points="144.3794,-.5 144.3794,-18.5 214.8618,-18.5 214.8618,-.5 144.3794,-.5"/>
<text text-anchor="middle" x="179.6206" y="-6.5" font-family="Helvetica,sans-Serif" font-size="10.00" fill="#000000">netinet/tcp.h</text>
</g>
<!-- Node1&#45;&gt;Node15 -->
<g id="edge15" class="edge">
<title>Node1&#45;&gt;Node15</title>
<path fill="none" stroke="#191970" d="M652.2299,-62.6344C579.0458,-58.0208 391.294,-44.6609 225.0079,-19.0672"/>
<polygon fill="#191970" stroke="#191970" points="225.5167,-15.6044 215.0971,-17.5231 224.439,-22.5209 225.5167,-15.6044"/>
</g>
<!-- Node16 -->
<g id="node17" class="node">
<title>Node16</title>
<polygon fill="#ffffff" stroke="#bfbfbf" points="232.8203,-.5 232.8203,-18.5 324.4209,-18.5 324.4209,-.5 232.8203,-.5"/>
<text text-anchor="middle" x="278.6206" y="-6.5" font-family="Helvetica,sans-Serif" font-size="10.00" fill="#000000">netinet/ip_icmp.h</text>
</g>
<!-- Node1&#45;&gt;Node16 -->
<g id="edge16" class="edge">
<title>Node1&#45;&gt;Node16</title>
<path fill="none" stroke="#191970" d="M652.185,-60.8598C592.4445,-53.8458 458.1806,-37.6224 334.5339,-19.0854"/>
<polygon fill="#191970" stroke="#191970" points="334.9235,-15.6047 324.5134,-17.5745 333.8798,-22.5264 334.9235,-15.6047"/>
</g>
<!-- Node17 -->
<g id="node18" class="node">
<title>Node17</title>
<polygon fill="#ffffff" stroke="#bfbfbf" points="342.2168,-.5 342.2168,-18.5 401.0244,-18.5 401.0244,-.5 342.2168,-.5"/>
<text text-anchor="middle" x="371.6206" y="-6.5" font-family="Helvetica,sans-Serif" font-size="10.00" fill="#000000">jansson.h</text>
</g>
<!-- Node1&#45;&gt;Node17 -->
<g id="edge17" class="edge">
<title>Node1&#45;&gt;Node17</title>
<path fill="none" stroke="#191970" d="M652.2389,-60.1277C602.9071,-53.0731 504.0262,-38.202 410.8894,-19.1388"/>
<polygon fill="#191970" stroke="#191970" points="411.5269,-15.6966 401.0254,-17.0993 410.1095,-22.5516 411.5269,-15.6966"/>
</g>
<!-- Node18 -->
<g id="node19" class="node">
<title>Node18</title>
<polygon fill="#ffffff" stroke="#bfbfbf" points="418.7266,-.5 418.7266,-18.5 462.5146,-18.5 462.5146,-.5 418.7266,-.5"/>
<text text-anchor="middle" x="440.6206" y="-6.5" font-family="Helvetica,sans-Serif" font-size="10.00" fill="#000000">libcli.h</text>
</g>
<!-- Node1&#45;&gt;Node18 -->
<g id="edge18" class="edge">
<title>Node1&#45;&gt;Node18</title>
<path fill="none" stroke="#191970" d="M652.1716,-58.6279C612.4693,-51.024 541.9014,-36.8762 472.3705,-19.0246"/>
<polygon fill="#191970" stroke="#191970" points="473.1281,-15.6054 462.5696,-16.4814 471.3699,-22.381 473.1281,-15.6054"/>
</g>
<!-- Node19 -->
<g id="node20" class="node">
<title>Node19</title>
<polygon fill="#ffffff" stroke="#bfbfbf" points="481.0049,-.5 481.0049,-18.5 524.2363,-18.5 524.2363,-.5 481.0049,-.5"/>
<text text-anchor="middle" x="502.6206" y="-6.5" font-family="Helvetica,sans-Serif" font-size="10.00" fill="#000000">zmq.h</text>
</g>
<!-- Node1&#45;&gt;Node19 -->
<g id="edge19" class="edge">
<title>Node1&#45;&gt;Node19</title>
<path fill="none" stroke="#191970" d="M653.2143,-55.474C624.6602,-46.9678 580.5031,-33.7373 533.9015,-19.3701"/>
<polygon fill="#191970" stroke="#191970" points="534.8269,-15.9928 524.2393,-16.3857 532.761,-22.6811 534.8269,-15.9928"/>
</g>
<!-- Node20 -->
<g id="node21" class="node">
<title>Node20</title>
<g id="a_node21"><a xlink:href="ext__comps_2shim_2include_2type_8h.html" target="_top" xlink:title="type.h">
<polygon fill="#ffffff" stroke="#000000" points="0,-.5 0,-18.5 43.2412,-18.5 43.2412,-.5 0,-.5"/>
<text text-anchor="middle" x="21.6206" y="-6.5" font-family="Helvetica,sans-Serif" font-size="10.00" fill="#000000">type.h</text>
</a>
</g>
</g>
<!-- Node1&#45;&gt;Node20 -->
<g id="edge20" class="edge">
<title>Node1&#45;&gt;Node20</title>
<path fill="none" stroke="#191970" d="M651.9216,-63.1607C543.663,-58.4427 188.3112,-41.7359 53.5578,-18.6823"/>
<polygon fill="#191970" stroke="#191970" points="53.9455,-15.1959 43.4834,-16.8677 52.7046,-22.085 53.9455,-15.1959"/>
</g>
<!-- Node21 -->
<g id="node22" class="node">
<title>Node21</title>
<polygon fill="#ffffff" stroke="#bfbfbf" points="542.0049,-.5 542.0049,-18.5 585.2363,-18.5 585.2363,-.5 542.0049,-.5"/>
<text text-anchor="middle" x="563.6206" y="-6.5" font-family="Helvetica,sans-Serif" font-size="10.00" fill="#000000">time.h</text>
</g>
<!-- Node1&#45;&gt;Node21 -->
<g id="edge21" class="edge">
<title>Node1&#45;&gt;Node21</title>
<path fill="none" stroke="#191970" d="M663.805,-55.4179C644.4371,-46.5409 614.7303,-32.9253 592.6889,-22.823"/>
<polygon fill="#191970" stroke="#191970" points="594.0146,-19.5805 583.4656,-18.5956 591.0979,-25.944 594.0146,-19.5805"/>
</g>
<!-- Node22&#45;&gt;Node1 -->
<g id="edge23" class="edge">
<title>Node22&#45;&gt;Node1</title>
<path fill="none" stroke="#191970" d="M586.7294,-165.3269C570.5015,-152.6356 546.2685,-129.122 559.6206,-110 569.4233,-95.9612 609.9862,-82.8179 642.0855,-74.3027"/>
<polygon fill="#191970" stroke="#191970" points="643.3506,-77.5911 652.1602,-71.7054 641.603,-70.8127 643.3506,-77.5911"/>
</g>
<!-- Node23 -->
<g id="node24" class="node">
<title>Node23</title>
<g id="a_node24"><a xlink:href="ext__comps_2shim_2include_2context_8h.html" target="_top" xlink:title="context.h">
<polygon fill="#ffffff" stroke="#000000" points="648.3301,-110.5 648.3301,-128.5 704.9111,-128.5 704.9111,-110.5 648.3301,-110.5"/>
<text text-anchor="middle" x="676.6206" y="-116.5" font-family="Helvetica,sans-Serif" font-size="10.00" fill="#000000">context.h</text>
</a>
</g>
</g>
<!-- Node22&#45;&gt;Node23 -->
<g id="edge24" class="edge">
<title>Node22&#45;&gt;Node23</title>
<path fill="none" stroke="#191970" d="M612.3356,-165.4179C624.0389,-157.0584 641.6253,-144.4966 655.4471,-134.6239"/>
<polygon fill="#191970" stroke="#191970" points="657.7837,-137.2561 663.8867,-128.5956 653.715,-131.56 657.7837,-137.2561"/>
</g>
<!-- Node24 -->
<g id="node25" class="node">
<title>Node24</title>
<g id="a_node25"><a xlink:href="ext__comps_2shim_2include_2event__id_8h.html" target="_top" xlink:title="event_id.h">
<polygon fill="#ffffff" stroke="#000000" points="568.5469,-110.5 568.5469,-128.5 630.6943,-128.5 630.6943,-110.5 568.5469,-110.5"/>
<text text-anchor="middle" x="599.6206" y="-116.5" font-family="Helvetica,sans-Serif" font-size="10.00" fill="#000000">event_id.h</text>
</a>
</g>
</g>
<!-- Node22&#45;&gt;Node24 -->
<g id="edge26" class="edge">
<title>Node22&#45;&gt;Node24</title>
<path fill="none" stroke="#191970" d="M599.6206,-165.4179C599.6206,-158.2164 599.6206,-147.8962 599.6206,-138.8632"/>
<polygon fill="#191970" stroke="#191970" points="603.1207,-138.7794 599.6206,-128.7795 596.1207,-138.7795 603.1207,-138.7794"/>
</g>
<!-- Node25 -->
<g id="node26" class="node">
<title>Node25</title>
<g id="a_node26"><a xlink:href="ext__comps_2shim_2include_2event__list_8h.html" target="_top" xlink:title="event_list.h">
<polygon fill="#ffffff" stroke="#000000" points="229.3276,-55.5 229.3276,-73.5 295.9136,-73.5 295.9136,-55.5 229.3276,-55.5"/>
<text text-anchor="middle" x="262.6206" y="-61.5" font-family="Helvetica,sans-Serif" font-size="10.00" fill="#000000">event_list.h</text>
</a>
</g>
</g>
<!-- Node22&#45;&gt;Node25 -->
<g id="edge27" class="edge">
<title>Node22&#45;&gt;Node25</title>
<path fill="none" stroke="#191970" d="M575.1129,-166.5005C516.7899,-147.4633 369.4425,-99.3677 299.9652,-76.6896"/>
<polygon fill="#191970" stroke="#191970" points="300.8918,-73.3104 290.2994,-73.5346 298.7197,-79.9649 300.8918,-73.3104"/>
</g>
<!-- Node23&#45;&gt;Node1 -->
<g id="edge25" class="edge">
<title>Node23&#45;&gt;Node1</title>
<path fill="none" stroke="#191970" d="M677.7765,-110.4179C678.6931,-103.2164 680.0065,-92.8962 681.1562,-83.8632"/>
<polygon fill="#191970" stroke="#191970" points="684.6489,-84.1414 682.4396,-73.7795 677.705,-83.2575 684.6489,-84.1414"/>
</g>
<!-- Node25&#45;&gt;Node20 -->
<g id="edge28" class="edge">
<title>Node25&#45;&gt;Node20</title>
<path fill="none" stroke="#191970" d="M229.3184,-58.1829C189.682,-50.4681 121.3167,-36.5451 53.56,-19.0785"/>
<polygon fill="#191970" stroke="#191970" points="54.1304,-15.6103 43.571,-16.4761 52.3655,-22.3842 54.1304,-15.6103"/>
</g>
<!-- Node26&#45;&gt;Node1 -->
<g id="edge30" class="edge">
<title>Node26&#45;&gt;Node1</title>
<path fill="none" stroke="#191970" d="M747.0708,-110.4179C735.5195,-102.0584 718.1614,-89.4966 704.5191,-79.6239"/>
<polygon fill="#191970" stroke="#191970" points="706.3422,-76.6229 696.1891,-73.5956 702.2383,-82.2938 706.3422,-76.6229"/>
</g>
<!-- Node30 -->
<g id="node31" class="node">
<title>Node30</title>
<g id="a_node31"><a xlink:href="src_2include_2common_8h.html" target="_top" xlink:title="common.h">
<polygon fill="#ffffff" stroke="#000000" points="793.2783,-55.5 793.2783,-73.5 855.9629,-73.5 855.9629,-55.5 793.2783,-55.5"/>
<text text-anchor="middle" x="824.6206" y="-61.5" font-family="Helvetica,sans-Serif" font-size="10.00" fill="#000000">common.h</text>
</a>
</g>
</g>
<!-- Node29&#45;&gt;Node30 -->
<g id="edge34" class="edge">
<title>Node29&#45;&gt;Node30</title>
<path fill="none" stroke="#191970" d="M806.2573,-165.4982C809.4949,-147.6913 816.7802,-107.6225 821.1385,-83.6515"/>
<polygon fill="#191970" stroke="#191970" points="824.6159,-84.091 822.9613,-73.6261 817.7288,-82.8387 824.6159,-84.091"/>
</g>
<!-- Node30&#45;&gt;Node2 -->
<g id="edge35" class="edge">
<title>Node30&#45;&gt;Node2</title>
<path fill="none" stroke="#191970" d="M793.2622,-56.3366C761.4328,-47.9783 710.5031,-34.4071 658.3638,-19.4481"/>
<polygon fill="#191970" stroke="#191970" points="659.1966,-16.0457 648.6185,-16.6397 657.2582,-22.772 659.1966,-16.0457"/>
</g>
<!-- Node30&#45;&gt;Node3 -->
<g id="edge36" class="edge">
<title>Node30&#45;&gt;Node3</title>
<path fill="none" stroke="#191970" d="M802.6584,-55.4179C780.9034,-46.4215 747.3792,-32.5581 722.8567,-22.4172"/>
<polygon fill="#191970" stroke="#191970" points="724.194,-19.1828 713.6155,-18.5956 721.519,-25.6515 724.194,-19.1828"/>
</g>
<!-- Node30&#45;&gt;Node4 -->
<g id="edge37" class="edge">
<title>Node30&#45;&gt;Node4</title>
<path fill="none" stroke="#191970" d="M813.722,-55.4179C803.9407,-47.2667 789.3648,-35.1201 777.6609,-25.3669"/>
<polygon fill="#191970" stroke="#191970" points="779.6788,-22.4926 769.756,-18.7795 775.1975,-27.8701 779.6788,-22.4926"/>
</g>
<!-- Node30&#45;&gt;Node5 -->
<g id="edge38" class="edge">
<title>Node30&#45;&gt;Node5</title>
<path fill="none" stroke="#191970" d="M824.6206,-55.4179C824.6206,-48.2164 824.6206,-37.8962 824.6206,-28.8632"/>
<polygon fill="#191970" stroke="#191970" points="828.1207,-28.7794 824.6206,-18.7795 821.1207,-28.7795 828.1207,-28.7794"/>
</g>
<!-- Node30&#45;&gt;Node6 -->
<g id="edge39" class="edge">
<title>Node30&#45;&gt;Node6</title>
<path fill="none" stroke="#191970" d="M835.8494,-55.4179C846.0251,-47.1876 861.2369,-34.8839 873.3537,-25.0836"/>
<polygon fill="#191970" stroke="#191970" points="875.5737,-27.7895 881.1478,-18.7795 871.1716,-22.3469 875.5737,-27.7895"/>
</g>
<!-- Node30&#45;&gt;Node7 -->
<g id="edge40" class="edge">
<title>Node30&#45;&gt;Node7</title>
<path fill="none" stroke="#191970" d="M847.0782,-55.4179C869.3239,-46.4215 903.6043,-32.5581 928.68,-22.4172"/>
<polygon fill="#191970" stroke="#191970" points="930.1712,-25.5895 938.1296,-18.5956 927.5468,-19.1001 930.1712,-25.5895"/>
</g>
<!-- Node30&#45;&gt;Node8 -->
<g id="edge41" class="edge">
<title>Node30&#45;&gt;Node8</title>
<path fill="none" stroke="#191970" d="M856.0595,-56.1467C892.5789,-46.4435 952.8604,-30.4266 992.4084,-19.9187"/>
<polygon fill="#191970" stroke="#191970" points="993.4697,-23.2582 1002.2355,-17.3076 991.6721,-16.493 993.4697,-23.2582"/>
</g>
<!-- Node30&#45;&gt;Node9 -->
<g id="edge42" class="edge">
<title>Node30&#45;&gt;Node9</title>
<path fill="none" stroke="#191970" d="M856.1503,-59.6459C901.1665,-52.4987 986.6106,-38.1314 1068.2478,-19.157"/>
<polygon fill="#191970" stroke="#191970" points="1069.2488,-22.5172 1078.1817,-16.8204 1067.6459,-15.7031 1069.2488,-22.5172"/>
</g>
<!-- Node30&#45;&gt;Node10 -->
<g id="edge43" class="edge">
<title>Node30&#45;&gt;Node10</title>
<path fill="none" stroke="#191970" d="M856.2142,-61.305C910.9881,-55.4594 1027.2291,-41.7042 1134.5431,-18.9855"/>
<polygon fill="#191970" stroke="#191970" points="1135.5241,-22.3546 1144.5655,-16.8315 1134.0532,-15.5109 1135.5241,-22.3546"/>
</g>
<!-- Node30&#45;&gt;Node11 -->
<g id="edge44" class="edge">
<title>Node30&#45;&gt;Node11</title>
<path fill="none" stroke="#191970" d="M856.0781,-61.9154C919.4178,-56.4518 1066.9776,-42.4146 1199.8643,-19.1604"/>
<polygon fill="#191970" stroke="#191970" points="1200.5761,-22.5889 1209.8117,-17.3973 1199.3543,-15.6964 1200.5761,-22.5889"/>
</g>
<!-- Node30&#45;&gt;Node12 -->
<g id="edge45" class="edge">
<title>Node30&#45;&gt;Node12</title>
<path fill="none" stroke="#191970" d="M856.1771,-62.7682C929.2216,-58.4609 1115.6994,-45.7531 1280.6887,-19.1417"/>
<polygon fill="#191970" stroke="#191970" points="1281.7183,-22.5199 1291.0224,-17.4519 1280.5886,-15.6116 1281.7183,-22.5199"/>
</g>
<!-- Node30&#45;&gt;Node13 -->
<g id="edge46" class="edge">
<title>Node30&#45;&gt;Node13</title>
<path fill="none" stroke="#191970" d="M856.1049,-63.0747C938.0417,-59.1047 1164.7707,-46.4545 1363.6043,-18.9935"/>
<polygon fill="#191970" stroke="#191970" points="1364.2301,-22.4401 1373.6496,-17.59 1363.2615,-15.5075 1364.2301,-22.4401"/>
</g>
<!-- Node30&#45;&gt;Node14 -->
<g id="edge47" class="edge">
<title>Node30&#45;&gt;Node14</title>
<path fill="none" stroke="#191970" d="M793.2518,-61.2836C773.3234,-59.3061 746.9745,-56.8128 723.6206,-55 465.8971,-34.9952 396.5673,-55.4684 136.2223,-18.8285"/>
<polygon fill="#191970" stroke="#191970" points="136.477,-15.3296 126.0838,-17.3865 135.4913,-22.2598 136.477,-15.3296"/>
</g>
<!-- Node30&#45;&gt;Node15 -->
<g id="edge48" class="edge">
<title>Node30&#45;&gt;Node15</title>
<path fill="none" stroke="#191970" d="M793.2449,-61.3703C773.3137,-59.4265 746.9644,-56.938 723.6206,-55 504.8394,-36.8369 445.8849,-50.1846 225.0424,-19.0249"/>
<polygon fill="#191970" stroke="#191970" points="225.4786,-15.5518 215.0847,-17.6055 224.4907,-22.4818 225.4786,-15.5518"/>
</g>
<!-- Node30&#45;&gt;Node16 -->
<g id="edge49" class="edge">
<title>Node30&#45;&gt;Node16</title>
<path fill="none" stroke="#191970" d="M793.2305,-61.5333C773.2938,-59.6526 746.9437,-57.1733 723.6206,-55 553.5171,-39.1492 507.8685,-41.7277 334.4685,-19.0182"/>
<polygon fill="#191970" stroke="#191970" points="334.8671,-15.5405 324.4952,-17.7027 333.9517,-22.4804 334.8671,-15.5405"/>
</g>
<!-- Node30&#45;&gt;Node17 -->
<g id="edge50" class="edge">
<title>Node30&#45;&gt;Node17</title>
<path fill="none" stroke="#191970" d="M793.1887,-61.303C708.2361,-52.6292 476.5334,-28.7437 411.5328,-19.001"/>
<polygon fill="#191970" stroke="#191970" points="411.8411,-15.5052 401.4087,-17.3533 410.7166,-22.4143 411.8411,-15.5052"/>
</g>
<!-- Node30&#45;&gt;Node18 -->
<g id="edge51" class="edge">
<title>Node30&#45;&gt;Node18</title>
<path fill="none" stroke="#191970" d="M793.1021,-61.1301C721.8632,-53.4064 549.3058,-34.0727 472.6712,-18.8329"/>
<polygon fill="#191970" stroke="#191970" points="473.0193,-15.3301 462.5149,-16.7113 471.5879,-22.1822 473.0193,-15.3301"/>
</g>
<!-- Node30&#45;&gt;Node19 -->
<g id="edge52" class="edge">
<title>Node30&#45;&gt;Node19</title>
<path fill="none" stroke="#191970" d="M793.2049,-61.1936C741.1147,-55.3701 633.5012,-41.8959 534.3438,-19.1451"/>
<polygon fill="#191970" stroke="#191970" points="535.0022,-15.7048 524.4686,-16.8414 533.4119,-22.5218 535.0022,-15.7048"/>
</g>
<!-- Node30&#45;&gt;Node21 -->
<g id="edge54" class="edge">
<title>Node30&#45;&gt;Node21</title>
<path fill="none" stroke="#191970" d="M792.9845,-59.4266C750.0861,-52.2962 670.9417,-38.2549 595.1915,-19.2096"/>
<polygon fill="#191970" stroke="#191970" points="596.0484,-15.8162 585.4938,-16.7386 594.3199,-22.5994 596.0484,-15.8162"/>
</g>
<!-- Node31 -->
<g id="node32" class="node">
<title>Node31</title>
<g id="a_node32"><a xlink:href="src_2include_2type_8h.html" target="_top" xlink:title="type.h">
<polygon fill="#ffffff" stroke="#000000" points="1469,-.5 1469,-18.5 1512.2412,-18.5 1512.2412,-.5 1469,-.5"/>
<text text-anchor="middle" x="1490.6206" y="-6.5" font-family="Helvetica,sans-Serif" font-size="10.00" fill="#000000">type.h</text>
</a>
</g>
</g>
<!-- Node30&#45;&gt;Node31 -->
<g id="edge53" class="edge">
<title>Node30&#45;&gt;Node31</title>
<path fill="none" stroke="#191970" d="M856.1916,-63.2253C964.8665,-58.6881 1323.7814,-42.4264 1458.7355,-18.9098"/>
<polygon fill="#191970" stroke="#191970" points="1459.6158,-22.3068 1468.8186,-17.0572 1458.3507,-15.422 1459.6158,-22.3068"/>
</g>
<!-- Node32&#45;&gt;Node30 -->
<g id="edge56" class="edge">
<title>Node32&#45;&gt;Node30</title>
<path fill="none" stroke="#191970" d="M867.199,-110.4179C859.8608,-102.5041 849.0304,-90.8243 840.1293,-81.2251"/>
<polygon fill="#191970" stroke="#191970" points="842.5911,-78.7324 833.2252,-73.7795 837.4582,-83.492 842.5911,-78.7324"/>
</g>
</g>
</svg>
