<?xml version="1.0" encoding="UTF-8" standalone="no"?>
<!DOCTYPE svg PUBLIC "-//W3C//DTD SVG 1.1//EN"
 "http://www.w3.org/Graphics/SVG/1.1/DTD/svg11.dtd">
<!-- Generated by graphviz version 2.40.1 (20161225.0304)
 -->
<!-- Title: ext_comps/shim/include/context.h Pages: 1 -->
<svg width="272pt" height="222pt"
 viewBox="0.00 0.00 271.71 222.00" xmlns="http://www.w3.org/2000/svg" xmlns:xlink="http://www.w3.org/1999/xlink">
<g id="graph0" class="graph" transform="scale(1 1) rotate(0) translate(4 218)">
<title>ext_comps/shim/include/context.h</title>
<polygon fill="#ffffff" stroke="transparent" points="-4,4 -4,-218 267.7139,-218 267.7139,4 -4,4"/>
<!-- Node38 -->
<g id="node1" class="node">
<title>Node38</title>
<polygon fill="#bfbfbf" stroke="#000000" points="70,-185.5 70,-213.5 192.7139,-213.5 192.7139,-185.5 70,-185.5"/>
<text text-anchor="start" x="78" y="-201.5" font-family="Helvetica,sans-Serif" font-size="10.00" fill="#000000">ext_comps/shim/include</text>
<text text-anchor="middle" x="131.3569" y="-191.5" font-family="Helvetica,sans-Serif" font-size="10.00" fill="#000000">/context.h</text>
</g>
<!-- Node39 -->
<g id="node2" class="node">
<title>Node39</title>
<g id="a_node2"><a xlink:href="ext__comps_2shim_2include_2component_8h.html" target="_top" xlink:title="ext_comps/shim/include\l/component.h">
<polygon fill="#ffffff" stroke="#000000" points="0,-120.5 0,-148.5 122.7139,-148.5 122.7139,-120.5 0,-120.5"/>
<text text-anchor="start" x="8" y="-136.5" font-family="Helvetica,sans-Serif" font-size="10.00" fill="#000000">ext_comps/shim/include</text>
<text text-anchor="middle" x="61.3569" y="-126.5" font-family="Helvetica,sans-Serif" font-size="10.00" fill="#000000">/component.h</text>
</a>
</g>
</g>
<!-- Node38&#45;&gt;Node39 -->
<g id="edge1" class="edge">
<title>Node38&#45;&gt;Node39</title>
<path fill="none" stroke="#191970" d="M108.5385,-178.3115C98.0382,-168.5612 85.8667,-157.259 76.5162,-148.5765"/>
<polygon fill="#191970" stroke="#191970" points="106.4584,-181.1562 116.168,-185.396 111.2216,-176.0266 106.4584,-181.1562"/>
</g>
<!-- Node43 -->
<g id="node6" class="node">
<title>Node43</title>
<g id="a_node6"><a xlink:href="ext__comps_2shim_2include_2event_8h.html" target="_top" xlink:title="ext_comps/shim/include\l/event.h">
<polygon fill="#ffffff" stroke="#000000" points="141,-120.5 141,-148.5 263.7139,-148.5 263.7139,-120.5 141,-120.5"/>
<text text-anchor="start" x="149" y="-136.5" font-family="Helvetica,sans-Serif" font-size="10.00" fill="#000000">ext_comps/shim/include</text>
<text text-anchor="middle" x="202.3569" y="-126.5" font-family="Helvetica,sans-Serif" font-size="10.00" fill="#000000">/event.h</text>
</a>
</g>
</g>
<!-- Node38&#45;&gt;Node43 -->
<g id="edge5" class="edge">
<title>Node38&#45;&gt;Node43</title>
<path fill="none" stroke="#191970" d="M154.1886,-178.5978C164.9093,-168.7831 177.4041,-157.3442 186.9811,-148.5765"/>
<polygon fill="#191970" stroke="#191970" points="151.7754,-176.0618 146.7629,-185.396 156.5022,-181.225 151.7754,-176.0618"/>
</g>
<!-- Node40 -->
<g id="node3" class="node">
<title>Node40</title>
<g id="a_node3"><a xlink:href="ext__comps_2shim_2include_2shim_8h.html" target="_top" xlink:title="ext_comps/shim/include\l/shim.h">
<polygon fill="#ffffff" stroke="#000000" points="70,-55.5 70,-83.5 192.7139,-83.5 192.7139,-55.5 70,-55.5"/>
<text text-anchor="start" x="78" y="-71.5" font-family="Helvetica,sans-Serif" font-size="10.00" fill="#000000">ext_comps/shim/include</text>
<text text-anchor="middle" x="131.3569" y="-61.5" font-family="Helvetica,sans-Serif" font-size="10.00" fill="#000000">/shim.h</text>
</a>
</g>
</g>
<!-- Node39&#45;&gt;Node40 -->
<g id="edge2" class="edge">
<title>Node39&#45;&gt;Node40</title>
<path fill="none" stroke="#191970" d="M84.1754,-113.3115C94.6756,-103.5612 106.8472,-92.259 116.1976,-83.5765"/>
<polygon fill="#191970" stroke="#191970" points="81.4923,-111.0266 76.5459,-120.396 86.2554,-116.1562 81.4923,-111.0266"/>
</g>
<!-- Node41 -->
<g id="node4" class="node">
<title>Node41</title>
<g id="a_node4"><a xlink:href="ext__apps_2shim_2shim_8c.html" target="_top" xlink:title="ext_apps/shim/shim.c">
<polygon fill="#ffffff" stroke="#000000" points="8.2832,-.5 8.2832,-18.5 120.4307,-18.5 120.4307,-.5 8.2832,-.5"/>
<text text-anchor="middle" x="64.3569" y="-6.5" font-family="Helvetica,sans-Serif" font-size="10.00" fill="#000000">ext_apps/shim/shim.c</text>
</a>
</g>
</g>
<!-- Node40&#45;&gt;Node41 -->
<g id="edge3" class="edge">
<title>Node40&#45;&gt;Node41</title>
<path fill="none" stroke="#191970" d="M107.9159,-48.508C96.4871,-38.2733 83.3366,-26.4967 74.5009,-18.5842"/>
<polygon fill="#191970" stroke="#191970" points="105.6944,-51.2169 115.4789,-55.2808 110.3643,-46.0023 105.6944,-51.2169"/>
</g>
<!-- Node42 -->
<g id="node5" class="node">
<title>Node42</title>
<g id="a_node5"><a xlink:href="ext__comps_2shim_2shim_8c.html" target="_top" xlink:title="ext_comps/shim/shim.c">
<polygon fill="#ffffff" stroke="#000000" points="138.3989,-.5 138.3989,-18.5 258.3149,-18.5 258.3149,-.5 138.3989,-.5"/>
<text text-anchor="middle" x="198.3569" y="-6.5" font-family="Helvetica,sans-Serif" font-size="10.00" fill="#000000">ext_comps/shim/shim.c</text>
</a>
</g>
</g>
<!-- Node40&#45;&gt;Node42 -->
<g id="edge4" class="edge">
<title>Node40&#45;&gt;Node42</title>
<path fill="none" stroke="#191970" d="M154.798,-48.508C166.2268,-38.2733 179.3773,-26.4967 188.2129,-18.5842"/>
<polygon fill="#191970" stroke="#191970" points="152.3496,-46.0023 147.235,-55.2808 157.0195,-51.2169 152.3496,-46.0023"/>
</g>
<!-- Node43&#45;&gt;Node40 -->
<g id="edge6" class="edge">
<title>Node43&#45;&gt;Node40</title>
<path fill="none" stroke="#191970" d="M179.5253,-113.5978C168.8046,-103.7831 156.3098,-92.3442 146.7328,-83.5765"/>
<polygon fill="#191970" stroke="#191970" points="177.2117,-116.225 186.951,-120.396 181.9385,-111.0618 177.2117,-116.225"/>
</g>
</g>
</svg>
