<?xml version="1.0" encoding="UTF-8" standalone="no"?>
<!DOCTYPE svg PUBLIC "-//W3C//DTD SVG 1.1//EN"
 "http://www.w3.org/Graphics/SVG/1.1/DTD/svg11.dtd">
<!-- Generated by graphviz version 2.40.1 (20161225.0304)
 -->
<!-- Title: ext_comps/topo_mgmt/src/include/topo_mgmt.h Pages: 1 -->
<svg width="2394pt" height="312pt"
 viewBox="0.00 0.00 2394.36 312.00" xmlns="http://www.w3.org/2000/svg" xmlns:xlink="http://www.w3.org/1999/xlink">
<g id="graph0" class="graph" transform="scale(1 1) rotate(0) translate(4 308)">
<title>ext_comps/topo_mgmt/src/include/topo_mgmt.h</title>
<polygon fill="#ffffff" stroke="transparent" points="-4,4 -4,-308 2390.3643,-308 2390.3643,4 -4,4"/>
<!-- Node0 -->
<g id="node1" class="node">
<title>Node0</title>
<polygon fill="#bfbfbf" stroke="#000000" points="1322.7612,-275.5 1322.7612,-303.5 1450.48,-303.5 1450.48,-275.5 1322.7612,-275.5"/>
<text text-anchor="start" x="1330.7612" y="-291.5" font-family="Helvetica,sans-Serif" font-size="10.00" fill="#000000">ext_comps/topo_mgmt</text>
<text text-anchor="middle" x="1386.6206" y="-281.5" font-family="Helvetica,sans-Serif" font-size="10.00" fill="#000000">/src/include/topo_mgmt.h</text>
</g>
<!-- Node1 -->
<g id="node2" class="node">
<title>Node1</title>
<g id="a_node2"><a xlink:href="src_2include_2common_8h.html" target="_top" xlink:title="common.h">
<polygon fill="#ffffff" stroke="#000000" points="1298.2783,-110.5 1298.2783,-128.5 1360.9629,-128.5 1360.9629,-110.5 1298.2783,-110.5"/>
<text text-anchor="middle" x="1329.6206" y="-116.5" font-family="Helvetica,sans-Serif" font-size="10.00" fill="#000000">common.h</text>
</a>
</g>
</g>
<!-- Node0&#45;&gt;Node1 -->
<g id="edge1" class="edge">
<title>Node0&#45;&gt;Node1</title>
<path fill="none" stroke="#191970" d="M1381.8589,-275.2983C1371.622,-244.7672 1347.515,-172.8692 1335.983,-138.4756"/>
<polygon fill="#191970" stroke="#191970" points="1339.2118,-137.0952 1332.7142,-128.7266 1332.5749,-139.3206 1339.2118,-137.0952"/>
</g>
<!-- Node29 -->
<g id="node30" class="node">
<title>Node29</title>
<g id="a_node30"><a xlink:href="database_8h.html" target="_top" xlink:title="database.h">
<polygon fill="#ffffff" stroke="#000000" points="2320.877,-55.5 2320.877,-73.5 2386.3643,-73.5 2386.3643,-55.5 2320.877,-55.5"/>
<text text-anchor="middle" x="2353.6206" y="-61.5" font-family="Helvetica,sans-Serif" font-size="10.00" fill="#000000">database.h</text>
</a>
</g>
</g>
<!-- Node0&#45;&gt;Node29 -->
<g id="edge50" class="edge">
<title>Node0&#45;&gt;Node29</title>
<path fill="none" stroke="#191970" d="M1390.3299,-275.255C1395.3112,-259.1359 1405.7927,-233.3887 1424.6206,-220 1461.5949,-193.7072 2132.7845,-96.1171 2310.6585,-70.6244"/>
<polygon fill="#191970" stroke="#191970" points="2311.2893,-74.0699 2320.6923,-69.1879 2310.2972,-67.1406 2311.2893,-74.0699"/>
</g>
<!-- Node36 -->
<g id="node37" class="node">
<title>Node36</title>
<g id="a_node37"><a xlink:href="events_2include_2event_8h.html" target="_top" xlink:title="event.h">
<polygon fill="#ffffff" stroke="#000000" points="1249.2192,-220.5 1249.2192,-238.5 1298.022,-238.5 1298.022,-220.5 1249.2192,-220.5"/>
<text text-anchor="middle" x="1273.6206" y="-226.5" font-family="Helvetica,sans-Serif" font-size="10.00" fill="#000000">event.h</text>
</a>
</g>
</g>
<!-- Node0&#45;&gt;Node36 -->
<g id="edge43" class="edge">
<title>Node0&#45;&gt;Node36</title>
<path fill="none" stroke="#191970" d="M1360.1271,-275.4327C1341.9067,-265.7581 1317.8211,-252.9693 1299.6921,-243.3433"/>
<polygon fill="#191970" stroke="#191970" points="1301.291,-240.2295 1290.8174,-238.6311 1298.0082,-246.412 1301.291,-240.2295"/>
</g>
<!-- Node40 -->
<g id="node41" class="node">
<title>Node40</title>
<g id="a_node41"><a xlink:href="lldp_8h.html" target="_top" xlink:title="lldp.h">
<polygon fill="#ffffff" stroke="#000000" points="1433.6675,-220.5 1433.6675,-238.5 1473.5737,-238.5 1473.5737,-220.5 1433.6675,-220.5"/>
<text text-anchor="middle" x="1453.6206" y="-226.5" font-family="Helvetica,sans-Serif" font-size="10.00" fill="#000000">lldp.h</text>
</a>
</g>
</g>
<!-- Node0&#45;&gt;Node40 -->
<g id="edge51" class="edge">
<title>Node0&#45;&gt;Node40</title>
<path fill="none" stroke="#191970" d="M1402.4987,-275.2808C1412.5139,-266.312 1425.4667,-254.7124 1435.8281,-245.4335"/>
<polygon fill="#191970" stroke="#191970" points="1438.362,-247.8628 1443.4766,-238.5842 1433.6921,-242.6481 1438.362,-247.8628"/>
</g>
<!-- Node2 -->
<g id="node3" class="node">
<title>Node2</title>
<polygon fill="#ffffff" stroke="#bfbfbf" points="2133.8892,-.5 2133.8892,-18.5 2179.3521,-18.5 2179.3521,-.5 2133.8892,-.5"/>
<text text-anchor="middle" x="2156.6206" y="-6.5" font-family="Helvetica,sans-Serif" font-size="10.00" fill="#000000">stdio.h</text>
</g>
<!-- Node1&#45;&gt;Node2 -->
<g id="edge2" class="edge">
<title>Node1&#45;&gt;Node2</title>
<path fill="none" stroke="#191970" d="M1361.0812,-114.0327C1370.8416,-112.5109 1381.6525,-111.0021 1391.6206,-110 1473.9689,-101.7213 2069.8441,-124.2317 2135.6206,-74 2149.3438,-63.52 2154.236,-43.8858 2155.9113,-29.0217"/>
<polygon fill="#191970" stroke="#191970" points="2159.4189,-29.0442 2156.6583,-18.8154 2152.4376,-28.5332 2159.4189,-29.0442"/>
</g>
<!-- Node3 -->
<g id="node4" class="node">
<title>Node3</title>
<polygon fill="#ffffff" stroke="#bfbfbf" points="61.1084,-55.5 61.1084,-73.5 112.1328,-73.5 112.1328,-55.5 61.1084,-55.5"/>
<text text-anchor="middle" x="86.6206" y="-61.5" font-family="Helvetica,sans-Serif" font-size="10.00" fill="#000000">unistd.h</text>
</g>
<!-- Node1&#45;&gt;Node3 -->
<g id="edge3" class="edge">
<title>Node1&#45;&gt;Node3</title>
<path fill="none" stroke="#191970" d="M1298.1588,-119.315C1134.4033,-118.2024 377.6546,-111.1847 122.4292,-73.9081"/>
<polygon fill="#191970" stroke="#191970" points="122.8829,-70.437 112.4711,-72.3978 121.8332,-77.3578 122.8829,-70.437"/>
</g>
<!-- Node4 -->
<g id="node5" class="node">
<title>Node4</title>
<polygon fill="#ffffff" stroke="#bfbfbf" points="129.7783,-55.5 129.7783,-73.5 177.4629,-73.5 177.4629,-55.5 129.7783,-55.5"/>
<text text-anchor="middle" x="153.6206" y="-61.5" font-family="Helvetica,sans-Serif" font-size="10.00" fill="#000000">stdlib.h</text>
</g>
<!-- Node1&#45;&gt;Node4 -->
<g id="edge4" class="edge">
<title>Node1&#45;&gt;Node4</title>
<path fill="none" stroke="#191970" d="M1298.0398,-119.2679C1139.6196,-117.9501 429.8922,-110.1847 187.7603,-73.7207"/>
<polygon fill="#191970" stroke="#191970" points="188.0405,-70.2219 177.6192,-72.1316 186.9568,-77.1375 188.0405,-70.2219"/>
</g>
<!-- Node5 -->
<g id="node6" class="node">
<title>Node5</title>
<polygon fill="#ffffff" stroke="#bfbfbf" points="2214.5542,-.5 2214.5542,-18.5 2266.687,-18.5 2266.687,-.5 2214.5542,-.5"/>
<text text-anchor="middle" x="2240.6206" y="-6.5" font-family="Helvetica,sans-Serif" font-size="10.00" fill="#000000">stdarg.h</text>
</g>
<!-- Node1&#45;&gt;Node5 -->
<g id="edge5" class="edge">
<title>Node1&#45;&gt;Node5</title>
<path fill="none" stroke="#191970" d="M1361.0777,-113.9976C1370.838,-112.4744 1381.6497,-110.9736 1391.6206,-110 1438.33,-105.4391 2201.8637,-106.6042 2235.6206,-74 2247.4659,-62.5592 2247.3825,-43.0649 2245.1491,-28.4956"/>
<polygon fill="#191970" stroke="#191970" points="2248.5524,-27.6633 2243.184,-18.5293 2241.6847,-29.0175 2248.5524,-27.6633"/>
</g>
<!-- Node6 -->
<g id="node7" class="node">
<title>Node6</title>
<polygon fill="#ffffff" stroke="#bfbfbf" points="195.5,-55.5 195.5,-73.5 243.7412,-73.5 243.7412,-55.5 195.5,-55.5"/>
<text text-anchor="middle" x="219.6206" y="-61.5" font-family="Helvetica,sans-Serif" font-size="10.00" fill="#000000">stdint.h</text>
</g>
<!-- Node1&#45;&gt;Node6 -->
<g id="edge6" class="edge">
<title>Node1&#45;&gt;Node6</title>
<path fill="none" stroke="#191970" d="M1298.1243,-119.1455C1145.6373,-117.2822 482.4658,-107.459 253.8887,-73.5597"/>
<polygon fill="#191970" stroke="#191970" points="254.4025,-70.0977 243.9857,-72.0319 253.335,-77.0158 254.4025,-70.0977"/>
</g>
<!-- Node7 -->
<g id="node8" class="node">
<title>Node7</title>
<polygon fill="#ffffff" stroke="#bfbfbf" points="262.2241,-55.5 262.2241,-73.5 311.0171,-73.5 311.0171,-55.5 262.2241,-55.5"/>
<text text-anchor="middle" x="286.6206" y="-61.5" font-family="Helvetica,sans-Serif" font-size="10.00" fill="#000000">string.h</text>
</g>
<!-- Node1&#45;&gt;Node7 -->
<g id="edge7" class="edge">
<title>Node1&#45;&gt;Node7</title>
<path fill="none" stroke="#191970" d="M1297.8479,-119.074C1150.828,-116.9514 534.9933,-106.3628 321.5053,-73.9058"/>
<polygon fill="#191970" stroke="#191970" points="321.7688,-70.4039 311.3438,-72.2935 320.6718,-77.3174 321.7688,-70.4039"/>
</g>
<!-- Node8 -->
<g id="node9" class="node">
<title>Node8</title>
<polygon fill="#ffffff" stroke="#bfbfbf" points="328.7241,-55.5 328.7241,-73.5 382.5171,-73.5 382.5171,-55.5 328.7241,-55.5"/>
<text text-anchor="middle" x="355.6206" y="-61.5" font-family="Helvetica,sans-Serif" font-size="10.00" fill="#000000">strings.h</text>
</g>
<!-- Node1&#45;&gt;Node8 -->
<g id="edge8" class="edge">
<title>Node1&#45;&gt;Node8</title>
<path fill="none" stroke="#191970" d="M1298.2519,-118.8616C1158.6219,-115.8869 592.1144,-102.3766 392.6844,-73.7792"/>
<polygon fill="#191970" stroke="#191970" points="393.0268,-70.2915 382.6191,-72.2738 391.9913,-77.2145 393.0268,-70.2915"/>
</g>
<!-- Node9 -->
<g id="node10" class="node">
<title>Node9</title>
<polygon fill="#ffffff" stroke="#bfbfbf" points="400.4927,-55.5 400.4927,-73.5 458.7485,-73.5 458.7485,-55.5 400.4927,-55.5"/>
<text text-anchor="middle" x="429.6206" y="-61.5" font-family="Helvetica,sans-Serif" font-size="10.00" fill="#000000">pthread.h</text>
</g>
<!-- Node1&#45;&gt;Node9 -->
<g id="edge9" class="edge">
<title>Node1&#45;&gt;Node9</title>
<path fill="none" stroke="#191970" d="M1298.1269,-118.6494C1165.6266,-114.9484 652.2307,-99.3479 468.9999,-73.8836"/>
<polygon fill="#191970" stroke="#191970" points="469.3653,-70.4001 458.9665,-72.4288 468.3607,-77.3276 469.3653,-70.4001"/>
</g>
<!-- Node10 -->
<g id="node11" class="node">
<title>Node10</title>
<polygon fill="#ffffff" stroke="#bfbfbf" points="476.5,-55.5 476.5,-73.5 524.7412,-73.5 524.7412,-55.5 476.5,-55.5"/>
<text text-anchor="middle" x="500.6206" y="-61.5" font-family="Helvetica,sans-Serif" font-size="10.00" fill="#000000">ctype.h</text>
</g>
<!-- Node1&#45;&gt;Node10 -->
<g id="edge10" class="edge">
<title>Node1&#45;&gt;Node10</title>
<path fill="none" stroke="#191970" d="M1297.9457,-118.6337C1171.7456,-115.0392 703.834,-100.3162 534.958,-73.8109"/>
<polygon fill="#191970" stroke="#191970" points="535.4235,-70.3405 524.9882,-72.1717 534.2879,-77.2478 535.4235,-70.3405"/>
</g>
<!-- Node11 -->
<g id="node12" class="node">
<title>Node11</title>
<polygon fill="#ffffff" stroke="#bfbfbf" points="542.7783,-55.5 542.7783,-73.5 590.4629,-73.5 590.4629,-55.5 542.7783,-55.5"/>
<text text-anchor="middle" x="566.6206" y="-61.5" font-family="Helvetica,sans-Serif" font-size="10.00" fill="#000000">errno.h</text>
</g>
<!-- Node1&#45;&gt;Node11 -->
<g id="edge11" class="edge">
<title>Node1&#45;&gt;Node11</title>
<path fill="none" stroke="#191970" d="M1298.0749,-118.4877C1178.9534,-114.5213 755.7958,-99.0917 600.8427,-73.9962"/>
<polygon fill="#191970" stroke="#191970" points="601.0389,-70.4793 590.5933,-72.2511 599.8639,-77.38 601.0389,-70.4793"/>
</g>
<!-- Node12 -->
<g id="node13" class="node">
<title>Node12</title>
<polygon fill="#ffffff" stroke="#bfbfbf" points="608.0049,-55.5 608.0049,-73.5 651.2363,-73.5 651.2363,-55.5 608.0049,-55.5"/>
<text text-anchor="middle" x="629.6206" y="-61.5" font-family="Helvetica,sans-Serif" font-size="10.00" fill="#000000">time.h</text>
</g>
<!-- Node1&#45;&gt;Node12 -->
<g id="edge12" class="edge">
<title>Node1&#45;&gt;Node12</title>
<path fill="none" stroke="#191970" d="M1298.0232,-118.3134C1185.6093,-113.9459 804.6375,-97.8588 661.7531,-73.7073"/>
<polygon fill="#191970" stroke="#191970" points="661.9399,-70.1856 651.4813,-71.879 660.7132,-77.0773 661.9399,-70.1856"/>
</g>
<!-- Node13 -->
<g id="node14" class="node">
<title>Node13</title>
<polygon fill="#ffffff" stroke="#bfbfbf" points="669.2808,-55.5 669.2808,-73.5 711.9604,-73.5 711.9604,-55.5 669.2808,-55.5"/>
<text text-anchor="middle" x="690.6206" y="-61.5" font-family="Helvetica,sans-Serif" font-size="10.00" fill="#000000">fcntl.h</text>
</g>
<!-- Node1&#45;&gt;Node13 -->
<g id="edge13" class="edge">
<title>Node1&#45;&gt;Node13</title>
<path fill="none" stroke="#191970" d="M1297.9565,-118.0633C1192.4304,-113.1332 852.5477,-96.077 722.262,-73.605"/>
<polygon fill="#191970" stroke="#191970" points="722.6116,-70.1113 712.1471,-71.7675 721.3604,-76.9986 722.6116,-70.1113"/>
</g>
<!-- Node14 -->
<g id="node15" class="node">
<title>Node14</title>
<polygon fill="#ffffff" stroke="#bfbfbf" points="730.3867,-55.5 730.3867,-73.5 780.8545,-73.5 780.8545,-55.5 730.3867,-55.5"/>
<text text-anchor="middle" x="755.6206" y="-61.5" font-family="Helvetica,sans-Serif" font-size="10.00" fill="#000000">signal.h</text>
</g>
<!-- Node1&#45;&gt;Node14 -->
<g id="edge14" class="edge">
<title>Node1&#45;&gt;Node14</title>
<path fill="none" stroke="#191970" d="M1298.0022,-118.9111C1215.7448,-116.9404 988.3106,-108.6883 791.0826,-73.9623"/>
<polygon fill="#191970" stroke="#191970" points="791.5806,-70.4959 781.1206,-72.1808 790.3483,-77.3866 791.5806,-70.4959"/>
</g>
<!-- Node15 -->
<g id="node16" class="node">
<title>Node15</title>
<polygon fill="#ffffff" stroke="#bfbfbf" points="1968.1157,-.5 1968.1157,-18.5 2029.1255,-18.5 2029.1255,-.5 1968.1157,-.5"/>
<text text-anchor="middle" x="1998.6206" y="-6.5" font-family="Helvetica,sans-Serif" font-size="10.00" fill="#000000">sys/time.h</text>
</g>
<!-- Node1&#45;&gt;Node15 -->
<g id="edge15" class="edge">
<title>Node1&#45;&gt;Node15</title>
<path fill="none" stroke="#191970" d="M1361.0966,-114.1779C1370.8577,-112.662 1381.6651,-111.12 1391.6206,-110 1612.5809,-85.1414 1678.5419,-140.8132 1890.6206,-74 1908.4153,-68.394 1950.5637,-41.5408 1976.6321,-24.2984"/>
<polygon fill="#191970" stroke="#191970" points="1978.731,-27.1058 1985.1159,-18.651 1974.8521,-21.2788 1978.731,-27.1058"/>
</g>
<!-- Node16 -->
<g id="node17" class="node">
<title>Node16</title>
<polygon fill="#ffffff" stroke="#bfbfbf" points="798.5024,-55.5 798.5024,-73.5 856.7388,-73.5 856.7388,-55.5 798.5024,-55.5"/>
<text text-anchor="middle" x="827.6206" y="-61.5" font-family="Helvetica,sans-Serif" font-size="10.00" fill="#000000">sys/stat.h</text>
</g>
<!-- Node1&#45;&gt;Node16 -->
<g id="edge16" class="edge">
<title>Node1&#45;&gt;Node16</title>
<path fill="none" stroke="#191970" d="M1298.1787,-118.0168C1224.4371,-114.1979 1034.5396,-102.3896 866.9742,-74.0115"/>
<polygon fill="#191970" stroke="#191970" points="867.4362,-70.5396 856.988,-72.2958 866.2509,-77.4386 867.4362,-70.5396"/>
</g>
<!-- Node17 -->
<g id="node18" class="node">
<title>Node17</title>
<polygon fill="#ffffff" stroke="#bfbfbf" points="874.6108,-55.5 874.6108,-73.5 940.6304,-73.5 940.6304,-55.5 874.6108,-55.5"/>
<text text-anchor="middle" x="907.6206" y="-61.5" font-family="Helvetica,sans-Serif" font-size="10.00" fill="#000000">sys/types.h</text>
</g>
<!-- Node1&#45;&gt;Node17 -->
<g id="edge17" class="edge">
<title>Node1&#45;&gt;Node17</title>
<path fill="none" stroke="#191970" d="M1297.932,-116.8214C1234.123,-111.1886 1085.4489,-96.8589 951.0876,-74.1076"/>
<polygon fill="#191970" stroke="#191970" points="951.4764,-70.6232 941.0289,-72.3837 950.2939,-77.5227 951.4764,-70.6232"/>
</g>
<!-- Node18 -->
<g id="node19" class="node">
<title>Node18</title>
<polygon fill="#ffffff" stroke="#bfbfbf" points="958.6699,-55.5 958.6699,-73.5 1018.5713,-73.5 1018.5713,-55.5 958.6699,-55.5"/>
<text text-anchor="middle" x="988.6206" y="-61.5" font-family="Helvetica,sans-Serif" font-size="10.00" fill="#000000">sys/ioctl.h</text>
</g>
<!-- Node1&#45;&gt;Node18 -->
<g id="edge18" class="edge">
<title>Node1&#45;&gt;Node18</title>
<path fill="none" stroke="#191970" d="M1298.0418,-115.7719C1244.4828,-109.2305 1132.2532,-94.5808 1028.824,-74.3127"/>
<polygon fill="#191970" stroke="#191970" points="1029.3343,-70.8458 1018.8444,-72.3338 1027.9726,-77.7121 1029.3343,-70.8458"/>
</g>
<!-- Node19 -->
<g id="node20" class="node">
<title>Node19</title>
<polygon fill="#ffffff" stroke="#bfbfbf" points="1036.1108,-55.5 1036.1108,-73.5 1107.1304,-73.5 1107.1304,-55.5 1036.1108,-55.5"/>
<text text-anchor="middle" x="1071.6206" y="-61.5" font-family="Helvetica,sans-Serif" font-size="10.00" fill="#000000">sys/socket.h</text>
</g>
<!-- Node1&#45;&gt;Node19 -->
<g id="edge19" class="edge">
<title>Node1&#45;&gt;Node19</title>
<path fill="none" stroke="#191970" d="M1298.0682,-112.8239C1258.1934,-104.3797 1187.1796,-89.3178 1117.0469,-74.3012"/>
<polygon fill="#191970" stroke="#191970" points="1117.6714,-70.8557 1107.1601,-72.1833 1116.2051,-77.7004 1117.6714,-70.8557"/>
</g>
<!-- Node20 -->
<g id="node21" class="node">
<title>Node20</title>
<polygon fill="#ffffff" stroke="#bfbfbf" points="1125,-55.5 1125,-73.5 1198.2412,-73.5 1198.2412,-55.5 1125,-55.5"/>
<text text-anchor="middle" x="1161.6206" y="-61.5" font-family="Helvetica,sans-Serif" font-size="10.00" fill="#000000">sys/sysinfo.h</text>
</g>
<!-- Node1&#45;&gt;Node20 -->
<g id="edge20" class="edge">
<title>Node1&#45;&gt;Node20</title>
<path fill="none" stroke="#191970" d="M1301.8788,-110.4179C1273.7068,-101.1949 1229.9102,-86.8567 1198.7584,-76.6582"/>
<polygon fill="#191970" stroke="#191970" points="1199.717,-73.2893 1189.1244,-73.5042 1197.5391,-79.9419 1199.717,-73.2893"/>
</g>
<!-- Node21 -->
<g id="node22" class="node">
<title>Node21</title>
<polygon fill="#ffffff" stroke="#bfbfbf" points="1215.9927,-55.5 1215.9927,-73.5 1279.2485,-73.5 1279.2485,-55.5 1215.9927,-55.5"/>
<text text-anchor="middle" x="1247.6206" y="-61.5" font-family="Helvetica,sans-Serif" font-size="10.00" fill="#000000">arpa/inet.h</text>
</g>
<!-- Node1&#45;&gt;Node21 -->
<g id="edge21" class="edge">
<title>Node1&#45;&gt;Node21</title>
<path fill="none" stroke="#191970" d="M1316.08,-110.4179C1303.498,-101.9788 1284.531,-89.257 1269.7495,-79.3426"/>
<polygon fill="#191970" stroke="#191970" points="1271.4359,-76.2593 1261.1814,-73.5956 1267.5366,-82.0727 1271.4359,-76.2593"/>
</g>
<!-- Node22 -->
<g id="node23" class="node">
<title>Node22</title>
<polygon fill="#ffffff" stroke="#bfbfbf" points="1297.1577,-55.5 1297.1577,-73.5 1362.0835,-73.5 1362.0835,-55.5 1297.1577,-55.5"/>
<text text-anchor="middle" x="1329.6206" y="-61.5" font-family="Helvetica,sans-Serif" font-size="10.00" fill="#000000">netinet/in.h</text>
</g>
<!-- Node1&#45;&gt;Node22 -->
<g id="edge22" class="edge">
<title>Node1&#45;&gt;Node22</title>
<path fill="none" stroke="#191970" d="M1329.6206,-110.4179C1329.6206,-103.2164 1329.6206,-92.8962 1329.6206,-83.8632"/>
<polygon fill="#191970" stroke="#191970" points="1333.1207,-83.7794 1329.6206,-73.7795 1326.1207,-83.7795 1333.1207,-83.7794"/>
</g>
<!-- Node23 -->
<g id="node24" class="node">
<title>Node23</title>
<polygon fill="#ffffff" stroke="#bfbfbf" points="1379.7637,-55.5 1379.7637,-73.5 1457.4775,-73.5 1457.4775,-55.5 1379.7637,-55.5"/>
<text text-anchor="middle" x="1418.6206" y="-61.5" font-family="Helvetica,sans-Serif" font-size="10.00" fill="#000000">net/ethernet.h</text>
</g>
<!-- Node1&#45;&gt;Node23 -->
<g id="edge23" class="edge">
<title>Node1&#45;&gt;Node23</title>
<path fill="none" stroke="#191970" d="M1344.3171,-110.4179C1358.102,-101.8992 1378.9484,-89.0166 1395.0555,-79.0627"/>
<polygon fill="#191970" stroke="#191970" points="1397.2354,-81.83 1403.9022,-73.5956 1393.5555,-75.8753 1397.2354,-81.83"/>
</g>
<!-- Node24 -->
<g id="node25" class="node">
<title>Node24</title>
<polygon fill="#ffffff" stroke="#bfbfbf" points="1475.1577,-55.5 1475.1577,-73.5 1540.0835,-73.5 1540.0835,-55.5 1475.1577,-55.5"/>
<text text-anchor="middle" x="1507.6206" y="-61.5" font-family="Helvetica,sans-Serif" font-size="10.00" fill="#000000">netinet/ip.h</text>
</g>
<!-- Node1&#45;&gt;Node24 -->
<g id="edge24" class="edge">
<title>Node1&#45;&gt;Node24</title>
<path fill="none" stroke="#191970" d="M1359.0137,-110.4179C1388.9918,-101.155 1435.6683,-86.7325 1468.7001,-76.526"/>
<polygon fill="#191970" stroke="#191970" points="1469.9587,-79.8005 1478.4797,-73.5042 1467.8921,-73.1124 1469.9587,-79.8005"/>
</g>
<!-- Node25 -->
<g id="node26" class="node">
<title>Node25</title>
<polygon fill="#ffffff" stroke="#bfbfbf" points="1558.3794,-55.5 1558.3794,-73.5 1628.8618,-73.5 1628.8618,-55.5 1558.3794,-55.5"/>
<text text-anchor="middle" x="1593.6206" y="-61.5" font-family="Helvetica,sans-Serif" font-size="10.00" fill="#000000">netinet/tcp.h</text>
</g>
<!-- Node1&#45;&gt;Node25 -->
<g id="edge25" class="edge">
<title>Node1&#45;&gt;Node25</title>
<path fill="none" stroke="#191970" d="M1361.1791,-112.9764C1401.9164,-104.5483 1475.2643,-89.3488 1548.4026,-74.0404"/>
<polygon fill="#191970" stroke="#191970" points="1549.1793,-77.4537 1558.2496,-71.9784 1547.7445,-70.6023 1549.1793,-77.4537"/>
</g>
<!-- Node26 -->
<g id="node27" class="node">
<title>Node26</title>
<polygon fill="#ffffff" stroke="#bfbfbf" points="1646.8203,-55.5 1646.8203,-73.5 1738.4209,-73.5 1738.4209,-55.5 1646.8203,-55.5"/>
<text text-anchor="middle" x="1692.6206" y="-61.5" font-family="Helvetica,sans-Serif" font-size="10.00" fill="#000000">netinet/ip_icmp.h</text>
</g>
<!-- Node1&#45;&gt;Node26 -->
<g id="edge26" class="edge">
<title>Node1&#45;&gt;Node26</title>
<path fill="none" stroke="#191970" d="M1361.1554,-114.6261C1370.9189,-113.1283 1381.7128,-111.484 1391.6206,-110 1497.6979,-94.1115 1526.8147,-91.5478 1636.558,-74.1371"/>
<polygon fill="#191970" stroke="#191970" points="1637.3939,-77.5482 1646.7192,-72.5193 1636.2933,-70.6352 1637.3939,-77.5482"/>
</g>
<!-- Node27 -->
<g id="node28" class="node">
<title>Node27</title>
<g id="a_node28"><a xlink:href="mac2int_8h.html" target="_top" xlink:title="mac2int.h">
<polygon fill="#ffffff" stroke="#000000" points="1755.9434,-55.5 1755.9434,-73.5 1815.2979,-73.5 1815.2979,-55.5 1755.9434,-55.5"/>
<text text-anchor="middle" x="1785.6206" y="-61.5" font-family="Helvetica,sans-Serif" font-size="10.00" fill="#000000">mac2int.h</text>
</a>
</g>
</g>
<!-- Node1&#45;&gt;Node27 -->
<g id="edge27" class="edge">
<title>Node1&#45;&gt;Node27</title>
<path fill="none" stroke="#191970" d="M1361.0805,-113.0166C1368.1459,-111.9441 1375.5989,-110.8924 1382.6206,-110 1540.3808,-89.9503 1581.962,-101.3562 1738.6206,-74 1740.938,-73.5953 1743.323,-73.1266 1745.7372,-72.6184"/>
<polygon fill="#191970" stroke="#191970" points="1746.7401,-75.9803 1755.7281,-70.3709 1745.2038,-69.151 1746.7401,-75.9803"/>
</g>
<!-- Node28 -->
<g id="node29" class="node">
<title>Node28</title>
<g id="a_node29"><a xlink:href="ip2int_8h.html" target="_top" xlink:title="ip2int.h">
<polygon fill="#ffffff" stroke="#000000" points="1833.4976,-55.5 1833.4976,-73.5 1881.7437,-73.5 1881.7437,-55.5 1833.4976,-55.5"/>
<text text-anchor="middle" x="1857.6206" y="-61.5" font-family="Helvetica,sans-Serif" font-size="10.00" fill="#000000">ip2int.h</text>
</a>
</g>
</g>
<!-- Node1&#45;&gt;Node28 -->
<g id="edge29" class="edge">
<title>Node1&#45;&gt;Node28</title>
<path fill="none" stroke="#191970" d="M1361.0677,-112.912C1368.1344,-111.8506 1375.5912,-110.8298 1382.6206,-110 1574.3976,-87.3626 1625.6885,-108.8808 1815.6206,-74 1818.0834,-73.5477 1820.6263,-72.9881 1823.1966,-72.3686"/>
<polygon fill="#191970" stroke="#191970" points="1824.3372,-75.6884 1833.1334,-69.7827 1822.5742,-68.9141 1824.3372,-75.6884"/>
</g>
<!-- Node1&#45;&gt;Node29 -->
<g id="edge31" class="edge">
<title>Node1&#45;&gt;Node29</title>
<path fill="none" stroke="#191970" d="M1361.0403,-112.6556C1368.1099,-111.6215 1375.5748,-110.6762 1382.6206,-110 1787.7403,-71.1179 1893.536,-122.471 2297.6206,-74 2301.805,-73.4981 2306.1725,-72.8231 2310.5565,-72.0633"/>
<polygon fill="#191970" stroke="#191970" points="2311.5425,-75.4403 2320.7378,-70.1775 2310.2676,-68.5573 2311.5425,-75.4403"/>
</g>
<!-- Node31 -->
<g id="node32" class="node">
<title>Node31</title>
<polygon fill="#ffffff" stroke="#bfbfbf" points="1937.2168,-55.5 1937.2168,-73.5 1996.0244,-73.5 1996.0244,-55.5 1937.2168,-55.5"/>
<text text-anchor="middle" x="1966.6206" y="-61.5" font-family="Helvetica,sans-Serif" font-size="10.00" fill="#000000">jansson.h</text>
</g>
<!-- Node1&#45;&gt;Node31 -->
<g id="edge35" class="edge">
<title>Node1&#45;&gt;Node31</title>
<path fill="none" stroke="#191970" d="M1361.0936,-114.1506C1370.8546,-112.6336 1381.6626,-111.0979 1391.6206,-110 1627.1785,-84.0302 1689.0376,-107.6566 1923.6206,-74 1924.7179,-73.8426 1925.8289,-73.6725 1926.9485,-73.4917"/>
<polygon fill="#191970" stroke="#191970" points="1927.914,-76.8731 1937.1193,-71.6279 1926.6521,-69.9878 1927.914,-76.8731"/>
</g>
<!-- Node32 -->
<g id="node33" class="node">
<title>Node32</title>
<g id="a_node33"><a xlink:href="libcli_8h.html" target="_top" xlink:title="libcli.h">
<polygon fill="#ffffff" stroke="#000000" points="2182.7266,-55.5 2182.7266,-73.5 2226.5146,-73.5 2226.5146,-55.5 2182.7266,-55.5"/>
<text text-anchor="middle" x="2204.6206" y="-61.5" font-family="Helvetica,sans-Serif" font-size="10.00" fill="#000000">libcli.h</text>
</a>
</g>
</g>
<!-- Node1&#45;&gt;Node32 -->
<g id="edge36" class="edge">
<title>Node1&#45;&gt;Node32</title>
<path fill="none" stroke="#191970" d="M1361.0799,-114.0202C1370.8403,-112.4978 1381.6515,-110.9919 1391.6206,-110 1735.6258,-75.7723 1826.9107,-126.3972 2168.6206,-74 2169.9144,-73.8016 2171.2288,-73.5752 2172.5524,-73.3263"/>
<polygon fill="#191970" stroke="#191970" points="2173.6878,-76.6596 2182.6913,-71.0751 2172.1704,-69.826 2173.6878,-76.6596"/>
</g>
<!-- Node33 -->
<g id="node34" class="node">
<title>Node33</title>
<polygon fill="#ffffff" stroke="#bfbfbf" points="2014.394,-55.5 2014.394,-73.5 2064.8472,-73.5 2064.8472,-55.5 2014.394,-55.5"/>
<text text-anchor="middle" x="2039.6206" y="-61.5" font-family="Helvetica,sans-Serif" font-size="10.00" fill="#000000">mysql.h</text>
</g>
<!-- Node1&#45;&gt;Node33 -->
<g id="edge40" class="edge">
<title>Node1&#45;&gt;Node33</title>
<path fill="none" stroke="#191970" d="M1361.0877,-114.096C1370.8484,-112.5767 1381.6578,-111.0535 1391.6206,-110 1659.7083,-81.6515 1733.4799,-117.0932 2004.0192,-73.7135"/>
<polygon fill="#191970" stroke="#191970" points="2004.8309,-77.1276 2014.14,-72.0689 2003.7081,-70.2183 2004.8309,-77.1276"/>
</g>
<!-- Node34 -->
<g id="node35" class="node">
<title>Node34</title>
<polygon fill="#ffffff" stroke="#bfbfbf" points="2083.0049,-55.5 2083.0049,-73.5 2126.2363,-73.5 2126.2363,-55.5 2083.0049,-55.5"/>
<text text-anchor="middle" x="2104.6206" y="-61.5" font-family="Helvetica,sans-Serif" font-size="10.00" fill="#000000">zmq.h</text>
</g>
<!-- Node1&#45;&gt;Node34 -->
<g id="edge41" class="edge">
<title>Node1&#45;&gt;Node34</title>
<path fill="none" stroke="#191970" d="M1361.0839,-114.0597C1370.8445,-112.5389 1381.6547,-111.024 1391.6206,-110 1690.3205,-79.3088 1772.957,-125.8431 2072.9185,-73.6566"/>
<polygon fill="#191970" stroke="#191970" points="2073.5265,-77.1035 2082.7676,-71.9214 2072.3119,-70.2096 2073.5265,-77.1035"/>
</g>
<!-- Node35 -->
<g id="node36" class="node">
<title>Node35</title>
<g id="a_node36"><a xlink:href="src_2include_2type_8h.html" target="_top" xlink:title="type.h">
<polygon fill="#ffffff" stroke="#000000" points="0,-55.5 0,-73.5 43.2412,-73.5 43.2412,-55.5 0,-55.5"/>
<text text-anchor="middle" x="21.6206" y="-61.5" font-family="Helvetica,sans-Serif" font-size="10.00" fill="#000000">type.h</text>
</a>
</g>
</g>
<!-- Node1&#45;&gt;Node35 -->
<g id="edge42" class="edge">
<title>Node1&#45;&gt;Node35</title>
<path fill="none" stroke="#191970" d="M1298.1586,-118.89C1117.9691,-115.3303 219.4275,-96.6648 53.6543,-73.7377"/>
<polygon fill="#191970" stroke="#191970" points="53.8234,-70.2223 43.4056,-72.1507 52.7522,-77.1398 53.8234,-70.2223"/>
</g>
<!-- Node27&#45;&gt;Node1 -->
<g id="edge28" class="edge">
<title>Node27&#45;&gt;Node1</title>
<path fill="none" stroke="#191970" d="M1759.0532,-73.5568C1758.2365,-73.7115 1757.4245,-73.8596 1756.6206,-74 1599.962,-101.3562 1558.3808,-89.9503 1400.6206,-110 1391.1599,-111.2024 1380.9161,-112.6939 1371.172,-114.136"/>
<polygon fill="#191970" stroke="#191970" points="1370.6307,-110.6779 1361.2522,-115.6068 1371.6574,-117.6022 1370.6307,-110.6779"/>
</g>
<!-- Node28&#45;&gt;Node1 -->
<g id="edge30" class="edge">
<title>Node28&#45;&gt;Node1</title>
<path fill="none" stroke="#191970" d="M1836.1052,-73.5137C1835.2714,-73.6866 1834.4415,-73.8492 1833.6206,-74 1643.6885,-108.8808 1592.3976,-87.3626 1400.6206,-110 1391.1495,-111.118 1380.9025,-112.5828 1371.1585,-114.0264"/>
<polygon fill="#191970" stroke="#191970" points="1370.6134,-110.5689 1361.24,-115.5076 1371.6473,-117.4922 1370.6134,-110.5689"/>
</g>
<!-- Node29&#45;&gt;Node1 -->
<g id="edge32" class="edge">
<title>Node29&#45;&gt;Node1</title>
<path fill="none" stroke="#191970" d="M2320.6468,-73.3295C2318.9554,-73.5764 2317.2737,-73.8017 2315.6206,-74 1911.536,-122.471 1805.7403,-71.1179 1400.6206,-110 1391.1274,-110.9111 1380.8734,-112.3107 1371.1298,-113.7578"/>
<polygon fill="#191970" stroke="#191970" points="1370.5746,-110.3019 1361.214,-115.2647 1371.6264,-117.2225 1370.5746,-110.3019"/>
</g>
<!-- Node30 -->
<g id="node31" class="node">
<title>Node30</title>
<g id="a_node31"><a xlink:href="str_8h.html" target="_top" xlink:title="str.h">
<polygon fill="#ffffff" stroke="#000000" points="2289.1699,-.5 2289.1699,-18.5 2324.0713,-18.5 2324.0713,-.5 2289.1699,-.5"/>
<text text-anchor="middle" x="2306.6206" y="-6.5" font-family="Helvetica,sans-Serif" font-size="10.00" fill="#000000">str.h</text>
</a>
</g>
</g>
<!-- Node29&#45;&gt;Node30 -->
<g id="edge33" class="edge">
<title>Node29&#45;&gt;Node30</title>
<path fill="none" stroke="#191970" d="M2345.8595,-55.4179C2339.1645,-47.5833 2329.3152,-36.0575 2321.1596,-26.5137"/>
<polygon fill="#191970" stroke="#191970" points="2323.7077,-24.108 2314.5503,-18.7795 2318.3861,-28.6556 2323.7077,-24.108"/>
</g>
<!-- Node30&#45;&gt;Node1 -->
<g id="edge34" class="edge">
<title>Node30&#45;&gt;Node1</title>
<path fill="none" stroke="#191970" d="M2302.3115,-18.6331C2294.7936,-33.375 2277.748,-61.9754 2253.6206,-74 2167.8241,-116.7591 1487.0323,-100.7264 1391.6206,-110 1385.0769,-110.636 1378.1713,-111.5004 1371.4384,-112.4501"/>
<polygon fill="#191970" stroke="#191970" points="1370.453,-109.0582 1361.0771,-113.9922 1371.4835,-115.9819 1370.453,-109.0582"/>
</g>
<!-- Node32&#45;&gt;Node2 -->
<g id="edge38" class="edge">
<title>Node32&#45;&gt;Node2</title>
<path fill="none" stroke="#191970" d="M2196.6944,-55.4179C2189.8569,-47.5833 2179.7981,-36.0575 2171.4689,-26.5137"/>
<polygon fill="#191970" stroke="#191970" points="2173.9314,-24.0123 2164.719,-18.7795 2168.6574,-28.6151 2173.9314,-24.0123"/>
</g>
<!-- Node32&#45;&gt;Node5 -->
<g id="edge37" class="edge">
<title>Node32&#45;&gt;Node5</title>
<path fill="none" stroke="#191970" d="M2210.5653,-55.4179C2215.538,-47.8207 2222.7825,-36.7527 2228.913,-27.3866"/>
<polygon fill="#191970" stroke="#191970" points="2231.9986,-29.0633 2234.5468,-18.7795 2226.1417,-25.2297 2231.9986,-29.0633"/>
</g>
<!-- Node32&#45;&gt;Node15 -->
<g id="edge39" class="edge">
<title>Node32&#45;&gt;Node15</title>
<path fill="none" stroke="#191970" d="M2182.575,-58.614C2148.3669,-49.4808 2081.9756,-31.755 2039.0087,-20.2832"/>
<polygon fill="#191970" stroke="#191970" points="2039.7196,-16.8505 2029.1552,-17.6524 2037.9139,-23.6136 2039.7196,-16.8505"/>
</g>
<!-- Node36&#45;&gt;Node1 -->
<g id="edge44" class="edge">
<title>Node36&#45;&gt;Node1</title>
<path fill="none" stroke="#191970" d="M1283.0827,-220.194C1291.4105,-211.5214 1303.3163,-197.8741 1310.6206,-184 1318.1831,-169.6355 1323.1361,-151.8442 1326.083,-138.5879"/>
<polygon fill="#191970" stroke="#191970" points="1329.5318,-139.1915 1328.0998,-128.6939 1322.6729,-137.7933 1329.5318,-139.1915"/>
</g>
<!-- Node37 -->
<g id="node38" class="node">
<title>Node37</title>
<g id="a_node38"><a xlink:href="src_2include_2context_8h.html" target="_top" xlink:title="context.h">
<polygon fill="#ffffff" stroke="#000000" points="1245.3301,-165.5 1245.3301,-183.5 1301.9111,-183.5 1301.9111,-165.5 1245.3301,-165.5"/>
<text text-anchor="middle" x="1273.6206" y="-171.5" font-family="Helvetica,sans-Serif" font-size="10.00" fill="#000000">context.h</text>
</a>
</g>
</g>
<!-- Node36&#45;&gt;Node37 -->
<g id="edge45" class="edge">
<title>Node36&#45;&gt;Node37</title>
<path fill="none" stroke="#191970" d="M1273.6206,-220.4179C1273.6206,-213.2164 1273.6206,-202.8962 1273.6206,-193.8632"/>
<polygon fill="#191970" stroke="#191970" points="1277.1207,-193.7794 1273.6206,-183.7795 1270.1207,-193.7795 1277.1207,-193.7794"/>
</g>
<!-- Node38 -->
<g id="node39" class="node">
<title>Node38</title>
<g id="a_node39"><a xlink:href="events_2include_2event__id_8h.html" target="_top" xlink:title="event_id.h">
<polygon fill="#ffffff" stroke="#000000" points="1127.5469,-165.5 1127.5469,-183.5 1189.6943,-183.5 1189.6943,-165.5 1127.5469,-165.5"/>
<text text-anchor="middle" x="1158.6206" y="-171.5" font-family="Helvetica,sans-Serif" font-size="10.00" fill="#000000">event_id.h</text>
</a>
</g>
</g>
<!-- Node36&#45;&gt;Node38 -->
<g id="edge47" class="edge">
<title>Node36&#45;&gt;Node38</title>
<path fill="none" stroke="#191970" d="M1254.6307,-220.4179C1236.153,-211.5807 1207.8558,-198.0473 1186.7623,-187.9591"/>
<polygon fill="#191970" stroke="#191970" points="1188.1702,-184.7528 1177.6387,-183.5956 1185.15,-191.0677 1188.1702,-184.7528"/>
</g>
<!-- Node39 -->
<g id="node40" class="node">
<title>Node39</title>
<g id="a_node40"><a xlink:href="events_2include_2event__list_8h.html" target="_top" xlink:title="event_list.h">
<polygon fill="#ffffff" stroke="#000000" points="586.3276,-110.5 586.3276,-128.5 652.9136,-128.5 652.9136,-110.5 586.3276,-110.5"/>
<text text-anchor="middle" x="619.6206" y="-116.5" font-family="Helvetica,sans-Serif" font-size="10.00" fill="#000000">event_list.h</text>
</a>
</g>
</g>
<!-- Node36&#45;&gt;Node39 -->
<g id="edge48" class="edge">
<title>Node36&#45;&gt;Node39</title>
<path fill="none" stroke="#191970" d="M1266.4795,-220.4225C1254.3407,-205.7607 1228.112,-177.2727 1198.6206,-165 1149.6124,-144.6055 789.4586,-126.9762 663.2031,-121.3626"/>
<polygon fill="#191970" stroke="#191970" points="663.2663,-117.8621 653.1218,-120.9179 662.9578,-124.8553 663.2663,-117.8621"/>
</g>
<!-- Node37&#45;&gt;Node1 -->
<g id="edge46" class="edge">
<title>Node37&#45;&gt;Node1</title>
<path fill="none" stroke="#191970" d="M1282.8679,-165.4179C1291.0061,-157.425 1303.0559,-145.5903 1312.884,-135.9377"/>
<polygon fill="#191970" stroke="#191970" points="1315.4904,-138.2836 1320.1724,-128.7795 1310.5854,-133.2895 1315.4904,-138.2836"/>
</g>
<!-- Node39&#45;&gt;Node35 -->
<g id="edge49" class="edge">
<title>Node39&#45;&gt;Node35</title>
<path fill="none" stroke="#191970" d="M586.0524,-117.8125C483.3239,-112.4951 173.38,-95.2771 53.4217,-73.9134"/>
<polygon fill="#191970" stroke="#191970" points="53.9013,-70.4423 43.4269,-72.035 52.6084,-77.3219 53.9013,-70.4423"/>
</g>
</g>
</svg>
