<?xml version="1.0" encoding="UTF-8" standalone="no"?>
<!DOCTYPE svg PUBLIC "-//W3C//DTD SVG 1.1//EN"
 "http://www.w3.org/Graphics/SVG/1.1/DTD/svg11.dtd">
<!-- Generated by graphviz version 2.40.1 (20161225.0304)
 -->
<!-- Title: ext_comps/topo_mgmt/src/include/topo_mgmt.h Pages: 1 -->
<svg width="274pt" height="102pt"
 viewBox="0.00 0.00 274.11 102.00" xmlns="http://www.w3.org/2000/svg" xmlns:xlink="http://www.w3.org/1999/xlink">
<g id="graph0" class="graph" transform="scale(1 1) rotate(0) translate(4 98)">
<title>ext_comps/topo_mgmt/src/include/topo_mgmt.h</title>
<polygon fill="#ffffff" stroke="transparent" points="-4,4 -4,-98 270.1079,-98 270.1079,4 -4,4"/>
<!-- Node41 -->
<g id="node1" class="node">
<title>Node41</title>
<polygon fill="#bfbfbf" stroke="#000000" points="72.6699,-65.5 72.6699,-93.5 200.3887,-93.5 200.3887,-65.5 72.6699,-65.5"/>
<text text-anchor="start" x="80.6699" y="-81.5" font-family="Helvetica,sans-Serif" font-size="10.00" fill="#000000">ext_comps/topo_mgmt</text>
<text text-anchor="middle" x="136.5293" y="-71.5" font-family="Helvetica,sans-Serif" font-size="10.00" fill="#000000">/src/include/topo_mgmt.h</text>
</g>
<!-- Node42 -->
<g id="node2" class="node">
<title>Node42</title>
<g id="a_node2"><a xlink:href="components_2topo__mgmt_8c.html" target="_top" xlink:title="components/topo_mgmt.c">
<polygon fill="#ffffff" stroke="#000000" points="0,-5.5 0,-23.5 131.0586,-23.5 131.0586,-5.5 0,-5.5"/>
<text text-anchor="middle" x="65.5293" y="-11.5" font-family="Helvetica,sans-Serif" font-size="10.00" fill="#000000">components/topo_mgmt.c</text>
</a>
</g>
</g>
<!-- Node41&#45;&gt;Node42 -->
<g id="edge1" class="edge">
<title>Node41&#45;&gt;Node42</title>
<path fill="none" stroke="#191970" d="M113.505,-58.4214C100.6331,-46.6373 85.2542,-32.558 75.4412,-23.5743"/>
<polygon fill="#191970" stroke="#191970" points="111.3841,-61.225 121.1234,-65.396 116.1109,-56.0618 111.3841,-61.225"/>
</g>
<!-- Node43 -->
<g id="node3" class="node">
<title>Node43</title>
<g id="a_node3"><a xlink:href="ext__comps_2topo__mgmt_2src_2topo__mgmt_8c.html" target="_top" xlink:title="ext_comps/topo_mgmt\l/src/topo_mgmt.c">
<polygon fill="#ffffff" stroke="#000000" points="148.9507,-.5 148.9507,-28.5 266.1079,-28.5 266.1079,-.5 148.9507,-.5"/>
<text text-anchor="start" x="156.9507" y="-16.5" font-family="Helvetica,sans-Serif" font-size="10.00" fill="#000000">ext_comps/topo_mgmt</text>
<text text-anchor="middle" x="207.5293" y="-6.5" font-family="Helvetica,sans-Serif" font-size="10.00" fill="#000000">/src/topo_mgmt.c</text>
</a>
</g>
</g>
<!-- Node41&#45;&gt;Node43 -->
<g id="edge2" class="edge">
<title>Node41&#45;&gt;Node43</title>
<path fill="none" stroke="#191970" d="M159.3609,-58.5978C170.0816,-48.7831 182.5764,-37.3442 192.1534,-28.5765"/>
<polygon fill="#191970" stroke="#191970" points="156.9477,-56.0618 151.9352,-65.396 161.6745,-61.225 156.9477,-56.0618"/>
</g>
</g>
</svg>
