<?xml version="1.0" encoding="UTF-8" standalone="no"?>
<!DOCTYPE svg PUBLIC "-//W3C//DTD SVG 1.1//EN"
 "http://www.w3.org/Graphics/SVG/1.1/DTD/svg11.dtd">
<!-- Generated by graphviz version 2.40.1 (20161225.0304)
 -->
<!-- Title: ext_apps/shim/include/shim.h Pages: 1 -->
<svg width="1527pt" height="367pt"
 viewBox="0.00 0.00 1527.25 367.00" xmlns="http://www.w3.org/2000/svg" xmlns:xlink="http://www.w3.org/1999/xlink">
<g id="graph0" class="graph" transform="scale(1 1) rotate(0) translate(4 363)">
<title>ext_apps/shim/include/shim.h</title>
<polygon fill="#ffffff" stroke="transparent" points="-4,4 -4,-363 1523.2485,-363 1523.2485,4 -4,4"/>
<!-- Node0 -->
<g id="node1" class="node">
<title>Node0</title>
<polygon fill="#bfbfbf" stroke="#000000" points="1075.6479,-330.5 1075.6479,-358.5 1190.5933,-358.5 1190.5933,-330.5 1075.6479,-330.5"/>
<text text-anchor="start" x="1083.6479" y="-346.5" font-family="Helvetica,sans-Serif" font-size="10.00" fill="#000000">ext_apps/shim/include</text>
<text text-anchor="middle" x="1133.1206" y="-336.5" font-family="Helvetica,sans-Serif" font-size="10.00" fill="#000000">/shim.h</text>
</g>
<!-- Node1 -->
<g id="node2" class="node">
<title>Node1</title>
<g id="a_node2"><a xlink:href="ext__apps_2shim_2include_2common_8h.html" target="_top" xlink:title="common.h">
<polygon fill="#ffffff" stroke="#000000" points="786.7783,-165.5 786.7783,-183.5 849.4629,-183.5 849.4629,-165.5 786.7783,-165.5"/>
<text text-anchor="middle" x="818.1206" y="-171.5" font-family="Helvetica,sans-Serif" font-size="10.00" fill="#000000">common.h</text>
</a>
</g>
</g>
<!-- Node0&#45;&gt;Node1 -->
<g id="edge1" class="edge">
<title>Node0&#45;&gt;Node1</title>
<path fill="none" stroke="#191970" d="M1075.479,-341.7834C999.1358,-337.0283 870.0509,-324.6019 835.1206,-294 806.9853,-269.3511 809.8205,-220.9774 814.1157,-193.9477"/>
<polygon fill="#191970" stroke="#191970" points="817.615,-194.2664 815.9598,-183.8017 810.7279,-193.0146 817.615,-194.2664"/>
</g>
<!-- Node26 -->
<g id="node27" class="node">
<title>Node26</title>
<g id="a_node27"><a xlink:href="ext__apps_2shim_2include_2app__event_8h.html" target="_top" xlink:title="app_event.h">
<polygon fill="#ffffff" stroke="#000000" points="844.5962,-275.5 844.5962,-293.5 915.645,-293.5 915.645,-275.5 844.5962,-275.5"/>
<text text-anchor="middle" x="880.1206" y="-281.5" font-family="Helvetica,sans-Serif" font-size="10.00" fill="#000000">app_event.h</text>
</a>
</g>
</g>
<!-- Node0&#45;&gt;Node26 -->
<g id="edge48" class="edge">
<title>Node0&#45;&gt;Node26</title>
<path fill="none" stroke="#191970" d="M1075.3944,-330.81C1029.9898,-320.0421 967.6018,-305.2465 925.6725,-295.3028"/>
<polygon fill="#191970" stroke="#191970" points="926.277,-291.8492 915.7392,-292.9471 924.6617,-298.6603 926.277,-291.8492"/>
</g>
<!-- Node30 -->
<g id="node31" class="node">
<title>Node30</title>
<g id="a_node31"><a xlink:href="ext__apps_2shim_2include_2application_8h.html" target="_top" xlink:title="application.h">
<polygon fill="#ffffff" stroke="#000000" points="1014.0444,-220.5 1014.0444,-238.5 1086.1968,-238.5 1086.1968,-220.5 1014.0444,-220.5"/>
<text text-anchor="middle" x="1050.1206" y="-226.5" font-family="Helvetica,sans-Serif" font-size="10.00" fill="#000000">application.h</text>
</a>
</g>
</g>
<!-- Node0&#45;&gt;Node30 -->
<g id="edge55" class="edge">
<title>Node0&#45;&gt;Node30</title>
<path fill="none" stroke="#191970" d="M1122.9432,-330.3987C1107.7336,-309.3252 1079.1042,-269.6581 1062.6365,-246.8413"/>
<polygon fill="#191970" stroke="#191970" points="1065.4717,-244.789 1056.7813,-238.7286 1059.7956,-248.8856 1065.4717,-244.789"/>
</g>
<!-- Node31 -->
<g id="node32" class="node">
<title>Node31</title>
<polygon fill="#ffffff" stroke="#bfbfbf" points="1180.1528,-275.5 1180.1528,-293.5 1270.0884,-293.5 1270.0884,-275.5 1180.1528,-275.5"/>
<text text-anchor="middle" x="1225.1206" y="-281.5" font-family="Helvetica,sans-Serif" font-size="10.00" fill="#000000">application_list.h</text>
</g>
<!-- Node0&#45;&gt;Node31 -->
<g id="edge57" class="edge">
<title>Node0&#45;&gt;Node31</title>
<path fill="none" stroke="#191970" d="M1154.9233,-330.2808C1169.3564,-320.868 1188.2324,-308.5575 1202.7751,-299.0732"/>
<polygon fill="#191970" stroke="#191970" points="1204.7273,-301.9786 1211.1915,-293.5842 1200.9034,-296.1153 1204.7273,-301.9786"/>
</g>
<!-- Node32 -->
<g id="node33" class="node">
<title>Node32</title>
<g id="a_node33"><a xlink:href="application__info_8h.html" target="_top" xlink:title="application_info.h">
<polygon fill="#ffffff" stroke="#000000" points="1288.2021,-275.5 1288.2021,-293.5 1382.0391,-293.5 1382.0391,-275.5 1288.2021,-275.5"/>
<text text-anchor="middle" x="1335.1206" y="-281.5" font-family="Helvetica,sans-Serif" font-size="10.00" fill="#000000">application_info.h</text>
</a>
</g>
</g>
<!-- Node0&#45;&gt;Node32 -->
<g id="edge58" class="edge">
<title>Node0&#45;&gt;Node32</title>
<path fill="none" stroke="#191970" d="M1180.4806,-330.4327C1215.2491,-320.1054 1261.9645,-306.2295 1294.9221,-296.4402"/>
<polygon fill="#191970" stroke="#191970" points="1296.0907,-299.7443 1304.6801,-293.5417 1294.0975,-293.034 1296.0907,-299.7443"/>
</g>
<!-- Node33 -->
<g id="node34" class="node">
<title>Node33</title>
<g id="a_node34"><a xlink:href="str_8h.html" target="_top" xlink:title="str.h">
<polygon fill="#ffffff" stroke="#000000" points="1154.6699,-165.5 1154.6699,-183.5 1189.5713,-183.5 1189.5713,-165.5 1154.6699,-165.5"/>
<text text-anchor="middle" x="1172.1206" y="-171.5" font-family="Helvetica,sans-Serif" font-size="10.00" fill="#000000">str.h</text>
</a>
</g>
</g>
<!-- Node0&#45;&gt;Node33 -->
<g id="edge59" class="edge">
<title>Node0&#45;&gt;Node33</title>
<path fill="none" stroke="#191970" d="M1136.3786,-330.2983C1143.3828,-299.7672 1159.8771,-227.8692 1167.7674,-193.4756"/>
<polygon fill="#191970" stroke="#191970" points="1171.1792,-194.2561 1170.0039,-183.7266 1164.3564,-192.6908 1171.1792,-194.2561"/>
</g>
<!-- Node34 -->
<g id="node35" class="node">
<title>Node34</title>
<g id="a_node35"><a xlink:href="hash_8h.html" target="_top" xlink:title="hash.h">
<polygon fill="#ffffff" stroke="#000000" points="1091.1084,-165.5 1091.1084,-183.5 1137.1328,-183.5 1137.1328,-165.5 1091.1084,-165.5"/>
<text text-anchor="middle" x="1114.1206" y="-171.5" font-family="Helvetica,sans-Serif" font-size="10.00" fill="#000000">hash.h</text>
</a>
</g>
</g>
<!-- Node0&#45;&gt;Node34 -->
<g id="edge61" class="edge">
<title>Node0&#45;&gt;Node34</title>
<path fill="none" stroke="#191970" d="M1131.5334,-330.2983C1128.1358,-299.8994 1120.1549,-228.4909 1116.2916,-193.9244"/>
<polygon fill="#191970" stroke="#191970" points="1119.741,-193.276 1115.1518,-183.7266 1112.7843,-194.0535 1119.741,-193.276"/>
</g>
<!-- Node35 -->
<g id="node36" class="node">
<title>Node35</title>
<polygon fill="#ffffff" stroke="#bfbfbf" points="1399.8867,-275.5 1399.8867,-293.5 1450.3545,-293.5 1450.3545,-275.5 1399.8867,-275.5"/>
<text text-anchor="middle" x="1425.1206" y="-281.5" font-family="Helvetica,sans-Serif" font-size="10.00" fill="#000000">signal.h</text>
</g>
<!-- Node0&#45;&gt;Node35 -->
<g id="edge63" class="edge">
<title>Node0&#45;&gt;Node35</title>
<path fill="none" stroke="#191970" d="M1190.7849,-334.5629C1241.0026,-325.6032 1315.95,-311.498 1389.6414,-294.2225"/>
<polygon fill="#191970" stroke="#191970" points="1390.6316,-297.5849 1399.5572,-291.8766 1389.02,-290.7729 1390.6316,-297.5849"/>
</g>
<!-- Node2 -->
<g id="node3" class="node">
<title>Node2</title>
<polygon fill="#ffffff" stroke="#bfbfbf" points="1330.3892,-.5 1330.3892,-18.5 1375.8521,-18.5 1375.8521,-.5 1330.3892,-.5"/>
<text text-anchor="middle" x="1353.1206" y="-6.5" font-family="Helvetica,sans-Serif" font-size="10.00" fill="#000000">stdio.h</text>
</g>
<!-- Node1&#45;&gt;Node2 -->
<g id="edge2" class="edge">
<title>Node1&#45;&gt;Node2</title>
<path fill="none" stroke="#191970" d="M849.6099,-172.1597C901.823,-167.6602 1009.1843,-155.7722 1096.1206,-129 1185.4962,-101.4766 1283.8147,-48.9565 1328.5374,-23.7246"/>
<polygon fill="#191970" stroke="#191970" points="1330.5296,-26.6181 1337.4917,-18.6318 1327.0689,-20.5333 1330.5296,-26.6181"/>
</g>
<!-- Node3 -->
<g id="node4" class="node">
<title>Node3</title>
<polygon fill="#ffffff" stroke="#bfbfbf" points="748.6084,-.5 748.6084,-18.5 799.6328,-18.5 799.6328,-.5 748.6084,-.5"/>
<text text-anchor="middle" x="774.1206" y="-6.5" font-family="Helvetica,sans-Serif" font-size="10.00" fill="#000000">unistd.h</text>
</g>
<!-- Node1&#45;&gt;Node3 -->
<g id="edge3" class="edge">
<title>Node1&#45;&gt;Node3</title>
<path fill="none" stroke="#191970" d="M815.6289,-165.1561C808.6407,-138.9504 788.7488,-64.3557 779.2678,-28.8021"/>
<polygon fill="#191970" stroke="#191970" points="782.5435,-27.5019 776.585,-18.7414 775.7799,-29.3056 782.5435,-27.5019"/>
</g>
<!-- Node4 -->
<g id="node5" class="node">
<title>Node4</title>
<polygon fill="#ffffff" stroke="#bfbfbf" points="817.2783,-.5 817.2783,-18.5 864.9629,-18.5 864.9629,-.5 817.2783,-.5"/>
<text text-anchor="middle" x="841.1206" y="-6.5" font-family="Helvetica,sans-Serif" font-size="10.00" fill="#000000">stdlib.h</text>
</g>
<!-- Node1&#45;&gt;Node4 -->
<g id="edge4" class="edge">
<title>Node1&#45;&gt;Node4</title>
<path fill="none" stroke="#191970" d="M819.4231,-165.1561C823.076,-138.9504 833.4741,-64.3557 838.43,-28.8021"/>
<polygon fill="#191970" stroke="#191970" points="841.9182,-29.1289 839.8324,-18.7414 834.9853,-28.1624 841.9182,-29.1289"/>
</g>
<!-- Node5 -->
<g id="node6" class="node">
<title>Node5</title>
<polygon fill="#ffffff" stroke="#bfbfbf" points="1393.7241,-.5 1393.7241,-18.5 1442.5171,-18.5 1442.5171,-.5 1393.7241,-.5"/>
<text text-anchor="middle" x="1418.1206" y="-6.5" font-family="Helvetica,sans-Serif" font-size="10.00" fill="#000000">string.h</text>
</g>
<!-- Node1&#45;&gt;Node5 -->
<g id="edge5" class="edge">
<title>Node1&#45;&gt;Node5</title>
<path fill="none" stroke="#191970" d="M849.8194,-172.6833C907.6541,-168.7736 1033.7684,-157.4886 1136.1206,-129 1234.3294,-101.6646 1343.6014,-48.2503 1392.2854,-23.1493"/>
<polygon fill="#191970" stroke="#191970" points="1393.932,-26.238 1401.1931,-18.5227 1390.7055,-20.026 1393.932,-26.238"/>
</g>
<!-- Node6 -->
<g id="node7" class="node">
<title>Node6</title>
<polygon fill="#ffffff" stroke="#bfbfbf" points="1072.0542,-.5 1072.0542,-18.5 1124.187,-18.5 1124.187,-.5 1072.0542,-.5"/>
<text text-anchor="middle" x="1098.1206" y="-6.5" font-family="Helvetica,sans-Serif" font-size="10.00" fill="#000000">stdarg.h</text>
</g>
<!-- Node1&#45;&gt;Node6 -->
<g id="edge6" class="edge">
<title>Node1&#45;&gt;Node6</title>
<path fill="none" stroke="#191970" d="M849.4671,-169.4984C881.0977,-163.4511 930.5082,-151.2042 968.1206,-129 1008.7187,-105.0332 1009.1827,-86.6538 1044.1206,-55 1055.4471,-44.7381 1068.5487,-33.6801 1079.0102,-25.0352"/>
<polygon fill="#191970" stroke="#191970" points="1081.2419,-27.7315 1086.7497,-18.6809 1076.8,-22.3214 1081.2419,-27.7315"/>
</g>
<!-- Node7 -->
<g id="node8" class="node">
<title>Node7</title>
<polygon fill="#ffffff" stroke="#bfbfbf" points="1142,-.5 1142,-18.5 1190.2412,-18.5 1190.2412,-.5 1142,-.5"/>
<text text-anchor="middle" x="1166.1206" y="-6.5" font-family="Helvetica,sans-Serif" font-size="10.00" fill="#000000">stdint.h</text>
</g>
<!-- Node1&#45;&gt;Node7 -->
<g id="edge7" class="edge">
<title>Node1&#45;&gt;Node7</title>
<path fill="none" stroke="#191970" d="M849.7108,-170.7627C886.3581,-165.4598 947.797,-153.5303 995.1206,-129 1040.188,-105.6393 1040.2428,-83.6886 1082.1206,-55 1099.7348,-42.9333 1120.8754,-31.4966 1137.5415,-23.1077"/>
<polygon fill="#191970" stroke="#191970" points="1139.3656,-26.1103 1146.7768,-18.539 1136.2617,-19.8361 1139.3656,-26.1103"/>
</g>
<!-- Node8 -->
<g id="node9" class="node">
<title>Node8</title>
<polygon fill="#ffffff" stroke="#bfbfbf" points="1460.9927,-.5 1460.9927,-18.5 1519.2485,-18.5 1519.2485,-.5 1460.9927,-.5"/>
<text text-anchor="middle" x="1490.1206" y="-6.5" font-family="Helvetica,sans-Serif" font-size="10.00" fill="#000000">pthread.h</text>
</g>
<!-- Node1&#45;&gt;Node8 -->
<g id="edge8" class="edge">
<title>Node1&#45;&gt;Node8</title>
<path fill="none" stroke="#191970" d="M849.8906,-173.045C913.21,-169.5871 1059.2724,-158.8094 1178.1206,-129 1286.4332,-101.8331 1408.2864,-47.9448 1462.0598,-22.8891"/>
<polygon fill="#191970" stroke="#191970" points="1463.7228,-25.975 1471.2896,-18.5591 1460.7498,-19.6377 1463.7228,-25.975"/>
</g>
<!-- Node9 -->
<g id="node10" class="node">
<title>Node9</title>
<polygon fill="#ffffff" stroke="#bfbfbf" points="0,-.5 0,-18.5 48.2412,-18.5 48.2412,-.5 0,-.5"/>
<text text-anchor="middle" x="24.1206" y="-6.5" font-family="Helvetica,sans-Serif" font-size="10.00" fill="#000000">ctype.h</text>
</g>
<!-- Node1&#45;&gt;Node9 -->
<g id="edge9" class="edge">
<title>Node1&#45;&gt;Node9</title>
<path fill="none" stroke="#191970" d="M786.5491,-169.7093C736.1916,-161.9446 634.6409,-145.7809 549.1206,-129 332.469,-86.4884 275.8607,-74.8034 58.3907,-19.2283"/>
<polygon fill="#191970" stroke="#191970" points="59.1395,-15.8073 48.5841,-16.7204 57.4051,-22.589 59.1395,-15.8073"/>
</g>
<!-- Node10 -->
<g id="node11" class="node">
<title>Node10</title>
<polygon fill="#ffffff" stroke="#bfbfbf" points="66.2783,-.5 66.2783,-18.5 113.9629,-18.5 113.9629,-.5 66.2783,-.5"/>
<text text-anchor="middle" x="90.1206" y="-6.5" font-family="Helvetica,sans-Serif" font-size="10.00" fill="#000000">errno.h</text>
</g>
<!-- Node1&#45;&gt;Node10 -->
<g id="edge10" class="edge">
<title>Node1&#45;&gt;Node10</title>
<path fill="none" stroke="#191970" d="M786.6593,-171.7892C740.9968,-167.0981 654.2634,-155.3168 585.1206,-129 554.9516,-117.5172 490.7591,-65.1639 460.1206,-55 319.8133,-8.455 272.3018,-46.8918 124.0294,-19.0652"/>
<polygon fill="#191970" stroke="#191970" points="124.5998,-15.6106 114.1152,-17.1349 123.262,-22.4816 124.5998,-15.6106"/>
</g>
<!-- Node11 -->
<g id="node12" class="node">
<title>Node11</title>
<polygon fill="#ffffff" stroke="#bfbfbf" points="131.4927,-.5 131.4927,-18.5 194.7485,-18.5 194.7485,-.5 131.4927,-.5"/>
<text text-anchor="middle" x="163.1206" y="-6.5" font-family="Helvetica,sans-Serif" font-size="10.00" fill="#000000">arpa/inet.h</text>
</g>
<!-- Node1&#45;&gt;Node11 -->
<g id="edge11" class="edge">
<title>Node1&#45;&gt;Node11</title>
<path fill="none" stroke="#191970" d="M786.4878,-170.3295C746.7808,-164.3938 677.092,-151.6352 621.1206,-129 591.5485,-117.0408 528.2803,-65.3887 498.1206,-55 376.6937,-13.1737 335.7565,-40.4797 204.8372,-18.9111"/>
<polygon fill="#191970" stroke="#191970" points="205.284,-15.4368 194.8367,-17.1982 204.1022,-22.3363 205.284,-15.4368"/>
</g>
<!-- Node12 -->
<g id="node13" class="node">
<title>Node12</title>
<polygon fill="#ffffff" stroke="#bfbfbf" points="212.6577,-.5 212.6577,-18.5 277.5835,-18.5 277.5835,-.5 212.6577,-.5"/>
<text text-anchor="middle" x="245.1206" y="-6.5" font-family="Helvetica,sans-Serif" font-size="10.00" fill="#000000">netinet/in.h</text>
</g>
<!-- Node1&#45;&gt;Node12 -->
<g id="edge12" class="edge">
<title>Node1&#45;&gt;Node12</title>
<path fill="none" stroke="#191970" d="M786.572,-168.4806C753.0544,-161.452 698.9597,-148.2769 655.1206,-129 626.6143,-116.4653 565.3766,-65.6684 536.1206,-55 433.6435,-17.6308 398.4493,-38.4267 287.628,-19.1143"/>
<polygon fill="#191970" stroke="#191970" points="288.206,-15.6621 277.7419,-17.321 286.9566,-22.5497 288.206,-15.6621"/>
</g>
<!-- Node13 -->
<g id="node14" class="node">
<title>Node13</title>
<polygon fill="#ffffff" stroke="#bfbfbf" points="295.2637,-.5 295.2637,-18.5 372.9775,-18.5 372.9775,-.5 295.2637,-.5"/>
<text text-anchor="middle" x="334.1206" y="-6.5" font-family="Helvetica,sans-Serif" font-size="10.00" fill="#000000">net/ethernet.h</text>
</g>
<!-- Node1&#45;&gt;Node13 -->
<g id="edge13" class="edge">
<title>Node1&#45;&gt;Node13</title>
<path fill="none" stroke="#191970" d="M786.5402,-165.6164C759.902,-157.5966 721.1118,-144.6685 689.1206,-129 634.5372,-102.2665 630.5958,-77.4628 574.1206,-55 496.3623,-24.0719 469.3281,-34.5821 383.0997,-19.111"/>
<polygon fill="#191970" stroke="#191970" points="383.6186,-15.6475 373.1469,-17.258 382.3373,-22.5293 383.6186,-15.6475"/>
</g>
<!-- Node14 -->
<g id="node15" class="node">
<title>Node14</title>
<polygon fill="#ffffff" stroke="#bfbfbf" points="390.6577,-.5 390.6577,-18.5 455.5835,-18.5 455.5835,-.5 390.6577,-.5"/>
<text text-anchor="middle" x="423.1206" y="-6.5" font-family="Helvetica,sans-Serif" font-size="10.00" fill="#000000">netinet/ip.h</text>
</g>
<!-- Node1&#45;&gt;Node14 -->
<g id="edge14" class="edge">
<title>Node1&#45;&gt;Node14</title>
<path fill="none" stroke="#191970" d="M796.0508,-165.3356C776.0604,-156.7583 746.015,-143.1714 721.1206,-129 670.2343,-100.0323 665.6726,-78.6798 612.1206,-55 605.3604,-52.0108 519.3238,-31.8005 465.6919,-19.3417"/>
<polygon fill="#191970" stroke="#191970" points="466.2883,-15.8872 455.756,-17.0362 464.706,-22.7061 466.2883,-15.8872"/>
</g>
<!-- Node15 -->
<g id="node16" class="node">
<title>Node15</title>
<polygon fill="#ffffff" stroke="#bfbfbf" points="473.8794,-.5 473.8794,-18.5 544.3618,-18.5 544.3618,-.5 473.8794,-.5"/>
<text text-anchor="middle" x="509.1206" y="-6.5" font-family="Helvetica,sans-Serif" font-size="10.00" fill="#000000">netinet/tcp.h</text>
</g>
<!-- Node1&#45;&gt;Node15 -->
<g id="edge15" class="edge">
<title>Node1&#45;&gt;Node15</title>
<path fill="none" stroke="#191970" d="M803.6832,-165.3314C789.6074,-156.3102 767.6719,-142.0329 749.1206,-129 704.171,-97.4213 698.9218,-80.2215 650.1206,-55 619.7969,-39.3281 583.0231,-27.6776 554.6346,-20.0906"/>
<polygon fill="#191970" stroke="#191970" points="555.1413,-16.6062 544.5825,-17.4793 553.3812,-23.3813 555.1413,-16.6062"/>
</g>
<!-- Node16 -->
<g id="node17" class="node">
<title>Node16</title>
<polygon fill="#ffffff" stroke="#bfbfbf" points="562.3203,-.5 562.3203,-18.5 653.9209,-18.5 653.9209,-.5 562.3203,-.5"/>
<text text-anchor="middle" x="608.1206" y="-6.5" font-family="Helvetica,sans-Serif" font-size="10.00" fill="#000000">netinet/ip_icmp.h</text>
</g>
<!-- Node1&#45;&gt;Node16 -->
<g id="edge16" class="edge">
<title>Node1&#45;&gt;Node16</title>
<path fill="none" stroke="#191970" d="M808.8401,-165.4536C783.6,-140.9347 713.8781,-73.7893 688.1206,-55 671.6581,-42.9911 651.7441,-31.6553 635.9029,-23.3022"/>
<polygon fill="#191970" stroke="#191970" points="637.1233,-19.993 626.6331,-18.5074 633.9072,-26.2105 637.1233,-19.993"/>
</g>
<!-- Node17 -->
<g id="node18" class="node">
<title>Node17</title>
<polygon fill="#ffffff" stroke="#bfbfbf" points="671.7168,-.5 671.7168,-18.5 730.5244,-18.5 730.5244,-.5 671.7168,-.5"/>
<text text-anchor="middle" x="701.1206" y="-6.5" font-family="Helvetica,sans-Serif" font-size="10.00" fill="#000000">jansson.h</text>
</g>
<!-- Node1&#45;&gt;Node17 -->
<g id="edge17" class="edge">
<title>Node1&#45;&gt;Node17</title>
<path fill="none" stroke="#191970" d="M811.4949,-165.1561C792.591,-138.4967 738.1762,-61.7578 713.5231,-26.9907"/>
<polygon fill="#191970" stroke="#191970" points="716.313,-24.8742 707.6736,-18.7414 710.6029,-28.9233 716.313,-24.8742"/>
</g>
<!-- Node18 -->
<g id="node19" class="node">
<title>Node18</title>
<polygon fill="#ffffff" stroke="#bfbfbf" points="1010.2266,-.5 1010.2266,-18.5 1054.0146,-18.5 1054.0146,-.5 1010.2266,-.5"/>
<text text-anchor="middle" x="1032.1206" y="-6.5" font-family="Helvetica,sans-Serif" font-size="10.00" fill="#000000">libcli.h</text>
</g>
<!-- Node1&#45;&gt;Node18 -->
<g id="edge18" class="edge">
<title>Node1&#45;&gt;Node18</title>
<path fill="none" stroke="#191970" d="M849.5925,-168.7003C876.9359,-162.4574 916.5312,-150.409 945.1206,-129 964.3973,-114.5648 1002.1722,-57.063 1020.9598,-27.4026"/>
<polygon fill="#191970" stroke="#191970" points="1023.9834,-29.1692 1026.3449,-18.8408 1018.058,-25.4422 1023.9834,-29.1692"/>
</g>
<!-- Node19 -->
<g id="node20" class="node">
<title>Node19</title>
<polygon fill="#ffffff" stroke="#bfbfbf" points="1208.5049,-.5 1208.5049,-18.5 1251.7363,-18.5 1251.7363,-.5 1208.5049,-.5"/>
<text text-anchor="middle" x="1230.1206" y="-6.5" font-family="Helvetica,sans-Serif" font-size="10.00" fill="#000000">zmq.h</text>
</g>
<!-- Node1&#45;&gt;Node19 -->
<g id="edge19" class="edge">
<title>Node1&#45;&gt;Node19</title>
<path fill="none" stroke="#191970" d="M849.7099,-170.6069C890.9126,-164.8412 964.7394,-152.1357 1024.1206,-129 1096.2166,-100.9105 1172.9895,-50.0296 1209.0742,-24.6898"/>
<polygon fill="#191970" stroke="#191970" points="1211.2102,-27.4658 1217.3441,-18.8272 1207.1619,-21.7552 1211.2102,-27.4658"/>
</g>
<!-- Node20 -->
<g id="node21" class="node">
<title>Node20</title>
<g id="a_node21"><a xlink:href="mac2int_8h.html" target="_top" xlink:title="mac2int.h">
<polygon fill="#ffffff" stroke="#000000" points="855.4434,-110.5 855.4434,-128.5 914.7979,-128.5 914.7979,-110.5 855.4434,-110.5"/>
<text text-anchor="middle" x="885.1206" y="-116.5" font-family="Helvetica,sans-Serif" font-size="10.00" fill="#000000">mac2int.h</text>
</a>
</g>
</g>
<!-- Node1&#45;&gt;Node20 -->
<g id="edge20" class="edge">
<title>Node1&#45;&gt;Node20</title>
<path fill="none" stroke="#191970" d="M829.1843,-165.4179C839.1139,-157.2667 853.9106,-145.1201 865.7918,-135.3669"/>
<polygon fill="#191970" stroke="#191970" points="868.308,-137.8297 873.8165,-128.7795 863.8665,-132.4192 868.308,-137.8297"/>
</g>
<!-- Node22 -->
<g id="node23" class="node">
<title>Node22</title>
<g id="a_node23"><a xlink:href="ip2int_8h.html" target="_top" xlink:title="ip2int.h">
<polygon fill="#ffffff" stroke="#000000" points="943.9976,-.5 943.9976,-18.5 992.2437,-18.5 992.2437,-.5 943.9976,-.5"/>
<text text-anchor="middle" x="968.1206" y="-6.5" font-family="Helvetica,sans-Serif" font-size="10.00" fill="#000000">ip2int.h</text>
</a>
</g>
</g>
<!-- Node1&#45;&gt;Node22 -->
<g id="edge45" class="edge">
<title>Node1&#45;&gt;Node22</title>
<path fill="none" stroke="#191970" d="M849.8379,-168.0069C873.2148,-161.7028 904.2729,-149.9215 924.1206,-129 951.027,-100.6379 961.7562,-54.4403 965.819,-28.5796"/>
<polygon fill="#191970" stroke="#191970" points="969.3017,-28.9459 967.2155,-18.5585 962.3687,-27.9797 969.3017,-28.9459"/>
</g>
<!-- Node24 -->
<g id="node25" class="node">
<title>Node24</title>
<polygon fill="#ffffff" stroke="#bfbfbf" points="1269.5049,-.5 1269.5049,-18.5 1312.7363,-18.5 1312.7363,-.5 1269.5049,-.5"/>
<text text-anchor="middle" x="1291.1206" y="-6.5" font-family="Helvetica,sans-Serif" font-size="10.00" fill="#000000">time.h</text>
</g>
<!-- Node1&#45;&gt;Node24 -->
<g id="edge47" class="edge">
<title>Node1&#45;&gt;Node24</title>
<path fill="none" stroke="#191970" d="M849.677,-171.4815C896.4406,-166.3576 986.4397,-153.9862 1059.1206,-129 1140.2096,-101.1233 1228.2012,-49.1521 1268.5705,-23.9478"/>
<polygon fill="#191970" stroke="#191970" points="1270.5146,-26.8597 1277.1115,-18.5693 1266.7845,-20.9364 1270.5146,-26.8597"/>
</g>
<!-- Node25 -->
<g id="node26" class="node">
<title>Node25</title>
<g id="a_node26"><a xlink:href="ext__apps_2shim_2include_2type_8h.html" target="_top" xlink:title="type.h">
<polygon fill="#ffffff" stroke="#000000" points="374.5,-110.5 374.5,-128.5 417.7412,-128.5 417.7412,-110.5 374.5,-110.5"/>
<text text-anchor="middle" x="396.1206" y="-116.5" font-family="Helvetica,sans-Serif" font-size="10.00" fill="#000000">type.h</text>
</a>
</g>
</g>
<!-- Node1&#45;&gt;Node25 -->
<g id="edge46" class="edge">
<title>Node1&#45;&gt;Node25</title>
<path fill="none" stroke="#191970" d="M786.6217,-172.2968C720.4972,-167.3414 562.5522,-153.7697 432.1206,-129 430.8346,-128.7558 429.5269,-128.4908 428.2088,-128.2098"/>
<polygon fill="#191970" stroke="#191970" points="428.6298,-124.713 418.0932,-125.8226 427.022,-131.5259 428.6298,-124.713"/>
</g>
<!-- Node21 -->
<g id="node22" class="node">
<title>Node21</title>
<g id="a_node22"><a xlink:href="src_2include_2common_8h.html" target="_top" xlink:title="common.h">
<polygon fill="#ffffff" stroke="#000000" points="853.7783,-55.5 853.7783,-73.5 916.4629,-73.5 916.4629,-55.5 853.7783,-55.5"/>
<text text-anchor="middle" x="885.1206" y="-61.5" font-family="Helvetica,sans-Serif" font-size="10.00" fill="#000000">common.h</text>
</a>
</g>
</g>
<!-- Node20&#45;&gt;Node21 -->
<g id="edge21" class="edge">
<title>Node20&#45;&gt;Node21</title>
<path fill="none" stroke="#191970" d="M879.9543,-110.4179C878.4627,-103.2164 878.0248,-92.8962 878.6404,-83.8632"/>
<polygon fill="#191970" stroke="#191970" points="882.1332,-84.1392 879.9138,-73.7795 875.1884,-83.2621 882.1332,-84.1392"/>
</g>
<!-- Node21&#45;&gt;Node2 -->
<g id="edge22" class="edge">
<title>Node21&#45;&gt;Node2</title>
<path fill="none" stroke="#191970" d="M916.7006,-63.3076C987.523,-60.1889 1164.4289,-49.9216 1320.0096,-19.1162"/>
<polygon fill="#191970" stroke="#191970" points="1321.1139,-22.4641 1330.2252,-17.0573 1319.7308,-15.6021 1321.1139,-22.4641"/>
</g>
<!-- Node21&#45;&gt;Node3 -->
<g id="edge23" class="edge">
<title>Node21&#45;&gt;Node3</title>
<path fill="none" stroke="#191970" d="M866.7912,-55.4179C849.0365,-46.6205 821.8892,-33.1691 801.559,-23.0956"/>
<polygon fill="#191970" stroke="#191970" points="802.9916,-19.8994 792.4772,-18.5956 799.8836,-26.1716 802.9916,-19.8994"/>
</g>
<!-- Node21&#45;&gt;Node4 -->
<g id="edge24" class="edge">
<title>Node21&#45;&gt;Node4</title>
<path fill="none" stroke="#191970" d="M877.8549,-55.4179C871.6505,-47.6624 862.5526,-36.29 854.9634,-26.8035"/>
<polygon fill="#191970" stroke="#191970" points="857.5242,-24.4017 848.5442,-18.7795 852.0581,-28.7746 857.5242,-24.4017"/>
</g>
<!-- Node21&#45;&gt;Node5 -->
<g id="edge25" class="edge">
<title>Node21&#45;&gt;Node5</title>
<path fill="none" stroke="#191970" d="M916.7051,-63.6997C994.6598,-61.2855 1202.4526,-52.1778 1383.4152,-19.0233"/>
<polygon fill="#191970" stroke="#191970" points="1384.1851,-22.4402 1393.3754,-17.1688 1382.9037,-15.5585 1384.1851,-22.4402"/>
</g>
<!-- Node21&#45;&gt;Node6 -->
<g id="edge26" class="edge">
<title>Node21&#45;&gt;Node6</title>
<path fill="none" stroke="#191970" d="M916.6677,-56.5858C950.3292,-48.1082 1005.4687,-34.1277 1061.9469,-19.2841"/>
<polygon fill="#191970" stroke="#191970" points="1062.9796,-22.6316 1071.7585,-16.7002 1061.1969,-15.8624 1062.9796,-22.6316"/>
</g>
<!-- Node21&#45;&gt;Node7 -->
<g id="edge27" class="edge">
<title>Node21&#45;&gt;Node7</title>
<path fill="none" stroke="#191970" d="M916.6463,-59.7408C962.1525,-52.6492 1049.0458,-38.2797 1131.8674,-19.1241"/>
<polygon fill="#191970" stroke="#191970" points="1132.7441,-22.5136 1141.6831,-16.8264 1131.1486,-15.6978 1132.7441,-22.5136"/>
</g>
<!-- Node21&#45;&gt;Node8 -->
<g id="edge28" class="edge">
<title>Node21&#45;&gt;Node8</title>
<path fill="none" stroke="#191970" d="M916.6224,-63.7194C1001.3982,-61.248 1241.5027,-51.8054 1450.8881,-18.7535"/>
<polygon fill="#191970" stroke="#191970" points="1451.5136,-22.1981 1460.8349,-17.1617 1450.4074,-15.286 1451.5136,-22.1981"/>
</g>
<!-- Node21&#45;&gt;Node9 -->
<g id="edge29" class="edge">
<title>Node21&#45;&gt;Node9</title>
<path fill="none" stroke="#191970" d="M853.5223,-63.7161C724.2171,-60.3643 234.3446,-46.2251 58.6099,-18.8308"/>
<polygon fill="#191970" stroke="#191970" points="58.9205,-15.3352 48.4871,-17.1779 57.7924,-22.2437 58.9205,-15.3352"/>
</g>
<!-- Node21&#45;&gt;Node10 -->
<g id="edge30" class="edge">
<title>Node21&#45;&gt;Node10</title>
<path fill="none" stroke="#191970" d="M853.4853,-63.5796C730.8355,-59.865 285.9052,-44.9974 124.3193,-18.9873"/>
<polygon fill="#191970" stroke="#191970" points="124.5357,-15.4743 114.0921,-17.258 123.3686,-22.3763 124.5357,-15.4743"/>
</g>
<!-- Node21&#45;&gt;Node11 -->
<g id="edge31" class="edge">
<title>Node21&#45;&gt;Node11</title>
<path fill="none" stroke="#191970" d="M853.7054,-64.195C757.8427,-62.8862 460.587,-56.0286 205.0279,-18.8784"/>
<polygon fill="#191970" stroke="#191970" points="205.2115,-15.3678 194.8082,-17.3732 204.1915,-22.2931 205.2115,-15.3678"/>
</g>
<!-- Node21&#45;&gt;Node12 -->
<g id="edge32" class="edge">
<title>Node21&#45;&gt;Node12</title>
<path fill="none" stroke="#191970" d="M853.7513,-63.7942C765.8335,-61.4616 509.5062,-52.236 287.9003,-19.0674"/>
<polygon fill="#191970" stroke="#191970" points="288.1197,-15.5608 277.7078,-17.5211 287.0696,-22.4816 288.1197,-15.5608"/>
</g>
<!-- Node21&#45;&gt;Node13 -->
<g id="edge33" class="edge">
<title>Node21&#45;&gt;Node13</title>
<path fill="none" stroke="#191970" d="M853.4988,-62.7984C775.4199,-58.3503 567.0998,-44.9828 383.2183,-19.0159"/>
<polygon fill="#191970" stroke="#191970" points="383.489,-15.5191 373.0945,-17.5698 382.4991,-22.4488 383.489,-15.5191"/>
</g>
<!-- Node21&#45;&gt;Node14 -->
<g id="edge34" class="edge">
<title>Node21&#45;&gt;Node14</title>
<path fill="none" stroke="#191970" d="M853.6036,-62.326C784.9654,-57.3264 616.7047,-43.6346 465.5384,-18.881"/>
<polygon fill="#191970" stroke="#191970" points="466.0452,-15.4173 455.6073,-17.2345 464.9002,-22.323 466.0452,-15.4173"/>
</g>
<!-- Node21&#45;&gt;Node15 -->
<g id="edge35" class="edge">
<title>Node21&#45;&gt;Node15</title>
<path fill="none" stroke="#191970" d="M853.4094,-60.9724C795.8649,-54.3949 670.2221,-39.2256 554.6904,-19.1732"/>
<polygon fill="#191970" stroke="#191970" points="555.0704,-15.6865 544.6163,-17.4075 553.8619,-22.5814 555.0704,-15.6865"/>
</g>
<!-- Node21&#45;&gt;Node16 -->
<g id="edge36" class="edge">
<title>Node21&#45;&gt;Node16</title>
<path fill="none" stroke="#191970" d="M853.6149,-58.2443C807.4649,-49.081 720.7905,-31.8713 663.7591,-20.5473"/>
<polygon fill="#191970" stroke="#191970" points="664.3123,-17.0889 653.8221,-18.5743 662.949,-23.9549 664.3123,-17.0889"/>
</g>
<!-- Node21&#45;&gt;Node17 -->
<g id="edge37" class="edge">
<title>Node21&#45;&gt;Node17</title>
<path fill="none" stroke="#191970" d="M854.7367,-55.4179C823.4288,-46.0595 774.5019,-31.4346 740.3018,-21.2118"/>
<polygon fill="#191970" stroke="#191970" points="741.2191,-17.833 730.6355,-18.3224 739.2143,-24.5398 741.2191,-17.833"/>
</g>
<!-- Node21&#45;&gt;Node18 -->
<g id="edge38" class="edge">
<title>Node21&#45;&gt;Node18</title>
<path fill="none" stroke="#191970" d="M909.3947,-55.4179C934.3787,-46.0701 973.4067,-31.4678 1000.7253,-21.2466"/>
<polygon fill="#191970" stroke="#191970" points="1002.0731,-24.4793 1010.2125,-17.6969 999.6201,-17.9232 1002.0731,-24.4793"/>
</g>
<!-- Node21&#45;&gt;Node19 -->
<g id="edge39" class="edge">
<title>Node21&#45;&gt;Node19</title>
<path fill="none" stroke="#191970" d="M916.6082,-61.5538C971.8332,-56.0398 1089.8204,-42.7156 1198.4121,-18.8568"/>
<polygon fill="#191970" stroke="#191970" points="1199.2197,-22.2628 1208.2167,-16.6677 1197.6943,-15.431 1199.2197,-22.2628"/>
</g>
<!-- Node21&#45;&gt;Node20 -->
<g id="edge40" class="edge">
<title>Node21&#45;&gt;Node20</title>
<path fill="none" stroke="#191970" d="M890.3274,-73.7795C891.7998,-81.0373 892.2185,-91.3738 891.5838,-100.383"/>
<polygon fill="#191970" stroke="#191970" points="888.0976,-100.0517 890.2869,-110.4179 895.0398,-100.949 888.0976,-100.0517"/>
</g>
<!-- Node21&#45;&gt;Node22 -->
<g id="edge41" class="edge">
<title>Node21&#45;&gt;Node22</title>
<path fill="none" stroke="#191970" d="M893.66,-55.4179C904.8549,-46.8195 924.2608,-33.7754 940.561,-23.7844"/>
<polygon fill="#191970" stroke="#191970" points="942.4444,-26.7362 949.2254,-18.5956 938.8479,-20.7308 942.4444,-26.7362"/>
</g>
<!-- Node23 -->
<g id="node24" class="node">
<title>Node23</title>
<g id="a_node24"><a xlink:href="src_2include_2type_8h.html" target="_top" xlink:title="type.h">
<polygon fill="#ffffff" stroke="#000000" points="882.5,-.5 882.5,-18.5 925.7412,-18.5 925.7412,-.5 882.5,-.5"/>
<text text-anchor="middle" x="904.1206" y="-6.5" font-family="Helvetica,sans-Serif" font-size="10.00" fill="#000000">type.h</text>
</a>
</g>
</g>
<!-- Node21&#45;&gt;Node23 -->
<g id="edge43" class="edge">
<title>Node21&#45;&gt;Node23</title>
<path fill="none" stroke="#191970" d="M888.2581,-55.4179C890.8005,-48.0581 894.4682,-37.441 897.6366,-28.2695"/>
<polygon fill="#191970" stroke="#191970" points="900.9579,-29.3742 900.915,-18.7795 894.3415,-27.0885 900.9579,-29.3742"/>
</g>
<!-- Node21&#45;&gt;Node24 -->
<g id="edge44" class="edge">
<title>Node21&#45;&gt;Node24</title>
<path fill="none" stroke="#191970" d="M916.6458,-62.6745C980.0894,-58.5769 1127.7282,-46.9023 1259.4361,-19.0512"/>
<polygon fill="#191970" stroke="#191970" points="1260.253,-22.4557 1269.2926,-16.9298 1258.78,-15.6124 1260.253,-22.4557"/>
</g>
<!-- Node22&#45;&gt;Node21 -->
<g id="edge42" class="edge">
<title>Node22&#45;&gt;Node21</title>
<path fill="none" stroke="#191970" d="M959.3238,-18.7795C948.0723,-27.3932 928.793,-40.3433 912.6004,-50.2645"/>
<polygon fill="#191970" stroke="#191970" points="910.7747,-47.2781 903.9927,-55.4179 914.3704,-53.2841 910.7747,-47.2781"/>
</g>
<!-- Node26&#45;&gt;Node1 -->
<g id="edge49" class="edge">
<title>Node26&#45;&gt;Node1</title>
<path fill="none" stroke="#191970" d="M865.0901,-275.242C853.3431,-267.1707 837.6265,-254.3639 829.1206,-239 821.4693,-225.1797 818.8847,-207.3415 818.1199,-193.9286"/>
<polygon fill="#191970" stroke="#191970" points="821.6173,-193.7843 817.8343,-183.8879 814.6202,-193.9834 821.6173,-193.7843"/>
</g>
<!-- Node27 -->
<g id="node28" class="node">
<title>Node27</title>
<g id="a_node28"><a xlink:href="ext__apps_2shim_2include_2context_8h.html" target="_top" xlink:title="context.h">
<polygon fill="#ffffff" stroke="#000000" points="939.8301,-220.5 939.8301,-238.5 996.4111,-238.5 996.4111,-220.5 939.8301,-220.5"/>
<text text-anchor="middle" x="968.1206" y="-226.5" font-family="Helvetica,sans-Serif" font-size="10.00" fill="#000000">context.h</text>
</a>
</g>
</g>
<!-- Node26&#45;&gt;Node27 -->
<g id="edge50" class="edge">
<title>Node26&#45;&gt;Node27</title>
<path fill="none" stroke="#191970" d="M894.652,-275.4179C908.282,-266.8992 928.8941,-254.0166 944.8202,-244.0627"/>
<polygon fill="#191970" stroke="#191970" points="946.9426,-246.8637 953.5676,-238.5956 943.2326,-240.9277 946.9426,-246.8637"/>
</g>
<!-- Node28 -->
<g id="node29" class="node">
<title>Node28</title>
<g id="a_node29"><a xlink:href="ext__apps_2shim_2include_2app__event__id_8h.html" target="_top" xlink:title="app_event_id.h">
<polygon fill="#ffffff" stroke="#000000" points="837.9238,-220.5 837.9238,-238.5 922.3174,-238.5 922.3174,-220.5 837.9238,-220.5"/>
<text text-anchor="middle" x="880.1206" y="-226.5" font-family="Helvetica,sans-Serif" font-size="10.00" fill="#000000">app_event_id.h</text>
</a>
</g>
</g>
<!-- Node26&#45;&gt;Node28 -->
<g id="edge52" class="edge">
<title>Node26&#45;&gt;Node28</title>
<path fill="none" stroke="#191970" d="M880.1206,-275.4179C880.1206,-268.2164 880.1206,-257.8962 880.1206,-248.8632"/>
<polygon fill="#191970" stroke="#191970" points="883.6207,-248.7794 880.1206,-238.7795 876.6207,-248.7795 883.6207,-248.7794"/>
</g>
<!-- Node29 -->
<g id="node30" class="node">
<title>Node29</title>
<g id="a_node30"><a xlink:href="ext__apps_2shim_2include_2app__event__list_8h.html" target="_top" xlink:title="app_event_list.h">
<polygon fill="#ffffff" stroke="#000000" points="579.7046,-220.5 579.7046,-238.5 668.5366,-238.5 668.5366,-220.5 579.7046,-220.5"/>
<text text-anchor="middle" x="624.1206" y="-226.5" font-family="Helvetica,sans-Serif" font-size="10.00" fill="#000000">app_event_list.h</text>
</a>
</g>
</g>
<!-- Node26&#45;&gt;Node29 -->
<g id="edge53" class="edge">
<title>Node26&#45;&gt;Node29</title>
<path fill="none" stroke="#191970" d="M844.5249,-276.8525C800.8242,-267.4637 726.3541,-251.4642 676.2133,-240.6918"/>
<polygon fill="#191970" stroke="#191970" points="676.7267,-237.2223 666.2146,-238.5436 675.2563,-244.0661 676.7267,-237.2223"/>
</g>
<!-- Node27&#45;&gt;Node1 -->
<g id="edge51" class="edge">
<title>Node27&#45;&gt;Node1</title>
<path fill="none" stroke="#191970" d="M943.3512,-220.4179C918.5243,-211.3147 880.1068,-197.2283 852.3687,-187.0576"/>
<polygon fill="#191970" stroke="#191970" points="853.2712,-183.6608 842.6775,-183.5042 850.8614,-190.2329 853.2712,-183.6608"/>
</g>
<!-- Node29&#45;&gt;Node25 -->
<g id="edge54" class="edge">
<title>Node29&#45;&gt;Node25</title>
<path fill="none" stroke="#191970" d="M605.4624,-220.4982C565.4639,-201.2007 471.2738,-155.7581 424.0869,-132.9925"/>
<polygon fill="#191970" stroke="#191970" points="425.5641,-129.8192 415.0366,-128.6261 422.5223,-136.1238 425.5641,-129.8192"/>
</g>
<!-- Node30&#45;&gt;Node1 -->
<g id="edge56" class="edge">
<title>Node30&#45;&gt;Node1</title>
<path fill="none" stroke="#191970" d="M1013.8706,-220.9063C972.0166,-210.984 903.3156,-194.6971 859.4299,-184.2931"/>
<polygon fill="#191970" stroke="#191970" points="860.1883,-180.876 849.6506,-181.9748 858.5735,-187.6872 860.1883,-180.876"/>
</g>
<!-- Node33&#45;&gt;Node21 -->
<g id="edge60" class="edge">
<title>Node33&#45;&gt;Node21</title>
<path fill="none" stroke="#191970" d="M1154.2247,-166.8632C1125.052,-154.4892 1065.3544,-129.4798 1014.1206,-110 983.1582,-98.2276 947.6395,-85.7761 921.7216,-76.8805"/>
<polygon fill="#191970" stroke="#191970" points="922.5355,-73.4599 911.9409,-73.5358 920.2704,-80.0833 922.5355,-73.4599"/>
</g>
<!-- Node34&#45;&gt;Node21 -->
<g id="edge62" class="edge">
<title>Node34&#45;&gt;Node21</title>
<path fill="none" stroke="#191970" d="M1095.3806,-165.4982C1055.2066,-146.2007 960.6035,-100.7581 913.2095,-77.9925"/>
<polygon fill="#191970" stroke="#191970" points="914.6491,-74.8012 904.1196,-73.6261 911.6181,-81.111 914.6491,-74.8012"/>
</g>
</g>
</svg>
