<?xml version="1.0" encoding="UTF-8" standalone="no"?>
<!DOCTYPE svg PUBLIC "-//W3C//DTD SVG 1.1//EN"
 "http://www.w3.org/Graphics/SVG/1.1/DTD/svg11.dtd">
<!-- Generated by graphviz version 2.40.1 (20161225.0304)
 -->
<!-- Title: ext_apps/shim/include/common.h Pages: 1 -->
<svg width="1459pt" height="92pt"
 viewBox="0.00 0.00 1459.35 92.00" xmlns="http://www.w3.org/2000/svg" xmlns:xlink="http://www.w3.org/1999/xlink">
<g id="graph0" class="graph" transform="scale(1 1) rotate(0) translate(4 88)">
<title>ext_apps/shim/include/common.h</title>
<polygon fill="#ffffff" stroke="transparent" points="-4,4 -4,-88 1455.3472,-88 1455.3472,4 -4,4"/>
<!-- Node0 -->
<g id="node1" class="node">
<title>Node0</title>
<polygon fill="#bfbfbf" stroke="#000000" points="622.2588,-55.5 622.2588,-83.5 737.2041,-83.5 737.2041,-55.5 622.2588,-55.5"/>
<text text-anchor="start" x="630.2588" y="-71.5" font-family="Helvetica,sans-Serif" font-size="10.00" fill="#000000">ext_apps/shim/include</text>
<text text-anchor="middle" x="679.7314" y="-61.5" font-family="Helvetica,sans-Serif" font-size="10.00" fill="#000000">/common.h</text>
</g>
<!-- Node1 -->
<g id="node2" class="node">
<title>Node1</title>
<polygon fill="#ffffff" stroke="#bfbfbf" points="0,-.5 0,-18.5 45.4629,-18.5 45.4629,-.5 0,-.5"/>
<text text-anchor="middle" x="22.7314" y="-6.5" font-family="Helvetica,sans-Serif" font-size="10.00" fill="#000000">stdio.h</text>
</g>
<!-- Node0&#45;&gt;Node1 -->
<g id="edge1" class="edge">
<title>Node0&#45;&gt;Node1</title>
<path fill="none" stroke="#191970" d="M621.8639,-66.4406C491.9653,-59.3196 179.4759,-40.712 55.6062,-18.9601"/>
<polygon fill="#191970" stroke="#191970" points="56.0836,-15.4892 45.6148,-17.1183 54.8146,-22.3732 56.0836,-15.4892"/>
</g>
<!-- Node2 -->
<g id="node3" class="node">
<title>Node2</title>
<polygon fill="#ffffff" stroke="#bfbfbf" points="63.2192,-.5 63.2192,-18.5 114.2437,-18.5 114.2437,-.5 63.2192,-.5"/>
<text text-anchor="middle" x="88.7314" y="-6.5" font-family="Helvetica,sans-Serif" font-size="10.00" fill="#000000">unistd.h</text>
</g>
<!-- Node0&#45;&gt;Node2 -->
<g id="edge2" class="edge">
<title>Node0&#45;&gt;Node2</title>
<path fill="none" stroke="#191970" d="M621.9321,-67.7227C522.0235,-63.8963 310.5972,-52.4817 124.567,-19.0682"/>
<polygon fill="#191970" stroke="#191970" points="125.0719,-15.6026 114.6065,-17.2534 123.8171,-22.4893 125.0719,-15.6026"/>
</g>
<!-- Node3 -->
<g id="node4" class="node">
<title>Node3</title>
<polygon fill="#ffffff" stroke="#bfbfbf" points="131.8892,-.5 131.8892,-18.5 179.5737,-18.5 179.5737,-.5 131.8892,-.5"/>
<text text-anchor="middle" x="155.7314" y="-6.5" font-family="Helvetica,sans-Serif" font-size="10.00" fill="#000000">stdlib.h</text>
</g>
<!-- Node0&#45;&gt;Node3 -->
<g id="edge3" class="edge">
<title>Node0&#45;&gt;Node3</title>
<path fill="none" stroke="#191970" d="M622.1713,-66.9009C531.8516,-62.096 351.3358,-49.5632 189.8771,-18.9026"/>
<polygon fill="#191970" stroke="#191970" points="190.2435,-15.4089 179.7617,-16.9528 188.9185,-22.2823 190.2435,-15.4089"/>
</g>
<!-- Node4 -->
<g id="node5" class="node">
<title>Node4</title>
<polygon fill="#ffffff" stroke="#bfbfbf" points="197.335,-.5 197.335,-18.5 246.1279,-18.5 246.1279,-.5 197.335,-.5"/>
<text text-anchor="middle" x="221.7314" y="-6.5" font-family="Helvetica,sans-Serif" font-size="10.00" fill="#000000">string.h</text>
</g>
<!-- Node0&#45;&gt;Node4 -->
<g id="edge4" class="edge">
<title>Node0&#45;&gt;Node4</title>
<path fill="none" stroke="#191970" d="M622.2081,-65.6368C542.0783,-59.6009 392.2798,-45.9452 256.3113,-19.0458"/>
<polygon fill="#191970" stroke="#191970" points="256.6241,-15.5388 246.1307,-17.0013 255.2459,-22.4018 256.6241,-15.5388"/>
</g>
<!-- Node5 -->
<g id="node6" class="node">
<title>Node5</title>
<polygon fill="#ffffff" stroke="#bfbfbf" points="263.665,-.5 263.665,-18.5 315.7979,-18.5 315.7979,-.5 263.665,-.5"/>
<text text-anchor="middle" x="289.7314" y="-6.5" font-family="Helvetica,sans-Serif" font-size="10.00" fill="#000000">stdarg.h</text>
</g>
<!-- Node0&#45;&gt;Node5 -->
<g id="edge5" class="edge">
<title>Node0&#45;&gt;Node5</title>
<path fill="none" stroke="#191970" d="M622.174,-63.5304C553.7077,-55.9357 435.8479,-41.3064 325.9482,-19.0466"/>
<polygon fill="#191970" stroke="#191970" points="326.5202,-15.5911 316.0208,-17.0103 325.1135,-22.4484 326.5202,-15.5911"/>
</g>
<!-- Node6 -->
<g id="node7" class="node">
<title>Node6</title>
<polygon fill="#ffffff" stroke="#bfbfbf" points="333.6108,-.5 333.6108,-18.5 381.8521,-18.5 381.8521,-.5 333.6108,-.5"/>
<text text-anchor="middle" x="357.7314" y="-6.5" font-family="Helvetica,sans-Serif" font-size="10.00" fill="#000000">stdint.h</text>
</g>
<!-- Node0&#45;&gt;Node6 -->
<g id="edge6" class="edge">
<title>Node0&#45;&gt;Node6</title>
<path fill="none" stroke="#191970" d="M622.0656,-61.2883C565.6448,-52.8342 477.1354,-38.4582 391.9908,-19.109"/>
<polygon fill="#191970" stroke="#191970" points="392.6935,-15.6793 382.1635,-16.8497 391.1251,-22.5013 392.6935,-15.6793"/>
</g>
<!-- Node7 -->
<g id="node8" class="node">
<title>Node7</title>
<polygon fill="#ffffff" stroke="#bfbfbf" points="399.6035,-.5 399.6035,-18.5 457.8594,-18.5 457.8594,-.5 399.6035,-.5"/>
<text text-anchor="middle" x="428.7314" y="-6.5" font-family="Helvetica,sans-Serif" font-size="10.00" fill="#000000">pthread.h</text>
</g>
<!-- Node0&#45;&gt;Node7 -->
<g id="edge7" class="edge">
<title>Node0&#45;&gt;Node7</title>
<path fill="none" stroke="#191970" d="M621.8277,-55.9727C581.3096,-46.4608 525.655,-33.3039 468.1731,-19.3325"/>
<polygon fill="#191970" stroke="#191970" points="468.7253,-15.8647 458.1811,-16.9 467.0695,-22.6661 468.7253,-15.8647"/>
</g>
<!-- Node8 -->
<g id="node9" class="node">
<title>Node8</title>
<polygon fill="#ffffff" stroke="#bfbfbf" points="475.6108,-.5 475.6108,-18.5 523.8521,-18.5 523.8521,-.5 475.6108,-.5"/>
<text text-anchor="middle" x="499.7314" y="-6.5" font-family="Helvetica,sans-Serif" font-size="10.00" fill="#000000">ctype.h</text>
</g>
<!-- Node0&#45;&gt;Node8 -->
<g id="edge8" class="edge">
<title>Node0&#45;&gt;Node8</title>
<path fill="none" stroke="#191970" d="M637.5294,-55.4327C605.9258,-44.8981 563.2447,-30.6711 533.7986,-20.8557"/>
<polygon fill="#191970" stroke="#191970" points="534.5686,-17.4231 523.9749,-17.5812 532.3549,-24.0639 534.5686,-17.4231"/>
</g>
<!-- Node9 -->
<g id="node10" class="node">
<title>Node9</title>
<polygon fill="#ffffff" stroke="#bfbfbf" points="541.8892,-.5 541.8892,-18.5 589.5737,-18.5 589.5737,-.5 541.8892,-.5"/>
<text text-anchor="middle" x="565.7314" y="-6.5" font-family="Helvetica,sans-Serif" font-size="10.00" fill="#000000">errno.h</text>
</g>
<!-- Node0&#45;&gt;Node9 -->
<g id="edge9" class="edge">
<title>Node0&#45;&gt;Node9</title>
<path fill="none" stroke="#191970" d="M653.0035,-55.4327C634.6218,-45.7581 610.3231,-32.9693 592.0337,-23.3433"/>
<polygon fill="#191970" stroke="#191970" points="593.5598,-20.1914 583.0805,-18.6311 590.2995,-26.3858 593.5598,-20.1914"/>
</g>
<!-- Node10 -->
<g id="node11" class="node">
<title>Node10</title>
<polygon fill="#ffffff" stroke="#bfbfbf" points="607.1035,-.5 607.1035,-18.5 670.3594,-18.5 670.3594,-.5 607.1035,-.5"/>
<text text-anchor="middle" x="638.7314" y="-6.5" font-family="Helvetica,sans-Serif" font-size="10.00" fill="#000000">arpa/inet.h</text>
</g>
<!-- Node0&#45;&gt;Node10 -->
<g id="edge10" class="edge">
<title>Node0&#45;&gt;Node10</title>
<path fill="none" stroke="#191970" d="M670.015,-55.2808C664.2504,-46.8448 656.8953,-36.0813 650.7655,-27.1107"/>
<polygon fill="#191970" stroke="#191970" points="653.4707,-24.866 644.939,-18.5842 647.6912,-28.8153 653.4707,-24.866"/>
</g>
<!-- Node11 -->
<g id="node12" class="node">
<title>Node11</title>
<polygon fill="#ffffff" stroke="#bfbfbf" points="688.2686,-.5 688.2686,-18.5 753.1943,-18.5 753.1943,-.5 688.2686,-.5"/>
<text text-anchor="middle" x="720.7314" y="-6.5" font-family="Helvetica,sans-Serif" font-size="10.00" fill="#000000">netinet/in.h</text>
</g>
<!-- Node0&#45;&gt;Node11 -->
<g id="edge11" class="edge">
<title>Node0&#45;&gt;Node11</title>
<path fill="none" stroke="#191970" d="M689.4479,-55.2808C695.2125,-46.8448 702.5676,-36.0813 708.6974,-27.1107"/>
<polygon fill="#191970" stroke="#191970" points="711.7717,-28.8153 714.5239,-18.5842 705.9922,-24.866 711.7717,-28.8153"/>
</g>
<!-- Node12 -->
<g id="node13" class="node">
<title>Node12</title>
<polygon fill="#ffffff" stroke="#bfbfbf" points="770.8745,-.5 770.8745,-18.5 848.5884,-18.5 848.5884,-.5 770.8745,-.5"/>
<text text-anchor="middle" x="809.7314" y="-6.5" font-family="Helvetica,sans-Serif" font-size="10.00" fill="#000000">net/ethernet.h</text>
</g>
<!-- Node0&#45;&gt;Node12 -->
<g id="edge12" class="edge">
<title>Node0&#45;&gt;Node12</title>
<path fill="none" stroke="#191970" d="M710.2107,-55.4327C731.4607,-45.625 759.6452,-32.6167 780.5948,-22.9477"/>
<polygon fill="#191970" stroke="#191970" points="782.3346,-25.9996 789.9475,-18.6311 779.4012,-19.6438 782.3346,-25.9996"/>
</g>
<!-- Node13 -->
<g id="node14" class="node">
<title>Node13</title>
<polygon fill="#ffffff" stroke="#bfbfbf" points="866.2686,-.5 866.2686,-18.5 931.1943,-18.5 931.1943,-.5 866.2686,-.5"/>
<text text-anchor="middle" x="898.7314" y="-6.5" font-family="Helvetica,sans-Serif" font-size="10.00" fill="#000000">netinet/ip.h</text>
</g>
<!-- Node0&#45;&gt;Node13 -->
<g id="edge13" class="edge">
<title>Node0&#45;&gt;Node13</title>
<path fill="none" stroke="#191970" d="M731.0772,-55.4327C769.2123,-44.9847 820.6042,-30.9047 856.3964,-21.0986"/>
<polygon fill="#191970" stroke="#191970" points="857.3343,-24.4708 866.054,-18.4527 855.4846,-17.7195 857.3343,-24.4708"/>
</g>
<!-- Node14 -->
<g id="node15" class="node">
<title>Node14</title>
<polygon fill="#ffffff" stroke="#bfbfbf" points="949.4902,-.5 949.4902,-18.5 1019.9727,-18.5 1019.9727,-.5 949.4902,-.5"/>
<text text-anchor="middle" x="984.7314" y="-6.5" font-family="Helvetica,sans-Serif" font-size="10.00" fill="#000000">netinet/tcp.h</text>
</g>
<!-- Node0&#45;&gt;Node14 -->
<g id="edge14" class="edge">
<title>Node0&#45;&gt;Node14</title>
<path fill="none" stroke="#191970" d="M737.357,-58.585C787.8133,-48.9647 863.3804,-34.405 939.1629,-19.089"/>
<polygon fill="#191970" stroke="#191970" points="940.2632,-22.4373 949.3694,-17.0218 938.8736,-15.5766 940.2632,-22.4373"/>
</g>
<!-- Node15 -->
<g id="node16" class="node">
<title>Node15</title>
<polygon fill="#ffffff" stroke="#bfbfbf" points="1037.9312,-.5 1037.9312,-18.5 1129.5317,-18.5 1129.5317,-.5 1037.9312,-.5"/>
<text text-anchor="middle" x="1083.7314" y="-6.5" font-family="Helvetica,sans-Serif" font-size="10.00" fill="#000000">netinet/ip_icmp.h</text>
</g>
<!-- Node0&#45;&gt;Node15 -->
<g id="edge15" class="edge">
<title>Node0&#45;&gt;Node15</title>
<path fill="none" stroke="#191970" d="M737.2376,-61.6698C804.3784,-52.4177 919.0383,-36.2775 1027.6757,-19.1332"/>
<polygon fill="#191970" stroke="#191970" points="1028.5016,-22.5461 1037.8309,-17.5248 1027.4065,-15.6323 1028.5016,-22.5461"/>
</g>
<!-- Node16 -->
<g id="node17" class="node">
<title>Node16</title>
<polygon fill="#ffffff" stroke="#bfbfbf" points="1147.3276,-.5 1147.3276,-18.5 1206.1353,-18.5 1206.1353,-.5 1147.3276,-.5"/>
<text text-anchor="middle" x="1176.7314" y="-6.5" font-family="Helvetica,sans-Serif" font-size="10.00" fill="#000000">jansson.h</text>
</g>
<!-- Node0&#45;&gt;Node16 -->
<g id="edge16" class="edge">
<title>Node0&#45;&gt;Node16</title>
<path fill="none" stroke="#191970" d="M737.3353,-65.6782C822.6884,-59.4622 987.8733,-45.3146 1136.7107,-19.1732"/>
<polygon fill="#191970" stroke="#191970" points="1137.7111,-22.5502 1146.9431,-17.3522 1136.4845,-15.6585 1137.7111,-22.5502"/>
</g>
<!-- Node17 -->
<g id="node18" class="node">
<title>Node17</title>
<polygon fill="#ffffff" stroke="#bfbfbf" points="1223.8374,-.5 1223.8374,-18.5 1267.6255,-18.5 1267.6255,-.5 1223.8374,-.5"/>
<text text-anchor="middle" x="1245.7314" y="-6.5" font-family="Helvetica,sans-Serif" font-size="10.00" fill="#000000">libcli.h</text>
</g>
<!-- Node0&#45;&gt;Node17 -->
<g id="edge17" class="edge">
<title>Node0&#45;&gt;Node17</title>
<path fill="none" stroke="#191970" d="M737.2912,-67.8956C834.0792,-64.3642 1035.4911,-53.4378 1213.4514,-18.884"/>
<polygon fill="#191970" stroke="#191970" points="1214.3848,-22.2675 1223.5187,-16.8988 1213.0304,-15.3997 1214.3848,-22.2675"/>
</g>
<!-- Node18 -->
<g id="node19" class="node">
<title>Node18</title>
<polygon fill="#ffffff" stroke="#bfbfbf" points="1286.1157,-.5 1286.1157,-18.5 1329.3472,-18.5 1329.3472,-.5 1286.1157,-.5"/>
<text text-anchor="middle" x="1307.7314" y="-6.5" font-family="Helvetica,sans-Serif" font-size="10.00" fill="#000000">zmq.h</text>
</g>
<!-- Node0&#45;&gt;Node18 -->
<g id="edge18" class="edge">
<title>Node0&#45;&gt;Node18</title>
<path fill="none" stroke="#191970" d="M737.3074,-66.198C862.4867,-58.7714 1157.0357,-39.8934 1275.9231,-18.6925"/>
<polygon fill="#191970" stroke="#191970" points="1276.6763,-22.1124 1285.8621,-16.8331 1275.3889,-15.2318 1276.6763,-22.1124"/>
</g>
<!-- Node19 -->
<g id="node20" class="node">
<title>Node19</title>
<g id="a_node20"><a xlink:href="ext__apps_2shim_2include_2type_8h.html" target="_top" xlink:title="type.h">
<polygon fill="#ffffff" stroke="#000000" points="1347.1108,-.5 1347.1108,-18.5 1390.3521,-18.5 1390.3521,-.5 1347.1108,-.5"/>
<text text-anchor="middle" x="1368.7314" y="-6.5" font-family="Helvetica,sans-Serif" font-size="10.00" fill="#000000">type.h</text>
</a>
</g>
</g>
<!-- Node0&#45;&gt;Node19 -->
<g id="edge19" class="edge">
<title>Node0&#45;&gt;Node19</title>
<path fill="none" stroke="#191970" d="M737.3041,-66.7919C872.0765,-60.185 1205.955,-42.1997 1336.755,-18.9448"/>
<polygon fill="#191970" stroke="#191970" points="1337.74,-22.3214 1346.9269,-17.044 1336.4541,-15.4405 1337.74,-22.3214"/>
</g>
<!-- Node20 -->
<g id="node21" class="node">
<title>Node20</title>
<polygon fill="#ffffff" stroke="#bfbfbf" points="1408.1157,-.5 1408.1157,-18.5 1451.3472,-18.5 1451.3472,-.5 1408.1157,-.5"/>
<text text-anchor="middle" x="1429.7314" y="-6.5" font-family="Helvetica,sans-Serif" font-size="10.00" fill="#000000">time.h</text>
</g>
<!-- Node0&#45;&gt;Node20 -->
<g id="edge20" class="edge">
<title>Node0&#45;&gt;Node20</title>
<path fill="none" stroke="#191970" d="M737.4275,-67.2166C881.4772,-61.2396 1255.0385,-43.9722 1398.0389,-18.8809"/>
<polygon fill="#191970" stroke="#191970" points="1398.7287,-22.3128 1407.9301,-17.0608 1397.4618,-15.4284 1398.7287,-22.3128"/>
</g>
</g>
</svg>
