<?xml version="1.0" encoding="UTF-8" standalone="no"?>
<!DOCTYPE svg PUBLIC "-//W3C//DTD SVG 1.1//EN"
 "http://www.w3.org/Graphics/SVG/1.1/DTD/svg11.dtd">
<!-- Generated by graphviz version 2.40.1 (20161225.0304)
 -->
<!-- Title: ext_comps/shim/include/common.h Pages: 1 -->
<svg width="333pt" height="287pt"
 viewBox="0.00 0.00 333.43 287.00" xmlns="http://www.w3.org/2000/svg" xmlns:xlink="http://www.w3.org/1999/xlink">
<g id="graph0" class="graph" transform="scale(1 1) rotate(0) translate(4 283)">
<title>ext_comps/shim/include/common.h</title>
<polygon fill="#ffffff" stroke="transparent" points="-4,4 -4,-283 329.4307,-283 329.4307,4 -4,4"/>
<!-- Node37 -->
<g id="node1" class="node">
<title>Node37</title>
<polygon fill="#bfbfbf" stroke="#000000" points="68.7168,-250.5 68.7168,-278.5 191.4307,-278.5 191.4307,-250.5 68.7168,-250.5"/>
<text text-anchor="start" x="76.7168" y="-266.5" font-family="Helvetica,sans-Serif" font-size="10.00" fill="#000000">ext_comps/shim/include</text>
<text text-anchor="middle" x="130.0737" y="-256.5" font-family="Helvetica,sans-Serif" font-size="10.00" fill="#000000">/common.h</text>
</g>
<!-- Node38 -->
<g id="node2" class="node">
<title>Node38</title>
<g id="a_node2"><a xlink:href="ext__comps_2shim_2include_2component_8h.html" target="_top" xlink:title="ext_comps/shim/include\l/component.h">
<polygon fill="#ffffff" stroke="#000000" points="61.7168,-120.5 61.7168,-148.5 184.4307,-148.5 184.4307,-120.5 61.7168,-120.5"/>
<text text-anchor="start" x="69.7168" y="-136.5" font-family="Helvetica,sans-Serif" font-size="10.00" fill="#000000">ext_comps/shim/include</text>
<text text-anchor="middle" x="123.0737" y="-126.5" font-family="Helvetica,sans-Serif" font-size="10.00" fill="#000000">/component.h</text>
</a>
</g>
</g>
<!-- Node37&#45;&gt;Node38 -->
<g id="edge1" class="edge">
<title>Node37&#45;&gt;Node38</title>
<path fill="none" stroke="#191970" d="M115.8632,-241.409C111.5028,-233.0826 107.276,-223.4125 105.0737,-214 99.7219,-191.1264 108.8792,-164.4895 115.9794,-148.5876"/>
<polygon fill="#191970" stroke="#191970" points="112.8133,-243.1262 120.7421,-250.1537 118.9262,-239.7156 112.8133,-243.1262"/>
</g>
<!-- Node39 -->
<g id="node3" class="node">
<title>Node39</title>
<g id="a_node3"><a xlink:href="ext__comps_2shim_2include_2shim_8h.html" target="_top" xlink:title="ext_comps/shim/include\l/shim.h">
<polygon fill="#ffffff" stroke="#000000" points="61.7168,-55.5 61.7168,-83.5 184.4307,-83.5 184.4307,-55.5 61.7168,-55.5"/>
<text text-anchor="start" x="69.7168" y="-71.5" font-family="Helvetica,sans-Serif" font-size="10.00" fill="#000000">ext_comps/shim/include</text>
<text text-anchor="middle" x="123.0737" y="-61.5" font-family="Helvetica,sans-Serif" font-size="10.00" fill="#000000">/shim.h</text>
</a>
</g>
</g>
<!-- Node37&#45;&gt;Node39 -->
<g id="edge10" class="edge">
<title>Node37&#45;&gt;Node39</title>
<path fill="none" stroke="#191970" d="M109.6533,-242.6349C90.7972,-220.8248 64.0965,-185.4057 53.0737,-149 49.3387,-136.6641 47.203,-131.4743 53.0737,-120 61.2644,-103.9914 77.1571,-91.8947 91.7316,-83.56"/>
<polygon fill="#191970" stroke="#191970" points="107.1952,-245.1383 116.447,-250.3012 112.4342,-240.4957 107.1952,-245.1383"/>
</g>
<!-- Node42 -->
<g id="node6" class="node">
<title>Node42</title>
<g id="a_node6"><a xlink:href="ext__comps_2shim_2include_2context_8h.html" target="_top" xlink:title="ext_comps/shim/include\l/context.h">
<polygon fill="#ffffff" stroke="#000000" points="113.7168,-185.5 113.7168,-213.5 236.4307,-213.5 236.4307,-185.5 113.7168,-185.5"/>
<text text-anchor="start" x="121.7168" y="-201.5" font-family="Helvetica,sans-Serif" font-size="10.00" fill="#000000">ext_comps/shim/include</text>
<text text-anchor="middle" x="175.0737" y="-191.5" font-family="Helvetica,sans-Serif" font-size="10.00" fill="#000000">/context.h</text>
</a>
</g>
</g>
<!-- Node37&#45;&gt;Node42 -->
<g id="edge5" class="edge">
<title>Node37&#45;&gt;Node42</title>
<path fill="none" stroke="#191970" d="M145.5416,-242.1575C152.1038,-232.6788 159.5532,-221.9186 165.3285,-213.5765"/>
<polygon fill="#191970" stroke="#191970" points="142.6525,-240.1818 139.8381,-250.396 148.4079,-244.1663 142.6525,-240.1818"/>
</g>
<!-- Node43 -->
<g id="node7" class="node">
<title>Node43</title>
<g id="a_node7"><a xlink:href="ext__comps_2shim_2include_2event_8h.html" target="_top" xlink:title="ext_comps/shim/include\l/event.h">
<polygon fill="#ffffff" stroke="#000000" points="202.7168,-120.5 202.7168,-148.5 325.4307,-148.5 325.4307,-120.5 202.7168,-120.5"/>
<text text-anchor="start" x="210.7168" y="-136.5" font-family="Helvetica,sans-Serif" font-size="10.00" fill="#000000">ext_comps/shim/include</text>
<text text-anchor="middle" x="264.0737" y="-126.5" font-family="Helvetica,sans-Serif" font-size="10.00" fill="#000000">/event.h</text>
</a>
</g>
</g>
<!-- Node37&#45;&gt;Node43 -->
<g id="edge9" class="edge">
<title>Node37&#45;&gt;Node43</title>
<path fill="none" stroke="#191970" d="M198.4134,-246.5458C215.7735,-239.0346 232.9265,-228.5451 245.0737,-214 260.7195,-195.2658 263.9181,-165.8181 264.3328,-148.5101"/>
<polygon fill="#191970" stroke="#191970" points="196.7509,-243.4418 188.778,-250.4191 199.3619,-249.9367 196.7509,-243.4418"/>
</g>
<!-- Node38&#45;&gt;Node39 -->
<g id="edge2" class="edge">
<title>Node38&#45;&gt;Node39</title>
<path fill="none" stroke="#191970" d="M123.0737,-110.1081C123.0737,-101.1539 123.0737,-91.3227 123.0737,-83.5765"/>
<polygon fill="#191970" stroke="#191970" points="119.5738,-110.3959 123.0737,-120.396 126.5738,-110.396 119.5738,-110.3959"/>
</g>
<!-- Node40 -->
<g id="node4" class="node">
<title>Node40</title>
<g id="a_node4"><a xlink:href="ext__apps_2shim_2shim_8c.html" target="_top" xlink:title="ext_apps/shim/shim.c">
<polygon fill="#ffffff" stroke="#000000" points="0,-.5 0,-18.5 112.1475,-18.5 112.1475,-.5 0,-.5"/>
<text text-anchor="middle" x="56.0737" y="-6.5" font-family="Helvetica,sans-Serif" font-size="10.00" fill="#000000">ext_apps/shim/shim.c</text>
</a>
</g>
</g>
<!-- Node39&#45;&gt;Node40 -->
<g id="edge3" class="edge">
<title>Node39&#45;&gt;Node40</title>
<path fill="none" stroke="#191970" d="M99.6327,-48.508C88.2039,-38.2733 75.0534,-26.4967 66.2177,-18.5842"/>
<polygon fill="#191970" stroke="#191970" points="97.4112,-51.2169 107.1957,-55.2808 102.0811,-46.0023 97.4112,-51.2169"/>
</g>
<!-- Node41 -->
<g id="node5" class="node">
<title>Node41</title>
<g id="a_node5"><a xlink:href="ext__comps_2shim_2shim_8c.html" target="_top" xlink:title="ext_comps/shim/shim.c">
<polygon fill="#ffffff" stroke="#000000" points="130.1157,-.5 130.1157,-18.5 250.0317,-18.5 250.0317,-.5 130.1157,-.5"/>
<text text-anchor="middle" x="190.0737" y="-6.5" font-family="Helvetica,sans-Serif" font-size="10.00" fill="#000000">ext_comps/shim/shim.c</text>
</a>
</g>
</g>
<!-- Node39&#45;&gt;Node41 -->
<g id="edge4" class="edge">
<title>Node39&#45;&gt;Node41</title>
<path fill="none" stroke="#191970" d="M146.5148,-48.508C157.9436,-38.2733 171.094,-26.4967 179.9297,-18.5842"/>
<polygon fill="#191970" stroke="#191970" points="144.0664,-46.0023 138.9518,-55.2808 148.7363,-51.2169 144.0664,-46.0023"/>
</g>
<!-- Node42&#45;&gt;Node38 -->
<g id="edge6" class="edge">
<title>Node42&#45;&gt;Node38</title>
<path fill="none" stroke="#191970" d="M157.4315,-177.4472C149.7926,-167.8986 141.0767,-157.0037 134.3349,-148.5765"/>
<polygon fill="#191970" stroke="#191970" points="154.8105,-179.7737 163.7905,-185.396 160.2766,-175.4008 154.8105,-179.7737"/>
</g>
<!-- Node42&#45;&gt;Node43 -->
<g id="edge7" class="edge">
<title>Node42&#45;&gt;Node43</title>
<path fill="none" stroke="#191970" d="M202.5252,-179.4511C216.2168,-169.4517 232.4451,-157.5995 244.7997,-148.5765"/>
<polygon fill="#191970" stroke="#191970" points="200.3967,-176.6716 194.3854,-185.396 204.5253,-182.3245 200.3967,-176.6716"/>
</g>
<!-- Node43&#45;&gt;Node39 -->
<g id="edge8" class="edge">
<title>Node43&#45;&gt;Node39</title>
<path fill="none" stroke="#191970" d="M224.2261,-116.1305C201.8222,-105.8025 174.2899,-93.1103 153.6089,-83.5765"/>
<polygon fill="#191970" stroke="#191970" points="222.932,-119.3879 233.4788,-120.396 225.8626,-113.0309 222.932,-119.3879"/>
</g>
</g>
</svg>
