<?xml version="1.0" encoding="UTF-8" standalone="no"?>
<!DOCTYPE svg PUBLIC "-//W3C//DTD SVG 1.1//EN"
 "http://www.w3.org/Graphics/SVG/1.1/DTD/svg11.dtd">
<!-- Generated by graphviz version 2.40.1 (20161225.0304)
 -->
<!-- Title: ext_comps/shim/include/context.h Pages: 1 -->
<svg width="2470pt" height="312pt"
 viewBox="0.00 0.00 2469.74 312.00" xmlns="http://www.w3.org/2000/svg" xmlns:xlink="http://www.w3.org/1999/xlink">
<g id="graph0" class="graph" transform="scale(1 1) rotate(0) translate(4 308)">
<title>ext_comps/shim/include/context.h</title>
<polygon fill="#ffffff" stroke="transparent" points="-4,4 -4,-308 2465.736,-308 2465.736,4 -4,4"/>
<!-- Node0 -->
<g id="node1" class="node">
<title>Node0</title>
<polygon fill="#bfbfbf" stroke="#000000" points="1117.7585,-275.5 1117.7585,-303.5 1240.4723,-303.5 1240.4723,-275.5 1117.7585,-275.5"/>
<text text-anchor="start" x="1125.7585" y="-291.5" font-family="Helvetica,sans-Serif" font-size="10.00" fill="#000000">ext_comps/shim/include</text>
<text text-anchor="middle" x="1179.1154" y="-281.5" font-family="Helvetica,sans-Serif" font-size="10.00" fill="#000000">/context.h</text>
</g>
<!-- Node1 -->
<g id="node2" class="node">
<title>Node1</title>
<g id="a_node2"><a xlink:href="ext__comps_2shim_2include_2common_8h.html" target="_top" xlink:title="common.h">
<polygon fill="#ffffff" stroke="#000000" points="1147.7731,-220.5 1147.7731,-238.5 1210.4577,-238.5 1210.4577,-220.5 1147.7731,-220.5"/>
<text text-anchor="middle" x="1179.1154" y="-226.5" font-family="Helvetica,sans-Serif" font-size="10.00" fill="#000000">common.h</text>
</a>
</g>
</g>
<!-- Node0&#45;&gt;Node1 -->
<g id="edge1" class="edge">
<title>Node0&#45;&gt;Node1</title>
<path fill="none" stroke="#191970" d="M1179.1154,-275.2808C1179.1154,-267.3776 1179.1154,-257.4316 1179.1154,-248.8308"/>
<polygon fill="#191970" stroke="#191970" points="1182.6155,-248.5842 1179.1154,-238.5842 1175.6155,-248.5842 1182.6155,-248.5842"/>
</g>
<!-- Node2 -->
<g id="node3" class="node">
<title>Node2</title>
<polygon fill="#ffffff" stroke="#bfbfbf" points="1065.384,-.5 1065.384,-18.5 1110.8469,-18.5 1110.8469,-.5 1065.384,-.5"/>
<text text-anchor="middle" x="1088.1154" y="-6.5" font-family="Helvetica,sans-Serif" font-size="10.00" fill="#000000">stdio.h</text>
</g>
<!-- Node1&#45;&gt;Node2 -->
<g id="edge2" class="edge">
<title>Node1&#45;&gt;Node2</title>
<path fill="none" stroke="#191970" d="M1147.348,-228.9785C1011.1779,-226.5674 476.2499,-215.2556 311.1154,-184 235.1638,-169.6243 218.8439,-155.1893 146.1154,-129 82.4384,-106.0701 42.3656,-129.8343 4.1154,-74 -.6571,-67.0335 -1.7292,-61.095 4.1154,-55 41.4048,-16.1126 878.1119,-10.3912 1055.3257,-9.6147"/>
<polygon fill="#191970" stroke="#191970" points="1055.3629,-13.1147 1065.3482,-9.573 1055.3337,-6.1147 1055.3629,-13.1147"/>
</g>
<!-- Node3 -->
<g id="node4" class="node">
<title>Node3</title>
<polygon fill="#ffffff" stroke="#bfbfbf" points="13.6032,-55.5 13.6032,-73.5 64.6276,-73.5 64.6276,-55.5 13.6032,-55.5"/>
<text text-anchor="middle" x="39.1154" y="-61.5" font-family="Helvetica,sans-Serif" font-size="10.00" fill="#000000">unistd.h</text>
</g>
<!-- Node1&#45;&gt;Node3 -->
<g id="edge3" class="edge">
<title>Node1&#45;&gt;Node3</title>
<path fill="none" stroke="#191970" d="M1147.3715,-228.7947C1019.4287,-225.7775 541.3878,-212.7759 393.1154,-184 269.1589,-159.9432 129.029,-103.3758 68.9954,-77.65"/>
<polygon fill="#191970" stroke="#191970" points="70.2988,-74.4005 59.7305,-73.6512 67.5249,-80.8274 70.2988,-74.4005"/>
</g>
<!-- Node4 -->
<g id="node5" class="node">
<title>Node4</title>
<polygon fill="#ffffff" stroke="#bfbfbf" points="82.2731,-55.5 82.2731,-73.5 129.9577,-73.5 129.9577,-55.5 82.2731,-55.5"/>
<text text-anchor="middle" x="106.1154" y="-61.5" font-family="Helvetica,sans-Serif" font-size="10.00" fill="#000000">stdlib.h</text>
</g>
<!-- Node1&#45;&gt;Node4 -->
<g id="edge4" class="edge">
<title>Node1&#45;&gt;Node4</title>
<path fill="none" stroke="#191970" d="M1147.3804,-228.4443C1027.8111,-224.3135 604.5924,-208.2693 472.1154,-184 390.2515,-169.0028 372.2435,-154.7947 293.1154,-129 239.3941,-111.4876 177.4833,-89.843 140.1001,-76.6115"/>
<polygon fill="#191970" stroke="#191970" points="140.8285,-73.1563 130.2337,-73.1131 138.4891,-79.7539 140.8285,-73.1563"/>
</g>
<!-- Node5 -->
<g id="node6" class="node">
<title>Node5</title>
<polygon fill="#ffffff" stroke="#bfbfbf" points="1199.049,-.5 1199.049,-18.5 1251.1818,-18.5 1251.1818,-.5 1199.049,-.5"/>
<text text-anchor="middle" x="1225.1154" y="-6.5" font-family="Helvetica,sans-Serif" font-size="10.00" fill="#000000">stdarg.h</text>
</g>
<!-- Node1&#45;&gt;Node5 -->
<g id="edge5" class="edge">
<title>Node1&#45;&gt;Node5</title>
<path fill="none" stroke="#191970" d="M1210.6299,-228.8052C1304.7254,-226.4056 1591.7017,-216.7256 1827.1154,-184 1945.3955,-167.5575 1973.4313,-154.404 2090.1154,-129 2200.428,-104.9832 2411.5956,-136.1575 2333.1154,-55 2293.0706,-13.5891 1384.4923,-26.8633 1261.3941,-18.3135"/>
<polygon fill="#191970" stroke="#191970" points="1261.6454,-14.8214 1251.3496,-17.3204 1260.9566,-21.7874 1261.6454,-14.8214"/>
</g>
<!-- Node6 -->
<g id="node7" class="node">
<title>Node6</title>
<polygon fill="#ffffff" stroke="#bfbfbf" points="147.9948,-55.5 147.9948,-73.5 196.236,-73.5 196.236,-55.5 147.9948,-55.5"/>
<text text-anchor="middle" x="172.1154" y="-61.5" font-family="Helvetica,sans-Serif" font-size="10.00" fill="#000000">stdint.h</text>
</g>
<!-- Node1&#45;&gt;Node6 -->
<g id="edge6" class="edge">
<title>Node1&#45;&gt;Node6</title>
<path fill="none" stroke="#191970" d="M1147.5608,-228.1879C1036.9888,-223.4382 667.477,-206.2437 551.1154,-184 418.9303,-158.7315 268.1405,-102.5891 203.845,-77.2937"/>
<polygon fill="#191970" stroke="#191970" points="204.8709,-73.9356 194.2847,-73.5082 202.2938,-80.444 204.8709,-73.9356"/>
</g>
<!-- Node7 -->
<g id="node8" class="node">
<title>Node7</title>
<polygon fill="#ffffff" stroke="#bfbfbf" points="214.7189,-55.5 214.7189,-73.5 263.5119,-73.5 263.5119,-55.5 214.7189,-55.5"/>
<text text-anchor="middle" x="239.1154" y="-61.5" font-family="Helvetica,sans-Serif" font-size="10.00" fill="#000000">string.h</text>
</g>
<!-- Node1&#45;&gt;Node7 -->
<g id="edge7" class="edge">
<title>Node1&#45;&gt;Node7</title>
<path fill="none" stroke="#191970" d="M1147.6824,-228.9413C1063.9857,-227.0066 829.0057,-218.6534 637.1154,-184 548.0798,-167.9211 527.779,-154.9866 441.1154,-129 381.7887,-111.2105 313.1954,-88.9454 273.1391,-75.7708"/>
<polygon fill="#191970" stroke="#191970" points="274.1862,-72.4308 263.5931,-72.6254 271.9955,-79.0792 274.1862,-72.4308"/>
</g>
<!-- Node8 -->
<g id="node9" class="node">
<title>Node8</title>
<polygon fill="#ffffff" stroke="#bfbfbf" points="281.2189,-55.5 281.2189,-73.5 335.0119,-73.5 335.0119,-55.5 281.2189,-55.5"/>
<text text-anchor="middle" x="308.1154" y="-61.5" font-family="Helvetica,sans-Serif" font-size="10.00" fill="#000000">strings.h</text>
</g>
<!-- Node1&#45;&gt;Node8 -->
<g id="edge8" class="edge">
<title>Node1&#45;&gt;Node8</title>
<path fill="none" stroke="#191970" d="M1147.5968,-228.3182C1073.134,-225.101 880.7415,-214.2998 723.1154,-184 579.6038,-156.4134 414.0496,-101.5601 343.2128,-76.953"/>
<polygon fill="#191970" stroke="#191970" points="344.0574,-73.5407 333.4626,-73.5487 341.75,-80.1495 344.0574,-73.5407"/>
</g>
<!-- Node9 -->
<g id="node10" class="node">
<title>Node9</title>
<polygon fill="#ffffff" stroke="#bfbfbf" points="352.9875,-55.5 352.9875,-73.5 411.2433,-73.5 411.2433,-55.5 352.9875,-55.5"/>
<text text-anchor="middle" x="382.1154" y="-61.5" font-family="Helvetica,sans-Serif" font-size="10.00" fill="#000000">pthread.h</text>
</g>
<!-- Node1&#45;&gt;Node9 -->
<g id="edge9" class="edge">
<title>Node1&#45;&gt;Node9</title>
<path fill="none" stroke="#191970" d="M1147.583,-227.7915C1081.791,-223.7802 925.3527,-211.9077 797.1154,-184 691.7751,-161.0753 669.8446,-139.3662 566.1154,-110 504.8246,-92.6483 486.6607,-90.2994 421.5321,-74.332"/>
<polygon fill="#191970" stroke="#191970" points="422.1188,-70.8719 411.5715,-71.874 420.4417,-77.668 422.1188,-70.8719"/>
</g>
<!-- Node10 -->
<g id="node11" class="node">
<title>Node10</title>
<polygon fill="#ffffff" stroke="#bfbfbf" points="428.9948,-55.5 428.9948,-73.5 477.236,-73.5 477.236,-55.5 428.9948,-55.5"/>
<text text-anchor="middle" x="453.1154" y="-61.5" font-family="Helvetica,sans-Serif" font-size="10.00" fill="#000000">ctype.h</text>
</g>
<!-- Node1&#45;&gt;Node10 -->
<g id="edge10" class="edge">
<title>Node1&#45;&gt;Node10</title>
<path fill="none" stroke="#191970" d="M1147.5612,-226.576C1091.1614,-220.9723 969.5568,-207.1761 869.1154,-184 790.5001,-165.8601 772.765,-154.1847 696.1154,-129 671.1463,-120.7959 665.3861,-117.2221 640.1154,-110 575.5675,-91.5528 555.885,-91.6756 487.5594,-74.27"/>
<polygon fill="#191970" stroke="#191970" points="488.1433,-70.806 477.5858,-71.6939 486.3927,-77.5836 488.1433,-70.806"/>
</g>
<!-- Node11 -->
<g id="node12" class="node">
<title>Node11</title>
<polygon fill="#ffffff" stroke="#bfbfbf" points="495.2731,-55.5 495.2731,-73.5 542.9577,-73.5 542.9577,-55.5 495.2731,-55.5"/>
<text text-anchor="middle" x="519.1154" y="-61.5" font-family="Helvetica,sans-Serif" font-size="10.00" fill="#000000">errno.h</text>
</g>
<!-- Node1&#45;&gt;Node11 -->
<g id="edge11" class="edge">
<title>Node1&#45;&gt;Node11</title>
<path fill="none" stroke="#191970" d="M1147.5667,-224.5926C1101.6181,-217.1976 1013.7367,-202.1173 940.1154,-184 830.0764,-156.9207 805.3648,-140.1073 696.1154,-110 635.1015,-93.1856 616.8712,-91.5749 552.9655,-74.4226"/>
<polygon fill="#191970" stroke="#191970" points="553.7621,-71.0123 543.1948,-71.7755 551.9316,-77.7688 553.7621,-71.0123"/>
</g>
<!-- Node12 -->
<g id="node13" class="node">
<title>Node12</title>
<polygon fill="#ffffff" stroke="#bfbfbf" points="560.4997,-55.5 560.4997,-73.5 603.7311,-73.5 603.7311,-55.5 560.4997,-55.5"/>
<text text-anchor="middle" x="582.1154" y="-61.5" font-family="Helvetica,sans-Serif" font-size="10.00" fill="#000000">time.h</text>
</g>
<!-- Node1&#45;&gt;Node12 -->
<g id="edge12" class="edge">
<title>Node1&#45;&gt;Node12</title>
<path fill="none" stroke="#191970" d="M1147.4349,-225.4282C1106.8953,-219.5332 1034.9937,-206.7535 977.1154,-184 946.7165,-172.0494 880.9183,-120.8672 850.1154,-110 752.6849,-75.6267 719.0329,-96.326 614.0669,-73.8801"/>
<polygon fill="#191970" stroke="#191970" points="614.5447,-70.4009 604.0236,-71.6487 613.0265,-77.2343 614.5447,-70.4009"/>
</g>
<!-- Node13 -->
<g id="node14" class="node">
<title>Node13</title>
<polygon fill="#ffffff" stroke="#bfbfbf" points="621.7756,-55.5 621.7756,-73.5 664.4553,-73.5 664.4553,-55.5 621.7756,-55.5"/>
<text text-anchor="middle" x="643.1154" y="-61.5" font-family="Helvetica,sans-Serif" font-size="10.00" fill="#000000">fcntl.h</text>
</g>
<!-- Node1&#45;&gt;Node13 -->
<g id="edge13" class="edge">
<title>Node1&#45;&gt;Node13</title>
<path fill="none" stroke="#191970" d="M1147.4717,-223.5972C1113.2247,-216.591 1057.4336,-203.3639 1012.1154,-184 982.7822,-171.4663 919.0389,-121.0506 889.1154,-110 801.158,-77.5179 770.3988,-95.0208 674.4981,-73.7656"/>
<polygon fill="#191970" stroke="#191970" points="675.2267,-70.3419 664.6964,-71.5101 673.6568,-77.1636 675.2267,-70.3419"/>
</g>
<!-- Node14 -->
<g id="node15" class="node">
<title>Node14</title>
<polygon fill="#ffffff" stroke="#bfbfbf" points="682.8815,-55.5 682.8815,-73.5 733.3493,-73.5 733.3493,-55.5 682.8815,-55.5"/>
<text text-anchor="middle" x="708.1154" y="-61.5" font-family="Helvetica,sans-Serif" font-size="10.00" fill="#000000">signal.h</text>
</g>
<!-- Node1&#45;&gt;Node14 -->
<g id="edge14" class="edge">
<title>Node1&#45;&gt;Node14</title>
<path fill="none" stroke="#191970" d="M1147.6673,-220.6571C1120.6537,-212.5754 1080.9826,-199.537 1048.1154,-184 991.1248,-157.0593 985.8747,-132.827 927.1154,-110 851.9333,-80.7931 825.5876,-92.336 743.4316,-74.1221"/>
<polygon fill="#191970" stroke="#191970" points="744.2081,-70.7094 733.6781,-71.8796 742.6396,-77.5314 744.2081,-70.7094"/>
</g>
<!-- Node15 -->
<g id="node16" class="node">
<title>Node15</title>
<polygon fill="#ffffff" stroke="#bfbfbf" points="1269.6105,-.5 1269.6105,-18.5 1330.6203,-18.5 1330.6203,-.5 1269.6105,-.5"/>
<text text-anchor="middle" x="1300.1154" y="-6.5" font-family="Helvetica,sans-Serif" font-size="10.00" fill="#000000">sys/time.h</text>
</g>
<!-- Node1&#45;&gt;Node15 -->
<g id="edge15" class="edge">
<title>Node1&#45;&gt;Node15</title>
<path fill="none" stroke="#191970" d="M1210.5867,-228.7068C1310.7489,-225.9239 1631.0034,-215.0337 1894.1154,-184 2036.5597,-167.1989 2073.9411,-167.4774 2212.1154,-129 2276.9153,-110.9552 2315.1656,-129.5379 2353.1154,-74 2357.8796,-67.0278 2358.9741,-61.0815 2353.1154,-55 2315.9333,-16.4035 1442.5701,-22.8464 1389.1154,-19 1373.3741,-17.8673 1356.1149,-16.1381 1341.0196,-14.464"/>
<polygon fill="#191970" stroke="#191970" points="1341.2911,-10.9724 1330.9601,-13.3218 1340.5014,-17.9277 1341.2911,-10.9724"/>
</g>
<!-- Node16 -->
<g id="node17" class="node">
<title>Node16</title>
<polygon fill="#ffffff" stroke="#bfbfbf" points="750.9972,-55.5 750.9972,-73.5 809.2336,-73.5 809.2336,-55.5 750.9972,-55.5"/>
<text text-anchor="middle" x="780.1154" y="-61.5" font-family="Helvetica,sans-Serif" font-size="10.00" fill="#000000">sys/stat.h</text>
</g>
<!-- Node1&#45;&gt;Node16 -->
<g id="edge16" class="edge">
<title>Node1&#45;&gt;Node16</title>
<path fill="none" stroke="#191970" d="M1156.5289,-220.4814C1136.0847,-212.0023 1105.3934,-198.4777 1080.1154,-184 1030.2582,-155.4449 1026.6212,-133.3299 974.1154,-110 912.011,-82.4051 889.3453,-89.8516 819.7078,-74.2743"/>
<polygon fill="#191970" stroke="#191970" points="820.0935,-70.7708 809.5609,-71.9175 818.5097,-77.5893 820.0935,-70.7708"/>
</g>
<!-- Node17 -->
<g id="node18" class="node">
<title>Node17</title>
<polygon fill="#ffffff" stroke="#bfbfbf" points="827.1056,-55.5 827.1056,-73.5 893.1252,-73.5 893.1252,-55.5 827.1056,-55.5"/>
<text text-anchor="middle" x="860.1154" y="-61.5" font-family="Helvetica,sans-Serif" font-size="10.00" fill="#000000">sys/types.h</text>
</g>
<!-- Node1&#45;&gt;Node17 -->
<g id="edge17" class="edge">
<title>Node1&#45;&gt;Node17</title>
<path fill="none" stroke="#191970" d="M1162.7948,-220.3992C1147.4978,-211.6538 1124.1918,-197.7701 1105.1154,-184 1063.6811,-154.0909 1062.1886,-134.0784 1017.1154,-110 997.4279,-99.4828 942.6547,-84.7107 903.3484,-74.8839"/>
<polygon fill="#191970" stroke="#191970" points="904.0169,-71.4438 893.4687,-72.4362 902.3335,-78.2384 904.0169,-71.4438"/>
</g>
<!-- Node18 -->
<g id="node19" class="node">
<title>Node18</title>
<polygon fill="#ffffff" stroke="#bfbfbf" points="911.1647,-55.5 911.1647,-73.5 971.0661,-73.5 971.0661,-55.5 911.1647,-55.5"/>
<text text-anchor="middle" x="941.1154" y="-61.5" font-family="Helvetica,sans-Serif" font-size="10.00" fill="#000000">sys/ioctl.h</text>
</g>
<!-- Node1&#45;&gt;Node18 -->
<g id="edge18" class="edge">
<title>Node1&#45;&gt;Node18</title>
<path fill="none" stroke="#191970" d="M1167.5833,-220.4922C1156.3944,-211.5904 1139.103,-197.3988 1125.1154,-184 1092.8601,-153.1025 1093.9619,-135.2467 1057.1154,-110 1034.0055,-94.1654 1004.5926,-82.7078 981.1673,-75.2509"/>
<polygon fill="#191970" stroke="#191970" points="982.1169,-71.8813 971.5303,-72.2989 980.0667,-78.5743 982.1169,-71.8813"/>
</g>
<!-- Node19 -->
<g id="node20" class="node">
<title>Node19</title>
<polygon fill="#ffffff" stroke="#bfbfbf" points="988.6056,-55.5 988.6056,-73.5 1059.6252,-73.5 1059.6252,-55.5 988.6056,-55.5"/>
<text text-anchor="middle" x="1024.1154" y="-61.5" font-family="Helvetica,sans-Serif" font-size="10.00" fill="#000000">sys/socket.h</text>
</g>
<!-- Node1&#45;&gt;Node19 -->
<g id="edge19" class="edge">
<title>Node1&#45;&gt;Node19</title>
<path fill="none" stroke="#191970" d="M1170.5884,-220.4518C1162.3605,-211.5199 1149.7666,-197.3069 1140.1154,-184 1117.5158,-152.8402 1122.0114,-137.537 1095.1154,-110 1082.6121,-97.1987 1065.8632,-86.2492 1051.7731,-78.3015"/>
<polygon fill="#191970" stroke="#191970" points="1053.4276,-75.2173 1042.9691,-73.5229 1050.0883,-81.3694 1053.4276,-75.2173"/>
</g>
<!-- Node20 -->
<g id="node21" class="node">
<title>Node20</title>
<polygon fill="#ffffff" stroke="#bfbfbf" points="1503.4948,-55.5 1503.4948,-73.5 1576.736,-73.5 1576.736,-55.5 1503.4948,-55.5"/>
<text text-anchor="middle" x="1540.1154" y="-61.5" font-family="Helvetica,sans-Serif" font-size="10.00" fill="#000000">sys/sysinfo.h</text>
</g>
<!-- Node1&#45;&gt;Node20 -->
<g id="edge20" class="edge">
<title>Node1&#45;&gt;Node20</title>
<path fill="none" stroke="#191970" d="M1203.1159,-220.3678C1226.1231,-211.4888 1261.7426,-197.4149 1292.1154,-184 1373.576,-148.0209 1467.8351,-101.1102 1513.1078,-78.241"/>
<polygon fill="#191970" stroke="#191970" points="1514.9167,-81.2483 1522.2578,-73.6091 1511.7551,-75.0029 1514.9167,-81.2483"/>
</g>
<!-- Node21 -->
<g id="node22" class="node">
<title>Node21</title>
<polygon fill="#ffffff" stroke="#bfbfbf" points="1594.4875,-55.5 1594.4875,-73.5 1657.7433,-73.5 1657.7433,-55.5 1594.4875,-55.5"/>
<text text-anchor="middle" x="1626.1154" y="-61.5" font-family="Helvetica,sans-Serif" font-size="10.00" fill="#000000">arpa/inet.h</text>
</g>
<!-- Node1&#45;&gt;Node21 -->
<g id="edge21" class="edge">
<title>Node1&#45;&gt;Node21</title>
<path fill="none" stroke="#191970" d="M1210.6075,-220.5347C1240.5342,-211.8312 1286.6939,-197.928 1326.1154,-184 1425.8916,-148.7481 1541.6242,-100.5158 1595.5422,-77.6083"/>
<polygon fill="#191970" stroke="#191970" points="1597.0438,-80.773 1604.8728,-73.6345 1594.301,-74.3328 1597.0438,-80.773"/>
</g>
<!-- Node22 -->
<g id="node23" class="node">
<title>Node22</title>
<polygon fill="#ffffff" stroke="#bfbfbf" points="1675.6525,-55.5 1675.6525,-73.5 1740.5783,-73.5 1740.5783,-55.5 1675.6525,-55.5"/>
<text text-anchor="middle" x="1708.1154" y="-61.5" font-family="Helvetica,sans-Serif" font-size="10.00" fill="#000000">netinet/in.h</text>
</g>
<!-- Node1&#45;&gt;Node22 -->
<g id="edge22" class="edge">
<title>Node1&#45;&gt;Node22</title>
<path fill="none" stroke="#191970" d="M1210.7795,-222.6571C1247.8114,-214.4368 1310.8337,-199.7695 1364.1154,-184 1479.8303,-149.7525 1614.2279,-100.1423 1675.12,-77.1173"/>
<polygon fill="#191970" stroke="#191970" points="1676.4809,-80.3445 1684.5903,-73.5263 1673.999,-73.7992 1676.4809,-80.3445"/>
</g>
<!-- Node23 -->
<g id="node24" class="node">
<title>Node23</title>
<polygon fill="#ffffff" stroke="#bfbfbf" points="1758.2585,-55.5 1758.2585,-73.5 1835.9723,-73.5 1835.9723,-55.5 1758.2585,-55.5"/>
<text text-anchor="middle" x="1797.1154" y="-61.5" font-family="Helvetica,sans-Serif" font-size="10.00" fill="#000000">net/ethernet.h</text>
</g>
<!-- Node1&#45;&gt;Node23 -->
<g id="edge23" class="edge">
<title>Node1&#45;&gt;Node23</title>
<path fill="none" stroke="#191970" d="M1210.5938,-224.3364C1255.1086,-216.7939 1338.8612,-201.7173 1409.1154,-184 1540.4289,-150.8842 1693.1928,-100.163 1761.2396,-76.9174"/>
<polygon fill="#191970" stroke="#191970" points="1762.7095,-80.1136 1771.0349,-73.5608 1760.4403,-73.4916 1762.7095,-80.1136"/>
</g>
<!-- Node24 -->
<g id="node25" class="node">
<title>Node24</title>
<polygon fill="#ffffff" stroke="#bfbfbf" points="1853.6525,-55.5 1853.6525,-73.5 1918.5783,-73.5 1918.5783,-55.5 1853.6525,-55.5"/>
<text text-anchor="middle" x="1886.1154" y="-61.5" font-family="Helvetica,sans-Serif" font-size="10.00" fill="#000000">netinet/ip.h</text>
</g>
<!-- Node1&#45;&gt;Node24 -->
<g id="edge24" class="edge">
<title>Node1&#45;&gt;Node24</title>
<path fill="none" stroke="#191970" d="M1210.7118,-225.5073C1262.6573,-218.6842 1369.2112,-203.5976 1458.1154,-184 1603.8231,-151.8809 1773.6539,-100.0876 1847.9957,-76.6792"/>
<polygon fill="#191970" stroke="#191970" points="1849.3582,-79.9194 1857.8394,-73.5696 1847.2496,-73.2445 1849.3582,-79.9194"/>
</g>
<!-- Node25 -->
<g id="node26" class="node">
<title>Node25</title>
<polygon fill="#ffffff" stroke="#bfbfbf" points="1936.8742,-55.5 1936.8742,-73.5 2007.3566,-73.5 2007.3566,-55.5 1936.8742,-55.5"/>
<text text-anchor="middle" x="1972.1154" y="-61.5" font-family="Helvetica,sans-Serif" font-size="10.00" fill="#000000">netinet/tcp.h</text>
</g>
<!-- Node1&#45;&gt;Node25 -->
<g id="edge25" class="edge">
<title>Node1&#45;&gt;Node25</title>
<path fill="none" stroke="#191970" d="M1210.8093,-226.3865C1269.9814,-220.2988 1401.1368,-205.5083 1510.1154,-184 1668.3466,-152.7711 1853.0892,-99.9339 1932.521,-76.4112"/>
<polygon fill="#191970" stroke="#191970" points="1933.5356,-79.761 1942.1246,-73.5578 1931.5419,-73.0509 1933.5356,-79.761"/>
</g>
<!-- Node26 -->
<g id="node27" class="node">
<title>Node26</title>
<polygon fill="#ffffff" stroke="#bfbfbf" points="2025.3151,-55.5 2025.3151,-73.5 2116.9157,-73.5 2116.9157,-55.5 2025.3151,-55.5"/>
<text text-anchor="middle" x="2071.1154" y="-61.5" font-family="Helvetica,sans-Serif" font-size="10.00" fill="#000000">netinet/ip_icmp.h</text>
</g>
<!-- Node1&#45;&gt;Node26 -->
<g id="edge26" class="edge">
<title>Node1&#45;&gt;Node26</title>
<path fill="none" stroke="#191970" d="M1210.5642,-227.0231C1276.5944,-221.5528 1434.3718,-207.0661 1565.1154,-184 1738.9054,-153.3396 1942.3699,-99.8121 2028.8208,-76.2277"/>
<polygon fill="#191970" stroke="#191970" points="2029.8088,-79.5861 2038.5302,-73.5704 2027.961,-72.8344 2029.8088,-79.5861"/>
</g>
<!-- Node27 -->
<g id="node28" class="node">
<title>Node27</title>
<g id="a_node28"><a xlink:href="mac2int_8h.html" target="_top" xlink:title="mac2int.h">
<polygon fill="#ffffff" stroke="#000000" points="1149.4382,-165.5 1149.4382,-183.5 1208.7927,-183.5 1208.7927,-165.5 1149.4382,-165.5"/>
<text text-anchor="middle" x="1179.1154" y="-171.5" font-family="Helvetica,sans-Serif" font-size="10.00" fill="#000000">mac2int.h</text>
</a>
</g>
</g>
<!-- Node1&#45;&gt;Node27 -->
<g id="edge27" class="edge">
<title>Node1&#45;&gt;Node27</title>
<path fill="none" stroke="#191970" d="M1179.1154,-220.4179C1179.1154,-213.2164 1179.1154,-202.8962 1179.1154,-193.8632"/>
<polygon fill="#191970" stroke="#191970" points="1182.6155,-193.7794 1179.1154,-183.7795 1175.6155,-193.7795 1182.6155,-193.7794"/>
</g>
<!-- Node29 -->
<g id="node30" class="node">
<title>Node29</title>
<g id="a_node30"><a xlink:href="ip2int_8h.html" target="_top" xlink:title="ip2int.h">
<polygon fill="#ffffff" stroke="#000000" points="1353.9924,-55.5 1353.9924,-73.5 1402.2385,-73.5 1402.2385,-55.5 1353.9924,-55.5"/>
<text text-anchor="middle" x="1378.1154" y="-61.5" font-family="Helvetica,sans-Serif" font-size="10.00" fill="#000000">ip2int.h</text>
</a>
</g>
</g>
<!-- Node1&#45;&gt;Node29 -->
<g id="edge69" class="edge">
<title>Node1&#45;&gt;Node29</title>
<path fill="none" stroke="#191970" d="M1190.9771,-220.1772C1202.5568,-211.0418 1220.6429,-196.6823 1236.1154,-184 1280.8622,-147.3225 1332.7002,-103.3038 1359.6658,-80.2881"/>
<polygon fill="#191970" stroke="#191970" points="1362.1768,-82.7463 1367.5063,-73.5894 1357.6298,-77.4241 1362.1768,-82.7463"/>
</g>
<!-- Node30 -->
<g id="node31" class="node">
<title>Node30</title>
<g id="a_node31"><a xlink:href="database_8h.html" target="_top" xlink:title="database.h">
<polygon fill="#ffffff" stroke="#000000" points="1420.3718,-55.5 1420.3718,-73.5 1485.8591,-73.5 1485.8591,-55.5 1420.3718,-55.5"/>
<text text-anchor="middle" x="1453.1154" y="-61.5" font-family="Helvetica,sans-Serif" font-size="10.00" fill="#000000">database.h</text>
</a>
</g>
</g>
<!-- Node1&#45;&gt;Node30 -->
<g id="edge70" class="edge">
<title>Node1&#45;&gt;Node30</title>
<path fill="none" stroke="#191970" d="M1196.4456,-220.3747C1213.3502,-211.3857 1239.717,-197.1315 1262.1154,-184 1323.7567,-147.8616 1394.6821,-102.4498 1430.2545,-79.4005"/>
<polygon fill="#191970" stroke="#191970" points="1432.4306,-82.1607 1438.9121,-73.7797 1428.6188,-76.2895 1432.4306,-82.1607"/>
</g>
<!-- Node32 -->
<g id="node33" class="node">
<title>Node32</title>
<polygon fill="#ffffff" stroke="#bfbfbf" points="2134.7116,-55.5 2134.7116,-73.5 2193.5192,-73.5 2193.5192,-55.5 2134.7116,-55.5"/>
<text text-anchor="middle" x="2164.1154" y="-61.5" font-family="Helvetica,sans-Serif" font-size="10.00" fill="#000000">jansson.h</text>
</g>
<!-- Node1&#45;&gt;Node32 -->
<g id="edge71" class="edge">
<title>Node1&#45;&gt;Node32</title>
<path fill="none" stroke="#191970" d="M1210.5642,-227.5024C1283.5488,-222.6013 1469.9631,-208.5571 1624.1154,-184 1737.7533,-165.897 1764.7119,-153.6318 1877.1154,-129 1984.6874,-105.427 2014.1456,-100.2544 2124.7911,-74.2708"/>
<polygon fill="#191970" stroke="#191970" points="2125.7439,-77.6423 2134.6765,-71.9449 2124.1406,-70.8283 2125.7439,-77.6423"/>
</g>
<!-- Node33 -->
<g id="node34" class="node">
<title>Node33</title>
<g id="a_node34"><a xlink:href="libcli_8h.html" target="_top" xlink:title="libcli.h">
<polygon fill="#ffffff" stroke="#000000" points="1216.2214,-55.5 1216.2214,-73.5 1260.0095,-73.5 1260.0095,-55.5 1216.2214,-55.5"/>
<text text-anchor="middle" x="1238.1154" y="-61.5" font-family="Helvetica,sans-Serif" font-size="10.00" fill="#000000">libcli.h</text>
</a>
</g>
</g>
<!-- Node1&#45;&gt;Node33 -->
<g id="edge72" class="edge">
<title>Node1&#45;&gt;Node33</title>
<path fill="none" stroke="#191970" d="M1189.5247,-220.4992C1198.596,-212.032 1211.3312,-198.5149 1218.1154,-184 1233.4937,-151.0981 1237.2259,-108.2202 1238.0261,-83.7887"/>
<polygon fill="#191970" stroke="#191970" points="1241.5274,-83.7472 1238.2203,-73.6818 1234.5287,-83.6127 1241.5274,-83.7472"/>
</g>
<!-- Node34 -->
<g id="node35" class="node">
<title>Node34</title>
<polygon fill="#ffffff" stroke="#bfbfbf" points="2211.8889,-55.5 2211.8889,-73.5 2262.342,-73.5 2262.342,-55.5 2211.8889,-55.5"/>
<text text-anchor="middle" x="2237.1154" y="-61.5" font-family="Helvetica,sans-Serif" font-size="10.00" fill="#000000">mysql.h</text>
</g>
<!-- Node1&#45;&gt;Node34 -->
<g id="edge73" class="edge">
<title>Node1&#45;&gt;Node34</title>
<path fill="none" stroke="#191970" d="M1210.5509,-228.0232C1290.5981,-223.9742 1508.4999,-211.1445 1688.1154,-184 1915.8387,-149.5851 1973.4598,-129.6329 2201.605,-74.0311"/>
<polygon fill="#191970" stroke="#191970" points="2202.6535,-77.3782 2211.5424,-71.613 2200.9984,-70.5766 2202.6535,-77.3782"/>
</g>
<!-- Node35 -->
<g id="node36" class="node">
<title>Node35</title>
<polygon fill="#ffffff" stroke="#bfbfbf" points="2280.4997,-55.5 2280.4997,-73.5 2323.7311,-73.5 2323.7311,-55.5 2280.4997,-55.5"/>
<text text-anchor="middle" x="2302.1154" y="-61.5" font-family="Helvetica,sans-Serif" font-size="10.00" fill="#000000">zmq.h</text>
</g>
<!-- Node1&#45;&gt;Node35 -->
<g id="edge74" class="edge">
<title>Node1&#45;&gt;Node35</title>
<path fill="none" stroke="#191970" d="M1210.6388,-228.3419C1297.9837,-224.849 1550.3787,-212.8318 1758.1154,-184 1881.5747,-166.8651 1911.2698,-155.2573 2033.1154,-129 2136.1354,-106.7996 2164.6105,-102.3942 2270.6719,-73.9784"/>
<polygon fill="#191970" stroke="#191970" points="2271.7427,-77.3149 2280.4912,-71.3388 2269.9254,-70.5549 2271.7427,-77.3149"/>
</g>
<!-- Node37 -->
<g id="node38" class="node">
<title>Node37</title>
<g id="a_node38"><a xlink:href="ext__comps_2shim_2include_2type_8h.html" target="_top" xlink:title="type.h">
<polygon fill="#ffffff" stroke="#000000" points="2418.4948,-165.5 2418.4948,-183.5 2461.736,-183.5 2461.736,-165.5 2418.4948,-165.5"/>
<text text-anchor="middle" x="2440.1154" y="-171.5" font-family="Helvetica,sans-Serif" font-size="10.00" fill="#000000">type.h</text>
</a>
</g>
</g>
<!-- Node1&#45;&gt;Node37 -->
<g id="edge75" class="edge">
<title>Node1&#45;&gt;Node37</title>
<path fill="none" stroke="#191970" d="M1210.7082,-229.2708C1378.214,-227.9125 2163.874,-219.7112 2404.1154,-184 2405.4101,-183.8075 2406.7253,-183.5861 2408.0495,-183.3414"/>
<polygon fill="#191970" stroke="#191970" points="2409.178,-186.6769 2418.191,-181.1078 2407.6723,-179.8407 2409.178,-186.6769"/>
</g>
<!-- Node28 -->
<g id="node29" class="node">
<title>Node28</title>
<g id="a_node29"><a xlink:href="src_2include_2common_8h.html" target="_top" xlink:title="common.h">
<polygon fill="#ffffff" stroke="#000000" points="1147.7731,-110.5 1147.7731,-128.5 1210.4577,-128.5 1210.4577,-110.5 1147.7731,-110.5"/>
<text text-anchor="middle" x="1179.1154" y="-116.5" font-family="Helvetica,sans-Serif" font-size="10.00" fill="#000000">common.h</text>
</a>
</g>
</g>
<!-- Node27&#45;&gt;Node28 -->
<g id="edge28" class="edge">
<title>Node27&#45;&gt;Node28</title>
<path fill="none" stroke="#191970" d="M1173.9491,-165.4179C1172.4575,-158.2164 1172.0196,-147.8962 1172.6352,-138.8632"/>
<polygon fill="#191970" stroke="#191970" points="1176.1281,-139.1392 1173.9086,-128.7795 1169.1832,-138.2621 1176.1281,-139.1392"/>
</g>
<!-- Node28&#45;&gt;Node2 -->
<g id="edge29" class="edge">
<title>Node28&#45;&gt;Node2</title>
<path fill="none" stroke="#191970" d="M1156.5264,-110.4356C1140.5386,-102.9223 1119.7699,-90.7556 1107.1154,-74 1097.2219,-60.9001 1092.4645,-42.7294 1090.1859,-29.0118"/>
<polygon fill="#191970" stroke="#191970" points="1093.6061,-28.1856 1088.7965,-18.7453 1086.6693,-29.1244 1093.6061,-28.1856"/>
</g>
<!-- Node28&#45;&gt;Node3 -->
<g id="edge30" class="edge">
<title>Node28&#45;&gt;Node3</title>
<path fill="none" stroke="#191970" d="M1147.5274,-119.1862C992.3016,-117.4961 308.7627,-108.2967 75.0875,-73.9373"/>
<polygon fill="#191970" stroke="#191970" points="75.3819,-70.4417 64.9674,-72.3882 74.3227,-77.3611 75.3819,-70.4417"/>
</g>
<!-- Node28&#45;&gt;Node4 -->
<g id="edge31" class="edge">
<title>Node28&#45;&gt;Node4</title>
<path fill="none" stroke="#191970" d="M1147.6686,-119.1258C998.5272,-117.2007 360.9172,-107.2418 140.3024,-73.7338"/>
<polygon fill="#191970" stroke="#191970" points="140.5402,-70.2279 130.1158,-72.1203 139.4451,-77.1417 140.5402,-70.2279"/>
</g>
<!-- Node28&#45;&gt;Node5 -->
<g id="edge32" class="edge">
<title>Node28&#45;&gt;Node5</title>
<path fill="none" stroke="#191970" d="M1182.8798,-110.4982C1190.3937,-92.5302 1207.3864,-51.8954 1217.3771,-28.0046"/>
<polygon fill="#191970" stroke="#191970" points="1220.6699,-29.2023 1221.299,-18.6261 1214.2119,-26.5016 1220.6699,-29.2023"/>
</g>
<!-- Node28&#45;&gt;Node6 -->
<g id="edge33" class="edge">
<title>Node28&#45;&gt;Node6</title>
<path fill="none" stroke="#191970" d="M1147.546,-118.9816C1004.2896,-116.4849 413.8003,-104.6041 206.6425,-73.6048"/>
<polygon fill="#191970" stroke="#191970" points="206.9029,-70.1032 196.4826,-72.0185 205.8229,-77.0194 206.9029,-70.1032"/>
</g>
<!-- Node28&#45;&gt;Node7 -->
<g id="edge34" class="edge">
<title>Node28&#45;&gt;Node7</title>
<path fill="none" stroke="#191970" d="M1147.3754,-118.8872C1010.0245,-116.0879 465.5207,-103.4322 273.7895,-73.882"/>
<polygon fill="#191970" stroke="#191970" points="274.2703,-70.4144 263.841,-72.2795 273.1571,-77.3253 274.2703,-70.4144"/>
</g>
<!-- Node28&#45;&gt;Node8 -->
<g id="edge35" class="edge">
<title>Node28&#45;&gt;Node8</title>
<path fill="none" stroke="#191970" d="M1147.7131,-118.6449C1018.0009,-114.9833 522.8447,-99.699 345.104,-73.7777"/>
<polygon fill="#191970" stroke="#191970" points="345.5297,-70.3023 335.1166,-72.2561 344.4754,-77.2224 345.5297,-70.3023"/>
</g>
<!-- Node28&#45;&gt;Node9 -->
<g id="edge36" class="edge">
<title>Node28&#45;&gt;Node9</title>
<path fill="none" stroke="#191970" d="M1147.6756,-118.3926C1025.7794,-113.9815 583.5402,-96.8563 421.7119,-73.9263"/>
<polygon fill="#191970" stroke="#191970" points="421.8696,-70.4115 411.4645,-72.4077 420.8433,-77.3359 421.8696,-70.4115"/>
</g>
<!-- Node28&#45;&gt;Node10 -->
<g id="edge37" class="edge">
<title>Node28&#45;&gt;Node10</title>
<path fill="none" stroke="#191970" d="M1147.6191,-118.3316C1032.678,-113.9314 635.2622,-97.488 487.6743,-73.8615"/>
<polygon fill="#191970" stroke="#191970" points="487.9291,-70.3553 477.4871,-72.1481 486.768,-77.2583 487.9291,-70.3553"/>
</g>
<!-- Node28&#45;&gt;Node11 -->
<g id="edge38" class="edge">
<title>Node28&#45;&gt;Node11</title>
<path fill="none" stroke="#191970" d="M1147.5737,-118.1187C1039.8514,-113.2639 686.2512,-96.162 553.0467,-73.9689"/>
<polygon fill="#191970" stroke="#191970" points="553.5471,-70.5034 543.093,-72.2242 552.3385,-77.3982 553.5471,-70.5034"/>
</g>
<!-- Node28&#45;&gt;Node12 -->
<g id="edge39" class="edge">
<title>Node28&#45;&gt;Node12</title>
<path fill="none" stroke="#191970" d="M1147.5027,-117.8648C1047.0786,-112.5324 735.3174,-94.8815 614.0871,-73.7051"/>
<polygon fill="#191970" stroke="#191970" points="614.451,-70.2133 603.9826,-71.8447 613.1835,-77.0976 614.451,-70.2133"/>
</g>
<!-- Node28&#45;&gt;Node13 -->
<g id="edge40" class="edge">
<title>Node28&#45;&gt;Node13</title>
<path fill="none" stroke="#191970" d="M1147.7667,-118.929C1069.3778,-117.0248 858.5728,-108.9688 674.504,-73.6469"/>
<polygon fill="#191970" stroke="#191970" points="675.1353,-70.2042 664.6501,-71.7246 673.7949,-77.0746 675.1353,-70.2042"/>
</g>
<!-- Node28&#45;&gt;Node14 -->
<g id="edge41" class="edge">
<title>Node28&#45;&gt;Node14</title>
<path fill="none" stroke="#191970" d="M1147.5872,-118.0442C1076.8701,-114.3905 900.166,-103.0984 743.8885,-74.064"/>
<polygon fill="#191970" stroke="#191970" points="744.1014,-70.5424 733.6256,-72.1258 742.8024,-77.4208 744.1014,-70.5424"/>
</g>
<!-- Node28&#45;&gt;Node15 -->
<g id="edge42" class="edge">
<title>Node28&#45;&gt;Node15</title>
<path fill="none" stroke="#191970" d="M1208.0728,-110.4089C1227.3712,-103.1289 1252.2029,-91.2552 1269.1154,-74 1281.7282,-61.1316 1289.9996,-42.1423 1294.8005,-28.0975"/>
<polygon fill="#191970" stroke="#191970" points="1298.1561,-29.0937 1297.8097,-18.5046 1291.477,-26.9985 1298.1561,-29.0937"/>
</g>
<!-- Node28&#45;&gt;Node16 -->
<g id="edge43" class="edge">
<title>Node28&#45;&gt;Node16</title>
<path fill="none" stroke="#191970" d="M1147.5317,-116.8006C1086.1236,-111.2777 946.2222,-97.3533 819.3825,-74.0544"/>
<polygon fill="#191970" stroke="#191970" points="819.9691,-70.6036 809.4974,-72.2144 818.688,-77.4853 819.9691,-70.6036"/>
</g>
<!-- Node28&#45;&gt;Node17 -->
<g id="edge44" class="edge">
<title>Node28&#45;&gt;Node17</title>
<path fill="none" stroke="#191970" d="M1147.4341,-114.9247C1097.6218,-107.5948 997.7394,-92.3489 903.5266,-74.1897"/>
<polygon fill="#191970" stroke="#191970" points="904.032,-70.7225 893.548,-72.2511 902.697,-77.594 904.032,-70.7225"/>
</g>
<!-- Node28&#45;&gt;Node18 -->
<g id="edge45" class="edge">
<title>Node28&#45;&gt;Node18</title>
<path fill="none" stroke="#191970" d="M1147.545,-112.5356C1110.015,-104.2089 1045.2388,-89.6875 981.2316,-74.4762"/>
<polygon fill="#191970" stroke="#191970" points="981.9232,-71.043 971.3841,-72.1289 980.3,-77.8523 981.9232,-71.043"/>
</g>
<!-- Node28&#45;&gt;Node19 -->
<g id="edge46" class="edge">
<title>Node28&#45;&gt;Node19</title>
<path fill="none" stroke="#191970" d="M1153.5203,-110.4179C1127.7533,-101.2748 1087.8193,-87.1046 1059.1286,-76.924"/>
<polygon fill="#191970" stroke="#191970" points="1060.0857,-73.5499 1049.4909,-73.5042 1057.7447,-80.1469 1060.0857,-73.5499"/>
</g>
<!-- Node28&#45;&gt;Node20 -->
<g id="edge47" class="edge">
<title>Node28&#45;&gt;Node20</title>
<path fill="none" stroke="#191970" d="M1210.6198,-115.6537C1265.9138,-108.7542 1384.2237,-93.3294 1493.4532,-74.213"/>
<polygon fill="#191970" stroke="#191970" points="1494.077,-77.6571 1503.3164,-72.4722 1492.8603,-70.7637 1494.077,-77.6571"/>
</g>
<!-- Node28&#45;&gt;Node21 -->
<g id="edge48" class="edge">
<title>Node28&#45;&gt;Node21</title>
<path fill="none" stroke="#191970" d="M1210.7055,-117.2868C1277.8341,-112.3022 1439.755,-98.7861 1584.3712,-74.1394"/>
<polygon fill="#191970" stroke="#191970" points="1585.0525,-77.5736 1594.311,-72.4228 1583.8612,-70.6757 1585.0525,-77.5736"/>
</g>
<!-- Node28&#45;&gt;Node22 -->
<g id="edge49" class="edge">
<title>Node28&#45;&gt;Node22</title>
<path fill="none" stroke="#191970" d="M1210.7017,-118.0319C1287.191,-114.1627 1488.5216,-102.1023 1665.5092,-74.0766"/>
<polygon fill="#191970" stroke="#191970" points="1666.2012,-77.5104 1675.5202,-72.4699 1665.0919,-70.5989 1666.2012,-77.5104"/>
</g>
<!-- Node28&#45;&gt;Node23 -->
<g id="edge50" class="edge">
<title>Node28&#45;&gt;Node23</title>
<path fill="none" stroke="#191970" d="M1210.7684,-118.2602C1295.9663,-114.6503 1537.3657,-102.6234 1748.1338,-73.981"/>
<polygon fill="#191970" stroke="#191970" points="1748.7163,-77.434 1758.1464,-72.6045 1747.7629,-70.4992 1748.7163,-77.434"/>
</g>
<!-- Node28&#45;&gt;Node24 -->
<g id="edge51" class="edge">
<title>Node28&#45;&gt;Node24</title>
<path fill="none" stroke="#191970" d="M1210.5144,-119.1289C1304.9829,-117.6383 1594.8952,-110.3294 1843.5869,-74.0148"/>
<polygon fill="#191970" stroke="#191970" points="1844.1515,-77.4695 1853.5316,-72.5438 1843.1271,-70.5448 1844.1515,-77.4695"/>
</g>
<!-- Node28&#45;&gt;Node25 -->
<g id="edge52" class="edge">
<title>Node28&#45;&gt;Node25</title>
<path fill="none" stroke="#191970" d="M1210.6305,-119.2404C1312.6778,-118.0508 1643.3361,-111.465 1926.7657,-73.8151"/>
<polygon fill="#191970" stroke="#191970" points="1927.3832,-77.2637 1936.8278,-72.4626 1926.4506,-70.326 1927.3832,-77.2637"/>
</g>
<!-- Node28&#45;&gt;Node26 -->
<g id="edge53" class="edge">
<title>Node28&#45;&gt;Node26</title>
<path fill="none" stroke="#191970" d="M1210.7705,-119.109C1320.5609,-117.4732 1695.2403,-109.5563 2014.8644,-74.0012"/>
<polygon fill="#191970" stroke="#191970" points="2015.7103,-77.4282 2025.2568,-72.8331 2014.9284,-70.472 2015.7103,-77.4282"/>
</g>
<!-- Node28&#45;&gt;Node27 -->
<g id="edge54" class="edge">
<title>Node28&#45;&gt;Node27</title>
<path fill="none" stroke="#191970" d="M1184.3222,-128.7795C1185.7946,-136.0373 1186.2134,-146.3738 1185.5786,-155.383"/>
<polygon fill="#191970" stroke="#191970" points="1182.0924,-155.0517 1184.2817,-165.4179 1189.0346,-155.949 1182.0924,-155.0517"/>
</g>
<!-- Node28&#45;&gt;Node29 -->
<g id="edge55" class="edge">
<title>Node28&#45;&gt;Node29</title>
<path fill="none" stroke="#191970" d="M1206.8099,-110.4179C1242.8274,-99.8589 1305.3682,-82.5953 1344.1839,-72.5149"/>
<polygon fill="#191970" stroke="#191970" points="1345.1723,-75.8747 1353.9856,-69.9945 1343.429,-69.0952 1345.1723,-75.8747"/>
</g>
<!-- Node28&#45;&gt;Node30 -->
<g id="edge57" class="edge">
<title>Node28&#45;&gt;Node30</title>
<path fill="none" stroke="#191970" d="M1210.592,-112.4251C1253.9381,-103.7482 1333.8435,-88.4129 1402.1154,-74 1404.7007,-73.4542 1407.3727,-72.8781 1410.0818,-72.2903"/>
<polygon fill="#191970" stroke="#191970" points="1410.9363,-75.6864 1419.9662,-70.1447 1409.4513,-68.8458 1410.9363,-75.6864"/>
</g>
<!-- Node28&#45;&gt;Node32 -->
<g id="edge61" class="edge">
<title>Node28&#45;&gt;Node32</title>
<path fill="none" stroke="#191970" d="M1210.7767,-118.8171C1351.7104,-115.6511 1923.5208,-101.4375 2124.2276,-73.9733"/>
<polygon fill="#191970" stroke="#191970" points="2124.9503,-77.4057 2134.3559,-72.5287 2123.9619,-70.4758 2124.9503,-77.4057"/>
</g>
<!-- Node28&#45;&gt;Node33 -->
<g id="edge62" class="edge">
<title>Node28&#45;&gt;Node33</title>
<path fill="none" stroke="#191970" d="M1188.8581,-110.4179C1197.5171,-102.3458 1210.3794,-90.3556 1220.7891,-80.6517"/>
<polygon fill="#191970" stroke="#191970" points="1223.233,-83.1584 1228.1611,-73.7795 1218.4598,-78.0381 1223.233,-83.1584"/>
</g>
<!-- Node28&#45;&gt;Node34 -->
<g id="edge66" class="edge">
<title>Node28&#45;&gt;Node34</title>
<path fill="none" stroke="#191970" d="M1210.7845,-119.0319C1358.8145,-116.7026 1984.0935,-105.2601 2201.5962,-73.6332"/>
<polygon fill="#191970" stroke="#191970" points="2202.2785,-77.0698 2211.6417,-72.1118 2201.2303,-70.1487 2202.2785,-77.0698"/>
</g>
<!-- Node28&#45;&gt;Node35 -->
<g id="edge67" class="edge">
<title>Node28&#45;&gt;Node35</title>
<path fill="none" stroke="#191970" d="M1210.5787,-119.2729C1364.4203,-117.9999 2039.0163,-110.4949 2270.2521,-73.6167"/>
<polygon fill="#191970" stroke="#191970" points="2270.9768,-77.0444 2280.2678,-71.9524 2269.8293,-70.1391 2270.9768,-77.0444"/>
</g>
<!-- Node36 -->
<g id="node37" class="node">
<title>Node36</title>
<g id="a_node37"><a xlink:href="src_2include_2type_8h.html" target="_top" xlink:title="type.h">
<polygon fill="#ffffff" stroke="#000000" points="1116.4948,-55.5 1116.4948,-73.5 1159.736,-73.5 1159.736,-55.5 1116.4948,-55.5"/>
<text text-anchor="middle" x="1138.1154" y="-61.5" font-family="Helvetica,sans-Serif" font-size="10.00" fill="#000000">type.h</text>
</a>
</g>
</g>
<!-- Node28&#45;&gt;Node36 -->
<g id="edge68" class="edge">
<title>Node28&#45;&gt;Node36</title>
<path fill="none" stroke="#191970" d="M1172.3451,-110.4179C1166.5637,-102.6624 1158.0861,-91.29 1151.0144,-81.8035"/>
<polygon fill="#191970" stroke="#191970" points="1153.8156,-79.7051 1145.0328,-73.7795 1148.2034,-83.8888 1153.8156,-79.7051"/>
</g>
<!-- Node29&#45;&gt;Node28 -->
<g id="edge56" class="edge">
<title>Node29&#45;&gt;Node28</title>
<path fill="none" stroke="#191970" d="M1353.7499,-72.603C1320.5044,-82.4157 1260.8414,-98.9414 1220.5424,-109.5269"/>
<polygon fill="#191970" stroke="#191970" points="1219.5353,-106.1724 1210.742,-112.0825 1221.3016,-112.9459 1219.5353,-106.1724"/>
</g>
<!-- Node30&#45;&gt;Node28 -->
<g id="edge58" class="edge">
<title>Node30&#45;&gt;Node28</title>
<path fill="none" stroke="#191970" d="M1422.3284,-73.5299C1421.5853,-73.6887 1420.8469,-73.8456 1420.1154,-74 1350.5242,-88.6914 1268.8455,-104.3412 1220.5377,-112.9206"/>
<polygon fill="#191970" stroke="#191970" points="1219.704,-109.5134 1210.4609,-114.6917 1220.9159,-116.4077 1219.704,-109.5134"/>
</g>
<!-- Node31 -->
<g id="node32" class="node">
<title>Node31</title>
<g id="a_node32"><a xlink:href="str_8h.html" target="_top" xlink:title="str.h">
<polygon fill="#ffffff" stroke="#000000" points="1397.6647,-.5 1397.6647,-18.5 1432.5661,-18.5 1432.5661,-.5 1397.6647,-.5"/>
<text text-anchor="middle" x="1415.1154" y="-6.5" font-family="Helvetica,sans-Serif" font-size="10.00" fill="#000000">str.h</text>
</a>
</g>
</g>
<!-- Node30&#45;&gt;Node31 -->
<g id="edge59" class="edge">
<title>Node30&#45;&gt;Node31</title>
<path fill="none" stroke="#191970" d="M1446.8405,-55.4179C1441.5368,-47.7415 1433.785,-36.5217 1427.2716,-27.0945"/>
<polygon fill="#191970" stroke="#191970" points="1430.0906,-25.0173 1421.5267,-18.7795 1424.3315,-28.9963 1430.0906,-25.0173"/>
</g>
<!-- Node31&#45;&gt;Node28 -->
<g id="edge60" class="edge">
<title>Node31&#45;&gt;Node28</title>
<path fill="none" stroke="#191970" d="M1398.7627,-18.5208C1375.1009,-31.4393 1329.799,-55.6708 1290.1154,-74 1264.4218,-85.8675 1234.7289,-97.9566 1212.5223,-106.6881"/>
<polygon fill="#191970" stroke="#191970" points="1211.234,-103.4337 1203.1928,-110.3322 1213.7809,-109.9539 1211.234,-103.4337"/>
</g>
<!-- Node33&#45;&gt;Node2 -->
<g id="edge64" class="edge">
<title>Node33&#45;&gt;Node2</title>
<path fill="none" stroke="#191970" d="M1215.9824,-56.3846C1190.9051,-47.1896 1149.7837,-32.1117 1120.9619,-21.5437"/>
<polygon fill="#191970" stroke="#191970" points="1121.9204,-18.1674 1111.3267,-18.0108 1119.5106,-24.7395 1121.9204,-18.1674"/>
</g>
<!-- Node33&#45;&gt;Node5 -->
<g id="edge63" class="edge">
<title>Node33&#45;&gt;Node5</title>
<path fill="none" stroke="#191970" d="M1235.9687,-55.4179C1234.2478,-48.1372 1231.7735,-37.669 1229.6219,-28.5659"/>
<polygon fill="#191970" stroke="#191970" points="1233.0152,-27.7062 1227.3087,-18.7795 1226.2029,-29.3164 1233.0152,-27.7062"/>
</g>
<!-- Node33&#45;&gt;Node15 -->
<g id="edge65" class="edge">
<title>Node33&#45;&gt;Node15</title>
<path fill="none" stroke="#191970" d="M1248.3535,-55.4179C1257.4528,-47.3458 1270.9691,-35.3556 1281.9081,-25.6517"/>
<polygon fill="#191970" stroke="#191970" points="1284.4968,-28.0339 1289.6549,-18.7795 1279.8515,-22.7974 1284.4968,-28.0339"/>
</g>
</g>
</svg>
