<?xml version="1.0" encoding="UTF-8" standalone="no"?>
<!DOCTYPE svg PUBLIC "-//W3C//DTD SVG 1.1//EN"
 "http://www.w3.org/Graphics/SVG/1.1/DTD/svg11.dtd">
<!-- Generated by graphviz version 2.40.1 (20161225.0304)
 -->
<!-- Title: ext_comps/shim/include/common.h Pages: 1 -->
<svg width="1526pt" height="202pt"
 viewBox="0.00 0.00 1526.35 202.00" xmlns="http://www.w3.org/2000/svg" xmlns:xlink="http://www.w3.org/1999/xlink">
<g id="graph0" class="graph" transform="scale(1 1) rotate(0) translate(4 198)">
<title>ext_comps/shim/include/common.h</title>
<polygon fill="#ffffff" stroke="transparent" points="-4,4 -4,-198 1522.3472,-198 1522.3472,4 -4,4"/>
<!-- Node0 -->
<g id="node1" class="node">
<title>Node0</title>
<polygon fill="#bfbfbf" stroke="#000000" points="674.3745,-165.5 674.3745,-193.5 797.0884,-193.5 797.0884,-165.5 674.3745,-165.5"/>
<text text-anchor="start" x="682.3745" y="-181.5" font-family="Helvetica,sans-Serif" font-size="10.00" fill="#000000">ext_comps/shim/include</text>
<text text-anchor="middle" x="735.7314" y="-171.5" font-family="Helvetica,sans-Serif" font-size="10.00" fill="#000000">/common.h</text>
</g>
<!-- Node1 -->
<g id="node2" class="node">
<title>Node1</title>
<polygon fill="#ffffff" stroke="#bfbfbf" points="0,-.5 0,-18.5 45.4629,-18.5 45.4629,-.5 0,-.5"/>
<text text-anchor="middle" x="22.7314" y="-6.5" font-family="Helvetica,sans-Serif" font-size="10.00" fill="#000000">stdio.h</text>
</g>
<!-- Node0&#45;&gt;Node1 -->
<g id="edge1" class="edge">
<title>Node0&#45;&gt;Node1</title>
<path fill="none" stroke="#191970" d="M674.1408,-177.2099C591.2779,-172.9804 439.849,-161.1935 314.7314,-129 251.588,-112.7528 239.0807,-98.6786 178.7314,-74 135.4063,-56.2831 85.4206,-35.5673 53.9488,-22.4905"/>
<polygon fill="#191970" stroke="#191970" points="54.9906,-19.1333 44.4131,-18.5267 52.3037,-25.5971 54.9906,-19.1333"/>
</g>
<!-- Node2 -->
<g id="node3" class="node">
<title>Node2</title>
<polygon fill="#ffffff" stroke="#bfbfbf" points="63.2192,-.5 63.2192,-18.5 114.2437,-18.5 114.2437,-.5 63.2192,-.5"/>
<text text-anchor="middle" x="88.7314" y="-6.5" font-family="Helvetica,sans-Serif" font-size="10.00" fill="#000000">unistd.h</text>
</g>
<!-- Node0&#45;&gt;Node2 -->
<g id="edge2" class="edge">
<title>Node0&#45;&gt;Node2</title>
<path fill="none" stroke="#191970" d="M674.2609,-175.6659C601.8156,-170.0551 478.3082,-157.0531 375.7314,-129 275.9203,-101.7033 164.6417,-48.2697 115.051,-23.1566"/>
<polygon fill="#191970" stroke="#191970" points="116.4754,-19.9541 105.9771,-18.5277 113.2945,-26.1897 116.4754,-19.9541"/>
</g>
<!-- Node3 -->
<g id="node4" class="node">
<title>Node3</title>
<polygon fill="#ffffff" stroke="#bfbfbf" points="131.8892,-.5 131.8892,-18.5 179.5737,-18.5 179.5737,-.5 131.8892,-.5"/>
<text text-anchor="middle" x="155.7314" y="-6.5" font-family="Helvetica,sans-Serif" font-size="10.00" fill="#000000">stdlib.h</text>
</g>
<!-- Node0&#45;&gt;Node3 -->
<g id="edge3" class="edge">
<title>Node0&#45;&gt;Node3</title>
<path fill="none" stroke="#191970" d="M674.1575,-173.4488C612.8321,-166.4213 516.4464,-152.6542 435.7314,-129 338.7294,-100.5728 230.3901,-47.9252 181.7912,-23.1115"/>
<polygon fill="#191970" stroke="#191970" points="183.3829,-19.9944 172.889,-18.5353 180.1826,-26.22 183.3829,-19.9944"/>
</g>
<!-- Node4 -->
<g id="node5" class="node">
<title>Node4</title>
<polygon fill="#ffffff" stroke="#bfbfbf" points="197.335,-.5 197.335,-18.5 246.1279,-18.5 246.1279,-.5 197.335,-.5"/>
<text text-anchor="middle" x="221.7314" y="-6.5" font-family="Helvetica,sans-Serif" font-size="10.00" fill="#000000">string.h</text>
</g>
<!-- Node0&#45;&gt;Node4 -->
<g id="edge4" class="edge">
<title>Node0&#45;&gt;Node4</title>
<path fill="none" stroke="#191970" d="M674.1236,-171.0284C622.9078,-163.0469 548.5188,-149.264 485.7314,-129 438.5479,-113.7719 307.5286,-51.1569 249.7348,-23.1493"/>
<polygon fill="#191970" stroke="#191970" points="250.9947,-19.8703 240.4701,-18.6518 247.9377,-26.1675 250.9947,-19.8703"/>
</g>
<!-- Node5 -->
<g id="node6" class="node">
<title>Node5</title>
<polygon fill="#ffffff" stroke="#bfbfbf" points="263.665,-.5 263.665,-18.5 315.7979,-18.5 315.7979,-.5 263.665,-.5"/>
<text text-anchor="middle" x="289.7314" y="-6.5" font-family="Helvetica,sans-Serif" font-size="10.00" fill="#000000">stdarg.h</text>
</g>
<!-- Node0&#45;&gt;Node5 -->
<g id="edge5" class="edge">
<title>Node0&#45;&gt;Node5</title>
<path fill="none" stroke="#191970" d="M673.9676,-168.5857C631.5282,-160.1379 574.299,-146.8584 525.7314,-129 514.9113,-125.0214 375.84,-53.7483 316.3902,-23.2079"/>
<polygon fill="#191970" stroke="#191970" points="317.7318,-19.9623 307.2377,-18.5047 314.5324,-26.1884 317.7318,-19.9623"/>
</g>
<!-- Node6 -->
<g id="node7" class="node">
<title>Node6</title>
<polygon fill="#ffffff" stroke="#bfbfbf" points="333.6108,-.5 333.6108,-18.5 381.8521,-18.5 381.8521,-.5 333.6108,-.5"/>
<text text-anchor="middle" x="357.7314" y="-6.5" font-family="Helvetica,sans-Serif" font-size="10.00" fill="#000000">stdint.h</text>
</g>
<!-- Node0&#45;&gt;Node6 -->
<g id="edge6" class="edge">
<title>Node0&#45;&gt;Node6</title>
<path fill="none" stroke="#191970" d="M676.6871,-165.4164C643.6899,-156.6698 602.1958,-144.1988 566.7314,-129 529.2624,-112.942 427.5515,-51.9756 381.252,-23.8605"/>
<polygon fill="#191970" stroke="#191970" points="382.8733,-20.75 372.5109,-18.5428 379.2351,-26.7303 382.8733,-20.75"/>
</g>
<!-- Node7 -->
<g id="node8" class="node">
<title>Node7</title>
<polygon fill="#ffffff" stroke="#bfbfbf" points="399.6035,-.5 399.6035,-18.5 457.8594,-18.5 457.8594,-.5 399.6035,-.5"/>
<text text-anchor="middle" x="428.7314" y="-6.5" font-family="Helvetica,sans-Serif" font-size="10.00" fill="#000000">pthread.h</text>
</g>
<!-- Node0&#45;&gt;Node7 -->
<g id="edge7" class="edge">
<title>Node0&#45;&gt;Node7</title>
<path fill="none" stroke="#191970" d="M690.851,-165.4577C664.5088,-156.4866 630.9578,-143.7791 602.7314,-129 542.787,-97.6136 478.797,-49.3377 447.7806,-24.8629"/>
<polygon fill="#191970" stroke="#191970" points="449.9426,-22.1104 439.9375,-18.6247 445.5852,-27.5888 449.9426,-22.1104"/>
</g>
<!-- Node8 -->
<g id="node9" class="node">
<title>Node8</title>
<polygon fill="#ffffff" stroke="#bfbfbf" points="475.6108,-.5 475.6108,-18.5 523.8521,-18.5 523.8521,-.5 475.6108,-.5"/>
<text text-anchor="middle" x="499.7314" y="-6.5" font-family="Helvetica,sans-Serif" font-size="10.00" fill="#000000">ctype.h</text>
</g>
<!-- Node0&#45;&gt;Node8 -->
<g id="edge8" class="edge">
<title>Node0&#45;&gt;Node8</title>
<path fill="none" stroke="#191970" d="M700.6661,-165.4533C679.8376,-156.3959 653.3566,-143.6014 631.7314,-129 585.2361,-97.6061 538.3245,-50.6666 514.9541,-26.0004"/>
<polygon fill="#191970" stroke="#191970" points="517.3577,-23.4468 507.9656,-18.5439 512.2502,-28.2337 517.3577,-23.4468"/>
</g>
<!-- Node9 -->
<g id="node10" class="node">
<title>Node9</title>
<polygon fill="#ffffff" stroke="#bfbfbf" points="541.8892,-.5 541.8892,-18.5 589.5737,-18.5 589.5737,-.5 541.8892,-.5"/>
<text text-anchor="middle" x="565.7314" y="-6.5" font-family="Helvetica,sans-Serif" font-size="10.00" fill="#000000">errno.h</text>
</g>
<!-- Node0&#45;&gt;Node9 -->
<g id="edge9" class="edge">
<title>Node0&#45;&gt;Node9</title>
<path fill="none" stroke="#191970" d="M706.9281,-165.3306C690.2975,-156.3158 669.6,-143.6069 653.7314,-129 619.9267,-97.8828 590.5169,-52.1311 575.7826,-27.233"/>
<polygon fill="#191970" stroke="#191970" points="578.7623,-25.3943 570.7148,-18.5032 572.7084,-28.9087 578.7623,-25.3943"/>
</g>
<!-- Node10 -->
<g id="node11" class="node">
<title>Node10</title>
<polygon fill="#ffffff" stroke="#bfbfbf" points="607.1035,-.5 607.1035,-18.5 670.3594,-18.5 670.3594,-.5 607.1035,-.5"/>
<text text-anchor="middle" x="638.7314" y="-6.5" font-family="Helvetica,sans-Serif" font-size="10.00" fill="#000000">arpa/inet.h</text>
</g>
<!-- Node0&#45;&gt;Node10 -->
<g id="edge10" class="edge">
<title>Node0&#45;&gt;Node10</title>
<path fill="none" stroke="#191970" d="M708.5105,-165.4007C694.3327,-156.7235 677.8823,-144.3242 667.7314,-129 647.1817,-97.977 641.1714,-53.8002 639.4282,-28.764"/>
<polygon fill="#191970" stroke="#191970" points="642.9204,-28.5222 638.8906,-18.7237 635.9304,-28.8966 642.9204,-28.5222"/>
</g>
<!-- Node11 -->
<g id="node12" class="node">
<title>Node11</title>
<polygon fill="#ffffff" stroke="#bfbfbf" points="816.2686,-.5 816.2686,-18.5 881.1943,-18.5 881.1943,-.5 816.2686,-.5"/>
<text text-anchor="middle" x="848.7314" y="-6.5" font-family="Helvetica,sans-Serif" font-size="10.00" fill="#000000">netinet/in.h</text>
</g>
<!-- Node0&#45;&gt;Node11 -->
<g id="edge11" class="edge">
<title>Node0&#45;&gt;Node11</title>
<path fill="none" stroke="#191970" d="M745.1714,-165.2983C765.7292,-134.3707 814.5026,-60.9947 836.9962,-27.1547"/>
<polygon fill="#191970" stroke="#191970" points="839.9775,-28.9922 842.5984,-18.7266 834.1479,-25.1172 839.9775,-28.9922"/>
</g>
<!-- Node12 -->
<g id="node13" class="node">
<title>Node12</title>
<polygon fill="#ffffff" stroke="#bfbfbf" points="898.8745,-.5 898.8745,-18.5 976.5884,-18.5 976.5884,-.5 898.8745,-.5"/>
<text text-anchor="middle" x="937.7314" y="-6.5" font-family="Helvetica,sans-Serif" font-size="10.00" fill="#000000">net/ethernet.h</text>
</g>
<!-- Node0&#45;&gt;Node12 -->
<g id="edge12" class="edge">
<title>Node0&#45;&gt;Node12</title>
<path fill="none" stroke="#191970" d="M748.5798,-165.4744C771.0358,-141.3704 819.4522,-91.1915 865.7314,-55 880.5417,-43.418 898.4015,-32.1168 912.6281,-23.6746"/>
<polygon fill="#191970" stroke="#191970" points="914.5107,-26.6284 921.3839,-18.5655 910.9828,-20.5824 914.5107,-26.6284"/>
</g>
<!-- Node13 -->
<g id="node14" class="node">
<title>Node13</title>
<polygon fill="#ffffff" stroke="#bfbfbf" points="994.2686,-.5 994.2686,-18.5 1059.1943,-18.5 1059.1943,-.5 994.2686,-.5"/>
<text text-anchor="middle" x="1026.7314" y="-6.5" font-family="Helvetica,sans-Serif" font-size="10.00" fill="#000000">netinet/ip.h</text>
</g>
<!-- Node0&#45;&gt;Node13 -->
<g id="edge13" class="edge">
<title>Node0&#45;&gt;Node13</title>
<path fill="none" stroke="#191970" d="M756.7194,-165.4426C771.4291,-155.4785 791.4669,-141.6801 808.7314,-129 851.8671,-97.3186 856.971,-81.0357 903.7314,-55 929.2579,-40.7872 960.0981,-29.3908 984.5114,-21.5583"/>
<polygon fill="#191970" stroke="#191970" points="985.7066,-24.8517 994.2055,-18.5258 983.6167,-18.171 985.7066,-24.8517"/>
</g>
<!-- Node14 -->
<g id="node15" class="node">
<title>Node14</title>
<polygon fill="#ffffff" stroke="#bfbfbf" points="1077.4902,-.5 1077.4902,-18.5 1147.9727,-18.5 1147.9727,-.5 1077.4902,-.5"/>
<text text-anchor="middle" x="1112.7314" y="-6.5" font-family="Helvetica,sans-Serif" font-size="10.00" fill="#000000">netinet/tcp.h</text>
</g>
<!-- Node0&#45;&gt;Node14 -->
<g id="edge14" class="edge">
<title>Node0&#45;&gt;Node14</title>
<path fill="none" stroke="#191970" d="M765.7465,-165.4831C785.6705,-155.8662 812.2029,-142.4546 834.7314,-129 884.3728,-99.3529 889.2364,-79.238 941.7314,-55 963.9375,-44.747 1024.6779,-29.6452 1067.4239,-19.6934"/>
<polygon fill="#191970" stroke="#191970" points="1068.3734,-23.0663 1077.3284,-17.4044 1066.7971,-16.2461 1068.3734,-23.0663"/>
</g>
<!-- Node15 -->
<g id="node16" class="node">
<title>Node15</title>
<polygon fill="#ffffff" stroke="#bfbfbf" points="1165.9312,-.5 1165.9312,-18.5 1257.5317,-18.5 1257.5317,-.5 1165.9312,-.5"/>
<text text-anchor="middle" x="1211.7314" y="-6.5" font-family="Helvetica,sans-Serif" font-size="10.00" fill="#000000">netinet/ip_icmp.h</text>
</g>
<!-- Node0&#45;&gt;Node15 -->
<g id="edge15" class="edge">
<title>Node0&#45;&gt;Node15</title>
<path fill="none" stroke="#191970" d="M777.2525,-165.4162C802.7405,-156.2123 835.7493,-143.2779 863.7314,-129 918.2029,-101.2059 922.9582,-77.7256 979.7314,-55 995.8952,-48.5299 1092.5465,-30.649 1155.8931,-19.3253"/>
<polygon fill="#191970" stroke="#191970" points="1156.526,-22.7677 1165.7565,-17.5669 1155.2974,-15.8764 1156.526,-22.7677"/>
</g>
<!-- Node16 -->
<g id="node17" class="node">
<title>Node16</title>
<polygon fill="#ffffff" stroke="#bfbfbf" points="1275.3276,-.5 1275.3276,-18.5 1334.1353,-18.5 1334.1353,-.5 1275.3276,-.5"/>
<text text-anchor="middle" x="1304.7314" y="-6.5" font-family="Helvetica,sans-Serif" font-size="10.00" fill="#000000">jansson.h</text>
</g>
<!-- Node0&#45;&gt;Node16 -->
<g id="edge16" class="edge">
<title>Node0&#45;&gt;Node16</title>
<path fill="none" stroke="#191970" d="M790.2608,-165.4084C821.2468,-156.5825 860.3925,-144.0365 893.7314,-129 952.2351,-102.6137 957.2441,-76.452 1017.7314,-55 1120.0299,-18.7196 1154.9701,-39.2939 1264.7744,-19.1893"/>
<polygon fill="#191970" stroke="#191970" points="1265.7568,-22.5651 1274.9249,-17.2551 1264.4465,-15.6889 1265.7568,-22.5651"/>
</g>
<!-- Node17 -->
<g id="node18" class="node">
<title>Node17</title>
<polygon fill="#ffffff" stroke="#bfbfbf" points="1351.8374,-.5 1351.8374,-18.5 1395.6255,-18.5 1395.6255,-.5 1351.8374,-.5"/>
<text text-anchor="middle" x="1373.7314" y="-6.5" font-family="Helvetica,sans-Serif" font-size="10.00" fill="#000000">libcli.h</text>
</g>
<!-- Node0&#45;&gt;Node17 -->
<g id="edge17" class="edge">
<title>Node0&#45;&gt;Node17</title>
<path fill="none" stroke="#191970" d="M797.4477,-167.1672C835.015,-158.6482 883.5404,-145.8186 924.7314,-129 986.6391,-103.7226 992.246,-76.0026 1055.7314,-55 1174.6821,-15.6481 1214.983,-44.3899 1341.4397,-18.9184"/>
<polygon fill="#191970" stroke="#191970" points="1342.4292,-22.2873 1351.5014,-16.8151 1340.9968,-15.4354 1342.4292,-22.2873"/>
</g>
<!-- Node18 -->
<g id="node19" class="node">
<title>Node18</title>
<polygon fill="#ffffff" stroke="#bfbfbf" points="1414.1157,-.5 1414.1157,-18.5 1457.3472,-18.5 1457.3472,-.5 1414.1157,-.5"/>
<text text-anchor="middle" x="1435.7314" y="-6.5" font-family="Helvetica,sans-Serif" font-size="10.00" fill="#000000">zmq.h</text>
</g>
<!-- Node0&#45;&gt;Node18 -->
<g id="edge18" class="edge">
<title>Node0&#45;&gt;Node18</title>
<path fill="none" stroke="#191970" d="M797.3546,-170.1698C842.6604,-162.1938 905.2217,-148.8244 957.7314,-129 1022.1091,-104.695 1028.1314,-75.7808 1093.7314,-55 1223.2711,-13.9644 1266.5111,-45.9268 1403.7953,-18.804"/>
<polygon fill="#191970" stroke="#191970" points="1404.7497,-22.1813 1413.8448,-16.7472 1403.3461,-15.3234 1404.7497,-22.1813"/>
</g>
<!-- Node19 -->
<g id="node20" class="node">
<title>Node19</title>
<g id="a_node20"><a xlink:href="mac2int_8h.html" target="_top" xlink:title="mac2int.h">
<polygon fill="#ffffff" stroke="#000000" points="677.0542,-110.5 677.0542,-128.5 736.4087,-128.5 736.4087,-110.5 677.0542,-110.5"/>
<text text-anchor="middle" x="706.7314" y="-116.5" font-family="Helvetica,sans-Serif" font-size="10.00" fill="#000000">mac2int.h</text>
</a>
</g>
</g>
<!-- Node0&#45;&gt;Node19 -->
<g id="edge19" class="edge">
<title>Node0&#45;&gt;Node19</title>
<path fill="none" stroke="#191970" d="M728.8589,-165.2808C724.8673,-157.0224 719.7976,-146.5335 715.5183,-137.6796"/>
<polygon fill="#191970" stroke="#191970" points="718.6251,-136.0646 711.1221,-128.5842 712.3227,-139.1108 718.6251,-136.0646"/>
</g>
<!-- Node21 -->
<g id="node22" class="node">
<title>Node21</title>
<g id="a_node22"><a xlink:href="ip2int_8h.html" target="_top" xlink:title="ip2int.h">
<polygon fill="#ffffff" stroke="#000000" points="749.6084,-.5 749.6084,-18.5 797.8545,-18.5 797.8545,-.5 749.6084,-.5"/>
<text text-anchor="middle" x="773.7314" y="-6.5" font-family="Helvetica,sans-Serif" font-size="10.00" fill="#000000">ip2int.h</text>
</a>
</g>
</g>
<!-- Node0&#45;&gt;Node21 -->
<g id="edge44" class="edge">
<title>Node0&#45;&gt;Node21</title>
<path fill="none" stroke="#191970" d="M738.9059,-165.2983C745.701,-134.8994 761.6629,-63.4909 769.3895,-28.9244"/>
<polygon fill="#191970" stroke="#191970" points="772.9032,-29.2493 771.669,-18.7266 766.0718,-27.7223 772.9032,-29.2493"/>
</g>
<!-- Node23 -->
<g id="node24" class="node">
<title>Node23</title>
<polygon fill="#ffffff" stroke="#bfbfbf" points="1475.1157,-.5 1475.1157,-18.5 1518.3472,-18.5 1518.3472,-.5 1475.1157,-.5"/>
<text text-anchor="middle" x="1496.7314" y="-6.5" font-family="Helvetica,sans-Serif" font-size="10.00" fill="#000000">time.h</text>
</g>
<!-- Node0&#45;&gt;Node23 -->
<g id="edge46" class="edge">
<title>Node0&#45;&gt;Node23</title>
<path fill="none" stroke="#191970" d="M797.1423,-167.9718C849.0734,-158.0829 925.4002,-143.2189 991.7314,-129 1200.4087,-84.2675 1256.0447,-76.431 1465.0874,-19.3221"/>
<polygon fill="#191970" stroke="#191970" points="1466.1147,-22.6698 1474.8358,-16.6537 1464.2665,-15.9181 1466.1147,-22.6698"/>
</g>
<!-- Node24 -->
<g id="node25" class="node">
<title>Node24</title>
<g id="a_node25"><a xlink:href="ext__comps_2shim_2include_2type_8h.html" target="_top" xlink:title="type.h">
<polygon fill="#ffffff" stroke="#000000" points="1136.1108,-110.5 1136.1108,-128.5 1179.3521,-128.5 1179.3521,-110.5 1136.1108,-110.5"/>
<text text-anchor="middle" x="1157.7314" y="-116.5" font-family="Helvetica,sans-Serif" font-size="10.00" fill="#000000">type.h</text>
</a>
</g>
</g>
<!-- Node0&#45;&gt;Node24 -->
<g id="edge45" class="edge">
<title>Node0&#45;&gt;Node24</title>
<path fill="none" stroke="#191970" d="M797.2949,-173.8987C873.8074,-166.3753 1008.1644,-151.3184 1121.7314,-129 1123.0158,-128.7476 1124.3223,-128.4757 1125.6393,-128.1889"/>
<polygon fill="#191970" stroke="#191970" points="1126.8349,-131.502 1135.7501,-125.7774 1125.2109,-124.693 1126.8349,-131.502"/>
</g>
<!-- Node20 -->
<g id="node21" class="node">
<title>Node20</title>
<g id="a_node21"><a xlink:href="src_2include_2common_8h.html" target="_top" xlink:title="common.h">
<polygon fill="#ffffff" stroke="#000000" points="675.3892,-55.5 675.3892,-73.5 738.0737,-73.5 738.0737,-55.5 675.3892,-55.5"/>
<text text-anchor="middle" x="706.7314" y="-61.5" font-family="Helvetica,sans-Serif" font-size="10.00" fill="#000000">common.h</text>
</a>
</g>
</g>
<!-- Node19&#45;&gt;Node20 -->
<g id="edge20" class="edge">
<title>Node19&#45;&gt;Node20</title>
<path fill="none" stroke="#191970" d="M701.5651,-110.4179C700.0736,-103.2164 699.6356,-92.8962 700.2512,-83.8632"/>
<polygon fill="#191970" stroke="#191970" points="703.7441,-84.1392 701.5247,-73.7795 696.7992,-83.2621 703.7441,-84.1392"/>
</g>
<!-- Node20&#45;&gt;Node1 -->
<g id="edge21" class="edge">
<title>Node20&#45;&gt;Node1</title>
<path fill="none" stroke="#191970" d="M675.1112,-63.2521C564.4094,-58.7382 193.9483,-42.3734 55.5555,-18.921"/>
<polygon fill="#191970" stroke="#191970" points="56.0686,-15.4573 45.6094,-17.1471 54.8394,-22.3486 56.0686,-15.4573"/>
</g>
<!-- Node20&#45;&gt;Node2 -->
<g id="edge22" class="edge">
<title>Node20&#45;&gt;Node2</title>
<path fill="none" stroke="#191970" d="M675.1235,-64.1925C588.3206,-62.8931 338.9779,-56.1056 124.4656,-19.0195"/>
<polygon fill="#191970" stroke="#191970" points="125.0548,-15.5695 114.6002,-17.288 123.8446,-22.4641 125.0548,-15.5695"/>
</g>
<!-- Node20&#45;&gt;Node3 -->
<g id="edge23" class="edge">
<title>Node20&#45;&gt;Node3</title>
<path fill="none" stroke="#191970" d="M675.2081,-63.8406C595.3648,-61.7244 378.6957,-53.201 189.8622,-18.8632"/>
<polygon fill="#191970" stroke="#191970" points="190.2233,-15.3708 179.7537,-16.9951 188.9511,-22.2542 190.2233,-15.3708"/>
</g>
<!-- Node20&#45;&gt;Node4 -->
<g id="edge24" class="edge">
<title>Node20&#45;&gt;Node4</title>
<path fill="none" stroke="#191970" d="M675.2146,-63.279C602.7255,-60.0566 418.5442,-49.5073 256.6217,-19.0802"/>
<polygon fill="#191970" stroke="#191970" points="256.9608,-15.5817 246.4816,-17.1428 255.647,-22.4574 256.9608,-15.5817"/>
</g>
<!-- Node20&#45;&gt;Node5 -->
<g id="edge25" class="edge">
<title>Node20&#45;&gt;Node5</title>
<path fill="none" stroke="#191970" d="M675.2955,-62.3231C611.2855,-57.5559 461.1329,-44.6674 326.1143,-19.0247"/>
<polygon fill="#191970" stroke="#191970" points="326.4896,-15.5326 316.0078,-17.0755 325.164,-22.406 326.4896,-15.5326"/>
</g>
<!-- Node20&#45;&gt;Node6 -->
<g id="edge26" class="edge">
<title>Node20&#45;&gt;Node6</title>
<path fill="none" stroke="#191970" d="M675.0811,-61.398C619.5625,-55.6443 500.9121,-41.9567 391.9796,-19.0335"/>
<polygon fill="#191970" stroke="#191970" points="392.6556,-15.599 382.145,-16.9327 391.1932,-22.4446 392.6556,-15.599"/>
</g>
<!-- Node20&#45;&gt;Node7 -->
<g id="edge27" class="edge">
<title>Node20&#45;&gt;Node7</title>
<path fill="none" stroke="#191970" d="M675.164,-59.1132C631.0494,-51.4556 548.2381,-36.6108 468.3778,-19.2707"/>
<polygon fill="#191970" stroke="#191970" points="468.6675,-15.7514 458.1505,-17.0325 467.171,-22.5895 468.6675,-15.7514"/>
</g>
<!-- Node20&#45;&gt;Node8 -->
<g id="edge28" class="edge">
<title>Node20&#45;&gt;Node8</title>
<path fill="none" stroke="#191970" d="M675.2359,-56.5117C642.3109,-48.1065 588.8993,-34.3193 533.8014,-19.2484"/>
<polygon fill="#191970" stroke="#191970" points="534.4325,-15.7923 523.8628,-16.5208 532.5798,-22.5427 534.4325,-15.7923"/>
</g>
<!-- Node20&#45;&gt;Node9 -->
<g id="edge29" class="edge">
<title>Node20&#45;&gt;Node9</title>
<path fill="none" stroke="#191970" d="M683.4482,-55.4179C660.2826,-46.3817 624.5292,-32.4353 598.5018,-22.2828"/>
<polygon fill="#191970" stroke="#191970" points="599.6376,-18.969 589.0493,-18.5956 597.0937,-25.4904 599.6376,-18.969"/>
</g>
<!-- Node20&#45;&gt;Node10 -->
<g id="edge30" class="edge">
<title>Node20&#45;&gt;Node10</title>
<path fill="none" stroke="#191970" d="M695.5026,-55.4179C685.327,-47.1876 670.1152,-34.8839 657.9984,-25.0836"/>
<polygon fill="#191970" stroke="#191970" points="660.1804,-22.3469 650.2042,-18.7795 655.7783,-27.7895 660.1804,-22.3469"/>
</g>
<!-- Node20&#45;&gt;Node11 -->
<g id="edge31" class="edge">
<title>Node20&#45;&gt;Node11</title>
<path fill="none" stroke="#191970" d="M730.1799,-55.4179C753.5097,-46.3817 789.5167,-32.4353 815.7287,-22.2828"/>
<polygon fill="#191970" stroke="#191970" points="817.1874,-25.4712 825.2482,-18.5956 814.6591,-18.9437 817.1874,-25.4712"/>
</g>
<!-- Node20&#45;&gt;Node12 -->
<g id="edge32" class="edge">
<title>Node20&#45;&gt;Node12</title>
<path fill="none" stroke="#191970" d="M738.3667,-56.9678C777.4247,-47.6683 844.2433,-31.7591 889.6586,-20.9459"/>
<polygon fill="#191970" stroke="#191970" points="890.657,-24.3061 899.5744,-18.585 889.0356,-17.4965 890.657,-24.3061"/>
</g>
<!-- Node20&#45;&gt;Node13 -->
<g id="edge33" class="edge">
<title>Node20&#45;&gt;Node13</title>
<path fill="none" stroke="#191970" d="M738.2335,-60.0553C788.274,-52.8452 889.205,-37.6935 984.0549,-19.2374"/>
<polygon fill="#191970" stroke="#191970" points="984.961,-22.6264 994.0996,-17.2657 983.6126,-15.7575 984.961,-22.6264"/>
</g>
<!-- Node20&#45;&gt;Node14 -->
<g id="edge34" class="edge">
<title>Node20&#45;&gt;Node14</title>
<path fill="none" stroke="#191970" d="M738.2464,-61.414C799.5356,-55.2221 939.2381,-40.1787 1067.4177,-18.9189"/>
<polygon fill="#191970" stroke="#191970" points="1068.1265,-22.349 1077.4107,-17.2447 1066.9699,-15.4452 1068.1265,-22.349"/>
</g>
<!-- Node20&#45;&gt;Node15 -->
<g id="edge35" class="edge">
<title>Node20&#45;&gt;Node15</title>
<path fill="none" stroke="#191970" d="M738.1911,-62.0847C810.1518,-56.3964 992.4772,-41.0572 1155.6312,-19.0629"/>
<polygon fill="#191970" stroke="#191970" points="1156.4157,-22.4885 1165.8528,-17.6727 1155.4723,-15.5524 1156.4157,-22.4885"/>
</g>
<!-- Node20&#45;&gt;Node16 -->
<g id="edge36" class="edge">
<title>Node20&#45;&gt;Node16</title>
<path fill="none" stroke="#191970" d="M738.2186,-63.748C822.3547,-61.3564 1059.448,-52.1154 1264.8898,-19.0763"/>
<polygon fill="#191970" stroke="#191970" points="1265.6512,-22.4984 1274.9571,-17.4338 1264.524,-15.5897 1265.6512,-22.4984"/>
</g>
<!-- Node20&#45;&gt;Node17 -->
<g id="edge37" class="edge">
<title>Node20&#45;&gt;Node17</title>
<path fill="none" stroke="#191970" d="M738.2952,-63.1871C846.9463,-58.5239 1205.7921,-41.8962 1341.3953,-18.7807"/>
<polygon fill="#191970" stroke="#191970" points="1342.3066,-22.1731 1351.5306,-16.9609 1341.0695,-15.2833 1342.3066,-22.1731"/>
</g>
<!-- Node20&#45;&gt;Node18 -->
<g id="edge38" class="edge">
<title>Node20&#45;&gt;Node18</title>
<path fill="none" stroke="#191970" d="M738.4676,-63.4109C854.282,-59.288 1254.7002,-43.6949 1403.5939,-18.7026"/>
<polygon fill="#191970" stroke="#191970" points="1404.6335,-22.0732 1413.8722,-16.8869 1403.4158,-15.1799 1404.6335,-22.0732"/>
</g>
<!-- Node20&#45;&gt;Node19 -->
<g id="edge39" class="edge">
<title>Node20&#45;&gt;Node19</title>
<path fill="none" stroke="#191970" d="M711.9382,-73.7795C713.4106,-81.0373 713.8294,-91.3738 713.1946,-100.383"/>
<polygon fill="#191970" stroke="#191970" points="709.7084,-100.0517 711.8978,-110.4179 716.6507,-100.949 709.7084,-100.0517"/>
</g>
<!-- Node20&#45;&gt;Node21 -->
<g id="edge40" class="edge">
<title>Node20&#45;&gt;Node21</title>
<path fill="none" stroke="#191970" d="M712.6288,-55.4179C721.0808,-47.0584 736.0716,-34.4966 749.2063,-24.6239"/>
<polygon fill="#191970" stroke="#191970" points="751.4599,-27.3124 757.4822,-18.5956 747.3385,-21.6543 751.4599,-27.3124"/>
</g>
<!-- Node22 -->
<g id="node23" class="node">
<title>Node22</title>
<g id="a_node23"><a xlink:href="src_2include_2type_8h.html" target="_top" xlink:title="type.h">
<polygon fill="#ffffff" stroke="#000000" points="688.1108,-.5 688.1108,-18.5 731.3521,-18.5 731.3521,-.5 688.1108,-.5"/>
<text text-anchor="middle" x="709.7314" y="-6.5" font-family="Helvetica,sans-Serif" font-size="10.00" fill="#000000">type.h</text>
</a>
</g>
</g>
<!-- Node20&#45;&gt;Node22 -->
<g id="edge42" class="edge">
<title>Node20&#45;&gt;Node22</title>
<path fill="none" stroke="#191970" d="M707.2268,-55.4179C707.6196,-48.2164 708.1826,-37.8962 708.6753,-28.8632"/>
<polygon fill="#191970" stroke="#191970" points="712.1754,-28.9553 709.2253,-18.7795 705.1857,-28.574 712.1754,-28.9553"/>
</g>
<!-- Node20&#45;&gt;Node23 -->
<g id="edge43" class="edge">
<title>Node20&#45;&gt;Node23</title>
<path fill="none" stroke="#191970" d="M738.256,-63.6497C860.4741,-60.1962 1303.8188,-46.1746 1464.7497,-18.903"/>
<polygon fill="#191970" stroke="#191970" points="1465.7045,-22.2881 1474.9352,-17.0875 1464.4761,-15.3967 1465.7045,-22.2881"/>
</g>
<!-- Node21&#45;&gt;Node20 -->
<g id="edge41" class="edge">
<title>Node21&#45;&gt;Node20</title>
<path fill="none" stroke="#191970" d="M767.6341,-18.7795C759.1314,-27.1539 744.233,-39.6272 731.1838,-49.4308"/>
<polygon fill="#191970" stroke="#191970" points="728.9853,-46.7021 722.9615,-55.4179 733.1057,-52.3609 728.9853,-46.7021"/>
</g>
</g>
</svg>
