<?xml version="1.0" encoding="UTF-8" standalone="no"?>
<!DOCTYPE svg PUBLIC "-//W3C//DTD SVG 1.1//EN"
 "http://www.w3.org/Graphics/SVG/1.1/DTD/svg11.dtd">
<!-- Generated by graphviz version 2.40.1 (20161225.0304)
 -->
<!-- Title: ext_apps/shim/include/common.h Pages: 1 -->
<svg width="306pt" height="232pt"
 viewBox="0.00 0.00 306.36 232.00" xmlns="http://www.w3.org/2000/svg" xmlns:xlink="http://www.w3.org/1999/xlink">
<g id="graph0" class="graph" transform="scale(1 1) rotate(0) translate(4 228)">
<title>ext_apps/shim/include/common.h</title>
<polygon fill="#ffffff" stroke="transparent" points="-4,4 -4,-228 302.3595,-228 302.3595,4 -4,4"/>
<!-- Node25 -->
<g id="node1" class="node">
<title>Node25</title>
<polygon fill="#bfbfbf" stroke="#000000" points="55.4142,-195.5 55.4142,-223.5 170.3595,-223.5 170.3595,-195.5 55.4142,-195.5"/>
<text text-anchor="start" x="63.4142" y="-211.5" font-family="Helvetica,sans-Serif" font-size="10.00" fill="#000000">ext_apps/shim/include</text>
<text text-anchor="middle" x="112.8869" y="-201.5" font-family="Helvetica,sans-Serif" font-size="10.00" fill="#000000">/common.h</text>
</g>
<!-- Node26 -->
<g id="node2" class="node">
<title>Node26</title>
<g id="a_node2"><a xlink:href="ext__apps_2shim_2include_2app__event_8h.html" target="_top" xlink:title="ext_apps/shim/include\l/app_event.h">
<polygon fill="#ffffff" stroke="#000000" points="13.4142,-65.5 13.4142,-93.5 128.3595,-93.5 128.3595,-65.5 13.4142,-65.5"/>
<text text-anchor="start" x="21.4142" y="-81.5" font-family="Helvetica,sans-Serif" font-size="10.00" fill="#000000">ext_apps/shim/include</text>
<text text-anchor="middle" x="70.8869" y="-71.5" font-family="Helvetica,sans-Serif" font-size="10.00" fill="#000000">/app_event.h</text>
</a>
</g>
</g>
<!-- Node25&#45;&gt;Node26 -->
<g id="edge1" class="edge">
<title>Node25&#45;&gt;Node26</title>
<path fill="none" stroke="#191970" d="M45.727,-192.0534C29.6545,-184.5667 14.4081,-173.9628 4.8869,-159 -2.0326,-148.126 -.8217,-141.5558 4.8869,-130 12.6828,-114.2187 28.0376,-102.0098 41.9762,-93.5525"/>
<polygon fill="#191970" stroke="#191970" points="44.677,-195.4104 55.2487,-196.1106 47.4211,-188.9707 44.677,-195.4104"/>
</g>
<!-- Node27 -->
<g id="node3" class="node">
<title>Node27</title>
<g id="a_node3"><a xlink:href="ext__apps_2shim_2include_2shim_8h.html" target="_top" xlink:title="ext_apps/shim/include\l/shim.h">
<polygon fill="#ffffff" stroke="#000000" points="98.4142,-.5 98.4142,-28.5 213.3595,-28.5 213.3595,-.5 98.4142,-.5"/>
<text text-anchor="start" x="106.4142" y="-16.5" font-family="Helvetica,sans-Serif" font-size="10.00" fill="#000000">ext_apps/shim/include</text>
<text text-anchor="middle" x="155.8869" y="-6.5" font-family="Helvetica,sans-Serif" font-size="10.00" fill="#000000">/shim.h</text>
</a>
</g>
</g>
<!-- Node25&#45;&gt;Node27 -->
<g id="edge7" class="edge">
<title>Node25&#45;&gt;Node27</title>
<path fill="none" stroke="#191970" d="M125.8002,-186.2625C129.9428,-177.8934 134.1595,-168.2339 136.8869,-159 150.5764,-112.6512 154.4151,-55.0267 155.4818,-28.7523"/>
<polygon fill="#191970" stroke="#191970" points="122.5625,-184.9031 121.0649,-195.3916 128.7763,-188.1263 122.5625,-184.9031"/>
</g>
<!-- Node28 -->
<g id="node4" class="node">
<title>Node28</title>
<g id="a_node4"><a xlink:href="ext__apps_2shim_2include_2context_8h.html" target="_top" xlink:title="ext_apps/shim/include\l/context.h">
<polygon fill="#ffffff" stroke="#000000" points="13.4142,-130.5 13.4142,-158.5 128.3595,-158.5 128.3595,-130.5 13.4142,-130.5"/>
<text text-anchor="start" x="21.4142" y="-146.5" font-family="Helvetica,sans-Serif" font-size="10.00" fill="#000000">ext_apps/shim/include</text>
<text text-anchor="middle" x="70.8869" y="-136.5" font-family="Helvetica,sans-Serif" font-size="10.00" fill="#000000">/context.h</text>
</a>
</g>
</g>
<!-- Node25&#45;&gt;Node28 -->
<g id="edge3" class="edge">
<title>Node25&#45;&gt;Node28</title>
<path fill="none" stroke="#191970" d="M98.2624,-186.8669C92.1837,-177.4594 85.3177,-166.8334 79.9825,-158.5765"/>
<polygon fill="#191970" stroke="#191970" points="95.4066,-188.8963 103.7735,-195.396 101.286,-185.0973 95.4066,-188.8963"/>
</g>
<!-- Node29 -->
<g id="node5" class="node">
<title>Node29</title>
<g id="a_node5"><a xlink:href="ext__apps_2shim_2include_2application_8h.html" target="_top" xlink:title="ext_apps/shim/include\l/application.h">
<polygon fill="#ffffff" stroke="#000000" points="183.4142,-65.5 183.4142,-93.5 298.3595,-93.5 298.3595,-65.5 183.4142,-65.5"/>
<text text-anchor="start" x="191.4142" y="-81.5" font-family="Helvetica,sans-Serif" font-size="10.00" fill="#000000">ext_apps/shim/include</text>
<text text-anchor="middle" x="240.8869" y="-71.5" font-family="Helvetica,sans-Serif" font-size="10.00" fill="#000000">/application.h</text>
</a>
</g>
</g>
<!-- Node25&#45;&gt;Node29 -->
<g id="edge5" class="edge">
<title>Node25&#45;&gt;Node29</title>
<path fill="none" stroke="#191970" d="M137.617,-188.7022C147.8513,-179.8131 159.6869,-169.1595 169.8869,-159 191.7823,-137.1914 215.3252,-110.0048 229.0486,-93.7375"/>
<polygon fill="#191970" stroke="#191970" points="135.116,-186.2366 129.8144,-195.4097 139.6792,-191.5449 135.116,-186.2366"/>
</g>
<!-- Node26&#45;&gt;Node27 -->
<g id="edge2" class="edge">
<title>Node26&#45;&gt;Node27</title>
<path fill="none" stroke="#191970" d="M97.4753,-59.1677C110.4729,-49.2283 125.7911,-37.5144 137.4791,-28.5765"/>
<polygon fill="#191970" stroke="#191970" points="95.1481,-56.5412 89.3306,-65.396 99.4003,-62.1017 95.1481,-56.5412"/>
</g>
<!-- Node28&#45;&gt;Node26 -->
<g id="edge4" class="edge">
<title>Node28&#45;&gt;Node26</title>
<path fill="none" stroke="#191970" d="M70.8869,-120.1081C70.8869,-111.1539 70.8869,-101.3227 70.8869,-93.5765"/>
<polygon fill="#191970" stroke="#191970" points="67.387,-120.3959 70.8869,-130.396 74.387,-120.396 67.387,-120.3959"/>
</g>
<!-- Node29&#45;&gt;Node27 -->
<g id="edge6" class="edge">
<title>Node29&#45;&gt;Node27</title>
<path fill="none" stroke="#191970" d="M214.2984,-59.1677C201.3008,-49.2283 185.9826,-37.5144 174.2946,-28.5765"/>
<polygon fill="#191970" stroke="#191970" points="212.3734,-62.1017 222.4431,-65.396 216.6256,-56.5412 212.3734,-62.1017"/>
</g>
</g>
</svg>
