<?xml version="1.0" encoding="UTF-8" standalone="no"?>
<!DOCTYPE svg PUBLIC "-//W3C//DTD SVG 1.1//EN"
 "http://www.w3.org/Graphics/SVG/1.1/DTD/svg11.dtd">
<!-- Generated by graphviz version 2.40.1 (20161225.0304)
 -->
<!-- Title: ext_apps/l2_shortest/src/include/application_list.h Pages: 1 -->
<svg width="228pt" height="112pt"
 viewBox="0.00 0.00 228.32 112.00" xmlns="http://www.w3.org/2000/svg" xmlns:xlink="http://www.w3.org/1999/xlink">
<g id="graph0" class="graph" transform="scale(1 1) rotate(0) translate(4 108)">
<title>ext_apps/l2_shortest/src/include/application_list.h</title>
<polygon fill="#ffffff" stroke="transparent" points="-4,4 -4,-108 224.3223,-108 224.3223,4 -4,4"/>
<!-- Node1 -->
<g id="node1" class="node">
<title>Node1</title>
<polygon fill="#bfbfbf" stroke="#000000" points="57.8892,-65.5 57.8892,-103.5 175.0562,-103.5 175.0562,-65.5 57.8892,-65.5"/>
<text text-anchor="start" x="65.8892" y="-91.5" font-family="Helvetica,sans-Serif" font-size="10.00" fill="#000000">ext_apps/l2_shortest</text>
<text text-anchor="start" x="65.8892" y="-81.5" font-family="Helvetica,sans-Serif" font-size="10.00" fill="#000000">/src/include/application</text>
<text text-anchor="middle" x="116.4727" y="-71.5" font-family="Helvetica,sans-Serif" font-size="10.00" fill="#000000">_list.h</text>
</g>
<!-- Node2 -->
<g id="node2" class="node">
<title>Node2</title>
<g id="a_node2"><a xlink:href="ext__apps_2shim_2include_2shim_8h.html" target="_top" xlink:title="ext_apps/shim/include\l/shim.h">
<polygon fill="#ffffff" stroke="#000000" points="0,-.5 0,-28.5 114.9453,-28.5 114.9453,-.5 0,-.5"/>
<text text-anchor="start" x="8" y="-16.5" font-family="Helvetica,sans-Serif" font-size="10.00" fill="#000000">ext_apps/shim/include</text>
<text text-anchor="middle" x="57.4727" y="-6.5" font-family="Helvetica,sans-Serif" font-size="10.00" fill="#000000">/shim.h</text>
</a>
</g>
</g>
<!-- Node1&#45;&gt;Node2 -->
<g id="edge1" class="edge">
<title>Node1&#45;&gt;Node2</title>
<path fill="none" stroke="#191970" d="M93.7006,-57.4823C85.5083,-47.7626 76.5847,-37.1753 69.6438,-28.9404"/>
<polygon fill="#191970" stroke="#191970" points="91.2297,-59.9816 100.3506,-65.3722 96.5821,-55.4702 91.2297,-59.9816"/>
</g>
<!-- Node3 -->
<g id="node3" class="node">
<title>Node3</title>
<g id="a_node3"><a xlink:href="application_8c.html" target="_top" xlink:title="src/application.c">
<polygon fill="#ffffff" stroke="#000000" points="132.623,-5.5 132.623,-23.5 220.3223,-23.5 220.3223,-5.5 132.623,-5.5"/>
<text text-anchor="middle" x="176.4727" y="-11.5" font-family="Helvetica,sans-Serif" font-size="10.00" fill="#000000">src/application.c</text>
</a>
</g>
</g>
<!-- Node1&#45;&gt;Node3 -->
<g id="edge2" class="edge">
<title>Node1&#45;&gt;Node3</title>
<path fill="none" stroke="#191970" d="M139.4337,-57.7122C149.7684,-45.655 161.2842,-32.2199 168.6902,-23.5795"/>
<polygon fill="#191970" stroke="#191970" points="136.7185,-55.5018 132.8679,-65.3722 142.0333,-60.0574 136.7185,-55.5018"/>
</g>
</g>
</svg>
