<?xml version="1.0" encoding="UTF-8" standalone="no"?>
<!DOCTYPE svg PUBLIC "-//W3C//DTD SVG 1.1//EN"
 "http://www.w3.org/Graphics/SVG/1.1/DTD/svg11.dtd">
<!-- Generated by graphviz version 2.40.1 (20161225.0304)
 -->
<!-- Title: ext_apps/l2_shortest/src/l2_shortest.c Pages: 1 -->
<svg width="176pt" height="92pt"
 viewBox="0.00 0.00 175.93 92.00" xmlns="http://www.w3.org/2000/svg" xmlns:xlink="http://www.w3.org/1999/xlink">
<g id="graph0" class="graph" transform="scale(1 1) rotate(0) translate(4 88)">
<title>ext_apps/l2_shortest/src/l2_shortest.c</title>
<polygon fill="#ffffff" stroke="transparent" points="-4,4 -4,-88 171.9282,-88 171.9282,4 -4,4"/>
<!-- Node0 -->
<g id="node1" class="node">
<title>Node0</title>
<polygon fill="#bfbfbf" stroke="#000000" points="28.4878,-55.5 28.4878,-83.5 136.7681,-83.5 136.7681,-55.5 28.4878,-55.5"/>
<text text-anchor="start" x="36.4878" y="-71.5" font-family="Helvetica,sans-Serif" font-size="10.00" fill="#000000">ext_apps/l2_shortest</text>
<text text-anchor="middle" x="82.6279" y="-61.5" font-family="Helvetica,sans-Serif" font-size="10.00" fill="#000000">/src/l2_shortest.c</text>
</g>
<!-- Node1 -->
<g id="node2" class="node">
<title>Node1</title>
<polygon fill="#ffffff" stroke="#bfbfbf" points="0,-.5 0,-18.5 73.2559,-18.5 73.2559,-.5 0,-.5"/>
<text text-anchor="middle" x="36.6279" y="-6.5" font-family="Helvetica,sans-Serif" font-size="10.00" fill="#000000">l2_shortest.h</text>
</g>
<!-- Node0&#45;&gt;Node1 -->
<g id="edge1" class="edge">
<title>Node0&#45;&gt;Node1</title>
<path fill="none" stroke="#191970" d="M71.7266,-55.2808C65.1228,-46.6672 56.6587,-35.6271 49.697,-26.5466"/>
<polygon fill="#191970" stroke="#191970" points="52.4545,-24.3907 43.5925,-18.5842 46.8992,-28.6498 52.4545,-24.3907"/>
</g>
<!-- Node2 -->
<g id="node3" class="node">
<title>Node2</title>
<polygon fill="#ffffff" stroke="#bfbfbf" points="91.3276,-.5 91.3276,-18.5 167.9282,-18.5 167.9282,-.5 91.3276,-.5"/>
<text text-anchor="middle" x="129.6279" y="-6.5" font-family="Helvetica,sans-Serif" font-size="10.00" fill="#000000">mac_queue.h</text>
</g>
<!-- Node0&#45;&gt;Node2 -->
<g id="edge2" class="edge">
<title>Node0&#45;&gt;Node2</title>
<path fill="none" stroke="#191970" d="M93.7663,-55.2808C100.5136,-46.6672 109.1617,-35.6271 116.2748,-26.5466"/>
<polygon fill="#191970" stroke="#191970" points="119.1006,-28.6148 122.512,-18.5842 113.59,-24.2982 119.1006,-28.6148"/>
</g>
</g>
</svg>
