<?xml version="1.0" encoding="UTF-8" standalone="no"?>
<!DOCTYPE svg PUBLIC "-//W3C//DTD SVG 1.1//EN"
 "http://www.w3.org/Graphics/SVG/1.1/DTD/svg11.dtd">
<!-- Generated by graphviz version 2.40.1 (20161225.0304)
 -->
<!-- Title: ext_apps/shim/app_event.c Pages: 1 -->
<svg width="1603pt" height="247pt"
 viewBox="0.00 0.00 1603.35 247.00" xmlns="http://www.w3.org/2000/svg" xmlns:xlink="http://www.w3.org/1999/xlink">
<g id="graph0" class="graph" transform="scale(1 1) rotate(0) translate(4 243)">
<title>ext_apps/shim/app_event.c</title>
<polygon fill="#ffffff" stroke="transparent" points="-4,4 -4,-243 1599.3521,-243 1599.3521,4 -4,4"/>
<!-- Node0 -->
<g id="node1" class="node">
<title>Node0</title>
<polygon fill="#bfbfbf" stroke="#000000" points="794.749,-220.5 794.749,-238.5 932.4922,-238.5 932.4922,-220.5 794.749,-220.5"/>
<text text-anchor="middle" x="863.6206" y="-226.5" font-family="Helvetica,sans-Serif" font-size="10.00" fill="#000000">ext_apps/shim/app_event.c</text>
</g>
<!-- Node1 -->
<g id="node2" class="node">
<title>Node1</title>
<g id="a_node2"><a xlink:href="app__events_2include_2app__event_8h.html" target="_top" xlink:title="app_event.h">
<polygon fill="#ffffff" stroke="#000000" points="575.0962,-165.5 575.0962,-183.5 646.145,-183.5 646.145,-165.5 575.0962,-165.5"/>
<text text-anchor="middle" x="610.6206" y="-171.5" font-family="Helvetica,sans-Serif" font-size="10.00" fill="#000000">app_event.h</text>
</a>
</g>
</g>
<!-- Node0&#45;&gt;Node1 -->
<g id="edge1" class="edge">
<title>Node0&#45;&gt;Node1</title>
<path fill="none" stroke="#191970" d="M822.1261,-220.4795C776.5456,-210.5706 703.5602,-194.7043 656.3583,-184.443"/>
<polygon fill="#191970" stroke="#191970" points="656.9207,-180.9836 646.4054,-182.2793 655.4336,-187.8238 656.9207,-180.9836"/>
</g>
<!-- Node28 -->
<g id="node29" class="node">
<title>Node28</title>
<g id="a_node29"><a xlink:href="src_2include_2application_8h.html" target="_top" xlink:title="application.h">
<polygon fill="#ffffff" stroke="#000000" points="726.5444,-165.5 726.5444,-183.5 798.6968,-183.5 798.6968,-165.5 726.5444,-165.5"/>
<text text-anchor="middle" x="762.6206" y="-171.5" font-family="Helvetica,sans-Serif" font-size="10.00" fill="#000000">application.h</text>
</a>
</g>
</g>
<!-- Node0&#45;&gt;Node28 -->
<g id="edge32" class="edge">
<title>Node0&#45;&gt;Node28</title>
<path fill="none" stroke="#191970" d="M846.9425,-220.4179C831.0066,-211.7399 806.7547,-198.5334 788.3438,-188.5077"/>
<polygon fill="#191970" stroke="#191970" points="789.7796,-185.3043 779.3235,-183.5956 786.4319,-191.4519 789.7796,-185.3043"/>
</g>
<!-- Node31 -->
<g id="node32" class="node">
<title>Node31</title>
<g id="a_node32"><a xlink:href="application__info_8h.html" target="_top" xlink:title="application_info.h">
<polygon fill="#ffffff" stroke="#000000" points="816.7021,-165.5 816.7021,-183.5 910.5391,-183.5 910.5391,-165.5 816.7021,-165.5"/>
<text text-anchor="middle" x="863.6206" y="-171.5" font-family="Helvetica,sans-Serif" font-size="10.00" fill="#000000">application_info.h</text>
</a>
</g>
</g>
<!-- Node0&#45;&gt;Node31 -->
<g id="edge39" class="edge">
<title>Node0&#45;&gt;Node31</title>
<path fill="none" stroke="#191970" d="M863.6206,-220.4179C863.6206,-213.2164 863.6206,-202.8962 863.6206,-193.8632"/>
<polygon fill="#191970" stroke="#191970" points="867.1207,-193.7794 863.6206,-183.7795 860.1207,-193.7795 867.1207,-193.7794"/>
</g>
<!-- Node32 -->
<g id="node33" class="node">
<title>Node32</title>
<g id="a_node33"><a xlink:href="app__events_2include_2app__event__json_8h.html" target="_top" xlink:title="app_event_json.h">
<polygon fill="#ffffff" stroke="#000000" points="928.1431,-165.5 928.1431,-183.5 1023.0981,-183.5 1023.0981,-165.5 928.1431,-165.5"/>
<text text-anchor="middle" x="975.6206" y="-171.5" font-family="Helvetica,sans-Serif" font-size="10.00" fill="#000000">app_event_json.h</text>
</a>
</g>
</g>
<!-- Node0&#45;&gt;Node32 -->
<g id="edge40" class="edge">
<title>Node0&#45;&gt;Node32</title>
<path fill="none" stroke="#191970" d="M882.1151,-220.4179C900.0298,-211.6205 927.4217,-198.1691 947.935,-188.0956"/>
<polygon fill="#191970" stroke="#191970" points="949.6653,-191.1452 957.0986,-183.5956 946.5797,-184.8619 949.6653,-191.1452"/>
</g>
<!-- Node34 -->
<g id="node35" class="node">
<title>Node34</title>
<g id="a_node35"><a xlink:href="app__events_2include_2app__event__epoll__env_8h.html" target="_top" xlink:title="app_event_epoll_env.h">
<polygon fill="#ffffff" stroke="#000000" points="1087.2778,-165.5 1087.2778,-183.5 1205.9634,-183.5 1205.9634,-165.5 1087.2778,-165.5"/>
<text text-anchor="middle" x="1146.6206" y="-171.5" font-family="Helvetica,sans-Serif" font-size="10.00" fill="#000000">app_event_epoll_env.h</text>
</a>
</g>
</g>
<!-- Node0&#45;&gt;Node34 -->
<g id="edge43" class="edge">
<title>Node0&#45;&gt;Node34</title>
<path fill="none" stroke="#191970" d="M910.0354,-220.4795C959.3859,-210.8884 1037.4565,-195.7156 1090.2935,-185.447"/>
<polygon fill="#191970" stroke="#191970" points="1091.0319,-188.869 1100.1805,-183.5255 1089.6964,-181.9976 1091.0319,-188.869"/>
</g>
<!-- Node2 -->
<g id="node3" class="node">
<title>Node2</title>
<g id="a_node3"><a xlink:href="src_2include_2common_8h.html" target="_top" xlink:title="common.h">
<polygon fill="#ffffff" stroke="#000000" points="776.2783,-55.5 776.2783,-73.5 838.9629,-73.5 838.9629,-55.5 776.2783,-55.5"/>
<text text-anchor="middle" x="807.6206" y="-61.5" font-family="Helvetica,sans-Serif" font-size="10.00" fill="#000000">common.h</text>
</a>
</g>
</g>
<!-- Node1&#45;&gt;Node2 -->
<g id="edge2" class="edge">
<title>Node1&#45;&gt;Node2</title>
<path fill="none" stroke="#191970" d="M594.427,-165.4098C574.018,-152.8147 543.4459,-129.4122 559.6206,-110 585.4343,-79.0194 702.5478,-69.0647 766.1735,-65.9182"/>
<polygon fill="#191970" stroke="#191970" points="766.4488,-69.4094 776.2774,-65.4536 766.1272,-62.4168 766.4488,-69.4094"/>
</g>
<!-- Node25 -->
<g id="node26" class="node">
<title>Node25</title>
<g id="a_node26"><a xlink:href="src_2include_2context_8h.html" target="_top" xlink:title="context.h">
<polygon fill="#ffffff" stroke="#000000" points="670.3301,-110.5 670.3301,-128.5 726.9111,-128.5 726.9111,-110.5 670.3301,-110.5"/>
<text text-anchor="middle" x="698.6206" y="-116.5" font-family="Helvetica,sans-Serif" font-size="10.00" fill="#000000">context.h</text>
</a>
</g>
</g>
<!-- Node1&#45;&gt;Node25 -->
<g id="edge27" class="edge">
<title>Node1&#45;&gt;Node25</title>
<path fill="none" stroke="#191970" d="M625.152,-165.4179C638.782,-156.8992 659.3941,-144.0166 675.3202,-134.0627"/>
<polygon fill="#191970" stroke="#191970" points="677.4426,-136.8637 684.0676,-128.5956 673.7326,-130.9277 677.4426,-136.8637"/>
</g>
<!-- Node26 -->
<g id="node27" class="node">
<title>Node26</title>
<g id="a_node27"><a xlink:href="app__events_2include_2app__event__id_8h.html" target="_top" xlink:title="app_event_id.h">
<polygon fill="#ffffff" stroke="#000000" points="568.4238,-110.5 568.4238,-128.5 652.8174,-128.5 652.8174,-110.5 568.4238,-110.5"/>
<text text-anchor="middle" x="610.6206" y="-116.5" font-family="Helvetica,sans-Serif" font-size="10.00" fill="#000000">app_event_id.h</text>
</a>
</g>
</g>
<!-- Node1&#45;&gt;Node26 -->
<g id="edge29" class="edge">
<title>Node1&#45;&gt;Node26</title>
<path fill="none" stroke="#191970" d="M610.6206,-165.4179C610.6206,-158.2164 610.6206,-147.8962 610.6206,-138.8632"/>
<polygon fill="#191970" stroke="#191970" points="614.1207,-138.7794 610.6206,-128.7795 607.1207,-138.7795 614.1207,-138.7794"/>
</g>
<!-- Node27 -->
<g id="node28" class="node">
<title>Node27</title>
<g id="a_node28"><a xlink:href="app__events_2include_2app__event__list_8h.html" target="_top" xlink:title="app_event_list.h">
<polygon fill="#ffffff" stroke="#000000" points="97.2046,-55.5 97.2046,-73.5 186.0366,-73.5 186.0366,-55.5 97.2046,-55.5"/>
<text text-anchor="middle" x="141.6206" y="-61.5" font-family="Helvetica,sans-Serif" font-size="10.00" fill="#000000">app_event_list.h</text>
</a>
</g>
</g>
<!-- Node1&#45;&gt;Node27 -->
<g id="edge30" class="edge">
<title>Node1&#45;&gt;Node27</title>
<path fill="none" stroke="#191970" d="M574.9844,-166.1418C491.7623,-146.6228 284.5398,-98.0205 190.0089,-75.8491"/>
<polygon fill="#191970" stroke="#191970" points="190.6709,-72.4094 180.1359,-73.5334 189.0724,-79.2245 190.6709,-72.4094"/>
</g>
<!-- Node3 -->
<g id="node4" class="node">
<title>Node3</title>
<polygon fill="#ffffff" stroke="#bfbfbf" points="1549.8892,-.5 1549.8892,-18.5 1595.3521,-18.5 1595.3521,-.5 1549.8892,-.5"/>
<text text-anchor="middle" x="1572.6206" y="-6.5" font-family="Helvetica,sans-Serif" font-size="10.00" fill="#000000">stdio.h</text>
</g>
<!-- Node2&#45;&gt;Node3 -->
<g id="edge3" class="edge">
<title>Node2&#45;&gt;Node3</title>
<path fill="none" stroke="#191970" d="M839.3022,-63.5291C958.9361,-59.7127 1383.9047,-44.7579 1539.4576,-18.9625"/>
<polygon fill="#191970" stroke="#191970" points="1540.4969,-22.3341 1549.7464,-17.1672 1539.2936,-15.4383 1540.4969,-22.3341"/>
</g>
<!-- Node4 -->
<g id="node5" class="node">
<title>Node4</title>
<polygon fill="#ffffff" stroke="#bfbfbf" points="61.1084,-.5 61.1084,-18.5 112.1328,-18.5 112.1328,-.5 61.1084,-.5"/>
<text text-anchor="middle" x="86.6206" y="-6.5" font-family="Helvetica,sans-Serif" font-size="10.00" fill="#000000">unistd.h</text>
</g>
<!-- Node2&#45;&gt;Node4 -->
<g id="edge4" class="edge">
<title>Node2&#45;&gt;Node4</title>
<path fill="none" stroke="#191970" d="M776.0013,-63.2735C661.5508,-58.7022 268.3754,-41.8204 122.5487,-18.9748"/>
<polygon fill="#191970" stroke="#191970" points="122.9193,-15.4889 112.4839,-17.3197 121.7834,-22.3961 122.9193,-15.4889"/>
</g>
<!-- Node5 -->
<g id="node6" class="node">
<title>Node5</title>
<polygon fill="#ffffff" stroke="#bfbfbf" points="129.7783,-.5 129.7783,-18.5 177.4629,-18.5 177.4629,-.5 129.7783,-.5"/>
<text text-anchor="middle" x="153.6206" y="-6.5" font-family="Helvetica,sans-Serif" font-size="10.00" fill="#000000">stdlib.h</text>
</g>
<!-- Node2&#45;&gt;Node5 -->
<g id="edge5" class="edge">
<title>Node2&#45;&gt;Node5</title>
<path fill="none" stroke="#191970" d="M776.0573,-63.0539C669.1039,-58.0218 320.1635,-40.4939 187.5512,-18.7447"/>
<polygon fill="#191970" stroke="#191970" points="188.0844,-15.285 177.6353,-17.0364 186.8959,-22.1834 188.0844,-15.285"/>
</g>
<!-- Node6 -->
<g id="node7" class="node">
<title>Node6</title>
<polygon fill="#ffffff" stroke="#bfbfbf" points="195.2241,-.5 195.2241,-18.5 244.0171,-18.5 244.0171,-.5 195.2241,-.5"/>
<text text-anchor="middle" x="219.6206" y="-6.5" font-family="Helvetica,sans-Serif" font-size="10.00" fill="#000000">string.h</text>
</g>
<!-- Node2&#45;&gt;Node6 -->
<g id="edge6" class="edge">
<title>Node2&#45;&gt;Node6</title>
<path fill="none" stroke="#191970" d="M776.0406,-64.0978C692.2227,-62.5684 457.2102,-55.2748 254.3037,-18.9989"/>
<polygon fill="#191970" stroke="#191970" points="254.8258,-15.5365 244.3613,-17.1932 253.5748,-22.4238 254.8258,-15.5365"/>
</g>
<!-- Node7 -->
<g id="node8" class="node">
<title>Node7</title>
<polygon fill="#ffffff" stroke="#bfbfbf" points="261.5542,-.5 261.5542,-18.5 313.687,-18.5 313.687,-.5 261.5542,-.5"/>
<text text-anchor="middle" x="287.6206" y="-6.5" font-family="Helvetica,sans-Serif" font-size="10.00" fill="#000000">stdarg.h</text>
</g>
<!-- Node2&#45;&gt;Node7 -->
<g id="edge7" class="edge">
<title>Node2&#45;&gt;Node7</title>
<path fill="none" stroke="#191970" d="M776.1601,-63.4165C699.9898,-60.3969 499.5859,-50.084 323.8246,-18.9364"/>
<polygon fill="#191970" stroke="#191970" points="324.3453,-15.4739 313.8834,-17.1474 323.1054,-22.3633 324.3453,-15.4739"/>
</g>
<!-- Node8 -->
<g id="node9" class="node">
<title>Node8</title>
<polygon fill="#ffffff" stroke="#bfbfbf" points="331.5,-.5 331.5,-18.5 379.7412,-18.5 379.7412,-.5 331.5,-.5"/>
<text text-anchor="middle" x="355.6206" y="-6.5" font-family="Helvetica,sans-Serif" font-size="10.00" fill="#000000">stdint.h</text>
</g>
<!-- Node2&#45;&gt;Node8 -->
<g id="edge8" class="edge">
<title>Node2&#45;&gt;Node8</title>
<path fill="none" stroke="#191970" d="M776.0676,-62.932C707.4433,-59.1267 539.4444,-47.6706 390.2661,-19.0309"/>
<polygon fill="#191970" stroke="#191970" points="390.4997,-15.5105 380.0143,-17.0294 389.1583,-22.3808 390.4997,-15.5105"/>
</g>
<!-- Node9 -->
<g id="node10" class="node">
<title>Node9</title>
<polygon fill="#ffffff" stroke="#bfbfbf" points="397.4927,-.5 397.4927,-18.5 455.7485,-18.5 455.7485,-.5 397.4927,-.5"/>
<text text-anchor="middle" x="426.6206" y="-6.5" font-family="Helvetica,sans-Serif" font-size="10.00" fill="#000000">pthread.h</text>
</g>
<!-- Node2&#45;&gt;Node9 -->
<g id="edge9" class="edge">
<title>Node2&#45;&gt;Node9</title>
<path fill="none" stroke="#191970" d="M776.2174,-61.5352C717.2819,-55.7134 585.9457,-41.5214 466.0858,-19.1052"/>
<polygon fill="#191970" stroke="#191970" points="466.4831,-15.6183 456.0062,-17.1952 465.1797,-22.4959 466.4831,-15.6183"/>
</g>
<!-- Node10 -->
<g id="node11" class="node">
<title>Node10</title>
<polygon fill="#ffffff" stroke="#bfbfbf" points="473.5,-.5 473.5,-18.5 521.7412,-18.5 521.7412,-.5 473.5,-.5"/>
<text text-anchor="middle" x="497.6206" y="-6.5" font-family="Helvetica,sans-Serif" font-size="10.00" fill="#000000">ctype.h</text>
</g>
<!-- Node2&#45;&gt;Node10 -->
<g id="edge10" class="edge">
<title>Node2&#45;&gt;Node10</title>
<path fill="none" stroke="#191970" d="M776.2339,-60.5682C726.4006,-54.062 625.9845,-39.879 531.9979,-19.1078"/>
<polygon fill="#191970" stroke="#191970" points="532.5696,-15.6492 522.0462,-16.8779 531.039,-22.4798 532.5696,-15.6492"/>
</g>
<!-- Node11 -->
<g id="node12" class="node">
<title>Node11</title>
<polygon fill="#ffffff" stroke="#bfbfbf" points="539.7783,-.5 539.7783,-18.5 587.4629,-18.5 587.4629,-.5 539.7783,-.5"/>
<text text-anchor="middle" x="563.6206" y="-6.5" font-family="Helvetica,sans-Serif" font-size="10.00" fill="#000000">errno.h</text>
</g>
<!-- Node2&#45;&gt;Node11 -->
<g id="edge11" class="edge">
<title>Node2&#45;&gt;Node11</title>
<path fill="none" stroke="#191970" d="M776.1934,-58.5431C736.5951,-50.8661 666.2594,-36.6643 597.7663,-19.4239"/>
<polygon fill="#191970" stroke="#191970" points="598.2322,-15.9311 587.6781,-16.8586 596.5071,-22.7152 598.2322,-15.9311"/>
</g>
<!-- Node12 -->
<g id="node13" class="node">
<title>Node12</title>
<polygon fill="#ffffff" stroke="#bfbfbf" points="604.9927,-.5 604.9927,-18.5 668.2485,-18.5 668.2485,-.5 604.9927,-.5"/>
<text text-anchor="middle" x="636.6206" y="-6.5" font-family="Helvetica,sans-Serif" font-size="10.00" fill="#000000">arpa/inet.h</text>
</g>
<!-- Node2&#45;&gt;Node12 -->
<g id="edge12" class="edge">
<title>Node2&#45;&gt;Node12</title>
<path fill="none" stroke="#191970" d="M779.3834,-55.4179C750.7084,-46.1949 706.1296,-31.8567 674.4216,-21.6582"/>
<polygon fill="#191970" stroke="#191970" points="675.2069,-18.2343 664.6155,-18.5042 673.0635,-24.8981 675.2069,-18.2343"/>
</g>
<!-- Node13 -->
<g id="node14" class="node">
<title>Node13</title>
<polygon fill="#ffffff" stroke="#bfbfbf" points="686.1577,-.5 686.1577,-18.5 751.0835,-18.5 751.0835,-.5 686.1577,-.5"/>
<text text-anchor="middle" x="718.6206" y="-6.5" font-family="Helvetica,sans-Serif" font-size="10.00" fill="#000000">netinet/in.h</text>
</g>
<!-- Node2&#45;&gt;Node13 -->
<g id="edge13" class="edge">
<title>Node2&#45;&gt;Node13</title>
<path fill="none" stroke="#191970" d="M792.9241,-55.4179C779.1392,-46.8992 758.2929,-34.0166 742.1857,-24.0627"/>
<polygon fill="#191970" stroke="#191970" points="743.6857,-20.8753 733.339,-18.5956 740.0058,-26.83 743.6857,-20.8753"/>
</g>
<!-- Node14 -->
<g id="node15" class="node">
<title>Node14</title>
<polygon fill="#ffffff" stroke="#bfbfbf" points="768.7637,-.5 768.7637,-18.5 846.4775,-18.5 846.4775,-.5 768.7637,-.5"/>
<text text-anchor="middle" x="807.6206" y="-6.5" font-family="Helvetica,sans-Serif" font-size="10.00" fill="#000000">net/ethernet.h</text>
</g>
<!-- Node2&#45;&gt;Node14 -->
<g id="edge14" class="edge">
<title>Node2&#45;&gt;Node14</title>
<path fill="none" stroke="#191970" d="M807.6206,-55.4179C807.6206,-48.2164 807.6206,-37.8962 807.6206,-28.8632"/>
<polygon fill="#191970" stroke="#191970" points="811.1207,-28.7794 807.6206,-18.7795 804.1207,-28.7795 811.1207,-28.7794"/>
</g>
<!-- Node15 -->
<g id="node16" class="node">
<title>Node15</title>
<polygon fill="#ffffff" stroke="#bfbfbf" points="864.1577,-.5 864.1577,-18.5 929.0835,-18.5 929.0835,-.5 864.1577,-.5"/>
<text text-anchor="middle" x="896.6206" y="-6.5" font-family="Helvetica,sans-Serif" font-size="10.00" fill="#000000">netinet/ip.h</text>
</g>
<!-- Node2&#45;&gt;Node15 -->
<g id="edge15" class="edge">
<title>Node2&#45;&gt;Node15</title>
<path fill="none" stroke="#191970" d="M822.3171,-55.4179C836.102,-46.8992 856.9484,-34.0166 873.0555,-24.0627"/>
<polygon fill="#191970" stroke="#191970" points="875.2354,-26.83 881.9022,-18.5956 871.5555,-20.8753 875.2354,-26.83"/>
</g>
<!-- Node16 -->
<g id="node17" class="node">
<title>Node16</title>
<polygon fill="#ffffff" stroke="#bfbfbf" points="947.3794,-.5 947.3794,-18.5 1017.8618,-18.5 1017.8618,-.5 947.3794,-.5"/>
<text text-anchor="middle" x="982.6206" y="-6.5" font-family="Helvetica,sans-Serif" font-size="10.00" fill="#000000">netinet/tcp.h</text>
</g>
<!-- Node2&#45;&gt;Node16 -->
<g id="edge16" class="edge">
<title>Node2&#45;&gt;Node16</title>
<path fill="none" stroke="#191970" d="M836.5183,-55.4179C865.9911,-46.155 911.881,-31.7325 944.3561,-21.526"/>
<polygon fill="#191970" stroke="#191970" points="945.4803,-24.8415 953.9708,-18.5042 943.3815,-18.1636 945.4803,-24.8415"/>
</g>
<!-- Node17 -->
<g id="node18" class="node">
<title>Node17</title>
<polygon fill="#ffffff" stroke="#bfbfbf" points="1035.8203,-.5 1035.8203,-18.5 1127.4209,-18.5 1127.4209,-.5 1035.8203,-.5"/>
<text text-anchor="middle" x="1081.6206" y="-6.5" font-family="Helvetica,sans-Serif" font-size="10.00" fill="#000000">netinet/ip_icmp.h</text>
</g>
<!-- Node2&#45;&gt;Node17 -->
<g id="edge17" class="edge">
<title>Node2&#45;&gt;Node17</title>
<path fill="none" stroke="#191970" d="M839.0519,-58.1908C884.8011,-49.0076 970.4021,-31.8249 1026.7046,-20.5233"/>
<polygon fill="#191970" stroke="#191970" points="1027.3986,-23.9539 1036.5142,-18.5542 1026.0209,-17.0908 1027.3986,-23.9539"/>
</g>
<!-- Node18 -->
<g id="node19" class="node">
<title>Node18</title>
<polygon fill="#ffffff" stroke="#bfbfbf" points="1145.2168,-.5 1145.2168,-18.5 1204.0244,-18.5 1204.0244,-.5 1145.2168,-.5"/>
<text text-anchor="middle" x="1174.6206" y="-6.5" font-family="Helvetica,sans-Serif" font-size="10.00" fill="#000000">jansson.h</text>
</g>
<!-- Node2&#45;&gt;Node18 -->
<g id="edge18" class="edge">
<title>Node2&#45;&gt;Node18</title>
<path fill="none" stroke="#191970" d="M839.1059,-61.2867C896.2275,-55.2119 1020.8868,-40.83 1134.8794,-19.1838"/>
<polygon fill="#191970" stroke="#191970" points="1135.6584,-22.5982 1144.8175,-17.2727 1134.3364,-15.7242 1135.6584,-22.5982"/>
</g>
<!-- Node19 -->
<g id="node20" class="node">
<title>Node19</title>
<polygon fill="#ffffff" stroke="#bfbfbf" points="1221.7266,-.5 1221.7266,-18.5 1265.5146,-18.5 1265.5146,-.5 1221.7266,-.5"/>
<text text-anchor="middle" x="1243.6206" y="-6.5" font-family="Helvetica,sans-Serif" font-size="10.00" fill="#000000">libcli.h</text>
</g>
<!-- Node2&#45;&gt;Node19 -->
<g id="edge19" class="edge">
<title>Node2&#45;&gt;Node19</title>
<path fill="none" stroke="#191970" d="M839.184,-62.9497C906.2284,-59.2321 1067.8007,-48.0217 1211.5208,-18.8871"/>
<polygon fill="#191970" stroke="#191970" points="1212.311,-22.2979 1221.398,-16.8503 1210.8972,-15.4421 1212.311,-22.2979"/>
</g>
<!-- Node20 -->
<g id="node21" class="node">
<title>Node20</title>
<polygon fill="#ffffff" stroke="#bfbfbf" points="1284.0049,-.5 1284.0049,-18.5 1327.2363,-18.5 1327.2363,-.5 1284.0049,-.5"/>
<text text-anchor="middle" x="1305.6206" y="-6.5" font-family="Helvetica,sans-Serif" font-size="10.00" fill="#000000">zmq.h</text>
</g>
<!-- Node2&#45;&gt;Node20 -->
<g id="edge20" class="edge">
<title>Node2&#45;&gt;Node20</title>
<path fill="none" stroke="#191970" d="M839.0895,-63.6045C913.3271,-61.0322 1105.1721,-51.7008 1273.7016,-18.7924"/>
<polygon fill="#191970" stroke="#191970" points="1274.6178,-22.1789 1283.7443,-16.7976 1273.254,-15.313 1274.6178,-22.1789"/>
</g>
<!-- Node21 -->
<g id="node22" class="node">
<title>Node21</title>
<g id="a_node22"><a xlink:href="mac2int_8h.html" target="_top" xlink:title="mac2int.h">
<polygon fill="#ffffff" stroke="#000000" points="1344.9434,-.5 1344.9434,-18.5 1404.2979,-18.5 1404.2979,-.5 1344.9434,-.5"/>
<text text-anchor="middle" x="1374.6206" y="-6.5" font-family="Helvetica,sans-Serif" font-size="10.00" fill="#000000">mac2int.h</text>
</a>
</g>
</g>
<!-- Node2&#45;&gt;Node21 -->
<g id="edge21" class="edge">
<title>Node2&#45;&gt;Node21</title>
<path fill="none" stroke="#191970" d="M839.2094,-63.3726C920.7726,-60.2621 1143.9591,-49.6557 1327.6206,-19 1329.941,-18.6127 1332.3281,-18.1566 1334.7439,-17.6574"/>
<polygon fill="#191970" stroke="#191970" points="1335.7398,-21.0213 1344.7379,-15.428 1334.2157,-14.1892 1335.7398,-21.0213"/>
</g>
<!-- Node22 -->
<g id="node23" class="node">
<title>Node22</title>
<g id="a_node23"><a xlink:href="ip2int_8h.html" target="_top" xlink:title="ip2int.h">
<polygon fill="#ffffff" stroke="#000000" points="1422.4976,-.5 1422.4976,-18.5 1470.7437,-18.5 1470.7437,-.5 1422.4976,-.5"/>
<text text-anchor="middle" x="1446.6206" y="-6.5" font-family="Helvetica,sans-Serif" font-size="10.00" fill="#000000">ip2int.h</text>
</a>
</g>
</g>
<!-- Node2&#45;&gt;Node22 -->
<g id="edge23" class="edge">
<title>Node2&#45;&gt;Node22</title>
<path fill="none" stroke="#191970" d="M839.236,-62.7997C946.3225,-57.2539 1293.7665,-38.8997 1404.6206,-19 1407.0852,-18.5576 1409.6293,-18.0046 1412.2003,-17.3893"/>
<polygon fill="#191970" stroke="#191970" points="1413.3387,-20.7099 1422.1382,-14.8091 1411.5795,-13.9345 1413.3387,-20.7099"/>
</g>
<!-- Node23 -->
<g id="node24" class="node">
<title>Node23</title>
<g id="a_node24"><a xlink:href="src_2include_2type_8h.html" target="_top" xlink:title="type.h">
<polygon fill="#ffffff" stroke="#000000" points="0,-.5 0,-18.5 43.2412,-18.5 43.2412,-.5 0,-.5"/>
<text text-anchor="middle" x="21.6206" y="-6.5" font-family="Helvetica,sans-Serif" font-size="10.00" fill="#000000">type.h</text>
</a>
</g>
</g>
<!-- Node2&#45;&gt;Node23 -->
<g id="edge25" class="edge">
<title>Node2&#45;&gt;Node23</title>
<path fill="none" stroke="#191970" d="M776.2619,-63.6429C654.6867,-60.1643 213.6744,-46.0614 53.5515,-18.895"/>
<polygon fill="#191970" stroke="#191970" points="53.8764,-15.3978 43.4171,-17.0867 52.6467,-22.2889 53.8764,-15.3978"/>
</g>
<!-- Node24 -->
<g id="node25" class="node">
<title>Node24</title>
<polygon fill="#ffffff" stroke="#bfbfbf" points="1489.0049,-.5 1489.0049,-18.5 1532.2363,-18.5 1532.2363,-.5 1489.0049,-.5"/>
<text text-anchor="middle" x="1510.6206" y="-6.5" font-family="Helvetica,sans-Serif" font-size="10.00" fill="#000000">time.h</text>
</g>
<!-- Node2&#45;&gt;Node24 -->
<g id="edge26" class="edge">
<title>Node2&#45;&gt;Node24</title>
<path fill="none" stroke="#191970" d="M839.3596,-63.319C952.3905,-58.966 1335.7234,-42.9078 1478.8752,-18.6412"/>
<polygon fill="#191970" stroke="#191970" points="1479.5291,-22.0799 1488.7601,-16.8799 1478.3011,-15.1885 1479.5291,-22.0799"/>
</g>
<!-- Node21&#45;&gt;Node2 -->
<g id="edge22" class="edge">
<title>Node21&#45;&gt;Node2</title>
<path fill="none" stroke="#191970" d="M1348.056,-18.5732C1347.2384,-18.723 1346.4255,-18.8657 1345.6206,-19 1162.6133,-49.5465 940.362,-60.1863 849.3373,-63.3391"/>
<polygon fill="#191970" stroke="#191970" points="849.0306,-59.8473 839.153,-63.6791 849.2642,-66.8434 849.0306,-59.8473"/>
</g>
<!-- Node22&#45;&gt;Node2 -->
<g id="edge24" class="edge">
<title>Node22&#45;&gt;Node2</title>
<path fill="none" stroke="#191970" d="M1425.1068,-18.5225C1424.2725,-18.6928 1423.4421,-18.8525 1422.6206,-19 1312.6202,-38.7465 969.6594,-56.9712 849.5506,-62.6693"/>
<polygon fill="#191970" stroke="#191970" points="849.1219,-59.1854 839.2971,-63.1507 849.4502,-66.1777 849.1219,-59.1854"/>
</g>
<!-- Node25&#45;&gt;Node2 -->
<g id="edge28" class="edge">
<title>Node25&#45;&gt;Node2</title>
<path fill="none" stroke="#191970" d="M716.6197,-110.4179C733.9756,-101.6603 760.4717,-88.2907 780.4052,-78.2326"/>
<polygon fill="#191970" stroke="#191970" points="782.2436,-81.2253 789.5947,-73.5956 779.0902,-74.9758 782.2436,-81.2253"/>
</g>
<!-- Node27&#45;&gt;Node23 -->
<g id="edge31" class="edge">
<title>Node27&#45;&gt;Node23</title>
<path fill="none" stroke="#191970" d="M121.805,-55.4179C102.4371,-46.5409 72.7303,-32.9253 50.6889,-22.823"/>
<polygon fill="#191970" stroke="#191970" points="52.0146,-19.5805 41.4656,-18.5956 49.0979,-25.944 52.0146,-19.5805"/>
</g>
<!-- Node28&#45;&gt;Node2 -->
<g id="edge33" class="edge">
<title>Node28&#45;&gt;Node2</title>
<path fill="none" stroke="#191970" d="M768.6566,-165.4155C774.4024,-156.4568 782.9856,-142.2244 788.6206,-129 794.9128,-114.2334 799.927,-96.722 803.2209,-83.6743"/>
<polygon fill="#191970" stroke="#191970" points="806.6307,-84.4642 805.5734,-73.9222 799.8259,-82.8226 806.6307,-84.4642"/>
</g>
<!-- Node28&#45;&gt;Node25 -->
<g id="edge34" class="edge">
<title>Node28&#45;&gt;Node25</title>
<path fill="none" stroke="#191970" d="M752.0523,-165.4179C742.5673,-157.2667 728.4331,-145.1201 717.084,-135.3669"/>
<polygon fill="#191970" stroke="#191970" points="719.2839,-132.6427 709.4185,-128.7795 714.7215,-137.9516 719.2839,-132.6427"/>
</g>
<!-- Node29 -->
<g id="node30" class="node">
<title>Node29</title>
<g id="a_node30"><a xlink:href="hash_8h.html" target="_top" xlink:title="hash.h">
<polygon fill="#ffffff" stroke="#000000" points="835.6084,-110.5 835.6084,-128.5 881.6328,-128.5 881.6328,-110.5 835.6084,-110.5"/>
<text text-anchor="middle" x="858.6206" y="-116.5" font-family="Helvetica,sans-Serif" font-size="10.00" fill="#000000">hash.h</text>
</a>
</g>
</g>
<!-- Node28&#45;&gt;Node29 -->
<g id="edge35" class="edge">
<title>Node28&#45;&gt;Node29</title>
<path fill="none" stroke="#191970" d="M778.4731,-165.4179C793.4811,-156.8195 816.249,-143.7754 833.6878,-133.7844"/>
<polygon fill="#191970" stroke="#191970" points="835.8076,-136.6037 842.7446,-128.5956 832.3278,-130.5299 835.8076,-136.6037"/>
</g>
<!-- Node30 -->
<g id="node31" class="node">
<title>Node30</title>
<g id="a_node31"><a xlink:href="str_8h.html" target="_top" xlink:title="str.h">
<polygon fill="#ffffff" stroke="#000000" points="745.1699,-110.5 745.1699,-128.5 780.0713,-128.5 780.0713,-110.5 745.1699,-110.5"/>
<text text-anchor="middle" x="762.6206" y="-116.5" font-family="Helvetica,sans-Serif" font-size="10.00" fill="#000000">str.h</text>
</a>
</g>
</g>
<!-- Node28&#45;&gt;Node30 -->
<g id="edge37" class="edge">
<title>Node28&#45;&gt;Node30</title>
<path fill="none" stroke="#191970" d="M762.6206,-165.4179C762.6206,-158.2164 762.6206,-147.8962 762.6206,-138.8632"/>
<polygon fill="#191970" stroke="#191970" points="766.1207,-138.7794 762.6206,-128.7795 759.1207,-138.7795 766.1207,-138.7794"/>
</g>
<!-- Node29&#45;&gt;Node2 -->
<g id="edge36" class="edge">
<title>Node29&#45;&gt;Node2</title>
<path fill="none" stroke="#191970" d="M850.199,-110.4179C842.8608,-102.5041 832.0304,-90.8243 823.1293,-81.2251"/>
<polygon fill="#191970" stroke="#191970" points="825.5911,-78.7324 816.2252,-73.7795 820.4582,-83.492 825.5911,-78.7324"/>
</g>
<!-- Node30&#45;&gt;Node2 -->
<g id="edge38" class="edge">
<title>Node30&#45;&gt;Node2</title>
<path fill="none" stroke="#191970" d="M770.0514,-110.4179C776.3968,-102.6624 785.7015,-91.29 793.4632,-81.8035"/>
<polygon fill="#191970" stroke="#191970" points="796.4048,-83.7354 800.0283,-73.7795 790.9871,-79.3027 796.4048,-83.7354"/>
</g>
<!-- Node33 -->
<g id="node34" class="node">
<title>Node33</title>
<g id="a_node34"><a xlink:href="base64_8h.html" target="_top" xlink:title="base64.h">
<polygon fill="#ffffff" stroke="#000000" points="900.0469,-110.5 900.0469,-128.5 957.1943,-128.5 957.1943,-110.5 900.0469,-110.5"/>
<text text-anchor="middle" x="928.6206" y="-116.5" font-family="Helvetica,sans-Serif" font-size="10.00" fill="#000000">base64.h</text>
</a>
</g>
</g>
<!-- Node32&#45;&gt;Node33 -->
<g id="edge41" class="edge">
<title>Node32&#45;&gt;Node33</title>
<path fill="none" stroke="#191970" d="M967.8595,-165.4179C961.1645,-157.5833 951.3152,-146.0575 943.1596,-136.5137"/>
<polygon fill="#191970" stroke="#191970" points="945.7077,-134.108 936.5503,-128.7795 940.3861,-138.6556 945.7077,-134.108"/>
</g>
<!-- Node33&#45;&gt;Node2 -->
<g id="edge42" class="edge">
<title>Node33&#45;&gt;Node2</title>
<path fill="none" stroke="#191970" d="M908.6399,-110.4179C889.1106,-101.5409 859.1562,-87.9253 836.9311,-77.823"/>
<polygon fill="#191970" stroke="#191970" points="838.183,-74.5474 827.631,-73.5956 835.2863,-80.92 838.183,-74.5474"/>
</g>
<!-- Node35 -->
<g id="node36" class="node">
<title>Node35</title>
<polygon fill="#ffffff" stroke="#bfbfbf" points="1285.2808,-110.5 1285.2808,-128.5 1327.9604,-128.5 1327.9604,-110.5 1285.2808,-110.5"/>
<text text-anchor="middle" x="1306.6206" y="-116.5" font-family="Helvetica,sans-Serif" font-size="10.00" fill="#000000">fcntl.h</text>
</g>
<!-- Node34&#45;&gt;Node35 -->
<g id="edge44" class="edge">
<title>Node34&#45;&gt;Node35</title>
<path fill="none" stroke="#191970" d="M1173.0414,-165.4179C1201.1113,-155.7688 1245.4686,-140.521 1275.2833,-130.2722"/>
<polygon fill="#191970" stroke="#191970" points="1276.4733,-133.5642 1284.7923,-127.0035 1274.1977,-126.9444 1276.4733,-133.5642"/>
</g>
<!-- Node36 -->
<g id="node37" class="node">
<title>Node36</title>
<polygon fill="#ffffff" stroke="#bfbfbf" points="1345.9385,-110.5 1345.9385,-128.5 1395.3027,-128.5 1395.3027,-110.5 1345.9385,-110.5"/>
<text text-anchor="middle" x="1370.6206" y="-116.5" font-family="Helvetica,sans-Serif" font-size="10.00" fill="#000000">netdb.h</text>
</g>
<!-- Node34&#45;&gt;Node36 -->
<g id="edge45" class="edge">
<title>Node34&#45;&gt;Node36</title>
<path fill="none" stroke="#191970" d="M1186.3936,-165.4318C1222.8033,-157.0288 1278.4111,-143.9411 1335.7938,-129.1445"/>
<polygon fill="#191970" stroke="#191970" points="1336.965,-132.4567 1345.7672,-126.56 1335.2089,-125.6805 1336.965,-132.4567"/>
</g>
<!-- Node37 -->
<g id="node38" class="node">
<title>Node37</title>
<polygon fill="#ffffff" stroke="#bfbfbf" points="975.3867,-110.5 975.3867,-128.5 1025.8545,-128.5 1025.8545,-110.5 975.3867,-110.5"/>
<text text-anchor="middle" x="1000.6206" y="-116.5" font-family="Helvetica,sans-Serif" font-size="10.00" fill="#000000">signal.h</text>
</g>
<!-- Node34&#45;&gt;Node37 -->
<g id="edge46" class="edge">
<title>Node34&#45;&gt;Node37</title>
<path fill="none" stroke="#191970" d="M1122.5117,-165.4179C1098.419,-156.3419 1061.1769,-142.3123 1034.1975,-132.1488"/>
<polygon fill="#191970" stroke="#191970" points="1035.3572,-128.8457 1024.7654,-128.5956 1032.8895,-135.3963 1035.3572,-128.8457"/>
</g>
<!-- Node38 -->
<g id="node39" class="node">
<title>Node38</title>
<polygon fill="#ffffff" stroke="#bfbfbf" points="1044,-110.5 1044,-128.5 1097.2412,-128.5 1097.2412,-110.5 1044,-110.5"/>
<text text-anchor="middle" x="1070.6206" y="-116.5" font-family="Helvetica,sans-Serif" font-size="10.00" fill="#000000">sys/un.h</text>
</g>
<!-- Node34&#45;&gt;Node38 -->
<g id="edge47" class="edge">
<title>Node34&#45;&gt;Node38</title>
<path fill="none" stroke="#191970" d="M1134.0708,-165.4179C1122.5195,-157.0584 1105.1614,-144.4966 1091.5191,-134.6239"/>
<polygon fill="#191970" stroke="#191970" points="1093.3422,-131.6229 1083.1891,-128.5956 1089.2383,-137.2938 1093.3422,-131.6229"/>
</g>
<!-- Node39 -->
<g id="node40" class="node">
<title>Node39</title>
<polygon fill="#ffffff" stroke="#bfbfbf" points="1114.9976,-110.5 1114.9976,-128.5 1178.2437,-128.5 1178.2437,-110.5 1114.9976,-110.5"/>
<text text-anchor="middle" x="1146.6206" y="-116.5" font-family="Helvetica,sans-Serif" font-size="10.00" fill="#000000">sys/epoll.h</text>
</g>
<!-- Node34&#45;&gt;Node39 -->
<g id="edge48" class="edge">
<title>Node34&#45;&gt;Node39</title>
<path fill="none" stroke="#191970" d="M1146.6206,-165.4179C1146.6206,-158.2164 1146.6206,-147.8962 1146.6206,-138.8632"/>
<polygon fill="#191970" stroke="#191970" points="1150.1207,-138.7794 1146.6206,-128.7795 1143.1207,-138.7795 1150.1207,-138.7794"/>
</g>
<!-- Node40 -->
<g id="node41" class="node">
<title>Node40</title>
<polygon fill="#ffffff" stroke="#bfbfbf" points="1196.1108,-110.5 1196.1108,-128.5 1267.1304,-128.5 1267.1304,-110.5 1196.1108,-110.5"/>
<text text-anchor="middle" x="1231.6206" y="-116.5" font-family="Helvetica,sans-Serif" font-size="10.00" fill="#000000">sys/socket.h</text>
</g>
<!-- Node34&#45;&gt;Node40 -->
<g id="edge49" class="edge">
<title>Node34&#45;&gt;Node40</title>
<path fill="none" stroke="#191970" d="M1160.6566,-165.4179C1173.8219,-156.8992 1193.7314,-144.0166 1209.1146,-134.0627"/>
<polygon fill="#191970" stroke="#191970" points="1211.0694,-136.9667 1217.5637,-128.5956 1207.2666,-131.0897 1211.0694,-136.9667"/>
</g>
</g>
</svg>
