<?xml version="1.0" encoding="UTF-8" standalone="no"?>
<!DOCTYPE svg PUBLIC "-//W3C//DTD SVG 1.1//EN"
 "http://www.w3.org/Graphics/SVG/1.1/DTD/svg11.dtd">
<!-- Generated by graphviz version 2.40.1 (20161225.0304)
 -->
<!-- Title: ext_comps/shim/include/shim.h Pages: 1 -->
<svg width="2561pt" height="422pt"
 viewBox="0.00 0.00 2560.62 422.00" xmlns="http://www.w3.org/2000/svg" xmlns:xlink="http://www.w3.org/1999/xlink">
<g id="graph0" class="graph" transform="scale(1 1) rotate(0) translate(4 418)">
<title>ext_comps/shim/include/shim.h</title>
<polygon fill="#ffffff" stroke="transparent" points="-4,4 -4,-418 2556.6206,-418 2556.6206,4 -4,4"/>
<!-- Node0 -->
<g id="node1" class="node">
<title>Node0</title>
<polygon fill="#bfbfbf" stroke="#000000" points="1073.6431,-385.5 1073.6431,-413.5 1196.3569,-413.5 1196.3569,-385.5 1073.6431,-385.5"/>
<text text-anchor="start" x="1081.6431" y="-401.5" font-family="Helvetica,sans-Serif" font-size="10.00" fill="#000000">ext_comps/shim/include</text>
<text text-anchor="middle" x="1135" y="-391.5" font-family="Helvetica,sans-Serif" font-size="10.00" fill="#000000">/shim.h</text>
</g>
<!-- Node1 -->
<g id="node2" class="node">
<title>Node1</title>
<g id="a_node2"><a xlink:href="ext__comps_2shim_2include_2common_8h.html" target="_top" xlink:title="common.h">
<polygon fill="#ffffff" stroke="#000000" points="1215.6577,-220.5 1215.6577,-238.5 1278.3423,-238.5 1278.3423,-220.5 1215.6577,-220.5"/>
<text text-anchor="middle" x="1247" y="-226.5" font-family="Helvetica,sans-Serif" font-size="10.00" fill="#000000">common.h</text>
</a>
</g>
</g>
<!-- Node0&#45;&gt;Node1 -->
<g id="edge1" class="edge">
<title>Node0&#45;&gt;Node1</title>
<path fill="none" stroke="#191970" d="M1133.1954,-385.2237C1130.8371,-360.292 1129.5333,-308.3031 1154,-275 1166.5061,-257.9771 1187.1277,-246.9949 1205.7787,-240.0946"/>
<polygon fill="#191970" stroke="#191970" points="1206.9639,-243.3884 1215.2989,-236.8479 1204.7044,-236.7631 1206.9639,-243.3884"/>
</g>
<!-- Node31 -->
<g id="node32" class="node">
<title>Node31</title>
<g id="a_node32"><a xlink:href="str_8h.html" target="_top" xlink:title="str.h">
<polygon fill="#ffffff" stroke="#000000" points="348.5493,-.5 348.5493,-18.5 383.4507,-18.5 383.4507,-.5 348.5493,-.5"/>
<text text-anchor="middle" x="366" y="-6.5" font-family="Helvetica,sans-Serif" font-size="10.00" fill="#000000">str.h</text>
</a>
</g>
</g>
<!-- Node0&#45;&gt;Node31 -->
<g id="edge92" class="edge">
<title>Node0&#45;&gt;Node31</title>
<path fill="none" stroke="#191970" d="M1073.575,-396.5282C837.2741,-384.6969 0,-338.9349 0,-284.5 0,-284.5 0,-284.5 0,-119.5 0,-75.1974 35.7246,-73.4555 76,-55 122.6437,-33.6264 275.3164,-17.7271 338.3731,-11.9131"/>
<polygon fill="#191970" stroke="#191970" points="338.736,-15.3946 348.3792,-11.0062 338.1041,-8.4232 338.736,-15.3946"/>
</g>
<!-- Node38 -->
<g id="node39" class="node">
<title>Node38</title>
<g id="a_node39"><a xlink:href="ext__comps_2shim_2include_2event_8h.html" target="_top" xlink:title="event.h">
<polygon fill="#ffffff" stroke="#000000" points="1166.5986,-330.5 1166.5986,-348.5 1215.4014,-348.5 1215.4014,-330.5 1166.5986,-330.5"/>
<text text-anchor="middle" x="1191" y="-336.5" font-family="Helvetica,sans-Serif" font-size="10.00" fill="#000000">event.h</text>
</a>
</g>
</g>
<!-- Node0&#45;&gt;Node38 -->
<g id="edge76" class="edge">
<title>Node0&#45;&gt;Node38</title>
<path fill="none" stroke="#191970" d="M1148.2712,-385.2808C1156.4764,-376.4896 1167.0406,-365.1708 1175.6117,-355.9875"/>
<polygon fill="#191970" stroke="#191970" points="1178.2569,-358.2829 1182.5214,-348.5842 1173.1395,-353.5066 1178.2569,-358.2829"/>
</g>
<!-- Node42 -->
<g id="node43" class="node">
<title>Node42</title>
<g id="a_node43"><a xlink:href="ext__comps_2shim_2include_2component_8h.html" target="_top" xlink:title="component.h">
<polygon fill="#ffffff" stroke="#000000" points="1033.0913,-330.5 1033.0913,-348.5 1106.9087,-348.5 1106.9087,-330.5 1033.0913,-330.5"/>
<text text-anchor="middle" x="1070" y="-336.5" font-family="Helvetica,sans-Serif" font-size="10.00" fill="#000000">component.h</text>
</a>
</g>
</g>
<!-- Node0&#45;&gt;Node42 -->
<g id="edge83" class="edge">
<title>Node0&#45;&gt;Node42</title>
<path fill="none" stroke="#191970" d="M1119.5959,-385.2808C1109.8796,-376.312 1097.3135,-364.7124 1087.2613,-355.4335"/>
<polygon fill="#191970" stroke="#191970" points="1089.5633,-352.7952 1079.8412,-348.5842 1084.8153,-357.9388 1089.5633,-352.7952"/>
</g>
<!-- Node43 -->
<g id="node44" class="node">
<title>Node43</title>
<g id="a_node44"><a xlink:href="hash_8h.html" target="_top" xlink:title="hash.h">
<polygon fill="#ffffff" stroke="#000000" points="545.9878,-275.5 545.9878,-293.5 592.0122,-293.5 592.0122,-275.5 545.9878,-275.5"/>
<text text-anchor="middle" x="569" y="-281.5" font-family="Helvetica,sans-Serif" font-size="10.00" fill="#000000">hash.h</text>
</a>
</g>
</g>
<!-- Node0&#45;&gt;Node43 -->
<g id="edge91" class="edge">
<title>Node0&#45;&gt;Node43</title>
<path fill="none" stroke="#191970" d="M1073.2753,-388.3193C974.3283,-370.1429 774.2338,-332.3433 606,-294 604.727,-293.7099 603.4309,-293.4082 602.1229,-293.0984"/>
<polygon fill="#191970" stroke="#191970" points="602.5916,-289.6096 592.0454,-290.6238 600.9222,-296.4076 602.5916,-289.6096"/>
</g>
<!-- Node44 -->
<g id="node45" class="node">
<title>Node44</title>
<polygon fill="#ffffff" stroke="#bfbfbf" points="1233.1997,-330.5 1233.1997,-348.5 1324.8003,-348.5 1324.8003,-330.5 1233.1997,-330.5"/>
<text text-anchor="middle" x="1279" y="-336.5" font-family="Helvetica,sans-Serif" font-size="10.00" fill="#000000">component_list.h</text>
</g>
<!-- Node0&#45;&gt;Node44 -->
<g id="edge89" class="edge">
<title>Node0&#45;&gt;Node44</title>
<path fill="none" stroke="#191970" d="M1168.7616,-385.4327C1192.6196,-375.4918 1224.3689,-362.263 1247.6661,-352.5558"/>
<polygon fill="#191970" stroke="#191970" points="1249.2009,-355.708 1257.0855,-348.6311 1246.5085,-349.2465 1249.2009,-355.708"/>
</g>
<!-- Node45 -->
<g id="node46" class="node">
<title>Node45</title>
<g id="a_node46"><a xlink:href="component__info_8h.html" target="_top" xlink:title="component_info.h">
<polygon fill="#ffffff" stroke="#000000" points="1343.249,-330.5 1343.249,-348.5 1438.751,-348.5 1438.751,-330.5 1343.249,-330.5"/>
<text text-anchor="middle" x="1391" y="-336.5" font-family="Helvetica,sans-Serif" font-size="10.00" fill="#000000">component_info.h</text>
</a>
</g>
</g>
<!-- Node0&#45;&gt;Node45 -->
<g id="edge90" class="edge">
<title>Node0&#45;&gt;Node45</title>
<path fill="none" stroke="#191970" d="M1195.0206,-385.4327C1239.9383,-374.9051 1300.5897,-360.6899 1342.4659,-350.8752"/>
<polygon fill="#191970" stroke="#191970" points="1343.4845,-354.2314 1352.422,-348.5417 1341.8871,-347.4161 1343.4845,-354.2314"/>
</g>
<!-- Node2 -->
<g id="node3" class="node">
<title>Node2</title>
<polygon fill="#ffffff" stroke="#bfbfbf" points="1129.2686,-.5 1129.2686,-18.5 1174.7314,-18.5 1174.7314,-.5 1129.2686,-.5"/>
<text text-anchor="middle" x="1152" y="-6.5" font-family="Helvetica,sans-Serif" font-size="10.00" fill="#000000">stdio.h</text>
</g>
<!-- Node1&#45;&gt;Node2 -->
<g id="edge2" class="edge">
<title>Node1&#45;&gt;Node2</title>
<path fill="none" stroke="#191970" d="M1278.4562,-228.9142C1466.6284,-225.3379 2435.9348,-205.8722 2457,-184 2496.7718,-142.7045 2496.8282,-96.2411 2457,-55 2434.215,-31.4067 1385.5541,-13.2776 1184.9677,-10.0225"/>
<polygon fill="#191970" stroke="#191970" points="1184.8242,-6.5199 1174.769,-9.858 1184.7112,-13.5189 1184.8242,-6.5199"/>
</g>
<!-- Node3 -->
<g id="node4" class="node">
<title>Node3</title>
<polygon fill="#ffffff" stroke="#bfbfbf" points="2093.4878,-55.5 2093.4878,-73.5 2144.5122,-73.5 2144.5122,-55.5 2093.4878,-55.5"/>
<text text-anchor="middle" x="2119" y="-61.5" font-family="Helvetica,sans-Serif" font-size="10.00" fill="#000000">unistd.h</text>
</g>
<!-- Node1&#45;&gt;Node3 -->
<g id="edge3" class="edge">
<title>Node1&#45;&gt;Node3</title>
<path fill="none" stroke="#191970" d="M1278.4051,-227.3718C1346.2716,-222.4593 1511.5078,-208.8076 1648,-184 1812.8284,-154.0423 2005.3552,-98.6542 2083.4243,-75.3161"/>
<polygon fill="#191970" stroke="#191970" points="2084.6629,-78.5987 2093.2346,-72.3717 2082.6506,-71.8942 2084.6629,-78.5987"/>
</g>
<!-- Node4 -->
<g id="node5" class="node">
<title>Node4</title>
<polygon fill="#ffffff" stroke="#bfbfbf" points="2162.1577,-55.5 2162.1577,-73.5 2209.8423,-73.5 2209.8423,-55.5 2162.1577,-55.5"/>
<text text-anchor="middle" x="2186" y="-61.5" font-family="Helvetica,sans-Serif" font-size="10.00" fill="#000000">stdlib.h</text>
</g>
<!-- Node1&#45;&gt;Node4 -->
<g id="edge4" class="edge">
<title>Node1&#45;&gt;Node4</title>
<path fill="none" stroke="#191970" d="M1278.4939,-227.8547C1353.3737,-223.6253 1547.7661,-210.776 1708,-184 1812.5197,-166.5342 1837.1231,-154.4122 1940,-129 2032.2642,-106.2093 2057.7354,-100.5581 2152.2393,-74.4335"/>
<polygon fill="#191970" stroke="#191970" points="2153.2115,-77.7961 2161.9148,-71.7542 2151.3434,-71.05 2153.2115,-77.7961"/>
</g>
<!-- Node5 -->
<g id="node6" class="node">
<title>Node5</title>
<polygon fill="#ffffff" stroke="#bfbfbf" points="1058.9336,-.5 1058.9336,-18.5 1111.0664,-18.5 1111.0664,-.5 1058.9336,-.5"/>
<text text-anchor="middle" x="1085" y="-6.5" font-family="Helvetica,sans-Serif" font-size="10.00" fill="#000000">stdarg.h</text>
</g>
<!-- Node1&#45;&gt;Node5 -->
<g id="edge5" class="edge">
<title>Node1&#45;&gt;Node5</title>
<path fill="none" stroke="#191970" d="M1278.6429,-228.157C1397.8724,-222.9884 1819.9565,-203.6853 1953,-184 2167.7052,-152.2318 2575.3399,-210.5757 2424,-55 2374.9964,-4.6249 1262.2133,-28.033 1121.5056,-18.3449"/>
<polygon fill="#191970" stroke="#191970" points="1121.5254,-14.8302 1111.2316,-17.3376 1120.8423,-21.7968 1121.5254,-14.8302"/>
</g>
<!-- Node6 -->
<g id="node7" class="node">
<title>Node6</title>
<polygon fill="#ffffff" stroke="#bfbfbf" points="2227.8794,-55.5 2227.8794,-73.5 2276.1206,-73.5 2276.1206,-55.5 2227.8794,-55.5"/>
<text text-anchor="middle" x="2252" y="-61.5" font-family="Helvetica,sans-Serif" font-size="10.00" fill="#000000">stdint.h</text>
</g>
<!-- Node1&#45;&gt;Node6 -->
<g id="edge6" class="edge">
<title>Node1&#45;&gt;Node6</title>
<path fill="none" stroke="#191970" d="M1278.3916,-228.4358C1359.8602,-225.3132 1584.5479,-214.4 1769,-184 1939.8899,-155.8352 2139.3693,-98.4868 2217.8328,-74.9438"/>
<polygon fill="#191970" stroke="#191970" points="2219.0916,-78.22 2227.656,-71.9829 2217.0713,-71.5179 2219.0916,-78.22"/>
</g>
<!-- Node7 -->
<g id="node8" class="node">
<title>Node7</title>
<polygon fill="#ffffff" stroke="#bfbfbf" points="2294.6035,-55.5 2294.6035,-73.5 2343.3965,-73.5 2343.3965,-55.5 2294.6035,-55.5"/>
<text text-anchor="middle" x="2319" y="-61.5" font-family="Helvetica,sans-Serif" font-size="10.00" fill="#000000">string.h</text>
</g>
<!-- Node1&#45;&gt;Node7 -->
<g id="edge7" class="edge">
<title>Node1&#45;&gt;Node7</title>
<path fill="none" stroke="#191970" d="M1278.4662,-228.654C1366.2266,-225.9487 1620.9739,-215.737 1830,-184 1939.0486,-167.4429 1964.813,-155.0131 2072,-129 2163.9517,-106.6843 2188.9865,-99.819 2284.6999,-74.0462"/>
<polygon fill="#191970" stroke="#191970" points="2285.7555,-77.3867 2294.5018,-71.4074 2283.9358,-70.6274 2285.7555,-77.3867"/>
</g>
<!-- Node8 -->
<g id="node9" class="node">
<title>Node8</title>
<polygon fill="#ffffff" stroke="#bfbfbf" points="2361.1035,-55.5 2361.1035,-73.5 2414.8965,-73.5 2414.8965,-55.5 2361.1035,-55.5"/>
<text text-anchor="middle" x="2388" y="-61.5" font-family="Helvetica,sans-Serif" font-size="10.00" fill="#000000">strings.h</text>
</g>
<!-- Node1&#45;&gt;Node8 -->
<g id="edge8" class="edge">
<title>Node1&#45;&gt;Node8</title>
<path fill="none" stroke="#191970" d="M1278.4632,-229.112C1372.3956,-227.5629 1658.8031,-219.9993 1893,-184 1996.8842,-168.0316 2020.7899,-153.4949 2123,-129 2221.7083,-105.3443 2248.8746,-99.8998 2351.0927,-74.1914"/>
<polygon fill="#191970" stroke="#191970" points="2352.0479,-77.5602 2360.8899,-71.7233 2350.3379,-70.7723 2352.0479,-77.5602"/>
</g>
<!-- Node9 -->
<g id="node10" class="node">
<title>Node9</title>
<polygon fill="#ffffff" stroke="#bfbfbf" points="103.8721,-55.5 103.8721,-73.5 162.1279,-73.5 162.1279,-55.5 103.8721,-55.5"/>
<text text-anchor="middle" x="133" y="-61.5" font-family="Helvetica,sans-Serif" font-size="10.00" fill="#000000">pthread.h</text>
</g>
<!-- Node1&#45;&gt;Node9 -->
<g id="edge9" class="edge">
<title>Node1&#45;&gt;Node9</title>
<path fill="none" stroke="#191970" d="M1215.5006,-229.0595C1085.1948,-227.0334 587.9789,-217.238 435,-184 328.3656,-160.8313 210.3668,-104.3997 159.1257,-78.237"/>
<polygon fill="#191970" stroke="#191970" points="160.5638,-75.0407 150.0712,-73.5727 157.3582,-81.2636 160.5638,-75.0407"/>
</g>
<!-- Node10 -->
<g id="node11" class="node">
<title>Node10</title>
<polygon fill="#ffffff" stroke="#bfbfbf" points="179.8794,-55.5 179.8794,-73.5 228.1206,-73.5 228.1206,-55.5 179.8794,-55.5"/>
<text text-anchor="middle" x="204" y="-61.5" font-family="Helvetica,sans-Serif" font-size="10.00" fill="#000000">ctype.h</text>
</g>
<!-- Node1&#45;&gt;Node10 -->
<g id="edge10" class="edge">
<title>Node1&#45;&gt;Node10</title>
<path fill="none" stroke="#191970" d="M1215.3815,-228.8325C1092.2202,-226.0355 644.5704,-213.9825 506,-184 399.3457,-160.9231 281.357,-104.4445 230.1221,-78.2534"/>
<polygon fill="#191970" stroke="#191970" points="231.5606,-75.0572 221.0687,-73.5839 228.3518,-81.2785 231.5606,-75.0572"/>
</g>
<!-- Node11 -->
<g id="node12" class="node">
<title>Node11</title>
<polygon fill="#ffffff" stroke="#bfbfbf" points="246.1577,-55.5 246.1577,-73.5 293.8423,-73.5 293.8423,-55.5 246.1577,-55.5"/>
<text text-anchor="middle" x="270" y="-61.5" font-family="Helvetica,sans-Serif" font-size="10.00" fill="#000000">errno.h</text>
</g>
<!-- Node1&#45;&gt;Node11 -->
<g id="edge11" class="edge">
<title>Node1&#45;&gt;Node11</title>
<path fill="none" stroke="#191970" d="M1215.3418,-228.6123C1099.9022,-225.1791 701.8604,-211.5686 578,-184 469.6903,-159.8927 349.1867,-103.9769 296.7727,-78.0952"/>
<polygon fill="#191970" stroke="#191970" points="298.3083,-74.95 287.7965,-73.6264 295.1886,-81.2164 298.3083,-74.95"/>
</g>
<!-- Node12 -->
<g id="node13" class="node">
<title>Node12</title>
<polygon fill="#ffffff" stroke="#bfbfbf" points="311.3843,-55.5 311.3843,-73.5 354.6157,-73.5 354.6157,-55.5 311.3843,-55.5"/>
<text text-anchor="middle" x="333" y="-61.5" font-family="Helvetica,sans-Serif" font-size="10.00" fill="#000000">time.h</text>
</g>
<!-- Node1&#45;&gt;Node12 -->
<g id="edge12" class="edge">
<title>Node1&#45;&gt;Node12</title>
<path fill="none" stroke="#191970" d="M1215.2843,-228.2444C1107.5678,-223.8009 756.3418,-207.7993 646,-184 576.1812,-168.941 561.7419,-154.4352 495,-129 449.2403,-111.5611 396.6258,-90.4069 364.0912,-77.1961"/>
<polygon fill="#191970" stroke="#191970" points="365.2505,-73.8892 354.6687,-73.3641 362.6134,-80.3735 365.2505,-73.8892"/>
</g>
<!-- Node13 -->
<g id="node14" class="node">
<title>Node13</title>
<polygon fill="#ffffff" stroke="#bfbfbf" points="372.6602,-55.5 372.6602,-73.5 415.3398,-73.5 415.3398,-55.5 372.6602,-55.5"/>
<text text-anchor="middle" x="394" y="-61.5" font-family="Helvetica,sans-Serif" font-size="10.00" fill="#000000">fcntl.h</text>
</g>
<!-- Node1&#45;&gt;Node13 -->
<g id="edge13" class="edge">
<title>Node1&#45;&gt;Node13</title>
<path fill="none" stroke="#191970" d="M1215.4561,-227.9355C1116.1158,-222.8312 810.6095,-205.7336 714,-184 602.1112,-158.8291 476.6563,-103.493 421.9828,-77.931"/>
<polygon fill="#191970" stroke="#191970" points="423.4566,-74.7564 412.9185,-73.6616 420.4738,-81.0891 423.4566,-74.7564"/>
</g>
<!-- Node14 -->
<g id="node15" class="node">
<title>Node14</title>
<polygon fill="#ffffff" stroke="#bfbfbf" points="433.7661,-55.5 433.7661,-73.5 484.2339,-73.5 484.2339,-55.5 433.7661,-55.5"/>
<text text-anchor="middle" x="459" y="-61.5" font-family="Helvetica,sans-Serif" font-size="10.00" fill="#000000">signal.h</text>
</g>
<!-- Node1&#45;&gt;Node14 -->
<g id="edge14" class="edge">
<title>Node1&#45;&gt;Node14</title>
<path fill="none" stroke="#191970" d="M1215.5165,-227.4965C1124.5712,-221.5417 862.6486,-203.1684 779,-184 710.1937,-168.2327 696.1353,-153.6787 630,-129 582.1106,-111.1298 526.7771,-90.2084 492.3328,-77.1526"/>
<polygon fill="#191970" stroke="#191970" points="493.3618,-73.7997 482.7705,-73.5268 490.8799,-80.3449 493.3618,-73.7997"/>
</g>
<!-- Node15 -->
<g id="node16" class="node">
<title>Node15</title>
<polygon fill="#ffffff" stroke="#bfbfbf" points="891.4951,-.5 891.4951,-18.5 952.5049,-18.5 952.5049,-.5 891.4951,-.5"/>
<text text-anchor="middle" x="922" y="-6.5" font-family="Helvetica,sans-Serif" font-size="10.00" fill="#000000">sys/time.h</text>
</g>
<!-- Node1&#45;&gt;Node15 -->
<g id="edge15" class="edge">
<title>Node1&#45;&gt;Node15</title>
<path fill="none" stroke="#191970" d="M1215.5689,-229.2243C1078.3892,-227.815 531.5213,-220.0038 364,-184 237.7184,-156.8595 166.0535,-181.8659 95,-74 90.3547,-66.948 89.1952,-61.1329 95,-55 122.2936,-26.1635 718.2517,-13.2141 881.162,-10.2052"/>
<polygon fill="#191970" stroke="#191970" points="881.3212,-13.703 891.2557,-10.0213 881.1936,-6.7042 881.3212,-13.703"/>
</g>
<!-- Node16 -->
<g id="node17" class="node">
<title>Node16</title>
<polygon fill="#ffffff" stroke="#bfbfbf" points="501.8818,-55.5 501.8818,-73.5 560.1182,-73.5 560.1182,-55.5 501.8818,-55.5"/>
<text text-anchor="middle" x="531" y="-61.5" font-family="Helvetica,sans-Serif" font-size="10.00" fill="#000000">sys/stat.h</text>
</g>
<!-- Node1&#45;&gt;Node16 -->
<g id="edge16" class="edge">
<title>Node1&#45;&gt;Node16</title>
<path fill="none" stroke="#191970" d="M1215.5966,-228.5934C1147.3925,-226.0491 980.9949,-216.7191 846,-184 736.564,-157.4757 613.5804,-103.2634 559.3155,-78.0076"/>
<polygon fill="#191970" stroke="#191970" points="560.5417,-74.717 550.0015,-73.642 557.5708,-81.0553 560.5417,-74.717"/>
</g>
<!-- Node17 -->
<g id="node18" class="node">
<title>Node17</title>
<polygon fill="#ffffff" stroke="#bfbfbf" points="577.9902,-55.5 577.9902,-73.5 644.0098,-73.5 644.0098,-55.5 577.9902,-55.5"/>
<text text-anchor="middle" x="611" y="-61.5" font-family="Helvetica,sans-Serif" font-size="10.00" fill="#000000">sys/types.h</text>
</g>
<!-- Node1&#45;&gt;Node17 -->
<g id="edge17" class="edge">
<title>Node1&#45;&gt;Node17</title>
<path fill="none" stroke="#191970" d="M1215.2725,-227.8499C1154.7952,-224.1321 1019.2184,-213.0365 909,-184 805.4449,-156.7189 689.4867,-103.0831 638.0629,-78.0135"/>
<polygon fill="#191970" stroke="#191970" points="639.464,-74.8024 628.945,-73.5371 636.3791,-81.086 639.464,-74.8024"/>
</g>
<!-- Node18 -->
<g id="node19" class="node">
<title>Node18</title>
<polygon fill="#ffffff" stroke="#bfbfbf" points="1012.0493,-55.5 1012.0493,-73.5 1071.9507,-73.5 1071.9507,-55.5 1012.0493,-55.5"/>
<text text-anchor="middle" x="1042" y="-61.5" font-family="Helvetica,sans-Serif" font-size="10.00" fill="#000000">sys/ioctl.h</text>
</g>
<!-- Node1&#45;&gt;Node18 -->
<g id="edge18" class="edge">
<title>Node1&#45;&gt;Node18</title>
<path fill="none" stroke="#191970" d="M1215.47,-225.9238C1168.2716,-219.906 1082.5787,-206.1904 1062,-184 1036.707,-156.7261 1036.8136,-110.1134 1039.2984,-83.8918"/>
<polygon fill="#191970" stroke="#191970" points="1042.8027,-84.0569 1040.4832,-73.7192 1035.8497,-83.2471 1042.8027,-84.0569"/>
</g>
<!-- Node19 -->
<g id="node20" class="node">
<title>Node19</title>
<polygon fill="#ffffff" stroke="#bfbfbf" points="1166.4902,-55.5 1166.4902,-73.5 1237.5098,-73.5 1237.5098,-55.5 1166.4902,-55.5"/>
<text text-anchor="middle" x="1202" y="-61.5" font-family="Helvetica,sans-Serif" font-size="10.00" fill="#000000">sys/socket.h</text>
</g>
<!-- Node1&#45;&gt;Node19 -->
<g id="edge19" class="edge">
<title>Node1&#45;&gt;Node19</title>
<path fill="none" stroke="#191970" d="M1244.4517,-220.1561C1237.3047,-193.9504 1216.9606,-119.3557 1207.2642,-83.8021"/>
<polygon fill="#191970" stroke="#191970" points="1210.5283,-82.4681 1204.5204,-73.7414 1203.775,-84.31 1210.5283,-82.4681"/>
</g>
<!-- Node20 -->
<g id="node21" class="node">
<title>Node20</title>
<polygon fill="#ffffff" stroke="#bfbfbf" points="1255.3794,-55.5 1255.3794,-73.5 1328.6206,-73.5 1328.6206,-55.5 1255.3794,-55.5"/>
<text text-anchor="middle" x="1292" y="-61.5" font-family="Helvetica,sans-Serif" font-size="10.00" fill="#000000">sys/sysinfo.h</text>
</g>
<!-- Node1&#45;&gt;Node20 -->
<g id="edge20" class="edge">
<title>Node1&#45;&gt;Node20</title>
<path fill="none" stroke="#191970" d="M1249.5483,-220.1561C1256.6953,-193.9504 1277.0394,-119.3557 1286.7358,-83.8021"/>
<polygon fill="#191970" stroke="#191970" points="1290.225,-84.31 1289.4796,-73.7414 1283.4717,-82.4681 1290.225,-84.31"/>
</g>
<!-- Node21 -->
<g id="node22" class="node">
<title>Node21</title>
<polygon fill="#ffffff" stroke="#bfbfbf" points="1346.3721,-55.5 1346.3721,-73.5 1409.6279,-73.5 1409.6279,-55.5 1346.3721,-55.5"/>
<text text-anchor="middle" x="1378" y="-61.5" font-family="Helvetica,sans-Serif" font-size="10.00" fill="#000000">arpa/inet.h</text>
</g>
<!-- Node1&#45;&gt;Node21 -->
<g id="edge21" class="edge">
<title>Node1&#45;&gt;Node21</title>
<path fill="none" stroke="#191970" d="M1254.4185,-220.1561C1275.5845,-193.4967 1336.5105,-116.7578 1364.1134,-81.9907"/>
<polygon fill="#191970" stroke="#191970" points="1367.186,-83.7495 1370.6629,-73.7414 1361.7038,-79.3969 1367.186,-83.7495"/>
</g>
<!-- Node22 -->
<g id="node23" class="node">
<title>Node22</title>
<polygon fill="#ffffff" stroke="#bfbfbf" points="1427.5371,-55.5 1427.5371,-73.5 1492.4629,-73.5 1492.4629,-55.5 1427.5371,-55.5"/>
<text text-anchor="middle" x="1460" y="-61.5" font-family="Helvetica,sans-Serif" font-size="10.00" fill="#000000">netinet/in.h</text>
</g>
<!-- Node1&#45;&gt;Node22 -->
<g id="edge22" class="edge">
<title>Node1&#45;&gt;Node22</title>
<path fill="none" stroke="#191970" d="M1258.7552,-220.3939C1293.595,-193.4053 1396.5786,-113.6293 1440.161,-79.8682"/>
<polygon fill="#191970" stroke="#191970" points="1442.519,-82.4689 1448.2811,-73.578 1438.2322,-76.9351 1442.519,-82.4689"/>
</g>
<!-- Node23 -->
<g id="node24" class="node">
<title>Node23</title>
<polygon fill="#ffffff" stroke="#bfbfbf" points="1510.1431,-55.5 1510.1431,-73.5 1587.8569,-73.5 1587.8569,-55.5 1510.1431,-55.5"/>
<text text-anchor="middle" x="1549" y="-61.5" font-family="Helvetica,sans-Serif" font-size="10.00" fill="#000000">net/ethernet.h</text>
</g>
<!-- Node1&#45;&gt;Node23 -->
<g id="edge23" class="edge">
<title>Node1&#45;&gt;Node23</title>
<path fill="none" stroke="#191970" d="M1263.9655,-220.4947C1281.1452,-211.3577 1308.4645,-196.779 1332,-184 1401.6323,-146.1919 1483.4263,-100.9124 1523.8154,-78.4958"/>
<polygon fill="#191970" stroke="#191970" points="1525.6595,-81.4752 1532.7033,-73.5609 1522.2615,-75.3552 1525.6595,-81.4752"/>
</g>
<!-- Node24 -->
<g id="node25" class="node">
<title>Node24</title>
<polygon fill="#ffffff" stroke="#bfbfbf" points="1605.5371,-55.5 1605.5371,-73.5 1670.4629,-73.5 1670.4629,-55.5 1605.5371,-55.5"/>
<text text-anchor="middle" x="1638" y="-61.5" font-family="Helvetica,sans-Serif" font-size="10.00" fill="#000000">netinet/ip.h</text>
</g>
<!-- Node1&#45;&gt;Node24 -->
<g id="edge24" class="edge">
<title>Node1&#45;&gt;Node24</title>
<path fill="none" stroke="#191970" d="M1271.0952,-220.3404C1294.628,-211.3261 1331.4112,-197.0536 1363,-184 1452.9808,-146.8168 1558.2681,-100.1803 1608.4679,-77.7506"/>
<polygon fill="#191970" stroke="#191970" points="1610.0534,-80.8756 1617.7525,-73.5973 1607.195,-74.4858 1610.0534,-80.8756"/>
</g>
<!-- Node25 -->
<g id="node26" class="node">
<title>Node25</title>
<polygon fill="#ffffff" stroke="#bfbfbf" points="1688.7588,-55.5 1688.7588,-73.5 1759.2412,-73.5 1759.2412,-55.5 1688.7588,-55.5"/>
<text text-anchor="middle" x="1724" y="-61.5" font-family="Helvetica,sans-Serif" font-size="10.00" fill="#000000">netinet/tcp.h</text>
</g>
<!-- Node1&#45;&gt;Node25 -->
<g id="edge25" class="edge">
<title>Node1&#45;&gt;Node25</title>
<path fill="none" stroke="#191970" d="M1278.6174,-220.6496C1309.4866,-211.8644 1357.709,-197.7568 1399,-184 1507.1009,-147.9843 1633.2809,-99.7947 1691.514,-77.1996"/>
<polygon fill="#191970" stroke="#191970" points="1692.8694,-80.4279 1700.9217,-73.5424 1690.333,-73.9036 1692.8694,-80.4279"/>
</g>
<!-- Node26 -->
<g id="node27" class="node">
<title>Node26</title>
<polygon fill="#ffffff" stroke="#bfbfbf" points="1777.1997,-55.5 1777.1997,-73.5 1868.8003,-73.5 1868.8003,-55.5 1777.1997,-55.5"/>
<text text-anchor="middle" x="1823" y="-61.5" font-family="Helvetica,sans-Serif" font-size="10.00" fill="#000000">netinet/ip_icmp.h</text>
</g>
<!-- Node1&#45;&gt;Node26 -->
<g id="edge26" class="edge">
<title>Node1&#45;&gt;Node26</title>
<path fill="none" stroke="#191970" d="M1278.4288,-222.7511C1316.593,-214.3951 1382.8303,-199.3758 1439,-184 1567.7495,-148.7564 1718.3654,-99.5043 1786.3787,-76.8239"/>
<polygon fill="#191970" stroke="#191970" points="1787.8107,-80.0357 1796.1858,-73.5466 1785.5921,-73.3966 1787.8107,-80.0357"/>
</g>
<!-- Node27 -->
<g id="node28" class="node">
<title>Node27</title>
<g id="a_node28"><a xlink:href="mac2int_8h.html" target="_top" xlink:title="mac2int.h">
<polygon fill="#ffffff" stroke="#000000" points="1071.3228,-165.5 1071.3228,-183.5 1130.6772,-183.5 1130.6772,-165.5 1071.3228,-165.5"/>
<text text-anchor="middle" x="1101" y="-171.5" font-family="Helvetica,sans-Serif" font-size="10.00" fill="#000000">mac2int.h</text>
</a>
</g>
</g>
<!-- Node1&#45;&gt;Node27 -->
<g id="edge27" class="edge">
<title>Node1&#45;&gt;Node27</title>
<path fill="none" stroke="#191970" d="M1222.8911,-220.4179C1198.7984,-211.3419 1161.5563,-197.3123 1134.5769,-187.1488"/>
<polygon fill="#191970" stroke="#191970" points="1135.7366,-183.8457 1125.1447,-183.5956 1133.2689,-190.3963 1135.7366,-183.8457"/>
</g>
<!-- Node29 -->
<g id="node30" class="node">
<title>Node29</title>
<g id="a_node30"><a xlink:href="ip2int_8h.html" target="_top" xlink:title="ip2int.h">
<polygon fill="#ffffff" stroke="#000000" points="745.877,-55.5 745.877,-73.5 794.123,-73.5 794.123,-55.5 745.877,-55.5"/>
<text text-anchor="middle" x="770" y="-61.5" font-family="Helvetica,sans-Serif" font-size="10.00" fill="#000000">ip2int.h</text>
</a>
</g>
</g>
<!-- Node1&#45;&gt;Node29 -->
<g id="edge69" class="edge">
<title>Node1&#45;&gt;Node29</title>
<path fill="none" stroke="#191970" d="M1215.5855,-225.5549C1171.6811,-219.4968 1089.8432,-206.213 1023,-184 935.6033,-154.9567 838.8947,-103.3902 794.6004,-78.5901"/>
<polygon fill="#191970" stroke="#191970" points="796.1507,-75.4462 785.721,-73.5828 792.7122,-81.5436 796.1507,-75.4462"/>
</g>
<!-- Node30 -->
<g id="node31" class="node">
<title>Node30</title>
<g id="a_node31"><a xlink:href="database_8h.html" target="_top" xlink:title="database.h">
<polygon fill="#ffffff" stroke="#000000" points="662.2563,-55.5 662.2563,-73.5 727.7437,-73.5 727.7437,-55.5 662.2563,-55.5"/>
<text text-anchor="middle" x="695" y="-61.5" font-family="Helvetica,sans-Serif" font-size="10.00" fill="#000000">database.h</text>
</a>
</g>
</g>
<!-- Node1&#45;&gt;Node30 -->
<g id="edge70" class="edge">
<title>Node1&#45;&gt;Node30</title>
<path fill="none" stroke="#191970" d="M1215.4642,-226.9533C1163.1593,-222.1568 1055.5468,-209.8518 968,-184 873.3004,-156.0361 768.0696,-103.3501 720.6431,-78.3455"/>
<polygon fill="#191970" stroke="#191970" points="722.1598,-75.188 711.6864,-73.5888 718.8765,-81.3703 722.1598,-75.188"/>
</g>
<!-- Node32 -->
<g id="node33" class="node">
<title>Node32</title>
<polygon fill="#ffffff" stroke="#bfbfbf" points="1886.5962,-55.5 1886.5962,-73.5 1945.4038,-73.5 1945.4038,-55.5 1886.5962,-55.5"/>
<text text-anchor="middle" x="1916" y="-61.5" font-family="Helvetica,sans-Serif" font-size="10.00" fill="#000000">jansson.h</text>
</g>
<!-- Node1&#45;&gt;Node32 -->
<g id="edge71" class="edge">
<title>Node1&#45;&gt;Node32</title>
<path fill="none" stroke="#191970" d="M1278.6059,-224.2631C1324.2,-216.5205 1410.975,-201.0809 1484,-184 1630.0016,-149.8495 1800.9593,-99.4074 1876.5903,-76.5459"/>
<polygon fill="#191970" stroke="#191970" points="1878.0617,-79.7573 1886.617,-73.5077 1876.0317,-73.0581 1878.0617,-79.7573"/>
</g>
<!-- Node33 -->
<g id="node34" class="node">
<title>Node33</title>
<g id="a_node34"><a xlink:href="libcli_8h.html" target="_top" xlink:title="libcli.h">
<polygon fill="#ffffff" stroke="#000000" points="950.106,-55.5 950.106,-73.5 993.894,-73.5 993.894,-55.5 950.106,-55.5"/>
<text text-anchor="middle" x="972" y="-61.5" font-family="Helvetica,sans-Serif" font-size="10.00" fill="#000000">libcli.h</text>
</a>
</g>
</g>
<!-- Node1&#45;&gt;Node33 -->
<g id="edge72" class="edge">
<title>Node1&#45;&gt;Node33</title>
<path fill="none" stroke="#191970" d="M1215.5809,-225.3396C1166.3483,-218.3329 1073.8653,-203.0582 1047,-184 1011.1805,-158.5897 988.7457,-110.1547 978.5174,-83.4116"/>
<polygon fill="#191970" stroke="#191970" points="981.6943,-81.907 974.9817,-73.71 975.1175,-84.304 981.6943,-81.907"/>
</g>
<!-- Node34 -->
<g id="node35" class="node">
<title>Node34</title>
<polygon fill="#ffffff" stroke="#bfbfbf" points="1963.7734,-55.5 1963.7734,-73.5 2014.2266,-73.5 2014.2266,-55.5 1963.7734,-55.5"/>
<text text-anchor="middle" x="1989" y="-61.5" font-family="Helvetica,sans-Serif" font-size="10.00" fill="#000000">mysql.h</text>
</g>
<!-- Node1&#45;&gt;Node34 -->
<g id="edge73" class="edge">
<title>Node1&#45;&gt;Node34</title>
<path fill="none" stroke="#191970" d="M1278.5186,-225.6296C1331.9815,-218.8251 1443.7289,-203.5654 1537,-184 1694.0527,-151.0552 1878.1045,-97.725 1953.7878,-75.1438"/>
<polygon fill="#191970" stroke="#191970" points="1955.1573,-78.3874 1963.7337,-72.1669 1953.15,-71.6814 1955.1573,-78.3874"/>
</g>
<!-- Node35 -->
<g id="node36" class="node">
<title>Node35</title>
<polygon fill="#ffffff" stroke="#bfbfbf" points="2032.3843,-55.5 2032.3843,-73.5 2075.6157,-73.5 2075.6157,-55.5 2032.3843,-55.5"/>
<text text-anchor="middle" x="2054" y="-61.5" font-family="Helvetica,sans-Serif" font-size="10.00" fill="#000000">zmq.h</text>
</g>
<!-- Node1&#45;&gt;Node35 -->
<g id="edge74" class="edge">
<title>Node1&#45;&gt;Node35</title>
<path fill="none" stroke="#191970" d="M1278.4909,-226.5205C1339.2532,-220.5101 1476.7631,-205.6362 1591,-184 1690.8741,-165.084 1714.498,-154.0997 1813,-129 1903.4808,-105.9442 1928.5904,-100.6924 2022.7159,-73.9976"/>
<polygon fill="#191970" stroke="#191970" points="2023.6916,-77.359 2032.3535,-71.258 2021.7775,-70.6257 2023.6916,-77.359"/>
</g>
<!-- Node37 -->
<g id="node38" class="node">
<title>Node37</title>
<g id="a_node38"><a xlink:href="ext__comps_2shim_2include_2type_8h.html" target="_top" xlink:title="type.h">
<polygon fill="#ffffff" stroke="#000000" points="2509.3794,-165.5 2509.3794,-183.5 2552.6206,-183.5 2552.6206,-165.5 2509.3794,-165.5"/>
<text text-anchor="middle" x="2531" y="-171.5" font-family="Helvetica,sans-Serif" font-size="10.00" fill="#000000">type.h</text>
</a>
</g>
</g>
<!-- Node1&#45;&gt;Node37 -->
<g id="edge75" class="edge">
<title>Node1&#45;&gt;Node37</title>
<path fill="none" stroke="#191970" d="M1278.3498,-229.2976C1447.2038,-228.0648 2249.8395,-220.3567 2495,-184 2496.2948,-183.808 2497.61,-183.5869 2498.9343,-183.3426"/>
<polygon fill="#191970" stroke="#191970" points="2500.0622,-186.6782 2509.076,-181.1102 2498.5574,-179.8418 2500.0622,-186.6782"/>
</g>
<!-- Node28 -->
<g id="node29" class="node">
<title>Node28</title>
<g id="a_node29"><a xlink:href="src_2include_2common_8h.html" target="_top" xlink:title="common.h">
<polygon fill="#ffffff" stroke="#000000" points="1069.6577,-110.5 1069.6577,-128.5 1132.3423,-128.5 1132.3423,-110.5 1069.6577,-110.5"/>
<text text-anchor="middle" x="1101" y="-116.5" font-family="Helvetica,sans-Serif" font-size="10.00" fill="#000000">common.h</text>
</a>
</g>
</g>
<!-- Node27&#45;&gt;Node28 -->
<g id="edge28" class="edge">
<title>Node27&#45;&gt;Node28</title>
<path fill="none" stroke="#191970" d="M1095.8337,-165.4179C1094.3421,-158.2164 1093.9042,-147.8962 1094.5198,-138.8632"/>
<polygon fill="#191970" stroke="#191970" points="1098.0126,-139.1392 1095.7932,-128.7795 1091.0678,-138.2621 1098.0126,-139.1392"/>
</g>
<!-- Node28&#45;&gt;Node2 -->
<g id="edge29" class="edge">
<title>Node28&#45;&gt;Node2</title>
<path fill="none" stroke="#191970" d="M1105.1735,-110.4982C1113.5042,-92.5302 1132.3439,-51.8954 1143.4206,-28.0046"/>
<polygon fill="#191970" stroke="#191970" points="1146.7378,-29.1707 1147.7688,-18.6261 1140.3871,-26.2263 1146.7378,-29.1707"/>
</g>
<!-- Node28&#45;&gt;Node3 -->
<g id="edge30" class="edge">
<title>Node28&#45;&gt;Node3</title>
<path fill="none" stroke="#191970" d="M1132.4363,-119.0028C1276.5188,-116.5802 1875.3092,-104.9101 2083.2476,-73.9128"/>
<polygon fill="#191970" stroke="#191970" points="2083.802,-77.3688 2093.1458,-72.3743 2082.7268,-70.4518 2083.802,-77.3688"/>
</g>
<!-- Node28&#45;&gt;Node4 -->
<g id="edge31" class="edge">
<title>Node28&#45;&gt;Node4</title>
<path fill="none" stroke="#191970" d="M1132.5913,-119.1786C1283.2243,-117.489 1930.0672,-108.4235 2152.1027,-73.9108"/>
<polygon fill="#191970" stroke="#191970" points="2152.7245,-77.3558 2162.036,-72.3014 2151.6049,-70.4459 2152.7245,-77.3558"/>
</g>
<!-- Node28&#45;&gt;Node5 -->
<g id="edge32" class="edge">
<title>Node28&#45;&gt;Node5</title>
<path fill="none" stroke="#191970" d="M1099.6907,-110.4982C1097.1006,-92.6913 1091.2724,-52.6225 1087.7857,-28.6515"/>
<polygon fill="#191970" stroke="#191970" points="1091.2305,-28.0182 1086.3274,-18.6261 1084.3034,-29.0258 1091.2305,-28.0182"/>
</g>
<!-- Node28&#45;&gt;Node6 -->
<g id="edge33" class="edge">
<title>Node28&#45;&gt;Node6</title>
<path fill="none" stroke="#191970" d="M1132.4112,-119.237C1288.3983,-117.7787 1981.3338,-109.473 2217.7387,-73.773"/>
<polygon fill="#191970" stroke="#191970" points="2218.3044,-77.2271 2227.6401,-72.2176 2217.218,-70.3119 2218.3044,-77.2271"/>
</g>
<!-- Node28&#45;&gt;Node7 -->
<g id="edge34" class="edge">
<title>Node28&#45;&gt;Node7</title>
<path fill="none" stroke="#191970" d="M1132.3479,-119.287C1293.75,-118.0415 2032.8471,-110.4948 2284.1013,-73.6806"/>
<polygon fill="#191970" stroke="#191970" points="2284.9064,-77.0985 2294.2654,-72.1328 2283.8525,-70.1782 2284.9064,-77.0985"/>
</g>
<!-- Node28&#45;&gt;Node8 -->
<g id="edge35" class="edge">
<title>Node28&#45;&gt;Node8</title>
<path fill="none" stroke="#191970" d="M1132.4251,-119.3002C1299.5361,-118.0967 2085.9234,-110.6264 2351.0409,-73.747"/>
<polygon fill="#191970" stroke="#191970" points="2351.609,-77.2014 2361.007,-72.3098 2350.6098,-70.2731 2351.609,-77.2014"/>
</g>
<!-- Node28&#45;&gt;Node9 -->
<g id="edge36" class="edge">
<title>Node28&#45;&gt;Node9</title>
<path fill="none" stroke="#191970" d="M1069.4343,-118.7874C930.2264,-115.5194 369.7173,-101.0142 172.3078,-73.8677"/>
<polygon fill="#191970" stroke="#191970" points="172.7395,-70.3938 162.3442,-72.4402 171.7467,-77.3231 172.7395,-70.3938"/>
</g>
<!-- Node28&#45;&gt;Node10 -->
<g id="edge37" class="edge">
<title>Node28&#45;&gt;Node10</title>
<path fill="none" stroke="#191970" d="M1069.4098,-118.7995C936.5069,-115.7071 421.5878,-102.232 238.395,-73.8122"/>
<polygon fill="#191970" stroke="#191970" points="238.7971,-70.3317 228.3654,-72.1843 237.6755,-77.2413 238.7971,-70.3317"/>
</g>
<!-- Node28&#45;&gt;Node11 -->
<g id="edge38" class="edge">
<title>Node28&#45;&gt;Node11</title>
<path fill="none" stroke="#191970" d="M1069.6367,-118.6847C943.588,-115.2612 472.9584,-101.0338 303.9452,-73.9415"/>
<polygon fill="#191970" stroke="#191970" points="304.4121,-70.471 293.9702,-72.2651 303.2518,-77.3742 304.4121,-70.471"/>
</g>
<!-- Node28&#45;&gt;Node12 -->
<g id="edge39" class="edge">
<title>Node28&#45;&gt;Node12</title>
<path fill="none" stroke="#191970" d="M1069.6071,-118.5474C949.9436,-114.7672 521.7023,-99.8389 364.7942,-73.6386"/>
<polygon fill="#191970" stroke="#191970" points="365.3117,-70.176 354.8575,-71.8965 364.1028,-77.0708 365.3117,-70.176"/>
</g>
<!-- Node28&#45;&gt;Node13 -->
<g id="edge40" class="edge">
<title>Node28&#45;&gt;Node13</title>
<path fill="none" stroke="#191970" d="M1069.4716,-118.3416C956.2779,-114.0363 569.9352,-98.0432 425.4969,-73.5658"/>
<polygon fill="#191970" stroke="#191970" points="425.9814,-70.0971 415.5225,-71.7888 424.7536,-76.9886 425.9814,-70.0971"/>
</g>
<!-- Node28&#45;&gt;Node14 -->
<g id="edge41" class="edge">
<title>Node28&#45;&gt;Node14</title>
<path fill="none" stroke="#191970" d="M1069.3546,-117.9607C963.8877,-112.7044 624.1725,-94.727 494.5549,-73.9048"/>
<polygon fill="#191970" stroke="#191970" points="494.9384,-70.4201 484.4953,-72.2071 493.7734,-77.3225 494.9384,-70.4201"/>
</g>
<!-- Node28&#45;&gt;Node15 -->
<g id="edge42" class="edge">
<title>Node28&#45;&gt;Node15</title>
<path fill="none" stroke="#191970" d="M1069.5311,-114.2507C1028.3007,-106.7683 959.1058,-91.9362 941,-74 929.0901,-62.2016 924.5633,-43.3428 922.8842,-29.0578"/>
<polygon fill="#191970" stroke="#191970" points="926.3501,-28.4924 922.0614,-18.8044 919.3726,-29.0524 926.3501,-28.4924"/>
</g>
<!-- Node28&#45;&gt;Node16 -->
<g id="edge43" class="edge">
<title>Node28&#45;&gt;Node16</title>
<path fill="none" stroke="#191970" d="M1069.601,-118.5636C988.4705,-115.7738 765.1684,-105.7443 570.4889,-74.0076"/>
<polygon fill="#191970" stroke="#191970" points="570.7983,-70.5113 560.3611,-72.3324 569.6559,-77.4175 570.7983,-70.5113"/>
</g>
<!-- Node28&#45;&gt;Node17 -->
<g id="edge44" class="edge">
<title>Node28&#45;&gt;Node17</title>
<path fill="none" stroke="#191970" d="M1069.5981,-117.6253C997.7871,-113.0581 815.9402,-99.905 654.5107,-74.0774"/>
<polygon fill="#191970" stroke="#191970" points="654.8303,-70.5836 644.3991,-72.4384 653.7102,-77.4934 654.8303,-70.5836"/>
</g>
<!-- Node28&#45;&gt;Node18 -->
<g id="edge45" class="edge">
<title>Node28&#45;&gt;Node18</title>
<path fill="none" stroke="#191970" d="M1091.2573,-110.4179C1082.5983,-102.3458 1069.736,-90.3556 1059.3264,-80.6517"/>
<polygon fill="#191970" stroke="#191970" points="1061.6556,-78.0381 1051.9543,-73.7795 1056.8824,-83.1584 1061.6556,-78.0381"/>
</g>
<!-- Node28&#45;&gt;Node19 -->
<g id="edge46" class="edge">
<title>Node28&#45;&gt;Node19</title>
<path fill="none" stroke="#191970" d="M1117.6781,-110.4179C1133.614,-101.7399 1157.8659,-88.5334 1176.2768,-78.5077"/>
<polygon fill="#191970" stroke="#191970" points="1178.1887,-81.4519 1185.2971,-73.5956 1174.841,-75.3043 1178.1887,-81.4519"/>
</g>
<!-- Node28&#45;&gt;Node20 -->
<g id="edge47" class="edge">
<title>Node28&#45;&gt;Node20</title>
<path fill="none" stroke="#191970" d="M1132.5398,-110.4179C1164.8459,-101.115 1215.2248,-86.608 1250.6945,-76.3943"/>
<polygon fill="#191970" stroke="#191970" points="1252.0898,-79.6348 1260.7308,-73.5042 1250.1528,-72.9081 1252.0898,-79.6348"/>
</g>
<!-- Node28&#45;&gt;Node21 -->
<g id="edge48" class="edge">
<title>Node28&#45;&gt;Node21</title>
<path fill="none" stroke="#191970" d="M1132.5242,-113.8987C1176.1529,-106.0486 1257.6347,-91.0357 1336.103,-74.3461"/>
<polygon fill="#191970" stroke="#191970" points="1337.1053,-77.711 1346.1515,-72.1959 1335.6405,-70.8659 1337.1053,-77.711"/>
</g>
<!-- Node28&#45;&gt;Node22 -->
<g id="edge49" class="edge">
<title>Node28&#45;&gt;Node22</title>
<path fill="none" stroke="#191970" d="M1132.742,-115.8713C1188.4446,-109.3067 1307.5923,-94.3897 1417.4589,-74.1689"/>
<polygon fill="#191970" stroke="#191970" points="1418.188,-77.5934 1427.3792,-72.3237 1416.9078,-70.7115 1418.188,-77.5934"/>
</g>
<!-- Node28&#45;&gt;Node23 -->
<g id="edge50" class="edge">
<title>Node28&#45;&gt;Node23</title>
<path fill="none" stroke="#191970" d="M1132.4921,-116.8047C1198.5857,-110.9583 1356.7841,-95.97 1499.7491,-74.0819"/>
<polygon fill="#191970" stroke="#191970" points="1500.6673,-77.4815 1510.0148,-72.494 1499.5973,-70.5638 1500.6673,-77.4815"/>
</g>
<!-- Node28&#45;&gt;Node24 -->
<g id="edge51" class="edge">
<title>Node28&#45;&gt;Node24</title>
<path fill="none" stroke="#191970" d="M1132.5229,-118.1005C1209.8586,-114.3499 1415.2365,-102.4717 1595.483,-74.0594"/>
<polygon fill="#191970" stroke="#191970" points="1596.0828,-77.5081 1605.4055,-72.4743 1594.9785,-70.5957 1596.0828,-77.5081"/>
</g>
<!-- Node28&#45;&gt;Node25 -->
<g id="edge52" class="edge">
<title>Node28&#45;&gt;Node25</title>
<path fill="none" stroke="#191970" d="M1132.4854,-118.4547C1218.3585,-115.3002 1463.9417,-104.2539 1678.5106,-73.8643"/>
<polygon fill="#191970" stroke="#191970" points="1679.3021,-77.2867 1688.704,-72.4025 1678.3083,-70.3576 1679.3021,-77.2867"/>
</g>
<!-- Node28&#45;&gt;Node26 -->
<g id="edge53" class="edge">
<title>Node28&#45;&gt;Node26</title>
<path fill="none" stroke="#191970" d="M1132.3621,-118.508C1226.7373,-115.2803 1516.4927,-103.5974 1767.1127,-73.982"/>
<polygon fill="#191970" stroke="#191970" points="1767.6212,-77.4462 1777.1358,-72.7854 1766.7914,-70.4956 1767.6212,-77.4462"/>
</g>
<!-- Node28&#45;&gt;Node27 -->
<g id="edge54" class="edge">
<title>Node28&#45;&gt;Node27</title>
<path fill="none" stroke="#191970" d="M1106.2068,-128.7795C1107.6791,-136.0373 1108.0979,-146.3738 1107.4632,-155.383"/>
<polygon fill="#191970" stroke="#191970" points="1103.9769,-155.0517 1106.1663,-165.4179 1110.9192,-155.949 1103.9769,-155.0517"/>
</g>
<!-- Node28&#45;&gt;Node29 -->
<g id="edge55" class="edge">
<title>Node28&#45;&gt;Node29</title>
<path fill="none" stroke="#191970" d="M1069.4797,-116.2184C1015.856,-109.8472 904.1381,-94.7571 804.0809,-74.9613"/>
<polygon fill="#191970" stroke="#191970" points="804.6192,-71.4996 794.1267,-72.9682 803.2449,-78.3634 804.6192,-71.4996"/>
</g>
<!-- Node28&#45;&gt;Node30 -->
<g id="edge57" class="edge">
<title>Node28&#45;&gt;Node30</title>
<path fill="none" stroke="#191970" d="M1069.1825,-117.0327C1006.0107,-111.4593 861.0596,-96.7258 735.4822,-75.275"/>
<polygon fill="#191970" stroke="#191970" points="735.7748,-71.7737 725.3245,-73.5175 734.5813,-78.6712 735.7748,-71.7737"/>
</g>
<!-- Node28&#45;&gt;Node32 -->
<g id="edge61" class="edge">
<title>Node28&#45;&gt;Node32</title>
<path fill="none" stroke="#191970" d="M1132.7528,-118.4318C1257.0427,-114.1309 1711.3968,-97.2561 1876.2666,-73.9696"/>
<polygon fill="#191970" stroke="#191970" points="1876.854,-77.4209 1886.236,-72.4986 1875.8322,-70.4959 1876.854,-77.4209"/>
</g>
<!-- Node28&#45;&gt;Node33 -->
<g id="edge62" class="edge">
<title>Node28&#45;&gt;Node33</title>
<path fill="none" stroke="#191970" d="M1079.6983,-110.4179C1058.691,-101.4613 1026.3692,-87.6806 1002.6129,-77.552"/>
<polygon fill="#191970" stroke="#191970" points="1003.9049,-74.2981 993.3334,-73.5956 1001.1595,-80.7372 1003.9049,-74.2981"/>
</g>
<!-- Node28&#45;&gt;Node34 -->
<g id="edge66" class="edge">
<title>Node28&#45;&gt;Node34</title>
<path fill="none" stroke="#191970" d="M1132.6293,-118.7098C1264.5121,-115.2796 1771.7861,-100.7044 1953.5659,-73.6339"/>
<polygon fill="#191970" stroke="#191970" points="1954.1789,-77.0807 1963.522,-72.0851 1953.1029,-70.1639 1954.1789,-77.0807"/>
</g>
<!-- Node28&#45;&gt;Node35 -->
<g id="edge67" class="edge">
<title>Node28&#45;&gt;Node35</title>
<path fill="none" stroke="#191970" d="M1132.8016,-118.9879C1271.6864,-116.5923 1826.4072,-105.3291 2021.9991,-73.6511"/>
<polygon fill="#191970" stroke="#191970" points="2022.8741,-77.0528 2032.1487,-71.931 2021.7044,-70.1512 2022.8741,-77.0528"/>
</g>
<!-- Node36 -->
<g id="node37" class="node">
<title>Node36</title>
<g id="a_node37"><a xlink:href="src_2include_2type_8h.html" target="_top" xlink:title="type.h">
<polygon fill="#ffffff" stroke="#000000" points="850.3794,-55.5 850.3794,-73.5 893.6206,-73.5 893.6206,-55.5 850.3794,-55.5"/>
<text text-anchor="middle" x="872" y="-61.5" font-family="Helvetica,sans-Serif" font-size="10.00" fill="#000000">type.h</text>
</a>
</g>
</g>
<!-- Node28&#45;&gt;Node36 -->
<g id="edge68" class="edge">
<title>Node28&#45;&gt;Node36</title>
<path fill="none" stroke="#191970" d="M1069.5147,-112.3469C1031.2573,-103.593 964.779,-88.1819 908,-74 906.5498,-73.6378 905.0678,-73.2635 903.5716,-72.8822"/>
<polygon fill="#191970" stroke="#191970" points="904.2362,-69.4389 893.6781,-70.3199 902.4812,-76.2154 904.2362,-69.4389"/>
</g>
<!-- Node29&#45;&gt;Node28 -->
<g id="edge56" class="edge">
<title>Node29&#45;&gt;Node28</title>
<path fill="none" stroke="#191970" d="M794.5232,-68.8947C801.9135,-70.6261 809.8014,-72.5444 817,-74 902.7968,-91.3489 1003.8864,-105.725 1059.4629,-113.4233"/>
<polygon fill="#191970" stroke="#191970" points="1059.2401,-116.9256 1069.6251,-114.8275 1060.1983,-109.9915 1059.2401,-116.9256"/>
</g>
<!-- Node30&#45;&gt;Node28 -->
<g id="edge58" class="edge">
<title>Node30&#45;&gt;Node28</title>
<path fill="none" stroke="#191970" d="M728.0937,-70.4325C734.1136,-71.719 740.2563,-72.9939 746,-74 858.8389,-93.7649 992.8167,-108.2182 1059.3954,-115.0661"/>
<polygon fill="#191970" stroke="#191970" points="1059.1841,-118.5627 1069.4886,-116.0995 1059.8971,-111.5991 1059.1841,-118.5627"/>
</g>
<!-- Node30&#45;&gt;Node31 -->
<g id="edge59" class="edge">
<title>Node30&#45;&gt;Node31</title>
<path fill="none" stroke="#191970" d="M662.0276,-56.8285C658.9809,-56.1842 655.9366,-55.5643 653,-55 558.1825,-36.7807 444.7291,-20.3725 393.4991,-13.2505"/>
<polygon fill="#191970" stroke="#191970" points="393.9257,-9.7763 383.5407,-11.8744 392.9674,-16.7104 393.9257,-9.7763"/>
</g>
<!-- Node31&#45;&gt;Node28 -->
<g id="edge60" class="edge">
<title>Node31&#45;&gt;Node28</title>
<path fill="none" stroke="#191970" d="M383.7341,-10.4959C455.1977,-14.6398 722.0818,-31.4074 803,-55 821.1276,-60.2853 823.067,-68.0881 841,-74 915.7136,-98.6306 1007.1439,-110.6881 1059.2718,-115.9592"/>
<polygon fill="#191970" stroke="#191970" points="1059.175,-119.4662 1069.4677,-116.9538 1059.8548,-112.4993 1059.175,-119.4662"/>
</g>
<!-- Node33&#45;&gt;Node2 -->
<g id="edge64" class="edge">
<title>Node33&#45;&gt;Node2</title>
<path fill="none" stroke="#191970" d="M994.0146,-57.7506C997.0335,-56.8259 1000.0933,-55.8892 1003,-55 1043.0844,-42.7378 1089.2437,-28.6467 1119.4316,-19.4353"/>
<polygon fill="#191970" stroke="#191970" points="1120.4818,-22.7742 1129.0251,-16.5081 1118.4389,-16.0789 1120.4818,-22.7742"/>
</g>
<!-- Node33&#45;&gt;Node5 -->
<g id="edge63" class="edge">
<title>Node33&#45;&gt;Node5</title>
<path fill="none" stroke="#191970" d="M990.6597,-55.4179C1008.7342,-46.6205 1036.3708,-33.1691 1057.0672,-23.0956"/>
<polygon fill="#191970" stroke="#191970" points="1058.8529,-26.1191 1066.3126,-18.5956 1055.7894,-19.825 1058.8529,-26.1191"/>
</g>
<!-- Node33&#45;&gt;Node15 -->
<g id="edge65" class="edge">
<title>Node33&#45;&gt;Node15</title>
<path fill="none" stroke="#191970" d="M963.7435,-55.4179C956.5492,-47.5041 945.9312,-35.8243 937.2046,-26.2251"/>
<polygon fill="#191970" stroke="#191970" points="939.7524,-23.8245 930.4359,-18.7795 934.5728,-28.5332 939.7524,-23.8245"/>
</g>
<!-- Node38&#45;&gt;Node1 -->
<g id="edge77" class="edge">
<title>Node38&#45;&gt;Node1</title>
<path fill="none" stroke="#191970" d="M1200.4621,-330.194C1208.7899,-321.5214 1220.6957,-307.8741 1228,-294 1235.5625,-279.6355 1240.5155,-261.8442 1243.4624,-248.5879"/>
<polygon fill="#191970" stroke="#191970" points="1246.9112,-249.1915 1245.4792,-238.6939 1240.0523,-247.7933 1246.9112,-249.1915"/>
</g>
<!-- Node39 -->
<g id="node40" class="node">
<title>Node39</title>
<g id="a_node40"><a xlink:href="ext__comps_2shim_2include_2context_8h.html" target="_top" xlink:title="context.h">
<polygon fill="#ffffff" stroke="#000000" points="1162.7095,-275.5 1162.7095,-293.5 1219.2905,-293.5 1219.2905,-275.5 1162.7095,-275.5"/>
<text text-anchor="middle" x="1191" y="-281.5" font-family="Helvetica,sans-Serif" font-size="10.00" fill="#000000">context.h</text>
</a>
</g>
</g>
<!-- Node38&#45;&gt;Node39 -->
<g id="edge78" class="edge">
<title>Node38&#45;&gt;Node39</title>
<path fill="none" stroke="#191970" d="M1191,-330.4179C1191,-323.2164 1191,-312.8962 1191,-303.8632"/>
<polygon fill="#191970" stroke="#191970" points="1194.5001,-303.7794 1191,-293.7795 1187.5001,-303.7795 1194.5001,-303.7794"/>
</g>
<!-- Node40 -->
<g id="node41" class="node">
<title>Node40</title>
<g id="a_node41"><a xlink:href="ext__comps_2shim_2include_2event__id_8h.html" target="_top" xlink:title="event_id.h">
<polygon fill="#ffffff" stroke="#000000" points="1274.9263,-275.5 1274.9263,-293.5 1337.0737,-293.5 1337.0737,-275.5 1274.9263,-275.5"/>
<text text-anchor="middle" x="1306" y="-281.5" font-family="Helvetica,sans-Serif" font-size="10.00" fill="#000000">event_id.h</text>
</a>
</g>
</g>
<!-- Node38&#45;&gt;Node40 -->
<g id="edge80" class="edge">
<title>Node38&#45;&gt;Node40</title>
<path fill="none" stroke="#191970" d="M1209.9899,-330.4179C1228.4676,-321.5807 1256.7648,-308.0473 1277.8583,-297.9591"/>
<polygon fill="#191970" stroke="#191970" points="1279.4706,-301.0677 1286.9819,-293.5956 1276.4504,-294.7528 1279.4706,-301.0677"/>
</g>
<!-- Node41 -->
<g id="node42" class="node">
<title>Node41</title>
<g id="a_node42"><a xlink:href="ext__comps_2shim_2include_2event__list_8h.html" target="_top" xlink:title="event_list.h">
<polygon fill="#ffffff" stroke="#000000" points="2216.707,-220.5 2216.707,-238.5 2283.293,-238.5 2283.293,-220.5 2216.707,-220.5"/>
<text text-anchor="middle" x="2250" y="-226.5" font-family="Helvetica,sans-Serif" font-size="10.00" fill="#000000">event_list.h</text>
</a>
</g>
</g>
<!-- Node38&#45;&gt;Node41 -->
<g id="edge81" class="edge">
<title>Node38&#45;&gt;Node41</title>
<path fill="none" stroke="#191970" d="M1215.7487,-331.8499C1218.5153,-331.1519 1221.3064,-330.5152 1224,-330 1600.0128,-258.0865 2063.9527,-236.1845 2206.3849,-230.9255"/>
<polygon fill="#191970" stroke="#191970" points="2206.6005,-234.4201 2216.4676,-230.5614 2206.3478,-227.4247 2206.6005,-234.4201"/>
</g>
<!-- Node39&#45;&gt;Node1 -->
<g id="edge79" class="edge">
<title>Node39&#45;&gt;Node1</title>
<path fill="none" stroke="#191970" d="M1200.2473,-275.4179C1208.3855,-267.425 1220.4353,-255.5903 1230.2634,-245.9377"/>
<polygon fill="#191970" stroke="#191970" points="1232.8698,-248.2836 1237.5518,-238.7795 1227.9648,-243.2895 1232.8698,-248.2836"/>
</g>
<!-- Node41&#45;&gt;Node37 -->
<g id="edge82" class="edge">
<title>Node41&#45;&gt;Node37</title>
<path fill="none" stroke="#191970" d="M2283.4476,-224.0994C2330.7661,-216.2753 2419.8634,-200.8663 2495,-184 2496.4585,-183.6726 2497.9472,-183.3268 2499.4489,-182.9687"/>
<polygon fill="#191970" stroke="#191970" points="2500.5103,-186.3111 2509.362,-180.489 2498.8115,-179.5204 2500.5103,-186.3111"/>
</g>
<!-- Node42&#45;&gt;Node1 -->
<g id="edge84" class="edge">
<title>Node42&#45;&gt;Node1</title>
<path fill="none" stroke="#191970" d="M1075.0357,-330.2536C1083.0344,-316.3784 1099.9171,-290.1836 1121,-275 1146.2414,-256.8215 1179.4999,-245.2183 1205.5089,-238.2818"/>
<polygon fill="#191970" stroke="#191970" points="1206.6146,-241.6123 1215.4475,-235.7617 1204.894,-234.827 1206.6146,-241.6123"/>
</g>
<!-- Node42&#45;&gt;Node31 -->
<g id="edge88" class="edge">
<title>Node42&#45;&gt;Node31</title>
<path fill="none" stroke="#191970" d="M1032.9331,-336.0924C914.2596,-324.4506 533.9702,-281.4563 235,-184 181.1339,-166.4411 161.6478,-167.4102 120,-129 93.6596,-104.7073 64.7991,-82.3069 88,-55 104.1229,-36.0237 270.5409,-18.4435 337.9136,-12.0483"/>
<polygon fill="#191970" stroke="#191970" points="338.5711,-15.5021 348.2017,-11.0859 337.9191,-8.5326 338.5711,-15.5021"/>
</g>
<!-- Node42&#45;&gt;Node39 -->
<g id="edge85" class="edge">
<title>Node42&#45;&gt;Node39</title>
<path fill="none" stroke="#191970" d="M1089.9807,-330.4179C1109.51,-321.5409 1139.4644,-307.9253 1161.6895,-297.823"/>
<polygon fill="#191970" stroke="#191970" points="1163.3343,-300.92 1170.9896,-293.5956 1160.4376,-294.5474 1163.3343,-300.92"/>
</g>
<!-- Node42&#45;&gt;Node43 -->
<g id="edge86" class="edge">
<title>Node42&#45;&gt;Node43</title>
<path fill="none" stroke="#191970" d="M1033.0473,-337.8068C954.1184,-333.7683 763.4315,-321.7602 606,-294 604.7509,-293.7797 603.4819,-293.5394 602.203,-293.2831"/>
<polygon fill="#191970" stroke="#191970" points="602.8931,-289.851 592.3696,-291.0782 601.3615,-296.6814 602.8931,-289.851"/>
</g>
<!-- Node43&#45;&gt;Node28 -->
<g id="edge87" class="edge">
<title>Node43&#45;&gt;Node28</title>
<path fill="none" stroke="#191970" d="M592.2015,-277.3041C675.1354,-251.5821 957.5017,-164.0061 1061.8372,-131.6463"/>
<polygon fill="#191970" stroke="#191970" points="1063.1397,-134.9069 1071.6541,-128.6016 1061.0661,-128.2211 1063.1397,-134.9069"/>
</g>
</g>
</svg>
