<?xml version="1.0" encoding="UTF-8" standalone="no"?>
<!DOCTYPE svg PUBLIC "-//W3C//DTD SVG 1.1//EN"
 "http://www.w3.org/Graphics/SVG/1.1/DTD/svg11.dtd">
<!-- Generated by graphviz version 2.40.1 (20161225.0304)
 -->
<!-- Title: ext_apps/shim/include/type.h Pages: 1 -->
<svg width="353pt" height="297pt"
 viewBox="0.00 0.00 353.20 297.00" xmlns="http://www.w3.org/2000/svg" xmlns:xlink="http://www.w3.org/1999/xlink">
<g id="graph0" class="graph" transform="scale(1 1) rotate(0) translate(4 293)">
<title>ext_apps/shim/include/type.h</title>
<polygon fill="#ffffff" stroke="transparent" points="-4,4 -4,-293 349.2045,-293 349.2045,4 -4,4"/>
<!-- Node1 -->
<g id="node1" class="node">
<title>Node1</title>
<polygon fill="#bfbfbf" stroke="#000000" points="102.2592,-260.5 102.2592,-288.5 217.2045,-288.5 217.2045,-260.5 102.2592,-260.5"/>
<text text-anchor="start" x="110.2592" y="-276.5" font-family="Helvetica,sans-Serif" font-size="10.00" fill="#000000">ext_apps/shim/include</text>
<text text-anchor="middle" x="159.7318" y="-266.5" font-family="Helvetica,sans-Serif" font-size="10.00" fill="#000000">/type.h</text>
</g>
<!-- Node2 -->
<g id="node2" class="node">
<title>Node2</title>
<g id="a_node2"><a xlink:href="ext__apps_2shim_2include_2common_8h.html" target="_top" xlink:title="ext_apps/shim/include\l/common.h">
<polygon fill="#ffffff" stroke="#000000" points="60.2592,-195.5 60.2592,-223.5 175.2045,-223.5 175.2045,-195.5 60.2592,-195.5"/>
<text text-anchor="start" x="68.2592" y="-211.5" font-family="Helvetica,sans-Serif" font-size="10.00" fill="#000000">ext_apps/shim/include</text>
<text text-anchor="middle" x="117.7318" y="-201.5" font-family="Helvetica,sans-Serif" font-size="10.00" fill="#000000">/common.h</text>
</a>
</g>
</g>
<!-- Node1&#45;&gt;Node2 -->
<g id="edge1" class="edge">
<title>Node1&#45;&gt;Node2</title>
<path fill="none" stroke="#191970" d="M145.1074,-251.8669C139.0287,-242.4594 132.1626,-231.8334 126.8274,-223.5765"/>
<polygon fill="#191970" stroke="#191970" points="142.2515,-253.8963 150.6184,-260.396 148.131,-250.0973 142.2515,-253.8963"/>
</g>
<!-- Node7 -->
<g id="node7" class="node">
<title>Node7</title>
<g id="a_node7"><a xlink:href="ext__apps_2shim_2include_2app__event__list_8h.html" target="_top" xlink:title="ext_apps/shim/include\l/app_event_list.h">
<polygon fill="#ffffff" stroke="#000000" points="230.2592,-130.5 230.2592,-158.5 345.2045,-158.5 345.2045,-130.5 230.2592,-130.5"/>
<text text-anchor="start" x="238.2592" y="-146.5" font-family="Helvetica,sans-Serif" font-size="10.00" fill="#000000">ext_apps/shim/include</text>
<text text-anchor="middle" x="287.7318" y="-136.5" font-family="Helvetica,sans-Serif" font-size="10.00" fill="#000000">/app_event_list.h</text>
</a>
</g>
</g>
<!-- Node1&#45;&gt;Node7 -->
<g id="edge9" class="edge">
<title>Node1&#45;&gt;Node7</title>
<path fill="none" stroke="#191970" d="M180.9084,-252.9926C207.2298,-226.2598 251.4084,-181.3909 273.8071,-158.6423"/>
<polygon fill="#191970" stroke="#191970" points="178.1958,-250.7589 173.6737,-260.3402 183.1838,-255.6702 178.1958,-250.7589"/>
</g>
<!-- Node3 -->
<g id="node3" class="node">
<title>Node3</title>
<g id="a_node3"><a xlink:href="ext__apps_2shim_2include_2app__event_8h.html" target="_top" xlink:title="ext_apps/shim/include\l/app_event.h">
<polygon fill="#ffffff" stroke="#000000" points="145.2592,-65.5 145.2592,-93.5 260.2045,-93.5 260.2045,-65.5 145.2592,-65.5"/>
<text text-anchor="start" x="153.2592" y="-81.5" font-family="Helvetica,sans-Serif" font-size="10.00" fill="#000000">ext_apps/shim/include</text>
<text text-anchor="middle" x="202.7318" y="-71.5" font-family="Helvetica,sans-Serif" font-size="10.00" fill="#000000">/app_event.h</text>
</a>
</g>
</g>
<!-- Node2&#45;&gt;Node3 -->
<g id="edge2" class="edge">
<title>Node2&#45;&gt;Node3</title>
<path fill="none" stroke="#191970" d="M152.4915,-189.6741C163.9858,-181.5352 175.8399,-171.1479 183.7318,-159 196.8744,-138.7699 200.9406,-110.3501 202.1894,-93.5385"/>
<polygon fill="#191970" stroke="#191970" points="150.2143,-186.9862 143.8436,-195.4517 154.103,-192.8068 150.2143,-186.9862"/>
</g>
<!-- Node4 -->
<g id="node4" class="node">
<title>Node4</title>
<g id="a_node4"><a xlink:href="ext__apps_2shim_2include_2shim_8h.html" target="_top" xlink:title="ext_apps/shim/include\l/shim.h">
<polygon fill="#ffffff" stroke="#000000" points="12.2592,-.5 12.2592,-28.5 127.2045,-28.5 127.2045,-.5 12.2592,-.5"/>
<text text-anchor="start" x="20.2592" y="-16.5" font-family="Helvetica,sans-Serif" font-size="10.00" fill="#000000">ext_apps/shim/include</text>
<text text-anchor="middle" x="69.7318" y="-6.5" font-family="Helvetica,sans-Serif" font-size="10.00" fill="#000000">/shim.h</text>
</a>
</g>
</g>
<!-- Node2&#45;&gt;Node4 -->
<g id="edge8" class="edge">
<title>Node2&#45;&gt;Node4</title>
<path fill="none" stroke="#191970" d="M82.8668,-190.0018C69.6511,-181.5625 55.0713,-170.8876 43.7318,-159 20.3187,-134.4553 12.9699,-126.6386 3.7318,-94 .2216,-81.5983 -1.9767,-76.5558 3.7318,-65 11.5277,-49.2187 26.8825,-37.0098 40.8211,-28.5525"/>
<polygon fill="#191970" stroke="#191970" points="81.3928,-193.2048 91.7416,-195.4747 85.067,-187.2466 81.3928,-193.2048"/>
</g>
<!-- Node5 -->
<g id="node5" class="node">
<title>Node5</title>
<g id="a_node5"><a xlink:href="ext__apps_2shim_2include_2context_8h.html" target="_top" xlink:title="ext_apps/shim/include\l/context.h">
<polygon fill="#ffffff" stroke="#000000" points="60.2592,-130.5 60.2592,-158.5 175.2045,-158.5 175.2045,-130.5 60.2592,-130.5"/>
<text text-anchor="start" x="68.2592" y="-146.5" font-family="Helvetica,sans-Serif" font-size="10.00" fill="#000000">ext_apps/shim/include</text>
<text text-anchor="middle" x="117.7318" y="-136.5" font-family="Helvetica,sans-Serif" font-size="10.00" fill="#000000">/context.h</text>
</a>
</g>
</g>
<!-- Node2&#45;&gt;Node5 -->
<g id="edge4" class="edge">
<title>Node2&#45;&gt;Node5</title>
<path fill="none" stroke="#191970" d="M117.7318,-185.1081C117.7318,-176.1539 117.7318,-166.3227 117.7318,-158.5765"/>
<polygon fill="#191970" stroke="#191970" points="114.2319,-185.3959 117.7318,-195.396 121.2319,-185.396 114.2319,-185.3959"/>
</g>
<!-- Node6 -->
<g id="node6" class="node">
<title>Node6</title>
<g id="a_node6"><a xlink:href="ext__apps_2shim_2include_2application_8h.html" target="_top" xlink:title="ext_apps/shim/include\l/application.h">
<polygon fill="#ffffff" stroke="#000000" points="12.2592,-65.5 12.2592,-93.5 127.2045,-93.5 127.2045,-65.5 12.2592,-65.5"/>
<text text-anchor="start" x="20.2592" y="-81.5" font-family="Helvetica,sans-Serif" font-size="10.00" fill="#000000">ext_apps/shim/include</text>
<text text-anchor="middle" x="69.7318" y="-71.5" font-family="Helvetica,sans-Serif" font-size="10.00" fill="#000000">/application.h</text>
</a>
</g>
</g>
<!-- Node2&#45;&gt;Node6 -->
<g id="edge6" class="edge">
<title>Node2&#45;&gt;Node6</title>
<path fill="none" stroke="#191970" d="M80.2272,-189.831C68.9565,-181.8829 57.9442,-171.5757 51.7318,-159 41.2021,-137.6846 52.2446,-110.1079 61.0805,-93.6676"/>
<polygon fill="#191970" stroke="#191970" points="78.5355,-192.9065 88.8211,-195.4475 82.3651,-187.0469 78.5355,-192.9065"/>
</g>
<!-- Node3&#45;&gt;Node4 -->
<g id="edge3" class="edge">
<title>Node3&#45;&gt;Node4</title>
<path fill="none" stroke="#191970" d="M164.8617,-60.9921C143.7805,-50.6892 117.955,-38.0677 98.5345,-28.5765"/>
<polygon fill="#191970" stroke="#191970" points="163.3515,-64.1496 173.8728,-65.396 166.4252,-57.8605 163.3515,-64.1496"/>
</g>
<!-- Node5&#45;&gt;Node3 -->
<g id="edge5" class="edge">
<title>Node5&#45;&gt;Node3</title>
<path fill="none" stroke="#191970" d="M144.3203,-124.1677C157.3179,-114.2283 172.636,-102.5144 184.3241,-93.5765"/>
<polygon fill="#191970" stroke="#191970" points="141.9931,-121.5412 136.1755,-130.396 146.2452,-127.1017 141.9931,-121.5412"/>
</g>
<!-- Node6&#45;&gt;Node4 -->
<g id="edge7" class="edge">
<title>Node6&#45;&gt;Node4</title>
<path fill="none" stroke="#191970" d="M69.7318,-55.1081C69.7318,-46.1539 69.7318,-36.3227 69.7318,-28.5765"/>
<polygon fill="#191970" stroke="#191970" points="66.2319,-55.3959 69.7318,-65.396 73.2319,-55.396 66.2319,-55.3959"/>
</g>
<!-- Node7&#45;&gt;Node3 -->
<g id="edge10" class="edge">
<title>Node7&#45;&gt;Node3</title>
<path fill="none" stroke="#191970" d="M261.1434,-124.1677C248.1457,-114.2283 232.8276,-102.5144 221.1396,-93.5765"/>
<polygon fill="#191970" stroke="#191970" points="259.2184,-127.1017 269.2881,-130.396 263.4706,-121.5412 259.2184,-127.1017"/>
</g>
</g>
</svg>
