<?xml version="1.0" encoding="UTF-8" standalone="no"?>
<!DOCTYPE svg PUBLIC "-//W3C//DTD SVG 1.1//EN"
 "http://www.w3.org/Graphics/SVG/1.1/DTD/svg11.dtd">
<!-- Generated by graphviz version 2.40.1 (20161225.0304)
 -->
<!-- Title: ext_apps/shim/include/app_event_list.h Pages: 1 -->
<svg width="123pt" height="167pt"
 viewBox="0.00 0.00 122.95 167.00" xmlns="http://www.w3.org/2000/svg" xmlns:xlink="http://www.w3.org/1999/xlink">
<g id="graph0" class="graph" transform="scale(1 1) rotate(0) translate(4 163)">
<title>ext_apps/shim/include/app_event_list.h</title>
<polygon fill="#ffffff" stroke="transparent" points="-4,4 -4,-163 118.9453,-163 118.9453,4 -4,4"/>
<!-- Node2 -->
<g id="node1" class="node">
<title>Node2</title>
<polygon fill="#bfbfbf" stroke="#000000" points="0,-130.5 0,-158.5 114.9453,-158.5 114.9453,-130.5 0,-130.5"/>
<text text-anchor="start" x="8" y="-146.5" font-family="Helvetica,sans-Serif" font-size="10.00" fill="#000000">ext_apps/shim/include</text>
<text text-anchor="middle" x="57.4727" y="-136.5" font-family="Helvetica,sans-Serif" font-size="10.00" fill="#000000">/app_event_list.h</text>
</g>
<!-- Node3 -->
<g id="node2" class="node">
<title>Node3</title>
<g id="a_node2"><a xlink:href="ext__apps_2shim_2include_2app__event_8h.html" target="_top" xlink:title="ext_apps/shim/include\l/app_event.h">
<polygon fill="#ffffff" stroke="#000000" points="0,-65.5 0,-93.5 114.9453,-93.5 114.9453,-65.5 0,-65.5"/>
<text text-anchor="start" x="8" y="-81.5" font-family="Helvetica,sans-Serif" font-size="10.00" fill="#000000">ext_apps/shim/include</text>
<text text-anchor="middle" x="57.4727" y="-71.5" font-family="Helvetica,sans-Serif" font-size="10.00" fill="#000000">/app_event.h</text>
</a>
</g>
</g>
<!-- Node2&#45;&gt;Node3 -->
<g id="edge1" class="edge">
<title>Node2&#45;&gt;Node3</title>
<path fill="none" stroke="#191970" d="M57.4727,-120.1081C57.4727,-111.1539 57.4727,-101.3227 57.4727,-93.5765"/>
<polygon fill="#191970" stroke="#191970" points="53.9728,-120.3959 57.4727,-130.396 60.9728,-120.396 53.9728,-120.3959"/>
</g>
<!-- Node4 -->
<g id="node3" class="node">
<title>Node4</title>
<g id="a_node3"><a xlink:href="ext__apps_2shim_2include_2shim_8h.html" target="_top" xlink:title="ext_apps/shim/include\l/shim.h">
<polygon fill="#ffffff" stroke="#000000" points="0,-.5 0,-28.5 114.9453,-28.5 114.9453,-.5 0,-.5"/>
<text text-anchor="start" x="8" y="-16.5" font-family="Helvetica,sans-Serif" font-size="10.00" fill="#000000">ext_apps/shim/include</text>
<text text-anchor="middle" x="57.4727" y="-6.5" font-family="Helvetica,sans-Serif" font-size="10.00" fill="#000000">/shim.h</text>
</a>
</g>
</g>
<!-- Node3&#45;&gt;Node4 -->
<g id="edge2" class="edge">
<title>Node3&#45;&gt;Node4</title>
<path fill="none" stroke="#191970" d="M57.4727,-55.1081C57.4727,-46.1539 57.4727,-36.3227 57.4727,-28.5765"/>
<polygon fill="#191970" stroke="#191970" points="53.9728,-55.3959 57.4727,-65.396 60.9728,-55.396 53.9728,-55.3959"/>
</g>
</g>
</svg>
