<?xml version="1.0" encoding="UTF-8" standalone="no"?>
<!DOCTYPE svg PUBLIC "-//W3C//DTD SVG 1.1//EN"
 "http://www.w3.org/Graphics/SVG/1.1/DTD/svg11.dtd">
<!-- Generated by graphviz version 2.40.1 (20161225.0304)
 -->
<!-- Title: ext_comps/shim/include/shim.h Pages: 1 -->
<svg width="258pt" height="92pt"
 viewBox="0.00 0.00 258.03 92.00" xmlns="http://www.w3.org/2000/svg" xmlns:xlink="http://www.w3.org/1999/xlink">
<g id="graph0" class="graph" transform="scale(1 1) rotate(0) translate(4 88)">
<title>ext_comps/shim/include/shim.h</title>
<polygon fill="#ffffff" stroke="transparent" points="-4,4 -4,-88 254.0317,-88 254.0317,4 -4,4"/>
<!-- Node46 -->
<g id="node1" class="node">
<title>Node46</title>
<polygon fill="#bfbfbf" stroke="#000000" points="61.7168,-55.5 61.7168,-83.5 184.4307,-83.5 184.4307,-55.5 61.7168,-55.5"/>
<text text-anchor="start" x="69.7168" y="-71.5" font-family="Helvetica,sans-Serif" font-size="10.00" fill="#000000">ext_comps/shim/include</text>
<text text-anchor="middle" x="123.0737" y="-61.5" font-family="Helvetica,sans-Serif" font-size="10.00" fill="#000000">/shim.h</text>
</g>
<!-- Node47 -->
<g id="node2" class="node">
<title>Node47</title>
<g id="a_node2"><a xlink:href="ext__apps_2shim_2shim_8c.html" target="_top" xlink:title="ext_apps/shim/shim.c">
<polygon fill="#ffffff" stroke="#000000" points="0,-.5 0,-18.5 112.1475,-18.5 112.1475,-.5 0,-.5"/>
<text text-anchor="middle" x="56.0737" y="-6.5" font-family="Helvetica,sans-Serif" font-size="10.00" fill="#000000">ext_apps/shim/shim.c</text>
</a>
</g>
</g>
<!-- Node46&#45;&gt;Node47 -->
<g id="edge1" class="edge">
<title>Node46&#45;&gt;Node47</title>
<path fill="none" stroke="#191970" d="M99.6327,-48.508C88.2039,-38.2733 75.0534,-26.4967 66.2177,-18.5842"/>
<polygon fill="#191970" stroke="#191970" points="97.4112,-51.2169 107.1957,-55.2808 102.0811,-46.0023 97.4112,-51.2169"/>
</g>
<!-- Node48 -->
<g id="node3" class="node">
<title>Node48</title>
<g id="a_node3"><a xlink:href="ext__comps_2shim_2shim_8c.html" target="_top" xlink:title="ext_comps/shim/shim.c">
<polygon fill="#ffffff" stroke="#000000" points="130.1157,-.5 130.1157,-18.5 250.0317,-18.5 250.0317,-.5 130.1157,-.5"/>
<text text-anchor="middle" x="190.0737" y="-6.5" font-family="Helvetica,sans-Serif" font-size="10.00" fill="#000000">ext_comps/shim/shim.c</text>
</a>
</g>
</g>
<!-- Node46&#45;&gt;Node48 -->
<g id="edge2" class="edge">
<title>Node46&#45;&gt;Node48</title>
<path fill="none" stroke="#191970" d="M146.5148,-48.508C157.9436,-38.2733 171.094,-26.4967 179.9297,-18.5842"/>
<polygon fill="#191970" stroke="#191970" points="144.0664,-46.0023 138.9518,-55.2808 148.7363,-51.2169 144.0664,-46.0023"/>
</g>
</g>
</svg>
