<?xml version="1.0" encoding="UTF-8" standalone="no"?>
<!DOCTYPE svg PUBLIC "-//W3C//DTD SVG 1.1//EN"
 "http://www.w3.org/Graphics/SVG/1.1/DTD/svg11.dtd">
<!-- Generated by graphviz version 2.40.1 (20161225.0304)
 -->
<!-- Title: ext_apps/shim/include/app_event.h Pages: 1 -->
<svg width="123pt" height="102pt"
 viewBox="0.00 0.00 122.95 102.00" xmlns="http://www.w3.org/2000/svg" xmlns:xlink="http://www.w3.org/1999/xlink">
<g id="graph0" class="graph" transform="scale(1 1) rotate(0) translate(4 98)">
<title>ext_apps/shim/include/app_event.h</title>
<polygon fill="#ffffff" stroke="transparent" points="-4,4 -4,-98 118.9453,-98 118.9453,4 -4,4"/>
<!-- Node29 -->
<g id="node1" class="node">
<title>Node29</title>
<polygon fill="#bfbfbf" stroke="#000000" points="0,-65.5 0,-93.5 114.9453,-93.5 114.9453,-65.5 0,-65.5"/>
<text text-anchor="start" x="8" y="-81.5" font-family="Helvetica,sans-Serif" font-size="10.00" fill="#000000">ext_apps/shim/include</text>
<text text-anchor="middle" x="57.4727" y="-71.5" font-family="Helvetica,sans-Serif" font-size="10.00" fill="#000000">/app_event.h</text>
</g>
<!-- Node30 -->
<g id="node2" class="node">
<title>Node30</title>
<g id="a_node2"><a xlink:href="ext__apps_2shim_2include_2shim_8h.html" target="_top" xlink:title="ext_apps/shim/include\l/shim.h">
<polygon fill="#ffffff" stroke="#000000" points="0,-.5 0,-28.5 114.9453,-28.5 114.9453,-.5 0,-.5"/>
<text text-anchor="start" x="8" y="-16.5" font-family="Helvetica,sans-Serif" font-size="10.00" fill="#000000">ext_apps/shim/include</text>
<text text-anchor="middle" x="57.4727" y="-6.5" font-family="Helvetica,sans-Serif" font-size="10.00" fill="#000000">/shim.h</text>
</a>
</g>
</g>
<!-- Node29&#45;&gt;Node30 -->
<g id="edge1" class="edge">
<title>Node29&#45;&gt;Node30</title>
<path fill="none" stroke="#191970" d="M57.4727,-55.1081C57.4727,-46.1539 57.4727,-36.3227 57.4727,-28.5765"/>
<polygon fill="#191970" stroke="#191970" points="53.9728,-55.3959 57.4727,-65.396 60.9728,-55.396 53.9728,-55.3959"/>
</g>
</g>
</svg>
