<?xml version="1.0" encoding="UTF-8" standalone="no"?>
<!DOCTYPE svg PUBLIC "-//W3C//DTD SVG 1.1//EN"
 "http://www.w3.org/Graphics/SVG/1.1/DTD/svg11.dtd">
<!-- Generated by graphviz version 2.40.1 (20161225.0304)
 -->
<!-- Title: ext_comps/shim/include/component.h Pages: 1 -->
<svg width="2405pt" height="367pt"
 viewBox="0.00 0.00 2405.46 367.00" xmlns="http://www.w3.org/2000/svg" xmlns:xlink="http://www.w3.org/1999/xlink">
<g id="graph0" class="graph" transform="scale(1 1) rotate(0) translate(4 363)">
<title>ext_comps/shim/include/component.h</title>
<polygon fill="#ffffff" stroke="transparent" points="-4,4 -4,-363 2401.4574,-363 2401.4574,4 -4,4"/>
<!-- Node0 -->
<g id="node1" class="node">
<title>Node0</title>
<polygon fill="#bfbfbf" stroke="#000000" points="1448.1005,-330.5 1448.1005,-358.5 1570.8143,-358.5 1570.8143,-330.5 1448.1005,-330.5"/>
<text text-anchor="start" x="1456.1005" y="-346.5" font-family="Helvetica,sans-Serif" font-size="10.00" fill="#000000">ext_comps/shim/include</text>
<text text-anchor="middle" x="1509.4574" y="-336.5" font-family="Helvetica,sans-Serif" font-size="10.00" fill="#000000">/component.h</text>
</g>
<!-- Node1 -->
<g id="node2" class="node">
<title>Node1</title>
<g id="a_node2"><a xlink:href="ext__comps_2shim_2include_2common_8h.html" target="_top" xlink:title="common.h">
<polygon fill="#ffffff" stroke="#000000" points="1054.1151,-220.5 1054.1151,-238.5 1116.7997,-238.5 1116.7997,-220.5 1054.1151,-220.5"/>
<text text-anchor="middle" x="1085.4574" y="-226.5" font-family="Helvetica,sans-Serif" font-size="10.00" fill="#000000">common.h</text>
</a>
</g>
</g>
<!-- Node0&#45;&gt;Node1 -->
<g id="edge1" class="edge">
<title>Node0&#45;&gt;Node1</title>
<path fill="none" stroke="#191970" d="M1483.8208,-330.4538C1453.884,-314.6441 1402.461,-289.3055 1355.4574,-275 1276.5843,-250.9951 1180.6546,-238.6322 1126.9819,-233.1547"/>
<polygon fill="#191970" stroke="#191970" points="1127.1245,-229.6518 1116.8283,-232.1496 1126.4349,-236.6177 1127.1245,-229.6518"/>
</g>
<!-- Node31 -->
<g id="node32" class="node">
<title>Node31</title>
<g id="a_node32"><a xlink:href="str_8h.html" target="_top" xlink:title="str.h">
<polygon fill="#ffffff" stroke="#000000" points="1376.0067,-.5 1376.0067,-18.5 1410.9081,-18.5 1410.9081,-.5 1376.0067,-.5"/>
<text text-anchor="middle" x="1393.4574" y="-6.5" font-family="Helvetica,sans-Serif" font-size="10.00" fill="#000000">str.h</text>
</a>
</g>
</g>
<!-- Node0&#45;&gt;Node31 -->
<g id="edge80" class="edge">
<title>Node0&#45;&gt;Node31</title>
<path fill="none" stroke="#191970" d="M1570.8436,-343.0154C1771.8458,-337.3497 2397.4574,-313.008 2397.4574,-229.5 2397.4574,-229.5 2397.4574,-229.5 2397.4574,-119.5 2397.4574,-85.532 2385.8356,-72.0514 2356.4574,-55 2314.9729,-30.922 1575.4437,-13.4784 1421.4195,-10.0974"/>
<polygon fill="#191970" stroke="#191970" points="1421.0501,-6.5886 1410.9763,-9.8701 1420.8977,-13.5869 1421.0501,-6.5886"/>
</g>
<!-- Node38 -->
<g id="node39" class="node">
<title>Node38</title>
<g id="a_node39"><a xlink:href="ext__comps_2shim_2include_2context_8h.html" target="_top" xlink:title="context.h">
<polygon fill="#ffffff" stroke="#000000" points="1290.1669,-275.5 1290.1669,-293.5 1346.7479,-293.5 1346.7479,-275.5 1290.1669,-275.5"/>
<text text-anchor="middle" x="1318.4574" y="-281.5" font-family="Helvetica,sans-Serif" font-size="10.00" fill="#000000">context.h</text>
</a>
</g>
</g>
<!-- Node0&#45;&gt;Node38 -->
<g id="edge76" class="edge">
<title>Node0&#45;&gt;Node38</title>
<path fill="none" stroke="#191970" d="M1464.6764,-330.4327C1431.8435,-320.1187 1387.7432,-306.2652 1356.587,-296.4779"/>
<polygon fill="#191970" stroke="#191970" points="1357.5462,-293.1106 1346.9569,-293.4527 1355.4483,-299.7889 1357.5462,-293.1106"/>
</g>
<!-- Node39 -->
<g id="node40" class="node">
<title>Node39</title>
<g id="a_node40"><a xlink:href="hash_8h.html" target="_top" xlink:title="hash.h">
<polygon fill="#ffffff" stroke="#000000" points="1593.4452,-220.5 1593.4452,-238.5 1639.4696,-238.5 1639.4696,-220.5 1593.4452,-220.5"/>
<text text-anchor="middle" x="1616.4574" y="-226.5" font-family="Helvetica,sans-Serif" font-size="10.00" fill="#000000">hash.h</text>
</a>
</g>
</g>
<!-- Node0&#45;&gt;Node39 -->
<g id="edge78" class="edge">
<title>Node0&#45;&gt;Node39</title>
<path fill="none" stroke="#191970" d="M1522.5777,-330.3987C1542.3588,-309.1387 1579.7475,-268.9545 1600.8824,-246.2395"/>
<polygon fill="#191970" stroke="#191970" points="1603.6213,-248.4339 1607.8708,-238.7286 1598.4965,-243.6656 1603.6213,-248.4339"/>
</g>
<!-- Node2 -->
<g id="node3" class="node">
<title>Node2</title>
<polygon fill="#ffffff" stroke="#bfbfbf" points="1271.726,-.5 1271.726,-18.5 1317.1889,-18.5 1317.1889,-.5 1271.726,-.5"/>
<text text-anchor="middle" x="1294.4574" y="-6.5" font-family="Helvetica,sans-Serif" font-size="10.00" fill="#000000">stdio.h</text>
</g>
<!-- Node1&#45;&gt;Node2 -->
<g id="edge2" class="edge">
<title>Node1&#45;&gt;Node2</title>
<path fill="none" stroke="#191970" d="M1117.1405,-228.7111C1215.8275,-225.9795 1526.3557,-215.3121 1781.4574,-184 1917.7392,-167.2723 1950.774,-155.7005 2085.4574,-129 2199.1837,-106.4542 2267.6292,-164.211 2340.4574,-74 2345.7618,-67.4295 2346.3171,-61.0805 2340.4574,-55 2302.922,-16.0501 1421.3629,-23.4951 1367.4574,-19 1354.3231,-17.9048 1339.9247,-16.1503 1327.4119,-14.4455"/>
<polygon fill="#191970" stroke="#191970" points="1327.8036,-10.9662 1317.4139,-13.0407 1326.8296,-17.8981 1327.8036,-10.9662"/>
</g>
<!-- Node3 -->
<g id="node4" class="node">
<title>Node3</title>
<polygon fill="#ffffff" stroke="#bfbfbf" points="19.9452,-55.5 19.9452,-73.5 70.9696,-73.5 70.9696,-55.5 19.9452,-55.5"/>
<text text-anchor="middle" x="45.4574" y="-61.5" font-family="Helvetica,sans-Serif" font-size="10.00" fill="#000000">unistd.h</text>
</g>
<!-- Node1&#45;&gt;Node3 -->
<g id="edge3" class="edge">
<title>Node1&#45;&gt;Node3</title>
<path fill="none" stroke="#191970" d="M1054.111,-228.7805C933.0316,-225.8083 495.9062,-213.2431 360.4574,-184 249.8507,-160.1202 126.5242,-104.0881 72.868,-78.1359"/>
<polygon fill="#191970" stroke="#191970" points="74.2011,-74.8921 63.6787,-73.6547 71.1328,-81.1838 74.2011,-74.8921"/>
</g>
<!-- Node4 -->
<g id="node5" class="node">
<title>Node4</title>
<polygon fill="#ffffff" stroke="#bfbfbf" points="88.6151,-55.5 88.6151,-73.5 136.2997,-73.5 136.2997,-55.5 88.6151,-55.5"/>
<text text-anchor="middle" x="112.4574" y="-61.5" font-family="Helvetica,sans-Serif" font-size="10.00" fill="#000000">stdlib.h</text>
</g>
<!-- Node1&#45;&gt;Node4 -->
<g id="edge4" class="edge">
<title>Node1&#45;&gt;Node4</title>
<path fill="none" stroke="#191970" d="M1053.8387,-228.5486C939.4673,-224.9166 547.6087,-210.7628 425.4574,-184 358.1297,-169.2488 344.8524,-153.5743 280.4574,-129 233.4343,-111.0552 179.0648,-90.1531 145.2162,-77.1218"/>
<polygon fill="#191970" stroke="#191970" points="146.4088,-73.8306 135.8191,-73.5033 143.8934,-80.3631 146.4088,-73.8306"/>
</g>
<!-- Node5 -->
<g id="node6" class="node">
<title>Node5</title>
<polygon fill="#ffffff" stroke="#bfbfbf" points="728.391,-.5 728.391,-18.5 780.5238,-18.5 780.5238,-.5 728.391,-.5"/>
<text text-anchor="middle" x="754.4574" y="-6.5" font-family="Helvetica,sans-Serif" font-size="10.00" fill="#000000">stdarg.h</text>
</g>
<!-- Node1&#45;&gt;Node5 -->
<g id="edge5" class="edge">
<title>Node1&#45;&gt;Node5</title>
<path fill="none" stroke="#191970" d="M1053.902,-228.7039C900.9513,-224.7453 240.439,-206.4736 151.4574,-184 71.9963,-163.9309 25.3343,-152.9825 3.4574,-74 1.2033,-65.862 -2.3304,-61.149 3.4574,-55 28.2131,-28.6991 570.9563,-13.8775 717.9977,-10.3352"/>
<polygon fill="#191970" stroke="#191970" points="718.3652,-13.8275 728.2791,-10.0904 718.1986,-6.8295 718.3652,-13.8275"/>
</g>
<!-- Node6 -->
<g id="node7" class="node">
<title>Node6</title>
<polygon fill="#ffffff" stroke="#bfbfbf" points="154.3368,-55.5 154.3368,-73.5 202.578,-73.5 202.578,-55.5 154.3368,-55.5"/>
<text text-anchor="middle" x="178.4574" y="-61.5" font-family="Helvetica,sans-Serif" font-size="10.00" fill="#000000">stdint.h</text>
</g>
<!-- Node1&#45;&gt;Node6 -->
<g id="edge6" class="edge">
<title>Node1&#45;&gt;Node6</title>
<path fill="none" stroke="#191970" d="M1053.8473,-228.1986C948.1291,-223.6651 607.5349,-207.5505 500.4574,-184 387.5601,-159.1695 260.9976,-103.4179 206.2077,-77.8155"/>
<polygon fill="#191970" stroke="#191970" points="207.6717,-74.6363 197.1334,-73.5431 204.6899,-80.9695 207.6717,-74.6363"/>
</g>
<!-- Node7 -->
<g id="node8" class="node">
<title>Node7</title>
<polygon fill="#ffffff" stroke="#bfbfbf" points="221.0609,-55.5 221.0609,-73.5 269.8539,-73.5 269.8539,-55.5 221.0609,-55.5"/>
<text text-anchor="middle" x="245.4574" y="-61.5" font-family="Helvetica,sans-Serif" font-size="10.00" fill="#000000">string.h</text>
</g>
<!-- Node1&#45;&gt;Node7 -->
<g id="edge7" class="edge">
<title>Node1&#45;&gt;Node7</title>
<path fill="none" stroke="#191970" d="M1053.845,-227.7946C956.4544,-222.371 661.9376,-204.6571 568.4574,-184 498.3077,-168.4984 483.8463,-153.9001 416.4574,-129 368.5108,-111.2838 313.1921,-90.3226 278.7666,-77.2161"/>
<polygon fill="#191970" stroke="#191970" points="279.8008,-73.8648 269.2099,-73.5751 277.3086,-80.4061 279.8008,-73.8648"/>
</g>
<!-- Node8 -->
<g id="node9" class="node">
<title>Node8</title>
<polygon fill="#ffffff" stroke="#bfbfbf" points="287.5609,-55.5 287.5609,-73.5 341.3539,-73.5 341.3539,-55.5 287.5609,-55.5"/>
<text text-anchor="middle" x="314.4574" y="-61.5" font-family="Helvetica,sans-Serif" font-size="10.00" fill="#000000">strings.h</text>
</g>
<!-- Node1&#45;&gt;Node8 -->
<g id="edge8" class="edge">
<title>Node1&#45;&gt;Node8</title>
<path fill="none" stroke="#191970" d="M1053.9823,-229.0472C980.1099,-227.3946 790.2418,-219.712 636.4574,-184 524.1319,-157.9156 397.7587,-103.0462 342.6622,-77.767"/>
<polygon fill="#191970" stroke="#191970" points="344.0732,-74.5635 333.5273,-73.5463 341.1371,-80.918 344.0732,-74.5635"/>
</g>
<!-- Node9 -->
<g id="node10" class="node">
<title>Node9</title>
<polygon fill="#ffffff" stroke="#bfbfbf" points="359.3295,-55.5 359.3295,-73.5 417.5853,-73.5 417.5853,-55.5 359.3295,-55.5"/>
<text text-anchor="middle" x="388.4574" y="-61.5" font-family="Helvetica,sans-Serif" font-size="10.00" fill="#000000">pthread.h</text>
</g>
<!-- Node1&#45;&gt;Node9 -->
<g id="edge9" class="edge">
<title>Node1&#45;&gt;Node9</title>
<path fill="none" stroke="#191970" d="M1053.8819,-228.455C987.2685,-225.6716 827.8417,-215.9511 698.4574,-184 632.349,-167.6747 618.9958,-153.489 555.4574,-129 508.8696,-111.0441 454.991,-90.2251 421.3166,-77.2068"/>
<polygon fill="#191970" stroke="#191970" points="422.5507,-73.9315 411.9614,-73.5898 420.0264,-80.4605 422.5507,-73.9315"/>
</g>
<!-- Node10 -->
<g id="node11" class="node">
<title>Node10</title>
<polygon fill="#ffffff" stroke="#bfbfbf" points="435.3368,-55.5 435.3368,-73.5 483.578,-73.5 483.578,-55.5 435.3368,-55.5"/>
<text text-anchor="middle" x="459.4574" y="-61.5" font-family="Helvetica,sans-Serif" font-size="10.00" fill="#000000">ctype.h</text>
</g>
<!-- Node1&#45;&gt;Node10 -->
<g id="edge10" class="edge">
<title>Node1&#45;&gt;Node10</title>
<path fill="none" stroke="#191970" d="M1053.891,-227.5C995.6557,-223.2709 867.7383,-211.4571 763.4574,-184 658.139,-156.2697 539.7533,-102.8934 487.1765,-77.9555"/>
<polygon fill="#191970" stroke="#191970" points="488.6753,-74.7926 478.1431,-73.6425 485.6593,-81.1096 488.6753,-74.7926"/>
</g>
<!-- Node11 -->
<g id="node12" class="node">
<title>Node11</title>
<polygon fill="#ffffff" stroke="#bfbfbf" points="501.6151,-55.5 501.6151,-73.5 549.2997,-73.5 549.2997,-55.5 501.6151,-55.5"/>
<text text-anchor="middle" x="525.4574" y="-61.5" font-family="Helvetica,sans-Serif" font-size="10.00" fill="#000000">errno.h</text>
</g>
<!-- Node1&#45;&gt;Node11 -->
<g id="edge11" class="edge">
<title>Node1&#45;&gt;Node11</title>
<path fill="none" stroke="#191970" d="M1054.0935,-226.2655C1004.1524,-220.6332 903.7902,-207.3384 821.4574,-184 758.3321,-166.1063 745.302,-153.5544 684.4574,-129 640.2714,-111.1684 589.2287,-90.4392 557.1478,-77.3947"/>
<polygon fill="#191970" stroke="#191970" points="558.4108,-74.1301 547.8289,-73.6049 555.7736,-80.6143 558.4108,-74.1301"/>
</g>
<!-- Node12 -->
<g id="node13" class="node">
<title>Node12</title>
<polygon fill="#ffffff" stroke="#bfbfbf" points="566.8417,-55.5 566.8417,-73.5 610.0731,-73.5 610.0731,-55.5 566.8417,-55.5"/>
<text text-anchor="middle" x="588.4574" y="-61.5" font-family="Helvetica,sans-Serif" font-size="10.00" fill="#000000">time.h</text>
</g>
<!-- Node1&#45;&gt;Node12 -->
<g id="edge12" class="edge">
<title>Node1&#45;&gt;Node12</title>
<path fill="none" stroke="#191970" d="M1053.8417,-224.4359C1012.5077,-217.404 938.1121,-203.3314 876.4574,-184 778.1537,-153.1776 666.8447,-102.1401 616.195,-77.9778"/>
<polygon fill="#191970" stroke="#191970" points="617.4259,-74.6864 606.8957,-73.5176 614.3986,-80.998 617.4259,-74.6864"/>
</g>
<!-- Node13 -->
<g id="node14" class="node">
<title>Node13</title>
<polygon fill="#ffffff" stroke="#bfbfbf" points="628.1176,-55.5 628.1176,-73.5 670.7972,-73.5 670.7972,-55.5 628.1176,-55.5"/>
<text text-anchor="middle" x="649.4574" y="-61.5" font-family="Helvetica,sans-Serif" font-size="10.00" fill="#000000">fcntl.h</text>
</g>
<!-- Node1&#45;&gt;Node13 -->
<g id="edge13" class="edge">
<title>Node1&#45;&gt;Node13</title>
<path fill="none" stroke="#191970" d="M1053.9408,-221.406C1022.3766,-213.0301 972.5716,-199.0782 930.4574,-184 836.1735,-150.2434 728.0269,-101.2358 677.8159,-77.8662"/>
<polygon fill="#191970" stroke="#191970" points="679.1091,-74.6073 668.5675,-73.5463 676.1465,-80.9495 679.1091,-74.6073"/>
</g>
<!-- Node14 -->
<g id="node15" class="node">
<title>Node14</title>
<polygon fill="#ffffff" stroke="#bfbfbf" points="689.2235,-55.5 689.2235,-73.5 739.6913,-73.5 739.6913,-55.5 689.2235,-55.5"/>
<text text-anchor="middle" x="714.4574" y="-61.5" font-family="Helvetica,sans-Serif" font-size="10.00" fill="#000000">signal.h</text>
</g>
<!-- Node1&#45;&gt;Node14 -->
<g id="edge14" class="edge">
<title>Node1&#45;&gt;Node14</title>
<path fill="none" stroke="#191970" d="M1062.3803,-220.3672C1039.8465,-211.3727 1004.6378,-197.1145 974.4574,-184 889.4186,-147.0475 790.1773,-100.4577 742.6444,-77.9248"/>
<polygon fill="#191970" stroke="#191970" points="744.1129,-74.7476 733.5781,-73.6213 741.1111,-81.0714 744.1129,-74.7476"/>
</g>
<!-- Node15 -->
<g id="node16" class="node">
<title>Node15</title>
<polygon fill="#ffffff" stroke="#bfbfbf" points="798.9525,-.5 798.9525,-18.5 859.9623,-18.5 859.9623,-.5 798.9525,-.5"/>
<text text-anchor="middle" x="829.4574" y="-6.5" font-family="Helvetica,sans-Serif" font-size="10.00" fill="#000000">sys/time.h</text>
</g>
<!-- Node1&#45;&gt;Node15 -->
<g id="edge15" class="edge">
<title>Node1&#45;&gt;Node15</title>
<path fill="none" stroke="#191970" d="M1054.0803,-228.9595C925.4082,-226.551 437.8802,-215.4928 287.4574,-184 157.8053,-156.8558 83.4807,-184.5173 10.4574,-74 5.8022,-66.9546 4.6257,-61.1074 10.4574,-55 39.091,-25.0126 687.1167,-24.9748 788.3361,-18.3739"/>
<polygon fill="#191970" stroke="#191970" points="788.9166,-21.8356 798.5574,-17.4418 788.2808,-14.8645 788.9166,-21.8356"/>
</g>
<!-- Node16 -->
<g id="node17" class="node">
<title>Node16</title>
<polygon fill="#ffffff" stroke="#bfbfbf" points="857.3392,-55.5 857.3392,-73.5 915.5756,-73.5 915.5756,-55.5 857.3392,-55.5"/>
<text text-anchor="middle" x="886.4574" y="-61.5" font-family="Helvetica,sans-Serif" font-size="10.00" fill="#000000">sys/stat.h</text>
</g>
<!-- Node1&#45;&gt;Node16 -->
<g id="edge16" class="edge">
<title>Node1&#45;&gt;Node16</title>
<path fill="none" stroke="#191970" d="M1074.4748,-220.3939C1042.069,-193.5247 946.5605,-114.3342 905.5362,-80.3191"/>
<polygon fill="#191970" stroke="#191970" points="907.5834,-77.4699 897.6513,-73.7814 903.1154,-82.8586 907.5834,-77.4699"/>
</g>
<!-- Node17 -->
<g id="node18" class="node">
<title>Node17</title>
<polygon fill="#ffffff" stroke="#bfbfbf" points="933.4476,-55.5 933.4476,-73.5 999.4672,-73.5 999.4672,-55.5 933.4476,-55.5"/>
<text text-anchor="middle" x="966.4574" y="-61.5" font-family="Helvetica,sans-Serif" font-size="10.00" fill="#000000">sys/types.h</text>
</g>
<!-- Node1&#45;&gt;Node17 -->
<g id="edge17" class="edge">
<title>Node1&#45;&gt;Node17</title>
<path fill="none" stroke="#191970" d="M1078.7185,-220.1561C1059.4914,-193.4967 1004.1464,-116.7578 979.0719,-81.9907"/>
<polygon fill="#191970" stroke="#191970" points="981.8107,-79.8047 973.1224,-73.7414 976.1332,-83.8994 981.8107,-79.8047"/>
</g>
<!-- Node18 -->
<g id="node19" class="node">
<title>Node18</title>
<polygon fill="#ffffff" stroke="#bfbfbf" points="1017.5067,-55.5 1017.5067,-73.5 1077.4081,-73.5 1077.4081,-55.5 1017.5067,-55.5"/>
<text text-anchor="middle" x="1047.4574" y="-61.5" font-family="Helvetica,sans-Serif" font-size="10.00" fill="#000000">sys/ioctl.h</text>
</g>
<!-- Node1&#45;&gt;Node18 -->
<g id="edge18" class="edge">
<title>Node1&#45;&gt;Node18</title>
<path fill="none" stroke="#191970" d="M1082.2844,-220.1664C1079.2478,-211.0229 1074.6672,-196.6577 1071.4574,-184 1062.5622,-148.922 1054.8412,-107.3818 1050.6952,-83.6673"/>
<polygon fill="#191970" stroke="#191970" points="1054.102,-82.826 1048.9576,-73.564 1047.2032,-84.0126 1054.102,-82.826"/>
</g>
<!-- Node19 -->
<g id="node20" class="node">
<title>Node19</title>
<polygon fill="#ffffff" stroke="#bfbfbf" points="1094.9476,-55.5 1094.9476,-73.5 1165.9672,-73.5 1165.9672,-55.5 1094.9476,-55.5"/>
<text text-anchor="middle" x="1130.4574" y="-61.5" font-family="Helvetica,sans-Serif" font-size="10.00" fill="#000000">sys/socket.h</text>
</g>
<!-- Node1&#45;&gt;Node19 -->
<g id="edge19" class="edge">
<title>Node1&#45;&gt;Node19</title>
<path fill="none" stroke="#191970" d="M1085.7997,-220.23C1086.7961,-199.7696 1090.5789,-149.4332 1104.4574,-110 1107.8441,-100.3774 1113.2518,-90.4555 1118.2605,-82.3425"/>
<polygon fill="#191970" stroke="#191970" points="1121.3109,-84.0711 1123.8119,-73.7757 1115.4365,-80.2644 1121.3109,-84.0711"/>
</g>
<!-- Node20 -->
<g id="node21" class="node">
<title>Node20</title>
<polygon fill="#ffffff" stroke="#bfbfbf" points="1510.8368,-55.5 1510.8368,-73.5 1584.078,-73.5 1584.078,-55.5 1510.8368,-55.5"/>
<text text-anchor="middle" x="1547.4574" y="-61.5" font-family="Helvetica,sans-Serif" font-size="10.00" fill="#000000">sys/sysinfo.h</text>
</g>
<!-- Node1&#45;&gt;Node20 -->
<g id="edge20" class="edge">
<title>Node1&#45;&gt;Node20</title>
<path fill="none" stroke="#191970" d="M1116.8252,-223.8024C1146.8145,-217.3828 1192.5089,-205.0003 1227.4574,-184 1267.8677,-159.7178 1261.5527,-131.6013 1303.4574,-110 1380.1639,-70.4589 1411.4355,-89.5753 1500.8089,-73.9952"/>
<polygon fill="#191970" stroke="#191970" points="1501.6158,-77.4055 1510.8149,-72.1494 1500.3458,-70.5216 1501.6158,-77.4055"/>
</g>
<!-- Node21 -->
<g id="node22" class="node">
<title>Node21</title>
<polygon fill="#ffffff" stroke="#bfbfbf" points="1601.8295,-55.5 1601.8295,-73.5 1665.0853,-73.5 1665.0853,-55.5 1601.8295,-55.5"/>
<text text-anchor="middle" x="1633.4574" y="-61.5" font-family="Helvetica,sans-Serif" font-size="10.00" fill="#000000">arpa/inet.h</text>
</g>
<!-- Node1&#45;&gt;Node21 -->
<g id="edge21" class="edge">
<title>Node1&#45;&gt;Node21</title>
<path fill="none" stroke="#191970" d="M1117.0877,-225.0158C1151.8127,-219.1735 1208.4739,-206.888 1252.4574,-184 1298.0909,-160.2534 1294.4391,-130.8711 1341.4574,-110 1441.936,-65.3982 1480.1305,-93.3995 1591.6919,-74.1414"/>
<polygon fill="#191970" stroke="#191970" points="1592.4238,-77.5658 1601.6369,-72.3341 1591.1722,-70.6786 1592.4238,-77.5658"/>
</g>
<!-- Node22 -->
<g id="node23" class="node">
<title>Node22</title>
<polygon fill="#ffffff" stroke="#bfbfbf" points="1682.9945,-55.5 1682.9945,-73.5 1747.9203,-73.5 1747.9203,-55.5 1682.9945,-55.5"/>
<text text-anchor="middle" x="1715.4574" y="-61.5" font-family="Helvetica,sans-Serif" font-size="10.00" fill="#000000">netinet/in.h</text>
</g>
<!-- Node1&#45;&gt;Node22 -->
<g id="edge22" class="edge">
<title>Node1&#45;&gt;Node22</title>
<path fill="none" stroke="#191970" d="M1117.1336,-225.9789C1156.4439,-220.736 1224.8397,-208.715 1278.4574,-184 1328.9948,-160.7048 1327.7149,-130.4794 1379.4574,-110 1499.273,-62.5775 1542.2767,-95.2542 1672.8759,-74.0782"/>
<polygon fill="#191970" stroke="#191970" points="1673.5748,-77.5097 1682.8478,-72.3851 1672.403,-70.6085 1673.5748,-77.5097"/>
</g>
<!-- Node23 -->
<g id="node24" class="node">
<title>Node23</title>
<polygon fill="#ffffff" stroke="#bfbfbf" points="1765.6005,-55.5 1765.6005,-73.5 1843.3143,-73.5 1843.3143,-55.5 1765.6005,-55.5"/>
<text text-anchor="middle" x="1804.4574" y="-61.5" font-family="Helvetica,sans-Serif" font-size="10.00" fill="#000000">net/ethernet.h</text>
</g>
<!-- Node1&#45;&gt;Node23 -->
<g id="edge23" class="edge">
<title>Node1&#45;&gt;Node23</title>
<path fill="none" stroke="#191970" d="M1116.9545,-226.846C1160.862,-222.3038 1242.2939,-210.79 1306.4574,-184 1361.1711,-161.1556 1361.698,-130.1581 1417.4574,-110 1556.8845,-59.5944 1604.607,-95.1292 1755.3928,-73.9941"/>
<polygon fill="#191970" stroke="#191970" points="1756.0882,-77.4297 1765.476,-72.5185 1755.0745,-70.5035 1756.0882,-77.4297"/>
</g>
<!-- Node24 -->
<g id="node25" class="node">
<title>Node24</title>
<polygon fill="#ffffff" stroke="#bfbfbf" points="1860.9945,-55.5 1860.9945,-73.5 1925.9203,-73.5 1925.9203,-55.5 1860.9945,-55.5"/>
<text text-anchor="middle" x="1893.4574" y="-61.5" font-family="Helvetica,sans-Serif" font-size="10.00" fill="#000000">netinet/ip.h</text>
</g>
<!-- Node1&#45;&gt;Node24 -->
<g id="edge24" class="edge">
<title>Node1&#45;&gt;Node24</title>
<path fill="none" stroke="#191970" d="M1116.9975,-227.5889C1165.5902,-223.8123 1261.0406,-213.0632 1336.4574,-184 1394.5724,-161.6044 1396.4047,-129.7913 1455.4574,-110 1620.3256,-54.745 1675.4793,-100.3033 1850.79,-74.0449"/>
<polygon fill="#191970" stroke="#191970" points="1851.5204,-77.4735 1860.8634,-72.4775 1850.4441,-70.5567 1851.5204,-77.4735"/>
</g>
<!-- Node25 -->
<g id="node26" class="node">
<title>Node25</title>
<polygon fill="#ffffff" stroke="#bfbfbf" points="1944.2162,-55.5 1944.2162,-73.5 2014.6986,-73.5 2014.6986,-55.5 1944.2162,-55.5"/>
<text text-anchor="middle" x="1979.4574" y="-61.5" font-family="Helvetica,sans-Serif" font-size="10.00" fill="#000000">netinet/tcp.h</text>
</g>
<!-- Node1&#45;&gt;Node25 -->
<g id="edge25" class="edge">
<title>Node1&#45;&gt;Node25</title>
<path fill="none" stroke="#191970" d="M1116.8567,-228.2103C1169.9501,-225.2082 1280.2014,-215.4066 1367.4574,-184 1428.5633,-162.0057 1431.5353,-129.579 1493.4574,-110 1677.847,-51.6982 1737.8709,-100.6824 1934.1039,-73.819"/>
<polygon fill="#191970" stroke="#191970" points="1934.7505,-77.2624 1944.1599,-72.3927 1933.7675,-70.3317 1934.7505,-77.2624"/>
</g>
<!-- Node26 -->
<g id="node27" class="node">
<title>Node26</title>
<polygon fill="#ffffff" stroke="#bfbfbf" points="2032.6571,-55.5 2032.6571,-73.5 2124.2577,-73.5 2124.2577,-55.5 2032.6571,-55.5"/>
<text text-anchor="middle" x="2078.4574" y="-61.5" font-family="Helvetica,sans-Serif" font-size="10.00" fill="#000000">netinet/ip_icmp.h</text>
</g>
<!-- Node1&#45;&gt;Node26 -->
<g id="edge26" class="edge">
<title>Node1&#45;&gt;Node26</title>
<path fill="none" stroke="#191970" d="M1117.0925,-228.7161C1174.7376,-226.4646 1300.0986,-217.7474 1399.4574,-184 1463.1409,-162.3698 1467.0476,-129.3607 1531.4574,-110 1738.2498,-47.8409 1803.8536,-99.089 2022.4047,-73.9809"/>
<polygon fill="#191970" stroke="#191970" points="2023.0749,-77.4259 2032.5911,-72.7684 2022.2475,-70.4749 2023.0749,-77.4259"/>
</g>
<!-- Node27 -->
<g id="node28" class="node">
<title>Node27</title>
<g id="a_node28"><a xlink:href="mac2int_8h.html" target="_top" xlink:title="mac2int.h">
<polygon fill="#ffffff" stroke="#000000" points="1114.7802,-165.5 1114.7802,-183.5 1174.1347,-183.5 1174.1347,-165.5 1114.7802,-165.5"/>
<text text-anchor="middle" x="1144.4574" y="-171.5" font-family="Helvetica,sans-Serif" font-size="10.00" fill="#000000">mac2int.h</text>
</a>
</g>
</g>
<!-- Node1&#45;&gt;Node27 -->
<g id="edge27" class="edge">
<title>Node1&#45;&gt;Node27</title>
<path fill="none" stroke="#191970" d="M1095.2001,-220.4179C1103.8591,-212.3458 1116.7214,-200.3556 1127.1311,-190.6517"/>
<polygon fill="#191970" stroke="#191970" points="1129.575,-193.1584 1134.5031,-183.7795 1124.8018,-188.0381 1129.575,-193.1584"/>
</g>
<!-- Node29 -->
<g id="node30" class="node">
<title>Node29</title>
<g id="a_node30"><a xlink:href="ip2int_8h.html" target="_top" xlink:title="ip2int.h">
<polygon fill="#ffffff" stroke="#000000" points="1444.3344,-55.5 1444.3344,-73.5 1492.5805,-73.5 1492.5805,-55.5 1444.3344,-55.5"/>
<text text-anchor="middle" x="1468.4574" y="-61.5" font-family="Helvetica,sans-Serif" font-size="10.00" fill="#000000">ip2int.h</text>
</a>
</g>
</g>
<!-- Node1&#45;&gt;Node29 -->
<g id="edge69" class="edge">
<title>Node1&#45;&gt;Node29</title>
<path fill="none" stroke="#191970" d="M1116.9338,-222.2411C1142.2577,-215.3299 1177.8778,-203.1081 1204.4574,-184 1239.0652,-159.1204 1229.0105,-132.0978 1265.4574,-110 1328.7895,-71.6016 1358.0799,-90.9353 1433.9985,-74.1153"/>
<polygon fill="#191970" stroke="#191970" points="1435.0747,-77.4575 1444.0017,-71.7514 1433.4648,-70.6451 1435.0747,-77.4575"/>
</g>
<!-- Node30 -->
<g id="node31" class="node">
<title>Node30</title>
<g id="a_node31"><a xlink:href="database_8h.html" target="_top" xlink:title="database.h">
<polygon fill="#ffffff" stroke="#000000" points="1360.7138,-55.5 1360.7138,-73.5 1426.2011,-73.5 1426.2011,-55.5 1360.7138,-55.5"/>
<text text-anchor="middle" x="1393.4574" y="-61.5" font-family="Helvetica,sans-Serif" font-size="10.00" fill="#000000">database.h</text>
</a>
</g>
</g>
<!-- Node1&#45;&gt;Node30 -->
<g id="edge70" class="edge">
<title>Node1&#45;&gt;Node30</title>
<path fill="none" stroke="#191970" d="M1116.4815,-220.4692C1137.2689,-213.2161 1164.2457,-201.3498 1183.4574,-184 1211.8549,-158.3547 1197.0183,-133.1853 1227.4574,-110 1246.714,-95.3324 1308.0818,-81.0066 1350.5475,-72.4645"/>
<polygon fill="#191970" stroke="#191970" points="1351.2332,-75.8968 1360.3649,-70.5244 1349.876,-69.0296 1351.2332,-75.8968"/>
</g>
<!-- Node32 -->
<g id="node33" class="node">
<title>Node32</title>
<polygon fill="#ffffff" stroke="#bfbfbf" points="2142.0536,-55.5 2142.0536,-73.5 2200.8612,-73.5 2200.8612,-55.5 2142.0536,-55.5"/>
<text text-anchor="middle" x="2171.4574" y="-61.5" font-family="Helvetica,sans-Serif" font-size="10.00" fill="#000000">jansson.h</text>
</g>
<!-- Node1&#45;&gt;Node32 -->
<g id="edge71" class="edge">
<title>Node1&#45;&gt;Node32</title>
<path fill="none" stroke="#191970" d="M1117.0714,-225.6261C1178.1046,-218.0872 1316.3902,-200.7134 1432.4574,-184 1585.4071,-161.9756 1963.3893,-107.6102 2131.6013,-74.2392"/>
<polygon fill="#191970" stroke="#191970" points="2132.5297,-77.6226 2141.644,-72.2207 2131.1503,-70.7599 2132.5297,-77.6226"/>
</g>
<!-- Node33 -->
<g id="node34" class="node">
<title>Node33</title>
<g id="a_node34"><a xlink:href="libcli_8h.html" target="_top" xlink:title="libcli.h">
<polygon fill="#ffffff" stroke="#000000" points="795.5634,-55.5 795.5634,-73.5 839.3514,-73.5 839.3514,-55.5 795.5634,-55.5"/>
<text text-anchor="middle" x="817.4574" y="-61.5" font-family="Helvetica,sans-Serif" font-size="10.00" fill="#000000">libcli.h</text>
</a>
</g>
</g>
<!-- Node1&#45;&gt;Node33 -->
<g id="edge72" class="edge">
<title>Node1&#45;&gt;Node33</title>
<path fill="none" stroke="#191970" d="M1069.5306,-220.4167C1053.7021,-211.3408 1028.7762,-196.9173 1007.4574,-184 946.5761,-147.1114 875.8352,-102.02 840.3062,-79.2159"/>
<polygon fill="#191970" stroke="#191970" points="841.9621,-76.1196 831.6572,-73.6581 838.1779,-82.0086 841.9621,-76.1196"/>
</g>
<!-- Node34 -->
<g id="node35" class="node">
<title>Node34</title>
<polygon fill="#ffffff" stroke="#bfbfbf" points="2219.2308,-55.5 2219.2308,-73.5 2269.684,-73.5 2269.684,-55.5 2219.2308,-55.5"/>
<text text-anchor="middle" x="2244.4574" y="-61.5" font-family="Helvetica,sans-Serif" font-size="10.00" fill="#000000">mysql.h</text>
</g>
<!-- Node1&#45;&gt;Node34 -->
<g id="edge73" class="edge">
<title>Node1&#45;&gt;Node34</title>
<path fill="none" stroke="#191970" d="M1116.9866,-227.9815C1200.4284,-223.7179 1433.83,-210.2024 1626.4574,-184 1884.4172,-148.9107 1950.7906,-133.421 2208.8508,-73.9996"/>
<polygon fill="#191970" stroke="#191970" points="2209.9419,-77.34 2218.9015,-71.6854 2208.3712,-70.5185 2209.9419,-77.34"/>
</g>
<!-- Node35 -->
<g id="node36" class="node">
<title>Node35</title>
<polygon fill="#ffffff" stroke="#bfbfbf" points="2287.8417,-55.5 2287.8417,-73.5 2331.0731,-73.5 2331.0731,-55.5 2287.8417,-55.5"/>
<text text-anchor="middle" x="2309.4574" y="-61.5" font-family="Helvetica,sans-Serif" font-size="10.00" fill="#000000">zmq.h</text>
</g>
<!-- Node1&#45;&gt;Node35 -->
<g id="edge74" class="edge">
<title>Node1&#45;&gt;Node35</title>
<path fill="none" stroke="#191970" d="M1117.0766,-228.2534C1208.3045,-224.4242 1479.7442,-211.3956 1703.4574,-184 1846.695,-166.4593 1881.7829,-156.4411 2023.4574,-129 2134.1691,-107.5561 2164.6156,-103.4509 2277.7652,-74.0216"/>
<polygon fill="#191970" stroke="#191970" points="2278.7159,-77.3908 2287.5077,-71.4786 2276.9479,-70.6178 2278.7159,-77.3908"/>
</g>
<!-- Node37 -->
<g id="node38" class="node">
<title>Node37</title>
<g id="a_node38"><a xlink:href="ext__comps_2shim_2include_2type_8h.html" target="_top" xlink:title="type.h">
<polygon fill="#ffffff" stroke="#000000" points="1573.8368,-165.5 1573.8368,-183.5 1617.078,-183.5 1617.078,-165.5 1573.8368,-165.5"/>
<text text-anchor="middle" x="1595.4574" y="-171.5" font-family="Helvetica,sans-Serif" font-size="10.00" fill="#000000">type.h</text>
</a>
</g>
</g>
<!-- Node1&#45;&gt;Node37 -->
<g id="edge75" class="edge">
<title>Node1&#45;&gt;Node37</title>
<path fill="none" stroke="#191970" d="M1117.0344,-228.2407C1193.498,-224.8077 1394.4585,-213.4886 1559.4574,-184 1560.7459,-183.7697 1562.0559,-183.5164 1563.3758,-183.2452"/>
<polygon fill="#191970" stroke="#191970" points="1564.5472,-186.5666 1573.4989,-180.8993 1562.9669,-179.7473 1564.5472,-186.5666"/>
</g>
<!-- Node28 -->
<g id="node29" class="node">
<title>Node28</title>
<g id="a_node29"><a xlink:href="src_2include_2common_8h.html" target="_top" xlink:title="common.h">
<polygon fill="#ffffff" stroke="#000000" points="1113.1151,-110.5 1113.1151,-128.5 1175.7997,-128.5 1175.7997,-110.5 1113.1151,-110.5"/>
<text text-anchor="middle" x="1144.4574" y="-116.5" font-family="Helvetica,sans-Serif" font-size="10.00" fill="#000000">common.h</text>
</a>
</g>
</g>
<!-- Node27&#45;&gt;Node28 -->
<g id="edge28" class="edge">
<title>Node27&#45;&gt;Node28</title>
<path fill="none" stroke="#191970" d="M1139.2911,-165.4179C1137.7995,-158.2164 1137.3616,-147.8962 1137.9772,-138.8632"/>
<polygon fill="#191970" stroke="#191970" points="1141.47,-139.1392 1139.2506,-128.7795 1134.5252,-138.2621 1141.47,-139.1392"/>
</g>
<!-- Node28&#45;&gt;Node2 -->
<g id="edge29" class="edge">
<title>Node28&#45;&gt;Node2</title>
<path fill="none" stroke="#191970" d="M1175.9186,-112.1018C1210.0652,-103.4801 1261.5861,-88.551 1275.4574,-74 1287.0249,-61.8657 1291.5934,-43.0478 1293.3752,-28.8636"/>
<polygon fill="#191970" stroke="#191970" points="1296.8796,-28.9705 1294.2873,-18.6977 1289.9076,-28.3449 1296.8796,-28.9705"/>
</g>
<!-- Node28&#45;&gt;Node3 -->
<g id="edge30" class="edge">
<title>Node28&#45;&gt;Node3</title>
<path fill="none" stroke="#191970" d="M1113.0287,-119.1305C961.6925,-117.2048 306.4772,-107.1642 81.3807,-73.9326"/>
<polygon fill="#191970" stroke="#191970" points="81.7259,-70.4447 71.3101,-72.3839 80.6619,-77.3633 81.7259,-70.4447"/>
</g>
<!-- Node28&#45;&gt;Node4 -->
<g id="edge31" class="edge">
<title>Node28&#45;&gt;Node4</title>
<path fill="none" stroke="#191970" d="M1113.0306,-119.061C967.6112,-116.8802 358.481,-106.0699 146.5478,-73.7219"/>
<polygon fill="#191970" stroke="#191970" points="146.8847,-70.2315 136.4586,-72.1152 145.7837,-77.1444 146.8847,-70.2315"/>
</g>
<!-- Node28&#45;&gt;Node5 -->
<g id="edge32" class="edge">
<title>Node28&#45;&gt;Node5</title>
<path fill="none" stroke="#191970" d="M1113.0346,-117.203C1030.6401,-110.9439 812.8769,-92.7948 786.4574,-74 771.3761,-63.2711 763.0355,-43.3768 758.6833,-28.508"/>
<polygon fill="#191970" stroke="#191970" points="762.0601,-27.5855 756.1798,-18.7723 755.2806,-29.3289 762.0601,-27.5855"/>
</g>
<!-- Node28&#45;&gt;Node6 -->
<g id="edge33" class="edge">
<title>Node28&#45;&gt;Node6</title>
<path fill="none" stroke="#191970" d="M1112.806,-118.9051C973.2225,-116.1385 411.2304,-103.4616 212.84,-73.5863"/>
<polygon fill="#191970" stroke="#191970" points="213.2478,-70.1075 202.8256,-72.0123 212.1609,-77.0226 213.2478,-70.1075"/>
</g>
<!-- Node28&#45;&gt;Node7 -->
<g id="edge34" class="edge">
<title>Node28&#45;&gt;Node7</title>
<path fill="none" stroke="#191970" d="M1112.7941,-118.8022C979.5837,-115.7209 463.4731,-102.2845 280.216,-73.899"/>
<polygon fill="#191970" stroke="#191970" points="280.6152,-70.4182 270.184,-72.2731 279.4952,-77.328 280.6152,-70.4182"/>
</g>
<!-- Node28&#45;&gt;Node8 -->
<g id="edge35" class="edge">
<title>Node28&#45;&gt;Node8</title>
<path fill="none" stroke="#191970" d="M1112.8773,-118.5378C987.0529,-114.576 520.5112,-98.633 351.4435,-73.7819"/>
<polygon fill="#191970" stroke="#191970" points="351.8755,-70.3073 341.4599,-72.2478 350.8123,-77.2261 351.8755,-70.3073"/>
</g>
<!-- Node28&#45;&gt;Node9 -->
<g id="edge36" class="edge">
<title>Node28&#45;&gt;Node9</title>
<path fill="none" stroke="#191970" d="M1113.0927,-118.2724C995.636,-113.5597 581.1187,-95.865 427.9457,-73.9171"/>
<polygon fill="#191970" stroke="#191970" points="428.2164,-70.4186 417.808,-72.3976 427.1787,-77.3413 428.2164,-70.4186"/>
</g>
<!-- Node28&#45;&gt;Node10 -->
<g id="edge37" class="edge">
<title>Node28&#45;&gt;Node10</title>
<path fill="none" stroke="#191970" d="M1112.8983,-118.1799C1002.4087,-113.4242 632.6406,-96.3455 493.8121,-73.8366"/>
<polygon fill="#191970" stroke="#191970" points="494.2768,-70.3654 483.8311,-72.1366 493.1014,-77.266 494.2768,-70.3654"/>
</g>
<!-- Node28&#45;&gt;Node11 -->
<g id="edge38" class="edge">
<title>Node28&#45;&gt;Node11</title>
<path fill="none" stroke="#191970" d="M1112.7947,-117.9299C1009.7876,-112.6874 684.1171,-95.0198 559.4643,-73.992"/>
<polygon fill="#191970" stroke="#191970" points="559.8954,-70.5139 549.4374,-72.2108 558.6711,-77.406 559.8954,-70.5139"/>
</g>
<!-- Node28&#45;&gt;Node12 -->
<g id="edge39" class="edge">
<title>Node28&#45;&gt;Node12</title>
<path fill="none" stroke="#191970" d="M1113.073,-119.0789C1032.5229,-117.5126 811.9499,-110.16 620.2975,-73.7528"/>
<polygon fill="#191970" stroke="#191970" points="620.8102,-70.2872 610.3279,-71.8273 619.4827,-77.1602 620.8102,-70.2872"/>
</g>
<!-- Node28&#45;&gt;Node13 -->
<g id="edge40" class="edge">
<title>Node28&#45;&gt;Node13</title>
<path fill="none" stroke="#191970" d="M1112.9115,-118.5742C1038.948,-115.9443 848.6077,-106.5096 680.9857,-73.6915"/>
<polygon fill="#191970" stroke="#191970" points="681.4876,-70.2227 670.9966,-71.7022 680.1204,-77.088 681.4876,-70.2227"/>
</g>
<!-- Node28&#45;&gt;Node14 -->
<g id="edge41" class="edge">
<title>Node28&#45;&gt;Node14</title>
<path fill="none" stroke="#191970" d="M1113.0954,-117.1693C1046.4877,-111.9306 886.1427,-97.7873 753.4574,-74 752.3599,-73.8032 751.2472,-73.594 750.1256,-73.3745"/>
<polygon fill="#191970" stroke="#191970" points="750.4678,-69.8682 739.9554,-71.1875 748.9961,-76.7117 750.4678,-69.8682"/>
</g>
<!-- Node28&#45;&gt;Node15 -->
<g id="edge42" class="edge">
<title>Node28&#45;&gt;Node15</title>
<path fill="none" stroke="#191970" d="M1154.9307,-110.2665C1168.8872,-96.8703 1190.2039,-71.8126 1175.4574,-55 1155.5664,-32.3221 957.2242,-17.3919 870.1198,-11.8796"/>
<polygon fill="#191970" stroke="#191970" points="870.2664,-8.382 860.0683,-11.2541 869.8316,-15.3685 870.2664,-8.382"/>
</g>
<!-- Node28&#45;&gt;Node16 -->
<g id="edge43" class="edge">
<title>Node28&#45;&gt;Node16</title>
<path fill="none" stroke="#191970" d="M1113.0383,-113.4233C1072.1899,-105.4312 998.395,-90.6815 926.0781,-74.3051"/>
<polygon fill="#191970" stroke="#191970" points="926.4148,-70.7923 915.8873,-71.9841 924.8603,-77.6175 926.4148,-70.7923"/>
</g>
<!-- Node28&#45;&gt;Node17 -->
<g id="edge44" class="edge">
<title>Node28&#45;&gt;Node17</title>
<path fill="none" stroke="#191970" d="M1115.0643,-110.4179C1085.0862,-101.155 1038.4097,-86.7325 1005.3779,-76.526"/>
<polygon fill="#191970" stroke="#191970" points="1006.1859,-73.1124 995.5983,-73.5042 1004.1193,-79.8005 1006.1859,-73.1124"/>
</g>
<!-- Node28&#45;&gt;Node18 -->
<g id="edge45" class="edge">
<title>Node28&#45;&gt;Node18</title>
<path fill="none" stroke="#191970" d="M1128.4398,-110.4179C1113.2755,-101.8195 1090.2703,-88.7754 1072.6499,-78.7844"/>
<polygon fill="#191970" stroke="#191970" points="1073.9241,-75.4834 1063.4988,-73.5956 1070.4714,-81.5727 1073.9241,-75.4834"/>
</g>
<!-- Node28&#45;&gt;Node19 -->
<g id="edge46" class="edge">
<title>Node28&#45;&gt;Node19</title>
<path fill="none" stroke="#191970" d="M1142.1456,-110.4179C1140.2923,-103.1372 1137.6277,-92.669 1135.3105,-83.5659"/>
<polygon fill="#191970" stroke="#191970" points="1138.6782,-82.607 1132.8194,-73.7795 1131.8945,-84.3338 1138.6782,-82.607"/>
</g>
<!-- Node28&#45;&gt;Node20 -->
<g id="edge47" class="edge">
<title>Node28&#45;&gt;Node20</title>
<path fill="none" stroke="#191970" d="M1176.0954,-116.2941C1236.8807,-109.9573 1374.3915,-94.7642 1500.3871,-74.0662"/>
<polygon fill="#191970" stroke="#191970" points="1501.304,-77.462 1510.5964,-72.3726 1500.1584,-70.5564 1501.304,-77.462"/>
</g>
<!-- Node28&#45;&gt;Node21 -->
<g id="edge48" class="edge">
<title>Node28&#45;&gt;Node21</title>
<path fill="none" stroke="#191970" d="M1175.9485,-117.7451C1247.9594,-113.4264 1430.2894,-100.7579 1591.5576,-74.143"/>
<polygon fill="#191970" stroke="#191970" points="1592.3729,-77.5553 1601.6582,-72.4529 1591.2176,-70.6513 1592.3729,-77.5553"/>
</g>
<!-- Node28&#45;&gt;Node22 -->
<g id="edge49" class="edge">
<title>Node28&#45;&gt;Node22</title>
<path fill="none" stroke="#191970" d="M1176.008,-118.3558C1257.0127,-115.0864 1479.0073,-104.0336 1672.7845,-74.0718"/>
<polygon fill="#191970" stroke="#191970" points="1673.5282,-77.4981 1682.8656,-72.4918 1672.4443,-70.5825 1673.5282,-77.4981"/>
</g>
<!-- Node28&#45;&gt;Node23 -->
<g id="edge50" class="edge">
<title>Node28&#45;&gt;Node23</title>
<path fill="none" stroke="#191970" d="M1175.8051,-118.5109C1264.9172,-115.4155 1527.4308,-104.329 1755.3496,-73.9884"/>
<polygon fill="#191970" stroke="#191970" points="1756.0476,-77.4261 1765.4909,-72.6225 1755.1131,-70.4887 1756.0476,-77.4261"/>
</g>
<!-- Node28&#45;&gt;Node24 -->
<g id="edge51" class="edge">
<title>Node28&#45;&gt;Node24</title>
<path fill="none" stroke="#191970" d="M1176.1889,-118.1524C1293.0667,-113.0838 1700.1589,-94.4748 1850.8975,-73.972"/>
<polygon fill="#191970" stroke="#191970" points="1851.4665,-77.4264 1860.8754,-72.5558 1850.4828,-70.4958 1851.4665,-77.4264"/>
</g>
<!-- Node28&#45;&gt;Node25 -->
<g id="edge52" class="edge">
<title>Node28&#45;&gt;Node25</title>
<path fill="none" stroke="#191970" d="M1175.848,-118.3248C1300.9224,-113.5463 1764.7277,-94.8903 1934.1613,-73.7708"/>
<polygon fill="#191970" stroke="#191970" points="1934.704,-77.2298 1944.1712,-72.4735 1933.8043,-70.2879 1934.704,-77.2298"/>
</g>
<!-- Node28&#45;&gt;Node26 -->
<g id="edge53" class="edge">
<title>Node28&#45;&gt;Node26</title>
<path fill="none" stroke="#191970" d="M1176.0693,-118.3708C1310.3436,-113.4976 1834.7044,-93.6722 2022.5762,-73.9315"/>
<polygon fill="#191970" stroke="#191970" points="2023.0365,-77.4022 2032.5998,-72.8421 2022.2801,-70.4432 2023.0365,-77.4022"/>
</g>
<!-- Node28&#45;&gt;Node27 -->
<g id="edge54" class="edge">
<title>Node28&#45;&gt;Node27</title>
<path fill="none" stroke="#191970" d="M1149.6642,-128.7795C1151.1366,-136.0373 1151.5553,-146.3738 1150.9206,-155.383"/>
<polygon fill="#191970" stroke="#191970" points="1147.4343,-155.0517 1149.6237,-165.4179 1154.3766,-155.949 1147.4343,-155.0517"/>
</g>
<!-- Node28&#45;&gt;Node29 -->
<g id="edge55" class="edge">
<title>Node28&#45;&gt;Node29</title>
<path fill="none" stroke="#191970" d="M1176.0997,-115.1635C1228.6346,-108.3782 1336.3379,-93.935 1426.4574,-74 1429.0423,-73.4282 1431.7234,-72.7689 1434.4365,-72.0697"/>
<polygon fill="#191970" stroke="#191970" points="1435.5239,-75.4022 1444.2868,-69.4473 1433.723,-68.6378 1435.5239,-75.4022"/>
</g>
<!-- Node28&#45;&gt;Node30 -->
<g id="edge57" class="edge">
<title>Node28&#45;&gt;Node30</title>
<path fill="none" stroke="#191970" d="M1175.989,-111.4436C1220.3584,-101.1153 1301.0129,-83.2954 1350.7193,-72.8346"/>
<polygon fill="#191970" stroke="#191970" points="1351.4585,-76.2558 1360.5299,-70.7822 1350.0251,-69.4041 1351.4585,-76.2558"/>
</g>
<!-- Node28&#45;&gt;Node32 -->
<g id="edge61" class="edge">
<title>Node28&#45;&gt;Node32</title>
<path fill="none" stroke="#191970" d="M1176.0357,-118.8931C1320.7714,-115.9842 1922.3062,-102.4766 2131.7288,-73.9483"/>
<polygon fill="#191970" stroke="#191970" points="2132.2892,-77.4039 2141.6988,-72.5345 2131.3064,-70.4732 2132.2892,-77.4039"/>
</g>
<!-- Node28&#45;&gt;Node33 -->
<g id="edge62" class="edge">
<title>Node28&#45;&gt;Node33</title>
<path fill="none" stroke="#191970" d="M1113.0667,-116.1894C1060.41,-110.3106 950.8672,-96.6892 849.1806,-73.8799"/>
<polygon fill="#191970" stroke="#191970" points="849.8944,-70.4529 839.3667,-71.6438 848.3393,-77.278 849.8944,-70.4529"/>
</g>
<!-- Node28&#45;&gt;Node34 -->
<g id="edge66" class="edge">
<title>Node28&#45;&gt;Node34</title>
<path fill="none" stroke="#191970" d="M1175.8812,-119.0994C1327.1947,-117.0287 1982.3199,-106.4146 2208.8469,-73.6438"/>
<polygon fill="#191970" stroke="#191970" points="2209.6173,-77.0674 2218.9845,-72.1171 2208.5747,-70.1454 2209.6173,-77.0674"/>
</g>
<!-- Node28&#45;&gt;Node35 -->
<g id="edge67" class="edge">
<title>Node28&#45;&gt;Node35</title>
<path fill="none" stroke="#191970" d="M1175.8015,-119.3299C1333.0324,-118.3134 2037.4101,-111.7856 2277.5529,-73.621"/>
<polygon fill="#191970" stroke="#191970" points="2278.3161,-77.0424 2287.6105,-71.9568 2277.1733,-70.1363 2278.3161,-77.0424"/>
</g>
<!-- Node36 -->
<g id="node37" class="node">
<title>Node36</title>
<g id="a_node37"><a xlink:href="src_2include_2type_8h.html" target="_top" xlink:title="type.h">
<polygon fill="#ffffff" stroke="#000000" points="1222.8368,-55.5 1222.8368,-73.5 1266.078,-73.5 1266.078,-55.5 1222.8368,-55.5"/>
<text text-anchor="middle" x="1244.4574" y="-61.5" font-family="Helvetica,sans-Serif" font-size="10.00" fill="#000000">type.h</text>
</a>
</g>
</g>
<!-- Node28&#45;&gt;Node36 -->
<g id="edge68" class="edge">
<title>Node28&#45;&gt;Node36</title>
<path fill="none" stroke="#191970" d="M1160.9704,-110.4179C1176.7485,-101.7399 1200.7602,-88.5334 1218.9889,-78.5077"/>
<polygon fill="#191970" stroke="#191970" points="1220.8445,-81.4816 1227.9199,-73.5956 1217.471,-75.3481 1220.8445,-81.4816"/>
</g>
<!-- Node29&#45;&gt;Node28 -->
<g id="edge56" class="edge">
<title>Node29&#45;&gt;Node28</title>
<path fill="none" stroke="#191970" d="M1446.571,-73.5182C1445.8615,-73.6846 1445.1559,-73.8455 1444.4574,-74 1353.3193,-94.1603 1244.1978,-108.704 1185.814,-115.3906"/>
<polygon fill="#191970" stroke="#191970" points="1185.4076,-111.9142 1175.8612,-116.5096 1186.1897,-118.8703 1185.4076,-111.9142"/>
</g>
<!-- Node30&#45;&gt;Node28 -->
<g id="edge58" class="edge">
<title>Node30&#45;&gt;Node28</title>
<path fill="none" stroke="#191970" d="M1360.4468,-72.9003C1315.4038,-83.3645 1235.0008,-101.1187 1185.9479,-111.4278"/>
<polygon fill="#191970" stroke="#191970" points="1185.0537,-108.039 1175.9803,-113.5093 1186.4847,-114.8911 1185.0537,-108.039"/>
</g>
<!-- Node30&#45;&gt;Node31 -->
<g id="edge59" class="edge">
<title>Node30&#45;&gt;Node31</title>
<path fill="none" stroke="#191970" d="M1393.4574,-55.4179C1393.4574,-48.2164 1393.4574,-37.8962 1393.4574,-28.8632"/>
<polygon fill="#191970" stroke="#191970" points="1396.9575,-28.7794 1393.4574,-18.7795 1389.9575,-28.7795 1396.9575,-28.7794"/>
</g>
<!-- Node31&#45;&gt;Node28 -->
<g id="edge60" class="edge">
<title>Node31&#45;&gt;Node28</title>
<path fill="none" stroke="#191970" d="M1381.9066,-18.6004C1364.0602,-32.2848 1328.2996,-58.2338 1294.4574,-74 1259.2191,-90.4166 1216.6008,-102.6796 1185.8113,-110.3127"/>
<polygon fill="#191970" stroke="#191970" points="1184.747,-106.9692 1175.8508,-112.7232 1186.3935,-113.7728 1184.747,-106.9692"/>
</g>
<!-- Node33&#45;&gt;Node2 -->
<g id="edge64" class="edge">
<title>Node33&#45;&gt;Node2</title>
<path fill="none" stroke="#191970" d="M839.6743,-57.1218C842.6059,-56.3166 845.5884,-55.5801 848.4574,-55 1000.79,-24.1975 1186.8297,-13.7647 1261.3146,-10.6651"/>
<polygon fill="#191970" stroke="#191970" points="1261.625,-14.1556 1271.4774,-10.2595 1261.3458,-7.1612 1261.625,-14.1556"/>
</g>
<!-- Node33&#45;&gt;Node5 -->
<g id="edge63" class="edge">
<title>Node33&#45;&gt;Node5</title>
<path fill="none" stroke="#191970" d="M807.0542,-55.4179C797.7175,-47.2667 783.8041,-35.1201 772.6323,-25.3669"/>
<polygon fill="#191970" stroke="#191970" points="774.9216,-22.7194 765.0866,-18.7795 770.318,-27.9927 774.9216,-22.7194"/>
</g>
<!-- Node33&#45;&gt;Node15 -->
<g id="edge65" class="edge">
<title>Node33&#45;&gt;Node15</title>
<path fill="none" stroke="#191970" d="M819.439,-55.4179C821.0275,-48.1372 823.3114,-37.669 825.2976,-28.5659"/>
<polygon fill="#191970" stroke="#191970" points="828.7206,-29.2957 827.4328,-18.7795 821.8815,-27.8035 828.7206,-29.2957"/>
</g>
<!-- Node38&#45;&gt;Node1 -->
<g id="edge77" class="edge">
<title>Node38&#45;&gt;Node1</title>
<path fill="none" stroke="#191970" d="M1289.887,-277.7559C1249.0175,-268.1086 1173.6312,-250.3136 1126.7097,-239.2377"/>
<polygon fill="#191970" stroke="#191970" points="1127.4023,-235.805 1116.8657,-236.914 1125.7941,-242.6178 1127.4023,-235.805"/>
</g>
<!-- Node39&#45;&gt;Node28 -->
<g id="edge79" class="edge">
<title>Node39&#45;&gt;Node28</title>
<path fill="none" stroke="#191970" d="M1621.9606,-220.271C1629.428,-206.4185 1640.3384,-180.253 1626.4574,-165 1597.0685,-132.7062 1297.8158,-122.8601 1186.1631,-120.2971"/>
<polygon fill="#191970" stroke="#191970" points="1186.034,-116.7935 1175.959,-120.0713 1185.8791,-123.7918 1186.034,-116.7935"/>
</g>
</g>
</svg>
