<?xml version="1.0" encoding="UTF-8" standalone="no"?>
<!DOCTYPE svg PUBLIC "-//W3C//DTD SVG 1.1//EN"
 "http://www.w3.org/Graphics/SVG/1.1/DTD/svg11.dtd">
<!-- Generated by graphviz version 2.40.1 (20161225.0304)
 -->
<!-- Title: ext_apps/shim/include/app_event.h Pages: 1 -->
<svg width="1526pt" height="312pt"
 viewBox="0.00 0.00 1526.25 312.00" xmlns="http://www.w3.org/2000/svg" xmlns:xlink="http://www.w3.org/1999/xlink">
<g id="graph0" class="graph" transform="scale(1 1) rotate(0) translate(4 308)">
<title>ext_apps/shim/include/app_event.h</title>
<polygon fill="#ffffff" stroke="transparent" points="-4,4 -4,-308 1522.2485,-308 1522.2485,4 -4,4"/>
<!-- Node0 -->
<g id="node1" class="node">
<title>Node0</title>
<polygon fill="#bfbfbf" stroke="#000000" points="919.6553,-275.5 919.6553,-303.5 1034.6006,-303.5 1034.6006,-275.5 919.6553,-275.5"/>
<text text-anchor="start" x="927.6553" y="-291.5" font-family="Helvetica,sans-Serif" font-size="10.00" fill="#000000">ext_apps/shim/include</text>
<text text-anchor="middle" x="977.1279" y="-281.5" font-family="Helvetica,sans-Serif" font-size="10.00" fill="#000000">/app_event.h</text>
</g>
<!-- Node1 -->
<g id="node2" class="node">
<title>Node1</title>
<g id="a_node2"><a xlink:href="ext__apps_2shim_2include_2common_8h.html" target="_top" xlink:title="common.h">
<polygon fill="#ffffff" stroke="#000000" points="861.7856,-165.5 861.7856,-183.5 924.4702,-183.5 924.4702,-165.5 861.7856,-165.5"/>
<text text-anchor="middle" x="893.1279" y="-171.5" font-family="Helvetica,sans-Serif" font-size="10.00" fill="#000000">common.h</text>
</a>
</g>
</g>
<!-- Node0&#45;&gt;Node1 -->
<g id="edge1" class="edge">
<title>Node0&#45;&gt;Node1</title>
<path fill="none" stroke="#191970" d="M952.0347,-275.377C938.4281,-266.541 922.3511,-253.9953 912.1279,-239 902.8807,-225.4362 898.0596,-207.3113 895.5922,-193.7291"/>
<polygon fill="#191970" stroke="#191970" points="899.0116,-192.9377 894.0277,-183.5883 892.0934,-194.0051 899.0116,-192.9377"/>
</g>
<!-- Node26 -->
<g id="node27" class="node">
<title>Node26</title>
<g id="a_node27"><a xlink:href="ext__apps_2shim_2include_2context_8h.html" target="_top" xlink:title="context.h">
<polygon fill="#ffffff" stroke="#000000" points="920.8374,-220.5 920.8374,-238.5 977.4185,-238.5 977.4185,-220.5 920.8374,-220.5"/>
<text text-anchor="middle" x="949.1279" y="-226.5" font-family="Helvetica,sans-Serif" font-size="10.00" fill="#000000">context.h</text>
</a>
</g>
</g>
<!-- Node0&#45;&gt;Node26 -->
<g id="edge48" class="edge">
<title>Node0&#45;&gt;Node26</title>
<path fill="none" stroke="#191970" d="M970.4923,-275.2808C966.6384,-267.0224 961.7436,-256.5335 957.6118,-247.6796"/>
<polygon fill="#191970" stroke="#191970" points="960.7678,-246.1659 953.3672,-238.5842 954.4245,-249.1261 960.7678,-246.1659"/>
</g>
<!-- Node27 -->
<g id="node28" class="node">
<title>Node27</title>
<g id="a_node28"><a xlink:href="ext__apps_2shim_2include_2app__event__id_8h.html" target="_top" xlink:title="app_event_id.h">
<polygon fill="#ffffff" stroke="#000000" points="1032.9312,-220.5 1032.9312,-238.5 1117.3247,-238.5 1117.3247,-220.5 1032.9312,-220.5"/>
<text text-anchor="middle" x="1075.1279" y="-226.5" font-family="Helvetica,sans-Serif" font-size="10.00" fill="#000000">app_event_id.h</text>
</a>
</g>
</g>
<!-- Node0&#45;&gt;Node27 -->
<g id="edge50" class="edge">
<title>Node0&#45;&gt;Node27</title>
<path fill="none" stroke="#191970" d="M1000.3526,-275.2808C1015.7269,-265.868 1035.834,-253.5575 1051.3251,-244.0732"/>
<polygon fill="#191970" stroke="#191970" points="1053.5894,-246.7908 1060.2904,-238.5842 1049.9343,-240.8208 1053.5894,-246.7908"/>
</g>
<!-- Node28 -->
<g id="node29" class="node">
<title>Node28</title>
<g id="a_node29"><a xlink:href="ext__apps_2shim_2include_2app__event__list_8h.html" target="_top" xlink:title="app_event_list.h">
<polygon fill="#ffffff" stroke="#000000" points="1100.7119,-165.5 1100.7119,-183.5 1189.5439,-183.5 1189.5439,-165.5 1100.7119,-165.5"/>
<text text-anchor="middle" x="1145.1279" y="-171.5" font-family="Helvetica,sans-Serif" font-size="10.00" fill="#000000">app_event_list.h</text>
</a>
</g>
</g>
<!-- Node0&#45;&gt;Node28 -->
<g id="edge51" class="edge">
<title>Node0&#45;&gt;Node28</title>
<path fill="none" stroke="#191970" d="M983.4316,-275.3229C991.018,-259.7527 1005.1444,-234.9759 1024.1279,-220 1044.1581,-204.1984 1070.2586,-193.4584 1093.0886,-186.4007"/>
<polygon fill="#191970" stroke="#191970" points="1094.3653,-189.6739 1102.9788,-183.5049 1092.3982,-182.956 1094.3653,-189.6739"/>
</g>
<!-- Node2 -->
<g id="node3" class="node">
<title>Node2</title>
<polygon fill="#ffffff" stroke="#bfbfbf" points="1136.3965,-.5 1136.3965,-18.5 1181.8594,-18.5 1181.8594,-.5 1136.3965,-.5"/>
<text text-anchor="middle" x="1159.1279" y="-6.5" font-family="Helvetica,sans-Serif" font-size="10.00" fill="#000000">stdio.h</text>
</g>
<!-- Node1&#45;&gt;Node2 -->
<g id="edge2" class="edge">
<title>Node1&#45;&gt;Node2</title>
<path fill="none" stroke="#191970" d="M913.7694,-165.4211C932.0784,-157.0014 959.2356,-143.6009 981.1279,-129 1023.6415,-100.646 1026.4856,-83.1601 1069.1279,-55 1087.9886,-42.5448 1110.7136,-31.081 1128.6095,-22.776"/>
<polygon fill="#191970" stroke="#191970" points="1130.3487,-25.8299 1137.9996,-18.5008 1127.4482,-19.4591 1130.3487,-25.8299"/>
</g>
<!-- Node3 -->
<g id="node4" class="node">
<title>Node3</title>
<polygon fill="#ffffff" stroke="#bfbfbf" points="1199.6157,-.5 1199.6157,-18.5 1250.6401,-18.5 1250.6401,-.5 1199.6157,-.5"/>
<text text-anchor="middle" x="1225.1279" y="-6.5" font-family="Helvetica,sans-Serif" font-size="10.00" fill="#000000">unistd.h</text>
</g>
<!-- Node1&#45;&gt;Node3 -->
<g id="edge3" class="edge">
<title>Node1&#45;&gt;Node3</title>
<path fill="none" stroke="#191970" d="M920.9454,-165.488C944.3736,-157.3898 978.4041,-144.4188 1006.1279,-129 1054.7606,-101.9527 1058.2969,-81.6875 1107.1279,-55 1133.5955,-40.5348 1165.6365,-28.492 1189.6476,-20.4372"/>
<polygon fill="#191970" stroke="#191970" points="1190.9971,-23.678 1199.4068,-17.2338 1188.814,-17.0271 1190.9971,-23.678"/>
</g>
<!-- Node4 -->
<g id="node5" class="node">
<title>Node4</title>
<polygon fill="#ffffff" stroke="#bfbfbf" points="1268.2856,-.5 1268.2856,-18.5 1315.9702,-18.5 1315.9702,-.5 1268.2856,-.5"/>
<text text-anchor="middle" x="1292.1279" y="-6.5" font-family="Helvetica,sans-Serif" font-size="10.00" fill="#000000">stdlib.h</text>
</g>
<!-- Node1&#45;&gt;Node4 -->
<g id="edge4" class="edge">
<title>Node1&#45;&gt;Node4</title>
<path fill="none" stroke="#191970" d="M924.6063,-167.0139C953.8272,-159.4498 998.1132,-146.4004 1034.1279,-129 1087.5147,-103.2064 1091.5877,-80.4735 1145.1279,-55 1150.3792,-52.5015 1216.5071,-32.3481 1258.2603,-19.715"/>
<polygon fill="#191970" stroke="#191970" points="1259.4839,-23.0016 1268.0433,-16.7577 1257.4583,-16.3011 1259.4839,-23.0016"/>
</g>
<!-- Node5 -->
<g id="node6" class="node">
<title>Node5</title>
<polygon fill="#ffffff" stroke="#bfbfbf" points="1333.7314,-.5 1333.7314,-18.5 1382.5244,-18.5 1382.5244,-.5 1333.7314,-.5"/>
<text text-anchor="middle" x="1358.1279" y="-6.5" font-family="Helvetica,sans-Serif" font-size="10.00" fill="#000000">string.h</text>
</g>
<!-- Node1&#45;&gt;Node5 -->
<g id="edge5" class="edge">
<title>Node1&#45;&gt;Node5</title>
<path fill="none" stroke="#191970" d="M924.7505,-168.9052C959.5951,-162.0907 1016.835,-148.9583 1063.1279,-129 1120.667,-104.1932 1125.426,-79.4257 1183.1279,-55 1240.2745,-30.8094 1260.3918,-35.4789 1323.9429,-19.2022"/>
<polygon fill="#191970" stroke="#191970" points="1324.8677,-22.578 1333.644,-16.6428 1323.082,-15.8096 1324.8677,-22.578"/>
</g>
<!-- Node6 -->
<g id="node7" class="node">
<title>Node6</title>
<polygon fill="#ffffff" stroke="#bfbfbf" points="1400.0615,-.5 1400.0615,-18.5 1452.1943,-18.5 1452.1943,-.5 1400.0615,-.5"/>
<text text-anchor="middle" x="1426.1279" y="-6.5" font-family="Helvetica,sans-Serif" font-size="10.00" fill="#000000">stdarg.h</text>
</g>
<!-- Node1&#45;&gt;Node6 -->
<g id="edge6" class="edge">
<title>Node1&#45;&gt;Node6</title>
<path fill="none" stroke="#191970" d="M924.651,-170.4041C964.9894,-164.4836 1036.5344,-151.677 1094.1279,-129 1154.9131,-105.0663 1160.1775,-78.5096 1221.1279,-55 1290.2292,-28.3465 1314.0945,-36.3726 1389.791,-19.1686"/>
<polygon fill="#191970" stroke="#191970" points="1390.8612,-22.5126 1399.7956,-16.8181 1389.2601,-15.6981 1390.8612,-22.5126"/>
</g>
<!-- Node7 -->
<g id="node8" class="node">
<title>Node7</title>
<polygon fill="#ffffff" stroke="#bfbfbf" points="1470.0073,-.5 1470.0073,-18.5 1518.2485,-18.5 1518.2485,-.5 1470.0073,-.5"/>
<text text-anchor="middle" x="1494.1279" y="-6.5" font-family="Helvetica,sans-Serif" font-size="10.00" fill="#000000">stdint.h</text>
</g>
<!-- Node1&#45;&gt;Node7 -->
<g id="edge7" class="edge">
<title>Node1&#45;&gt;Node7</title>
<path fill="none" stroke="#191970" d="M924.6793,-169.5862C969.7268,-162.289 1054.9081,-147.445 1126.1279,-129 1251.1218,-96.6282 1395.8809,-45.4983 1460.256,-22.0295"/>
<polygon fill="#191970" stroke="#191970" points="1461.6937,-25.2304 1469.8823,-18.5075 1459.2885,-18.6566 1461.6937,-25.2304"/>
</g>
<!-- Node8 -->
<g id="node9" class="node">
<title>Node8</title>
<polygon fill="#ffffff" stroke="#bfbfbf" points="0,-.5 0,-18.5 58.2559,-18.5 58.2559,-.5 0,-.5"/>
<text text-anchor="middle" x="29.1279" y="-6.5" font-family="Helvetica,sans-Serif" font-size="10.00" fill="#000000">pthread.h</text>
</g>
<!-- Node1&#45;&gt;Node8 -->
<g id="edge8" class="edge">
<title>Node1&#45;&gt;Node8</title>
<path fill="none" stroke="#191970" d="M861.4804,-172.8743C761.8116,-167.587 455.2765,-150.0023 358.1279,-129 286.6812,-113.5541 271.8439,-98.9263 203.1279,-74 154.3379,-56.3017 98.0492,-35.3358 63.0206,-22.2235"/>
<polygon fill="#191970" stroke="#191970" points="63.8888,-18.8112 53.2964,-18.5807 61.4331,-25.3664 63.8888,-18.8112"/>
</g>
<!-- Node9 -->
<g id="node10" class="node">
<title>Node9</title>
<polygon fill="#ffffff" stroke="#bfbfbf" points="76.0073,-.5 76.0073,-18.5 124.2485,-18.5 124.2485,-.5 76.0073,-.5"/>
<text text-anchor="middle" x="100.1279" y="-6.5" font-family="Helvetica,sans-Serif" font-size="10.00" fill="#000000">ctype.h</text>
</g>
<!-- Node1&#45;&gt;Node9 -->
<g id="edge9" class="edge">
<title>Node1&#45;&gt;Node9</title>
<path fill="none" stroke="#191970" d="M861.7819,-172.4774C771.2332,-166.4705 510.4494,-147.9693 427.1279,-129 313.1545,-103.0524 184.7699,-48.1131 128.788,-22.7916"/>
<polygon fill="#191970" stroke="#191970" points="130.0573,-19.5238 119.5061,-18.5636 127.1556,-25.8941 130.0573,-19.5238"/>
</g>
<!-- Node10 -->
<g id="node11" class="node">
<title>Node10</title>
<polygon fill="#ffffff" stroke="#bfbfbf" points="142.2856,-.5 142.2856,-18.5 189.9702,-18.5 189.9702,-.5 142.2856,-.5"/>
<text text-anchor="middle" x="166.1279" y="-6.5" font-family="Helvetica,sans-Serif" font-size="10.00" fill="#000000">errno.h</text>
</g>
<!-- Node1&#45;&gt;Node10 -->
<g id="edge10" class="edge">
<title>Node1&#45;&gt;Node10</title>
<path fill="none" stroke="#191970" d="M861.583,-173.4146C793.4621,-170.5277 627.8633,-160.5793 493.1279,-129 423.1814,-112.6059 408.6106,-98.6449 341.1279,-74 291.9916,-56.0553 235.1791,-35.0724 199.947,-22.0323"/>
<polygon fill="#191970" stroke="#191970" points="200.7656,-18.6033 190.1725,-18.4134 198.3351,-25.1678 200.7656,-18.6033"/>
</g>
<!-- Node11 -->
<g id="node12" class="node">
<title>Node11</title>
<polygon fill="#ffffff" stroke="#bfbfbf" points="207.5,-.5 207.5,-18.5 270.7559,-18.5 270.7559,-.5 207.5,-.5"/>
<text text-anchor="middle" x="239.1279" y="-6.5" font-family="Helvetica,sans-Serif" font-size="10.00" fill="#000000">arpa/inet.h</text>
</g>
<!-- Node1&#45;&gt;Node11 -->
<g id="edge11" class="edge">
<title>Node1&#45;&gt;Node11</title>
<path fill="none" stroke="#191970" d="M861.5675,-172.4866C802.05,-168.183 669.4721,-156.1785 561.1279,-129 449.8246,-101.0792 323.8973,-47.6058 268.2318,-22.776"/>
<polygon fill="#191970" stroke="#191970" points="269.5397,-19.5267 258.9833,-18.6251 266.6734,-25.913 269.5397,-19.5267"/>
</g>
<!-- Node12 -->
<g id="node13" class="node">
<title>Node12</title>
<polygon fill="#ffffff" stroke="#bfbfbf" points="288.665,-.5 288.665,-18.5 353.5908,-18.5 353.5908,-.5 288.665,-.5"/>
<text text-anchor="middle" x="321.1279" y="-6.5" font-family="Helvetica,sans-Serif" font-size="10.00" fill="#000000">netinet/in.h</text>
</g>
<!-- Node1&#45;&gt;Node12 -->
<g id="edge12" class="edge">
<title>Node1&#45;&gt;Node12</title>
<path fill="none" stroke="#191970" d="M861.7194,-171.2964C811.1888,-165.6701 709.014,-152.3386 625.1279,-129 520.4623,-99.8802 402.2027,-47.4214 349.3098,-22.8624"/>
<polygon fill="#191970" stroke="#191970" points="350.7539,-19.674 340.2122,-18.6133 347.7916,-26.0163 350.7539,-19.674"/>
</g>
<!-- Node13 -->
<g id="node14" class="node">
<title>Node13</title>
<polygon fill="#ffffff" stroke="#bfbfbf" points="371.271,-.5 371.271,-18.5 448.9849,-18.5 448.9849,-.5 371.271,-.5"/>
<text text-anchor="middle" x="410.1279" y="-6.5" font-family="Helvetica,sans-Serif" font-size="10.00" fill="#000000">net/ethernet.h</text>
</g>
<!-- Node1&#45;&gt;Node13 -->
<g id="edge13" class="edge">
<title>Node1&#45;&gt;Node13</title>
<path fill="none" stroke="#191970" d="M861.4599,-169.9987C818.8696,-163.4572 741.0917,-149.7874 677.1279,-129 585.4012,-99.19 482.8263,-47.8422 435.9811,-23.3187"/>
<polygon fill="#191970" stroke="#191970" points="437.5932,-20.212 427.1144,-18.648 434.3307,-26.4053 437.5932,-20.212"/>
</g>
<!-- Node14 -->
<g id="node15" class="node">
<title>Node14</title>
<polygon fill="#ffffff" stroke="#bfbfbf" points="466.665,-.5 466.665,-18.5 531.5908,-18.5 531.5908,-.5 466.665,-.5"/>
<text text-anchor="middle" x="499.1279" y="-6.5" font-family="Helvetica,sans-Serif" font-size="10.00" fill="#000000">netinet/ip.h</text>
</g>
<!-- Node1&#45;&gt;Node14 -->
<g id="edge14" class="edge">
<title>Node1&#45;&gt;Node14</title>
<path fill="none" stroke="#191970" d="M861.6652,-168.503C826.6297,-161.2954 768.6729,-147.7814 721.1279,-129 644.6209,-98.7779 560.8024,-48.5272 521.6389,-23.942"/>
<polygon fill="#191970" stroke="#191970" points="523.4303,-20.9337 513.1076,-18.5475 519.6892,-26.8502 523.4303,-20.9337"/>
</g>
<!-- Node15 -->
<g id="node16" class="node">
<title>Node15</title>
<polygon fill="#ffffff" stroke="#bfbfbf" points="549.8867,-.5 549.8867,-18.5 620.3691,-18.5 620.3691,-.5 549.8867,-.5"/>
<text text-anchor="middle" x="585.1279" y="-6.5" font-family="Helvetica,sans-Serif" font-size="10.00" fill="#000000">netinet/tcp.h</text>
</g>
<!-- Node1&#45;&gt;Node15 -->
<g id="edge15" class="edge">
<title>Node1&#45;&gt;Node15</title>
<path fill="none" stroke="#191970" d="M861.6079,-166.701C833.3783,-159.083 791.2871,-146.1386 757.1279,-129 697.377,-99.0213 634.7366,-50.4679 604.1746,-25.4814"/>
<polygon fill="#191970" stroke="#191970" points="606.0353,-22.4789 596.0954,-18.8115 601.5787,-27.877 606.0353,-22.4789"/>
</g>
<!-- Node16 -->
<g id="node17" class="node">
<title>Node16</title>
<polygon fill="#ffffff" stroke="#bfbfbf" points="638.3276,-.5 638.3276,-18.5 729.9282,-18.5 729.9282,-.5 638.3276,-.5"/>
<text text-anchor="middle" x="684.1279" y="-6.5" font-family="Helvetica,sans-Serif" font-size="10.00" fill="#000000">netinet/ip_icmp.h</text>
</g>
<!-- Node1&#45;&gt;Node16 -->
<g id="edge16" class="edge">
<title>Node1&#45;&gt;Node16</title>
<path fill="none" stroke="#191970" d="M861.5197,-166.3213C837.8172,-159.1342 805.4157,-146.986 781.1279,-129 742.474,-100.3753 710.2209,-52.9234 694.4781,-27.2729"/>
<polygon fill="#191970" stroke="#191970" points="697.4184,-25.3705 689.2739,-18.5942 691.415,-28.9705 697.4184,-25.3705"/>
</g>
<!-- Node17 -->
<g id="node18" class="node">
<title>Node17</title>
<polygon fill="#ffffff" stroke="#bfbfbf" points="875.7241,-.5 875.7241,-18.5 934.5317,-18.5 934.5317,-.5 875.7241,-.5"/>
<text text-anchor="middle" x="905.1279" y="-6.5" font-family="Helvetica,sans-Serif" font-size="10.00" fill="#000000">jansson.h</text>
</g>
<!-- Node1&#45;&gt;Node17 -->
<g id="edge17" class="edge">
<title>Node1&#45;&gt;Node17</title>
<path fill="none" stroke="#191970" d="M893.8075,-165.1561C895.7134,-138.9504 901.1384,-64.3557 903.7241,-28.8021"/>
<polygon fill="#191970" stroke="#191970" points="907.2212,-28.969 904.4558,-18.7414 900.2396,-28.4611 907.2212,-28.969"/>
</g>
<!-- Node18 -->
<g id="node19" class="node">
<title>Node18</title>
<polygon fill="#ffffff" stroke="#bfbfbf" points="952.2339,-.5 952.2339,-18.5 996.022,-18.5 996.022,-.5 952.2339,-.5"/>
<text text-anchor="middle" x="974.1279" y="-6.5" font-family="Helvetica,sans-Serif" font-size="10.00" fill="#000000">libcli.h</text>
</g>
<!-- Node1&#45;&gt;Node18 -->
<g id="edge18" class="edge">
<title>Node1&#45;&gt;Node18</title>
<path fill="none" stroke="#191970" d="M897.7149,-165.1561C910.6909,-138.7235 947.8346,-63.0604 965.1013,-27.8875"/>
<polygon fill="#191970" stroke="#191970" points="968.3263,-29.2605 969.5912,-18.7414 962.0426,-26.1757 968.3263,-29.2605"/>
</g>
<!-- Node19 -->
<g id="node20" class="node">
<title>Node19</title>
<polygon fill="#ffffff" stroke="#bfbfbf" points="1014.5122,-.5 1014.5122,-18.5 1057.7437,-18.5 1057.7437,-.5 1014.5122,-.5"/>
<text text-anchor="middle" x="1036.1279" y="-6.5" font-family="Helvetica,sans-Serif" font-size="10.00" fill="#000000">zmq.h</text>
</g>
<!-- Node1&#45;&gt;Node19 -->
<g id="edge19" class="edge">
<title>Node1&#45;&gt;Node19</title>
<path fill="none" stroke="#191970" d="M901.7762,-165.2353C910.1917,-156.1429 923.263,-141.8144 934.1279,-129 961.3302,-96.917 965.5469,-86.758 993.1279,-55 1001.6611,-45.1746 1011.6186,-34.5867 1019.8014,-26.099"/>
<polygon fill="#191970" stroke="#191970" points="1022.5359,-28.3074 1026.9985,-18.6983 1017.5176,-23.4272 1022.5359,-28.3074"/>
</g>
<!-- Node20 -->
<g id="node21" class="node">
<title>Node20</title>
<g id="a_node21"><a xlink:href="mac2int_8h.html" target="_top" xlink:title="mac2int.h">
<polygon fill="#ffffff" stroke="#000000" points="804.4507,-110.5 804.4507,-128.5 863.8052,-128.5 863.8052,-110.5 804.4507,-110.5"/>
<text text-anchor="middle" x="834.1279" y="-116.5" font-family="Helvetica,sans-Serif" font-size="10.00" fill="#000000">mac2int.h</text>
</a>
</g>
</g>
<!-- Node1&#45;&gt;Node20 -->
<g id="edge20" class="edge">
<title>Node1&#45;&gt;Node20</title>
<path fill="none" stroke="#191970" d="M883.3853,-165.4179C874.7262,-157.3458 861.864,-145.3556 851.4543,-135.6517"/>
<polygon fill="#191970" stroke="#191970" points="853.7835,-133.0381 844.0823,-128.7795 849.0104,-138.1584 853.7835,-133.0381"/>
</g>
<!-- Node22 -->
<g id="node23" class="node">
<title>Node22</title>
<g id="a_node23"><a xlink:href="ip2int_8h.html" target="_top" xlink:title="ip2int.h">
<polygon fill="#ffffff" stroke="#000000" points="748.0049,-.5 748.0049,-18.5 796.251,-18.5 796.251,-.5 748.0049,-.5"/>
<text text-anchor="middle" x="772.1279" y="-6.5" font-family="Helvetica,sans-Serif" font-size="10.00" fill="#000000">ip2int.h</text>
</a>
</g>
</g>
<!-- Node1&#45;&gt;Node22 -->
<g id="edge45" class="edge">
<title>Node1&#45;&gt;Node22</title>
<path fill="none" stroke="#191970" d="M861.424,-167.8225C839.4854,-161.5296 811.4097,-149.8437 795.1279,-129 772.3455,-99.8344 769.9725,-54.6306 770.7451,-28.9933"/>
<polygon fill="#191970" stroke="#191970" points="774.255,-28.8813 771.2595,-18.7188 767.2638,-28.5313 774.255,-28.8813"/>
</g>
<!-- Node24 -->
<g id="node25" class="node">
<title>Node24</title>
<polygon fill="#ffffff" stroke="#bfbfbf" points="1075.5122,-.5 1075.5122,-18.5 1118.7437,-18.5 1118.7437,-.5 1075.5122,-.5"/>
<text text-anchor="middle" x="1097.1279" y="-6.5" font-family="Helvetica,sans-Serif" font-size="10.00" fill="#000000">time.h</text>
</g>
<!-- Node1&#45;&gt;Node24 -->
<g id="edge47" class="edge">
<title>Node1&#45;&gt;Node24</title>
<path fill="none" stroke="#191970" d="M907.1008,-165.3179C920.1794,-156.515 940.0585,-142.5925 956.1279,-129 991.8804,-98.7584 995.0463,-84.8481 1031.1279,-55 1044.5895,-43.8641 1060.7188,-32.7089 1073.6627,-24.2309"/>
<polygon fill="#191970" stroke="#191970" points="1075.9344,-26.9306 1082.4412,-18.5693 1072.1404,-21.0479 1075.9344,-26.9306"/>
</g>
<!-- Node25 -->
<g id="node26" class="node">
<title>Node25</title>
<g id="a_node26"><a xlink:href="ext__apps_2shim_2include_2type_8h.html" target="_top" xlink:title="type.h">
<polygon fill="#ffffff" stroke="#000000" points="1263.5073,-110.5 1263.5073,-128.5 1306.7485,-128.5 1306.7485,-110.5 1263.5073,-110.5"/>
<text text-anchor="middle" x="1285.1279" y="-116.5" font-family="Helvetica,sans-Serif" font-size="10.00" fill="#000000">type.h</text>
</a>
</g>
</g>
<!-- Node1&#45;&gt;Node25 -->
<g id="edge46" class="edge">
<title>Node1&#45;&gt;Node25</title>
<path fill="none" stroke="#191970" d="M924.7799,-171.8569C987.2162,-166.3348 1130.484,-152.1331 1249.1279,-129 1250.4127,-128.7495 1251.7194,-128.4792 1253.0367,-128.1938"/>
<polygon fill="#191970" stroke="#191970" points="1254.2303,-131.5076 1263.1486,-125.7879 1252.6101,-124.6976 1254.2303,-131.5076"/>
</g>
<!-- Node21 -->
<g id="node22" class="node">
<title>Node21</title>
<g id="a_node22"><a xlink:href="src_2include_2common_8h.html" target="_top" xlink:title="common.h">
<polygon fill="#ffffff" stroke="#000000" points="802.7856,-55.5 802.7856,-73.5 865.4702,-73.5 865.4702,-55.5 802.7856,-55.5"/>
<text text-anchor="middle" x="834.1279" y="-61.5" font-family="Helvetica,sans-Serif" font-size="10.00" fill="#000000">common.h</text>
</a>
</g>
</g>
<!-- Node20&#45;&gt;Node21 -->
<g id="edge21" class="edge">
<title>Node20&#45;&gt;Node21</title>
<path fill="none" stroke="#191970" d="M828.9616,-110.4179C827.4701,-103.2164 827.0321,-92.8962 827.6477,-83.8632"/>
<polygon fill="#191970" stroke="#191970" points="831.1406,-84.1392 828.9212,-73.7795 824.1957,-83.2621 831.1406,-84.1392"/>
</g>
<!-- Node21&#45;&gt;Node2 -->
<g id="edge22" class="edge">
<title>Node21&#45;&gt;Node2</title>
<path fill="none" stroke="#191970" d="M865.7377,-61.1203C918.1543,-55.1912 1026.4612,-41.5651 1126.2648,-19.1913"/>
<polygon fill="#191970" stroke="#191970" points="1127.2316,-22.5608 1136.2044,-16.9271 1125.6768,-15.7357 1127.2316,-22.5608"/>
</g>
<!-- Node21&#45;&gt;Node3 -->
<g id="edge23" class="edge">
<title>Node21&#45;&gt;Node3</title>
<path fill="none" stroke="#191970" d="M865.899,-62.0157C926.9114,-56.9102 1064.798,-43.7539 1189.5043,-19.0906"/>
<polygon fill="#191970" stroke="#191970" points="1190.4903,-22.4625 1199.6051,-17.0615 1189.1116,-15.5996 1190.4903,-22.4625"/>
</g>
<!-- Node21&#45;&gt;Node4 -->
<g id="edge24" class="edge">
<title>Node21&#45;&gt;Node4</title>
<path fill="none" stroke="#191970" d="M865.6904,-63.0975C935.2199,-59.5896 1106.8578,-48.6365 1258.1955,-19.1062"/>
<polygon fill="#191970" stroke="#191970" points="1259.0057,-22.5137 1268.1332,-17.1341 1257.6431,-15.6476 1259.0057,-22.5137"/>
</g>
<!-- Node21&#45;&gt;Node5 -->
<g id="edge25" class="edge">
<title>Node21&#45;&gt;Node5</title>
<path fill="none" stroke="#191970" d="M865.7189,-63.6262C942.6781,-61.0625 1145.9885,-51.6744 1323.3514,-19.0402"/>
<polygon fill="#191970" stroke="#191970" points="1324.1958,-22.4431 1333.3819,-17.1643 1322.9089,-15.5624 1324.1958,-22.4431"/>
</g>
<!-- Node21&#45;&gt;Node6 -->
<g id="edge26" class="edge">
<title>Node21&#45;&gt;Node6</title>
<path fill="none" stroke="#191970" d="M865.4832,-63.95C949.259,-62.0556 1185.2861,-53.9358 1389.847,-18.9239"/>
<polygon fill="#191970" stroke="#191970" points="1390.6182,-22.3424 1399.8713,-17.182 1389.4197,-15.4458 1390.6182,-22.3424"/>
</g>
<!-- Node21&#45;&gt;Node7 -->
<g id="edge27" class="edge">
<title>Node21&#45;&gt;Node7</title>
<path fill="none" stroke="#191970" d="M865.6133,-63.0828C973.1442,-58.1107 1326.1236,-40.6704 1459.763,-18.8436"/>
<polygon fill="#191970" stroke="#191970" points="1460.4891,-22.2702 1469.7529,-17.1289 1459.3049,-15.3711 1460.4891,-22.2702"/>
</g>
<!-- Node21&#45;&gt;Node8 -->
<g id="edge28" class="edge">
<title>Node21&#45;&gt;Node8</title>
<path fill="none" stroke="#191970" d="M802.7837,-63.4185C680.2153,-59.0719 232.479,-42.0632 68.8382,-18.9413"/>
<polygon fill="#191970" stroke="#191970" points="68.8811,-15.4097 58.4767,-17.4095 67.8573,-22.3344 68.8811,-15.4097"/>
</g>
<!-- Node21&#45;&gt;Node9 -->
<g id="edge29" class="edge">
<title>Node21&#45;&gt;Node9</title>
<path fill="none" stroke="#191970" d="M802.6752,-63.3603C686.8294,-59.0259 283.3801,-42.687 134.3617,-18.8081"/>
<polygon fill="#191970" stroke="#191970" points="134.9411,-15.3564 124.4992,-17.1502 133.7806,-22.2596 134.9411,-15.3564"/>
</g>
<!-- Node21&#45;&gt;Node10 -->
<g id="edge30" class="edge">
<title>Node21&#45;&gt;Node10</title>
<path fill="none" stroke="#191970" d="M802.5708,-63.151C693.9416,-58.3691 335.1595,-41.396 200.1897,-18.9888"/>
<polygon fill="#191970" stroke="#191970" points="200.5583,-15.5002 190.105,-17.2266 199.3533,-22.3957 200.5583,-15.5002"/>
</g>
<!-- Node21&#45;&gt;Node11 -->
<g id="edge31" class="edge">
<title>Node21&#45;&gt;Node11</title>
<path fill="none" stroke="#191970" d="M802.7014,-63.5229C719.2703,-60.589 485.2097,-50.1476 280.8393,-18.8779"/>
<polygon fill="#191970" stroke="#191970" points="281.2412,-15.3985 270.8229,-17.3248 280.1685,-22.3158 281.2412,-15.3985"/>
</g>
<!-- Node21&#45;&gt;Node12 -->
<g id="edge32" class="edge">
<title>Node21&#45;&gt;Node12</title>
<path fill="none" stroke="#191970" d="M802.7397,-62.9053C728.1685,-58.8121 534.4249,-46.3899 363.6437,-19.0686"/>
<polygon fill="#191970" stroke="#191970" points="364.156,-15.606 353.7247,-17.4606 363.0357,-22.5158 364.156,-15.606"/>
</g>
<!-- Node21&#45;&gt;Node13 -->
<g id="edge33" class="edge">
<title>Node21&#45;&gt;Node13</title>
<path fill="none" stroke="#191970" d="M802.3246,-61.4645C738.9975,-55.2456 592.4637,-39.9842 459.1027,-19.0525"/>
<polygon fill="#191970" stroke="#191970" points="459.5414,-15.5785 449.1169,-17.4705 458.446,-22.4922 459.5414,-15.5785"/>
</g>
<!-- Node21&#45;&gt;Node14 -->
<g id="edge34" class="edge">
<title>Node21&#45;&gt;Node14</title>
<path fill="none" stroke="#191970" d="M802.3545,-60.2917C750.1808,-53.2247 642.8967,-38.0356 541.7257,-18.9993"/>
<polygon fill="#191970" stroke="#191970" points="542.1187,-15.5115 531.6414,-17.0849 540.8131,-22.3887 542.1187,-15.5115"/>
</g>
<!-- Node21&#45;&gt;Node15 -->
<g id="edge35" class="edge">
<title>Node21&#45;&gt;Node15</title>
<path fill="none" stroke="#191970" d="M802.5919,-57.5342C759.007,-47.907 680.1066,-30.4792 630.2788,-19.4731"/>
<polygon fill="#191970" stroke="#191970" points="630.935,-16.0337 620.4154,-17.2944 629.4251,-22.869 630.935,-16.0337"/>
</g>
<!-- Node21&#45;&gt;Node16 -->
<g id="edge36" class="edge">
<title>Node21&#45;&gt;Node16</title>
<path fill="none" stroke="#191970" d="M809.3585,-55.4179C784.5316,-46.3147 746.1141,-32.2283 718.376,-22.0576"/>
<polygon fill="#191970" stroke="#191970" points="719.2785,-18.6608 708.6849,-18.5042 716.8687,-25.2329 719.2785,-18.6608"/>
</g>
<!-- Node21&#45;&gt;Node17 -->
<g id="edge37" class="edge">
<title>Node21&#45;&gt;Node17</title>
<path fill="none" stroke="#191970" d="M845.8521,-55.4179C856.4767,-47.1876 872.3596,-34.8839 885.011,-25.0836"/>
<polygon fill="#191970" stroke="#191970" points="887.3869,-27.6704 893.149,-18.7795 883.1001,-22.1365 887.3869,-27.6704"/>
</g>
<!-- Node21&#45;&gt;Node18 -->
<g id="edge38" class="edge">
<title>Node21&#45;&gt;Node18</title>
<path fill="none" stroke="#191970" d="M857.2461,-55.4179C880.5228,-46.2734 916.5993,-32.1005 942.5143,-21.9197"/>
<polygon fill="#191970" stroke="#191970" points="943.8733,-25.1462 951.901,-18.232 941.3137,-18.631 943.8733,-25.1462"/>
</g>
<!-- Node21&#45;&gt;Node19 -->
<g id="edge39" class="edge">
<title>Node21&#45;&gt;Node19</title>
<path fill="none" stroke="#191970" d="M865.7416,-56.465C898.187,-48.1358 950.355,-34.5154 1004.6746,-19.0517"/>
<polygon fill="#191970" stroke="#191970" points="1005.8266,-22.3626 1014.4783,-16.2472 1003.9013,-15.6326 1005.8266,-22.3626"/>
</g>
<!-- Node21&#45;&gt;Node20 -->
<g id="edge40" class="edge">
<title>Node21&#45;&gt;Node20</title>
<path fill="none" stroke="#191970" d="M839.3347,-73.7795C840.8071,-81.0373 841.2259,-91.3738 840.5911,-100.383"/>
<polygon fill="#191970" stroke="#191970" points="837.1049,-100.0517 839.2943,-110.4179 844.0471,-100.949 837.1049,-100.0517"/>
</g>
<!-- Node21&#45;&gt;Node22 -->
<g id="edge41" class="edge">
<title>Node21&#45;&gt;Node22</title>
<path fill="none" stroke="#191970" d="M818.7236,-55.4179C808.058,-47.425 794.3595,-35.5903 784.4187,-25.9377"/>
<polygon fill="#191970" stroke="#191970" points="786.888,-23.4571 777.3816,-18.7795 781.8961,-28.3644 786.888,-23.4571"/>
</g>
<!-- Node23 -->
<g id="node24" class="node">
<title>Node23</title>
<g id="a_node24"><a xlink:href="src_2include_2type_8h.html" target="_top" xlink:title="type.h">
<polygon fill="#ffffff" stroke="#000000" points="814.5073,-.5 814.5073,-18.5 857.7485,-18.5 857.7485,-.5 814.5073,-.5"/>
<text text-anchor="middle" x="836.1279" y="-6.5" font-family="Helvetica,sans-Serif" font-size="10.00" fill="#000000">type.h</text>
</a>
</g>
</g>
<!-- Node21&#45;&gt;Node23 -->
<g id="edge43" class="edge">
<title>Node21&#45;&gt;Node23</title>
<path fill="none" stroke="#191970" d="M834.4582,-55.4179C834.7201,-48.2164 835.0953,-37.8962 835.4238,-28.8632"/>
<polygon fill="#191970" stroke="#191970" points="838.9247,-28.9001 835.7905,-18.7795 831.9293,-28.6456 838.9247,-28.9001"/>
</g>
<!-- Node21&#45;&gt;Node24 -->
<g id="edge44" class="edge">
<title>Node21&#45;&gt;Node24</title>
<path fill="none" stroke="#191970" d="M865.6609,-59.5146C908.8395,-52.4342 988.9233,-38.398 1065.4583,-19.2302"/>
<polygon fill="#191970" stroke="#191970" points="1066.4246,-22.596 1075.2558,-16.7428 1064.702,-15.8112 1066.4246,-22.596"/>
</g>
<!-- Node22&#45;&gt;Node21 -->
<g id="edge42" class="edge">
<title>Node22&#45;&gt;Node21</title>
<path fill="none" stroke="#191970" d="M787.7952,-18.7795C798.404,-26.7552 811.9313,-38.4485 821.7864,-48.0129"/>
<polygon fill="#191970" stroke="#191970" points="819.553,-50.734 829.0562,-55.4179 824.5481,-45.83 819.553,-50.734"/>
</g>
<!-- Node26&#45;&gt;Node1 -->
<g id="edge49" class="edge">
<title>Node26&#45;&gt;Node1</title>
<path fill="none" stroke="#191970" d="M939.8807,-220.4179C931.7425,-212.425 919.6926,-200.5903 909.8645,-190.9377"/>
<polygon fill="#191970" stroke="#191970" points="912.1631,-188.2895 902.5761,-183.7795 907.2581,-193.2836 912.1631,-188.2895"/>
</g>
<!-- Node28&#45;&gt;Node25 -->
<g id="edge52" class="edge">
<title>Node28&#45;&gt;Node25</title>
<path fill="none" stroke="#191970" d="M1168.2461,-165.4179C1191.6605,-156.2193 1228.0267,-141.9326 1253.9732,-131.7394"/>
<polygon fill="#191970" stroke="#191970" points="1255.3309,-134.9665 1263.3586,-128.0522 1252.7713,-128.4512 1255.3309,-134.9665"/>
</g>
</g>
</svg>
