<?xml version="1.0" encoding="UTF-8" standalone="no"?>
<!DOCTYPE svg PUBLIC "-//W3C//DTD SVG 1.1//EN"
 "http://www.w3.org/Graphics/SVG/1.1/DTD/svg11.dtd">
<!-- Generated by graphviz version 2.40.1 (20161225.0304)
 -->
<!-- Title: ext_comps/shim/include/shim.h Pages: 1 -->
<svg width="1527pt" height="367pt"
 viewBox="0.00 0.00 1527.25 367.00" xmlns="http://www.w3.org/2000/svg" xmlns:xlink="http://www.w3.org/1999/xlink">
<g id="graph0" class="graph" transform="scale(1 1) rotate(0) translate(4 363)">
<title>ext_comps/shim/include/shim.h</title>
<polygon fill="#ffffff" stroke="transparent" points="-4,4 -4,-363 1523.2485,-363 1523.2485,4 -4,4"/>
<!-- Node0 -->
<g id="node1" class="node">
<title>Node0</title>
<polygon fill="#bfbfbf" stroke="#000000" points="1067.7637,-330.5 1067.7637,-358.5 1190.4775,-358.5 1190.4775,-330.5 1067.7637,-330.5"/>
<text text-anchor="start" x="1075.7637" y="-346.5" font-family="Helvetica,sans-Serif" font-size="10.00" fill="#000000">ext_comps/shim/include</text>
<text text-anchor="middle" x="1129.1206" y="-336.5" font-family="Helvetica,sans-Serif" font-size="10.00" fill="#000000">/shim.h</text>
</g>
<!-- Node1 -->
<g id="node2" class="node">
<title>Node1</title>
<g id="a_node2"><a xlink:href="ext__comps_2shim_2include_2common_8h.html" target="_top" xlink:title="common.h">
<polygon fill="#ffffff" stroke="#000000" points="794.7783,-165.5 794.7783,-183.5 857.4629,-183.5 857.4629,-165.5 794.7783,-165.5"/>
<text text-anchor="middle" x="826.1206" y="-171.5" font-family="Helvetica,sans-Serif" font-size="10.00" fill="#000000">common.h</text>
</a>
</g>
</g>
<!-- Node0&#45;&gt;Node1 -->
<g id="edge1" class="edge">
<title>Node0&#45;&gt;Node1</title>
<path fill="none" stroke="#191970" d="M1067.6475,-340.4456C996.1147,-334.5293 883.7439,-321.1401 852.1206,-294 823.3611,-269.3177 822.0669,-220.9572 823.9191,-193.9385"/>
<polygon fill="#191970" stroke="#191970" points="827.4213,-194.0712 824.8347,-183.797 820.4497,-193.4418 827.4213,-194.0712"/>
</g>
<!-- Node26 -->
<g id="node27" class="node">
<title>Node26</title>
<g id="a_node27"><a xlink:href="ext__comps_2shim_2include_2event_8h.html" target="_top" xlink:title="event.h">
<polygon fill="#ffffff" stroke="#000000" points="860.7192,-275.5 860.7192,-293.5 909.522,-293.5 909.522,-275.5 860.7192,-275.5"/>
<text text-anchor="middle" x="885.1206" y="-281.5" font-family="Helvetica,sans-Serif" font-size="10.00" fill="#000000">event.h</text>
</a>
</g>
</g>
<!-- Node0&#45;&gt;Node26 -->
<g id="edge48" class="edge">
<title>Node0&#45;&gt;Node26</title>
<path fill="none" stroke="#191970" d="M1071.9134,-330.4327C1024.7179,-318.8272 959.2982,-302.7404 919.7181,-293.0076"/>
<polygon fill="#191970" stroke="#191970" points="920.3043,-289.5475 909.7578,-290.5583 918.6327,-296.345 920.3043,-289.5475"/>
</g>
<!-- Node30 -->
<g id="node31" class="node">
<title>Node30</title>
<g id="a_node31"><a xlink:href="ext__comps_2shim_2include_2component_8h.html" target="_top" xlink:title="component.h">
<polygon fill="#ffffff" stroke="#000000" points="1008.2119,-220.5 1008.2119,-238.5 1082.0293,-238.5 1082.0293,-220.5 1008.2119,-220.5"/>
<text text-anchor="middle" x="1045.1206" y="-226.5" font-family="Helvetica,sans-Serif" font-size="10.00" fill="#000000">component.h</text>
</a>
</g>
</g>
<!-- Node0&#45;&gt;Node30 -->
<g id="edge55" class="edge">
<title>Node0&#45;&gt;Node30</title>
<path fill="none" stroke="#191970" d="M1118.8206,-330.3987C1103.4277,-309.3252 1074.4534,-269.6581 1057.7873,-246.8413"/>
<polygon fill="#191970" stroke="#191970" points="1060.5863,-244.7394 1051.8615,-238.7286 1054.9336,-248.8683 1060.5863,-244.7394"/>
</g>
<!-- Node31 -->
<g id="node32" class="node">
<title>Node31</title>
<polygon fill="#ffffff" stroke="#bfbfbf" points="1176.3203,-275.5 1176.3203,-293.5 1267.9209,-293.5 1267.9209,-275.5 1176.3203,-275.5"/>
<text text-anchor="middle" x="1222.1206" y="-281.5" font-family="Helvetica,sans-Serif" font-size="10.00" fill="#000000">component_list.h</text>
</g>
<!-- Node0&#45;&gt;Node31 -->
<g id="edge57" class="edge">
<title>Node0&#45;&gt;Node31</title>
<path fill="none" stroke="#191970" d="M1151.1603,-330.2808C1165.7503,-320.868 1184.8315,-308.5575 1199.5322,-299.0732"/>
<polygon fill="#191970" stroke="#191970" points="1201.5346,-301.9465 1208.0401,-293.5842 1197.7397,-296.0645 1201.5346,-301.9465"/>
</g>
<!-- Node32 -->
<g id="node33" class="node">
<title>Node32</title>
<g id="a_node33"><a xlink:href="component__info_8h.html" target="_top" xlink:title="component_info.h">
<polygon fill="#ffffff" stroke="#000000" points="1286.3696,-275.5 1286.3696,-293.5 1381.8716,-293.5 1381.8716,-275.5 1286.3696,-275.5"/>
<text text-anchor="middle" x="1334.1206" y="-281.5" font-family="Helvetica,sans-Serif" font-size="10.00" fill="#000000">component_info.h</text>
</a>
</g>
</g>
<!-- Node0&#45;&gt;Node32 -->
<g id="edge58" class="edge">
<title>Node0&#45;&gt;Node32</title>
<path fill="none" stroke="#191970" d="M1177.184,-330.4327C1212.4688,-320.1054 1259.878,-306.2295 1293.3251,-296.4402"/>
<polygon fill="#191970" stroke="#191970" points="1294.6138,-299.7099 1303.228,-293.5417 1292.6475,-292.9917 1294.6138,-299.7099"/>
</g>
<!-- Node33 -->
<g id="node34" class="node">
<title>Node33</title>
<g id="a_node34"><a xlink:href="str_8h.html" target="_top" xlink:title="str.h">
<polygon fill="#ffffff" stroke="#000000" points="1153.6699,-165.5 1153.6699,-183.5 1188.5713,-183.5 1188.5713,-165.5 1153.6699,-165.5"/>
<text text-anchor="middle" x="1171.1206" y="-171.5" font-family="Helvetica,sans-Serif" font-size="10.00" fill="#000000">str.h</text>
</a>
</g>
</g>
<!-- Node0&#45;&gt;Node33 -->
<g id="edge59" class="edge">
<title>Node0&#45;&gt;Node33</title>
<path fill="none" stroke="#191970" d="M1132.6293,-330.2983C1140.1722,-299.7672 1157.9353,-227.8692 1166.4325,-193.4756"/>
<polygon fill="#191970" stroke="#191970" points="1169.8404,-194.2742 1168.8411,-183.7266 1163.0447,-192.5953 1169.8404,-194.2742"/>
</g>
<!-- Node34 -->
<g id="node35" class="node">
<title>Node34</title>
<g id="a_node35"><a xlink:href="hash_8h.html" target="_top" xlink:title="hash.h">
<polygon fill="#ffffff" stroke="#000000" points="1088.1084,-165.5 1088.1084,-183.5 1134.1328,-183.5 1134.1328,-165.5 1088.1084,-165.5"/>
<text text-anchor="middle" x="1111.1206" y="-171.5" font-family="Helvetica,sans-Serif" font-size="10.00" fill="#000000">hash.h</text>
</a>
</g>
</g>
<!-- Node0&#45;&gt;Node34 -->
<g id="edge61" class="edge">
<title>Node0&#45;&gt;Node34</title>
<path fill="none" stroke="#191970" d="M1127.6169,-330.2983C1124.3982,-299.8994 1116.8373,-228.4909 1113.1773,-193.9244"/>
<polygon fill="#191970" stroke="#191970" points="1116.6311,-193.3025 1112.0975,-183.7266 1109.67,-194.0396 1116.6311,-193.3025"/>
</g>
<!-- Node35 -->
<g id="node36" class="node">
<title>Node35</title>
<polygon fill="#ffffff" stroke="#bfbfbf" points="1399.8867,-275.5 1399.8867,-293.5 1450.3545,-293.5 1450.3545,-275.5 1399.8867,-275.5"/>
<text text-anchor="middle" x="1425.1206" y="-281.5" font-family="Helvetica,sans-Serif" font-size="10.00" fill="#000000">signal.h</text>
</g>
<!-- Node0&#45;&gt;Node35 -->
<g id="edge63" class="edge">
<title>Node0&#45;&gt;Node35</title>
<path fill="none" stroke="#191970" d="M1190.567,-334.1262C1241.566,-325.1815 1316.1772,-311.3253 1389.6692,-294.2095"/>
<polygon fill="#191970" stroke="#191970" points="1390.6254,-297.5802 1399.5591,-291.8846 1389.0234,-290.766 1390.6254,-297.5802"/>
</g>
<!-- Node2 -->
<g id="node3" class="node">
<title>Node2</title>
<polygon fill="#ffffff" stroke="#bfbfbf" points="1330.3892,-.5 1330.3892,-18.5 1375.8521,-18.5 1375.8521,-.5 1330.3892,-.5"/>
<text text-anchor="middle" x="1353.1206" y="-6.5" font-family="Helvetica,sans-Serif" font-size="10.00" fill="#000000">stdio.h</text>
</g>
<!-- Node1&#45;&gt;Node2 -->
<g id="edge2" class="edge">
<title>Node1&#45;&gt;Node2</title>
<path fill="none" stroke="#191970" d="M857.6462,-171.9904C908.8489,-167.301 1012.8446,-155.2119 1097.1206,-129 1186.133,-101.315 1284.0764,-48.8732 1328.63,-23.6924"/>
<polygon fill="#191970" stroke="#191970" points="1330.5942,-26.6016 1337.5505,-18.6103 1327.129,-20.5194 1330.5942,-26.6016"/>
</g>
<!-- Node3 -->
<g id="node4" class="node">
<title>Node3</title>
<polygon fill="#ffffff" stroke="#bfbfbf" points="748.6084,-.5 748.6084,-18.5 799.6328,-18.5 799.6328,-.5 748.6084,-.5"/>
<text text-anchor="middle" x="774.1206" y="-6.5" font-family="Helvetica,sans-Serif" font-size="10.00" fill="#000000">unistd.h</text>
</g>
<!-- Node1&#45;&gt;Node3 -->
<g id="edge3" class="edge">
<title>Node1&#45;&gt;Node3</title>
<path fill="none" stroke="#191970" d="M823.1759,-165.1561C814.8814,-138.837 791.2046,-63.709 780.0589,-28.3426"/>
<polygon fill="#191970" stroke="#191970" points="783.377,-27.2269 777.033,-18.7414 776.7007,-29.331 783.377,-27.2269"/>
</g>
<!-- Node4 -->
<g id="node5" class="node">
<title>Node4</title>
<polygon fill="#ffffff" stroke="#bfbfbf" points="817.2783,-.5 817.2783,-18.5 864.9629,-18.5 864.9629,-.5 817.2783,-.5"/>
<text text-anchor="middle" x="841.1206" y="-6.5" font-family="Helvetica,sans-Serif" font-size="10.00" fill="#000000">stdlib.h</text>
</g>
<!-- Node1&#45;&gt;Node4 -->
<g id="edge4" class="edge">
<title>Node1&#45;&gt;Node4</title>
<path fill="none" stroke="#191970" d="M826.97,-165.1561C829.3524,-138.9504 836.1337,-64.3557 839.3659,-28.8021"/>
<polygon fill="#191970" stroke="#191970" points="842.8607,-29.0172 840.2805,-18.7414 835.8894,-28.3834 842.8607,-29.0172"/>
</g>
<!-- Node5 -->
<g id="node6" class="node">
<title>Node5</title>
<polygon fill="#ffffff" stroke="#bfbfbf" points="1393.7241,-.5 1393.7241,-18.5 1442.5171,-18.5 1442.5171,-.5 1393.7241,-.5"/>
<text text-anchor="middle" x="1418.1206" y="-6.5" font-family="Helvetica,sans-Serif" font-size="10.00" fill="#000000">string.h</text>
</g>
<!-- Node1&#45;&gt;Node5 -->
<g id="edge5" class="edge">
<title>Node1&#45;&gt;Node5</title>
<path fill="none" stroke="#191970" d="M857.4653,-172.5429C914.0417,-168.4311 1036.5952,-156.8648 1136.1206,-129 1196.5335,-112.0858 1208.3559,-98.4754 1266.1206,-74 1308.039,-56.2388 1356.4452,-35.6916 1387.1574,-22.6504"/>
<polygon fill="#191970" stroke="#191970" points="1388.6401,-25.8234 1396.4766,-18.6931 1385.904,-19.3802 1388.6401,-25.8234"/>
</g>
<!-- Node6 -->
<g id="node7" class="node">
<title>Node6</title>
<polygon fill="#ffffff" stroke="#bfbfbf" points="1072.0542,-.5 1072.0542,-18.5 1124.187,-18.5 1124.187,-.5 1072.0542,-.5"/>
<text text-anchor="middle" x="1098.1206" y="-6.5" font-family="Helvetica,sans-Serif" font-size="10.00" fill="#000000">stdarg.h</text>
</g>
<!-- Node1&#45;&gt;Node6 -->
<g id="edge6" class="edge">
<title>Node1&#45;&gt;Node6</title>
<path fill="none" stroke="#191970" d="M857.4884,-168.8024C887.4777,-162.3828 933.1721,-150.0003 968.1206,-129 1008.5309,-104.7178 1009.1827,-86.6538 1044.1206,-55 1055.4471,-44.7381 1068.5487,-33.6801 1079.0102,-25.0352"/>
<polygon fill="#191970" stroke="#191970" points="1081.2419,-27.7315 1086.7497,-18.6809 1076.8,-22.3214 1081.2419,-27.7315"/>
</g>
<!-- Node7 -->
<g id="node8" class="node">
<title>Node7</title>
<polygon fill="#ffffff" stroke="#bfbfbf" points="1142,-.5 1142,-18.5 1190.2412,-18.5 1190.2412,-.5 1142,-.5"/>
<text text-anchor="middle" x="1166.1206" y="-6.5" font-family="Helvetica,sans-Serif" font-size="10.00" fill="#000000">stdint.h</text>
</g>
<!-- Node1&#45;&gt;Node7 -->
<g id="edge7" class="edge">
<title>Node1&#45;&gt;Node7</title>
<path fill="none" stroke="#191970" d="M857.5423,-170.2844C892.668,-164.6314 950.4728,-152.4666 995.1206,-129 1040.0543,-105.3832 1040.2428,-83.6886 1082.1206,-55 1099.7348,-42.9333 1120.8754,-31.4966 1137.5415,-23.1077"/>
<polygon fill="#191970" stroke="#191970" points="1139.3656,-26.1103 1146.7768,-18.539 1136.2617,-19.8361 1139.3656,-26.1103"/>
</g>
<!-- Node8 -->
<g id="node9" class="node">
<title>Node8</title>
<polygon fill="#ffffff" stroke="#bfbfbf" points="1460.9927,-.5 1460.9927,-18.5 1519.2485,-18.5 1519.2485,-.5 1460.9927,-.5"/>
<text text-anchor="middle" x="1490.1206" y="-6.5" font-family="Helvetica,sans-Serif" font-size="10.00" fill="#000000">pthread.h</text>
</g>
<!-- Node1&#45;&gt;Node8 -->
<g id="edge8" class="edge">
<title>Node1&#45;&gt;Node8</title>
<path fill="none" stroke="#191970" d="M857.4788,-172.8897C919.2831,-169.1776 1060.8389,-158.0021 1176.1206,-129 1285.0194,-101.6037 1407.7082,-47.831 1461.86,-22.8467"/>
<polygon fill="#191970" stroke="#191970" points="1463.5599,-25.9164 1471.1549,-18.5295 1460.6111,-19.5677 1463.5599,-25.9164"/>
</g>
<!-- Node9 -->
<g id="node10" class="node">
<title>Node9</title>
<polygon fill="#ffffff" stroke="#bfbfbf" points="0,-.5 0,-18.5 48.2412,-18.5 48.2412,-.5 0,-.5"/>
<text text-anchor="middle" x="24.1206" y="-6.5" font-family="Helvetica,sans-Serif" font-size="10.00" fill="#000000">ctype.h</text>
</g>
<!-- Node1&#45;&gt;Node9 -->
<g id="edge9" class="edge">
<title>Node1&#45;&gt;Node9</title>
<path fill="none" stroke="#191970" d="M794.4442,-169.8993C742.876,-162.2743 637.6337,-146.1498 549.1206,-129 332.3686,-87.0034 275.8578,-74.8185 58.3906,-19.2287"/>
<polygon fill="#191970" stroke="#191970" points="59.1395,-15.8076 48.5841,-16.7204 57.4049,-22.5893 59.1395,-15.8076"/>
</g>
<!-- Node10 -->
<g id="node11" class="node">
<title>Node10</title>
<polygon fill="#ffffff" stroke="#bfbfbf" points="66.2783,-.5 66.2783,-18.5 113.9629,-18.5 113.9629,-.5 66.2783,-.5"/>
<text text-anchor="middle" x="90.1206" y="-6.5" font-family="Helvetica,sans-Serif" font-size="10.00" fill="#000000">errno.h</text>
</g>
<!-- Node1&#45;&gt;Node10 -->
<g id="edge10" class="edge">
<title>Node1&#45;&gt;Node10</title>
<path fill="none" stroke="#191970" d="M794.7538,-172.0735C747.8487,-167.6766 657.2339,-156.1896 585.1206,-129 554.9158,-117.6116 490.7591,-65.1639 460.1206,-55 319.8133,-8.455 272.3018,-46.8918 124.0294,-19.0652"/>
<polygon fill="#191970" stroke="#191970" points="124.5998,-15.6106 114.1152,-17.1349 123.262,-22.4816 124.5998,-15.6106"/>
</g>
<!-- Node11 -->
<g id="node12" class="node">
<title>Node11</title>
<polygon fill="#ffffff" stroke="#bfbfbf" points="131.4927,-.5 131.4927,-18.5 194.7485,-18.5 194.7485,-.5 131.4927,-.5"/>
<text text-anchor="middle" x="163.1206" y="-6.5" font-family="Helvetica,sans-Serif" font-size="10.00" fill="#000000">arpa/inet.h</text>
</g>
<!-- Node1&#45;&gt;Node11 -->
<g id="edge11" class="edge">
<title>Node1&#45;&gt;Node11</title>
<path fill="none" stroke="#191970" d="M794.6279,-170.7282C753.5639,-165.0936 680.0293,-152.5297 621.1206,-129 591.4975,-117.1677 528.2803,-65.3887 498.1206,-55 376.6937,-13.1737 335.7565,-40.4797 204.8372,-18.9111"/>
<polygon fill="#191970" stroke="#191970" points="205.284,-15.4368 194.8367,-17.1982 204.1022,-22.3363 205.284,-15.4368"/>
</g>
<!-- Node12 -->
<g id="node13" class="node">
<title>Node12</title>
<polygon fill="#ffffff" stroke="#bfbfbf" points="212.6577,-.5 212.6577,-18.5 277.5835,-18.5 277.5835,-.5 212.6577,-.5"/>
<text text-anchor="middle" x="245.1206" y="-6.5" font-family="Helvetica,sans-Serif" font-size="10.00" fill="#000000">netinet/in.h</text>
</g>
<!-- Node1&#45;&gt;Node12 -->
<g id="edge12" class="edge">
<title>Node1&#45;&gt;Node12</title>
<path fill="none" stroke="#191970" d="M794.498,-168.9052C759.6535,-162.0907 702.4135,-148.9583 656.1206,-129 627.3511,-116.5966 565.5741,-65.678 536.1206,-55 433.5737,-17.8228 398.4454,-38.4375 287.6279,-19.1147"/>
<polygon fill="#191970" stroke="#191970" points="288.2061,-15.6626 277.7419,-17.321 286.9563,-22.5501 288.2061,-15.6626"/>
</g>
<!-- Node13 -->
<g id="node14" class="node">
<title>Node13</title>
<polygon fill="#ffffff" stroke="#bfbfbf" points="295.2637,-.5 295.2637,-18.5 372.9775,-18.5 372.9775,-.5 295.2637,-.5"/>
<text text-anchor="middle" x="334.1206" y="-6.5" font-family="Helvetica,sans-Serif" font-size="10.00" fill="#000000">net/ethernet.h</text>
</g>
<!-- Node1&#45;&gt;Node13 -->
<g id="edge13" class="edge">
<title>Node1&#45;&gt;Node13</title>
<path fill="none" stroke="#191970" d="M794.7359,-166.233C766.8328,-158.3467 725.2844,-145.2727 691.1206,-129 635.5722,-102.5415 631.3806,-77.5161 574.1206,-55 496.242,-24.3761 469.3194,-34.6041 383.0992,-19.1122"/>
<polygon fill="#191970" stroke="#191970" points="383.6188,-15.6488 373.1469,-17.258 382.3367,-22.5304 383.6188,-15.6488"/>
</g>
<!-- Node14 -->
<g id="node15" class="node">
<title>Node14</title>
<polygon fill="#ffffff" stroke="#bfbfbf" points="390.6577,-.5 390.6577,-18.5 455.5835,-18.5 455.5835,-.5 390.6577,-.5"/>
<text text-anchor="middle" x="423.1206" y="-6.5" font-family="Helvetica,sans-Serif" font-size="10.00" fill="#000000">netinet/ip.h</text>
</g>
<!-- Node1&#45;&gt;Node14 -->
<g id="edge14" class="edge">
<title>Node1&#45;&gt;Node14</title>
<path fill="none" stroke="#191970" d="M802.9147,-165.4261C781.8949,-156.9097 750.3014,-143.3615 724.1206,-129 671.8122,-100.3062 666.8361,-78.7848 612.1206,-55 605.3418,-52.0533 519.3121,-31.8273 465.6863,-19.3544"/>
<polygon fill="#191970" stroke="#191970" points="466.2843,-15.9002 455.7516,-17.0462 464.7,-22.7186 466.2843,-15.9002"/>
</g>
<!-- Node15 -->
<g id="node16" class="node">
<title>Node15</title>
<polygon fill="#ffffff" stroke="#bfbfbf" points="473.8794,-.5 473.8794,-18.5 544.3618,-18.5 544.3618,-.5 473.8794,-.5"/>
<text text-anchor="middle" x="509.1206" y="-6.5" font-family="Helvetica,sans-Serif" font-size="10.00" fill="#000000">netinet/tcp.h</text>
</g>
<!-- Node1&#45;&gt;Node15 -->
<g id="edge15" class="edge">
<title>Node1&#45;&gt;Node15</title>
<path fill="none" stroke="#191970" d="M810.8363,-165.3745C795.9371,-156.3854 772.7246,-142.1312 753.1206,-129 706.2884,-97.6308 700.4378,-80.406 650.1206,-55 619.6503,-39.6151 582.8819,-27.9541 554.5325,-20.2904"/>
<polygon fill="#191970" stroke="#191970" points="555.0578,-16.8094 544.4962,-17.6482 553.2757,-23.5788 555.0578,-16.8094"/>
</g>
<!-- Node16 -->
<g id="node17" class="node">
<title>Node16</title>
<polygon fill="#ffffff" stroke="#bfbfbf" points="562.3203,-.5 562.3203,-18.5 653.9209,-18.5 653.9209,-.5 562.3203,-.5"/>
<text text-anchor="middle" x="608.1206" y="-6.5" font-family="Helvetica,sans-Serif" font-size="10.00" fill="#000000">netinet/ip_icmp.h</text>
</g>
<!-- Node1&#45;&gt;Node16 -->
<g id="edge16" class="edge">
<title>Node1&#45;&gt;Node16</title>
<path fill="none" stroke="#191970" d="M816.2238,-165.4787C789.3147,-141.024 715.0341,-74.0275 688.1206,-55 671.4818,-43.2366 651.5671,-31.9017 635.7697,-23.4877"/>
<polygon fill="#191970" stroke="#191970" points="637.0141,-20.1884 626.5317,-18.6485 633.7659,-26.3892 637.0141,-20.1884"/>
</g>
<!-- Node17 -->
<g id="node18" class="node">
<title>Node17</title>
<polygon fill="#ffffff" stroke="#bfbfbf" points="671.7168,-.5 671.7168,-18.5 730.5244,-18.5 730.5244,-.5 671.7168,-.5"/>
<text text-anchor="middle" x="701.1206" y="-6.5" font-family="Helvetica,sans-Serif" font-size="10.00" fill="#000000">jansson.h</text>
</g>
<!-- Node1&#45;&gt;Node17 -->
<g id="edge17" class="edge">
<title>Node1&#45;&gt;Node17</title>
<path fill="none" stroke="#191970" d="M819.0419,-165.1561C798.8453,-138.4967 740.7099,-61.7578 714.3712,-26.9907"/>
<polygon fill="#191970" stroke="#191970" points="716.9501,-24.5988 708.1217,-18.7414 711.3704,-28.8259 716.9501,-24.5988"/>
</g>
<!-- Node18 -->
<g id="node19" class="node">
<title>Node18</title>
<polygon fill="#ffffff" stroke="#bfbfbf" points="1010.2266,-.5 1010.2266,-18.5 1054.0146,-18.5 1054.0146,-.5 1010.2266,-.5"/>
<text text-anchor="middle" x="1032.1206" y="-6.5" font-family="Helvetica,sans-Serif" font-size="10.00" fill="#000000">libcli.h</text>
</g>
<!-- Node1&#45;&gt;Node18 -->
<g id="edge18" class="edge">
<title>Node1&#45;&gt;Node18</title>
<path fill="none" stroke="#191970" d="M857.6518,-167.7303C883.1741,-161.0781 919.0394,-148.9654 945.1206,-129 964.2433,-114.3614 1002.0901,-56.9545 1020.9269,-27.3592"/>
<polygon fill="#191970" stroke="#191970" points="1023.9418,-29.14 1026.3269,-18.8171 1018.025,-25.3995 1023.9418,-29.14"/>
</g>
<!-- Node19 -->
<g id="node20" class="node">
<title>Node19</title>
<polygon fill="#ffffff" stroke="#bfbfbf" points="1208.5049,-.5 1208.5049,-18.5 1251.7363,-18.5 1251.7363,-.5 1208.5049,-.5"/>
<text text-anchor="middle" x="1230.1206" y="-6.5" font-family="Helvetica,sans-Serif" font-size="10.00" fill="#000000">zmq.h</text>
</g>
<!-- Node1&#45;&gt;Node19 -->
<g id="edge19" class="edge">
<title>Node1&#45;&gt;Node19</title>
<path fill="none" stroke="#191970" d="M857.5098,-170.2622C897.299,-164.2247 967.5234,-151.3283 1024.1206,-129 1096.0967,-100.6046 1172.9249,-49.865 1209.0482,-24.6234"/>
<polygon fill="#191970" stroke="#191970" points="1211.1724,-27.4082 1217.3273,-18.7845 1207.138,-21.6877 1211.1724,-27.4082"/>
</g>
<!-- Node20 -->
<g id="node21" class="node">
<title>Node20</title>
<g id="a_node21"><a xlink:href="mac2int_8h.html" target="_top" xlink:title="mac2int.h">
<polygon fill="#ffffff" stroke="#000000" points="855.4434,-110.5 855.4434,-128.5 914.7979,-128.5 914.7979,-110.5 855.4434,-110.5"/>
<text text-anchor="middle" x="885.1206" y="-116.5" font-family="Helvetica,sans-Serif" font-size="10.00" fill="#000000">mac2int.h</text>
</a>
</g>
</g>
<!-- Node1&#45;&gt;Node20 -->
<g id="edge20" class="edge">
<title>Node1&#45;&gt;Node20</title>
<path fill="none" stroke="#191970" d="M835.8633,-165.4179C844.5223,-157.3458 857.3846,-145.3556 867.7943,-135.6517"/>
<polygon fill="#191970" stroke="#191970" points="870.2382,-138.1584 875.1663,-128.7795 865.465,-133.0381 870.2382,-138.1584"/>
</g>
<!-- Node22 -->
<g id="node23" class="node">
<title>Node22</title>
<g id="a_node23"><a xlink:href="ip2int_8h.html" target="_top" xlink:title="ip2int.h">
<polygon fill="#ffffff" stroke="#000000" points="943.9976,-.5 943.9976,-18.5 992.2437,-18.5 992.2437,-.5 943.9976,-.5"/>
<text text-anchor="middle" x="968.1206" y="-6.5" font-family="Helvetica,sans-Serif" font-size="10.00" fill="#000000">ip2int.h</text>
</a>
</g>
</g>
<!-- Node1&#45;&gt;Node22 -->
<g id="edge45" class="edge">
<title>Node1&#45;&gt;Node22</title>
<path fill="none" stroke="#191970" d="M857.749,-166.6918C879.0799,-159.9423 906.4535,-148.1762 924.1206,-129 950.61,-100.248 961.4982,-54.1992 965.6993,-28.4677"/>
<polygon fill="#191970" stroke="#191970" points="969.173,-28.9016 967.1539,-18.501 962.2464,-27.8906 969.173,-28.9016"/>
</g>
<!-- Node24 -->
<g id="node25" class="node">
<title>Node24</title>
<polygon fill="#ffffff" stroke="#bfbfbf" points="1269.5049,-.5 1269.5049,-18.5 1312.7363,-18.5 1312.7363,-.5 1269.5049,-.5"/>
<text text-anchor="middle" x="1291.1206" y="-6.5" font-family="Helvetica,sans-Serif" font-size="10.00" fill="#000000">time.h</text>
</g>
<!-- Node1&#45;&gt;Node24 -->
<g id="edge47" class="edge">
<title>Node1&#45;&gt;Node24</title>
<path fill="none" stroke="#191970" d="M857.5227,-171.2769C903.142,-165.9551 989.9559,-153.4043 1060.1206,-129 1140.8328,-100.9272 1228.4582,-49.0498 1268.6621,-23.9078"/>
<polygon fill="#191970" stroke="#191970" points="1270.5771,-26.8381 1277.1683,-18.5431 1266.8429,-20.9173 1270.5771,-26.8381"/>
</g>
<!-- Node25 -->
<g id="node26" class="node">
<title>Node25</title>
<g id="a_node26"><a xlink:href="ext__comps_2shim_2include_2type_8h.html" target="_top" xlink:title="type.h">
<polygon fill="#ffffff" stroke="#000000" points="374.5,-110.5 374.5,-128.5 417.7412,-128.5 417.7412,-110.5 374.5,-110.5"/>
<text text-anchor="middle" x="396.1206" y="-116.5" font-family="Helvetica,sans-Serif" font-size="10.00" fill="#000000">type.h</text>
</a>
</g>
</g>
<!-- Node1&#45;&gt;Node25 -->
<g id="edge46" class="edge">
<title>Node1&#45;&gt;Node25</title>
<path fill="none" stroke="#191970" d="M794.7355,-172.408C727.7003,-167.6049 565.756,-154.2147 432.1206,-129 430.8344,-128.7573 429.5263,-128.4936 428.208,-128.2136"/>
<polygon fill="#191970" stroke="#191970" points="428.6277,-124.7168 418.0916,-125.831 427.0229,-131.5303 428.6277,-124.7168"/>
</g>
<!-- Node21 -->
<g id="node22" class="node">
<title>Node21</title>
<g id="a_node22"><a xlink:href="src_2include_2common_8h.html" target="_top" xlink:title="common.h">
<polygon fill="#ffffff" stroke="#000000" points="853.7783,-55.5 853.7783,-73.5 916.4629,-73.5 916.4629,-55.5 853.7783,-55.5"/>
<text text-anchor="middle" x="885.1206" y="-61.5" font-family="Helvetica,sans-Serif" font-size="10.00" fill="#000000">common.h</text>
</a>
</g>
</g>
<!-- Node20&#45;&gt;Node21 -->
<g id="edge21" class="edge">
<title>Node20&#45;&gt;Node21</title>
<path fill="none" stroke="#191970" d="M879.9543,-110.4179C878.4627,-103.2164 878.0248,-92.8962 878.6404,-83.8632"/>
<polygon fill="#191970" stroke="#191970" points="882.1332,-84.1392 879.9138,-73.7795 875.1884,-83.2621 882.1332,-84.1392"/>
</g>
<!-- Node21&#45;&gt;Node2 -->
<g id="edge22" class="edge">
<title>Node21&#45;&gt;Node2</title>
<path fill="none" stroke="#191970" d="M916.7006,-63.3076C987.523,-60.1889 1164.4289,-49.9216 1320.0096,-19.1162"/>
<polygon fill="#191970" stroke="#191970" points="1321.1139,-22.4641 1330.2252,-17.0573 1319.7308,-15.6021 1321.1139,-22.4641"/>
</g>
<!-- Node21&#45;&gt;Node3 -->
<g id="edge23" class="edge">
<title>Node21&#45;&gt;Node3</title>
<path fill="none" stroke="#191970" d="M866.7912,-55.4179C849.0365,-46.6205 821.8892,-33.1691 801.559,-23.0956"/>
<polygon fill="#191970" stroke="#191970" points="802.9916,-19.8994 792.4772,-18.5956 799.8836,-26.1716 802.9916,-19.8994"/>
</g>
<!-- Node21&#45;&gt;Node4 -->
<g id="edge24" class="edge">
<title>Node21&#45;&gt;Node4</title>
<path fill="none" stroke="#191970" d="M877.8549,-55.4179C871.6505,-47.6624 862.5526,-36.29 854.9634,-26.8035"/>
<polygon fill="#191970" stroke="#191970" points="857.5242,-24.4017 848.5442,-18.7795 852.0581,-28.7746 857.5242,-24.4017"/>
</g>
<!-- Node21&#45;&gt;Node5 -->
<g id="edge25" class="edge">
<title>Node21&#45;&gt;Node5</title>
<path fill="none" stroke="#191970" d="M916.7051,-63.6997C994.6598,-61.2855 1202.4526,-52.1778 1383.4152,-19.0233"/>
<polygon fill="#191970" stroke="#191970" points="1384.1851,-22.4402 1393.3754,-17.1688 1382.9037,-15.5585 1384.1851,-22.4402"/>
</g>
<!-- Node21&#45;&gt;Node6 -->
<g id="edge26" class="edge">
<title>Node21&#45;&gt;Node6</title>
<path fill="none" stroke="#191970" d="M916.6677,-56.5858C950.3292,-48.1082 1005.4687,-34.1277 1061.9469,-19.2841"/>
<polygon fill="#191970" stroke="#191970" points="1062.9796,-22.6316 1071.7585,-16.7002 1061.1969,-15.8624 1062.9796,-22.6316"/>
</g>
<!-- Node21&#45;&gt;Node7 -->
<g id="edge27" class="edge">
<title>Node21&#45;&gt;Node7</title>
<path fill="none" stroke="#191970" d="M916.6463,-59.7408C962.1525,-52.6492 1049.0458,-38.2797 1131.8674,-19.1241"/>
<polygon fill="#191970" stroke="#191970" points="1132.7441,-22.5136 1141.6831,-16.8264 1131.1486,-15.6978 1132.7441,-22.5136"/>
</g>
<!-- Node21&#45;&gt;Node8 -->
<g id="edge28" class="edge">
<title>Node21&#45;&gt;Node8</title>
<path fill="none" stroke="#191970" d="M916.6224,-63.7194C1001.3982,-61.248 1241.5027,-51.8054 1450.8881,-18.7535"/>
<polygon fill="#191970" stroke="#191970" points="1451.5136,-22.1981 1460.8349,-17.1617 1450.4074,-15.286 1451.5136,-22.1981"/>
</g>
<!-- Node21&#45;&gt;Node9 -->
<g id="edge29" class="edge">
<title>Node21&#45;&gt;Node9</title>
<path fill="none" stroke="#191970" d="M853.5223,-63.7161C724.2171,-60.3643 234.3446,-46.2251 58.6099,-18.8308"/>
<polygon fill="#191970" stroke="#191970" points="58.9205,-15.3352 48.4871,-17.1779 57.7924,-22.2437 58.9205,-15.3352"/>
</g>
<!-- Node21&#45;&gt;Node10 -->
<g id="edge30" class="edge">
<title>Node21&#45;&gt;Node10</title>
<path fill="none" stroke="#191970" d="M853.4853,-63.5796C730.8355,-59.865 285.9052,-44.9974 124.3193,-18.9873"/>
<polygon fill="#191970" stroke="#191970" points="124.5357,-15.4743 114.0921,-17.258 123.3686,-22.3763 124.5357,-15.4743"/>
</g>
<!-- Node21&#45;&gt;Node11 -->
<g id="edge31" class="edge">
<title>Node21&#45;&gt;Node11</title>
<path fill="none" stroke="#191970" d="M853.7054,-64.195C757.8427,-62.8862 460.587,-56.0286 205.0279,-18.8784"/>
<polygon fill="#191970" stroke="#191970" points="205.2115,-15.3678 194.8082,-17.3732 204.1915,-22.2931 205.2115,-15.3678"/>
</g>
<!-- Node21&#45;&gt;Node12 -->
<g id="edge32" class="edge">
<title>Node21&#45;&gt;Node12</title>
<path fill="none" stroke="#191970" d="M853.7513,-63.7942C765.8335,-61.4616 509.5062,-52.236 287.9003,-19.0674"/>
<polygon fill="#191970" stroke="#191970" points="288.1197,-15.5608 277.7078,-17.5211 287.0696,-22.4816 288.1197,-15.5608"/>
</g>
<!-- Node21&#45;&gt;Node13 -->
<g id="edge33" class="edge">
<title>Node21&#45;&gt;Node13</title>
<path fill="none" stroke="#191970" d="M853.4988,-62.7984C775.4199,-58.3503 567.0998,-44.9828 383.2183,-19.0159"/>
<polygon fill="#191970" stroke="#191970" points="383.489,-15.5191 373.0945,-17.5698 382.4991,-22.4488 383.489,-15.5191"/>
</g>
<!-- Node21&#45;&gt;Node14 -->
<g id="edge34" class="edge">
<title>Node21&#45;&gt;Node14</title>
<path fill="none" stroke="#191970" d="M853.6036,-62.326C784.9654,-57.3264 616.7047,-43.6346 465.5384,-18.881"/>
<polygon fill="#191970" stroke="#191970" points="466.0452,-15.4173 455.6073,-17.2345 464.9002,-22.323 466.0452,-15.4173"/>
</g>
<!-- Node21&#45;&gt;Node15 -->
<g id="edge35" class="edge">
<title>Node21&#45;&gt;Node15</title>
<path fill="none" stroke="#191970" d="M853.4094,-60.9724C795.8649,-54.3949 670.2221,-39.2256 554.6904,-19.1732"/>
<polygon fill="#191970" stroke="#191970" points="555.0704,-15.6865 544.6163,-17.4075 553.8619,-22.5814 555.0704,-15.6865"/>
</g>
<!-- Node21&#45;&gt;Node16 -->
<g id="edge36" class="edge">
<title>Node21&#45;&gt;Node16</title>
<path fill="none" stroke="#191970" d="M853.6149,-58.2443C807.4649,-49.081 720.7905,-31.8713 663.7591,-20.5473"/>
<polygon fill="#191970" stroke="#191970" points="664.3123,-17.0889 653.8221,-18.5743 662.949,-23.9549 664.3123,-17.0889"/>
</g>
<!-- Node21&#45;&gt;Node17 -->
<g id="edge37" class="edge">
<title>Node21&#45;&gt;Node17</title>
<path fill="none" stroke="#191970" d="M854.7367,-55.4179C823.4288,-46.0595 774.5019,-31.4346 740.3018,-21.2118"/>
<polygon fill="#191970" stroke="#191970" points="741.2191,-17.833 730.6355,-18.3224 739.2143,-24.5398 741.2191,-17.833"/>
</g>
<!-- Node21&#45;&gt;Node18 -->
<g id="edge38" class="edge">
<title>Node21&#45;&gt;Node18</title>
<path fill="none" stroke="#191970" d="M909.3947,-55.4179C934.3787,-46.0701 973.4067,-31.4678 1000.7253,-21.2466"/>
<polygon fill="#191970" stroke="#191970" points="1002.0731,-24.4793 1010.2125,-17.6969 999.6201,-17.9232 1002.0731,-24.4793"/>
</g>
<!-- Node21&#45;&gt;Node19 -->
<g id="edge39" class="edge">
<title>Node21&#45;&gt;Node19</title>
<path fill="none" stroke="#191970" d="M916.6082,-61.5538C971.8332,-56.0398 1089.8204,-42.7156 1198.4121,-18.8568"/>
<polygon fill="#191970" stroke="#191970" points="1199.2197,-22.2628 1208.2167,-16.6677 1197.6943,-15.431 1199.2197,-22.2628"/>
</g>
<!-- Node21&#45;&gt;Node20 -->
<g id="edge40" class="edge">
<title>Node21&#45;&gt;Node20</title>
<path fill="none" stroke="#191970" d="M890.3274,-73.7795C891.7998,-81.0373 892.2185,-91.3738 891.5838,-100.383"/>
<polygon fill="#191970" stroke="#191970" points="888.0976,-100.0517 890.2869,-110.4179 895.0398,-100.949 888.0976,-100.0517"/>
</g>
<!-- Node21&#45;&gt;Node22 -->
<g id="edge41" class="edge">
<title>Node21&#45;&gt;Node22</title>
<path fill="none" stroke="#191970" d="M893.66,-55.4179C904.8549,-46.8195 924.2608,-33.7754 940.561,-23.7844"/>
<polygon fill="#191970" stroke="#191970" points="942.4444,-26.7362 949.2254,-18.5956 938.8479,-20.7308 942.4444,-26.7362"/>
</g>
<!-- Node23 -->
<g id="node24" class="node">
<title>Node23</title>
<g id="a_node24"><a xlink:href="src_2include_2type_8h.html" target="_top" xlink:title="type.h">
<polygon fill="#ffffff" stroke="#000000" points="882.5,-.5 882.5,-18.5 925.7412,-18.5 925.7412,-.5 882.5,-.5"/>
<text text-anchor="middle" x="904.1206" y="-6.5" font-family="Helvetica,sans-Serif" font-size="10.00" fill="#000000">type.h</text>
</a>
</g>
</g>
<!-- Node21&#45;&gt;Node23 -->
<g id="edge43" class="edge">
<title>Node21&#45;&gt;Node23</title>
<path fill="none" stroke="#191970" d="M888.2581,-55.4179C890.8005,-48.0581 894.4682,-37.441 897.6366,-28.2695"/>
<polygon fill="#191970" stroke="#191970" points="900.9579,-29.3742 900.915,-18.7795 894.3415,-27.0885 900.9579,-29.3742"/>
</g>
<!-- Node21&#45;&gt;Node24 -->
<g id="edge44" class="edge">
<title>Node21&#45;&gt;Node24</title>
<path fill="none" stroke="#191970" d="M916.6458,-62.6745C980.0894,-58.5769 1127.7282,-46.9023 1259.4361,-19.0512"/>
<polygon fill="#191970" stroke="#191970" points="1260.253,-22.4557 1269.2926,-16.9298 1258.78,-15.6124 1260.253,-22.4557"/>
</g>
<!-- Node22&#45;&gt;Node21 -->
<g id="edge42" class="edge">
<title>Node22&#45;&gt;Node21</title>
<path fill="none" stroke="#191970" d="M959.3238,-18.7795C948.0723,-27.3932 928.793,-40.3433 912.6004,-50.2645"/>
<polygon fill="#191970" stroke="#191970" points="910.7747,-47.2781 903.9927,-55.4179 914.3704,-53.2841 910.7747,-47.2781"/>
</g>
<!-- Node26&#45;&gt;Node1 -->
<g id="edge49" class="edge">
<title>Node26&#45;&gt;Node1</title>
<path fill="none" stroke="#191970" d="M874.8547,-275.3419C865.827,-266.769 852.9402,-253.1849 845.1206,-239 837.2835,-224.7834 832.3543,-206.9794 829.4863,-193.6805"/>
<polygon fill="#191970" stroke="#191970" points="832.8979,-192.8889 827.5435,-183.7466 826.0281,-194.2325 832.8979,-192.8889"/>
</g>
<!-- Node27 -->
<g id="node28" class="node">
<title>Node27</title>
<g id="a_node28"><a xlink:href="ext__comps_2shim_2include_2context_8h.html" target="_top" xlink:title="context.h">
<polygon fill="#ffffff" stroke="#000000" points="933.8301,-220.5 933.8301,-238.5 990.4111,-238.5 990.4111,-220.5 933.8301,-220.5"/>
<text text-anchor="middle" x="962.1206" y="-226.5" font-family="Helvetica,sans-Serif" font-size="10.00" fill="#000000">context.h</text>
</a>
</g>
</g>
<!-- Node26&#45;&gt;Node27 -->
<g id="edge50" class="edge">
<title>Node26&#45;&gt;Node27</title>
<path fill="none" stroke="#191970" d="M897.8356,-275.4179C909.5389,-267.0584 927.1253,-254.4966 940.9471,-244.6239"/>
<polygon fill="#191970" stroke="#191970" points="943.2837,-247.2561 949.3867,-238.5956 939.215,-241.56 943.2837,-247.2561"/>
</g>
<!-- Node28 -->
<g id="node29" class="node">
<title>Node28</title>
<g id="a_node29"><a xlink:href="ext__comps_2shim_2include_2event__id_8h.html" target="_top" xlink:title="event_id.h">
<polygon fill="#ffffff" stroke="#000000" points="854.0469,-220.5 854.0469,-238.5 916.1943,-238.5 916.1943,-220.5 854.0469,-220.5"/>
<text text-anchor="middle" x="885.1206" y="-226.5" font-family="Helvetica,sans-Serif" font-size="10.00" fill="#000000">event_id.h</text>
</a>
</g>
</g>
<!-- Node26&#45;&gt;Node28 -->
<g id="edge52" class="edge">
<title>Node26&#45;&gt;Node28</title>
<path fill="none" stroke="#191970" d="M885.1206,-275.4179C885.1206,-268.2164 885.1206,-257.8962 885.1206,-248.8632"/>
<polygon fill="#191970" stroke="#191970" points="888.6207,-248.7794 885.1206,-238.7795 881.6207,-248.7795 888.6207,-248.7794"/>
</g>
<!-- Node29 -->
<g id="node30" class="node">
<title>Node29</title>
<g id="a_node30"><a xlink:href="ext__comps_2shim_2include_2event__list_8h.html" target="_top" xlink:title="event_list.h">
<polygon fill="#ffffff" stroke="#000000" points="610.8276,-220.5 610.8276,-238.5 677.4136,-238.5 677.4136,-220.5 610.8276,-220.5"/>
<text text-anchor="middle" x="644.1206" y="-226.5" font-family="Helvetica,sans-Serif" font-size="10.00" fill="#000000">event_list.h</text>
</a>
</g>
</g>
<!-- Node26&#45;&gt;Node29 -->
<g id="edge53" class="edge">
<title>Node26&#45;&gt;Node29</title>
<path fill="none" stroke="#191970" d="M860.686,-278.9236C820.0468,-269.6491 738.0404,-250.934 687.4228,-239.3823"/>
<polygon fill="#191970" stroke="#191970" points="687.96,-235.9149 677.4319,-237.1022 686.4025,-242.7395 687.96,-235.9149"/>
</g>
<!-- Node27&#45;&gt;Node1 -->
<g id="edge51" class="edge">
<title>Node27&#45;&gt;Node1</title>
<path fill="none" stroke="#191970" d="M939.663,-220.4179C917.4173,-211.4215 883.1369,-197.5581 858.0612,-187.4172"/>
<polygon fill="#191970" stroke="#191970" points="859.1944,-184.1001 848.6116,-183.5956 856.57,-190.5895 859.1944,-184.1001"/>
</g>
<!-- Node29&#45;&gt;Node25 -->
<g id="edge54" class="edge">
<title>Node29&#45;&gt;Node25</title>
<path fill="none" stroke="#191970" d="M623.8257,-220.4982C580.1369,-201.1201 477.0097,-155.3782 425.8998,-132.7085"/>
<polygon fill="#191970" stroke="#191970" points="427.2562,-129.4813 416.6959,-128.6261 424.418,-135.8802 427.2562,-129.4813"/>
</g>
<!-- Node30&#45;&gt;Node1 -->
<g id="edge56" class="edge">
<title>Node30&#45;&gt;Node1</title>
<path fill="none" stroke="#191970" d="M1008.9572,-220.4179C970.0942,-210.6577 908.4216,-195.1692 867.6121,-184.9203"/>
<polygon fill="#191970" stroke="#191970" points="868.2643,-181.4754 857.713,-182.4342 866.5592,-188.2646 868.2643,-181.4754"/>
</g>
<!-- Node33&#45;&gt;Node21 -->
<g id="edge60" class="edge">
<title>Node33&#45;&gt;Node21</title>
<path fill="none" stroke="#191970" d="M1153.5683,-167.1024C1124.3637,-154.8565 1063.884,-129.7621 1012.1206,-110 981.6006,-98.3482 946.636,-85.8859 921.1308,-76.9554"/>
<polygon fill="#191970" stroke="#191970" points="922.1012,-73.5871 911.5064,-73.5959 919.7942,-80.196 922.1012,-73.5871"/>
</g>
<!-- Node34&#45;&gt;Node21 -->
<g id="edge62" class="edge">
<title>Node34&#45;&gt;Node21</title>
<path fill="none" stroke="#191970" d="M1092.6261,-165.4982C1053.0612,-146.241 960.0042,-100.9478 913.1351,-78.1354"/>
<polygon fill="#191970" stroke="#191970" points="914.394,-74.8556 903.8707,-73.6261 911.3304,-81.1496 914.394,-74.8556"/>
</g>
</g>
</svg>
