<?xml version="1.0" encoding="UTF-8" standalone="no"?>
<!DOCTYPE svg PUBLIC "-//W3C//DTD SVG 1.1//EN"
 "http://www.w3.org/Graphics/SVG/1.1/DTD/svg11.dtd">
<!-- Generated by graphviz version 2.40.1 (20161225.0304)
 -->
<!-- Title: ext_apps/shim/include/context.h Pages: 1 -->
<svg width="256pt" height="167pt"
 viewBox="0.00 0.00 255.95 167.00" xmlns="http://www.w3.org/2000/svg" xmlns:xlink="http://www.w3.org/1999/xlink">
<g id="graph0" class="graph" transform="scale(1 1) rotate(0) translate(4 163)">
<title>ext_apps/shim/include/context.h</title>
<polygon fill="#ffffff" stroke="transparent" points="-4,4 -4,-163 251.9453,-163 251.9453,4 -4,4"/>
<!-- Node38 -->
<g id="node1" class="node">
<title>Node38</title>
<polygon fill="#bfbfbf" stroke="#000000" points="66,-130.5 66,-158.5 180.9453,-158.5 180.9453,-130.5 66,-130.5"/>
<text text-anchor="start" x="74" y="-146.5" font-family="Helvetica,sans-Serif" font-size="10.00" fill="#000000">ext_apps/shim/include</text>
<text text-anchor="middle" x="123.4727" y="-136.5" font-family="Helvetica,sans-Serif" font-size="10.00" fill="#000000">/context.h</text>
</g>
<!-- Node39 -->
<g id="node2" class="node">
<title>Node39</title>
<g id="a_node2"><a xlink:href="ext__apps_2shim_2include_2app__event_8h.html" target="_top" xlink:title="ext_apps/shim/include\l/app_event.h">
<polygon fill="#ffffff" stroke="#000000" points="0,-65.5 0,-93.5 114.9453,-93.5 114.9453,-65.5 0,-65.5"/>
<text text-anchor="start" x="8" y="-81.5" font-family="Helvetica,sans-Serif" font-size="10.00" fill="#000000">ext_apps/shim/include</text>
<text text-anchor="middle" x="57.4727" y="-71.5" font-family="Helvetica,sans-Serif" font-size="10.00" fill="#000000">/app_event.h</text>
</a>
</g>
</g>
<!-- Node38&#45;&gt;Node39 -->
<g id="edge1" class="edge">
<title>Node38&#45;&gt;Node39</title>
<path fill="none" stroke="#191970" d="M101.9581,-123.3115C92.0579,-113.5612 80.5818,-102.259 71.7657,-93.5765"/>
<polygon fill="#191970" stroke="#191970" points="99.5709,-125.8728 109.1516,-130.396 104.4827,-120.8853 99.5709,-125.8728"/>
</g>
<!-- Node41 -->
<g id="node4" class="node">
<title>Node41</title>
<g id="a_node4"><a xlink:href="ext__apps_2shim_2include_2application_8h.html" target="_top" xlink:title="ext_apps/shim/include\l/application.h">
<polygon fill="#ffffff" stroke="#000000" points="133,-65.5 133,-93.5 247.9453,-93.5 247.9453,-65.5 133,-65.5"/>
<text text-anchor="start" x="141" y="-81.5" font-family="Helvetica,sans-Serif" font-size="10.00" fill="#000000">ext_apps/shim/include</text>
<text text-anchor="middle" x="190.4727" y="-71.5" font-family="Helvetica,sans-Serif" font-size="10.00" fill="#000000">/application.h</text>
</a>
</g>
</g>
<!-- Node38&#45;&gt;Node41 -->
<g id="edge3" class="edge">
<title>Node38&#45;&gt;Node41</title>
<path fill="none" stroke="#191970" d="M145.3131,-123.3115C155.3634,-113.5612 167.0133,-102.259 175.963,-93.5765"/>
<polygon fill="#191970" stroke="#191970" points="142.751,-120.9207 138.0107,-130.396 147.6252,-125.9449 142.751,-120.9207"/>
</g>
<!-- Node40 -->
<g id="node3" class="node">
<title>Node40</title>
<g id="a_node3"><a xlink:href="ext__apps_2shim_2include_2shim_8h.html" target="_top" xlink:title="ext_apps/shim/include\l/shim.h">
<polygon fill="#ffffff" stroke="#000000" points="66,-.5 66,-28.5 180.9453,-28.5 180.9453,-.5 66,-.5"/>
<text text-anchor="start" x="74" y="-16.5" font-family="Helvetica,sans-Serif" font-size="10.00" fill="#000000">ext_apps/shim/include</text>
<text text-anchor="middle" x="123.4727" y="-6.5" font-family="Helvetica,sans-Serif" font-size="10.00" fill="#000000">/shim.h</text>
</a>
</g>
</g>
<!-- Node39&#45;&gt;Node40 -->
<g id="edge2" class="edge">
<title>Node39&#45;&gt;Node40</title>
<path fill="none" stroke="#191970" d="M78.9872,-58.3115C88.8874,-48.5612 100.3635,-37.259 109.1796,-28.5765"/>
<polygon fill="#191970" stroke="#191970" points="76.4626,-55.8853 71.7937,-65.396 81.3745,-60.8728 76.4626,-55.8853"/>
</g>
<!-- Node41&#45;&gt;Node40 -->
<g id="edge4" class="edge">
<title>Node41&#45;&gt;Node40</title>
<path fill="none" stroke="#191970" d="M168.6322,-58.3115C158.5819,-48.5612 146.932,-37.259 137.9823,-28.5765"/>
<polygon fill="#191970" stroke="#191970" points="166.3201,-60.9449 175.9347,-65.396 171.1944,-55.9207 166.3201,-60.9449"/>
</g>
</g>
</svg>
