<?xml version="1.0" encoding="UTF-8" standalone="no"?>
<!DOCTYPE svg PUBLIC "-//W3C//DTD SVG 1.1//EN"
 "http://www.w3.org/Graphics/SVG/1.1/DTD/svg11.dtd">
<!-- Generated by graphviz version 2.40.1 (20161225.0304)
 -->
<!-- Title: ext_apps/shim/include/context.h Pages: 1 -->
<svg width="1526pt" height="257pt"
 viewBox="0.00 0.00 1526.35 257.00" xmlns="http://www.w3.org/2000/svg" xmlns:xlink="http://www.w3.org/1999/xlink">
<g id="graph0" class="graph" transform="scale(1 1) rotate(0) translate(4 253)">
<title>ext_apps/shim/include/context.h</title>
<polygon fill="#ffffff" stroke="transparent" points="-4,4 -4,-253 1522.3472,-253 1522.3472,4 -4,4"/>
<!-- Node0 -->
<g id="node1" class="node">
<title>Node0</title>
<polygon fill="#bfbfbf" stroke="#000000" points="678.2588,-220.5 678.2588,-248.5 793.2041,-248.5 793.2041,-220.5 678.2588,-220.5"/>
<text text-anchor="start" x="686.2588" y="-236.5" font-family="Helvetica,sans-Serif" font-size="10.00" fill="#000000">ext_apps/shim/include</text>
<text text-anchor="middle" x="735.7314" y="-226.5" font-family="Helvetica,sans-Serif" font-size="10.00" fill="#000000">/context.h</text>
</g>
<!-- Node1 -->
<g id="node2" class="node">
<title>Node1</title>
<g id="a_node2"><a xlink:href="ext__apps_2shim_2include_2common_8h.html" target="_top" xlink:title="common.h">
<polygon fill="#ffffff" stroke="#000000" points="704.3892,-165.5 704.3892,-183.5 767.0737,-183.5 767.0737,-165.5 704.3892,-165.5"/>
<text text-anchor="middle" x="735.7314" y="-171.5" font-family="Helvetica,sans-Serif" font-size="10.00" fill="#000000">common.h</text>
</a>
</g>
</g>
<!-- Node0&#45;&gt;Node1 -->
<g id="edge1" class="edge">
<title>Node0&#45;&gt;Node1</title>
<path fill="none" stroke="#191970" d="M735.7314,-220.2808C735.7314,-212.3776 735.7314,-202.4316 735.7314,-193.8308"/>
<polygon fill="#191970" stroke="#191970" points="739.2315,-193.5842 735.7314,-183.5842 732.2315,-193.5842 739.2315,-193.5842"/>
</g>
<!-- Node2 -->
<g id="node3" class="node">
<title>Node2</title>
<polygon fill="#ffffff" stroke="#bfbfbf" points="0,-.5 0,-18.5 45.4629,-18.5 45.4629,-.5 0,-.5"/>
<text text-anchor="middle" x="22.7314" y="-6.5" font-family="Helvetica,sans-Serif" font-size="10.00" fill="#000000">stdio.h</text>
</g>
<!-- Node1&#45;&gt;Node2 -->
<g id="edge2" class="edge">
<title>Node1&#45;&gt;Node2</title>
<path fill="none" stroke="#191970" d="M704.2389,-172.219C619.8994,-165.9289 390.3399,-147.5694 316.7314,-129 213.8449,-103.0445 99.3714,-48.5105 48.9733,-23.0864"/>
<polygon fill="#191970" stroke="#191970" points="50.548,-19.9607 40.0476,-18.549 47.3758,-26.2007 50.548,-19.9607"/>
</g>
<!-- Node3 -->
<g id="node4" class="node">
<title>Node3</title>
<polygon fill="#ffffff" stroke="#bfbfbf" points="63.2192,-.5 63.2192,-18.5 114.2437,-18.5 114.2437,-.5 63.2192,-.5"/>
<text text-anchor="middle" x="88.7314" y="-6.5" font-family="Helvetica,sans-Serif" font-size="10.00" fill="#000000">unistd.h</text>
</g>
<!-- Node1&#45;&gt;Node3 -->
<g id="edge3" class="edge">
<title>Node1&#45;&gt;Node3</title>
<path fill="none" stroke="#191970" d="M704.2851,-173.3767C640.9181,-170.496 493.7691,-160.6773 374.7314,-129 313.3134,-112.6559 301.3756,-98.4985 242.7314,-74 200.1341,-56.205 150.9346,-35.5875 119.8344,-22.5466"/>
<polygon fill="#191970" stroke="#191970" points="120.9797,-19.2317 110.4042,-18.592 118.2726,-25.687 120.9797,-19.2317"/>
</g>
<!-- Node4 -->
<g id="node5" class="node">
<title>Node4</title>
<polygon fill="#ffffff" stroke="#bfbfbf" points="131.8892,-.5 131.8892,-18.5 179.5737,-18.5 179.5737,-.5 131.8892,-.5"/>
<text text-anchor="middle" x="155.7314" y="-6.5" font-family="Helvetica,sans-Serif" font-size="10.00" fill="#000000">stdlib.h</text>
</g>
<!-- Node1&#45;&gt;Node4 -->
<g id="edge4" class="edge">
<title>Node1&#45;&gt;Node4</title>
<path fill="none" stroke="#191970" d="M703.9719,-172.3676C648.4554,-168.0539 530.5476,-156.2778 434.7314,-129 338.0082,-101.464 230.4363,-48.5679 181.9493,-23.4286"/>
<polygon fill="#191970" stroke="#191970" points="183.2763,-20.1731 172.7922,-18.6454 180.0353,-26.3776 183.2763,-20.1731"/>
</g>
<!-- Node5 -->
<g id="node6" class="node">
<title>Node5</title>
<polygon fill="#ffffff" stroke="#bfbfbf" points="197.335,-.5 197.335,-18.5 246.1279,-18.5 246.1279,-.5 197.335,-.5"/>
<text text-anchor="middle" x="221.7314" y="-6.5" font-family="Helvetica,sans-Serif" font-size="10.00" fill="#000000">string.h</text>
</g>
<!-- Node1&#45;&gt;Node5 -->
<g id="edge5" class="edge">
<title>Node1&#45;&gt;Node5</title>
<path fill="none" stroke="#191970" d="M704.2225,-171.3193C656.0713,-165.897 561.6635,-153.043 484.7314,-129 437.4442,-114.2216 306.4997,-51.0783 249.1893,-23.0244"/>
<polygon fill="#191970" stroke="#191970" points="250.5322,-19.7848 240.0126,-18.524 247.4499,-26.0697 250.5322,-19.7848"/>
</g>
<!-- Node6 -->
<g id="node7" class="node">
<title>Node6</title>
<polygon fill="#ffffff" stroke="#bfbfbf" points="263.665,-.5 263.665,-18.5 315.7979,-18.5 315.7979,-.5 263.665,-.5"/>
<text text-anchor="middle" x="289.7314" y="-6.5" font-family="Helvetica,sans-Serif" font-size="10.00" fill="#000000">stdarg.h</text>
</g>
<!-- Node1&#45;&gt;Node6 -->
<g id="edge6" class="edge">
<title>Node1&#45;&gt;Node6</title>
<path fill="none" stroke="#191970" d="M704.0842,-170.2218C662.3652,-164.0039 587.0783,-150.7727 525.7314,-129 514.867,-125.1441 375.8209,-53.8012 316.3841,-23.225"/>
<polygon fill="#191970" stroke="#191970" points="317.7268,-19.9798 307.2335,-18.5162 314.5238,-26.204 317.7268,-19.9798"/>
</g>
<!-- Node7 -->
<g id="node8" class="node">
<title>Node7</title>
<polygon fill="#ffffff" stroke="#bfbfbf" points="333.6108,-.5 333.6108,-18.5 381.8521,-18.5 381.8521,-.5 333.6108,-.5"/>
<text text-anchor="middle" x="357.7314" y="-6.5" font-family="Helvetica,sans-Serif" font-size="10.00" fill="#000000">stdint.h</text>
</g>
<!-- Node1&#45;&gt;Node7 -->
<g id="edge7" class="edge">
<title>Node1&#45;&gt;Node7</title>
<path fill="none" stroke="#191970" d="M704.1043,-168.5214C669.5437,-161.4111 612.9387,-148.0585 566.7314,-129 529.0461,-113.4564 427.4486,-52.2205 381.2152,-23.9479"/>
<polygon fill="#191970" stroke="#191970" points="382.8423,-20.8401 372.487,-18.5996 379.1849,-26.8087 382.8423,-20.8401"/>
</g>
<!-- Node8 -->
<g id="node9" class="node">
<title>Node8</title>
<polygon fill="#ffffff" stroke="#bfbfbf" points="399.6035,-.5 399.6035,-18.5 457.8594,-18.5 457.8594,-.5 399.6035,-.5"/>
<text text-anchor="middle" x="428.7314" y="-6.5" font-family="Helvetica,sans-Serif" font-size="10.00" fill="#000000">pthread.h</text>
</g>
<!-- Node1&#45;&gt;Node8 -->
<g id="edge8" class="edge">
<title>Node1&#45;&gt;Node8</title>
<path fill="none" stroke="#191970" d="M704.1254,-166.3209C676.5485,-158.5747 635.8752,-145.6575 602.7314,-129 542.2733,-98.6148 478.5107,-49.8959 447.6609,-25.0963"/>
<polygon fill="#191970" stroke="#191970" points="449.8338,-22.3521 439.8625,-18.7709 445.4241,-27.7886 449.8338,-22.3521"/>
</g>
<!-- Node9 -->
<g id="node10" class="node">
<title>Node9</title>
<polygon fill="#ffffff" stroke="#bfbfbf" points="475.6108,-.5 475.6108,-18.5 523.8521,-18.5 523.8521,-.5 475.6108,-.5"/>
<text text-anchor="middle" x="499.7314" y="-6.5" font-family="Helvetica,sans-Serif" font-size="10.00" fill="#000000">ctype.h</text>
</g>
<!-- Node1&#45;&gt;Node9 -->
<g id="edge9" class="edge">
<title>Node1&#45;&gt;Node9</title>
<path fill="none" stroke="#191970" d="M708.8969,-165.496C687.1563,-157.5722 656.2235,-144.8397 631.7314,-129 584.6232,-98.5336 537.9677,-51.2065 514.7983,-26.2361"/>
<polygon fill="#191970" stroke="#191970" points="517.2114,-23.689 507.8745,-18.6817 512.0509,-28.4186 517.2114,-23.689"/>
</g>
<!-- Node10 -->
<g id="node11" class="node">
<title>Node10</title>
<polygon fill="#ffffff" stroke="#bfbfbf" points="541.8892,-.5 541.8892,-18.5 589.5737,-18.5 589.5737,-.5 541.8892,-.5"/>
<text text-anchor="middle" x="565.7314" y="-6.5" font-family="Helvetica,sans-Serif" font-size="10.00" fill="#000000">errno.h</text>
</g>
<!-- Node1&#45;&gt;Node10 -->
<g id="edge10" class="edge">
<title>Node1&#45;&gt;Node10</title>
<path fill="none" stroke="#191970" d="M713.5677,-165.3739C696.0734,-157.4612 671.7035,-144.8046 653.7314,-129 619.2289,-98.6584 590.0935,-52.6018 575.5899,-27.4472"/>
<polygon fill="#191970" stroke="#191970" points="578.5718,-25.6096 570.6093,-18.6204 572.4754,-29.0496 578.5718,-25.6096"/>
</g>
<!-- Node11 -->
<g id="node12" class="node">
<title>Node11</title>
<polygon fill="#ffffff" stroke="#bfbfbf" points="607.1035,-.5 607.1035,-18.5 670.3594,-18.5 670.3594,-.5 607.1035,-.5"/>
<text text-anchor="middle" x="638.7314" y="-6.5" font-family="Helvetica,sans-Serif" font-size="10.00" fill="#000000">arpa/inet.h</text>
</g>
<!-- Node1&#45;&gt;Node11 -->
<g id="edge11" class="edge">
<title>Node1&#45;&gt;Node11</title>
<path fill="none" stroke="#191970" d="M714.4783,-165.4653C699.216,-157.8995 679.361,-145.6539 667.7314,-129 646.4266,-98.4906 640.6895,-54.128 639.1975,-28.9209"/>
<polygon fill="#191970" stroke="#191970" points="642.6892,-28.649 638.77,-18.8057 635.6955,-28.9446 642.6892,-28.649"/>
</g>
<!-- Node12 -->
<g id="node13" class="node">
<title>Node12</title>
<polygon fill="#ffffff" stroke="#bfbfbf" points="816.2686,-.5 816.2686,-18.5 881.1943,-18.5 881.1943,-.5 816.2686,-.5"/>
<text text-anchor="middle" x="848.7314" y="-6.5" font-family="Helvetica,sans-Serif" font-size="10.00" fill="#000000">netinet/in.h</text>
</g>
<!-- Node1&#45;&gt;Node12 -->
<g id="edge12" class="edge">
<title>Node1&#45;&gt;Node12</title>
<path fill="none" stroke="#191970" d="M742.1306,-165.1561C760.3106,-138.6101 812.4961,-62.41 836.4474,-27.4369"/>
<polygon fill="#191970" stroke="#191970" points="839.6397,-28.9697 842.4025,-18.7414 833.8643,-25.0144 839.6397,-28.9697"/>
</g>
<!-- Node13 -->
<g id="node14" class="node">
<title>Node13</title>
<polygon fill="#ffffff" stroke="#bfbfbf" points="898.8745,-.5 898.8745,-18.5 976.5884,-18.5 976.5884,-.5 898.8745,-.5"/>
<text text-anchor="middle" x="937.7314" y="-6.5" font-family="Helvetica,sans-Serif" font-size="10.00" fill="#000000">net/ethernet.h</text>
</g>
<!-- Node1&#45;&gt;Node13 -->
<g id="edge13" class="edge">
<title>Node1&#45;&gt;Node13</title>
<path fill="none" stroke="#191970" d="M744.6836,-165.1978C765.0878,-144.2443 817.0504,-92.2739 865.7314,-55 880.6593,-43.5701 898.5199,-32.2699 912.7176,-23.7902"/>
<polygon fill="#191970" stroke="#191970" points="914.6067,-26.7396 921.4509,-18.652 911.0571,-20.7063 914.6067,-26.7396"/>
</g>
<!-- Node14 -->
<g id="node15" class="node">
<title>Node14</title>
<polygon fill="#ffffff" stroke="#bfbfbf" points="994.2686,-.5 994.2686,-18.5 1059.1943,-18.5 1059.1943,-.5 994.2686,-.5"/>
<text text-anchor="middle" x="1026.7314" y="-6.5" font-family="Helvetica,sans-Serif" font-size="10.00" fill="#000000">netinet/ip.h</text>
</g>
<!-- Node1&#45;&gt;Node14 -->
<g id="edge14" class="edge">
<title>Node1&#45;&gt;Node14</title>
<path fill="none" stroke="#191970" d="M750.4087,-165.3823C764.7113,-156.3989 786.9811,-142.1488 805.7314,-129 850.4172,-97.6639 855.8486,-81.1917 903.7314,-55 929.4516,-40.9312 960.4151,-29.5043 984.8408,-21.6207"/>
<polygon fill="#191970" stroke="#191970" points="986.0479,-24.9101 994.5337,-18.5664 983.944,-18.2337 986.0479,-24.9101"/>
</g>
<!-- Node15 -->
<g id="node16" class="node">
<title>Node15</title>
<polygon fill="#ffffff" stroke="#bfbfbf" points="1077.4902,-.5 1077.4902,-18.5 1147.9727,-18.5 1147.9727,-.5 1077.4902,-.5"/>
<text text-anchor="middle" x="1112.7314" y="-6.5" font-family="Helvetica,sans-Serif" font-size="10.00" fill="#000000">netinet/tcp.h</text>
</g>
<!-- Node1&#45;&gt;Node15 -->
<g id="edge15" class="edge">
<title>Node1&#45;&gt;Node15</title>
<path fill="none" stroke="#191970" d="M757.8012,-165.3356C777.7916,-156.7583 807.8371,-143.1714 832.7314,-129 883.6178,-100.0323 888.4652,-79.3156 941.7314,-55 963.9815,-44.843 1024.7112,-29.7178 1067.4427,-19.7345"/>
<polygon fill="#191970" stroke="#191970" points="1068.3933,-23.107 1077.3438,-17.4379 1066.8116,-16.2881 1068.3933,-23.107"/>
</g>
<!-- Node16 -->
<g id="node17" class="node">
<title>Node16</title>
<polygon fill="#ffffff" stroke="#bfbfbf" points="1165.9312,-.5 1165.9312,-18.5 1257.5317,-18.5 1257.5317,-.5 1165.9312,-.5"/>
<text text-anchor="middle" x="1211.7314" y="-6.5" font-family="Helvetica,sans-Serif" font-size="10.00" fill="#000000">netinet/ip_icmp.h</text>
</g>
<!-- Node1&#45;&gt;Node16 -->
<g id="edge16" class="edge">
<title>Node1&#45;&gt;Node16</title>
<path fill="none" stroke="#191970" d="M766.2586,-165.4973C792.2481,-157.3606 830.2643,-144.3298 861.7314,-129 917.3827,-101.8884 922.1724,-77.7827 979.7314,-55 995.92,-48.5923 1092.5633,-30.6911 1155.9016,-19.3466"/>
<polygon fill="#191970" stroke="#191970" points="1156.5349,-22.7889 1165.7636,-17.5849 1155.3039,-15.898 1156.5349,-22.7889"/>
</g>
<!-- Node17 -->
<g id="node18" class="node">
<title>Node17</title>
<polygon fill="#ffffff" stroke="#bfbfbf" points="1275.3276,-.5 1275.3276,-18.5 1334.1353,-18.5 1334.1353,-.5 1275.3276,-.5"/>
<text text-anchor="middle" x="1304.7314" y="-6.5" font-family="Helvetica,sans-Serif" font-size="10.00" fill="#000000">jansson.h</text>
</g>
<!-- Node1&#45;&gt;Node17 -->
<g id="edge17" class="edge">
<title>Node1&#45;&gt;Node17</title>
<path fill="none" stroke="#191970" d="M767.3061,-167.7188C799.3946,-160.2707 850.1577,-146.9415 891.7314,-129 951.3594,-103.2671 956.4474,-76.4929 1017.7314,-55 1120.1565,-19.0786 1154.9775,-39.3149 1264.7747,-19.1902"/>
<polygon fill="#191970" stroke="#191970" points="1265.7573,-22.566 1274.9249,-17.2551 1264.4463,-15.6898 1265.7573,-22.566"/>
</g>
<!-- Node18 -->
<g id="node19" class="node">
<title>Node18</title>
<polygon fill="#ffffff" stroke="#bfbfbf" points="1351.8374,-.5 1351.8374,-18.5 1395.6255,-18.5 1395.6255,-.5 1351.8374,-.5"/>
<text text-anchor="middle" x="1373.7314" y="-6.5" font-family="Helvetica,sans-Serif" font-size="10.00" fill="#000000">libcli.h</text>
</g>
<!-- Node1&#45;&gt;Node18 -->
<g id="edge18" class="edge">
<title>Node1&#45;&gt;Node18</title>
<path fill="none" stroke="#191970" d="M767.1359,-169.6103C805.1256,-163.0848 870.594,-149.8674 923.7314,-129 986.3339,-104.4157 991.8441,-76.0204 1055.7314,-55 1174.7459,-15.8414 1214.9862,-44.3997 1341.4398,-18.9187"/>
<polygon fill="#191970" stroke="#191970" points="1342.4294,-22.2876 1351.5014,-16.8151 1340.9967,-15.4358 1342.4294,-22.2876"/>
</g>
<!-- Node19 -->
<g id="node20" class="node">
<title>Node19</title>
<polygon fill="#ffffff" stroke="#bfbfbf" points="1414.1157,-.5 1414.1157,-18.5 1457.3472,-18.5 1457.3472,-.5 1414.1157,-.5"/>
<text text-anchor="middle" x="1435.7314" y="-6.5" font-family="Helvetica,sans-Serif" font-size="10.00" fill="#000000">zmq.h</text>
</g>
<!-- Node1&#45;&gt;Node19 -->
<g id="edge19" class="edge">
<title>Node1&#45;&gt;Node19</title>
<path fill="none" stroke="#191970" d="M767.2663,-170.9518C810.8727,-165.3903 891.579,-152.7195 956.7314,-129 1021.7596,-105.3258 1027.7269,-75.7975 1093.7314,-55 1223.334,-14.1633 1266.514,-45.9361 1403.7954,-18.8043"/>
<polygon fill="#191970" stroke="#191970" points="1404.7499,-22.1816 1413.8448,-16.7472 1403.346,-15.3238 1404.7499,-22.1816"/>
</g>
<!-- Node20 -->
<g id="node21" class="node">
<title>Node20</title>
<g id="a_node21"><a xlink:href="mac2int_8h.html" target="_top" xlink:title="mac2int.h">
<polygon fill="#ffffff" stroke="#000000" points="677.0542,-110.5 677.0542,-128.5 736.4087,-128.5 736.4087,-110.5 677.0542,-110.5"/>
<text text-anchor="middle" x="706.7314" y="-116.5" font-family="Helvetica,sans-Serif" font-size="10.00" fill="#000000">mac2int.h</text>
</a>
</g>
</g>
<!-- Node1&#45;&gt;Node20 -->
<g id="edge20" class="edge">
<title>Node1&#45;&gt;Node20</title>
<path fill="none" stroke="#191970" d="M730.9427,-165.4179C726.9786,-157.8998 721.2224,-146.9829 716.3172,-137.6799"/>
<polygon fill="#191970" stroke="#191970" points="719.3844,-135.9927 711.6242,-128.7795 713.1924,-139.2576 719.3844,-135.9927"/>
</g>
<!-- Node22 -->
<g id="node23" class="node">
<title>Node22</title>
<g id="a_node23"><a xlink:href="ip2int_8h.html" target="_top" xlink:title="ip2int.h">
<polygon fill="#ffffff" stroke="#000000" points="749.6084,-.5 749.6084,-18.5 797.8545,-18.5 797.8545,-.5 749.6084,-.5"/>
<text text-anchor="middle" x="773.7314" y="-6.5" font-family="Helvetica,sans-Serif" font-size="10.00" fill="#000000">ip2int.h</text>
</a>
</g>
</g>
<!-- Node1&#45;&gt;Node22 -->
<g id="edge45" class="edge">
<title>Node1&#45;&gt;Node22</title>
<path fill="none" stroke="#191970" d="M737.8834,-165.1561C743.9186,-138.9504 761.098,-64.3557 769.2861,-28.8021"/>
<polygon fill="#191970" stroke="#191970" points="772.7695,-29.2718 771.6031,-18.7414 765.948,-27.7008 772.7695,-29.2718"/>
</g>
<!-- Node24 -->
<g id="node25" class="node">
<title>Node24</title>
<polygon fill="#ffffff" stroke="#bfbfbf" points="1475.1157,-.5 1475.1157,-18.5 1518.3472,-18.5 1518.3472,-.5 1475.1157,-.5"/>
<text text-anchor="middle" x="1496.7314" y="-6.5" font-family="Helvetica,sans-Serif" font-size="10.00" fill="#000000">time.h</text>
</g>
<!-- Node1&#45;&gt;Node24 -->
<g id="edge47" class="edge">
<title>Node1&#45;&gt;Node24</title>
<path fill="none" stroke="#191970" d="M767.2347,-169.4053C815.4899,-161.4829 910.5475,-145.4077 990.7314,-129 1200.2347,-86.1302 1255.6217,-76.5514 1465.0686,-19.3275"/>
<polygon fill="#191970" stroke="#191970" points="1466.1144,-22.67 1474.8361,-16.6549 1464.2669,-15.9182 1466.1144,-22.67"/>
</g>
<!-- Node25 -->
<g id="node26" class="node">
<title>Node25</title>
<g id="a_node26"><a xlink:href="ext__apps_2shim_2include_2type_8h.html" target="_top" xlink:title="type.h">
<polygon fill="#ffffff" stroke="#000000" points="1136.1108,-110.5 1136.1108,-128.5 1179.3521,-128.5 1179.3521,-110.5 1136.1108,-110.5"/>
<text text-anchor="middle" x="1157.7314" y="-116.5" font-family="Helvetica,sans-Serif" font-size="10.00" fill="#000000">type.h</text>
</a>
</g>
</g>
<!-- Node1&#45;&gt;Node25 -->
<g id="edge46" class="edge">
<title>Node1&#45;&gt;Node25</title>
<path fill="none" stroke="#191970" d="M767.2304,-172.2968C833.3548,-167.3414 991.2999,-153.7697 1121.7314,-129 1123.0174,-128.7558 1124.3252,-128.4908 1125.6433,-128.2098"/>
<polygon fill="#191970" stroke="#191970" points="1126.8301,-131.5259 1135.7588,-125.8226 1125.2223,-124.713 1126.8301,-131.5259"/>
</g>
<!-- Node21 -->
<g id="node22" class="node">
<title>Node21</title>
<g id="a_node22"><a xlink:href="src_2include_2common_8h.html" target="_top" xlink:title="common.h">
<polygon fill="#ffffff" stroke="#000000" points="675.3892,-55.5 675.3892,-73.5 738.0737,-73.5 738.0737,-55.5 675.3892,-55.5"/>
<text text-anchor="middle" x="706.7314" y="-61.5" font-family="Helvetica,sans-Serif" font-size="10.00" fill="#000000">common.h</text>
</a>
</g>
</g>
<!-- Node20&#45;&gt;Node21 -->
<g id="edge21" class="edge">
<title>Node20&#45;&gt;Node21</title>
<path fill="none" stroke="#191970" d="M701.5651,-110.4179C700.0736,-103.2164 699.6356,-92.8962 700.2512,-83.8632"/>
<polygon fill="#191970" stroke="#191970" points="703.7441,-84.1392 701.5247,-73.7795 696.7992,-83.2621 703.7441,-84.1392"/>
</g>
<!-- Node21&#45;&gt;Node2 -->
<g id="edge22" class="edge">
<title>Node21&#45;&gt;Node2</title>
<path fill="none" stroke="#191970" d="M675.1112,-63.2521C564.4094,-58.7382 193.9483,-42.3734 55.5555,-18.921"/>
<polygon fill="#191970" stroke="#191970" points="56.0686,-15.4573 45.6094,-17.1471 54.8394,-22.3486 56.0686,-15.4573"/>
</g>
<!-- Node21&#45;&gt;Node3 -->
<g id="edge23" class="edge">
<title>Node21&#45;&gt;Node3</title>
<path fill="none" stroke="#191970" d="M675.1235,-64.1925C588.3206,-62.8931 338.9779,-56.1056 124.4656,-19.0195"/>
<polygon fill="#191970" stroke="#191970" points="125.0548,-15.5695 114.6002,-17.288 123.8446,-22.4641 125.0548,-15.5695"/>
</g>
<!-- Node21&#45;&gt;Node4 -->
<g id="edge24" class="edge">
<title>Node21&#45;&gt;Node4</title>
<path fill="none" stroke="#191970" d="M675.2081,-63.8406C595.3648,-61.7244 378.6957,-53.201 189.8622,-18.8632"/>
<polygon fill="#191970" stroke="#191970" points="190.2233,-15.3708 179.7537,-16.9951 188.9511,-22.2542 190.2233,-15.3708"/>
</g>
<!-- Node21&#45;&gt;Node5 -->
<g id="edge25" class="edge">
<title>Node21&#45;&gt;Node5</title>
<path fill="none" stroke="#191970" d="M675.2146,-63.279C602.7255,-60.0566 418.5442,-49.5073 256.6217,-19.0802"/>
<polygon fill="#191970" stroke="#191970" points="256.9608,-15.5817 246.4816,-17.1428 255.647,-22.4574 256.9608,-15.5817"/>
</g>
<!-- Node21&#45;&gt;Node6 -->
<g id="edge26" class="edge">
<title>Node21&#45;&gt;Node6</title>
<path fill="none" stroke="#191970" d="M675.2955,-62.3231C611.2855,-57.5559 461.1329,-44.6674 326.1143,-19.0247"/>
<polygon fill="#191970" stroke="#191970" points="326.4896,-15.5326 316.0078,-17.0755 325.164,-22.406 326.4896,-15.5326"/>
</g>
<!-- Node21&#45;&gt;Node7 -->
<g id="edge27" class="edge">
<title>Node21&#45;&gt;Node7</title>
<path fill="none" stroke="#191970" d="M675.0811,-61.398C619.5625,-55.6443 500.9121,-41.9567 391.9796,-19.0335"/>
<polygon fill="#191970" stroke="#191970" points="392.6556,-15.599 382.145,-16.9327 391.1932,-22.4446 392.6556,-15.599"/>
</g>
<!-- Node21&#45;&gt;Node8 -->
<g id="edge28" class="edge">
<title>Node21&#45;&gt;Node8</title>
<path fill="none" stroke="#191970" d="M675.164,-59.1132C631.0494,-51.4556 548.2381,-36.6108 468.3778,-19.2707"/>
<polygon fill="#191970" stroke="#191970" points="468.6675,-15.7514 458.1505,-17.0325 467.171,-22.5895 468.6675,-15.7514"/>
</g>
<!-- Node21&#45;&gt;Node9 -->
<g id="edge29" class="edge">
<title>Node21&#45;&gt;Node9</title>
<path fill="none" stroke="#191970" d="M675.2359,-56.5117C642.3109,-48.1065 588.8993,-34.3193 533.8014,-19.2484"/>
<polygon fill="#191970" stroke="#191970" points="534.4325,-15.7923 523.8628,-16.5208 532.5798,-22.5427 534.4325,-15.7923"/>
</g>
<!-- Node21&#45;&gt;Node10 -->
<g id="edge30" class="edge">
<title>Node21&#45;&gt;Node10</title>
<path fill="none" stroke="#191970" d="M683.4482,-55.4179C660.2826,-46.3817 624.5292,-32.4353 598.5018,-22.2828"/>
<polygon fill="#191970" stroke="#191970" points="599.6376,-18.969 589.0493,-18.5956 597.0937,-25.4904 599.6376,-18.969"/>
</g>
<!-- Node21&#45;&gt;Node11 -->
<g id="edge31" class="edge">
<title>Node21&#45;&gt;Node11</title>
<path fill="none" stroke="#191970" d="M695.5026,-55.4179C685.327,-47.1876 670.1152,-34.8839 657.9984,-25.0836"/>
<polygon fill="#191970" stroke="#191970" points="660.1804,-22.3469 650.2042,-18.7795 655.7783,-27.7895 660.1804,-22.3469"/>
</g>
<!-- Node21&#45;&gt;Node12 -->
<g id="edge32" class="edge">
<title>Node21&#45;&gt;Node12</title>
<path fill="none" stroke="#191970" d="M730.1799,-55.4179C753.5097,-46.3817 789.5167,-32.4353 815.7287,-22.2828"/>
<polygon fill="#191970" stroke="#191970" points="817.1874,-25.4712 825.2482,-18.5956 814.6591,-18.9437 817.1874,-25.4712"/>
</g>
<!-- Node21&#45;&gt;Node13 -->
<g id="edge33" class="edge">
<title>Node21&#45;&gt;Node13</title>
<path fill="none" stroke="#191970" d="M738.3667,-56.9678C777.4247,-47.6683 844.2433,-31.7591 889.6586,-20.9459"/>
<polygon fill="#191970" stroke="#191970" points="890.657,-24.3061 899.5744,-18.585 889.0356,-17.4965 890.657,-24.3061"/>
</g>
<!-- Node21&#45;&gt;Node14 -->
<g id="edge34" class="edge">
<title>Node21&#45;&gt;Node14</title>
<path fill="none" stroke="#191970" d="M738.2335,-60.0553C788.274,-52.8452 889.205,-37.6935 984.0549,-19.2374"/>
<polygon fill="#191970" stroke="#191970" points="984.961,-22.6264 994.0996,-17.2657 983.6126,-15.7575 984.961,-22.6264"/>
</g>
<!-- Node21&#45;&gt;Node15 -->
<g id="edge35" class="edge">
<title>Node21&#45;&gt;Node15</title>
<path fill="none" stroke="#191970" d="M738.2464,-61.414C799.5356,-55.2221 939.2381,-40.1787 1067.4177,-18.9189"/>
<polygon fill="#191970" stroke="#191970" points="1068.1265,-22.349 1077.4107,-17.2447 1066.9699,-15.4452 1068.1265,-22.349"/>
</g>
<!-- Node21&#45;&gt;Node16 -->
<g id="edge36" class="edge">
<title>Node21&#45;&gt;Node16</title>
<path fill="none" stroke="#191970" d="M738.1911,-62.0847C810.1518,-56.3964 992.4772,-41.0572 1155.6312,-19.0629"/>
<polygon fill="#191970" stroke="#191970" points="1156.4157,-22.4885 1165.8528,-17.6727 1155.4723,-15.5524 1156.4157,-22.4885"/>
</g>
<!-- Node21&#45;&gt;Node17 -->
<g id="edge37" class="edge">
<title>Node21&#45;&gt;Node17</title>
<path fill="none" stroke="#191970" d="M738.2186,-63.748C822.3547,-61.3564 1059.448,-52.1154 1264.8898,-19.0763"/>
<polygon fill="#191970" stroke="#191970" points="1265.6512,-22.4984 1274.9571,-17.4338 1264.524,-15.5897 1265.6512,-22.4984"/>
</g>
<!-- Node21&#45;&gt;Node18 -->
<g id="edge38" class="edge">
<title>Node21&#45;&gt;Node18</title>
<path fill="none" stroke="#191970" d="M738.2952,-63.1871C846.9463,-58.5239 1205.7921,-41.8962 1341.3953,-18.7807"/>
<polygon fill="#191970" stroke="#191970" points="1342.3066,-22.1731 1351.5306,-16.9609 1341.0695,-15.2833 1342.3066,-22.1731"/>
</g>
<!-- Node21&#45;&gt;Node19 -->
<g id="edge39" class="edge">
<title>Node21&#45;&gt;Node19</title>
<path fill="none" stroke="#191970" d="M738.4676,-63.4109C854.282,-59.288 1254.7002,-43.6949 1403.5939,-18.7026"/>
<polygon fill="#191970" stroke="#191970" points="1404.6335,-22.0732 1413.8722,-16.8869 1403.4158,-15.1799 1404.6335,-22.0732"/>
</g>
<!-- Node21&#45;&gt;Node20 -->
<g id="edge40" class="edge">
<title>Node21&#45;&gt;Node20</title>
<path fill="none" stroke="#191970" d="M711.9382,-73.7795C713.4106,-81.0373 713.8294,-91.3738 713.1946,-100.383"/>
<polygon fill="#191970" stroke="#191970" points="709.7084,-100.0517 711.8978,-110.4179 716.6507,-100.949 709.7084,-100.0517"/>
</g>
<!-- Node21&#45;&gt;Node22 -->
<g id="edge41" class="edge">
<title>Node21&#45;&gt;Node22</title>
<path fill="none" stroke="#191970" d="M712.6288,-55.4179C721.0808,-47.0584 736.0716,-34.4966 749.2063,-24.6239"/>
<polygon fill="#191970" stroke="#191970" points="751.4599,-27.3124 757.4822,-18.5956 747.3385,-21.6543 751.4599,-27.3124"/>
</g>
<!-- Node23 -->
<g id="node24" class="node">
<title>Node23</title>
<g id="a_node24"><a xlink:href="src_2include_2type_8h.html" target="_top" xlink:title="type.h">
<polygon fill="#ffffff" stroke="#000000" points="688.1108,-.5 688.1108,-18.5 731.3521,-18.5 731.3521,-.5 688.1108,-.5"/>
<text text-anchor="middle" x="709.7314" y="-6.5" font-family="Helvetica,sans-Serif" font-size="10.00" fill="#000000">type.h</text>
</a>
</g>
</g>
<!-- Node21&#45;&gt;Node23 -->
<g id="edge43" class="edge">
<title>Node21&#45;&gt;Node23</title>
<path fill="none" stroke="#191970" d="M707.2268,-55.4179C707.6196,-48.2164 708.1826,-37.8962 708.6753,-28.8632"/>
<polygon fill="#191970" stroke="#191970" points="712.1754,-28.9553 709.2253,-18.7795 705.1857,-28.574 712.1754,-28.9553"/>
</g>
<!-- Node21&#45;&gt;Node24 -->
<g id="edge44" class="edge">
<title>Node21&#45;&gt;Node24</title>
<path fill="none" stroke="#191970" d="M738.256,-63.6497C860.4741,-60.1962 1303.8188,-46.1746 1464.7497,-18.903"/>
<polygon fill="#191970" stroke="#191970" points="1465.7045,-22.2881 1474.9352,-17.0875 1464.4761,-15.3967 1465.7045,-22.2881"/>
</g>
<!-- Node22&#45;&gt;Node21 -->
<g id="edge42" class="edge">
<title>Node22&#45;&gt;Node21</title>
<path fill="none" stroke="#191970" d="M767.6341,-18.7795C759.1314,-27.1539 744.233,-39.6272 731.1838,-49.4308"/>
<polygon fill="#191970" stroke="#191970" points="728.9853,-46.7021 722.9615,-55.4179 733.1057,-52.3609 728.9853,-46.7021"/>
</g>
</g>
</svg>
