<?xml version="1.0" encoding="UTF-8" standalone="no"?>
<!DOCTYPE svg PUBLIC "-//W3C//DTD SVG 1.1//EN"
 "http://www.w3.org/Graphics/SVG/1.1/DTD/svg11.dtd">
<!-- Generated by graphviz version 2.40.1 (20161225.0304)
 -->
<!-- Title: ext_comps/shim/event.c Pages: 1 -->
<svg width="1603pt" height="247pt"
 viewBox="0.00 0.00 1603.30 247.00" xmlns="http://www.w3.org/2000/svg" xmlns:xlink="http://www.w3.org/1999/xlink">
<g id="graph0" class="graph" transform="scale(1 1) rotate(0) translate(4 243)">
<title>ext_comps/shim/event.c</title>
<polygon fill="#ffffff" stroke="transparent" points="-4,4 -4,-243 1599.2979,-243 1599.2979,4 -4,4"/>
<!-- Node0 -->
<g id="node1" class="node">
<title>Node0</title>
<polygon fill="#bfbfbf" stroke="#000000" points="897.9878,-220.5 897.9878,-238.5 1021.2534,-238.5 1021.2534,-220.5 897.9878,-220.5"/>
<text text-anchor="middle" x="959.6206" y="-226.5" font-family="Helvetica,sans-Serif" font-size="10.00" fill="#000000">ext_comps/shim/event.c</text>
</g>
<!-- Node1 -->
<g id="node2" class="node">
<title>Node1</title>
<g id="a_node2"><a xlink:href="events_2include_2event_8h.html" target="_top" xlink:title="event.h">
<polygon fill="#ffffff" stroke="#000000" points="708.2192,-165.5 708.2192,-183.5 757.022,-183.5 757.022,-165.5 708.2192,-165.5"/>
<text text-anchor="middle" x="732.6206" y="-171.5" font-family="Helvetica,sans-Serif" font-size="10.00" fill="#000000">event.h</text>
</a>
</g>
</g>
<!-- Node0&#45;&gt;Node1 -->
<g id="edge1" class="edge">
<title>Node0&#45;&gt;Node1</title>
<path fill="none" stroke="#191970" d="M922.3904,-220.4795C879.2805,-210.0343 808.8486,-192.9693 766.9923,-182.828"/>
<polygon fill="#191970" stroke="#191970" points="767.796,-179.4215 757.253,-180.4682 766.1476,-186.2246 767.796,-179.4215"/>
</g>
<!-- Node28 -->
<g id="node29" class="node">
<title>Node28</title>
<g id="a_node29"><a xlink:href="src_2include_2component_8h.html" target="_top" xlink:title="component.h">
<polygon fill="#ffffff" stroke="#000000" points="819.7119,-165.5 819.7119,-183.5 893.5293,-183.5 893.5293,-165.5 819.7119,-165.5"/>
<text text-anchor="middle" x="856.6206" y="-171.5" font-family="Helvetica,sans-Serif" font-size="10.00" fill="#000000">component.h</text>
</a>
</g>
</g>
<!-- Node0&#45;&gt;Node28 -->
<g id="edge32" class="edge">
<title>Node0&#45;&gt;Node28</title>
<path fill="none" stroke="#191970" d="M942.6123,-220.4179C926.2863,-211.7001 901.4016,-198.4122 882.5952,-188.3699"/>
<polygon fill="#191970" stroke="#191970" points="884.124,-185.2186 873.6542,-183.5956 880.8268,-191.3934 884.124,-185.2186"/>
</g>
<!-- Node31 -->
<g id="node32" class="node">
<title>Node31</title>
<g id="a_node32"><a xlink:href="component__info_8h.html" target="_top" xlink:title="component_info.h">
<polygon fill="#ffffff" stroke="#000000" points="911.8696,-165.5 911.8696,-183.5 1007.3716,-183.5 1007.3716,-165.5 911.8696,-165.5"/>
<text text-anchor="middle" x="959.6206" y="-171.5" font-family="Helvetica,sans-Serif" font-size="10.00" fill="#000000">component_info.h</text>
</a>
</g>
</g>
<!-- Node0&#45;&gt;Node31 -->
<g id="edge39" class="edge">
<title>Node0&#45;&gt;Node31</title>
<path fill="none" stroke="#191970" d="M959.6206,-220.4179C959.6206,-213.2164 959.6206,-202.8962 959.6206,-193.8632"/>
<polygon fill="#191970" stroke="#191970" points="963.1207,-193.7794 959.6206,-183.7795 956.1207,-193.7795 963.1207,-193.7794"/>
</g>
<!-- Node32 -->
<g id="node33" class="node">
<title>Node32</title>
<g id="a_node33"><a xlink:href="events_2include_2event__json_8h.html" target="_top" xlink:title="event_json.h">
<polygon fill="#ffffff" stroke="#000000" points="1025.2661,-165.5 1025.2661,-183.5 1097.9751,-183.5 1097.9751,-165.5 1025.2661,-165.5"/>
<text text-anchor="middle" x="1061.6206" y="-171.5" font-family="Helvetica,sans-Serif" font-size="10.00" fill="#000000">event_json.h</text>
</a>
</g>
</g>
<!-- Node0&#45;&gt;Node32 -->
<g id="edge40" class="edge">
<title>Node0&#45;&gt;Node32</title>
<path fill="none" stroke="#191970" d="M976.4638,-220.4179C992.6313,-211.7001 1017.2744,-198.4122 1035.8982,-188.3699"/>
<polygon fill="#191970" stroke="#191970" points="1037.6116,-191.4225 1044.7524,-183.5956 1034.2892,-185.2611 1037.6116,-191.4225"/>
</g>
<!-- Node34 -->
<g id="node35" class="node">
<title>Node34</title>
<g id="a_node35"><a xlink:href="events_2include_2event__epoll__env_8h.html" target="_top" xlink:title="event_epoll_env.h">
<polygon fill="#ffffff" stroke="#000000" points="1242.4009,-165.5 1242.4009,-183.5 1338.8403,-183.5 1338.8403,-165.5 1242.4009,-165.5"/>
<text text-anchor="middle" x="1290.6206" y="-171.5" font-family="Helvetica,sans-Serif" font-size="10.00" fill="#000000">event_epoll_env.h</text>
</a>
</g>
</g>
<!-- Node0&#45;&gt;Node34 -->
<g id="edge44" class="edge">
<title>Node0&#45;&gt;Node34</title>
<path fill="none" stroke="#191970" d="M1013.9079,-220.4795C1074.0199,-210.4911 1170.5638,-194.449 1232.2633,-184.1968"/>
<polygon fill="#191970" stroke="#191970" points="1232.9405,-187.6324 1242.2315,-182.5405 1231.793,-180.7271 1232.9405,-187.6324"/>
</g>
<!-- Node2 -->
<g id="node3" class="node">
<title>Node2</title>
<g id="a_node3"><a xlink:href="src_2include_2common_8h.html" target="_top" xlink:title="common.h">
<polygon fill="#ffffff" stroke="#000000" points="839.2783,-55.5 839.2783,-73.5 901.9629,-73.5 901.9629,-55.5 839.2783,-55.5"/>
<text text-anchor="middle" x="870.6206" y="-61.5" font-family="Helvetica,sans-Serif" font-size="10.00" fill="#000000">common.h</text>
</a>
</g>
</g>
<!-- Node1&#45;&gt;Node2 -->
<g id="edge2" class="edge">
<title>Node1&#45;&gt;Node2</title>
<path fill="none" stroke="#191970" d="M732.8508,-165.3586C733.6806,-151.6208 737.2003,-125.6028 751.6206,-110 771.8317,-88.1316 803.6962,-76.6804 829.3675,-70.7378"/>
<polygon fill="#191970" stroke="#191970" points="830.1636,-74.1469 839.2215,-68.651 828.7133,-67.2988 830.1636,-74.1469"/>
</g>
<!-- Node25 -->
<g id="node26" class="node">
<title>Node25</title>
<g id="a_node26"><a xlink:href="src_2include_2context_8h.html" target="_top" xlink:title="context.h">
<polygon fill="#ffffff" stroke="#000000" points="760.3301,-110.5 760.3301,-128.5 816.9111,-128.5 816.9111,-110.5 760.3301,-110.5"/>
<text text-anchor="middle" x="788.6206" y="-116.5" font-family="Helvetica,sans-Serif" font-size="10.00" fill="#000000">context.h</text>
</a>
</g>
</g>
<!-- Node1&#45;&gt;Node25 -->
<g id="edge27" class="edge">
<title>Node1&#45;&gt;Node25</title>
<path fill="none" stroke="#191970" d="M741.8679,-165.4179C750.0061,-157.425 762.0559,-145.5903 771.884,-135.9377"/>
<polygon fill="#191970" stroke="#191970" points="774.4904,-138.2836 779.1724,-128.7795 769.5854,-133.2895 774.4904,-138.2836"/>
</g>
<!-- Node26 -->
<g id="node27" class="node">
<title>Node26</title>
<g id="a_node27"><a xlink:href="events_2include_2event__id_8h.html" target="_top" xlink:title="event_id.h">
<polygon fill="#ffffff" stroke="#000000" points="642.5469,-110.5 642.5469,-128.5 704.6943,-128.5 704.6943,-110.5 642.5469,-110.5"/>
<text text-anchor="middle" x="673.6206" y="-116.5" font-family="Helvetica,sans-Serif" font-size="10.00" fill="#000000">event_id.h</text>
</a>
</g>
</g>
<!-- Node1&#45;&gt;Node26 -->
<g id="edge29" class="edge">
<title>Node1&#45;&gt;Node26</title>
<path fill="none" stroke="#191970" d="M722.878,-165.4179C714.2189,-157.3458 701.3566,-145.3556 690.947,-135.6517"/>
<polygon fill="#191970" stroke="#191970" points="693.2762,-133.0381 683.5749,-128.7795 688.5031,-138.1584 693.2762,-133.0381"/>
</g>
<!-- Node27 -->
<g id="node28" class="node">
<title>Node27</title>
<g id="a_node28"><a xlink:href="events_2include_2event__list_8h.html" target="_top" xlink:title="event_list.h">
<polygon fill="#ffffff" stroke="#000000" points="119.3276,-55.5 119.3276,-73.5 185.9136,-73.5 185.9136,-55.5 119.3276,-55.5"/>
<text text-anchor="middle" x="152.6206" y="-61.5" font-family="Helvetica,sans-Serif" font-size="10.00" fill="#000000">event_list.h</text>
</a>
</g>
</g>
<!-- Node1&#45;&gt;Node27 -->
<g id="edge30" class="edge">
<title>Node1&#45;&gt;Node27</title>
<path fill="none" stroke="#191970" d="M708.0692,-169.8437C618.804,-152.9141 310.725,-94.4853 196.0644,-72.7393"/>
<polygon fill="#191970" stroke="#191970" points="196.6996,-69.2975 186.2225,-70.8728 195.3952,-76.1749 196.6996,-69.2975"/>
</g>
<!-- Node3 -->
<g id="node4" class="node">
<title>Node3</title>
<polygon fill="#ffffff" stroke="#bfbfbf" points="1403.8892,-.5 1403.8892,-18.5 1449.3521,-18.5 1449.3521,-.5 1403.8892,-.5"/>
<text text-anchor="middle" x="1426.6206" y="-6.5" font-family="Helvetica,sans-Serif" font-size="10.00" fill="#000000">stdio.h</text>
</g>
<!-- Node2&#45;&gt;Node3 -->
<g id="edge3" class="edge">
<title>Node2&#45;&gt;Node3</title>
<path fill="none" stroke="#191970" d="M901.9855,-62.653C997.0762,-56.9205 1282.0003,-38.7316 1393.7825,-18.9588"/>
<polygon fill="#191970" stroke="#191970" points="1394.5456,-22.3769 1403.7343,-17.1027 1393.262,-15.4956 1394.5456,-22.3769"/>
</g>
<!-- Node4 -->
<g id="node5" class="node">
<title>Node4</title>
<polygon fill="#ffffff" stroke="#bfbfbf" points="1467.1084,-.5 1467.1084,-18.5 1518.1328,-18.5 1518.1328,-.5 1467.1084,-.5"/>
<text text-anchor="middle" x="1492.6206" y="-6.5" font-family="Helvetica,sans-Serif" font-size="10.00" fill="#000000">unistd.h</text>
</g>
<!-- Node2&#45;&gt;Node4 -->
<g id="edge4" class="edge">
<title>Node2&#45;&gt;Node4</title>
<path fill="none" stroke="#191970" d="M902.3252,-62.8655C1005.4705,-57.4232 1331.5927,-39.2036 1456.6879,-18.998"/>
<polygon fill="#191970" stroke="#191970" points="1457.479,-22.4139 1466.7521,-17.2894 1456.3073,-15.5126 1457.479,-22.4139"/>
</g>
<!-- Node5 -->
<g id="node6" class="node">
<title>Node5</title>
<polygon fill="#ffffff" stroke="#bfbfbf" points="60.7783,-.5 60.7783,-18.5 108.4629,-18.5 108.4629,-.5 60.7783,-.5"/>
<text text-anchor="middle" x="84.6206" y="-6.5" font-family="Helvetica,sans-Serif" font-size="10.00" fill="#000000">stdlib.h</text>
</g>
<!-- Node2&#45;&gt;Node5 -->
<g id="edge5" class="edge">
<title>Node2&#45;&gt;Node5</title>
<path fill="none" stroke="#191970" d="M838.9837,-63.5161C717.3647,-59.5935 279.1569,-44.1317 118.7843,-18.7584"/>
<polygon fill="#191970" stroke="#191970" points="119.0671,-15.2576 108.629,-17.0728 117.9209,-22.1631 119.0671,-15.2576"/>
</g>
<!-- Node6 -->
<g id="node7" class="node">
<title>Node6</title>
<polygon fill="#ffffff" stroke="#bfbfbf" points="126.2241,-.5 126.2241,-18.5 175.0171,-18.5 175.0171,-.5 126.2241,-.5"/>
<text text-anchor="middle" x="150.6206" y="-6.5" font-family="Helvetica,sans-Serif" font-size="10.00" fill="#000000">string.h</text>
</g>
<!-- Node2&#45;&gt;Node6 -->
<g id="edge6" class="edge">
<title>Node2&#45;&gt;Node6</title>
<path fill="none" stroke="#191970" d="M838.9957,-63.3059C724.5257,-58.8472 331.2911,-42.308 185.4215,-18.9308"/>
<polygon fill="#191970" stroke="#191970" points="185.7959,-15.4446 175.3536,-17.2358 184.6338,-22.3475 185.7959,-15.4446"/>
</g>
<!-- Node7 -->
<g id="node8" class="node">
<title>Node7</title>
<polygon fill="#ffffff" stroke="#bfbfbf" points="192.5542,-.5 192.5542,-18.5 244.687,-18.5 244.687,-.5 192.5542,-.5"/>
<text text-anchor="middle" x="218.6206" y="-6.5" font-family="Helvetica,sans-Serif" font-size="10.00" fill="#000000">stdarg.h</text>
</g>
<!-- Node2&#45;&gt;Node7 -->
<g id="edge7" class="edge">
<title>Node2&#45;&gt;Node7</title>
<path fill="none" stroke="#191970" d="M839.2714,-62.984C733.1485,-57.731 387.1443,-39.5859 255.1197,-18.8914"/>
<polygon fill="#191970" stroke="#191970" points="255.3091,-15.3756 244.8733,-17.2047 254.172,-22.2826 255.3091,-15.3756"/>
</g>
<!-- Node8 -->
<g id="node9" class="node">
<title>Node8</title>
<polygon fill="#ffffff" stroke="#bfbfbf" points="262.5,-.5 262.5,-18.5 310.7412,-18.5 310.7412,-.5 262.5,-.5"/>
<text text-anchor="middle" x="286.6206" y="-6.5" font-family="Helvetica,sans-Serif" font-size="10.00" fill="#000000">stdint.h</text>
</g>
<!-- Node2&#45;&gt;Node8 -->
<g id="edge8" class="edge">
<title>Node2&#45;&gt;Node8</title>
<path fill="none" stroke="#191970" d="M839.2681,-64.0758C756.054,-62.4927 522.7346,-55.0786 320.8914,-18.9018"/>
<polygon fill="#191970" stroke="#191970" points="321.4659,-15.4489 311.0007,-17.1011 320.212,-22.3357 321.4659,-15.4489"/>
</g>
<!-- Node9 -->
<g id="node10" class="node">
<title>Node9</title>
<polygon fill="#ffffff" stroke="#bfbfbf" points="328.4927,-.5 328.4927,-18.5 386.7485,-18.5 386.7485,-.5 328.4927,-.5"/>
<text text-anchor="middle" x="357.6206" y="-6.5" font-family="Helvetica,sans-Serif" font-size="10.00" fill="#000000">pthread.h</text>
</g>
<!-- Node2&#45;&gt;Node9 -->
<g id="edge9" class="edge">
<title>Node2&#45;&gt;Node9</title>
<path fill="none" stroke="#191970" d="M839.0015,-63.1066C763.8887,-59.4491 568.7768,-47.907 396.9654,-19.0053"/>
<polygon fill="#191970" stroke="#191970" points="397.4331,-15.5346 386.9868,-17.3024 396.2555,-22.4348 397.4331,-15.5346"/>
</g>
<!-- Node10 -->
<g id="node11" class="node">
<title>Node10</title>
<polygon fill="#ffffff" stroke="#bfbfbf" points="404.5,-.5 404.5,-18.5 452.7412,-18.5 452.7412,-.5 404.5,-.5"/>
<text text-anchor="middle" x="428.6206" y="-6.5" font-family="Helvetica,sans-Serif" font-size="10.00" fill="#000000">ctype.h</text>
</g>
<!-- Node2&#45;&gt;Node10 -->
<g id="edge10" class="edge">
<title>Node2&#45;&gt;Node10</title>
<path fill="none" stroke="#191970" d="M839.0432,-62.8153C771.5676,-58.8261 608.2899,-47.0985 463.0008,-18.986"/>
<polygon fill="#191970" stroke="#191970" points="463.5032,-15.5178 453.0157,-17.0221 462.1523,-22.3862 463.5032,-15.5178"/>
</g>
<!-- Node11 -->
<g id="node12" class="node">
<title>Node11</title>
<polygon fill="#ffffff" stroke="#bfbfbf" points="470.7783,-.5 470.7783,-18.5 518.4629,-18.5 518.4629,-.5 470.7783,-.5"/>
<text text-anchor="middle" x="494.6206" y="-6.5" font-family="Helvetica,sans-Serif" font-size="10.00" fill="#000000">errno.h</text>
</g>
<!-- Node2&#45;&gt;Node11 -->
<g id="edge11" class="edge">
<title>Node2&#45;&gt;Node11</title>
<path fill="none" stroke="#191970" d="M839.0344,-61.994C779.7752,-56.9351 647.8102,-43.9772 528.6467,-19.1869"/>
<polygon fill="#191970" stroke="#191970" points="529.1369,-15.7132 518.629,-17.068 527.6883,-22.5616 529.1369,-15.7132"/>
</g>
<!-- Node12 -->
<g id="node13" class="node">
<title>Node12</title>
<polygon fill="#ffffff" stroke="#bfbfbf" points="535.9927,-.5 535.9927,-18.5 599.2485,-18.5 599.2485,-.5 535.9927,-.5"/>
<text text-anchor="middle" x="567.6206" y="-6.5" font-family="Helvetica,sans-Serif" font-size="10.00" fill="#000000">arpa/inet.h</text>
</g>
<!-- Node2&#45;&gt;Node12 -->
<g id="edge12" class="edge">
<title>Node2&#45;&gt;Node12</title>
<path fill="none" stroke="#191970" d="M839.0573,-59.6015C791.5098,-52.0959 698.465,-36.9184 609.3675,-19.0593"/>
<polygon fill="#191970" stroke="#191970" points="609.8616,-15.5885 599.3667,-17.0398 608.476,-22.45 609.8616,-15.5885"/>
</g>
<!-- Node13 -->
<g id="node14" class="node">
<title>Node13</title>
<polygon fill="#ffffff" stroke="#bfbfbf" points="617.1577,-.5 617.1577,-18.5 682.0835,-18.5 682.0835,-.5 617.1577,-.5"/>
<text text-anchor="middle" x="649.6206" y="-6.5" font-family="Helvetica,sans-Serif" font-size="10.00" fill="#000000">netinet/in.h</text>
</g>
<!-- Node2&#45;&gt;Node13 -->
<g id="edge13" class="edge">
<title>Node2&#45;&gt;Node13</title>
<path fill="none" stroke="#191970" d="M838.9567,-56.6198C800.3942,-47.0228 735.1032,-30.774 692.1743,-20.0903"/>
<polygon fill="#191970" stroke="#191970" points="692.8554,-16.6531 682.3061,-17.6344 691.1648,-23.4459 692.8554,-16.6531"/>
</g>
<!-- Node14 -->
<g id="node15" class="node">
<title>Node14</title>
<polygon fill="#ffffff" stroke="#bfbfbf" points="699.7637,-.5 699.7637,-18.5 777.4775,-18.5 777.4775,-.5 699.7637,-.5"/>
<text text-anchor="middle" x="738.6206" y="-6.5" font-family="Helvetica,sans-Serif" font-size="10.00" fill="#000000">net/ethernet.h</text>
</g>
<!-- Node2&#45;&gt;Node14 -->
<g id="edge14" class="edge">
<title>Node2&#45;&gt;Node14</title>
<path fill="none" stroke="#191970" d="M848.8235,-55.4179C827.3277,-46.4613 794.2542,-32.6806 769.9454,-22.552"/>
<polygon fill="#191970" stroke="#191970" points="771.0271,-19.2111 760.4501,-18.5956 768.3347,-25.6726 771.0271,-19.2111"/>
</g>
<!-- Node15 -->
<g id="node16" class="node">
<title>Node15</title>
<polygon fill="#ffffff" stroke="#bfbfbf" points="795.1577,-.5 795.1577,-18.5 860.0835,-18.5 860.0835,-.5 795.1577,-.5"/>
<text text-anchor="middle" x="827.6206" y="-6.5" font-family="Helvetica,sans-Serif" font-size="10.00" fill="#000000">netinet/ip.h</text>
</g>
<!-- Node2&#45;&gt;Node15 -->
<g id="edge15" class="edge">
<title>Node2&#45;&gt;Node15</title>
<path fill="none" stroke="#191970" d="M863.52,-55.4179C857.4567,-47.6624 848.5655,-36.29 841.1488,-26.8035"/>
<polygon fill="#191970" stroke="#191970" points="843.792,-24.5018 834.8755,-18.7795 838.2774,-28.8133 843.792,-24.5018"/>
</g>
<!-- Node16 -->
<g id="node17" class="node">
<title>Node16</title>
<polygon fill="#ffffff" stroke="#bfbfbf" points="878.3794,-.5 878.3794,-18.5 948.8618,-18.5 948.8618,-.5 878.3794,-.5"/>
<text text-anchor="middle" x="913.6206" y="-6.5" font-family="Helvetica,sans-Serif" font-size="10.00" fill="#000000">netinet/tcp.h</text>
</g>
<!-- Node2&#45;&gt;Node16 -->
<g id="edge16" class="edge">
<title>Node2&#45;&gt;Node16</title>
<path fill="none" stroke="#191970" d="M877.7212,-55.4179C883.7845,-47.6624 892.6757,-36.29 900.0924,-26.8035"/>
<polygon fill="#191970" stroke="#191970" points="902.9638,-28.8133 906.3658,-18.7795 897.4492,-24.5018 902.9638,-28.8133"/>
</g>
<!-- Node17 -->
<g id="node18" class="node">
<title>Node17</title>
<polygon fill="#ffffff" stroke="#bfbfbf" points="966.8203,-.5 966.8203,-18.5 1058.4209,-18.5 1058.4209,-.5 966.8203,-.5"/>
<text text-anchor="middle" x="1012.6206" y="-6.5" font-family="Helvetica,sans-Serif" font-size="10.00" fill="#000000">netinet/ip_icmp.h</text>
</g>
<!-- Node2&#45;&gt;Node17 -->
<g id="edge17" class="edge">
<title>Node2&#45;&gt;Node17</title>
<path fill="none" stroke="#191970" d="M894.069,-55.4179C917.3989,-46.3817 953.4059,-32.4353 979.6178,-22.2828"/>
<polygon fill="#191970" stroke="#191970" points="981.0765,-25.4712 989.1374,-18.5956 978.5482,-18.9437 981.0765,-25.4712"/>
</g>
<!-- Node18 -->
<g id="node19" class="node">
<title>Node18</title>
<polygon fill="#ffffff" stroke="#bfbfbf" points="1076.2168,-.5 1076.2168,-18.5 1135.0244,-18.5 1135.0244,-.5 1076.2168,-.5"/>
<text text-anchor="middle" x="1105.6206" y="-6.5" font-family="Helvetica,sans-Serif" font-size="10.00" fill="#000000">jansson.h</text>
</g>
<!-- Node2&#45;&gt;Node18 -->
<g id="edge18" class="edge">
<title>Node2&#45;&gt;Node18</title>
<path fill="none" stroke="#191970" d="M902.0512,-57.424C939.0675,-49.0502 1002.661,-34.5394 1066.3667,-19.2732"/>
<polygon fill="#191970" stroke="#191970" points="1067.2692,-22.6561 1076.175,-16.9169 1065.6341,-15.8497 1067.2692,-22.6561"/>
</g>
<!-- Node19 -->
<g id="node20" class="node">
<title>Node19</title>
<polygon fill="#ffffff" stroke="#bfbfbf" points="1152.7266,-.5 1152.7266,-18.5 1196.5146,-18.5 1196.5146,-.5 1152.7266,-.5"/>
<text text-anchor="middle" x="1174.6206" y="-6.5" font-family="Helvetica,sans-Serif" font-size="10.00" fill="#000000">libcli.h</text>
</g>
<!-- Node2&#45;&gt;Node19 -->
<g id="edge19" class="edge">
<title>Node2&#45;&gt;Node19</title>
<path fill="none" stroke="#191970" d="M902.0033,-60.6433C951.3117,-54.2877 1050.0451,-40.3687 1142.8726,-18.9149"/>
<polygon fill="#191970" stroke="#191970" points="1143.7668,-22.3002 1152.7032,-16.6089 1142.1681,-15.4852 1143.7668,-22.3002"/>
</g>
<!-- Node20 -->
<g id="node21" class="node">
<title>Node20</title>
<polygon fill="#ffffff" stroke="#bfbfbf" points="1215.0049,-.5 1215.0049,-18.5 1258.2363,-18.5 1258.2363,-.5 1215.0049,-.5"/>
<text text-anchor="middle" x="1236.6206" y="-6.5" font-family="Helvetica,sans-Serif" font-size="10.00" fill="#000000">zmq.h</text>
</g>
<!-- Node2&#45;&gt;Node20 -->
<g id="edge20" class="edge">
<title>Node2&#45;&gt;Node20</title>
<path fill="none" stroke="#191970" d="M902.3264,-61.923C960.5129,-56.8233 1088.3112,-43.9049 1204.9164,-18.8356"/>
<polygon fill="#191970" stroke="#191970" points="1205.7002,-22.247 1214.7222,-16.6924 1204.2055,-15.4084 1205.7002,-22.247"/>
</g>
<!-- Node21 -->
<g id="node22" class="node">
<title>Node21</title>
<g id="a_node22"><a xlink:href="mac2int_8h.html" target="_top" xlink:title="mac2int.h">
<polygon fill="#ffffff" stroke="#000000" points="1535.9434,-.5 1535.9434,-18.5 1595.2979,-18.5 1595.2979,-.5 1535.9434,-.5"/>
<text text-anchor="middle" x="1565.6206" y="-6.5" font-family="Helvetica,sans-Serif" font-size="10.00" fill="#000000">mac2int.h</text>
</a>
</g>
</g>
<!-- Node2&#45;&gt;Node21 -->
<g id="edge21" class="edge">
<title>Node2&#45;&gt;Node21</title>
<path fill="none" stroke="#191970" d="M902.2408,-62.4343C1023.9199,-54.8883 1457.0746,-28.7468 1518.6206,-19 1520.9441,-18.632 1523.3336,-18.19 1525.7509,-17.7007"/>
<polygon fill="#191970" stroke="#191970" points="1526.739,-21.0669 1535.7482,-15.4915 1525.2285,-14.2318 1526.739,-21.0669"/>
</g>
<!-- Node22 -->
<g id="node23" class="node">
<title>Node22</title>
<g id="a_node23"><a xlink:href="ip2int_8h.html" target="_top" xlink:title="ip2int.h">
<polygon fill="#ffffff" stroke="#000000" points="1276.4976,-.5 1276.4976,-18.5 1324.7437,-18.5 1324.7437,-.5 1276.4976,-.5"/>
<text text-anchor="middle" x="1300.6206" y="-6.5" font-family="Helvetica,sans-Serif" font-size="10.00" fill="#000000">ip2int.h</text>
</a>
</g>
</g>
<!-- Node2&#45;&gt;Node22 -->
<g id="edge23" class="edge">
<title>Node2&#45;&gt;Node22</title>
<path fill="none" stroke="#191970" d="M902.1764,-62.338C968.7643,-57.7404 1127.4924,-45.1997 1258.6206,-19 1261.2167,-18.4813 1263.9051,-17.8567 1266.6227,-17.1785"/>
<polygon fill="#191970" stroke="#191970" points="1267.7004,-20.5141 1276.4782,-14.5812 1265.9164,-13.7452 1267.7004,-20.5141"/>
</g>
<!-- Node23 -->
<g id="node24" class="node">
<title>Node23</title>
<g id="a_node24"><a xlink:href="src_2include_2type_8h.html" target="_top" xlink:title="type.h">
<polygon fill="#ffffff" stroke="#000000" points="0,-.5 0,-18.5 43.2412,-18.5 43.2412,-.5 0,-.5"/>
<text text-anchor="middle" x="21.6206" y="-6.5" font-family="Helvetica,sans-Serif" font-size="10.00" fill="#000000">type.h</text>
</a>
</g>
</g>
<!-- Node2&#45;&gt;Node23 -->
<g id="edge25" class="edge">
<title>Node2&#45;&gt;Node23</title>
<path fill="none" stroke="#191970" d="M838.9041,-63.8016C710.2546,-60.8082 226.3522,-47.9526 53.3766,-18.8569"/>
<polygon fill="#191970" stroke="#191970" points="53.871,-15.3901 43.4148,-17.0987 52.6543,-22.2836 53.871,-15.3901"/>
</g>
<!-- Node24 -->
<g id="node25" class="node">
<title>Node24</title>
<polygon fill="#ffffff" stroke="#bfbfbf" points="1343.0049,-.5 1343.0049,-18.5 1386.2363,-18.5 1386.2363,-.5 1343.0049,-.5"/>
<text text-anchor="middle" x="1364.6206" y="-6.5" font-family="Helvetica,sans-Serif" font-size="10.00" fill="#000000">time.h</text>
</g>
<!-- Node2&#45;&gt;Node24 -->
<g id="edge26" class="edge">
<title>Node2&#45;&gt;Node24</title>
<path fill="none" stroke="#191970" d="M902.0986,-63.5674C975.9026,-60.9228 1165.8328,-51.459 1332.7944,-18.7762"/>
<polygon fill="#191970" stroke="#191970" points="1333.6198,-22.1807 1342.7438,-16.7953 1332.2528,-15.3154 1333.6198,-22.1807"/>
</g>
<!-- Node21&#45;&gt;Node2 -->
<g id="edge22" class="edge">
<title>Node21&#45;&gt;Node2</title>
<path fill="none" stroke="#191970" d="M1539.4685,-18.5187C1538.512,-18.69 1537.5609,-18.8511 1536.6206,-19 1475.5367,-28.6736 1048.4031,-54.4967 912.167,-62.2612"/>
<polygon fill="#191970" stroke="#191970" points="911.909,-58.7701 902.1232,-62.8307 912.3054,-65.7589 911.909,-58.7701"/>
</g>
<!-- Node22&#45;&gt;Node2 -->
<g id="edge24" class="edge">
<title>Node22&#45;&gt;Node2</title>
<path fill="none" stroke="#191970" d="M1278.7424,-18.5573C1278.0305,-18.7119 1277.3222,-18.8598 1276.6206,-19 1145.4792,-45.2024 986.7322,-57.743 912.4707,-62.3394"/>
<polygon fill="#191970" stroke="#191970" points="911.9124,-58.8665 902.1405,-62.9606 912.3326,-65.8539 911.9124,-58.8665"/>
</g>
<!-- Node25&#45;&gt;Node2 -->
<g id="edge28" class="edge">
<title>Node25&#45;&gt;Node2</title>
<path fill="none" stroke="#191970" d="M802.1612,-110.4179C814.7432,-101.9788 833.7102,-89.257 848.4917,-79.3426"/>
<polygon fill="#191970" stroke="#191970" points="850.7046,-82.0727 857.0599,-73.5956 846.8053,-76.2593 850.7046,-82.0727"/>
</g>
<!-- Node27&#45;&gt;Node23 -->
<g id="edge31" class="edge">
<title>Node27&#45;&gt;Node23</title>
<path fill="none" stroke="#191970" d="M130.9886,-55.4179C109.6556,-46.4613 76.8327,-32.6806 52.7081,-22.552"/>
<polygon fill="#191970" stroke="#191970" points="53.86,-19.2397 43.2847,-18.5956 51.1501,-25.6939 53.86,-19.2397"/>
</g>
<!-- Node28&#45;&gt;Node2 -->
<g id="edge33" class="edge">
<title>Node28&#45;&gt;Node2</title>
<path fill="none" stroke="#191970" d="M857.4891,-165.2988C858.7012,-152.7712 861.0433,-129.6558 863.6206,-110 864.7636,-101.2831 866.2167,-91.6566 867.5025,-83.5116"/>
<polygon fill="#191970" stroke="#191970" points="870.9725,-83.9768 869.1071,-73.5475 864.0616,-82.8638 870.9725,-83.9768"/>
</g>
<!-- Node28&#45;&gt;Node25 -->
<g id="edge34" class="edge">
<title>Node28&#45;&gt;Node25</title>
<path fill="none" stroke="#191970" d="M845.3918,-165.4179C835.2162,-157.1876 820.0043,-144.8839 807.8875,-135.0836"/>
<polygon fill="#191970" stroke="#191970" points="810.0696,-132.3469 800.0934,-128.7795 805.6675,-137.7895 810.0696,-132.3469"/>
</g>
<!-- Node29 -->
<g id="node30" class="node">
<title>Node29</title>
<g id="a_node30"><a xlink:href="hash_8h.html" target="_top" xlink:title="hash.h">
<polygon fill="#ffffff" stroke="#000000" points="872.6084,-110.5 872.6084,-128.5 918.6328,-128.5 918.6328,-110.5 872.6084,-110.5"/>
<text text-anchor="middle" x="895.6206" y="-116.5" font-family="Helvetica,sans-Serif" font-size="10.00" fill="#000000">hash.h</text>
</a>
</g>
</g>
<!-- Node28&#45;&gt;Node29 -->
<g id="edge35" class="edge">
<title>Node28&#45;&gt;Node29</title>
<path fill="none" stroke="#191970" d="M863.0607,-165.4179C868.5039,-157.7415 876.4598,-146.5217 883.1445,-137.0945"/>
<polygon fill="#191970" stroke="#191970" points="886.1114,-138.9613 889.0406,-128.7795 880.4012,-134.9123 886.1114,-138.9613"/>
</g>
<!-- Node30 -->
<g id="node31" class="node">
<title>Node30</title>
<g id="a_node31"><a xlink:href="str_8h.html" target="_top" xlink:title="str.h">
<polygon fill="#ffffff" stroke="#000000" points="936.1699,-110.5 936.1699,-128.5 971.0713,-128.5 971.0713,-110.5 936.1699,-110.5"/>
<text text-anchor="middle" x="953.6206" y="-116.5" font-family="Helvetica,sans-Serif" font-size="10.00" fill="#000000">str.h</text>
</a>
</g>
</g>
<!-- Node28&#45;&gt;Node30 -->
<g id="edge37" class="edge">
<title>Node28&#45;&gt;Node30</title>
<path fill="none" stroke="#191970" d="M872.6382,-165.4179C887.8025,-156.8195 910.8077,-143.7754 928.4281,-133.7844"/>
<polygon fill="#191970" stroke="#191970" points="930.6066,-136.5727 937.5792,-128.5956 927.1539,-130.4834 930.6066,-136.5727"/>
</g>
<!-- Node29&#45;&gt;Node2 -->
<g id="edge36" class="edge">
<title>Node29&#45;&gt;Node2</title>
<path fill="none" stroke="#191970" d="M891.4924,-110.4179C888.111,-102.9789 883.2171,-92.2123 879.018,-82.9742"/>
<polygon fill="#191970" stroke="#191970" points="882.1629,-81.4348 874.8385,-73.7795 875.7903,-84.3315 882.1629,-81.4348"/>
</g>
<!-- Node30&#45;&gt;Node2 -->
<g id="edge38" class="edge">
<title>Node30&#45;&gt;Node2</title>
<path fill="none" stroke="#191970" d="M939.9148,-110.4179C927.1795,-101.9788 907.9811,-89.257 893.0194,-79.3426"/>
<polygon fill="#191970" stroke="#191970" points="894.616,-76.2019 884.3467,-73.5956 890.7493,-82.037 894.616,-76.2019"/>
</g>
<!-- Node32&#45;&gt;Node21 -->
<g id="edge43" class="edge">
<title>Node32&#45;&gt;Node21</title>
<path fill="none" stroke="#191970" d="M1063.4735,-165.4036C1066.8565,-151.2375 1075.4288,-124.0742 1093.6206,-110 1246.912,8.5945 1332.6653,-60.7358 1525.8968,-19.272"/>
<polygon fill="#191970" stroke="#191970" points="1526.7737,-22.6626 1535.7758,-17.0758 1525.2546,-15.8294 1526.7737,-22.6626"/>
</g>
<!-- Node33 -->
<g id="node34" class="node">
<title>Node33</title>
<g id="a_node34"><a xlink:href="base64_8h.html" target="_top" xlink:title="base64.h">
<polygon fill="#ffffff" stroke="#000000" points="989.0469,-110.5 989.0469,-128.5 1046.1943,-128.5 1046.1943,-110.5 989.0469,-110.5"/>
<text text-anchor="middle" x="1017.6206" y="-116.5" font-family="Helvetica,sans-Serif" font-size="10.00" fill="#000000">base64.h</text>
</a>
</g>
</g>
<!-- Node32&#45;&gt;Node33 -->
<g id="edge41" class="edge">
<title>Node32&#45;&gt;Node33</title>
<path fill="none" stroke="#191970" d="M1054.3549,-165.4179C1048.1505,-157.6624 1039.0526,-146.29 1031.4634,-136.8035"/>
<polygon fill="#191970" stroke="#191970" points="1034.0242,-134.4017 1025.0442,-128.7795 1028.5581,-138.7746 1034.0242,-134.4017"/>
</g>
<!-- Node33&#45;&gt;Node2 -->
<g id="edge42" class="edge">
<title>Node33&#45;&gt;Node2</title>
<path fill="none" stroke="#191970" d="M993.3465,-110.4179C969.0888,-101.3419 931.5917,-87.3123 904.4274,-77.1488"/>
<polygon fill="#191970" stroke="#191970" points="905.5232,-73.8219 894.9307,-73.5956 903.0701,-80.378 905.5232,-73.8219"/>
</g>
<!-- Node35 -->
<g id="node36" class="node">
<title>Node35</title>
<polygon fill="#ffffff" stroke="#bfbfbf" points="1344.2808,-110.5 1344.2808,-128.5 1386.9604,-128.5 1386.9604,-110.5 1344.2808,-110.5"/>
<text text-anchor="middle" x="1365.6206" y="-116.5" font-family="Helvetica,sans-Serif" font-size="10.00" fill="#000000">fcntl.h</text>
</g>
<!-- Node34&#45;&gt;Node35 -->
<g id="edge45" class="edge">
<title>Node34&#45;&gt;Node35</title>
<path fill="none" stroke="#191970" d="M1303.0053,-165.4179C1314.4046,-157.0584 1331.5343,-144.4966 1344.9971,-134.6239"/>
<polygon fill="#191970" stroke="#191970" points="1347.2232,-137.3317 1353.2175,-128.5956 1343.0836,-131.6869 1347.2232,-137.3317"/>
</g>
<!-- Node36 -->
<g id="node37" class="node">
<title>Node36</title>
<polygon fill="#ffffff" stroke="#bfbfbf" points="1404.9385,-110.5 1404.9385,-128.5 1454.3027,-128.5 1454.3027,-110.5 1404.9385,-110.5"/>
<text text-anchor="middle" x="1429.6206" y="-116.5" font-family="Helvetica,sans-Serif" font-size="10.00" fill="#000000">netdb.h</text>
</g>
<!-- Node34&#45;&gt;Node36 -->
<g id="edge46" class="edge">
<title>Node34&#45;&gt;Node36</title>
<path fill="none" stroke="#191970" d="M1313.5736,-165.4179C1336.4106,-156.3817 1371.6569,-142.4353 1397.3151,-132.2828"/>
<polygon fill="#191970" stroke="#191970" points="1398.6227,-135.5295 1406.6335,-128.5956 1396.0472,-129.0205 1398.6227,-135.5295"/>
</g>
<!-- Node37 -->
<g id="node38" class="node">
<title>Node37</title>
<polygon fill="#ffffff" stroke="#bfbfbf" points="1472.3867,-110.5 1472.3867,-128.5 1522.8545,-128.5 1522.8545,-110.5 1472.3867,-110.5"/>
<text text-anchor="middle" x="1497.6206" y="-116.5" font-family="Helvetica,sans-Serif" font-size="10.00" fill="#000000">signal.h</text>
</g>
<!-- Node34&#45;&gt;Node37 -->
<g id="edge47" class="edge">
<title>Node34&#45;&gt;Node37</title>
<path fill="none" stroke="#191970" d="M1325.7845,-165.4197C1358.719,-156.8779 1409.5641,-143.5961 1462.4805,-129.2822"/>
<polygon fill="#191970" stroke="#191970" points="1463.6455,-132.5928 1472.3814,-126.5983 1461.814,-125.8366 1463.6455,-132.5928"/>
</g>
<!-- Node38 -->
<g id="node39" class="node">
<title>Node38</title>
<polygon fill="#ffffff" stroke="#bfbfbf" points="1103,-110.5 1103,-128.5 1156.2412,-128.5 1156.2412,-110.5 1103,-110.5"/>
<text text-anchor="middle" x="1129.6206" y="-116.5" font-family="Helvetica,sans-Serif" font-size="10.00" fill="#000000">sys/un.h</text>
</g>
<!-- Node34&#45;&gt;Node38 -->
<g id="edge48" class="edge">
<title>Node34&#45;&gt;Node38</title>
<path fill="none" stroke="#191970" d="M1264.0347,-165.4179C1237.1535,-156.2348 1195.4279,-141.9807 1165.5994,-131.7909"/>
<polygon fill="#191970" stroke="#191970" points="1166.5729,-128.4249 1155.9784,-128.5042 1164.31,-135.0491 1166.5729,-128.4249"/>
</g>
<!-- Node39 -->
<g id="node40" class="node">
<title>Node39</title>
<polygon fill="#ffffff" stroke="#bfbfbf" points="1173.9976,-110.5 1173.9976,-128.5 1237.2437,-128.5 1237.2437,-110.5 1173.9976,-110.5"/>
<text text-anchor="middle" x="1205.6206" y="-116.5" font-family="Helvetica,sans-Serif" font-size="10.00" fill="#000000">sys/epoll.h</text>
</g>
<!-- Node34&#45;&gt;Node39 -->
<g id="edge49" class="edge">
<title>Node34&#45;&gt;Node39</title>
<path fill="none" stroke="#191970" d="M1276.5846,-165.4179C1263.4193,-156.8992 1243.5098,-144.0166 1228.1266,-134.0627"/>
<polygon fill="#191970" stroke="#191970" points="1229.9746,-131.0897 1219.6775,-128.5956 1226.1718,-136.9667 1229.9746,-131.0897"/>
</g>
<!-- Node40 -->
<g id="node41" class="node">
<title>Node40</title>
<polygon fill="#ffffff" stroke="#bfbfbf" points="1255.1108,-110.5 1255.1108,-128.5 1326.1304,-128.5 1326.1304,-110.5 1255.1108,-110.5"/>
<text text-anchor="middle" x="1290.6206" y="-116.5" font-family="Helvetica,sans-Serif" font-size="10.00" fill="#000000">sys/socket.h</text>
</g>
<!-- Node34&#45;&gt;Node40 -->
<g id="edge50" class="edge">
<title>Node34&#45;&gt;Node40</title>
<path fill="none" stroke="#191970" d="M1290.6206,-165.4179C1290.6206,-158.2164 1290.6206,-147.8962 1290.6206,-138.8632"/>
<polygon fill="#191970" stroke="#191970" points="1294.1207,-138.7794 1290.6206,-128.7795 1287.1207,-138.7795 1294.1207,-138.7794"/>
</g>
</g>
</svg>
