<?xml version="1.0" encoding="UTF-8" standalone="no"?>
<!DOCTYPE svg PUBLIC "-//W3C//DTD SVG 1.1//EN"
 "http://www.w3.org/Graphics/SVG/1.1/DTD/svg11.dtd">
<!-- Generated by graphviz version 2.40.1 (20161225.0304)
 -->
<!-- Title: ext_apps/shim/include/shim.h Pages: 1 -->
<svg width="1520pt" height="257pt"
 viewBox="0.00 0.00 1520.24 257.00" xmlns="http://www.w3.org/2000/svg" xmlns:xlink="http://www.w3.org/1999/xlink">
<g id="graph0" class="graph" transform="scale(1 1) rotate(0) translate(4 253)">
<title>ext_apps/shim/include/shim.h</title>
<polygon fill="#ffffff" stroke="transparent" points="-4,4 -4,-253 1516.2412,-253 1516.2412,4 -4,4"/>
<!-- Node0 -->
<g id="node1" class="node">
<title>Node0</title>
<polygon fill="#bfbfbf" stroke="#000000" points="770.1479,-220.5 770.1479,-248.5 885.0933,-248.5 885.0933,-220.5 770.1479,-220.5"/>
<text text-anchor="start" x="778.1479" y="-236.5" font-family="Helvetica,sans-Serif" font-size="10.00" fill="#000000">ext_apps/shim/include</text>
<text text-anchor="middle" x="827.6206" y="-226.5" font-family="Helvetica,sans-Serif" font-size="10.00" fill="#000000">/shim.h</text>
</g>
<!-- Node1 -->
<g id="node2" class="node">
<title>Node1</title>
<g id="a_node2"><a xlink:href="ext__apps_2shim_2include_2common_8h.html" target="_top" xlink:title="common.h">
<polygon fill="#ffffff" stroke="#000000" points="653.2783,-55.5 653.2783,-73.5 715.9629,-73.5 715.9629,-55.5 653.2783,-55.5"/>
<text text-anchor="middle" x="684.6206" y="-61.5" font-family="Helvetica,sans-Serif" font-size="10.00" fill="#000000">common.h</text>
</a>
</g>
</g>
<!-- Node0&#45;&gt;Node1 -->
<g id="edge1" class="edge">
<title>Node0&#45;&gt;Node1</title>
<path fill="none" stroke="#191970" d="M770.0476,-231.4139C697.2189,-226.322 577.4368,-213.6026 545.6206,-184 521.115,-161.1994 511.6078,-136.8306 531.6206,-110 545.024,-92.0306 602.5954,-78.6009 643.1541,-71.1501"/>
<polygon fill="#191970" stroke="#191970" points="643.8305,-74.5848 653.0619,-69.3855 642.603,-67.6932 643.8305,-74.5848"/>
</g>
<!-- Node22 -->
<g id="node23" class="node">
<title>Node22</title>
<g id="a_node23"><a xlink:href="ext__apps_2shim_2include_2app__event_8h.html" target="_top" xlink:title="app_event.h">
<polygon fill="#ffffff" stroke="#000000" points="555.0962,-165.5 555.0962,-183.5 626.145,-183.5 626.145,-165.5 555.0962,-165.5"/>
<text text-anchor="middle" x="590.6206" y="-171.5" font-family="Helvetica,sans-Serif" font-size="10.00" fill="#000000">app_event.h</text>
</a>
</g>
</g>
<!-- Node0&#45;&gt;Node22 -->
<g id="edge22" class="edge">
<title>Node0&#45;&gt;Node22</title>
<path fill="none" stroke="#191970" d="M772.0546,-220.4327C730.7344,-209.9719 675.0324,-195.8701 636.2923,-186.0625"/>
<polygon fill="#191970" stroke="#191970" points="636.8886,-182.6031 626.3354,-183.5417 635.1706,-189.389 636.8886,-182.6031"/>
</g>
<!-- Node26 -->
<g id="node27" class="node">
<title>Node26</title>
<g id="a_node27"><a xlink:href="ext__apps_2shim_2include_2application_8h.html" target="_top" xlink:title="application.h">
<polygon fill="#ffffff" stroke="#000000" points="724.5444,-110.5 724.5444,-128.5 796.6968,-128.5 796.6968,-110.5 724.5444,-110.5"/>
<text text-anchor="middle" x="760.6206" y="-116.5" font-family="Helvetica,sans-Serif" font-size="10.00" fill="#000000">application.h</text>
</a>
</g>
</g>
<!-- Node0&#45;&gt;Node26 -->
<g id="edge29" class="edge">
<title>Node0&#45;&gt;Node26</title>
<path fill="none" stroke="#191970" d="M810.3609,-220.1678C800.1114,-210.8245 787.599,-197.8303 779.6206,-184 771.5087,-169.9384 766.6033,-152.121 763.8144,-138.7775"/>
<polygon fill="#191970" stroke="#191970" points="767.2271,-137.9864 761.9456,-128.8019 760.3468,-139.2754 767.2271,-137.9864"/>
</g>
<!-- Node27 -->
<g id="node28" class="node">
<title>Node27</title>
<polygon fill="#ffffff" stroke="#bfbfbf" points="878.6528,-165.5 878.6528,-183.5 968.5884,-183.5 968.5884,-165.5 878.6528,-165.5"/>
<text text-anchor="middle" x="923.6206" y="-171.5" font-family="Helvetica,sans-Serif" font-size="10.00" fill="#000000">application_list.h</text>
</g>
<!-- Node0&#45;&gt;Node27 -->
<g id="edge31" class="edge">
<title>Node0&#45;&gt;Node27</title>
<path fill="none" stroke="#191970" d="M850.3713,-220.2808C865.4319,-210.868 885.1286,-198.5575 900.3035,-189.0732"/>
<polygon fill="#191970" stroke="#191970" points="902.4609,-191.8522 909.0859,-183.5842 898.7509,-185.9162 902.4609,-191.8522"/>
</g>
<!-- Node28 -->
<g id="node29" class="node">
<title>Node28</title>
<g id="a_node29"><a xlink:href="application__info_8h.html" target="_top" xlink:title="application_info.h">
<polygon fill="#ffffff" stroke="#000000" points="986.7021,-165.5 986.7021,-183.5 1080.5391,-183.5 1080.5391,-165.5 986.7021,-165.5"/>
<text text-anchor="middle" x="1033.6206" y="-171.5" font-family="Helvetica,sans-Serif" font-size="10.00" fill="#000000">application_info.h</text>
</a>
</g>
</g>
<!-- Node0&#45;&gt;Node28 -->
<g id="edge32" class="edge">
<title>Node0&#45;&gt;Node28</title>
<path fill="none" stroke="#191970" d="M875.9185,-220.4327C911.3754,-210.1054 959.0159,-196.2295 992.6261,-186.4402"/>
<polygon fill="#191970" stroke="#191970" points="993.9551,-189.6986 1002.5773,-183.5417 991.9975,-182.9778 993.9551,-189.6986"/>
</g>
<!-- Node29 -->
<g id="node30" class="node">
<title>Node29</title>
<g id="a_node30"><a xlink:href="str_8h.html" target="_top" xlink:title="str.h">
<polygon fill="#ffffff" stroke="#000000" points="788.1699,-165.5 788.1699,-183.5 823.0713,-183.5 823.0713,-165.5 788.1699,-165.5"/>
<text text-anchor="middle" x="805.6206" y="-171.5" font-family="Helvetica,sans-Serif" font-size="10.00" fill="#000000">str.h</text>
</a>
</g>
</g>
<!-- Node0&#45;&gt;Node29 -->
<g id="edge33" class="edge">
<title>Node0&#45;&gt;Node29</title>
<path fill="none" stroke="#191970" d="M822.4069,-220.2808C819.4439,-212.2 815.6979,-201.9836 812.4967,-193.2531"/>
<polygon fill="#191970" stroke="#191970" points="815.6802,-191.768 808.9515,-183.5842 809.108,-194.1779 815.6802,-191.768"/>
</g>
<!-- Node32 -->
<g id="node33" class="node">
<title>Node32</title>
<g id="a_node33"><a xlink:href="hash_8h.html" target="_top" xlink:title="hash.h">
<polygon fill="#ffffff" stroke="#000000" points="852.6084,-110.5 852.6084,-128.5 898.6328,-128.5 898.6328,-110.5 852.6084,-110.5"/>
<text text-anchor="middle" x="875.6206" y="-116.5" font-family="Helvetica,sans-Serif" font-size="10.00" fill="#000000">hash.h</text>
</a>
</g>
</g>
<!-- Node0&#45;&gt;Node32 -->
<g id="edge55" class="edge">
<title>Node0&#45;&gt;Node32</title>
<path fill="none" stroke="#191970" d="M833.5063,-220.3987C842.1466,-199.6982 858.2753,-161.0564 867.8703,-138.0684"/>
<polygon fill="#191970" stroke="#191970" points="871.1467,-139.3052 871.7687,-128.7286 864.6868,-136.6089 871.1467,-139.3052"/>
</g>
<!-- Node33 -->
<g id="node34" class="node">
<title>Node33</title>
<polygon fill="#ffffff" stroke="#bfbfbf" points="1098.3867,-165.5 1098.3867,-183.5 1148.8545,-183.5 1148.8545,-165.5 1098.3867,-165.5"/>
<text text-anchor="middle" x="1123.6206" y="-171.5" font-family="Helvetica,sans-Serif" font-size="10.00" fill="#000000">signal.h</text>
</g>
<!-- Node0&#45;&gt;Node33 -->
<g id="edge57" class="edge">
<title>Node0&#45;&gt;Node33</title>
<path fill="none" stroke="#191970" d="M885.1515,-224.8115C936.1391,-215.9082 1012.7984,-201.7514 1087.9484,-184.2605"/>
<polygon fill="#191970" stroke="#191970" points="1089.1249,-187.5794 1098.0591,-181.8846 1087.5235,-180.765 1089.1249,-187.5794"/>
</g>
<!-- Node2 -->
<g id="node3" class="node">
<title>Node2</title>
<polygon fill="#ffffff" stroke="#bfbfbf" points="602.8892,-.5 602.8892,-18.5 648.3521,-18.5 648.3521,-.5 602.8892,-.5"/>
<text text-anchor="middle" x="625.6206" y="-6.5" font-family="Helvetica,sans-Serif" font-size="10.00" fill="#000000">stdio.h</text>
</g>
<!-- Node1&#45;&gt;Node2 -->
<g id="edge2" class="edge">
<title>Node1&#45;&gt;Node2</title>
<path fill="none" stroke="#191970" d="M674.878,-55.4179C666.2189,-47.3458 653.3566,-35.3556 642.947,-25.6517"/>
<polygon fill="#191970" stroke="#191970" points="645.2762,-23.0381 635.5749,-18.7795 640.5031,-28.1584 645.2762,-23.0381"/>
</g>
<!-- Node3 -->
<g id="node4" class="node">
<title>Node3</title>
<polygon fill="#ffffff" stroke="#bfbfbf" points="666.1084,-.5 666.1084,-18.5 717.1328,-18.5 717.1328,-.5 666.1084,-.5"/>
<text text-anchor="middle" x="691.6206" y="-6.5" font-family="Helvetica,sans-Serif" font-size="10.00" fill="#000000">unistd.h</text>
</g>
<!-- Node1&#45;&gt;Node3 -->
<g id="edge3" class="edge">
<title>Node1&#45;&gt;Node3</title>
<path fill="none" stroke="#191970" d="M685.7765,-55.4179C686.6931,-48.2164 688.0065,-37.8962 689.1562,-28.8632"/>
<polygon fill="#191970" stroke="#191970" points="692.6489,-29.1414 690.4396,-18.7795 685.705,-28.2575 692.6489,-29.1414"/>
</g>
<!-- Node4 -->
<g id="node5" class="node">
<title>Node4</title>
<polygon fill="#ffffff" stroke="#bfbfbf" points="734.7783,-.5 734.7783,-18.5 782.4629,-18.5 782.4629,-.5 734.7783,-.5"/>
<text text-anchor="middle" x="758.6206" y="-6.5" font-family="Helvetica,sans-Serif" font-size="10.00" fill="#000000">stdlib.h</text>
</g>
<!-- Node1&#45;&gt;Node4 -->
<g id="edge4" class="edge">
<title>Node1&#45;&gt;Node4</title>
<path fill="none" stroke="#191970" d="M696.8402,-55.4179C708.0875,-47.0584 724.9888,-34.4966 738.2721,-24.6239"/>
<polygon fill="#191970" stroke="#191970" points="740.4447,-27.37 746.3829,-18.5956 736.269,-21.7518 740.4447,-27.37"/>
</g>
<!-- Node5 -->
<g id="node6" class="node">
<title>Node5</title>
<polygon fill="#ffffff" stroke="#bfbfbf" points="800.2241,-.5 800.2241,-18.5 849.0171,-18.5 849.0171,-.5 800.2241,-.5"/>
<text text-anchor="middle" x="824.6206" y="-6.5" font-family="Helvetica,sans-Serif" font-size="10.00" fill="#000000">string.h</text>
</g>
<!-- Node1&#45;&gt;Node5 -->
<g id="edge5" class="edge">
<title>Node1&#45;&gt;Node5</title>
<path fill="none" stroke="#191970" d="M707.7388,-55.4179C730.74,-46.3817 766.2399,-32.4353 792.0827,-22.2828"/>
<polygon fill="#191970" stroke="#191970" points="793.4404,-25.5098 801.4681,-18.5956 790.8808,-18.9946 793.4404,-25.5098"/>
</g>
<!-- Node6 -->
<g id="node7" class="node">
<title>Node6</title>
<polygon fill="#ffffff" stroke="#bfbfbf" points="866.5542,-.5 866.5542,-18.5 918.687,-18.5 918.687,-.5 866.5542,-.5"/>
<text text-anchor="middle" x="892.6206" y="-6.5" font-family="Helvetica,sans-Serif" font-size="10.00" fill="#000000">stdarg.h</text>
</g>
<!-- Node1&#45;&gt;Node6 -->
<g id="edge6" class="edge">
<title>Node1&#45;&gt;Node6</title>
<path fill="none" stroke="#191970" d="M716.2088,-56.2717C748.9409,-47.7279 801.84,-33.8715 856.4099,-19.3101"/>
<polygon fill="#191970" stroke="#191970" points="857.4954,-22.643 866.2533,-16.6806 855.6888,-15.8801 857.4954,-22.643"/>
</g>
<!-- Node7 -->
<g id="node8" class="node">
<title>Node7</title>
<polygon fill="#ffffff" stroke="#bfbfbf" points="936.5,-.5 936.5,-18.5 984.7412,-18.5 984.7412,-.5 936.5,-.5"/>
<text text-anchor="middle" x="960.6206" y="-6.5" font-family="Helvetica,sans-Serif" font-size="10.00" fill="#000000">stdint.h</text>
</g>
<!-- Node1&#45;&gt;Node7 -->
<g id="edge7" class="edge">
<title>Node1&#45;&gt;Node7</title>
<path fill="none" stroke="#191970" d="M716.2781,-59.5612C761.0308,-52.3652 845.5117,-37.996 926.3441,-19.1382"/>
<polygon fill="#191970" stroke="#191970" points="927.2522,-22.5201 936.1807,-16.8163 925.6441,-15.7073 927.2522,-22.5201"/>
</g>
<!-- Node8 -->
<g id="node9" class="node">
<title>Node8</title>
<polygon fill="#ffffff" stroke="#bfbfbf" points="1002.4927,-.5 1002.4927,-18.5 1060.7485,-18.5 1060.7485,-.5 1002.4927,-.5"/>
<text text-anchor="middle" x="1031.6206" y="-6.5" font-family="Helvetica,sans-Serif" font-size="10.00" fill="#000000">pthread.h</text>
</g>
<!-- Node1&#45;&gt;Node8 -->
<g id="edge8" class="edge">
<title>Node1&#45;&gt;Node8</title>
<path fill="none" stroke="#191970" d="M716.3803,-60.8743C770.8749,-54.4268 885.8529,-39.8361 992.2858,-19.112"/>
<polygon fill="#191970" stroke="#191970" points="993.0921,-22.5205 1002.2268,-17.1532 991.7388,-15.6525 993.0921,-22.5205"/>
</g>
<!-- Node9 -->
<g id="node10" class="node">
<title>Node9</title>
<polygon fill="#ffffff" stroke="#bfbfbf" points="1078.5,-.5 1078.5,-18.5 1126.7412,-18.5 1126.7412,-.5 1078.5,-.5"/>
<text text-anchor="middle" x="1102.6206" y="-6.5" font-family="Helvetica,sans-Serif" font-size="10.00" fill="#000000">ctype.h</text>
</g>
<!-- Node1&#45;&gt;Node9 -->
<g id="edge9" class="edge">
<title>Node1&#45;&gt;Node9</title>
<path fill="none" stroke="#191970" d="M716.0301,-61.4542C792.0399,-53.9808 985.1761,-34.3538 1068.192,-18.9545"/>
<polygon fill="#191970" stroke="#191970" points="1069.0742,-22.3485 1078.2217,-17.0031 1067.7373,-15.4774 1069.0742,-22.3485"/>
</g>
<!-- Node10 -->
<g id="node11" class="node">
<title>Node10</title>
<polygon fill="#ffffff" stroke="#bfbfbf" points="1144.7783,-.5 1144.7783,-18.5 1192.4629,-18.5 1192.4629,-.5 1144.7783,-.5"/>
<text text-anchor="middle" x="1168.6206" y="-6.5" font-family="Helvetica,sans-Serif" font-size="10.00" fill="#000000">errno.h</text>
</g>
<!-- Node1&#45;&gt;Node10 -->
<g id="edge10" class="edge">
<title>Node1&#45;&gt;Node10</title>
<path fill="none" stroke="#191970" d="M716.0786,-61.483C808.1276,-52.6356 1073.8167,-26.9558 1134.5037,-18.5535"/>
<polygon fill="#191970" stroke="#191970" points="1135.2608,-21.9774 1144.5914,-16.9584 1134.1674,-15.0633 1135.2608,-21.9774"/>
</g>
<!-- Node11 -->
<g id="node12" class="node">
<title>Node11</title>
<polygon fill="#ffffff" stroke="#bfbfbf" points="1209.9927,-.5 1209.9927,-18.5 1273.2485,-18.5 1273.2485,-.5 1209.9927,-.5"/>
<text text-anchor="middle" x="1241.6206" y="-6.5" font-family="Helvetica,sans-Serif" font-size="10.00" fill="#000000">arpa/inet.h</text>
</g>
<!-- Node1&#45;&gt;Node11 -->
<g id="edge11" class="edge">
<title>Node1&#45;&gt;Node11</title>
<path fill="none" stroke="#191970" d="M716.1411,-61.4356C735.8243,-59.5393 761.6948,-57.0785 784.6206,-55 966.6269,-38.4986 1016.2308,-48.2161 1199.8424,-19.0969"/>
<polygon fill="#191970" stroke="#191970" points="1200.5085,-22.5349 1209.8285,-17.4962 1199.4005,-15.6231 1200.5085,-22.5349"/>
</g>
<!-- Node12 -->
<g id="node13" class="node">
<title>Node12</title>
<polygon fill="#ffffff" stroke="#bfbfbf" points="1291.1577,-.5 1291.1577,-18.5 1356.0835,-18.5 1356.0835,-.5 1291.1577,-.5"/>
<text text-anchor="middle" x="1323.6206" y="-6.5" font-family="Helvetica,sans-Serif" font-size="10.00" fill="#000000">netinet/in.h</text>
</g>
<!-- Node1&#45;&gt;Node12 -->
<g id="edge12" class="edge">
<title>Node1&#45;&gt;Node12</title>
<path fill="none" stroke="#191970" d="M716.1313,-61.323C735.8108,-59.3843 761.6808,-56.9185 784.6206,-55 1002.5201,-36.7762 1061.4812,-51.6949 1281.1314,-19.021"/>
<polygon fill="#191970" stroke="#191970" points="1281.6666,-22.48 1291.0351,-17.532 1280.6258,-15.5578 1281.6666,-22.48"/>
</g>
<!-- Node13 -->
<g id="node14" class="node">
<title>Node13</title>
<polygon fill="#ffffff" stroke="#bfbfbf" points="1373.7637,-.5 1373.7637,-18.5 1451.4775,-18.5 1451.4775,-.5 1373.7637,-.5"/>
<text text-anchor="middle" x="1412.6206" y="-6.5" font-family="Helvetica,sans-Serif" font-size="10.00" fill="#000000">net/ethernet.h</text>
</g>
<!-- Node1&#45;&gt;Node13 -->
<g id="edge13" class="edge">
<title>Node1&#45;&gt;Node13</title>
<path fill="none" stroke="#191970" d="M716.1246,-61.2408C735.8016,-59.2713 761.6714,-56.8018 784.6206,-55 1038.8333,-35.0409 1106.7662,-51.711 1363.6552,-18.9512"/>
<polygon fill="#191970" stroke="#191970" points="1364.1884,-22.4115 1373.6594,-17.6627 1363.2942,-15.4688 1364.1884,-22.4115"/>
</g>
<!-- Node14 -->
<g id="node15" class="node">
<title>Node14</title>
<polygon fill="#ffffff" stroke="#bfbfbf" points="61.1577,-.5 61.1577,-18.5 126.0835,-18.5 126.0835,-.5 61.1577,-.5"/>
<text text-anchor="middle" x="93.6206" y="-6.5" font-family="Helvetica,sans-Serif" font-size="10.00" fill="#000000">netinet/ip.h</text>
</g>
<!-- Node1&#45;&gt;Node14 -->
<g id="edge14" class="edge">
<title>Node1&#45;&gt;Node14</title>
<path fill="none" stroke="#191970" d="M653.1814,-63.4326C570.259,-60.2912 338.6829,-49.4095 136.0269,-18.8345"/>
<polygon fill="#191970" stroke="#191970" points="136.5082,-15.3675 126.0942,-17.3164 135.4506,-22.2872 136.5082,-15.3675"/>
</g>
<!-- Node15 -->
<g id="node16" class="node">
<title>Node15</title>
<polygon fill="#ffffff" stroke="#bfbfbf" points="144.3794,-.5 144.3794,-18.5 214.8618,-18.5 214.8618,-.5 144.3794,-.5"/>
<text text-anchor="middle" x="179.6206" y="-6.5" font-family="Helvetica,sans-Serif" font-size="10.00" fill="#000000">netinet/tcp.h</text>
</g>
<!-- Node1&#45;&gt;Node15 -->
<g id="edge15" class="edge">
<title>Node1&#45;&gt;Node15</title>
<path fill="none" stroke="#191970" d="M653.1616,-62.6393C579.8182,-58.0362 391.6578,-44.6971 225.0282,-19.07"/>
<polygon fill="#191970" stroke="#191970" points="225.5164,-15.6039 215.097,-17.5238 224.4395,-22.5206 225.5164,-15.6039"/>
</g>
<!-- Node16 -->
<g id="node17" class="node">
<title>Node16</title>
<polygon fill="#ffffff" stroke="#bfbfbf" points="232.8203,-.5 232.8203,-18.5 324.4209,-18.5 324.4209,-.5 232.8203,-.5"/>
<text text-anchor="middle" x="278.6206" y="-6.5" font-family="Helvetica,sans-Serif" font-size="10.00" fill="#000000">netinet/ip_icmp.h</text>
</g>
<!-- Node1&#45;&gt;Node16 -->
<g id="edge16" class="edge">
<title>Node1&#45;&gt;Node16</title>
<path fill="none" stroke="#191970" d="M653.0948,-60.8649C593.1829,-53.8594 458.5343,-37.6501 334.5602,-19.0887"/>
<polygon fill="#191970" stroke="#191970" points="334.923,-15.604 324.5132,-17.5757 333.8805,-22.5259 334.923,-15.604"/>
</g>
<!-- Node17 -->
<g id="node18" class="node">
<title>Node17</title>
<polygon fill="#ffffff" stroke="#bfbfbf" points="342.2168,-.5 342.2168,-18.5 401.0244,-18.5 401.0244,-.5 342.2168,-.5"/>
<text text-anchor="middle" x="371.6206" y="-6.5" font-family="Helvetica,sans-Serif" font-size="10.00" fill="#000000">jansson.h</text>
</g>
<!-- Node1&#45;&gt;Node17 -->
<g id="edge17" class="edge">
<title>Node1&#45;&gt;Node17</title>
<path fill="none" stroke="#191970" d="M653.1236,-60.1366C603.6108,-53.0941 504.3676,-38.2395 410.9217,-19.1441"/>
<polygon fill="#191970" stroke="#191970" points="411.5261,-15.6952 401.025,-17.101 410.1108,-22.5506 411.5261,-15.6952"/>
</g>
<!-- Node18 -->
<g id="node19" class="node">
<title>Node18</title>
<polygon fill="#ffffff" stroke="#bfbfbf" points="418.7266,-.5 418.7266,-18.5 462.5146,-18.5 462.5146,-.5 418.7266,-.5"/>
<text text-anchor="middle" x="440.6206" y="-6.5" font-family="Helvetica,sans-Serif" font-size="10.00" fill="#000000">libcli.h</text>
</g>
<!-- Node1&#45;&gt;Node18 -->
<g id="edge18" class="edge">
<title>Node1&#45;&gt;Node18</title>
<path fill="none" stroke="#191970" d="M653.0217,-58.6413C613.1304,-51.0512 542.2279,-36.9185 472.41,-19.0325"/>
<polygon fill="#191970" stroke="#191970" points="473.127,-15.6028 462.5689,-16.4841 471.3721,-22.3793 473.127,-15.6028"/>
</g>
<!-- Node19 -->
<g id="node20" class="node">
<title>Node19</title>
<polygon fill="#ffffff" stroke="#bfbfbf" points="481.0049,-.5 481.0049,-18.5 524.2363,-18.5 524.2363,-.5 481.0049,-.5"/>
<text text-anchor="middle" x="502.6206" y="-6.5" font-family="Helvetica,sans-Serif" font-size="10.00" fill="#000000">zmq.h</text>
</g>
<!-- Node1&#45;&gt;Node19 -->
<g id="edge19" class="edge">
<title>Node1&#45;&gt;Node19</title>
<path fill="none" stroke="#191970" d="M654.0082,-55.4911C625.2615,-46.9972 580.8094,-33.7761 533.9522,-19.3811"/>
<polygon fill="#191970" stroke="#191970" points="534.825,-15.9878 524.2379,-16.3904 532.7653,-22.6779 534.825,-15.9878"/>
</g>
<!-- Node20 -->
<g id="node21" class="node">
<title>Node20</title>
<g id="a_node21"><a xlink:href="ext__apps_2shim_2include_2type_8h.html" target="_top" xlink:title="type.h">
<polygon fill="#ffffff" stroke="#000000" points="0,-.5 0,-18.5 43.2412,-18.5 43.2412,-.5 0,-.5"/>
<text text-anchor="middle" x="21.6206" y="-6.5" font-family="Helvetica,sans-Serif" font-size="10.00" fill="#000000">type.h</text>
</a>
</g>
</g>
<!-- Node1&#45;&gt;Node20 -->
<g id="edge20" class="edge">
<title>Node1&#45;&gt;Node20</title>
<path fill="none" stroke="#191970" d="M653.2553,-63.1793C545.2873,-58.4907 188.6976,-41.7888 53.5841,-18.6865"/>
<polygon fill="#191970" stroke="#191970" points="53.9453,-15.1953 43.4833,-16.868 52.7049,-22.0846 53.9453,-15.1953"/>
</g>
<!-- Node21 -->
<g id="node22" class="node">
<title>Node21</title>
<polygon fill="#ffffff" stroke="#bfbfbf" points="542.0049,-.5 542.0049,-18.5 585.2363,-18.5 585.2363,-.5 542.0049,-.5"/>
<text text-anchor="middle" x="563.6206" y="-6.5" font-family="Helvetica,sans-Serif" font-size="10.00" fill="#000000">time.h</text>
</g>
<!-- Node1&#45;&gt;Node21 -->
<g id="edge21" class="edge">
<title>Node1&#45;&gt;Node21</title>
<path fill="none" stroke="#191970" d="M664.6399,-55.4179C645.1106,-46.5409 615.1562,-32.9253 592.9311,-22.823"/>
<polygon fill="#191970" stroke="#191970" points="594.183,-19.5474 583.631,-18.5956 591.2863,-25.92 594.183,-19.5474"/>
</g>
<!-- Node22&#45;&gt;Node1 -->
<g id="edge23" class="edge">
<title>Node22&#45;&gt;Node1</title>
<path fill="none" stroke="#191970" d="M574.4354,-165.4734C554.432,-153.1436 524.7502,-130.2516 539.6206,-110 552.0201,-93.1135 604.8359,-79.6682 643.1521,-71.8931"/>
<polygon fill="#191970" stroke="#191970" points="643.9024,-75.3126 653.0375,-69.9461 642.5497,-68.4446 643.9024,-75.3126"/>
</g>
<!-- Node23 -->
<g id="node24" class="node">
<title>Node23</title>
<g id="a_node24"><a xlink:href="ext__apps_2shim_2include_2context_8h.html" target="_top" xlink:title="context.h">
<polygon fill="#ffffff" stroke="#000000" points="650.3301,-110.5 650.3301,-128.5 706.9111,-128.5 706.9111,-110.5 650.3301,-110.5"/>
<text text-anchor="middle" x="678.6206" y="-116.5" font-family="Helvetica,sans-Serif" font-size="10.00" fill="#000000">context.h</text>
</a>
</g>
</g>
<!-- Node22&#45;&gt;Node23 -->
<g id="edge24" class="edge">
<title>Node22&#45;&gt;Node23</title>
<path fill="none" stroke="#191970" d="M605.152,-165.4179C618.782,-156.8992 639.3941,-144.0166 655.3202,-134.0627"/>
<polygon fill="#191970" stroke="#191970" points="657.4426,-136.8637 664.0676,-128.5956 653.7326,-130.9277 657.4426,-136.8637"/>
</g>
<!-- Node24 -->
<g id="node25" class="node">
<title>Node24</title>
<g id="a_node25"><a xlink:href="ext__apps_2shim_2include_2app__event__id_8h.html" target="_top" xlink:title="app_event_id.h">
<polygon fill="#ffffff" stroke="#000000" points="548.4238,-110.5 548.4238,-128.5 632.8174,-128.5 632.8174,-110.5 548.4238,-110.5"/>
<text text-anchor="middle" x="590.6206" y="-116.5" font-family="Helvetica,sans-Serif" font-size="10.00" fill="#000000">app_event_id.h</text>
</a>
</g>
</g>
<!-- Node22&#45;&gt;Node24 -->
<g id="edge26" class="edge">
<title>Node22&#45;&gt;Node24</title>
<path fill="none" stroke="#191970" d="M590.6206,-165.4179C590.6206,-158.2164 590.6206,-147.8962 590.6206,-138.8632"/>
<polygon fill="#191970" stroke="#191970" points="594.1207,-138.7794 590.6206,-128.7795 587.1207,-138.7795 594.1207,-138.7794"/>
</g>
<!-- Node25 -->
<g id="node26" class="node">
<title>Node25</title>
<g id="a_node26"><a xlink:href="ext__apps_2shim_2include_2app__event__list_8h.html" target="_top" xlink:title="app_event_list.h">
<polygon fill="#ffffff" stroke="#000000" points="208.2046,-55.5 208.2046,-73.5 297.0366,-73.5 297.0366,-55.5 208.2046,-55.5"/>
<text text-anchor="middle" x="252.6206" y="-61.5" font-family="Helvetica,sans-Serif" font-size="10.00" fill="#000000">app_event_list.h</text>
</a>
</g>
</g>
<!-- Node22&#45;&gt;Node25 -->
<g id="edge27" class="edge">
<title>Node22&#45;&gt;Node25</title>
<path fill="none" stroke="#191970" d="M562.9606,-165.4982C502.5505,-145.8381 358.7565,-99.0413 290.2111,-76.7336"/>
<polygon fill="#191970" stroke="#191970" points="291.255,-73.3927 280.6628,-73.6261 289.0887,-80.0491 291.255,-73.3927"/>
</g>
<!-- Node23&#45;&gt;Node1 -->
<g id="edge25" class="edge">
<title>Node23&#45;&gt;Node1</title>
<path fill="none" stroke="#191970" d="M679.6114,-110.4179C680.397,-103.2164 681.5228,-92.8962 682.5083,-83.8632"/>
<polygon fill="#191970" stroke="#191970" points="686.0031,-84.1001 683.6083,-73.7795 679.0444,-83.3409 686.0031,-84.1001"/>
</g>
<!-- Node25&#45;&gt;Node20 -->
<g id="edge28" class="edge">
<title>Node25&#45;&gt;Node20</title>
<path fill="none" stroke="#191970" d="M208.6961,-55.4806C170.1663,-47.3512 112.4394,-34.6464 53.1548,-18.9902"/>
<polygon fill="#191970" stroke="#191970" points="53.8063,-15.5417 43.2423,-16.3483 52.0036,-22.3056 53.8063,-15.5417"/>
</g>
<!-- Node26&#45;&gt;Node1 -->
<g id="edge30" class="edge">
<title>Node26&#45;&gt;Node1</title>
<path fill="none" stroke="#191970" d="M748.0708,-110.4179C736.5195,-102.0584 719.1614,-89.4966 705.5191,-79.6239"/>
<polygon fill="#191970" stroke="#191970" points="707.3422,-76.6229 697.1891,-73.5956 703.2383,-82.2938 707.3422,-76.6229"/>
</g>
<!-- Node30 -->
<g id="node31" class="node">
<title>Node30</title>
<g id="a_node31"><a xlink:href="src_2include_2common_8h.html" target="_top" xlink:title="common.h">
<polygon fill="#ffffff" stroke="#000000" points="793.2783,-55.5 793.2783,-73.5 855.9629,-73.5 855.9629,-55.5 793.2783,-55.5"/>
<text text-anchor="middle" x="824.6206" y="-61.5" font-family="Helvetica,sans-Serif" font-size="10.00" fill="#000000">common.h</text>
</a>
</g>
</g>
<!-- Node29&#45;&gt;Node30 -->
<g id="edge34" class="edge">
<title>Node29&#45;&gt;Node30</title>
<path fill="none" stroke="#191970" d="M807.1755,-165.4982C810.2512,-147.6913 817.1722,-107.6225 821.3126,-83.6515"/>
<polygon fill="#191970" stroke="#191970" points="824.7911,-84.076 823.0443,-73.6261 817.8932,-82.8845 824.7911,-84.076"/>
</g>
<!-- Node30&#45;&gt;Node2 -->
<g id="edge35" class="edge">
<title>Node30&#45;&gt;Node2</title>
<path fill="none" stroke="#191970" d="M793.2622,-56.3366C761.4328,-47.9783 710.5031,-34.4071 658.3638,-19.4481"/>
<polygon fill="#191970" stroke="#191970" points="659.1966,-16.0457 648.6185,-16.6397 657.2582,-22.772 659.1966,-16.0457"/>
</g>
<!-- Node30&#45;&gt;Node3 -->
<g id="edge36" class="edge">
<title>Node30&#45;&gt;Node3</title>
<path fill="none" stroke="#191970" d="M802.6584,-55.4179C780.9034,-46.4215 747.3792,-32.5581 722.8567,-22.4172"/>
<polygon fill="#191970" stroke="#191970" points="724.194,-19.1828 713.6155,-18.5956 721.519,-25.6515 724.194,-19.1828"/>
</g>
<!-- Node30&#45;&gt;Node4 -->
<g id="edge37" class="edge">
<title>Node30&#45;&gt;Node4</title>
<path fill="none" stroke="#191970" d="M813.722,-55.4179C803.9407,-47.2667 789.3648,-35.1201 777.6609,-25.3669"/>
<polygon fill="#191970" stroke="#191970" points="779.6788,-22.4926 769.756,-18.7795 775.1975,-27.8701 779.6788,-22.4926"/>
</g>
<!-- Node30&#45;&gt;Node5 -->
<g id="edge38" class="edge">
<title>Node30&#45;&gt;Node5</title>
<path fill="none" stroke="#191970" d="M824.6206,-55.4179C824.6206,-48.2164 824.6206,-37.8962 824.6206,-28.8632"/>
<polygon fill="#191970" stroke="#191970" points="828.1207,-28.7794 824.6206,-18.7795 821.1207,-28.7795 828.1207,-28.7794"/>
</g>
<!-- Node30&#45;&gt;Node6 -->
<g id="edge39" class="edge">
<title>Node30&#45;&gt;Node6</title>
<path fill="none" stroke="#191970" d="M835.8494,-55.4179C846.0251,-47.1876 861.2369,-34.8839 873.3537,-25.0836"/>
<polygon fill="#191970" stroke="#191970" points="875.5737,-27.7895 881.1478,-18.7795 871.1716,-22.3469 875.5737,-27.7895"/>
</g>
<!-- Node30&#45;&gt;Node7 -->
<g id="edge40" class="edge">
<title>Node30&#45;&gt;Node7</title>
<path fill="none" stroke="#191970" d="M847.0782,-55.4179C869.3239,-46.4215 903.6043,-32.5581 928.68,-22.4172"/>
<polygon fill="#191970" stroke="#191970" points="930.1712,-25.5895 938.1296,-18.5956 927.5468,-19.1001 930.1712,-25.5895"/>
</g>
<!-- Node30&#45;&gt;Node8 -->
<g id="edge41" class="edge">
<title>Node30&#45;&gt;Node8</title>
<path fill="none" stroke="#191970" d="M856.0595,-56.1467C892.5789,-46.4435 952.8604,-30.4266 992.4084,-19.9187"/>
<polygon fill="#191970" stroke="#191970" points="993.4697,-23.2582 1002.2355,-17.3076 991.6721,-16.493 993.4697,-23.2582"/>
</g>
<!-- Node30&#45;&gt;Node9 -->
<g id="edge42" class="edge">
<title>Node30&#45;&gt;Node9</title>
<path fill="none" stroke="#191970" d="M856.1503,-59.6459C901.1665,-52.4987 986.6106,-38.1314 1068.2478,-19.157"/>
<polygon fill="#191970" stroke="#191970" points="1069.2488,-22.5172 1078.1817,-16.8204 1067.6459,-15.7031 1069.2488,-22.5172"/>
</g>
<!-- Node30&#45;&gt;Node10 -->
<g id="edge43" class="edge">
<title>Node30&#45;&gt;Node10</title>
<path fill="none" stroke="#191970" d="M856.2142,-61.305C910.9881,-55.4594 1027.2291,-41.7042 1134.5431,-18.9855"/>
<polygon fill="#191970" stroke="#191970" points="1135.5241,-22.3546 1144.5655,-16.8315 1134.0532,-15.5109 1135.5241,-22.3546"/>
</g>
<!-- Node30&#45;&gt;Node11 -->
<g id="edge44" class="edge">
<title>Node30&#45;&gt;Node11</title>
<path fill="none" stroke="#191970" d="M856.0781,-61.9154C919.4178,-56.4518 1066.9776,-42.4146 1199.8643,-19.1604"/>
<polygon fill="#191970" stroke="#191970" points="1200.5761,-22.5889 1209.8117,-17.3973 1199.3543,-15.6964 1200.5761,-22.5889"/>
</g>
<!-- Node30&#45;&gt;Node12 -->
<g id="edge45" class="edge">
<title>Node30&#45;&gt;Node12</title>
<path fill="none" stroke="#191970" d="M856.1771,-62.7682C929.2216,-58.4609 1115.6994,-45.7531 1280.6887,-19.1417"/>
<polygon fill="#191970" stroke="#191970" points="1281.7183,-22.5199 1291.0224,-17.4519 1280.5886,-15.6116 1281.7183,-22.5199"/>
</g>
<!-- Node30&#45;&gt;Node13 -->
<g id="edge46" class="edge">
<title>Node30&#45;&gt;Node13</title>
<path fill="none" stroke="#191970" d="M856.1049,-63.0747C938.0417,-59.1047 1164.7707,-46.4545 1363.6043,-18.9935"/>
<polygon fill="#191970" stroke="#191970" points="1364.2301,-22.4401 1373.6496,-17.59 1363.2615,-15.5075 1364.2301,-22.4401"/>
</g>
<!-- Node30&#45;&gt;Node14 -->
<g id="edge47" class="edge">
<title>Node30&#45;&gt;Node14</title>
<path fill="none" stroke="#191970" d="M793.1172,-61.2332C773.4404,-59.2608 747.5707,-56.791 724.6206,-55 466.4687,-34.8543 397.0116,-55.5128 136.2389,-18.8306"/>
<polygon fill="#191970" stroke="#191970" points="136.4769,-15.3293 126.0838,-17.3869 135.4916,-22.2596 136.4769,-15.3293"/>
</g>
<!-- Node30&#45;&gt;Node15 -->
<g id="edge48" class="edge">
<title>Node30&#45;&gt;Node15</title>
<path fill="none" stroke="#191970" d="M793.1102,-61.3195C773.4308,-59.3796 747.5608,-56.9136 724.6206,-55 505.4113,-36.7142 446.3297,-50.2267 225.0615,-19.0273"/>
<polygon fill="#191970" stroke="#191970" points="225.4784,-15.5514 215.0846,-17.6059 224.491,-22.4814 225.4784,-15.5514"/>
</g>
<!-- Node30&#45;&gt;Node16 -->
<g id="edge49" class="edge">
<title>Node30&#45;&gt;Node16</title>
<path fill="none" stroke="#191970" d="M793.0959,-61.4815C773.4111,-59.6026 747.5404,-57.1438 724.6206,-55 554.0902,-39.0493 508.3146,-41.7604 334.4927,-19.0208"/>
<polygon fill="#191970" stroke="#191970" points="334.8667,-15.54 324.4951,-17.7036 333.9522,-22.48 334.8667,-15.54"/>
</g>
<!-- Node30&#45;&gt;Node17 -->
<g id="edge50" class="edge">
<title>Node30&#45;&gt;Node17</title>
<path fill="none" stroke="#191970" d="M793.1887,-61.303C708.2361,-52.6292 476.5334,-28.7437 411.5328,-19.001"/>
<polygon fill="#191970" stroke="#191970" points="411.8411,-15.5052 401.4087,-17.3533 410.7166,-22.4143 411.8411,-15.5052"/>
</g>
<!-- Node30&#45;&gt;Node18 -->
<g id="edge51" class="edge">
<title>Node30&#45;&gt;Node18</title>
<path fill="none" stroke="#191970" d="M793.1021,-61.1301C721.8632,-53.4064 549.3058,-34.0727 472.6712,-18.8329"/>
<polygon fill="#191970" stroke="#191970" points="473.0193,-15.3301 462.5149,-16.7113 471.5879,-22.1822 473.0193,-15.3301"/>
</g>
<!-- Node30&#45;&gt;Node19 -->
<g id="edge52" class="edge">
<title>Node30&#45;&gt;Node19</title>
<path fill="none" stroke="#191970" d="M793.2049,-61.1936C741.1147,-55.3701 633.5012,-41.8959 534.3438,-19.1451"/>
<polygon fill="#191970" stroke="#191970" points="535.0022,-15.7048 524.4686,-16.8414 533.4119,-22.5218 535.0022,-15.7048"/>
</g>
<!-- Node30&#45;&gt;Node21 -->
<g id="edge54" class="edge">
<title>Node30&#45;&gt;Node21</title>
<path fill="none" stroke="#191970" d="M792.9845,-59.4266C750.0861,-52.2962 670.9417,-38.2549 595.1915,-19.2096"/>
<polygon fill="#191970" stroke="#191970" points="596.0484,-15.8162 585.4938,-16.7386 594.3199,-22.5994 596.0484,-15.8162"/>
</g>
<!-- Node31 -->
<g id="node32" class="node">
<title>Node31</title>
<g id="a_node32"><a xlink:href="src_2include_2type_8h.html" target="_top" xlink:title="type.h">
<polygon fill="#ffffff" stroke="#000000" points="1469,-.5 1469,-18.5 1512.2412,-18.5 1512.2412,-.5 1469,-.5"/>
<text text-anchor="middle" x="1490.6206" y="-6.5" font-family="Helvetica,sans-Serif" font-size="10.00" fill="#000000">type.h</text>
</a>
</g>
</g>
<!-- Node30&#45;&gt;Node31 -->
<g id="edge53" class="edge">
<title>Node30&#45;&gt;Node31</title>
<path fill="none" stroke="#191970" d="M856.1916,-63.2253C964.8665,-58.6881 1323.7814,-42.4264 1458.7355,-18.9098"/>
<polygon fill="#191970" stroke="#191970" points="1459.6158,-22.3068 1468.8186,-17.0572 1458.3507,-15.422 1459.6158,-22.3068"/>
</g>
<!-- Node32&#45;&gt;Node30 -->
<g id="edge56" class="edge">
<title>Node32&#45;&gt;Node30</title>
<path fill="none" stroke="#191970" d="M867.199,-110.4179C859.8608,-102.5041 849.0304,-90.8243 840.1293,-81.2251"/>
<polygon fill="#191970" stroke="#191970" points="842.5911,-78.7324 833.2252,-73.7795 837.4582,-83.492 842.5911,-78.7324"/>
</g>
</g>
</svg>
