<?xml version="1.0" encoding="UTF-8" standalone="no"?>
<!DOCTYPE svg PUBLIC "-//W3C//DTD SVG 1.1//EN"
 "http://www.w3.org/Graphics/SVG/1.1/DTD/svg11.dtd">
<!-- Generated by graphviz version 2.40.1 (20161225.0304)
 -->
<!-- Title: ext_comps/shim/include/common.h Pages: 1 -->
<svg width="2470pt" height="257pt"
 viewBox="0.00 0.00 2469.75 257.00" xmlns="http://www.w3.org/2000/svg" xmlns:xlink="http://www.w3.org/1999/xlink">
<g id="graph0" class="graph" transform="scale(1 1) rotate(0) translate(4 253)">
<title>ext_comps/shim/include/common.h</title>
<polygon fill="#ffffff" stroke="transparent" points="-4,4 -4,-253 2465.7479,-253 2465.7479,4 -4,4"/>
<!-- Node0 -->
<g id="node1" class="node">
<title>Node0</title>
<polygon fill="#bfbfbf" stroke="#000000" points="1117.7704,-220.5 1117.7704,-248.5 1240.4843,-248.5 1240.4843,-220.5 1117.7704,-220.5"/>
<text text-anchor="start" x="1125.7704" y="-236.5" font-family="Helvetica,sans-Serif" font-size="10.00" fill="#000000">ext_comps/shim/include</text>
<text text-anchor="middle" x="1179.1273" y="-226.5" font-family="Helvetica,sans-Serif" font-size="10.00" fill="#000000">/common.h</text>
</g>
<!-- Node1 -->
<g id="node2" class="node">
<title>Node1</title>
<polygon fill="#ffffff" stroke="#bfbfbf" points="1065.3959,-.5 1065.3959,-18.5 1110.8588,-18.5 1110.8588,-.5 1065.3959,-.5"/>
<text text-anchor="middle" x="1088.1273" y="-6.5" font-family="Helvetica,sans-Serif" font-size="10.00" fill="#000000">stdio.h</text>
</g>
<!-- Node0&#45;&gt;Node1 -->
<g id="edge1" class="edge">
<title>Node0&#45;&gt;Node1</title>
<path fill="none" stroke="#191970" d="M1117.5853,-233.0743C946.4665,-228.7665 467.471,-214.2787 313.1273,-184 238.926,-169.4434 223.3512,-154.3947 152.1273,-129 86.03,-105.4332 44.183,-131.6176 4.1273,-74 -.6929,-67.0664 -1.7172,-61.095 4.1273,-55 41.4167,-16.1126 878.1238,-10.3912 1055.3376,-9.6147"/>
<polygon fill="#191970" stroke="#191970" points="1055.3748,-13.1147 1065.3601,-9.573 1055.3457,-6.1147 1055.3748,-13.1147"/>
</g>
<!-- Node2 -->
<g id="node3" class="node">
<title>Node2</title>
<polygon fill="#ffffff" stroke="#bfbfbf" points="13.6151,-55.5 13.6151,-73.5 64.6395,-73.5 64.6395,-55.5 13.6151,-55.5"/>
<text text-anchor="middle" x="39.1273" y="-61.5" font-family="Helvetica,sans-Serif" font-size="10.00" fill="#000000">unistd.h</text>
</g>
<!-- Node0&#45;&gt;Node2 -->
<g id="edge2" class="edge">
<title>Node0&#45;&gt;Node2</title>
<path fill="none" stroke="#191970" d="M1117.736,-232.6029C958.1745,-227.3431 533.2254,-211.1452 395.1273,-184 270.6003,-159.5224 129.6111,-103.1741 69.1985,-77.5775"/>
<polygon fill="#191970" stroke="#191970" points="70.4462,-74.3046 59.8749,-73.5993 67.6991,-80.743 70.4462,-74.3046"/>
</g>
<!-- Node3 -->
<g id="node4" class="node">
<title>Node3</title>
<polygon fill="#ffffff" stroke="#bfbfbf" points="82.2851,-55.5 82.2851,-73.5 129.9696,-73.5 129.9696,-55.5 82.2851,-55.5"/>
<text text-anchor="middle" x="106.1273" y="-61.5" font-family="Helvetica,sans-Serif" font-size="10.00" fill="#000000">stdlib.h</text>
</g>
<!-- Node0&#45;&gt;Node3 -->
<g id="edge3" class="edge">
<title>Node0&#45;&gt;Node3</title>
<path fill="none" stroke="#191970" d="M1117.5525,-231.87C969.5053,-225.2594 596.8005,-206.8336 474.1273,-184 391.8886,-168.6926 373.7008,-154.7991 294.1273,-129 239.9711,-111.4416 177.5327,-89.7247 139.982,-76.5025"/>
<polygon fill="#191970" stroke="#191970" points="140.6732,-73.035 130.0784,-73.0089 138.3445,-79.6363 140.6732,-73.035"/>
</g>
<!-- Node4 -->
<g id="node5" class="node">
<title>Node4</title>
<polygon fill="#ffffff" stroke="#bfbfbf" points="1199.0609,-.5 1199.0609,-18.5 1251.1937,-18.5 1251.1937,-.5 1199.0609,-.5"/>
<text text-anchor="middle" x="1225.1273" y="-6.5" font-family="Helvetica,sans-Serif" font-size="10.00" fill="#000000">stdarg.h</text>
</g>
<!-- Node0&#45;&gt;Node4 -->
<g id="edge4" class="edge">
<title>Node0&#45;&gt;Node4</title>
<path fill="none" stroke="#191970" d="M1240.5681,-232.3154C1354.6767,-227.6649 1606.8438,-214.6017 1817.1273,-184 2051.0547,-149.9575 2497.4549,-224.9333 2333.1273,-55 2293.0825,-13.5891 1384.5042,-26.8633 1261.406,-18.3135"/>
<polygon fill="#191970" stroke="#191970" points="1261.6574,-14.8214 1251.3615,-17.3204 1260.9686,-21.7874 1261.6574,-14.8214"/>
</g>
<!-- Node5 -->
<g id="node6" class="node">
<title>Node5</title>
<polygon fill="#ffffff" stroke="#bfbfbf" points="148.0067,-55.5 148.0067,-73.5 196.2479,-73.5 196.2479,-55.5 148.0067,-55.5"/>
<text text-anchor="middle" x="172.1273" y="-61.5" font-family="Helvetica,sans-Serif" font-size="10.00" fill="#000000">stdint.h</text>
</g>
<!-- Node0&#45;&gt;Node5 -->
<g id="edge5" class="edge">
<title>Node0&#45;&gt;Node5</title>
<path fill="none" stroke="#191970" d="M1117.5764,-231.2744C981.9477,-223.8825 660.9228,-204.7498 554.1273,-184 421.3915,-158.2101 269.7342,-102.5825 204.6122,-77.3783"/>
<polygon fill="#191970" stroke="#191970" points="205.5081,-73.9712 194.9197,-73.6036 202.9678,-80.494 205.5081,-73.9712"/>
</g>
<!-- Node6 -->
<g id="node7" class="node">
<title>Node6</title>
<polygon fill="#ffffff" stroke="#bfbfbf" points="214.7309,-55.5 214.7309,-73.5 263.5238,-73.5 263.5238,-55.5 214.7309,-55.5"/>
<text text-anchor="middle" x="239.1273" y="-61.5" font-family="Helvetica,sans-Serif" font-size="10.00" fill="#000000">string.h</text>
</g>
<!-- Node0&#45;&gt;Node6 -->
<g id="edge6" class="edge">
<title>Node0&#45;&gt;Node6</title>
<path fill="none" stroke="#191970" d="M1117.3746,-232.3602C1016.3907,-228.0525 809.9489,-215.8571 638.1273,-184 549.1676,-167.5062 528.8094,-154.9248 442.1273,-129 382.5213,-111.1731 313.5839,-88.9198 273.3245,-75.7576"/>
<polygon fill="#191970" stroke="#191970" points="274.3227,-72.4017 263.7301,-72.6154 272.144,-79.054 274.3227,-72.4017"/>
</g>
<!-- Node7 -->
<g id="node8" class="node">
<title>Node7</title>
<polygon fill="#ffffff" stroke="#bfbfbf" points="281.2309,-55.5 281.2309,-73.5 335.0238,-73.5 335.0238,-55.5 281.2309,-55.5"/>
<text text-anchor="middle" x="308.1273" y="-61.5" font-family="Helvetica,sans-Serif" font-size="10.00" fill="#000000">strings.h</text>
</g>
<!-- Node0&#45;&gt;Node7 -->
<g id="edge7" class="edge">
<title>Node0&#45;&gt;Node7</title>
<path fill="none" stroke="#191970" d="M1117.5413,-230.9807C1029.6057,-225.2071 863.3034,-211.5078 724.1273,-184 580.794,-155.6706 415.211,-101.4385 343.8617,-76.9934"/>
<polygon fill="#191970" stroke="#191970" points="344.6271,-73.5554 334.0324,-73.6095 342.3484,-80.1741 344.6271,-73.5554"/>
</g>
<!-- Node8 -->
<g id="node9" class="node">
<title>Node8</title>
<polygon fill="#ffffff" stroke="#bfbfbf" points="352.9994,-55.5 352.9994,-73.5 411.2553,-73.5 411.2553,-55.5 352.9994,-55.5"/>
<text text-anchor="middle" x="382.1273" y="-61.5" font-family="Helvetica,sans-Serif" font-size="10.00" fill="#000000">pthread.h</text>
</g>
<!-- Node0&#45;&gt;Node8 -->
<g id="edge8" class="edge">
<title>Node0&#45;&gt;Node8</title>
<path fill="none" stroke="#191970" d="M1117.5022,-229.7109C1041.673,-223.0458 909.3064,-208.8934 798.1273,-184 692.5131,-160.3525 670.2823,-139.4163 566.1273,-110 504.8257,-92.6867 486.6716,-90.303 421.544,-74.3323"/>
<polygon fill="#191970" stroke="#191970" points="422.1308,-70.8722 411.5834,-71.874 420.4534,-77.6682 422.1308,-70.8722"/>
</g>
<!-- Node9 -->
<g id="node10" class="node">
<title>Node9</title>
<polygon fill="#ffffff" stroke="#bfbfbf" points="429.0067,-55.5 429.0067,-73.5 477.2479,-73.5 477.2479,-55.5 429.0067,-55.5"/>
<text text-anchor="middle" x="453.1273" y="-61.5" font-family="Helvetica,sans-Serif" font-size="10.00" fill="#000000">ctype.h</text>
</g>
<!-- Node0&#45;&gt;Node9 -->
<g id="edge9" class="edge">
<title>Node0&#45;&gt;Node9</title>
<path fill="none" stroke="#191970" d="M1117.6359,-227.1083C1054.903,-218.9478 954.992,-204.2357 870.1273,-184 791.2344,-165.1882 773.2005,-154.2529 696.1273,-129 671.1514,-120.8167 665.398,-117.2221 640.1273,-110 575.5795,-91.5528 555.8969,-91.6756 487.5713,-74.27"/>
<polygon fill="#191970" stroke="#191970" points="488.1552,-70.806 477.5977,-71.6939 486.4046,-77.5836 488.1552,-70.806"/>
</g>
<!-- Node10 -->
<g id="node11" class="node">
<title>Node10</title>
<polygon fill="#ffffff" stroke="#bfbfbf" points="495.2851,-55.5 495.2851,-73.5 542.9696,-73.5 542.9696,-55.5 495.2851,-55.5"/>
<text text-anchor="middle" x="519.1273" y="-61.5" font-family="Helvetica,sans-Serif" font-size="10.00" fill="#000000">errno.h</text>
</g>
<!-- Node0&#45;&gt;Node10 -->
<g id="edge10" class="edge">
<title>Node0&#45;&gt;Node10</title>
<path fill="none" stroke="#191970" d="M1117.6529,-222.9348C1069.3996,-213.5013 1000.6566,-199.2768 941.1273,-184 830.9501,-155.7256 805.8039,-140.1582 696.1273,-110 635.1039,-93.2202 616.8822,-91.5782 552.9773,-74.4228"/>
<polygon fill="#191970" stroke="#191970" points="553.7741,-71.0126 543.2067,-71.7755 551.9434,-77.769 553.7741,-71.0126"/>
</g>
<!-- Node11 -->
<g id="node12" class="node">
<title>Node11</title>
<polygon fill="#ffffff" stroke="#bfbfbf" points="560.5116,-55.5 560.5116,-73.5 603.7431,-73.5 603.7431,-55.5 560.5116,-55.5"/>
<text text-anchor="middle" x="582.1273" y="-61.5" font-family="Helvetica,sans-Serif" font-size="10.00" fill="#000000">time.h</text>
</g>
<!-- Node0&#45;&gt;Node11 -->
<g id="edge11" class="edge">
<title>Node0&#45;&gt;Node11</title>
<path fill="none" stroke="#191970" d="M1117.4817,-223.6419C1076.9727,-215.3918 1023.3089,-202.3172 978.1273,-184 947.6786,-171.6557 881.13,-120.8784 850.1273,-110 752.6384,-75.7926 719.0413,-96.336 614.0786,-73.8805"/>
<polygon fill="#191970" stroke="#191970" points="614.5567,-70.4014 604.0355,-71.6487 613.0381,-77.2347 614.5567,-70.4014"/>
</g>
<!-- Node12 -->
<g id="node13" class="node">
<title>Node12</title>
<polygon fill="#ffffff" stroke="#bfbfbf" points="621.7875,-55.5 621.7875,-73.5 664.4672,-73.5 664.4672,-55.5 621.7875,-55.5"/>
<text text-anchor="middle" x="643.1273" y="-61.5" font-family="Helvetica,sans-Serif" font-size="10.00" fill="#000000">fcntl.h</text>
</g>
<!-- Node0&#45;&gt;Node12 -->
<g id="edge12" class="edge">
<title>Node0&#45;&gt;Node12</title>
<path fill="none" stroke="#191970" d="M1121.4076,-220.4523C1089.1686,-211.7171 1048.6581,-199.2453 1014.1273,-184 984.5969,-170.9624 919.4484,-121.0752 889.1273,-110 801.0552,-77.8302 770.4033,-95.0409 674.5096,-73.7666"/>
<polygon fill="#191970" stroke="#191970" points="675.2387,-70.343 664.7084,-71.5101 673.6681,-77.1645 675.2387,-70.343"/>
</g>
<!-- Node13 -->
<g id="node14" class="node">
<title>Node13</title>
<polygon fill="#ffffff" stroke="#bfbfbf" points="682.8935,-55.5 682.8935,-73.5 733.3612,-73.5 733.3612,-55.5 682.8935,-55.5"/>
<text text-anchor="middle" x="708.1273" y="-61.5" font-family="Helvetica,sans-Serif" font-size="10.00" fill="#000000">signal.h</text>
</g>
<!-- Node0&#45;&gt;Node13 -->
<g id="edge13" class="edge">
<title>Node0&#45;&gt;Node13</title>
<path fill="none" stroke="#191970" d="M1137.9899,-220.4062C1112.2714,-211.106 1078.7191,-198.0724 1050.1273,-184 992.8872,-155.8274 986.6787,-132.8859 927.1273,-110 851.8395,-81.0665 825.5917,-92.3563 743.4431,-74.1233"/>
<polygon fill="#191970" stroke="#191970" points="744.2202,-70.7107 733.69,-71.8796 742.6508,-77.5325 744.2202,-70.7107"/>
</g>
<!-- Node14 -->
<g id="node15" class="node">
<title>Node14</title>
<polygon fill="#ffffff" stroke="#bfbfbf" points="1269.6225,-.5 1269.6225,-18.5 1330.6322,-18.5 1330.6322,-.5 1269.6225,-.5"/>
<text text-anchor="middle" x="1300.1273" y="-6.5" font-family="Helvetica,sans-Serif" font-size="10.00" fill="#000000">sys/time.h</text>
</g>
<!-- Node0&#45;&gt;Node14 -->
<g id="edge14" class="edge">
<title>Node0&#45;&gt;Node14</title>
<path fill="none" stroke="#191970" d="M1240.6947,-234.0208C1475.1151,-231.5446 2302.4447,-216.6148 2376.1273,-129 2393.5341,-108.3019 2375.9272,-70.3596 2354.1273,-55 2310.2713,-24.1002 1442.6375,-22.8494 1389.1273,-19 1373.3861,-17.8676 1356.1268,-16.1385 1341.0315,-14.4643"/>
<polygon fill="#191970" stroke="#191970" points="1341.3031,-10.9728 1330.972,-13.3221 1340.5132,-17.9281 1341.3031,-10.9728"/>
</g>
<!-- Node15 -->
<g id="node16" class="node">
<title>Node15</title>
<polygon fill="#ffffff" stroke="#bfbfbf" points="751.0092,-55.5 751.0092,-73.5 809.2455,-73.5 809.2455,-55.5 751.0092,-55.5"/>
<text text-anchor="middle" x="780.1273" y="-61.5" font-family="Helvetica,sans-Serif" font-size="10.00" fill="#000000">sys/stat.h</text>
</g>
<!-- Node0&#45;&gt;Node15 -->
<g id="edge15" class="edge">
<title>Node0&#45;&gt;Node15</title>
<path fill="none" stroke="#191970" d="M1148.652,-220.3033C1128.7705,-210.7154 1102.4608,-197.4049 1080.1273,-184 1030.8643,-154.4316 1026.6331,-133.3299 974.1273,-110 912.0229,-82.4051 889.3573,-89.8516 819.7197,-74.2743"/>
<polygon fill="#191970" stroke="#191970" points="820.1054,-70.7708 809.5728,-71.9175 818.5216,-77.5893 820.1054,-70.7708"/>
</g>
<!-- Node16 -->
<g id="node17" class="node">
<title>Node16</title>
<polygon fill="#ffffff" stroke="#bfbfbf" points="827.1176,-55.5 827.1176,-73.5 893.1371,-73.5 893.1371,-55.5 827.1176,-55.5"/>
<text text-anchor="middle" x="860.1273" y="-61.5" font-family="Helvetica,sans-Serif" font-size="10.00" fill="#000000">sys/types.h</text>
</g>
<!-- Node0&#45;&gt;Node16 -->
<g id="edge16" class="edge">
<title>Node0&#45;&gt;Node16</title>
<path fill="none" stroke="#191970" d="M1157.3538,-220.4718C1142.395,-210.6342 1122.2274,-196.973 1105.1273,-184 1064.4159,-153.1142 1062.2005,-134.0784 1017.1273,-110 997.4398,-99.4828 942.6666,-84.7107 903.3603,-74.8839"/>
<polygon fill="#191970" stroke="#191970" points="904.0288,-71.4438 893.4806,-72.4362 902.3454,-78.2384 904.0288,-71.4438"/>
</g>
<!-- Node17 -->
<g id="node18" class="node">
<title>Node17</title>
<polygon fill="#ffffff" stroke="#bfbfbf" points="911.1767,-55.5 911.1767,-73.5 971.078,-73.5 971.078,-55.5 911.1767,-55.5"/>
<text text-anchor="middle" x="941.1273" y="-61.5" font-family="Helvetica,sans-Serif" font-size="10.00" fill="#000000">sys/ioctl.h</text>
</g>
<!-- Node0&#45;&gt;Node17 -->
<g id="edge17" class="edge">
<title>Node0&#45;&gt;Node17</title>
<path fill="none" stroke="#191970" d="M1163.2334,-220.2213C1152.3152,-210.2718 1137.5977,-196.5799 1125.1273,-184 1093.6821,-152.2784 1093.9739,-135.2467 1057.1273,-110 1034.0174,-94.1654 1004.6045,-82.7078 981.1792,-75.2509"/>
<polygon fill="#191970" stroke="#191970" points="982.1288,-71.8813 971.5422,-72.2989 980.0786,-78.5743 982.1288,-71.8813"/>
</g>
<!-- Node18 -->
<g id="node19" class="node">
<title>Node18</title>
<polygon fill="#ffffff" stroke="#bfbfbf" points="988.6176,-55.5 988.6176,-73.5 1059.6371,-73.5 1059.6371,-55.5 988.6176,-55.5"/>
<text text-anchor="middle" x="1024.1273" y="-61.5" font-family="Helvetica,sans-Serif" font-size="10.00" fill="#000000">sys/socket.h</text>
</g>
<!-- Node0&#45;&gt;Node18 -->
<g id="edge18" class="edge">
<title>Node0&#45;&gt;Node18</title>
<path fill="none" stroke="#191970" d="M1167.4255,-220.2339C1159.4406,-210.2901 1148.784,-196.5997 1140.1273,-184 1118.3298,-152.2739 1122.0233,-137.537 1095.1273,-110 1082.624,-97.1987 1065.8751,-86.2492 1051.785,-78.3015"/>
<polygon fill="#191970" stroke="#191970" points="1053.4396,-75.2173 1042.9811,-73.5229 1050.1002,-81.3694 1053.4396,-75.2173"/>
</g>
<!-- Node19 -->
<g id="node20" class="node">
<title>Node19</title>
<polygon fill="#ffffff" stroke="#bfbfbf" points="1503.5067,-55.5 1503.5067,-73.5 1576.7479,-73.5 1576.7479,-55.5 1503.5067,-55.5"/>
<text text-anchor="middle" x="1540.1273" y="-61.5" font-family="Helvetica,sans-Serif" font-size="10.00" fill="#000000">sys/sysinfo.h</text>
</g>
<!-- Node0&#45;&gt;Node19 -->
<g id="edge19" class="edge">
<title>Node0&#45;&gt;Node19</title>
<path fill="none" stroke="#191970" d="M1211.6896,-220.422C1234.5629,-210.4484 1265.8256,-196.6471 1293.1273,-184 1373.4653,-146.7846 1467.3452,-100.6179 1512.7564,-78.1144"/>
<polygon fill="#191970" stroke="#191970" points="1514.5424,-81.1354 1521.9452,-73.5558 1511.4315,-74.8646 1514.5424,-81.1354"/>
</g>
<!-- Node20 -->
<g id="node21" class="node">
<title>Node20</title>
<polygon fill="#ffffff" stroke="#bfbfbf" points="1594.4994,-55.5 1594.4994,-73.5 1657.7553,-73.5 1657.7553,-55.5 1594.4994,-55.5"/>
<text text-anchor="middle" x="1626.1273" y="-61.5" font-family="Helvetica,sans-Serif" font-size="10.00" fill="#000000">arpa/inet.h</text>
</g>
<!-- Node0&#45;&gt;Node20 -->
<g id="edge20" class="edge">
<title>Node0&#45;&gt;Node20</title>
<path fill="none" stroke="#191970" d="M1222.0779,-220.4928C1251.7295,-210.6646 1291.9916,-197.006 1327.1273,-184 1425.8349,-147.4621 1541.0844,-100.0294 1595.1504,-77.4917"/>
<polygon fill="#191970" stroke="#191970" points="1596.6365,-80.6641 1604.516,-73.5814 1593.9395,-74.2046 1596.6365,-80.6641"/>
</g>
<!-- Node21 -->
<g id="node22" class="node">
<title>Node21</title>
<polygon fill="#ffffff" stroke="#bfbfbf" points="1675.6644,-55.5 1675.6644,-73.5 1740.5902,-73.5 1740.5902,-55.5 1675.6644,-55.5"/>
<text text-anchor="middle" x="1708.1273" y="-61.5" font-family="Helvetica,sans-Serif" font-size="10.00" fill="#000000">netinet/in.h</text>
</g>
<!-- Node0&#45;&gt;Node21 -->
<g id="edge21" class="edge">
<title>Node0&#45;&gt;Node21</title>
<path fill="none" stroke="#191970" d="M1234.7643,-220.484C1271.8785,-210.8674 1321.6557,-197.4559 1365.1273,-184 1479.538,-148.5861 1612.9791,-99.9445 1674.2395,-77.195"/>
<polygon fill="#191970" stroke="#191970" points="1675.6325,-80.4112 1683.7838,-73.643 1673.191,-73.8507 1675.6325,-80.4112"/>
</g>
<!-- Node22 -->
<g id="node23" class="node">
<title>Node22</title>
<polygon fill="#ffffff" stroke="#bfbfbf" points="1758.2704,-55.5 1758.2704,-73.5 1835.9843,-73.5 1835.9843,-55.5 1758.2704,-55.5"/>
<text text-anchor="middle" x="1797.1273" y="-61.5" font-family="Helvetica,sans-Serif" font-size="10.00" fill="#000000">net/ethernet.h</text>
</g>
<!-- Node0&#45;&gt;Node22 -->
<g id="edge22" class="edge">
<title>Node0&#45;&gt;Node22</title>
<path fill="none" stroke="#191970" d="M1240.6179,-222.1705C1286.4625,-212.6516 1350.4962,-198.6655 1406.1273,-184 1537.6201,-149.3358 1691.2791,-99.63 1760.2881,-76.8084"/>
<polygon fill="#191970" stroke="#191970" points="1761.4519,-80.11 1769.8428,-73.6413 1759.2494,-73.4655 1761.4519,-80.11"/>
</g>
<!-- Node23 -->
<g id="node24" class="node">
<title>Node23</title>
<polygon fill="#ffffff" stroke="#bfbfbf" points="1853.6644,-55.5 1853.6644,-73.5 1918.5902,-73.5 1918.5902,-55.5 1853.6644,-55.5"/>
<text text-anchor="middle" x="1886.1273" y="-61.5" font-family="Helvetica,sans-Serif" font-size="10.00" fill="#000000">netinet/ip.h</text>
</g>
<!-- Node0&#45;&gt;Node23 -->
<g id="edge23" class="edge">
<title>Node0&#45;&gt;Node23</title>
<path fill="none" stroke="#191970" d="M1240.5645,-224.8782C1296.7105,-215.702 1381.8948,-200.8165 1455.1273,-184 1601.1327,-150.4725 1771.8551,-99.6102 1847.1183,-76.5822"/>
<polygon fill="#191970" stroke="#191970" points="1848.5586,-79.8014 1857.0922,-73.5223 1846.5054,-73.1093 1848.5586,-79.8014"/>
</g>
<!-- Node24 -->
<g id="node25" class="node">
<title>Node24</title>
<polygon fill="#ffffff" stroke="#bfbfbf" points="1936.8861,-55.5 1936.8861,-73.5 2007.3685,-73.5 2007.3685,-55.5 1936.8861,-55.5"/>
<text text-anchor="middle" x="1972.1273" y="-61.5" font-family="Helvetica,sans-Serif" font-size="10.00" fill="#000000">netinet/tcp.h</text>
</g>
<!-- Node0&#45;&gt;Node24 -->
<g id="edge24" class="edge">
<title>Node0&#45;&gt;Node24</title>
<path fill="none" stroke="#191970" d="M1240.6952,-226.9163C1307.0406,-218.31 1415.5702,-202.973 1508.1273,-184 1666.3758,-151.5611 1851.5386,-99.5727 1931.7218,-76.3605"/>
<polygon fill="#191970" stroke="#191970" points="1932.796,-79.6932 1941.4237,-73.5438 1930.8443,-72.9708 1932.796,-79.6932"/>
</g>
<!-- Node25 -->
<g id="node26" class="node">
<title>Node25</title>
<polygon fill="#ffffff" stroke="#bfbfbf" points="2025.327,-55.5 2025.327,-73.5 2116.9276,-73.5 2116.9276,-55.5 2025.327,-55.5"/>
<text text-anchor="middle" x="2071.1273" y="-61.5" font-family="Helvetica,sans-Serif" font-size="10.00" fill="#000000">netinet/ip_icmp.h</text>
</g>
<!-- Node0&#45;&gt;Node25 -->
<g id="edge25" class="edge">
<title>Node0&#45;&gt;Node25</title>
<path fill="none" stroke="#191970" d="M1240.7712,-228.3562C1317.0466,-220.3085 1450.7335,-204.7455 1564.1273,-184 1737.6171,-152.2599 1941.0219,-99.5251 2028.0711,-76.2057"/>
<polygon fill="#191970" stroke="#191970" points="2029.1053,-79.5521 2037.8547,-73.5773 2027.289,-72.7918 2029.1053,-79.5521"/>
</g>
<!-- Node26 -->
<g id="node27" class="node">
<title>Node26</title>
<g id="a_node27"><a xlink:href="mac2int_8h.html" target="_top" xlink:title="mac2int.h">
<polygon fill="#ffffff" stroke="#000000" points="1149.4501,-165.5 1149.4501,-183.5 1208.8046,-183.5 1208.8046,-165.5 1149.4501,-165.5"/>
<text text-anchor="middle" x="1179.1273" y="-171.5" font-family="Helvetica,sans-Serif" font-size="10.00" fill="#000000">mac2int.h</text>
</a>
</g>
</g>
<!-- Node0&#45;&gt;Node26 -->
<g id="edge26" class="edge">
<title>Node0&#45;&gt;Node26</title>
<path fill="none" stroke="#191970" d="M1179.1273,-220.2808C1179.1273,-212.3776 1179.1273,-202.4316 1179.1273,-193.8308"/>
<polygon fill="#191970" stroke="#191970" points="1182.6274,-193.5842 1179.1273,-183.5842 1175.6274,-193.5842 1182.6274,-193.5842"/>
</g>
<!-- Node28 -->
<g id="node29" class="node">
<title>Node28</title>
<g id="a_node29"><a xlink:href="ip2int_8h.html" target="_top" xlink:title="ip2int.h">
<polygon fill="#ffffff" stroke="#000000" points="1354.0043,-55.5 1354.0043,-73.5 1402.2504,-73.5 1402.2504,-55.5 1354.0043,-55.5"/>
<text text-anchor="middle" x="1378.1273" y="-61.5" font-family="Helvetica,sans-Serif" font-size="10.00" fill="#000000">ip2int.h</text>
</a>
</g>
</g>
<!-- Node0&#45;&gt;Node28 -->
<g id="edge68" class="edge">
<title>Node0&#45;&gt;Node28</title>
<path fill="none" stroke="#191970" d="M1195.7517,-220.2983C1232.574,-188.842 1320.7993,-113.4737 1359.4513,-80.4544"/>
<polygon fill="#191970" stroke="#191970" points="1361.9967,-82.8832 1367.3267,-73.7266 1357.45,-77.5608 1361.9967,-82.8832"/>
</g>
<!-- Node29 -->
<g id="node30" class="node">
<title>Node29</title>
<g id="a_node30"><a xlink:href="database_8h.html" target="_top" xlink:title="database.h">
<polygon fill="#ffffff" stroke="#000000" points="1420.3837,-55.5 1420.3837,-73.5 1485.871,-73.5 1485.871,-55.5 1420.3837,-55.5"/>
<text text-anchor="middle" x="1453.1273" y="-61.5" font-family="Helvetica,sans-Serif" font-size="10.00" fill="#000000">database.h</text>
</a>
</g>
</g>
<!-- Node0&#45;&gt;Node29 -->
<g id="edge69" class="edge">
<title>Node0&#45;&gt;Node29</title>
<path fill="none" stroke="#191970" d="M1203.4158,-220.3109C1220.4749,-210.2864 1243.7861,-196.4699 1264.1273,-184 1324.5875,-146.9358 1394.9991,-101.9195 1430.374,-79.1727"/>
<polygon fill="#191970" stroke="#191970" points="1432.4715,-81.985 1438.986,-73.6297 1428.6829,-76.0989 1432.4715,-81.985"/>
</g>
<!-- Node31 -->
<g id="node32" class="node">
<title>Node31</title>
<polygon fill="#ffffff" stroke="#bfbfbf" points="2134.7235,-55.5 2134.7235,-73.5 2193.5311,-73.5 2193.5311,-55.5 2134.7235,-55.5"/>
<text text-anchor="middle" x="2164.1273" y="-61.5" font-family="Helvetica,sans-Serif" font-size="10.00" fill="#000000">jansson.h</text>
</g>
<!-- Node0&#45;&gt;Node31 -->
<g id="edge70" class="edge">
<title>Node0&#45;&gt;Node31</title>
<path fill="none" stroke="#191970" d="M1240.8114,-229.4879C1326.8138,-222.0449 1487.4675,-206.4882 1623.1273,-184 1812.5304,-152.6028 2035.4587,-97.5214 2124.4972,-74.7741"/>
<polygon fill="#191970" stroke="#191970" points="2125.6153,-78.1007 2134.4333,-72.2276 2123.8774,-71.3199 2125.6153,-78.1007"/>
</g>
<!-- Node32 -->
<g id="node33" class="node">
<title>Node32</title>
<g id="a_node33"><a xlink:href="libcli_8h.html" target="_top" xlink:title="libcli.h">
<polygon fill="#ffffff" stroke="#000000" points="1216.2333,-55.5 1216.2333,-73.5 1260.0214,-73.5 1260.0214,-55.5 1216.2333,-55.5"/>
<text text-anchor="middle" x="1238.1273" y="-61.5" font-family="Helvetica,sans-Serif" font-size="10.00" fill="#000000">libcli.h</text>
</a>
</g>
</g>
<!-- Node0&#45;&gt;Node32 -->
<g id="edge71" class="edge">
<title>Node0&#45;&gt;Node32</title>
<path fill="none" stroke="#191970" d="M1193.2099,-220.2926C1201.78,-210.8021 1212.1871,-197.6034 1218.1273,-184 1232.6614,-150.7166 1236.6881,-107.9717 1237.7696,-83.6673"/>
<polygon fill="#191970" stroke="#191970" points="1241.2694,-83.7254 1238.0918,-73.6184 1234.273,-83.501 1241.2694,-83.7254"/>
</g>
<!-- Node33 -->
<g id="node34" class="node">
<title>Node33</title>
<polygon fill="#ffffff" stroke="#bfbfbf" points="2211.9008,-55.5 2211.9008,-73.5 2262.3539,-73.5 2262.3539,-55.5 2211.9008,-55.5"/>
<text text-anchor="middle" x="2237.1273" y="-61.5" font-family="Helvetica,sans-Serif" font-size="10.00" fill="#000000">mysql.h</text>
</g>
<!-- Node0&#45;&gt;Node33 -->
<g id="edge72" class="edge">
<title>Node0&#45;&gt;Node33</title>
<path fill="none" stroke="#191970" d="M1240.5206,-230.3926C1335.9778,-223.552 1525.6058,-208.1442 1685.1273,-184 1806.2127,-165.6733 1835.354,-154.532 1955.1273,-129 2062.0073,-106.2165 2091.2985,-101.2349 2201.6858,-74.0252"/>
<polygon fill="#191970" stroke="#191970" points="2202.6798,-77.3849 2211.5484,-71.5884 2201.0007,-70.5893 2202.6798,-77.3849"/>
</g>
<!-- Node34 -->
<g id="node35" class="node">
<title>Node34</title>
<polygon fill="#ffffff" stroke="#bfbfbf" points="2280.5116,-55.5 2280.5116,-73.5 2323.7431,-73.5 2323.7431,-55.5 2280.5116,-55.5"/>
<text text-anchor="middle" x="2302.1273" y="-61.5" font-family="Helvetica,sans-Serif" font-size="10.00" fill="#000000">zmq.h</text>
</g>
<!-- Node0&#45;&gt;Node34 -->
<g id="edge73" class="edge">
<title>Node0&#45;&gt;Node34</title>
<path fill="none" stroke="#191970" d="M1240.8919,-231.5034C1346.2283,-225.8471 1567.1799,-211.6089 1752.1273,-184 1868.9456,-166.5614 1896.5813,-153.4896 2012.1273,-129 2124.1002,-105.2677 2155.5027,-103.5689 2270.2971,-74.0445"/>
<polygon fill="#191970" stroke="#191970" points="2271.3755,-77.3808 2280.1799,-71.4874 2269.622,-70.604 2271.3755,-77.3808"/>
</g>
<!-- Node36 -->
<g id="node37" class="node">
<title>Node36</title>
<g id="a_node37"><a xlink:href="ext__comps_2shim_2include_2type_8h.html" target="_top" xlink:title="type.h">
<polygon fill="#ffffff" stroke="#000000" points="2418.5067,-165.5 2418.5067,-183.5 2461.7479,-183.5 2461.7479,-165.5 2418.5067,-165.5"/>
<text text-anchor="middle" x="2440.1273" y="-171.5" font-family="Helvetica,sans-Serif" font-size="10.00" fill="#000000">type.h</text>
</a>
</g>
</g>
<!-- Node0&#45;&gt;Node36 -->
<g id="edge74" class="edge">
<title>Node0&#45;&gt;Node36</title>
<path fill="none" stroke="#191970" d="M1240.5997,-233.7274C1456.0199,-230.7447 2176.0232,-218.3822 2404.1273,-184 2405.4217,-183.8049 2406.7365,-183.5812 2408.0604,-183.3347"/>
<polygon fill="#191970" stroke="#191970" points="2409.1919,-186.6692 2418.2008,-181.0933 2407.681,-179.8342 2409.1919,-186.6692"/>
</g>
<!-- Node27 -->
<g id="node28" class="node">
<title>Node27</title>
<g id="a_node28"><a xlink:href="src_2include_2common_8h.html" target="_top" xlink:title="common.h">
<polygon fill="#ffffff" stroke="#000000" points="1147.7851,-110.5 1147.7851,-128.5 1210.4696,-128.5 1210.4696,-110.5 1147.7851,-110.5"/>
<text text-anchor="middle" x="1179.1273" y="-116.5" font-family="Helvetica,sans-Serif" font-size="10.00" fill="#000000">common.h</text>
</a>
</g>
</g>
<!-- Node26&#45;&gt;Node27 -->
<g id="edge27" class="edge">
<title>Node26&#45;&gt;Node27</title>
<path fill="none" stroke="#191970" d="M1173.961,-165.4179C1172.4695,-158.2164 1172.0315,-147.8962 1172.6471,-138.8632"/>
<polygon fill="#191970" stroke="#191970" points="1176.14,-139.1392 1173.9206,-128.7795 1169.1951,-138.2621 1176.14,-139.1392"/>
</g>
<!-- Node27&#45;&gt;Node1 -->
<g id="edge28" class="edge">
<title>Node27&#45;&gt;Node1</title>
<path fill="none" stroke="#191970" d="M1156.5383,-110.4356C1140.5505,-102.9223 1119.7818,-90.7556 1107.1273,-74 1097.2338,-60.9001 1092.4764,-42.7294 1090.1978,-29.0118"/>
<polygon fill="#191970" stroke="#191970" points="1093.618,-28.1856 1088.8084,-18.7453 1086.6812,-29.1244 1093.618,-28.1856"/>
</g>
<!-- Node27&#45;&gt;Node2 -->
<g id="edge29" class="edge">
<title>Node27&#45;&gt;Node2</title>
<path fill="none" stroke="#191970" d="M1147.5393,-119.1862C992.3136,-117.4961 308.7747,-108.2967 75.0995,-73.9373"/>
<polygon fill="#191970" stroke="#191970" points="75.3938,-70.4417 64.9793,-72.3882 74.3346,-77.3611 75.3938,-70.4417"/>
</g>
<!-- Node27&#45;&gt;Node3 -->
<g id="edge30" class="edge">
<title>Node27&#45;&gt;Node3</title>
<path fill="none" stroke="#191970" d="M1147.6805,-119.1258C998.5391,-117.2007 360.9291,-107.2418 140.3144,-73.7338"/>
<polygon fill="#191970" stroke="#191970" points="140.5522,-70.2279 130.1277,-72.1203 139.457,-77.1417 140.5522,-70.2279"/>
</g>
<!-- Node27&#45;&gt;Node4 -->
<g id="edge31" class="edge">
<title>Node27&#45;&gt;Node4</title>
<path fill="none" stroke="#191970" d="M1182.8917,-110.4982C1190.4056,-92.5302 1207.3983,-51.8954 1217.389,-28.0046"/>
<polygon fill="#191970" stroke="#191970" points="1220.6819,-29.2023 1221.311,-18.6261 1214.2238,-26.5016 1220.6819,-29.2023"/>
</g>
<!-- Node27&#45;&gt;Node5 -->
<g id="edge32" class="edge">
<title>Node27&#45;&gt;Node5</title>
<path fill="none" stroke="#191970" d="M1147.5579,-118.9816C1004.3015,-116.4849 413.8122,-104.6041 206.6544,-73.6048"/>
<polygon fill="#191970" stroke="#191970" points="206.9148,-70.1032 196.4946,-72.0185 205.8349,-77.0194 206.9148,-70.1032"/>
</g>
<!-- Node27&#45;&gt;Node6 -->
<g id="edge33" class="edge">
<title>Node27&#45;&gt;Node6</title>
<path fill="none" stroke="#191970" d="M1147.3873,-118.8872C1010.0364,-116.0879 465.5326,-103.4322 273.8014,-73.882"/>
<polygon fill="#191970" stroke="#191970" points="274.2822,-70.4144 263.8529,-72.2795 273.169,-77.3253 274.2822,-70.4144"/>
</g>
<!-- Node27&#45;&gt;Node7 -->
<g id="edge34" class="edge">
<title>Node27&#45;&gt;Node7</title>
<path fill="none" stroke="#191970" d="M1147.725,-118.6449C1018.0129,-114.9833 522.8566,-99.699 345.1159,-73.7777"/>
<polygon fill="#191970" stroke="#191970" points="345.5417,-70.3023 335.1285,-72.2561 344.4873,-77.2224 345.5417,-70.3023"/>
</g>
<!-- Node27&#45;&gt;Node8 -->
<g id="edge35" class="edge">
<title>Node27&#45;&gt;Node8</title>
<path fill="none" stroke="#191970" d="M1147.6875,-118.3926C1025.7914,-113.9815 583.5522,-96.8563 421.7239,-73.9263"/>
<polygon fill="#191970" stroke="#191970" points="421.8815,-70.4115 411.4764,-72.4077 420.8553,-77.3359 421.8815,-70.4115"/>
</g>
<!-- Node27&#45;&gt;Node9 -->
<g id="edge36" class="edge">
<title>Node27&#45;&gt;Node9</title>
<path fill="none" stroke="#191970" d="M1147.6311,-118.3316C1032.69,-113.9314 635.2742,-97.488 487.6863,-73.8615"/>
<polygon fill="#191970" stroke="#191970" points="487.941,-70.3553 477.499,-72.1481 486.7799,-77.2583 487.941,-70.3553"/>
</g>
<!-- Node27&#45;&gt;Node10 -->
<g id="edge37" class="edge">
<title>Node27&#45;&gt;Node10</title>
<path fill="none" stroke="#191970" d="M1147.5856,-118.1187C1039.8633,-113.2639 686.2631,-96.162 553.0587,-73.9689"/>
<polygon fill="#191970" stroke="#191970" points="553.559,-70.5034 543.1049,-72.2242 552.3504,-77.3982 553.559,-70.5034"/>
</g>
<!-- Node27&#45;&gt;Node11 -->
<g id="edge38" class="edge">
<title>Node27&#45;&gt;Node11</title>
<path fill="none" stroke="#191970" d="M1147.5146,-117.8648C1047.0906,-112.5324 735.3293,-94.8815 614.099,-73.7051"/>
<polygon fill="#191970" stroke="#191970" points="614.463,-70.2133 603.9945,-71.8447 613.1954,-77.0976 614.463,-70.2133"/>
</g>
<!-- Node27&#45;&gt;Node12 -->
<g id="edge39" class="edge">
<title>Node27&#45;&gt;Node12</title>
<path fill="none" stroke="#191970" d="M1147.7786,-118.929C1069.3897,-117.0248 858.5847,-108.9688 674.5159,-73.6469"/>
<polygon fill="#191970" stroke="#191970" points="675.1472,-70.2042 664.6621,-71.7246 673.8069,-77.0746 675.1472,-70.2042"/>
</g>
<!-- Node27&#45;&gt;Node13 -->
<g id="edge40" class="edge">
<title>Node27&#45;&gt;Node13</title>
<path fill="none" stroke="#191970" d="M1147.5992,-118.0442C1076.8821,-114.3905 900.1779,-103.0984 743.9004,-74.064"/>
<polygon fill="#191970" stroke="#191970" points="744.1134,-70.5424 733.6375,-72.1258 742.8143,-77.4208 744.1134,-70.5424"/>
</g>
<!-- Node27&#45;&gt;Node14 -->
<g id="edge41" class="edge">
<title>Node27&#45;&gt;Node14</title>
<path fill="none" stroke="#191970" d="M1208.0848,-110.4089C1227.3832,-103.1289 1252.2148,-91.2552 1269.1273,-74 1281.7402,-61.1316 1290.0115,-42.1423 1294.8124,-28.0975"/>
<polygon fill="#191970" stroke="#191970" points="1298.168,-29.0937 1297.8216,-18.5046 1291.4889,-26.9985 1298.168,-29.0937"/>
</g>
<!-- Node27&#45;&gt;Node15 -->
<g id="edge42" class="edge">
<title>Node27&#45;&gt;Node15</title>
<path fill="none" stroke="#191970" d="M1147.5436,-116.8006C1086.1355,-111.2777 946.2341,-97.3533 819.3945,-74.0544"/>
<polygon fill="#191970" stroke="#191970" points="819.981,-70.6036 809.5094,-72.2144 818.7,-77.4853 819.981,-70.6036"/>
</g>
<!-- Node27&#45;&gt;Node16 -->
<g id="edge43" class="edge">
<title>Node27&#45;&gt;Node16</title>
<path fill="none" stroke="#191970" d="M1147.446,-114.9247C1097.6337,-107.5948 997.7513,-92.3489 903.5386,-74.1897"/>
<polygon fill="#191970" stroke="#191970" points="904.044,-70.7225 893.56,-72.2511 902.7089,-77.594 904.044,-70.7225"/>
</g>
<!-- Node27&#45;&gt;Node17 -->
<g id="edge44" class="edge">
<title>Node27&#45;&gt;Node17</title>
<path fill="none" stroke="#191970" d="M1147.5569,-112.5356C1110.027,-104.2089 1045.2507,-89.6875 981.2436,-74.4762"/>
<polygon fill="#191970" stroke="#191970" points="981.9351,-71.043 971.3961,-72.1289 980.312,-77.8523 981.9351,-71.043"/>
</g>
<!-- Node27&#45;&gt;Node18 -->
<g id="edge45" class="edge">
<title>Node27&#45;&gt;Node18</title>
<path fill="none" stroke="#191970" d="M1153.5322,-110.4179C1127.7653,-101.2748 1087.8312,-87.1046 1059.1405,-76.924"/>
<polygon fill="#191970" stroke="#191970" points="1060.0976,-73.5499 1049.5028,-73.5042 1057.7567,-80.1469 1060.0976,-73.5499"/>
</g>
<!-- Node27&#45;&gt;Node19 -->
<g id="edge46" class="edge">
<title>Node27&#45;&gt;Node19</title>
<path fill="none" stroke="#191970" d="M1210.6318,-115.6537C1265.9257,-108.7542 1384.2356,-93.3294 1493.4652,-74.213"/>
<polygon fill="#191970" stroke="#191970" points="1494.0889,-77.6571 1503.3284,-72.4722 1492.8722,-70.7637 1494.0889,-77.6571"/>
</g>
<!-- Node27&#45;&gt;Node20 -->
<g id="edge47" class="edge">
<title>Node27&#45;&gt;Node20</title>
<path fill="none" stroke="#191970" d="M1210.7174,-117.2868C1277.846,-112.3022 1439.7669,-98.7861 1584.3831,-74.1394"/>
<polygon fill="#191970" stroke="#191970" points="1585.0645,-77.5736 1594.3229,-72.4228 1583.8731,-70.6757 1585.0645,-77.5736"/>
</g>
<!-- Node27&#45;&gt;Node21 -->
<g id="edge48" class="edge">
<title>Node27&#45;&gt;Node21</title>
<path fill="none" stroke="#191970" d="M1210.7136,-118.0319C1287.2029,-114.1627 1488.5335,-102.1023 1665.5211,-74.0766"/>
<polygon fill="#191970" stroke="#191970" points="1666.2131,-77.5104 1675.5321,-72.4699 1665.1038,-70.5989 1666.2131,-77.5104"/>
</g>
<!-- Node27&#45;&gt;Node22 -->
<g id="edge49" class="edge">
<title>Node27&#45;&gt;Node22</title>
<path fill="none" stroke="#191970" d="M1210.7803,-118.2602C1295.9782,-114.6503 1537.3777,-102.6234 1748.1457,-73.981"/>
<polygon fill="#191970" stroke="#191970" points="1748.7283,-77.434 1758.1584,-72.6045 1747.7748,-70.4992 1748.7283,-77.434"/>
</g>
<!-- Node27&#45;&gt;Node23 -->
<g id="edge50" class="edge">
<title>Node27&#45;&gt;Node23</title>
<path fill="none" stroke="#191970" d="M1210.5263,-119.1289C1304.9949,-117.6383 1594.9071,-110.3294 1843.5988,-74.0148"/>
<polygon fill="#191970" stroke="#191970" points="1844.1634,-77.4695 1853.5436,-72.5438 1843.139,-70.5448 1844.1634,-77.4695"/>
</g>
<!-- Node27&#45;&gt;Node24 -->
<g id="edge51" class="edge">
<title>Node27&#45;&gt;Node24</title>
<path fill="none" stroke="#191970" d="M1210.6424,-119.2404C1312.6898,-118.0508 1643.348,-111.465 1926.7776,-73.8151"/>
<polygon fill="#191970" stroke="#191970" points="1927.3951,-77.2637 1936.8397,-72.4626 1926.4625,-70.326 1927.3951,-77.2637"/>
</g>
<!-- Node27&#45;&gt;Node25 -->
<g id="edge52" class="edge">
<title>Node27&#45;&gt;Node25</title>
<path fill="none" stroke="#191970" d="M1210.7824,-119.109C1320.5728,-117.4732 1695.2522,-109.5563 2014.8764,-74.0012"/>
<polygon fill="#191970" stroke="#191970" points="2015.7222,-77.4282 2025.2687,-72.8331 2014.9403,-70.472 2015.7222,-77.4282"/>
</g>
<!-- Node27&#45;&gt;Node26 -->
<g id="edge53" class="edge">
<title>Node27&#45;&gt;Node26</title>
<path fill="none" stroke="#191970" d="M1184.3341,-128.7795C1185.8065,-136.0373 1186.2253,-146.3738 1185.5905,-155.383"/>
<polygon fill="#191970" stroke="#191970" points="1182.1043,-155.0517 1184.2937,-165.4179 1189.0466,-155.949 1182.1043,-155.0517"/>
</g>
<!-- Node27&#45;&gt;Node28 -->
<g id="edge54" class="edge">
<title>Node27&#45;&gt;Node28</title>
<path fill="none" stroke="#191970" d="M1206.8218,-110.4179C1242.8393,-99.8589 1305.3801,-82.5953 1344.1958,-72.5149"/>
<polygon fill="#191970" stroke="#191970" points="1345.1843,-75.8747 1353.9975,-69.9945 1343.4409,-69.0952 1345.1843,-75.8747"/>
</g>
<!-- Node27&#45;&gt;Node29 -->
<g id="edge56" class="edge">
<title>Node27&#45;&gt;Node29</title>
<path fill="none" stroke="#191970" d="M1210.6039,-112.4251C1253.95,-103.7482 1333.8555,-88.4129 1402.1273,-74 1404.7126,-73.4542 1407.3846,-72.8781 1410.0937,-72.2903"/>
<polygon fill="#191970" stroke="#191970" points="1410.9482,-75.6864 1419.9781,-70.1447 1409.4632,-68.8458 1410.9482,-75.6864"/>
</g>
<!-- Node27&#45;&gt;Node31 -->
<g id="edge60" class="edge">
<title>Node27&#45;&gt;Node31</title>
<path fill="none" stroke="#191970" d="M1210.7886,-118.8171C1351.7223,-115.6511 1923.5327,-101.4375 2124.2396,-73.9733"/>
<polygon fill="#191970" stroke="#191970" points="2124.9623,-77.4057 2134.3678,-72.5287 2123.9738,-70.4758 2124.9623,-77.4057"/>
</g>
<!-- Node27&#45;&gt;Node32 -->
<g id="edge61" class="edge">
<title>Node27&#45;&gt;Node32</title>
<path fill="none" stroke="#191970" d="M1188.87,-110.4179C1197.5291,-102.3458 1210.3913,-90.3556 1220.801,-80.6517"/>
<polygon fill="#191970" stroke="#191970" points="1223.2449,-83.1584 1228.173,-73.7795 1218.4717,-78.0381 1223.2449,-83.1584"/>
</g>
<!-- Node27&#45;&gt;Node33 -->
<g id="edge65" class="edge">
<title>Node27&#45;&gt;Node33</title>
<path fill="none" stroke="#191970" d="M1210.7964,-119.0319C1358.8265,-116.7026 1984.1055,-105.2601 2201.6081,-73.6332"/>
<polygon fill="#191970" stroke="#191970" points="2202.2904,-77.0698 2211.6536,-72.1118 2201.2422,-70.1487 2202.2904,-77.0698"/>
</g>
<!-- Node27&#45;&gt;Node34 -->
<g id="edge66" class="edge">
<title>Node27&#45;&gt;Node34</title>
<path fill="none" stroke="#191970" d="M1210.5906,-119.2729C1364.4323,-117.9999 2039.0282,-110.4949 2270.264,-73.6167"/>
<polygon fill="#191970" stroke="#191970" points="2270.9887,-77.0444 2280.2797,-71.9524 2269.8412,-70.1391 2270.9887,-77.0444"/>
</g>
<!-- Node35 -->
<g id="node36" class="node">
<title>Node35</title>
<g id="a_node36"><a xlink:href="src_2include_2type_8h.html" target="_top" xlink:title="type.h">
<polygon fill="#ffffff" stroke="#000000" points="1116.5067,-55.5 1116.5067,-73.5 1159.7479,-73.5 1159.7479,-55.5 1116.5067,-55.5"/>
<text text-anchor="middle" x="1138.1273" y="-61.5" font-family="Helvetica,sans-Serif" font-size="10.00" fill="#000000">type.h</text>
</a>
</g>
</g>
<!-- Node27&#45;&gt;Node35 -->
<g id="edge67" class="edge">
<title>Node27&#45;&gt;Node35</title>
<path fill="none" stroke="#191970" d="M1172.357,-110.4179C1166.5757,-102.6624 1158.0981,-91.29 1151.0263,-81.8035"/>
<polygon fill="#191970" stroke="#191970" points="1153.8276,-79.7051 1145.0448,-73.7795 1148.2153,-83.8888 1153.8276,-79.7051"/>
</g>
<!-- Node28&#45;&gt;Node27 -->
<g id="edge55" class="edge">
<title>Node28&#45;&gt;Node27</title>
<path fill="none" stroke="#191970" d="M1353.7618,-72.603C1320.5163,-82.4157 1260.8533,-98.9414 1220.5543,-109.5269"/>
<polygon fill="#191970" stroke="#191970" points="1219.5472,-106.1724 1210.7539,-112.0825 1221.3135,-112.9459 1219.5472,-106.1724"/>
</g>
<!-- Node29&#45;&gt;Node27 -->
<g id="edge57" class="edge">
<title>Node29&#45;&gt;Node27</title>
<path fill="none" stroke="#191970" d="M1422.3404,-73.5299C1421.5972,-73.6887 1420.8588,-73.8456 1420.1273,-74 1350.5362,-88.6914 1268.8574,-104.3412 1220.5497,-112.9206"/>
<polygon fill="#191970" stroke="#191970" points="1219.7159,-109.5134 1210.4728,-114.6917 1220.9278,-116.4077 1219.7159,-109.5134"/>
</g>
<!-- Node30 -->
<g id="node31" class="node">
<title>Node30</title>
<g id="a_node31"><a xlink:href="str_8h.html" target="_top" xlink:title="str.h">
<polygon fill="#ffffff" stroke="#000000" points="1397.6767,-.5 1397.6767,-18.5 1432.578,-18.5 1432.578,-.5 1397.6767,-.5"/>
<text text-anchor="middle" x="1415.1273" y="-6.5" font-family="Helvetica,sans-Serif" font-size="10.00" fill="#000000">str.h</text>
</a>
</g>
</g>
<!-- Node29&#45;&gt;Node30 -->
<g id="edge58" class="edge">
<title>Node29&#45;&gt;Node30</title>
<path fill="none" stroke="#191970" d="M1446.8524,-55.4179C1441.5488,-47.7415 1433.7969,-36.5217 1427.2835,-27.0945"/>
<polygon fill="#191970" stroke="#191970" points="1430.1025,-25.0173 1421.5386,-18.7795 1424.3434,-28.9963 1430.1025,-25.0173"/>
</g>
<!-- Node30&#45;&gt;Node27 -->
<g id="edge59" class="edge">
<title>Node30&#45;&gt;Node27</title>
<path fill="none" stroke="#191970" d="M1398.7746,-18.5208C1375.1128,-31.4393 1329.8109,-55.6708 1290.1273,-74 1264.4337,-85.8675 1234.7408,-97.9566 1212.5342,-106.6881"/>
<polygon fill="#191970" stroke="#191970" points="1211.246,-103.4337 1203.2048,-110.3322 1213.7928,-109.9539 1211.246,-103.4337"/>
</g>
<!-- Node32&#45;&gt;Node1 -->
<g id="edge63" class="edge">
<title>Node32&#45;&gt;Node1</title>
<path fill="none" stroke="#191970" d="M1215.9943,-56.3846C1190.917,-47.1896 1149.7956,-32.1117 1120.9738,-21.5437"/>
<polygon fill="#191970" stroke="#191970" points="1121.9323,-18.1674 1111.3387,-18.0108 1119.5225,-24.7395 1121.9323,-18.1674"/>
</g>
<!-- Node32&#45;&gt;Node4 -->
<g id="edge62" class="edge">
<title>Node32&#45;&gt;Node4</title>
<path fill="none" stroke="#191970" d="M1235.9807,-55.4179C1234.2598,-48.1372 1231.7855,-37.669 1229.6338,-28.5659"/>
<polygon fill="#191970" stroke="#191970" points="1233.0271,-27.7062 1227.3207,-18.7795 1226.2148,-29.3164 1233.0271,-27.7062"/>
</g>
<!-- Node32&#45;&gt;Node14 -->
<g id="edge64" class="edge">
<title>Node32&#45;&gt;Node14</title>
<path fill="none" stroke="#191970" d="M1248.3654,-55.4179C1257.4647,-47.3458 1270.981,-35.3556 1281.92,-25.6517"/>
<polygon fill="#191970" stroke="#191970" points="1284.5088,-28.0339 1289.6669,-18.7795 1279.8634,-22.7974 1284.5088,-28.0339"/>
</g>
</g>
</svg>
