<?xml version="1.0" encoding="UTF-8" standalone="no"?>
<!DOCTYPE svg PUBLIC "-//W3C//DTD SVG 1.1//EN"
 "http://www.w3.org/Graphics/SVG/1.1/DTD/svg11.dtd">
<!-- Generated by graphviz version 2.40.1 (20161225.0304)
 -->
<!-- Title: ext_comps/shim/include/event.h Pages: 1 -->
<svg width="2490pt" height="367pt"
 viewBox="0.00 0.00 2490.39 367.00" xmlns="http://www.w3.org/2000/svg" xmlns:xlink="http://www.w3.org/1999/xlink">
<g id="graph0" class="graph" transform="scale(1 1) rotate(0) translate(4 363)">
<title>ext_comps/shim/include/event.h</title>
<polygon fill="#ffffff" stroke="transparent" points="-4,4 -4,-363 2486.3912,-363 2486.3912,4 -4,4"/>
<!-- Node0 -->
<g id="node1" class="node">
<title>Node0</title>
<polygon fill="#bfbfbf" stroke="#000000" points="1210.4137,-330.5 1210.4137,-358.5 1333.1276,-358.5 1333.1276,-330.5 1210.4137,-330.5"/>
<text text-anchor="start" x="1218.4137" y="-346.5" font-family="Helvetica,sans-Serif" font-size="10.00" fill="#000000">ext_comps/shim/include</text>
<text text-anchor="middle" x="1271.7706" y="-336.5" font-family="Helvetica,sans-Serif" font-size="10.00" fill="#000000">/event.h</text>
</g>
<!-- Node1 -->
<g id="node2" class="node">
<title>Node1</title>
<g id="a_node2"><a xlink:href="ext__comps_2shim_2include_2common_8h.html" target="_top" xlink:title="common.h">
<polygon fill="#ffffff" stroke="#000000" points="1146.4283,-220.5 1146.4283,-238.5 1209.1129,-238.5 1209.1129,-220.5 1146.4283,-220.5"/>
<text text-anchor="middle" x="1177.7706" y="-226.5" font-family="Helvetica,sans-Serif" font-size="10.00" fill="#000000">common.h</text>
</a>
</g>
</g>
<!-- Node0&#45;&gt;Node1 -->
<g id="edge1" class="edge">
<title>Node0&#45;&gt;Node1</title>
<path fill="none" stroke="#191970" d="M1241.3148,-330.3827C1225.9416,-321.841 1208.1821,-309.5747 1196.7706,-294 1187.0683,-280.7579 1182.292,-262.6013 1179.9576,-248.9251"/>
<polygon fill="#191970" stroke="#191970" points="1183.3775,-248.111 1178.5164,-238.6972 1176.446,-249.0877 1183.3775,-248.111"/>
</g>
<!-- Node38 -->
<g id="node39" class="node">
<title>Node38</title>
<g id="a_node39"><a xlink:href="ext__comps_2shim_2include_2context_8h.html" target="_top" xlink:title="context.h">
<polygon fill="#ffffff" stroke="#000000" points="1205.4801,-275.5 1205.4801,-293.5 1262.0612,-293.5 1262.0612,-275.5 1205.4801,-275.5"/>
<text text-anchor="middle" x="1233.7706" y="-281.5" font-family="Helvetica,sans-Serif" font-size="10.00" fill="#000000">context.h</text>
</a>
</g>
</g>
<!-- Node0&#45;&gt;Node38 -->
<g id="edge76" class="edge">
<title>Node0&#45;&gt;Node38</title>
<path fill="none" stroke="#191970" d="M1262.7652,-330.2808C1257.4223,-321.8448 1250.6055,-311.0813 1244.9241,-302.1107"/>
<polygon fill="#191970" stroke="#191970" points="1247.8314,-300.1597 1239.5239,-293.5842 1241.9176,-303.9051 1247.8314,-300.1597"/>
</g>
<!-- Node39 -->
<g id="node40" class="node">
<title>Node39</title>
<g id="a_node40"><a xlink:href="ext__comps_2shim_2include_2event__id_8h.html" target="_top" xlink:title="event_id.h">
<polygon fill="#ffffff" stroke="#000000" points="1279.6969,-275.5 1279.6969,-293.5 1341.8444,-293.5 1341.8444,-275.5 1279.6969,-275.5"/>
<text text-anchor="middle" x="1310.7706" y="-281.5" font-family="Helvetica,sans-Serif" font-size="10.00" fill="#000000">event_id.h</text>
</a>
</g>
</g>
<!-- Node0&#45;&gt;Node39 -->
<g id="edge78" class="edge">
<title>Node0&#45;&gt;Node39</title>
<path fill="none" stroke="#191970" d="M1281.0131,-330.2808C1286.4965,-321.8448 1293.4928,-311.0813 1299.3236,-302.1107"/>
<polygon fill="#191970" stroke="#191970" points="1302.3505,-303.8761 1304.8659,-293.5842 1296.4814,-300.0612 1302.3505,-303.8761"/>
</g>
<!-- Node40 -->
<g id="node41" class="node">
<title>Node40</title>
<g id="a_node41"><a xlink:href="ext__comps_2shim_2include_2event__list_8h.html" target="_top" xlink:title="event_list.h">
<polygon fill="#ffffff" stroke="#000000" points="2165.4777,-220.5 2165.4777,-238.5 2232.0636,-238.5 2232.0636,-220.5 2165.4777,-220.5"/>
<text text-anchor="middle" x="2198.7706" y="-226.5" font-family="Helvetica,sans-Serif" font-size="10.00" fill="#000000">event_list.h</text>
</a>
</g>
</g>
<!-- Node0&#45;&gt;Node40 -->
<g id="edge79" class="edge">
<title>Node0&#45;&gt;Node40</title>
<path fill="none" stroke="#191970" d="M1333.3116,-336.8655C1508.055,-315.1875 2004.3311,-253.6214 2154.9151,-234.9406"/>
<polygon fill="#191970" stroke="#191970" points="2155.6575,-238.3754 2165.1505,-233.6708 2154.7957,-231.4286 2155.6575,-238.3754"/>
</g>
<!-- Node2 -->
<g id="node3" class="node">
<title>Node2</title>
<polygon fill="#ffffff" stroke="#bfbfbf" points="1845.0392,-.5 1845.0392,-18.5 1890.5021,-18.5 1890.5021,-.5 1845.0392,-.5"/>
<text text-anchor="middle" x="1867.7706" y="-6.5" font-family="Helvetica,sans-Serif" font-size="10.00" fill="#000000">stdio.h</text>
</g>
<!-- Node1&#45;&gt;Node2 -->
<g id="edge2" class="edge">
<title>Node1&#45;&gt;Node2</title>
<path fill="none" stroke="#191970" d="M1209.3984,-228.5031C1346.2093,-224.0921 1887.7628,-205.5914 2056.7706,-184 2203.4496,-165.2612 2320.3074,-212.994 2370.7706,-74 2373.6524,-66.0625 2376.4664,-61.2343 2370.7706,-55 2339.0722,-20.3047 2007.7002,-11.8104 1900.8088,-9.9656"/>
<polygon fill="#191970" stroke="#191970" points="1900.6674,-6.4629 1890.6112,-9.7983 1900.5524,-13.462 1900.6674,-6.4629"/>
</g>
<!-- Node3 -->
<g id="node4" class="node">
<title>Node3</title>
<polygon fill="#ffffff" stroke="#bfbfbf" points="33.2584,-55.5 33.2584,-73.5 84.2828,-73.5 84.2828,-55.5 33.2584,-55.5"/>
<text text-anchor="middle" x="58.7706" y="-61.5" font-family="Helvetica,sans-Serif" font-size="10.00" fill="#000000">unistd.h</text>
</g>
<!-- Node1&#45;&gt;Node3 -->
<g id="edge3" class="edge">
<title>Node1&#45;&gt;Node3</title>
<path fill="none" stroke="#191970" d="M1146.0312,-228.6985C1020.2795,-225.3549 556.8735,-211.3995 412.7706,-184 335.5873,-169.3245 319.2216,-154.0936 244.7706,-129 192.2225,-111.2887 131.5711,-90.1196 94.1947,-76.9898"/>
<polygon fill="#191970" stroke="#191970" points="94.8908,-73.5245 84.296,-73.5092 92.5688,-80.1282 94.8908,-73.5245"/>
</g>
<!-- Node4 -->
<g id="node5" class="node">
<title>Node4</title>
<polygon fill="#ffffff" stroke="#bfbfbf" points="101.9283,-55.5 101.9283,-73.5 149.6129,-73.5 149.6129,-55.5 101.9283,-55.5"/>
<text text-anchor="middle" x="125.7706" y="-61.5" font-family="Helvetica,sans-Serif" font-size="10.00" fill="#000000">stdlib.h</text>
</g>
<!-- Node1&#45;&gt;Node4 -->
<g id="edge4" class="edge">
<title>Node1&#45;&gt;Node4</title>
<path fill="none" stroke="#191970" d="M1146.0926,-228.3994C1029.6334,-224.1946 625.4146,-208.1562 498.7706,-184 368.4775,-159.1478 220.18,-102.7873 156.9637,-77.3645"/>
<polygon fill="#191970" stroke="#191970" points="158.1469,-74.0675 147.5642,-73.5594 155.5202,-80.5561 158.1469,-74.0675"/>
</g>
<!-- Node5 -->
<g id="node6" class="node">
<title>Node5</title>
<polygon fill="#ffffff" stroke="#bfbfbf" points="1774.7042,-.5 1774.7042,-18.5 1826.837,-18.5 1826.837,-.5 1774.7042,-.5"/>
<text text-anchor="middle" x="1800.7706" y="-6.5" font-family="Helvetica,sans-Serif" font-size="10.00" fill="#000000">stdarg.h</text>
</g>
<!-- Node1&#45;&gt;Node5 -->
<g id="edge5" class="edge">
<title>Node1&#45;&gt;Node5</title>
<path fill="none" stroke="#191970" d="M1209.1848,-229.0322C1305.6435,-227.2426 1605.9139,-219.0377 1851.7706,-184 2077.8906,-151.775 2210.5885,-251.9538 2353.7706,-74 2424.4945,13.8991 1973.7536,-35.5943 1837.0512,-18.6779"/>
<polygon fill="#191970" stroke="#191970" points="1837.4214,-15.1949 1827.0213,-17.2169 1836.4123,-22.1218 1837.4214,-15.1949"/>
</g>
<!-- Node6 -->
<g id="node7" class="node">
<title>Node6</title>
<polygon fill="#ffffff" stroke="#bfbfbf" points="167.65,-55.5 167.65,-73.5 215.8912,-73.5 215.8912,-55.5 167.65,-55.5"/>
<text text-anchor="middle" x="191.7706" y="-61.5" font-family="Helvetica,sans-Serif" font-size="10.00" fill="#000000">stdint.h</text>
</g>
<!-- Node1&#45;&gt;Node6 -->
<g id="edge6" class="edge">
<title>Node1&#45;&gt;Node6</title>
<path fill="none" stroke="#191970" d="M1146.2613,-227.9968C1039.2383,-222.7515 690.21,-204.4619 579.7706,-184 495.8459,-168.4507 477.3531,-154.0886 395.7706,-129 335.7108,-110.5302 265.9485,-88.3059 225.5318,-75.3539"/>
<polygon fill="#191970" stroke="#191970" points="226.5036,-71.99 215.9124,-72.2687 224.3657,-78.6556 226.5036,-71.99"/>
</g>
<!-- Node7 -->
<g id="node8" class="node">
<title>Node7</title>
<polygon fill="#ffffff" stroke="#bfbfbf" points="234.3741,-55.5 234.3741,-73.5 283.1671,-73.5 283.1671,-55.5 234.3741,-55.5"/>
<text text-anchor="middle" x="258.7706" y="-61.5" font-family="Helvetica,sans-Serif" font-size="10.00" fill="#000000">string.h</text>
</g>
<!-- Node1&#45;&gt;Node7 -->
<g id="edge7" class="edge">
<title>Node1&#45;&gt;Node7</title>
<path fill="none" stroke="#191970" d="M1146.331,-229.0617C1064.2352,-227.4269 836.9419,-219.7537 651.7706,-184 580.6048,-170.259 374.6744,-102.9967 292.8626,-75.8716"/>
<polygon fill="#191970" stroke="#191970" points="293.8858,-72.5235 283.2923,-72.6938 291.6798,-79.1669 293.8858,-72.5235"/>
</g>
<!-- Node8 -->
<g id="node9" class="node">
<title>Node8</title>
<polygon fill="#ffffff" stroke="#bfbfbf" points="300.8741,-55.5 300.8741,-73.5 354.6671,-73.5 354.6671,-55.5 300.8741,-55.5"/>
<text text-anchor="middle" x="327.7706" y="-61.5" font-family="Helvetica,sans-Serif" font-size="10.00" fill="#000000">strings.h</text>
</g>
<!-- Node1&#45;&gt;Node8 -->
<g id="edge8" class="edge">
<title>Node1&#45;&gt;Node8</title>
<path fill="none" stroke="#191970" d="M1146.2884,-227.5168C1055.9839,-221.6522 797.2882,-203.5748 714.7706,-184 625.7881,-162.8916 610.265,-136.612 522.7706,-110 456.4294,-89.8218 435.8951,-91.0893 364.7665,-74.1558"/>
<polygon fill="#191970" stroke="#191970" points="365.414,-70.7115 354.8713,-71.7613 363.7675,-77.5151 365.414,-70.7115"/>
</g>
<!-- Node9 -->
<g id="node10" class="node">
<title>Node9</title>
<polygon fill="#ffffff" stroke="#bfbfbf" points="372.6427,-55.5 372.6427,-73.5 430.8986,-73.5 430.8986,-55.5 372.6427,-55.5"/>
<text text-anchor="middle" x="401.7706" y="-61.5" font-family="Helvetica,sans-Serif" font-size="10.00" fill="#000000">pthread.h</text>
</g>
<!-- Node1&#45;&gt;Node9 -->
<g id="edge9" class="edge">
<title>Node1&#45;&gt;Node9</title>
<path fill="none" stroke="#191970" d="M1146.3058,-227.3249C1063.1719,-221.3686 839.1724,-203.9042 767.7706,-184 692.2998,-162.9615 682.0886,-134.8054 607.7706,-110 538.308,-86.8152 515.9793,-90.8663 441.1081,-74.2169"/>
<polygon fill="#191970" stroke="#191970" points="441.7327,-70.7696 431.2053,-71.9632 440.1793,-77.5951 441.7327,-70.7696"/>
</g>
<!-- Node10 -->
<g id="node11" class="node">
<title>Node10</title>
<polygon fill="#ffffff" stroke="#bfbfbf" points="448.65,-55.5 448.65,-73.5 496.8912,-73.5 496.8912,-55.5 448.65,-55.5"/>
<text text-anchor="middle" x="472.7706" y="-61.5" font-family="Helvetica,sans-Serif" font-size="10.00" fill="#000000">ctype.h</text>
</g>
<!-- Node1&#45;&gt;Node10 -->
<g id="edge10" class="edge">
<title>Node1&#45;&gt;Node10</title>
<path fill="none" stroke="#191970" d="M1146.2979,-226.893C1070.4125,-220.3874 879.1072,-202.617 817.7706,-184 747.399,-162.6406 739.1058,-134.516 669.7706,-110 602.438,-86.1921 580.0299,-91.7714 507.3356,-74.2373"/>
<polygon fill="#191970" stroke="#191970" points="507.7799,-70.7415 497.2314,-71.7311 506.0947,-77.5357 507.7799,-70.7415"/>
</g>
<!-- Node11 -->
<g id="node12" class="node">
<title>Node11</title>
<polygon fill="#ffffff" stroke="#bfbfbf" points="514.9283,-55.5 514.9283,-73.5 562.6129,-73.5 562.6129,-55.5 514.9283,-55.5"/>
<text text-anchor="middle" x="538.7706" y="-61.5" font-family="Helvetica,sans-Serif" font-size="10.00" fill="#000000">errno.h</text>
</g>
<!-- Node1&#45;&gt;Node11 -->
<g id="edge11" class="edge">
<title>Node1&#45;&gt;Node11</title>
<path fill="none" stroke="#191970" d="M1146.1298,-228.2109C1089.0615,-225.1585 965.6389,-215.215 866.7706,-184 797.0199,-161.9781 788.4375,-135.199 719.7706,-110 658.8115,-87.6296 638.4621,-91.2785 572.8627,-74.4317"/>
<polygon fill="#191970" stroke="#191970" points="573.4074,-70.9558 562.8456,-71.7918 571.6235,-77.7247 573.4074,-70.9558"/>
</g>
<!-- Node12 -->
<g id="node13" class="node">
<title>Node12</title>
<polygon fill="#ffffff" stroke="#bfbfbf" points="580.1549,-55.5 580.1549,-73.5 623.3864,-73.5 623.3864,-55.5 580.1549,-55.5"/>
<text text-anchor="middle" x="601.7706" y="-61.5" font-family="Helvetica,sans-Serif" font-size="10.00" fill="#000000">time.h</text>
</g>
<!-- Node1&#45;&gt;Node12 -->
<g id="edge12" class="edge">
<title>Node1&#45;&gt;Node12</title>
<path fill="none" stroke="#191970" d="M1146.209,-227.1746C1095.4921,-222.7662 993.1887,-211.0911 910.7706,-184 876.0272,-172.5797 797.9038,-123.1322 763.7706,-110 710.2785,-89.4198 692.548,-90.6532 633.3034,-74.0488"/>
<polygon fill="#191970" stroke="#191970" points="634.0037,-70.6088 623.4267,-71.2246 632.0792,-77.339 634.0037,-70.6088"/>
</g>
<!-- Node13 -->
<g id="node14" class="node">
<title>Node13</title>
<polygon fill="#ffffff" stroke="#bfbfbf" points="641.4308,-55.5 641.4308,-73.5 684.1105,-73.5 684.1105,-55.5 641.4308,-55.5"/>
<text text-anchor="middle" x="662.7706" y="-61.5" font-family="Helvetica,sans-Serif" font-size="10.00" fill="#000000">fcntl.h</text>
</g>
<!-- Node1&#45;&gt;Node13 -->
<g id="edge13" class="edge">
<title>Node1&#45;&gt;Node13</title>
<path fill="none" stroke="#191970" d="M1146.4184,-225.1983C1103.8545,-218.842 1025.7549,-205.3379 961.7706,-184 906.8809,-165.695 896.0032,-153.8939 843.7706,-129 826.3654,-120.7047 822.6638,-117.1823 804.7706,-110 794.3228,-105.8062 732.5072,-86.3029 693.958,-74.2325"/>
<polygon fill="#191970" stroke="#191970" points="694.8231,-70.8359 684.2342,-71.1908 692.7333,-77.5167 694.8231,-70.8359"/>
</g>
<!-- Node14 -->
<g id="node15" class="node">
<title>Node14</title>
<polygon fill="#ffffff" stroke="#bfbfbf" points="702.5367,-55.5 702.5367,-73.5 753.0045,-73.5 753.0045,-55.5 702.5367,-55.5"/>
<text text-anchor="middle" x="727.7706" y="-61.5" font-family="Helvetica,sans-Serif" font-size="10.00" fill="#000000">signal.h</text>
</g>
<!-- Node1&#45;&gt;Node14 -->
<g id="edge14" class="edge">
<title>Node1&#45;&gt;Node14</title>
<path fill="none" stroke="#191970" d="M1146.3383,-222.2598C1112.8297,-214.2118 1058.4189,-200.1935 1012.7706,-184 935.493,-156.5861 919.5075,-141.4211 843.7706,-110 816.1464,-98.5395 784.528,-86.1875 761.2858,-77.2493"/>
<polygon fill="#191970" stroke="#191970" points="762.464,-73.9526 751.8738,-73.6402 759.9577,-80.4886 762.464,-73.9526"/>
</g>
<!-- Node15 -->
<g id="node16" class="node">
<title>Node15</title>
<polygon fill="#ffffff" stroke="#bfbfbf" points="1168.2657,-.5 1168.2657,-18.5 1229.2755,-18.5 1229.2755,-.5 1168.2657,-.5"/>
<text text-anchor="middle" x="1198.7706" y="-6.5" font-family="Helvetica,sans-Serif" font-size="10.00" fill="#000000">sys/time.h</text>
</g>
<!-- Node1&#45;&gt;Node15 -->
<g id="edge15" class="edge">
<title>Node1&#45;&gt;Node15</title>
<path fill="none" stroke="#191970" d="M1146.1219,-228.9802C1012.8632,-226.608 496.9727,-215.5327 337.7706,-184 189.7721,-154.6864 -80.8288,-163.7282 23.7706,-55 43.8661,-34.1113 953.5893,-14.4655 1158.1992,-10.3062"/>
<polygon fill="#191970" stroke="#191970" points="1158.2969,-13.805 1168.224,-10.1033 1158.1552,-6.8064 1158.2969,-13.805"/>
</g>
<!-- Node16 -->
<g id="node17" class="node">
<title>Node16</title>
<polygon fill="#ffffff" stroke="#bfbfbf" points="770.6525,-55.5 770.6525,-73.5 828.8888,-73.5 828.8888,-55.5 770.6525,-55.5"/>
<text text-anchor="middle" x="799.7706" y="-61.5" font-family="Helvetica,sans-Serif" font-size="10.00" fill="#000000">sys/stat.h</text>
</g>
<!-- Node1&#45;&gt;Node16 -->
<g id="edge16" class="edge">
<title>Node1&#45;&gt;Node16</title>
<path fill="none" stroke="#191970" d="M1152.0557,-220.4683C1127.4085,-211.662 1089.2595,-197.6389 1056.7706,-184 971.8448,-148.348 873.7099,-100.9431 827.0878,-78.0337"/>
<polygon fill="#191970" stroke="#191970" points="828.4617,-74.8089 817.9443,-73.5299 825.3685,-81.0884 828.4617,-74.8089"/>
</g>
<!-- Node17 -->
<g id="node18" class="node">
<title>Node17</title>
<polygon fill="#ffffff" stroke="#bfbfbf" points="846.7609,-55.5 846.7609,-73.5 912.7804,-73.5 912.7804,-55.5 846.7609,-55.5"/>
<text text-anchor="middle" x="879.7706" y="-61.5" font-family="Helvetica,sans-Serif" font-size="10.00" fill="#000000">sys/types.h</text>
</g>
<!-- Node1&#45;&gt;Node17 -->
<g id="edge17" class="edge">
<title>Node1&#45;&gt;Node17</title>
<path fill="none" stroke="#191970" d="M1161.0018,-220.4987C1144.0218,-211.3649 1117.0222,-196.7886 1093.7706,-184 1025.0796,-146.2193 944.4258,-100.9278 904.602,-78.5022"/>
<polygon fill="#191970" stroke="#191970" points="906.2691,-75.4242 895.8386,-73.5653 902.8333,-81.523 906.2691,-75.4242"/>
</g>
<!-- Node18 -->
<g id="node19" class="node">
<title>Node18</title>
<polygon fill="#ffffff" stroke="#bfbfbf" points="930.8199,-55.5 930.8199,-73.5 990.7213,-73.5 990.7213,-55.5 930.8199,-55.5"/>
<text text-anchor="middle" x="960.7706" y="-61.5" font-family="Helvetica,sans-Serif" font-size="10.00" fill="#000000">sys/ioctl.h</text>
</g>
<!-- Node1&#45;&gt;Node18 -->
<g id="edge18" class="edge">
<title>Node1&#45;&gt;Node18</title>
<path fill="none" stroke="#191970" d="M1165.7947,-220.3939C1130.2265,-193.349 1024.9447,-113.2959 980.7049,-79.6574"/>
<polygon fill="#191970" stroke="#191970" points="982.7883,-76.8447 972.7096,-73.578 978.5513,-82.4168 982.7883,-76.8447"/>
</g>
<!-- Node19 -->
<g id="node20" class="node">
<title>Node19</title>
<polygon fill="#ffffff" stroke="#bfbfbf" points="1008.2609,-55.5 1008.2609,-73.5 1079.2804,-73.5 1079.2804,-55.5 1008.2609,-55.5"/>
<text text-anchor="middle" x="1043.7706" y="-61.5" font-family="Helvetica,sans-Serif" font-size="10.00" fill="#000000">sys/socket.h</text>
</g>
<!-- Node1&#45;&gt;Node19 -->
<g id="edge19" class="edge">
<title>Node1&#45;&gt;Node19</title>
<path fill="none" stroke="#191970" d="M1170.1823,-220.1561C1148.4394,-193.3832 1085.6792,-116.1038 1057.6166,-81.5492"/>
<polygon fill="#191970" stroke="#191970" points="1060.2969,-79.2975 1051.2758,-73.7414 1054.863,-83.7105 1060.2969,-79.2975"/>
</g>
<!-- Node20 -->
<g id="node21" class="node">
<title>Node20</title>
<polygon fill="#ffffff" stroke="#bfbfbf" points="1097.15,-55.5 1097.15,-73.5 1170.3912,-73.5 1170.3912,-55.5 1097.15,-55.5"/>
<text text-anchor="middle" x="1133.7706" y="-61.5" font-family="Helvetica,sans-Serif" font-size="10.00" fill="#000000">sys/sysinfo.h</text>
</g>
<!-- Node1&#45;&gt;Node20 -->
<g id="edge20" class="edge">
<title>Node1&#45;&gt;Node20</title>
<path fill="none" stroke="#191970" d="M1175.2789,-220.1561C1168.2907,-193.9504 1148.3988,-119.3557 1138.9179,-83.8021"/>
<polygon fill="#191970" stroke="#191970" points="1142.1935,-82.5019 1136.235,-73.7414 1135.4299,-84.3056 1142.1935,-82.5019"/>
</g>
<!-- Node21 -->
<g id="node22" class="node">
<title>Node21</title>
<polygon fill="#ffffff" stroke="#bfbfbf" points="1553.1427,-55.5 1553.1427,-73.5 1616.3986,-73.5 1616.3986,-55.5 1553.1427,-55.5"/>
<text text-anchor="middle" x="1584.7706" y="-61.5" font-family="Helvetica,sans-Serif" font-size="10.00" fill="#000000">arpa/inet.h</text>
</g>
<!-- Node1&#45;&gt;Node21 -->
<g id="edge21" class="edge">
<title>Node1&#45;&gt;Node21</title>
<path fill="none" stroke="#191970" d="M1207.4989,-220.4264C1235.2411,-211.754 1277.6622,-197.967 1313.7706,-184 1403.9515,-149.1174 1507.8695,-101.0029 1556.685,-77.9169"/>
<polygon fill="#191970" stroke="#191970" points="1558.4318,-80.9622 1565.9672,-73.5144 1555.432,-74.6376 1558.4318,-80.9622"/>
</g>
<!-- Node22 -->
<g id="node23" class="node">
<title>Node22</title>
<polygon fill="#ffffff" stroke="#bfbfbf" points="1634.3077,-55.5 1634.3077,-73.5 1699.2335,-73.5 1699.2335,-55.5 1634.3077,-55.5"/>
<text text-anchor="middle" x="1666.7706" y="-61.5" font-family="Helvetica,sans-Serif" font-size="10.00" fill="#000000">netinet/in.h</text>
</g>
<!-- Node1&#45;&gt;Node22 -->
<g id="edge22" class="edge">
<title>Node1&#45;&gt;Node22</title>
<path fill="none" stroke="#191970" d="M1209.2447,-222.121C1243.7581,-213.7991 1300.6406,-199.4045 1348.7706,-184 1455.5441,-149.826 1579.0813,-100.5163 1635.6181,-77.39"/>
<polygon fill="#191970" stroke="#191970" points="1637.136,-80.5505 1645.059,-73.5165 1634.4788,-74.0743 1637.136,-80.5505"/>
</g>
<!-- Node23 -->
<g id="node24" class="node">
<title>Node23</title>
<polygon fill="#ffffff" stroke="#bfbfbf" points="1716.9137,-55.5 1716.9137,-73.5 1794.6276,-73.5 1794.6276,-55.5 1716.9137,-55.5"/>
<text text-anchor="middle" x="1755.7706" y="-61.5" font-family="Helvetica,sans-Serif" font-size="10.00" fill="#000000">net/ethernet.h</text>
</g>
<!-- Node1&#45;&gt;Node23 -->
<g id="edge23" class="edge">
<title>Node1&#45;&gt;Node23</title>
<path fill="none" stroke="#191970" d="M1209.4184,-223.8258C1251.2393,-216.0807 1327.0624,-201.1816 1390.7706,-184 1514.2098,-150.7094 1657.5003,-100.2493 1721.657,-77.0151"/>
<polygon fill="#191970" stroke="#191970" points="1723.0553,-80.231 1731.2591,-73.5267 1720.665,-73.6517 1723.0553,-80.231"/>
</g>
<!-- Node24 -->
<g id="node25" class="node">
<title>Node24</title>
<polygon fill="#ffffff" stroke="#bfbfbf" points="1874.3077,-55.5 1874.3077,-73.5 1939.2335,-73.5 1939.2335,-55.5 1874.3077,-55.5"/>
<text text-anchor="middle" x="1906.7706" y="-61.5" font-family="Helvetica,sans-Serif" font-size="10.00" fill="#000000">netinet/ip.h</text>
</g>
<!-- Node1&#45;&gt;Node24 -->
<g id="edge24" class="edge">
<title>Node1&#45;&gt;Node24</title>
<path fill="none" stroke="#191970" d="M1209.4876,-226.1602C1265.5945,-219.9537 1385.8583,-205.3083 1485.7706,-184 1574.2565,-165.1287 1594.7283,-153.6884 1681.7706,-129 1746.1012,-110.7535 1820.6952,-89.3142 1865.778,-76.3258"/>
<polygon fill="#191970" stroke="#191970" points="1866.8435,-79.6613 1875.4832,-73.5289 1864.9051,-72.935 1866.8435,-79.6613"/>
</g>
<!-- Node25 -->
<g id="node26" class="node">
<title>Node25</title>
<polygon fill="#ffffff" stroke="#bfbfbf" points="1957.5294,-55.5 1957.5294,-73.5 2028.0118,-73.5 2028.0118,-55.5 1957.5294,-55.5"/>
<text text-anchor="middle" x="1992.7706" y="-61.5" font-family="Helvetica,sans-Serif" font-size="10.00" fill="#000000">netinet/tcp.h</text>
</g>
<!-- Node1&#45;&gt;Node25 -->
<g id="edge25" class="edge">
<title>Node1&#45;&gt;Node25</title>
<path fill="none" stroke="#191970" d="M1209.2013,-226.9041C1271.8991,-221.4208 1416.8024,-207.2195 1536.7706,-184 1693.2547,-153.7129 1875.5597,-100.3463 1953.831,-76.5454"/>
<polygon fill="#191970" stroke="#191970" points="1955.1902,-79.7901 1963.7328,-73.5232 1953.1466,-73.095 1955.1902,-79.7901"/>
</g>
<!-- Node26 -->
<g id="node27" class="node">
<title>Node26</title>
<polygon fill="#ffffff" stroke="#bfbfbf" points="2045.9703,-55.5 2045.9703,-73.5 2137.5709,-73.5 2137.5709,-55.5 2045.9703,-55.5"/>
<text text-anchor="middle" x="2091.7706" y="-61.5" font-family="Helvetica,sans-Serif" font-size="10.00" fill="#000000">netinet/ip_icmp.h</text>
</g>
<!-- Node1&#45;&gt;Node26 -->
<g id="edge26" class="edge">
<title>Node1&#45;&gt;Node26</title>
<path fill="none" stroke="#191970" d="M1209.3037,-227.3714C1278.6581,-222.396 1449.5159,-208.5292 1590.7706,-184 1763.2639,-154.0462 1964.9596,-100.0108 2050.2922,-76.2504"/>
<polygon fill="#191970" stroke="#191970" points="2051.4229,-79.5687 2060.112,-73.5066 2049.539,-72.8269 2051.4229,-79.5687"/>
</g>
<!-- Node27 -->
<g id="node28" class="node">
<title>Node27</title>
<g id="a_node28"><a xlink:href="mac2int_8h.html" target="_top" xlink:title="mac2int.h">
<polygon fill="#ffffff" stroke="#000000" points="1188.0934,-165.5 1188.0934,-183.5 1247.4479,-183.5 1247.4479,-165.5 1188.0934,-165.5"/>
<text text-anchor="middle" x="1217.7706" y="-171.5" font-family="Helvetica,sans-Serif" font-size="10.00" fill="#000000">mac2int.h</text>
</a>
</g>
</g>
<!-- Node1&#45;&gt;Node27 -->
<g id="edge27" class="edge">
<title>Node1&#45;&gt;Node27</title>
<path fill="none" stroke="#191970" d="M1184.3758,-220.4179C1189.9586,-212.7415 1198.1185,-201.5217 1204.9746,-192.0945"/>
<polygon fill="#191970" stroke="#191970" points="1207.9708,-193.9255 1211.0219,-183.7795 1202.3096,-189.8082 1207.9708,-193.9255"/>
</g>
<!-- Node29 -->
<g id="node30" class="node">
<title>Node29</title>
<g id="a_node30"><a xlink:href="ip2int_8h.html" target="_top" xlink:title="ip2int.h">
<polygon fill="#ffffff" stroke="#000000" points="1486.6476,-55.5 1486.6476,-73.5 1534.8937,-73.5 1534.8937,-55.5 1486.6476,-55.5"/>
<text text-anchor="middle" x="1510.7706" y="-61.5" font-family="Helvetica,sans-Serif" font-size="10.00" fill="#000000">ip2int.h</text>
</a>
</g>
</g>
<!-- Node1&#45;&gt;Node29 -->
<g id="edge69" class="edge">
<title>Node1&#45;&gt;Node29</title>
<path fill="none" stroke="#191970" d="M1199.8812,-220.3459C1221.0716,-211.451 1253.8651,-197.3661 1281.7706,-184 1356.8142,-148.056 1443.375,-101.4397 1485.3356,-78.5037"/>
<polygon fill="#191970" stroke="#191970" points="1487.2142,-81.4654 1494.3027,-73.5912 1483.8509,-75.3263 1487.2142,-81.4654"/>
</g>
<!-- Node30 -->
<g id="node31" class="node">
<title>Node30</title>
<g id="a_node31"><a xlink:href="database_8h.html" target="_top" xlink:title="database.h">
<polygon fill="#ffffff" stroke="#000000" points="1365.027,-55.5 1365.027,-73.5 1430.5143,-73.5 1430.5143,-55.5 1365.027,-55.5"/>
<text text-anchor="middle" x="1397.7706" y="-61.5" font-family="Helvetica,sans-Serif" font-size="10.00" fill="#000000">database.h</text>
</a>
</g>
</g>
<!-- Node1&#45;&gt;Node30 -->
<g id="edge70" class="edge">
<title>Node1&#45;&gt;Node30</title>
<path fill="none" stroke="#191970" d="M1195.5866,-220.4304C1211.9744,-211.8137 1236.702,-198.1101 1256.7706,-184 1304.3795,-150.5265 1355.3027,-104.5012 1380.9469,-80.5114"/>
<polygon fill="#191970" stroke="#191970" points="1383.4683,-82.9447 1388.3484,-73.5407 1378.669,-77.8488 1383.4683,-82.9447"/>
</g>
<!-- Node32 -->
<g id="node33" class="node">
<title>Node32</title>
<polygon fill="#ffffff" stroke="#bfbfbf" points="2155.3668,-55.5 2155.3668,-73.5 2214.1744,-73.5 2214.1744,-55.5 2155.3668,-55.5"/>
<text text-anchor="middle" x="2184.7706" y="-61.5" font-family="Helvetica,sans-Serif" font-size="10.00" fill="#000000">jansson.h</text>
</g>
<!-- Node1&#45;&gt;Node32 -->
<g id="edge71" class="edge">
<title>Node1&#45;&gt;Node32</title>
<path fill="none" stroke="#191970" d="M1209.1281,-227.8539C1285.5464,-223.5491 1487.3326,-210.4181 1653.7706,-184 1839.5955,-154.5047 2057.5907,-98.5983 2145.2939,-75.2096"/>
<polygon fill="#191970" stroke="#191970" points="2146.3336,-78.5546 2155.0886,-72.588 2144.5237,-71.7926 2146.3336,-78.5546"/>
</g>
<!-- Node33 -->
<g id="node34" class="node">
<title>Node33</title>
<g id="a_node34"><a xlink:href="libcli_8h.html" target="_top" xlink:title="libcli.h">
<polygon fill="#ffffff" stroke="#000000" points="1812.8766,-55.5 1812.8766,-73.5 1856.6647,-73.5 1856.6647,-55.5 1812.8766,-55.5"/>
<text text-anchor="middle" x="1834.7706" y="-61.5" font-family="Helvetica,sans-Serif" font-size="10.00" fill="#000000">libcli.h</text>
</a>
</g>
</g>
<!-- Node1&#45;&gt;Node33 -->
<g id="edge72" class="edge">
<title>Node1&#45;&gt;Node33</title>
<path fill="none" stroke="#191970" d="M1209.5111,-225.1503C1258.5884,-218.1497 1355.6952,-203.2018 1436.7706,-184 1574.9942,-151.2633 1736.0291,-98.1948 1803.0226,-75.4342"/>
<polygon fill="#191970" stroke="#191970" points="1804.2451,-78.7153 1812.5806,-72.1754 1801.9861,-72.0898 1804.2451,-78.7153"/>
</g>
<!-- Node34 -->
<g id="node35" class="node">
<title>Node34</title>
<polygon fill="#ffffff" stroke="#bfbfbf" points="2232.5441,-55.5 2232.5441,-73.5 2282.9972,-73.5 2282.9972,-55.5 2232.5441,-55.5"/>
<text text-anchor="middle" x="2257.7706" y="-61.5" font-family="Helvetica,sans-Serif" font-size="10.00" fill="#000000">mysql.h</text>
</g>
<!-- Node1&#45;&gt;Node34 -->
<g id="edge73" class="edge">
<title>Node1&#45;&gt;Node34</title>
<path fill="none" stroke="#191970" d="M1209.386,-228.1836C1293.05,-224.4113 1527.0337,-211.9863 1719.7706,-184 1838.81,-166.7149 1867.2748,-154.7657 1984.7706,-129 2087.7095,-106.4265 2115.8453,-100.7723 2222.3263,-74.0434"/>
<polygon fill="#191970" stroke="#191970" points="2223.3409,-77.3973 2232.1857,-71.5647 2221.6341,-70.6086 2223.3409,-77.3973"/>
</g>
<!-- Node35 -->
<g id="node36" class="node">
<title>Node35</title>
<polygon fill="#ffffff" stroke="#bfbfbf" points="2301.1549,-55.5 2301.1549,-73.5 2344.3864,-73.5 2344.3864,-55.5 2301.1549,-55.5"/>
<text text-anchor="middle" x="2322.7706" y="-61.5" font-family="Helvetica,sans-Serif" font-size="10.00" fill="#000000">zmq.h</text>
</g>
<!-- Node1&#45;&gt;Node35 -->
<g id="edge74" class="edge">
<title>Node1&#45;&gt;Node35</title>
<path fill="none" stroke="#191970" d="M1209.3151,-228.6852C1299.6974,-226.0198 1567.209,-215.8168 1786.7706,-184 1901.0818,-167.4351 1927.912,-153.5839 2040.7706,-129 2149.1962,-105.3818 2179.5997,-103.0925 2291.1871,-73.9852"/>
<polygon fill="#191970" stroke="#191970" points="2292.3701,-77.2933 2301.1549,-71.3706 2290.594,-70.5224 2292.3701,-77.2933"/>
</g>
<!-- Node37 -->
<g id="node38" class="node">
<title>Node37</title>
<g id="a_node38"><a xlink:href="ext__comps_2shim_2include_2type_8h.html" target="_top" xlink:title="type.h">
<polygon fill="#ffffff" stroke="#000000" points="2439.15,-165.5 2439.15,-183.5 2482.3912,-183.5 2482.3912,-165.5 2439.15,-165.5"/>
<text text-anchor="middle" x="2460.7706" y="-171.5" font-family="Helvetica,sans-Serif" font-size="10.00" fill="#000000">type.h</text>
</a>
</g>
</g>
<!-- Node1&#45;&gt;Node37 -->
<g id="edge75" class="edge">
<title>Node1&#45;&gt;Node37</title>
<path fill="none" stroke="#191970" d="M1209.3726,-229.2947C1378.6909,-228.0509 2179.9408,-220.3114 2424.7706,-184 2426.0654,-183.808 2427.3806,-183.5869 2428.7049,-183.3425"/>
<polygon fill="#191970" stroke="#191970" points="2429.8328,-186.6781 2438.8466,-181.1101 2428.328,-179.8418 2429.8328,-186.6781"/>
</g>
<!-- Node28 -->
<g id="node29" class="node">
<title>Node28</title>
<g id="a_node29"><a xlink:href="src_2include_2common_8h.html" target="_top" xlink:title="common.h">
<polygon fill="#ffffff" stroke="#000000" points="1186.4283,-110.5 1186.4283,-128.5 1249.1129,-128.5 1249.1129,-110.5 1186.4283,-110.5"/>
<text text-anchor="middle" x="1217.7706" y="-116.5" font-family="Helvetica,sans-Serif" font-size="10.00" fill="#000000">common.h</text>
</a>
</g>
</g>
<!-- Node27&#45;&gt;Node28 -->
<g id="edge28" class="edge">
<title>Node27&#45;&gt;Node28</title>
<path fill="none" stroke="#191970" d="M1212.6043,-165.4179C1211.1128,-158.2164 1210.6748,-147.8962 1211.2904,-138.8632"/>
<polygon fill="#191970" stroke="#191970" points="1214.7833,-139.1392 1212.5639,-128.7795 1207.8384,-138.2621 1214.7833,-139.1392"/>
</g>
<!-- Node28&#45;&gt;Node2 -->
<g id="edge29" class="edge">
<title>Node28&#45;&gt;Node2</title>
<path fill="none" stroke="#191970" d="M1249.3435,-115.6766C1293.0258,-109.7959 1373.957,-96.7564 1439.7706,-74 1457.6163,-67.8295 1459.6338,-60.2533 1477.7706,-55 1628.2206,-11.4221 1676.8766,-48.3124 1834.7651,-18.8157"/>
<polygon fill="#191970" stroke="#191970" points="1835.672,-22.2054 1844.8279,-16.8743 1834.3459,-15.3321 1835.672,-22.2054"/>
</g>
<!-- Node28&#45;&gt;Node3 -->
<g id="edge30" class="edge">
<title>Node28&#45;&gt;Node3</title>
<path fill="none" stroke="#191970" d="M1186.1682,-119.2114C1029.2302,-117.6296 332.0612,-108.8217 94.5686,-73.9107"/>
<polygon fill="#191970" stroke="#191970" points="95.0364,-70.4416 84.6223,-72.3901 93.9785,-77.3612 95.0364,-70.4416"/>
</g>
<!-- Node28&#45;&gt;Node4 -->
<g id="edge31" class="edge">
<title>Node28&#45;&gt;Node4</title>
<path fill="none" stroke="#191970" d="M1186.2599,-119.1536C1035.2729,-117.3422 384.2508,-107.7765 159.8134,-73.7107"/>
<polygon fill="#191970" stroke="#191970" points="160.1946,-70.2276 149.7706,-72.1226 159.1012,-77.1417 160.1946,-70.2276"/>
</g>
<!-- Node28&#45;&gt;Node5 -->
<g id="edge32" class="edge">
<title>Node28&#45;&gt;Node5</title>
<path fill="none" stroke="#191970" d="M1220.2918,-110.0823C1224.7488,-95.4758 1235.52,-67.7199 1255.7706,-55 1298.7017,-28.0339 1649.3535,-14.3927 1764.3768,-10.6126"/>
<polygon fill="#191970" stroke="#191970" points="1764.5622,-14.1085 1774.444,-10.2872 1764.3361,-7.1121 1764.5622,-14.1085"/>
</g>
<!-- Node28&#45;&gt;Node6 -->
<g id="edge33" class="edge">
<title>Node28&#45;&gt;Node6</title>
<path fill="none" stroke="#191970" d="M1186.0788,-119.0122C1040.8254,-116.6309 437.1686,-105.117 226.1837,-73.5865"/>
<polygon fill="#191970" stroke="#191970" points="226.5571,-70.1025 216.1374,-72.0212 225.4793,-77.019 226.5571,-70.1025"/>
</g>
<!-- Node28&#45;&gt;Node7 -->
<g id="edge34" class="edge">
<title>Node28&#45;&gt;Node7</title>
<path fill="none" stroke="#191970" d="M1186.3175,-118.9304C1047.6094,-116.2713 489.1507,-103.9866 293.3745,-73.8695"/>
<polygon fill="#191970" stroke="#191970" points="293.9243,-70.413 283.4957,-72.2823 292.8139,-77.3244 293.9243,-70.413"/>
</g>
<!-- Node28&#45;&gt;Node8 -->
<g id="edge35" class="edge">
<title>Node28&#45;&gt;Node8</title>
<path fill="none" stroke="#191970" d="M1186.1089,-118.6817C1054.0904,-115.1382 546.287,-100.1709 364.7148,-73.7694"/>
<polygon fill="#191970" stroke="#191970" points="365.1834,-70.3005 354.7713,-72.2597 364.1326,-77.2212 365.1834,-70.3005"/>
</g>
<!-- Node28&#45;&gt;Node9 -->
<g id="edge36" class="edge">
<title>Node28&#45;&gt;Node9</title>
<path fill="none" stroke="#191970" d="M1186.4074,-118.448C1062.5825,-114.1763 606.7919,-97.3049 441.1368,-73.8912"/>
<polygon fill="#191970" stroke="#191970" points="441.5231,-70.4103 431.119,-72.412 440.5005,-77.3353 441.5231,-70.4103"/>
</g>
<!-- Node28&#45;&gt;Node10 -->
<g id="edge37" class="edge">
<title>Node28&#45;&gt;Node10</title>
<path fill="none" stroke="#191970" d="M1186.2356,-118.3935C1069.1221,-114.1465 658.5721,-97.9963 507.1612,-73.8313"/>
<polygon fill="#191970" stroke="#191970" points="507.5823,-70.3532 497.1414,-72.153 506.4258,-77.257 507.5823,-70.3532"/>
</g>
<!-- Node28&#45;&gt;Node11 -->
<g id="edge38" class="edge">
<title>Node28&#45;&gt;Node11</title>
<path fill="none" stroke="#191970" d="M1186.0587,-118.1883C1076.0271,-113.4977 710.3503,-96.7087 573.0079,-74.0153"/>
<polygon fill="#191970" stroke="#191970" points="573.1992,-70.4961 562.7472,-72.2298 571.999,-77.3924 573.1992,-70.4961"/>
</g>
<!-- Node28&#45;&gt;Node12 -->
<g id="edge39" class="edge">
<title>Node28&#45;&gt;Node12</title>
<path fill="none" stroke="#191970" d="M1186.2091,-117.9618C1083.5319,-112.8181 758.913,-95.4236 633.7132,-73.6946"/>
<polygon fill="#191970" stroke="#191970" points="634.1029,-70.2079 623.6364,-71.8519 632.8437,-77.0937 634.1029,-70.2079"/>
</g>
<!-- Node28&#45;&gt;Node13 -->
<g id="edge40" class="edge">
<title>Node28&#45;&gt;Node13</title>
<path fill="none" stroke="#191970" d="M1186.1472,-119.0669C1105.5033,-117.4738 885.661,-110.0656 694.2605,-73.6592"/>
<polygon fill="#191970" stroke="#191970" points="694.7862,-70.1961 684.3036,-71.7338 693.4571,-77.0687 694.7862,-70.1961"/>
</g>
<!-- Node28&#45;&gt;Node14 -->
<g id="edge41" class="edge">
<title>Node28&#45;&gt;Node14</title>
<path fill="none" stroke="#191970" d="M1186.2679,-118.2342C1113.3658,-114.9066 927.3539,-104.1311 763.5377,-74.0525"/>
<polygon fill="#191970" stroke="#191970" points="763.751,-70.532 753.2785,-72.1378 762.4666,-77.4132 763.751,-70.532"/>
</g>
<!-- Node28&#45;&gt;Node15 -->
<g id="edge42" class="edge">
<title>Node28&#45;&gt;Node15</title>
<path fill="none" stroke="#191970" d="M1216.2158,-110.4982C1213.14,-92.6913 1206.2191,-52.6225 1202.0786,-28.6515"/>
<polygon fill="#191970" stroke="#191970" points="1205.498,-27.8845 1200.347,-18.6261 1198.6002,-29.076 1205.498,-27.8845"/>
</g>
<!-- Node28&#45;&gt;Node16 -->
<g id="edge43" class="edge">
<title>Node28&#45;&gt;Node16</title>
<path fill="none" stroke="#191970" d="M1186.0396,-117.0594C1122.1543,-111.8549 973.3481,-98.2659 839.192,-74.0692"/>
<polygon fill="#191970" stroke="#191970" points="839.6158,-70.5887 829.1493,-72.2326 838.3565,-77.4745 839.6158,-70.5887"/>
</g>
<!-- Node28&#45;&gt;Node17 -->
<g id="edge44" class="edge">
<title>Node28&#45;&gt;Node17</title>
<path fill="none" stroke="#191970" d="M1186.1056,-115.3731C1133.563,-108.3654 1024.8506,-93.19 923.3144,-74.1926"/>
<polygon fill="#191970" stroke="#191970" points="923.6731,-70.6986 913.1973,-72.2823 922.3742,-77.577 923.6731,-70.6986"/>
</g>
<!-- Node28&#45;&gt;Node18 -->
<g id="edge45" class="edge">
<title>Node28&#45;&gt;Node18</title>
<path fill="none" stroke="#191970" d="M1186.1323,-113.341C1145.3926,-105.32 1072.1659,-90.5989 1001.0452,-74.4657"/>
<polygon fill="#191970" stroke="#191970" points="1001.5553,-70.9922 991.0273,-72.1804 999.9984,-77.8169 1001.5553,-70.9922"/>
</g>
<!-- Node28&#45;&gt;Node19 -->
<g id="edge46" class="edge">
<title>Node28&#45;&gt;Node19</title>
<path fill="none" stroke="#191970" d="M1189.0381,-110.4179C1159.7336,-101.155 1114.106,-86.7325 1081.8165,-76.526"/>
<polygon fill="#191970" stroke="#191970" points="1082.8466,-73.181 1072.2567,-73.5042 1080.7368,-79.8555 1082.8466,-73.181"/>
</g>
<!-- Node28&#45;&gt;Node20 -->
<g id="edge47" class="edge">
<title>Node28&#45;&gt;Node20</title>
<path fill="none" stroke="#191970" d="M1203.8997,-110.4179C1191.0109,-101.9788 1171.5813,-89.257 1156.4393,-79.3426"/>
<polygon fill="#191970" stroke="#191970" points="1157.9456,-76.1454 1147.6621,-73.5956 1154.1111,-82.0017 1157.9456,-76.1454"/>
</g>
<!-- Node28&#45;&gt;Node21 -->
<g id="edge48" class="edge">
<title>Node28&#45;&gt;Node21</title>
<path fill="none" stroke="#191970" d="M1249.3915,-116.035C1306.147,-109.6116 1429.218,-94.7556 1543.1117,-73.9768"/>
<polygon fill="#191970" stroke="#191970" points="1543.8456,-77.4005 1553.0449,-72.1449 1542.576,-70.5166 1543.8456,-77.4005"/>
</g>
<!-- Node28&#45;&gt;Node22 -->
<g id="edge49" class="edge">
<title>Node28&#45;&gt;Node22</title>
<path fill="none" stroke="#191970" d="M1249.1685,-117.2542C1316.2823,-112.1855 1478.8006,-98.4823 1624.1742,-74.1127"/>
<polygon fill="#191970" stroke="#191970" points="1624.8935,-77.5408 1634.1664,-72.416 1623.7216,-70.6396 1624.8935,-77.5408"/>
</g>
<!-- Node28&#45;&gt;Node23 -->
<g id="edge50" class="edge">
<title>Node28&#45;&gt;Node23</title>
<path fill="none" stroke="#191970" d="M1249.1454,-117.7091C1325.61,-113.1056 1527.8072,-99.4966 1706.6768,-74.0197"/>
<polygon fill="#191970" stroke="#191970" points="1707.3969,-77.4521 1716.7956,-72.562 1706.3987,-70.5237 1707.3969,-77.4521"/>
</g>
<!-- Node28&#45;&gt;Node24 -->
<g id="edge51" class="edge">
<title>Node28&#45;&gt;Node24</title>
<path fill="none" stroke="#191970" d="M1249.3195,-119.0426C1342.2223,-117.3248 1622.9055,-109.4771 1864.1763,-74.0282"/>
<polygon fill="#191970" stroke="#191970" points="1864.8104,-77.4725 1874.186,-72.5381 1863.7796,-70.5488 1864.8104,-77.4725"/>
</g>
<!-- Node28&#45;&gt;Node25 -->
<g id="edge52" class="edge">
<title>Node28&#45;&gt;Node25</title>
<path fill="none" stroke="#191970" d="M1249.2376,-119.1746C1349.5985,-117.7925 1671.1549,-110.7053 1947.2671,-73.8381"/>
<polygon fill="#191970" stroke="#191970" points="1948.0411,-77.2654 1957.4823,-72.4576 1947.1036,-70.3284 1948.0411,-77.2654"/>
</g>
<!-- Node28&#45;&gt;Node26 -->
<g id="edge53" class="edge">
<title>Node28&#45;&gt;Node26</title>
<path fill="none" stroke="#191970" d="M1249.1227,-119.061C1357.0326,-117.2761 1723.1612,-108.9486 2035.7479,-73.9777"/>
<polygon fill="#191970" stroke="#191970" points="2036.3679,-77.43 2045.9115,-72.829 2035.5817,-70.4743 2036.3679,-77.43"/>
</g>
<!-- Node28&#45;&gt;Node27 -->
<g id="edge54" class="edge">
<title>Node28&#45;&gt;Node27</title>
<path fill="none" stroke="#191970" d="M1222.9774,-128.7795C1224.4498,-136.0373 1224.8686,-146.3738 1224.2338,-155.383"/>
<polygon fill="#191970" stroke="#191970" points="1220.7476,-155.0517 1222.9369,-165.4179 1227.6898,-155.949 1220.7476,-155.0517"/>
</g>
<!-- Node28&#45;&gt;Node29 -->
<g id="edge55" class="edge">
<title>Node28&#45;&gt;Node29</title>
<path fill="none" stroke="#191970" d="M1249.3677,-113.5936C1296.4297,-105.5945 1387.0346,-90.418 1463.7706,-74 1467.8852,-73.1197 1472.2307,-72.1099 1476.5821,-71.0847"/>
<polygon fill="#191970" stroke="#191970" points="1477.7081,-74.4155 1486.6407,-68.7183 1476.1049,-67.6015 1477.7081,-74.4155"/>
</g>
<!-- Node28&#45;&gt;Node30 -->
<g id="edge57" class="edge">
<title>Node28&#45;&gt;Node30</title>
<path fill="none" stroke="#191970" d="M1242.3276,-110.4179C1271.2721,-100.9762 1319.5717,-86.1738 1354.7313,-75.9398"/>
<polygon fill="#191970" stroke="#191970" points="1356.0921,-79.1899 1364.728,-73.0522 1354.1495,-72.4649 1356.0921,-79.1899"/>
</g>
<!-- Node28&#45;&gt;Node32 -->
<g id="edge61" class="edge">
<title>Node28&#45;&gt;Node32</title>
<path fill="none" stroke="#191970" d="M1249.3024,-118.7863C1388.3607,-115.5135 1948.2673,-100.9911 2145.0783,-73.948"/>
<polygon fill="#191970" stroke="#191970" points="2145.6077,-77.4079 2155.0107,-72.526 2144.6156,-70.4786 2145.6077,-77.4079"/>
</g>
<!-- Node28&#45;&gt;Node33 -->
<g id="edge62" class="edge">
<title>Node28&#45;&gt;Node33</title>
<path fill="none" stroke="#191970" d="M1249.3861,-117.9639C1352.2387,-112.8267 1677.4124,-95.4502 1802.5008,-73.7818"/>
<polygon fill="#191970" stroke="#191970" points="1803.3578,-77.1833 1812.5667,-71.9443 1802.1007,-70.2971 1803.3578,-77.1833"/>
</g>
<!-- Node28&#45;&gt;Node34 -->
<g id="edge66" class="edge">
<title>Node28&#45;&gt;Node34</title>
<path fill="none" stroke="#191970" d="M1249.3759,-119.0039C1395.6222,-116.5678 2008.234,-104.7841 2222.1129,-73.6545"/>
<polygon fill="#191970" stroke="#191970" points="2222.9347,-77.0699 2232.2965,-72.1094 2221.8846,-70.1491 2222.9347,-77.0699"/>
</g>
<!-- Node28&#45;&gt;Node35 -->
<g id="edge67" class="edge">
<title>Node28&#45;&gt;Node35</title>
<path fill="none" stroke="#191970" d="M1249.2256,-119.2476C1401.4346,-117.864 2063.114,-109.9516 2290.7384,-73.6447"/>
<polygon fill="#191970" stroke="#191970" points="2291.6326,-77.0442 2300.9227,-71.9505 2290.4838,-70.1391 2291.6326,-77.0442"/>
</g>
<!-- Node36 -->
<g id="node37" class="node">
<title>Node36</title>
<g id="a_node37"><a xlink:href="src_2include_2type_8h.html" target="_top" xlink:title="type.h">
<polygon fill="#ffffff" stroke="#000000" points="1265.15,-55.5 1265.15,-73.5 1308.3912,-73.5 1308.3912,-55.5 1265.15,-55.5"/>
<text text-anchor="middle" x="1286.7706" y="-61.5" font-family="Helvetica,sans-Serif" font-size="10.00" fill="#000000">type.h</text>
</a>
</g>
</g>
<!-- Node28&#45;&gt;Node36 -->
<g id="edge68" class="edge">
<title>Node28&#45;&gt;Node36</title>
<path fill="none" stroke="#191970" d="M1229.1646,-110.4179C1239.4899,-102.1876 1254.9254,-89.8839 1267.2204,-80.0836"/>
<polygon fill="#191970" stroke="#191970" points="1269.491,-82.7495 1275.1291,-73.7795 1265.1278,-77.2757 1269.491,-82.7495"/>
</g>
<!-- Node29&#45;&gt;Node28 -->
<g id="edge56" class="edge">
<title>Node29&#45;&gt;Node28</title>
<path fill="none" stroke="#191970" d="M1486.6347,-72.9239C1484.9973,-73.2976 1483.3666,-73.6585 1481.7706,-74 1403.8528,-90.6708 1311.6356,-106.0616 1259.2561,-113.9581"/>
<polygon fill="#191970" stroke="#191970" points="1258.7033,-110.5017 1249.3275,-115.4356 1259.7337,-117.4255 1258.7033,-110.5017"/>
</g>
<!-- Node30&#45;&gt;Node28 -->
<g id="edge58" class="edge">
<title>Node30&#45;&gt;Node28</title>
<path fill="none" stroke="#191970" d="M1373.2668,-73.5648C1343.9108,-83.1419 1294.5924,-98.2484 1259.2957,-108.5005"/>
<polygon fill="#191970" stroke="#191970" points="1257.9257,-105.2527 1249.2856,-111.3846 1259.8638,-111.9791 1257.9257,-105.2527"/>
</g>
<!-- Node31 -->
<g id="node32" class="node">
<title>Node31</title>
<g id="a_node32"><a xlink:href="str_8h.html" target="_top" xlink:title="str.h">
<polygon fill="#ffffff" stroke="#000000" points="1349.3199,-.5 1349.3199,-18.5 1384.2213,-18.5 1384.2213,-.5 1349.3199,-.5"/>
<text text-anchor="middle" x="1366.7706" y="-6.5" font-family="Helvetica,sans-Serif" font-size="10.00" fill="#000000">str.h</text>
</a>
</g>
</g>
<!-- Node30&#45;&gt;Node31 -->
<g id="edge59" class="edge">
<title>Node30&#45;&gt;Node31</title>
<path fill="none" stroke="#191970" d="M1392.6516,-55.4179C1388.4142,-47.8998 1382.261,-36.9829 1377.0175,-27.6799"/>
<polygon fill="#191970" stroke="#191970" points="1379.9601,-25.7724 1372.0009,-18.7795 1373.862,-29.2096 1379.9601,-25.7724"/>
</g>
<!-- Node31&#45;&gt;Node28 -->
<g id="edge60" class="edge">
<title>Node31&#45;&gt;Node28</title>
<path fill="none" stroke="#191970" d="M1361.8673,-18.5481C1354.0973,-32.1641 1337.7672,-58.025 1317.7706,-74 1299.7955,-88.3601 1276.5586,-99.2893 1257.0089,-106.8326"/>
<polygon fill="#191970" stroke="#191970" points="1255.6231,-103.6134 1247.4591,-110.3662 1258.0523,-110.1784 1255.6231,-103.6134"/>
</g>
<!-- Node33&#45;&gt;Node2 -->
<g id="edge64" class="edge">
<title>Node33&#45;&gt;Node2</title>
<path fill="none" stroke="#191970" d="M1840.2199,-55.4179C1844.7782,-47.8207 1851.419,-36.7527 1857.0387,-27.3866"/>
<polygon fill="#191970" stroke="#191970" points="1860.0592,-29.1552 1862.203,-18.7795 1854.0567,-25.5536 1860.0592,-29.1552"/>
</g>
<!-- Node33&#45;&gt;Node5 -->
<g id="edge63" class="edge">
<title>Node33&#45;&gt;Node5</title>
<path fill="none" stroke="#191970" d="M1829.1562,-55.4179C1824.4598,-47.8207 1817.6177,-36.7527 1811.8278,-27.3866"/>
<polygon fill="#191970" stroke="#191970" points="1814.7424,-25.445 1806.507,-18.7795 1808.7882,-29.1258 1814.7424,-25.445"/>
</g>
<!-- Node33&#45;&gt;Node15 -->
<g id="edge65" class="edge">
<title>Node33&#45;&gt;Node15</title>
<path fill="none" stroke="#191970" d="M1812.5679,-57.049C1809.6341,-56.2557 1806.6471,-55.5419 1803.7706,-55 1776.0558,-49.7786 1371.1635,-21.4406 1239.6773,-12.3255"/>
<polygon fill="#191970" stroke="#191970" points="1239.8273,-8.8276 1229.6093,-11.6281 1239.3435,-15.8109 1239.8273,-8.8276"/>
</g>
<!-- Node38&#45;&gt;Node1 -->
<g id="edge77" class="edge">
<title>Node38&#45;&gt;Node1</title>
<path fill="none" stroke="#191970" d="M1224.5234,-275.4179C1216.3852,-267.425 1204.3353,-255.5903 1194.5072,-245.9377"/>
<polygon fill="#191970" stroke="#191970" points="1196.8058,-243.2895 1187.2188,-238.7795 1191.9008,-248.2836 1196.8058,-243.2895"/>
</g>
<!-- Node40&#45;&gt;Node37 -->
<g id="edge80" class="edge">
<title>Node40&#45;&gt;Node37</title>
<path fill="none" stroke="#191970" d="M2232.2188,-223.4085C2276.4487,-215.2069 2356.7426,-199.8092 2424.7706,-184 2426.2266,-183.6616 2427.7133,-183.3069 2429.2133,-182.9415"/>
<polygon fill="#191970" stroke="#191970" points="2430.2839,-186.281 2439.1204,-180.4358 2428.5675,-179.4947 2430.2839,-186.281"/>
</g>
</g>
</svg>
