<?xml version="1.0" encoding="UTF-8" standalone="no"?>
<!DOCTYPE svg PUBLIC "-//W3C//DTD SVG 1.1//EN"
 "http://www.w3.org/Graphics/SVG/1.1/DTD/svg11.dtd">
<!-- Generated by graphviz version 2.40.1 (20161225.0304)
 -->
<!-- Title: ext_comps/shim/include/common.h Pages: 1 -->
<svg width="322pt" height="287pt"
 viewBox="0.00 0.00 322.35 287.00" xmlns="http://www.w3.org/2000/svg" xmlns:xlink="http://www.w3.org/1999/xlink">
<g id="graph0" class="graph" transform="scale(1 1) rotate(0) translate(4 283)">
<title>ext_comps/shim/include/common.h</title>
<polygon fill="#ffffff" stroke="transparent" points="-4,4 -4,-283 318.3483,-283 318.3483,4 -4,4"/>
<!-- Node25 -->
<g id="node1" class="node">
<title>Node25</title>
<polygon fill="#bfbfbf" stroke="#000000" points="133,-250.5 133,-278.5 255.7139,-278.5 255.7139,-250.5 133,-250.5"/>
<text text-anchor="start" x="141" y="-266.5" font-family="Helvetica,sans-Serif" font-size="10.00" fill="#000000">ext_comps/shim/include</text>
<text text-anchor="middle" x="194.3569" y="-256.5" font-family="Helvetica,sans-Serif" font-size="10.00" fill="#000000">/common.h</text>
</g>
<!-- Node26 -->
<g id="node2" class="node">
<title>Node26</title>
<g id="a_node2"><a xlink:href="ext__comps_2shim_2include_2component_8h.html" target="_top" xlink:title="ext_comps/shim/include\l/component.h">
<polygon fill="#ffffff" stroke="#000000" points="0,-120.5 0,-148.5 122.7139,-148.5 122.7139,-120.5 0,-120.5"/>
<text text-anchor="start" x="8" y="-136.5" font-family="Helvetica,sans-Serif" font-size="10.00" fill="#000000">ext_comps/shim/include</text>
<text text-anchor="middle" x="61.3569" y="-126.5" font-family="Helvetica,sans-Serif" font-size="10.00" fill="#000000">/component.h</text>
</a>
</g>
</g>
<!-- Node25&#45;&gt;Node26 -->
<g id="edge1" class="edge">
<title>Node25&#45;&gt;Node26</title>
<path fill="none" stroke="#191970" d="M169.2962,-243.6166C158.899,-234.7137 146.8402,-224.0731 136.3569,-214 113.5078,-192.0448 88.5532,-164.9028 73.9636,-148.6843"/>
<polygon fill="#191970" stroke="#191970" points="167.3279,-246.5367 177.2166,-250.3398 171.8579,-241.2001 167.3279,-246.5367"/>
</g>
<!-- Node27 -->
<g id="node3" class="node">
<title>Node27</title>
<g id="a_node3"><a xlink:href="ext__comps_2shim_2include_2shim_8h.html" target="_top" xlink:title="ext_comps/shim/include\l/shim.h">
<polygon fill="#ffffff" stroke="#000000" points="89,-55.5 89,-83.5 211.7139,-83.5 211.7139,-55.5 89,-55.5"/>
<text text-anchor="start" x="97" y="-71.5" font-family="Helvetica,sans-Serif" font-size="10.00" fill="#000000">ext_comps/shim/include</text>
<text text-anchor="middle" x="150.3569" y="-61.5" font-family="Helvetica,sans-Serif" font-size="10.00" fill="#000000">/shim.h</text>
</a>
</g>
</g>
<!-- Node25&#45;&gt;Node27 -->
<g id="edge9" class="edge">
<title>Node25&#45;&gt;Node27</title>
<path fill="none" stroke="#191970" d="M181.0262,-241.5908C176.6641,-233.1646 172.2107,-223.3845 169.3569,-214 155.2963,-167.7624 151.6403,-110.0832 150.6902,-83.7738"/>
<polygon fill="#191970" stroke="#191970" points="177.9787,-243.3133 185.8223,-250.4357 184.1323,-239.9765 177.9787,-243.3133"/>
</g>
<!-- Node30 -->
<g id="node6" class="node">
<title>Node30</title>
<g id="a_node6"><a xlink:href="ext__comps_2shim_2include_2context_8h.html" target="_top" xlink:title="ext_comps/shim/include\l/context.h">
<polygon fill="#ffffff" stroke="#000000" points="178,-185.5 178,-213.5 300.7139,-213.5 300.7139,-185.5 178,-185.5"/>
<text text-anchor="start" x="186" y="-201.5" font-family="Helvetica,sans-Serif" font-size="10.00" fill="#000000">ext_comps/shim/include</text>
<text text-anchor="middle" x="239.3569" y="-191.5" font-family="Helvetica,sans-Serif" font-size="10.00" fill="#000000">/context.h</text>
</a>
</g>
</g>
<!-- Node25&#45;&gt;Node30 -->
<g id="edge5" class="edge">
<title>Node25&#45;&gt;Node30</title>
<path fill="none" stroke="#191970" d="M209.8248,-242.1575C216.387,-232.6788 223.8364,-221.9186 229.6117,-213.5765"/>
<polygon fill="#191970" stroke="#191970" points="206.9357,-240.1818 204.1213,-250.396 212.6911,-244.1663 206.9357,-240.1818"/>
</g>
<!-- Node31 -->
<g id="node7" class="node">
<title>Node31</title>
<g id="a_node7"><a xlink:href="ext__comps_2shim_2include_2event_8h.html" target="_top" xlink:title="ext_comps/shim/include\l/event.h">
<polygon fill="#ffffff" stroke="#000000" points="178,-120.5 178,-148.5 300.7139,-148.5 300.7139,-120.5 178,-120.5"/>
<text text-anchor="start" x="186" y="-136.5" font-family="Helvetica,sans-Serif" font-size="10.00" fill="#000000">ext_comps/shim/include</text>
<text text-anchor="middle" x="239.3569" y="-126.5" font-family="Helvetica,sans-Serif" font-size="10.00" fill="#000000">/event.h</text>
</a>
</g>
</g>
<!-- Node25&#45;&gt;Node31 -->
<g id="edge8" class="edge">
<title>Node25&#45;&gt;Node31</title>
<path fill="none" stroke="#191970" d="M265.5398,-248.0564C282.737,-240.5681 299.0959,-229.7127 309.3569,-214 316.4043,-203.2084 315.2276,-196.4743 309.3569,-185 301.1663,-168.9914 285.2735,-156.8947 270.6991,-148.56"/>
<polygon fill="#191970" stroke="#191970" points="263.9301,-244.9299 255.933,-251.8795 266.5184,-251.4338 263.9301,-244.9299"/>
</g>
<!-- Node26&#45;&gt;Node27 -->
<g id="edge2" class="edge">
<title>Node26&#45;&gt;Node27</title>
<path fill="none" stroke="#191970" d="M88.8084,-114.4511C102.5,-104.4517 118.7283,-92.5995 131.0829,-83.5765"/>
<polygon fill="#191970" stroke="#191970" points="86.6799,-111.6716 80.6686,-120.396 90.8085,-117.3245 86.6799,-111.6716"/>
</g>
<!-- Node28 -->
<g id="node4" class="node">
<title>Node28</title>
<g id="a_node4"><a xlink:href="ext__apps_2shim_2shim_8c.html" target="_top" xlink:title="ext_apps/shim/shim.c">
<polygon fill="#ffffff" stroke="#000000" points="27.2832,-.5 27.2832,-18.5 139.4307,-18.5 139.4307,-.5 27.2832,-.5"/>
<text text-anchor="middle" x="83.3569" y="-6.5" font-family="Helvetica,sans-Serif" font-size="10.00" fill="#000000">ext_apps/shim/shim.c</text>
</a>
</g>
</g>
<!-- Node27&#45;&gt;Node28 -->
<g id="edge3" class="edge">
<title>Node27&#45;&gt;Node28</title>
<path fill="none" stroke="#191970" d="M126.9159,-48.508C115.4871,-38.2733 102.3366,-26.4967 93.5009,-18.5842"/>
<polygon fill="#191970" stroke="#191970" points="124.6944,-51.2169 134.4789,-55.2808 129.3643,-46.0023 124.6944,-51.2169"/>
</g>
<!-- Node29 -->
<g id="node5" class="node">
<title>Node29</title>
<g id="a_node5"><a xlink:href="ext__comps_2shim_2shim_8c.html" target="_top" xlink:title="ext_comps/shim/shim.c">
<polygon fill="#ffffff" stroke="#000000" points="157.3989,-.5 157.3989,-18.5 277.3149,-18.5 277.3149,-.5 157.3989,-.5"/>
<text text-anchor="middle" x="217.3569" y="-6.5" font-family="Helvetica,sans-Serif" font-size="10.00" fill="#000000">ext_comps/shim/shim.c</text>
</a>
</g>
</g>
<!-- Node27&#45;&gt;Node29 -->
<g id="edge4" class="edge">
<title>Node27&#45;&gt;Node29</title>
<path fill="none" stroke="#191970" d="M173.798,-48.508C185.2268,-38.2733 198.3773,-26.4967 207.2129,-18.5842"/>
<polygon fill="#191970" stroke="#191970" points="171.3496,-46.0023 166.235,-55.2808 176.0195,-51.2169 171.3496,-46.0023"/>
</g>
<!-- Node30&#45;&gt;Node31 -->
<g id="edge6" class="edge">
<title>Node30&#45;&gt;Node31</title>
<path fill="none" stroke="#191970" d="M239.3569,-175.1081C239.3569,-166.1539 239.3569,-156.3227 239.3569,-148.5765"/>
<polygon fill="#191970" stroke="#191970" points="235.857,-175.3959 239.3569,-185.396 242.857,-175.396 235.857,-175.3959"/>
</g>
<!-- Node31&#45;&gt;Node27 -->
<g id="edge7" class="edge">
<title>Node31&#45;&gt;Node27</title>
<path fill="none" stroke="#191970" d="M211.9054,-114.4511C198.2138,-104.4517 181.9855,-92.5995 169.6309,-83.5765"/>
<polygon fill="#191970" stroke="#191970" points="209.9054,-117.3245 220.0453,-120.396 214.0339,-111.6716 209.9054,-117.3245"/>
</g>
</g>
</svg>
