<?xml version="1.0" encoding="UTF-8" standalone="no"?>
<!DOCTYPE svg PUBLIC "-//W3C//DTD SVG 1.1//EN"
 "http://www.w3.org/Graphics/SVG/1.1/DTD/svg11.dtd">
<!-- Generated by graphviz version 2.40.1 (20161225.0304)
 -->
<!-- Title: ext_apps/shim/include/type.h Pages: 1 -->
<svg width="348pt" height="297pt"
 viewBox="0.00 0.00 347.98 297.00" xmlns="http://www.w3.org/2000/svg" xmlns:xlink="http://www.w3.org/1999/xlink">
<g id="graph0" class="graph" transform="scale(1 1) rotate(0) translate(4 293)">
<title>ext_apps/shim/include/type.h</title>
<polygon fill="#ffffff" stroke="transparent" points="-4,4 -4,-293 343.9777,-293 343.9777,4 -4,4"/>
<!-- Node1 -->
<g id="node1" class="node">
<title>Node1</title>
<polygon fill="#bfbfbf" stroke="#000000" points="85,-260.5 85,-288.5 199.9453,-288.5 199.9453,-260.5 85,-260.5"/>
<text text-anchor="start" x="93" y="-276.5" font-family="Helvetica,sans-Serif" font-size="10.00" fill="#000000">ext_apps/shim/include</text>
<text text-anchor="middle" x="142.4727" y="-266.5" font-family="Helvetica,sans-Serif" font-size="10.00" fill="#000000">/type.h</text>
</g>
<!-- Node2 -->
<g id="node2" class="node">
<title>Node2</title>
<g id="a_node2"><a xlink:href="ext__apps_2shim_2include_2common_8h.html" target="_top" xlink:title="ext_apps/shim/include\l/common.h">
<polygon fill="#ffffff" stroke="#000000" points="170,-195.5 170,-223.5 284.9453,-223.5 284.9453,-195.5 170,-195.5"/>
<text text-anchor="start" x="178" y="-211.5" font-family="Helvetica,sans-Serif" font-size="10.00" fill="#000000">ext_apps/shim/include</text>
<text text-anchor="middle" x="227.4727" y="-201.5" font-family="Helvetica,sans-Serif" font-size="10.00" fill="#000000">/common.h</text>
</a>
</g>
</g>
<!-- Node1&#45;&gt;Node2 -->
<g id="edge1" class="edge">
<title>Node1&#45;&gt;Node2</title>
<path fill="none" stroke="#191970" d="M169.0611,-254.1677C182.0587,-244.2283 197.3769,-232.5144 209.0649,-223.5765"/>
<polygon fill="#191970" stroke="#191970" points="166.7339,-251.5412 160.9164,-260.396 170.9861,-257.1017 166.7339,-251.5412"/>
</g>
<!-- Node7 -->
<g id="node7" class="node">
<title>Node7</title>
<g id="a_node7"><a xlink:href="ext__apps_2shim_2include_2app__event__list_8h.html" target="_top" xlink:title="ext_apps/shim/include\l/app_event_list.h">
<polygon fill="#ffffff" stroke="#000000" points="0,-130.5 0,-158.5 114.9453,-158.5 114.9453,-130.5 0,-130.5"/>
<text text-anchor="start" x="8" y="-146.5" font-family="Helvetica,sans-Serif" font-size="10.00" fill="#000000">ext_apps/shim/include</text>
<text text-anchor="middle" x="57.4727" y="-136.5" font-family="Helvetica,sans-Serif" font-size="10.00" fill="#000000">/app_event_list.h</text>
</a>
</g>
</g>
<!-- Node1&#45;&gt;Node7 -->
<g id="edge10" class="edge">
<title>Node1&#45;&gt;Node7</title>
<path fill="none" stroke="#191970" d="M127.7291,-251.951C110.1779,-225.1081 81.4021,-181.098 66.7195,-158.6423"/>
<polygon fill="#191970" stroke="#191970" points="124.8124,-253.8859 133.2144,-260.3402 130.6712,-250.0551 124.8124,-253.8859"/>
</g>
<!-- Node3 -->
<g id="node3" class="node">
<title>Node3</title>
<g id="a_node3"><a xlink:href="ext__apps_2shim_2include_2app__event_8h.html" target="_top" xlink:title="ext_apps/shim/include\l/app_event.h">
<polygon fill="#ffffff" stroke="#000000" points="80,-65.5 80,-93.5 194.9453,-93.5 194.9453,-65.5 80,-65.5"/>
<text text-anchor="start" x="88" y="-81.5" font-family="Helvetica,sans-Serif" font-size="10.00" fill="#000000">ext_apps/shim/include</text>
<text text-anchor="middle" x="137.4727" y="-71.5" font-family="Helvetica,sans-Serif" font-size="10.00" fill="#000000">/app_event.h</text>
</a>
</g>
</g>
<!-- Node2&#45;&gt;Node3 -->
<g id="edge2" class="edge">
<title>Node2&#45;&gt;Node3</title>
<path fill="none" stroke="#191970" d="M193.7155,-189.8465C182.0734,-181.6157 169.8639,-171.1238 161.4727,-159 147.524,-138.8469 141.5174,-110.4018 139.0559,-93.5646"/>
<polygon fill="#191970" stroke="#191970" points="191.7769,-192.7606 202.0296,-195.4312 195.6801,-186.9498 191.7769,-192.7606"/>
</g>
<!-- Node4 -->
<g id="node4" class="node">
<title>Node4</title>
<g id="a_node4"><a xlink:href="ext__apps_2shim_2include_2shim_8h.html" target="_top" xlink:title="ext_apps/shim/include\l/shim.h">
<polygon fill="#ffffff" stroke="#000000" points="213,-.5 213,-28.5 327.9453,-28.5 327.9453,-.5 213,-.5"/>
<text text-anchor="start" x="221" y="-16.5" font-family="Helvetica,sans-Serif" font-size="10.00" fill="#000000">ext_apps/shim/include</text>
<text text-anchor="middle" x="270.4727" y="-6.5" font-family="Helvetica,sans-Serif" font-size="10.00" fill="#000000">/shim.h</text>
</a>
</g>
</g>
<!-- Node2&#45;&gt;Node4 -->
<g id="edge9" class="edge">
<title>Node2&#45;&gt;Node4</title>
<path fill="none" stroke="#191970" d="M268.2982,-190.5111C282.4405,-182.3805 297.4847,-171.783 308.4727,-159 328.9769,-135.1461 330.1195,-124.807 336.4727,-94 339.0759,-81.3767 342.1812,-76.5558 336.4727,-65 328.6767,-49.2187 313.3219,-37.0098 299.3833,-28.5525"/>
<polygon fill="#191970" stroke="#191970" points="266.2796,-187.6258 259.1866,-195.496 269.6394,-193.7669 266.2796,-187.6258"/>
</g>
<!-- Node5 -->
<g id="node5" class="node">
<title>Node5</title>
<g id="a_node5"><a xlink:href="ext__apps_2shim_2include_2context_8h.html" target="_top" xlink:title="ext_apps/shim/include\l/context.h">
<polygon fill="#ffffff" stroke="#000000" points="170,-130.5 170,-158.5 284.9453,-158.5 284.9453,-130.5 170,-130.5"/>
<text text-anchor="start" x="178" y="-146.5" font-family="Helvetica,sans-Serif" font-size="10.00" fill="#000000">ext_apps/shim/include</text>
<text text-anchor="middle" x="227.4727" y="-136.5" font-family="Helvetica,sans-Serif" font-size="10.00" fill="#000000">/context.h</text>
</a>
</g>
</g>
<!-- Node2&#45;&gt;Node5 -->
<g id="edge4" class="edge">
<title>Node2&#45;&gt;Node5</title>
<path fill="none" stroke="#191970" d="M227.4727,-185.1081C227.4727,-176.1539 227.4727,-166.3227 227.4727,-158.5765"/>
<polygon fill="#191970" stroke="#191970" points="223.9728,-185.3959 227.4727,-195.396 230.9728,-185.396 223.9728,-185.3959"/>
</g>
<!-- Node6 -->
<g id="node6" class="node">
<title>Node6</title>
<g id="a_node6"><a xlink:href="ext__apps_2shim_2include_2application_8h.html" target="_top" xlink:title="ext_apps/shim/include\l/application.h">
<polygon fill="#ffffff" stroke="#000000" points="213,-65.5 213,-93.5 327.9453,-93.5 327.9453,-65.5 213,-65.5"/>
<text text-anchor="start" x="221" y="-81.5" font-family="Helvetica,sans-Serif" font-size="10.00" fill="#000000">ext_apps/shim/include</text>
<text text-anchor="middle" x="270.4727" y="-71.5" font-family="Helvetica,sans-Serif" font-size="10.00" fill="#000000">/application.h</text>
</a>
</g>
</g>
<!-- Node2&#45;&gt;Node6 -->
<g id="edge8" class="edge">
<title>Node2&#45;&gt;Node6</title>
<path fill="none" stroke="#191970" d="M264.9772,-189.831C276.2479,-181.8829 287.2603,-171.5757 293.4727,-159 304.1636,-137.3583 290.9174,-109.8835 280.5474,-93.5519"/>
<polygon fill="#191970" stroke="#191970" points="262.8394,-187.0469 256.3833,-195.4475 266.669,-192.9065 262.8394,-187.0469"/>
</g>
<!-- Node3&#45;&gt;Node4 -->
<g id="edge3" class="edge">
<title>Node3&#45;&gt;Node4</title>
<path fill="none" stroke="#191970" d="M175.3428,-60.9921C196.4239,-50.6892 222.2495,-38.0677 241.67,-28.5765"/>
<polygon fill="#191970" stroke="#191970" points="173.7793,-57.8605 166.3317,-65.396 176.853,-64.1496 173.7793,-57.8605"/>
</g>
<!-- Node5&#45;&gt;Node3 -->
<g id="edge5" class="edge">
<title>Node5&#45;&gt;Node3</title>
<path fill="none" stroke="#191970" d="M199.7127,-124.4511C185.8673,-114.4517 169.4566,-102.5995 156.9632,-93.5765"/>
<polygon fill="#191970" stroke="#191970" points="197.788,-127.3784 207.944,-130.396 201.8864,-121.7036 197.788,-127.3784"/>
</g>
<!-- Node5&#45;&gt;Node6 -->
<g id="edge6" class="edge">
<title>Node5&#45;&gt;Node6</title>
<path fill="none" stroke="#191970" d="M242.4453,-121.8669C248.6687,-112.4594 255.6982,-101.8334 261.1605,-93.5765"/>
<polygon fill="#191970" stroke="#191970" points="239.4013,-120.1247 236.803,-130.396 245.2395,-123.9869 239.4013,-120.1247"/>
</g>
<!-- Node6&#45;&gt;Node4 -->
<g id="edge7" class="edge">
<title>Node6&#45;&gt;Node4</title>
<path fill="none" stroke="#191970" d="M270.4727,-55.1081C270.4727,-46.1539 270.4727,-36.3227 270.4727,-28.5765"/>
<polygon fill="#191970" stroke="#191970" points="266.9728,-55.3959 270.4727,-65.396 273.9728,-55.396 266.9728,-55.3959"/>
</g>
<!-- Node7&#45;&gt;Node3 -->
<g id="edge11" class="edge">
<title>Node7&#45;&gt;Node3</title>
<path fill="none" stroke="#191970" d="M82.8472,-123.8832C95.0044,-114.0054 109.252,-102.4293 120.1477,-93.5765"/>
<polygon fill="#191970" stroke="#191970" points="80.3855,-121.3736 74.8315,-130.396 84.7997,-126.8064 80.3855,-121.3736"/>
</g>
</g>
</svg>
