<?xml version="1.0" encoding="UTF-8" standalone="no"?>
<!DOCTYPE svg PUBLIC "-//W3C//DTD SVG 1.1//EN"
 "http://www.w3.org/Graphics/SVG/1.1/DTD/svg11.dtd">
<!-- Generated by graphviz version 2.40.1 (20161225.0304)
 -->
<!-- Title: ext_apps/l2_shortest/src/include/l2_shortest.h Pages: 1 -->
<svg width="262pt" height="102pt"
 viewBox="0.00 0.00 262.28 102.00" xmlns="http://www.w3.org/2000/svg" xmlns:xlink="http://www.w3.org/1999/xlink">
<g id="graph0" class="graph" transform="scale(1 1) rotate(0) translate(4 98)">
<title>ext_apps/l2_shortest/src/include/l2_shortest.h</title>
<polygon fill="#ffffff" stroke="transparent" points="-4,4 -4,-98 258.2827,-98 258.2827,4 -4,4"/>
<!-- Node28 -->
<g id="node1" class="node">
<title>Node28</title>
<polygon fill="#bfbfbf" stroke="#000000" points="68.8374,-65.5 68.8374,-93.5 195.4478,-93.5 195.4478,-65.5 68.8374,-65.5"/>
<text text-anchor="start" x="76.8374" y="-81.5" font-family="Helvetica,sans-Serif" font-size="10.00" fill="#000000">ext_apps/l2_shortest</text>
<text text-anchor="middle" x="132.1426" y="-71.5" font-family="Helvetica,sans-Serif" font-size="10.00" fill="#000000">/src/include/l2_shortest.h</text>
</g>
<!-- Node29 -->
<g id="node2" class="node">
<title>Node29</title>
<g id="a_node2"><a xlink:href="applications_2l2__shortest_8c.html" target="_top" xlink:title="applications/l2_shortest.c">
<polygon fill="#ffffff" stroke="#000000" points="0,-5.5 0,-23.5 128.2852,-23.5 128.2852,-5.5 0,-5.5"/>
<text text-anchor="middle" x="64.1426" y="-11.5" font-family="Helvetica,sans-Serif" font-size="10.00" fill="#000000">applications/l2_shortest.c</text>
</a>
</g>
</g>
<!-- Node28&#45;&gt;Node29 -->
<g id="edge1" class="edge">
<title>Node28&#45;&gt;Node29</title>
<path fill="none" stroke="#191970" d="M110.0911,-58.4214C97.7632,-46.6373 83.034,-32.558 73.6357,-23.5743"/>
<polygon fill="#191970" stroke="#191970" points="107.7404,-61.0162 117.3876,-65.396 112.5773,-55.9561 107.7404,-61.0162"/>
</g>
<!-- Node30 -->
<g id="node3" class="node">
<title>Node30</title>
<g id="a_node3"><a xlink:href="ext__apps_2l2__shortest_2src_2l2__shortest_8c.html" target="_top" xlink:title="ext_apps/l2_shortest\l/src/l2_shortest.c">
<polygon fill="#ffffff" stroke="#000000" points="146.0024,-.5 146.0024,-28.5 254.2827,-28.5 254.2827,-.5 146.0024,-.5"/>
<text text-anchor="start" x="154.0024" y="-16.5" font-family="Helvetica,sans-Serif" font-size="10.00" fill="#000000">ext_apps/l2_shortest</text>
<text text-anchor="middle" x="200.1426" y="-6.5" font-family="Helvetica,sans-Serif" font-size="10.00" fill="#000000">/src/l2_shortest.c</text>
</a>
</g>
</g>
<!-- Node28&#45;&gt;Node30 -->
<g id="edge2" class="edge">
<title>Node28&#45;&gt;Node30</title>
<path fill="none" stroke="#191970" d="M154.309,-58.3115C164.5093,-48.5612 176.3331,-37.259 185.4164,-28.5765"/>
<polygon fill="#191970" stroke="#191970" points="151.7079,-55.9561 146.8976,-65.396 156.5448,-61.0162 151.7079,-55.9561"/>
</g>
</g>
</svg>
