<?xml version="1.0" encoding="UTF-8" standalone="no"?>
<!DOCTYPE svg PUBLIC "-//W3C//DTD SVG 1.1//EN"
 "http://www.w3.org/Graphics/SVG/1.1/DTD/svg11.dtd">
<!-- Generated by graphviz version 2.40.1 (20161225.0304)
 -->
<!-- Title: components/flow_mgmt.c Pages: 1 -->
<svg width="2389pt" height="357pt"
 viewBox="0.00 0.00 2389.13 357.00" xmlns="http://www.w3.org/2000/svg" xmlns:xlink="http://www.w3.org/1999/xlink">
<g id="graph0" class="graph" transform="scale(1 1) rotate(0) translate(4 353)">
<title>components/flow_mgmt.c</title>
<polygon fill="#ffffff" stroke="transparent" points="-4,4 -4,-353 2385.1255,-353 2385.1255,4 -4,4"/>
<!-- Node0 -->
<g id="node1" class="node">
<title>Node0</title>
<polygon fill="#bfbfbf" stroke="#000000" points="1335.8154,-330.5 1335.8154,-348.5 1465.1943,-348.5 1465.1943,-330.5 1335.8154,-330.5"/>
<text text-anchor="middle" x="1400.5049" y="-336.5" font-family="Helvetica,sans-Serif" font-size="10.00" fill="#000000">components/flow_mgmt.c</text>
</g>
<!-- Node1 -->
<g id="node2" class="node">
<title>Node1</title>
<g id="a_node2"><a xlink:href="flow__mgmt_8h.html" target="_top" xlink:title="flow_mgmt.h">
<polygon fill="#ffffff" stroke="#000000" points="1364.1626,-275.5 1364.1626,-293.5 1436.8472,-293.5 1436.8472,-275.5 1364.1626,-275.5"/>
<text text-anchor="middle" x="1400.5049" y="-281.5" font-family="Helvetica,sans-Serif" font-size="10.00" fill="#000000">flow_mgmt.h</text>
</a>
</g>
</g>
<!-- Node0&#45;&gt;Node1 -->
<g id="edge1" class="edge">
<title>Node0&#45;&gt;Node1</title>
<path fill="none" stroke="#191970" d="M1400.5049,-330.4179C1400.5049,-323.2164 1400.5049,-312.8962 1400.5049,-303.8632"/>
<polygon fill="#191970" stroke="#191970" points="1404.005,-303.7794 1400.5049,-293.7795 1397.005,-303.7795 1404.005,-303.7794"/>
</g>
<!-- Node2 -->
<g id="node3" class="node">
<title>Node2</title>
<g id="a_node3"><a xlink:href="src_2include_2common_8h.html" target="_top" xlink:title="common.h">
<polygon fill="#ffffff" stroke="#000000" points="1291.1626,-110.5 1291.1626,-128.5 1353.8472,-128.5 1353.8472,-110.5 1291.1626,-110.5"/>
<text text-anchor="middle" x="1322.5049" y="-116.5" font-family="Helvetica,sans-Serif" font-size="10.00" fill="#000000">common.h</text>
</a>
</g>
</g>
<!-- Node1&#45;&gt;Node2 -->
<g id="edge2" class="edge">
<title>Node1&#45;&gt;Node2</title>
<path fill="none" stroke="#191970" d="M1392.7453,-275.1714C1385.5833,-266.2649 1374.96,-252.2723 1367.5049,-239 1348.6751,-205.4775 1334.7046,-162.5276 1327.6519,-138.3109"/>
<polygon fill="#191970" stroke="#191970" points="1330.9958,-137.2732 1324.9057,-128.6037 1324.2602,-139.1789 1330.9958,-137.2732"/>
</g>
<!-- Node37 -->
<g id="node38" class="node">
<title>Node37</title>
<g id="a_node38"><a xlink:href="events_2include_2event_8h.html" target="_top" xlink:title="event.h">
<polygon fill="#ffffff" stroke="#000000" points="1376.1035,-220.5 1376.1035,-238.5 1424.9063,-238.5 1424.9063,-220.5 1376.1035,-220.5"/>
<text text-anchor="middle" x="1400.5049" y="-226.5" font-family="Helvetica,sans-Serif" font-size="10.00" fill="#000000">event.h</text>
</a>
</g>
</g>
<!-- Node1&#45;&gt;Node37 -->
<g id="edge44" class="edge">
<title>Node1&#45;&gt;Node37</title>
<path fill="none" stroke="#191970" d="M1400.5049,-275.4179C1400.5049,-268.2164 1400.5049,-257.8962 1400.5049,-248.8632"/>
<polygon fill="#191970" stroke="#191970" points="1404.005,-248.7794 1400.5049,-238.7795 1397.005,-248.7795 1404.005,-248.7794"/>
</g>
<!-- Node41 -->
<g id="node42" class="node">
<title>Node41</title>
<g id="a_node42"><a xlink:href="flow__queue_8h.html" target="_top" xlink:title="flow_queue.h">
<polygon fill="#ffffff" stroke="#000000" points="1442.7588,-220.5 1442.7588,-238.5 1518.251,-238.5 1518.251,-220.5 1442.7588,-220.5"/>
<text text-anchor="middle" x="1480.5049" y="-226.5" font-family="Helvetica,sans-Serif" font-size="10.00" fill="#000000">flow_queue.h</text>
</a>
</g>
</g>
<!-- Node1&#45;&gt;Node41 -->
<g id="edge51" class="edge">
<title>Node1&#45;&gt;Node41</title>
<path fill="none" stroke="#191970" d="M1413.7153,-275.4179C1425.9903,-266.9788 1444.4947,-254.257 1458.9157,-244.3426"/>
<polygon fill="#191970" stroke="#191970" points="1461.0173,-247.1451 1467.2749,-238.5956 1457.0516,-241.3768 1461.0173,-247.1451"/>
</g>
<!-- Node3 -->
<g id="node4" class="node">
<title>Node3</title>
<polygon fill="#ffffff" stroke="#bfbfbf" points="532.7734,-.5 532.7734,-18.5 578.2363,-18.5 578.2363,-.5 532.7734,-.5"/>
<text text-anchor="middle" x="555.5049" y="-6.5" font-family="Helvetica,sans-Serif" font-size="10.00" fill="#000000">stdio.h</text>
</g>
<!-- Node2&#45;&gt;Node3 -->
<g id="edge3" class="edge">
<title>Node2&#45;&gt;Node3</title>
<path fill="none" stroke="#191970" d="M1354.121,-118.2913C1475.3785,-113.5053 1904.9291,-95.1112 1924.5049,-74 1930.2466,-67.808 1930.376,-61.0695 1924.5049,-55 1912.5129,-42.6029 796.9788,-15.285 588.7675,-10.2917"/>
<polygon fill="#191970" stroke="#191970" points="588.555,-6.7857 578.4741,-10.0453 588.3874,-13.7837 588.555,-6.7857"/>
</g>
<!-- Node4 -->
<g id="node5" class="node">
<title>Node4</title>
<polygon fill="#ffffff" stroke="#bfbfbf" points="94.9927,-55.5 94.9927,-73.5 146.0171,-73.5 146.0171,-55.5 94.9927,-55.5"/>
<text text-anchor="middle" x="120.5049" y="-61.5" font-family="Helvetica,sans-Serif" font-size="10.00" fill="#000000">unistd.h</text>
</g>
<!-- Node2&#45;&gt;Node4 -->
<g id="edge4" class="edge">
<title>Node2&#45;&gt;Node4</title>
<path fill="none" stroke="#191970" d="M1291.047,-119.267C1130.7347,-117.9306 402.9575,-110.0356 156.3316,-73.9127"/>
<polygon fill="#191970" stroke="#191970" points="156.7688,-70.439 146.356,-72.3942 155.7154,-77.3593 156.7688,-70.439"/>
</g>
<!-- Node5 -->
<g id="node6" class="node">
<title>Node5</title>
<polygon fill="#ffffff" stroke="#bfbfbf" points="163.6626,-55.5 163.6626,-73.5 211.3472,-73.5 211.3472,-55.5 163.6626,-55.5"/>
<text text-anchor="middle" x="187.5049" y="-61.5" font-family="Helvetica,sans-Serif" font-size="10.00" fill="#000000">stdlib.h</text>
</g>
<!-- Node2&#45;&gt;Node5 -->
<g id="edge5" class="edge">
<title>Node2&#45;&gt;Node5</title>
<path fill="none" stroke="#191970" d="M1291.0258,-119.2149C1136.3361,-117.6616 455.1673,-109.0133 221.62,-73.7191"/>
<polygon fill="#191970" stroke="#191970" points="221.9267,-70.2244 211.5041,-72.1273 220.8385,-77.1393 221.9267,-70.2244"/>
</g>
<!-- Node6 -->
<g id="node7" class="node">
<title>Node6</title>
<polygon fill="#ffffff" stroke="#bfbfbf" points="1049.4385,-.5 1049.4385,-18.5 1101.5713,-18.5 1101.5713,-.5 1049.4385,-.5"/>
<text text-anchor="middle" x="1075.5049" y="-6.5" font-family="Helvetica,sans-Serif" font-size="10.00" fill="#000000">stdarg.h</text>
</g>
<!-- Node2&#45;&gt;Node6 -->
<g id="edge6" class="edge">
<title>Node2&#45;&gt;Node6</title>
<path fill="none" stroke="#191970" d="M1354.1261,-118.4193C1479.6156,-113.9799 1936.7243,-96.3228 1957.5049,-74 1963.2587,-67.8192 1963.3202,-61.123 1957.5049,-55 1927.9586,-23.8903 1275.6692,-12.3964 1112.3311,-10.0005"/>
<polygon fill="#191970" stroke="#191970" points="1111.9093,-6.4941 1101.8599,-9.8496 1111.8084,-13.4934 1111.9093,-6.4941"/>
</g>
<!-- Node7 -->
<g id="node8" class="node">
<title>Node7</title>
<polygon fill="#ffffff" stroke="#bfbfbf" points="229.3843,-55.5 229.3843,-73.5 277.6255,-73.5 277.6255,-55.5 229.3843,-55.5"/>
<text text-anchor="middle" x="253.5049" y="-61.5" font-family="Helvetica,sans-Serif" font-size="10.00" fill="#000000">stdint.h</text>
</g>
<!-- Node2&#45;&gt;Node7 -->
<g id="edge7" class="edge">
<title>Node2&#45;&gt;Node7</title>
<path fill="none" stroke="#191970" d="M1290.9637,-119.0839C1142.0994,-116.9744 508.2328,-106.3236 288.0399,-73.6018"/>
<polygon fill="#191970" stroke="#191970" points="288.2886,-70.0987 277.8708,-72.0269 287.2172,-77.0162 288.2886,-70.0987"/>
</g>
<!-- Node8 -->
<g id="node9" class="node">
<title>Node8</title>
<polygon fill="#ffffff" stroke="#bfbfbf" points="296.1084,-55.5 296.1084,-73.5 344.9014,-73.5 344.9014,-55.5 296.1084,-55.5"/>
<text text-anchor="middle" x="320.5049" y="-61.5" font-family="Helvetica,sans-Serif" font-size="10.00" fill="#000000">string.h</text>
</g>
<!-- Node2&#45;&gt;Node8 -->
<g id="edge8" class="edge">
<title>Node2&#45;&gt;Node8</title>
<path fill="none" stroke="#191970" d="M1291.0598,-119.0096C1148.3687,-116.6356 560.2184,-105.2145 355.2767,-73.8917"/>
<polygon fill="#191970" stroke="#191970" points="355.6556,-70.408 345.229,-72.2883 354.5524,-77.3205 355.6556,-70.408"/>
</g>
<!-- Node9 -->
<g id="node10" class="node">
<title>Node9</title>
<polygon fill="#ffffff" stroke="#bfbfbf" points="362.6084,-55.5 362.6084,-73.5 416.4014,-73.5 416.4014,-55.5 362.6084,-55.5"/>
<text text-anchor="middle" x="389.5049" y="-61.5" font-family="Helvetica,sans-Serif" font-size="10.00" fill="#000000">strings.h</text>
</g>
<!-- Node2&#45;&gt;Node9 -->
<g id="edge9" class="edge">
<title>Node2&#45;&gt;Node9</title>
<path fill="none" stroke="#191970" d="M1291.1296,-118.7814C1155.3549,-115.5402 617.0759,-101.3011 426.4012,-73.7585"/>
<polygon fill="#191970" stroke="#191970" points="426.9142,-70.2963 416.5043,-72.2672 425.8712,-77.2182 426.9142,-70.2963"/>
</g>
<!-- Node10 -->
<g id="node11" class="node">
<title>Node10</title>
<polygon fill="#ffffff" stroke="#bfbfbf" points="434.377,-55.5 434.377,-73.5 492.6328,-73.5 492.6328,-55.5 434.377,-55.5"/>
<text text-anchor="middle" x="463.5049" y="-61.5" font-family="Helvetica,sans-Serif" font-size="10.00" fill="#000000">pthread.h</text>
</g>
<!-- Node2&#45;&gt;Node10 -->
<g id="edge10" class="edge">
<title>Node2&#45;&gt;Node10</title>
<path fill="none" stroke="#191970" d="M1290.7542,-118.5462C1161.9594,-114.5552 677.4459,-98.3308 502.9082,-73.8913"/>
<polygon fill="#191970" stroke="#191970" points="503.2531,-70.4046 492.8519,-72.421 502.2404,-77.3309 503.2531,-70.4046"/>
</g>
<!-- Node11 -->
<g id="node12" class="node">
<title>Node11</title>
<polygon fill="#ffffff" stroke="#bfbfbf" points="510.3843,-55.5 510.3843,-73.5 558.6255,-73.5 558.6255,-55.5 510.3843,-55.5"/>
<text text-anchor="middle" x="534.5049" y="-61.5" font-family="Helvetica,sans-Serif" font-size="10.00" fill="#000000">ctype.h</text>
</g>
<!-- Node2&#45;&gt;Node11 -->
<g id="edge11" class="edge">
<title>Node2&#45;&gt;Node11</title>
<path fill="none" stroke="#191970" d="M1290.784,-118.5192C1168.842,-114.6081 729.4708,-99.1833 569.032,-73.8463"/>
<polygon fill="#191970" stroke="#191970" points="569.3116,-70.345 558.8739,-72.1631 568.1672,-77.2508 569.3116,-70.345"/>
</g>
<!-- Node12 -->
<g id="node13" class="node">
<title>Node12</title>
<polygon fill="#ffffff" stroke="#bfbfbf" points="576.6626,-55.5 576.6626,-73.5 624.3472,-73.5 624.3472,-55.5 576.6626,-55.5"/>
<text text-anchor="middle" x="600.5049" y="-61.5" font-family="Helvetica,sans-Serif" font-size="10.00" fill="#000000">errno.h</text>
</g>
<!-- Node2&#45;&gt;Node12 -->
<g id="edge12" class="edge">
<title>Node2&#45;&gt;Node12</title>
<path fill="none" stroke="#191970" d="M1291.1389,-118.3606C1176.6741,-114.0618 780.9136,-97.9293 634.5772,-73.9792"/>
<polygon fill="#191970" stroke="#191970" points="634.9281,-70.4882 624.4793,-72.2413 633.7408,-77.3868 634.9281,-70.4882"/>
</g>
<!-- Node13 -->
<g id="node14" class="node">
<title>Node13</title>
<polygon fill="#ffffff" stroke="#bfbfbf" points="641.8892,-55.5 641.8892,-73.5 685.1206,-73.5 685.1206,-55.5 641.8892,-55.5"/>
<text text-anchor="middle" x="663.5049" y="-61.5" font-family="Helvetica,sans-Serif" font-size="10.00" fill="#000000">time.h</text>
</g>
<!-- Node2&#45;&gt;Node13 -->
<g id="edge13" class="edge">
<title>Node2&#45;&gt;Node13</title>
<path fill="none" stroke="#191970" d="M1290.9565,-118.1548C1183.2124,-113.4176 829.5495,-96.6554 695.3975,-73.6753"/>
<polygon fill="#191970" stroke="#191970" points="695.8303,-70.197 685.3679,-71.8667 694.588,-77.0859 695.8303,-70.197"/>
</g>
<!-- Node14 -->
<g id="node15" class="node">
<title>Node14</title>
<polygon fill="#ffffff" stroke="#bfbfbf" points="703.165,-55.5 703.165,-73.5 745.8447,-73.5 745.8447,-55.5 703.165,-55.5"/>
<text text-anchor="middle" x="724.5049" y="-61.5" font-family="Helvetica,sans-Serif" font-size="10.00" fill="#000000">fcntl.h</text>
</g>
<!-- Node2&#45;&gt;Node14 -->
<g id="edge14" class="edge">
<title>Node2&#45;&gt;Node14</title>
<path fill="none" stroke="#191970" d="M1290.8363,-117.867C1190.2349,-112.5411 877.923,-94.9079 756.1832,-73.6225"/>
<polygon fill="#191970" stroke="#191970" points="756.503,-70.1226 746.0342,-71.7523 755.2343,-77.0067 756.503,-70.1226"/>
</g>
<!-- Node15 -->
<g id="node16" class="node">
<title>Node15</title>
<polygon fill="#ffffff" stroke="#bfbfbf" points="764.271,-55.5 764.271,-73.5 814.7388,-73.5 814.7388,-55.5 764.271,-55.5"/>
<text text-anchor="middle" x="789.5049" y="-61.5" font-family="Helvetica,sans-Serif" font-size="10.00" fill="#000000">signal.h</text>
</g>
<!-- Node2&#45;&gt;Node15 -->
<g id="edge15" class="edge">
<title>Node2&#45;&gt;Node15</title>
<path fill="none" stroke="#191970" d="M1290.9991,-118.6098C1213.2355,-115.9925 1005.9319,-106.4597 824.9691,-73.9779"/>
<polygon fill="#191970" stroke="#191970" points="825.474,-70.5123 815.0084,-72.1616 824.2183,-77.3988 825.474,-70.5123"/>
</g>
<!-- Node16 -->
<g id="node17" class="node">
<title>Node16</title>
<polygon fill="#ffffff" stroke="#bfbfbf" points="0,-.5 0,-18.5 61.0098,-18.5 61.0098,-.5 0,-.5"/>
<text text-anchor="middle" x="30.5049" y="-6.5" font-family="Helvetica,sans-Serif" font-size="10.00" fill="#000000">sys/time.h</text>
</g>
<!-- Node2&#45;&gt;Node16 -->
<g id="edge16" class="edge">
<title>Node2&#45;&gt;Node16</title>
<path fill="none" stroke="#191970" d="M1291.0181,-118.9954C1094.7963,-115.7788 47.2155,-97.5206 24.5049,-74 13.0643,-62.1514 16.6773,-42.7501 21.8644,-28.3154"/>
<polygon fill="#191970" stroke="#191970" points="25.1847,-29.4425 25.7268,-18.8615 18.7046,-26.795 25.1847,-29.4425"/>
</g>
<!-- Node17 -->
<g id="node18" class="node">
<title>Node17</title>
<polygon fill="#ffffff" stroke="#bfbfbf" points="832.3867,-55.5 832.3867,-73.5 890.623,-73.5 890.623,-55.5 832.3867,-55.5"/>
<text text-anchor="middle" x="861.5049" y="-61.5" font-family="Helvetica,sans-Serif" font-size="10.00" fill="#000000">sys/stat.h</text>
</g>
<!-- Node2&#45;&gt;Node17 -->
<g id="edge17" class="edge">
<title>Node2&#45;&gt;Node17</title>
<path fill="none" stroke="#191970" d="M1290.9867,-117.601C1221.9471,-113.1233 1052.0873,-100.3738 900.8131,-74.0234"/>
<polygon fill="#191970" stroke="#191970" points="901.3335,-70.5612 890.8771,-72.268 900.1157,-77.4545 901.3335,-70.5612"/>
</g>
<!-- Node18 -->
<g id="node19" class="node">
<title>Node18</title>
<polygon fill="#ffffff" stroke="#bfbfbf" points="908.4951,-55.5 908.4951,-73.5 974.5146,-73.5 974.5146,-55.5 908.4951,-55.5"/>
<text text-anchor="middle" x="941.5049" y="-61.5" font-family="Helvetica,sans-Serif" font-size="10.00" fill="#000000">sys/types.h</text>
</g>
<!-- Node2&#45;&gt;Node18 -->
<g id="edge18" class="edge">
<title>Node2&#45;&gt;Node18</title>
<path fill="none" stroke="#191970" d="M1291.0455,-116.2249C1232.6419,-109.9411 1103.3365,-95.0751 984.8833,-74.1218"/>
<polygon fill="#191970" stroke="#191970" points="985.3808,-70.6554 974.9208,-72.3403 984.1485,-77.5461 985.3808,-70.6554"/>
</g>
<!-- Node19 -->
<g id="node20" class="node">
<title>Node19</title>
<polygon fill="#ffffff" stroke="#bfbfbf" points="992.5542,-55.5 992.5542,-73.5 1052.4556,-73.5 1052.4556,-55.5 992.5542,-55.5"/>
<text text-anchor="middle" x="1022.5049" y="-61.5" font-family="Helvetica,sans-Serif" font-size="10.00" fill="#000000">sys/ioctl.h</text>
</g>
<!-- Node2&#45;&gt;Node19 -->
<g id="edge19" class="edge">
<title>Node2&#45;&gt;Node19</title>
<path fill="none" stroke="#191970" d="M1290.9055,-114.776C1243.3114,-107.4954 1150.2058,-92.6115 1062.5715,-74.3397"/>
<polygon fill="#191970" stroke="#191970" points="1063.2482,-70.9055 1052.7417,-72.2707 1061.8064,-77.7554 1063.2482,-70.9055"/>
</g>
<!-- Node20 -->
<g id="node21" class="node">
<title>Node20</title>
<polygon fill="#ffffff" stroke="#bfbfbf" points="1069.9951,-55.5 1069.9951,-73.5 1141.0146,-73.5 1141.0146,-55.5 1069.9951,-55.5"/>
<text text-anchor="middle" x="1105.5049" y="-61.5" font-family="Helvetica,sans-Serif" font-size="10.00" fill="#000000">sys/socket.h</text>
</g>
<!-- Node2&#45;&gt;Node20 -->
<g id="edge20" class="edge">
<title>Node2&#45;&gt;Node20</title>
<path fill="none" stroke="#191970" d="M1290.9512,-111.5025C1254.0601,-102.1522 1192.7173,-86.6045 1150.7602,-75.9702"/>
<polygon fill="#191970" stroke="#191970" points="1151.6191,-72.5773 1141.0656,-73.5131 1149.8992,-79.3628 1151.6191,-72.5773"/>
</g>
<!-- Node21 -->
<g id="node22" class="node">
<title>Node21</title>
<polygon fill="#ffffff" stroke="#bfbfbf" points="1158.8843,-55.5 1158.8843,-73.5 1232.1255,-73.5 1232.1255,-55.5 1158.8843,-55.5"/>
<text text-anchor="middle" x="1195.5049" y="-61.5" font-family="Helvetica,sans-Serif" font-size="10.00" fill="#000000">sys/sysinfo.h</text>
</g>
<!-- Node2&#45;&gt;Node21 -->
<g id="edge21" class="edge">
<title>Node2&#45;&gt;Node21</title>
<path fill="none" stroke="#191970" d="M1301.5334,-110.4179C1280.9437,-101.5011 1249.3137,-87.803 1225.9555,-77.6873"/>
<polygon fill="#191970" stroke="#191970" points="1227.0749,-74.358 1216.5075,-73.5956 1224.293,-80.7815 1227.0749,-74.358"/>
</g>
<!-- Node22 -->
<g id="node23" class="node">
<title>Node22</title>
<polygon fill="#ffffff" stroke="#bfbfbf" points="1249.877,-55.5 1249.877,-73.5 1313.1328,-73.5 1313.1328,-55.5 1249.877,-55.5"/>
<text text-anchor="middle" x="1281.5049" y="-61.5" font-family="Helvetica,sans-Serif" font-size="10.00" fill="#000000">arpa/inet.h</text>
</g>
<!-- Node2&#45;&gt;Node22 -->
<g id="edge22" class="edge">
<title>Node2&#45;&gt;Node22</title>
<path fill="none" stroke="#191970" d="M1315.7346,-110.4179C1309.9532,-102.6624 1301.4756,-91.29 1294.4039,-81.8035"/>
<polygon fill="#191970" stroke="#191970" points="1297.2051,-79.7051 1288.4223,-73.7795 1291.5929,-83.8888 1297.2051,-79.7051"/>
</g>
<!-- Node23 -->
<g id="node24" class="node">
<title>Node23</title>
<polygon fill="#ffffff" stroke="#bfbfbf" points="1331.042,-55.5 1331.042,-73.5 1395.9678,-73.5 1395.9678,-55.5 1331.042,-55.5"/>
<text text-anchor="middle" x="1363.5049" y="-61.5" font-family="Helvetica,sans-Serif" font-size="10.00" fill="#000000">netinet/in.h</text>
</g>
<!-- Node2&#45;&gt;Node23 -->
<g id="edge23" class="edge">
<title>Node2&#45;&gt;Node23</title>
<path fill="none" stroke="#191970" d="M1329.2752,-110.4179C1335.0565,-102.6624 1343.5342,-91.29 1350.6059,-81.8035"/>
<polygon fill="#191970" stroke="#191970" points="1353.4169,-83.8888 1356.5875,-73.7795 1347.8047,-79.7051 1353.4169,-83.8888"/>
</g>
<!-- Node24 -->
<g id="node25" class="node">
<title>Node24</title>
<polygon fill="#ffffff" stroke="#bfbfbf" points="1413.6479,-55.5 1413.6479,-73.5 1491.3618,-73.5 1491.3618,-55.5 1413.6479,-55.5"/>
<text text-anchor="middle" x="1452.5049" y="-61.5" font-family="Helvetica,sans-Serif" font-size="10.00" fill="#000000">net/ethernet.h</text>
</g>
<!-- Node2&#45;&gt;Node24 -->
<g id="edge24" class="edge">
<title>Node2&#45;&gt;Node24</title>
<path fill="none" stroke="#191970" d="M1343.9717,-110.4179C1365.1419,-101.4613 1397.7143,-87.6806 1421.6547,-77.552"/>
<polygon fill="#191970" stroke="#191970" points="1423.1602,-80.7155 1431.0061,-73.5956 1420.4327,-74.2687 1423.1602,-80.7155"/>
</g>
<!-- Node25 -->
<g id="node26" class="node">
<title>Node25</title>
<polygon fill="#ffffff" stroke="#bfbfbf" points="1509.042,-55.5 1509.042,-73.5 1573.9678,-73.5 1573.9678,-55.5 1509.042,-55.5"/>
<text text-anchor="middle" x="1541.5049" y="-61.5" font-family="Helvetica,sans-Serif" font-size="10.00" fill="#000000">netinet/ip.h</text>
</g>
<!-- Node2&#45;&gt;Node25 -->
<g id="edge25" class="edge">
<title>Node2&#45;&gt;Node25</title>
<path fill="none" stroke="#191970" d="M1353.8822,-111.6198C1391.9863,-102.0503 1456.4253,-85.867 1498.9701,-75.1823"/>
<polygon fill="#191970" stroke="#191970" points="1499.9091,-78.5552 1508.7554,-72.7248 1498.204,-71.766 1499.9091,-78.5552"/>
</g>
<!-- Node26 -->
<g id="node27" class="node">
<title>Node26</title>
<polygon fill="#ffffff" stroke="#bfbfbf" points="1592.2637,-55.5 1592.2637,-73.5 1662.7461,-73.5 1662.7461,-55.5 1592.2637,-55.5"/>
<text text-anchor="middle" x="1627.5049" y="-61.5" font-family="Helvetica,sans-Serif" font-size="10.00" fill="#000000">netinet/tcp.h</text>
</g>
<!-- Node2&#45;&gt;Node26 -->
<g id="edge26" class="edge">
<title>Node2&#45;&gt;Node26</title>
<path fill="none" stroke="#191970" d="M1354.1882,-114.3208C1401.4459,-106.5164 1493.4304,-91.0204 1582.1893,-74.0039"/>
<polygon fill="#191970" stroke="#191970" points="1582.9978,-77.4125 1592.1552,-72.0841 1581.6736,-70.5389 1582.9978,-77.4125"/>
</g>
<!-- Node27 -->
<g id="node28" class="node">
<title>Node27</title>
<polygon fill="#ffffff" stroke="#bfbfbf" points="1680.7046,-55.5 1680.7046,-73.5 1772.3052,-73.5 1772.3052,-55.5 1680.7046,-55.5"/>
<text text-anchor="middle" x="1726.5049" y="-61.5" font-family="Helvetica,sans-Serif" font-size="10.00" fill="#000000">netinet/ip_icmp.h</text>
</g>
<!-- Node2&#45;&gt;Node27 -->
<g id="edge27" class="edge">
<title>Node2&#45;&gt;Node27</title>
<path fill="none" stroke="#191970" d="M1353.8502,-115.8547C1413.4194,-108.8321 1547.2985,-92.5947 1670.6179,-74.0821"/>
<polygon fill="#191970" stroke="#191970" points="1671.2465,-77.5269 1680.6119,-72.5732 1670.2014,-70.6054 1671.2465,-77.5269"/>
</g>
<!-- Node28 -->
<g id="node29" class="node">
<title>Node28</title>
<g id="a_node29"><a xlink:href="mac2int_8h.html" target="_top" xlink:title="mac2int.h">
<polygon fill="#ffffff" stroke="#000000" points="1789.8276,-55.5 1789.8276,-73.5 1849.1821,-73.5 1849.1821,-55.5 1789.8276,-55.5"/>
<text text-anchor="middle" x="1819.5049" y="-61.5" font-family="Helvetica,sans-Serif" font-size="10.00" fill="#000000">mac2int.h</text>
</a>
</g>
</g>
<!-- Node2&#45;&gt;Node28 -->
<g id="edge28" class="edge">
<title>Node2&#45;&gt;Node28</title>
<path fill="none" stroke="#191970" d="M1353.898,-117.7119C1427.6199,-113.4759 1616.4842,-101.086 1772.5049,-74 1774.8227,-73.5976 1777.208,-73.1305 1779.6224,-72.6235"/>
<polygon fill="#191970" stroke="#191970" points="1780.6244,-75.9857 1789.6137,-70.3784 1779.0896,-69.156 1780.6244,-75.9857"/>
</g>
<!-- Node29 -->
<g id="node30" class="node">
<title>Node29</title>
<g id="a_node30"><a xlink:href="ip2int_8h.html" target="_top" xlink:title="ip2int.h">
<polygon fill="#ffffff" stroke="#000000" points="1867.3818,-55.5 1867.3818,-73.5 1915.6279,-73.5 1915.6279,-55.5 1867.3818,-55.5"/>
<text text-anchor="middle" x="1891.5049" y="-61.5" font-family="Helvetica,sans-Serif" font-size="10.00" fill="#000000">ip2int.h</text>
</a>
</g>
</g>
<!-- Node2&#45;&gt;Node29 -->
<g id="edge30" class="edge">
<title>Node2&#45;&gt;Node29</title>
<path fill="none" stroke="#191970" d="M1354.0364,-118.8659C1436.3949,-116.8146 1663.53,-108.3208 1849.5049,-74 1852.1084,-73.5195 1854.8016,-72.9199 1857.522,-72.2569"/>
<polygon fill="#191970" stroke="#191970" points="1858.5925,-75.5947 1867.381,-69.6776 1856.8208,-68.8227 1858.5925,-75.5947"/>
</g>
<!-- Node30 -->
<g id="node31" class="node">
<title>Node30</title>
<g id="a_node31"><a xlink:href="database_8h.html" target="_top" xlink:title="database.h">
<polygon fill="#ffffff" stroke="#000000" points="2215.7612,-55.5 2215.7612,-73.5 2281.2485,-73.5 2281.2485,-55.5 2215.7612,-55.5"/>
<text text-anchor="middle" x="2248.5049" y="-61.5" font-family="Helvetica,sans-Serif" font-size="10.00" fill="#000000">database.h</text>
</a>
</g>
</g>
<!-- Node2&#45;&gt;Node30 -->
<g id="edge32" class="edge">
<title>Node2&#45;&gt;Node30</title>
<path fill="none" stroke="#191970" d="M1354.0284,-118.5348C1490.4884,-114.4497 2029.7733,-97.6968 2198.5049,-74 2200.8248,-73.6742 2203.2067,-73.281 2205.6165,-72.8423"/>
<polygon fill="#191970" stroke="#191970" points="2206.4759,-76.2397 2215.5914,-70.8399 2205.0981,-69.3766 2206.4759,-76.2397"/>
</g>
<!-- Node32 -->
<g id="node33" class="node">
<title>Node32</title>
<polygon fill="#ffffff" stroke="#bfbfbf" points="2009.1011,-55.5 2009.1011,-73.5 2067.9087,-73.5 2067.9087,-55.5 2009.1011,-55.5"/>
<text text-anchor="middle" x="2038.5049" y="-61.5" font-family="Helvetica,sans-Serif" font-size="10.00" fill="#000000">jansson.h</text>
</g>
<!-- Node2&#45;&gt;Node32 -->
<g id="edge36" class="edge">
<title>Node2&#45;&gt;Node32</title>
<path fill="none" stroke="#191970" d="M1353.8751,-119.0476C1450.1986,-117.3021 1750.0432,-109.2098 1995.5049,-74 1996.6022,-73.8426 1997.7132,-73.6725 1998.8328,-73.4918"/>
<polygon fill="#191970" stroke="#191970" points="1999.7982,-76.8732 2009.0036,-71.6281 1998.5365,-69.9879 1999.7982,-76.8732"/>
</g>
<!-- Node33 -->
<g id="node34" class="node">
<title>Node33</title>
<g id="a_node34"><a xlink:href="libcli_8h.html" target="_top" xlink:title="libcli.h">
<polygon fill="#ffffff" stroke="#000000" points="33.6108,-55.5 33.6108,-73.5 77.3989,-73.5 77.3989,-55.5 33.6108,-55.5"/>
<text text-anchor="middle" x="55.5049" y="-61.5" font-family="Helvetica,sans-Serif" font-size="10.00" fill="#000000">libcli.h</text>
</a>
</g>
</g>
<!-- Node2&#45;&gt;Node33 -->
<g id="edge37" class="edge">
<title>Node2&#45;&gt;Node33</title>
<path fill="none" stroke="#191970" d="M1290.8814,-118.847C1113.779,-115.1234 247.4954,-96.013 87.5115,-73.7736"/>
<polygon fill="#191970" stroke="#191970" points="88.0382,-70.3135 77.6192,-72.2358 86.9629,-77.2305 88.0382,-70.3135"/>
</g>
<!-- Node34 -->
<g id="node35" class="node">
<title>Node34</title>
<polygon fill="#ffffff" stroke="#bfbfbf" points="2086.2783,-55.5 2086.2783,-73.5 2136.7314,-73.5 2136.7314,-55.5 2086.2783,-55.5"/>
<text text-anchor="middle" x="2111.5049" y="-61.5" font-family="Helvetica,sans-Serif" font-size="10.00" fill="#000000">mysql.h</text>
</g>
<!-- Node2&#45;&gt;Node34 -->
<g id="edge41" class="edge">
<title>Node2&#45;&gt;Node34</title>
<path fill="none" stroke="#191970" d="M1354.1731,-118.4541C1475.9142,-114.3025 1914.5768,-98.1044 2075.8108,-73.6844"/>
<polygon fill="#191970" stroke="#191970" points="2076.6955,-77.0879 2086.0235,-72.064 2075.5985,-70.1744 2076.6955,-77.0879"/>
</g>
<!-- Node35 -->
<g id="node36" class="node">
<title>Node35</title>
<polygon fill="#ffffff" stroke="#bfbfbf" points="2154.8892,-55.5 2154.8892,-73.5 2198.1206,-73.5 2198.1206,-55.5 2154.8892,-55.5"/>
<text text-anchor="middle" x="2176.5049" y="-61.5" font-family="Helvetica,sans-Serif" font-size="10.00" fill="#000000">zmq.h</text>
</g>
<!-- Node2&#45;&gt;Node35 -->
<g id="edge42" class="edge">
<title>Node2&#45;&gt;Node35</title>
<path fill="none" stroke="#191970" d="M1353.9247,-118.7796C1482.4978,-115.6783 1969.5779,-102.3918 2144.5698,-73.6505"/>
<polygon fill="#191970" stroke="#191970" points="2145.3897,-77.0609 2154.6506,-71.9145 2144.2017,-70.1624 2145.3897,-77.0609"/>
</g>
<!-- Node36 -->
<g id="node37" class="node">
<title>Node36</title>
<g id="a_node37"><a xlink:href="src_2include_2type_8h.html" target="_top" xlink:title="type.h">
<polygon fill="#ffffff" stroke="#000000" points="2337.8843,-55.5 2337.8843,-73.5 2381.1255,-73.5 2381.1255,-55.5 2337.8843,-55.5"/>
<text text-anchor="middle" x="2359.5049" y="-61.5" font-family="Helvetica,sans-Serif" font-size="10.00" fill="#000000">type.h</text>
</a>
</g>
</g>
<!-- Node2&#45;&gt;Node36 -->
<g id="edge43" class="edge">
<title>Node2&#45;&gt;Node36</title>
<path fill="none" stroke="#191970" d="M1353.9798,-118.97C1502.0092,-116.3395 2129.8283,-103.6112 2323.5049,-74 2324.7988,-73.8022 2326.1133,-73.5762 2327.4369,-73.3278"/>
<polygon fill="#191970" stroke="#191970" points="2328.5716,-76.6612 2337.5761,-71.0782 2327.0553,-69.8274 2328.5716,-76.6612"/>
</g>
<!-- Node28&#45;&gt;Node2 -->
<g id="edge29" class="edge">
<title>Node28&#45;&gt;Node2</title>
<path fill="none" stroke="#191970" d="M1792.9378,-73.5589C1792.121,-73.7131 1791.3089,-73.8604 1790.5049,-74 1634.8001,-101.0312 1446.3845,-113.4257 1364.1008,-117.6861"/>
<polygon fill="#191970" stroke="#191970" points="1363.7152,-114.201 1353.9041,-118.2 1364.0676,-121.1921 1363.7152,-114.201"/>
</g>
<!-- Node29&#45;&gt;Node2 -->
<g id="edge31" class="edge">
<title>Node29&#45;&gt;Node2</title>
<path fill="none" stroke="#191970" d="M1869.9891,-73.5118C1869.1554,-73.6852 1868.3257,-73.8485 1867.5049,-74 1682.2083,-108.1957 1456.0511,-116.7523 1364.1314,-118.8432"/>
<polygon fill="#191970" stroke="#191970" points="1363.7783,-115.3498 1353.8552,-119.0623 1363.9276,-122.3482 1363.7783,-115.3498"/>
</g>
<!-- Node30&#45;&gt;Node2 -->
<g id="edge33" class="edge">
<title>Node30&#45;&gt;Node2</title>
<path fill="none" stroke="#191970" d="M2219.5735,-73.5365C2218.5427,-73.7026 2217.5179,-73.8577 2216.5049,-74 2049.3102,-97.481 1518.2821,-114.1439 1364.5134,-118.42"/>
<polygon fill="#191970" stroke="#191970" points="1364.0041,-114.9326 1354.1042,-118.7064 1364.1967,-121.9299 1364.0041,-114.9326"/>
</g>
<!-- Node31 -->
<g id="node32" class="node">
<title>Node31</title>
<g id="a_node32"><a xlink:href="str_8h.html" target="_top" xlink:title="str.h">
<polygon fill="#ffffff" stroke="#000000" points="2261.0542,-.5 2261.0542,-18.5 2295.9556,-18.5 2295.9556,-.5 2261.0542,-.5"/>
<text text-anchor="middle" x="2278.5049" y="-6.5" font-family="Helvetica,sans-Serif" font-size="10.00" fill="#000000">str.h</text>
</a>
</g>
</g>
<!-- Node30&#45;&gt;Node31 -->
<g id="edge34" class="edge">
<title>Node30&#45;&gt;Node31</title>
<path fill="none" stroke="#191970" d="M2253.4588,-55.4179C2257.5595,-47.8998 2263.5142,-36.9829 2268.5886,-27.6799"/>
<polygon fill="#191970" stroke="#191970" points="2271.7274,-29.2344 2273.4434,-18.7795 2265.5821,-25.8824 2271.7274,-29.2344"/>
</g>
<!-- Node31&#45;&gt;Node2 -->
<g id="edge35" class="edge">
<title>Node31&#45;&gt;Node2</title>
<path fill="none" stroke="#191970" d="M2284.5204,-18.7929C2292.7127,-32.7287 2304.8149,-59.0016 2290.5049,-74 2258.0876,-107.9768 1545.7119,-117.2986 1364.2608,-119.1256"/>
<polygon fill="#191970" stroke="#191970" points="1364.0238,-115.6277 1354.0588,-119.226 1364.0928,-122.6274 1364.0238,-115.6277"/>
</g>
<!-- Node33&#45;&gt;Node3 -->
<g id="edge39" class="edge">
<title>Node33&#45;&gt;Node3</title>
<path fill="none" stroke="#191970" d="M77.648,-56.9166C80.2752,-56.1872 82.9356,-55.5251 85.5049,-55 247.364,-21.9212 445.6407,-12.7261 522.6999,-10.3105"/>
<polygon fill="#191970" stroke="#191970" points="522.8604,-13.8074 532.7524,-10.0129 522.6532,-6.8105 522.8604,-13.8074"/>
</g>
<!-- Node33&#45;&gt;Node6 -->
<g id="edge38" class="edge">
<title>Node33&#45;&gt;Node6</title>
<path fill="none" stroke="#191970" d="M77.6233,-56.7876C80.2549,-56.0814 82.9232,-55.4599 85.5049,-55 273.8761,-21.4414 882.1952,-11.8502 1038.5787,-9.9112"/>
<polygon fill="#191970" stroke="#191970" points="1039.0884,-13.4053 1049.0453,-9.7845 1039.0037,-6.4059 1039.0884,-13.4053"/>
</g>
<!-- Node33&#45;&gt;Node16 -->
<g id="edge40" class="edge">
<title>Node33&#45;&gt;Node16</title>
<path fill="none" stroke="#191970" d="M51.3766,-55.4179C47.9953,-47.9789 43.1014,-37.2123 38.9022,-27.9742"/>
<polygon fill="#191970" stroke="#191970" points="42.0472,-26.4348 34.7228,-18.7795 35.6746,-29.3315 42.0472,-26.4348"/>
</g>
<!-- Node37&#45;&gt;Node2 -->
<g id="edge45" class="edge">
<title>Node37&#45;&gt;Node2</title>
<path fill="none" stroke="#191970" d="M1391.3681,-220.179C1382.877,-211.2779 1370.1287,-197.289 1360.5049,-184 1349.6919,-169.069 1339.1953,-150.8823 1331.9841,-137.6315"/>
<polygon fill="#191970" stroke="#191970" points="1334.9572,-135.7687 1327.1592,-128.5963 1328.7825,-139.0661 1334.9572,-135.7687"/>
</g>
<!-- Node38 -->
<g id="node39" class="node">
<title>Node38</title>
<g id="a_node39"><a xlink:href="src_2include_2context_8h.html" target="_top" xlink:title="context.h">
<polygon fill="#ffffff" stroke="#000000" points="1449.2144,-165.5 1449.2144,-183.5 1505.7954,-183.5 1505.7954,-165.5 1449.2144,-165.5"/>
<text text-anchor="middle" x="1477.5049" y="-171.5" font-family="Helvetica,sans-Serif" font-size="10.00" fill="#000000">context.h</text>
</a>
</g>
</g>
<!-- Node37&#45;&gt;Node38 -->
<g id="edge46" class="edge">
<title>Node37&#45;&gt;Node38</title>
<path fill="none" stroke="#191970" d="M1413.2199,-220.4179C1424.9232,-212.0584 1442.5096,-199.4966 1456.3314,-189.6239"/>
<polygon fill="#191970" stroke="#191970" points="1458.668,-192.2561 1464.771,-183.5956 1454.5993,-186.56 1458.668,-192.2561"/>
</g>
<!-- Node39 -->
<g id="node40" class="node">
<title>Node39</title>
<g id="a_node40"><a xlink:href="events_2include_2event__id_8h.html" target="_top" xlink:title="event_id.h">
<polygon fill="#ffffff" stroke="#000000" points="1369.4312,-165.5 1369.4312,-183.5 1431.5786,-183.5 1431.5786,-165.5 1369.4312,-165.5"/>
<text text-anchor="middle" x="1400.5049" y="-171.5" font-family="Helvetica,sans-Serif" font-size="10.00" fill="#000000">event_id.h</text>
</a>
</g>
</g>
<!-- Node37&#45;&gt;Node39 -->
<g id="edge48" class="edge">
<title>Node37&#45;&gt;Node39</title>
<path fill="none" stroke="#191970" d="M1400.5049,-220.4179C1400.5049,-213.2164 1400.5049,-202.8962 1400.5049,-193.8632"/>
<polygon fill="#191970" stroke="#191970" points="1404.005,-193.7794 1400.5049,-183.7795 1397.005,-193.7795 1404.005,-193.7794"/>
</g>
<!-- Node40 -->
<g id="node41" class="node">
<title>Node40</title>
<g id="a_node41"><a xlink:href="events_2include_2event__list_8h.html" target="_top" xlink:title="event_list.h">
<polygon fill="#ffffff" stroke="#000000" points="2129.2119,-110.5 2129.2119,-128.5 2195.7979,-128.5 2195.7979,-110.5 2129.2119,-110.5"/>
<text text-anchor="middle" x="2162.5049" y="-116.5" font-family="Helvetica,sans-Serif" font-size="10.00" fill="#000000">event_list.h</text>
</a>
</g>
</g>
<!-- Node37&#45;&gt;Node40 -->
<g id="edge49" class="edge">
<title>Node37&#45;&gt;Node40</title>
<path fill="none" stroke="#191970" d="M1424.9149,-222.0507C1427.7953,-221.2972 1430.7053,-220.5928 1433.5049,-220 1690.7621,-165.531 2005.5882,-133.6833 2119.1162,-123.2915"/>
<polygon fill="#191970" stroke="#191970" points="2119.5095,-126.7703 2129.1523,-122.3809 2118.877,-119.7989 2119.5095,-126.7703"/>
</g>
<!-- Node38&#45;&gt;Node2 -->
<g id="edge47" class="edge">
<title>Node38&#45;&gt;Node2</title>
<path fill="none" stroke="#191970" d="M1451.9098,-165.4179C1426.1428,-156.2748 1386.2087,-142.1046 1357.5181,-131.924"/>
<polygon fill="#191970" stroke="#191970" points="1358.4751,-128.5499 1347.8804,-128.5042 1356.1342,-135.1469 1358.4751,-128.5499"/>
</g>
<!-- Node40&#45;&gt;Node36 -->
<g id="edge50" class="edge">
<title>Node40&#45;&gt;Node36</title>
<path fill="none" stroke="#191970" d="M2195.0354,-110.4179C2231.7383,-100.1709 2291.0573,-83.6097 2327.53,-73.427"/>
<polygon fill="#191970" stroke="#191970" points="2328.9289,-76.6704 2337.6194,-70.6102 2327.0465,-69.9282 2328.9289,-76.6704"/>
</g>
</g>
</svg>
