<?xml version="1.0" encoding="UTF-8" standalone="no"?>
<!DOCTYPE svg PUBLIC "-//W3C//DTD SVG 1.1//EN"
 "http://www.w3.org/Graphics/SVG/1.1/DTD/svg11.dtd">
<!-- Generated by graphviz version 2.40.1 (20161225.0304)
 -->
<!-- Title: External Event Handler Pages: 1 -->
<svg width="254pt" height="64pt"
 viewBox="0.00 0.00 254.41 64.00" xmlns="http://www.w3.org/2000/svg" xmlns:xlink="http://www.w3.org/1999/xlink">
<g id="graph0" class="graph" transform="scale(1 1) rotate(0) translate(4 60)">
<title>External Event Handler</title>
<polygon fill="#ffffff" stroke="transparent" points="-4,4 -4,-60 250.4082,-60 250.4082,4 -4,4"/>
<!-- Node0 -->
<g id="node1" class="node">
<title>Node0</title>
<polygon fill="#bfbfbf" stroke="#000000" points="127.5762,-18.5 127.5762,-36.5 246.4082,-36.5 246.4082,-18.5 127.5762,-18.5"/>
<text text-anchor="middle" x="186.9922" y="-24.5" font-family="Helvetica,sans-Serif" font-size="10.00" fill="#000000">External Event Handler</text>
</g>
<!-- Node1 -->
<g id="node2" class="node">
<title>Node1</title>
<g id="a_node2"><a xlink:href="group__framework.html" target="_top" xlink:title="Base Framework">
<polygon fill="#ffffff" stroke="#000000" points="0,-37.5 0,-55.5 91.5762,-55.5 91.5762,-37.5 0,-37.5"/>
<text text-anchor="middle" x="45.7881" y="-43.5" font-family="Helvetica,sans-Serif" font-size="10.00" fill="#000000">Base Framework</text>
</a>
</g>
</g>
<!-- Node1&#45;&gt;Node0 -->
<g id="edge1" class="edge">
<title>Node1&#45;&gt;Node0</title>
<path fill="none" stroke="#000000" d="M101.7635,-38.9681C110.216,-37.8308 118.9609,-36.6541 127.4846,-35.5072"/>
<polygon fill="#000000" stroke="#000000" points="101.0769,-35.5289 91.633,-40.3312 102.0105,-42.4663 101.0769,-35.5289"/>
</g>
<!-- Node2 -->
<g id="node3" class="node">
<title>Node2</title>
<g id="a_node3"><a xlink:href="group__events.html" target="_top" xlink:title="Functions to manage events for components. ">
<polygon fill="#ffffff" stroke="#000000" points="6.1035,-.5 6.1035,-18.5 85.4727,-18.5 85.4727,-.5 6.1035,-.5"/>
<text text-anchor="middle" x="45.7881" y="-6.5" font-family="Helvetica,sans-Serif" font-size="10.00" fill="#000000">Event Handler</text>
</a>
</g>
</g>
<!-- Node2&#45;&gt;Node0 -->
<g id="edge2" class="edge">
<title>Node2&#45;&gt;Node0</title>
<path fill="none" stroke="#000000" d="M95.5776,-15.8469C105.913,-17.1644 116.9018,-18.5652 127.5438,-19.9218"/>
<polygon fill="#000000" stroke="#000000" points="95.8594,-12.3546 85.4971,-14.5619 94.9742,-19.2984 95.8594,-12.3546"/>
</g>
</g>
</svg>
