<?xml version="1.0" encoding="UTF-8" standalone="no"?>
<!DOCTYPE svg PUBLIC "-//W3C//DTD SVG 1.1//EN"
 "http://www.w3.org/Graphics/SVG/1.1/DTD/svg11.dtd">
<!-- Generated by graphviz version 2.40.1 (20161225.0304)
 -->
<!-- Title: External Application Loader Pages: 1 -->
<svg width="252pt" height="37pt"
 viewBox="0.00 0.00 251.67 37.00" xmlns="http://www.w3.org/2000/svg" xmlns:xlink="http://www.w3.org/1999/xlink">
<g id="graph0" class="graph" transform="scale(1 1) rotate(0) translate(4 33)">
<title>External Application Loader</title>
<polygon fill="#ffffff" stroke="transparent" points="-4,4 -4,-33 247.6738,-33 247.6738,4 -4,4"/>
<!-- Node0 -->
<g id="node1" class="node">
<title>Node0</title>
<polygon fill="#bfbfbf" stroke="#000000" points="139.8369,-.5 139.8369,-28.5 243.6738,-28.5 243.6738,-.5 139.8369,-.5"/>
<text text-anchor="start" x="147.8369" y="-16.5" font-family="Helvetica,sans-Serif" font-size="10.00" fill="#000000">External Application</text>
<text text-anchor="middle" x="191.7554" y="-6.5" font-family="Helvetica,sans-Serif" font-size="10.00" fill="#000000"> Loader</text>
</g>
<!-- Node1 -->
<g id="node2" class="node">
<title>Node1</title>
<g id="a_node2"><a xlink:href="group__app__shim.html" target="_top" xlink:title="Functions to glue the Barista NOS and an external application. ">
<polygon fill="#ffffff" stroke="#000000" points="0,-.5 0,-28.5 103.8369,-28.5 103.8369,-.5 0,-.5"/>
<text text-anchor="start" x="8" y="-16.5" font-family="Helvetica,sans-Serif" font-size="10.00" fill="#000000">External Application</text>
<text text-anchor="middle" x="51.9185" y="-6.5" font-family="Helvetica,sans-Serif" font-size="10.00" fill="#000000"> Handler</text>
</a>
</g>
</g>
<!-- Node1&#45;&gt;Node0 -->
<g id="edge1" class="edge">
<title>Node1&#45;&gt;Node0</title>
<path fill="none" stroke="#000000" d="M114.2327,-14.5C122.7206,-14.5 131.3597,-14.5 139.6418,-14.5"/>
<polygon fill="#000000" stroke="#000000" points="113.9886,-11.0001 103.9886,-14.5 113.9885,-18.0001 113.9886,-11.0001"/>
</g>
</g>
</svg>
