<?xml version="1.0" encoding="UTF-8" standalone="no"?>
<!DOCTYPE svg PUBLIC "-//W3C//DTD SVG 1.1//EN"
 "http://www.w3.org/Graphics/SVG/1.1/DTD/svg11.dtd">
<!-- Generated by graphviz version 2.40.1 (20161225.0304)
 -->
<!-- Title: Application Event Handler Pages: 1 -->
<svg width="513pt" height="150pt"
 viewBox="0.00 0.00 512.59 150.00" xmlns="http://www.w3.org/2000/svg" xmlns:xlink="http://www.w3.org/1999/xlink">
<g id="graph0" class="graph" transform="scale(1 1) rotate(0) translate(4 146)">
<title>Application Event Handler</title>
<polygon fill="#ffffff" stroke="transparent" points="-4,4 -4,-146 508.5889,-146 508.5889,4 -4,4"/>
<!-- Node3 -->
<g id="node1" class="node">
<title>Node3</title>
<g id="a_node1"><a xlink:href="group__ev__msg.html" target="_top" xlink:title="Functions to handle events between the Barista NOS and external components. ">
<polygon fill="#ffffff" stroke="#000000" points="377.1338,-123.5 377.1338,-141.5 495.9658,-141.5 495.9658,-123.5 377.1338,-123.5"/>
<text text-anchor="middle" x="436.5498" y="-129.5" font-family="Helvetica,sans-Serif" font-size="10.00" fill="#000000">External Event Handler</text>
</a>
</g>
</g>
<!-- Node2 -->
<g id="node2" class="node">
<title>Node2</title>
<g id="a_node2"><a xlink:href="group__av__msg.html" target="_top" xlink:title="Functions to handle app events between the Barista NOS and external applications. ...">
<polygon fill="#ffffff" stroke="#000000" points="368.5107,-80.5 368.5107,-98.5 504.5889,-98.5 504.5889,-80.5 368.5107,-80.5"/>
<text text-anchor="middle" x="436.5498" y="-86.5" font-family="Helvetica,sans-Serif" font-size="10.00" fill="#000000">External AppEvent Handler</text>
</a>
</g>
</g>
<!-- Node0 -->
<g id="node3" class="node">
<title>Node0</title>
<polygon fill="#bfbfbf" stroke="#000000" points="140.8369,-58.5 140.8369,-76.5 271.9053,-76.5 271.9053,-58.5 140.8369,-58.5"/>
<text text-anchor="middle" x="206.3711" y="-64.5" font-family="Helvetica,sans-Serif" font-size="10.00" fill="#000000">Application Event Handler</text>
</g>
<!-- Node0&#45;&gt;Node3 -->
<g id="edge3" class="edge">
<title>Node0&#45;&gt;Node3</title>
<path fill="none" stroke="#ffa500" stroke-dasharray="5,2" d="M223.8405,-76.6488C240.4343,-84.9958 266.2873,-97.1212 289.9053,-104.5 317.9849,-113.2727 349.9914,-119.7704 376.9231,-124.2859"/>
<text text-anchor="middle" x="320.208" y="-130.5" font-family="Helvetica,sans-Serif" font-size="10.00" fill="#000000">_json_header</text>
<text text-anchor="middle" x="320.208" y="-120.5" font-family="Helvetica,sans-Serif" font-size="10.00" fill="#000000">_buffer_t</text>
</g>
<!-- Node0&#45;&gt;Node2 -->
<g id="edge2" class="edge">
<title>Node0&#45;&gt;Node2</title>
<path fill="none" stroke="#ffa500" stroke-dasharray="5,2" d="M272.023,-73.7749C302.1868,-76.6579 337.9444,-80.0755 368.4065,-82.987"/>
<text text-anchor="middle" x="320.208" y="-92.5" font-family="Helvetica,sans-Serif" font-size="10.00" fill="#000000">_json_header</text>
<text text-anchor="middle" x="320.208" y="-82.5" font-family="Helvetica,sans-Serif" font-size="10.00" fill="#000000">_buffer_t</text>
</g>
<!-- Node4 -->
<g id="node4" class="node">
<title>Node4</title>
<g id="a_node4"><a xlink:href="group__compnt__event.html" target="_top" xlink:title="Functions to manage events for external components. ">
<polygon fill="#ffffff" stroke="#000000" points="369.6265,-37.5 369.6265,-55.5 503.4731,-55.5 503.4731,-37.5 369.6265,-37.5"/>
<text text-anchor="middle" x="436.5498" y="-43.5" font-family="Helvetica,sans-Serif" font-size="10.00" fill="#000000">Component Event Handler</text>
</a>
</g>
</g>
<!-- Node0&#45;&gt;Node4 -->
<g id="edge4" class="edge">
<title>Node0&#45;&gt;Node4</title>
<path fill="none" stroke="#ffa500" stroke-dasharray="5,2" d="M236.6173,-58.4962C252.3516,-54.2635 271.9931,-49.6764 289.9053,-47.5 315.811,-44.3524 344.4808,-43.565 369.5484,-43.7525"/>
<text text-anchor="middle" x="320.208" y="-59.5" font-family="Helvetica,sans-Serif" font-size="10.00" fill="#000000">_json_header</text>
<text text-anchor="middle" x="320.208" y="-49.5" font-family="Helvetica,sans-Serif" font-size="10.00" fill="#000000">_buffer_t</text>
</g>
<!-- Node5 -->
<g id="node6" class="node">
<title>Node5</title>
<g id="a_node6"><a xlink:href="group__conn.html" target="_top" xlink:title="(Base) packet I/O engine ">
<polygon fill="#ffffff" stroke="#000000" points="388.2495,-.5 388.2495,-18.5 484.8501,-18.5 484.8501,-.5 388.2495,-.5"/>
<text text-anchor="middle" x="436.5498" y="-6.5" font-family="Helvetica,sans-Serif" font-size="10.00" fill="#000000">Packet I/O Engine</text>
</a>
</g>
</g>
<!-- Node0&#45;&gt;Node5 -->
<g id="edge5" class="edge">
<title>Node0&#45;&gt;Node5</title>
<path fill="none" stroke="#ffa500" stroke-dasharray="5,2" d="M223.1334,-58.4254C239.6432,-49.8892 265.8175,-37.4161 289.9053,-30.5 321.9178,-21.3086 359.068,-16.0425 387.9663,-13.0825"/>
<text text-anchor="middle" x="320.208" y="-32.5" font-family="Helvetica,sans-Serif" font-size="10.00" fill="#000000">_buffer_t</text>
</g>
<!-- Node1 -->
<g id="node5" class="node">
<title>Node1</title>
<g id="a_node5"><a xlink:href="group__app__shim.html" target="_top" xlink:title="Functions to glue the Barista NOS and external applications. ">
<polygon fill="#ffffff" stroke="#000000" points="0,-53.5 0,-81.5 103.8369,-81.5 103.8369,-53.5 0,-53.5"/>
<text text-anchor="start" x="8" y="-69.5" font-family="Helvetica,sans-Serif" font-size="10.00" fill="#000000">External Application</text>
<text text-anchor="middle" x="51.9185" y="-59.5" font-family="Helvetica,sans-Serif" font-size="10.00" fill="#000000"> Handler</text>
</a>
</g>
</g>
<!-- Node1&#45;&gt;Node0 -->
<g id="edge1" class="edge">
<title>Node1&#45;&gt;Node0</title>
<path fill="none" stroke="#000000" d="M114.2798,-67.5C122.9849,-67.5 131.9518,-67.5 140.7153,-67.5"/>
<polygon fill="#000000" stroke="#000000" points="114.2091,-64.0001 104.2091,-67.5 114.209,-71.0001 114.2091,-64.0001"/>
</g>
</g>
</svg>
