<?xml version="1.0" encoding="UTF-8" standalone="no"?>
<!DOCTYPE svg PUBLIC "-//W3C//DTD SVG 1.1//EN"
 "http://www.w3.org/Graphics/SVG/1.1/DTD/svg11.dtd">
<!-- Generated by graphviz version 2.40.1 (20161225.0304)
 -->
<!-- Title: Packet I/O Engine Pages: 1 -->
<svg width="426pt" height="138pt"
 viewBox="0.00 0.00 425.67 138.00" xmlns="http://www.w3.org/2000/svg" xmlns:xlink="http://www.w3.org/1999/xlink">
<g id="graph0" class="graph" transform="scale(1 1) rotate(0) translate(4 134)">
<title>Packet I/O Engine</title>
<polygon fill="#ffffff" stroke="transparent" points="-4,4 -4,-134 421.6748,-134 421.6748,4 -4,4"/>
<!-- Node3 -->
<g id="node1" class="node">
<title>Node3</title>
<g id="a_node1"><a xlink:href="group__ev__msg.html" target="_top" xlink:title="Functions to handle events between the Barista NOS and external components. ">
<polygon fill="#ffffff" stroke="#000000" points="290.2197,-111.5 290.2197,-129.5 409.0518,-129.5 409.0518,-111.5 290.2197,-111.5"/>
<text text-anchor="middle" x="349.6357" y="-117.5" font-family="Helvetica,sans-Serif" font-size="10.00" fill="#000000">External Event Handler</text>
</a>
</g>
</g>
<!-- Node2 -->
<g id="node2" class="node">
<title>Node2</title>
<g id="a_node2"><a xlink:href="group__av__msg.html" target="_top" xlink:title="Functions to handle app events between the Barista NOS and external applications. ...">
<polygon fill="#ffffff" stroke="#000000" points="281.5967,-74.5 281.5967,-92.5 417.6748,-92.5 417.6748,-74.5 281.5967,-74.5"/>
<text text-anchor="middle" x="349.6357" y="-80.5" font-family="Helvetica,sans-Serif" font-size="10.00" fill="#000000">External AppEvent Handler</text>
</a>
</g>
</g>
<!-- Node1 -->
<g id="node3" class="node">
<title>Node1</title>
<g id="a_node3"><a xlink:href="group__compnt.html" target="_top" xlink:title="Components">
<polygon fill="#ffffff" stroke="#000000" points="0,-55.5 0,-73.5 72.6992,-73.5 72.6992,-55.5 0,-55.5"/>
<text text-anchor="middle" x="36.3496" y="-61.5" font-family="Helvetica,sans-Serif" font-size="10.00" fill="#000000">Components</text>
</a>
</g>
</g>
<!-- Node0 -->
<g id="node6" class="node">
<title>Node0</title>
<polygon fill="#bfbfbf" stroke="#000000" points="109.6992,-55.5 109.6992,-73.5 206.2998,-73.5 206.2998,-55.5 109.6992,-55.5"/>
<text text-anchor="middle" x="157.9995" y="-61.5" font-family="Helvetica,sans-Serif" font-size="10.00" fill="#000000">Packet I/O Engine</text>
</g>
<!-- Node1&#45;&gt;Node0 -->
<g id="edge1" class="edge">
<title>Node1&#45;&gt;Node0</title>
<path fill="none" stroke="#000000" d="M83.0989,-64.5C91.7048,-64.5 100.7086,-64.5 109.3685,-64.5"/>
<polygon fill="#000000" stroke="#000000" points="82.8486,-61.0001 72.8486,-64.5 82.8486,-68.0001 82.8486,-61.0001"/>
</g>
<!-- Node4 -->
<g id="node4" class="node">
<title>Node4</title>
<g id="a_node4"><a xlink:href="group__app__event.html" target="_top" xlink:title="Functions to manage app events for external applications. ">
<polygon fill="#ffffff" stroke="#000000" points="284.1016,-37.5 284.1016,-55.5 415.1699,-55.5 415.1699,-37.5 284.1016,-37.5"/>
<text text-anchor="middle" x="349.6357" y="-43.5" font-family="Helvetica,sans-Serif" font-size="10.00" fill="#000000">Application Event Handler</text>
</a>
</g>
</g>
<!-- Node5 -->
<g id="node5" class="node">
<title>Node5</title>
<g id="a_node5"><a xlink:href="group__compnt__event.html" target="_top" xlink:title="Functions to manage events for external components. ">
<polygon fill="#ffffff" stroke="#000000" points="282.7124,-.5 282.7124,-18.5 416.5591,-18.5 416.5591,-.5 282.7124,-.5"/>
<text text-anchor="middle" x="349.6357" y="-6.5" font-family="Helvetica,sans-Serif" font-size="10.00" fill="#000000">Component Event Handler</text>
</a>
</g>
</g>
<!-- Node0&#45;&gt;Node3 -->
<g id="edge3" class="edge">
<title>Node0&#45;&gt;Node3</title>
<path fill="none" stroke="#ffa500" stroke-dasharray="5,2" d="M181.1318,-73.5001C193.7837,-78.2634 209.7924,-84.0339 224.2998,-88.5 252.7391,-97.2551 285.3152,-105.5197 310.1273,-111.4562"/>
<text text-anchor="middle" x="243.9482" y="-100.5" font-family="Helvetica,sans-Serif" font-size="10.00" fill="#000000">_buffer_t</text>
</g>
<!-- Node0&#45;&gt;Node2 -->
<g id="edge2" class="edge">
<title>Node0&#45;&gt;Node2</title>
<path fill="none" stroke="#ffa500" stroke-dasharray="5,2" d="M206.3574,-69.2945C229.0879,-71.5481 256.5855,-74.2744 281.3889,-76.7336"/>
<text text-anchor="middle" x="243.9482" y="-76.5" font-family="Helvetica,sans-Serif" font-size="10.00" fill="#000000">_buffer_t</text>
</g>
<!-- Node0&#45;&gt;Node4 -->
<g id="edge4" class="edge">
<title>Node0&#45;&gt;Node4</title>
<path fill="none" stroke="#ffa500" stroke-dasharray="5,2" d="M198.8705,-55.465C207.2453,-53.902 216.0284,-52.4701 224.2998,-51.5 243.5494,-49.2424 264.5632,-47.9502 283.788,-47.2251"/>
<text text-anchor="middle" x="243.9482" y="-53.5" font-family="Helvetica,sans-Serif" font-size="10.00" fill="#000000">_buffer_t</text>
</g>
<!-- Node0&#45;&gt;Node5 -->
<g id="edge5" class="edge">
<title>Node0&#45;&gt;Node5</title>
<path fill="none" stroke="#ffa500" stroke-dasharray="5,2" d="M175.0205,-55.4937C188.1663,-48.862 206.9791,-40.0655 224.2998,-34.5 245.3188,-27.7462 268.9328,-22.4657 289.9493,-18.5337"/>
<text text-anchor="middle" x="243.9482" y="-36.5" font-family="Helvetica,sans-Serif" font-size="10.00" fill="#000000">_buffer_t</text>
</g>
</g>
</svg>
