<?xml version="1.0" encoding="UTF-8" standalone="no"?>
<!DOCTYPE svg PUBLIC "-//W3C//DTD SVG 1.1//EN"
 "http://www.w3.org/Graphics/SVG/1.1/DTD/svg11.dtd">
<!-- Generated by graphviz version 2.40.1 (20161225.0304)
 -->
<!-- Title: Components Pages: 1 -->
<svg width="256pt" height="602pt"
 viewBox="0.00 0.00 256.10 602.00" xmlns="http://www.w3.org/2000/svg" xmlns:xlink="http://www.w3.org/1999/xlink">
<g id="graph0" class="graph" transform="scale(1 1) rotate(0) translate(4 598)">
<title>Components</title>
<polygon fill="#ffffff" stroke="transparent" points="-4,4 -4,-598 252.0977,-598 252.0977,4 -4,4"/>
<!-- Node3 -->
<g id="node1" class="node">
<title>Node3</title>
<g id="a_node1"><a xlink:href="group__cluster.html" target="_top" xlink:title="(Admin) cluster ">
<polygon fill="#ffffff" stroke="#000000" points="154.561,-575.5 154.561,-593.5 202.2358,-593.5 202.2358,-575.5 154.561,-575.5"/>
<text text-anchor="middle" x="178.3984" y="-581.5" font-family="Helvetica,sans-Serif" font-size="10.00" fill="#000000">Cluster</text>
</a>
</g>
</g>
<!-- Node4 -->
<g id="node2" class="node">
<title>Node4</title>
<g id="a_node2"><a xlink:href="group__conflict.html" target="_top" xlink:title="(Security) flow rule conflict resolution ">
<polygon fill="#ffffff" stroke="#000000" points="130.1079,-528.5 130.1079,-556.5 226.689,-556.5 226.689,-528.5 130.1079,-528.5"/>
<text text-anchor="start" x="138.1079" y="-544.5" font-family="Helvetica,sans-Serif" font-size="10.00" fill="#000000">Flow Rule Conflict</text>
<text text-anchor="middle" x="178.3984" y="-534.5" font-family="Helvetica,sans-Serif" font-size="10.00" fill="#000000"> Resolution</text>
</a>
</g>
</g>
<!-- Node11 -->
<g id="node3" class="node">
<title>Node11</title>
<g id="a_node3"><a xlink:href="group__ofp__veri.html" target="_top" xlink:title="(Security) OpenFlow 1.0 message verification ">
<polygon fill="#ffffff" stroke="#000000" points="117.5933,-481.5 117.5933,-509.5 239.2036,-509.5 239.2036,-481.5 117.5933,-481.5"/>
<text text-anchor="start" x="125.5933" y="-497.5" font-family="Helvetica,sans-Serif" font-size="10.00" fill="#000000">OpenFlow 1.0 Message</text>
<text text-anchor="middle" x="178.3984" y="-487.5" font-family="Helvetica,sans-Serif" font-size="10.00" fill="#000000"> Verification</text>
</a>
</g>
</g>
<!-- Node6 -->
<g id="node4" class="node">
<title>Node6</title>
<g id="a_node4"><a xlink:href="group__dit.html" target="_top" xlink:title="(Security) control message integrity ">
<polygon fill="#ffffff" stroke="#000000" points="113.4282,-444.5 113.4282,-462.5 243.3687,-462.5 243.3687,-444.5 113.4282,-444.5"/>
<text text-anchor="middle" x="178.3984" y="-450.5" font-family="Helvetica,sans-Serif" font-size="10.00" fill="#000000">Control Message Integrity</text>
</a>
</g>
</g>
<!-- Node9 -->
<g id="node5" class="node">
<title>Node9</title>
<g id="a_node5"><a xlink:href="group__log.html" target="_top" xlink:title="(Base) log management ">
<polygon fill="#ffffff" stroke="#000000" points="131.4824,-407.5 131.4824,-425.5 225.3145,-425.5 225.3145,-407.5 131.4824,-407.5"/>
<text text-anchor="middle" x="178.3984" y="-413.5" font-family="Helvetica,sans-Serif" font-size="10.00" fill="#000000">Log Management</text>
</a>
</g>
</g>
<!-- Node12 -->
<g id="node6" class="node">
<title>Node12</title>
<g id="a_node6"><a xlink:href="group__resource__mgmt.html" target="_top" xlink:title="(Management) resource management ">
<polygon fill="#ffffff" stroke="#000000" points="118.4258,-370.5 118.4258,-388.5 238.3711,-388.5 238.3711,-370.5 118.4258,-370.5"/>
<text text-anchor="middle" x="178.3984" y="-376.5" font-family="Helvetica,sans-Serif" font-size="10.00" fill="#000000">Resource Management</text>
</a>
</g>
</g>
<!-- Node14 -->
<g id="node7" class="node">
<title>Node14</title>
<g id="a_node7"><a xlink:href="group__switch__mgmt.html" target="_top" xlink:title="(Management) switch management ">
<polygon fill="#ffffff" stroke="#000000" points="125.0981,-333.5 125.0981,-351.5 231.6987,-351.5 231.6987,-333.5 125.0981,-333.5"/>
<text text-anchor="middle" x="178.3984" y="-339.5" font-family="Helvetica,sans-Serif" font-size="10.00" fill="#000000">Switch Management</text>
</a>
</g>
</g>
<!-- Node0 -->
<g id="node8" class="node">
<title>Node0</title>
<polygon fill="#bfbfbf" stroke="#000000" points="0,-277.5 0,-295.5 72.6992,-295.5 72.6992,-277.5 0,-277.5"/>
<text text-anchor="middle" x="36.3496" y="-283.5" font-family="Helvetica,sans-Serif" font-size="10.00" fill="#000000">Components</text>
</g>
<!-- Node0&#45;&gt;Node3 -->
<g id="edge3" class="edge">
<title>Node0&#45;&gt;Node3</title>
<path fill="none" stroke="#000000" d="M38.8018,-305.9696C46.389,-363.1727 71.248,-529.0537 108.6992,-566.5 120.6301,-578.4293 139.3604,-582.7826 154.401,-584.2327"/>
<polygon fill="#000000" stroke="#000000" points="42.2366,-305.2395 37.4811,-295.7719 35.2945,-306.1386 42.2366,-305.2395"/>
</g>
<!-- Node0&#45;&gt;Node4 -->
<g id="edge4" class="edge">
<title>Node0&#45;&gt;Node4</title>
<path fill="none" stroke="#000000" d="M39.992,-305.8238C49.7924,-355.9315 78.0612,-488.316 108.6992,-519.5 114.5932,-525.499 122.0808,-529.9336 129.9486,-533.2115"/>
<polygon fill="#000000" stroke="#000000" points="43.3705,-304.8582 38.0456,-295.6988 36.4964,-306.1797 43.3705,-304.8582"/>
</g>
<!-- Node0&#45;&gt;Node11 -->
<g id="edge11" class="edge">
<title>Node0&#45;&gt;Node11</title>
<path fill="none" stroke="#000000" d="M38.4508,-305.8387C43.545,-343.3239 59.9596,-426.2418 108.6992,-472.5 112.3038,-475.921 116.4277,-478.8335 120.829,-481.313"/>
<polygon fill="#000000" stroke="#000000" points="41.9051,-305.2526 37.21,-295.7549 34.9575,-306.1075 41.9051,-305.2526"/>
</g>
<!-- Node0&#45;&gt;Node6 -->
<g id="edge6" class="edge">
<title>Node0&#45;&gt;Node6</title>
<path fill="none" stroke="#000000" d="M40.219,-305.7387C47.6685,-337.6687 67.0903,-401.4552 108.6992,-435.5 113.1485,-439.1405 118.2493,-442.0538 123.6238,-444.3838"/>
<polygon fill="#000000" stroke="#000000" points="43.618,-304.8982 38.0666,-295.8742 36.779,-306.3905 43.618,-304.8982"/>
</g>
<!-- Node0&#45;&gt;Node9 -->
<g id="edge9" class="edge">
<title>Node0&#45;&gt;Node9</title>
<path fill="none" stroke="#000000" d="M43.3178,-305.1722C53.667,-330.2887 75.5184,-374.5609 108.6992,-398.5 115.3884,-403.3261 123.2612,-406.8601 131.2627,-409.4475"/>
<polygon fill="#000000" stroke="#000000" points="46.5071,-303.7186 39.5872,-295.6958 39.9937,-306.2829 46.5071,-303.7186"/>
</g>
<!-- Node0&#45;&gt;Node12 -->
<g id="edge12" class="edge">
<title>Node0&#45;&gt;Node12</title>
<path fill="none" stroke="#000000" d="M48.4636,-303.7737C61.4247,-320.9608 83.5475,-346.8288 108.6992,-361.5 114.9605,-365.1522 121.9623,-368.0735 129.0477,-370.4076"/>
<polygon fill="#000000" stroke="#000000" points="51.2782,-301.6931 42.5534,-295.6824 45.6256,-305.8221 51.2782,-301.6931"/>
</g>
<!-- Node0&#45;&gt;Node14 -->
<g id="edge14" class="edge">
<title>Node0&#45;&gt;Node14</title>
<path fill="none" stroke="#000000" d="M59.9591,-300.6785C73.7921,-308.5287 91.8137,-317.9861 108.6992,-324.5 117.6774,-327.9635 127.5604,-330.972 136.9915,-333.4857"/>
<polygon fill="#000000" stroke="#000000" points="61.5244,-297.5405 51.117,-295.5565 58.0156,-303.5977 61.5244,-297.5405"/>
</g>
<!-- Node1 -->
<g id="node9" class="node">
<title>Node1</title>
<g id="a_node9"><a xlink:href="group__apphdlr.html" target="_top" xlink:title="(Base) application handler ">
<polygon fill="#ffffff" stroke="#000000" points="127.0391,-296.5 127.0391,-314.5 229.7578,-314.5 229.7578,-296.5 127.0391,-296.5"/>
<text text-anchor="middle" x="178.3984" y="-302.5" font-family="Helvetica,sans-Serif" font-size="10.00" fill="#000000">Application Handler</text>
</a>
</g>
</g>
<!-- Node0&#45;&gt;Node1 -->
<g id="edge1" class="edge">
<title>Node0&#45;&gt;Node1</title>
<path fill="none" stroke="#000000" d="M82.8981,-292.7262C96.994,-294.6116 112.5553,-296.693 126.9524,-298.6187"/>
<polygon fill="#000000" stroke="#000000" points="83.3065,-289.2497 72.9307,-291.393 82.3784,-296.1879 83.3065,-289.2497"/>
</g>
<!-- Node16 -->
<g id="node10" class="node">
<title>Node16</title>
<g id="a_node10"><a xlink:href="group__traffic__mgmt.html" target="_top" xlink:title="(Management) control traffic management ">
<polygon fill="#ffffff" stroke="#000000" points="108.6992,-259.5 108.6992,-277.5 248.0977,-277.5 248.0977,-259.5 108.6992,-259.5"/>
<text text-anchor="middle" x="178.3984" y="-265.5" font-family="Helvetica,sans-Serif" font-size="10.00" fill="#000000">Control Traffic Management</text>
</a>
</g>
</g>
<!-- Node0&#45;&gt;Node16 -->
<g id="edge16" class="edge">
<title>Node0&#45;&gt;Node16</title>
<path fill="none" stroke="#000000" d="M83.009,-280.5875C91.2041,-279.549 99.8917,-278.4481 108.5558,-277.3502"/>
<polygon fill="#000000" stroke="#000000" points="82.4114,-277.1351 72.9307,-281.8646 83.2914,-284.0796 82.4114,-277.1351"/>
</g>
<!-- Node7 -->
<g id="node11" class="node">
<title>Node7</title>
<g id="a_node11"><a xlink:href="group__flow__mgmt.html" target="_top" xlink:title="(Management) flow management ">
<polygon fill="#ffffff" stroke="#000000" points="129.2681,-222.5 129.2681,-240.5 227.5288,-240.5 227.5288,-222.5 129.2681,-222.5"/>
<text text-anchor="middle" x="178.3984" y="-228.5" font-family="Helvetica,sans-Serif" font-size="10.00" fill="#000000">Flow Management</text>
</a>
</g>
</g>
<!-- Node0&#45;&gt;Node7 -->
<g id="edge7" class="edge">
<title>Node0&#45;&gt;Node7</title>
<path fill="none" stroke="#000000" d="M61.1489,-272.6504C74.8709,-265.3757 92.4007,-256.7079 108.6992,-250.5 118.6618,-246.7054 129.6926,-243.336 139.9839,-240.5277"/>
<polygon fill="#000000" stroke="#000000" points="59.4563,-269.5866 52.3193,-277.4169 62.7816,-275.7464 59.4563,-269.5866"/>
</g>
<!-- Node8 -->
<g id="node12" class="node">
<title>Node8</title>
<g id="a_node12"><a xlink:href="group__host__mgmt.html" target="_top" xlink:title="(Management) host management ">
<polygon fill="#ffffff" stroke="#000000" points="129.5439,-185.5 129.5439,-203.5 227.2529,-203.5 227.2529,-185.5 129.5439,-185.5"/>
<text text-anchor="middle" x="178.3984" y="-191.5" font-family="Helvetica,sans-Serif" font-size="10.00" fill="#000000">Host Management</text>
</a>
</g>
</g>
<!-- Node0&#45;&gt;Node8 -->
<g id="edge8" class="edge">
<title>Node0&#45;&gt;Node8</title>
<path fill="none" stroke="#000000" d="M49.1772,-269.0389C62.3214,-252.3758 84.2495,-227.76 108.6992,-213.5 115.7414,-209.3928 123.7008,-206.1463 131.6577,-203.5884"/>
<polygon fill="#000000" stroke="#000000" points="46.1083,-267.2906 42.8183,-277.3617 51.6706,-271.5404 46.1083,-267.2906"/>
</g>
<!-- Node2 -->
<g id="node13" class="node">
<title>Node2</title>
<g id="a_node13"><a xlink:href="group__cac.html" target="_top" xlink:title="(Security) component access control ">
<polygon fill="#ffffff" stroke="#000000" points="109.8101,-148.5 109.8101,-166.5 246.9868,-166.5 246.9868,-148.5 109.8101,-148.5"/>
<text text-anchor="middle" x="178.3984" y="-154.5" font-family="Helvetica,sans-Serif" font-size="10.00" fill="#000000">Component Access Control</text>
</a>
</g>
</g>
<!-- Node0&#45;&gt;Node2 -->
<g id="edge2" class="edge">
<title>Node0&#45;&gt;Node2</title>
<path fill="none" stroke="#000000" d="M43.6122,-267.8553C54.1814,-243.1947 76.1583,-200.1053 108.6992,-176.5 114.3845,-172.3759 120.9177,-169.1469 127.6558,-166.6188"/>
<polygon fill="#000000" stroke="#000000" points="40.342,-266.6051 39.7834,-277.1853 46.8179,-269.2627 40.342,-266.6051"/>
</g>
<!-- Node15 -->
<g id="node14" class="node">
<title>Node15</title>
<g id="a_node14"><a xlink:href="group__topo__mgmt.html" target="_top" xlink:title="(Management) topology management ">
<polygon fill="#ffffff" stroke="#000000" points="119.8101,-111.5 119.8101,-129.5 236.9868,-129.5 236.9868,-111.5 119.8101,-111.5"/>
<text text-anchor="middle" x="178.3984" y="-117.5" font-family="Helvetica,sans-Serif" font-size="10.00" fill="#000000">Topology Management</text>
</a>
</g>
</g>
<!-- Node0&#45;&gt;Node15 -->
<g id="edge15" class="edge">
<title>Node0&#45;&gt;Node15</title>
<path fill="none" stroke="#000000" d="M40.448,-267.1614C48.1579,-235.6068 67.857,-173.1935 108.6992,-139.5 113.7301,-135.3497 119.593,-132.1015 125.7423,-129.5602"/>
<polygon fill="#000000" stroke="#000000" points="36.9514,-266.7515 38.133,-277.2802 43.7751,-268.3127 36.9514,-266.7515"/>
</g>
<!-- Node5 -->
<g id="node15" class="node">
<title>Node5</title>
<g id="a_node15"><a xlink:href="group__conn.html" target="_top" xlink:title="(Base) packet I/O engine ">
<polygon fill="#ffffff" stroke="#000000" points="130.0981,-74.5 130.0981,-92.5 226.6987,-92.5 226.6987,-74.5 130.0981,-74.5"/>
<text text-anchor="middle" x="178.3984" y="-80.5" font-family="Helvetica,sans-Serif" font-size="10.00" fill="#000000">Packet I/O Engine</text>
</a>
</g>
</g>
<!-- Node0&#45;&gt;Node5 -->
<g id="edge5" class="edge">
<title>Node0&#45;&gt;Node5</title>
<path fill="none" stroke="#000000" d="M38.307,-267.1381C43.1497,-229.6516 59.1444,-146.95 108.6992,-102.5 114.7679,-97.0565 122.2482,-93.1523 130.0321,-90.3568"/>
<polygon fill="#000000" stroke="#000000" points="34.8123,-266.8912 37.1373,-277.2278 41.7657,-267.6974 34.8123,-266.8912"/>
</g>
<!-- Node10 -->
<g id="node16" class="node">
<title>Node10</title>
<g id="a_node16"><a xlink:href="group__ofp10.html" target="_top" xlink:title="(Base) OpenFlow 1.0 engine ">
<polygon fill="#ffffff" stroke="#000000" points="122.3125,-37.5 122.3125,-55.5 234.4844,-55.5 234.4844,-37.5 122.3125,-37.5"/>
<text text-anchor="middle" x="178.3984" y="-43.5" font-family="Helvetica,sans-Serif" font-size="10.00" fill="#000000">OpenFlow 1.0 Engine</text>
</a>
</g>
</g>
<!-- Node0&#45;&gt;Node10 -->
<g id="edge10" class="edge">
<title>Node0&#45;&gt;Node10</title>
<path fill="none" stroke="#000000" d="M40.1724,-267.4468C50.2124,-219.2152 78.6361,-94.0894 108.6992,-65.5 113.0617,-61.3513 118.2387,-58.0905 123.7713,-55.5303"/>
<polygon fill="#000000" stroke="#000000" points="36.6962,-266.9763 38.1208,-277.4749 43.5542,-268.3794 36.6962,-266.9763"/>
</g>
<!-- Node13 -->
<g id="node17" class="node">
<title>Node13</title>
<g id="a_node17"><a xlink:href="group__stat__mgmt.html" target="_top" xlink:title="(Management) statistics management ">
<polygon fill="#ffffff" stroke="#000000" points="119.8198,-.5 119.8198,-18.5 236.9771,-18.5 236.9771,-.5 119.8198,-.5"/>
<text text-anchor="middle" x="178.3984" y="-6.5" font-family="Helvetica,sans-Serif" font-size="10.00" fill="#000000">Statistics Management</text>
</a>
</g>
</g>
<!-- Node0&#45;&gt;Node13 -->
<g id="edge13" class="edge">
<title>Node0&#45;&gt;Node13</title>
<path fill="none" stroke="#000000" d="M39.2096,-267.5242C47.6597,-213.8899 74.1023,-62.8463 108.6992,-28.5 112.8826,-24.3469 117.8792,-21.0784 123.2494,-18.5096"/>
<polygon fill="#000000" stroke="#000000" points="35.7496,-266.9966 37.683,-277.4136 42.6677,-268.0646 35.7496,-266.9966"/>
</g>
</g>
</svg>
