<?xml version="1.0" encoding="UTF-8" standalone="no"?>
<!DOCTYPE svg PUBLIC "-//W3C//DTD SVG 1.1//EN"
 "http://www.w3.org/Graphics/SVG/1.1/DTD/svg11.dtd">
<!-- Generated by graphviz version 2.40.1 (20161225.0304)
 -->
<!-- Title: Base Framework Pages: 1 -->
<svg width="267pt" height="343pt"
 viewBox="0.00 0.00 266.64 343.00" xmlns="http://www.w3.org/2000/svg" xmlns:xlink="http://www.w3.org/1999/xlink">
<g id="graph0" class="graph" transform="scale(1 1) rotate(0) translate(4 339)">
<title>Base Framework</title>
<polygon fill="#ffffff" stroke="transparent" points="-4,4 -4,-339 262.6445,-339 262.6445,4 -4,4"/>
<!-- Node0 -->
<g id="node1" class="node">
<title>Node0</title>
<polygon fill="#bfbfbf" stroke="#000000" points="0,-158.5 0,-176.5 91.5762,-176.5 91.5762,-158.5 0,-158.5"/>
<text text-anchor="middle" x="45.7881" y="-164.5" font-family="Helvetica,sans-Serif" font-size="10.00" fill="#000000">Base Framework</text>
</g>
<!-- Node9 -->
<g id="node2" class="node">
<title>Node9</title>
<g id="a_node2"><a xlink:href="group__base.html" target="_top" xlink:title="Function to execute the Barista NOS. ">
<polygon fill="#ffffff" stroke="#000000" points="147.3223,-316.5 147.3223,-334.5 238.8984,-334.5 238.8984,-316.5 147.3223,-316.5"/>
<text text-anchor="middle" x="193.1104" y="-322.5" font-family="Helvetica,sans-Serif" font-size="10.00" fill="#000000">Base Framework</text>
</a>
</g>
</g>
<!-- Node0&#45;&gt;Node9 -->
<g id="edge9" class="edge">
<title>Node0&#45;&gt;Node9</title>
<path fill="none" stroke="#000000" d="M51.6005,-186.3894C61.8913,-216.6304 86.2236,-275.7318 127.5762,-307.5 133.3772,-311.9565 140.2123,-315.3102 147.2403,-317.8339"/>
<polygon fill="#000000" stroke="#000000" points="54.8575,-185.0871 48.4389,-176.6579 48.2,-187.25 54.8575,-185.0871"/>
</g>
<!-- Node4 -->
<g id="node3" class="node">
<title>Node4</title>
<g id="a_node3"><a xlink:href="group__compnt__shim.html" target="_top" xlink:title="External Component\l Handler">
<polygon fill="#ffffff" stroke="#000000" points="139.5293,-269.5 139.5293,-297.5 246.6914,-297.5 246.6914,-269.5 139.5293,-269.5"/>
<text text-anchor="start" x="147.5293" y="-285.5" font-family="Helvetica,sans-Serif" font-size="10.00" fill="#000000">External Component</text>
<text text-anchor="middle" x="193.1104" y="-275.5" font-family="Helvetica,sans-Serif" font-size="10.00" fill="#000000"> Handler</text>
</a>
</g>
</g>
<!-- Node0&#45;&gt;Node4 -->
<g id="edge4" class="edge">
<title>Node0&#45;&gt;Node4</title>
<path fill="none" stroke="#000000" d="M57.0258,-185.0251C71.1601,-205.7669 97.2802,-240.0615 127.5762,-260.5 132.674,-263.9392 138.3417,-266.9209 144.1497,-269.4909"/>
<polygon fill="#000000" stroke="#000000" points="59.8471,-182.9465 51.4031,-176.5472 54.0134,-186.8155 59.8471,-182.9465"/>
</g>
<!-- Node5 -->
<g id="node4" class="node">
<title>Node5</title>
<g id="a_node4"><a xlink:href="group__app__mgmt.html" target="_top" xlink:title="Functions to configure and manage applications. ">
<polygon fill="#ffffff" stroke="#000000" points="130.0762,-232.5 130.0762,-250.5 256.1445,-250.5 256.1445,-232.5 130.0762,-232.5"/>
<text text-anchor="middle" x="193.1104" y="-238.5" font-family="Helvetica,sans-Serif" font-size="10.00" fill="#000000">Application Management</text>
</a>
</g>
</g>
<!-- Node0&#45;&gt;Node5 -->
<g id="edge5" class="edge">
<title>Node0&#45;&gt;Node5</title>
<path fill="none" stroke="#000000" d="M64.6778,-183.1436C80.5847,-195.6273 104.3927,-212.749 127.5762,-223.5 135.1759,-227.0243 143.6011,-229.9782 151.8092,-232.4071"/>
<polygon fill="#000000" stroke="#000000" points="66.6995,-180.2785 56.7077,-176.7553 62.3215,-185.7406 66.6995,-180.2785"/>
</g>
<!-- Node7 -->
<g id="node5" class="node">
<title>Node7</title>
<g id="a_node5"><a xlink:href="group__compnt__mgmt.html" target="_top" xlink:title="Functions to configure and manage components. ">
<polygon fill="#ffffff" stroke="#000000" points="128.687,-195.5 128.687,-213.5 257.5337,-213.5 257.5337,-195.5 128.687,-195.5"/>
<text text-anchor="middle" x="193.1104" y="-201.5" font-family="Helvetica,sans-Serif" font-size="10.00" fill="#000000">Component Management</text>
</a>
</g>
</g>
<!-- Node0&#45;&gt;Node7 -->
<g id="edge7" class="edge">
<title>Node0&#45;&gt;Node7</title>
<path fill="none" stroke="#000000" d="M91.5641,-178.9967C112.6986,-184.3046 137.4261,-190.5149 157.1883,-195.4782"/>
<polygon fill="#000000" stroke="#000000" points="92.3785,-175.5926 81.8272,-176.5512 90.6734,-182.3817 92.3785,-175.5926"/>
</g>
<!-- Node8 -->
<g id="node6" class="node">
<title>Node8</title>
<g id="a_node6"><a xlink:href="group__context.html" target="_top" xlink:title="Function to maintain the context of the Barista NOS. ">
<polygon fill="#ffffff" stroke="#000000" points="137.3052,-158.5 137.3052,-176.5 248.9155,-176.5 248.9155,-158.5 137.3052,-158.5"/>
<text text-anchor="middle" x="193.1104" y="-164.5" font-family="Helvetica,sans-Serif" font-size="10.00" fill="#000000">Context Management</text>
</a>
</g>
</g>
<!-- Node0&#45;&gt;Node8 -->
<g id="edge8" class="edge">
<title>Node0&#45;&gt;Node8</title>
<path fill="none" stroke="#000000" d="M101.6377,-167.5C113.2879,-167.5 125.5705,-167.5 137.2221,-167.5"/>
<polygon fill="#000000" stroke="#000000" points="101.5942,-164.0001 91.5942,-167.5 101.5942,-171.0001 101.5942,-164.0001"/>
</g>
<!-- Node2 -->
<g id="node7" class="node">
<title>Node2</title>
<g id="a_node7"><a xlink:href="group__events.html" target="_top" xlink:title="Functions to manage events for components. ">
<polygon fill="#ffffff" stroke="#000000" points="153.4258,-121.5 153.4258,-139.5 232.7949,-139.5 232.7949,-121.5 153.4258,-121.5"/>
<text text-anchor="middle" x="193.1104" y="-127.5" font-family="Helvetica,sans-Serif" font-size="10.00" fill="#000000">Event Handler</text>
</a>
</g>
</g>
<!-- Node0&#45;&gt;Node2 -->
<g id="edge2" class="edge">
<title>Node0&#45;&gt;Node2</title>
<path fill="none" stroke="#000000" d="M91.5641,-156.0033C112.6986,-150.6954 137.4261,-144.4851 157.1883,-139.5218"/>
<polygon fill="#000000" stroke="#000000" points="90.6734,-152.6183 81.8272,-158.4488 92.3785,-159.4074 90.6734,-152.6183"/>
</g>
<!-- Node3 -->
<g id="node8" class="node">
<title>Node3</title>
<g id="a_node8"><a xlink:href="group__app__shim.html" target="_top" xlink:title="External Application\l Handler">
<polygon fill="#ffffff" stroke="#000000" points="141.1919,-74.5 141.1919,-102.5 245.0288,-102.5 245.0288,-74.5 141.1919,-74.5"/>
<text text-anchor="start" x="149.1919" y="-90.5" font-family="Helvetica,sans-Serif" font-size="10.00" fill="#000000">External Application</text>
<text text-anchor="middle" x="193.1104" y="-80.5" font-family="Helvetica,sans-Serif" font-size="10.00" fill="#000000"> Handler</text>
</a>
</g>
</g>
<!-- Node0&#45;&gt;Node3 -->
<g id="edge3" class="edge">
<title>Node0&#45;&gt;Node3</title>
<path fill="none" stroke="#000000" d="M65.5178,-152.2467C81.5863,-140.3231 105.1961,-123.9115 127.5762,-112.5 134.7003,-108.8674 142.507,-105.5127 150.1707,-102.534"/>
<polygon fill="#000000" stroke="#000000" points="63.3011,-149.5346 57.4224,-158.3489 67.5147,-155.1244 63.3011,-149.5346"/>
</g>
<!-- Node6 -->
<g id="node9" class="node">
<title>Node6</title>
<g id="a_node9"><a xlink:href="group__cli.html" target="_top" xlink:title="Functions to manage CLI commands. ">
<polygon fill="#ffffff" stroke="#000000" points="130.0835,-37.5 130.0835,-55.5 256.1372,-55.5 256.1372,-37.5 130.0835,-37.5"/>
<text text-anchor="middle" x="193.1104" y="-43.5" font-family="Helvetica,sans-Serif" font-size="10.00" fill="#000000">Command&#45;Line Interface</text>
</a>
</g>
</g>
<!-- Node0&#45;&gt;Node6 -->
<g id="edge6" class="edge">
<title>Node0&#45;&gt;Node6</title>
<path fill="none" stroke="#000000" d="M55.6255,-149.2994C68.9428,-126.3739 94.8499,-87.3439 127.5762,-65.5 133.7834,-61.3568 140.9044,-58.1022 148.1136,-55.5497"/>
<polygon fill="#000000" stroke="#000000" points="52.4088,-147.879 50.559,-158.3112 58.5106,-151.3095 52.4088,-147.879"/>
</g>
<!-- Node1 -->
<g id="node10" class="node">
<title>Node1</title>
<g id="a_node10"><a xlink:href="group__app__events.html" target="_top" xlink:title="Functions to manage app events for applications. ">
<polygon fill="#ffffff" stroke="#000000" points="127.5762,-.5 127.5762,-18.5 258.6445,-18.5 258.6445,-.5 127.5762,-.5"/>
<text text-anchor="middle" x="193.1104" y="-6.5" font-family="Helvetica,sans-Serif" font-size="10.00" fill="#000000">Application Event Handler</text>
</a>
</g>
</g>
<!-- Node0&#45;&gt;Node1 -->
<g id="edge1" class="edge">
<title>Node0&#45;&gt;Node1</title>
<path fill="none" stroke="#000000" d="M51.6909,-148.8105C62.1094,-118.8774 86.6181,-60.3251 127.5762,-28.5 132.908,-24.3571 139.1144,-21.1171 145.5416,-18.5834"/>
<polygon fill="#000000" stroke="#000000" points="48.3227,-147.8475 48.4856,-158.4411 54.9645,-150.0581 48.3227,-147.8475"/>
</g>
</g>
</svg>
