<?xml version="1.0" encoding="UTF-8" standalone="no"?>
<!DOCTYPE svg PUBLIC "-//W3C//DTD SVG 1.1//EN"
 "http://www.w3.org/Graphics/SVG/1.1/DTD/svg11.dtd">
<!-- Generated by graphviz version 2.40.1 (20161225.0304)
 -->
<!-- Title: Context Management Pages: 1 -->
<svg width="288pt" height="45pt"
 viewBox="0.00 0.00 287.77 45.32" xmlns="http://www.w3.org/2000/svg" xmlns:xlink="http://www.w3.org/1999/xlink">
<g id="graph0" class="graph" transform="scale(1 1) rotate(0) translate(4 41.3165)">
<title>Context Management</title>
<polygon fill="#ffffff" stroke="transparent" points="-4,4 -4,-41.3165 283.7676,-41.3165 283.7676,4 -4,4"/>
<!-- Node1 -->
<g id="node1" class="node">
<title>Node1</title>
<g id="a_node1"><a xlink:href="group__framework.html" target="_top" xlink:title="Base Framework">
<polygon fill="#ffffff" stroke="#000000" points="0,-17.9774 0,-35.9774 91.5762,-35.9774 91.5762,-17.9774 0,-17.9774"/>
<text text-anchor="middle" x="45.7881" y="-23.9774" font-family="Helvetica,sans-Serif" font-size="10.00" fill="#000000">Base Framework</text>
</a>
</g>
</g>
<!-- Node0 -->
<g id="node2" class="node">
<title>Node0</title>
<polygon fill="#bfbfbf" stroke="#000000" points="168.1572,-17.9774 168.1572,-35.9774 279.7676,-35.9774 279.7676,-17.9774 168.1572,-17.9774"/>
<text text-anchor="middle" x="223.9624" y="-23.9774" font-family="Helvetica,sans-Serif" font-size="10.00" fill="#000000">Context Management</text>
</g>
<!-- Node1&#45;&gt;Node0 -->
<g id="edge1" class="edge">
<title>Node1&#45;&gt;Node0</title>
<path fill="none" stroke="#000000" d="M101.8333,-35.3331C104.4473,-35.5817 107.0381,-35.7992 109.5762,-35.9774 128.6525,-37.3165 149.5072,-36.3857 168.1238,-34.699"/>
<polygon fill="#000000" stroke="#000000" points="102.0159,-31.8325 91.6979,-34.2384 101.2642,-38.7921 102.0159,-31.8325"/>
</g>
<!-- Node0&#45;&gt;Node1 -->
<g id="edge2" class="edge">
<title>Node0&#45;&gt;Node1</title>
<path fill="none" stroke="#006400" stroke-dasharray="5,2" d="M204.6013,-17.8982C181.9082,-8.3846 143.1325,4.3635 109.5762,-1.9774 93.4472,-5.0252 76.1712,-12.0518 63.6717,-17.8819"/>
<text text-anchor="middle" x="129.8667" y="-23.9774" font-family="Helvetica,sans-Serif" font-size="10.00" fill="#000000">context.h</text>
<text text-anchor="middle" x="129.8667" y="-13.9774" font-family="Helvetica,sans-Serif" font-size="10.00" fill="#000000">context.h</text>
<text text-anchor="middle" x="129.8667" y="-3.9774" font-family="Helvetica,sans-Serif" font-size="10.00" fill="#000000">context.h</text>
</g>
</g>
</svg>
