<?xml version="1.0" encoding="UTF-8" standalone="no"?>
<!DOCTYPE svg PUBLIC "-//W3C//DTD SVG 1.1//EN"
 "http://www.w3.org/Graphics/SVG/1.1/DTD/svg11.dtd">
<!-- Generated by graphviz version 2.40.1 (20161225.0304)
 -->
<!-- Title: Components Pages: 1 -->
<svg width="266pt" height="602pt"
 viewBox="0.00 0.00 266.11 602.00" xmlns="http://www.w3.org/2000/svg" xmlns:xlink="http://www.w3.org/1999/xlink">
<g id="graph0" class="graph" transform="scale(1 1) rotate(0) translate(4 598)">
<title>Components</title>
<polygon fill="#ffffff" stroke="transparent" points="-4,4 -4,-598 262.1123,-598 262.1123,4 -4,4"/>
<!-- Node4 -->
<g id="node1" class="node">
<title>Node4</title>
<g id="a_node1"><a xlink:href="group__cluster.html" target="_top" xlink:title="(Admin) cluster ">
<polygon fill="#ffffff" stroke="#000000" points="159.5684,-575.5 159.5684,-593.5 207.2432,-593.5 207.2432,-575.5 159.5684,-575.5"/>
<text text-anchor="middle" x="183.4058" y="-581.5" font-family="Helvetica,sans-Serif" font-size="10.00" fill="#000000">Cluster</text>
</a>
</g>
</g>
<!-- Node5 -->
<g id="node2" class="node">
<title>Node5</title>
<g id="a_node2"><a xlink:href="group__conflict.html" target="_top" xlink:title="(Security) flow rule conflict detection ">
<polygon fill="#ffffff" stroke="#000000" points="135.1152,-528.5 135.1152,-556.5 231.6963,-556.5 231.6963,-528.5 135.1152,-528.5"/>
<text text-anchor="start" x="143.1152" y="-544.5" font-family="Helvetica,sans-Serif" font-size="10.00" fill="#000000">Flow Rule Conflict</text>
<text text-anchor="middle" x="183.4058" y="-534.5" font-family="Helvetica,sans-Serif" font-size="10.00" fill="#000000"> Detection</text>
</a>
</g>
</g>
<!-- Node12 -->
<g id="node3" class="node">
<title>Node12</title>
<g id="a_node3"><a xlink:href="group__ofp__veri.html" target="_top" xlink:title="(Security) OpenFlow 1.0 message verification ">
<polygon fill="#ffffff" stroke="#000000" points="122.6006,-481.5 122.6006,-509.5 244.2109,-509.5 244.2109,-481.5 122.6006,-481.5"/>
<text text-anchor="start" x="130.6006" y="-497.5" font-family="Helvetica,sans-Serif" font-size="10.00" fill="#000000">OpenFlow 1.0 Message</text>
<text text-anchor="middle" x="183.4058" y="-487.5" font-family="Helvetica,sans-Serif" font-size="10.00" fill="#000000"> Verification</text>
</a>
</g>
</g>
<!-- Node7 -->
<g id="node4" class="node">
<title>Node7</title>
<g id="a_node4"><a xlink:href="group__dit.html" target="_top" xlink:title="(Security) control message integrity ">
<polygon fill="#ffffff" stroke="#000000" points="118.4355,-444.5 118.4355,-462.5 248.376,-462.5 248.376,-444.5 118.4355,-444.5"/>
<text text-anchor="middle" x="183.4058" y="-450.5" font-family="Helvetica,sans-Serif" font-size="10.00" fill="#000000">Control Message Integrity</text>
</a>
</g>
</g>
<!-- Node10 -->
<g id="node5" class="node">
<title>Node10</title>
<g id="a_node5"><a xlink:href="group__log.html" target="_top" xlink:title="(Base) log management ">
<polygon fill="#ffffff" stroke="#000000" points="136.4897,-407.5 136.4897,-425.5 230.3218,-425.5 230.3218,-407.5 136.4897,-407.5"/>
<text text-anchor="middle" x="183.4058" y="-413.5" font-family="Helvetica,sans-Serif" font-size="10.00" fill="#000000">Log Management</text>
</a>
</g>
</g>
<!-- Node3 -->
<g id="node6" class="node">
<title>Node3</title>
<g id="a_node6"><a xlink:href="group__channel__mgmt.html" target="_top" xlink:title="(Management) control channel management ">
<polygon fill="#ffffff" stroke="#000000" points="108.6992,-370.5 108.6992,-388.5 258.1123,-388.5 258.1123,-370.5 108.6992,-370.5"/>
<text text-anchor="middle" x="183.4058" y="-376.5" font-family="Helvetica,sans-Serif" font-size="10.00" fill="#000000">Control Channel Management</text>
</a>
</g>
</g>
<!-- Node13 -->
<g id="node7" class="node">
<title>Node13</title>
<g id="a_node7"><a xlink:href="group__resource__mgmt.html" target="_top" xlink:title="(Management) resource management ">
<polygon fill="#ffffff" stroke="#000000" points="123.4331,-333.5 123.4331,-351.5 243.3784,-351.5 243.3784,-333.5 123.4331,-333.5"/>
<text text-anchor="middle" x="183.4058" y="-339.5" font-family="Helvetica,sans-Serif" font-size="10.00" fill="#000000">Resource Management</text>
</a>
</g>
</g>
<!-- Node15 -->
<g id="node8" class="node">
<title>Node15</title>
<g id="a_node8"><a xlink:href="group__switch__mgmt.html" target="_top" xlink:title="(Management) switch management ">
<polygon fill="#ffffff" stroke="#000000" points="130.1055,-296.5 130.1055,-314.5 236.7061,-314.5 236.7061,-296.5 130.1055,-296.5"/>
<text text-anchor="middle" x="183.4058" y="-302.5" font-family="Helvetica,sans-Serif" font-size="10.00" fill="#000000">Switch Management</text>
</a>
</g>
</g>
<!-- Node0 -->
<g id="node9" class="node">
<title>Node0</title>
<polygon fill="#bfbfbf" stroke="#000000" points="0,-277.5 0,-295.5 72.6992,-295.5 72.6992,-277.5 0,-277.5"/>
<text text-anchor="middle" x="36.3496" y="-283.5" font-family="Helvetica,sans-Serif" font-size="10.00" fill="#000000">Components</text>
</g>
<!-- Node0&#45;&gt;Node4 -->
<g id="edge4" class="edge">
<title>Node0&#45;&gt;Node4</title>
<path fill="none" stroke="#000000" d="M38.7736,-305.9981C46.2821,-363.2805 70.9442,-529.3601 108.6992,-566.5 122.0142,-579.5981 143.1086,-583.7534 159.4915,-584.8299"/>
<polygon fill="#000000" stroke="#000000" points="42.2079,-305.2609 37.4673,-295.7858 35.2645,-306.1491 42.2079,-305.2609"/>
</g>
<!-- Node0&#45;&gt;Node5 -->
<g id="edge5" class="edge">
<title>Node0&#45;&gt;Node5</title>
<path fill="none" stroke="#000000" d="M39.8958,-305.5426C49.5535,-355.4926 77.6846,-488.5601 108.6992,-519.5 115.9048,-526.6882 125.3005,-531.6387 134.9845,-535.0457"/>
<polygon fill="#000000" stroke="#000000" points="43.3339,-304.8866 38.0283,-295.7159 36.457,-306.1935 43.3339,-304.8866"/>
</g>
<!-- Node0&#45;&gt;Node12 -->
<g id="edge12" class="edge">
<title>Node0&#45;&gt;Node12</title>
<path fill="none" stroke="#000000" d="M38.3693,-305.9254C43.3211,-343.5622 59.4977,-426.7333 108.6992,-472.5 112.7732,-476.2895 117.4584,-479.4552 122.4546,-482.0996"/>
<polygon fill="#000000" stroke="#000000" points="41.8218,-305.3171 37.1688,-295.7987 34.8705,-306.1412 41.8218,-305.3171"/>
</g>
<!-- Node0&#45;&gt;Node7 -->
<g id="edge7" class="edge">
<title>Node0&#45;&gt;Node7</title>
<path fill="none" stroke="#000000" d="M40.0539,-305.3553C47.3355,-337.2396 66.6139,-401.634 108.6992,-435.5 113.2725,-439.1801 118.4806,-442.1269 123.9702,-444.4837"/>
<polygon fill="#000000" stroke="#000000" points="43.4689,-304.5871 37.961,-295.5365 36.6227,-306.0465 43.4689,-304.5871"/>
</g>
<!-- Node0&#45;&gt;Node10 -->
<g id="edge10" class="edge">
<title>Node0&#45;&gt;Node10</title>
<path fill="none" stroke="#000000" d="M43.2621,-305.2501C53.547,-330.4566 75.3244,-374.8321 108.6992,-398.5 116.861,-404.288 126.6526,-408.2295 136.4185,-410.9097"/>
<polygon fill="#000000" stroke="#000000" points="46.4478,-303.7855 39.5576,-295.7372 39.925,-306.3257 46.4478,-303.7855"/>
</g>
<!-- Node0&#45;&gt;Node3 -->
<g id="edge3" class="edge">
<title>Node0&#45;&gt;Node3</title>
<path fill="none" stroke="#000000" d="M48.4145,-303.8586C61.3366,-321.1134 83.4288,-347.0342 108.6992,-361.5 115.0672,-365.1453 122.1473,-368.0551 129.3395,-370.3772"/>
<polygon fill="#000000" stroke="#000000" points="51.2271,-301.7751 42.5248,-295.732 45.5592,-305.883 51.2271,-301.7751"/>
</g>
<!-- Node0&#45;&gt;Node13 -->
<g id="edge13" class="edge">
<title>Node0&#45;&gt;Node13</title>
<path fill="none" stroke="#000000" d="M59.9194,-300.7826C73.7394,-308.6669 91.7612,-318.1239 108.6992,-324.5 117.9386,-327.9781 128.0788,-330.9494 137.8269,-333.4163"/>
<polygon fill="#000000" stroke="#000000" points="61.4897,-297.6467 51.088,-295.6326 57.9634,-303.6936 61.4897,-297.6467"/>
</g>
<!-- Node0&#45;&gt;Node15 -->
<g id="edge15" class="edge">
<title>Node0&#45;&gt;Node15</title>
<path fill="none" stroke="#000000" d="M82.7668,-292.4972C97.7646,-294.435 114.5123,-296.5988 129.9755,-298.5967"/>
<polygon fill="#000000" stroke="#000000" points="83.0667,-289.0069 72.7006,-291.1966 82.1696,-295.9492 83.0667,-289.0069"/>
</g>
<!-- Node1 -->
<g id="node10" class="node">
<title>Node1</title>
<g id="a_node10"><a xlink:href="group__apphdlr.html" target="_top" xlink:title="(Base) application handler ">
<polygon fill="#ffffff" stroke="#000000" points="132.0464,-259.5 132.0464,-277.5 234.7651,-277.5 234.7651,-259.5 132.0464,-259.5"/>
<text text-anchor="middle" x="183.4058" y="-265.5" font-family="Helvetica,sans-Serif" font-size="10.00" fill="#000000">Application Handler</text>
</a>
</g>
</g>
<!-- Node0&#45;&gt;Node1 -->
<g id="edge1" class="edge">
<title>Node0&#45;&gt;Node1</title>
<path fill="none" stroke="#000000" d="M82.6773,-280.8294C98.3342,-278.9129 115.9065,-276.7621 131.9372,-274.7999"/>
<polygon fill="#000000" stroke="#000000" points="82.2012,-277.3614 72.7006,-282.0506 83.0518,-284.3096 82.2012,-277.3614"/>
</g>
<!-- Node8 -->
<g id="node11" class="node">
<title>Node8</title>
<g id="a_node11"><a xlink:href="group__flow__mgmt.html" target="_top" xlink:title="(Management) flow management ">
<polygon fill="#ffffff" stroke="#000000" points="134.2754,-222.5 134.2754,-240.5 232.5361,-240.5 232.5361,-222.5 134.2754,-222.5"/>
<text text-anchor="middle" x="183.4058" y="-228.5" font-family="Helvetica,sans-Serif" font-size="10.00" fill="#000000">Flow Management</text>
</a>
</g>
</g>
<!-- Node0&#45;&gt;Node8 -->
<g id="edge8" class="edge">
<title>Node0&#45;&gt;Node8</title>
<path fill="none" stroke="#000000" d="M60.8389,-272.6828C74.5878,-265.3456 92.2414,-256.6081 108.6992,-250.5 119.1129,-246.6351 130.6269,-243.2791 141.4331,-240.5083"/>
<polygon fill="#000000" stroke="#000000" points="59.1175,-269.6349 52.007,-277.4893 62.4636,-275.7833 59.1175,-269.6349"/>
</g>
<!-- Node9 -->
<g id="node12" class="node">
<title>Node9</title>
<g id="a_node12"><a xlink:href="group__host__mgmt.html" target="_top" xlink:title="(Management) host management ">
<polygon fill="#ffffff" stroke="#000000" points="134.5513,-185.5 134.5513,-203.5 232.2603,-203.5 232.2603,-185.5 134.5513,-185.5"/>
<text text-anchor="middle" x="183.4058" y="-191.5" font-family="Helvetica,sans-Serif" font-size="10.00" fill="#000000">Host Management</text>
</a>
</g>
</g>
<!-- Node0&#45;&gt;Node9 -->
<g id="edge9" class="edge">
<title>Node0&#45;&gt;Node9</title>
<path fill="none" stroke="#000000" d="M49.1247,-268.948C62.2294,-252.2165 84.1286,-227.5506 108.6992,-213.5 116.5991,-208.9825 125.5732,-205.5244 134.4934,-202.8815"/>
<polygon fill="#000000" stroke="#000000" points="46.0387,-267.2254 42.788,-277.3092 51.6175,-271.4535 46.0387,-267.2254"/>
</g>
<!-- Node2 -->
<g id="node13" class="node">
<title>Node2</title>
<g id="a_node13"><a xlink:href="group__cac.html" target="_top" xlink:title="(Security) component access control ">
<polygon fill="#ffffff" stroke="#000000" points="114.8174,-148.5 114.8174,-166.5 251.9941,-166.5 251.9941,-148.5 114.8174,-148.5"/>
<text text-anchor="middle" x="183.4058" y="-154.5" font-family="Helvetica,sans-Serif" font-size="10.00" fill="#000000">Component Access Control</text>
</a>
</g>
</g>
<!-- Node0&#45;&gt;Node2 -->
<g id="edge2" class="edge">
<title>Node0&#45;&gt;Node2</title>
<path fill="none" stroke="#000000" d="M43.3974,-268.1414C53.8383,-243.4504 75.7949,-199.9425 108.6992,-176.5 114.476,-172.3844 121.0628,-169.1585 127.8768,-166.6304"/>
<polygon fill="#000000" stroke="#000000" points="40.1342,-266.875 39.6294,-277.4578 46.6235,-269.4996 40.1342,-266.875"/>
</g>
<!-- Node16 -->
<g id="node14" class="node">
<title>Node16</title>
<g id="a_node14"><a xlink:href="group__topo__mgmt.html" target="_top" xlink:title="(Management) topology management ">
<polygon fill="#ffffff" stroke="#000000" points="124.8174,-111.5 124.8174,-129.5 241.9941,-129.5 241.9941,-111.5 124.8174,-111.5"/>
<text text-anchor="middle" x="183.4058" y="-117.5" font-family="Helvetica,sans-Serif" font-size="10.00" fill="#000000">Topology Management</text>
</a>
</g>
</g>
<!-- Node0&#45;&gt;Node16 -->
<g id="edge16" class="edge">
<title>Node0&#45;&gt;Node16</title>
<path fill="none" stroke="#000000" d="M40.384,-267.0832C48.0016,-235.4157 67.5707,-172.8434 108.6992,-139.5 113.7931,-135.3703 119.6739,-132.1255 125.8539,-129.578"/>
<polygon fill="#000000" stroke="#000000" points="36.8792,-266.7163 38.1005,-277.2405 43.7088,-268.2517 36.8792,-266.7163"/>
</g>
<!-- Node6 -->
<g id="node15" class="node">
<title>Node6</title>
<g id="a_node15"><a xlink:href="group__conn.html" target="_top" xlink:title="(Base) packet I/O engine ">
<polygon fill="#ffffff" stroke="#000000" points="135.1055,-74.5 135.1055,-92.5 231.7061,-92.5 231.7061,-74.5 135.1055,-74.5"/>
<text text-anchor="middle" x="183.4058" y="-80.5" font-family="Helvetica,sans-Serif" font-size="10.00" fill="#000000">Packet I/O Engine</text>
</a>
</g>
</g>
<!-- Node0&#45;&gt;Node6 -->
<g id="edge6" class="edge">
<title>Node0&#45;&gt;Node6</title>
<path fill="none" stroke="#000000" d="M38.2404,-267.0632C42.9665,-229.4456 58.7665,-146.5251 108.6992,-102.5 116.1275,-95.9506 125.5036,-91.5999 135.0807,-88.7242"/>
<polygon fill="#000000" stroke="#000000" points="34.7411,-266.8619 37.1037,-277.1899 41.6974,-267.6428 34.7411,-266.8619"/>
</g>
<!-- Node11 -->
<g id="node16" class="node">
<title>Node11</title>
<g id="a_node16"><a xlink:href="group__ofp10.html" target="_top" xlink:title="(Base) OpenFlow 1.0 engine ">
<polygon fill="#ffffff" stroke="#000000" points="127.3198,-37.5 127.3198,-55.5 239.4917,-55.5 239.4917,-37.5 127.3198,-37.5"/>
<text text-anchor="middle" x="183.4058" y="-43.5" font-family="Helvetica,sans-Serif" font-size="10.00" fill="#000000">OpenFlow 1.0 Engine</text>
</a>
</g>
</g>
<!-- Node0&#45;&gt;Node11 -->
<g id="edge11" class="edge">
<title>Node0&#45;&gt;Node11</title>
<path fill="none" stroke="#000000" d="M40.144,-267.4167C50.1165,-219.1135 78.3929,-93.8315 108.6992,-65.5 113.9784,-60.5648 120.3544,-56.8663 127.1297,-54.1023"/>
<polygon fill="#000000" stroke="#000000" points="36.6647,-266.9639 38.1069,-277.4601 43.525,-268.3555 36.6647,-266.9639"/>
</g>
<!-- Node14 -->
<g id="node17" class="node">
<title>Node14</title>
<g id="a_node17"><a xlink:href="group__stat__mgmt.html" target="_top" xlink:title="(Management) statistics management ">
<polygon fill="#ffffff" stroke="#000000" points="124.8271,-.5 124.8271,-18.5 241.9844,-18.5 241.9844,-.5 124.8271,-.5"/>
<text text-anchor="middle" x="183.4058" y="-6.5" font-family="Helvetica,sans-Serif" font-size="10.00" fill="#000000">Statistics Management</text>
</a>
</g>
</g>
<!-- Node0&#45;&gt;Node14 -->
<g id="edge14" class="edge">
<title>Node0&#45;&gt;Node14</title>
<path fill="none" stroke="#000000" d="M39.1808,-267.4949C47.5538,-213.7823 73.8102,-62.5495 108.6992,-28.5 113.2965,-24.0134 118.7961,-20.5413 124.6982,-17.861"/>
<polygon fill="#000000" stroke="#000000" points="35.7181,-266.9854 37.6688,-277.3991 42.6379,-268.0419 35.7181,-266.9854"/>
</g>
</g>
</svg>
