<?xml version="1.0" encoding="UTF-8" standalone="no"?>
<!DOCTYPE svg PUBLIC "-//W3C//DTD SVG 1.1//EN"
 "http://www.w3.org/Graphics/SVG/1.1/DTD/svg11.dtd">
<!-- Generated by graphviz version 2.40.1 (20161225.0304)
 -->
<!-- Title: External Application Handler Pages: 1 -->
<svg width="379pt" height="84pt"
 viewBox="0.00 0.00 379.25 84.00" xmlns="http://www.w3.org/2000/svg" xmlns:xlink="http://www.w3.org/1999/xlink">
<g id="graph0" class="graph" transform="scale(1 1) rotate(0) translate(4 80)">
<title>External Application Handler</title>
<polygon fill="#ffffff" stroke="transparent" points="-4,4 -4,-80 375.25,-80 375.25,4 -4,4"/>
<!-- Node1 -->
<g id="node1" class="node">
<title>Node1</title>
<g id="a_node1"><a xlink:href="group__framework.html" target="_top" xlink:title="Base Framework">
<polygon fill="#ffffff" stroke="#000000" points="0,-28.5 0,-46.5 91.5762,-46.5 91.5762,-28.5 0,-28.5"/>
<text text-anchor="middle" x="45.7881" y="-34.5" font-family="Helvetica,sans-Serif" font-size="10.00" fill="#000000">Base Framework</text>
</a>
</g>
</g>
<!-- Node0 -->
<g id="node4" class="node">
<title>Node0</title>
<polygon fill="#bfbfbf" stroke="#000000" points="127.5762,-23.5 127.5762,-51.5 231.4131,-51.5 231.4131,-23.5 127.5762,-23.5"/>
<text text-anchor="start" x="135.5762" y="-39.5" font-family="Helvetica,sans-Serif" font-size="10.00" fill="#000000">External Application</text>
<text text-anchor="middle" x="179.4946" y="-29.5" font-family="Helvetica,sans-Serif" font-size="10.00" fill="#000000"> Handler</text>
</g>
<!-- Node1&#45;&gt;Node0 -->
<g id="edge1" class="edge">
<title>Node1&#45;&gt;Node0</title>
<path fill="none" stroke="#000000" d="M101.9503,-37.5C110.3957,-37.5 119.0747,-37.5 127.4293,-37.5"/>
<polygon fill="#000000" stroke="#000000" points="101.8023,-34.0001 91.8023,-37.5 101.8023,-41.0001 101.8023,-34.0001"/>
</g>
<!-- Node3 -->
<g id="node2" class="node">
<title>Node3</title>
<g id="a_node2"><a xlink:href="group__app__load.html" target="_top" xlink:title="Functions to execute an external application. ">
<polygon fill="#ffffff" stroke="#000000" points="267.4131,-47.5 267.4131,-75.5 371.25,-75.5 371.25,-47.5 267.4131,-47.5"/>
<text text-anchor="start" x="275.4131" y="-63.5" font-family="Helvetica,sans-Serif" font-size="10.00" fill="#000000">External Application</text>
<text text-anchor="middle" x="319.3315" y="-53.5" font-family="Helvetica,sans-Serif" font-size="10.00" fill="#000000"> Loader</text>
</a>
</g>
</g>
<!-- Node2 -->
<g id="node3" class="node">
<title>Node2</title>
<g id="a_node3"><a xlink:href="group__app__event.html" target="_top" xlink:title="Functions to manage app events for external applications. ">
<polygon fill="#ffffff" stroke="#000000" points="268.8022,-.5 268.8022,-28.5 369.8608,-28.5 369.8608,-.5 268.8022,-.5"/>
<text text-anchor="start" x="276.8022" y="-16.5" font-family="Helvetica,sans-Serif" font-size="10.00" fill="#000000">External App Event</text>
<text text-anchor="middle" x="319.3315" y="-6.5" font-family="Helvetica,sans-Serif" font-size="10.00" fill="#000000"> Handler</text>
</a>
</g>
</g>
<!-- Node0&#45;&gt;Node3 -->
<g id="edge3" class="edge">
<title>Node0&#45;&gt;Node3</title>
<path fill="none" stroke="#000000" d="M241.5291,-48.1469C250.1068,-49.6191 258.8449,-51.1188 267.2179,-52.5558"/>
<polygon fill="#000000" stroke="#000000" points="242.0127,-44.6788 231.5647,-46.4367 240.8286,-51.5779 242.0127,-44.6788"/>
</g>
<!-- Node0&#45;&gt;Node2 -->
<g id="edge2" class="edge">
<title>Node0&#45;&gt;Node2</title>
<path fill="none" stroke="#000000" d="M241.641,-27.2783C250.6602,-25.7949 259.8542,-24.2827 268.6124,-22.8421"/>
<polygon fill="#000000" stroke="#000000" points="240.8641,-23.859 231.5647,-28.9356 242.0002,-30.7662 240.8641,-23.859"/>
</g>
</g>
</svg>
