<?xml version="1.0" encoding="UTF-8" standalone="no"?>
<!DOCTYPE svg PUBLIC "-//W3C//DTD SVG 1.1//EN"
 "http://www.w3.org/Graphics/SVG/1.1/DTD/svg11.dtd">
<!-- Generated by graphviz version 2.40.1 (20161225.0304)
 -->
<!-- Title: External Component Loader Pages: 1 -->
<svg width="258pt" height="37pt"
 viewBox="0.00 0.00 258.32 37.00" xmlns="http://www.w3.org/2000/svg" xmlns:xlink="http://www.w3.org/1999/xlink">
<g id="graph0" class="graph" transform="scale(1 1) rotate(0) translate(4 33)">
<title>External Component Loader</title>
<polygon fill="#ffffff" stroke="transparent" points="-4,4 -4,-33 254.3242,-33 254.3242,4 -4,4"/>
<!-- Node0 -->
<g id="node1" class="node">
<title>Node0</title>
<polygon fill="#bfbfbf" stroke="#000000" points="143.1621,-.5 143.1621,-28.5 250.3242,-28.5 250.3242,-.5 143.1621,-.5"/>
<text text-anchor="start" x="151.1621" y="-16.5" font-family="Helvetica,sans-Serif" font-size="10.00" fill="#000000">External Component</text>
<text text-anchor="middle" x="196.7432" y="-6.5" font-family="Helvetica,sans-Serif" font-size="10.00" fill="#000000"> Loader</text>
</g>
<!-- Node1 -->
<g id="node2" class="node">
<title>Node1</title>
<g id="a_node2"><a xlink:href="group__compnt__shim.html" target="_top" xlink:title="Functions to glue the Barista NOS and an external component. ">
<polygon fill="#ffffff" stroke="#000000" points="0,-.5 0,-28.5 107.1621,-28.5 107.1621,-.5 0,-.5"/>
<text text-anchor="start" x="8" y="-16.5" font-family="Helvetica,sans-Serif" font-size="10.00" fill="#000000">External Component</text>
<text text-anchor="middle" x="53.5811" y="-6.5" font-family="Helvetica,sans-Serif" font-size="10.00" fill="#000000"> Handler</text>
</a>
</g>
</g>
<!-- Node1&#45;&gt;Node0 -->
<g id="edge1" class="edge">
<title>Node1&#45;&gt;Node0</title>
<path fill="none" stroke="#000000" d="M117.4772,-14.5C125.9082,-14.5 134.483,-14.5 142.7265,-14.5"/>
<polygon fill="#000000" stroke="#000000" points="117.2967,-11.0001 107.2966,-14.5 117.2966,-18.0001 117.2967,-11.0001"/>
</g>
</g>
</svg>
