<?xml version="1.0" encoding="UTF-8" standalone="no"?>
<!DOCTYPE svg PUBLIC "-//W3C//DTD SVG 1.1//EN"
 "http://www.w3.org/Graphics/SVG/1.1/DTD/svg11.dtd">
<!-- Generated by graphviz version 2.40.1 (20161225.0304)
 -->
<!-- Title: Utilities Pages: 1 -->
<svg width="203pt" height="175pt"
 viewBox="0.00 0.00 202.70 175.00" xmlns="http://www.w3.org/2000/svg" xmlns:xlink="http://www.w3.org/1999/xlink">
<g id="graph0" class="graph" transform="scale(1 1) rotate(0) translate(4 171)">
<title>Utilities</title>
<polygon fill="#ffffff" stroke="transparent" points="-4,4 -4,-171 198.6992,-171 198.6992,4 -4,4"/>
<!-- Node5 -->
<g id="node1" class="node">
<title>Node5</title>
<g id="a_node1"><a xlink:href="group__str.html" target="_top" xlink:title="Functions to process configuration files. ">
<polygon fill="#ffffff" stroke="#000000" points="95.335,-148.5 95.335,-166.5 183.5908,-166.5 183.5908,-148.5 95.335,-148.5"/>
<text text-anchor="middle" x="139.4629" y="-154.5" font-family="Helvetica,sans-Serif" font-size="10.00" fill="#000000">String Functions</text>
</a>
</g>
</g>
<!-- Node0 -->
<g id="node2" class="node">
<title>Node0</title>
<polygon fill="#bfbfbf" stroke="#000000" points="0,-74.5 0,-92.5 48.2266,-92.5 48.2266,-74.5 0,-74.5"/>
<text text-anchor="middle" x="24.1133" y="-80.5" font-family="Helvetica,sans-Serif" font-size="10.00" fill="#000000">Utilities</text>
</g>
<!-- Node0&#45;&gt;Node5 -->
<g id="edge5" class="edge">
<title>Node0&#45;&gt;Node5</title>
<path fill="none" stroke="#000000" d="M38.6394,-100.5479C49.9566,-112.8849 66.6543,-129.1449 84.2266,-139.5 90.3092,-143.0844 97.1953,-146.0544 103.9907,-148.478"/>
<polygon fill="#000000" stroke="#000000" points="40.9763,-97.9083 31.7194,-92.7545 35.7419,-102.556 40.9763,-97.9083"/>
</g>
<!-- Node3 -->
<g id="node3" class="node">
<title>Node3</title>
<g id="a_node3"><a xlink:href="group__ip2int.html" target="_top" xlink:title="Functions to convert the forms of IP addresses. ">
<polygon fill="#ffffff" stroke="#000000" points="90.6133,-111.5 90.6133,-129.5 188.3125,-129.5 188.3125,-111.5 90.6133,-111.5"/>
<text text-anchor="middle" x="139.4629" y="-117.5" font-family="Helvetica,sans-Serif" font-size="10.00" fill="#000000">IP&#45;to&#45;Int Functions</text>
</a>
</g>
</g>
<!-- Node0&#45;&gt;Node3 -->
<g id="edge3" class="edge">
<title>Node0&#45;&gt;Node3</title>
<path fill="none" stroke="#000000" d="M57.8364,-94.3172C74.7995,-99.7583 95.124,-106.2777 111.2487,-111.4499"/>
<polygon fill="#000000" stroke="#000000" points="58.8855,-90.9781 48.2943,-91.2564 56.7474,-97.6436 58.8855,-90.9781"/>
</g>
<!-- Node1 -->
<g id="node4" class="node">
<title>Node1</title>
<g id="a_node4"><a xlink:href="group__base64.html" target="_top" xlink:title="Functions to encode binary data to an ASCII string and vice versa through Base64. ...">
<polygon fill="#ffffff" stroke="#000000" points="91.4385,-74.5 91.4385,-92.5 187.4873,-92.5 187.4873,-74.5 91.4385,-74.5"/>
<text text-anchor="middle" x="139.4629" y="-80.5" font-family="Helvetica,sans-Serif" font-size="10.00" fill="#000000">Base64 Functions</text>
</a>
</g>
</g>
<!-- Node0&#45;&gt;Node1 -->
<g id="edge1" class="edge">
<title>Node0&#45;&gt;Node1</title>
<path fill="none" stroke="#000000" d="M58.464,-83.5C68.6979,-83.5 80.1101,-83.5 91.0639,-83.5"/>
<polygon fill="#000000" stroke="#000000" points="58.2944,-80.0001 48.2943,-83.5 58.2943,-87.0001 58.2944,-80.0001"/>
</g>
<!-- Node4 -->
<g id="node5" class="node">
<title>Node4</title>
<g id="a_node5"><a xlink:href="group__mac2int.html" target="_top" xlink:title="Functions to convert the forms of MAC addresses. ">
<polygon fill="#ffffff" stroke="#000000" points="84.2266,-37.5 84.2266,-55.5 194.6992,-55.5 194.6992,-37.5 84.2266,-37.5"/>
<text text-anchor="middle" x="139.4629" y="-43.5" font-family="Helvetica,sans-Serif" font-size="10.00" fill="#000000">MAC&#45;to&#45;Int Functions</text>
</a>
</g>
</g>
<!-- Node0&#45;&gt;Node4 -->
<g id="edge4" class="edge">
<title>Node0&#45;&gt;Node4</title>
<path fill="none" stroke="#000000" d="M57.8364,-72.6828C74.7995,-67.2417 95.124,-60.7223 111.2487,-55.5501"/>
<polygon fill="#000000" stroke="#000000" points="56.7474,-69.3564 48.2943,-75.7436 58.8855,-76.0219 56.7474,-69.3564"/>
</g>
<!-- Node2 -->
<g id="node6" class="node">
<title>Node2</title>
<g id="a_node6"><a xlink:href="group__hash.html" target="_top" xlink:title="Function to get a hash value using Jenkins hash. ">
<polygon fill="#ffffff" stroke="#000000" points="99.2241,-.5 99.2241,-18.5 179.7017,-18.5 179.7017,-.5 99.2241,-.5"/>
<text text-anchor="middle" x="139.4629" y="-6.5" font-family="Helvetica,sans-Serif" font-size="10.00" fill="#000000">Hash Function</text>
</a>
</g>
</g>
<!-- Node0&#45;&gt;Node2 -->
<g id="edge2" class="edge">
<title>Node0&#45;&gt;Node2</title>
<path fill="none" stroke="#000000" d="M38.7462,-66.8517C50.1179,-54.7837 66.837,-38.8331 84.2266,-28.5 90.9395,-24.5111 98.6114,-21.2028 106.058,-18.5267"/>
<polygon fill="#000000" stroke="#000000" points="35.9472,-64.7263 31.7853,-74.4695 41.1147,-69.4483 35.9472,-64.7263"/>
</g>
</g>
</svg>
