<?xml version="1.0" encoding="UTF-8" standalone="no"?>
<!DOCTYPE svg PUBLIC "-//W3C//DTD SVG 1.1//EN"
 "http://www.w3.org/Graphics/SVG/1.1/DTD/svg11.dtd">
<!-- Generated by graphviz version 2.40.1 (20161225.0304)
 -->
<!-- Title: Component CLI Alternative Pages: 1 -->
<svg width="304pt" height="37pt"
 viewBox="0.00 0.00 304.46 37.00" xmlns="http://www.w3.org/2000/svg" xmlns:xlink="http://www.w3.org/1999/xlink">
<g id="graph0" class="graph" transform="scale(1 1) rotate(0) translate(4 33)">
<title>Component CLI Alternative</title>
<polygon fill="#ffffff" stroke="transparent" points="-4,4 -4,-33 300.4619,-33 300.4619,4 -4,4"/>
<!-- Node1 -->
<g id="node1" class="node">
<title>Node1</title>
<g id="a_node1"><a xlink:href="group__compnt__shim.html" target="_top" xlink:title="External Component\l Handler">
<polygon fill="#ffffff" stroke="#000000" points="0,-.5 0,-28.5 107.1621,-28.5 107.1621,-.5 0,-.5"/>
<text text-anchor="start" x="8" y="-16.5" font-family="Helvetica,sans-Serif" font-size="10.00" fill="#000000">External Component</text>
<text text-anchor="middle" x="53.5811" y="-6.5" font-family="Helvetica,sans-Serif" font-size="10.00" fill="#000000"> Handler</text>
</a>
</g>
</g>
<!-- Node0 -->
<g id="node2" class="node">
<title>Node0</title>
<polygon fill="#bfbfbf" stroke="#000000" points="160.9453,-5.5 160.9453,-23.5 296.4619,-23.5 296.4619,-5.5 160.9453,-5.5"/>
<text text-anchor="middle" x="228.7036" y="-11.5" font-family="Helvetica,sans-Serif" font-size="10.00" fill="#000000">Component CLI Alternative</text>
</g>
<!-- Node1&#45;&gt;Node0 -->
<g id="edge1" class="edge">
<title>Node1&#45;&gt;Node0</title>
<path fill="none" stroke="#000000" d="M117.5858,-14.5C131.6074,-14.5 146.4996,-14.5 160.6725,-14.5"/>
<polygon fill="#000000" stroke="#000000" points="117.5526,-11.0001 107.5525,-14.5 117.5525,-18.0001 117.5526,-11.0001"/>
</g>
<!-- Node0&#45;&gt;Node1 -->
<g id="edge2" class="edge">
<title>Node0&#45;&gt;Node1</title>
<path fill="none" stroke="#006400" stroke-dasharray="5,2" d="M184.4268,-5.4796C166.1101,-2.7612 144.6387,-.8788 125.1621,-2.5 119.3858,-2.9808 113.3741,-3.6763 107.3982,-4.4938"/>
<text text-anchor="middle" x="134.0537" y="-4.5" font-family="Helvetica,sans-Serif" font-size="10.00" fill="#000000">cli.h</text>
</g>
</g>
</svg>
