<?xml version="1.0" encoding="UTF-8" standalone="no"?>
<!DOCTYPE svg PUBLIC "-//W3C//DTD SVG 1.1//EN"
 "http://www.w3.org/Graphics/SVG/1.1/DTD/svg11.dtd">
<!-- Generated by graphviz version 2.40.1 (20161225.0304)
 -->
<!-- Title: External Application Handler Pages: 1 -->
<svg width="337pt" height="136pt"
 viewBox="0.00 0.00 336.73 136.07" xmlns="http://www.w3.org/2000/svg" xmlns:xlink="http://www.w3.org/1999/xlink">
<g id="graph0" class="graph" transform="scale(1 1) rotate(0) translate(4 132.0745)">
<title>External Application Handler</title>
<polygon fill="#ffffff" stroke="transparent" points="-4,4 -4,-132.0745 332.7275,-132.0745 332.7275,4 -4,4"/>
<!-- Node3 -->
<g id="node1" class="node">
<title>Node3</title>
<g id="a_node1"><a xlink:href="group__app__load.html" target="_top" xlink:title="Functions to execute an external application. ">
<polygon fill="#ffffff" stroke="#000000" points="210.4399,-93.5 210.4399,-121.5 314.2769,-121.5 314.2769,-93.5 210.4399,-93.5"/>
<text text-anchor="start" x="218.4399" y="-109.5" font-family="Helvetica,sans-Serif" font-size="10.00" fill="#000000">External Application</text>
<text text-anchor="middle" x="262.3584" y="-99.5" font-family="Helvetica,sans-Serif" font-size="10.00" fill="#000000"> Loader</text>
</a>
</g>
</g>
<!-- Node2 -->
<g id="node2" class="node">
<title>Node2</title>
<g id="a_node2"><a xlink:href="group__app__alt.html" target="_top" xlink:title="Functions to convert CLI messages to logging messages. ">
<polygon fill="#ffffff" stroke="#000000" points="195.9893,-50.5 195.9893,-68.5 328.7275,-68.5 328.7275,-50.5 195.9893,-50.5"/>
<text text-anchor="middle" x="262.3584" y="-56.5" font-family="Helvetica,sans-Serif" font-size="10.00" fill="#000000">Application CLI Alternative</text>
</a>
</g>
</g>
<!-- Node1 -->
<g id="node3" class="node">
<title>Node1</title>
<g id="a_node3"><a xlink:href="group__app__event.html" target="_top" xlink:title="Functions to manage app events for external applications. ">
<polygon fill="#ffffff" stroke="#000000" points="196.8242,-.5 196.8242,-18.5 327.8926,-18.5 327.8926,-.5 196.8242,-.5"/>
<text text-anchor="middle" x="262.3584" y="-6.5" font-family="Helvetica,sans-Serif" font-size="10.00" fill="#000000">Application Event Handler</text>
</a>
</g>
</g>
<!-- Node0 -->
<g id="node4" class="node">
<title>Node0</title>
<polygon fill="#bfbfbf" stroke="#000000" points="0,-53.5 0,-81.5 103.8369,-81.5 103.8369,-53.5 0,-53.5"/>
<text text-anchor="start" x="8" y="-69.5" font-family="Helvetica,sans-Serif" font-size="10.00" fill="#000000">External Application</text>
<text text-anchor="middle" x="51.9185" y="-59.5" font-family="Helvetica,sans-Serif" font-size="10.00" fill="#000000"> Handler</text>
</g>
<!-- Node0&#45;&gt;Node3 -->
<g id="edge3" class="edge">
<title>Node0&#45;&gt;Node3</title>
<path fill="none" stroke="#000000" d="M72.0941,-88.9536C85.001,-101.057 102.844,-115.0195 121.8369,-121.5 152.4653,-131.9506 188.8685,-127.9019 216.9481,-121.5277"/>
<polygon fill="#000000" stroke="#000000" points="74.3229,-86.2374 64.7294,-81.7412 69.4251,-91.2387 74.3229,-86.2374"/>
</g>
<!-- Node0&#45;&gt;Node3 -->
<g id="edge4" class="edge">
<title>Node0&#45;&gt;Node3</title>
<path fill="none" stroke="#006400" stroke-dasharray="5,2" d="M103.9373,-77.3876C136.3131,-83.5416 177.8083,-91.4289 210.2086,-97.5875"/>
<text text-anchor="middle" x="149.9131" y="-102.5" font-family="Helvetica,sans-Serif" font-size="10.00" fill="#000000">application.h</text>
<text text-anchor="middle" x="149.9131" y="-92.5" font-family="Helvetica,sans-Serif" font-size="10.00" fill="#000000">shim.h</text>
</g>
<!-- Node0&#45;&gt;Node2 -->
<g id="edge2" class="edge">
<title>Node0&#45;&gt;Node2</title>
<path fill="none" stroke="#000000" d="M113.951,-65.1418C139.6969,-64.1631 169.6168,-63.0256 195.819,-62.0295"/>
<polygon fill="#000000" stroke="#000000" points="113.7971,-61.645 103.9373,-65.5225 114.0631,-68.64 113.7971,-61.645"/>
</g>
<!-- Node0&#45;&gt;Node2 -->
<g id="edge5" class="edge">
<title>Node0&#45;&gt;Node2</title>
<path fill="none" stroke="#006400" stroke-dasharray="5,2" d="M96.6925,-53.4523C104.9746,-51.393 113.6078,-49.5982 121.8369,-48.5 151.7927,-44.5023 185.5495,-46.9218 212.4683,-50.4973"/>
<text text-anchor="middle" x="149.9131" y="-50.5" font-family="Helvetica,sans-Serif" font-size="10.00" fill="#000000">cli.h</text>
</g>
<!-- Node0&#45;&gt;Node1 -->
<g id="edge1" class="edge">
<title>Node0&#45;&gt;Node1</title>
<path fill="none" stroke="#000000" d="M96.4388,-49.9461C104.8113,-46.9303 113.5415,-43.9751 121.8369,-41.5 152.6463,-32.3074 187.9313,-24.2807 215.4362,-18.5656"/>
<polygon fill="#000000" stroke="#000000" points="94.9955,-46.7478 86.8221,-53.4891 97.4155,-53.3162 94.9955,-46.7478"/>
</g>
</g>
</svg>
