<?xml version="1.0" encoding="UTF-8" standalone="no"?>
<!DOCTYPE svg PUBLIC "-//W3C//DTD SVG 1.1//EN"
 "http://www.w3.org/Graphics/SVG/1.1/DTD/svg11.dtd">
<!-- Generated by graphviz version 2.40.1 (20161225.0304)
 -->
<!-- Title: Base Framework Pages: 1 -->
<svg width="281pt" height="397pt"
 viewBox="0.00 0.00 281.07 397.00" xmlns="http://www.w3.org/2000/svg" xmlns:xlink="http://www.w3.org/1999/xlink">
<g id="graph0" class="graph" transform="scale(1 1) rotate(0) translate(4 393)">
<title>Base Framework</title>
<polygon fill="#ffffff" stroke="transparent" points="-4,4 -4,-393 277.0732,-393 277.0732,4 -4,4"/>
<!-- Node6 -->
<g id="node1" class="node">
<title>Node6</title>
<g id="a_node1"><a xlink:href="group__ev__msg.html" target="_top" xlink:title="External Event Handler">
<polygon fill="#ffffff" stroke="#000000" points="140.9087,-370.5 140.9087,-388.5 259.7407,-388.5 259.7407,-370.5 140.9087,-370.5"/>
<text text-anchor="middle" x="200.3247" y="-376.5" font-family="Helvetica,sans-Serif" font-size="10.00" fill="#000000">External Event Handler</text>
</a>
</g>
</g>
<!-- Node3 -->
<g id="node2" class="node">
<title>Node3</title>
<g id="a_node2"><a xlink:href="group__av__msg.html" target="_top" xlink:title="External AppEvent Handler">
<polygon fill="#ffffff" stroke="#000000" points="132.2856,-333.5 132.2856,-351.5 268.3638,-351.5 268.3638,-333.5 132.2856,-333.5"/>
<text text-anchor="middle" x="200.3247" y="-339.5" font-family="Helvetica,sans-Serif" font-size="10.00" fill="#000000">External AppEvent Handler</text>
</a>
</g>
</g>
<!-- Node0 -->
<g id="node3" class="node">
<title>Node0</title>
<polygon fill="#bfbfbf" stroke="#000000" points="0,-185.5 0,-203.5 91.5762,-203.5 91.5762,-185.5 0,-185.5"/>
<text text-anchor="middle" x="45.7881" y="-191.5" font-family="Helvetica,sans-Serif" font-size="10.00" fill="#000000">Base Framework</text>
</g>
<!-- Node0&#45;&gt;Node6 -->
<g id="edge6" class="edge">
<title>Node0&#45;&gt;Node6</title>
<path fill="none" stroke="#000000" d="M49.6107,-213.6792C57.6124,-248.6447 79.5155,-322.717 127.5762,-361.5 132.1325,-365.1768 137.3349,-368.1172 142.8154,-370.4664"/>
<polygon fill="#000000" stroke="#000000" points="53.0094,-212.8361 47.4856,-203.7952 46.1658,-214.3075 53.0094,-212.8361"/>
</g>
<!-- Node0&#45;&gt;Node3 -->
<g id="edge3" class="edge">
<title>Node0&#45;&gt;Node3</title>
<path fill="none" stroke="#000000" d="M52.3601,-213.3681C63.3196,-241.9657 88.1023,-295.9667 127.5762,-324.5 132.6375,-328.1586 138.3585,-331.078 144.3137,-333.4068"/>
<polygon fill="#000000" stroke="#000000" points="55.5645,-211.9405 48.8347,-203.7576 48.9927,-214.3513 55.5645,-211.9405"/>
</g>
<!-- Node11 -->
<g id="node4" class="node">
<title>Node11</title>
<g id="a_node4"><a xlink:href="group__base.html" target="_top" xlink:title="Function to execute the Barista NOS. ">
<polygon fill="#ffffff" stroke="#000000" points="154.5366,-296.5 154.5366,-314.5 246.1128,-314.5 246.1128,-296.5 154.5366,-296.5"/>
<text text-anchor="middle" x="200.3247" y="-302.5" font-family="Helvetica,sans-Serif" font-size="10.00" fill="#000000">Base Framework</text>
</a>
</g>
</g>
<!-- Node0&#45;&gt;Node11 -->
<g id="edge11" class="edge">
<title>Node0&#45;&gt;Node11</title>
<path fill="none" stroke="#000000" d="M56.498,-212.1963C70.2677,-233.3938 96.1848,-268.4258 127.5762,-287.5 135.6931,-292.4321 145.0964,-296.0149 154.3923,-298.6171"/>
<polygon fill="#000000" stroke="#000000" points="59.338,-210.1377 51.0502,-203.5375 53.4131,-213.8655 59.338,-210.1377"/>
</g>
<!-- Node7 -->
<g id="node5" class="node">
<title>Node7</title>
<g id="a_node5"><a xlink:href="group__app__mgmt.html" target="_top" xlink:title="Functions to configure and manage applications. ">
<polygon fill="#ffffff" stroke="#000000" points="137.2905,-259.5 137.2905,-277.5 263.3589,-277.5 263.3589,-259.5 137.2905,-259.5"/>
<text text-anchor="middle" x="200.3247" y="-265.5" font-family="Helvetica,sans-Serif" font-size="10.00" fill="#000000">Application Management</text>
</a>
</g>
</g>
<!-- Node0&#45;&gt;Node7 -->
<g id="edge7" class="edge">
<title>Node0&#45;&gt;Node7</title>
<path fill="none" stroke="#000000" d="M64.6063,-210.3004C80.4712,-222.8763 104.2575,-240.0454 127.5762,-250.5 135.6493,-254.1195 144.5665,-257.0861 153.3097,-259.4914"/>
<polygon fill="#000000" stroke="#000000" points="66.6327,-207.4375 56.6607,-203.8582 62.2241,-212.8749 66.6327,-207.4375"/>
</g>
<!-- Node9 -->
<g id="node6" class="node">
<title>Node9</title>
<g id="a_node6"><a xlink:href="group__compnt__mgmt.html" target="_top" xlink:title="Functions to configure and manage components. ">
<polygon fill="#ffffff" stroke="#000000" points="135.9014,-222.5 135.9014,-240.5 264.748,-240.5 264.748,-222.5 135.9014,-222.5"/>
<text text-anchor="middle" x="200.3247" y="-228.5" font-family="Helvetica,sans-Serif" font-size="10.00" fill="#000000">Component Management</text>
</a>
</g>
</g>
<!-- Node0&#45;&gt;Node9 -->
<g id="edge9" class="edge">
<title>Node0&#45;&gt;Node9</title>
<path fill="none" stroke="#000000" d="M93.505,-205.9247C115.7404,-211.2484 141.8198,-217.4924 162.6436,-222.4782"/>
<polygon fill="#000000" stroke="#000000" points="94.1321,-202.4759 83.592,-203.5512 92.5022,-209.2835 94.1321,-202.4759"/>
</g>
<!-- Node10 -->
<g id="node7" class="node">
<title>Node10</title>
<g id="a_node7"><a xlink:href="group__context.html" target="_top" xlink:title="Function to maintain the context of the Barista NOS. ">
<polygon fill="#ffffff" stroke="#000000" points="144.5195,-185.5 144.5195,-203.5 256.1299,-203.5 256.1299,-185.5 144.5195,-185.5"/>
<text text-anchor="middle" x="200.3247" y="-191.5" font-family="Helvetica,sans-Serif" font-size="10.00" fill="#000000">Context Management</text>
</a>
</g>
</g>
<!-- Node0&#45;&gt;Node10 -->
<g id="edge10" class="edge">
<title>Node0&#45;&gt;Node10</title>
<path fill="none" stroke="#000000" d="M102.0733,-194.5C115.8805,-194.5 130.6549,-194.5 144.443,-194.5"/>
<polygon fill="#000000" stroke="#000000" points="101.7358,-191.0001 91.7358,-194.5 101.7357,-198.0001 101.7358,-191.0001"/>
</g>
<!-- Node2 -->
<g id="node8" class="node">
<title>Node2</title>
<g id="a_node8"><a xlink:href="group__av__json.html" target="_top" xlink:title="AppEvent&#45;to&#45;JSON convertor">
<polygon fill="#ffffff" stroke="#000000" points="127.5762,-148.5 127.5762,-166.5 273.0732,-166.5 273.0732,-148.5 127.5762,-148.5"/>
<text text-anchor="middle" x="200.3247" y="-154.5" font-family="Helvetica,sans-Serif" font-size="10.00" fill="#000000">AppEvent&#45;to&#45;JSON convertor</text>
</a>
</g>
</g>
<!-- Node0&#45;&gt;Node2 -->
<g id="edge2" class="edge">
<title>Node0&#45;&gt;Node2</title>
<path fill="none" stroke="#000000" d="M93.505,-183.0753C115.7404,-177.7516 141.8198,-171.5076 162.6436,-166.5218"/>
<polygon fill="#000000" stroke="#000000" points="92.5022,-179.7165 83.592,-185.4488 94.1321,-186.5241 92.5022,-179.7165"/>
</g>
<!-- Node4 -->
<g id="node9" class="node">
<title>Node4</title>
<g id="a_node9"><a xlink:href="group__events.html" target="_top" xlink:title="Functions to manage events for components. ">
<polygon fill="#ffffff" stroke="#000000" points="160.6401,-111.5 160.6401,-129.5 240.0093,-129.5 240.0093,-111.5 160.6401,-111.5"/>
<text text-anchor="middle" x="200.3247" y="-117.5" font-family="Helvetica,sans-Serif" font-size="10.00" fill="#000000">Event Handler</text>
</a>
</g>
</g>
<!-- Node0&#45;&gt;Node4 -->
<g id="edge4" class="edge">
<title>Node0&#45;&gt;Node4</title>
<path fill="none" stroke="#000000" d="M64.6887,-179.077C80.602,-166.7816 104.4132,-149.948 127.5762,-139.5 137.9284,-134.8305 149.6464,-131.1404 160.6062,-128.3033"/>
<polygon fill="#000000" stroke="#000000" points="62.3954,-176.4282 56.7148,-185.3714 66.7326,-181.9226 62.3954,-176.4282"/>
</g>
<!-- Node5 -->
<g id="node10" class="node">
<title>Node5</title>
<g id="a_node10"><a xlink:href="group__ev__json.html" target="_top" xlink:title="Event&#45;to&#45;JSON convertor">
<polygon fill="#ffffff" stroke="#000000" points="136.4727,-74.5 136.4727,-92.5 264.1768,-92.5 264.1768,-74.5 136.4727,-74.5"/>
<text text-anchor="middle" x="200.3247" y="-80.5" font-family="Helvetica,sans-Serif" font-size="10.00" fill="#000000">Event&#45;to&#45;JSON convertor</text>
</a>
</g>
</g>
<!-- Node0&#45;&gt;Node5 -->
<g id="edge5" class="edge">
<title>Node0&#45;&gt;Node5</title>
<path fill="none" stroke="#000000" d="M56.7968,-176.7435C70.7059,-155.8117 96.6044,-121.4795 127.5762,-102.5 134.3655,-98.3395 142.0498,-95.083 149.8171,-92.5358"/>
<polygon fill="#000000" stroke="#000000" points="53.7485,-175.0126 51.2747,-185.3145 59.633,-178.8038 53.7485,-175.0126"/>
</g>
<!-- Node8 -->
<g id="node11" class="node">
<title>Node8</title>
<g id="a_node11"><a xlink:href="group__cli.html" target="_top" xlink:title="Functions to manage CLI commands. ">
<polygon fill="#ffffff" stroke="#000000" points="137.2979,-37.5 137.2979,-55.5 263.3516,-55.5 263.3516,-37.5 137.2979,-37.5"/>
<text text-anchor="middle" x="200.3247" y="-43.5" font-family="Helvetica,sans-Serif" font-size="10.00" fill="#000000">Command&#45;Line Interface</text>
</a>
</g>
</g>
<!-- Node0&#45;&gt;Node8 -->
<g id="edge8" class="edge">
<title>Node0&#45;&gt;Node8</title>
<path fill="none" stroke="#000000" d="M52.4466,-175.8379C63.521,-147.541 88.4538,-94.0609 127.5762,-65.5 133.2694,-61.3437 139.7977,-58.0955 146.5555,-55.5571"/>
<polygon fill="#000000" stroke="#000000" points="49.1154,-174.7532 48.8801,-185.3455 55.6694,-177.2119 49.1154,-174.7532"/>
</g>
<!-- Node1 -->
<g id="node12" class="node">
<title>Node1</title>
<g id="a_node12"><a xlink:href="group__app__events.html" target="_top" xlink:title="Functions to manage app events for applications. ">
<polygon fill="#ffffff" stroke="#000000" points="134.7905,-.5 134.7905,-18.5 265.8589,-18.5 265.8589,-.5 134.7905,-.5"/>
<text text-anchor="middle" x="200.3247" y="-6.5" font-family="Helvetica,sans-Serif" font-size="10.00" fill="#000000">Application Event Handler</text>
</a>
</g>
</g>
<!-- Node0&#45;&gt;Node1 -->
<g id="edge1" class="edge">
<title>Node0&#45;&gt;Node1</title>
<path fill="none" stroke="#000000" d="M49.6942,-175.4925C57.8327,-140.8293 79.9514,-67.3471 127.5762,-28.5 132.6338,-24.3745 138.4909,-21.1358 144.6423,-18.5947"/>
<polygon fill="#000000" stroke="#000000" points="46.2695,-174.7698 47.5284,-185.2896 53.1045,-176.2808 46.2695,-174.7698"/>
</g>
</g>
</svg>
