<?xml version="1.0" encoding="UTF-8" standalone="no"?>
<!DOCTYPE svg PUBLIC "-//W3C//DTD SVG 1.1//EN"
 "http://www.w3.org/Graphics/SVG/1.1/DTD/svg11.dtd">
<!-- Generated by graphviz version 2.40.1 (20161225.0304)
 -->
<!-- Title: Application Management Pages: 1 -->
<svg width="318pt" height="31pt"
 viewBox="0.00 0.00 317.80 31.12" xmlns="http://www.w3.org/2000/svg" xmlns:xlink="http://www.w3.org/1999/xlink">
<g id="graph0" class="graph" transform="scale(1 1) rotate(0) translate(4 27.1167)">
<title>Application Management</title>
<polygon fill="#ffffff" stroke="transparent" points="-4,4 -4,-27.1167 313.7969,-27.1167 313.7969,4 -4,4"/>
<!-- Node1 -->
<g id="node1" class="node">
<title>Node1</title>
<g id="a_node1"><a xlink:href="group__framework.html" target="_top" xlink:title="Base Framework">
<polygon fill="#ffffff" stroke="#000000" points="0,-4.6167 0,-22.6167 91.5762,-22.6167 91.5762,-4.6167 0,-4.6167"/>
<text text-anchor="middle" x="45.7881" y="-10.6167" font-family="Helvetica,sans-Serif" font-size="10.00" fill="#000000">Base Framework</text>
</a>
</g>
</g>
<!-- Node0 -->
<g id="node2" class="node">
<title>Node0</title>
<polygon fill="#bfbfbf" stroke="#000000" points="183.7285,-4.6167 183.7285,-22.6167 309.7969,-22.6167 309.7969,-4.6167 183.7285,-4.6167"/>
<text text-anchor="middle" x="246.7627" y="-10.6167" font-family="Helvetica,sans-Serif" font-size="10.00" fill="#000000">Application Management</text>
</g>
<!-- Node1&#45;&gt;Node0 -->
<g id="edge1" class="edge">
<title>Node1&#45;&gt;Node0</title>
<path fill="none" stroke="#000000" d="M101.8496,-13.6167C127.2491,-13.6167 157.3899,-13.6167 183.5873,-13.6167"/>
<polygon fill="#000000" stroke="#000000" points="101.6438,-10.1168 91.6438,-13.6167 101.6438,-17.1168 101.6438,-10.1168"/>
</g>
<!-- Node0&#45;&gt;Node1 -->
<g id="edge2" class="edge">
<title>Node0&#45;&gt;Node1</title>
<path fill="none" stroke="#006400" stroke-dasharray="5,2" d="M193.2721,-4.5613C184.1093,-3.3356 174.6641,-2.2747 165.7285,-1.6167 140.8393,.2162 134.425,.7003 109.5762,-1.6167 102.5076,-2.2758 95.055,-3.3373 87.8354,-4.5631"/>
<text text-anchor="middle" x="137.6523" y="-3.6167" font-family="Helvetica,sans-Serif" font-size="10.00" fill="#000000">application.h</text>
</g>
</g>
</svg>
