<?xml version="1.0" encoding="UTF-8" standalone="no"?>
<!DOCTYPE svg PUBLIC "-//W3C//DTD SVG 1.1//EN"
 "http://www.w3.org/Graphics/SVG/1.1/DTD/svg11.dtd">
<!-- Generated by graphviz version 2.40.1 (20161225.0304)
 -->
<!-- Title: External AppEvent Handler Pages: 1 -->
<svg width="311pt" height="64pt"
 viewBox="0.00 0.00 311.15 64.00" xmlns="http://www.w3.org/2000/svg" xmlns:xlink="http://www.w3.org/1999/xlink">
<g id="graph0" class="graph" transform="scale(1 1) rotate(0) translate(4 60)">
<title>External AppEvent Handler</title>
<polygon fill="#ffffff" stroke="transparent" points="-4,4 -4,-60 307.1465,-60 307.1465,4 -4,4"/>
<!-- Node0 -->
<g id="node1" class="node">
<title>Node0</title>
<polygon fill="#bfbfbf" stroke="#000000" points="167.0684,-18.5 167.0684,-36.5 303.1465,-36.5 303.1465,-18.5 167.0684,-18.5"/>
<text text-anchor="middle" x="235.1074" y="-24.5" font-family="Helvetica,sans-Serif" font-size="10.00" fill="#000000">External AppEvent Handler</text>
</g>
<!-- Node1 -->
<g id="node2" class="node">
<title>Node1</title>
<g id="a_node2"><a xlink:href="group__framework.html" target="_top" xlink:title="Base Framework">
<polygon fill="#ffffff" stroke="#000000" points="19.7461,-37.5 19.7461,-55.5 111.3223,-55.5 111.3223,-37.5 19.7461,-37.5"/>
<text text-anchor="middle" x="65.5342" y="-43.5" font-family="Helvetica,sans-Serif" font-size="10.00" fill="#000000">Base Framework</text>
</a>
</g>
</g>
<!-- Node1&#45;&gt;Node0 -->
<g id="edge1" class="edge">
<title>Node1&#45;&gt;Node0</title>
<path fill="none" stroke="#000000" d="M121.7022,-40.2066C136.1631,-38.5863 151.8822,-36.825 166.8818,-35.1444"/>
<polygon fill="#000000" stroke="#000000" points="120.9712,-36.7665 111.4231,-41.3583 121.7507,-43.723 120.9712,-36.7665"/>
</g>
<!-- Node2 -->
<g id="node3" class="node">
<title>Node2</title>
<g id="a_node3"><a xlink:href="group__app__events.html" target="_top" xlink:title="Functions to manage app events for applications. ">
<polygon fill="#ffffff" stroke="#000000" points="0,-.5 0,-18.5 131.0684,-18.5 131.0684,-.5 0,-.5"/>
<text text-anchor="middle" x="65.5342" y="-6.5" font-family="Helvetica,sans-Serif" font-size="10.00" fill="#000000">Application Event Handler</text>
</a>
</g>
</g>
<!-- Node2&#45;&gt;Node0 -->
<g id="edge2" class="edge">
<title>Node2&#45;&gt;Node0</title>
<path fill="none" stroke="#000000" d="M141.1056,-17.5218C149.7009,-18.4342 158.4241,-19.3602 166.9162,-20.2616"/>
<polygon fill="#000000" stroke="#000000" points="141.4092,-14.0345 131.0956,-16.4593 140.6703,-20.9954 141.4092,-14.0345"/>
</g>
</g>
</svg>
