<?xml version="1.0" encoding="UTF-8" standalone="no"?>
<!DOCTYPE svg PUBLIC "-//W3C//DTD SVG 1.1//EN"
 "http://www.w3.org/Graphics/SVG/1.1/DTD/svg11.dtd">
<!-- Generated by graphviz version 2.40.1 (20161225.0304)
 -->
<!-- Title: Base Framework Pages: 1 -->
<svg width="373pt" height="479pt"
 viewBox="0.00 0.00 372.83 479.17" xmlns="http://www.w3.org/2000/svg" xmlns:xlink="http://www.w3.org/1999/xlink">
<g id="graph0" class="graph" transform="scale(1 1) rotate(0) translate(4 475.1703)">
<title>Base Framework</title>
<polygon fill="#ffffff" stroke="transparent" points="-4,4 -4,-475.1703 368.8311,-475.1703 368.8311,4 -4,4"/>
<!-- Node0 -->
<g id="node1" class="node">
<title>Node0</title>
<polygon fill="#bfbfbf" stroke="#000000" points="0,-264.2004 0,-282.2004 91.5762,-282.2004 91.5762,-264.2004 0,-264.2004"/>
<text text-anchor="middle" x="45.7881" y="-270.2004" font-family="Helvetica,sans-Serif" font-size="10.00" fill="#000000">Base Framework</text>
</g>
<!-- Node7 -->
<g id="node2" class="node">
<title>Node7</title>
<g id="a_node2"><a xlink:href="group__base.html" target="_top" xlink:title="Function to execute the Barista NOS. ">
<polygon fill="#ffffff" stroke="#000000" points="253.5088,-450.2004 253.5088,-468.2004 345.085,-468.2004 345.085,-450.2004 253.5088,-450.2004"/>
<text text-anchor="middle" x="299.2969" y="-456.2004" font-family="Helvetica,sans-Serif" font-size="10.00" fill="#000000">Base Framework</text>
</a>
</g>
</g>
<!-- Node0&#45;&gt;Node7 -->
<g id="edge7" class="edge">
<title>Node0&#45;&gt;Node7</title>
<path fill="none" stroke="#000000" d="M50.2433,-292.3093C60.0559,-332.6454 84.6498,-424.3305 109.5762,-443.2004 150.5574,-474.2243 211.7525,-473.4624 253.4842,-468.0828"/>
<polygon fill="#000000" stroke="#000000" points="53.6039,-291.3127 47.8796,-282.3973 46.7948,-292.9365 53.6039,-291.3127"/>
</g>
<!-- Node3 -->
<g id="node3" class="node">
<title>Node3</title>
<g id="a_node3"><a xlink:href="group__app__mgmt.html" target="_top" xlink:title="Functions to configure and manage applications. ">
<polygon fill="#ffffff" stroke="#000000" points="236.2627,-407.2004 236.2627,-425.2004 362.3311,-425.2004 362.3311,-407.2004 236.2627,-407.2004"/>
<text text-anchor="middle" x="299.2969" y="-413.2004" font-family="Helvetica,sans-Serif" font-size="10.00" fill="#000000">Application Management</text>
</a>
</g>
</g>
<!-- Node0&#45;&gt;Node3 -->
<g id="edge3" class="edge">
<title>Node0&#45;&gt;Node3</title>
<path fill="none" stroke="#000000" d="M47.5924,-292.3417C51.8342,-325.1562 65.6741,-391.3937 109.5762,-420.2004 159.7075,-453.0945 234.4493,-437.1956 273.4706,-425.2555"/>
<polygon fill="#000000" stroke="#000000" points="51.0527,-291.7919 46.4587,-282.2449 44.0964,-292.573 51.0527,-291.7919"/>
</g>
<!-- Node0&#45;&gt;Node3 -->
<g id="edge11" class="edge">
<title>Node0&#45;&gt;Node3</title>
<path fill="none" stroke="#006400" stroke-dasharray="5,2" d="M48.1869,-282.5094C54.3156,-304.2677 72.729,-358.5484 109.5762,-384.2004 129.6568,-398.1801 188.8858,-406.6392 235.8804,-411.318"/>
<text text-anchor="middle" x="162.6694" y="-410.2004" font-family="Helvetica,sans-Serif" font-size="10.00" fill="#000000">application.h</text>
</g>
<!-- Node5 -->
<g id="node4" class="node">
<title>Node5</title>
<g id="a_node4"><a xlink:href="group__compnt__mgmt.html" target="_top" xlink:title="Functions to configure and manage components. ">
<polygon fill="#ffffff" stroke="#000000" points="234.8735,-355.2004 234.8735,-373.2004 363.7202,-373.2004 363.7202,-355.2004 234.8735,-355.2004"/>
<text text-anchor="middle" x="299.2969" y="-361.2004" font-family="Helvetica,sans-Serif" font-size="10.00" fill="#000000">Component Management</text>
</a>
</g>
</g>
<!-- Node0&#45;&gt;Node5 -->
<g id="edge5" class="edge">
<title>Node0&#45;&gt;Node5</title>
<path fill="none" stroke="#000000" d="M52.9578,-291.8003C62.3399,-313.2155 81.0256,-347.3461 109.5762,-362.2004 157.6449,-387.2096 222.2747,-380.9039 262.3342,-373.2013"/>
<polygon fill="#000000" stroke="#000000" points="56.1483,-290.3565 49.0969,-282.449 49.6781,-293.0279 56.1483,-290.3565"/>
</g>
<!-- Node0&#45;&gt;Node5 -->
<g id="edge13" class="edge">
<title>Node0&#45;&gt;Node5</title>
<path fill="none" stroke="#006400" stroke-dasharray="5,2" d="M55.3103,-282.4576C67.0844,-293.377 88.1993,-311.2931 109.5762,-321.2004 133.8601,-332.455 200.8003,-346.2566 248.2674,-355.1371"/>
<text text-anchor="middle" x="162.6694" y="-350.2004" font-family="Helvetica,sans-Serif" font-size="10.00" fill="#000000">component.h</text>
</g>
<!-- Node6 -->
<g id="node5" class="node">
<title>Node6</title>
<g id="a_node5"><a xlink:href="group__context.html" target="_top" xlink:title="Function to maintain the context of the Barista NOS. ">
<polygon fill="#ffffff" stroke="#000000" points="243.4917,-287.2004 243.4917,-305.2004 355.1021,-305.2004 355.1021,-287.2004 243.4917,-287.2004"/>
<text text-anchor="middle" x="299.2969" y="-293.2004" font-family="Helvetica,sans-Serif" font-size="10.00" fill="#000000">Context Management</text>
</a>
</g>
</g>
<!-- Node0&#45;&gt;Node6 -->
<g id="edge6" class="edge">
<title>Node0&#45;&gt;Node6</title>
<path fill="none" stroke="#000000" d="M68.4953,-287.3563C80.2768,-293.8755 95.1846,-300.8886 109.5762,-304.2004 156.8031,-315.0685 212.349,-310.8174 251.0879,-305.2271"/>
<polygon fill="#000000" stroke="#000000" points="70.1945,-284.2958 59.7867,-282.314 66.687,-290.3537 70.1945,-284.2958"/>
</g>
<!-- Node0&#45;&gt;Node6 -->
<g id="edge10" class="edge">
<title>Node0&#45;&gt;Node6</title>
<path fill="none" stroke="#006400" stroke-dasharray="5,2" d="M91.7702,-270.7795C97.7588,-270.5401 103.8128,-270.3359 109.5762,-270.2004 156.7572,-269.0915 169.1048,-263.1071 215.7627,-270.2004 236.9355,-273.4193 260.126,-280.9797 276.6887,-287.1227"/>
<text text-anchor="middle" x="162.6694" y="-292.2004" font-family="Helvetica,sans-Serif" font-size="10.00" fill="#000000">context.h</text>
<text text-anchor="middle" x="162.6694" y="-282.2004" font-family="Helvetica,sans-Serif" font-size="10.00" fill="#000000">context.h</text>
<text text-anchor="middle" x="162.6694" y="-272.2004" font-family="Helvetica,sans-Serif" font-size="10.00" fill="#000000">context.h</text>
</g>
<!-- Node2 -->
<g id="node6" class="node">
<title>Node2</title>
<g id="a_node6"><a xlink:href="group__events.html" target="_top" xlink:title="Functions to manage events for components. ">
<polygon fill="#ffffff" stroke="#000000" points="259.6123,-199.2004 259.6123,-217.2004 338.9814,-217.2004 338.9814,-199.2004 259.6123,-199.2004"/>
<text text-anchor="middle" x="299.2969" y="-205.2004" font-family="Helvetica,sans-Serif" font-size="10.00" fill="#000000">Event Handler</text>
</a>
</g>
</g>
<!-- Node0&#45;&gt;Node2 -->
<g id="edge2" class="edge">
<title>Node0&#45;&gt;Node2</title>
<path fill="none" stroke="#000000" d="M90.8289,-261.6519C140.2957,-248.9685 218.7016,-228.8652 263.9392,-217.2662"/>
<polygon fill="#000000" stroke="#000000" points="89.8547,-258.2884 81.0374,-264.1624 91.5934,-265.069 89.8547,-258.2884"/>
</g>
<!-- Node0&#45;&gt;Node2 -->
<g id="edge9" class="edge">
<title>Node0&#45;&gt;Node2</title>
<path fill="none" stroke="#006400" stroke-dasharray="5,2" d="M48.5163,-264.0529C55.1202,-243.7751 74.0954,-195.3331 109.5762,-176.2004 167.7895,-144.8094 249.4461,-181.1189 283.4586,-199.183"/>
<text text-anchor="middle" x="162.6694" y="-218.2004" font-family="Helvetica,sans-Serif" font-size="10.00" fill="#000000">event.h</text>
<text text-anchor="middle" x="162.6694" y="-208.2004" font-family="Helvetica,sans-Serif" font-size="10.00" fill="#000000">event_json.h</text>
<text text-anchor="middle" x="162.6694" y="-198.2004" font-family="Helvetica,sans-Serif" font-size="10.00" fill="#000000">event_msg_pack.h</text>
<text text-anchor="middle" x="162.6694" y="-188.2004" font-family="Helvetica,sans-Serif" font-size="10.00" fill="#000000">event.h</text>
<text text-anchor="middle" x="162.6694" y="-178.2004" font-family="Helvetica,sans-Serif" font-size="10.00" fill="#000000">event_json.h</text>
</g>
<!-- Node4 -->
<g id="node7" class="node">
<title>Node4</title>
<g id="a_node7"><a xlink:href="group__cli.html" target="_top" xlink:title="Functions to manage CLI commands. ">
<polygon fill="#ffffff" stroke="#000000" points="236.27,-121.2004 236.27,-139.2004 362.3237,-139.2004 362.3237,-121.2004 236.27,-121.2004"/>
<text text-anchor="middle" x="299.2969" y="-127.2004" font-family="Helvetica,sans-Serif" font-size="10.00" fill="#000000">Command&#45;Line Interface</text>
</a>
</g>
</g>
<!-- Node0&#45;&gt;Node4 -->
<g id="edge4" class="edge">
<title>Node0&#45;&gt;Node4</title>
<path fill="none" stroke="#000000" d="M50.7544,-254.141C58.5955,-228.1357 76.4692,-182.1512 109.5762,-159.2004 129.6348,-145.2952 188.8669,-137.8078 235.8683,-133.9466"/>
<polygon fill="#000000" stroke="#000000" points="47.3374,-253.3631 47.993,-263.9376 54.0748,-255.2622 47.3374,-253.3631"/>
</g>
<!-- Node0&#45;&gt;Node4 -->
<g id="edge12" class="edge">
<title>Node0&#45;&gt;Node4</title>
<path fill="none" stroke="#006400" stroke-dasharray="5,2" d="M46.3468,-263.8606C48.564,-236.2128 59.2903,-154.6319 109.5762,-121.2004 160.9261,-87.0615 238.489,-107.5997 276.5699,-121.1511"/>
<text text-anchor="middle" x="162.6694" y="-123.2004" font-family="Helvetica,sans-Serif" font-size="10.00" fill="#000000">cli.h</text>
</g>
<!-- Node1 -->
<g id="node8" class="node">
<title>Node1</title>
<g id="a_node8"><a xlink:href="group__app__events.html" target="_top" xlink:title="Functions to manage app events for applications. ">
<polygon fill="#ffffff" stroke="#000000" points="233.7627,-43.2004 233.7627,-61.2004 364.8311,-61.2004 364.8311,-43.2004 233.7627,-43.2004"/>
<text text-anchor="middle" x="299.2969" y="-49.2004" font-family="Helvetica,sans-Serif" font-size="10.00" fill="#000000">Application Event Handler</text>
</a>
</g>
</g>
<!-- Node0&#45;&gt;Node1 -->
<g id="edge1" class="edge">
<title>Node0&#45;&gt;Node1</title>
<path fill="none" stroke="#000000" d="M47.0659,-253.729C50.5269,-217.4914 63.244,-139.6276 109.5762,-98.2004 115.1661,-93.2023 203.7208,-73.1256 257.8433,-61.2106"/>
<polygon fill="#000000" stroke="#000000" points="43.5583,-253.6822 46.2366,-263.9329 50.5353,-254.2493 43.5583,-253.6822"/>
</g>
<!-- Node0&#45;&gt;Node1 -->
<g id="edge8" class="edge">
<title>Node0&#45;&gt;Node1</title>
<path fill="none" stroke="#006400" stroke-dasharray="5,2" d="M46.6076,-263.9642C50.5502,-221.8669 69.0635,-48.8572 109.5762,-17.2004 163.2832,24.7665 251.4891,-22.104 285.4086,-43.0932"/>
<text text-anchor="middle" x="162.6694" y="-59.2004" font-family="Helvetica,sans-Serif" font-size="10.00" fill="#000000">app_event.h</text>
<text text-anchor="middle" x="162.6694" y="-49.2004" font-family="Helvetica,sans-Serif" font-size="10.00" fill="#000000">app_event_json.h</text>
<text text-anchor="middle" x="162.6694" y="-39.2004" font-family="Helvetica,sans-Serif" font-size="10.00" fill="#000000">app_event_msg_pack.h</text>
<text text-anchor="middle" x="162.6694" y="-29.2004" font-family="Helvetica,sans-Serif" font-size="10.00" fill="#000000">app_event.h</text>
<text text-anchor="middle" x="162.6694" y="-19.2004" font-family="Helvetica,sans-Serif" font-size="10.00" fill="#000000">app_event_json.h</text>
</g>
</g>
</svg>
