<?xml version="1.0" encoding="UTF-8" standalone="no"?>
<!DOCTYPE svg PUBLIC "-//W3C//DTD SVG 1.1//EN"
 "http://www.w3.org/Graphics/SVG/1.1/DTD/svg11.dtd">
<!-- Generated by graphviz version 2.40.1 (20161225.0304)
 -->
<!-- Title: Command&#45;Line Interface Pages: 1 -->
<svg width="279pt" height="30pt"
 viewBox="0.00 0.00 279.41 30.37" xmlns="http://www.w3.org/2000/svg" xmlns:xlink="http://www.w3.org/1999/xlink">
<g id="graph0" class="graph" transform="scale(1 1) rotate(0) translate(4 26.3744)">
<title>Command&#45;Line Interface</title>
<polygon fill="#ffffff" stroke="transparent" points="-4,4 -4,-26.3744 275.4131,-26.3744 275.4131,4 -4,4"/>
<!-- Node1 -->
<g id="node1" class="node">
<title>Node1</title>
<g id="a_node1"><a xlink:href="group__framework.html" target="_top" xlink:title="Base Framework">
<polygon fill="#ffffff" stroke="#000000" points="0,-3.8744 0,-21.8744 91.5762,-21.8744 91.5762,-3.8744 0,-3.8744"/>
<text text-anchor="middle" x="45.7881" y="-9.8744" font-family="Helvetica,sans-Serif" font-size="10.00" fill="#000000">Base Framework</text>
</a>
</g>
</g>
<!-- Node0 -->
<g id="node2" class="node">
<title>Node0</title>
<polygon fill="#bfbfbf" stroke="#000000" points="145.3594,-3.8744 145.3594,-21.8744 271.4131,-21.8744 271.4131,-3.8744 145.3594,-3.8744"/>
<text text-anchor="middle" x="208.3862" y="-9.8744" font-family="Helvetica,sans-Serif" font-size="10.00" fill="#000000">Command&#45;Line Interface</text>
</g>
<!-- Node1&#45;&gt;Node0 -->
<g id="edge1" class="edge">
<title>Node1&#45;&gt;Node0</title>
<path fill="none" stroke="#000000" d="M102.2835,-12.8744C116.1095,-12.8744 130.9938,-12.8744 145.1142,-12.8744"/>
<polygon fill="#000000" stroke="#000000" points="101.9473,-9.3745 91.9473,-12.8744 101.9472,-16.3745 101.9473,-9.3745"/>
</g>
<!-- Node0&#45;&gt;Node1 -->
<g id="edge2" class="edge">
<title>Node0&#45;&gt;Node1</title>
<path fill="none" stroke="#006400" stroke-dasharray="5,2" d="M166.6132,-3.8184C149.0277,-1.0415 128.3306,.8744 109.5762,-.8744 102.5076,-1.5335 95.055,-2.5949 87.8354,-3.8208"/>
<text text-anchor="middle" x="118.4678" y="-2.8744" font-family="Helvetica,sans-Serif" font-size="10.00" fill="#000000">cli.h</text>
</g>
</g>
</svg>
