<?xml version="1.0" encoding="UTF-8" standalone="no"?>
<!DOCTYPE svg PUBLIC "-//W3C//DTD SVG 1.1//EN"
 "http://www.w3.org/Graphics/SVG/1.1/DTD/svg11.dtd">
<!-- Generated by graphviz version 2.40.1 (20161225.0304)
 -->
<!-- Title: External Component Handler Pages: 1 -->
<svg width="344pt" height="130pt"
 viewBox="0.00 0.00 344.50 130.00" xmlns="http://www.w3.org/2000/svg" xmlns:xlink="http://www.w3.org/1999/xlink">
<g id="graph0" class="graph" transform="scale(1 1) rotate(0) translate(4 126)">
<title>External Component Handler</title>
<polygon fill="#ffffff" stroke="transparent" points="-4,4 -4,-126 340.4961,-126 340.4961,4 -4,4"/>
<!-- Node3 -->
<g id="node1" class="node">
<title>Node3</title>
<g id="a_node1"><a xlink:href="group__compnt__load.html" target="_top" xlink:title="Functions to execute an external component. ">
<polygon fill="#ffffff" stroke="#000000" points="215.1567,-93.5 215.1567,-121.5 322.3188,-121.5 322.3188,-93.5 215.1567,-93.5"/>
<text text-anchor="start" x="223.1567" y="-109.5" font-family="Helvetica,sans-Serif" font-size="10.00" fill="#000000">External Component</text>
<text text-anchor="middle" x="268.7378" y="-99.5" font-family="Helvetica,sans-Serif" font-size="10.00" fill="#000000"> Loader</text>
</a>
</g>
</g>
<!-- Node0 -->
<g id="node2" class="node">
<title>Node0</title>
<polygon fill="#bfbfbf" stroke="#000000" points="0,-38.5 0,-66.5 107.1621,-66.5 107.1621,-38.5 0,-38.5"/>
<text text-anchor="start" x="8" y="-54.5" font-family="Helvetica,sans-Serif" font-size="10.00" fill="#000000">External Component</text>
<text text-anchor="middle" x="53.5811" y="-44.5" font-family="Helvetica,sans-Serif" font-size="10.00" fill="#000000"> Handler</text>
</g>
<!-- Node0&#45;&gt;Node3 -->
<g id="edge3" class="edge">
<title>Node0&#45;&gt;Node3</title>
<path fill="none" stroke="#000000" d="M74.3463,-73.9143C87.6001,-86.0034 105.8707,-99.9647 125.1621,-106.5 153.729,-116.1776 187.3666,-116.9302 214.8996,-115.0328"/>
<polygon fill="#000000" stroke="#000000" points="76.4349,-71.0703 66.7779,-66.7121 71.6094,-76.1413 76.4349,-71.0703"/>
</g>
<!-- Node0&#45;&gt;Node3 -->
<g id="edge5" class="edge">
<title>Node0&#45;&gt;Node3</title>
<path fill="none" stroke="#006400" stroke-dasharray="5,2" d="M107.2587,-64.2388C130.598,-69.5248 158.2144,-76.0249 182.9795,-82.5 195.7329,-85.8345 209.4716,-89.7108 222.1354,-93.4015"/>
<text text-anchor="middle" x="154.0708" y="-94.5" font-family="Helvetica,sans-Serif" font-size="10.00" fill="#000000">component.h</text>
<text text-anchor="middle" x="154.0708" y="-84.5" font-family="Helvetica,sans-Serif" font-size="10.00" fill="#000000">shim.h</text>
</g>
<!-- Node2 -->
<g id="node3" class="node">
<title>Node2</title>
<g id="a_node3"><a xlink:href="group__compnt__event.html" target="_top" xlink:title="Functions to manage events for external components. ">
<polygon fill="#ffffff" stroke="#000000" points="201.8145,-43.5 201.8145,-61.5 335.6611,-61.5 335.6611,-43.5 201.8145,-43.5"/>
<text text-anchor="middle" x="268.7378" y="-49.5" font-family="Helvetica,sans-Serif" font-size="10.00" fill="#000000">Component Event Handler</text>
</a>
</g>
</g>
<!-- Node0&#45;&gt;Node2 -->
<g id="edge2" class="edge">
<title>Node0&#45;&gt;Node2</title>
<path fill="none" stroke="#000000" d="M117.6008,-52.5C144.0269,-52.5 174.6721,-52.5 201.432,-52.5"/>
<polygon fill="#000000" stroke="#000000" points="117.3192,-49.0001 107.3192,-52.5 117.3191,-56.0001 117.3192,-49.0001"/>
</g>
<!-- Node1 -->
<g id="node4" class="node">
<title>Node1</title>
<g id="a_node4"><a xlink:href="group__compnt__alt.html" target="_top" xlink:title="Functions to convert CLI messages to logging messages. ">
<polygon fill="#ffffff" stroke="#000000" points="200.9795,-.5 200.9795,-18.5 336.4961,-18.5 336.4961,-.5 200.9795,-.5"/>
<text text-anchor="middle" x="268.7378" y="-6.5" font-family="Helvetica,sans-Serif" font-size="10.00" fill="#000000">Component CLI Alternative</text>
</a>
</g>
</g>
<!-- Node0&#45;&gt;Node1 -->
<g id="edge1" class="edge">
<title>Node0&#45;&gt;Node1</title>
<path fill="none" stroke="#000000" d="M117.2243,-39.7806C151.4359,-32.9433 192.8055,-24.6754 223.6667,-18.5077"/>
<polygon fill="#000000" stroke="#000000" points="116.4393,-36.3682 107.3192,-41.7602 117.8112,-43.2325 116.4393,-36.3682"/>
</g>
<!-- Node0&#45;&gt;Node1 -->
<g id="edge4" class="edge">
<title>Node0&#45;&gt;Node1</title>
<path fill="none" stroke="#006400" stroke-dasharray="5,2" d="M72.8031,-38.3222C86.604,-29.034 106.0661,-17.6872 125.1621,-12.5 149.3423,-5.9318 176.6648,-4.0583 200.9359,-4.2057"/>
<text text-anchor="middle" x="154.0708" y="-14.5" font-family="Helvetica,sans-Serif" font-size="10.00" fill="#000000">cli.h</text>
</g>
</g>
</svg>
