<?xml version="1.0" encoding="UTF-8" standalone="no"?>
<!DOCTYPE svg PUBLIC "-//W3C//DTD SVG 1.1//EN"
 "http://www.w3.org/Graphics/SVG/1.1/DTD/svg11.dtd">
<!-- Generated by graphviz version 2.40.1 (20161225.0304)
 -->
<!-- Title: Applications Pages: 1 -->
<svg width="242pt" height="101pt"
 viewBox="0.00 0.00 241.66 101.00" xmlns="http://www.w3.org/2000/svg" xmlns:xlink="http://www.w3.org/1999/xlink">
<g id="graph0" class="graph" transform="scale(1 1) rotate(0) translate(4 97)">
<title>Applications</title>
<polygon fill="#ffffff" stroke="transparent" points="-4,4 -4,-97 237.6641,-97 237.6641,4 -4,4"/>
<!-- Node2 -->
<g id="node1" class="node">
<title>Node2</title>
<g id="a_node1"><a xlink:href="group__rbac.html" target="_top" xlink:title="(Security) role&#45;based authorization ">
<polygon fill="#ffffff" stroke="#000000" points="105.9209,-74.5 105.9209,-92.5 233.6641,-92.5 233.6641,-74.5 105.9209,-74.5"/>
<text text-anchor="middle" x="169.7925" y="-80.5" font-family="Helvetica,sans-Serif" font-size="10.00" fill="#000000">Role&#45;based Authorization</text>
</a>
</g>
</g>
<!-- Node1 -->
<g id="node2" class="node">
<title>Node1</title>
<g id="a_node2"><a xlink:href="group__l2__learning.html" target="_top" xlink:title="(Network) L2 learning ">
<polygon fill="#ffffff" stroke="#000000" points="135.3813,-37.5 135.3813,-55.5 204.2036,-55.5 204.2036,-37.5 135.3813,-37.5"/>
<text text-anchor="middle" x="169.7925" y="-43.5" font-family="Helvetica,sans-Serif" font-size="10.00" fill="#000000">L2 Learning</text>
</a>
</g>
</g>
<!-- Node3 -->
<g id="node3" class="node">
<title>Node3</title>
<g id="a_node3"><a xlink:href="group__appint.html" target="_top" xlink:title="(Base) application interface ">
<polygon fill="#ffffff" stroke="#000000" points="116.4873,-.5 116.4873,-18.5 223.0977,-18.5 223.0977,-.5 116.4873,-.5"/>
<text text-anchor="middle" x="169.7925" y="-6.5" font-family="Helvetica,sans-Serif" font-size="10.00" fill="#000000">Application Interface</text>
</a>
</g>
</g>
<!-- Node0 -->
<g id="node4" class="node">
<title>Node0</title>
<polygon fill="#bfbfbf" stroke="#000000" points="0,-37.5 0,-55.5 69.9209,-55.5 69.9209,-37.5 0,-37.5"/>
<text text-anchor="middle" x="34.9604" y="-43.5" font-family="Helvetica,sans-Serif" font-size="10.00" fill="#000000">Applications</text>
</g>
<!-- Node0&#45;&gt;Node2 -->
<g id="edge2" class="edge">
<title>Node0&#45;&gt;Node2</title>
<path fill="none" stroke="#000000" d="M77.6077,-58.2031C96.6992,-63.4421 118.8688,-69.5258 136.6821,-74.414"/>
<polygon fill="#000000" stroke="#000000" points="78.5138,-54.8224 67.9441,-55.5512 76.6613,-61.5728 78.5138,-54.8224"/>
</g>
<!-- Node0&#45;&gt;Node1 -->
<g id="edge1" class="edge">
<title>Node0&#45;&gt;Node1</title>
<path fill="none" stroke="#000000" d="M80.0525,-46.5C98.0964,-46.5 118.5454,-46.5 135.3611,-46.5"/>
<polygon fill="#000000" stroke="#000000" points="80.034,-43.0001 70.034,-46.5 80.034,-50.0001 80.034,-43.0001"/>
</g>
<!-- Node0&#45;&gt;Node3 -->
<g id="edge3" class="edge">
<title>Node0&#45;&gt;Node3</title>
<path fill="none" stroke="#000000" d="M77.6077,-34.7969C96.6992,-29.5579 118.8688,-23.4742 136.6821,-18.586"/>
<polygon fill="#000000" stroke="#000000" points="76.6613,-31.4272 67.9441,-37.4488 78.5138,-38.1776 76.6613,-31.4272"/>
</g>
</g>
</svg>
