<?xml version="1.0" encoding="UTF-8" standalone="no"?>
<!DOCTYPE svg PUBLIC "-//W3C//DTD SVG 1.1//EN"
 "http://www.w3.org/Graphics/SVG/1.1/DTD/svg11.dtd">
<!-- Generated by graphviz version 2.40.1 (20161225.0304)
 -->
<!-- Title: External Application Handler Pages: 1 -->
<svg width="408pt" height="111pt"
 viewBox="0.00 0.00 408.15 111.00" xmlns="http://www.w3.org/2000/svg" xmlns:xlink="http://www.w3.org/1999/xlink">
<g id="graph0" class="graph" transform="scale(1 1) rotate(0) translate(4 107)">
<title>External Application Handler</title>
<polygon fill="#ffffff" stroke="transparent" points="-4,4 -4,-107 404.1514,-107 404.1514,4 -4,4"/>
<!-- Node1 -->
<g id="node1" class="node">
<title>Node1</title>
<g id="a_node1"><a xlink:href="group__framework.html" target="_top" xlink:title="Base Framework">
<polygon fill="#ffffff" stroke="#000000" points="0,-37.5 0,-55.5 91.5762,-55.5 91.5762,-37.5 0,-37.5"/>
<text text-anchor="middle" x="45.7881" y="-43.5" font-family="Helvetica,sans-Serif" font-size="10.00" fill="#000000">Base Framework</text>
</a>
</g>
</g>
<!-- Node0 -->
<g id="node5" class="node">
<title>Node0</title>
<polygon fill="#bfbfbf" stroke="#000000" points="127.5762,-32.5 127.5762,-60.5 231.4131,-60.5 231.4131,-32.5 127.5762,-32.5"/>
<text text-anchor="start" x="135.5762" y="-48.5" font-family="Helvetica,sans-Serif" font-size="10.00" fill="#000000">External Application</text>
<text text-anchor="middle" x="179.4946" y="-38.5" font-family="Helvetica,sans-Serif" font-size="10.00" fill="#000000"> Handler</text>
</g>
<!-- Node1&#45;&gt;Node0 -->
<g id="edge1" class="edge">
<title>Node1&#45;&gt;Node0</title>
<path fill="none" stroke="#000000" d="M101.9503,-46.5C110.3957,-46.5 119.0747,-46.5 127.4293,-46.5"/>
<polygon fill="#000000" stroke="#000000" points="101.8023,-43.0001 91.8023,-46.5 101.8023,-50.0001 101.8023,-43.0001"/>
</g>
<!-- Node4 -->
<g id="node2" class="node">
<title>Node4</title>
<g id="a_node2"><a xlink:href="group__app__load.html" target="_top" xlink:title="Functions to execute an external application. ">
<polygon fill="#ffffff" stroke="#000000" points="281.8638,-74.5 281.8638,-102.5 385.7007,-102.5 385.7007,-74.5 281.8638,-74.5"/>
<text text-anchor="start" x="289.8638" y="-90.5" font-family="Helvetica,sans-Serif" font-size="10.00" fill="#000000">External Application</text>
<text text-anchor="middle" x="333.7822" y="-80.5" font-family="Helvetica,sans-Serif" font-size="10.00" fill="#000000"> Loader</text>
</a>
</g>
</g>
<!-- Node3 -->
<g id="node3" class="node">
<title>Node3</title>
<g id="a_node3"><a xlink:href="group__app__alt.html" target="_top" xlink:title="Functions to convert CLI messages to logging messages. ">
<polygon fill="#ffffff" stroke="#000000" points="267.4131,-37.5 267.4131,-55.5 400.1514,-55.5 400.1514,-37.5 267.4131,-37.5"/>
<text text-anchor="middle" x="333.7822" y="-43.5" font-family="Helvetica,sans-Serif" font-size="10.00" fill="#000000">Application CLI Alternative</text>
</a>
</g>
</g>
<!-- Node2 -->
<g id="node4" class="node">
<title>Node2</title>
<g id="a_node4"><a xlink:href="group__app__event.html" target="_top" xlink:title="Functions to manage app events for external applications. ">
<polygon fill="#ffffff" stroke="#000000" points="268.248,-.5 268.248,-18.5 399.3164,-18.5 399.3164,-.5 268.248,-.5"/>
<text text-anchor="middle" x="333.7822" y="-6.5" font-family="Helvetica,sans-Serif" font-size="10.00" fill="#000000">Application Event Handler</text>
</a>
</g>
</g>
<!-- Node0&#45;&gt;Node4 -->
<g id="edge4" class="edge">
<title>Node0&#45;&gt;Node4</title>
<path fill="none" stroke="#000000" d="M241.0619,-63.2598C254.668,-66.9636 268.9487,-70.8511 282.1142,-74.435"/>
<polygon fill="#000000" stroke="#000000" points="241.8676,-59.8518 231.2994,-60.6022 240.0289,-66.606 241.8676,-59.8518"/>
</g>
<!-- Node0&#45;&gt;Node3 -->
<g id="edge3" class="edge">
<title>Node0&#45;&gt;Node3</title>
<path fill="none" stroke="#000000" d="M241.8381,-46.5C250.2476,-46.5 258.901,-46.5 267.378,-46.5"/>
<polygon fill="#000000" stroke="#000000" points="241.7294,-43.0001 231.7294,-46.5 241.7293,-50.0001 241.7294,-43.0001"/>
</g>
<!-- Node0&#45;&gt;Node2 -->
<g id="edge2" class="edge">
<title>Node0&#45;&gt;Node2</title>
<path fill="none" stroke="#000000" d="M241.5672,-31.6142C260.0784,-27.175 279.7943,-22.4469 296.2242,-18.5069"/>
<polygon fill="#000000" stroke="#000000" points="240.6374,-28.2379 231.7294,-33.9735 242.2699,-35.0449 240.6374,-28.2379"/>
</g>
</g>
</svg>
