<?xml version="1.0" encoding="UTF-8" standalone="no"?>
<!DOCTYPE svg PUBLIC "-//W3C//DTD SVG 1.1//EN"
 "http://www.w3.org/Graphics/SVG/1.1/DTD/svg11.dtd">
<!-- Generated by graphviz version 2.40.1 (20161225.0304)
 -->
<!-- Title: Event Handler Pages: 1 -->
<svg width="299pt" height="74pt"
 viewBox="0.00 0.00 298.89 73.59" xmlns="http://www.w3.org/2000/svg" xmlns:xlink="http://www.w3.org/1999/xlink">
<g id="graph0" class="graph" transform="scale(1 1) rotate(0) translate(4 69.5909)">
<title>Event Handler</title>
<polygon fill="#ffffff" stroke="transparent" points="-4,4 -4,-69.5909 294.8857,-69.5909 294.8857,4 -4,4"/>
<!-- Node1 -->
<g id="node1" class="node">
<title>Node1</title>
<g id="a_node1"><a xlink:href="group__framework.html" target="_top" xlink:title="Base Framework">
<polygon fill="#ffffff" stroke="#000000" points="0,-33.2904 0,-51.2904 91.5762,-51.2904 91.5762,-33.2904 0,-33.2904"/>
<text text-anchor="middle" x="45.7881" y="-39.2904" font-family="Helvetica,sans-Serif" font-size="10.00" fill="#000000">Base Framework</text>
</a>
</g>
</g>
<!-- Node0 -->
<g id="node2" class="node">
<title>Node0</title>
<polygon fill="#bfbfbf" stroke="#000000" points="211.5166,-33.2904 211.5166,-51.2904 290.8857,-51.2904 290.8857,-33.2904 211.5166,-33.2904"/>
<text text-anchor="middle" x="251.2012" y="-39.2904" font-family="Helvetica,sans-Serif" font-size="10.00" fill="#000000">Event Handler</text>
</g>
<!-- Node1&#45;&gt;Node0 -->
<g id="edge1" class="edge">
<title>Node1&#45;&gt;Node0</title>
<path fill="none" stroke="#000000" d="M80.0773,-54.4826C89.5142,-57.2918 99.8356,-59.8706 109.5762,-61.2904 146.4929,-66.6716 156.6809,-67.2007 193.5166,-61.2904 205.5931,-59.3528 218.5692,-55.27 229.1501,-51.3839"/>
<polygon fill="#000000" stroke="#000000" points="80.8432,-51.0543 70.2536,-51.3878 78.7398,-57.7309 80.8432,-51.0543"/>
</g>
<!-- Node0&#45;&gt;Node1 -->
<g id="edge2" class="edge">
<title>Node0&#45;&gt;Node1</title>
<path fill="none" stroke="#006400" stroke-dasharray="5,2" d="M240.1492,-33.0215C229.1365,-24.4389 211.3408,-12.2749 193.5166,-7.2904 157.5882,2.7569 145.7148,1.9727 109.5762,-7.2904 90.2429,-12.246 70.4759,-24.4167 58.1751,-33.0088"/>
<text text-anchor="middle" x="151.5464" y="-49.2904" font-family="Helvetica,sans-Serif" font-size="10.00" fill="#000000">event.h</text>
<text text-anchor="middle" x="151.5464" y="-39.2904" font-family="Helvetica,sans-Serif" font-size="10.00" fill="#000000">event_json.h</text>
<text text-anchor="middle" x="151.5464" y="-29.2904" font-family="Helvetica,sans-Serif" font-size="10.00" fill="#000000">event_msg_pack.h</text>
<text text-anchor="middle" x="151.5464" y="-19.2904" font-family="Helvetica,sans-Serif" font-size="10.00" fill="#000000">event.h</text>
<text text-anchor="middle" x="151.5464" y="-9.2904" font-family="Helvetica,sans-Serif" font-size="10.00" fill="#000000">event_json.h</text>
</g>
</g>
</svg>
