<?xml version="1.0" encoding="UTF-8" standalone="no"?>
<!DOCTYPE svg PUBLIC "-//W3C//DTD SVG 1.1//EN"
 "http://www.w3.org/Graphics/SVG/1.1/DTD/svg11.dtd">
<!-- Generated by graphviz version 2.40.1 (20161225.0304)
 -->
<!-- Title: External Component Handler Pages: 1 -->
<svg width="287pt" height="111pt"
 viewBox="0.00 0.00 286.68 111.00" xmlns="http://www.w3.org/2000/svg" xmlns:xlink="http://www.w3.org/1999/xlink">
<g id="graph0" class="graph" transform="scale(1 1) rotate(0) translate(4 107)">
<title>External Component Handler</title>
<polygon fill="#ffffff" stroke="transparent" points="-4,4 -4,-107 282.6787,-107 282.6787,4 -4,4"/>
<!-- Node3 -->
<g id="node1" class="node">
<title>Node3</title>
<g id="a_node1"><a xlink:href="group__compnt__load.html" target="_top" xlink:title="Functions to execute an external component. ">
<polygon fill="#ffffff" stroke="#000000" points="157.3394,-74.5 157.3394,-102.5 264.5015,-102.5 264.5015,-74.5 157.3394,-74.5"/>
<text text-anchor="start" x="165.3394" y="-90.5" font-family="Helvetica,sans-Serif" font-size="10.00" fill="#000000">External Component</text>
<text text-anchor="middle" x="210.9204" y="-80.5" font-family="Helvetica,sans-Serif" font-size="10.00" fill="#000000"> Loader</text>
</a>
</g>
</g>
<!-- Node0 -->
<g id="node2" class="node">
<title>Node0</title>
<polygon fill="#bfbfbf" stroke="#000000" points="0,-32.5 0,-60.5 107.1621,-60.5 107.1621,-32.5 0,-32.5"/>
<text text-anchor="start" x="8" y="-48.5" font-family="Helvetica,sans-Serif" font-size="10.00" fill="#000000">External Component</text>
<text text-anchor="middle" x="53.5811" y="-38.5" font-family="Helvetica,sans-Serif" font-size="10.00" fill="#000000"> Handler</text>
</g>
<!-- Node0&#45;&gt;Node3 -->
<g id="edge3" class="edge">
<title>Node0&#45;&gt;Node3</title>
<path fill="none" stroke="#000000" d="M116.3661,-63.2598C130.2414,-66.9636 144.8045,-70.8511 158.2304,-74.435"/>
<polygon fill="#000000" stroke="#000000" points="116.9749,-59.7998 106.4105,-60.6022 115.1695,-66.563 116.9749,-59.7998"/>
</g>
<!-- Node2 -->
<g id="node3" class="node">
<title>Node2</title>
<g id="a_node3"><a xlink:href="group__compnt__event.html" target="_top" xlink:title="Functions to manage events for external components. ">
<polygon fill="#ffffff" stroke="#000000" points="143.9971,-37.5 143.9971,-55.5 277.8438,-55.5 277.8438,-37.5 143.9971,-37.5"/>
<text text-anchor="middle" x="210.9204" y="-43.5" font-family="Helvetica,sans-Serif" font-size="10.00" fill="#000000">Component Event Handler</text>
</a>
</g>
</g>
<!-- Node0&#45;&gt;Node2 -->
<g id="edge2" class="edge">
<title>Node0&#45;&gt;Node2</title>
<path fill="none" stroke="#000000" d="M117.3731,-46.5C126.0856,-46.5 135.0509,-46.5 143.82,-46.5"/>
<polygon fill="#000000" stroke="#000000" points="117.2883,-43.0001 107.2883,-46.5 117.2882,-50.0001 117.2883,-43.0001"/>
</g>
<!-- Node1 -->
<g id="node4" class="node">
<title>Node1</title>
<g id="a_node4"><a xlink:href="group__compnt__alt.html" target="_top" xlink:title="Functions to convert CLI messages to logging messages. ">
<polygon fill="#ffffff" stroke="#000000" points="143.1621,-.5 143.1621,-18.5 278.6787,-18.5 278.6787,-.5 143.1621,-.5"/>
<text text-anchor="middle" x="210.9204" y="-6.5" font-family="Helvetica,sans-Serif" font-size="10.00" fill="#000000">Component CLI Alternative</text>
</a>
</g>
</g>
<!-- Node0&#45;&gt;Node1 -->
<g id="edge1" class="edge">
<title>Node0&#45;&gt;Node1</title>
<path fill="none" stroke="#000000" d="M117.2182,-31.5351C135.8937,-27.1433 155.7433,-22.4755 172.3428,-18.5719"/>
<polygon fill="#000000" stroke="#000000" points="116.2215,-28.1739 107.2883,-33.8702 117.824,-34.988 116.2215,-28.1739"/>
</g>
</g>
</svg>
