<?xml version="1.0" encoding="UTF-8" standalone="no"?>
<!DOCTYPE svg PUBLIC "-//W3C//DTD SVG 1.1//EN"
 "http://www.w3.org/Graphics/SVG/1.1/DTD/svg11.dtd">
<!-- Generated by graphviz version 2.40.1 (20161225.0304)
 -->
<!-- Title: Application Event Handler Pages: 1 -->
<svg width="448pt" height="64pt"
 viewBox="0.00 0.00 448.14 64.00" xmlns="http://www.w3.org/2000/svg" xmlns:xlink="http://www.w3.org/1999/xlink">
<g id="graph0" class="graph" transform="scale(1 1) rotate(0) translate(4 60)">
<title>Application Event Handler</title>
<polygon fill="#ffffff" stroke="transparent" points="-4,4 -4,-60 444.1416,-60 444.1416,4 -4,4"/>
<!-- Node3 -->
<g id="node1" class="node">
<title>Node3</title>
<g id="a_node1"><a xlink:href="group__av__msg.html" target="_top" xlink:title="Functions to handle app events between the Barista NOS and external applications. ...">
<polygon fill="#ffffff" stroke="#000000" points="299.354,-37.5 299.354,-55.5 435.4321,-55.5 435.4321,-37.5 299.354,-37.5"/>
<text text-anchor="middle" x="367.3931" y="-43.5" font-family="Helvetica,sans-Serif" font-size="10.00" fill="#000000">External AppEvent Handler</text>
</a>
</g>
</g>
<!-- Node1 -->
<g id="node2" class="node">
<title>Node1</title>
<g id="a_node2"><a xlink:href="group__framework.html" target="_top" xlink:title="Base Framework">
<polygon fill="#ffffff" stroke="#000000" points="0,-18.5 0,-36.5 91.5762,-36.5 91.5762,-18.5 0,-18.5"/>
<text text-anchor="middle" x="45.7881" y="-24.5" font-family="Helvetica,sans-Serif" font-size="10.00" fill="#000000">Base Framework</text>
</a>
</g>
</g>
<!-- Node0 -->
<g id="node4" class="node">
<title>Node0</title>
<polygon fill="#bfbfbf" stroke="#000000" points="127.5762,-18.5 127.5762,-36.5 258.6445,-36.5 258.6445,-18.5 127.5762,-18.5"/>
<text text-anchor="middle" x="193.1104" y="-24.5" font-family="Helvetica,sans-Serif" font-size="10.00" fill="#000000">Application Event Handler</text>
</g>
<!-- Node1&#45;&gt;Node0 -->
<g id="edge1" class="edge">
<title>Node1&#45;&gt;Node0</title>
<path fill="none" stroke="#000000" d="M101.6357,-27.5C110.0273,-27.5 118.747,-27.5 127.3228,-27.5"/>
<polygon fill="#000000" stroke="#000000" points="101.5942,-24.0001 91.5942,-27.5 101.5942,-31.0001 101.5942,-24.0001"/>
</g>
<!-- Node2 -->
<g id="node3" class="node">
<title>Node2</title>
<g id="a_node3"><a xlink:href="group__av__json.html" target="_top" xlink:title="Functions to convert the forms of app events. ">
<polygon fill="#ffffff" stroke="#000000" points="294.6445,-.5 294.6445,-18.5 440.1416,-18.5 440.1416,-.5 294.6445,-.5"/>
<text text-anchor="middle" x="367.3931" y="-6.5" font-family="Helvetica,sans-Serif" font-size="10.00" fill="#000000">AppEvent&#45;to&#45;JSON converter</text>
</a>
</g>
</g>
<!-- Node0&#45;&gt;Node3 -->
<g id="edge3" class="edge">
<title>Node0&#45;&gt;Node3</title>
<path fill="none" stroke="#000000" d="M269.2528,-35.8009C279.1806,-36.8832 289.302,-37.9866 299.0902,-39.0537"/>
<polygon fill="#000000" stroke="#000000" points="269.3196,-32.2875 258.9992,-34.6831 268.5609,-39.2463 269.3196,-32.2875"/>
</g>
<!-- Node0&#45;&gt;Node2 -->
<g id="edge2" class="edge">
<title>Node0&#45;&gt;Node2</title>
<path fill="none" stroke="#000000" d="M269.1422,-19.6474C277.532,-18.7809 286.0614,-17.9 294.4125,-17.0375"/>
<polygon fill="#000000" stroke="#000000" points="268.5867,-16.1861 258.9992,-20.695 269.3059,-23.149 268.5867,-16.1861"/>
</g>
</g>
</svg>
