<?xml version="1.0" encoding="UTF-8" standalone="no"?>
<!DOCTYPE svg PUBLIC "-//W3C//DTD SVG 1.1//EN"
 "http://www.w3.org/Graphics/SVG/1.1/DTD/svg11.dtd">
<!-- Generated by graphviz version 2.40.1 (20161225.0304)
 -->
<!-- Title: Component Event Handler Pages: 1 -->
<svg width="519pt" height="150pt"
 viewBox="0.00 0.00 518.69 150.00" xmlns="http://www.w3.org/2000/svg" xmlns:xlink="http://www.w3.org/1999/xlink">
<g id="graph0" class="graph" transform="scale(1 1) rotate(0) translate(4 146)">
<title>Component Event Handler</title>
<polygon fill="#ffffff" stroke="transparent" points="-4,4 -4,-146 514.6924,-146 514.6924,4 -4,4"/>
<!-- Node3 -->
<g id="node1" class="node">
<title>Node3</title>
<g id="a_node1"><a xlink:href="group__ev__msg.html" target="_top" xlink:title="Functions to handle events between the Barista NOS and external components. ">
<polygon fill="#ffffff" stroke="#000000" points="383.2373,-123.5 383.2373,-141.5 502.0693,-141.5 502.0693,-123.5 383.2373,-123.5"/>
<text text-anchor="middle" x="442.6533" y="-129.5" font-family="Helvetica,sans-Serif" font-size="10.00" fill="#000000">External Event Handler</text>
</a>
</g>
</g>
<!-- Node2 -->
<g id="node2" class="node">
<title>Node2</title>
<g id="a_node2"><a xlink:href="group__av__msg.html" target="_top" xlink:title="Functions to handle app events between the Barista NOS and external applications. ...">
<polygon fill="#ffffff" stroke="#000000" points="374.6143,-80.5 374.6143,-98.5 510.6924,-98.5 510.6924,-80.5 374.6143,-80.5"/>
<text text-anchor="middle" x="442.6533" y="-86.5" font-family="Helvetica,sans-Serif" font-size="10.00" fill="#000000">External AppEvent Handler</text>
</a>
</g>
</g>
<!-- Node1 -->
<g id="node3" class="node">
<title>Node1</title>
<g id="a_node3"><a xlink:href="group__compnt__shim.html" target="_top" xlink:title="Functions to glue the Barista NOS and external components. ">
<polygon fill="#ffffff" stroke="#000000" points="0,-53.5 0,-81.5 107.1621,-81.5 107.1621,-53.5 0,-53.5"/>
<text text-anchor="start" x="8" y="-69.5" font-family="Helvetica,sans-Serif" font-size="10.00" fill="#000000">External Component</text>
<text text-anchor="middle" x="53.5811" y="-59.5" font-family="Helvetica,sans-Serif" font-size="10.00" fill="#000000"> Handler</text>
</a>
</g>
</g>
<!-- Node0 -->
<g id="node5" class="node">
<title>Node0</title>
<polygon fill="#bfbfbf" stroke="#000000" points="144.1621,-58.5 144.1621,-76.5 278.0088,-76.5 278.0088,-58.5 144.1621,-58.5"/>
<text text-anchor="middle" x="211.0854" y="-64.5" font-family="Helvetica,sans-Serif" font-size="10.00" fill="#000000">Component Event Handler</text>
</g>
<!-- Node1&#45;&gt;Node0 -->
<g id="edge1" class="edge">
<title>Node1&#45;&gt;Node0</title>
<path fill="none" stroke="#000000" d="M117.44,-67.5C126.1617,-67.5 135.1363,-67.5 143.9147,-67.5"/>
<polygon fill="#000000" stroke="#000000" points="117.3446,-64.0001 107.3446,-67.5 117.3446,-71.0001 117.3446,-64.0001"/>
</g>
<!-- Node4 -->
<g id="node4" class="node">
<title>Node4</title>
<g id="a_node4"><a xlink:href="group__app__event.html" target="_top" xlink:title="Functions to manage app events for external applications. ">
<polygon fill="#ffffff" stroke="#000000" points="377.1191,-37.5 377.1191,-55.5 508.1875,-55.5 508.1875,-37.5 377.1191,-37.5"/>
<text text-anchor="middle" x="442.6533" y="-43.5" font-family="Helvetica,sans-Serif" font-size="10.00" fill="#000000">Application Event Handler</text>
</a>
</g>
</g>
<!-- Node0&#45;&gt;Node3 -->
<g id="edge3" class="edge">
<title>Node0&#45;&gt;Node3</title>
<path fill="none" stroke="#ffa500" stroke-dasharray="5,2" d="M228.8643,-76.6351C245.7475,-84.9724 272.0394,-97.0913 296.0088,-104.5 324.1149,-113.1874 356.1244,-119.6754 383.0513,-124.2066"/>
<text text-anchor="middle" x="326.3115" y="-130.5" font-family="Helvetica,sans-Serif" font-size="10.00" fill="#000000">_json_header</text>
<text text-anchor="middle" x="326.3115" y="-120.5" font-family="Helvetica,sans-Serif" font-size="10.00" fill="#000000">_buffer_t</text>
</g>
<!-- Node0&#45;&gt;Node2 -->
<g id="edge2" class="edge">
<title>Node0&#45;&gt;Node2</title>
<path fill="none" stroke="#ffa500" stroke-dasharray="5,2" d="M278.0645,-73.8633C308.2526,-76.7313 343.8587,-80.1141 374.2178,-82.9983"/>
<text text-anchor="middle" x="326.3115" y="-92.5" font-family="Helvetica,sans-Serif" font-size="10.00" fill="#000000">_json_header</text>
<text text-anchor="middle" x="326.3115" y="-82.5" font-family="Helvetica,sans-Serif" font-size="10.00" fill="#000000">_buffer_t</text>
</g>
<!-- Node0&#45;&gt;Node4 -->
<g id="edge4" class="edge">
<title>Node0&#45;&gt;Node4</title>
<path fill="none" stroke="#ffa500" stroke-dasharray="5,2" d="M241.8446,-58.4966C257.8433,-54.264 277.8107,-49.6769 296.0088,-47.5 322.2995,-44.3551 351.431,-43.6004 376.7563,-43.8129"/>
<text text-anchor="middle" x="326.3115" y="-59.5" font-family="Helvetica,sans-Serif" font-size="10.00" fill="#000000">_json_header</text>
<text text-anchor="middle" x="326.3115" y="-49.5" font-family="Helvetica,sans-Serif" font-size="10.00" fill="#000000">_buffer_t</text>
</g>
<!-- Node5 -->
<g id="node6" class="node">
<title>Node5</title>
<g id="a_node6"><a xlink:href="group__conn.html" target="_top" xlink:title="(Base) packet I/O engine ">
<polygon fill="#ffffff" stroke="#000000" points="394.353,-.5 394.353,-18.5 490.9536,-18.5 490.9536,-.5 394.353,-.5"/>
<text text-anchor="middle" x="442.6533" y="-6.5" font-family="Helvetica,sans-Serif" font-size="10.00" fill="#000000">Packet I/O Engine</text>
</a>
</g>
</g>
<!-- Node0&#45;&gt;Node5 -->
<g id="edge5" class="edge">
<title>Node0&#45;&gt;Node5</title>
<path fill="none" stroke="#ffa500" stroke-dasharray="5,2" d="M228.1459,-58.4351C244.9446,-49.9061 271.5645,-37.4382 296.0088,-30.5 328.0491,-21.4058 365.199,-16.1386 394.0902,-13.1537"/>
<text text-anchor="middle" x="326.3115" y="-32.5" font-family="Helvetica,sans-Serif" font-size="10.00" fill="#000000">_buffer_t</text>
</g>
</g>
</svg>
