<?xml version="1.0" encoding="UTF-8" standalone="no"?>
<!DOCTYPE svg PUBLIC "-//W3C//DTD SVG 1.1//EN"
 "http://www.w3.org/Graphics/SVG/1.1/DTD/svg11.dtd">
<!-- Generated by graphviz version 2.40.1 (20161225.0304)
 -->
<!-- Title: Base Framework Pages: 1 -->
<svg width="267pt" height="417pt"
 viewBox="0.00 0.00 266.64 417.00" xmlns="http://www.w3.org/2000/svg" xmlns:xlink="http://www.w3.org/1999/xlink">
<g id="graph0" class="graph" transform="scale(1 1) rotate(0) translate(4 413)">
<title>Base Framework</title>
<polygon fill="#ffffff" stroke="transparent" points="-4,4 -4,-413 262.6445,-413 262.6445,4 -4,4"/>
<!-- Node0 -->
<g id="node1" class="node">
<title>Node0</title>
<polygon fill="#bfbfbf" stroke="#000000" points="0,-195.5 0,-213.5 91.5762,-213.5 91.5762,-195.5 0,-195.5"/>
<text text-anchor="middle" x="45.7881" y="-201.5" font-family="Helvetica,sans-Serif" font-size="10.00" fill="#000000">Base Framework</text>
</g>
<!-- Node10 -->
<g id="node2" class="node">
<title>Node10</title>
<g id="a_node2"><a xlink:href="group__storage.html" target="_top" xlink:title="Functions to maintain the context of the Barista NOS in a storage. ">
<polygon fill="#ffffff" stroke="#000000" points="137.0244,-390.5 137.0244,-408.5 249.1963,-408.5 249.1963,-390.5 137.0244,-390.5"/>
<text text-anchor="middle" x="193.1104" y="-396.5" font-family="Helvetica,sans-Serif" font-size="10.00" fill="#000000">Storage Management</text>
</a>
</g>
</g>
<!-- Node0&#45;&gt;Node10 -->
<g id="edge10" class="edge">
<title>Node0&#45;&gt;Node10</title>
<path fill="none" stroke="#000000" d="M49.1506,-223.6907C56.551,-260.0829 77.7253,-339.255 127.5762,-381.5 131.8968,-385.1615 136.9012,-388.0827 142.181,-390.4125"/>
<polygon fill="#000000" stroke="#000000" points="52.5873,-223.0277 47.2796,-213.8582 45.7107,-224.3363 52.5873,-223.0277"/>
</g>
<!-- Node9 -->
<g id="node3" class="node">
<title>Node9</title>
<g id="a_node3"><a xlink:href="group__base.html" target="_top" xlink:title="Function to execute the Barista NOS. ">
<polygon fill="#ffffff" stroke="#000000" points="147.3223,-353.5 147.3223,-371.5 238.8984,-371.5 238.8984,-353.5 147.3223,-353.5"/>
<text text-anchor="middle" x="193.1104" y="-359.5" font-family="Helvetica,sans-Serif" font-size="10.00" fill="#000000">Base Framework</text>
</a>
</g>
</g>
<!-- Node0&#45;&gt;Node9 -->
<g id="edge9" class="edge">
<title>Node0&#45;&gt;Node9</title>
<path fill="none" stroke="#000000" d="M51.6005,-223.3894C61.8913,-253.6304 86.2236,-312.7318 127.5762,-344.5 133.3772,-348.9565 140.2123,-352.3102 147.2403,-354.8339"/>
<polygon fill="#000000" stroke="#000000" points="54.8575,-222.0871 48.4389,-213.6579 48.2,-224.25 54.8575,-222.0871"/>
</g>
<!-- Node4 -->
<g id="node4" class="node">
<title>Node4</title>
<g id="a_node4"><a xlink:href="group__compnt__shim.html" target="_top" xlink:title="Functions to glue the Barista NOS and an external component. ">
<polygon fill="#ffffff" stroke="#000000" points="139.5293,-306.5 139.5293,-334.5 246.6914,-334.5 246.6914,-306.5 139.5293,-306.5"/>
<text text-anchor="start" x="147.5293" y="-322.5" font-family="Helvetica,sans-Serif" font-size="10.00" fill="#000000">External Component</text>
<text text-anchor="middle" x="193.1104" y="-312.5" font-family="Helvetica,sans-Serif" font-size="10.00" fill="#000000"> Handler</text>
</a>
</g>
</g>
<!-- Node0&#45;&gt;Node4 -->
<g id="edge4" class="edge">
<title>Node0&#45;&gt;Node4</title>
<path fill="none" stroke="#000000" d="M57.0258,-222.0251C71.1601,-242.7669 97.2802,-277.0615 127.5762,-297.5 132.674,-300.9392 138.3417,-303.9209 144.1497,-306.4909"/>
<polygon fill="#000000" stroke="#000000" points="59.8471,-219.9465 51.4031,-213.5472 54.0134,-223.8155 59.8471,-219.9465"/>
</g>
<!-- Node5 -->
<g id="node5" class="node">
<title>Node5</title>
<g id="a_node5"><a xlink:href="group__app__mgmt.html" target="_top" xlink:title="Functions to configure and manage applications. ">
<polygon fill="#ffffff" stroke="#000000" points="130.0762,-269.5 130.0762,-287.5 256.1445,-287.5 256.1445,-269.5 130.0762,-269.5"/>
<text text-anchor="middle" x="193.1104" y="-275.5" font-family="Helvetica,sans-Serif" font-size="10.00" fill="#000000">Application Management</text>
</a>
</g>
</g>
<!-- Node0&#45;&gt;Node5 -->
<g id="edge5" class="edge">
<title>Node0&#45;&gt;Node5</title>
<path fill="none" stroke="#000000" d="M64.6778,-220.1436C80.5847,-232.6273 104.3927,-249.749 127.5762,-260.5 135.1759,-264.0243 143.6011,-266.9782 151.8092,-269.4071"/>
<polygon fill="#000000" stroke="#000000" points="66.6995,-217.2785 56.7077,-213.7553 62.3215,-222.7406 66.6995,-217.2785"/>
</g>
<!-- Node11 -->
<g id="node6" class="node">
<title>Node11</title>
<g id="a_node6"><a xlink:href="group__database.html" target="_top" xlink:title="Functions to access a database. ">
<polygon fill="#ffffff" stroke="#000000" points="140.6401,-232.5 140.6401,-250.5 245.5806,-250.5 245.5806,-232.5 140.6401,-232.5"/>
<text text-anchor="middle" x="193.1104" y="-238.5" font-family="Helvetica,sans-Serif" font-size="10.00" fill="#000000">Database Functions</text>
</a>
</g>
</g>
<!-- Node0&#45;&gt;Node11 -->
<g id="edge11" class="edge">
<title>Node0&#45;&gt;Node11</title>
<path fill="none" stroke="#000000" d="M91.5641,-215.9967C112.6986,-221.3046 137.4261,-227.5149 157.1883,-232.4782"/>
<polygon fill="#000000" stroke="#000000" points="92.3785,-212.5926 81.8272,-213.5512 90.6734,-219.3817 92.3785,-212.5926"/>
</g>
<!-- Node7 -->
<g id="node7" class="node">
<title>Node7</title>
<g id="a_node7"><a xlink:href="group__compnt__mgmt.html" target="_top" xlink:title="Functions to configure and manage components. ">
<polygon fill="#ffffff" stroke="#000000" points="128.687,-195.5 128.687,-213.5 257.5337,-213.5 257.5337,-195.5 128.687,-195.5"/>
<text text-anchor="middle" x="193.1104" y="-201.5" font-family="Helvetica,sans-Serif" font-size="10.00" fill="#000000">Component Management</text>
</a>
</g>
</g>
<!-- Node0&#45;&gt;Node7 -->
<g id="edge7" class="edge">
<title>Node0&#45;&gt;Node7</title>
<path fill="none" stroke="#000000" d="M101.7307,-204.5C110.5336,-204.5 119.6955,-204.5 128.6718,-204.5"/>
<polygon fill="#000000" stroke="#000000" points="101.5942,-201.0001 91.5942,-204.5 101.5942,-208.0001 101.5942,-201.0001"/>
</g>
<!-- Node8 -->
<g id="node8" class="node">
<title>Node8</title>
<g id="a_node8"><a xlink:href="group__context.html" target="_top" xlink:title="Function to maintain the context of the Barista NOS. ">
<polygon fill="#ffffff" stroke="#000000" points="137.3052,-158.5 137.3052,-176.5 248.9155,-176.5 248.9155,-158.5 137.3052,-158.5"/>
<text text-anchor="middle" x="193.1104" y="-164.5" font-family="Helvetica,sans-Serif" font-size="10.00" fill="#000000">Context Management</text>
</a>
</g>
</g>
<!-- Node0&#45;&gt;Node8 -->
<g id="edge8" class="edge">
<title>Node0&#45;&gt;Node8</title>
<path fill="none" stroke="#000000" d="M91.5641,-193.0033C112.6986,-187.6954 137.4261,-181.4851 157.1883,-176.5218"/>
<polygon fill="#000000" stroke="#000000" points="90.6734,-189.6183 81.8272,-195.4488 92.3785,-196.4074 90.6734,-189.6183"/>
</g>
<!-- Node2 -->
<g id="node9" class="node">
<title>Node2</title>
<g id="a_node9"><a xlink:href="group__events.html" target="_top" xlink:title="Functions to manage events for components. ">
<polygon fill="#ffffff" stroke="#000000" points="153.4258,-121.5 153.4258,-139.5 232.7949,-139.5 232.7949,-121.5 153.4258,-121.5"/>
<text text-anchor="middle" x="193.1104" y="-127.5" font-family="Helvetica,sans-Serif" font-size="10.00" fill="#000000">Event Handler</text>
</a>
</g>
</g>
<!-- Node0&#45;&gt;Node2 -->
<g id="edge2" class="edge">
<title>Node0&#45;&gt;Node2</title>
<path fill="none" stroke="#000000" d="M64.7636,-189.2402C80.721,-177.0408 104.5549,-160.2565 127.5762,-149.5 136.0547,-145.5385 145.5412,-142.2126 154.6061,-139.5073"/>
<polygon fill="#000000" stroke="#000000" points="62.4973,-186.569 56.764,-195.4785 66.802,-192.089 62.4973,-186.569"/>
</g>
<!-- Node3 -->
<g id="node10" class="node">
<title>Node3</title>
<g id="a_node10"><a xlink:href="group__app__shim.html" target="_top" xlink:title="Functions to glue the Barista NOS and an external application. ">
<polygon fill="#ffffff" stroke="#000000" points="141.1919,-74.5 141.1919,-102.5 245.0288,-102.5 245.0288,-74.5 141.1919,-74.5"/>
<text text-anchor="start" x="149.1919" y="-90.5" font-family="Helvetica,sans-Serif" font-size="10.00" fill="#000000">External Application</text>
<text text-anchor="middle" x="193.1104" y="-80.5" font-family="Helvetica,sans-Serif" font-size="10.00" fill="#000000"> Handler</text>
</a>
</g>
</g>
<!-- Node0&#45;&gt;Node3 -->
<g id="edge3" class="edge">
<title>Node0&#45;&gt;Node3</title>
<path fill="none" stroke="#000000" d="M57.3347,-186.9235C71.6066,-166.4465 97.6997,-132.8332 127.5762,-112.5 133.1855,-108.6824 139.4767,-105.3866 145.883,-102.5669"/>
<polygon fill="#000000" stroke="#000000" points="54.3603,-185.0734 51.638,-195.3125 60.1513,-189.0059 54.3603,-185.0734"/>
</g>
<!-- Node6 -->
<g id="node11" class="node">
<title>Node6</title>
<g id="a_node11"><a xlink:href="group__cli.html" target="_top" xlink:title="Functions to manage CLI commands. ">
<polygon fill="#ffffff" stroke="#000000" points="130.0835,-37.5 130.0835,-55.5 256.1372,-55.5 256.1372,-37.5 130.0835,-37.5"/>
<text text-anchor="middle" x="193.1104" y="-43.5" font-family="Helvetica,sans-Serif" font-size="10.00" fill="#000000">Command&#45;Line Interface</text>
</a>
</g>
</g>
<!-- Node0&#45;&gt;Node6 -->
<g id="edge6" class="edge">
<title>Node0&#45;&gt;Node6</title>
<path fill="none" stroke="#000000" d="M51.6909,-185.8105C62.1094,-155.8774 86.6181,-97.3251 127.5762,-65.5 132.908,-61.3571 139.1144,-58.1171 145.5416,-55.5834"/>
<polygon fill="#000000" stroke="#000000" points="48.3227,-184.8475 48.4856,-195.4411 54.9645,-187.0581 48.3227,-184.8475"/>
</g>
<!-- Node1 -->
<g id="node12" class="node">
<title>Node1</title>
<g id="a_node12"><a xlink:href="group__app__events.html" target="_top" xlink:title="Functions to manage app events for applications. ">
<polygon fill="#ffffff" stroke="#000000" points="127.5762,-.5 127.5762,-18.5 258.6445,-18.5 258.6445,-.5 127.5762,-.5"/>
<text text-anchor="middle" x="193.1104" y="-6.5" font-family="Helvetica,sans-Serif" font-size="10.00" fill="#000000">Application Event Handler</text>
</a>
</g>
</g>
<!-- Node0&#45;&gt;Node1 -->
<g id="edge1" class="edge">
<title>Node0&#45;&gt;Node1</title>
<path fill="none" stroke="#000000" d="M49.3369,-185.0102C56.9746,-148.721 78.4226,-70.6622 127.5762,-28.5 132.4315,-24.3353 138.1544,-21.0821 144.1629,-18.5413"/>
<polygon fill="#000000" stroke="#000000" points="45.8233,-184.7384 47.3248,-195.2262 52.6914,-186.0911 45.8233,-184.7384"/>
</g>
</g>
</svg>
