<?xml version="1.0" encoding="UTF-8" standalone="no"?>
<!DOCTYPE svg PUBLIC "-//W3C//DTD SVG 1.1//EN"
 "http://www.w3.org/Graphics/SVG/1.1/DTD/svg11.dtd">
<!-- Generated by graphviz version 2.40.1 (20161225.0304)
 -->
<!-- Title: External Event Handler Pages: 1 -->
<svg width="476pt" height="150pt"
 viewBox="0.00 0.00 475.88 150.00" xmlns="http://www.w3.org/2000/svg" xmlns:xlink="http://www.w3.org/1999/xlink">
<g id="graph0" class="graph" transform="scale(1 1) rotate(0) translate(4 146)">
<title>External Event Handler</title>
<polygon fill="#ffffff" stroke="transparent" points="-4,4 -4,-146 471.8848,-146 471.8848,4 -4,4"/>
<!-- Node0 -->
<g id="node1" class="node">
<title>Node0</title>
<polygon fill="#bfbfbf" stroke="#000000" points="116.3691,-58.5 116.3691,-76.5 235.2012,-76.5 235.2012,-58.5 116.3691,-58.5"/>
<text text-anchor="middle" x="175.7852" y="-64.5" font-family="Helvetica,sans-Serif" font-size="10.00" fill="#000000">External Event Handler</text>
</g>
<!-- Node2 -->
<g id="node2" class="node">
<title>Node2</title>
<g id="a_node2"><a xlink:href="group__av__msg.html" target="_top" xlink:title="Functions to handle app events between the Barista NOS and external applications. ...">
<polygon fill="#ffffff" stroke="#000000" points="331.8066,-123.5 331.8066,-141.5 467.8848,-141.5 467.8848,-123.5 331.8066,-123.5"/>
<text text-anchor="middle" x="399.8457" y="-129.5" font-family="Helvetica,sans-Serif" font-size="10.00" fill="#000000">External AppEvent Handler</text>
</a>
</g>
</g>
<!-- Node0&#45;&gt;Node2 -->
<g id="edge2" class="edge">
<title>Node0&#45;&gt;Node2</title>
<path fill="none" stroke="#ffa500" stroke-dasharray="5,2" d="M192.2277,-76.5627C207.586,-84.6818 231.3587,-96.3765 253.2012,-103.5 280.0949,-112.2709 310.6721,-118.8303 336.9205,-123.4712"/>
<text text-anchor="middle" x="283.5039" y="-130.5" font-family="Helvetica,sans-Serif" font-size="10.00" fill="#000000">_json_header</text>
<text text-anchor="middle" x="283.5039" y="-120.5" font-family="Helvetica,sans-Serif" font-size="10.00" fill="#000000">_buffer_t</text>
</g>
<!-- Node3 -->
<g id="node3" class="node">
<title>Node3</title>
<g id="a_node3"><a xlink:href="group__app__event.html" target="_top" xlink:title="Functions to manage app events for external applications. ">
<polygon fill="#ffffff" stroke="#000000" points="334.3115,-80.5 334.3115,-98.5 465.3799,-98.5 465.3799,-80.5 334.3115,-80.5"/>
<text text-anchor="middle" x="399.8457" y="-86.5" font-family="Helvetica,sans-Serif" font-size="10.00" fill="#000000">Application Event Handler</text>
</a>
</g>
</g>
<!-- Node0&#45;&gt;Node3 -->
<g id="edge3" class="edge">
<title>Node0&#45;&gt;Node3</title>
<path fill="none" stroke="#ffa500" stroke-dasharray="5,2" d="M235.241,-73.3378C265.708,-76.3293 302.8839,-79.9795 334.1919,-83.0536"/>
<text text-anchor="middle" x="283.5039" y="-91.5" font-family="Helvetica,sans-Serif" font-size="10.00" fill="#000000">_json_header</text>
<text text-anchor="middle" x="283.5039" y="-81.5" font-family="Helvetica,sans-Serif" font-size="10.00" fill="#000000">_buffer_t</text>
</g>
<!-- Node4 -->
<g id="node5" class="node">
<title>Node4</title>
<g id="a_node5"><a xlink:href="group__compnt__event.html" target="_top" xlink:title="Functions to manage events for external components. ">
<polygon fill="#ffffff" stroke="#000000" points="332.9224,-37.5 332.9224,-55.5 466.769,-55.5 466.769,-37.5 332.9224,-37.5"/>
<text text-anchor="middle" x="399.8457" y="-43.5" font-family="Helvetica,sans-Serif" font-size="10.00" fill="#000000">Component Event Handler</text>
</a>
</g>
</g>
<!-- Node0&#45;&gt;Node4 -->
<g id="edge4" class="edge">
<title>Node0&#45;&gt;Node4</title>
<path fill="none" stroke="#ffa500" stroke-dasharray="5,2" d="M203.7701,-58.4945C218.3399,-54.2614 236.5458,-49.6744 253.2012,-47.5 279.0778,-44.1218 307.7419,-43.2884 332.8129,-43.5037"/>
<text text-anchor="middle" x="283.5039" y="-59.5" font-family="Helvetica,sans-Serif" font-size="10.00" fill="#000000">_json_header</text>
<text text-anchor="middle" x="283.5039" y="-49.5" font-family="Helvetica,sans-Serif" font-size="10.00" fill="#000000">_buffer_t</text>
</g>
<!-- Node5 -->
<g id="node6" class="node">
<title>Node5</title>
<g id="a_node6"><a xlink:href="group__conn.html" target="_top" xlink:title="(Base) packet I/O engine ">
<polygon fill="#ffffff" stroke="#000000" points="351.5454,-.5 351.5454,-18.5 448.146,-18.5 448.146,-.5 351.5454,-.5"/>
<text text-anchor="middle" x="399.8457" y="-6.5" font-family="Helvetica,sans-Serif" font-size="10.00" fill="#000000">Packet I/O Engine</text>
</a>
</g>
</g>
<!-- Node0&#45;&gt;Node5 -->
<g id="edge5" class="edge">
<title>Node0&#45;&gt;Node5</title>
<path fill="none" stroke="#ffa500" stroke-dasharray="5,2" d="M191.2307,-58.3837C206.4652,-49.8166 230.675,-37.3213 253.2012,-30.5 285.2007,-20.81 322.5164,-15.5461 351.4973,-12.7118"/>
<text text-anchor="middle" x="283.5039" y="-32.5" font-family="Helvetica,sans-Serif" font-size="10.00" fill="#000000">_buffer_t</text>
</g>
<!-- Node1 -->
<g id="node4" class="node">
<title>Node1</title>
<g id="a_node4"><a xlink:href="group__events.html" target="_top" xlink:title="Functions to manage events for components. ">
<polygon fill="#ffffff" stroke="#000000" points="0,-58.5 0,-76.5 79.3691,-76.5 79.3691,-58.5 0,-58.5"/>
<text text-anchor="middle" x="39.6846" y="-64.5" font-family="Helvetica,sans-Serif" font-size="10.00" fill="#000000">Event Handler</text>
</a>
</g>
</g>
<!-- Node1&#45;&gt;Node0 -->
<g id="edge1" class="edge">
<title>Node1&#45;&gt;Node0</title>
<path fill="none" stroke="#000000" d="M89.4234,-67.5C98.1502,-67.5 107.311,-67.5 116.2712,-67.5"/>
<polygon fill="#000000" stroke="#000000" points="89.4164,-64.0001 79.4164,-67.5 89.4163,-71.0001 89.4164,-64.0001"/>
</g>
</g>
</svg>
