<?xml version="1.0" encoding="UTF-8" standalone="no"?>
<!DOCTYPE svg PUBLIC "-//W3C//DTD SVG 1.1//EN"
 "http://www.w3.org/Graphics/SVG/1.1/DTD/svg11.dtd">
<!-- Generated by graphviz version 2.40.1 (20161225.0304)
 -->
<!-- Title: Application CLI Alternative Pages: 1 -->
<svg width="298pt" height="37pt"
 viewBox="0.00 0.00 298.36 37.00" xmlns="http://www.w3.org/2000/svg" xmlns:xlink="http://www.w3.org/1999/xlink">
<g id="graph0" class="graph" transform="scale(1 1) rotate(0) translate(4 33)">
<title>Application CLI Alternative</title>
<polygon fill="#ffffff" stroke="transparent" points="-4,4 -4,-33 294.3584,-33 294.3584,4 -4,4"/>
<!-- Node0 -->
<g id="node1" class="node">
<title>Node0</title>
<polygon fill="#bfbfbf" stroke="#000000" points="0,-5.5 0,-23.5 132.7383,-23.5 132.7383,-5.5 0,-5.5"/>
<text text-anchor="middle" x="66.3691" y="-11.5" font-family="Helvetica,sans-Serif" font-size="10.00" fill="#000000">Application CLI Alternative</text>
</g>
<!-- Node1 -->
<g id="node2" class="node">
<title>Node1</title>
<g id="a_node2"><a xlink:href="group__app__shim.html" target="_top" xlink:title="External Application\l Handler">
<polygon fill="#ffffff" stroke="#000000" points="186.5215,-.5 186.5215,-28.5 290.3584,-28.5 290.3584,-.5 186.5215,-.5"/>
<text text-anchor="start" x="194.5215" y="-16.5" font-family="Helvetica,sans-Serif" font-size="10.00" fill="#000000">External Application</text>
<text text-anchor="middle" x="238.4399" y="-6.5" font-family="Helvetica,sans-Serif" font-size="10.00" fill="#000000"> Handler</text>
</a>
</g>
</g>
<!-- Node0&#45;&gt;Node1 -->
<g id="edge2" class="edge">
<title>Node0&#45;&gt;Node1</title>
<path fill="none" stroke="#006400" stroke-dasharray="5,2" d="M132.8962,-14.5C150.6757,-14.5 169.6285,-14.5 186.4958,-14.5"/>
<text text-anchor="middle" x="159.6299" y="-16.5" font-family="Helvetica,sans-Serif" font-size="10.00" fill="#000000">cli.h</text>
</g>
<!-- Node1&#45;&gt;Node0 -->
<g id="edge1" class="edge">
<title>Node1&#45;&gt;Node0</title>
<path fill="none" stroke="#000000" d="M176.3019,-12.6303C173.6734,-12.5804 171.0714,-12.5365 168.5215,-12.5 156.9928,-12.3351 144.733,-12.3829 132.8565,-12.546"/>
<polygon fill="#000000" stroke="#000000" points="176.4439,-16.1341 186.5167,-12.8496 176.5942,-9.1357 176.4439,-16.1341"/>
</g>
</g>
</svg>
