<?xml version="1.0" encoding="UTF-8" standalone="no"?>
<!DOCTYPE svg PUBLIC "-//W3C//DTD SVG 1.1//EN"
 "http://www.w3.org/Graphics/SVG/1.1/DTD/svg11.dtd">
<!-- Generated by graphviz version 2.40.1 (20161225.0304)
 -->
<!-- Title: Base Framework Pages: 1 -->
<svg width="267pt" height="249pt"
 viewBox="0.00 0.00 266.64 249.00" xmlns="http://www.w3.org/2000/svg" xmlns:xlink="http://www.w3.org/1999/xlink">
<g id="graph0" class="graph" transform="scale(1 1) rotate(0) translate(4 245)">
<title>Base Framework</title>
<polygon fill="#ffffff" stroke="transparent" points="-4,4 -4,-245 262.6445,-245 262.6445,4 -4,4"/>
<!-- Node0 -->
<g id="node1" class="node">
<title>Node0</title>
<polygon fill="#bfbfbf" stroke="#000000" points="0,-111.5 0,-129.5 91.5762,-129.5 91.5762,-111.5 0,-111.5"/>
<text text-anchor="middle" x="45.7881" y="-117.5" font-family="Helvetica,sans-Serif" font-size="10.00" fill="#000000">Base Framework</text>
</g>
<!-- Node7 -->
<g id="node2" class="node">
<title>Node7</title>
<g id="a_node2"><a xlink:href="group__base.html" target="_top" xlink:title="Function to execute the Barista NOS. ">
<polygon fill="#ffffff" stroke="#000000" points="147.3223,-222.5 147.3223,-240.5 238.8984,-240.5 238.8984,-222.5 147.3223,-222.5"/>
<text text-anchor="middle" x="193.1104" y="-228.5" font-family="Helvetica,sans-Serif" font-size="10.00" fill="#000000">Base Framework</text>
</a>
</g>
</g>
<!-- Node0&#45;&gt;Node7 -->
<g id="edge7" class="edge">
<title>Node0&#45;&gt;Node7</title>
<path fill="none" stroke="#000000" d="M56.7915,-138.3858C70.6953,-159.4824 96.5886,-194.126 127.5762,-213.5 133.5788,-217.253 140.3676,-220.2355 147.2443,-222.6026"/>
<polygon fill="#000000" stroke="#000000" points="59.6062,-136.2906 51.2717,-129.7495 53.708,-140.0605 59.6062,-136.2906"/>
</g>
<!-- Node3 -->
<g id="node3" class="node">
<title>Node3</title>
<g id="a_node3"><a xlink:href="group__app__mgmt.html" target="_top" xlink:title="Functions to configure and manage applications. ">
<polygon fill="#ffffff" stroke="#000000" points="130.0762,-185.5 130.0762,-203.5 256.1445,-203.5 256.1445,-185.5 130.0762,-185.5"/>
<text text-anchor="middle" x="193.1104" y="-191.5" font-family="Helvetica,sans-Serif" font-size="10.00" fill="#000000">Application Management</text>
</a>
</g>
</g>
<!-- Node0&#45;&gt;Node3 -->
<g id="edge3" class="edge">
<title>Node0&#45;&gt;Node3</title>
<path fill="none" stroke="#000000" d="M64.6778,-136.1436C80.5847,-148.6273 104.3927,-165.749 127.5762,-176.5 135.1759,-180.0243 143.6011,-182.9782 151.8092,-185.4071"/>
<polygon fill="#000000" stroke="#000000" points="66.6995,-133.2785 56.7077,-129.7553 62.3215,-138.7406 66.6995,-133.2785"/>
</g>
<!-- Node5 -->
<g id="node4" class="node">
<title>Node5</title>
<g id="a_node4"><a xlink:href="group__compnt__mgmt.html" target="_top" xlink:title="Functions to configure and manage components. ">
<polygon fill="#ffffff" stroke="#000000" points="128.687,-148.5 128.687,-166.5 257.5337,-166.5 257.5337,-148.5 128.687,-148.5"/>
<text text-anchor="middle" x="193.1104" y="-154.5" font-family="Helvetica,sans-Serif" font-size="10.00" fill="#000000">Component Management</text>
</a>
</g>
</g>
<!-- Node0&#45;&gt;Node5 -->
<g id="edge5" class="edge">
<title>Node0&#45;&gt;Node5</title>
<path fill="none" stroke="#000000" d="M91.5641,-131.9967C112.6986,-137.3046 137.4261,-143.5149 157.1883,-148.4782"/>
<polygon fill="#000000" stroke="#000000" points="92.3785,-128.5926 81.8272,-129.5512 90.6734,-135.3817 92.3785,-128.5926"/>
</g>
<!-- Node6 -->
<g id="node5" class="node">
<title>Node6</title>
<g id="a_node5"><a xlink:href="group__context.html" target="_top" xlink:title="Function to maintain the context of the Barista NOS. ">
<polygon fill="#ffffff" stroke="#000000" points="137.3052,-111.5 137.3052,-129.5 248.9155,-129.5 248.9155,-111.5 137.3052,-111.5"/>
<text text-anchor="middle" x="193.1104" y="-117.5" font-family="Helvetica,sans-Serif" font-size="10.00" fill="#000000">Context Management</text>
</a>
</g>
</g>
<!-- Node0&#45;&gt;Node6 -->
<g id="edge6" class="edge">
<title>Node0&#45;&gt;Node6</title>
<path fill="none" stroke="#000000" d="M101.6377,-120.5C113.2879,-120.5 125.5705,-120.5 137.2221,-120.5"/>
<polygon fill="#000000" stroke="#000000" points="101.5942,-117.0001 91.5942,-120.5 101.5942,-124.0001 101.5942,-117.0001"/>
</g>
<!-- Node2 -->
<g id="node6" class="node">
<title>Node2</title>
<g id="a_node6"><a xlink:href="group__events.html" target="_top" xlink:title="Functions to manage events for components. ">
<polygon fill="#ffffff" stroke="#000000" points="153.4258,-74.5 153.4258,-92.5 232.7949,-92.5 232.7949,-74.5 153.4258,-74.5"/>
<text text-anchor="middle" x="193.1104" y="-80.5" font-family="Helvetica,sans-Serif" font-size="10.00" fill="#000000">Event Handler</text>
</a>
</g>
</g>
<!-- Node0&#45;&gt;Node2 -->
<g id="edge2" class="edge">
<title>Node0&#45;&gt;Node2</title>
<path fill="none" stroke="#000000" d="M91.5641,-109.0033C112.6986,-103.6954 137.4261,-97.4851 157.1883,-92.5218"/>
<polygon fill="#000000" stroke="#000000" points="90.6734,-105.6183 81.8272,-111.4488 92.3785,-112.4074 90.6734,-105.6183"/>
</g>
<!-- Node4 -->
<g id="node7" class="node">
<title>Node4</title>
<g id="a_node7"><a xlink:href="group__cli.html" target="_top" xlink:title="Functions to manage CLI commands. ">
<polygon fill="#ffffff" stroke="#000000" points="130.0835,-37.5 130.0835,-55.5 256.1372,-55.5 256.1372,-37.5 130.0835,-37.5"/>
<text text-anchor="middle" x="193.1104" y="-43.5" font-family="Helvetica,sans-Serif" font-size="10.00" fill="#000000">Command&#45;Line Interface</text>
</a>
</g>
</g>
<!-- Node0&#45;&gt;Node4 -->
<g id="edge4" class="edge">
<title>Node0&#45;&gt;Node4</title>
<path fill="none" stroke="#000000" d="M64.7636,-105.2402C80.721,-93.0408 104.5549,-76.2565 127.5762,-65.5 136.0547,-61.5385 145.5412,-58.2126 154.6061,-55.5073"/>
<polygon fill="#000000" stroke="#000000" points="62.4973,-102.569 56.764,-111.4785 66.802,-108.089 62.4973,-102.569"/>
</g>
<!-- Node1 -->
<g id="node8" class="node">
<title>Node1</title>
<g id="a_node8"><a xlink:href="group__app__events.html" target="_top" xlink:title="Functions to manage app events for applications. ">
<polygon fill="#ffffff" stroke="#000000" points="127.5762,-.5 127.5762,-18.5 258.6445,-18.5 258.6445,-.5 127.5762,-.5"/>
<text text-anchor="middle" x="193.1104" y="-6.5" font-family="Helvetica,sans-Serif" font-size="10.00" fill="#000000">Application Event Handler</text>
</a>
</g>
</g>
<!-- Node0&#45;&gt;Node1 -->
<g id="edge1" class="edge">
<title>Node0&#45;&gt;Node1</title>
<path fill="none" stroke="#000000" d="M56.8837,-102.8831C70.8782,-82.0886 96.8608,-47.8916 127.5762,-28.5 134.0871,-24.3895 141.5165,-21.1414 148.9784,-18.5829"/>
<polygon fill="#000000" stroke="#000000" points="53.8633,-101.107 51.3234,-111.3929 59.7233,-104.9359 53.8633,-101.107"/>
</g>
</g>
</svg>
