<?xml version="1.0" encoding="UTF-8" standalone="no"?>
<!DOCTYPE svg PUBLIC "-//W3C//DTD SVG 1.1//EN"
 "http://www.w3.org/Graphics/SVG/1.1/DTD/svg11.dtd">
<!-- Generated by graphviz version 2.40.1 (20161225.0304)
 -->
<!-- Title: Utilities Pages: 1 -->
<svg width="203pt" height="138pt"
 viewBox="0.00 0.00 202.70 138.00" xmlns="http://www.w3.org/2000/svg" xmlns:xlink="http://www.w3.org/1999/xlink">
<g id="graph0" class="graph" transform="scale(1 1) rotate(0) translate(4 134)">
<title>Utilities</title>
<polygon fill="#ffffff" stroke="transparent" points="-4,4 -4,-134 198.6992,-134 198.6992,4 -4,4"/>
<!-- Node4 -->
<g id="node1" class="node">
<title>Node4</title>
<g id="a_node1"><a xlink:href="group__str.html" target="_top" xlink:title="Functions to process configuration files. ">
<polygon fill="#ffffff" stroke="#000000" points="95.335,-111.5 95.335,-129.5 183.5908,-129.5 183.5908,-111.5 95.335,-111.5"/>
<text text-anchor="middle" x="139.4629" y="-117.5" font-family="Helvetica,sans-Serif" font-size="10.00" fill="#000000">String Functions</text>
</a>
</g>
</g>
<!-- Node0 -->
<g id="node2" class="node">
<title>Node0</title>
<polygon fill="#bfbfbf" stroke="#000000" points="0,-55.5 0,-73.5 48.2266,-73.5 48.2266,-55.5 0,-55.5"/>
<text text-anchor="middle" x="24.1133" y="-61.5" font-family="Helvetica,sans-Serif" font-size="10.00" fill="#000000">Utilities</text>
</g>
<!-- Node0&#45;&gt;Node4 -->
<g id="edge4" class="edge">
<title>Node0&#45;&gt;Node4</title>
<path fill="none" stroke="#000000" d="M44.7753,-79.3645C56.0465,-87.0018 70.4721,-96.0353 84.2266,-102.5 91.4377,-105.8893 99.4584,-108.9009 107.1022,-111.4452"/>
<polygon fill="#000000" stroke="#000000" points="46.6972,-76.438 36.4854,-73.6146 42.7076,-82.1899 46.6972,-76.438"/>
</g>
<!-- Node1 -->
<g id="node3" class="node">
<title>Node1</title>
<g id="a_node3"><a xlink:href="group__base64.html" target="_top" xlink:title="Functions to encode binary data to an ASCII string and vice versa through Base64. ...">
<polygon fill="#ffffff" stroke="#000000" points="91.4385,-74.5 91.4385,-92.5 187.4873,-92.5 187.4873,-74.5 91.4385,-74.5"/>
<text text-anchor="middle" x="139.4629" y="-80.5" font-family="Helvetica,sans-Serif" font-size="10.00" fill="#000000">Base64 Functions</text>
</a>
</g>
</g>
<!-- Node0&#45;&gt;Node1 -->
<g id="edge1" class="edge">
<title>Node0&#45;&gt;Node1</title>
<path fill="none" stroke="#000000" d="M58.464,-70.1581C68.6979,-71.8438 80.1101,-73.7236 91.0639,-75.5279"/>
<polygon fill="#000000" stroke="#000000" points="58.7303,-66.6549 48.2943,-68.483 57.5925,-73.5618 58.7303,-66.6549"/>
</g>
<!-- Node3 -->
<g id="node4" class="node">
<title>Node3</title>
<g id="a_node4"><a xlink:href="group__mac2int.html" target="_top" xlink:title="Functions to convert the forms of MAC addresses. ">
<polygon fill="#ffffff" stroke="#000000" points="84.2266,-37.5 84.2266,-55.5 194.6992,-55.5 194.6992,-37.5 84.2266,-37.5"/>
<text text-anchor="middle" x="139.4629" y="-43.5" font-family="Helvetica,sans-Serif" font-size="10.00" fill="#000000">MAC&#45;to&#45;Int Functions</text>
</a>
</g>
</g>
<!-- Node0&#45;&gt;Node3 -->
<g id="edge3" class="edge">
<title>Node0&#45;&gt;Node3</title>
<path fill="none" stroke="#000000" d="M58.3918,-59.1509C66.4451,-57.8942 75.2312,-56.5232 83.9512,-55.1624"/>
<polygon fill="#000000" stroke="#000000" points="57.6351,-55.7266 48.2943,-60.7266 58.7144,-62.6429 57.6351,-55.7266"/>
</g>
<!-- Node2 -->
<g id="node5" class="node">
<title>Node2</title>
<g id="a_node5"><a xlink:href="group__hash.html" target="_top" xlink:title="Function to get a hash value using Jenkins hash. ">
<polygon fill="#ffffff" stroke="#000000" points="99.2241,-.5 99.2241,-18.5 179.7017,-18.5 179.7017,-.5 99.2241,-.5"/>
<text text-anchor="middle" x="139.4629" y="-6.5" font-family="Helvetica,sans-Serif" font-size="10.00" fill="#000000">Hash Function</text>
</a>
</g>
</g>
<!-- Node0&#45;&gt;Node2 -->
<g id="edge2" class="edge">
<title>Node0&#45;&gt;Node2</title>
<path fill="none" stroke="#000000" d="M46.1281,-49.8066C57.2478,-42.7799 71.129,-34.5933 84.2266,-28.5 92.226,-24.7785 101.1678,-21.392 109.4875,-18.5427"/>
<polygon fill="#000000" stroke="#000000" points="44.0196,-47.0017 37.515,-55.3648 47.8151,-52.8834 44.0196,-47.0017"/>
</g>
</g>
</svg>
