<?xml version="1.0" encoding="UTF-8" standalone="no"?>
<!DOCTYPE svg PUBLIC "-//W3C//DTD SVG 1.1//EN"
 "http://www.w3.org/Graphics/SVG/1.1/DTD/svg11.dtd">
<!-- Generated by graphviz version 2.40.1 (20161225.0304)
 -->
<!-- Title: Event Handler Pages: 1 -->
<svg width="379pt" height="64pt"
 viewBox="0.00 0.00 378.65 64.00" xmlns="http://www.w3.org/2000/svg" xmlns:xlink="http://www.w3.org/1999/xlink">
<g id="graph0" class="graph" transform="scale(1 1) rotate(0) translate(4 60)">
<title>Event Handler</title>
<polygon fill="#ffffff" stroke="transparent" points="-4,4 -4,-60 374.6494,-60 374.6494,4 -4,4"/>
<!-- Node3 -->
<g id="node1" class="node">
<title>Node3</title>
<g id="a_node1"><a xlink:href="group__ev__msg.html" target="_top" xlink:title="Functions to handle events between the Barista NOS and external components. ">
<polygon fill="#ffffff" stroke="#000000" points="247.3813,-37.5 247.3813,-55.5 366.2134,-55.5 366.2134,-37.5 247.3813,-37.5"/>
<text text-anchor="middle" x="306.7974" y="-43.5" font-family="Helvetica,sans-Serif" font-size="10.00" fill="#000000">External Event Handler</text>
</a>
</g>
</g>
<!-- Node1 -->
<g id="node2" class="node">
<title>Node1</title>
<g id="a_node2"><a xlink:href="group__framework.html" target="_top" xlink:title="Base Framework">
<polygon fill="#ffffff" stroke="#000000" points="0,-18.5 0,-36.5 91.5762,-36.5 91.5762,-18.5 0,-18.5"/>
<text text-anchor="middle" x="45.7881" y="-24.5" font-family="Helvetica,sans-Serif" font-size="10.00" fill="#000000">Base Framework</text>
</a>
</g>
</g>
<!-- Node0 -->
<g id="node3" class="node">
<title>Node0</title>
<polygon fill="#bfbfbf" stroke="#000000" points="127.5762,-18.5 127.5762,-36.5 206.9453,-36.5 206.9453,-18.5 127.5762,-18.5"/>
<text text-anchor="middle" x="167.2607" y="-24.5" font-family="Helvetica,sans-Serif" font-size="10.00" fill="#000000">Event Handler</text>
</g>
<!-- Node1&#45;&gt;Node0 -->
<g id="edge1" class="edge">
<title>Node1&#45;&gt;Node0</title>
<path fill="none" stroke="#000000" d="M101.7186,-27.5C110.3293,-27.5 119.0696,-27.5 127.2415,-27.5"/>
<polygon fill="#000000" stroke="#000000" points="101.7117,-24.0001 91.7117,-27.5 101.7117,-31.0001 101.7117,-24.0001"/>
</g>
<!-- Node0&#45;&gt;Node3 -->
<g id="edge3" class="edge">
<title>Node0&#45;&gt;Node3</title>
<path fill="none" stroke="#000000" d="M217.1772,-34.2969C226.9377,-35.6259 237.2636,-37.0319 247.2996,-38.3985"/>
<polygon fill="#000000" stroke="#000000" points="217.6272,-30.8259 207.2463,-32.9446 216.6827,-37.7619 217.6272,-30.8259"/>
</g>
<!-- Node2 -->
<g id="node4" class="node">
<title>Node2</title>
<g id="a_node4"><a xlink:href="group__ev__json.html" target="_top" xlink:title="Functions to convert the forms of events. ">
<polygon fill="#ffffff" stroke="#000000" points="242.9453,-.5 242.9453,-18.5 370.6494,-18.5 370.6494,-.5 242.9453,-.5"/>
<text text-anchor="middle" x="306.7974" y="-6.5" font-family="Helvetica,sans-Serif" font-size="10.00" fill="#000000">Event&#45;to&#45;JSON convertor</text>
</a>
</g>
</g>
<!-- Node0&#45;&gt;Node2 -->
<g id="edge2" class="edge">
<title>Node0&#45;&gt;Node2</title>
<path fill="none" stroke="#000000" d="M217.4339,-21.0277C225.6748,-19.9647 234.3126,-18.8504 242.8341,-17.7512"/>
<polygon fill="#000000" stroke="#000000" points="216.7163,-17.5912 207.2463,-22.3419 217.612,-24.5337 216.7163,-17.5912"/>
</g>
</g>
</svg>
