<?xml version="1.0" encoding="UTF-8" standalone="no"?>
<!DOCTYPE svg PUBLIC "-//W3C//DTD SVG 1.1//EN"
 "http://www.w3.org/Graphics/SVG/1.1/DTD/svg11.dtd">
<!-- Generated by graphviz version 2.40.1 (20161225.0304)
 -->
<!-- Title: Utilities Pages: 1 -->
<svg width="223pt" height="205pt"
 viewBox="0.00 0.00 222.72 205.00" xmlns="http://www.w3.org/2000/svg" xmlns:xlink="http://www.w3.org/1999/xlink">
<g id="graph0" class="graph" transform="scale(1 1) rotate(0) translate(4 201)">
<title>Utilities</title>
<polygon fill="#ffffff" stroke="transparent" points="-4,4 -4,-201 218.7236,-201 218.7236,4 -4,4"/>
<!-- Node5 -->
<g id="node1" class="node">
<title>Node5</title>
<g id="a_node1"><a xlink:href="group__str.html" target="_top" xlink:title="Functions to process configuration files. ">
<polygon fill="#ffffff" stroke="#000000" points="92.2856,-168.5 92.2856,-196.5 206.6646,-196.5 206.6646,-168.5 92.2856,-168.5"/>
<text text-anchor="start" x="100.2856" y="-184.5" font-family="Helvetica,sans-Serif" font-size="10.00" fill="#000000">Configuration File</text>
<text text-anchor="middle" x="149.4751" y="-174.5" font-family="Helvetica,sans-Serif" font-size="10.00" fill="#000000"> Processing Functions</text>
</a>
</g>
</g>
<!-- Node0 -->
<g id="node2" class="node">
<title>Node0</title>
<polygon fill="#bfbfbf" stroke="#000000" points="0,-84.5 0,-102.5 48.2266,-102.5 48.2266,-84.5 0,-84.5"/>
<text text-anchor="middle" x="24.1133" y="-90.5" font-family="Helvetica,sans-Serif" font-size="10.00" fill="#000000">Utilities</text>
</g>
<!-- Node0&#45;&gt;Node5 -->
<g id="edge5" class="edge">
<title>Node0&#45;&gt;Node5</title>
<path fill="none" stroke="#000000" d="M36.3734,-111.257C47.3766,-126.0059 64.7576,-146.5917 84.2266,-159.5 89.332,-162.885 94.9928,-165.8341 100.7851,-168.3866"/>
<polygon fill="#000000" stroke="#000000" points="39.0715,-109.0145 30.3849,-102.9488 33.3929,-113.1076 39.0715,-109.0145"/>
</g>
<!-- Node3 -->
<g id="node3" class="node">
<title>Node3</title>
<g id="a_node3"><a xlink:href="group__ip2int.html" target="_top" xlink:title="Functions to convert the forms of IP addresses. ">
<polygon fill="#ffffff" stroke="#000000" points="90.7012,-121.5 90.7012,-149.5 208.249,-149.5 208.249,-121.5 90.7012,-121.5"/>
<text text-anchor="start" x="98.7012" y="-137.5" font-family="Helvetica,sans-Serif" font-size="10.00" fill="#000000">IP Address Conversion</text>
<text text-anchor="middle" x="149.4751" y="-127.5" font-family="Helvetica,sans-Serif" font-size="10.00" fill="#000000"> Functions</text>
</a>
</g>
</g>
<!-- Node0&#45;&gt;Node3 -->
<g id="edge3" class="edge">
<title>Node0&#45;&gt;Node3</title>
<path fill="none" stroke="#000000" d="M57.8661,-104.8082C73.1734,-109.9366 91.4292,-116.0529 107.6007,-121.4708"/>
<polygon fill="#000000" stroke="#000000" points="58.8782,-101.4561 48.2843,-101.598 56.6544,-108.0935 58.8782,-101.4561"/>
</g>
<!-- Node1 -->
<g id="node4" class="node">
<title>Node1</title>
<g id="a_node4"><a xlink:href="group__base64.html" target="_top" xlink:title="Functions to encode binary data to an ASCII string and vice versa through Base64. ...">
<polygon fill="#ffffff" stroke="#000000" points="101.4507,-84.5 101.4507,-102.5 197.4995,-102.5 197.4995,-84.5 101.4507,-84.5"/>
<text text-anchor="middle" x="149.4751" y="-90.5" font-family="Helvetica,sans-Serif" font-size="10.00" fill="#000000">Base64 Functions</text>
</a>
</g>
</g>
<!-- Node0&#45;&gt;Node1 -->
<g id="edge1" class="edge">
<title>Node0&#45;&gt;Node1</title>
<path fill="none" stroke="#000000" d="M58.3656,-93.5C71.5846,-93.5 86.9438,-93.5 101.2423,-93.5"/>
<polygon fill="#000000" stroke="#000000" points="58.2843,-90.0001 48.2843,-93.5 58.2843,-97.0001 58.2843,-90.0001"/>
</g>
<!-- Node4 -->
<g id="node5" class="node">
<title>Node4</title>
<g id="a_node5"><a xlink:href="group__mac2int.html" target="_top" xlink:title="Functions to convert the forms of MAC addresses. ">
<polygon fill="#ffffff" stroke="#000000" points="84.2266,-37.5 84.2266,-65.5 214.7236,-65.5 214.7236,-37.5 84.2266,-37.5"/>
<text text-anchor="start" x="92.2266" y="-53.5" font-family="Helvetica,sans-Serif" font-size="10.00" fill="#000000">MAC Address Conversion</text>
<text text-anchor="middle" x="149.4751" y="-43.5" font-family="Helvetica,sans-Serif" font-size="10.00" fill="#000000"> Functions</text>
</a>
</g>
</g>
<!-- Node0&#45;&gt;Node4 -->
<g id="edge4" class="edge">
<title>Node0&#45;&gt;Node4</title>
<path fill="none" stroke="#000000" d="M57.8661,-82.1918C73.1734,-77.0634 91.4292,-70.9471 107.6007,-65.5292"/>
<polygon fill="#000000" stroke="#000000" points="56.6544,-78.9065 48.2843,-85.402 58.8782,-85.5439 56.6544,-78.9065"/>
</g>
<!-- Node2 -->
<g id="node6" class="node">
<title>Node2</title>
<g id="a_node6"><a xlink:href="group__hash.html" target="_top" xlink:title="Function to get a hash value using Jenkins hash. ">
<polygon fill="#ffffff" stroke="#000000" points="109.2363,-.5 109.2363,-18.5 189.7139,-18.5 189.7139,-.5 109.2363,-.5"/>
<text text-anchor="middle" x="149.4751" y="-6.5" font-family="Helvetica,sans-Serif" font-size="10.00" fill="#000000">Hash Function</text>
</a>
</g>
</g>
<!-- Node0&#45;&gt;Node2 -->
<g id="edge2" class="edge">
<title>Node0&#45;&gt;Node2</title>
<path fill="none" stroke="#000000" d="M35.8968,-76.227C46.8035,-61.5019 64.3072,-40.8197 84.2266,-28.5 91.7523,-23.8455 100.4687,-20.2874 109.0323,-17.5829"/>
<polygon fill="#000000" stroke="#000000" points="32.9547,-74.3244 29.9957,-84.4976 38.653,-78.3901 32.9547,-74.3244"/>
</g>
</g>
</svg>
