<?xml version="1.0" encoding="UTF-8" standalone="no"?>
<!DOCTYPE svg PUBLIC "-//W3C//DTD SVG 1.1//EN"
 "http://www.w3.org/Graphics/SVG/1.1/DTD/svg11.dtd">
<!-- Generated by graphviz version 2.40.1 (20161225.0304)
 -->
<!-- Title: External Application Handler Pages: 1 -->
<svg width="281pt" height="111pt"
 viewBox="0.00 0.00 280.58 111.00" xmlns="http://www.w3.org/2000/svg" xmlns:xlink="http://www.w3.org/1999/xlink">
<g id="graph0" class="graph" transform="scale(1 1) rotate(0) translate(4 107)">
<title>External Application Handler</title>
<polygon fill="#ffffff" stroke="transparent" points="-4,4 -4,-107 276.5752,-107 276.5752,4 -4,4"/>
<!-- Node3 -->
<g id="node1" class="node">
<title>Node3</title>
<g id="a_node1"><a xlink:href="group__app__load.html" target="_top" xlink:title="Functions to execute an external application. ">
<polygon fill="#ffffff" stroke="#000000" points="154.2876,-74.5 154.2876,-102.5 258.1245,-102.5 258.1245,-74.5 154.2876,-74.5"/>
<text text-anchor="start" x="162.2876" y="-90.5" font-family="Helvetica,sans-Serif" font-size="10.00" fill="#000000">External Application</text>
<text text-anchor="middle" x="206.2061" y="-80.5" font-family="Helvetica,sans-Serif" font-size="10.00" fill="#000000"> Loader</text>
</a>
</g>
</g>
<!-- Node2 -->
<g id="node2" class="node">
<title>Node2</title>
<g id="a_node2"><a xlink:href="group__app__alt.html" target="_top" xlink:title="Functions to convert CLI messages to logging messages. ">
<polygon fill="#ffffff" stroke="#000000" points="139.8369,-37.5 139.8369,-55.5 272.5752,-55.5 272.5752,-37.5 139.8369,-37.5"/>
<text text-anchor="middle" x="206.2061" y="-43.5" font-family="Helvetica,sans-Serif" font-size="10.00" fill="#000000">Application CLI Alternative</text>
</a>
</g>
</g>
<!-- Node1 -->
<g id="node3" class="node">
<title>Node1</title>
<g id="a_node3"><a xlink:href="group__app__event.html" target="_top" xlink:title="Functions to manage app events for external applications. ">
<polygon fill="#ffffff" stroke="#000000" points="140.6719,-.5 140.6719,-18.5 271.7402,-18.5 271.7402,-.5 140.6719,-.5"/>
<text text-anchor="middle" x="206.2061" y="-6.5" font-family="Helvetica,sans-Serif" font-size="10.00" fill="#000000">Application Event Handler</text>
</a>
</g>
</g>
<!-- Node0 -->
<g id="node4" class="node">
<title>Node0</title>
<polygon fill="#bfbfbf" stroke="#000000" points="0,-32.5 0,-60.5 103.8369,-60.5 103.8369,-32.5 0,-32.5"/>
<text text-anchor="start" x="8" y="-48.5" font-family="Helvetica,sans-Serif" font-size="10.00" fill="#000000">External Application</text>
<text text-anchor="middle" x="51.9185" y="-38.5" font-family="Helvetica,sans-Serif" font-size="10.00" fill="#000000"> Handler</text>
</g>
<!-- Node0&#45;&gt;Node3 -->
<g id="edge3" class="edge">
<title>Node0&#45;&gt;Node3</title>
<path fill="none" stroke="#000000" d="M113.4858,-63.2598C127.0919,-66.9636 141.3725,-70.8511 154.538,-74.435"/>
<polygon fill="#000000" stroke="#000000" points="114.2914,-59.8518 103.7232,-60.6022 112.4528,-66.606 114.2914,-59.8518"/>
</g>
<!-- Node0&#45;&gt;Node2 -->
<g id="edge2" class="edge">
<title>Node0&#45;&gt;Node2</title>
<path fill="none" stroke="#000000" d="M114.2619,-46.5C122.6715,-46.5 131.3249,-46.5 139.8018,-46.5"/>
<polygon fill="#000000" stroke="#000000" points="114.1532,-43.0001 104.1532,-46.5 114.1532,-50.0001 114.1532,-43.0001"/>
</g>
<!-- Node0&#45;&gt;Node1 -->
<g id="edge1" class="edge">
<title>Node0&#45;&gt;Node1</title>
<path fill="none" stroke="#000000" d="M113.9911,-31.6142C132.5023,-27.175 152.2181,-22.4469 168.648,-18.5069"/>
<polygon fill="#000000" stroke="#000000" points="113.0613,-28.2379 104.1532,-33.9735 114.6937,-35.0449 113.0613,-28.2379"/>
</g>
</g>
</svg>
