<?xml version="1.0" encoding="UTF-8" standalone="no"?>
<!DOCTYPE svg PUBLIC "-//W3C//DTD SVG 1.1//EN"
 "http://www.w3.org/Graphics/SVG/1.1/DTD/svg11.dtd">
<!-- Generated by graphviz version 2.40.1 (20161225.0304)
 -->
<!-- Title: Applications Pages: 1 -->
<svg width="242pt" height="138pt"
 viewBox="0.00 0.00 241.66 138.00" xmlns="http://www.w3.org/2000/svg" xmlns:xlink="http://www.w3.org/1999/xlink">
<g id="graph0" class="graph" transform="scale(1 1) rotate(0) translate(4 134)">
<title>Applications</title>
<polygon fill="#ffffff" stroke="transparent" points="-4,4 -4,-134 237.6641,-134 237.6641,4 -4,4"/>
<!-- Node3 -->
<g id="node1" class="node">
<title>Node3</title>
<g id="a_node1"><a xlink:href="group__rbac.html" target="_top" xlink:title="(Security) role&#45;based authorization ">
<polygon fill="#ffffff" stroke="#000000" points="105.9209,-111.5 105.9209,-129.5 233.6641,-129.5 233.6641,-111.5 105.9209,-111.5"/>
<text text-anchor="middle" x="169.7925" y="-117.5" font-family="Helvetica,sans-Serif" font-size="10.00" fill="#000000">Role&#45;based Authorization</text>
</a>
</g>
</g>
<!-- Node1 -->
<g id="node2" class="node">
<title>Node1</title>
<g id="a_node2"><a xlink:href="group__l2__learning.html" target="_top" xlink:title="(Network) L2 learning ">
<polygon fill="#ffffff" stroke="#000000" points="135.3813,-74.5 135.3813,-92.5 204.2036,-92.5 204.2036,-74.5 135.3813,-74.5"/>
<text text-anchor="middle" x="169.7925" y="-80.5" font-family="Helvetica,sans-Serif" font-size="10.00" fill="#000000">L2 Learning</text>
</a>
</g>
</g>
<!-- Node4 -->
<g id="node3" class="node">
<title>Node4</title>
<g id="a_node3"><a xlink:href="group__appint.html" target="_top" xlink:title="(Base) application interface ">
<polygon fill="#ffffff" stroke="#000000" points="116.4873,-37.5 116.4873,-55.5 223.0977,-55.5 223.0977,-37.5 116.4873,-37.5"/>
<text text-anchor="middle" x="169.7925" y="-43.5" font-family="Helvetica,sans-Serif" font-size="10.00" fill="#000000">Application Interface</text>
</a>
</g>
</g>
<!-- Node0 -->
<g id="node4" class="node">
<title>Node0</title>
<polygon fill="#bfbfbf" stroke="#000000" points="0,-55.5 0,-73.5 69.9209,-73.5 69.9209,-55.5 0,-55.5"/>
<text text-anchor="middle" x="34.9604" y="-61.5" font-family="Helvetica,sans-Serif" font-size="10.00" fill="#000000">Applications</text>
</g>
<!-- Node0&#45;&gt;Node3 -->
<g id="edge3" class="edge">
<title>Node0&#45;&gt;Node3</title>
<path fill="none" stroke="#000000" d="M58.3972,-78.7142C71.9366,-86.4977 89.4924,-95.8778 105.9209,-102.5 114.3623,-105.9027 123.6763,-108.9194 132.5204,-111.4643"/>
<polygon fill="#000000" stroke="#000000" points="60.1259,-75.6705 49.7286,-73.6341 56.5866,-81.7099 60.1259,-75.6705"/>
</g>
<!-- Node0&#45;&gt;Node1 -->
<g id="edge1" class="edge">
<title>Node0&#45;&gt;Node1</title>
<path fill="none" stroke="#000000" d="M80.0525,-70.8542C98.0964,-73.3969 118.5454,-76.2785 135.3611,-78.6481"/>
<polygon fill="#000000" stroke="#000000" points="80.4246,-67.3721 70.034,-69.4424 79.4478,-74.3036 80.4246,-67.3721"/>
</g>
<!-- Node0&#45;&gt;Node4 -->
<g id="edge4" class="edge">
<title>Node0&#45;&gt;Node4</title>
<path fill="none" stroke="#000000" d="M79.9745,-58.4907C91.6277,-56.9349 104.2886,-55.2447 116.3286,-53.6374"/>
<polygon fill="#000000" stroke="#000000" points="79.4829,-55.0251 70.034,-59.8177 80.4092,-61.9636 79.4829,-55.0251"/>
</g>
<!-- Node2 -->
<g id="node5" class="node">
<title>Node2</title>
<g id="a_node5"><a xlink:href="group__l2__shortest.html" target="_top" xlink:title="(Network) L2 shortest path ">
<polygon fill="#ffffff" stroke="#000000" points="124.2705,-.5 124.2705,-18.5 215.3145,-18.5 215.3145,-.5 124.2705,-.5"/>
<text text-anchor="middle" x="169.7925" y="-6.5" font-family="Helvetica,sans-Serif" font-size="10.00" fill="#000000">L2 Shortest&#45;Path</text>
</a>
</g>
</g>
<!-- Node0&#45;&gt;Node2 -->
<g id="edge2" class="edge">
<title>Node0&#45;&gt;Node2</title>
<path fill="none" stroke="#000000" d="M59.9629,-50.4197C73.3293,-43.2525 90.2254,-34.7565 105.9209,-28.5 115.2705,-24.7731 125.6421,-21.3849 135.2612,-18.5357"/>
<polygon fill="#000000" stroke="#000000" points="58.0235,-47.4907 50.9215,-55.3527 61.3763,-53.6356 58.0235,-47.4907"/>
</g>
</g>
</svg>
