<?xml version="1.0" encoding="UTF-8" standalone="no"?>
<!DOCTYPE svg PUBLIC "-//W3C//DTD SVG 1.1//EN"
 "http://www.w3.org/Graphics/SVG/1.1/DTD/svg11.dtd">
<!-- Generated by graphviz version 2.40.1 (20161225.0304)
 -->
<!-- Title: Event&#45;to&#45;JSON convertor Pages: 1 -->
<svg width="263pt" height="64pt"
 viewBox="0.00 0.00 263.28 64.00" xmlns="http://www.w3.org/2000/svg" xmlns:xlink="http://www.w3.org/1999/xlink">
<g id="graph0" class="graph" transform="scale(1 1) rotate(0) translate(4 60)">
<title>Event&#45;to&#45;JSON convertor</title>
<polygon fill="#ffffff" stroke="transparent" points="-4,4 -4,-60 259.2803,-60 259.2803,4 -4,4"/>
<!-- Node1 -->
<g id="node1" class="node">
<title>Node1</title>
<g id="a_node1"><a xlink:href="group__framework.html" target="_top" xlink:title="Base Framework">
<polygon fill="#ffffff" stroke="#000000" points="0,-37.5 0,-55.5 91.5762,-55.5 91.5762,-37.5 0,-37.5"/>
<text text-anchor="middle" x="45.7881" y="-43.5" font-family="Helvetica,sans-Serif" font-size="10.00" fill="#000000">Base Framework</text>
</a>
</g>
</g>
<!-- Node0 -->
<g id="node3" class="node">
<title>Node0</title>
<polygon fill="#bfbfbf" stroke="#000000" points="127.5762,-18.5 127.5762,-36.5 255.2803,-36.5 255.2803,-18.5 127.5762,-18.5"/>
<text text-anchor="middle" x="191.4282" y="-24.5" font-family="Helvetica,sans-Serif" font-size="10.00" fill="#000000">Event&#45;to&#45;JSON convertor</text>
</g>
<!-- Node1&#45;&gt;Node0 -->
<g id="edge1" class="edge">
<title>Node1&#45;&gt;Node0</title>
<path fill="none" stroke="#000000" d="M101.9173,-39.1775C110.3082,-38.0828 119.0115,-36.9474 127.5483,-35.8337"/>
<polygon fill="#000000" stroke="#000000" points="101.3327,-35.724 91.8695,-40.4883 102.2383,-42.6652 101.3327,-35.724"/>
</g>
<!-- Node2 -->
<g id="node2" class="node">
<title>Node2</title>
<g id="a_node2"><a xlink:href="group__events.html" target="_top" xlink:title="Functions to manage events for components. ">
<polygon fill="#ffffff" stroke="#000000" points="6.1035,-.5 6.1035,-18.5 85.4727,-18.5 85.4727,-.5 6.1035,-.5"/>
<text text-anchor="middle" x="45.7881" y="-6.5" font-family="Helvetica,sans-Serif" font-size="10.00" fill="#000000">Event Handler</text>
</a>
</g>
</g>
<!-- Node2&#45;&gt;Node0 -->
<g id="edge2" class="edge">
<title>Node2&#45;&gt;Node0</title>
<path fill="none" stroke="#000000" d="M95.6099,-15.6576C105.8975,-16.9291 116.8675,-18.2849 127.5748,-19.6082"/>
<polygon fill="#000000" stroke="#000000" points="95.9387,-12.1717 85.5849,-14.4186 95.08,-19.1188 95.9387,-12.1717"/>
</g>
</g>
</svg>
