<?xml version="1.0" encoding="UTF-8" standalone="no"?>
<!DOCTYPE svg PUBLIC "-//W3C//DTD SVG 1.1//EN"
 "http://www.w3.org/Graphics/SVG/1.1/DTD/svg11.dtd">
<!-- Generated by graphviz version 2.40.1 (20161225.0304)
 -->
<!-- Title: External Component Loader Pages: 1 -->
<svg width="316pt" height="43pt"
 viewBox="0.00 0.00 316.14 42.50" xmlns="http://www.w3.org/2000/svg" xmlns:xlink="http://www.w3.org/1999/xlink">
<g id="graph0" class="graph" transform="scale(1 1) rotate(0) translate(4 38.5)">
<title>External Component Loader</title>
<polygon fill="#ffffff" stroke="transparent" points="-4,4 -4,-38.5 312.1416,-38.5 312.1416,4 -4,4"/>
<!-- Node0 -->
<g id="node1" class="node">
<title>Node0</title>
<polygon fill="#bfbfbf" stroke="#000000" points="0,-.5 0,-28.5 107.1621,-28.5 107.1621,-.5 0,-.5"/>
<text text-anchor="start" x="8" y="-16.5" font-family="Helvetica,sans-Serif" font-size="10.00" fill="#000000">External Component</text>
<text text-anchor="middle" x="53.5811" y="-6.5" font-family="Helvetica,sans-Serif" font-size="10.00" fill="#000000"> Loader</text>
</g>
<!-- Node1 -->
<g id="node2" class="node">
<title>Node1</title>
<g id="a_node2"><a xlink:href="group__compnt__shim.html" target="_top" xlink:title="External Component\l Handler">
<polygon fill="#ffffff" stroke="#000000" points="200.9795,-.5 200.9795,-28.5 308.1416,-28.5 308.1416,-.5 200.9795,-.5"/>
<text text-anchor="start" x="208.9795" y="-16.5" font-family="Helvetica,sans-Serif" font-size="10.00" fill="#000000">External Component</text>
<text text-anchor="middle" x="254.5605" y="-6.5" font-family="Helvetica,sans-Serif" font-size="10.00" fill="#000000"> Handler</text>
</a>
</g>
</g>
<!-- Node0&#45;&gt;Node1 -->
<g id="edge2" class="edge">
<title>Node0&#45;&gt;Node1</title>
<path fill="none" stroke="#006400" stroke-dasharray="5,2" d="M107.1759,-14.5C136.1305,-14.5 171.7809,-14.5 200.7662,-14.5"/>
<text text-anchor="middle" x="154.0708" y="-26.5" font-family="Helvetica,sans-Serif" font-size="10.00" fill="#000000">component.h</text>
<text text-anchor="middle" x="154.0708" y="-16.5" font-family="Helvetica,sans-Serif" font-size="10.00" fill="#000000">shim.h</text>
</g>
<!-- Node1&#45;&gt;Node0 -->
<g id="edge1" class="edge">
<title>Node1&#45;&gt;Node0</title>
<path fill="none" stroke="#000000" d="M190.6086,-12.6241C188.032,-12.5768 185.4812,-12.5349 182.9795,-12.5 157.2854,-12.1411 150.8562,-12.1411 125.1621,-12.5 119.4439,-12.5799 113.4695,-12.6956 107.5156,-12.8318"/>
<polygon fill="#000000" stroke="#000000" points="190.5556,-16.1237 200.626,-12.8318 190.7007,-9.1252 190.5556,-16.1237"/>
</g>
</g>
</svg>
