<?xml version="1.0" encoding="UTF-8" standalone="no"?>
<!DOCTYPE svg PUBLIC "-//W3C//DTD SVG 1.1//EN"
 "http://www.w3.org/Graphics/SVG/1.1/DTD/svg11.dtd">
<!-- Generated by graphviz version 2.40.1 (20161225.0304)
 -->
<!-- Title: External Component Handler Pages: 1 -->
<svg width="398pt" height="74pt"
 viewBox="0.00 0.00 397.57 74.00" xmlns="http://www.w3.org/2000/svg" xmlns:xlink="http://www.w3.org/1999/xlink">
<g id="graph0" class="graph" transform="scale(1 1) rotate(0) translate(4 70)">
<title>External Component Handler</title>
<polygon fill="#ffffff" stroke="transparent" points="-4,4 -4,-70 393.5703,-70 393.5703,4 -4,4"/>
<!-- Node1 -->
<g id="node1" class="node">
<title>Node1</title>
<g id="a_node1"><a xlink:href="group__framework.html" target="_top" xlink:title="Base Framework">
<polygon fill="#ffffff" stroke="#000000" points="0,-21.5 0,-39.5 91.5762,-39.5 91.5762,-21.5 0,-21.5"/>
<text text-anchor="middle" x="45.7881" y="-27.5" font-family="Helvetica,sans-Serif" font-size="10.00" fill="#000000">Base Framework</text>
</a>
</g>
</g>
<!-- Node0 -->
<g id="node3" class="node">
<title>Node0</title>
<polygon fill="#bfbfbf" stroke="#000000" points="127.5762,-16.5 127.5762,-44.5 234.7383,-44.5 234.7383,-16.5 127.5762,-16.5"/>
<text text-anchor="start" x="135.5762" y="-32.5" font-family="Helvetica,sans-Serif" font-size="10.00" fill="#000000">External Component</text>
<text text-anchor="middle" x="181.1572" y="-22.5" font-family="Helvetica,sans-Serif" font-size="10.00" fill="#000000"> Handler</text>
</g>
<!-- Node1&#45;&gt;Node0 -->
<g id="edge1" class="edge">
<title>Node1&#45;&gt;Node0</title>
<path fill="none" stroke="#000000" d="M101.7946,-30.5C110.2706,-30.5 118.9985,-30.5 127.4249,-30.5"/>
<polygon fill="#000000" stroke="#000000" points="101.6179,-27.0001 91.6179,-30.5 101.6179,-34.0001 101.6179,-27.0001"/>
</g>
<!-- Node3 -->
<g id="node2" class="node">
<title>Node3</title>
<g id="a_node2"><a xlink:href="group__compnt__load.html" target="_top" xlink:title="Functions to execute an external component. ">
<polygon fill="#ffffff" stroke="#000000" points="276.5732,-37.5 276.5732,-65.5 383.7354,-65.5 383.7354,-37.5 276.5732,-37.5"/>
<text text-anchor="start" x="284.5732" y="-53.5" font-family="Helvetica,sans-Serif" font-size="10.00" fill="#000000">External Component</text>
<text text-anchor="middle" x="330.1543" y="-43.5" font-family="Helvetica,sans-Serif" font-size="10.00" fill="#000000"> Loader</text>
</a>
</g>
</g>
<!-- Node0&#45;&gt;Node3 -->
<g id="edge3" class="edge">
<title>Node0&#45;&gt;Node3</title>
<path fill="none" stroke="#000000" d="M244.9053,-39.4848C255.4127,-40.9657 266.2115,-42.4878 276.4419,-43.9296"/>
<polygon fill="#000000" stroke="#000000" points="245.3392,-36.0115 234.9486,-38.0815 244.3622,-42.9429 245.3392,-36.0115"/>
</g>
<!-- Node2 -->
<g id="node4" class="node">
<title>Node2</title>
<g id="a_node4"><a xlink:href="group__compnt__event.html" target="_top" xlink:title="Functions to manage events for external components. ">
<polygon fill="#ffffff" stroke="#000000" points="270.7383,-.5 270.7383,-18.5 389.5703,-18.5 389.5703,-.5 270.7383,-.5"/>
<text text-anchor="middle" x="330.1543" y="-6.5" font-family="Helvetica,sans-Serif" font-size="10.00" fill="#000000">External Event Handler</text>
</a>
</g>
</g>
<!-- Node0&#45;&gt;Node2 -->
<g id="edge2" class="edge">
<title>Node0&#45;&gt;Node2</title>
<path fill="none" stroke="#000000" d="M244.8692,-21.5203C253.4195,-20.3152 262.1635,-19.0828 270.6377,-17.8884"/>
<polygon fill="#000000" stroke="#000000" points="244.3622,-18.0571 234.9486,-22.9185 245.3392,-24.9885 244.3622,-18.0571"/>
</g>
</g>
</svg>
