<?xml version="1.0" encoding="UTF-8" standalone="no"?>
<!DOCTYPE svg PUBLIC "-//W3C//DTD SVG 1.1//EN"
 "http://www.w3.org/Graphics/SVG/1.1/DTD/svg11.dtd">
<!-- Generated by graphviz version 2.40.1 (20161225.0304)
 -->
<!-- Title: External Component Handler Pages: 1 -->
<svg width="414pt" height="111pt"
 viewBox="0.00 0.00 414.25 111.00" xmlns="http://www.w3.org/2000/svg" xmlns:xlink="http://www.w3.org/1999/xlink">
<g id="graph0" class="graph" transform="scale(1 1) rotate(0) translate(4 107)">
<title>External Component Handler</title>
<polygon fill="#ffffff" stroke="transparent" points="-4,4 -4,-107 410.2549,-107 410.2549,4 -4,4"/>
<!-- Node1 -->
<g id="node1" class="node">
<title>Node1</title>
<g id="a_node1"><a xlink:href="group__framework.html" target="_top" xlink:title="Base Framework">
<polygon fill="#ffffff" stroke="#000000" points="0,-37.5 0,-55.5 91.5762,-55.5 91.5762,-37.5 0,-37.5"/>
<text text-anchor="middle" x="45.7881" y="-43.5" font-family="Helvetica,sans-Serif" font-size="10.00" fill="#000000">Base Framework</text>
</a>
</g>
</g>
<!-- Node0 -->
<g id="node3" class="node">
<title>Node0</title>
<polygon fill="#bfbfbf" stroke="#000000" points="127.5762,-32.5 127.5762,-60.5 234.7383,-60.5 234.7383,-32.5 127.5762,-32.5"/>
<text text-anchor="start" x="135.5762" y="-48.5" font-family="Helvetica,sans-Serif" font-size="10.00" fill="#000000">External Component</text>
<text text-anchor="middle" x="181.1572" y="-38.5" font-family="Helvetica,sans-Serif" font-size="10.00" fill="#000000"> Handler</text>
</g>
<!-- Node1&#45;&gt;Node0 -->
<g id="edge1" class="edge">
<title>Node1&#45;&gt;Node0</title>
<path fill="none" stroke="#000000" d="M101.7946,-46.5C110.2706,-46.5 118.9985,-46.5 127.4249,-46.5"/>
<polygon fill="#000000" stroke="#000000" points="101.6179,-43.0001 91.6179,-46.5 101.6179,-50.0001 101.6179,-43.0001"/>
</g>
<!-- Node4 -->
<g id="node2" class="node">
<title>Node4</title>
<g id="a_node2"><a xlink:href="group__compnt__load.html" target="_top" xlink:title="Functions to execute an external component. ">
<polygon fill="#ffffff" stroke="#000000" points="284.9155,-74.5 284.9155,-102.5 392.0776,-102.5 392.0776,-74.5 284.9155,-74.5"/>
<text text-anchor="start" x="292.9155" y="-90.5" font-family="Helvetica,sans-Serif" font-size="10.00" fill="#000000">External Component</text>
<text text-anchor="middle" x="338.4966" y="-80.5" font-family="Helvetica,sans-Serif" font-size="10.00" fill="#000000"> Loader</text>
</a>
</g>
</g>
<!-- Node0&#45;&gt;Node4 -->
<g id="edge4" class="edge">
<title>Node0&#45;&gt;Node4</title>
<path fill="none" stroke="#000000" d="M243.9423,-63.2598C257.8175,-66.9636 272.3807,-70.8511 285.8066,-74.435"/>
<polygon fill="#000000" stroke="#000000" points="244.5511,-59.7998 233.9867,-60.6022 242.7456,-66.563 244.5511,-59.7998"/>
</g>
<!-- Node3 -->
<g id="node4" class="node">
<title>Node3</title>
<g id="a_node4"><a xlink:href="group__compnt__event.html" target="_top" xlink:title="Functions to manage events for external components. ">
<polygon fill="#ffffff" stroke="#000000" points="271.5732,-37.5 271.5732,-55.5 405.4199,-55.5 405.4199,-37.5 271.5732,-37.5"/>
<text text-anchor="middle" x="338.4966" y="-43.5" font-family="Helvetica,sans-Serif" font-size="10.00" fill="#000000">Component Event Handler</text>
</a>
</g>
</g>
<!-- Node0&#45;&gt;Node3 -->
<g id="edge3" class="edge">
<title>Node0&#45;&gt;Node3</title>
<path fill="none" stroke="#000000" d="M244.9493,-46.5C253.6618,-46.5 262.627,-46.5 271.3962,-46.5"/>
<polygon fill="#000000" stroke="#000000" points="244.8645,-43.0001 234.8644,-46.5 244.8644,-50.0001 244.8645,-43.0001"/>
</g>
<!-- Node2 -->
<g id="node5" class="node">
<title>Node2</title>
<g id="a_node5"><a xlink:href="group__compnt__alt.html" target="_top" xlink:title="Functions to convert CLI messages to logging messages. ">
<polygon fill="#ffffff" stroke="#000000" points="270.7383,-.5 270.7383,-18.5 406.2549,-18.5 406.2549,-.5 270.7383,-.5"/>
<text text-anchor="middle" x="338.4966" y="-6.5" font-family="Helvetica,sans-Serif" font-size="10.00" fill="#000000">Component CLI Alternative</text>
</a>
</g>
</g>
<!-- Node0&#45;&gt;Node2 -->
<g id="edge2" class="edge">
<title>Node0&#45;&gt;Node2</title>
<path fill="none" stroke="#000000" d="M244.7943,-31.5351C263.4699,-27.1433 283.3195,-22.4755 299.9189,-18.5719"/>
<polygon fill="#000000" stroke="#000000" points="243.7977,-28.1739 234.8644,-33.8702 245.4001,-34.988 243.7977,-28.1739"/>
</g>
</g>
</svg>
