<?xml version="1.0" encoding="UTF-8" standalone="no"?>
<!DOCTYPE svg PUBLIC "-//W3C//DTD SVG 1.1//EN"
 "http://www.w3.org/Graphics/SVG/1.1/DTD/svg11.dtd">
<!-- Generated by graphviz version 2.40.1 (20161225.0304)
 -->
<!-- Title: Component Management Pages: 1 -->
<svg width="322pt" height="31pt"
 viewBox="0.00 0.00 322.24 31.16" xmlns="http://www.w3.org/2000/svg" xmlns:xlink="http://www.w3.org/1999/xlink">
<g id="graph0" class="graph" transform="scale(1 1) rotate(0) translate(4 27.1568)">
<title>Component Management</title>
<polygon fill="#ffffff" stroke="transparent" points="-4,4 -4,-27.1568 318.2402,-27.1568 318.2402,4 -4,4"/>
<!-- Node1 -->
<g id="node1" class="node">
<title>Node1</title>
<g id="a_node1"><a xlink:href="group__framework.html" target="_top" xlink:title="Base Framework">
<polygon fill="#ffffff" stroke="#000000" points="0,-4.6568 0,-22.6568 91.5762,-22.6568 91.5762,-4.6568 0,-4.6568"/>
<text text-anchor="middle" x="45.7881" y="-10.6568" font-family="Helvetica,sans-Serif" font-size="10.00" fill="#000000">Base Framework</text>
</a>
</g>
</g>
<!-- Node0 -->
<g id="node2" class="node">
<title>Node0</title>
<polygon fill="#bfbfbf" stroke="#000000" points="185.3936,-4.6568 185.3936,-22.6568 314.2402,-22.6568 314.2402,-4.6568 185.3936,-4.6568"/>
<text text-anchor="middle" x="249.8169" y="-10.6568" font-family="Helvetica,sans-Serif" font-size="10.00" fill="#000000">Component Management</text>
</g>
<!-- Node1&#45;&gt;Node0 -->
<g id="edge1" class="edge">
<title>Node1&#45;&gt;Node0</title>
<path fill="none" stroke="#000000" d="M101.8462,-13.6568C127.7111,-13.6568 158.5588,-13.6568 185.3785,-13.6568"/>
<polygon fill="#000000" stroke="#000000" points="101.8306,-10.1569 91.8305,-13.6568 101.8305,-17.1569 101.8306,-10.1569"/>
</g>
<!-- Node0&#45;&gt;Node1 -->
<g id="edge2" class="edge">
<title>Node0&#45;&gt;Node1</title>
<path fill="none" stroke="#006400" stroke-dasharray="5,2" d="M195.4052,-4.6013C186.0857,-3.3757 176.4799,-2.3148 167.3936,-1.6568 141.764,.1991 135.1618,.7289 109.5762,-1.6568 102.5076,-2.3159 95.055,-3.3774 87.8354,-4.6032"/>
<text text-anchor="middle" x="138.4849" y="-3.6568" font-family="Helvetica,sans-Serif" font-size="10.00" fill="#000000">component.h</text>
</g>
</g>
</svg>
