<?xml version="1.0" encoding="UTF-8" standalone="no"?>
<!DOCTYPE svg PUBLIC "-//W3C//DTD SVG 1.1//EN"
 "http://www.w3.org/Graphics/SVG/1.1/DTD/svg11.dtd">
<!-- Generated by graphviz version 2.40.1 (20161225.0304)
 -->
<!-- Title: External AppEvent Handler Pages: 1 -->
<svg width="543pt" height="150pt"
 viewBox="0.00 0.00 542.60 150.00" xmlns="http://www.w3.org/2000/svg" xmlns:xlink="http://www.w3.org/1999/xlink">
<g id="graph0" class="graph" transform="scale(1 1) rotate(0) translate(4 146)">
<title>External AppEvent Handler</title>
<polygon fill="#ffffff" stroke="transparent" points="-4,4 -4,-146 538.5986,-146 538.5986,4 -4,4"/>
<!-- Node2 -->
<g id="node1" class="node">
<title>Node2</title>
<g id="a_node1"><a xlink:href="group__ev__msg.html" target="_top" xlink:title="Functions to handle events between the Barista NOS and external components. ">
<polygon fill="#ffffff" stroke="#000000" points="408.2593,-123.5 408.2593,-141.5 527.0913,-141.5 527.0913,-123.5 408.2593,-123.5"/>
<text text-anchor="middle" x="467.6753" y="-129.5" font-family="Helvetica,sans-Serif" font-size="10.00" fill="#000000">External Event Handler</text>
</a>
</g>
</g>
<!-- Node0 -->
<g id="node2" class="node">
<title>Node0</title>
<polygon fill="#bfbfbf" stroke="#000000" points="168.0684,-58.5 168.0684,-76.5 304.1465,-76.5 304.1465,-58.5 168.0684,-58.5"/>
<text text-anchor="middle" x="236.1074" y="-64.5" font-family="Helvetica,sans-Serif" font-size="10.00" fill="#000000">External AppEvent Handler</text>
</g>
<!-- Node0&#45;&gt;Node2 -->
<g id="edge2" class="edge">
<title>Node0&#45;&gt;Node2</title>
<path fill="none" stroke="#ffa500" stroke-dasharray="5,2" d="M254.137,-76.6161C271.2541,-84.9401 297.8997,-97.0499 322.1465,-104.5 349.9378,-113.0392 381.5493,-119.4953 408.1937,-124.0437"/>
<text text-anchor="middle" x="352.4492" y="-130.5" font-family="Helvetica,sans-Serif" font-size="10.00" fill="#000000">_json_header</text>
<text text-anchor="middle" x="352.4492" y="-120.5" font-family="Helvetica,sans-Serif" font-size="10.00" fill="#000000">_buffer_t</text>
</g>
<!-- Node3 -->
<g id="node3" class="node">
<title>Node3</title>
<g id="a_node3"><a xlink:href="group__app__event.html" target="_top" xlink:title="Functions to manage app events for external applications. ">
<polygon fill="#ffffff" stroke="#000000" points="402.1411,-80.5 402.1411,-98.5 533.2095,-98.5 533.2095,-80.5 402.1411,-80.5"/>
<text text-anchor="middle" x="467.6753" y="-86.5" font-family="Helvetica,sans-Serif" font-size="10.00" fill="#000000">Application Event Handler</text>
</a>
</g>
</g>
<!-- Node0&#45;&gt;Node3 -->
<g id="edge3" class="edge">
<title>Node0&#45;&gt;Node3</title>
<path fill="none" stroke="#ffa500" stroke-dasharray="5,2" d="M304.333,-73.9817C335.1511,-76.9096 371.41,-80.3544 401.927,-83.2536"/>
<text text-anchor="middle" x="352.4492" y="-92.5" font-family="Helvetica,sans-Serif" font-size="10.00" fill="#000000">_json_header</text>
<text text-anchor="middle" x="352.4492" y="-82.5" font-family="Helvetica,sans-Serif" font-size="10.00" fill="#000000">_buffer_t</text>
</g>
<!-- Node4 -->
<g id="node4" class="node">
<title>Node4</title>
<g id="a_node4"><a xlink:href="group__compnt__event.html" target="_top" xlink:title="Functions to manage events for external components. ">
<polygon fill="#ffffff" stroke="#000000" points="400.752,-37.5 400.752,-55.5 534.5986,-55.5 534.5986,-37.5 400.752,-37.5"/>
<text text-anchor="middle" x="467.6753" y="-43.5" font-family="Helvetica,sans-Serif" font-size="10.00" fill="#000000">Component Event Handler</text>
</a>
</g>
</g>
<!-- Node0&#45;&gt;Node4 -->
<g id="edge4" class="edge">
<title>Node0&#45;&gt;Node4</title>
<path fill="none" stroke="#ffa500" stroke-dasharray="5,2" d="M267.2785,-58.4974C283.4894,-54.265 303.7187,-49.6778 322.1465,-47.5 347.6143,-44.4902 375.764,-43.7099 400.4654,-43.8643"/>
<text text-anchor="middle" x="352.4492" y="-59.5" font-family="Helvetica,sans-Serif" font-size="10.00" fill="#000000">_json_header</text>
<text text-anchor="middle" x="352.4492" y="-49.5" font-family="Helvetica,sans-Serif" font-size="10.00" fill="#000000">_buffer_t</text>
</g>
<!-- Node5 -->
<g id="node5" class="node">
<title>Node5</title>
<g id="a_node5"><a xlink:href="group__conn.html" target="_top" xlink:title="(Base) packet I/O engine ">
<polygon fill="#ffffff" stroke="#000000" points="419.375,-.5 419.375,-18.5 515.9756,-18.5 515.9756,-.5 419.375,-.5"/>
<text text-anchor="middle" x="467.6753" y="-6.5" font-family="Helvetica,sans-Serif" font-size="10.00" fill="#000000">Packet I/O Engine</text>
</a>
</g>
</g>
<!-- Node0&#45;&gt;Node5 -->
<g id="edge5" class="edge">
<title>Node0&#45;&gt;Node5</title>
<path fill="none" stroke="#ffa500" stroke-dasharray="5,2" d="M253.4088,-58.4488C270.4405,-49.93 297.4191,-37.4693 322.1465,-30.5 353.8416,-21.5668 390.5469,-16.3043 419.165,-13.2813"/>
<text text-anchor="middle" x="352.4492" y="-32.5" font-family="Helvetica,sans-Serif" font-size="10.00" fill="#000000">_buffer_t</text>
</g>
<!-- Node1 -->
<g id="node6" class="node">
<title>Node1</title>
<g id="a_node6"><a xlink:href="group__app__events.html" target="_top" xlink:title="Functions to manage app events for applications. ">
<polygon fill="#ffffff" stroke="#000000" points="0,-58.5 0,-76.5 131.0684,-76.5 131.0684,-58.5 0,-58.5"/>
<text text-anchor="middle" x="65.5342" y="-64.5" font-family="Helvetica,sans-Serif" font-size="10.00" fill="#000000">Application Event Handler</text>
</a>
</g>
</g>
<!-- Node1&#45;&gt;Node0 -->
<g id="edge1" class="edge">
<title>Node1&#45;&gt;Node0</title>
<path fill="none" stroke="#000000" d="M141.6318,-67.5C150.3473,-67.5 159.1922,-67.5 167.7969,-67.5"/>
<polygon fill="#000000" stroke="#000000" points="141.4823,-64.0001 131.4822,-67.5 141.4822,-71.0001 141.4823,-64.0001"/>
</g>
</g>
</svg>
