<?xml version="1.0" encoding="UTF-8" standalone="no"?>
<!DOCTYPE svg PUBLIC "-//W3C//DTD SVG 1.1//EN"
 "http://www.w3.org/Graphics/SVG/1.1/DTD/svg11.dtd">
<!-- Generated by graphviz version 2.40.1 (20161225.0304)
 -->
<!-- Title: External Application Loader Pages: 1 -->
<svg width="308pt" height="43pt"
 viewBox="0.00 0.00 307.83 42.50" xmlns="http://www.w3.org/2000/svg" xmlns:xlink="http://www.w3.org/1999/xlink">
<g id="graph0" class="graph" transform="scale(1 1) rotate(0) translate(4 38.5)">
<title>External Application Loader</title>
<polygon fill="#ffffff" stroke="transparent" points="-4,4 -4,-38.5 303.8262,-38.5 303.8262,4 -4,4"/>
<!-- Node0 -->
<g id="node1" class="node">
<title>Node0</title>
<polygon fill="#bfbfbf" stroke="#000000" points="0,-.5 0,-28.5 103.8369,-28.5 103.8369,-.5 0,-.5"/>
<text text-anchor="start" x="8" y="-16.5" font-family="Helvetica,sans-Serif" font-size="10.00" fill="#000000">External Application</text>
<text text-anchor="middle" x="51.9185" y="-6.5" font-family="Helvetica,sans-Serif" font-size="10.00" fill="#000000"> Loader</text>
</g>
<!-- Node1 -->
<g id="node2" class="node">
<title>Node1</title>
<g id="a_node2"><a xlink:href="group__app__shim.html" target="_top" xlink:title="External Application\l Handler">
<polygon fill="#ffffff" stroke="#000000" points="195.9893,-.5 195.9893,-28.5 299.8262,-28.5 299.8262,-.5 195.9893,-.5"/>
<text text-anchor="start" x="203.9893" y="-16.5" font-family="Helvetica,sans-Serif" font-size="10.00" fill="#000000">External Application</text>
<text text-anchor="middle" x="247.9077" y="-6.5" font-family="Helvetica,sans-Serif" font-size="10.00" fill="#000000"> Handler</text>
</a>
</g>
</g>
<!-- Node0&#45;&gt;Node1 -->
<g id="edge2" class="edge">
<title>Node0&#45;&gt;Node1</title>
<path fill="none" stroke="#006400" stroke-dasharray="5,2" d="M103.9254,-14.5C132.2764,-14.5 167.2689,-14.5 195.6577,-14.5"/>
<text text-anchor="middle" x="149.9131" y="-26.5" font-family="Helvetica,sans-Serif" font-size="10.00" fill="#000000">application.h</text>
<text text-anchor="middle" x="149.9131" y="-16.5" font-family="Helvetica,sans-Serif" font-size="10.00" fill="#000000">shim.h</text>
</g>
<!-- Node1&#45;&gt;Node0 -->
<g id="edge1" class="edge">
<title>Node1&#45;&gt;Node0</title>
<path fill="none" stroke="#000000" d="M185.7697,-12.6303C183.1412,-12.5804 180.5392,-12.5365 177.9893,-12.5 153.0352,-12.1432 146.791,-12.1432 121.8369,-12.5 116.0086,-12.5833 109.9078,-12.7057 103.8417,-12.8496"/>
<polygon fill="#000000" stroke="#000000" points="185.9117,-16.1341 195.9845,-12.8496 186.062,-9.1357 185.9117,-16.1341"/>
</g>
</g>
</svg>
