<?xml version="1.0" encoding="UTF-8" standalone="no"?>
<!DOCTYPE svg PUBLIC "-//W3C//DTD SVG 1.1//EN"
 "http://www.w3.org/Graphics/SVG/1.1/DTD/svg11.dtd">
<!-- Generated by graphviz version 2.40.1 (20161225.0304)
 -->
<!-- Title: Application Event Handler Pages: 1 -->
<svg width="373pt" height="75pt"
 viewBox="0.00 0.00 372.83 74.75" xmlns="http://www.w3.org/2000/svg" xmlns:xlink="http://www.w3.org/1999/xlink">
<g id="graph0" class="graph" transform="scale(1 1) rotate(0) translate(4 70.7536)">
<title>Application Event Handler</title>
<polygon fill="#ffffff" stroke="transparent" points="-4,4 -4,-70.7536 368.8311,-70.7536 368.8311,4 -4,4"/>
<!-- Node1 -->
<g id="node1" class="node">
<title>Node1</title>
<g id="a_node1"><a xlink:href="group__framework.html" target="_top" xlink:title="Base Framework">
<polygon fill="#ffffff" stroke="#000000" points="0,-34.0333 0,-52.0333 91.5762,-52.0333 91.5762,-34.0333 0,-34.0333"/>
<text text-anchor="middle" x="45.7881" y="-40.0333" font-family="Helvetica,sans-Serif" font-size="10.00" fill="#000000">Base Framework</text>
</a>
</g>
</g>
<!-- Node0 -->
<g id="node2" class="node">
<title>Node0</title>
<polygon fill="#bfbfbf" stroke="#000000" points="233.7627,-34.0333 233.7627,-52.0333 364.8311,-52.0333 364.8311,-34.0333 233.7627,-34.0333"/>
<text text-anchor="middle" x="299.2969" y="-40.0333" font-family="Helvetica,sans-Serif" font-size="10.00" fill="#000000">Application Event Handler</text>
</g>
<!-- Node1&#45;&gt;Node0 -->
<g id="edge1" class="edge">
<title>Node1&#45;&gt;Node0</title>
<path fill="none" stroke="#000000" d="M80.0773,-55.2254C89.5142,-58.0346 99.8356,-60.6134 109.5762,-62.0333 156.2766,-68.8406 168.8634,-67.2997 215.7627,-62.0333 233.0553,-60.0915 251.9898,-55.9559 267.4533,-52.0374"/>
<polygon fill="#000000" stroke="#000000" points="80.8432,-51.7972 70.2536,-52.1306 78.7398,-58.4737 80.8432,-51.7972"/>
</g>
<!-- Node0&#45;&gt;Node1 -->
<g id="edge2" class="edge">
<title>Node0&#45;&gt;Node1</title>
<path fill="none" stroke="#006400" stroke-dasharray="5,2" d="M282.9634,-33.8887C266.5612,-25.2688 240.2735,-12.9607 215.7627,-8.0333 169.4943,1.268 155.2923,3.6847 109.5762,-8.0333 90.2429,-12.9888 70.4759,-25.1596 58.1751,-33.7516"/>
<text text-anchor="middle" x="162.6694" y="-50.0333" font-family="Helvetica,sans-Serif" font-size="10.00" fill="#000000">app_event.h</text>
<text text-anchor="middle" x="162.6694" y="-40.0333" font-family="Helvetica,sans-Serif" font-size="10.00" fill="#000000">app_event_json.h</text>
<text text-anchor="middle" x="162.6694" y="-30.0333" font-family="Helvetica,sans-Serif" font-size="10.00" fill="#000000">app_event_msg_pack.h</text>
<text text-anchor="middle" x="162.6694" y="-20.0333" font-family="Helvetica,sans-Serif" font-size="10.00" fill="#000000">app_event.h</text>
<text text-anchor="middle" x="162.6694" y="-10.0333" font-family="Helvetica,sans-Serif" font-size="10.00" fill="#000000">app_event_json.h</text>
</g>
</g>
</svg>
