<?xml version="1.0" encoding="UTF-8" standalone="no"?>
<!DOCTYPE svg PUBLIC "-//W3C//DTD SVG 1.1//EN"
 "http://www.w3.org/Graphics/SVG/1.1/DTD/svg11.dtd">
<!-- Generated by graphviz version 2.40.1 (20161225.0304)
 -->
<!-- Title: AppEvent&#45;to&#45;JSON convertor Pages: 1 -->
<svg width="321pt" height="64pt"
 viewBox="0.00 0.00 320.57 64.00" xmlns="http://www.w3.org/2000/svg" xmlns:xlink="http://www.w3.org/1999/xlink">
<g id="graph0" class="graph" transform="scale(1 1) rotate(0) translate(4 60)">
<title>AppEvent&#45;to&#45;JSON convertor</title>
<polygon fill="#ffffff" stroke="transparent" points="-4,4 -4,-60 316.5654,-60 316.5654,4 -4,4"/>
<!-- Node1 -->
<g id="node1" class="node">
<title>Node1</title>
<g id="a_node1"><a xlink:href="group__framework.html" target="_top" xlink:title="Base Framework">
<polygon fill="#ffffff" stroke="#000000" points="19.7461,-37.5 19.7461,-55.5 111.3223,-55.5 111.3223,-37.5 19.7461,-37.5"/>
<text text-anchor="middle" x="65.5342" y="-43.5" font-family="Helvetica,sans-Serif" font-size="10.00" fill="#000000">Base Framework</text>
</a>
</g>
</g>
<!-- Node0 -->
<g id="node2" class="node">
<title>Node0</title>
<polygon fill="#bfbfbf" stroke="#000000" points="167.0684,-18.5 167.0684,-36.5 312.5654,-36.5 312.5654,-18.5 167.0684,-18.5"/>
<text text-anchor="middle" x="239.8169" y="-24.5" font-family="Helvetica,sans-Serif" font-size="10.00" fill="#000000">AppEvent&#45;to&#45;JSON convertor</text>
</g>
<!-- Node1&#45;&gt;Node0 -->
<g id="edge1" class="edge">
<title>Node1&#45;&gt;Node0</title>
<path fill="none" stroke="#000000" d="M121.5988,-40.3879C136.0651,-38.8108 151.8462,-37.0904 167.0294,-35.4352"/>
<polygon fill="#000000" stroke="#000000" points="120.8867,-36.9447 111.3249,-41.508 121.6454,-43.9035 120.8867,-36.9447"/>
</g>
<!-- Node2 -->
<g id="node3" class="node">
<title>Node2</title>
<g id="a_node3"><a xlink:href="group__app__events.html" target="_top" xlink:title="Functions to manage app events for applications. ">
<polygon fill="#ffffff" stroke="#000000" points="0,-.5 0,-18.5 131.0684,-18.5 131.0684,-.5 0,-.5"/>
<text text-anchor="middle" x="65.5342" y="-6.5" font-family="Helvetica,sans-Serif" font-size="10.00" fill="#000000">Application Event Handler</text>
</a>
</g>
</g>
<!-- Node2&#45;&gt;Node0 -->
<g id="edge2" class="edge">
<title>Node2&#45;&gt;Node0</title>
<path fill="none" stroke="#000000" d="M141.566,-17.3526C149.9558,-18.2191 158.4852,-19.1 166.8363,-19.9625"/>
<polygon fill="#000000" stroke="#000000" points="141.7297,-13.851 131.423,-16.305 141.0105,-20.8139 141.7297,-13.851"/>
</g>
</g>
</svg>
