<?xml version="1.0" encoding="UTF-8" standalone="no"?>
<!DOCTYPE svg PUBLIC "-//W3C//DTD SVG 1.1//EN"
 "http://www.w3.org/Graphics/SVG/1.1/DTD/svg11.dtd">
<!-- Generated by graphviz version 2.40.1 (20161225.0304)
 -->
<!-- Title: util/include/hash.h Pages: 1 -->
<svg width="2063pt" height="212pt"
 viewBox="0.00 0.00 2062.60 212.00" xmlns="http://www.w3.org/2000/svg" xmlns:xlink="http://www.w3.org/1999/xlink">
<g id="graph0" class="graph" transform="scale(1 1) rotate(0) translate(4 208)">
<title>util/include/hash.h</title>
<polygon fill="#ffffff" stroke="transparent" points="-4,4 -4,-208 2058.5981,-208 2058.5981,4 -4,4"/>
<!-- Node36 -->
<g id="node1" class="node">
<title>Node36</title>
<polygon fill="#bfbfbf" stroke="#000000" points="1263.6133,-185.5 1263.6133,-203.5 1359.667,-203.5 1359.667,-185.5 1263.6133,-185.5"/>
<text text-anchor="middle" x="1311.6401" y="-191.5" font-family="Helvetica,sans-Serif" font-size="10.00" fill="#000000">util/include/hash.h</text>
</g>
<!-- Node37 -->
<g id="node2" class="node">
<title>Node37</title>
<g id="a_node2"><a xlink:href="src_2include_2application_8h.html" target="_top" xlink:title="src/include/application.h">
<polygon fill="#ffffff" stroke="#000000" points="402.2759,-125.5 402.2759,-143.5 525.0044,-143.5 525.0044,-125.5 402.2759,-125.5"/>
<text text-anchor="middle" x="463.6401" y="-131.5" font-family="Helvetica,sans-Serif" font-size="10.00" fill="#000000">src/include/application.h</text>
</a>
</g>
</g>
<!-- Node36&#45;&gt;Node37 -->
<g id="edge1" class="edge">
<title>Node36&#45;&gt;Node37</title>
<path fill="none" stroke="#191970" d="M1253.1049,-190.3584C1098.9359,-179.4502 682.7632,-150.004 525.2125,-138.8565"/>
<polygon fill="#191970" stroke="#191970" points="1253.0886,-193.8659 1263.3107,-191.0805 1253.5827,-186.8833 1253.0886,-193.8659"/>
</g>
<!-- Node39 -->
<g id="node4" class="node">
<title>Node39</title>
<g id="a_node4"><a xlink:href="applications_2include_2rbac_8h.html" target="_top" xlink:title="applications/include\l/rbac.h">
<polygon fill="#ffffff" stroke="#000000" points="0,-55.5 0,-83.5 103.2803,-83.5 103.2803,-55.5 0,-55.5"/>
<text text-anchor="start" x="8" y="-71.5" font-family="Helvetica,sans-Serif" font-size="10.00" fill="#000000">applications/include</text>
<text text-anchor="middle" x="51.6401" y="-61.5" font-family="Helvetica,sans-Serif" font-size="10.00" fill="#000000">/rbac.h</text>
</a>
</g>
</g>
<!-- Node36&#45;&gt;Node39 -->
<g id="edge11" class="edge">
<title>Node36&#45;&gt;Node39</title>
<path fill="none" stroke="#191970" d="M1253.308,-192.9665C1078.5115,-188.1566 560.8006,-172.2875 393.6401,-149 287.2292,-134.1757 165.2331,-102.0807 99.5507,-83.5228"/>
<polygon fill="#191970" stroke="#191970" points="1253.2484,-196.4661 1263.3403,-193.2408 1253.4397,-189.4687 1253.2484,-196.4661"/>
</g>
<!-- Node41 -->
<g id="node6" class="node">
<title>Node41</title>
<g id="a_node6"><a xlink:href="ext__apps_2rbac_2src_2include_2rbac_8h.html" target="_top" xlink:title="ext_apps/rbac/src/include\l/rbac.h">
<polygon fill="#ffffff" stroke="#000000" points="525.9434,-55.5 525.9434,-83.5 655.3369,-83.5 655.3369,-55.5 525.9434,-55.5"/>
<text text-anchor="start" x="533.9434" y="-71.5" font-family="Helvetica,sans-Serif" font-size="10.00" fill="#000000">ext_apps/rbac/src/include</text>
<text text-anchor="middle" x="590.6401" y="-61.5" font-family="Helvetica,sans-Serif" font-size="10.00" fill="#000000">/rbac.h</text>
</a>
</g>
</g>
<!-- Node36&#45;&gt;Node41 -->
<g id="edge29" class="edge">
<title>Node36&#45;&gt;Node41</title>
<path fill="none" stroke="#191970" d="M1253.2758,-191.2648C1138.4509,-184.5741 887.0303,-168.2227 802.6401,-149 735.3769,-133.6785 660.7033,-102.0013 620.3916,-83.5942"/>
<polygon fill="#191970" stroke="#191970" points="1253.1054,-194.7607 1263.2908,-191.844 1253.5096,-187.7724 1253.1054,-194.7607"/>
</g>
<!-- Node46 -->
<g id="node11" class="node">
<title>Node46</title>
<g id="a_node11"><a xlink:href="applications_2include_2l2__learning_8h.html" target="_top" xlink:title="applications/include\l/l2_learning.h">
<polygon fill="#ffffff" stroke="#000000" points="954,-120.5 954,-148.5 1057.2803,-148.5 1057.2803,-120.5 954,-120.5"/>
<text text-anchor="start" x="962" y="-136.5" font-family="Helvetica,sans-Serif" font-size="10.00" fill="#000000">applications/include</text>
<text text-anchor="middle" x="1005.6401" y="-126.5" font-family="Helvetica,sans-Serif" font-size="10.00" fill="#000000">/l2_learning.h</text>
</a>
</g>
</g>
<!-- Node36&#45;&gt;Node46 -->
<g id="edge10" class="edge">
<title>Node36&#45;&gt;Node46</title>
<path fill="none" stroke="#191970" d="M1253.22,-184.4933C1203.4815,-175.7723 1130.1935,-162.4462 1066.6401,-149 1063.6582,-148.3691 1060.5989,-147.7028 1057.5147,-147.0163"/>
<polygon fill="#191970" stroke="#191970" points="1252.7006,-187.9555 1263.1538,-186.2288 1253.9053,-181.06 1252.7006,-187.9555"/>
</g>
<!-- Node47 -->
<g id="node12" class="node">
<title>Node47</title>
<g id="a_node12"><a xlink:href="cac_8h.html" target="_top" xlink:title="components/include\l/cac.h">
<polygon fill="#ffffff" stroke="#000000" points="1075.1675,-120.5 1075.1675,-148.5 1180.1128,-148.5 1180.1128,-120.5 1075.1675,-120.5"/>
<text text-anchor="start" x="1083.1675" y="-136.5" font-family="Helvetica,sans-Serif" font-size="10.00" fill="#000000">components/include</text>
<text text-anchor="middle" x="1127.6401" y="-126.5" font-family="Helvetica,sans-Serif" font-size="10.00" fill="#000000">/cac.h</text>
</a>
</g>
</g>
<!-- Node36&#45;&gt;Node47 -->
<g id="edge12" class="edge">
<title>Node36&#45;&gt;Node47</title>
<path fill="none" stroke="#191970" d="M1274.0081,-182.2287C1243.9871,-172.4392 1201.9212,-158.7221 1170.5858,-148.504"/>
<polygon fill="#191970" stroke="#191970" points="1273.1021,-185.6146 1283.6945,-185.3873 1275.2723,-178.9595 1273.1021,-185.6146"/>
</g>
<!-- Node49 -->
<g id="node14" class="node">
<title>Node49</title>
<g id="a_node14"><a xlink:href="dit_8h.html" target="_top" xlink:title="components/include\l/dit.h">
<polygon fill="#ffffff" stroke="#000000" points="1198.1675,-120.5 1198.1675,-148.5 1303.1128,-148.5 1303.1128,-120.5 1198.1675,-120.5"/>
<text text-anchor="start" x="1206.1675" y="-136.5" font-family="Helvetica,sans-Serif" font-size="10.00" fill="#000000">components/include</text>
<text text-anchor="middle" x="1250.6401" y="-126.5" font-family="Helvetica,sans-Serif" font-size="10.00" fill="#000000">/dit.h</text>
</a>
</g>
</g>
<!-- Node36&#45;&gt;Node49 -->
<g id="edge14" class="edge">
<title>Node36&#45;&gt;Node49</title>
<path fill="none" stroke="#191970" d="M1295.1623,-178.2923C1285.8213,-169.1044 1274.2372,-157.7103 1265.2269,-148.8477"/>
<polygon fill="#191970" stroke="#191970" points="1292.7919,-180.8701 1302.3755,-185.3873 1297.7006,-175.8796 1292.7919,-180.8701"/>
</g>
<!-- Node51 -->
<g id="node16" class="node">
<title>Node51</title>
<g id="a_node16"><a xlink:href="host__mgmt_8h.html" target="_top" xlink:title="components/include\l/host_mgmt.h">
<polygon fill="#ffffff" stroke="#000000" points="1321.1675,-120.5 1321.1675,-148.5 1426.1128,-148.5 1426.1128,-120.5 1321.1675,-120.5"/>
<text text-anchor="start" x="1329.1675" y="-136.5" font-family="Helvetica,sans-Serif" font-size="10.00" fill="#000000">components/include</text>
<text text-anchor="middle" x="1373.6401" y="-126.5" font-family="Helvetica,sans-Serif" font-size="10.00" fill="#000000">/host_mgmt.h</text>
</a>
</g>
</g>
<!-- Node36&#45;&gt;Node51 -->
<g id="edge16" class="edge">
<title>Node36&#45;&gt;Node51</title>
<path fill="none" stroke="#191970" d="M1328.3881,-178.2923C1337.8823,-169.1044 1349.6562,-157.7103 1358.8142,-148.8477"/>
<polygon fill="#191970" stroke="#191970" points="1325.8087,-175.9179 1321.0566,-185.3873 1330.6766,-180.9482 1325.8087,-175.9179"/>
</g>
<!-- Node53 -->
<g id="node18" class="node">
<title>Node53</title>
<g id="a_node18"><a xlink:href="src_2include_2component_8h.html" target="_top" xlink:title="src/include/component.h">
<polygon fill="#ffffff" stroke="#000000" points="811.4434,-125.5 811.4434,-143.5 935.8369,-143.5 935.8369,-125.5 811.4434,-125.5"/>
<text text-anchor="middle" x="873.6401" y="-131.5" font-family="Helvetica,sans-Serif" font-size="10.00" fill="#000000">src/include/component.h</text>
</a>
</g>
</g>
<!-- Node36&#45;&gt;Node53 -->
<g id="edge18" class="edge">
<title>Node36&#45;&gt;Node53</title>
<path fill="none" stroke="#191970" d="M1253.0706,-188.665C1180.4633,-181.1037 1053.0372,-166.7603 944.6401,-149 935.0804,-147.4337 924.8481,-145.4978 915.2127,-143.5564"/>
<polygon fill="#191970" stroke="#191970" points="1253.0695,-192.1835 1263.3766,-189.731 1253.7898,-185.2206 1253.0695,-192.1835"/>
</g>
<!-- Node57 -->
<g id="node22" class="node">
<title>Node57</title>
<g id="a_node22"><a xlink:href="ext__apps_2shim_2include_2application_8h.html" target="_top" xlink:title="ext_apps/shim/include\l/application.h">
<polygon fill="#ffffff" stroke="#000000" points="1481.1675,-120.5 1481.1675,-148.5 1596.1128,-148.5 1596.1128,-120.5 1481.1675,-120.5"/>
<text text-anchor="start" x="1489.1675" y="-136.5" font-family="Helvetica,sans-Serif" font-size="10.00" fill="#000000">ext_apps/shim/include</text>
<text text-anchor="middle" x="1538.6401" y="-126.5" font-family="Helvetica,sans-Serif" font-size="10.00" fill="#000000">/application.h</text>
</a>
</g>
</g>
<!-- Node36&#45;&gt;Node57 -->
<g id="edge23" class="edge">
<title>Node36&#45;&gt;Node57</title>
<path fill="none" stroke="#191970" d="M1356.1479,-182.7358C1393.2942,-172.9174 1446.3276,-158.8998 1485.6582,-148.504"/>
<polygon fill="#191970" stroke="#191970" points="1354.8901,-179.448 1346.1166,-185.3873 1356.679,-186.2156 1354.8901,-179.448"/>
</g>
<!-- Node58 -->
<g id="node23" class="node">
<title>Node58</title>
<g id="a_node23"><a xlink:href="ext__apps_2shim_2include_2shim_8h.html" target="_top" xlink:title="ext_apps/shim/include\l/shim.h">
<polygon fill="#ffffff" stroke="#000000" points="1460.1675,-55.5 1460.1675,-83.5 1575.1128,-83.5 1575.1128,-55.5 1460.1675,-55.5"/>
<text text-anchor="start" x="1468.1675" y="-71.5" font-family="Helvetica,sans-Serif" font-size="10.00" fill="#000000">ext_apps/shim/include</text>
<text text-anchor="middle" x="1517.6401" y="-61.5" font-family="Helvetica,sans-Serif" font-size="10.00" fill="#000000">/shim.h</text>
</a>
</g>
</g>
<!-- Node36&#45;&gt;Node58 -->
<g id="edge25" class="edge">
<title>Node36&#45;&gt;Node58</title>
<path fill="none" stroke="#191970" d="M1357.2326,-182.5346C1381.3451,-175.0258 1410.8052,-163.913 1434.6401,-149 1463.7344,-130.7964 1491.2008,-101.1663 1506.0931,-83.6815"/>
<polygon fill="#191970" stroke="#191970" points="1356.1666,-179.2003 1347.5994,-185.4335 1358.1838,-185.9033 1356.1666,-179.2003"/>
</g>
<!-- Node59 -->
<g id="node24" class="node">
<title>Node59</title>
<g id="a_node24"><a xlink:href="ext__apps_2l2__learning_2src_2include_2l2__learning_8h.html" target="_top" xlink:title="ext_apps/l2_learning\l/src/include/l2_learning.h">
<polygon fill="#ffffff" stroke="#000000" points="1614.3301,-120.5 1614.3301,-148.5 1740.9502,-148.5 1740.9502,-120.5 1614.3301,-120.5"/>
<text text-anchor="start" x="1622.3301" y="-136.5" font-family="Helvetica,sans-Serif" font-size="10.00" fill="#000000">ext_apps/l2_learning</text>
<text text-anchor="middle" x="1677.6401" y="-126.5" font-family="Helvetica,sans-Serif" font-size="10.00" fill="#000000">/src/include/l2_learning.h</text>
</a>
</g>
</g>
<!-- Node36&#45;&gt;Node59 -->
<g id="edge26" class="edge">
<title>Node36&#45;&gt;Node59</title>
<path fill="none" stroke="#191970" d="M1369.6133,-186.231C1428.8083,-177.6156 1523.2981,-163.3877 1604.6401,-149 1607.6938,-148.4599 1610.8165,-147.8936 1613.9685,-147.3108"/>
<polygon fill="#191970" stroke="#191970" points="1369.0974,-182.7691 1359.7036,-187.6688 1370.1025,-189.6966 1369.0974,-182.7691"/>
</g>
<!-- Node62 -->
<g id="node27" class="node">
<title>Node62</title>
<g id="a_node27"><a xlink:href="ext__comps_2shim_2include_2component_8h.html" target="_top" xlink:title="ext_comps/shim/include\l/component.h">
<polygon fill="#ffffff" stroke="#000000" points="1796.2832,-120.5 1796.2832,-148.5 1918.9971,-148.5 1918.9971,-120.5 1796.2832,-120.5"/>
<text text-anchor="start" x="1804.2832" y="-136.5" font-family="Helvetica,sans-Serif" font-size="10.00" fill="#000000">ext_comps/shim/include</text>
<text text-anchor="middle" x="1857.6401" y="-126.5" font-family="Helvetica,sans-Serif" font-size="10.00" fill="#000000">/component.h</text>
</a>
</g>
</g>
<!-- Node36&#45;&gt;Node62 -->
<g id="edge30" class="edge">
<title>Node36&#45;&gt;Node62</title>
<path fill="none" stroke="#191970" d="M1370.1524,-190.6369C1459.4156,-184.3402 1634.8254,-170.3794 1782.6401,-149 1786.9715,-148.3735 1791.4325,-147.6676 1795.9176,-146.9132"/>
<polygon fill="#191970" stroke="#191970" points="1369.6935,-187.1603 1359.9618,-191.3488 1370.1814,-194.1433 1369.6935,-187.1603"/>
</g>
<!-- Node63 -->
<g id="node28" class="node">
<title>Node63</title>
<g id="a_node28"><a xlink:href="ext__comps_2shim_2include_2shim_8h.html" target="_top" xlink:title="ext_comps/shim/include\l/shim.h">
<polygon fill="#ffffff" stroke="#000000" points="1866.2832,-55.5 1866.2832,-83.5 1988.9971,-83.5 1988.9971,-55.5 1866.2832,-55.5"/>
<text text-anchor="start" x="1874.2832" y="-71.5" font-family="Helvetica,sans-Serif" font-size="10.00" fill="#000000">ext_comps/shim/include</text>
<text text-anchor="middle" x="1927.6401" y="-61.5" font-family="Helvetica,sans-Serif" font-size="10.00" fill="#000000">/shim.h</text>
</a>
</g>
</g>
<!-- Node36&#45;&gt;Node63 -->
<g id="edge34" class="edge">
<title>Node36&#45;&gt;Node63</title>
<path fill="none" stroke="#191970" d="M1370.1523,-192.3425C1473.0844,-187.9012 1682.0535,-175.8141 1749.6401,-149 1769.3879,-141.1653 1768.9858,-130.1674 1787.6401,-120 1815.886,-104.6048 1849.7704,-92.2399 1877.1285,-83.5989"/>
<polygon fill="#191970" stroke="#191970" points="1369.776,-188.8552 1359.9324,-192.7733 1370.0709,-195.849 1369.776,-188.8552"/>
</g>
<!-- Node66 -->
<g id="node31" class="node">
<title>Node66</title>
<g id="a_node31"><a xlink:href="hash_8c.html" target="_top" xlink:title="util/hash.c">
<polygon fill="#ffffff" stroke="#000000" points="1937.1279,-125.5 1937.1279,-143.5 1998.1523,-143.5 1998.1523,-125.5 1937.1279,-125.5"/>
<text text-anchor="middle" x="1967.6401" y="-131.5" font-family="Helvetica,sans-Serif" font-size="10.00" fill="#000000">util/hash.c</text>
</a>
</g>
</g>
<!-- Node36&#45;&gt;Node66 -->
<g id="edge35" class="edge">
<title>Node36&#45;&gt;Node66</title>
<path fill="none" stroke="#191970" d="M1370.02,-192.2283C1502.4352,-186.745 1822.2237,-171.5512 1927.6401,-149 1933.7076,-147.702 1940.1,-145.6947 1945.9507,-143.5832"/>
<polygon fill="#191970" stroke="#191970" points="1369.5304,-188.7453 1359.6823,-192.6523 1369.8174,-195.7394 1369.5304,-188.7453"/>
</g>
<!-- Node38 -->
<g id="node3" class="node">
<title>Node38</title>
<g id="a_node3"><a xlink:href="app__events_2app__event_8c.html" target="_top" xlink:title="app_events/app_event.c">
<polygon fill="#ffffff" stroke="#000000" points="121.1528,-60.5 121.1528,-78.5 246.1274,-78.5 246.1274,-60.5 121.1528,-60.5"/>
<text text-anchor="middle" x="183.6401" y="-66.5" font-family="Helvetica,sans-Serif" font-size="10.00" fill="#000000">app_events/app_event.c</text>
</a>
</g>
</g>
<!-- Node37&#45;&gt;Node38 -->
<g id="edge2" class="edge">
<title>Node37&#45;&gt;Node38</title>
<path fill="none" stroke="#191970" d="M414.9155,-123.1889C360.3429,-110.5203 272.9704,-90.2374 222.6926,-78.5658"/>
<polygon fill="#191970" stroke="#191970" points="414.1749,-126.61 424.7073,-125.462 415.7578,-119.7913 414.1749,-126.61"/>
</g>
<!-- Node37&#45;&gt;Node39 -->
<g id="edge3" class="edge">
<title>Node37&#45;&gt;Node39</title>
<path fill="none" stroke="#191970" d="M391.9778,-126.1178C320.8194,-117.342 208.761,-102.3 112.6401,-84 109.646,-83.43 106.5771,-82.8112 103.4856,-82.1611"/>
<polygon fill="#191970" stroke="#191970" points="391.8216,-129.6248 402.1731,-127.3668 392.6729,-122.6767 391.8216,-129.6248"/>
</g>
<!-- Node40 -->
<g id="node5" class="node">
<title>Node40</title>
<g id="a_node5"><a xlink:href="ext__apps_2shim_2app__event_8c.html" target="_top" xlink:title="ext_apps/shim/app_event.c">
<polygon fill="#ffffff" stroke="#000000" points="263.7686,-60.5 263.7686,-78.5 401.5117,-78.5 401.5117,-60.5 263.7686,-60.5"/>
<text text-anchor="middle" x="332.6401" y="-66.5" font-family="Helvetica,sans-Serif" font-size="10.00" fill="#000000">ext_apps/shim/app_event.c</text>
</a>
</g>
</g>
<!-- Node37&#45;&gt;Node40 -->
<g id="edge4" class="edge">
<title>Node37&#45;&gt;Node40</title>
<path fill="none" stroke="#191970" d="M436.2731,-120.9209C410.7295,-108.2466 373.314,-89.6817 351.1227,-78.6708"/>
<polygon fill="#191970" stroke="#191970" points="434.9115,-124.1525 445.4251,-125.462 438.0229,-117.8819 434.9115,-124.1525"/>
</g>
<!-- Node37&#45;&gt;Node41 -->
<g id="edge5" class="edge">
<title>Node37&#45;&gt;Node41</title>
<path fill="none" stroke="#191970" d="M490.4253,-120.7911C511.7003,-109.9023 541.3511,-94.7267 562.8774,-83.7093"/>
<polygon fill="#191970" stroke="#191970" points="488.6061,-117.7903 481.2989,-125.462 491.7954,-124.0216 488.6061,-117.7903"/>
</g>
<!-- Node44 -->
<g id="node9" class="node">
<title>Node44</title>
<g id="a_node9"><a xlink:href="application_8c.html" target="_top" xlink:title="src/application.c">
<polygon fill="#ffffff" stroke="#000000" points="419.7905,-60.5 419.7905,-78.5 507.4897,-78.5 507.4897,-60.5 419.7905,-60.5"/>
<text text-anchor="middle" x="463.6401" y="-66.5" font-family="Helvetica,sans-Serif" font-size="10.00" fill="#000000">src/application.c</text>
</a>
</g>
</g>
<!-- Node37&#45;&gt;Node44 -->
<g id="edge8" class="edge">
<title>Node37&#45;&gt;Node44</title>
<path fill="none" stroke="#191970" d="M463.6401,-115.1265C463.6401,-103.1522 463.6401,-88.3205 463.6401,-78.8821"/>
<polygon fill="#191970" stroke="#191970" points="460.1402,-115.462 463.6401,-125.462 467.1402,-115.4621 460.1402,-115.462"/>
</g>
<!-- Node45 -->
<g id="node10" class="node">
<title>Node45</title>
<g id="a_node10"><a xlink:href="cli_8c.html" target="_top" xlink:title="src/cli.c">
<polygon fill="#ffffff" stroke="#000000" points="672.9751,-60.5 672.9751,-78.5 722.3052,-78.5 722.3052,-60.5 672.9751,-60.5"/>
<text text-anchor="middle" x="697.6401" y="-66.5" font-family="Helvetica,sans-Serif" font-size="10.00" fill="#000000">src/cli.c</text>
</a>
</g>
</g>
<!-- Node37&#45;&gt;Node45 -->
<g id="edge9" class="edge">
<title>Node37&#45;&gt;Node45</title>
<path fill="none" stroke="#191970" d="M518.5934,-123.3086C559.4069,-114.3692 616.1598,-100.6097 664.6401,-84 669.1394,-82.4585 673.8756,-80.5544 678.3116,-78.6387"/>
<polygon fill="#191970" stroke="#191970" points="517.6088,-119.9405 508.5752,-125.4762 519.0892,-126.7822 517.6088,-119.9405"/>
</g>
<!-- Node42 -->
<g id="node7" class="node">
<title>Node42</title>
<g id="a_node7"><a xlink:href="applications_2rbac_8c.html" target="_top" xlink:title="applications/rbac.c">
<polygon fill="#ffffff" stroke="#000000" points="476.229,-.5 476.229,-18.5 575.0513,-18.5 575.0513,-.5 476.229,-.5"/>
<text text-anchor="middle" x="525.6401" y="-6.5" font-family="Helvetica,sans-Serif" font-size="10.00" fill="#000000">applications/rbac.c</text>
</a>
</g>
</g>
<!-- Node41&#45;&gt;Node42 -->
<g id="edge6" class="edge">
<title>Node41&#45;&gt;Node42</title>
<path fill="none" stroke="#191970" d="M567.5785,-48.2123C556.5662,-38.0471 543.9708,-26.4206 535.4813,-18.5842"/>
<polygon fill="#191970" stroke="#191970" points="565.514,-51.0698 575.236,-55.2808 570.262,-45.9262 565.514,-51.0698"/>
</g>
<!-- Node43 -->
<g id="node8" class="node">
<title>Node43</title>
<g id="a_node8"><a xlink:href="ext__apps_2rbac_2src_2rbac_8c.html" target="_top" xlink:title="ext_apps/rbac/src/rbac.c">
<polygon fill="#ffffff" stroke="#000000" points="593.1724,-.5 593.1724,-18.5 718.1079,-18.5 718.1079,-.5 593.1724,-.5"/>
<text text-anchor="middle" x="655.6401" y="-6.5" font-family="Helvetica,sans-Serif" font-size="10.00" fill="#000000">ext_apps/rbac/src/rbac.c</text>
</a>
</g>
</g>
<!-- Node41&#45;&gt;Node43 -->
<g id="edge7" class="edge">
<title>Node41&#45;&gt;Node43</title>
<path fill="none" stroke="#191970" d="M613.7018,-48.2123C624.7141,-38.0471 637.3094,-26.4206 645.7989,-18.5842"/>
<polygon fill="#191970" stroke="#191970" points="611.0183,-45.9262 606.0442,-55.2808 615.7663,-51.0698 611.0183,-45.9262"/>
</g>
<!-- Node48 -->
<g id="node13" class="node">
<title>Node48</title>
<g id="a_node13"><a xlink:href="cac_8c.html" target="_top" xlink:title="components/cac.c">
<polygon fill="#ffffff" stroke="#000000" points="1087.3423,-60.5 1087.3423,-78.5 1183.938,-78.5 1183.938,-60.5 1087.3423,-60.5"/>
<text text-anchor="middle" x="1135.6401" y="-66.5" font-family="Helvetica,sans-Serif" font-size="10.00" fill="#000000">components/cac.c</text>
</a>
</g>
</g>
<!-- Node47&#45;&gt;Node48 -->
<g id="edge13" class="edge">
<title>Node47&#45;&gt;Node48</title>
<path fill="none" stroke="#191970" d="M1130.6094,-110.3747C1131.9745,-99.2832 1133.5115,-86.7952 1134.5233,-78.5743"/>
<polygon fill="#191970" stroke="#191970" points="1127.1239,-110.0433 1129.376,-120.396 1134.0714,-110.8984 1127.1239,-110.0433"/>
</g>
<!-- Node50 -->
<g id="node15" class="node">
<title>Node50</title>
<g id="a_node15"><a xlink:href="dit_8c.html" target="_top" xlink:title="components/dit.c">
<polygon fill="#ffffff" stroke="#000000" points="1201.8423,-60.5 1201.8423,-78.5 1293.438,-78.5 1293.438,-60.5 1201.8423,-60.5"/>
<text text-anchor="middle" x="1247.6401" y="-66.5" font-family="Helvetica,sans-Serif" font-size="10.00" fill="#000000">components/dit.c</text>
</a>
</g>
</g>
<!-- Node49&#45;&gt;Node50 -->
<g id="edge15" class="edge">
<title>Node49&#45;&gt;Node50</title>
<path fill="none" stroke="#191970" d="M1249.5267,-110.3747C1249.0147,-99.2832 1248.4384,-86.7952 1248.059,-78.5743"/>
<polygon fill="#191970" stroke="#191970" points="1246.0318,-110.568 1249.9892,-120.396 1253.0243,-110.2452 1246.0318,-110.568"/>
</g>
<!-- Node52 -->
<g id="node17" class="node">
<title>Node52</title>
<g id="a_node17"><a xlink:href="host__mgmt_8c.html" target="_top" xlink:title="components/host_mgmt.c">
<polygon fill="#ffffff" stroke="#000000" points="1311.3916,-60.5 1311.3916,-78.5 1441.8887,-78.5 1441.8887,-60.5 1311.3916,-60.5"/>
<text text-anchor="middle" x="1376.6401" y="-66.5" font-family="Helvetica,sans-Serif" font-size="10.00" fill="#000000">components/host_mgmt.c</text>
</a>
</g>
</g>
<!-- Node51&#45;&gt;Node52 -->
<g id="edge17" class="edge">
<title>Node51&#45;&gt;Node52</title>
<path fill="none" stroke="#191970" d="M1374.7536,-110.3747C1375.2655,-99.2832 1375.8419,-86.7952 1376.2213,-78.5743"/>
<polygon fill="#191970" stroke="#191970" points="1371.256,-110.2452 1374.2911,-120.396 1378.2485,-110.568 1371.256,-110.2452"/>
</g>
<!-- Node53&#45;&gt;Node45 -->
<g id="edge21" class="edge">
<title>Node53&#45;&gt;Node45</title>
<path fill="none" stroke="#191970" d="M837.1138,-122.2012C808.2977,-112.3325 767.1765,-97.8815 731.6401,-84 727.3365,-82.3189 722.7642,-80.4364 718.4148,-78.5988"/>
<polygon fill="#191970" stroke="#191970" points="836.1693,-125.577 846.7638,-125.4923 838.4289,-118.9517 836.1693,-125.577"/>
</g>
<!-- Node54 -->
<g id="node19" class="node">
<title>Node54</title>
<g id="a_node19"><a xlink:href="events_2event_8c.html" target="_top" xlink:title="events/event.c">
<polygon fill="#ffffff" stroke="#000000" points="740.3989,-60.5 740.3989,-78.5 820.8813,-78.5 820.8813,-60.5 740.3989,-60.5"/>
<text text-anchor="middle" x="780.6401" y="-66.5" font-family="Helvetica,sans-Serif" font-size="10.00" fill="#000000">events/event.c</text>
</a>
</g>
</g>
<!-- Node53&#45;&gt;Node54 -->
<g id="edge19" class="edge">
<title>Node53&#45;&gt;Node54</title>
<path fill="none" stroke="#191970" d="M852.5105,-119.732C834.4497,-107.1088 809.0296,-89.3421 793.7614,-78.6708"/>
<polygon fill="#191970" stroke="#191970" points="850.5073,-122.602 860.7089,-125.462 854.5175,-116.8645 850.5073,-122.602"/>
</g>
<!-- Node55 -->
<g id="node20" class="node">
<title>Node55</title>
<g id="a_node20"><a xlink:href="ext__comps_2shim_2event_8c.html" target="_top" xlink:title="ext_comps/shim/event.c">
<polygon fill="#ffffff" stroke="#000000" points="839.0073,-60.5 839.0073,-78.5 962.2729,-78.5 962.2729,-60.5 839.0073,-60.5"/>
<text text-anchor="middle" x="900.6401" y="-66.5" font-family="Helvetica,sans-Serif" font-size="10.00" fill="#000000">ext_comps/shim/event.c</text>
</a>
</g>
</g>
<!-- Node53&#45;&gt;Node55 -->
<g id="edge20" class="edge">
<title>Node53&#45;&gt;Node55</title>
<path fill="none" stroke="#191970" d="M881.3815,-115.8634C886.4065,-103.7661 892.7415,-88.5151 896.7429,-78.8821"/>
<polygon fill="#191970" stroke="#191970" points="877.9983,-114.8844 877.3944,-125.462 884.4627,-117.5697 877.9983,-114.8844"/>
</g>
<!-- Node56 -->
<g id="node21" class="node">
<title>Node56</title>
<g id="a_node21"><a xlink:href="component_8c.html" target="_top" xlink:title="src/component.c">
<polygon fill="#ffffff" stroke="#000000" points="979.958,-60.5 979.958,-78.5 1069.3223,-78.5 1069.3223,-60.5 979.958,-60.5"/>
<text text-anchor="middle" x="1024.6401" y="-66.5" font-family="Helvetica,sans-Serif" font-size="10.00" fill="#000000">src/component.c</text>
</a>
</g>
</g>
<!-- Node53&#45;&gt;Node56 -->
<g id="edge22" class="edge">
<title>Node53&#45;&gt;Node56</title>
<path fill="none" stroke="#191970" d="M904.0253,-121.4203C933.4858,-108.7386 977.4185,-89.8272 1003.3358,-78.6708"/>
<polygon fill="#191970" stroke="#191970" points="902.4373,-118.2933 894.636,-125.462 905.2051,-124.7229 902.4373,-118.2933"/>
</g>
<!-- Node57&#45;&gt;Node58 -->
<g id="edge24" class="edge">
<title>Node57&#45;&gt;Node58</title>
<path fill="none" stroke="#191970" d="M1530.95,-110.6971C1528.0067,-101.5871 1524.7455,-91.4929 1522.1879,-83.5765"/>
<polygon fill="#191970" stroke="#191970" points="1527.6786,-111.9563 1534.0834,-120.396 1534.3396,-109.8042 1527.6786,-111.9563"/>
</g>
<!-- Node60 -->
<g id="node25" class="node">
<title>Node60</title>
<g id="a_node25"><a xlink:href="applications_2l2__learning_8c.html" target="_top" xlink:title="applications/l2_learning.c">
<polygon fill="#ffffff" stroke="#000000" points="1593.4927,-60.5 1593.4927,-78.5 1721.7876,-78.5 1721.7876,-60.5 1593.4927,-60.5"/>
<text text-anchor="middle" x="1657.6401" y="-66.5" font-family="Helvetica,sans-Serif" font-size="10.00" fill="#000000">applications/l2_learning.c</text>
</a>
</g>
</g>
<!-- Node59&#45;&gt;Node60 -->
<g id="edge27" class="edge">
<title>Node59&#45;&gt;Node60</title>
<path fill="none" stroke="#191970" d="M1670.3224,-110.7173C1666.8836,-99.5412 1662.9878,-86.88 1660.4322,-78.5743"/>
<polygon fill="#191970" stroke="#191970" points="1667.0143,-111.8675 1673.3004,-120.396 1673.7047,-109.8088 1667.0143,-111.8675"/>
</g>
<!-- Node61 -->
<g id="node26" class="node">
<title>Node61</title>
<g id="a_node26"><a xlink:href="ext__apps_2l2__learning_2src_2l2__learning_8c.html" target="_top" xlink:title="ext_apps/l2_learning\l/src/l2_learning.c">
<polygon fill="#ffffff" stroke="#000000" points="1739.4951,-55.5 1739.4951,-83.5 1847.7852,-83.5 1847.7852,-55.5 1739.4951,-55.5"/>
<text text-anchor="start" x="1747.4951" y="-71.5" font-family="Helvetica,sans-Serif" font-size="10.00" fill="#000000">ext_apps/l2_learning</text>
<text text-anchor="middle" x="1793.6401" y="-61.5" font-family="Helvetica,sans-Serif" font-size="10.00" fill="#000000">/src/l2_learning.c</text>
</a>
</g>
</g>
<!-- Node59&#45;&gt;Node61 -->
<g id="edge28" class="edge">
<title>Node59&#45;&gt;Node61</title>
<path fill="none" stroke="#191970" d="M1711.9126,-115.2956C1730.0635,-105.1248 1751.9606,-92.8549 1768.519,-83.5765"/>
<polygon fill="#191970" stroke="#191970" points="1709.8233,-112.4543 1702.8104,-120.396 1713.2451,-118.5609 1709.8233,-112.4543"/>
</g>
<!-- Node62&#45;&gt;Node63 -->
<g id="edge31" class="edge">
<title>Node62&#45;&gt;Node63</title>
<path fill="none" stroke="#191970" d="M1880.4586,-113.3115C1890.9588,-103.5612 1903.1304,-92.259 1912.4808,-83.5765"/>
<polygon fill="#191970" stroke="#191970" points="1877.7755,-111.0266 1872.8291,-120.396 1882.5386,-116.1562 1877.7755,-111.0266"/>
</g>
<!-- Node64 -->
<g id="node29" class="node">
<title>Node64</title>
<g id="a_node29"><a xlink:href="ext__apps_2shim_2shim_8c.html" target="_top" xlink:title="ext_apps/shim/shim.c">
<polygon fill="#ffffff" stroke="#000000" points="1804.5664,-.5 1804.5664,-18.5 1916.7139,-18.5 1916.7139,-.5 1804.5664,-.5"/>
<text text-anchor="middle" x="1860.6401" y="-6.5" font-family="Helvetica,sans-Serif" font-size="10.00" fill="#000000">ext_apps/shim/shim.c</text>
</a>
</g>
</g>
<!-- Node63&#45;&gt;Node64 -->
<g id="edge32" class="edge">
<title>Node63&#45;&gt;Node64</title>
<path fill="none" stroke="#191970" d="M1904.1991,-48.508C1892.7703,-38.2733 1879.6198,-26.4967 1870.7841,-18.5842"/>
<polygon fill="#191970" stroke="#191970" points="1901.9776,-51.2169 1911.7621,-55.2808 1906.6475,-46.0023 1901.9776,-51.2169"/>
</g>
<!-- Node65 -->
<g id="node30" class="node">
<title>Node65</title>
<g id="a_node30"><a xlink:href="ext__comps_2shim_2shim_8c.html" target="_top" xlink:title="ext_comps/shim/shim.c">
<polygon fill="#ffffff" stroke="#000000" points="1934.6821,-.5 1934.6821,-18.5 2054.5981,-18.5 2054.5981,-.5 1934.6821,-.5"/>
<text text-anchor="middle" x="1994.6401" y="-6.5" font-family="Helvetica,sans-Serif" font-size="10.00" fill="#000000">ext_comps/shim/shim.c</text>
</a>
</g>
</g>
<!-- Node63&#45;&gt;Node65 -->
<g id="edge33" class="edge">
<title>Node63&#45;&gt;Node65</title>
<path fill="none" stroke="#191970" d="M1951.0812,-48.508C1962.51,-38.2733 1975.6605,-26.4967 1984.4961,-18.5842"/>
<polygon fill="#191970" stroke="#191970" points="1948.6328,-46.0023 1943.5182,-55.2808 1953.3027,-51.2169 1948.6328,-46.0023"/>
</g>
</g>
</svg>
