<?xml version="1.0" encoding="UTF-8" standalone="no"?>
<!DOCTYPE svg PUBLIC "-//W3C//DTD SVG 1.1//EN"
 "http://www.w3.org/Graphics/SVG/1.1/DTD/svg11.dtd">
<!-- Generated by graphviz version 2.40.1 (20161225.0304)
 -->
<!-- Title: util/include/hash.h Pages: 1 -->
<svg width="1993pt" height="157pt"
 viewBox="0.00 0.00 1993.45 157.00" xmlns="http://www.w3.org/2000/svg" xmlns:xlink="http://www.w3.org/1999/xlink">
<g id="graph0" class="graph" transform="scale(1 1) rotate(0) translate(4 153)">
<title>util/include/hash.h</title>
<polygon fill="#ffffff" stroke="transparent" points="-4,4 -4,-153 1989.4453,-153 1989.4453,4 -4,4"/>
<!-- Node24 -->
<g id="node1" class="node">
<title>Node24</title>
<polygon fill="#bfbfbf" stroke="#000000" points="1147.4604,-130.5 1147.4604,-148.5 1243.5142,-148.5 1243.5142,-130.5 1147.4604,-130.5"/>
<text text-anchor="middle" x="1195.4873" y="-136.5" font-family="Helvetica,sans-Serif" font-size="10.00" fill="#000000">util/include/hash.h</text>
</g>
<!-- Node25 -->
<g id="node2" class="node">
<title>Node25</title>
<g id="a_node2"><a xlink:href="src_2include_2application_8h.html" target="_top" xlink:title="src/include/application.h">
<polygon fill="#ffffff" stroke="#000000" points="281.123,-70.5 281.123,-88.5 403.8516,-88.5 403.8516,-70.5 281.123,-70.5"/>
<text text-anchor="middle" x="342.4873" y="-76.5" font-family="Helvetica,sans-Serif" font-size="10.00" fill="#000000">src/include/application.h</text>
</a>
</g>
</g>
<!-- Node24&#45;&gt;Node25 -->
<g id="edge1" class="edge">
<title>Node24&#45;&gt;Node25</title>
<path fill="none" stroke="#191970" d="M1136.9243,-135.3807C981.9308,-124.4784 562.0899,-94.9468 403.9013,-83.8199"/>
<polygon fill="#191970" stroke="#191970" points="1136.9613,-138.8918 1147.1823,-136.1022 1137.4526,-131.9091 1136.9613,-138.8918"/>
</g>
<!-- Node30 -->
<g id="node7" class="node">
<title>Node30</title>
<g id="a_node7"><a xlink:href="l2__learning_8h.html" target="_top" xlink:title="applications/include\l/l2_learning.h">
<polygon fill="#ffffff" stroke="#000000" points="718.8472,-65.5 718.8472,-93.5 822.1274,-93.5 822.1274,-65.5 718.8472,-65.5"/>
<text text-anchor="start" x="726.8472" y="-81.5" font-family="Helvetica,sans-Serif" font-size="10.00" fill="#000000">applications/include</text>
<text text-anchor="middle" x="770.4873" y="-71.5" font-family="Helvetica,sans-Serif" font-size="10.00" fill="#000000">/l2_learning.h</text>
</a>
</g>
</g>
<!-- Node24&#45;&gt;Node30 -->
<g id="edge6" class="edge">
<title>Node24&#45;&gt;Node30</title>
<path fill="none" stroke="#191970" d="M1137.1281,-134.2791C1064.8066,-127.3379 937.964,-113.6207 830.4873,-94 827.8517,-93.5189 825.1587,-92.9934 822.4446,-92.4369"/>
<polygon fill="#191970" stroke="#191970" points="1137.108,-137.7928 1147.3941,-135.2539 1137.7698,-130.8241 1137.108,-137.7928"/>
</g>
<!-- Node32 -->
<g id="node9" class="node">
<title>Node32</title>
<g id="a_node9"><a xlink:href="applications_2include_2l2__shortest_8h.html" target="_top" xlink:title="applications/include\l/l2_shortest.h">
<polygon fill="#ffffff" stroke="#000000" points="839.8472,-65.5 839.8472,-93.5 943.1274,-93.5 943.1274,-65.5 839.8472,-65.5"/>
<text text-anchor="start" x="847.8472" y="-81.5" font-family="Helvetica,sans-Serif" font-size="10.00" fill="#000000">applications/include</text>
<text text-anchor="middle" x="891.4873" y="-71.5" font-family="Helvetica,sans-Serif" font-size="10.00" fill="#000000">/l2_shortest.h</text>
</a>
</g>
</g>
<!-- Node24&#45;&gt;Node32 -->
<g id="edge8" class="edge">
<title>Node24&#45;&gt;Node32</title>
<path fill="none" stroke="#191970" d="M1137.2946,-129.5389C1087.7523,-120.8457 1014.7597,-107.5349 951.4873,-94 948.7626,-93.4172 945.9725,-92.8031 943.1584,-92.1703"/>
<polygon fill="#191970" stroke="#191970" points="1136.7359,-132.9942 1147.1892,-131.2684 1137.9413,-126.0988 1136.7359,-132.9942"/>
</g>
<!-- Node33 -->
<g id="node10" class="node">
<title>Node33</title>
<g id="a_node10"><a xlink:href="rbac_8h.html" target="_top" xlink:title="applications/include\l/rbac.h">
<polygon fill="#ffffff" stroke="#000000" points="960.8472,-65.5 960.8472,-93.5 1064.1274,-93.5 1064.1274,-65.5 960.8472,-65.5"/>
<text text-anchor="start" x="968.8472" y="-81.5" font-family="Helvetica,sans-Serif" font-size="10.00" fill="#000000">applications/include</text>
<text text-anchor="middle" x="1012.4873" y="-71.5" font-family="Helvetica,sans-Serif" font-size="10.00" fill="#000000">/rbac.h</text>
</a>
</g>
</g>
<!-- Node24&#45;&gt;Node33 -->
<g id="edge9" class="edge">
<title>Node24&#45;&gt;Node33</title>
<path fill="none" stroke="#191970" d="M1158.0598,-127.2287C1128.202,-117.4392 1086.3647,-103.7221 1055.1996,-93.504"/>
<polygon fill="#191970" stroke="#191970" points="1157.1008,-130.5975 1167.6935,-130.3873 1159.2817,-123.9459 1157.1008,-130.5975"/>
</g>
<!-- Node35 -->
<g id="node12" class="node">
<title>Node35</title>
<g id="a_node12"><a xlink:href="cac_8h.html" target="_top" xlink:title="components/include\l/cac.h">
<polygon fill="#ffffff" stroke="#000000" points="1082.0146,-65.5 1082.0146,-93.5 1186.96,-93.5 1186.96,-65.5 1082.0146,-65.5"/>
<text text-anchor="start" x="1090.0146" y="-81.5" font-family="Helvetica,sans-Serif" font-size="10.00" fill="#000000">components/include</text>
<text text-anchor="middle" x="1134.4873" y="-71.5" font-family="Helvetica,sans-Serif" font-size="10.00" fill="#000000">/cac.h</text>
</a>
</g>
</g>
<!-- Node24&#45;&gt;Node35 -->
<g id="edge11" class="edge">
<title>Node24&#45;&gt;Node35</title>
<path fill="none" stroke="#191970" d="M1179.0095,-123.2923C1169.6684,-114.1044 1158.0844,-102.7103 1149.0741,-93.8477"/>
<polygon fill="#191970" stroke="#191970" points="1176.6391,-125.8701 1186.2227,-130.3873 1181.5478,-120.8796 1176.6391,-125.8701"/>
</g>
<!-- Node37 -->
<g id="node14" class="node">
<title>Node37</title>
<g id="a_node14"><a xlink:href="dit_8h.html" target="_top" xlink:title="components/include\l/dit.h">
<polygon fill="#ffffff" stroke="#000000" points="1205.0146,-65.5 1205.0146,-93.5 1309.96,-93.5 1309.96,-65.5 1205.0146,-65.5"/>
<text text-anchor="start" x="1213.0146" y="-81.5" font-family="Helvetica,sans-Serif" font-size="10.00" fill="#000000">components/include</text>
<text text-anchor="middle" x="1257.4873" y="-71.5" font-family="Helvetica,sans-Serif" font-size="10.00" fill="#000000">/dit.h</text>
</a>
</g>
</g>
<!-- Node24&#45;&gt;Node37 -->
<g id="edge13" class="edge">
<title>Node24&#45;&gt;Node37</title>
<path fill="none" stroke="#191970" d="M1212.2352,-123.2923C1221.7294,-114.1044 1233.5034,-102.7103 1242.6614,-93.8477"/>
<polygon fill="#191970" stroke="#191970" points="1209.6558,-120.9179 1204.9038,-130.3873 1214.5238,-125.9482 1209.6558,-120.9179"/>
</g>
<!-- Node39 -->
<g id="node16" class="node">
<title>Node39</title>
<g id="a_node16"><a xlink:href="host__mgmt_8h.html" target="_top" xlink:title="components/include\l/host_mgmt.h">
<polygon fill="#ffffff" stroke="#000000" points="1328.0146,-65.5 1328.0146,-93.5 1432.96,-93.5 1432.96,-65.5 1328.0146,-65.5"/>
<text text-anchor="start" x="1336.0146" y="-81.5" font-family="Helvetica,sans-Serif" font-size="10.00" fill="#000000">components/include</text>
<text text-anchor="middle" x="1380.4873" y="-71.5" font-family="Helvetica,sans-Serif" font-size="10.00" fill="#000000">/host_mgmt.h</text>
</a>
</g>
</g>
<!-- Node24&#45;&gt;Node39 -->
<g id="edge15" class="edge">
<title>Node24&#45;&gt;Node39</title>
<path fill="none" stroke="#191970" d="M1233.3238,-127.2287C1263.508,-117.4392 1305.8025,-103.7221 1337.3082,-93.504"/>
<polygon fill="#191970" stroke="#191970" points="1232.0173,-123.9729 1223.5848,-130.3873 1234.1768,-130.6315 1232.0173,-123.9729"/>
</g>
<!-- Node41 -->
<g id="node18" class="node">
<title>Node41</title>
<g id="a_node18"><a xlink:href="src_2include_2component_8h.html" target="_top" xlink:title="src/include/component.h">
<polygon fill="#ffffff" stroke="#000000" points="570.2905,-70.5 570.2905,-88.5 694.6841,-88.5 694.6841,-70.5 570.2905,-70.5"/>
<text text-anchor="middle" x="632.4873" y="-76.5" font-family="Helvetica,sans-Serif" font-size="10.00" fill="#000000">src/include/component.h</text>
</a>
</g>
</g>
<!-- Node24&#45;&gt;Node41 -->
<g id="edge17" class="edge">
<title>Node24&#45;&gt;Node41</title>
<path fill="none" stroke="#191970" d="M1137.2162,-135.7993C1045.7954,-129.5987 863.2164,-115.6231 709.4873,-94 698.8457,-92.5032 687.4392,-90.5493 676.7534,-88.5631"/>
<polygon fill="#191970" stroke="#191970" points="1137.1609,-139.3034 1147.373,-136.4816 1137.6301,-132.3191 1137.1609,-139.3034"/>
</g>
<!-- Node45 -->
<g id="node22" class="node">
<title>Node45</title>
<g id="a_node22"><a xlink:href="ext__apps_2shim_2include_2shim_8h.html" target="_top" xlink:title="ext_apps/shim/include\l/shim.h">
<polygon fill="#ffffff" stroke="#000000" points="1451.0146,-65.5 1451.0146,-93.5 1565.96,-93.5 1565.96,-65.5 1451.0146,-65.5"/>
<text text-anchor="start" x="1459.0146" y="-81.5" font-family="Helvetica,sans-Serif" font-size="10.00" fill="#000000">ext_apps/shim/include</text>
<text text-anchor="middle" x="1508.4873" y="-71.5" font-family="Helvetica,sans-Serif" font-size="10.00" fill="#000000">/shim.h</text>
</a>
</g>
</g>
<!-- Node24&#45;&gt;Node45 -->
<g id="edge22" class="edge">
<title>Node24&#45;&gt;Node45</title>
<path fill="none" stroke="#191970" d="M1253.6139,-129.2602C1303.522,-120.346 1377.3459,-106.8694 1441.4873,-94 1444.5212,-93.3913 1447.6299,-92.7566 1450.7669,-92.1076"/>
<polygon fill="#191970" stroke="#191970" points="1252.8811,-125.8356 1243.6503,-131.036 1254.1093,-132.727 1252.8811,-125.8356"/>
</g>
<!-- Node46 -->
<g id="node23" class="node">
<title>Node46</title>
<g id="a_node23"><a xlink:href="ext__apps_2l2__shortest_2src_2include_2l2__shortest_8h.html" target="_top" xlink:title="ext_apps/l2_shortest\l/src/include/l2_shortest.h">
<polygon fill="#ffffff" stroke="#000000" points="1584.1821,-65.5 1584.1821,-93.5 1710.7925,-93.5 1710.7925,-65.5 1584.1821,-65.5"/>
<text text-anchor="start" x="1592.1821" y="-81.5" font-family="Helvetica,sans-Serif" font-size="10.00" fill="#000000">ext_apps/l2_shortest</text>
<text text-anchor="middle" x="1647.4873" y="-71.5" font-family="Helvetica,sans-Serif" font-size="10.00" fill="#000000">/src/include/l2_shortest.h</text>
</a>
</g>
</g>
<!-- Node24&#45;&gt;Node46 -->
<g id="edge23" class="edge">
<title>Node24&#45;&gt;Node46</title>
<path fill="none" stroke="#191970" d="M1253.9453,-133.8857C1328.5556,-126.3984 1461.5043,-111.9758 1574.4873,-94 1577.5499,-93.5127 1580.6798,-92.9894 1583.8376,-92.441"/>
<polygon fill="#191970" stroke="#191970" points="1253.4163,-130.421 1243.8128,-134.8958 1254.1107,-137.3865 1253.4163,-130.421"/>
</g>
<!-- Node49 -->
<g id="node26" class="node">
<title>Node49</title>
<g id="a_node26"><a xlink:href="ext__comps_2shim_2include_2shim_8h.html" target="_top" xlink:title="ext_comps/shim/include\l/shim.h">
<polygon fill="#ffffff" stroke="#000000" points="1729.1304,-65.5 1729.1304,-93.5 1851.8442,-93.5 1851.8442,-65.5 1729.1304,-65.5"/>
<text text-anchor="start" x="1737.1304" y="-81.5" font-family="Helvetica,sans-Serif" font-size="10.00" fill="#000000">ext_comps/shim/include</text>
<text text-anchor="middle" x="1790.4873" y="-71.5" font-family="Helvetica,sans-Serif" font-size="10.00" fill="#000000">/shim.h</text>
</a>
</g>
</g>
<!-- Node24&#45;&gt;Node49 -->
<g id="edge26" class="edge">
<title>Node24&#45;&gt;Node49</title>
<path fill="none" stroke="#191970" d="M1253.9358,-136.6207C1351.006,-131.3478 1551.4249,-118.3757 1719.4873,-94 1722.5999,-93.5485 1725.7817,-93.047 1728.9895,-92.5094"/>
<polygon fill="#191970" stroke="#191970" points="1253.5416,-133.1367 1243.7431,-137.1666 1253.916,-140.1267 1253.5416,-133.1367"/>
</g>
<!-- Node52 -->
<g id="node29" class="node">
<title>Node52</title>
<g id="a_node29"><a xlink:href="hash_8c.html" target="_top" xlink:title="util/hash.c">
<polygon fill="#ffffff" stroke="#000000" points="1869.9751,-70.5 1869.9751,-88.5 1930.9995,-88.5 1930.9995,-70.5 1869.9751,-70.5"/>
<text text-anchor="middle" x="1900.4873" y="-76.5" font-family="Helvetica,sans-Serif" font-size="10.00" fill="#000000">util/hash.c</text>
</a>
</g>
</g>
<!-- Node24&#45;&gt;Node52 -->
<g id="edge29" class="edge">
<title>Node24&#45;&gt;Node52</title>
<path fill="none" stroke="#191970" d="M1254.0737,-137.5884C1394.1767,-132.679 1745.469,-118.2798 1860.4873,-94 1866.5583,-92.7184 1872.9518,-90.7168 1878.8026,-88.6055"/>
<polygon fill="#191970" stroke="#191970" points="1253.832,-134.0946 1243.9593,-137.9391 1254.0746,-141.0904 1253.832,-134.0946"/>
</g>
<!-- Node26 -->
<g id="node3" class="node">
<title>Node26</title>
<g id="a_node3"><a xlink:href="app__events_2app__event_8c.html" target="_top" xlink:title="app_events/app_event.c">
<polygon fill="#ffffff" stroke="#000000" points="0,-5.5 0,-23.5 124.9746,-23.5 124.9746,-5.5 0,-5.5"/>
<text text-anchor="middle" x="62.4873" y="-11.5" font-family="Helvetica,sans-Serif" font-size="10.00" fill="#000000">app_events/app_event.c</text>
</a>
</g>
</g>
<!-- Node25&#45;&gt;Node26 -->
<g id="edge2" class="edge">
<title>Node25&#45;&gt;Node26</title>
<path fill="none" stroke="#191970" d="M293.7626,-68.1889C239.19,-55.5203 151.8176,-35.2374 101.5398,-23.5658"/>
<polygon fill="#191970" stroke="#191970" points="293.022,-71.61 303.5545,-70.462 294.605,-64.7913 293.022,-71.61"/>
</g>
<!-- Node27 -->
<g id="node4" class="node">
<title>Node27</title>
<g id="a_node4"><a xlink:href="ext__apps_2shim_2app__event_8c.html" target="_top" xlink:title="ext_apps/shim/app_event.c">
<polygon fill="#ffffff" stroke="#000000" points="142.6157,-5.5 142.6157,-23.5 280.3589,-23.5 280.3589,-5.5 142.6157,-5.5"/>
<text text-anchor="middle" x="211.4873" y="-11.5" font-family="Helvetica,sans-Serif" font-size="10.00" fill="#000000">ext_apps/shim/app_event.c</text>
</a>
</g>
</g>
<!-- Node25&#45;&gt;Node27 -->
<g id="edge3" class="edge">
<title>Node25&#45;&gt;Node27</title>
<path fill="none" stroke="#191970" d="M315.1202,-65.9209C289.5766,-53.2466 252.1611,-34.6817 229.9699,-23.6708"/>
<polygon fill="#191970" stroke="#191970" points="313.7587,-69.1525 324.2723,-70.462 316.8701,-62.8819 313.7587,-69.1525"/>
</g>
<!-- Node28 -->
<g id="node5" class="node">
<title>Node28</title>
<g id="a_node5"><a xlink:href="application_8c.html" target="_top" xlink:title="src/application.c">
<polygon fill="#ffffff" stroke="#000000" points="298.6377,-5.5 298.6377,-23.5 386.3369,-23.5 386.3369,-5.5 298.6377,-5.5"/>
<text text-anchor="middle" x="342.4873" y="-11.5" font-family="Helvetica,sans-Serif" font-size="10.00" fill="#000000">src/application.c</text>
</a>
</g>
</g>
<!-- Node25&#45;&gt;Node28 -->
<g id="edge4" class="edge">
<title>Node25&#45;&gt;Node28</title>
<path fill="none" stroke="#191970" d="M342.4873,-60.1265C342.4873,-48.1522 342.4873,-33.3205 342.4873,-23.8821"/>
<polygon fill="#191970" stroke="#191970" points="338.9874,-60.462 342.4873,-70.462 345.9874,-60.4621 338.9874,-60.462"/>
</g>
<!-- Node29 -->
<g id="node6" class="node">
<title>Node29</title>
<g id="a_node6"><a xlink:href="src_2cli_8c.html" target="_top" xlink:title="src/cli.c">
<polygon fill="#ffffff" stroke="#000000" points="404.8223,-5.5 404.8223,-23.5 454.1523,-23.5 454.1523,-5.5 404.8223,-5.5"/>
<text text-anchor="middle" x="429.4873" y="-11.5" font-family="Helvetica,sans-Serif" font-size="10.00" fill="#000000">src/cli.c</text>
</a>
</g>
</g>
<!-- Node25&#45;&gt;Node29 -->
<g id="edge5" class="edge">
<title>Node25&#45;&gt;Node29</title>
<path fill="none" stroke="#191970" d="M362.7162,-64.3865C379.5809,-51.7864 403.0592,-34.2451 417.2126,-23.6708"/>
<polygon fill="#191970" stroke="#191970" points="360.5005,-61.6729 354.5843,-70.462 364.6902,-67.2806 360.5005,-61.6729"/>
</g>
<!-- Node31 -->
<g id="node8" class="node">
<title>Node31</title>
<g id="a_node8"><a xlink:href="l2__learning_8c.html" target="_top" xlink:title="applications/l2_learning.c">
<polygon fill="#ffffff" stroke="#000000" points="819.3398,-5.5 819.3398,-23.5 947.6348,-23.5 947.6348,-5.5 819.3398,-5.5"/>
<text text-anchor="middle" x="883.4873" y="-11.5" font-family="Helvetica,sans-Serif" font-size="10.00" fill="#000000">applications/l2_learning.c</text>
</a>
</g>
</g>
<!-- Node30&#45;&gt;Node31 -->
<g id="edge7" class="edge">
<title>Node30&#45;&gt;Node31</title>
<path fill="none" stroke="#191970" d="M803.6935,-60.3991C824.8185,-48.2475 851.2102,-33.0665 867.712,-23.5743"/>
<polygon fill="#191970" stroke="#191970" points="801.9297,-57.3759 795.0066,-65.396 805.42,-63.4437 801.9297,-57.3759"/>
</g>
<!-- Node34 -->
<g id="node11" class="node">
<title>Node34</title>
<g id="a_node11"><a xlink:href="rbac_8c.html" target="_top" xlink:title="applications/rbac.c">
<polygon fill="#ffffff" stroke="#000000" points="966.0762,-5.5 966.0762,-23.5 1064.8984,-23.5 1064.8984,-5.5 966.0762,-5.5"/>
<text text-anchor="middle" x="1015.4873" y="-11.5" font-family="Helvetica,sans-Serif" font-size="10.00" fill="#000000">applications/rbac.c</text>
</a>
</g>
</g>
<!-- Node33&#45;&gt;Node34 -->
<g id="edge10" class="edge">
<title>Node33&#45;&gt;Node34</title>
<path fill="none" stroke="#191970" d="M1013.6008,-55.3747C1014.1127,-44.2832 1014.6891,-31.7952 1015.0685,-23.5743"/>
<polygon fill="#191970" stroke="#191970" points="1010.1031,-55.2452 1013.1383,-65.396 1017.0957,-55.568 1010.1031,-55.2452"/>
</g>
<!-- Node36 -->
<g id="node13" class="node">
<title>Node36</title>
<g id="a_node13"><a xlink:href="cac_8c.html" target="_top" xlink:title="components/cac.c">
<polygon fill="#ffffff" stroke="#000000" points="1086.1895,-5.5 1086.1895,-23.5 1182.7852,-23.5 1182.7852,-5.5 1086.1895,-5.5"/>
<text text-anchor="middle" x="1134.4873" y="-11.5" font-family="Helvetica,sans-Serif" font-size="10.00" fill="#000000">components/cac.c</text>
</a>
</g>
</g>
<!-- Node35&#45;&gt;Node36 -->
<g id="edge12" class="edge">
<title>Node35&#45;&gt;Node36</title>
<path fill="none" stroke="#191970" d="M1134.4873,-55.3747C1134.4873,-44.2832 1134.4873,-31.7952 1134.4873,-23.5743"/>
<polygon fill="#191970" stroke="#191970" points="1130.9874,-55.3959 1134.4873,-65.396 1137.9874,-55.396 1130.9874,-55.3959"/>
</g>
<!-- Node38 -->
<g id="node15" class="node">
<title>Node38</title>
<g id="a_node15"><a xlink:href="dit_8c.html" target="_top" xlink:title="components/dit.c">
<polygon fill="#ffffff" stroke="#000000" points="1205.6895,-5.5 1205.6895,-23.5 1297.2852,-23.5 1297.2852,-5.5 1205.6895,-5.5"/>
<text text-anchor="middle" x="1251.4873" y="-11.5" font-family="Helvetica,sans-Serif" font-size="10.00" fill="#000000">components/dit.c</text>
</a>
</g>
</g>
<!-- Node37&#45;&gt;Node38 -->
<g id="edge14" class="edge">
<title>Node37&#45;&gt;Node38</title>
<path fill="none" stroke="#191970" d="M1255.2604,-55.3747C1254.2365,-44.2832 1253.0838,-31.7952 1252.3249,-23.5743"/>
<polygon fill="#191970" stroke="#191970" points="1251.781,-55.76 1256.1854,-65.396 1258.7513,-55.1166 1251.781,-55.76"/>
</g>
<!-- Node40 -->
<g id="node17" class="node">
<title>Node40</title>
<g id="a_node17"><a xlink:href="host__mgmt_8c.html" target="_top" xlink:title="components/host_mgmt.c">
<polygon fill="#ffffff" stroke="#000000" points="1315.2388,-5.5 1315.2388,-23.5 1445.7358,-23.5 1445.7358,-5.5 1315.2388,-5.5"/>
<text text-anchor="middle" x="1380.4873" y="-11.5" font-family="Helvetica,sans-Serif" font-size="10.00" fill="#000000">components/host_mgmt.c</text>
</a>
</g>
</g>
<!-- Node39&#45;&gt;Node40 -->
<g id="edge16" class="edge">
<title>Node39&#45;&gt;Node40</title>
<path fill="none" stroke="#191970" d="M1380.4873,-55.3747C1380.4873,-44.2832 1380.4873,-31.7952 1380.4873,-23.5743"/>
<polygon fill="#191970" stroke="#191970" points="1376.9874,-55.3959 1380.4873,-65.396 1383.9874,-55.396 1376.9874,-55.3959"/>
</g>
<!-- Node41&#45;&gt;Node29 -->
<g id="edge20" class="edge">
<title>Node41&#45;&gt;Node29</title>
<path fill="none" stroke="#191970" d="M588.3959,-67.7946C554.0327,-58.3199 505.2958,-44.1072 463.4873,-29 459.0212,-27.3862 454.2962,-25.4938 449.835,-23.6187"/>
<polygon fill="#191970" stroke="#191970" points="587.5623,-71.1951 598.1314,-70.4582 589.4096,-64.4433 587.5623,-71.1951"/>
</g>
<!-- Node42 -->
<g id="node19" class="node">
<title>Node42</title>
<g id="a_node19"><a xlink:href="events_2event_8c.html" target="_top" xlink:title="events/event.c">
<polygon fill="#ffffff" stroke="#000000" points="472.2461,-5.5 472.2461,-23.5 552.7285,-23.5 552.7285,-5.5 472.2461,-5.5"/>
<text text-anchor="middle" x="512.4873" y="-11.5" font-family="Helvetica,sans-Serif" font-size="10.00" fill="#000000">events/event.c</text>
</a>
</g>
</g>
<!-- Node41&#45;&gt;Node42 -->
<g id="edge18" class="edge">
<title>Node41&#45;&gt;Node42</title>
<path fill="none" stroke="#191970" d="M606.7973,-65.5846C583.4166,-52.9201 549.5667,-34.5847 529.4179,-23.6708"/>
<polygon fill="#191970" stroke="#191970" points="605.3419,-68.7767 615.8018,-70.462 608.6759,-62.6216 605.3419,-68.7767"/>
</g>
<!-- Node43 -->
<g id="node20" class="node">
<title>Node43</title>
<g id="a_node20"><a xlink:href="ext__comps_2shim_2event_8c.html" target="_top" xlink:title="ext_comps/shim/event.c">
<polygon fill="#ffffff" stroke="#000000" points="570.8545,-5.5 570.8545,-23.5 694.1201,-23.5 694.1201,-5.5 570.8545,-5.5"/>
<text text-anchor="middle" x="632.4873" y="-11.5" font-family="Helvetica,sans-Serif" font-size="10.00" fill="#000000">ext_comps/shim/event.c</text>
</a>
</g>
</g>
<!-- Node41&#45;&gt;Node43 -->
<g id="edge19" class="edge">
<title>Node41&#45;&gt;Node43</title>
<path fill="none" stroke="#191970" d="M632.4873,-60.1265C632.4873,-48.1522 632.4873,-33.3205 632.4873,-23.8821"/>
<polygon fill="#191970" stroke="#191970" points="628.9874,-60.462 632.4873,-70.462 635.9874,-60.4621 628.9874,-60.462"/>
</g>
<!-- Node44 -->
<g id="node21" class="node">
<title>Node44</title>
<g id="a_node21"><a xlink:href="component_8c.html" target="_top" xlink:title="src/component.c">
<polygon fill="#ffffff" stroke="#000000" points="711.8052,-5.5 711.8052,-23.5 801.1694,-23.5 801.1694,-5.5 711.8052,-5.5"/>
<text text-anchor="middle" x="756.4873" y="-11.5" font-family="Helvetica,sans-Serif" font-size="10.00" fill="#000000">src/component.c</text>
</a>
</g>
</g>
<!-- Node41&#45;&gt;Node44 -->
<g id="edge21" class="edge">
<title>Node41&#45;&gt;Node44</title>
<path fill="none" stroke="#191970" d="M658.7122,-65.7531C682.8825,-53.0832 718.0794,-34.6332 738.9923,-23.6708"/>
<polygon fill="#191970" stroke="#191970" points="656.9609,-62.7193 649.729,-70.462 660.2109,-68.9192 656.9609,-62.7193"/>
</g>
<!-- Node47 -->
<g id="node24" class="node">
<title>Node47</title>
<g id="a_node24"><a xlink:href="applications_2l2__shortest_8c.html" target="_top" xlink:title="applications/l2_shortest.c">
<polygon fill="#ffffff" stroke="#000000" points="1463.3447,-5.5 1463.3447,-23.5 1591.6299,-23.5 1591.6299,-5.5 1463.3447,-5.5"/>
<text text-anchor="middle" x="1527.4873" y="-11.5" font-family="Helvetica,sans-Serif" font-size="10.00" fill="#000000">applications/l2_shortest.c</text>
</a>
</g>
</g>
<!-- Node46&#45;&gt;Node47 -->
<g id="edge24" class="edge">
<title>Node46&#45;&gt;Node47</title>
<path fill="none" stroke="#191970" d="M1612.5242,-60.5616C1590.0409,-48.3832 1561.8422,-33.1089 1544.2399,-23.5743"/>
<polygon fill="#191970" stroke="#191970" points="1610.9892,-63.7106 1621.4491,-65.396 1614.3232,-57.5556 1610.9892,-63.7106"/>
</g>
<!-- Node48 -->
<g id="node25" class="node">
<title>Node48</title>
<g id="a_node25"><a xlink:href="ext__apps_2l2__shortest_2src_2l2__shortest_8c.html" target="_top" xlink:title="ext_apps/l2_shortest\l/src/l2_shortest.c">
<polygon fill="#ffffff" stroke="#000000" points="1609.3472,-.5 1609.3472,-28.5 1717.6274,-28.5 1717.6274,-.5 1609.3472,-.5"/>
<text text-anchor="start" x="1617.3472" y="-16.5" font-family="Helvetica,sans-Serif" font-size="10.00" fill="#000000">ext_apps/l2_shortest</text>
<text text-anchor="middle" x="1663.4873" y="-6.5" font-family="Helvetica,sans-Serif" font-size="10.00" fill="#000000">/src/l2_shortest.c</text>
</a>
</g>
</g>
<!-- Node46&#45;&gt;Node48 -->
<g id="edge25" class="edge">
<title>Node46&#45;&gt;Node48</title>
<path fill="none" stroke="#191970" d="M1653.4189,-55.4029C1655.6423,-46.3703 1658.0946,-36.4078 1660.0223,-28.5765"/>
<polygon fill="#191970" stroke="#191970" points="1649.9508,-54.8492 1650.9591,-65.396 1656.7479,-56.5224 1649.9508,-54.8492"/>
</g>
<!-- Node50 -->
<g id="node27" class="node">
<title>Node50</title>
<g id="a_node27"><a xlink:href="ext__apps_2shim_2shim_8c.html" target="_top" xlink:title="ext_apps/shim/shim.c">
<polygon fill="#ffffff" stroke="#000000" points="1735.4136,-5.5 1735.4136,-23.5 1847.561,-23.5 1847.561,-5.5 1735.4136,-5.5"/>
<text text-anchor="middle" x="1791.4873" y="-11.5" font-family="Helvetica,sans-Serif" font-size="10.00" fill="#000000">ext_apps/shim/shim.c</text>
</a>
</g>
</g>
<!-- Node49&#45;&gt;Node50 -->
<g id="edge27" class="edge">
<title>Node49&#45;&gt;Node50</title>
<path fill="none" stroke="#191970" d="M1790.8585,-55.3747C1791.0291,-44.2832 1791.2212,-31.7952 1791.3477,-23.5743"/>
<polygon fill="#191970" stroke="#191970" points="1787.3586,-55.3433 1790.7043,-65.396 1794.3578,-55.451 1787.3586,-55.3433"/>
</g>
<!-- Node51 -->
<g id="node28" class="node">
<title>Node51</title>
<g id="a_node28"><a xlink:href="ext__comps_2shim_2shim_8c.html" target="_top" xlink:title="ext_comps/shim/shim.c">
<polygon fill="#ffffff" stroke="#000000" points="1865.5293,-5.5 1865.5293,-23.5 1985.4453,-23.5 1985.4453,-5.5 1865.5293,-5.5"/>
<text text-anchor="middle" x="1925.4873" y="-11.5" font-family="Helvetica,sans-Serif" font-size="10.00" fill="#000000">ext_comps/shim/shim.c</text>
</a>
</g>
</g>
<!-- Node49&#45;&gt;Node51 -->
<g id="edge28" class="edge">
<title>Node49&#45;&gt;Node51</title>
<path fill="none" stroke="#191970" d="M1828.8126,-61.0471C1854.2664,-48.7915 1886.5741,-33.236 1906.6407,-23.5743"/>
<polygon fill="#191970" stroke="#191970" points="1827.2719,-57.9042 1819.7803,-65.396 1830.3087,-64.2113 1827.2719,-57.9042"/>
</g>
</g>
</svg>
