<?xml version="1.0" encoding="UTF-8" standalone="no"?>
<!DOCTYPE svg PUBLIC "-//W3C//DTD SVG 1.1//EN"
 "http://www.w3.org/Graphics/SVG/1.1/DTD/svg11.dtd">
<!-- Generated by graphviz version 2.40.1 (20161225.0304)
 -->
<!-- Title: util/include/ip2int.h Pages: 1 -->
<svg width="1536pt" height="137pt"
 viewBox="0.00 0.00 1536.35 137.00" xmlns="http://www.w3.org/2000/svg" xmlns:xlink="http://www.w3.org/1999/xlink">
<g id="graph0" class="graph" transform="scale(1 1) rotate(0) translate(4 133)">
<title>util/include/ip2int.h</title>
<polygon fill="#ffffff" stroke="transparent" points="-4,4 -4,-133 1532.3472,-133 1532.3472,4 -4,4"/>
<!-- Node0 -->
<g id="node1" class="node">
<title>Node0</title>
<polygon fill="#bfbfbf" stroke="#000000" points="715.5938,-110.5 715.5938,-128.5 813.8691,-128.5 813.8691,-110.5 715.5938,-110.5"/>
<text text-anchor="middle" x="764.7314" y="-116.5" font-family="Helvetica,sans-Serif" font-size="10.00" fill="#000000">util/include/ip2int.h</text>
</g>
<!-- Node1 -->
<g id="node2" class="node">
<title>Node1</title>
<g id="a_node2"><a xlink:href="src_2include_2common_8h.html" target="_top" xlink:title="common.h">
<polygon fill="#ffffff" stroke="#000000" points="733.3892,-55.5 733.3892,-73.5 796.0737,-73.5 796.0737,-55.5 733.3892,-55.5"/>
<text text-anchor="middle" x="764.7314" y="-61.5" font-family="Helvetica,sans-Serif" font-size="10.00" fill="#000000">common.h</text>
</a>
</g>
</g>
<!-- Node0&#45;&gt;Node1 -->
<g id="edge1" class="edge">
<title>Node0&#45;&gt;Node1</title>
<path fill="none" stroke="#191970" d="M759.5651,-110.4179C758.0736,-103.2164 757.6356,-92.8962 758.2512,-83.8632"/>
<polygon fill="#191970" stroke="#191970" points="761.7441,-84.1392 759.5247,-73.7795 754.7992,-83.2621 761.7441,-84.1392"/>
</g>
<!-- Node1&#45;&gt;Node0 -->
<g id="edge22" class="edge">
<title>Node1&#45;&gt;Node0</title>
<path fill="none" stroke="#191970" d="M769.9382,-73.7795C771.4106,-81.0373 771.8294,-91.3738 771.1946,-100.383"/>
<polygon fill="#191970" stroke="#191970" points="767.7084,-100.0517 769.8978,-110.4179 774.6507,-100.949 767.7084,-100.0517"/>
</g>
<!-- Node2 -->
<g id="node3" class="node">
<title>Node2</title>
<polygon fill="#ffffff" stroke="#bfbfbf" points="0,-.5 0,-18.5 45.4629,-18.5 45.4629,-.5 0,-.5"/>
<text text-anchor="middle" x="22.7314" y="-6.5" font-family="Helvetica,sans-Serif" font-size="10.00" fill="#000000">stdio.h</text>
</g>
<!-- Node1&#45;&gt;Node2 -->
<g id="edge2" class="edge">
<title>Node1&#45;&gt;Node2</title>
<path fill="none" stroke="#191970" d="M733.2281,-63.4623C616.2343,-59.4602 206.1215,-44.0735 55.5667,-18.9118"/>
<polygon fill="#191970" stroke="#191970" points="56.0614,-15.4452 45.6066,-17.1619 54.8501,-22.3396 56.0614,-15.4452"/>
</g>
<!-- Node3 -->
<g id="node4" class="node">
<title>Node3</title>
<polygon fill="#ffffff" stroke="#bfbfbf" points="63.2192,-.5 63.2192,-18.5 114.2437,-18.5 114.2437,-.5 63.2192,-.5"/>
<text text-anchor="middle" x="88.7314" y="-6.5" font-family="Helvetica,sans-Serif" font-size="10.00" fill="#000000">unistd.h</text>
</g>
<!-- Node1&#45;&gt;Node3 -->
<g id="edge3" class="edge">
<title>Node1&#45;&gt;Node3</title>
<path fill="none" stroke="#191970" d="M733.2763,-63.1128C624.1336,-58.1716 261.3962,-40.6485 124.8035,-19.0068"/>
<polygon fill="#191970" stroke="#191970" points="125.036,-15.4974 114.5969,-17.3071 123.8861,-22.4023 125.036,-15.4974"/>
</g>
<!-- Node4 -->
<g id="node5" class="node">
<title>Node4</title>
<polygon fill="#ffffff" stroke="#bfbfbf" points="131.8892,-.5 131.8892,-18.5 179.5737,-18.5 179.5737,-.5 131.8892,-.5"/>
<text text-anchor="middle" x="155.7314" y="-6.5" font-family="Helvetica,sans-Serif" font-size="10.00" fill="#000000">stdlib.h</text>
</g>
<!-- Node1&#45;&gt;Node4 -->
<g id="edge4" class="edge">
<title>Node1&#45;&gt;Node4</title>
<path fill="none" stroke="#191970" d="M733.3051,-62.8546C631.8437,-57.4148 312.935,-39.2886 189.6718,-18.7572"/>
<polygon fill="#191970" stroke="#191970" points="190.2029,-15.297 179.7491,-17.0202 188.9958,-22.1922 190.2029,-15.297"/>
</g>
<!-- Node5 -->
<g id="node6" class="node">
<title>Node5</title>
<polygon fill="#ffffff" stroke="#bfbfbf" points="197.335,-.5 197.335,-18.5 246.1279,-18.5 246.1279,-.5 197.335,-.5"/>
<text text-anchor="middle" x="221.7314" y="-6.5" font-family="Helvetica,sans-Serif" font-size="10.00" fill="#000000">string.h</text>
</g>
<!-- Node1&#45;&gt;Node5 -->
<g id="edge5" class="edge">
<title>Node1&#45;&gt;Node5</title>
<path fill="none" stroke="#191970" d="M733.1076,-63.7772C654.0232,-61.5253 441.3019,-52.7323 256.3746,-19.0079"/>
<polygon fill="#191970" stroke="#191970" points="256.9461,-15.5543 246.4757,-17.1736 255.6706,-22.4371 256.9461,-15.5543"/>
</g>
<!-- Node6 -->
<g id="node7" class="node">
<title>Node6</title>
<polygon fill="#ffffff" stroke="#bfbfbf" points="263.665,-.5 263.665,-18.5 315.7979,-18.5 315.7979,-.5 263.665,-.5"/>
<text text-anchor="middle" x="289.7314" y="-6.5" font-family="Helvetica,sans-Serif" font-size="10.00" fill="#000000">stdarg.h</text>
</g>
<!-- Node1&#45;&gt;Node6 -->
<g id="edge6" class="edge">
<title>Node1&#45;&gt;Node6</title>
<path fill="none" stroke="#191970" d="M733.2731,-62.9993C662.2134,-59.2366 483.8137,-47.7002 325.8906,-18.9487"/>
<polygon fill="#191970" stroke="#191970" points="326.469,-15.4964 315.9993,-17.12 325.1964,-22.3797 326.469,-15.4964"/>
</g>
<!-- Node7 -->
<g id="node8" class="node">
<title>Node7</title>
<polygon fill="#ffffff" stroke="#bfbfbf" points="333.6108,-.5 333.6108,-18.5 381.8521,-18.5 381.8521,-.5 333.6108,-.5"/>
<text text-anchor="middle" x="357.7314" y="-6.5" font-family="Helvetica,sans-Serif" font-size="10.00" fill="#000000">stdint.h</text>
</g>
<!-- Node1&#45;&gt;Node7 -->
<g id="edge7" class="edge">
<title>Node1&#45;&gt;Node7</title>
<path fill="none" stroke="#191970" d="M732.9355,-62.3484C669.6578,-57.6998 523.4119,-45.1246 391.9709,-18.9818"/>
<polygon fill="#191970" stroke="#191970" points="392.6275,-15.5438 382.1323,-16.9936 391.2408,-22.4051 392.6275,-15.5438"/>
</g>
<!-- Node8 -->
<g id="node9" class="node">
<title>Node8</title>
<polygon fill="#ffffff" stroke="#bfbfbf" points="399.6035,-.5 399.6035,-18.5 457.8594,-18.5 457.8594,-.5 399.6035,-.5"/>
<text text-anchor="middle" x="428.7314" y="-6.5" font-family="Helvetica,sans-Serif" font-size="10.00" fill="#000000">pthread.h</text>
</g>
<!-- Node1&#45;&gt;Node8 -->
<g id="edge8" class="edge">
<title>Node1&#45;&gt;Node8</title>
<path fill="none" stroke="#191970" d="M733.2423,-60.6763C680.396,-54.047 570.3544,-39.3357 468.0068,-19.1118"/>
<polygon fill="#191970" stroke="#191970" points="468.6204,-15.6653 458.1284,-17.1375 467.2485,-22.5296 468.6204,-15.6653"/>
</g>
<!-- Node9 -->
<g id="node10" class="node">
<title>Node9</title>
<polygon fill="#ffffff" stroke="#bfbfbf" points="475.6108,-.5 475.6108,-18.5 523.8521,-18.5 523.8521,-.5 475.6108,-.5"/>
<text text-anchor="middle" x="499.7314" y="-6.5" font-family="Helvetica,sans-Serif" font-size="10.00" fill="#000000">ctype.h</text>
</g>
<!-- Node1&#45;&gt;Node9 -->
<g id="edge9" class="edge">
<title>Node1&#45;&gt;Node9</title>
<path fill="none" stroke="#191970" d="M733.022,-59.179C690.0104,-51.7666 610.6083,-37.3944 533.9895,-19.1541"/>
<polygon fill="#191970" stroke="#191970" points="534.7183,-15.7297 524.177,-16.7927 533.0805,-22.5354 534.7183,-15.7297"/>
</g>
<!-- Node10 -->
<g id="node11" class="node">
<title>Node10</title>
<polygon fill="#ffffff" stroke="#bfbfbf" points="541.8892,-.5 541.8892,-18.5 589.5737,-18.5 589.5737,-.5 541.8892,-.5"/>
<text text-anchor="middle" x="565.7314" y="-6.5" font-family="Helvetica,sans-Serif" font-size="10.00" fill="#000000">errno.h</text>
</g>
<!-- Node1&#45;&gt;Node10 -->
<g id="edge10" class="edge">
<title>Node1&#45;&gt;Node10</title>
<path fill="none" stroke="#191970" d="M733.2778,-56.1573C701.6332,-47.714 651.1933,-34.1208 599.4915,-19.4648"/>
<polygon fill="#191970" stroke="#191970" points="600.4032,-16.0854 589.8272,-16.7168 598.4886,-22.8185 600.4032,-16.0854"/>
</g>
<!-- Node11 -->
<g id="node12" class="node">
<title>Node11</title>
<polygon fill="#ffffff" stroke="#bfbfbf" points="607.1035,-.5 607.1035,-18.5 670.3594,-18.5 670.3594,-.5 607.1035,-.5"/>
<text text-anchor="middle" x="638.7314" y="-6.5" font-family="Helvetica,sans-Serif" font-size="10.00" fill="#000000">arpa/inet.h</text>
</g>
<!-- Node1&#45;&gt;Node11 -->
<g id="edge11" class="edge">
<title>Node1&#45;&gt;Node11</title>
<path fill="none" stroke="#191970" d="M743.9251,-55.4179C723.4976,-46.5011 692.1166,-32.803 668.9423,-22.6873"/>
<polygon fill="#191970" stroke="#191970" points="670.1338,-19.3885 659.5687,-18.5956 667.3334,-25.804 670.1338,-19.3885"/>
</g>
<!-- Node12 -->
<g id="node13" class="node">
<title>Node12</title>
<polygon fill="#ffffff" stroke="#bfbfbf" points="688.2686,-.5 688.2686,-18.5 753.1943,-18.5 753.1943,-.5 688.2686,-.5"/>
<text text-anchor="middle" x="720.7314" y="-6.5" font-family="Helvetica,sans-Serif" font-size="10.00" fill="#000000">netinet/in.h</text>
</g>
<!-- Node1&#45;&gt;Node12 -->
<g id="edge12" class="edge">
<title>Node1&#45;&gt;Node12</title>
<path fill="none" stroke="#191970" d="M757.4657,-55.4179C751.2614,-47.6624 742.1634,-36.29 734.5742,-26.8035"/>
<polygon fill="#191970" stroke="#191970" points="737.135,-24.4017 728.155,-18.7795 731.6689,-28.7746 737.135,-24.4017"/>
</g>
<!-- Node13 -->
<g id="node14" class="node">
<title>Node13</title>
<polygon fill="#ffffff" stroke="#bfbfbf" points="770.8745,-.5 770.8745,-18.5 848.5884,-18.5 848.5884,-.5 770.8745,-.5"/>
<text text-anchor="middle" x="809.7314" y="-6.5" font-family="Helvetica,sans-Serif" font-size="10.00" fill="#000000">net/ethernet.h</text>
</g>
<!-- Node1&#45;&gt;Node13 -->
<g id="edge13" class="edge">
<title>Node1&#45;&gt;Node13</title>
<path fill="none" stroke="#191970" d="M772.1623,-55.4179C778.5077,-47.6624 787.8124,-36.29 795.574,-26.8035"/>
<polygon fill="#191970" stroke="#191970" points="798.5156,-28.7354 802.1392,-18.7795 793.0979,-24.3027 798.5156,-28.7354"/>
</g>
<!-- Node14 -->
<g id="node15" class="node">
<title>Node14</title>
<polygon fill="#ffffff" stroke="#bfbfbf" points="866.2686,-.5 866.2686,-18.5 931.1943,-18.5 931.1943,-.5 866.2686,-.5"/>
<text text-anchor="middle" x="898.7314" y="-6.5" font-family="Helvetica,sans-Serif" font-size="10.00" fill="#000000">netinet/ip.h</text>
</g>
<!-- Node1&#45;&gt;Node14 -->
<g id="edge14" class="edge">
<title>Node1&#45;&gt;Node14</title>
<path fill="none" stroke="#191970" d="M786.8588,-55.4179C808.7773,-46.4215 842.5536,-32.5581 867.2605,-22.4172"/>
<polygon fill="#191970" stroke="#191970" points="868.6491,-25.6306 876.5712,-18.5956 865.9911,-19.1549 868.6491,-25.6306"/>
</g>
<!-- Node15 -->
<g id="node16" class="node">
<title>Node15</title>
<polygon fill="#ffffff" stroke="#bfbfbf" points="949.4902,-.5 949.4902,-18.5 1019.9727,-18.5 1019.9727,-.5 949.4902,-.5"/>
<text text-anchor="middle" x="984.7314" y="-6.5" font-family="Helvetica,sans-Serif" font-size="10.00" fill="#000000">netinet/tcp.h</text>
</g>
<!-- Node1&#45;&gt;Node15 -->
<g id="edge15" class="edge">
<title>Node1&#45;&gt;Node15</title>
<path fill="none" stroke="#191970" d="M796.2521,-56.6198C833.7601,-47.2428 896.6699,-31.5154 939.397,-20.8336"/>
<polygon fill="#191970" stroke="#191970" points="940.408,-24.1887 949.2606,-18.3677 938.7102,-17.3977 940.408,-24.1887"/>
</g>
<!-- Node16 -->
<g id="node17" class="node">
<title>Node16</title>
<polygon fill="#ffffff" stroke="#bfbfbf" points="1037.9312,-.5 1037.9312,-18.5 1129.5317,-18.5 1129.5317,-.5 1037.9312,-.5"/>
<text text-anchor="middle" x="1083.7314" y="-6.5" font-family="Helvetica,sans-Serif" font-size="10.00" fill="#000000">netinet/ip_icmp.h</text>
</g>
<!-- Node1&#45;&gt;Node16 -->
<g id="edge16" class="edge">
<title>Node1&#45;&gt;Node16</title>
<path fill="none" stroke="#191970" d="M796.4293,-59.0408C844.2027,-50.8121 937.7789,-34.6909 1027.7187,-19.1743"/>
<polygon fill="#191970" stroke="#191970" points="1028.5563,-22.5815 1037.8156,-17.4322 1027.3661,-15.6835 1028.5563,-22.5815"/>
</g>
<!-- Node17 -->
<g id="node18" class="node">
<title>Node17</title>
<polygon fill="#ffffff" stroke="#bfbfbf" points="1147.3276,-.5 1147.3276,-18.5 1206.1353,-18.5 1206.1353,-.5 1147.3276,-.5"/>
<text text-anchor="middle" x="1176.7314" y="-6.5" font-family="Helvetica,sans-Serif" font-size="10.00" fill="#000000">jansson.h</text>
</g>
<!-- Node1&#45;&gt;Node17 -->
<g id="edge17" class="edge">
<title>Node1&#45;&gt;Node17</title>
<path fill="none" stroke="#191970" d="M796.4553,-61.977C859.6048,-56.6685 1005.6314,-42.9645 1137.0963,-19.128"/>
<polygon fill="#191970" stroke="#191970" points="1137.7345,-22.5694 1146.9371,-17.3194 1136.4692,-15.6847 1137.7345,-22.5694"/>
</g>
<!-- Node18 -->
<g id="node19" class="node">
<title>Node18</title>
<polygon fill="#ffffff" stroke="#bfbfbf" points="1223.8374,-.5 1223.8374,-18.5 1267.6255,-18.5 1267.6255,-.5 1223.8374,-.5"/>
<text text-anchor="middle" x="1245.7314" y="-6.5" font-family="Helvetica,sans-Serif" font-size="10.00" fill="#000000">libcli.h</text>
</g>
<!-- Node1&#45;&gt;Node18 -->
<g id="edge18" class="edge">
<title>Node1&#45;&gt;Node18</title>
<path fill="none" stroke="#191970" d="M796.1444,-63.4459C868.3868,-60.5718 1051.8984,-50.7058 1213.401,-18.9069"/>
<polygon fill="#191970" stroke="#191970" points="1214.3975,-22.2769 1223.515,-16.8806 1213.0223,-15.4133 1214.3975,-22.2769"/>
</g>
<!-- Node19 -->
<g id="node20" class="node">
<title>Node19</title>
<polygon fill="#ffffff" stroke="#bfbfbf" points="1286.1157,-.5 1286.1157,-18.5 1329.3472,-18.5 1329.3472,-.5 1286.1157,-.5"/>
<text text-anchor="middle" x="1307.7314" y="-6.5" font-family="Helvetica,sans-Serif" font-size="10.00" fill="#000000">zmq.h</text>
</g>
<!-- Node1&#45;&gt;Node19 -->
<g id="edge19" class="edge">
<title>Node1&#45;&gt;Node19</title>
<path fill="none" stroke="#191970" d="M796.2188,-63.9799C875.4564,-62.1896 1089.4855,-54.3704 1275.8819,-18.7596"/>
<polygon fill="#191970" stroke="#191970" points="1276.7107,-22.1641 1285.8598,-16.8212 1275.3758,-15.2925 1276.7107,-22.1641"/>
</g>
<!-- Node20 -->
<g id="node21" class="node">
<title>Node20</title>
<g id="a_node21"><a xlink:href="mac2int_8h.html" target="_top" xlink:title="mac2int.h">
<polygon fill="#ffffff" stroke="#000000" points="1347.0542,-.5 1347.0542,-18.5 1406.4087,-18.5 1406.4087,-.5 1347.0542,-.5"/>
<text text-anchor="middle" x="1376.7314" y="-6.5" font-family="Helvetica,sans-Serif" font-size="10.00" fill="#000000">mac2int.h</text>
</a>
</g>
</g>
<!-- Node1&#45;&gt;Node20 -->
<g id="edge20" class="edge">
<title>Node1&#45;&gt;Node20</title>
<path fill="none" stroke="#191970" d="M796.1677,-63.7209C882.2736,-61.3045 1127.9803,-51.9811 1329.7314,-19 1332.0531,-18.6205 1334.4412,-18.17 1336.8576,-17.6748"/>
<polygon fill="#191970" stroke="#191970" points="1337.8504,-21.0396 1346.8529,-15.4535 1336.3318,-14.2063 1337.8504,-21.0396"/>
</g>
<!-- Node21 -->
<g id="node22" class="node">
<title>Node21</title>
<g id="a_node22"><a xlink:href="src_2include_2type_8h.html" target="_top" xlink:title="type.h">
<polygon fill="#ffffff" stroke="#000000" points="1424.1108,-.5 1424.1108,-18.5 1467.3521,-18.5 1467.3521,-.5 1424.1108,-.5"/>
<text text-anchor="middle" x="1445.7314" y="-6.5" font-family="Helvetica,sans-Serif" font-size="10.00" fill="#000000">type.h</text>
</a>
</g>
</g>
<!-- Node1&#45;&gt;Node21 -->
<g id="edge23" class="edge">
<title>Node1&#45;&gt;Node21</title>
<path fill="none" stroke="#191970" d="M796.2621,-63.2866C906.649,-58.8881 1276.0471,-42.8641 1414.0148,-18.8772"/>
<polygon fill="#191970" stroke="#191970" points="1414.7243,-22.3055 1423.9303,-17.0615 1413.4634,-15.42 1414.7243,-22.3055"/>
</g>
<!-- Node22 -->
<g id="node23" class="node">
<title>Node22</title>
<polygon fill="#ffffff" stroke="#bfbfbf" points="1485.1157,-.5 1485.1157,-18.5 1528.3472,-18.5 1528.3472,-.5 1485.1157,-.5"/>
<text text-anchor="middle" x="1506.7314" y="-6.5" font-family="Helvetica,sans-Serif" font-size="10.00" fill="#000000">time.h</text>
</g>
<!-- Node1&#45;&gt;Node22 -->
<g id="edge24" class="edge">
<title>Node1&#45;&gt;Node22</title>
<path fill="none" stroke="#191970" d="M796.2862,-63.5025C913.4698,-59.6435 1324.2381,-44.7026 1474.9622,-18.8746"/>
<polygon fill="#191970" stroke="#191970" points="1475.7129,-22.2958 1484.9332,-17.077 1474.4708,-15.4068 1475.7129,-22.2958"/>
</g>
<!-- Node20&#45;&gt;Node1 -->
<g id="edge21" class="edge">
<title>Node20&#45;&gt;Node1</title>
<path fill="none" stroke="#191970" d="M1350.5773,-18.5061C1349.6215,-18.6812 1348.671,-18.8464 1347.7314,-19 1147.0892,-51.7998 902.9733,-61.2013 806.5769,-63.6805"/>
<polygon fill="#191970" stroke="#191970" points="806.2799,-60.1866 796.3688,-63.931 806.4517,-67.1845 806.2799,-60.1866"/>
</g>
</g>
</svg>
