<?xml version="1.0" encoding="UTF-8" standalone="no"?>
<!DOCTYPE svg PUBLIC "-//W3C//DTD SVG 1.1//EN"
 "http://www.w3.org/Graphics/SVG/1.1/DTD/svg11.dtd">
<!-- Generated by graphviz version 2.40.1 (20161225.0304)
 -->
<!-- Title: applications/l2_learning.c Pages: 1 -->
<svg width="1603pt" height="302pt"
 viewBox="0.00 0.00 1603.35 302.00" xmlns="http://www.w3.org/2000/svg" xmlns:xlink="http://www.w3.org/1999/xlink">
<g id="graph0" class="graph" transform="scale(1 1) rotate(0) translate(4 298)">
<title>applications/l2_learning.c</title>
<polygon fill="#ffffff" stroke="transparent" points="-4,4 -4,-298 1599.3521,-298 1599.3521,4 -4,4"/>
<!-- Node0 -->
<g id="node1" class="node">
<title>Node0</title>
<polygon fill="#bfbfbf" stroke="#000000" points="776.4731,-275.5 776.4731,-293.5 904.7681,-293.5 904.7681,-275.5 776.4731,-275.5"/>
<text text-anchor="middle" x="840.6206" y="-281.5" font-family="Helvetica,sans-Serif" font-size="10.00" fill="#000000">applications/l2_learning.c</text>
</g>
<!-- Node1 -->
<g id="node2" class="node">
<title>Node1</title>
<g id="a_node2"><a xlink:href="l2__learning_8h.html" target="_top" xlink:title="l2_learning.h">
<polygon fill="#ffffff" stroke="#000000" points="757.9878,-220.5 757.9878,-238.5 831.2534,-238.5 831.2534,-220.5 757.9878,-220.5"/>
<text text-anchor="middle" x="794.6206" y="-226.5" font-family="Helvetica,sans-Serif" font-size="10.00" fill="#000000">l2_learning.h</text>
</a>
</g>
</g>
<!-- Node0&#45;&gt;Node1 -->
<g id="edge1" class="edge">
<title>Node0&#45;&gt;Node1</title>
<path fill="none" stroke="#191970" d="M833.0246,-275.4179C826.4721,-267.5833 816.8324,-256.0575 808.8502,-246.5137"/>
<polygon fill="#191970" stroke="#191970" points="811.482,-244.2048 802.3816,-238.7795 806.1124,-248.6957 811.482,-244.2048"/>
</g>
<!-- Node30 -->
<g id="node31" class="node">
<title>Node30</title>
<polygon fill="#ffffff" stroke="#bfbfbf" points="849.3203,-220.5 849.3203,-238.5 925.9209,-238.5 925.9209,-220.5 849.3203,-220.5"/>
<text text-anchor="middle" x="887.6206" y="-226.5" font-family="Helvetica,sans-Serif" font-size="10.00" fill="#000000">mac_queue.h</text>
</g>
<!-- Node0&#45;&gt;Node30 -->
<g id="edge36" class="edge">
<title>Node0&#45;&gt;Node30</title>
<path fill="none" stroke="#191970" d="M848.3817,-275.4179C855.0767,-267.5833 864.926,-256.0575 873.0816,-246.5137"/>
<polygon fill="#191970" stroke="#191970" points="875.8551,-248.6556 879.6909,-238.7795 870.5335,-244.108 875.8551,-248.6556"/>
</g>
<!-- Node2 -->
<g id="node3" class="node">
<title>Node2</title>
<g id="a_node3"><a xlink:href="src_2include_2common_8h.html" target="_top" xlink:title="common.h">
<polygon fill="#ffffff" stroke="#000000" points="776.2783,-55.5 776.2783,-73.5 838.9629,-73.5 838.9629,-55.5 776.2783,-55.5"/>
<text text-anchor="middle" x="807.6206" y="-61.5" font-family="Helvetica,sans-Serif" font-size="10.00" fill="#000000">common.h</text>
</a>
</g>
</g>
<!-- Node1&#45;&gt;Node2 -->
<g id="edge2" class="edge">
<title>Node1&#45;&gt;Node2</title>
<path fill="none" stroke="#191970" d="M803.6758,-220.3393C811.4651,-211.7645 822.1338,-198.1793 826.6206,-184 837.6069,-149.2814 825.0028,-106.7886 815.7189,-82.9691"/>
<polygon fill="#191970" stroke="#191970" points="818.9484,-81.6196 811.9027,-73.707 812.4763,-84.2863 818.9484,-81.6196"/>
</g>
<!-- Node25 -->
<g id="node26" class="node">
<title>Node25</title>
<g id="a_node26"><a xlink:href="app__events_2include_2app__event_8h.html" target="_top" xlink:title="app_event.h">
<polygon fill="#ffffff" stroke="#000000" points="678.0962,-165.5 678.0962,-183.5 749.145,-183.5 749.145,-165.5 678.0962,-165.5"/>
<text text-anchor="middle" x="713.6206" y="-171.5" font-family="Helvetica,sans-Serif" font-size="10.00" fill="#000000">app_event.h</text>
</a>
</g>
</g>
<!-- Node1&#45;&gt;Node25 -->
<g id="edge27" class="edge">
<title>Node1&#45;&gt;Node25</title>
<path fill="none" stroke="#191970" d="M781.2451,-220.4179C768.8166,-211.9788 750.0809,-199.257 735.4797,-189.3426"/>
<polygon fill="#191970" stroke="#191970" points="737.2552,-186.3176 727.016,-183.5956 733.3229,-192.1088 737.2552,-186.3176"/>
</g>
<!-- Node29 -->
<g id="node30" class="node">
<title>Node29</title>
<g id="a_node30"><a xlink:href="hash_8h.html" target="_top" xlink:title="hash.h">
<polygon fill="#ffffff" stroke="#000000" points="771.6084,-165.5 771.6084,-183.5 817.6328,-183.5 817.6328,-165.5 771.6084,-165.5"/>
<text text-anchor="middle" x="794.6206" y="-171.5" font-family="Helvetica,sans-Serif" font-size="10.00" fill="#000000">hash.h</text>
</a>
</g>
</g>
<!-- Node1&#45;&gt;Node29 -->
<g id="edge34" class="edge">
<title>Node1&#45;&gt;Node29</title>
<path fill="none" stroke="#191970" d="M794.6206,-220.4179C794.6206,-213.2164 794.6206,-202.8962 794.6206,-193.8632"/>
<polygon fill="#191970" stroke="#191970" points="798.1207,-193.7794 794.6206,-183.7795 791.1207,-193.7795 798.1207,-193.7794"/>
</g>
<!-- Node3 -->
<g id="node4" class="node">
<title>Node3</title>
<polygon fill="#ffffff" stroke="#bfbfbf" points="1549.8892,-.5 1549.8892,-18.5 1595.3521,-18.5 1595.3521,-.5 1549.8892,-.5"/>
<text text-anchor="middle" x="1572.6206" y="-6.5" font-family="Helvetica,sans-Serif" font-size="10.00" fill="#000000">stdio.h</text>
</g>
<!-- Node2&#45;&gt;Node3 -->
<g id="edge3" class="edge">
<title>Node2&#45;&gt;Node3</title>
<path fill="none" stroke="#191970" d="M839.3022,-63.5291C958.9361,-59.7127 1383.9047,-44.7579 1539.4576,-18.9625"/>
<polygon fill="#191970" stroke="#191970" points="1540.4969,-22.3341 1549.7464,-17.1672 1539.2936,-15.4383 1540.4969,-22.3341"/>
</g>
<!-- Node4 -->
<g id="node5" class="node">
<title>Node4</title>
<polygon fill="#ffffff" stroke="#bfbfbf" points="61.1084,-.5 61.1084,-18.5 112.1328,-18.5 112.1328,-.5 61.1084,-.5"/>
<text text-anchor="middle" x="86.6206" y="-6.5" font-family="Helvetica,sans-Serif" font-size="10.00" fill="#000000">unistd.h</text>
</g>
<!-- Node2&#45;&gt;Node4 -->
<g id="edge4" class="edge">
<title>Node2&#45;&gt;Node4</title>
<path fill="none" stroke="#191970" d="M776.0013,-63.2735C661.5508,-58.7022 268.3754,-41.8204 122.5487,-18.9748"/>
<polygon fill="#191970" stroke="#191970" points="122.9193,-15.4889 112.4839,-17.3197 121.7834,-22.3961 122.9193,-15.4889"/>
</g>
<!-- Node5 -->
<g id="node6" class="node">
<title>Node5</title>
<polygon fill="#ffffff" stroke="#bfbfbf" points="129.7783,-.5 129.7783,-18.5 177.4629,-18.5 177.4629,-.5 129.7783,-.5"/>
<text text-anchor="middle" x="153.6206" y="-6.5" font-family="Helvetica,sans-Serif" font-size="10.00" fill="#000000">stdlib.h</text>
</g>
<!-- Node2&#45;&gt;Node5 -->
<g id="edge5" class="edge">
<title>Node2&#45;&gt;Node5</title>
<path fill="none" stroke="#191970" d="M776.0573,-63.0539C669.1039,-58.0218 320.1635,-40.4939 187.5512,-18.7447"/>
<polygon fill="#191970" stroke="#191970" points="188.0844,-15.285 177.6353,-17.0364 186.8959,-22.1834 188.0844,-15.285"/>
</g>
<!-- Node6 -->
<g id="node7" class="node">
<title>Node6</title>
<polygon fill="#ffffff" stroke="#bfbfbf" points="195.2241,-.5 195.2241,-18.5 244.0171,-18.5 244.0171,-.5 195.2241,-.5"/>
<text text-anchor="middle" x="219.6206" y="-6.5" font-family="Helvetica,sans-Serif" font-size="10.00" fill="#000000">string.h</text>
</g>
<!-- Node2&#45;&gt;Node6 -->
<g id="edge6" class="edge">
<title>Node2&#45;&gt;Node6</title>
<path fill="none" stroke="#191970" d="M776.0406,-64.0978C692.2227,-62.5684 457.2102,-55.2748 254.3037,-18.9989"/>
<polygon fill="#191970" stroke="#191970" points="254.8258,-15.5365 244.3613,-17.1932 253.5748,-22.4238 254.8258,-15.5365"/>
</g>
<!-- Node7 -->
<g id="node8" class="node">
<title>Node7</title>
<polygon fill="#ffffff" stroke="#bfbfbf" points="261.5542,-.5 261.5542,-18.5 313.687,-18.5 313.687,-.5 261.5542,-.5"/>
<text text-anchor="middle" x="287.6206" y="-6.5" font-family="Helvetica,sans-Serif" font-size="10.00" fill="#000000">stdarg.h</text>
</g>
<!-- Node2&#45;&gt;Node7 -->
<g id="edge7" class="edge">
<title>Node2&#45;&gt;Node7</title>
<path fill="none" stroke="#191970" d="M776.1601,-63.4165C699.9898,-60.3969 499.5859,-50.084 323.8246,-18.9364"/>
<polygon fill="#191970" stroke="#191970" points="324.3453,-15.4739 313.8834,-17.1474 323.1054,-22.3633 324.3453,-15.4739"/>
</g>
<!-- Node8 -->
<g id="node9" class="node">
<title>Node8</title>
<polygon fill="#ffffff" stroke="#bfbfbf" points="331.5,-.5 331.5,-18.5 379.7412,-18.5 379.7412,-.5 331.5,-.5"/>
<text text-anchor="middle" x="355.6206" y="-6.5" font-family="Helvetica,sans-Serif" font-size="10.00" fill="#000000">stdint.h</text>
</g>
<!-- Node2&#45;&gt;Node8 -->
<g id="edge8" class="edge">
<title>Node2&#45;&gt;Node8</title>
<path fill="none" stroke="#191970" d="M776.0676,-62.932C707.4433,-59.1267 539.4444,-47.6706 390.2661,-19.0309"/>
<polygon fill="#191970" stroke="#191970" points="390.4997,-15.5105 380.0143,-17.0294 389.1583,-22.3808 390.4997,-15.5105"/>
</g>
<!-- Node9 -->
<g id="node10" class="node">
<title>Node9</title>
<polygon fill="#ffffff" stroke="#bfbfbf" points="397.4927,-.5 397.4927,-18.5 455.7485,-18.5 455.7485,-.5 397.4927,-.5"/>
<text text-anchor="middle" x="426.6206" y="-6.5" font-family="Helvetica,sans-Serif" font-size="10.00" fill="#000000">pthread.h</text>
</g>
<!-- Node2&#45;&gt;Node9 -->
<g id="edge9" class="edge">
<title>Node2&#45;&gt;Node9</title>
<path fill="none" stroke="#191970" d="M776.2174,-61.5352C717.2819,-55.7134 585.9457,-41.5214 466.0858,-19.1052"/>
<polygon fill="#191970" stroke="#191970" points="466.4831,-15.6183 456.0062,-17.1952 465.1797,-22.4959 466.4831,-15.6183"/>
</g>
<!-- Node10 -->
<g id="node11" class="node">
<title>Node10</title>
<polygon fill="#ffffff" stroke="#bfbfbf" points="473.5,-.5 473.5,-18.5 521.7412,-18.5 521.7412,-.5 473.5,-.5"/>
<text text-anchor="middle" x="497.6206" y="-6.5" font-family="Helvetica,sans-Serif" font-size="10.00" fill="#000000">ctype.h</text>
</g>
<!-- Node2&#45;&gt;Node10 -->
<g id="edge10" class="edge">
<title>Node2&#45;&gt;Node10</title>
<path fill="none" stroke="#191970" d="M776.2339,-60.5682C726.4006,-54.062 625.9845,-39.879 531.9979,-19.1078"/>
<polygon fill="#191970" stroke="#191970" points="532.5696,-15.6492 522.0462,-16.8779 531.039,-22.4798 532.5696,-15.6492"/>
</g>
<!-- Node11 -->
<g id="node12" class="node">
<title>Node11</title>
<polygon fill="#ffffff" stroke="#bfbfbf" points="539.7783,-.5 539.7783,-18.5 587.4629,-18.5 587.4629,-.5 539.7783,-.5"/>
<text text-anchor="middle" x="563.6206" y="-6.5" font-family="Helvetica,sans-Serif" font-size="10.00" fill="#000000">errno.h</text>
</g>
<!-- Node2&#45;&gt;Node11 -->
<g id="edge11" class="edge">
<title>Node2&#45;&gt;Node11</title>
<path fill="none" stroke="#191970" d="M776.1934,-58.5431C736.5951,-50.8661 666.2594,-36.6643 597.7663,-19.4239"/>
<polygon fill="#191970" stroke="#191970" points="598.2322,-15.9311 587.6781,-16.8586 596.5071,-22.7152 598.2322,-15.9311"/>
</g>
<!-- Node12 -->
<g id="node13" class="node">
<title>Node12</title>
<polygon fill="#ffffff" stroke="#bfbfbf" points="604.9927,-.5 604.9927,-18.5 668.2485,-18.5 668.2485,-.5 604.9927,-.5"/>
<text text-anchor="middle" x="636.6206" y="-6.5" font-family="Helvetica,sans-Serif" font-size="10.00" fill="#000000">arpa/inet.h</text>
</g>
<!-- Node2&#45;&gt;Node12 -->
<g id="edge12" class="edge">
<title>Node2&#45;&gt;Node12</title>
<path fill="none" stroke="#191970" d="M779.3834,-55.4179C750.7084,-46.1949 706.1296,-31.8567 674.4216,-21.6582"/>
<polygon fill="#191970" stroke="#191970" points="675.2069,-18.2343 664.6155,-18.5042 673.0635,-24.8981 675.2069,-18.2343"/>
</g>
<!-- Node13 -->
<g id="node14" class="node">
<title>Node13</title>
<polygon fill="#ffffff" stroke="#bfbfbf" points="686.1577,-.5 686.1577,-18.5 751.0835,-18.5 751.0835,-.5 686.1577,-.5"/>
<text text-anchor="middle" x="718.6206" y="-6.5" font-family="Helvetica,sans-Serif" font-size="10.00" fill="#000000">netinet/in.h</text>
</g>
<!-- Node2&#45;&gt;Node13 -->
<g id="edge13" class="edge">
<title>Node2&#45;&gt;Node13</title>
<path fill="none" stroke="#191970" d="M792.9241,-55.4179C779.1392,-46.8992 758.2929,-34.0166 742.1857,-24.0627"/>
<polygon fill="#191970" stroke="#191970" points="743.6857,-20.8753 733.339,-18.5956 740.0058,-26.83 743.6857,-20.8753"/>
</g>
<!-- Node14 -->
<g id="node15" class="node">
<title>Node14</title>
<polygon fill="#ffffff" stroke="#bfbfbf" points="768.7637,-.5 768.7637,-18.5 846.4775,-18.5 846.4775,-.5 768.7637,-.5"/>
<text text-anchor="middle" x="807.6206" y="-6.5" font-family="Helvetica,sans-Serif" font-size="10.00" fill="#000000">net/ethernet.h</text>
</g>
<!-- Node2&#45;&gt;Node14 -->
<g id="edge14" class="edge">
<title>Node2&#45;&gt;Node14</title>
<path fill="none" stroke="#191970" d="M807.6206,-55.4179C807.6206,-48.2164 807.6206,-37.8962 807.6206,-28.8632"/>
<polygon fill="#191970" stroke="#191970" points="811.1207,-28.7794 807.6206,-18.7795 804.1207,-28.7795 811.1207,-28.7794"/>
</g>
<!-- Node15 -->
<g id="node16" class="node">
<title>Node15</title>
<polygon fill="#ffffff" stroke="#bfbfbf" points="864.1577,-.5 864.1577,-18.5 929.0835,-18.5 929.0835,-.5 864.1577,-.5"/>
<text text-anchor="middle" x="896.6206" y="-6.5" font-family="Helvetica,sans-Serif" font-size="10.00" fill="#000000">netinet/ip.h</text>
</g>
<!-- Node2&#45;&gt;Node15 -->
<g id="edge15" class="edge">
<title>Node2&#45;&gt;Node15</title>
<path fill="none" stroke="#191970" d="M822.3171,-55.4179C836.102,-46.8992 856.9484,-34.0166 873.0555,-24.0627"/>
<polygon fill="#191970" stroke="#191970" points="875.2354,-26.83 881.9022,-18.5956 871.5555,-20.8753 875.2354,-26.83"/>
</g>
<!-- Node16 -->
<g id="node17" class="node">
<title>Node16</title>
<polygon fill="#ffffff" stroke="#bfbfbf" points="947.3794,-.5 947.3794,-18.5 1017.8618,-18.5 1017.8618,-.5 947.3794,-.5"/>
<text text-anchor="middle" x="982.6206" y="-6.5" font-family="Helvetica,sans-Serif" font-size="10.00" fill="#000000">netinet/tcp.h</text>
</g>
<!-- Node2&#45;&gt;Node16 -->
<g id="edge16" class="edge">
<title>Node2&#45;&gt;Node16</title>
<path fill="none" stroke="#191970" d="M836.5183,-55.4179C865.9911,-46.155 911.881,-31.7325 944.3561,-21.526"/>
<polygon fill="#191970" stroke="#191970" points="945.4803,-24.8415 953.9708,-18.5042 943.3815,-18.1636 945.4803,-24.8415"/>
</g>
<!-- Node17 -->
<g id="node18" class="node">
<title>Node17</title>
<polygon fill="#ffffff" stroke="#bfbfbf" points="1035.8203,-.5 1035.8203,-18.5 1127.4209,-18.5 1127.4209,-.5 1035.8203,-.5"/>
<text text-anchor="middle" x="1081.6206" y="-6.5" font-family="Helvetica,sans-Serif" font-size="10.00" fill="#000000">netinet/ip_icmp.h</text>
</g>
<!-- Node2&#45;&gt;Node17 -->
<g id="edge17" class="edge">
<title>Node2&#45;&gt;Node17</title>
<path fill="none" stroke="#191970" d="M839.0519,-58.1908C884.8011,-49.0076 970.4021,-31.8249 1026.7046,-20.5233"/>
<polygon fill="#191970" stroke="#191970" points="1027.3986,-23.9539 1036.5142,-18.5542 1026.0209,-17.0908 1027.3986,-23.9539"/>
</g>
<!-- Node18 -->
<g id="node19" class="node">
<title>Node18</title>
<polygon fill="#ffffff" stroke="#bfbfbf" points="1145.2168,-.5 1145.2168,-18.5 1204.0244,-18.5 1204.0244,-.5 1145.2168,-.5"/>
<text text-anchor="middle" x="1174.6206" y="-6.5" font-family="Helvetica,sans-Serif" font-size="10.00" fill="#000000">jansson.h</text>
</g>
<!-- Node2&#45;&gt;Node18 -->
<g id="edge18" class="edge">
<title>Node2&#45;&gt;Node18</title>
<path fill="none" stroke="#191970" d="M839.1059,-61.2867C896.2275,-55.2119 1020.8868,-40.83 1134.8794,-19.1838"/>
<polygon fill="#191970" stroke="#191970" points="1135.6584,-22.5982 1144.8175,-17.2727 1134.3364,-15.7242 1135.6584,-22.5982"/>
</g>
<!-- Node19 -->
<g id="node20" class="node">
<title>Node19</title>
<polygon fill="#ffffff" stroke="#bfbfbf" points="1221.7266,-.5 1221.7266,-18.5 1265.5146,-18.5 1265.5146,-.5 1221.7266,-.5"/>
<text text-anchor="middle" x="1243.6206" y="-6.5" font-family="Helvetica,sans-Serif" font-size="10.00" fill="#000000">libcli.h</text>
</g>
<!-- Node2&#45;&gt;Node19 -->
<g id="edge19" class="edge">
<title>Node2&#45;&gt;Node19</title>
<path fill="none" stroke="#191970" d="M839.184,-62.9497C906.2284,-59.2321 1067.8007,-48.0217 1211.5208,-18.8871"/>
<polygon fill="#191970" stroke="#191970" points="1212.311,-22.2979 1221.398,-16.8503 1210.8972,-15.4421 1212.311,-22.2979"/>
</g>
<!-- Node20 -->
<g id="node21" class="node">
<title>Node20</title>
<polygon fill="#ffffff" stroke="#bfbfbf" points="1284.0049,-.5 1284.0049,-18.5 1327.2363,-18.5 1327.2363,-.5 1284.0049,-.5"/>
<text text-anchor="middle" x="1305.6206" y="-6.5" font-family="Helvetica,sans-Serif" font-size="10.00" fill="#000000">zmq.h</text>
</g>
<!-- Node2&#45;&gt;Node20 -->
<g id="edge20" class="edge">
<title>Node2&#45;&gt;Node20</title>
<path fill="none" stroke="#191970" d="M839.0895,-63.6045C913.3271,-61.0322 1105.1721,-51.7008 1273.7016,-18.7924"/>
<polygon fill="#191970" stroke="#191970" points="1274.6178,-22.1789 1283.7443,-16.7976 1273.254,-15.313 1274.6178,-22.1789"/>
</g>
<!-- Node21 -->
<g id="node22" class="node">
<title>Node21</title>
<g id="a_node22"><a xlink:href="mac2int_8h.html" target="_top" xlink:title="mac2int.h">
<polygon fill="#ffffff" stroke="#000000" points="1344.9434,-.5 1344.9434,-18.5 1404.2979,-18.5 1404.2979,-.5 1344.9434,-.5"/>
<text text-anchor="middle" x="1374.6206" y="-6.5" font-family="Helvetica,sans-Serif" font-size="10.00" fill="#000000">mac2int.h</text>
</a>
</g>
</g>
<!-- Node2&#45;&gt;Node21 -->
<g id="edge21" class="edge">
<title>Node2&#45;&gt;Node21</title>
<path fill="none" stroke="#191970" d="M839.2094,-63.3726C920.7726,-60.2621 1143.9591,-49.6557 1327.6206,-19 1329.941,-18.6127 1332.3281,-18.1566 1334.7439,-17.6574"/>
<polygon fill="#191970" stroke="#191970" points="1335.7398,-21.0213 1344.7379,-15.428 1334.2157,-14.1892 1335.7398,-21.0213"/>
</g>
<!-- Node22 -->
<g id="node23" class="node">
<title>Node22</title>
<g id="a_node23"><a xlink:href="ip2int_8h.html" target="_top" xlink:title="ip2int.h">
<polygon fill="#ffffff" stroke="#000000" points="1422.4976,-.5 1422.4976,-18.5 1470.7437,-18.5 1470.7437,-.5 1422.4976,-.5"/>
<text text-anchor="middle" x="1446.6206" y="-6.5" font-family="Helvetica,sans-Serif" font-size="10.00" fill="#000000">ip2int.h</text>
</a>
</g>
</g>
<!-- Node2&#45;&gt;Node22 -->
<g id="edge23" class="edge">
<title>Node2&#45;&gt;Node22</title>
<path fill="none" stroke="#191970" d="M839.236,-62.7997C946.3225,-57.2539 1293.7665,-38.8997 1404.6206,-19 1407.0852,-18.5576 1409.6293,-18.0046 1412.2003,-17.3893"/>
<polygon fill="#191970" stroke="#191970" points="1413.3387,-20.7099 1422.1382,-14.8091 1411.5795,-13.9345 1413.3387,-20.7099"/>
</g>
<!-- Node23 -->
<g id="node24" class="node">
<title>Node23</title>
<g id="a_node24"><a xlink:href="src_2include_2type_8h.html" target="_top" xlink:title="type.h">
<polygon fill="#ffffff" stroke="#000000" points="0,-.5 0,-18.5 43.2412,-18.5 43.2412,-.5 0,-.5"/>
<text text-anchor="middle" x="21.6206" y="-6.5" font-family="Helvetica,sans-Serif" font-size="10.00" fill="#000000">type.h</text>
</a>
</g>
</g>
<!-- Node2&#45;&gt;Node23 -->
<g id="edge25" class="edge">
<title>Node2&#45;&gt;Node23</title>
<path fill="none" stroke="#191970" d="M776.2619,-63.6429C654.6867,-60.1643 213.6744,-46.0614 53.5515,-18.895"/>
<polygon fill="#191970" stroke="#191970" points="53.8764,-15.3978 43.4171,-17.0867 52.6467,-22.2889 53.8764,-15.3978"/>
</g>
<!-- Node24 -->
<g id="node25" class="node">
<title>Node24</title>
<polygon fill="#ffffff" stroke="#bfbfbf" points="1489.0049,-.5 1489.0049,-18.5 1532.2363,-18.5 1532.2363,-.5 1489.0049,-.5"/>
<text text-anchor="middle" x="1510.6206" y="-6.5" font-family="Helvetica,sans-Serif" font-size="10.00" fill="#000000">time.h</text>
</g>
<!-- Node2&#45;&gt;Node24 -->
<g id="edge26" class="edge">
<title>Node2&#45;&gt;Node24</title>
<path fill="none" stroke="#191970" d="M839.3596,-63.319C952.3905,-58.966 1335.7234,-42.9078 1478.8752,-18.6412"/>
<polygon fill="#191970" stroke="#191970" points="1479.5291,-22.0799 1488.7601,-16.8799 1478.3011,-15.1885 1479.5291,-22.0799"/>
</g>
<!-- Node21&#45;&gt;Node2 -->
<g id="edge22" class="edge">
<title>Node21&#45;&gt;Node2</title>
<path fill="none" stroke="#191970" d="M1348.056,-18.5732C1347.2384,-18.723 1346.4255,-18.8657 1345.6206,-19 1162.6133,-49.5465 940.362,-60.1863 849.3373,-63.3391"/>
<polygon fill="#191970" stroke="#191970" points="849.0306,-59.8473 839.153,-63.6791 849.2642,-66.8434 849.0306,-59.8473"/>
</g>
<!-- Node22&#45;&gt;Node2 -->
<g id="edge24" class="edge">
<title>Node22&#45;&gt;Node2</title>
<path fill="none" stroke="#191970" d="M1425.1068,-18.5225C1424.2725,-18.6928 1423.4421,-18.8525 1422.6206,-19 1312.6202,-38.7465 969.6594,-56.9712 849.5506,-62.6693"/>
<polygon fill="#191970" stroke="#191970" points="849.1219,-59.1854 839.2971,-63.1507 849.4502,-66.1777 849.1219,-59.1854"/>
</g>
<!-- Node25&#45;&gt;Node2 -->
<g id="edge28" class="edge">
<title>Node25&#45;&gt;Node2</title>
<path fill="none" stroke="#191970" d="M721.313,-165.4982C737.0118,-147.1273 772.9586,-105.0619 793.1588,-81.4233"/>
<polygon fill="#191970" stroke="#191970" points="795.9862,-83.5023 799.8219,-73.6261 790.6645,-78.9547 795.9862,-83.5023"/>
</g>
<!-- Node26 -->
<g id="node27" class="node">
<title>Node26</title>
<g id="a_node27"><a xlink:href="src_2include_2context_8h.html" target="_top" xlink:title="context.h">
<polygon fill="#ffffff" stroke="#000000" points="685.3301,-110.5 685.3301,-128.5 741.9111,-128.5 741.9111,-110.5 685.3301,-110.5"/>
<text text-anchor="middle" x="713.6206" y="-116.5" font-family="Helvetica,sans-Serif" font-size="10.00" fill="#000000">context.h</text>
</a>
</g>
</g>
<!-- Node25&#45;&gt;Node26 -->
<g id="edge29" class="edge">
<title>Node25&#45;&gt;Node26</title>
<path fill="none" stroke="#191970" d="M713.6206,-165.4179C713.6206,-158.2164 713.6206,-147.8962 713.6206,-138.8632"/>
<polygon fill="#191970" stroke="#191970" points="717.1207,-138.7794 713.6206,-128.7795 710.1207,-138.7795 717.1207,-138.7794"/>
</g>
<!-- Node27 -->
<g id="node28" class="node">
<title>Node27</title>
<g id="a_node28"><a xlink:href="app__events_2include_2app__event__id_8h.html" target="_top" xlink:title="app_event_id.h">
<polygon fill="#ffffff" stroke="#000000" points="583.4238,-110.5 583.4238,-128.5 667.8174,-128.5 667.8174,-110.5 583.4238,-110.5"/>
<text text-anchor="middle" x="625.6206" y="-116.5" font-family="Helvetica,sans-Serif" font-size="10.00" fill="#000000">app_event_id.h</text>
</a>
</g>
</g>
<!-- Node25&#45;&gt;Node27 -->
<g id="edge31" class="edge">
<title>Node25&#45;&gt;Node27</title>
<path fill="none" stroke="#191970" d="M699.0892,-165.4179C685.4592,-156.8992 664.8471,-144.0166 648.921,-134.0627"/>
<polygon fill="#191970" stroke="#191970" points="650.5086,-130.9277 640.1736,-128.5956 646.7986,-136.8637 650.5086,-130.9277"/>
</g>
<!-- Node28 -->
<g id="node29" class="node">
<title>Node28</title>
<g id="a_node29"><a xlink:href="app__events_2include_2app__event__list_8h.html" target="_top" xlink:title="app_event_list.h">
<polygon fill="#ffffff" stroke="#000000" points="244.2046,-55.5 244.2046,-73.5 333.0366,-73.5 333.0366,-55.5 244.2046,-55.5"/>
<text text-anchor="middle" x="288.6206" y="-61.5" font-family="Helvetica,sans-Serif" font-size="10.00" fill="#000000">app_event_list.h</text>
</a>
</g>
</g>
<!-- Node25&#45;&gt;Node28 -->
<g id="edge32" class="edge">
<title>Node25&#45;&gt;Node28</title>
<path fill="none" stroke="#191970" d="M678.8411,-165.4982C602.1636,-145.6523 418.6486,-98.1543 333.4687,-76.1077"/>
<polygon fill="#191970" stroke="#191970" points="334.1401,-72.6663 323.5821,-73.5489 332.3861,-79.443 334.1401,-72.6663"/>
</g>
<!-- Node26&#45;&gt;Node2 -->
<g id="edge30" class="edge">
<title>Node26&#45;&gt;Node2</title>
<path fill="none" stroke="#191970" d="M729.1428,-110.4179C743.8381,-101.8195 766.1318,-88.7754 783.2072,-78.7844"/>
<polygon fill="#191970" stroke="#191970" points="785.2118,-81.6667 792.0754,-73.5956 781.6767,-75.6249 785.2118,-81.6667"/>
</g>
<!-- Node28&#45;&gt;Node23 -->
<g id="edge33" class="edge">
<title>Node28&#45;&gt;Node23</title>
<path fill="none" stroke="#191970" d="M244.1629,-57.5622C198.431,-50.0717 124.9934,-37.0625 53.5546,-19.2902"/>
<polygon fill="#191970" stroke="#191970" points="54.0431,-15.8038 43.4906,-16.7509 52.3305,-22.5911 54.0431,-15.8038"/>
</g>
<!-- Node29&#45;&gt;Node2 -->
<g id="edge35" class="edge">
<title>Node29&#45;&gt;Node2</title>
<path fill="none" stroke="#191970" d="M795.6845,-165.4982C797.7889,-147.6913 802.5243,-107.6225 805.3573,-83.6515"/>
<polygon fill="#191970" stroke="#191970" points="808.8441,-83.9678 806.5421,-73.6261 801.8925,-83.1462 808.8441,-83.9678"/>
</g>
</g>
</svg>
