<?xml version="1.0" encoding="UTF-8" standalone="no"?>
<!DOCTYPE svg PUBLIC "-//W3C//DTD SVG 1.1//EN"
 "http://www.w3.org/Graphics/SVG/1.1/DTD/svg11.dtd">
<!-- Generated by graphviz version 2.40.1 (20161225.0304)
 -->
<!-- Title: libcli/libcli.h Pages: 1 -->
<svg width="203pt" height="82pt"
 viewBox="0.00 0.00 202.57 82.00" xmlns="http://www.w3.org/2000/svg" xmlns:xlink="http://www.w3.org/1999/xlink">
<g id="graph0" class="graph" transform="scale(1 1) rotate(0) translate(4 78)">
<title>libcli/libcli.h</title>
<polygon fill="#ffffff" stroke="transparent" points="-4,4 -4,-78 198.5713,-78 198.5713,4 -4,4"/>
<!-- Node0 -->
<g id="node1" class="node">
<title>Node0</title>
<polygon fill="#bfbfbf" stroke="#000000" points="60.0591,-55.5 60.0591,-73.5 126.0737,-73.5 126.0737,-55.5 60.0591,-55.5"/>
<text text-anchor="middle" x="93.0664" y="-61.5" font-family="Helvetica,sans-Serif" font-size="10.00" fill="#000000">libcli/libcli.h</text>
</g>
<!-- Node1 -->
<g id="node2" class="node">
<title>Node1</title>
<polygon fill="#ffffff" stroke="#bfbfbf" points="0,-.5 0,-18.5 52.1328,-18.5 52.1328,-.5 0,-.5"/>
<text text-anchor="middle" x="26.0664" y="-6.5" font-family="Helvetica,sans-Serif" font-size="10.00" fill="#000000">stdarg.h</text>
</g>
<!-- Node0&#45;&gt;Node1 -->
<g id="edge1" class="edge">
<title>Node0&#45;&gt;Node1</title>
<path fill="none" stroke="#191970" d="M82.0027,-55.4179C72.0731,-47.2667 57.2764,-35.1201 45.3952,-25.3669"/>
<polygon fill="#191970" stroke="#191970" points="47.3205,-22.4192 37.3705,-18.7795 42.879,-27.8297 47.3205,-22.4192"/>
</g>
<!-- Node2 -->
<g id="node3" class="node">
<title>Node2</title>
<polygon fill="#ffffff" stroke="#bfbfbf" points="70.335,-.5 70.335,-18.5 115.7979,-18.5 115.7979,-.5 70.335,-.5"/>
<text text-anchor="middle" x="93.0664" y="-6.5" font-family="Helvetica,sans-Serif" font-size="10.00" fill="#000000">stdio.h</text>
</g>
<!-- Node0&#45;&gt;Node2 -->
<g id="edge2" class="edge">
<title>Node0&#45;&gt;Node2</title>
<path fill="none" stroke="#191970" d="M93.0664,-55.4179C93.0664,-48.2164 93.0664,-37.8962 93.0664,-28.8632"/>
<polygon fill="#191970" stroke="#191970" points="96.5665,-28.7794 93.0664,-18.7795 89.5665,-28.7795 96.5665,-28.7794"/>
</g>
<!-- Node3 -->
<g id="node4" class="node">
<title>Node3</title>
<polygon fill="#ffffff" stroke="#bfbfbf" points="133.5615,-.5 133.5615,-18.5 194.5713,-18.5 194.5713,-.5 133.5615,-.5"/>
<text text-anchor="middle" x="164.0664" y="-6.5" font-family="Helvetica,sans-Serif" font-size="10.00" fill="#000000">sys/time.h</text>
</g>
<!-- Node0&#45;&gt;Node3 -->
<g id="edge3" class="edge">
<title>Node0&#45;&gt;Node3</title>
<path fill="none" stroke="#191970" d="M104.7906,-55.4179C115.4152,-47.1876 131.2981,-34.8839 143.9495,-25.0836"/>
<polygon fill="#191970" stroke="#191970" points="146.3254,-27.6704 152.0875,-18.7795 142.0385,-22.1365 146.3254,-27.6704"/>
</g>
</g>
</svg>
