<?xml version="1.0" encoding="UTF-8" standalone="no"?>
<!DOCTYPE svg PUBLIC "-//W3C//DTD SVG 1.1//EN"
 "http://www.w3.org/Graphics/SVG/1.1/DTD/svg11.dtd">
<!-- Generated by graphviz version 2.40.1 (20161225.0304)
 -->
<!-- Title: libcli/libcli.h Pages: 1 -->
<svg width="3890pt" height="462pt"
 viewBox="0.00 0.00 3890.20 462.00" xmlns="http://www.w3.org/2000/svg" xmlns:xlink="http://www.w3.org/1999/xlink">
<g id="graph0" class="graph" transform="scale(1 1) rotate(0) translate(4 458)">
<title>libcli/libcli.h</title>
<polygon fill="#ffffff" stroke="transparent" points="-4,4 -4,-458 3886.1992,-458 3886.1992,4 -4,4"/>
<!-- Node4 -->
<g id="node1" class="node">
<title>Node4</title>
<polygon fill="#bfbfbf" stroke="#000000" points="3698.4653,-435.5 3698.4653,-453.5 3764.48,-453.5 3764.48,-435.5 3698.4653,-435.5"/>
<text text-anchor="middle" x="3731.4727" y="-441.5" font-family="Helvetica,sans-Serif" font-size="10.00" fill="#000000">libcli/libcli.h</text>
</g>
<!-- Node5 -->
<g id="node2" class="node">
<title>Node5</title>
<g id="a_node2"><a xlink:href="src_2include_2common_8h.html" target="_top" xlink:title="src/include/common.h">
<polygon fill="#ffffff" stroke="#000000" points="1892.8423,-380.5 1892.8423,-398.5 2006.103,-398.5 2006.103,-380.5 1892.8423,-380.5"/>
<text text-anchor="middle" x="1949.4727" y="-386.5" font-family="Helvetica,sans-Serif" font-size="10.00" fill="#000000">src/include/common.h</text>
</a>
</g>
</g>
<!-- Node4&#45;&gt;Node5 -->
<g id="edge1" class="edge">
<title>Node4&#45;&gt;Node5</title>
<path fill="none" stroke="#191970" d="M3688.1515,-443.1629C3447.8334,-435.7457 2279.4686,-399.6851 2006.5586,-391.2619"/>
<polygon fill="#191970" stroke="#191970" points="3688.1448,-446.6643 3698.2481,-443.4745 3688.3608,-439.6676 3688.1448,-446.6643"/>
</g>
<!-- Node75 -->
<g id="node36" class="node">
<title>Node75</title>
<g id="a_node36"><a xlink:href="ext__apps_2shim_2include_2common_8h.html" target="_top" xlink:title="ext_apps/shim/include\l/common.h">
<polygon fill="#ffffff" stroke="#000000" points="3380,-195.5 3380,-223.5 3494.9453,-223.5 3494.9453,-195.5 3380,-195.5"/>
<text text-anchor="start" x="3388" y="-211.5" font-family="Helvetica,sans-Serif" font-size="10.00" fill="#000000">ext_apps/shim/include</text>
<text text-anchor="middle" x="3437.4727" y="-201.5" font-family="Helvetica,sans-Serif" font-size="10.00" fill="#000000">/common.h</text>
</a>
</g>
</g>
<!-- Node4&#45;&gt;Node75 -->
<g id="edge134" class="edge">
<title>Node4&#45;&gt;Node75</title>
<path fill="none" stroke="#191970" d="M3719.5561,-426.7714C3702.2453,-401.9181 3668.1784,-356.2637 3631.4727,-325 3579.2514,-280.5211 3507.7701,-242.88 3467.7639,-223.5132"/>
<polygon fill="#191970" stroke="#191970" points="3716.798,-428.938 3725.3408,-435.2048 3722.5705,-424.9785 3716.798,-428.938"/>
</g>
<!-- Node80 -->
<g id="node41" class="node">
<title>Node80</title>
<g id="a_node41"><a xlink:href="ext__comps_2shim_2include_2common_8h.html" target="_top" xlink:title="ext_comps/shim/include\l/common.h">
<polygon fill="#ffffff" stroke="#000000" points="3696.1157,-195.5 3696.1157,-223.5 3818.8296,-223.5 3818.8296,-195.5 3696.1157,-195.5"/>
<text text-anchor="start" x="3704.1157" y="-211.5" font-family="Helvetica,sans-Serif" font-size="10.00" fill="#000000">ext_comps/shim/include</text>
<text text-anchor="middle" x="3757.4727" y="-201.5" font-family="Helvetica,sans-Serif" font-size="10.00" fill="#000000">/common.h</text>
</a>
</g>
</g>
<!-- Node4&#45;&gt;Node80 -->
<g id="edge135" class="edge">
<title>Node4&#45;&gt;Node80</title>
<path fill="none" stroke="#191970" d="M3733.7898,-425.2909C3737.3098,-395.9345 3744.1567,-338.1368 3749.4727,-289 3751.9494,-266.1064 3754.5779,-239.4755 3756.1199,-223.5802"/>
<polygon fill="#191970" stroke="#191970" points="3730.2943,-425.0449 3732.5753,-435.3913 3737.2442,-425.8807 3730.2943,-425.0449"/>
</g>
<!-- Node96 -->
<g id="node50" class="node">
<title>Node96</title>
<g id="a_node50"><a xlink:href="libcli_8c.html" target="_top" xlink:title="libcli/libcli.c">
<polygon fill="#ffffff" stroke="#000000" points="3816.7461,-380.5 3816.7461,-398.5 3882.1992,-398.5 3882.1992,-380.5 3816.7461,-380.5"/>
<text text-anchor="middle" x="3849.4727" y="-386.5" font-family="Helvetica,sans-Serif" font-size="10.00" fill="#000000">libcli/libcli.c</text>
</a>
</g>
</g>
<!-- Node4&#45;&gt;Node96 -->
<g id="edge136" class="edge">
<title>Node4&#45;&gt;Node96</title>
<path fill="none" stroke="#191970" d="M3760.0235,-431.1924C3781.6899,-421.0937 3810.903,-407.4774 3829.9584,-398.5956"/>
<polygon fill="#191970" stroke="#191970" points="3758.5431,-428.0208 3750.958,-435.4179 3761.5004,-434.3655 3758.5431,-428.0208"/>
</g>
<!-- Node6 -->
<g id="node3" class="node">
<title>Node6</title>
<g id="a_node3"><a xlink:href="app__events_2include_2app__event_8h.html" target="_top" xlink:title="app_events/include\l/app_event.h">
<polygon fill="#ffffff" stroke="#ff0000" points="2601.3843,-260.5 2601.3843,-288.5 2703.561,-288.5 2703.561,-260.5 2601.3843,-260.5"/>
<text text-anchor="start" x="2609.3843" y="-276.5" font-family="Helvetica,sans-Serif" font-size="10.00" fill="#000000">app_events/include</text>
<text text-anchor="middle" x="2652.4727" y="-266.5" font-family="Helvetica,sans-Serif" font-size="10.00" fill="#000000">/app_event.h</text>
</a>
</g>
</g>
<!-- Node5&#45;&gt;Node6 -->
<g id="edge2" class="edge">
<title>Node5&#45;&gt;Node6</title>
<path fill="none" stroke="#191970" d="M2016.4711,-383.085C2091.3236,-375.51 2215.9837,-361.6748 2322.4727,-344 2421.8169,-327.5111 2536.6346,-301.8057 2601.2877,-286.7119"/>
<polygon fill="#191970" stroke="#191970" points="2015.8468,-379.63 2006.2468,-384.112 2016.5466,-386.5949 2015.8468,-379.63"/>
</g>
<!-- Node8 -->
<g id="node5" class="node">
<title>Node8</title>
<g id="a_node5"><a xlink:href="applications_2include_2l2__learning_8h.html" target="_top" xlink:title="applications/include\l/l2_learning.h">
<polygon fill="#ffffff" stroke="#000000" points="2267.8325,-195.5 2267.8325,-223.5 2371.1128,-223.5 2371.1128,-195.5 2267.8325,-195.5"/>
<text text-anchor="start" x="2275.8325" y="-211.5" font-family="Helvetica,sans-Serif" font-size="10.00" fill="#000000">applications/include</text>
<text text-anchor="middle" x="2319.4727" y="-201.5" font-family="Helvetica,sans-Serif" font-size="10.00" fill="#000000">/l2_learning.h</text>
</a>
</g>
</g>
<!-- Node5&#45;&gt;Node8 -->
<g id="edge42" class="edge">
<title>Node5&#45;&gt;Node8</title>
<path fill="none" stroke="#191970" d="M2016.4452,-385.1983C2086.4523,-379.521 2190.4959,-367.3839 2222.4727,-344 2256.3269,-319.2432 2240.2245,-293.4894 2265.4727,-260 2275.827,-246.2659 2290.1369,-233.0734 2301.4245,-223.6184"/>
<polygon fill="#191970" stroke="#191970" points="2016.0709,-381.7168 2006.3759,-385.9896 2016.6194,-388.6953 2016.0709,-381.7168"/>
</g>
<!-- Node9 -->
<g id="node6" class="node">
<title>Node9</title>
<g id="a_node6"><a xlink:href="applications_2include_2rbac_8h.html" target="_top" xlink:title="applications/include\l/rbac.h">
<polygon fill="#ffffff" stroke="#000000" points="3060.8325,-195.5 3060.8325,-223.5 3164.1128,-223.5 3164.1128,-195.5 3060.8325,-195.5"/>
<text text-anchor="start" x="3068.8325" y="-211.5" font-family="Helvetica,sans-Serif" font-size="10.00" fill="#000000">applications/include</text>
<text text-anchor="middle" x="3112.4727" y="-201.5" font-family="Helvetica,sans-Serif" font-size="10.00" fill="#000000">/rbac.h</text>
</a>
</g>
</g>
<!-- Node5&#45;&gt;Node9 -->
<g id="edge43" class="edge">
<title>Node5&#45;&gt;Node9</title>
<path fill="none" stroke="#191970" d="M2016.7482,-388.2827C2272.0932,-383.5058 3167.9828,-365.2561 3188.4727,-344 3224.2112,-306.9249 3163.5919,-249.8062 3131.0486,-223.564"/>
<polygon fill="#191970" stroke="#191970" points="2016.4362,-384.7878 2006.5032,-388.4736 2016.5667,-391.7866 2016.4362,-384.7878"/>
</g>
<!-- Node13 -->
<g id="node8" class="node">
<title>Node13</title>
<g id="a_node8"><a xlink:href="ext__apps_2l2__learning_2src_2include_2l2__learning_8h.html" target="_top" xlink:title="ext_apps/l2_learning\l/src/include/l2_learning.h">
<polygon fill="#ffffff" stroke="#ff0000" points="2389.1626,-195.5 2389.1626,-223.5 2515.7827,-223.5 2515.7827,-195.5 2389.1626,-195.5"/>
<text text-anchor="start" x="2397.1626" y="-211.5" font-family="Helvetica,sans-Serif" font-size="10.00" fill="#000000">ext_apps/l2_learning</text>
<text text-anchor="middle" x="2452.4727" y="-201.5" font-family="Helvetica,sans-Serif" font-size="10.00" fill="#000000">/src/include/l2_learning.h</text>
</a>
</g>
</g>
<!-- Node5&#45;&gt;Node13 -->
<g id="edge62" class="edge">
<title>Node5&#45;&gt;Node13</title>
<path fill="none" stroke="#191970" d="M2016.6392,-385.6102C2092.0942,-380.1379 2208.8224,-368.0239 2245.4727,-344 2282.3915,-319.8 2263.6648,-287.1487 2298.4727,-260 2314.1141,-247.8003 2359.243,-233.7197 2396.632,-223.5309"/>
<polygon fill="#191970" stroke="#191970" points="2016.0085,-382.1458 2006.2787,-386.3388 2016.4997,-389.1286 2016.0085,-382.1458"/>
</g>
<!-- Node16 -->
<g id="node9" class="node">
<title>Node16</title>
<g id="a_node9"><a xlink:href="ext__apps_2rbac_2src_2include_2rbac_8h.html" target="_top" xlink:title="ext_apps/rbac/src/include\l/rbac.h">
<polygon fill="#ffffff" stroke="#ff0000" points="2836.7759,-195.5 2836.7759,-223.5 2966.1694,-223.5 2966.1694,-195.5 2836.7759,-195.5"/>
<text text-anchor="start" x="2844.7759" y="-211.5" font-family="Helvetica,sans-Serif" font-size="10.00" fill="#000000">ext_apps/rbac/src/include</text>
<text text-anchor="middle" x="2901.4727" y="-201.5" font-family="Helvetica,sans-Serif" font-size="10.00" fill="#000000">/rbac.h</text>
</a>
</g>
</g>
<!-- Node5&#45;&gt;Node16 -->
<g id="edge63" class="edge">
<title>Node5&#45;&gt;Node16</title>
<path fill="none" stroke="#191970" d="M2016.4797,-385.4109C2178.5717,-374.7675 2587.685,-343.2004 2712.4727,-289 2731.9591,-280.5362 2731.7005,-269.948 2750.4727,-260 2780.271,-244.2089 2815.9616,-231.9995 2845.161,-223.5444"/>
<polygon fill="#191970" stroke="#191970" points="2015.9175,-381.94 2006.1658,-386.0817 2016.3719,-388.9252 2015.9175,-381.94"/>
</g>
<!-- Node21 -->
<g id="node10" class="node">
<title>Node21</title>
<g id="a_node10"><a xlink:href="main_8c.html" target="_top" xlink:title="src/main.c">
<polygon fill="#ffffff" stroke="#000000" points="2151.6919,-135.5 2151.6919,-153.5 2213.2534,-153.5 2213.2534,-135.5 2151.6919,-135.5"/>
<text text-anchor="middle" x="2182.4727" y="-141.5" font-family="Helvetica,sans-Serif" font-size="10.00" fill="#000000">src/main.c</text>
</a>
</g>
</g>
<!-- Node5&#45;&gt;Node21 -->
<g id="edge67" class="edge">
<title>Node5&#45;&gt;Node21</title>
<path fill="none" stroke="#191970" d="M1981.9631,-376.4574C2032.8152,-354.0324 2129.4267,-302.8356 2168.4727,-224 2180.0419,-200.6411 2182.1901,-169.2581 2182.4999,-153.842"/>
<polygon fill="#191970" stroke="#191970" points="1980.5289,-373.2643 1972.7289,-380.4344 1983.2978,-379.6934 1980.5289,-373.2643"/>
</g>
<!-- Node22 -->
<g id="node11" class="node">
<title>Node22</title>
<g id="a_node11"><a xlink:href="src_2include_2context_8h.html" target="_top" xlink:title="src/include/context.h">
<polygon fill="#ffffff" stroke="#ff0000" points="2105.894,-325.5 2105.894,-343.5 2213.0513,-343.5 2213.0513,-325.5 2105.894,-325.5"/>
<text text-anchor="middle" x="2159.4727" y="-331.5" font-family="Helvetica,sans-Serif" font-size="10.00" fill="#000000">src/include/context.h</text>
</a>
</g>
</g>
<!-- Node5&#45;&gt;Node22 -->
<g id="edge10" class="edge">
<title>Node5&#45;&gt;Node22</title>
<path fill="none" stroke="#191970" d="M1993.9621,-377.848C2033.1134,-367.5941 2089.3046,-352.8774 2125.0929,-343.5042"/>
<polygon fill="#191970" stroke="#191970" points="1992.9368,-374.4984 1984.1499,-380.4179 1994.7104,-381.27 1992.9368,-374.4984"/>
</g>
<!-- Node23 -->
<g id="node12" class="node">
<title>Node23</title>
<g id="a_node12"><a xlink:href="src_2include_2application_8h.html" target="_top" xlink:title="src/include/application.h">
<polygon fill="#ffffff" stroke="#ff0000" points="2759.1084,-265.5 2759.1084,-283.5 2881.8369,-283.5 2881.8369,-265.5 2759.1084,-265.5"/>
<text text-anchor="middle" x="2820.4727" y="-271.5" font-family="Helvetica,sans-Serif" font-size="10.00" fill="#000000">src/include/application.h</text>
</a>
</g>
</g>
<!-- Node5&#45;&gt;Node23 -->
<g id="edge41" class="edge">
<title>Node5&#45;&gt;Node23</title>
<path fill="none" stroke="#191970" d="M2016.3594,-388.2644C2195.8938,-384.5845 2679.2896,-372.1556 2745.4727,-344 2776.1827,-330.9353 2802.2354,-299.5776 2813.9091,-283.8406"/>
<polygon fill="#191970" stroke="#191970" points="2016.1796,-384.7672 2006.2525,-388.4688 2016.3213,-391.7658 2016.1796,-384.7672"/>
</g>
<!-- Node24 -->
<g id="node13" class="node">
<title>Node24</title>
<g id="a_node13"><a xlink:href="events_2include_2event_8h.html" target="_top" xlink:title="events/include/event.h">
<polygon fill="#ffffff" stroke="#ff0000" points="1126.7168,-265.5 1126.7168,-283.5 1242.2285,-283.5 1242.2285,-265.5 1126.7168,-265.5"/>
<text text-anchor="middle" x="1184.4727" y="-271.5" font-family="Helvetica,sans-Serif" font-size="10.00" fill="#000000">events/include/event.h</text>
</a>
</g>
</g>
<!-- Node5&#45;&gt;Node24 -->
<g id="edge45" class="edge">
<title>Node5&#45;&gt;Node24</title>
<path fill="none" stroke="#191970" d="M1882.4554,-387.5936C1720.4353,-382.627 1316.6765,-367.9847 1260.4727,-344 1229.5564,-330.8066 1203.0611,-299.5092 1191.1668,-283.8133"/>
<polygon fill="#191970" stroke="#191970" points="1882.6699,-391.1016 1892.7716,-387.9067 1882.8824,-384.1048 1882.6699,-391.1016"/>
</g>
<!-- Node25 -->
<g id="node14" class="node">
<title>Node25</title>
<g id="a_node14"><a xlink:href="apphdlr_8h.html" target="_top" xlink:title="components/include\l/apphdlr.h">
<polygon fill="#ffffff" stroke="#ff0000" points="492,-195.5 492,-223.5 596.9453,-223.5 596.9453,-195.5 492,-195.5"/>
<text text-anchor="start" x="500" y="-211.5" font-family="Helvetica,sans-Serif" font-size="10.00" fill="#000000">components/include</text>
<text text-anchor="middle" x="544.4727" y="-201.5" font-family="Helvetica,sans-Serif" font-size="10.00" fill="#000000">/apphdlr.h</text>
</a>
</g>
</g>
<!-- Node5&#45;&gt;Node25 -->
<g id="edge44" class="edge">
<title>Node5&#45;&gt;Node25</title>
<path fill="none" stroke="#191970" d="M1882.4796,-388.5714C1690.2306,-385.5644 1139.1858,-374.4592 961.4727,-344 878.1854,-329.725 859.9506,-314.7653 779.4727,-289 710.7657,-267.0032 631.3637,-239.757 584.6759,-223.5476"/>
<polygon fill="#191970" stroke="#191970" points="1882.6693,-392.0746 1892.7221,-388.7292 1882.7772,-385.0755 1882.6693,-392.0746"/>
</g>
<!-- Node26 -->
<g id="node15" class="node">
<title>Node26</title>
<g id="a_node15"><a xlink:href="cac_8h.html" target="_top" xlink:title="components/include\l/cac.h">
<polygon fill="#ffffff" stroke="#ff0000" points="3182,-195.5 3182,-223.5 3286.9453,-223.5 3286.9453,-195.5 3182,-195.5"/>
<text text-anchor="start" x="3190" y="-211.5" font-family="Helvetica,sans-Serif" font-size="10.00" fill="#000000">components/include</text>
<text text-anchor="middle" x="3234.4727" y="-201.5" font-family="Helvetica,sans-Serif" font-size="10.00" fill="#000000">/cac.h</text>
</a>
</g>
</g>
<!-- Node5&#45;&gt;Node26 -->
<g id="edge46" class="edge">
<title>Node5&#45;&gt;Node26</title>
<path fill="none" stroke="#191970" d="M2016.8431,-388.1933C2274.695,-383.0509 3185.657,-363.5309 3208.4727,-344 3243.7039,-313.841 3240.3482,-251.5884 3236.7486,-223.6335"/>
<polygon fill="#191970" stroke="#191970" points="2016.4296,-384.7007 2006.5012,-388.3988 2016.5688,-391.6994 2016.4296,-384.7007"/>
</g>
<!-- Node28 -->
<g id="node16" class="node">
<title>Node28</title>
<g id="a_node16"><a xlink:href="channel__mgmt_8h.html" target="_top" xlink:title="components/include\l/channel_mgmt.h">
<polygon fill="#ffffff" stroke="#ff0000" points="861,-195.5 861,-223.5 965.9453,-223.5 965.9453,-195.5 861,-195.5"/>
<text text-anchor="start" x="869" y="-211.5" font-family="Helvetica,sans-Serif" font-size="10.00" fill="#000000">components/include</text>
<text text-anchor="middle" x="913.4727" y="-201.5" font-family="Helvetica,sans-Serif" font-size="10.00" fill="#000000">/channel_mgmt.h</text>
</a>
</g>
</g>
<!-- Node5&#45;&gt;Node28 -->
<g id="edge47" class="edge">
<title>Node5&#45;&gt;Node28</title>
<path fill="none" stroke="#191970" d="M1882.3112,-387.267C1704.8763,-381.133 1232.5466,-363.2002 1164.4727,-344 1070.974,-317.6287 973.1272,-252.4973 932.6945,-223.6459"/>
<polygon fill="#191970" stroke="#191970" points="1882.4438,-390.7735 1892.5583,-387.6194 1882.6845,-383.7777 1882.4438,-390.7735"/>
</g>
<!-- Node30 -->
<g id="node17" class="node">
<title>Node30</title>
<g id="a_node17"><a xlink:href="cluster_8h.html" target="_top" xlink:title="components/include\l/cluster.h">
<polygon fill="#ffffff" stroke="#ff0000" points="0,-195.5 0,-223.5 104.9453,-223.5 104.9453,-195.5 0,-195.5"/>
<text text-anchor="start" x="8" y="-211.5" font-family="Helvetica,sans-Serif" font-size="10.00" fill="#000000">components/include</text>
<text text-anchor="middle" x="52.4727" y="-201.5" font-family="Helvetica,sans-Serif" font-size="10.00" fill="#000000">/cluster.h</text>
</a>
</g>
</g>
<!-- Node5&#45;&gt;Node30 -->
<g id="edge48" class="edge">
<title>Node5&#45;&gt;Node30</title>
<path fill="none" stroke="#191970" d="M1882.2934,-388.5389C1578.7622,-384.087 346.7053,-364.8022 267.4727,-344 183.1537,-321.8624 100.6515,-253.5103 67.5957,-223.6745"/>
<polygon fill="#191970" stroke="#191970" points="1882.6457,-392.0443 1892.6958,-388.691 1882.7481,-385.0451 1882.6457,-392.0443"/>
</g>
<!-- Node32 -->
<g id="node18" class="node">
<title>Node32</title>
<g id="a_node18"><a xlink:href="conflict_8h.html" target="_top" xlink:title="components/include\l/conflict.h">
<polygon fill="#ffffff" stroke="#ff0000" points="615,-195.5 615,-223.5 719.9453,-223.5 719.9453,-195.5 615,-195.5"/>
<text text-anchor="start" x="623" y="-211.5" font-family="Helvetica,sans-Serif" font-size="10.00" fill="#000000">components/include</text>
<text text-anchor="middle" x="667.4727" y="-201.5" font-family="Helvetica,sans-Serif" font-size="10.00" fill="#000000">/conflict.h</text>
</a>
</g>
</g>
<!-- Node5&#45;&gt;Node32 -->
<g id="edge49" class="edge">
<title>Node5&#45;&gt;Node32</title>
<path fill="none" stroke="#191970" d="M1882.4932,-388.6491C1700.8387,-385.943 1201.6763,-375.7531 1040.4727,-344 907.7555,-317.858 759.0172,-252.6039 697.0465,-223.6831"/>
<polygon fill="#191970" stroke="#191970" points="1882.6586,-392.1518 1892.7086,-388.7984 1882.7609,-385.1526 1882.6586,-392.1518"/>
</g>
<!-- Node34 -->
<g id="node19" class="node">
<title>Node34</title>
<g id="a_node19"><a xlink:href="conn_8h.html" target="_top" xlink:title="components/include\l/conn.h">
<polygon fill="#ffffff" stroke="#ff0000" points="738,-195.5 738,-223.5 842.9453,-223.5 842.9453,-195.5 738,-195.5"/>
<text text-anchor="start" x="746" y="-211.5" font-family="Helvetica,sans-Serif" font-size="10.00" fill="#000000">components/include</text>
<text text-anchor="middle" x="790.4727" y="-201.5" font-family="Helvetica,sans-Serif" font-size="10.00" fill="#000000">/conn.h</text>
</a>
</g>
</g>
<!-- Node5&#45;&gt;Node34 -->
<g id="edge50" class="edge">
<title>Node5&#45;&gt;Node34</title>
<path fill="none" stroke="#191970" d="M1882.348,-388.8489C1709.9985,-386.7009 1255.1548,-377.8953 1108.4727,-344 993.7081,-317.4802 867.767,-252.4282 815.4237,-223.6218"/>
<polygon fill="#191970" stroke="#191970" points="1882.5102,-392.3511 1892.5519,-388.9724 1882.595,-385.3516 1882.5102,-392.3511"/>
</g>
<!-- Node36 -->
<g id="node20" class="node">
<title>Node36</title>
<g id="a_node20"><a xlink:href="dit_8h.html" target="_top" xlink:title="components/include\l/dit.h">
<polygon fill="#ffffff" stroke="#ff0000" points="1781,-195.5 1781,-223.5 1885.9453,-223.5 1885.9453,-195.5 1781,-195.5"/>
<text text-anchor="start" x="1789" y="-211.5" font-family="Helvetica,sans-Serif" font-size="10.00" fill="#000000">components/include</text>
<text text-anchor="middle" x="1833.4727" y="-201.5" font-family="Helvetica,sans-Serif" font-size="10.00" fill="#000000">/dit.h</text>
</a>
</g>
</g>
<!-- Node5&#45;&gt;Node36 -->
<g id="edge51" class="edge">
<title>Node5&#45;&gt;Node36</title>
<path fill="none" stroke="#191970" d="M1943.0871,-370.9098C1933.5276,-344.6404 1913.7707,-295.8649 1887.4727,-260 1877.302,-246.1294 1862.9834,-232.9432 1851.6459,-223.5253"/>
<polygon fill="#191970" stroke="#191970" points="1939.8087,-372.1371 1946.4481,-380.3936 1946.4066,-369.7988 1939.8087,-372.1371"/>
</g>
<!-- Node38 -->
<g id="node21" class="node">
<title>Node38</title>
<g id="a_node21"><a xlink:href="flow__mgmt_8h.html" target="_top" xlink:title="components/include\l/flow_mgmt.h">
<polygon fill="#ffffff" stroke="#ff0000" points="1658,-195.5 1658,-223.5 1762.9453,-223.5 1762.9453,-195.5 1658,-195.5"/>
<text text-anchor="start" x="1666" y="-211.5" font-family="Helvetica,sans-Serif" font-size="10.00" fill="#000000">components/include</text>
<text text-anchor="middle" x="1710.4727" y="-201.5" font-family="Helvetica,sans-Serif" font-size="10.00" fill="#000000">/flow_mgmt.h</text>
</a>
</g>
</g>
<!-- Node5&#45;&gt;Node38 -->
<g id="edge52" class="edge">
<title>Node5&#45;&gt;Node38</title>
<path fill="none" stroke="#191970" d="M1938.1294,-371.4165C1917.9161,-339.6741 1875.7928,-275.7939 1854.4727,-260 1839.1454,-248.6456 1795.4988,-234.0864 1760.2418,-223.5204"/>
<polygon fill="#191970" stroke="#191970" points="1935.3481,-373.5668 1943.6518,-380.147 1941.2639,-369.8247 1935.3481,-373.5668"/>
</g>
<!-- Node40 -->
<g id="node22" class="node">
<title>Node40</title>
<g id="a_node22"><a xlink:href="host__mgmt_8h.html" target="_top" xlink:title="components/include\l/host_mgmt.h">
<polygon fill="#ffffff" stroke="#ff0000" points="1904,-195.5 1904,-223.5 2008.9453,-223.5 2008.9453,-195.5 1904,-195.5"/>
<text text-anchor="start" x="1912" y="-211.5" font-family="Helvetica,sans-Serif" font-size="10.00" fill="#000000">components/include</text>
<text text-anchor="middle" x="1956.4727" y="-201.5" font-family="Helvetica,sans-Serif" font-size="10.00" fill="#000000">/host_mgmt.h</text>
</a>
</g>
</g>
<!-- Node5&#45;&gt;Node40 -->
<g id="edge53" class="edge">
<title>Node5&#45;&gt;Node40</title>
<path fill="none" stroke="#191970" d="M1950.2293,-370.0436C1951.6486,-333.5475 1954.6791,-255.6196 1955.9227,-223.6407"/>
<polygon fill="#191970" stroke="#191970" points="1946.7207,-370.1978 1949.8294,-380.3263 1953.7155,-370.4699 1946.7207,-370.1978"/>
</g>
<!-- Node42 -->
<g id="node23" class="node">
<title>Node42</title>
<g id="a_node23"><a xlink:href="log_8h.html" target="_top" xlink:title="components/include\l/log.h">
<polygon fill="#ffffff" stroke="#ff0000" points="1021,-195.5 1021,-223.5 1125.9453,-223.5 1125.9453,-195.5 1021,-195.5"/>
<text text-anchor="start" x="1029" y="-211.5" font-family="Helvetica,sans-Serif" font-size="10.00" fill="#000000">components/include</text>
<text text-anchor="middle" x="1073.4727" y="-201.5" font-family="Helvetica,sans-Serif" font-size="10.00" fill="#000000">/log.h</text>
</a>
</g>
</g>
<!-- Node5&#45;&gt;Node42 -->
<g id="edge54" class="edge">
<title>Node5&#45;&gt;Node42</title>
<path fill="none" stroke="#191970" d="M1882.5021,-388.6429C1728.0315,-386.1228 1350.6842,-376.7112 1228.4727,-344 1175.2875,-329.7644 1157.2788,-327.0366 1117.4727,-289 1097.8557,-270.2551 1084.7367,-240.8111 1078.2395,-223.5066"/>
<polygon fill="#191970" stroke="#191970" points="1882.7369,-392.147 1892.7912,-388.8059 1882.8479,-385.1478 1882.7369,-392.147"/>
</g>
<!-- Node44 -->
<g id="node24" class="node">
<title>Node44</title>
<g id="a_node24"><a xlink:href="ofp10_8h.html" target="_top" xlink:title="components/include\l/ofp10.h">
<polygon fill="#ffffff" stroke="#ff0000" points="123,-195.5 123,-223.5 227.9453,-223.5 227.9453,-195.5 123,-195.5"/>
<text text-anchor="start" x="131" y="-211.5" font-family="Helvetica,sans-Serif" font-size="10.00" fill="#000000">components/include</text>
<text text-anchor="middle" x="175.4727" y="-201.5" font-family="Helvetica,sans-Serif" font-size="10.00" fill="#000000">/ofp10.h</text>
</a>
</g>
</g>
<!-- Node5&#45;&gt;Node44 -->
<g id="edge55" class="edge">
<title>Node5&#45;&gt;Node44</title>
<path fill="none" stroke="#191970" d="M1882.155,-388.936C1657.267,-386.7553 933.1986,-377.2624 702.4727,-344 518.5909,-317.4909 306.0691,-252.2832 217.5447,-223.5192"/>
<polygon fill="#191970" stroke="#191970" points="1882.4498,-392.4389 1892.4827,-389.0344 1882.5165,-385.4392 1882.4498,-392.4389"/>
</g>
<!-- Node46 -->
<g id="node25" class="node">
<title>Node46</title>
<g id="a_node25"><a xlink:href="ofp10__veri_8h.html" target="_top" xlink:title="components/include\l/ofp10_veri.h">
<polygon fill="#ffffff" stroke="#ff0000" points="246,-195.5 246,-223.5 350.9453,-223.5 350.9453,-195.5 246,-195.5"/>
<text text-anchor="start" x="254" y="-211.5" font-family="Helvetica,sans-Serif" font-size="10.00" fill="#000000">components/include</text>
<text text-anchor="middle" x="298.4727" y="-201.5" font-family="Helvetica,sans-Serif" font-size="10.00" fill="#000000">/ofp10_veri.h</text>
</a>
</g>
</g>
<!-- Node5&#45;&gt;Node46 -->
<g id="edge56" class="edge">
<title>Node5&#45;&gt;Node46</title>
<path fill="none" stroke="#191970" d="M1882.4324,-388.8294C1668.9088,-386.3835 1006.3708,-376.3201 794.4727,-344 701.6422,-329.8409 680.4779,-315.7774 590.4727,-289 550.5975,-277.1368 541.4618,-271.4733 501.4727,-260 473.6329,-252.0124 401.682,-234.3747 351.3937,-222.2124"/>
<polygon fill="#191970" stroke="#191970" points="1882.519,-392.3305 1892.5579,-388.9435 1882.598,-385.3309 1882.519,-392.3305"/>
</g>
<!-- Node48 -->
<g id="node26" class="node">
<title>Node48</title>
<g id="a_node26"><a xlink:href="resource__mgmt_8h.html" target="_top" xlink:title="components/include\l/resource_mgmt.h">
<polygon fill="#ffffff" stroke="#ff0000" points="1144,-195.5 1144,-223.5 1248.9453,-223.5 1248.9453,-195.5 1144,-195.5"/>
<text text-anchor="start" x="1152" y="-211.5" font-family="Helvetica,sans-Serif" font-size="10.00" fill="#000000">components/include</text>
<text text-anchor="middle" x="1196.4727" y="-201.5" font-family="Helvetica,sans-Serif" font-size="10.00" fill="#000000">/resource_mgmt.h</text>
</a>
</g>
</g>
<!-- Node5&#45;&gt;Node48 -->
<g id="edge57" class="edge">
<title>Node5&#45;&gt;Node48</title>
<path fill="none" stroke="#191970" d="M1882.5796,-380.9428C1824.1761,-372.985 1737.2903,-359.9693 1662.4727,-344 1570.6372,-324.3984 1548.7462,-314.8585 1458.4727,-289 1381.9314,-267.0751 1293.3882,-239.8067 1241.3164,-223.5734"/>
<polygon fill="#191970" stroke="#191970" points="1882.4041,-384.4508 1892.7827,-382.3211 1883.3412,-377.5138 1882.4041,-384.4508"/>
</g>
<!-- Node50 -->
<g id="node27" class="node">
<title>Node50</title>
<g id="a_node27"><a xlink:href="stat__mgmt_8h.html" target="_top" xlink:title="components/include\l/stat_mgmt.h">
<polygon fill="#ffffff" stroke="#ff0000" points="369,-195.5 369,-223.5 473.9453,-223.5 473.9453,-195.5 369,-195.5"/>
<text text-anchor="start" x="377" y="-211.5" font-family="Helvetica,sans-Serif" font-size="10.00" fill="#000000">components/include</text>
<text text-anchor="middle" x="421.4727" y="-201.5" font-family="Helvetica,sans-Serif" font-size="10.00" fill="#000000">/stat_mgmt.h</text>
</a>
</g>
</g>
<!-- Node5&#45;&gt;Node50 -->
<g id="edge58" class="edge">
<title>Node5&#45;&gt;Node50</title>
<path fill="none" stroke="#191970" d="M1882.5144,-388.7493C1679.5344,-386.1429 1073.1025,-375.8318 878.4727,-344 791.714,-329.8106 772.8233,-313.7661 688.4727,-289 611.206,-266.3138 521.5032,-239.5083 468.2254,-223.5382"/>
<polygon fill="#191970" stroke="#191970" points="1882.6884,-392.2517 1892.7318,-388.8783 1882.7768,-385.2522 1882.6884,-392.2517"/>
</g>
<!-- Node52 -->
<g id="node28" class="node">
<title>Node52</title>
<g id="a_node28"><a xlink:href="switch__mgmt_8h.html" target="_top" xlink:title="components/include\l/switch_mgmt.h">
<polygon fill="#ffffff" stroke="#ff0000" points="1267,-195.5 1267,-223.5 1371.9453,-223.5 1371.9453,-195.5 1267,-195.5"/>
<text text-anchor="start" x="1275" y="-211.5" font-family="Helvetica,sans-Serif" font-size="10.00" fill="#000000">components/include</text>
<text text-anchor="middle" x="1319.4727" y="-201.5" font-family="Helvetica,sans-Serif" font-size="10.00" fill="#000000">/switch_mgmt.h</text>
</a>
</g>
</g>
<!-- Node5&#45;&gt;Node52 -->
<g id="edge59" class="edge">
<title>Node5&#45;&gt;Node52</title>
<path fill="none" stroke="#191970" d="M1887.7663,-378.5824C1843.6516,-370.3159 1783.0365,-358.0145 1730.4727,-344 1591.1889,-306.8644 1429.6433,-249.7759 1357.5757,-223.5527"/>
<polygon fill="#191970" stroke="#191970" points="1887.2921,-382.0542 1897.7632,-380.4397 1888.5708,-375.1719 1887.2921,-382.0542"/>
</g>
<!-- Node54 -->
<g id="node29" class="node">
<title>Node54</title>
<g id="a_node29"><a xlink:href="components_2include_2topo__mgmt_8h.html" target="_top" xlink:title="components/include\l/topo_mgmt.h">
<polygon fill="#ffffff" stroke="#000000" points="1390,-195.5 1390,-223.5 1494.9453,-223.5 1494.9453,-195.5 1390,-195.5"/>
<text text-anchor="start" x="1398" y="-211.5" font-family="Helvetica,sans-Serif" font-size="10.00" fill="#000000">components/include</text>
<text text-anchor="middle" x="1442.4727" y="-201.5" font-family="Helvetica,sans-Serif" font-size="10.00" fill="#000000">/topo_mgmt.h</text>
</a>
</g>
</g>
<!-- Node5&#45;&gt;Node54 -->
<g id="edge60" class="edge">
<title>Node5&#45;&gt;Node54</title>
<path fill="none" stroke="#191970" d="M1903.6025,-377.7842C1871.1949,-369.2042 1826.8713,-356.8567 1788.4727,-344 1671.7454,-304.9172 1536.5941,-249.2831 1475.4879,-223.5509"/>
<polygon fill="#191970" stroke="#191970" points="1903.1219,-381.2767 1913.6831,-380.4334 1904.9012,-374.5066 1903.1219,-381.2767"/>
</g>
<!-- Node57 -->
<g id="node30" class="node">
<title>Node57</title>
<g id="a_node30"><a xlink:href="ext__comps_2topo__mgmt_2src_2include_2topo__mgmt_8h.html" target="_top" xlink:title="ext_comps/topo_mgmt\l/src/include/topo_mgmt.h">
<polygon fill="#ffffff" stroke="#ff0000" points="1512.6133,-195.5 1512.6133,-223.5 1640.332,-223.5 1640.332,-195.5 1512.6133,-195.5"/>
<text text-anchor="start" x="1520.6133" y="-211.5" font-family="Helvetica,sans-Serif" font-size="10.00" fill="#000000">ext_comps/topo_mgmt</text>
<text text-anchor="middle" x="1576.4727" y="-201.5" font-family="Helvetica,sans-Serif" font-size="10.00" fill="#000000">/src/include/topo_mgmt.h</text>
</a>
</g>
</g>
<!-- Node5&#45;&gt;Node57 -->
<g id="edge64" class="edge">
<title>Node5&#45;&gt;Node57</title>
<path fill="none" stroke="#191970" d="M1914.5979,-376.8303C1891.1674,-368.1006 1859.7125,-355.9588 1832.4727,-344 1744.6696,-305.4527 1645.3813,-249.555 1600.6219,-223.6545"/>
<polygon fill="#191970" stroke="#191970" points="1913.5194,-380.1631 1924.1126,-380.3521 1915.9494,-373.5984 1913.5194,-380.1631"/>
</g>
<!-- Node61 -->
<g id="node31" class="node">
<title>Node61</title>
<g id="a_node31"><a xlink:href="src_2include_2component_8h.html" target="_top" xlink:title="src/include/component.h">
<polygon fill="#ffffff" stroke="#ff0000" points="2307.2759,-265.5 2307.2759,-283.5 2431.6694,-283.5 2431.6694,-265.5 2307.2759,-265.5"/>
<text text-anchor="middle" x="2369.4727" y="-271.5" font-family="Helvetica,sans-Serif" font-size="10.00" fill="#000000">src/include/component.h</text>
</a>
</g>
</g>
<!-- Node5&#45;&gt;Node61 -->
<g id="edge61" class="edge">
<title>Node5&#45;&gt;Node61</title>
<path fill="none" stroke="#191970" d="M2016.4538,-385.4185C2102.2726,-379.3728 2245.659,-366.284 2293.4727,-344 2323.9399,-329.8004 2350.6457,-298.9747 2362.6835,-283.6004"/>
<polygon fill="#191970" stroke="#191970" points="2016.0188,-381.9401 2006.2838,-386.121 2016.5012,-388.9234 2016.0188,-381.9401"/>
</g>
<!-- Node62 -->
<g id="node32" class="node">
<title>Node62</title>
<g id="a_node32"><a xlink:href="cli_8h.html" target="_top" xlink:title="src/include/cli.h">
<polygon fill="#ffffff" stroke="#ff0000" points="2015.293,-265.5 2015.293,-283.5 2099.6523,-283.5 2099.6523,-265.5 2015.293,-265.5"/>
<text text-anchor="middle" x="2057.4727" y="-271.5" font-family="Helvetica,sans-Serif" font-size="10.00" fill="#000000">src/include/cli.h</text>
</a>
</g>
</g>
<!-- Node5&#45;&gt;Node62 -->
<g id="edge65" class="edge">
<title>Node5&#45;&gt;Node62</title>
<path fill="none" stroke="#191970" d="M1968.9988,-373.8025C1979.0766,-365.3625 1991.3467,-354.5455 2001.4727,-344 2020.7909,-323.8813 2040.6284,-297.6948 2050.7043,-283.9197"/>
<polygon fill="#191970" stroke="#191970" points="1966.636,-371.2143 1961.1443,-380.2748 1971.0876,-376.6165 1966.636,-371.2143"/>
</g>
<!-- Node63 -->
<g id="node33" class="node">
<title>Node63</title>
<g id="a_node33"><a xlink:href="storage_8h.html" target="_top" xlink:title="src/include/storage.h">
<polygon fill="#ffffff" stroke="#ff0000" points="2027.3374,-200.5 2027.3374,-218.5 2135.6079,-218.5 2135.6079,-200.5 2027.3374,-200.5"/>
<text text-anchor="middle" x="2081.4727" y="-206.5" font-family="Helvetica,sans-Serif" font-size="10.00" fill="#000000">src/include/storage.h</text>
</a>
</g>
</g>
<!-- Node5&#45;&gt;Node63 -->
<g id="edge66" class="edge">
<title>Node5&#45;&gt;Node63</title>
<path fill="none" stroke="#191970" d="M1957.1115,-370.5911C1970.8353,-336.8668 1998.9369,-269.0121 2006.4727,-260 2021.7782,-241.6958 2045.3488,-227.3246 2061.974,-218.6689"/>
<polygon fill="#191970" stroke="#191970" points="1953.7199,-369.6411 1953.2052,-380.2235 1960.2068,-372.2719 1953.7199,-369.6411"/>
</g>
<!-- Node66 -->
<g id="node34" class="node">
<title>Node66</title>
<g id="a_node34"><a xlink:href="base64_8h.html" target="_top" xlink:title="util/include/base64.h">
<polygon fill="#ffffff" stroke="#ff0000" points="276.8843,-325.5 276.8843,-343.5 384.061,-343.5 384.061,-325.5 276.8843,-325.5"/>
<text text-anchor="middle" x="330.4727" y="-331.5" font-family="Helvetica,sans-Serif" font-size="10.00" fill="#000000">util/include/base64.h</text>
</a>
</g>
</g>
<!-- Node5&#45;&gt;Node66 -->
<g id="edge68" class="edge">
<title>Node5&#45;&gt;Node66</title>
<path fill="none" stroke="#191970" d="M1882.6243,-388.285C1674.1126,-384.3136 1017.0851,-370.4276 473.4727,-344 443.8991,-342.5623 410.9203,-340.4084 384.0923,-338.5149"/>
<polygon fill="#191970" stroke="#191970" points="1882.7338,-391.7876 1892.7983,-388.4776 1882.8664,-384.7888 1882.7338,-391.7876"/>
</g>
<!-- Node74 -->
<g id="node35" class="node">
<title>Node74</title>
<g id="a_node35"><a xlink:href="database_8h.html" target="_top" xlink:title="util/include/database.h">
<polygon fill="#ffffff" stroke="#ff0000" points="1729.7144,-265.5 1729.7144,-283.5 1845.231,-283.5 1845.231,-265.5 1729.7144,-265.5"/>
<text text-anchor="middle" x="1787.4727" y="-271.5" font-family="Helvetica,sans-Serif" font-size="10.00" fill="#000000">util/include/database.h</text>
</a>
</g>
</g>
<!-- Node5&#45;&gt;Node74 -->
<g id="edge70" class="edge">
<title>Node5&#45;&gt;Node74</title>
<path fill="none" stroke="#191970" d="M1910.4407,-376.5483C1891.352,-368.4151 1868.7851,-357.0156 1850.4727,-344 1824.4164,-325.4804 1798.6207,-297.6789 1789.5135,-283.5055"/>
<polygon fill="#191970" stroke="#191970" points="1909.2006,-379.8227 1919.7807,-380.383 1911.8593,-373.3472 1909.2006,-379.8227"/>
</g>
<!-- Node88 -->
<g id="node46" class="node">
<title>Node88</title>
<g id="a_node46"><a xlink:href="str_8h.html" target="_top" xlink:title="util/include/str.h">
<polygon fill="#ffffff" stroke="#ff0000" points="3095.0073,-325.5 3095.0073,-343.5 3179.938,-343.5 3179.938,-325.5 3095.0073,-325.5"/>
<text text-anchor="middle" x="3137.4727" y="-331.5" font-family="Helvetica,sans-Serif" font-size="10.00" fill="#000000">util/include/str.h</text>
</a>
</g>
</g>
<!-- Node5&#45;&gt;Node88 -->
<g id="edge101" class="edge">
<title>Node5&#45;&gt;Node88</title>
<path fill="none" stroke="#191970" d="M2016.4389,-386.5386C2176.9524,-379.4197 2596.3304,-360.6974 2946.4727,-344 2997.5437,-341.5646 3056.2885,-338.6214 3094.9931,-336.6627"/>
<polygon fill="#191970" stroke="#191970" points="2016.0791,-383.051 2006.244,-386.9906 2016.3892,-390.0442 2016.0791,-383.051"/>
</g>
<!-- Node90 -->
<g id="node47" class="node">
<title>Node90</title>
<g id="a_node47"><a xlink:href="hash_8h.html" target="_top" xlink:title="util/include/hash.h">
<polygon fill="#ffffff" stroke="#ff0000" points="2841.4458,-325.5 2841.4458,-343.5 2937.4995,-343.5 2937.4995,-325.5 2841.4458,-325.5"/>
<text text-anchor="middle" x="2889.4727" y="-331.5" font-family="Helvetica,sans-Serif" font-size="10.00" fill="#000000">util/include/hash.h</text>
</a>
</g>
</g>
<!-- Node5&#45;&gt;Node90 -->
<g id="edge112" class="edge">
<title>Node5&#45;&gt;Node90</title>
<path fill="none" stroke="#191970" d="M2016.4053,-387.4098C2161.116,-382.5712 2513.8438,-369.0549 2808.4727,-344 2819.0536,-343.1002 2830.3871,-341.9122 2841.124,-340.6822"/>
<polygon fill="#191970" stroke="#191970" points="2016.2278,-383.9137 2006.3493,-387.7432 2016.4598,-390.9098 2016.2278,-383.9137"/>
</g>
<!-- Node92 -->
<g id="node48" class="node">
<title>Node92</title>
<g id="a_node48"><a xlink:href="ip2int_8h.html" target="_top" xlink:title="util/include/ip2int.h">
<polygon fill="#ffffff" stroke="#ff0000" points="3348.335,-325.5 3348.335,-343.5 3446.6104,-343.5 3446.6104,-325.5 3348.335,-325.5"/>
<text text-anchor="middle" x="3397.4727" y="-331.5" font-family="Helvetica,sans-Serif" font-size="10.00" fill="#000000">util/include/ip2int.h</text>
</a>
</g>
</g>
<!-- Node5&#45;&gt;Node92 -->
<g id="edge126" class="edge">
<title>Node5&#45;&gt;Node92</title>
<path fill="none" stroke="#191970" d="M2016.5963,-388.7899C2213.2467,-386.4179 2804.5606,-376.9504 3294.4727,-344 3311.8202,-342.8332 3330.9179,-341.004 3347.9811,-339.2608"/>
<polygon fill="#191970" stroke="#191970" points="2016.3802,-385.2921 2006.4224,-388.9105 2016.4632,-392.2916 2016.3802,-385.2921"/>
</g>
<!-- Node94 -->
<g id="node49" class="node">
<title>Node94</title>
<g id="a_node49"><a xlink:href="mac2int_8h.html" target="_top" xlink:title="util/include/mac2int.h">
<polygon fill="#ffffff" stroke="#ff0000" points="3512.7808,-325.5 3512.7808,-343.5 3622.1646,-343.5 3622.1646,-325.5 3512.7808,-325.5"/>
<text text-anchor="middle" x="3567.4727" y="-331.5" font-family="Helvetica,sans-Serif" font-size="10.00" fill="#000000">util/include/mac2int.h</text>
</a>
</g>
</g>
<!-- Node5&#45;&gt;Node94 -->
<g id="edge130" class="edge">
<title>Node5&#45;&gt;Node94</title>
<path fill="none" stroke="#191970" d="M2016.3839,-388.7285C2226.9558,-386.0859 2894.3285,-375.7341 3446.4727,-344 3468.0004,-342.7627 3491.8108,-340.8236 3512.6461,-339.019"/>
<polygon fill="#191970" stroke="#191970" points="2016.0685,-385.232 2006.1127,-388.8558 2016.1553,-392.2315 2016.0685,-385.232"/>
</g>
<!-- Node7 -->
<g id="node4" class="node">
<title>Node7</title>
<g id="a_node4"><a xlink:href="app__events_2app__event_8c.html" target="_top" xlink:title="app_events/app_event.c">
<polygon fill="#ffffff" stroke="#000000" points="2693.9854,-200.5 2693.9854,-218.5 2818.96,-218.5 2818.96,-200.5 2693.9854,-200.5"/>
<text text-anchor="middle" x="2756.4727" y="-206.5" font-family="Helvetica,sans-Serif" font-size="10.00" fill="#000000">app_events/app_event.c</text>
</a>
</g>
</g>
<!-- Node6&#45;&gt;Node7 -->
<g id="edge3" class="edge">
<title>Node6&#45;&gt;Node7</title>
<path fill="none" stroke="#191970" d="M2683.5561,-255.0729C2702.9096,-242.9769 2726.9019,-227.9818 2741.9538,-218.5743"/>
<polygon fill="#191970" stroke="#191970" points="2681.6641,-252.1279 2675.0391,-260.396 2685.3741,-258.0639 2681.6641,-252.1279"/>
</g>
<!-- Node6&#45;&gt;Node8 -->
<g id="edge4" class="edge">
<title>Node6&#45;&gt;Node8</title>
<path fill="none" stroke="#191970" d="M2591.2102,-264.0244C2535.9692,-254.3651 2452.5774,-239.2535 2380.4727,-224 2377.4907,-223.3692 2374.4314,-222.7029 2371.3472,-222.0165"/>
<polygon fill="#191970" stroke="#191970" points="2590.7357,-267.4944 2601.1882,-265.7634 2591.9376,-260.5983 2590.7357,-267.4944"/>
</g>
<!-- Node6&#45;&gt;Node9 -->
<g id="edge5" class="edge">
<title>Node6&#45;&gt;Node9</title>
<path fill="none" stroke="#191970" d="M2713.6662,-265.366C2725.857,-263.5689 2738.569,-261.7109 2750.4727,-260 2860.8619,-244.1339 2990.2973,-226.2513 3060.5996,-216.5989"/>
<polygon fill="#191970" stroke="#191970" points="2712.9587,-261.9325 2703.5777,-266.8567 2713.982,-268.8573 2712.9587,-261.9325"/>
</g>
<!-- Node10 -->
<g id="node7" class="node">
<title>Node10</title>
<g id="a_node7"><a xlink:href="appint_8h.html" target="_top" xlink:title="components/include\l/appint.h">
<polygon fill="#ffffff" stroke="#ff0000" points="2571,-195.5 2571,-223.5 2675.9453,-223.5 2675.9453,-195.5 2571,-195.5"/>
<text text-anchor="start" x="2579" y="-211.5" font-family="Helvetica,sans-Serif" font-size="10.00" fill="#000000">components/include</text>
<text text-anchor="middle" x="2623.4727" y="-201.5" font-family="Helvetica,sans-Serif" font-size="10.00" fill="#000000">/appint.h</text>
</a>
</g>
</g>
<!-- Node6&#45;&gt;Node10 -->
<g id="edge6" class="edge">
<title>Node6&#45;&gt;Node10</title>
<path fill="none" stroke="#191970" d="M2641.9839,-250.9907C2637.8854,-241.8044 2633.3229,-231.5781 2629.7529,-223.5765"/>
<polygon fill="#191970" stroke="#191970" points="2638.9093,-252.6897 2646.1801,-260.396 2645.3019,-249.8376 2638.9093,-252.6897"/>
</g>
<!-- Node6&#45;&gt;Node13 -->
<g id="edge7" class="edge">
<title>Node6&#45;&gt;Node13</title>
<path fill="none" stroke="#191970" d="M2599.3274,-257.2278C2566.9745,-246.7131 2526.1673,-233.4508 2495.785,-223.5765"/>
<polygon fill="#191970" stroke="#191970" points="2598.4835,-260.6337 2609.0756,-260.396 2600.6471,-253.9764 2598.4835,-260.6337"/>
</g>
<!-- Node6&#45;&gt;Node16 -->
<g id="edge8" class="edge">
<title>Node6&#45;&gt;Node16</title>
<path fill="none" stroke="#191970" d="M2713.646,-258.5311C2754.6898,-247.8168 2808.2479,-233.8358 2847.6656,-223.546"/>
<polygon fill="#191970" stroke="#191970" points="2712.5554,-255.1984 2703.7637,-261.1108 2714.3235,-261.9714 2712.5554,-255.1984"/>
</g>
<!-- Node6&#45;&gt;Node21 -->
<g id="edge9" class="edge">
<title>Node6&#45;&gt;Node21</title>
<path fill="none" stroke="#191970" d="M2616.2001,-255.6588C2599.5129,-246.6102 2579.6517,-235.2946 2562.4727,-224 2544.7205,-212.3287 2544.0471,-203.2583 2524.4727,-195 2468.4135,-171.3491 2286.6311,-153.4846 2213.4323,-147.0761"/>
<polygon fill="#191970" stroke="#191970" points="2614.6406,-258.7939 2625.1071,-260.438 2617.9503,-252.6258 2614.6406,-258.7939"/>
</g>
<!-- Node22&#45;&gt;Node6 -->
<g id="edge11" class="edge">
<title>Node22&#45;&gt;Node6</title>
<path fill="none" stroke="#191970" d="M2223.3237,-326.7291C2322.193,-314.6963 2510.3667,-291.7948 2601.0666,-280.7563"/>
<polygon fill="#191970" stroke="#191970" points="2222.6747,-323.2822 2213.1708,-327.9647 2223.5204,-330.2309 2222.6747,-323.2822"/>
</g>
<!-- Node22&#45;&gt;Node21 -->
<g id="edge40" class="edge">
<title>Node22&#45;&gt;Node21</title>
<path fill="none" stroke="#191970" d="M2171.7407,-316.851C2185.5229,-295.851 2207.0644,-259.1915 2215.4727,-224 2218.4679,-211.464 2219.1509,-207.3529 2215.4727,-195 2210.6905,-178.9396 2198.9954,-163.2281 2190.8966,-153.703"/>
<polygon fill="#191970" stroke="#191970" points="2168.7098,-315.086 2166.0295,-325.3362 2174.5169,-318.9947 2168.7098,-315.086"/>
</g>
<!-- Node22&#45;&gt;Node23 -->
<g id="edge12" class="edge">
<title>Node22&#45;&gt;Node23</title>
<path fill="none" stroke="#191970" d="M2223.578,-330.2993C2326.7231,-323.2989 2535.8525,-308.1097 2712.4727,-289 2727.5194,-287.372 2743.7088,-285.3455 2758.8573,-283.3285"/>
<polygon fill="#191970" stroke="#191970" points="2223.0729,-326.8253 2213.3316,-330.9914 2223.5447,-333.8094 2223.0729,-326.8253"/>
</g>
<!-- Node22&#45;&gt;Node24 -->
<g id="edge16" class="edge">
<title>Node22&#45;&gt;Node24</title>
<path fill="none" stroke="#191970" d="M2095.6284,-330.5711C1916.9305,-319.5743 1413.6364,-288.6024 1242.3729,-278.0631"/>
<polygon fill="#191970" stroke="#191970" points="2095.4675,-334.0677 2105.6636,-331.1887 2095.8975,-327.081 2095.4675,-334.0677"/>
</g>
<!-- Node22&#45;&gt;Node61 -->
<g id="edge35" class="edge">
<title>Node22&#45;&gt;Node61</title>
<path fill="none" stroke="#191970" d="M2201.1522,-322.5916C2241.4253,-311.085 2301.5348,-293.9108 2337.9661,-283.5019"/>
<polygon fill="#191970" stroke="#191970" points="2200.0208,-319.2747 2191.3671,-325.3873 2201.9439,-326.0053 2200.0208,-319.2747"/>
</g>
<!-- Node22&#45;&gt;Node62 -->
<g id="edge36" class="edge">
<title>Node22&#45;&gt;Node62</title>
<path fill="none" stroke="#191970" d="M2135.1235,-320.177C2115.7612,-308.7874 2089.2714,-293.2051 2072.7758,-283.5019"/>
<polygon fill="#191970" stroke="#191970" points="2133.5871,-323.3338 2143.9811,-325.3873 2137.1363,-317.3003 2133.5871,-323.3338"/>
</g>
<!-- Node22&#45;&gt;Node63 -->
<g id="edge38" class="edge">
<title>Node22&#45;&gt;Node63</title>
<path fill="none" stroke="#191970" d="M2148.3007,-316.5962C2131.4271,-289.5552 2100.0483,-239.2686 2087.1914,-218.6646"/>
<polygon fill="#191970" stroke="#191970" points="2145.3467,-318.4738 2153.61,-325.1047 2151.2854,-314.768 2145.3467,-318.4738"/>
</g>
<!-- Node23&#45;&gt;Node7 -->
<g id="edge13" class="edge">
<title>Node23&#45;&gt;Node7</title>
<path fill="none" stroke="#191970" d="M2804.2523,-258.0262C2792.0521,-245.6354 2775.7701,-229.0989 2765.7105,-218.8821"/>
<polygon fill="#191970" stroke="#191970" points="2802.0637,-260.792 2811.5737,-265.462 2807.0517,-255.8807 2802.0637,-260.792"/>
</g>
<!-- Node23&#45;&gt;Node9 -->
<g id="edge14" class="edge">
<title>Node23&#45;&gt;Node9</title>
<path fill="none" stroke="#191970" d="M2870.9442,-263.2649C2924.0097,-251.4524 3007.0853,-232.9595 3060.6526,-221.0353"/>
<polygon fill="#191970" stroke="#191970" points="2870.0746,-259.8727 2861.074,-265.462 2871.5956,-266.7055 2870.0746,-259.8727"/>
</g>
<!-- Node23&#45;&gt;Node16 -->
<g id="edge15" class="edge">
<title>Node23&#45;&gt;Node16</title>
<path fill="none" stroke="#191970" d="M2839.8016,-258.9891C2853.1545,-248.2738 2870.7785,-234.1311 2883.7657,-223.7093"/>
<polygon fill="#191970" stroke="#191970" points="2837.3441,-256.4735 2831.7354,-265.462 2841.7252,-261.9331 2837.3441,-256.4735"/>
</g>
<!-- Node24&#45;&gt;Node21 -->
<g id="edge34" class="edge">
<title>Node24&#45;&gt;Node21</title>
<path fill="none" stroke="#191970" d="M1116.5626,-265.7043C1053.8964,-254.9944 975.7007,-233.3934 1012.4727,-195 1053.0139,-152.6711 1970.0615,-145.6237 2151.4607,-144.6425"/>
<polygon fill="#191970" stroke="#191970" points="1116.0319,-269.164 1126.4669,-267.3306 1117.1661,-262.2565 1116.0319,-269.164"/>
</g>
<!-- Node24&#45;&gt;Node25 -->
<g id="edge17" class="edge">
<title>Node24&#45;&gt;Node25</title>
<path fill="none" stroke="#191970" d="M1116.5706,-271.7081C1008.1659,-266.5471 789.5555,-253.2538 606.4727,-224 603.4162,-223.5116 600.2867,-222.9566 597.1366,-222.3554"/>
<polygon fill="#191970" stroke="#191970" points="1116.5598,-275.2113 1126.7124,-272.1824 1116.8869,-268.2189 1116.5598,-275.2113"/>
</g>
<!-- Node24&#45;&gt;Node26 -->
<g id="edge18" class="edge">
<title>Node24&#45;&gt;Node26</title>
<path fill="none" stroke="#191970" d="M1252.5139,-272.6098C1354.2948,-269.7934 1552.2315,-264.3598 1720.4727,-260 2043.3522,-251.6328 2853.1714,-265.5732 3173.4727,-224 3176.1714,-223.6497 3178.9247,-223.2296 3181.6963,-222.7566"/>
<polygon fill="#191970" stroke="#191970" points="1252.272,-269.115 1242.3728,-272.8905 1252.4658,-276.1123 1252.272,-269.115"/>
</g>
<!-- Node24&#45;&gt;Node28 -->
<g id="edge19" class="edge">
<title>Node24&#45;&gt;Node28</title>
<path fill="none" stroke="#191970" d="M1137.0063,-263.1151C1089.2368,-251.6575 1015.7282,-234.0262 966.1762,-222.1411"/>
<polygon fill="#191970" stroke="#191970" points="1136.2507,-266.5331 1146.7913,-265.462 1137.8834,-259.7261 1136.2507,-266.5331"/>
</g>
<!-- Node24&#45;&gt;Node30 -->
<g id="edge20" class="edge">
<title>Node24&#45;&gt;Node30</title>
<path fill="none" stroke="#191970" d="M1116.2267,-272.9094C912.2355,-267.897 309.2074,-251.1349 114.4727,-224 111.4071,-223.5728 108.2704,-223.0656 105.1148,-222.5011"/>
<polygon fill="#191970" stroke="#191970" points="1116.4185,-276.4151 1126.5009,-273.1602 1116.5893,-269.4171 1116.4185,-276.4151"/>
</g>
<!-- Node24&#45;&gt;Node32 -->
<g id="edge21" class="edge">
<title>Node24&#45;&gt;Node32</title>
<path fill="none" stroke="#191970" d="M1116.717,-269.5175C1027.5103,-262.3788 865.9896,-247.4536 729.4727,-224 726.4221,-223.4759 723.2972,-222.893 720.1507,-222.2704"/>
<polygon fill="#191970" stroke="#191970" points="1116.458,-273.0079 1126.7031,-270.3082 1117.0106,-266.0297 1116.458,-273.0079"/>
</g>
<!-- Node24&#45;&gt;Node34 -->
<g id="edge22" class="edge">
<title>Node24&#45;&gt;Node34</title>
<path fill="none" stroke="#191970" d="M1116.608,-265.7713C1049.3188,-256.7423 943.41,-241.5217 852.4727,-224 849.4333,-223.4144 846.3172,-222.7834 843.1773,-222.124"/>
<polygon fill="#191970" stroke="#191970" points="1116.2831,-269.2589 1126.6582,-267.1124 1117.209,-262.3204 1116.2831,-269.2589"/>
</g>
<!-- Node24&#45;&gt;Node36 -->
<g id="edge23" class="edge">
<title>Node24&#45;&gt;Node36</title>
<path fill="none" stroke="#191970" d="M1252.5656,-271.8256C1362.3569,-266.8008 1585.0515,-253.6602 1771.4727,-224 1774.5294,-223.5137 1777.6592,-222.9602 1780.8095,-222.3602"/>
<polygon fill="#191970" stroke="#191970" points="1252.131,-268.3415 1242.2981,-272.2868 1252.4452,-275.3345 1252.131,-268.3415"/>
</g>
<!-- Node24&#45;&gt;Node38 -->
<g id="edge24" class="edge">
<title>Node24&#45;&gt;Node38</title>
<path fill="none" stroke="#191970" d="M1252.6035,-269.7862C1343.549,-262.8824 1509.4288,-248.1514 1649.4727,-224 1652.2617,-223.519 1655.1134,-222.9862 1657.9863,-222.4169"/>
<polygon fill="#191970" stroke="#191970" points="1252.1382,-266.3112 1242.4282,-270.5496 1252.662,-273.2916 1252.1382,-266.3112"/>
</g>
<!-- Node24&#45;&gt;Node40 -->
<g id="edge25" class="edge">
<title>Node24&#45;&gt;Node40</title>
<path fill="none" stroke="#191970" d="M1252.6739,-273.2432C1379.6544,-270.1083 1660.6552,-259.4276 1894.4727,-224 1897.5329,-223.5363 1900.6655,-223.0006 1903.8179,-222.4141"/>
<polygon fill="#191970" stroke="#191970" points="1252.2479,-269.7523 1242.3344,-273.4901 1252.4151,-276.7503 1252.2479,-269.7523"/>
</g>
<!-- Node24&#45;&gt;Node42 -->
<g id="edge26" class="edge">
<title>Node24&#45;&gt;Node42</title>
<path fill="none" stroke="#191970" d="M1160.3042,-260.3473C1141.7682,-249.4929 1116.2978,-234.5778 1097.7378,-223.7093"/>
<polygon fill="#191970" stroke="#191970" points="1158.6406,-263.429 1169.0386,-265.462 1162.1779,-257.3885 1158.6406,-263.429"/>
</g>
<!-- Node24&#45;&gt;Node44 -->
<g id="edge27" class="edge">
<title>Node24&#45;&gt;Node44</title>
<path fill="none" stroke="#191970" d="M1116.4158,-272.4329C928.8987,-266.4884 407.4287,-248.2121 237.4727,-224 234.4084,-223.5635 231.2727,-223.049 228.1179,-222.4788"/>
<polygon fill="#191970" stroke="#191970" points="1116.3173,-275.9314 1126.4226,-272.7485 1116.5379,-268.9349 1116.3173,-275.9314"/>
</g>
<!-- Node24&#45;&gt;Node46 -->
<g id="edge28" class="edge">
<title>Node24&#45;&gt;Node46</title>
<path fill="none" stroke="#191970" d="M1116.5472,-271.8152C946.5133,-264.8566 505.7843,-245.2897 360.4727,-224 357.4101,-223.5513 354.2758,-223.0273 351.1221,-222.4498"/>
<polygon fill="#191970" stroke="#191970" points="1116.4898,-275.3156 1126.6241,-272.2257 1116.7749,-268.3214 1116.4898,-275.3156"/>
</g>
<!-- Node24&#45;&gt;Node48 -->
<g id="edge29" class="edge">
<title>Node24&#45;&gt;Node48</title>
<path fill="none" stroke="#191970" d="M1187.9641,-255.5879C1189.8268,-245.4981 1192.083,-233.2774 1193.8039,-223.9559"/>
<polygon fill="#191970" stroke="#191970" points="1184.5149,-254.9928 1186.1412,-265.462 1191.3986,-256.2636 1184.5149,-254.9928"/>
</g>
<!-- Node24&#45;&gt;Node50 -->
<g id="edge30" class="edge">
<title>Node24&#45;&gt;Node50</title>
<path fill="none" stroke="#191970" d="M1116.177,-273.153C990.3547,-269.8804 713.7387,-258.9965 483.4727,-224 480.4126,-223.5349 477.2802,-222.9981 474.1279,-222.4108"/>
<polygon fill="#191970" stroke="#191970" points="1116.3416,-276.6581 1126.4266,-273.4113 1116.518,-269.6603 1116.3416,-276.6581"/>
</g>
<!-- Node24&#45;&gt;Node52 -->
<g id="edge31" class="edge">
<title>Node24&#45;&gt;Node52</title>
<path fill="none" stroke="#191970" d="M1212.3673,-261.0692C1235.1045,-250.1217 1267.1185,-234.7076 1290.2161,-223.5865"/>
<polygon fill="#191970" stroke="#191970" points="1210.7355,-257.9703 1203.2438,-265.462 1213.7722,-264.2773 1210.7355,-257.9703"/>
</g>
<!-- Node24&#45;&gt;Node54 -->
<g id="edge32" class="edge">
<title>Node24&#45;&gt;Node54</title>
<path fill="none" stroke="#191970" d="M1230.0745,-263.0112C1274.8057,-251.7417 1342.9529,-234.5728 1389.9321,-222.737"/>
<polygon fill="#191970" stroke="#191970" points="1229.1884,-259.625 1220.3465,-265.462 1230.8985,-266.4129 1229.1884,-259.625"/>
</g>
<!-- Node24&#45;&gt;Node57 -->
<g id="edge33" class="edge">
<title>Node24&#45;&gt;Node57</title>
<path fill="none" stroke="#191970" d="M1252.5757,-264.5066C1317.2505,-254.8301 1417.1486,-239.4001 1503.4727,-224 1506.3983,-223.4781 1509.3876,-222.9329 1512.4053,-222.3728"/>
<polygon fill="#191970" stroke="#191970" points="1251.8795,-261.0717 1242.5057,-266.0094 1252.9128,-267.995 1251.8795,-261.0717"/>
</g>
<!-- Node62&#45;&gt;Node21 -->
<g id="edge37" class="edge">
<title>Node62&#45;&gt;Node21</title>
<path fill="none" stroke="#191970" d="M2090.5651,-261.1107C2108.3341,-252.6005 2129.5811,-240.1339 2144.4727,-224 2164.0827,-202.754 2175.4495,-169.5468 2180.0561,-153.6202"/>
<polygon fill="#191970" stroke="#191970" points="2088.7544,-258.0899 2081.1138,-265.4297 2091.6638,-264.4567 2088.7544,-258.0899"/>
</g>
<!-- Node63&#45;&gt;Node21 -->
<g id="edge39" class="edge">
<title>Node63&#45;&gt;Node21</title>
<path fill="none" stroke="#191970" d="M2104.1529,-194.9038C2123.7831,-182.2705 2151.5657,-164.3906 2168.2227,-153.6708"/>
<polygon fill="#191970" stroke="#191970" points="2102.0312,-192.107 2095.5163,-200.462 2105.8195,-197.9934 2102.0312,-192.107"/>
</g>
<!-- Node66&#45;&gt;Node30 -->
<g id="edge69" class="edge">
<title>Node66&#45;&gt;Node30</title>
<path fill="none" stroke="#191970" d="M300.8458,-321.1786C247.9415,-297.3907 137.7163,-247.829 83.6879,-223.5356"/>
<polygon fill="#191970" stroke="#191970" points="299.4749,-324.3996 310.0307,-325.3085 302.3455,-318.0153 299.4749,-324.3996"/>
</g>
<!-- Node74&#45;&gt;Node5 -->
<g id="edge71" class="edge">
<title>Node74&#45;&gt;Node5</title>
<path fill="none" stroke="#191970" d="M1808.4912,-290.643C1824.2846,-305.728 1846.2841,-328.2294 1868.4727,-344 1889.879,-359.2146 1917.0988,-372.2208 1934.1597,-380.383"/>
<polygon fill="#191970" stroke="#191970" points="1810.5325,-287.7612 1800.8299,-283.5055 1805.7609,-292.8829 1810.5325,-287.7612"/>
</g>
<!-- Node74&#45;&gt;Node8 -->
<g id="edge72" class="edge">
<title>Node74&#45;&gt;Node8</title>
<path fill="none" stroke="#191970" d="M1855.5276,-266.185C1963.2789,-253.0199 2170.827,-227.6616 2267.5249,-215.847"/>
<polygon fill="#191970" stroke="#191970" points="1854.9204,-262.7331 1845.4187,-267.4201 1855.7694,-269.6814 1854.9204,-262.7331"/>
</g>
<!-- Node74&#45;&gt;Node13 -->
<g id="edge89" class="edge">
<title>Node74&#45;&gt;Node13</title>
<path fill="none" stroke="#191970" d="M1855.6083,-269.6788C1989.1115,-260.0704 2280.7834,-238.2358 2380.4727,-224 2383.2497,-223.6034 2386.0812,-223.1679 2388.9372,-222.7031"/>
<polygon fill="#191970" stroke="#191970" points="1855.226,-266.1972 1845.5024,-270.4046 1855.7275,-273.1792 1855.226,-266.1972"/>
</g>
<!-- Node74&#45;&gt;Node28 -->
<g id="edge73" class="edge">
<title>Node74&#45;&gt;Node28</title>
<path fill="none" stroke="#191970" d="M1719.2915,-271.9005C1584.1522,-266.3411 1272.859,-251.5073 1012.4727,-224 997.3573,-222.4032 981.009,-220.204 966.0364,-218.0007"/>
<polygon fill="#191970" stroke="#191970" points="1719.3565,-275.406 1729.4908,-272.3162 1719.6417,-268.4118 1719.3565,-275.406"/>
</g>
<!-- Node74&#45;&gt;Node30 -->
<g id="edge74" class="edge">
<title>Node74&#45;&gt;Node30</title>
<path fill="none" stroke="#191970" d="M1719.3488,-272.6288C1410.4854,-264.1219 154.8925,-229.2827 114.4727,-224 111.4035,-223.5989 108.2641,-223.112 105.1064,-222.563"/>
<polygon fill="#191970" stroke="#191970" points="1719.4109,-276.1317 1729.5035,-272.9084 1719.6036,-269.1344 1719.4109,-276.1317"/>
</g>
<!-- Node74&#45;&gt;Node40 -->
<g id="edge75" class="edge">
<title>Node74&#45;&gt;Node40</title>
<path fill="none" stroke="#191970" d="M1820.5042,-261.7955C1849.0616,-250.812 1890.2876,-234.9558 1919.8477,-223.5865"/>
<polygon fill="#191970" stroke="#191970" points="1819.0484,-258.6055 1810.9714,-265.462 1821.5613,-265.1389 1819.0484,-258.6055"/>
</g>
<!-- Node74&#45;&gt;Node42 -->
<g id="edge76" class="edge">
<title>Node74&#45;&gt;Node42</title>
<path fill="none" stroke="#191970" d="M1719.5119,-272.6448C1600.519,-268.6387 1346.9728,-256.7272 1135.4727,-224 1132.4138,-223.5267 1129.2824,-222.9834 1126.1309,-222.3912"/>
<polygon fill="#191970" stroke="#191970" points="1719.4594,-276.1448 1729.569,-272.9752 1719.6894,-269.1486 1719.4594,-276.1448"/>
</g>
<!-- Node74&#45;&gt;Node48 -->
<g id="edge77" class="edge">
<title>Node74&#45;&gt;Node48</title>
<path fill="none" stroke="#191970" d="M1719.5402,-270.9466C1618.4946,-265.0002 1422.8502,-250.9419 1258.4727,-224 1255.4182,-223.4994 1252.2902,-222.9348 1249.1413,-222.3262"/>
<polygon fill="#191970" stroke="#191970" points="1719.4252,-274.4458 1729.6111,-271.5308 1719.8306,-267.4575 1719.4252,-274.4458"/>
</g>
<!-- Node74&#45;&gt;Node52 -->
<g id="edge78" class="edge">
<title>Node74&#45;&gt;Node52</title>
<path fill="none" stroke="#191970" d="M1719.6457,-268.2828C1638.7628,-260.3576 1499.6567,-245.1087 1381.4727,-224 1378.4257,-223.4558 1375.3035,-222.8571 1372.1591,-222.2225"/>
<polygon fill="#191970" stroke="#191970" points="1719.4065,-271.7759 1729.6981,-269.2593 1720.0834,-264.8087 1719.4065,-271.7759"/>
</g>
<!-- Node74&#45;&gt;Node54 -->
<g id="edge79" class="edge">
<title>Node74&#45;&gt;Node54</title>
<path fill="none" stroke="#191970" d="M1721.1698,-263.8168C1663.4808,-254.2579 1577.7142,-239.4112 1503.4727,-224 1500.7015,-223.4248 1497.8641,-222.8168 1495.0024,-222.1887"/>
<polygon fill="#191970" stroke="#191970" points="1720.8122,-267.3051 1731.2487,-265.4804 1721.9522,-260.3985 1720.8122,-267.3051"/>
</g>
<!-- Node74&#45;&gt;Node57 -->
<g id="edge99" class="edge">
<title>Node74&#45;&gt;Node57</title>
<path fill="none" stroke="#191970" d="M1748.5446,-262.5079C1712.8322,-251.5065 1659.9119,-235.204 1622.1996,-223.5865"/>
<polygon fill="#191970" stroke="#191970" points="1747.5468,-265.8628 1758.134,-265.462 1749.6076,-259.173 1747.5468,-265.8628"/>
</g>
<!-- Node74&#45;&gt;Node63 -->
<g id="edge100" class="edge">
<title>Node74&#45;&gt;Node63</title>
<path fill="none" stroke="#191970" d="M1838.9045,-263.31C1885.5313,-253.1411 1956.1364,-237.6817 2017.4727,-224 2025.3675,-222.239 2033.806,-220.3394 2041.8793,-218.5137"/>
<polygon fill="#191970" stroke="#191970" points="1838.0662,-259.9105 1829.0411,-265.4603 1839.5572,-266.7499 1838.0662,-259.9105"/>
</g>
<!-- Node74&#45;&gt;Node75 -->
<g id="edge80" class="edge">
<title>Node74&#45;&gt;Node75</title>
<path fill="none" stroke="#191970" d="M1855.648,-269.3136C1898.846,-266.1939 1955.9075,-262.3792 2006.4727,-260 2578.9516,-233.0636 2723.5647,-261.1349 3295.4727,-224 3323.2927,-222.1936 3354.0844,-219.1746 3379.8634,-216.3577"/>
<polygon fill="#191970" stroke="#191970" points="1855.2559,-265.8328 1845.5364,-270.0494 1855.764,-272.8143 1855.2559,-265.8328"/>
</g>
<!-- Node74&#45;&gt;Node80 -->
<g id="edge90" class="edge">
<title>Node74&#45;&gt;Node80</title>
<path fill="none" stroke="#191970" d="M1855.6448,-269.2455C1898.8416,-266.0996 1955.903,-262.2812 2006.4727,-260 2671.3223,-230.0093 2838.4936,-250.9691 3503.4727,-224 3569.2304,-221.3331 3644.4872,-216.8586 3695.9094,-213.5841"/>
<polygon fill="#191970" stroke="#191970" points="1855.2503,-265.765 1845.5335,-269.988 1855.763,-272.7462 1855.2503,-265.765"/>
</g>
<!-- Node76 -->
<g id="node37" class="node">
<title>Node76</title>
<g id="a_node37"><a xlink:href="ext__apps_2shim_2include_2app__event_8h.html" target="_top" xlink:title="ext_apps/shim/include\l/app_event.h">
<polygon fill="#ffffff" stroke="#000000" points="3323,-65.5 3323,-93.5 3437.9453,-93.5 3437.9453,-65.5 3323,-65.5"/>
<text text-anchor="start" x="3331" y="-81.5" font-family="Helvetica,sans-Serif" font-size="10.00" fill="#000000">ext_apps/shim/include</text>
<text text-anchor="middle" x="3380.4727" y="-71.5" font-family="Helvetica,sans-Serif" font-size="10.00" fill="#000000">/app_event.h</text>
</a>
</g>
</g>
<!-- Node75&#45;&gt;Node76 -->
<g id="edge81" class="edge">
<title>Node75&#45;&gt;Node76</title>
<path fill="none" stroke="#191970" d="M3438.2269,-184.9481C3437.8235,-168.6613 3435.5145,-147.2013 3427.4727,-130 3420.8785,-115.8953 3408.8615,-103.093 3398.6296,-93.9077"/>
<polygon fill="#191970" stroke="#191970" points="3434.7275,-185.2886 3438.2488,-195.2812 3441.7275,-185.2738 3434.7275,-185.2886"/>
</g>
<!-- Node77 -->
<g id="node38" class="node">
<title>Node77</title>
<g id="a_node38"><a xlink:href="ext__apps_2shim_2include_2shim_8h.html" target="_top" xlink:title="ext_apps/shim/include\l/shim.h">
<polygon fill="#ffffff" stroke="#000000" points="3190,-.5 3190,-28.5 3304.9453,-28.5 3304.9453,-.5 3190,-.5"/>
<text text-anchor="start" x="3198" y="-16.5" font-family="Helvetica,sans-Serif" font-size="10.00" fill="#000000">ext_apps/shim/include</text>
<text text-anchor="middle" x="3247.4727" y="-6.5" font-family="Helvetica,sans-Serif" font-size="10.00" fill="#000000">/shim.h</text>
</a>
</g>
</g>
<!-- Node75&#45;&gt;Node77 -->
<g id="edge88" class="edge">
<title>Node75&#45;&gt;Node77</title>
<path fill="none" stroke="#191970" d="M3447.6783,-185.7872C3459.3268,-154.6176 3473.5114,-99.7574 3446.4727,-65 3429.1829,-42.7746 3357.432,-28.7472 3305.0315,-21.2645"/>
<polygon fill="#191970" stroke="#191970" points="3444.3053,-184.7997 3443.8884,-195.3863 3450.8162,-187.3703 3444.3053,-184.7997"/>
</g>
<!-- Node78 -->
<g id="node39" class="node">
<title>Node78</title>
<g id="a_node39"><a xlink:href="ext__apps_2shim_2include_2context_8h.html" target="_top" xlink:title="ext_apps/shim/include\l/context.h">
<polygon fill="#ffffff" stroke="#000000" points="3304,-130.5 3304,-158.5 3418.9453,-158.5 3418.9453,-130.5 3304,-130.5"/>
<text text-anchor="start" x="3312" y="-146.5" font-family="Helvetica,sans-Serif" font-size="10.00" fill="#000000">ext_apps/shim/include</text>
<text text-anchor="middle" x="3361.4727" y="-136.5" font-family="Helvetica,sans-Serif" font-size="10.00" fill="#000000">/context.h</text>
</a>
</g>
</g>
<!-- Node75&#45;&gt;Node78 -->
<g id="edge83" class="edge">
<title>Node75&#45;&gt;Node78</title>
<path fill="none" stroke="#191970" d="M3413.3669,-188.8832C3401.8175,-179.0054 3388.2823,-167.4293 3377.9313,-158.5765"/>
<polygon fill="#191970" stroke="#191970" points="3411.1072,-191.5561 3420.9818,-195.396 3415.657,-186.2364 3411.1072,-191.5561"/>
</g>
<!-- Node79 -->
<g id="node40" class="node">
<title>Node79</title>
<g id="a_node40"><a xlink:href="ext__apps_2shim_2include_2application_8h.html" target="_top" xlink:title="ext_apps/shim/include\l/application.h">
<polygon fill="#ffffff" stroke="#000000" points="3190,-65.5 3190,-93.5 3304.9453,-93.5 3304.9453,-65.5 3190,-65.5"/>
<text text-anchor="start" x="3198" y="-81.5" font-family="Helvetica,sans-Serif" font-size="10.00" fill="#000000">ext_apps/shim/include</text>
<text text-anchor="middle" x="3247.4727" y="-71.5" font-family="Helvetica,sans-Serif" font-size="10.00" fill="#000000">/application.h</text>
</a>
</g>
</g>
<!-- Node75&#45;&gt;Node79 -->
<g id="edge87" class="edge">
<title>Node75&#45;&gt;Node79</title>
<path fill="none" stroke="#191970" d="M3369.7947,-195.6639C3344.4963,-188.0039 3316.766,-176.3833 3295.4727,-159 3273.8661,-141.3609 3259.5415,-111.2561 3252.5241,-93.5892"/>
<polygon fill="#191970" stroke="#191970" points="3369.1426,-199.1179 3379.72,-198.5092 3371.0717,-192.3889 3369.1426,-199.1179"/>
</g>
<!-- Node76&#45;&gt;Node77 -->
<g id="edge82" class="edge">
<title>Node76&#45;&gt;Node77</title>
<path fill="none" stroke="#191970" d="M3342.6026,-60.9921C3321.5214,-50.6892 3295.6958,-38.0677 3276.2754,-28.5765"/>
<polygon fill="#191970" stroke="#191970" points="3341.0924,-64.1496 3351.6136,-65.396 3344.166,-57.8605 3341.0924,-64.1496"/>
</g>
<!-- Node78&#45;&gt;Node76 -->
<g id="edge84" class="edge">
<title>Node78&#45;&gt;Node76</title>
<path fill="none" stroke="#191970" d="M3368.4304,-120.6971C3371.0934,-111.5871 3374.044,-101.4929 3376.358,-93.5765"/>
<polygon fill="#191970" stroke="#191970" points="3365.0417,-119.8156 3365.5954,-130.396 3371.7605,-121.7796 3365.0417,-119.8156"/>
</g>
<!-- Node78&#45;&gt;Node79 -->
<g id="edge85" class="edge">
<title>Node78&#45;&gt;Node79</title>
<path fill="none" stroke="#191970" d="M3327.7911,-125.2956C3309.9531,-115.1248 3288.4336,-102.8549 3272.1607,-93.5765"/>
<polygon fill="#191970" stroke="#191970" points="3326.3156,-128.4832 3336.7364,-130.396 3329.7829,-122.4022 3326.3156,-128.4832"/>
</g>
<!-- Node79&#45;&gt;Node77 -->
<g id="edge86" class="edge">
<title>Node79&#45;&gt;Node77</title>
<path fill="none" stroke="#191970" d="M3247.4727,-55.1081C3247.4727,-46.1539 3247.4727,-36.3227 3247.4727,-28.5765"/>
<polygon fill="#191970" stroke="#191970" points="3243.9728,-55.3959 3247.4727,-65.396 3250.9728,-55.396 3243.9728,-55.3959"/>
</g>
<!-- Node81 -->
<g id="node42" class="node">
<title>Node81</title>
<g id="a_node42"><a xlink:href="ext__comps_2shim_2include_2component_8h.html" target="_top" xlink:title="ext_comps/shim/include\l/component.h">
<polygon fill="#ffffff" stroke="#000000" points="3588.1157,-65.5 3588.1157,-93.5 3710.8296,-93.5 3710.8296,-65.5 3588.1157,-65.5"/>
<text text-anchor="start" x="3596.1157" y="-81.5" font-family="Helvetica,sans-Serif" font-size="10.00" fill="#000000">ext_comps/shim/include</text>
<text text-anchor="middle" x="3649.4727" y="-71.5" font-family="Helvetica,sans-Serif" font-size="10.00" fill="#000000">/component.h</text>
</a>
</g>
</g>
<!-- Node80&#45;&gt;Node81 -->
<g id="edge91" class="edge">
<title>Node80&#45;&gt;Node81</title>
<path fill="none" stroke="#191970" d="M3727.0431,-189.3854C3715.6333,-180.8953 3703.1105,-170.3471 3693.4727,-159 3676.214,-138.6806 3662.5667,-110.5425 3655.284,-93.7642"/>
<polygon fill="#191970" stroke="#191970" points="3725.3228,-192.4593 3735.485,-195.4558 3729.4095,-186.776 3725.3228,-192.4593"/>
</g>
<!-- Node82 -->
<g id="node43" class="node">
<title>Node82</title>
<g id="a_node43"><a xlink:href="ext__comps_2shim_2include_2shim_8h.html" target="_top" xlink:title="ext_comps/shim/include\l/shim.h">
<polygon fill="#ffffff" stroke="#ff0000" points="3588.1157,-.5 3588.1157,-28.5 3710.8296,-28.5 3710.8296,-.5 3588.1157,-.5"/>
<text text-anchor="start" x="3596.1157" y="-16.5" font-family="Helvetica,sans-Serif" font-size="10.00" fill="#000000">ext_comps/shim/include</text>
<text text-anchor="middle" x="3649.4727" y="-6.5" font-family="Helvetica,sans-Serif" font-size="10.00" fill="#000000">/shim.h</text>
</a>
</g>
</g>
<!-- Node80&#45;&gt;Node82 -->
<g id="edge98" class="edge">
<title>Node80&#45;&gt;Node82</title>
<path fill="none" stroke="#191970" d="M3808.9645,-190.8883C3823.7886,-183.1674 3838.6023,-172.7279 3848.4727,-159 3873.0591,-124.8045 3886.5585,-98.0659 3860.4727,-65 3842.1007,-41.7121 3766.4685,-27.9643 3710.9871,-20.8326"/>
<polygon fill="#191970" stroke="#191970" points="3807.2439,-187.8329 3799.777,-195.3494 3810.3015,-194.1298 3807.2439,-187.8329"/>
</g>
<!-- Node85 -->
<g id="node44" class="node">
<title>Node85</title>
<g id="a_node44"><a xlink:href="ext__comps_2shim_2include_2context_8h.html" target="_top" xlink:title="ext_comps/shim/include\l/context.h">
<polygon fill="#ffffff" stroke="#000000" points="3702.1157,-130.5 3702.1157,-158.5 3824.8296,-158.5 3824.8296,-130.5 3702.1157,-130.5"/>
<text text-anchor="start" x="3710.1157" y="-146.5" font-family="Helvetica,sans-Serif" font-size="10.00" fill="#000000">ext_comps/shim/include</text>
<text text-anchor="middle" x="3763.4727" y="-136.5" font-family="Helvetica,sans-Serif" font-size="10.00" fill="#000000">/context.h</text>
</a>
</g>
</g>
<!-- Node80&#45;&gt;Node85 -->
<g id="edge93" class="edge">
<title>Node80&#45;&gt;Node85</title>
<path fill="none" stroke="#191970" d="M3759.697,-185.4029C3760.5308,-176.3703 3761.4504,-166.4078 3762.1733,-158.5765"/>
<polygon fill="#191970" stroke="#191970" points="3756.2086,-185.1166 3758.7746,-195.396 3763.179,-185.76 3756.2086,-185.1166"/>
</g>
<!-- Node86 -->
<g id="node45" class="node">
<title>Node86</title>
<g id="a_node45"><a xlink:href="ext__comps_2shim_2include_2event_8h.html" target="_top" xlink:title="ext_comps/shim/include\l/event.h">
<polygon fill="#ffffff" stroke="#000000" points="3729.1157,-65.5 3729.1157,-93.5 3851.8296,-93.5 3851.8296,-65.5 3729.1157,-65.5"/>
<text text-anchor="start" x="3737.1157" y="-81.5" font-family="Helvetica,sans-Serif" font-size="10.00" fill="#000000">ext_comps/shim/include</text>
<text text-anchor="middle" x="3790.4727" y="-71.5" font-family="Helvetica,sans-Serif" font-size="10.00" fill="#000000">/event.h</text>
</a>
</g>
</g>
<!-- Node80&#45;&gt;Node86 -->
<g id="edge97" class="edge">
<title>Node80&#45;&gt;Node86</title>
<path fill="none" stroke="#191970" d="M3801.3793,-190.4551C3814.0457,-182.651 3826.3566,-172.2722 3833.4727,-159 3845.7811,-136.0434 3824.0468,-109.4312 3807.2436,-93.5568"/>
<polygon fill="#191970" stroke="#191970" points="3799.5684,-187.4586 3792.6129,-195.4506 3803.0341,-193.5405 3799.5684,-187.4586"/>
</g>
<!-- Node81&#45;&gt;Node82 -->
<g id="edge92" class="edge">
<title>Node81&#45;&gt;Node82</title>
<path fill="none" stroke="#191970" d="M3649.4727,-55.1081C3649.4727,-46.1539 3649.4727,-36.3227 3649.4727,-28.5765"/>
<polygon fill="#191970" stroke="#191970" points="3645.9728,-55.3959 3649.4727,-65.396 3652.9728,-55.396 3645.9728,-55.3959"/>
</g>
<!-- Node85&#45;&gt;Node81 -->
<g id="edge94" class="edge">
<title>Node85&#45;&gt;Node81</title>
<path fill="none" stroke="#191970" d="M3729.7911,-125.2956C3711.9531,-115.1248 3690.4336,-102.8549 3674.1607,-93.5765"/>
<polygon fill="#191970" stroke="#191970" points="3728.3156,-128.4832 3738.7364,-130.396 3731.7829,-122.4022 3728.3156,-128.4832"/>
</g>
<!-- Node85&#45;&gt;Node86 -->
<g id="edge95" class="edge">
<title>Node85&#45;&gt;Node86</title>
<path fill="none" stroke="#191970" d="M3773.2381,-120.9907C3777.0539,-111.8044 3781.3018,-101.5781 3784.6255,-93.5765"/>
<polygon fill="#191970" stroke="#191970" points="3769.9351,-119.8184 3769.3313,-130.396 3776.3996,-122.5036 3769.9351,-119.8184"/>
</g>
<!-- Node86&#45;&gt;Node82 -->
<g id="edge96" class="edge">
<title>Node86&#45;&gt;Node82</title>
<path fill="none" stroke="#191970" d="M3750.625,-61.1305C3728.2211,-50.8025 3700.6888,-38.1103 3680.0078,-28.5765"/>
<polygon fill="#191970" stroke="#191970" points="3749.331,-64.3879 3759.8778,-65.396 3752.2616,-58.0309 3749.331,-64.3879"/>
</g>
<!-- Node88&#45;&gt;Node9 -->
<g id="edge103" class="edge">
<title>Node88&#45;&gt;Node9</title>
<path fill="none" stroke="#191970" d="M3133.6228,-315.2506C3128.5805,-290.0393 3119.8537,-246.4052 3115.3485,-223.8791"/>
<polygon fill="#191970" stroke="#191970" points="3130.2003,-315.9853 3135.5936,-325.1047 3137.0644,-314.6124 3130.2003,-315.9853"/>
</g>
<!-- Node88&#45;&gt;Node16 -->
<g id="edge108" class="edge">
<title>Node88&#45;&gt;Node16</title>
<path fill="none" stroke="#191970" d="M3111.1937,-320.581C3065.8604,-296.5698 2973.4571,-247.6274 2927.9719,-223.5356"/>
<polygon fill="#191970" stroke="#191970" points="3109.6438,-323.7207 3120.119,-325.3085 3112.9203,-317.5349 3109.6438,-323.7207"/>
</g>
<!-- Node88&#45;&gt;Node23 -->
<g id="edge102" class="edge">
<title>Node88&#45;&gt;Node23</title>
<path fill="none" stroke="#191970" d="M3084.6372,-324.4996C3024.2795,-313.0754 2926.3776,-294.5451 2868.2283,-283.5389"/>
<polygon fill="#191970" stroke="#191970" points="3084.2441,-327.9873 3094.7206,-326.4081 3085.546,-321.1094 3084.2441,-327.9873"/>
</g>
<!-- Node88&#45;&gt;Node26 -->
<g id="edge104" class="edge">
<title>Node88&#45;&gt;Node26</title>
<path fill="none" stroke="#191970" d="M3151.1161,-316.9182C3170.4476,-292.0065 3205.4423,-246.9103 3223.3145,-223.8791"/>
<polygon fill="#191970" stroke="#191970" points="3148.129,-315.0586 3144.7634,-325.1047 3153.6592,-319.3501 3148.129,-315.0586"/>
</g>
<!-- Node88&#45;&gt;Node61 -->
<g id="edge105" class="edge">
<title>Node88&#45;&gt;Node61</title>
<path fill="none" stroke="#191970" d="M3084.5439,-330.3649C2947.055,-319.6236 2579.0769,-290.8753 2431.7351,-279.3643"/>
<polygon fill="#191970" stroke="#191970" points="3084.57,-333.8776 3094.8122,-331.1672 3085.1153,-326.8988 3084.57,-333.8776"/>
</g>
<!-- Node88&#45;&gt;Node74 -->
<g id="edge111" class="edge">
<title>Node88&#45;&gt;Node74</title>
<path fill="none" stroke="#191970" d="M3084.5929,-331.7075C3046.2555,-329.7225 2993.1626,-327.0551 2946.4727,-325 2528.793,-306.6152 2423.9873,-310.8126 2006.4727,-289 1951.8678,-286.1472 1889.6675,-281.9366 1845.5445,-278.7868"/>
<polygon fill="#191970" stroke="#191970" points="3084.829,-335.2244 3094.9972,-332.2482 3085.1923,-328.2338 3084.829,-335.2244"/>
</g>
<!-- Node88&#45;&gt;Node77 -->
<g id="edge107" class="edge">
<title>Node88&#45;&gt;Node77</title>
<path fill="none" stroke="#191970" d="M3172.7028,-321.448C3210.8801,-305.1706 3269.7778,-273.3254 3295.4727,-224 3301.4273,-212.5691 3301.056,-206.6168 3295.4727,-195 3284.3776,-171.9154 3269.81,-175.7949 3250.4727,-159 3218.664,-131.3735 3198.1744,-132.679 3181.4727,-94 3176.3632,-82.1671 3175.7641,-76.5558 3181.4727,-65 3189.2686,-49.2187 3204.6234,-37.0098 3218.562,-28.5525"/>
<polygon fill="#191970" stroke="#191970" points="3170.9182,-318.3976 3163.0029,-325.4402 3173.5824,-324.8708 3170.9182,-318.3976"/>
</g>
<!-- Node88&#45;&gt;Node79 -->
<g id="edge106" class="edge">
<title>Node88&#45;&gt;Node79</title>
<path fill="none" stroke="#191970" d="M3190.4303,-330.0834C3244.4379,-324.3512 3322.8704,-312.2083 3341.4727,-289 3355.3738,-271.6567 3340.3865,-211.7761 3328.4727,-195 3310.2451,-169.3335 3286.3243,-184.2117 3267.4727,-159 3252.8988,-139.5093 3248.871,-110.5854 3247.8031,-93.527"/>
<polygon fill="#191970" stroke="#191970" points="3189.9092,-326.6183 3180.315,-331.1131 3190.6181,-333.5823 3189.9092,-326.6183"/>
</g>
<!-- Node88&#45;&gt;Node81 -->
<g id="edge109" class="edge">
<title>Node88&#45;&gt;Node81</title>
<path fill="none" stroke="#191970" d="M3190.3369,-331.6674C3299.602,-325.4298 3542.8008,-309.424 3574.4727,-289 3642.3281,-245.2425 3649.3773,-133.297 3649.6785,-93.667"/>
<polygon fill="#191970" stroke="#191970" points="3189.9792,-328.1819 3180.1925,-332.2403 3190.374,-335.1708 3189.9792,-328.1819"/>
</g>
<!-- Node88&#45;&gt;Node82 -->
<g id="edge110" class="edge">
<title>Node88&#45;&gt;Node82</title>
<path fill="none" stroke="#191970" d="M3190.1544,-330.0871C3303.5285,-319.137 3560.4727,-285.8936 3560.4727,-209.5 3560.4727,-209.5 3560.4727,-209.5 3560.4727,-144.5 3560.4727,-108.1716 3559.2545,-95.1824 3579.4727,-65 3589.8141,-49.5619 3606.5606,-37.2312 3621.0809,-28.6197"/>
<polygon fill="#191970" stroke="#191970" points="3189.5953,-326.6242 3179.9682,-331.0481 3190.2528,-333.5932 3189.5953,-326.6242"/>
</g>
<!-- Node90&#45;&gt;Node8 -->
<g id="edge114" class="edge">
<title>Node90&#45;&gt;Node8</title>
<path fill="none" stroke="#191970" d="M2831.1181,-330.3225C2747.746,-323.7402 2599.1264,-309.5528 2549.4727,-289 2529.8426,-280.8747 2530.5607,-269.3275 2511.4727,-260 2498.776,-253.7957 2423.55,-234.8154 2371.1212,-221.9747"/>
<polygon fill="#191970" stroke="#191970" points="2830.9565,-333.8204 2841.1978,-331.1064 2831.4992,-326.8415 2830.9565,-333.8204"/>
</g>
<!-- Node90&#45;&gt;Node9 -->
<g id="edge115" class="edge">
<title>Node90&#45;&gt;Node9</title>
<path fill="none" stroke="#191970" d="M2947.6245,-323.9429C2976.1798,-316.9912 3010.213,-305.9536 3037.4727,-289 3065.3476,-271.6637 3089.7989,-241.4524 3102.7238,-223.6846"/>
<polygon fill="#191970" stroke="#191970" points="2946.7198,-320.5599 2937.7727,-326.2345 2948.3057,-327.3779 2946.7198,-320.5599"/>
</g>
<!-- Node90&#45;&gt;Node13 -->
<g id="edge122" class="edge">
<title>Node90&#45;&gt;Node13</title>
<path fill="none" stroke="#191970" d="M2831.2738,-328.646C2757.5157,-320.6996 2634.8713,-305.5759 2592.4727,-289 2571.0038,-280.6067 2569.2831,-271.7857 2549.4727,-260 2527.282,-246.7983 2501.293,-233.3709 2481.8041,-223.6836"/>
<polygon fill="#191970" stroke="#191970" points="2831.0289,-332.1397 2841.3435,-329.7191 2831.7707,-325.1791 2831.0289,-332.1397"/>
</g>
<!-- Node90&#45;&gt;Node16 -->
<g id="edge123" class="edge">
<title>Node90&#45;&gt;Node16</title>
<path fill="none" stroke="#191970" d="M2891.3533,-314.9103C2893.7784,-289.6483 2897.9395,-246.3042 2900.0923,-223.8791"/>
<polygon fill="#191970" stroke="#191970" points="2887.8463,-314.816 2890.3746,-325.1047 2894.8143,-315.4849 2887.8463,-314.816"/>
</g>
<!-- Node90&#45;&gt;Node23 -->
<g id="edge113" class="edge">
<title>Node90&#45;&gt;Node23</title>
<path fill="none" stroke="#191970" d="M2871.2352,-318.6414C2858.4214,-307.4989 2841.7267,-292.9817 2831.0509,-283.6985"/>
<polygon fill="#191970" stroke="#191970" points="2869.1503,-321.4666 2878.993,-325.3873 2873.7436,-316.1843 2869.1503,-321.4666"/>
</g>
<!-- Node90&#45;&gt;Node26 -->
<g id="edge116" class="edge">
<title>Node90&#45;&gt;Node26</title>
<path fill="none" stroke="#191970" d="M2945.5602,-323.3763C2981.523,-315.5009 3028.9012,-303.7314 3069.4727,-289 3120.8805,-270.334 3177.6927,-240.8629 3209.4408,-223.5321"/>
<polygon fill="#191970" stroke="#191970" points="2944.773,-319.9655 2935.7347,-325.4936 2946.2476,-326.8085 2944.773,-319.9655"/>
</g>
<!-- Node90&#45;&gt;Node36 -->
<g id="edge117" class="edge">
<title>Node90&#45;&gt;Node36</title>
<path fill="none" stroke="#191970" d="M2831.1498,-332.4411C2732.2236,-328.2364 2536.1622,-316.6171 2473.4727,-289 2455.6045,-281.1284 2458.5059,-267.4858 2440.4727,-260 2328.3724,-213.4659 2015.5235,-241.8801 1895.4727,-224 1892.4112,-223.544 1889.2778,-223.0144 1886.1247,-222.4325"/>
<polygon fill="#191970" stroke="#191970" points="2831.1413,-335.9437 2841.2774,-332.86 2831.4306,-328.9496 2831.1413,-335.9437"/>
</g>
<!-- Node90&#45;&gt;Node40 -->
<g id="edge118" class="edge">
<title>Node90&#45;&gt;Node40</title>
<path fill="none" stroke="#191970" d="M2831.2606,-331.2398C2740.0649,-325.5063 2568.0809,-311.9937 2511.4727,-289 2491.7893,-281.0048 2493.3152,-267.5916 2473.4727,-260 2284.0116,-187.5131 2218.9153,-255.1862 2018.4727,-224 2015.4142,-223.5242 2012.2831,-222.9789 2009.1319,-222.3852"/>
<polygon fill="#191970" stroke="#191970" points="2831.2365,-334.7449 2841.4333,-331.8681 2831.6681,-327.7582 2831.2365,-334.7449"/>
</g>
<!-- Node90&#45;&gt;Node61 -->
<g id="edge119" class="edge">
<title>Node90&#45;&gt;Node61</title>
<path fill="none" stroke="#191970" d="M2831.3695,-330.1569C2746.3676,-323.4386 2583.2455,-309.1636 2445.4727,-289 2434.9729,-287.4633 2423.7159,-285.4942 2413.1691,-283.5059"/>
<polygon fill="#191970" stroke="#191970" points="2831.0983,-333.6463 2841.3413,-330.9386 2831.6455,-326.6677 2831.0983,-333.6463"/>
</g>
<!-- Node90&#45;&gt;Node77 -->
<g id="edge121" class="edge">
<title>Node90&#45;&gt;Node77</title>
<path fill="none" stroke="#191970" d="M2904.7402,-318.0175C2945.8179,-274.1302 3063.0616,-151.8629 3173.4727,-65 3190.2198,-51.8247 3210.2353,-38.2882 3225.2247,-28.5505"/>
<polygon fill="#191970" stroke="#191970" points="2902.0277,-315.7945 2897.7693,-325.4959 2907.1481,-320.5675 2902.0277,-315.7945"/>
</g>
<!-- Node90&#45;&gt;Node79 -->
<g id="edge120" class="edge">
<title>Node90&#45;&gt;Node79</title>
<path fill="none" stroke="#191970" d="M2937.7403,-322.3456C2958.5416,-315.2584 2982.0389,-304.5659 2999.4727,-289 3035.0868,-257.2016 3018.1749,-229.2165 3051.4727,-195 3098.3003,-146.8803 3169.3669,-111.7365 3211.83,-93.5548"/>
<polygon fill="#191970" stroke="#191970" points="2936.5438,-319.0537 2928.095,-325.4465 2938.6863,-325.7178 2936.5438,-319.0537"/>
</g>
<!-- Node90&#45;&gt;Node81 -->
<g id="edge124" class="edge">
<title>Node90&#45;&gt;Node81</title>
<path fill="none" stroke="#191970" d="M2947.6295,-330.0472C3087.3055,-318.4954 3437.4363,-284.1961 3536.4727,-224 3590.0843,-191.4138 3628.1004,-123.41 3642.7759,-93.7954"/>
<polygon fill="#191970" stroke="#191970" points="2947.2274,-326.5683 2937.546,-330.8718 2947.798,-333.545 2947.2274,-326.5683"/>
</g>
<!-- Node90&#45;&gt;Node82 -->
<g id="edge125" class="edge">
<title>Node90&#45;&gt;Node82</title>
<path fill="none" stroke="#191970" d="M2947.8654,-323.8433C3027.5377,-309.3196 3174.7793,-282.537 3300.4727,-260 3390.6643,-243.8285 3433.452,-283.1029 3503.4727,-224 3560.839,-175.5783 3512.1426,-122.4436 3560.4727,-65 3574.0831,-48.823 3594.2712,-36.7736 3611.9808,-28.5098"/>
<polygon fill="#191970" stroke="#191970" points="2946.7608,-320.4869 2937.5508,-325.7239 2948.0164,-327.3734 2946.7608,-320.4869"/>
</g>
<!-- Node92&#45;&gt;Node5 -->
<g id="edge127" class="edge">
<title>Node92&#45;&gt;Node5</title>
<path fill="none" stroke="#191970" d="M3338.1794,-341.9377C3329.5814,-342.723 3320.8242,-343.4383 3312.4727,-344 2807.0479,-377.9938 2193.6981,-386.9939 2006.4002,-388.9944"/>
<polygon fill="#191970" stroke="#191970" points="3338.5417,-345.4192 3348.1657,-340.9887 3337.8794,-338.4506 3338.5417,-345.4192"/>
</g>
<!-- Node92&#45;&gt;Node75 -->
<g id="edge128" class="edge">
<title>Node92&#45;&gt;Node75</title>
<path fill="none" stroke="#191970" d="M3403.6325,-315.2506C3411.7001,-290.0393 3425.663,-246.4052 3432.8713,-223.8791"/>
<polygon fill="#191970" stroke="#191970" points="3400.1935,-314.5137 3400.4792,-325.1047 3406.8605,-316.6472 3400.1935,-314.5137"/>
</g>
<!-- Node92&#45;&gt;Node80 -->
<g id="edge129" class="edge">
<title>Node92&#45;&gt;Node80</title>
<path fill="none" stroke="#191970" d="M3456.9534,-327.0033C3520.4564,-318.4359 3616.5254,-303.6928 3650.4727,-289 3687.6403,-272.9134 3723.9939,-241.6698 3743.278,-223.5089"/>
<polygon fill="#191970" stroke="#191970" points="3456.1162,-323.5839 3446.6669,-328.3756 3457.0419,-330.5224 3456.1162,-323.5839"/>
</g>
<!-- Node94&#45;&gt;Node5 -->
<g id="edge131" class="edge">
<title>Node94&#45;&gt;Node5</title>
<path fill="none" stroke="#191970" d="M3502.5867,-341.3294C3489.9768,-342.3456 3476.8476,-343.2888 3464.4727,-344 2896.4787,-376.645 2206.5456,-386.6626 2006.3536,-388.9373"/>
<polygon fill="#191970" stroke="#191970" points="3502.8874,-344.8166 3512.5638,-340.5018 3502.3087,-337.8405 3502.8874,-344.8166"/>
</g>
<!-- Node94&#45;&gt;Node75 -->
<g id="edge132" class="edge">
<title>Node94&#45;&gt;Node75</title>
<path fill="none" stroke="#191970" d="M3550.1993,-317.891C3524.5177,-293.1971 3476.6945,-247.2133 3452.4269,-223.8791"/>
<polygon fill="#191970" stroke="#191970" points="3548.0673,-320.6965 3557.7015,-325.1047 3552.9191,-315.6506 3548.0673,-320.6965"/>
</g>
<!-- Node94&#45;&gt;Node80 -->
<g id="edge133" class="edge">
<title>Node94&#45;&gt;Node80</title>
<path fill="none" stroke="#191970" d="M3626.682,-323.2753C3665.4619,-314.8723 3711.6161,-302.5342 3726.4727,-289 3745.4184,-271.7406 3752.9149,-241.5022 3755.7843,-223.7089"/>
<polygon fill="#191970" stroke="#191970" points="3625.5489,-319.9375 3616.49,-325.4318 3626.9979,-326.7859 3625.5489,-319.9375"/>
</g>
</g>
</svg>
