<?xml version="1.0" encoding="UTF-8" standalone="no"?>
<!DOCTYPE svg PUBLIC "-//W3C//DTD SVG 1.1//EN"
 "http://www.w3.org/Graphics/SVG/1.1/DTD/svg11.dtd">
<!-- Generated by graphviz version 2.40.1 (20161225.0304)
 -->
<!-- Title: libcli/libcli.c Pages: 1 -->
<svg width="740pt" height="137pt"
 viewBox="0.00 0.00 739.52 137.00" xmlns="http://www.w3.org/2000/svg" xmlns:xlink="http://www.w3.org/1999/xlink">
<g id="graph0" class="graph" transform="scale(1 1) rotate(0) translate(4 133)">
<title>libcli/libcli.c</title>
<polygon fill="#ffffff" stroke="transparent" points="-4,4 -4,-133 735.5195,-133 735.5195,4 -4,4"/>
<!-- Node0 -->
<g id="node1" class="node">
<title>Node0</title>
<polygon fill="#bfbfbf" stroke="#000000" points="307.1157,-110.5 307.1157,-128.5 372.5688,-128.5 372.5688,-110.5 307.1157,-110.5"/>
<text text-anchor="middle" x="339.8423" y="-116.5" font-family="Helvetica,sans-Serif" font-size="10.00" fill="#000000">libcli/libcli.c</text>
</g>
<!-- Node1 -->
<g id="node2" class="node">
<title>Node1</title>
<polygon fill="#ffffff" stroke="#bfbfbf" points="0,-55.5 0,-73.5 47.6846,-73.5 47.6846,-55.5 0,-55.5"/>
<text text-anchor="middle" x="23.8423" y="-61.5" font-family="Helvetica,sans-Serif" font-size="10.00" fill="#000000">errno.h</text>
</g>
<!-- Node0&#45;&gt;Node1 -->
<g id="edge1" class="edge">
<title>Node0&#45;&gt;Node1</title>
<path fill="none" stroke="#191970" d="M306.9148,-115.5206C255.6482,-109.0408 153.5197,-94.9969 57.7487,-73.9814"/>
<polygon fill="#191970" stroke="#191970" points="58.4277,-70.5469 47.9062,-71.7915 56.9074,-77.3799 58.4277,-70.5469"/>
</g>
<!-- Node2 -->
<g id="node3" class="node">
<title>Node2</title>
<polygon fill="#ffffff" stroke="#bfbfbf" points="65.9844,-55.5 65.9844,-73.5 125.7002,-73.5 125.7002,-55.5 65.9844,-55.5"/>
<text text-anchor="middle" x="95.8423" y="-61.5" font-family="Helvetica,sans-Serif" font-size="10.00" fill="#000000">memory.h</text>
</g>
<!-- Node0&#45;&gt;Node2 -->
<g id="edge2" class="edge">
<title>Node0&#45;&gt;Node2</title>
<path fill="none" stroke="#191970" d="M306.9354,-112.0825C262.5802,-102.0844 183.6789,-84.2992 135.9179,-73.5334"/>
<polygon fill="#191970" stroke="#191970" points="136.4584,-70.0675 125.9335,-71.2828 134.9191,-76.8962 136.4584,-70.0675"/>
</g>
<!-- Node3 -->
<g id="node4" class="node">
<title>Node3</title>
<polygon fill="#ffffff" stroke="#bfbfbf" points="102.7759,-.5 102.7759,-18.5 154.9087,-18.5 154.9087,-.5 102.7759,-.5"/>
<text text-anchor="middle" x="128.8423" y="-6.5" font-family="Helvetica,sans-Serif" font-size="10.00" fill="#000000">stdarg.h</text>
</g>
<!-- Node0&#45;&gt;Node3 -->
<g id="edge3" class="edge">
<title>Node0&#45;&gt;Node3</title>
<path fill="none" stroke="#191970" d="M306.8463,-117.246C270.9258,-113.3563 213.2231,-102.7714 172.8423,-74 156.3379,-62.2406 144.1045,-42.2189 136.7823,-27.5954"/>
<polygon fill="#191970" stroke="#191970" points="139.9286,-26.0614 132.5055,-18.5017 133.5942,-29.0405 139.9286,-26.0614"/>
</g>
<!-- Node4 -->
<g id="node5" class="node">
<title>Node4</title>
<polygon fill="#ffffff" stroke="#bfbfbf" points="252.1108,-.5 252.1108,-18.5 297.5737,-18.5 297.5737,-.5 252.1108,-.5"/>
<text text-anchor="middle" x="274.8423" y="-6.5" font-family="Helvetica,sans-Serif" font-size="10.00" fill="#000000">stdio.h</text>
</g>
<!-- Node0&#45;&gt;Node4 -->
<g id="edge4" class="edge">
<title>Node0&#45;&gt;Node4</title>
<path fill="none" stroke="#191970" d="M316.3826,-110.498C300.957,-103.2009 281.9906,-91.271 272.8423,-74 265.5498,-60.2325 266.7702,-42.3897 269.4068,-28.9616"/>
<polygon fill="#191970" stroke="#191970" points="272.8893,-29.4453 271.7988,-18.9068 266.0794,-27.8252 272.8893,-29.4453"/>
</g>
<!-- Node5 -->
<g id="node6" class="node">
<title>Node5</title>
<polygon fill="#ffffff" stroke="#bfbfbf" points="282,-55.5 282,-73.5 329.6846,-73.5 329.6846,-55.5 282,-55.5"/>
<text text-anchor="middle" x="305.8423" y="-61.5" font-family="Helvetica,sans-Serif" font-size="10.00" fill="#000000">stdlib.h</text>
</g>
<!-- Node0&#45;&gt;Node5 -->
<g id="edge5" class="edge">
<title>Node0&#45;&gt;Node5</title>
<path fill="none" stroke="#191970" d="M334.2279,-110.4179C329.5314,-102.8207 322.6894,-91.7527 316.8995,-82.3866"/>
<polygon fill="#191970" stroke="#191970" points="319.814,-80.445 311.5787,-73.7795 313.8599,-84.1258 319.814,-80.445"/>
</g>
<!-- Node6 -->
<g id="node7" class="node">
<title>Node6</title>
<polygon fill="#ffffff" stroke="#bfbfbf" points="347.2241,-55.5 347.2241,-73.5 400.4604,-73.5 400.4604,-55.5 347.2241,-55.5"/>
<text text-anchor="middle" x="373.8423" y="-61.5" font-family="Helvetica,sans-Serif" font-size="10.00" fill="#000000">malloc.h</text>
</g>
<!-- Node0&#45;&gt;Node6 -->
<g id="edge6" class="edge">
<title>Node0&#45;&gt;Node6</title>
<path fill="none" stroke="#191970" d="M345.4567,-110.4179C350.1531,-102.8207 356.9952,-91.7527 362.7851,-82.3866"/>
<polygon fill="#191970" stroke="#191970" points="365.8247,-84.1258 368.1059,-73.7795 359.8705,-80.445 365.8247,-84.1258"/>
</g>
<!-- Node7 -->
<g id="node8" class="node">
<title>Node7</title>
<polygon fill="#ffffff" stroke="#bfbfbf" points="418.7217,-55.5 418.7217,-73.5 466.9629,-73.5 466.9629,-55.5 418.7217,-55.5"/>
<text text-anchor="middle" x="442.8423" y="-61.5" font-family="Helvetica,sans-Serif" font-size="10.00" fill="#000000">ctype.h</text>
</g>
<!-- Node0&#45;&gt;Node7 -->
<g id="edge7" class="edge">
<title>Node0&#45;&gt;Node7</title>
<path fill="none" stroke="#191970" d="M356.8506,-110.4179C373.1766,-101.7001 398.0613,-88.4122 416.8677,-78.3699"/>
<polygon fill="#191970" stroke="#191970" points="418.6361,-81.3934 425.8087,-73.5956 415.3389,-75.2186 418.6361,-81.3934"/>
</g>
<!-- Node8 -->
<g id="node9" class="node">
<title>Node8</title>
<polygon fill="#ffffff" stroke="#bfbfbf" points="485.4458,-55.5 485.4458,-73.5 534.2388,-73.5 534.2388,-55.5 485.4458,-55.5"/>
<text text-anchor="middle" x="509.8423" y="-61.5" font-family="Helvetica,sans-Serif" font-size="10.00" fill="#000000">string.h</text>
</g>
<!-- Node0&#45;&gt;Node8 -->
<g id="edge8" class="edge">
<title>Node0&#45;&gt;Node8</title>
<path fill="none" stroke="#191970" d="M367.9143,-110.4179C397.4428,-100.8645 443.9351,-85.8229 475.5993,-75.5786"/>
<polygon fill="#191970" stroke="#191970" points="476.8815,-78.8425 485.3185,-72.4342 474.7267,-72.1824 476.8815,-78.8425"/>
</g>
<!-- Node9 -->
<g id="node10" class="node">
<title>Node9</title>
<polygon fill="#ffffff" stroke="#bfbfbf" points="552.2266,-55.5 552.2266,-73.5 595.458,-73.5 595.458,-55.5 552.2266,-55.5"/>
<text text-anchor="middle" x="573.8423" y="-61.5" font-family="Helvetica,sans-Serif" font-size="10.00" fill="#000000">time.h</text>
</g>
<!-- Node0&#45;&gt;Node9 -->
<g id="edge9" class="edge">
<title>Node0&#45;&gt;Node9</title>
<path fill="none" stroke="#191970" d="M372.7281,-112.9405C411.1444,-105.1004 476.7918,-91.1539 542.527,-73.923"/>
<polygon fill="#191970" stroke="#191970" points="543.4511,-77.299 552.223,-71.3572 541.6604,-70.5319 543.4511,-77.299"/>
</g>
<!-- Node10 -->
<g id="node11" class="node">
<title>Node10</title>
<polygon fill="#ffffff" stroke="#bfbfbf" points="613.3301,-55.5 613.3301,-73.5 664.3545,-73.5 664.3545,-55.5 613.3301,-55.5"/>
<text text-anchor="middle" x="638.8423" y="-61.5" font-family="Helvetica,sans-Serif" font-size="10.00" fill="#000000">unistd.h</text>
</g>
<!-- Node0&#45;&gt;Node10 -->
<g id="edge10" class="edge">
<title>Node0&#45;&gt;Node10</title>
<path fill="none" stroke="#191970" d="M372.6916,-114.9659C421.1666,-108.0356 514.8667,-93.7272 603.3656,-74.1633"/>
<polygon fill="#191970" stroke="#191970" points="604.2997,-77.5409 613.2938,-71.9411 602.7707,-70.7099 604.2997,-77.5409"/>
</g>
<!-- Node11 -->
<g id="node12" class="node">
<title>Node11</title>
<polygon fill="#ffffff" stroke="#bfbfbf" points="682.165,-55.5 682.165,-73.5 731.5195,-73.5 731.5195,-55.5 682.165,-55.5"/>
<text text-anchor="middle" x="706.8423" y="-61.5" font-family="Helvetica,sans-Serif" font-size="10.00" fill="#000000">regex.h</text>
</g>
<!-- Node0&#45;&gt;Node11 -->
<g id="edge11" class="edge">
<title>Node0&#45;&gt;Node11</title>
<path fill="none" stroke="#191970" d="M372.8252,-116.6064C431.3647,-111.1272 557.3563,-97.7893 672.0731,-74.1416"/>
<polygon fill="#191970" stroke="#191970" points="673.0027,-77.523 682.073,-72.0476 671.5679,-70.6716 673.0027,-77.523"/>
</g>
<!-- Node12 -->
<g id="node13" class="node">
<title>Node12</title>
<g id="a_node13"><a xlink:href="libcli_8h.html" target="_top" xlink:title="libcli.h">
<polygon fill="#ffffff" stroke="#000000" points="181.9482,-55.5 181.9482,-73.5 225.7363,-73.5 225.7363,-55.5 181.9482,-55.5"/>
<text text-anchor="middle" x="203.8423" y="-61.5" font-family="Helvetica,sans-Serif" font-size="10.00" fill="#000000">libcli.h</text>
</a>
</g>
</g>
<!-- Node0&#45;&gt;Node12 -->
<g id="edge12" class="edge">
<title>Node0&#45;&gt;Node12</title>
<path fill="none" stroke="#191970" d="M317.3847,-110.4179C295.0058,-101.3676 260.4476,-87.3919 235.3334,-77.2354"/>
<polygon fill="#191970" stroke="#191970" points="236.4649,-73.9176 225.882,-73.4131 233.8404,-80.407 236.4649,-73.9176"/>
</g>
<!-- Node12&#45;&gt;Node3 -->
<g id="edge13" class="edge">
<title>Node12&#45;&gt;Node3</title>
<path fill="none" stroke="#191970" d="M191.4576,-55.4179C180.0583,-47.0584 162.9286,-34.4966 149.4658,-24.6239"/>
<polygon fill="#191970" stroke="#191970" points="151.3793,-21.6869 141.2454,-18.5956 147.2397,-27.3317 151.3793,-21.6869"/>
</g>
<!-- Node12&#45;&gt;Node4 -->
<g id="edge14" class="edge">
<title>Node12&#45;&gt;Node4</title>
<path fill="none" stroke="#191970" d="M215.5665,-55.4179C226.1911,-47.1876 242.074,-34.8839 254.7253,-25.0836"/>
<polygon fill="#191970" stroke="#191970" points="257.1012,-27.6704 262.8634,-18.7795 252.8144,-22.1365 257.1012,-27.6704"/>
</g>
<!-- Node13 -->
<g id="node14" class="node">
<title>Node13</title>
<polygon fill="#ffffff" stroke="#bfbfbf" points="173.3374,-.5 173.3374,-18.5 234.3472,-18.5 234.3472,-.5 173.3374,-.5"/>
<text text-anchor="middle" x="203.8423" y="-6.5" font-family="Helvetica,sans-Serif" font-size="10.00" fill="#000000">sys/time.h</text>
</g>
<!-- Node12&#45;&gt;Node13 -->
<g id="edge15" class="edge">
<title>Node12&#45;&gt;Node13</title>
<path fill="none" stroke="#191970" d="M203.8423,-55.4179C203.8423,-48.2164 203.8423,-37.8962 203.8423,-28.8632"/>
<polygon fill="#191970" stroke="#191970" points="207.3424,-28.7794 203.8423,-18.7795 200.3424,-28.7795 207.3424,-28.7794"/>
</g>
</g>
</svg>
