<?xml version="1.0" encoding="UTF-8" standalone="no"?>
<!DOCTYPE svg PUBLIC "-//W3C//DTD SVG 1.1//EN"
 "http://www.w3.org/Graphics/SVG/1.1/DTD/svg11.dtd">
<!-- Generated by graphviz version 2.40.1 (20161225.0304)
 -->
<!-- Title: util/include/mac2int.h Pages: 1 -->
<svg width="2333pt" height="192pt"
 viewBox="0.00 0.00 2333.35 192.00" xmlns="http://www.w3.org/2000/svg" xmlns:xlink="http://www.w3.org/1999/xlink">
<g id="graph0" class="graph" transform="scale(1 1) rotate(0) translate(4 188)">
<title>util/include/mac2int.h</title>
<polygon fill="#ffffff" stroke="transparent" points="-4,4 -4,-188 2329.3521,-188 2329.3521,4 -4,4"/>
<!-- Node0 -->
<g id="node1" class="node">
<title>Node0</title>
<polygon fill="#bfbfbf" stroke="#000000" points="1065.0396,-165.5 1065.0396,-183.5 1174.4233,-183.5 1174.4233,-165.5 1065.0396,-165.5"/>
<text text-anchor="middle" x="1119.7314" y="-171.5" font-family="Helvetica,sans-Serif" font-size="10.00" fill="#000000">util/include/mac2int.h</text>
</g>
<!-- Node1 -->
<g id="node2" class="node">
<title>Node1</title>
<g id="a_node2"><a xlink:href="src_2include_2common_8h.html" target="_top" xlink:title="common.h">
<polygon fill="#ffffff" stroke="#000000" points="1088.3892,-110.5 1088.3892,-128.5 1151.0737,-128.5 1151.0737,-110.5 1088.3892,-110.5"/>
<text text-anchor="middle" x="1119.7314" y="-116.5" font-family="Helvetica,sans-Serif" font-size="10.00" fill="#000000">common.h</text>
</a>
</g>
</g>
<!-- Node0&#45;&gt;Node1 -->
<g id="edge1" class="edge">
<title>Node0&#45;&gt;Node1</title>
<path fill="none" stroke="#191970" d="M1114.5651,-165.4179C1113.0736,-158.2164 1112.6356,-147.8962 1113.2512,-138.8632"/>
<polygon fill="#191970" stroke="#191970" points="1116.7441,-139.1392 1114.5247,-128.7795 1109.7992,-138.2621 1116.7441,-139.1392"/>
</g>
<!-- Node1&#45;&gt;Node0 -->
<g id="edge27" class="edge">
<title>Node1&#45;&gt;Node0</title>
<path fill="none" stroke="#191970" d="M1124.9382,-128.7795C1126.4106,-136.0373 1126.8294,-146.3738 1126.1946,-155.383"/>
<polygon fill="#191970" stroke="#191970" points="1122.7084,-155.0517 1124.8978,-165.4179 1129.6507,-155.949 1122.7084,-155.0517"/>
</g>
<!-- Node2 -->
<g id="node3" class="node">
<title>Node2</title>
<polygon fill="#ffffff" stroke="#bfbfbf" points="0,-.5 0,-18.5 45.4629,-18.5 45.4629,-.5 0,-.5"/>
<text text-anchor="middle" x="22.7314" y="-6.5" font-family="Helvetica,sans-Serif" font-size="10.00" fill="#000000">stdio.h</text>
</g>
<!-- Node1&#45;&gt;Node2 -->
<g id="edge2" class="edge">
<title>Node1&#45;&gt;Node2</title>
<path fill="none" stroke="#191970" d="M1088.2042,-118.8841C918.3182,-115.4705 117.8662,-98.1507 71.7314,-74 52.7219,-64.0488 38.9659,-43.0476 30.9539,-27.703"/>
<polygon fill="#191970" stroke="#191970" points="34.0489,-26.0644 26.5209,-18.6093 27.7568,-29.1318 34.0489,-26.0644"/>
</g>
<!-- Node3 -->
<g id="node4" class="node">
<title>Node3</title>
<polygon fill="#ffffff" stroke="#bfbfbf" points="192.2192,-55.5 192.2192,-73.5 243.2437,-73.5 243.2437,-55.5 192.2192,-55.5"/>
<text text-anchor="middle" x="217.7314" y="-61.5" font-family="Helvetica,sans-Serif" font-size="10.00" fill="#000000">unistd.h</text>
</g>
<!-- Node1&#45;&gt;Node3 -->
<g id="edge3" class="edge">
<title>Node1&#45;&gt;Node3</title>
<path fill="none" stroke="#191970" d="M1088.0005,-118.7721C954.5047,-115.5685 437.2799,-101.705 253.6412,-73.9467"/>
<polygon fill="#191970" stroke="#191970" points="254.0123,-70.462 243.5884,-72.3574 252.9192,-77.3761 254.0123,-70.462"/>
</g>
<!-- Node4 -->
<g id="node5" class="node">
<title>Node4</title>
<polygon fill="#ffffff" stroke="#bfbfbf" points="260.8892,-55.5 260.8892,-73.5 308.5737,-73.5 308.5737,-55.5 260.8892,-55.5"/>
<text text-anchor="middle" x="284.7314" y="-61.5" font-family="Helvetica,sans-Serif" font-size="10.00" fill="#000000">stdlib.h</text>
</g>
<!-- Node1&#45;&gt;Node4 -->
<g id="edge4" class="edge">
<title>Node1&#45;&gt;Node4</title>
<path fill="none" stroke="#191970" d="M1088.2563,-118.6548C961.7575,-115.1159 489.4382,-100.5018 318.8117,-73.7387"/>
<polygon fill="#191970" stroke="#191970" points="319.1732,-70.2513 308.738,-72.0833 318.0381,-77.1586 319.1732,-70.2513"/>
</g>
<!-- Node5 -->
<g id="node6" class="node">
<title>Node5</title>
<polygon fill="#ffffff" stroke="#bfbfbf" points="63.665,-.5 63.665,-18.5 115.7979,-18.5 115.7979,-.5 63.665,-.5"/>
<text text-anchor="middle" x="89.7314" y="-6.5" font-family="Helvetica,sans-Serif" font-size="10.00" fill="#000000">stdarg.h</text>
</g>
<!-- Node1&#45;&gt;Node5 -->
<g id="edge5" class="edge">
<title>Node1&#45;&gt;Node5</title>
<path fill="none" stroke="#191970" d="M1088.1944,-119.3285C918.2987,-118.2541 118.3599,-111.226 82.7314,-74 71.3255,-62.0827 75.2608,-42.6913 80.7173,-28.2777"/>
<polygon fill="#191970" stroke="#191970" points="84.0397,-29.4103 84.7618,-18.8401 77.6057,-26.653 84.0397,-29.4103"/>
</g>
<!-- Node6 -->
<g id="node7" class="node">
<title>Node6</title>
<polygon fill="#ffffff" stroke="#bfbfbf" points="326.6108,-55.5 326.6108,-73.5 374.8521,-73.5 374.8521,-55.5 326.6108,-55.5"/>
<text text-anchor="middle" x="350.7314" y="-61.5" font-family="Helvetica,sans-Serif" font-size="10.00" fill="#000000">stdint.h</text>
</g>
<!-- Node1&#45;&gt;Node6 -->
<g id="edge6" class="edge">
<title>Node1&#45;&gt;Node6</title>
<path fill="none" stroke="#191970" d="M1088.0248,-118.4272C968.1742,-114.2371 542.1045,-98.0852 385.0555,-73.5982"/>
<polygon fill="#191970" stroke="#191970" points="385.5395,-70.131 375.1061,-71.9733 384.4112,-77.0394 385.5395,-70.131"/>
</g>
<!-- Node7 -->
<g id="node8" class="node">
<title>Node7</title>
<polygon fill="#ffffff" stroke="#bfbfbf" points="393.335,-55.5 393.335,-73.5 442.1279,-73.5 442.1279,-55.5 393.335,-55.5"/>
<text text-anchor="middle" x="417.7314" y="-61.5" font-family="Helvetica,sans-Serif" font-size="10.00" fill="#000000">string.h</text>
</g>
<!-- Node1&#45;&gt;Node7 -->
<g id="edge7" class="edge">
<title>Node1&#45;&gt;Node7</title>
<path fill="none" stroke="#191970" d="M1088.1468,-118.243C975.7761,-113.6356 594.9339,-96.8296 452.6882,-73.9593"/>
<polygon fill="#191970" stroke="#191970" points="452.9088,-70.447 442.4653,-72.231 451.7419,-77.3491 452.9088,-70.447"/>
</g>
<!-- Node8 -->
<g id="node9" class="node">
<title>Node8</title>
<polygon fill="#ffffff" stroke="#bfbfbf" points="459.835,-55.5 459.835,-73.5 513.6279,-73.5 513.6279,-55.5 459.835,-55.5"/>
<text text-anchor="middle" x="486.7314" y="-61.5" font-family="Helvetica,sans-Serif" font-size="10.00" fill="#000000">strings.h</text>
</g>
<!-- Node1&#45;&gt;Node8 -->
<g id="edge8" class="edge">
<title>Node1&#45;&gt;Node8</title>
<path fill="none" stroke="#191970" d="M1088.0935,-119.1091C1000.0298,-117.5948 744.5909,-110.3023 523.8937,-73.8916"/>
<polygon fill="#191970" stroke="#191970" points="524.1838,-70.3915 513.7431,-72.192 523.0278,-77.2954 524.1838,-70.3915"/>
</g>
<!-- Node9 -->
<g id="node10" class="node">
<title>Node9</title>
<polygon fill="#ffffff" stroke="#bfbfbf" points="531.6035,-55.5 531.6035,-73.5 589.8594,-73.5 589.8594,-55.5 531.6035,-55.5"/>
<text text-anchor="middle" x="560.7314" y="-61.5" font-family="Helvetica,sans-Serif" font-size="10.00" fill="#000000">pthread.h</text>
</g>
<!-- Node1&#45;&gt;Node9 -->
<g id="edge9" class="edge">
<title>Node1&#45;&gt;Node9</title>
<path fill="none" stroke="#191970" d="M1088.0931,-118.4761C1007.9044,-115.5121 790.1405,-105.1639 599.9862,-73.9731"/>
<polygon fill="#191970" stroke="#191970" points="600.5323,-70.5159 590.0935,-72.3272 599.3834,-77.421 600.5323,-70.5159"/>
</g>
<!-- Node10 -->
<g id="node11" class="node">
<title>Node10</title>
<polygon fill="#ffffff" stroke="#bfbfbf" points="607.6108,-55.5 607.6108,-73.5 655.8521,-73.5 655.8521,-55.5 607.6108,-55.5"/>
<text text-anchor="middle" x="631.7314" y="-61.5" font-family="Helvetica,sans-Serif" font-size="10.00" fill="#000000">ctype.h</text>
</g>
<!-- Node1&#45;&gt;Node10 -->
<g id="edge10" class="edge">
<title>Node1&#45;&gt;Node10</title>
<path fill="none" stroke="#191970" d="M1088.2821,-118.3109C1015.5067,-115.1444 829.8373,-104.6869 666.3585,-74.0068"/>
<polygon fill="#191970" stroke="#191970" points="666.5994,-70.4897 656.1205,-72.053 665.2872,-77.3656 666.5994,-70.4897"/>
</g>
<!-- Node11 -->
<g id="node12" class="node">
<title>Node11</title>
<polygon fill="#ffffff" stroke="#bfbfbf" points="673.8892,-55.5 673.8892,-73.5 721.5737,-73.5 721.5737,-55.5 673.8892,-55.5"/>
<text text-anchor="middle" x="697.7314" y="-61.5" font-family="Helvetica,sans-Serif" font-size="10.00" fill="#000000">errno.h</text>
</g>
<!-- Node1&#45;&gt;Node11 -->
<g id="edge11" class="edge">
<title>Node1&#45;&gt;Node11</title>
<path fill="none" stroke="#191970" d="M1088.3502,-117.6808C1023.285,-113.5164 868.9096,-101.6011 731.5877,-74.1145"/>
<polygon fill="#191970" stroke="#191970" points="732.2286,-70.6732 721.7314,-72.1084 730.8324,-77.5326 732.2286,-70.6732"/>
</g>
<!-- Node12 -->
<g id="node13" class="node">
<title>Node12</title>
<polygon fill="#ffffff" stroke="#bfbfbf" points="739.1157,-55.5 739.1157,-73.5 782.3472,-73.5 782.3472,-55.5 739.1157,-55.5"/>
<text text-anchor="middle" x="760.7314" y="-61.5" font-family="Helvetica,sans-Serif" font-size="10.00" fill="#000000">time.h</text>
</g>
<!-- Node1&#45;&gt;Node12 -->
<g id="edge12" class="edge">
<title>Node1&#45;&gt;Node12</title>
<path fill="none" stroke="#191970" d="M1088.2306,-116.8168C1031.1049,-111.5897 906.5461,-98.5355 792.5686,-73.8708"/>
<polygon fill="#191970" stroke="#191970" points="793.1501,-70.4151 782.6316,-71.6845 791.6459,-77.2516 793.1501,-70.4151"/>
</g>
<!-- Node13 -->
<g id="node14" class="node">
<title>Node13</title>
<polygon fill="#ffffff" stroke="#bfbfbf" points="800.3916,-55.5 800.3916,-73.5 843.0713,-73.5 843.0713,-55.5 800.3916,-55.5"/>
<text text-anchor="middle" x="821.7314" y="-61.5" font-family="Helvetica,sans-Serif" font-size="10.00" fill="#000000">fcntl.h</text>
</g>
<!-- Node1&#45;&gt;Node13 -->
<g id="edge13" class="edge">
<title>Node1&#45;&gt;Node13</title>
<path fill="none" stroke="#191970" d="M1088.2279,-115.4695C1039.7815,-108.9828 943.9591,-95.0121 853.2114,-73.8445"/>
<polygon fill="#191970" stroke="#191970" points="853.8517,-70.3994 843.3144,-71.502 852.2394,-77.2112 853.8517,-70.3994"/>
</g>
<!-- Node14 -->
<g id="node15" class="node">
<title>Node14</title>
<polygon fill="#ffffff" stroke="#bfbfbf" points="861.4976,-55.5 861.4976,-73.5 911.9653,-73.5 911.9653,-55.5 861.4976,-55.5"/>
<text text-anchor="middle" x="886.7314" y="-61.5" font-family="Helvetica,sans-Serif" font-size="10.00" fill="#000000">signal.h</text>
</g>
<!-- Node1&#45;&gt;Node14 -->
<g id="edge14" class="edge">
<title>Node1&#45;&gt;Node14</title>
<path fill="none" stroke="#191970" d="M1088.2558,-112.7891C1050.8523,-104.7083 986.3376,-90.4375 922.1888,-74.2905"/>
<polygon fill="#191970" stroke="#191970" points="922.8695,-70.8525 912.3162,-71.7896 921.1505,-77.6381 922.8695,-70.8525"/>
</g>
<!-- Node15 -->
<g id="node16" class="node">
<title>Node15</title>
<polygon fill="#ffffff" stroke="#bfbfbf" points="134.2266,-.5 134.2266,-18.5 195.2363,-18.5 195.2363,-.5 134.2266,-.5"/>
<text text-anchor="middle" x="164.7314" y="-6.5" font-family="Helvetica,sans-Serif" font-size="10.00" fill="#000000">sys/time.h</text>
</g>
<!-- Node1&#45;&gt;Node15 -->
<g id="edge15" class="edge">
<title>Node1&#45;&gt;Node15</title>
<path fill="none" stroke="#191970" d="M1088.3007,-118.9993C929.212,-116.3362 218.8909,-102.8591 182.7314,-74 169.4082,-63.3666 165.442,-43.7548 164.4849,-28.9377"/>
<polygon fill="#191970" stroke="#191970" points="167.9797,-28.6804 164.2344,-18.7697 160.9819,-28.8529 167.9797,-28.6804"/>
</g>
<!-- Node16 -->
<g id="node17" class="node">
<title>Node16</title>
<polygon fill="#ffffff" stroke="#bfbfbf" points="929.6133,-55.5 929.6133,-73.5 987.8496,-73.5 987.8496,-55.5 929.6133,-55.5"/>
<text text-anchor="middle" x="958.7314" y="-61.5" font-family="Helvetica,sans-Serif" font-size="10.00" fill="#000000">sys/stat.h</text>
</g>
<!-- Node1&#45;&gt;Node16 -->
<g id="edge16" class="edge">
<title>Node1&#45;&gt;Node16</title>
<path fill="none" stroke="#191970" d="M1093.1456,-110.4179C1066.2643,-101.2348 1024.5387,-86.9807 994.7102,-76.7909"/>
<polygon fill="#191970" stroke="#191970" points="995.6838,-73.4249 985.0892,-73.5042 993.4208,-80.0491 995.6838,-73.4249"/>
</g>
<!-- Node17 -->
<g id="node18" class="node">
<title>Node17</title>
<polygon fill="#ffffff" stroke="#bfbfbf" points="1005.7217,-55.5 1005.7217,-73.5 1071.7412,-73.5 1071.7412,-55.5 1005.7217,-55.5"/>
<text text-anchor="middle" x="1038.7314" y="-61.5" font-family="Helvetica,sans-Serif" font-size="10.00" fill="#000000">sys/types.h</text>
</g>
<!-- Node1&#45;&gt;Node17 -->
<g id="edge17" class="edge">
<title>Node1&#45;&gt;Node17</title>
<path fill="none" stroke="#191970" d="M1106.3559,-110.4179C1093.9274,-101.9788 1075.1917,-89.257 1060.5905,-79.3426"/>
<polygon fill="#191970" stroke="#191970" points="1062.366,-76.3176 1052.1268,-73.5956 1058.4338,-82.1088 1062.366,-76.3176"/>
</g>
<!-- Node18 -->
<g id="node19" class="node">
<title>Node18</title>
<polygon fill="#ffffff" stroke="#bfbfbf" points="1089.7808,-55.5 1089.7808,-73.5 1149.6821,-73.5 1149.6821,-55.5 1089.7808,-55.5"/>
<text text-anchor="middle" x="1119.7314" y="-61.5" font-family="Helvetica,sans-Serif" font-size="10.00" fill="#000000">sys/ioctl.h</text>
</g>
<!-- Node1&#45;&gt;Node18 -->
<g id="edge18" class="edge">
<title>Node1&#45;&gt;Node18</title>
<path fill="none" stroke="#191970" d="M1119.7314,-110.4179C1119.7314,-103.2164 1119.7314,-92.8962 1119.7314,-83.8632"/>
<polygon fill="#191970" stroke="#191970" points="1123.2315,-83.7794 1119.7314,-73.7795 1116.2315,-83.7795 1123.2315,-83.7794"/>
</g>
<!-- Node19 -->
<g id="node20" class="node">
<title>Node19</title>
<polygon fill="#ffffff" stroke="#bfbfbf" points="1167.2217,-55.5 1167.2217,-73.5 1238.2412,-73.5 1238.2412,-55.5 1167.2217,-55.5"/>
<text text-anchor="middle" x="1202.7314" y="-61.5" font-family="Helvetica,sans-Serif" font-size="10.00" fill="#000000">sys/socket.h</text>
</g>
<!-- Node1&#45;&gt;Node19 -->
<g id="edge19" class="edge">
<title>Node1&#45;&gt;Node19</title>
<path fill="none" stroke="#191970" d="M1133.4372,-110.4179C1146.1726,-101.9788 1165.3709,-89.257 1180.3327,-79.3426"/>
<polygon fill="#191970" stroke="#191970" points="1182.6027,-82.037 1189.0053,-73.5956 1178.736,-76.2019 1182.6027,-82.037"/>
</g>
<!-- Node20 -->
<g id="node21" class="node">
<title>Node20</title>
<polygon fill="#ffffff" stroke="#bfbfbf" points="1256.1108,-55.5 1256.1108,-73.5 1329.3521,-73.5 1329.3521,-55.5 1256.1108,-55.5"/>
<text text-anchor="middle" x="1292.7314" y="-61.5" font-family="Helvetica,sans-Serif" font-size="10.00" fill="#000000">sys/sysinfo.h</text>
</g>
<!-- Node1&#45;&gt;Node20 -->
<g id="edge20" class="edge">
<title>Node1&#45;&gt;Node20</title>
<path fill="none" stroke="#191970" d="M1148.2989,-110.4179C1177.3093,-101.1949 1222.4095,-86.8567 1254.4883,-76.6582"/>
<polygon fill="#191970" stroke="#191970" points="1255.9396,-79.8695 1264.4091,-73.5042 1253.8187,-73.1985 1255.9396,-79.8695"/>
</g>
<!-- Node21 -->
<g id="node22" class="node">
<title>Node21</title>
<polygon fill="#ffffff" stroke="#bfbfbf" points="1347.1035,-55.5 1347.1035,-73.5 1410.3594,-73.5 1410.3594,-55.5 1347.1035,-55.5"/>
<text text-anchor="middle" x="1378.7314" y="-61.5" font-family="Helvetica,sans-Serif" font-size="10.00" fill="#000000">arpa/inet.h</text>
</g>
<!-- Node1&#45;&gt;Node21 -->
<g id="edge21" class="edge">
<title>Node1&#45;&gt;Node21</title>
<path fill="none" stroke="#191970" d="M1151.3435,-113.2247C1192.0551,-105.0792 1265.2506,-90.2198 1336.793,-74.3915"/>
<polygon fill="#191970" stroke="#191970" points="1337.8704,-77.7375 1346.8734,-72.1522 1336.3524,-70.9041 1337.8704,-77.7375"/>
</g>
<!-- Node22 -->
<g id="node23" class="node">
<title>Node22</title>
<polygon fill="#ffffff" stroke="#bfbfbf" points="1428.2686,-55.5 1428.2686,-73.5 1493.1943,-73.5 1493.1943,-55.5 1428.2686,-55.5"/>
<text text-anchor="middle" x="1460.7314" y="-61.5" font-family="Helvetica,sans-Serif" font-size="10.00" fill="#000000">netinet/in.h</text>
</g>
<!-- Node1&#45;&gt;Node22 -->
<g id="edge22" class="edge">
<title>Node1&#45;&gt;Node22</title>
<path fill="none" stroke="#191970" d="M1151.3981,-115.5151C1204.5497,-108.6501 1315.2582,-93.5965 1418.173,-74.1902"/>
<polygon fill="#191970" stroke="#191970" points="1418.9372,-77.6077 1428.106,-72.2987 1417.6277,-70.7312 1418.9372,-77.6077"/>
</g>
<!-- Node23 -->
<g id="node24" class="node">
<title>Node23</title>
<polygon fill="#ffffff" stroke="#bfbfbf" points="1510.8745,-55.5 1510.8745,-73.5 1588.5884,-73.5 1588.5884,-55.5 1510.8745,-55.5"/>
<text text-anchor="middle" x="1549.7314" y="-61.5" font-family="Helvetica,sans-Serif" font-size="10.00" fill="#000000">net/ethernet.h</text>
</g>
<!-- Node1&#45;&gt;Node23 -->
<g id="edge23" class="edge">
<title>Node1&#45;&gt;Node23</title>
<path fill="none" stroke="#191970" d="M1151.5397,-116.5458C1215.5997,-110.4172 1364.9096,-95.2299 1500.5848,-74.0759"/>
<polygon fill="#191970" stroke="#191970" points="1501.4095,-77.4893 1510.7435,-72.4767 1500.3208,-70.5745 1501.4095,-77.4893"/>
</g>
<!-- Node24 -->
<g id="node25" class="node">
<title>Node24</title>
<polygon fill="#ffffff" stroke="#bfbfbf" points="1606.2686,-55.5 1606.2686,-73.5 1671.1943,-73.5 1671.1943,-55.5 1606.2686,-55.5"/>
<text text-anchor="middle" x="1638.7314" y="-61.5" font-family="Helvetica,sans-Serif" font-size="10.00" fill="#000000">netinet/ip.h</text>
</g>
<!-- Node1&#45;&gt;Node24 -->
<g id="edge24" class="edge">
<title>Node1&#45;&gt;Node24</title>
<path fill="none" stroke="#191970" d="M1151.2349,-117.9514C1226.5438,-113.9411 1423.0304,-101.6569 1596.0845,-74.0871"/>
<polygon fill="#191970" stroke="#191970" points="1596.8211,-77.5136 1606.1353,-72.4641 1595.7052,-70.6031 1596.8211,-77.5136"/>
</g>
<!-- Node25 -->
<g id="node26" class="node">
<title>Node25</title>
<polygon fill="#ffffff" stroke="#bfbfbf" points="1689.4902,-55.5 1689.4902,-73.5 1759.9727,-73.5 1759.9727,-55.5 1689.4902,-55.5"/>
<text text-anchor="middle" x="1724.7314" y="-61.5" font-family="Helvetica,sans-Serif" font-size="10.00" fill="#000000">netinet/tcp.h</text>
</g>
<!-- Node1&#45;&gt;Node25 -->
<g id="edge25" class="edge">
<title>Node1&#45;&gt;Node25</title>
<path fill="none" stroke="#191970" d="M1151.1564,-118.3467C1235.1395,-114.968 1471.8876,-103.5007 1679.2696,-73.8647"/>
<polygon fill="#191970" stroke="#191970" points="1680.0385,-77.29 1689.4342,-72.394 1679.036,-70.3622 1680.0385,-77.29"/>
</g>
<!-- Node26 -->
<g id="node27" class="node">
<title>Node26</title>
<polygon fill="#ffffff" stroke="#bfbfbf" points="1777.9312,-55.5 1777.9312,-73.5 1869.5317,-73.5 1869.5317,-55.5 1777.9312,-55.5"/>
<text text-anchor="middle" x="1823.7314" y="-61.5" font-family="Helvetica,sans-Serif" font-size="10.00" fill="#000000">netinet/ip_icmp.h</text>
</g>
<!-- Node1&#45;&gt;Node26 -->
<g id="edge26" class="edge">
<title>Node1&#45;&gt;Node26</title>
<path fill="none" stroke="#191970" d="M1151.2441,-118.4203C1244.0583,-115.0011 1524.602,-102.9543 1767.7764,-73.993"/>
<polygon fill="#191970" stroke="#191970" points="1768.3562,-77.4486 1777.8665,-72.7789 1767.5199,-70.4987 1768.3562,-77.4486"/>
</g>
<!-- Node27 -->
<g id="node28" class="node">
<title>Node27</title>
<g id="a_node28"><a xlink:href="ip2int_8h.html" target="_top" xlink:title="ip2int.h">
<polygon fill="#ffffff" stroke="#000000" points="1887.6084,-55.5 1887.6084,-73.5 1935.8545,-73.5 1935.8545,-55.5 1887.6084,-55.5"/>
<text text-anchor="middle" x="1911.7314" y="-61.5" font-family="Helvetica,sans-Serif" font-size="10.00" fill="#000000">ip2int.h</text>
</a>
</g>
</g>
<!-- Node1&#45;&gt;Node27 -->
<g id="edge28" class="edge">
<title>Node1&#45;&gt;Node27</title>
<path fill="none" stroke="#191970" d="M1151.2654,-118.4285C1275.1667,-114.2981 1727.5944,-98.4116 1869.7314,-74 1872.1993,-73.5762 1874.7456,-73.0357 1877.318,-72.4282"/>
<polygon fill="#191970" stroke="#191970" points="1878.452,-75.7502 1887.2577,-69.8588 1876.7,-68.973 1878.452,-75.7502"/>
</g>
<!-- Node28 -->
<g id="node29" class="node">
<title>Node28</title>
<g id="a_node29"><a xlink:href="database_8h.html" target="_top" xlink:title="database.h">
<polygon fill="#ffffff" stroke="#000000" points="1991.9878,-55.5 1991.9878,-73.5 2057.4751,-73.5 2057.4751,-55.5 1991.9878,-55.5"/>
<text text-anchor="middle" x="2024.7314" y="-61.5" font-family="Helvetica,sans-Serif" font-size="10.00" fill="#000000">database.h</text>
</a>
</g>
</g>
<!-- Node1&#45;&gt;Node28 -->
<g id="edge30" class="edge">
<title>Node1&#45;&gt;Node28</title>
<path fill="none" stroke="#191970" d="M1151.0801,-118.3446C1284.5908,-113.5824 1805.2123,-94.7481 1968.7314,-74 1972.9123,-73.4695 1977.2776,-72.7773 1981.6606,-72.0081"/>
<polygon fill="#191970" stroke="#191970" points="1982.65,-75.3842 1991.8408,-70.1135 1981.3692,-68.5023 1982.65,-75.3842"/>
</g>
<!-- Node30 -->
<g id="node31" class="node">
<title>Node30</title>
<polygon fill="#ffffff" stroke="#bfbfbf" points="2075.3276,-55.5 2075.3276,-73.5 2134.1353,-73.5 2134.1353,-55.5 2075.3276,-55.5"/>
<text text-anchor="middle" x="2104.7314" y="-61.5" font-family="Helvetica,sans-Serif" font-size="10.00" fill="#000000">jansson.h</text>
</g>
<!-- Node1&#45;&gt;Node30 -->
<g id="edge34" class="edge">
<title>Node1&#45;&gt;Node30</title>
<path fill="none" stroke="#191970" d="M1151.3927,-118.8171C1292.3264,-115.6511 1864.1368,-101.4375 2064.8437,-73.9733"/>
<polygon fill="#191970" stroke="#191970" points="2065.5664,-77.4057 2074.9719,-72.5287 2064.5779,-70.4758 2065.5664,-77.4057"/>
</g>
<!-- Node31 -->
<g id="node32" class="node">
<title>Node31</title>
<g id="a_node32"><a xlink:href="libcli_8h.html" target="_top" xlink:title="libcli.h">
<polygon fill="#ffffff" stroke="#000000" points="91.8374,-55.5 91.8374,-73.5 135.6255,-73.5 135.6255,-55.5 91.8374,-55.5"/>
<text text-anchor="middle" x="113.7314" y="-61.5" font-family="Helvetica,sans-Serif" font-size="10.00" fill="#000000">libcli.h</text>
</a>
</g>
</g>
<!-- Node1&#45;&gt;Node31 -->
<g id="edge35" class="edge">
<title>Node1&#45;&gt;Node31</title>
<path fill="none" stroke="#191970" d="M1088.2688,-118.9176C943.0854,-116.0931 336.9852,-102.7682 149.7314,-74 148.4377,-73.8012 147.1233,-73.5745 145.7998,-73.3254"/>
<polygon fill="#191970" stroke="#191970" points="146.1821,-69.8251 135.6611,-71.073 144.664,-76.6585 146.1821,-69.8251"/>
</g>
<!-- Node32 -->
<g id="node33" class="node">
<title>Node32</title>
<polygon fill="#ffffff" stroke="#bfbfbf" points="2152.5049,-55.5 2152.5049,-73.5 2202.958,-73.5 2202.958,-55.5 2152.5049,-55.5"/>
<text text-anchor="middle" x="2177.7314" y="-61.5" font-family="Helvetica,sans-Serif" font-size="10.00" fill="#000000">mysql.h</text>
</g>
<!-- Node1&#45;&gt;Node32 -->
<g id="edge39" class="edge">
<title>Node1&#45;&gt;Node32</title>
<path fill="none" stroke="#191970" d="M1151.4005,-119.0319C1299.4306,-116.7026 1924.7096,-105.2601 2142.2122,-73.6332"/>
<polygon fill="#191970" stroke="#191970" points="2142.8946,-77.0698 2152.2577,-72.1118 2141.8463,-70.1487 2142.8946,-77.0698"/>
</g>
<!-- Node33 -->
<g id="node34" class="node">
<title>Node33</title>
<polygon fill="#ffffff" stroke="#bfbfbf" points="2221.1157,-55.5 2221.1157,-73.5 2264.3472,-73.5 2264.3472,-55.5 2221.1157,-55.5"/>
<text text-anchor="middle" x="2242.7314" y="-61.5" font-family="Helvetica,sans-Serif" font-size="10.00" fill="#000000">zmq.h</text>
</g>
<!-- Node1&#45;&gt;Node33 -->
<g id="edge40" class="edge">
<title>Node1&#45;&gt;Node33</title>
<path fill="none" stroke="#191970" d="M1151.1947,-119.2729C1305.0364,-117.9999 1979.6324,-110.4949 2210.8681,-73.6167"/>
<polygon fill="#191970" stroke="#191970" points="2211.5928,-77.0444 2220.8838,-71.9524 2210.4453,-70.1391 2211.5928,-77.0444"/>
</g>
<!-- Node34 -->
<g id="node35" class="node">
<title>Node34</title>
<g id="a_node35"><a xlink:href="src_2include_2type_8h.html" target="_top" xlink:title="type.h">
<polygon fill="#ffffff" stroke="#000000" points="2282.1108,-55.5 2282.1108,-73.5 2325.3521,-73.5 2325.3521,-55.5 2282.1108,-55.5"/>
<text text-anchor="middle" x="2303.7314" y="-61.5" font-family="Helvetica,sans-Serif" font-size="10.00" fill="#000000">type.h</text>
</a>
</g>
</g>
<!-- Node1&#45;&gt;Node34 -->
<g id="edge41" class="edge">
<title>Node1&#45;&gt;Node34</title>
<path fill="none" stroke="#191970" d="M1151.1012,-119.3939C1310.0675,-118.6868 2028.3169,-113.4216 2271.7519,-73.8665"/>
<polygon fill="#191970" stroke="#191970" points="2272.6694,-77.2611 2281.9447,-72.1407 2271.5008,-70.3593 2272.6694,-77.2611"/>
</g>
<!-- Node27&#45;&gt;Node1 -->
<g id="edge29" class="edge">
<title>Node27&#45;&gt;Node1</title>
<path fill="none" stroke="#191970" d="M1890.2206,-73.5391C1889.3854,-73.7045 1888.5541,-73.8587 1887.7314,-74 1746.8259,-98.2001 1300.983,-114.0222 1161.6558,-118.3185"/>
<polygon fill="#191970" stroke="#191970" points="1161.2902,-114.8279 1151.4014,-118.6308 1161.5033,-121.8247 1161.2902,-114.8279"/>
</g>
<!-- Node28&#45;&gt;Node1 -->
<g id="edge31" class="edge">
<title>Node28&#45;&gt;Node1</title>
<path fill="none" stroke="#191970" d="M1991.754,-73.3008C1990.0636,-73.5556 1988.3832,-73.7904 1986.7314,-74 1824.6964,-94.5598 1312.012,-113.2404 1161.5425,-118.2114"/>
<polygon fill="#191970" stroke="#191970" points="1161.2245,-114.7199 1151.3445,-118.5455 1161.4537,-121.7161 1161.2245,-114.7199"/>
</g>
<!-- Node29 -->
<g id="node30" class="node">
<title>Node29</title>
<g id="a_node30"><a xlink:href="str_8h.html" target="_top" xlink:title="str.h">
<polygon fill="#ffffff" stroke="#000000" points="1976.2808,-.5 1976.2808,-18.5 2011.1821,-18.5 2011.1821,-.5 1976.2808,-.5"/>
<text text-anchor="middle" x="1993.7314" y="-6.5" font-family="Helvetica,sans-Serif" font-size="10.00" fill="#000000">str.h</text>
</a>
</g>
</g>
<!-- Node28&#45;&gt;Node29 -->
<g id="edge32" class="edge">
<title>Node28&#45;&gt;Node29</title>
<path fill="none" stroke="#191970" d="M2019.6124,-55.4179C2015.375,-47.8998 2009.2218,-36.9829 2003.9783,-27.6799"/>
<polygon fill="#191970" stroke="#191970" points="2006.9209,-25.7724 1998.9617,-18.7795 2000.8228,-29.2096 2006.9209,-25.7724"/>
</g>
<!-- Node29&#45;&gt;Node1 -->
<g id="edge33" class="edge">
<title>Node29&#45;&gt;Node1</title>
<path fill="none" stroke="#191970" d="M1989.926,-18.5789C1983.2322,-33.2427 1967.8336,-61.7336 1944.7314,-74 1875.2983,-110.8664 1319.8437,-117.9583 1161.6412,-119.2352"/>
<polygon fill="#191970" stroke="#191970" points="1161.3488,-115.7372 1151.3761,-119.3143 1161.4028,-122.737 1161.3488,-115.7372"/>
</g>
<!-- Node31&#45;&gt;Node2 -->
<g id="edge37" class="edge">
<title>Node31&#45;&gt;Node2</title>
<path fill="none" stroke="#191970" d="M98.7046,-55.4179C84.4783,-46.8195 62.8962,-33.7754 46.3657,-23.7844"/>
<polygon fill="#191970" stroke="#191970" points="48.1493,-20.7729 37.7806,-18.5956 44.5284,-26.7637 48.1493,-20.7729"/>
</g>
<!-- Node31&#45;&gt;Node5 -->
<g id="edge36" class="edge">
<title>Node31&#45;&gt;Node5</title>
<path fill="none" stroke="#191970" d="M109.7683,-55.4179C106.5223,-47.9789 101.8241,-37.2123 97.7929,-27.9742"/>
<polygon fill="#191970" stroke="#191970" points="100.9881,-26.545 93.7807,-18.7795 94.5723,-29.3447 100.9881,-26.545"/>
</g>
<!-- Node31&#45;&gt;Node15 -->
<g id="edge38" class="edge">
<title>Node31&#45;&gt;Node15</title>
<path fill="none" stroke="#191970" d="M122.1531,-55.4179C129.4913,-47.5041 140.3216,-35.8243 149.2227,-26.2251"/>
<polygon fill="#191970" stroke="#191970" points="151.8939,-28.492 156.1269,-18.7795 146.761,-23.7324 151.8939,-28.492"/>
</g>
</g>
</svg>
