<?xml version="1.0" encoding="UTF-8" standalone="no"?>
<!DOCTYPE svg PUBLIC "-//W3C//DTD SVG 1.1//EN"
 "http://www.w3.org/Graphics/SVG/1.1/DTD/svg11.dtd">
<!-- Generated by graphviz version 2.40.1 (20161225.0304)
 -->
<!-- Title: util/include/mac2int.h Pages: 1 -->
<svg width="1657pt" height="212pt"
 viewBox="0.00 0.00 1656.66 212.00" xmlns="http://www.w3.org/2000/svg" xmlns:xlink="http://www.w3.org/1999/xlink">
<g id="graph0" class="graph" transform="scale(1 1) rotate(0) translate(4 208)">
<title>util/include/mac2int.h</title>
<polygon fill="#ffffff" stroke="transparent" points="-4,4 -4,-208 1652.6646,-208 1652.6646,4 -4,4"/>
<!-- Node22 -->
<g id="node1" class="node">
<title>Node22</title>
<polygon fill="#bfbfbf" stroke="#000000" points="842.7954,-185.5 842.7954,-203.5 952.1792,-203.5 952.1792,-185.5 842.7954,-185.5"/>
<text text-anchor="middle" x="897.4873" y="-191.5" font-family="Helvetica,sans-Serif" font-size="10.00" fill="#000000">util/include/mac2int.h</text>
</g>
<!-- Node23 -->
<g id="node2" class="node">
<title>Node23</title>
<g id="a_node2"><a xlink:href="app__events_2include_2app__event__json_8h.html" target="_top" xlink:title="app_events/include\l/app_event_json.h">
<polygon fill="#ffffff" stroke="#000000" points="160.3989,-120.5 160.3989,-148.5 262.5757,-148.5 262.5757,-120.5 160.3989,-120.5"/>
<text text-anchor="start" x="168.3989" y="-136.5" font-family="Helvetica,sans-Serif" font-size="10.00" fill="#000000">app_events/include</text>
<text text-anchor="middle" x="211.4873" y="-126.5" font-family="Helvetica,sans-Serif" font-size="10.00" fill="#000000">/app_event_json.h</text>
</a>
</g>
</g>
<!-- Node22&#45;&gt;Node23 -->
<g id="edge1" class="edge">
<title>Node22&#45;&gt;Node23</title>
<path fill="none" stroke="#191970" d="M832.3768,-192.1469C720.4067,-187.5437 484.3288,-175.3995 286.4873,-149 278.7315,-147.9651 270.5669,-146.637 262.594,-145.2059"/>
<polygon fill="#191970" stroke="#191970" points="832.3624,-195.6491 842.4957,-192.5562 832.6453,-188.6548 832.3624,-195.6491"/>
</g>
<!-- Node27 -->
<g id="node6" class="node">
<title>Node27</title>
<g id="a_node6"><a xlink:href="l2__learning_8h.html" target="_top" xlink:title="applications/include\l/l2_learning.h">
<polygon fill="#ffffff" stroke="#000000" points="295.8472,-120.5 295.8472,-148.5 399.1274,-148.5 399.1274,-120.5 295.8472,-120.5"/>
<text text-anchor="start" x="303.8472" y="-136.5" font-family="Helvetica,sans-Serif" font-size="10.00" fill="#000000">applications/include</text>
<text text-anchor="middle" x="347.4873" y="-126.5" font-family="Helvetica,sans-Serif" font-size="10.00" fill="#000000">/l2_learning.h</text>
</a>
</g>
</g>
<!-- Node22&#45;&gt;Node27 -->
<g id="edge5" class="edge">
<title>Node22&#45;&gt;Node27</title>
<path fill="none" stroke="#191970" d="M832.549,-191.4626C738.3611,-186.381 558.5787,-174.1364 407.4873,-149 404.8445,-148.5603 402.1457,-148.0682 399.4269,-147.5382"/>
<polygon fill="#191970" stroke="#191970" points="832.6035,-194.9703 842.7746,-192.0042 832.9738,-187.9801 832.6035,-194.9703"/>
</g>
<!-- Node29 -->
<g id="node8" class="node">
<title>Node29</title>
<g id="a_node8"><a xlink:href="applications_2include_2l2__shortest_8h.html" target="_top" xlink:title="applications/include\l/l2_shortest.h">
<polygon fill="#ffffff" stroke="#000000" points="416.8472,-120.5 416.8472,-148.5 520.1274,-148.5 520.1274,-120.5 416.8472,-120.5"/>
<text text-anchor="start" x="424.8472" y="-136.5" font-family="Helvetica,sans-Serif" font-size="10.00" fill="#000000">applications/include</text>
<text text-anchor="middle" x="468.4873" y="-126.5" font-family="Helvetica,sans-Serif" font-size="10.00" fill="#000000">/l2_shortest.h</text>
</a>
</g>
</g>
<!-- Node22&#45;&gt;Node29 -->
<g id="edge7" class="edge">
<title>Node22&#45;&gt;Node29</title>
<path fill="none" stroke="#191970" d="M832.5765,-188.6612C758.7977,-181.5187 634.9259,-167.9901 529.4873,-149 526.4877,-148.4597 523.4145,-147.8642 520.3197,-147.232"/>
<polygon fill="#191970" stroke="#191970" points="832.3591,-192.1563 842.6474,-189.6265 833.0271,-185.1882 832.3591,-192.1563"/>
</g>
<!-- Node30 -->
<g id="node9" class="node">
<title>Node30</title>
<g id="a_node9"><a xlink:href="cluster_8h.html" target="_top" xlink:title="components/include\l/cluster.h">
<polygon fill="#ffffff" stroke="#000000" points="538.0146,-120.5 538.0146,-148.5 642.96,-148.5 642.96,-120.5 538.0146,-120.5"/>
<text text-anchor="start" x="546.0146" y="-136.5" font-family="Helvetica,sans-Serif" font-size="10.00" fill="#000000">components/include</text>
<text text-anchor="middle" x="590.4873" y="-126.5" font-family="Helvetica,sans-Serif" font-size="10.00" fill="#000000">/cluster.h</text>
</a>
</g>
</g>
<!-- Node22&#45;&gt;Node30 -->
<g id="edge8" class="edge">
<title>Node22&#45;&gt;Node30</title>
<path fill="none" stroke="#191970" d="M834.8418,-183.6868C785.247,-174.9285 714.2824,-161.957 652.4873,-149 649.458,-148.3648 646.3496,-147.6951 643.2157,-147.0061"/>
<polygon fill="#191970" stroke="#191970" points="834.3225,-187.1491 844.7779,-185.4356 835.536,-180.2551 834.3225,-187.1491"/>
</g>
<!-- Node32 -->
<g id="node11" class="node">
<title>Node32</title>
<g id="a_node11"><a xlink:href="flow__mgmt_8h.html" target="_top" xlink:title="components/include\l/flow_mgmt.h">
<polygon fill="#ffffff" stroke="#000000" points="661.0146,-120.5 661.0146,-148.5 765.96,-148.5 765.96,-120.5 661.0146,-120.5"/>
<text text-anchor="start" x="669.0146" y="-136.5" font-family="Helvetica,sans-Serif" font-size="10.00" fill="#000000">components/include</text>
<text text-anchor="middle" x="713.4873" y="-126.5" font-family="Helvetica,sans-Serif" font-size="10.00" fill="#000000">/flow_mgmt.h</text>
</a>
</g>
</g>
<!-- Node22&#45;&gt;Node32 -->
<g id="edge10" class="edge">
<title>Node22&#45;&gt;Node32</title>
<path fill="none" stroke="#191970" d="M859.8553,-182.2287C829.8343,-172.4392 787.7684,-158.7221 756.433,-148.504"/>
<polygon fill="#191970" stroke="#191970" points="858.9493,-185.6146 869.5417,-185.3873 861.1195,-178.9595 858.9493,-185.6146"/>
</g>
<!-- Node34 -->
<g id="node13" class="node">
<title>Node34</title>
<g id="a_node13"><a xlink:href="host__mgmt_8h.html" target="_top" xlink:title="components/include\l/host_mgmt.h">
<polygon fill="#ffffff" stroke="#000000" points="784.0146,-120.5 784.0146,-148.5 888.96,-148.5 888.96,-120.5 784.0146,-120.5"/>
<text text-anchor="start" x="792.0146" y="-136.5" font-family="Helvetica,sans-Serif" font-size="10.00" fill="#000000">components/include</text>
<text text-anchor="middle" x="836.4873" y="-126.5" font-family="Helvetica,sans-Serif" font-size="10.00" fill="#000000">/host_mgmt.h</text>
</a>
</g>
</g>
<!-- Node22&#45;&gt;Node34 -->
<g id="edge12" class="edge">
<title>Node22&#45;&gt;Node34</title>
<path fill="none" stroke="#191970" d="M881.0095,-178.2923C871.6684,-169.1044 860.0844,-157.7103 851.0741,-148.8477"/>
<polygon fill="#191970" stroke="#191970" points="878.6391,-180.8701 888.2227,-185.3873 883.5478,-175.8796 878.6391,-180.8701"/>
</g>
<!-- Node36 -->
<g id="node15" class="node">
<title>Node36</title>
<g id="a_node15"><a xlink:href="ofp10_8h.html" target="_top" xlink:title="components/include\l/ofp10.h">
<polygon fill="#ffffff" stroke="#000000" points="907.0146,-120.5 907.0146,-148.5 1011.96,-148.5 1011.96,-120.5 907.0146,-120.5"/>
<text text-anchor="start" x="915.0146" y="-136.5" font-family="Helvetica,sans-Serif" font-size="10.00" fill="#000000">components/include</text>
<text text-anchor="middle" x="959.4873" y="-126.5" font-family="Helvetica,sans-Serif" font-size="10.00" fill="#000000">/ofp10.h</text>
</a>
</g>
</g>
<!-- Node22&#45;&gt;Node36 -->
<g id="edge14" class="edge">
<title>Node22&#45;&gt;Node36</title>
<path fill="none" stroke="#191970" d="M914.2352,-178.2923C923.7294,-169.1044 935.5034,-157.7103 944.6614,-148.8477"/>
<polygon fill="#191970" stroke="#191970" points="911.6558,-175.9179 906.9038,-185.3873 916.5238,-180.9482 911.6558,-175.9179"/>
</g>
<!-- Node38 -->
<g id="node17" class="node">
<title>Node38</title>
<g id="a_node17"><a xlink:href="events_2include_2event__json_8h.html" target="_top" xlink:title="events/include/event\l_json.h">
<polygon fill="#ffffff" stroke="#000000" points="1029.9014,-120.5 1029.9014,-148.5 1137.0732,-148.5 1137.0732,-120.5 1029.9014,-120.5"/>
<text text-anchor="start" x="1037.9014" y="-136.5" font-family="Helvetica,sans-Serif" font-size="10.00" fill="#000000">events/include/event</text>
<text text-anchor="middle" x="1083.4873" y="-126.5" font-family="Helvetica,sans-Serif" font-size="10.00" fill="#000000">_json.h</text>
</a>
</g>
</g>
<!-- Node22&#45;&gt;Node38 -->
<g id="edge16" class="edge">
<title>Node22&#45;&gt;Node38</title>
<path fill="none" stroke="#191970" d="M935.5284,-182.2287C965.8757,-172.4392 1008.3988,-158.7221 1040.0748,-148.504"/>
<polygon fill="#191970" stroke="#191970" points="934.1793,-178.9862 925.7367,-185.3873 936.3283,-185.6482 934.1793,-178.9862"/>
</g>
<!-- Node42 -->
<g id="node21" class="node">
<title>Node42</title>
<g id="a_node21"><a xlink:href="ext__apps_2shim_2include_2app__event__json_8h.html" target="_top" xlink:title="ext_apps/shim/include\l/app_event_json.h">
<polygon fill="#ffffff" stroke="#000000" points="1155.0146,-120.5 1155.0146,-148.5 1269.96,-148.5 1269.96,-120.5 1155.0146,-120.5"/>
<text text-anchor="start" x="1163.0146" y="-136.5" font-family="Helvetica,sans-Serif" font-size="10.00" fill="#000000">ext_apps/shim/include</text>
<text text-anchor="middle" x="1212.4873" y="-126.5" font-family="Helvetica,sans-Serif" font-size="10.00" fill="#000000">/app_event_json.h</text>
</a>
</g>
</g>
<!-- Node22&#45;&gt;Node42 -->
<g id="edge20" class="edge">
<title>Node22&#45;&gt;Node42</title>
<path fill="none" stroke="#191970" d="M960.1493,-183.6849C1010.5731,-174.8292 1083.208,-161.7285 1146.4873,-149 1149.2476,-148.4448 1152.0704,-147.8662 1154.9198,-147.2736"/>
<polygon fill="#191970" stroke="#191970" points="959.3004,-180.2803 950.0543,-185.4533 960.5082,-187.1753 959.3004,-180.2803"/>
</g>
<!-- Node43 -->
<g id="node22" class="node">
<title>Node43</title>
<g id="a_node22"><a xlink:href="ext__apps_2l2__shortest_2src_2include_2l2__shortest_8h.html" target="_top" xlink:title="ext_apps/l2_shortest\l/src/include/l2_shortest.h">
<polygon fill="#ffffff" stroke="#000000" points="1288.1821,-120.5 1288.1821,-148.5 1414.7925,-148.5 1414.7925,-120.5 1288.1821,-120.5"/>
<text text-anchor="start" x="1296.1821" y="-136.5" font-family="Helvetica,sans-Serif" font-size="10.00" fill="#000000">ext_apps/l2_shortest</text>
<text text-anchor="middle" x="1351.4873" y="-126.5" font-family="Helvetica,sans-Serif" font-size="10.00" fill="#000000">/src/include/l2_shortest.h</text>
</a>
</g>
</g>
<!-- Node22&#45;&gt;Node43 -->
<g id="edge21" class="edge">
<title>Node22&#45;&gt;Node43</title>
<path fill="none" stroke="#191970" d="M962.6122,-188.2686C1038.6386,-180.6367 1168.0528,-166.5352 1278.4873,-149 1281.55,-148.5137 1284.6801,-147.9911 1287.8379,-147.4434"/>
<polygon fill="#191970" stroke="#191970" points="961.8497,-184.8272 952.2464,-189.3023 962.5443,-191.7927 961.8497,-184.8272"/>
</g>
<!-- Node46 -->
<g id="node25" class="node">
<title>Node46</title>
<g id="a_node25"><a xlink:href="ext__comps_2shim_2include_2event__json_8h.html" target="_top" xlink:title="ext_comps/shim/include\l/event_json.h">
<polygon fill="#ffffff" stroke="#000000" points="1433.1304,-120.5 1433.1304,-148.5 1555.8442,-148.5 1555.8442,-120.5 1433.1304,-120.5"/>
<text text-anchor="start" x="1441.1304" y="-136.5" font-family="Helvetica,sans-Serif" font-size="10.00" fill="#000000">ext_comps/shim/include</text>
<text text-anchor="middle" x="1494.4873" y="-126.5" font-family="Helvetica,sans-Serif" font-size="10.00" fill="#000000">/event_json.h</text>
</a>
</g>
</g>
<!-- Node22&#45;&gt;Node46 -->
<g id="edge24" class="edge">
<title>Node22&#45;&gt;Node46</title>
<path fill="none" stroke="#191970" d="M962.452,-191.2931C1062.0593,-185.8329 1258.337,-172.9257 1423.4873,-149 1426.6,-148.5491 1429.7819,-148.0479 1432.9897,-147.5107"/>
<polygon fill="#191970" stroke="#191970" points="962.0422,-187.8101 952.2458,-191.845 962.4202,-194.7999 962.0422,-187.8101"/>
</g>
<!-- Node47 -->
<g id="node26" class="node">
<title>Node47</title>
<g id="a_node26"><a xlink:href="mac2int_8c.html" target="_top" xlink:title="util/mac2int.c">
<polygon fill="#ffffff" stroke="#000000" points="1574.3101,-125.5 1574.3101,-143.5 1648.6646,-143.5 1648.6646,-125.5 1574.3101,-125.5"/>
<text text-anchor="middle" x="1611.4873" y="-131.5" font-family="Helvetica,sans-Serif" font-size="10.00" fill="#000000">util/mac2int.c</text>
</a>
</g>
</g>
<!-- Node22&#45;&gt;Node47 -->
<g id="edge25" class="edge">
<title>Node22&#45;&gt;Node47</title>
<path fill="none" stroke="#191970" d="M962.4699,-191.9814C1106.7874,-186.0767 1450.2606,-170.2202 1564.4873,-149 1571.5396,-147.6899 1579.0241,-145.6784 1585.8979,-143.5668"/>
<polygon fill="#191970" stroke="#191970" points="962.2787,-188.4862 952.4291,-192.3893 962.5629,-195.4804 962.2787,-188.4862"/>
</g>
<!-- Node24 -->
<g id="node3" class="node">
<title>Node24</title>
<g id="a_node3"><a xlink:href="app__event__msg__pack_8h.html" target="_top" xlink:title="app_events/include\l/app_event_msg_pack.h">
<polygon fill="#ffffff" stroke="#000000" points=".0049,-55.5 .0049,-83.5 124.9697,-83.5 124.9697,-55.5 .0049,-55.5"/>
<text text-anchor="start" x="8.0049" y="-71.5" font-family="Helvetica,sans-Serif" font-size="10.00" fill="#000000">app_events/include</text>
<text text-anchor="middle" x="62.4873" y="-61.5" font-family="Helvetica,sans-Serif" font-size="10.00" fill="#000000">/app_event_msg_pack.h</text>
</a>
</g>
</g>
<!-- Node23&#45;&gt;Node24 -->
<g id="edge2" class="edge">
<title>Node23&#45;&gt;Node24</title>
<path fill="none" stroke="#191970" d="M169.6955,-116.2687C145.9637,-105.9159 116.7069,-93.1528 94.755,-83.5765"/>
<polygon fill="#191970" stroke="#191970" points="168.5912,-119.6054 179.1565,-120.396 171.3902,-113.1894 168.5912,-119.6054"/>
</g>
<!-- Node26 -->
<g id="node5" class="node">
<title>Node26</title>
<g id="a_node5"><a xlink:href="ext__apps_2shim_2app__event_8c.html" target="_top" xlink:title="ext_apps/shim/app_event.c">
<polygon fill="#ffffff" stroke="#000000" points="142.6157,-60.5 142.6157,-78.5 280.3589,-78.5 280.3589,-60.5 142.6157,-60.5"/>
<text text-anchor="middle" x="211.4873" y="-66.5" font-family="Helvetica,sans-Serif" font-size="10.00" fill="#000000">ext_apps/shim/app_event.c</text>
</a>
</g>
</g>
<!-- Node23&#45;&gt;Node26 -->
<g id="edge4" class="edge">
<title>Node23&#45;&gt;Node26</title>
<path fill="none" stroke="#191970" d="M211.4873,-110.3747C211.4873,-99.2832 211.4873,-86.7952 211.4873,-78.5743"/>
<polygon fill="#191970" stroke="#191970" points="207.9874,-110.3959 211.4873,-120.396 214.9874,-110.396 207.9874,-110.3959"/>
</g>
<!-- Node25 -->
<g id="node4" class="node">
<title>Node25</title>
<g id="a_node4"><a xlink:href="app__events_2app__event_8c.html" target="_top" xlink:title="app_events/app_event.c">
<polygon fill="#ffffff" stroke="#000000" points="0,-.5 0,-18.5 124.9746,-18.5 124.9746,-.5 0,-.5"/>
<text text-anchor="middle" x="62.4873" y="-6.5" font-family="Helvetica,sans-Serif" font-size="10.00" fill="#000000">app_events/app_event.c</text>
</a>
</g>
</g>
<!-- Node24&#45;&gt;Node25 -->
<g id="edge3" class="edge">
<title>Node24&#45;&gt;Node25</title>
<path fill="none" stroke="#191970" d="M62.4873,-45.2151C62.4873,-35.8253 62.4873,-25.6598 62.4873,-18.5842"/>
<polygon fill="#191970" stroke="#191970" points="58.9874,-45.2808 62.4873,-55.2808 65.9874,-45.2809 58.9874,-45.2808"/>
</g>
<!-- Node28 -->
<g id="node7" class="node">
<title>Node28</title>
<g id="a_node7"><a xlink:href="l2__learning_8c.html" target="_top" xlink:title="applications/l2_learning.c">
<polygon fill="#ffffff" stroke="#000000" points="298.3398,-60.5 298.3398,-78.5 426.6348,-78.5 426.6348,-60.5 298.3398,-60.5"/>
<text text-anchor="middle" x="362.4873" y="-66.5" font-family="Helvetica,sans-Serif" font-size="10.00" fill="#000000">applications/l2_learning.c</text>
</a>
</g>
</g>
<!-- Node27&#45;&gt;Node28 -->
<g id="edge6" class="edge">
<title>Node27&#45;&gt;Node28</title>
<path fill="none" stroke="#191970" d="M353.0547,-110.3747C355.6143,-99.2832 358.4961,-86.7952 360.3932,-78.5743"/>
<polygon fill="#191970" stroke="#191970" points="349.5804,-109.865 350.7421,-120.396 356.4011,-111.4391 349.5804,-109.865"/>
</g>
<!-- Node31 -->
<g id="node10" class="node">
<title>Node31</title>
<g id="a_node10"><a xlink:href="cluster_8c.html" target="_top" xlink:title="components/cluster.c">
<polygon fill="#ffffff" stroke="#000000" points="482.5171,-60.5 482.5171,-78.5 592.4575,-78.5 592.4575,-60.5 482.5171,-60.5"/>
<text text-anchor="middle" x="537.4873" y="-66.5" font-family="Helvetica,sans-Serif" font-size="10.00" fill="#000000">components/cluster.c</text>
</a>
</g>
</g>
<!-- Node30&#45;&gt;Node31 -->
<g id="edge9" class="edge">
<title>Node30&#45;&gt;Node31</title>
<path fill="none" stroke="#191970" d="M572.48,-112.4155C563.0451,-100.8445 552.0042,-87.3037 544.8864,-78.5743"/>
<polygon fill="#191970" stroke="#191970" points="569.9551,-114.8576 578.9871,-120.396 575.3802,-110.434 569.9551,-114.8576"/>
</g>
<!-- Node33 -->
<g id="node12" class="node">
<title>Node33</title>
<g id="a_node12"><a xlink:href="flow__mgmt_8c.html" target="_top" xlink:title="components/flow_mgmt.c">
<polygon fill="#ffffff" stroke="#000000" points="610.7979,-60.5 610.7979,-78.5 740.1768,-78.5 740.1768,-60.5 610.7979,-60.5"/>
<text text-anchor="middle" x="675.4873" y="-66.5" font-family="Helvetica,sans-Serif" font-size="10.00" fill="#000000">components/flow_mgmt.c</text>
</a>
</g>
</g>
<!-- Node32&#45;&gt;Node33 -->
<g id="edge11" class="edge">
<title>Node32&#45;&gt;Node33</title>
<path fill="none" stroke="#191970" d="M700.181,-111.7393C693.5054,-100.3204 685.7965,-87.1342 680.7923,-78.5743"/>
<polygon fill="#191970" stroke="#191970" points="697.1733,-113.5294 705.2419,-120.396 703.2164,-109.9965 697.1733,-113.5294"/>
</g>
<!-- Node35 -->
<g id="node14" class="node">
<title>Node35</title>
<g id="a_node14"><a xlink:href="host__mgmt_8c.html" target="_top" xlink:title="components/host_mgmt.c">
<polygon fill="#ffffff" stroke="#000000" points="758.2388,-60.5 758.2388,-78.5 888.7358,-78.5 888.7358,-60.5 758.2388,-60.5"/>
<text text-anchor="middle" x="823.4873" y="-66.5" font-family="Helvetica,sans-Serif" font-size="10.00" fill="#000000">components/host_mgmt.c</text>
</a>
</g>
</g>
<!-- Node34&#45;&gt;Node35 -->
<g id="edge13" class="edge">
<title>Node34&#45;&gt;Node35</title>
<path fill="none" stroke="#191970" d="M831.6622,-110.3747C829.4439,-99.2832 826.9463,-86.7952 825.3022,-78.5743"/>
<polygon fill="#191970" stroke="#191970" points="828.2732,-111.2766 833.6665,-120.396 835.1373,-109.9037 828.2732,-111.2766"/>
</g>
<!-- Node37 -->
<g id="node16" class="node">
<title>Node37</title>
<g id="a_node16"><a xlink:href="ofp10_8c.html" target="_top" xlink:title="components/ofp10.c">
<polygon fill="#ffffff" stroke="#000000" points="906.458,-60.5 906.458,-78.5 1012.5166,-78.5 1012.5166,-60.5 906.458,-60.5"/>
<text text-anchor="middle" x="959.4873" y="-66.5" font-family="Helvetica,sans-Serif" font-size="10.00" fill="#000000">components/ofp10.c</text>
</a>
</g>
</g>
<!-- Node36&#45;&gt;Node37 -->
<g id="edge15" class="edge">
<title>Node36&#45;&gt;Node37</title>
<path fill="none" stroke="#191970" d="M959.4873,-110.3747C959.4873,-99.2832 959.4873,-86.7952 959.4873,-78.5743"/>
<polygon fill="#191970" stroke="#191970" points="955.9874,-110.3959 959.4873,-120.396 962.9874,-110.396 955.9874,-110.3959"/>
</g>
<!-- Node39 -->
<g id="node18" class="node">
<title>Node39</title>
<g id="a_node18"><a xlink:href="event__msg__pack_8h.html" target="_top" xlink:title="events/include/event\l_msg_pack.h">
<polygon fill="#ffffff" stroke="#000000" points="1030.9014,-55.5 1030.9014,-83.5 1138.0732,-83.5 1138.0732,-55.5 1030.9014,-55.5"/>
<text text-anchor="start" x="1038.9014" y="-71.5" font-family="Helvetica,sans-Serif" font-size="10.00" fill="#000000">events/include/event</text>
<text text-anchor="middle" x="1084.4873" y="-61.5" font-family="Helvetica,sans-Serif" font-size="10.00" fill="#000000">_msg_pack.h</text>
</a>
</g>
</g>
<!-- Node38&#45;&gt;Node39 -->
<g id="edge17" class="edge">
<title>Node38&#45;&gt;Node39</title>
<path fill="none" stroke="#191970" d="M1083.8626,-110.1081C1084.0003,-101.1539 1084.1516,-91.3227 1084.2707,-83.5765"/>
<polygon fill="#191970" stroke="#191970" points="1080.3586,-110.3433 1083.7043,-120.396 1087.3578,-110.451 1080.3586,-110.3433"/>
</g>
<!-- Node41 -->
<g id="node20" class="node">
<title>Node41</title>
<g id="a_node20"><a xlink:href="ext__comps_2shim_2event_8c.html" target="_top" xlink:title="ext_comps/shim/event.c">
<polygon fill="#ffffff" stroke="#000000" points="1155.8545,-60.5 1155.8545,-78.5 1279.1201,-78.5 1279.1201,-60.5 1155.8545,-60.5"/>
<text text-anchor="middle" x="1217.4873" y="-66.5" font-family="Helvetica,sans-Serif" font-size="10.00" fill="#000000">ext_comps/shim/event.c</text>
</a>
</g>
</g>
<!-- Node38&#45;&gt;Node41 -->
<g id="edge19" class="edge">
<title>Node38&#45;&gt;Node41</title>
<path fill="none" stroke="#191970" d="M1121.8615,-115.8856C1147.0751,-103.6552 1178.9497,-88.1936 1198.7803,-78.5743"/>
<polygon fill="#191970" stroke="#191970" points="1120.0331,-112.8825 1112.5633,-120.396 1123.0882,-119.1806 1120.0331,-112.8825"/>
</g>
<!-- Node40 -->
<g id="node19" class="node">
<title>Node40</title>
<g id="a_node19"><a xlink:href="events_2event_8c.html" target="_top" xlink:title="events/event.c">
<polygon fill="#ffffff" stroke="#000000" points="1044.2461,-.5 1044.2461,-18.5 1124.7285,-18.5 1124.7285,-.5 1044.2461,-.5"/>
<text text-anchor="middle" x="1084.4873" y="-6.5" font-family="Helvetica,sans-Serif" font-size="10.00" fill="#000000">events/event.c</text>
</a>
</g>
</g>
<!-- Node39&#45;&gt;Node40 -->
<g id="edge18" class="edge">
<title>Node39&#45;&gt;Node40</title>
<path fill="none" stroke="#191970" d="M1084.4873,-45.2151C1084.4873,-35.8253 1084.4873,-25.6598 1084.4873,-18.5842"/>
<polygon fill="#191970" stroke="#191970" points="1080.9874,-45.2808 1084.4873,-55.2808 1087.9874,-45.2809 1080.9874,-45.2808"/>
</g>
<!-- Node44 -->
<g id="node23" class="node">
<title>Node44</title>
<g id="a_node23"><a xlink:href="applications_2l2__shortest_8c.html" target="_top" xlink:title="applications/l2_shortest.c">
<polygon fill="#ffffff" stroke="#000000" points="1297.3447,-60.5 1297.3447,-78.5 1425.6299,-78.5 1425.6299,-60.5 1297.3447,-60.5"/>
<text text-anchor="middle" x="1361.4873" y="-66.5" font-family="Helvetica,sans-Serif" font-size="10.00" fill="#000000">applications/l2_shortest.c</text>
</a>
</g>
</g>
<!-- Node43&#45;&gt;Node44 -->
<g id="edge22" class="edge">
<title>Node43&#45;&gt;Node44</title>
<path fill="none" stroke="#191970" d="M1355.1989,-110.3747C1356.9053,-99.2832 1358.8265,-86.7952 1360.0913,-78.5743"/>
<polygon fill="#191970" stroke="#191970" points="1351.7185,-109.98 1353.6572,-120.396 1358.6371,-111.0445 1351.7185,-109.98"/>
</g>
<!-- Node45 -->
<g id="node24" class="node">
<title>Node45</title>
<g id="a_node24"><a xlink:href="ext__apps_2l2__shortest_2src_2l2__shortest_8c.html" target="_top" xlink:title="ext_apps/l2_shortest\l/src/l2_shortest.c">
<polygon fill="#ffffff" stroke="#000000" points="1443.3472,-55.5 1443.3472,-83.5 1551.6274,-83.5 1551.6274,-55.5 1443.3472,-55.5"/>
<text text-anchor="start" x="1451.3472" y="-71.5" font-family="Helvetica,sans-Serif" font-size="10.00" fill="#000000">ext_apps/l2_shortest</text>
<text text-anchor="middle" x="1497.4873" y="-61.5" font-family="Helvetica,sans-Serif" font-size="10.00" fill="#000000">/src/l2_shortest.c</text>
</a>
</g>
</g>
<!-- Node43&#45;&gt;Node45 -->
<g id="edge23" class="edge">
<title>Node43&#45;&gt;Node45</title>
<path fill="none" stroke="#191970" d="M1392.4376,-116.2687C1415.6916,-105.9159 1444.3594,-93.1528 1465.8693,-83.5765"/>
<polygon fill="#191970" stroke="#191970" points="1390.8791,-113.1313 1383.1671,-120.396 1393.7262,-119.5262 1390.8791,-113.1313"/>
</g>
</g>
</svg>
