<?xml version="1.0" encoding="UTF-8" standalone="no"?>
<!DOCTYPE svg PUBLIC "-//W3C//DTD SVG 1.1//EN"
 "http://www.w3.org/Graphics/SVG/1.1/DTD/svg11.dtd">
<!-- Generated by graphviz version 2.40.1 (20161225.0304)
 -->
<!-- Title: src/main.c Pages: 1 -->
<svg width="1645pt" height="247pt"
 viewBox="0.00 0.00 1645.35 247.00" xmlns="http://www.w3.org/2000/svg" xmlns:xlink="http://www.w3.org/1999/xlink">
<g id="graph0" class="graph" transform="scale(1 1) rotate(0) translate(4 243)">
<title>src/main.c</title>
<polygon fill="#ffffff" stroke="transparent" points="-4,4 -4,-243 1641.3472,-243 1641.3472,4 -4,4"/>
<!-- Node0 -->
<g id="node1" class="node">
<title>Node0</title>
<polygon fill="#bfbfbf" stroke="#000000" points="1240.6157,-220.5 1240.6157,-238.5 1302.1772,-238.5 1302.1772,-220.5 1240.6157,-220.5"/>
<text text-anchor="middle" x="1271.3965" y="-226.5" font-family="Helvetica,sans-Serif" font-size="10.00" fill="#000000">src/main.c</text>
</g>
<!-- Node1 -->
<g id="node2" class="node">
<title>Node1</title>
<g id="a_node2"><a xlink:href="src_2include_2common_8h.html" target="_top" xlink:title="common.h">
<polygon fill="#ffffff" stroke="#000000" points="982.0542,-55.5 982.0542,-73.5 1044.7388,-73.5 1044.7388,-55.5 982.0542,-55.5"/>
<text text-anchor="middle" x="1013.3965" y="-61.5" font-family="Helvetica,sans-Serif" font-size="10.00" fill="#000000">common.h</text>
</a>
</g>
</g>
<!-- Node0&#45;&gt;Node1 -->
<g id="edge1" class="edge">
<title>Node0&#45;&gt;Node1</title>
<path fill="none" stroke="#191970" d="M1240.5319,-227.7369C1182.9799,-223.8051 1062.4713,-212.3309 1033.3965,-184 1006.5045,-157.7961 1007.3906,-110.0359 1010.3918,-83.5202"/>
<polygon fill="#191970" stroke="#191970" points="1013.8641,-83.9599 1011.7326,-73.5817 1006.9269,-83.0239 1013.8641,-83.9599"/>
</g>
<!-- Node24 -->
<g id="node25" class="node">
<title>Node24</title>
<g id="a_node25"><a xlink:href="src_2include_2context_8h.html" target="_top" xlink:title="context.h">
<polygon fill="#ffffff" stroke="#000000" points="1041.106,-110.5 1041.106,-128.5 1097.687,-128.5 1097.687,-110.5 1041.106,-110.5"/>
<text text-anchor="middle" x="1069.3965" y="-116.5" font-family="Helvetica,sans-Serif" font-size="10.00" fill="#000000">context.h</text>
</a>
</g>
</g>
<!-- Node0&#45;&gt;Node24 -->
<g id="edge26" class="edge">
<title>Node0&#45;&gt;Node24</title>
<path fill="none" stroke="#191970" d="M1240.57,-225.2922C1209.0015,-219.8341 1159.5662,-208.0096 1123.3965,-184 1105.2308,-171.9415 1089.8872,-152.0106 1080.2524,-137.4908"/>
<polygon fill="#191970" stroke="#191970" points="1083.0903,-135.4308 1074.7731,-128.8677 1077.1822,-139.185 1083.0903,-135.4308"/>
</g>
<!-- Node25 -->
<g id="node26" class="node">
<title>Node25</title>
<g id="a_node26"><a xlink:href="src_2include_2cli_8h.html" target="_top" xlink:title="cli.h">
<polygon fill="#ffffff" stroke="#000000" points="1042.5049,-165.5 1042.5049,-183.5 1076.2881,-183.5 1076.2881,-165.5 1042.5049,-165.5"/>
<text text-anchor="middle" x="1059.3965" y="-171.5" font-family="Helvetica,sans-Serif" font-size="10.00" fill="#000000">cli.h</text>
</a>
</g>
</g>
<!-- Node0&#45;&gt;Node25 -->
<g id="edge28" class="edge">
<title>Node0&#45;&gt;Node25</title>
<path fill="none" stroke="#191970" d="M1240.5254,-222.2478C1204.3961,-213.6429 1142.832,-198.6148 1090.3965,-184 1088.9731,-183.6033 1087.5157,-183.188 1086.0462,-182.7622"/>
<polygon fill="#191970" stroke="#191970" points="1086.989,-179.3911 1076.4056,-179.8835 1084.9861,-186.0985 1086.989,-179.3911"/>
</g>
<!-- Node26 -->
<g id="node27" class="node">
<title>Node26</title>
<g id="a_node27"><a xlink:href="events_2include_2event_8h.html" target="_top" xlink:title="event.h">
<polygon fill="#ffffff" stroke="#000000" points="1131.9951,-165.5 1131.9951,-183.5 1180.7979,-183.5 1180.7979,-165.5 1131.9951,-165.5"/>
<text text-anchor="middle" x="1156.3965" y="-171.5" font-family="Helvetica,sans-Serif" font-size="10.00" fill="#000000">event.h</text>
</a>
</g>
</g>
<!-- Node0&#45;&gt;Node26 -->
<g id="edge31" class="edge">
<title>Node0&#45;&gt;Node26</title>
<path fill="none" stroke="#191970" d="M1252.4066,-220.4179C1233.9288,-211.5807 1205.6317,-198.0473 1184.5382,-187.9591"/>
<polygon fill="#191970" stroke="#191970" points="1185.9461,-184.7528 1175.4146,-183.5956 1182.9258,-191.0677 1185.9461,-184.7528"/>
</g>
<!-- Node29 -->
<g id="node30" class="node">
<title>Node29</title>
<g id="a_node30"><a xlink:href="app__events_2include_2app__event_8h.html" target="_top" xlink:title="app_event.h">
<polygon fill="#ffffff" stroke="#000000" points="1198.8721,-165.5 1198.8721,-183.5 1269.9209,-183.5 1269.9209,-165.5 1198.8721,-165.5"/>
<text text-anchor="middle" x="1234.3965" y="-171.5" font-family="Helvetica,sans-Serif" font-size="10.00" fill="#000000">app_event.h</text>
</a>
</g>
</g>
<!-- Node0&#45;&gt;Node29 -->
<g id="edge37" class="edge">
<title>Node0&#45;&gt;Node29</title>
<path fill="none" stroke="#191970" d="M1265.2867,-220.4179C1260.1226,-212.7415 1252.5747,-201.5217 1246.2328,-192.0945"/>
<polygon fill="#191970" stroke="#191970" points="1249.1249,-190.1231 1240.639,-183.7795 1243.3168,-194.0303 1249.1249,-190.1231"/>
</g>
<!-- Node32 -->
<g id="node33" class="node">
<title>Node32</title>
<polygon fill="#ffffff" stroke="#bfbfbf" points="1288.0566,-165.5 1288.0566,-183.5 1330.7363,-183.5 1330.7363,-165.5 1288.0566,-165.5"/>
<text text-anchor="middle" x="1309.3965" y="-171.5" font-family="Helvetica,sans-Serif" font-size="10.00" fill="#000000">fcntl.h</text>
</g>
<!-- Node0&#45;&gt;Node32 -->
<g id="edge43" class="edge">
<title>Node0&#45;&gt;Node32</title>
<path fill="none" stroke="#191970" d="M1277.6714,-220.4179C1282.9751,-212.7415 1290.7269,-201.5217 1297.2403,-192.0945"/>
<polygon fill="#191970" stroke="#191970" points="1300.1804,-193.9963 1302.9852,-183.7795 1294.4213,-190.0173 1300.1804,-193.9963"/>
</g>
<!-- Node33 -->
<g id="node34" class="node">
<title>Node33</title>
<polygon fill="#ffffff" stroke="#bfbfbf" points="1349.1626,-165.5 1349.1626,-183.5 1399.6304,-183.5 1399.6304,-165.5 1349.1626,-165.5"/>
<text text-anchor="middle" x="1374.3965" y="-171.5" font-family="Helvetica,sans-Serif" font-size="10.00" fill="#000000">signal.h</text>
</g>
<!-- Node0&#45;&gt;Node33 -->
<g id="edge44" class="edge">
<title>Node0&#45;&gt;Node33</title>
<path fill="none" stroke="#191970" d="M1288.4048,-220.4179C1304.7308,-211.7001 1329.6155,-198.4122 1348.4219,-188.3699"/>
<polygon fill="#191970" stroke="#191970" points="1350.1903,-191.3934 1357.3629,-183.5956 1346.8931,-185.2186 1350.1903,-191.3934"/>
</g>
<!-- Node34 -->
<g id="node35" class="node">
<title>Node34</title>
<polygon fill="#ffffff" stroke="#bfbfbf" points="1417.2783,-165.5 1417.2783,-183.5 1475.5146,-183.5 1475.5146,-165.5 1417.2783,-165.5"/>
<text text-anchor="middle" x="1446.3965" y="-171.5" font-family="Helvetica,sans-Serif" font-size="10.00" fill="#000000">sys/stat.h</text>
</g>
<!-- Node0&#45;&gt;Node34 -->
<g id="edge45" class="edge">
<title>Node0&#45;&gt;Node34</title>
<path fill="none" stroke="#191970" d="M1300.2942,-220.4179C1329.767,-211.155 1375.6568,-196.7325 1408.1319,-186.526"/>
<polygon fill="#191970" stroke="#191970" points="1409.2562,-189.8415 1417.7467,-183.5042 1407.1574,-183.1636 1409.2562,-189.8415"/>
</g>
<!-- Node35 -->
<g id="node36" class="node">
<title>Node35</title>
<polygon fill="#ffffff" stroke="#bfbfbf" points="1493.3867,-165.5 1493.3867,-183.5 1559.4063,-183.5 1559.4063,-165.5 1493.3867,-165.5"/>
<text text-anchor="middle" x="1526.3965" y="-171.5" font-family="Helvetica,sans-Serif" font-size="10.00" fill="#000000">sys/types.h</text>
</g>
<!-- Node0&#45;&gt;Node35 -->
<g id="edge46" class="edge">
<title>Node0&#45;&gt;Node35</title>
<path fill="none" stroke="#191970" d="M1302.4638,-222.9854C1342.0989,-214.6477 1413.0257,-199.6383 1483.0609,-184.2763"/>
<polygon fill="#191970" stroke="#191970" points="1483.9181,-187.6715 1492.9339,-182.1069 1482.4158,-180.8346 1483.9181,-187.6715"/>
</g>
<!-- Node36 -->
<g id="node37" class="node">
<title>Node36</title>
<polygon fill="#ffffff" stroke="#bfbfbf" points="1577.4458,-165.5 1577.4458,-183.5 1637.3472,-183.5 1637.3472,-165.5 1577.4458,-165.5"/>
<text text-anchor="middle" x="1607.3965" y="-171.5" font-family="Helvetica,sans-Serif" font-size="10.00" fill="#000000">sys/ioctl.h</text>
</g>
<!-- Node0&#45;&gt;Node36 -->
<g id="edge47" class="edge">
<title>Node0&#45;&gt;Node36</title>
<path fill="none" stroke="#191970" d="M1302.3348,-225.6617C1354.8107,-218.9571 1464.7849,-204.068 1567.3227,-184.0756"/>
<polygon fill="#191970" stroke="#191970" points="1568.0858,-187.4926 1577.2203,-182.125 1566.7322,-180.6247 1568.0858,-187.4926"/>
</g>
<!-- Node2 -->
<g id="node3" class="node">
<title>Node2</title>
<polygon fill="#ffffff" stroke="#bfbfbf" points="1354.665,-.5 1354.665,-18.5 1400.1279,-18.5 1400.1279,-.5 1354.665,-.5"/>
<text text-anchor="middle" x="1377.3965" y="-6.5" font-family="Helvetica,sans-Serif" font-size="10.00" fill="#000000">stdio.h</text>
</g>
<!-- Node1&#45;&gt;Node2 -->
<g id="edge2" class="edge">
<title>Node1&#45;&gt;Node2</title>
<path fill="none" stroke="#191970" d="M1044.9126,-61.9046C1102.6929,-56.7804 1229.5302,-43.8358 1344.466,-19.1609"/>
<polygon fill="#191970" stroke="#191970" points="1345.4603,-22.5263 1354.4834,-16.9734 1343.9669,-15.6875 1345.4603,-22.5263"/>
</g>
<!-- Node3 -->
<g id="node4" class="node">
<title>Node3</title>
<polygon fill="#ffffff" stroke="#bfbfbf" points="1417.8843,-.5 1417.8843,-18.5 1468.9087,-18.5 1468.9087,-.5 1417.8843,-.5"/>
<text text-anchor="middle" x="1443.3965" y="-6.5" font-family="Helvetica,sans-Serif" font-size="10.00" fill="#000000">unistd.h</text>
</g>
<!-- Node1&#45;&gt;Node3 -->
<g id="edge3" class="edge">
<title>Node1&#45;&gt;Node3</title>
<path fill="none" stroke="#191970" d="M1044.9703,-62.5737C1110.8219,-58.1935 1267.6888,-45.8686 1407.8214,-19.0519"/>
<polygon fill="#191970" stroke="#191970" points="1408.7325,-22.4404 1417.8805,-17.096 1407.3963,-15.5691 1408.7325,-22.4404"/>
</g>
<!-- Node4 -->
<g id="node5" class="node">
<title>Node4</title>
<polygon fill="#ffffff" stroke="#bfbfbf" points="1486.5542,-.5 1486.5542,-18.5 1534.2388,-18.5 1534.2388,-.5 1486.5542,-.5"/>
<text text-anchor="middle" x="1510.3965" y="-6.5" font-family="Helvetica,sans-Serif" font-size="10.00" fill="#000000">stdlib.h</text>
</g>
<!-- Node1&#45;&gt;Node4 -->
<g id="edge4" class="edge">
<title>Node1&#45;&gt;Node4</title>
<path fill="none" stroke="#191970" d="M1044.9919,-63.4877C1119.0753,-60.6731 1309.7472,-50.8698 1476.4723,-19.0834"/>
<polygon fill="#191970" stroke="#191970" points="1477.2553,-22.4968 1486.4063,-17.1575 1475.923,-15.6248 1477.2553,-22.4968"/>
</g>
<!-- Node5 -->
<g id="node6" class="node">
<title>Node5</title>
<polygon fill="#ffffff" stroke="#bfbfbf" points="0,-.5 0,-18.5 48.793,-18.5 48.793,-.5 0,-.5"/>
<text text-anchor="middle" x="24.3965" y="-6.5" font-family="Helvetica,sans-Serif" font-size="10.00" fill="#000000">string.h</text>
</g>
<!-- Node1&#45;&gt;Node5 -->
<g id="edge5" class="edge">
<title>Node1&#45;&gt;Node5</title>
<path fill="none" stroke="#191970" d="M981.8937,-63.9854C840.2807,-61.5239 261.091,-49.8357 59.0281,-18.8713"/>
<polygon fill="#191970" stroke="#191970" points="59.5482,-15.4101 49.1209,-17.2865 58.4425,-22.3222 59.5482,-15.4101"/>
</g>
<!-- Node6 -->
<g id="node7" class="node">
<title>Node6</title>
<polygon fill="#ffffff" stroke="#bfbfbf" points="66.3301,-.5 66.3301,-18.5 118.4629,-18.5 118.4629,-.5 66.3301,-.5"/>
<text text-anchor="middle" x="92.3965" y="-6.5" font-family="Helvetica,sans-Serif" font-size="10.00" fill="#000000">stdarg.h</text>
</g>
<!-- Node1&#45;&gt;Node6 -->
<g id="edge6" class="edge">
<title>Node1&#45;&gt;Node6</title>
<path fill="none" stroke="#191970" d="M981.9416,-63.7862C847.1258,-60.5909 316.8251,-46.6 128.6719,-18.8166"/>
<polygon fill="#191970" stroke="#191970" points="129.0553,-15.3345 118.6386,-17.2691 127.9881,-22.2526 129.0553,-15.3345"/>
</g>
<!-- Node7 -->
<g id="node8" class="node">
<title>Node7</title>
<polygon fill="#ffffff" stroke="#bfbfbf" points="136.2759,-.5 136.2759,-18.5 184.5171,-18.5 184.5171,-.5 136.2759,-.5"/>
<text text-anchor="middle" x="160.3965" y="-6.5" font-family="Helvetica,sans-Serif" font-size="10.00" fill="#000000">stdint.h</text>
</g>
<!-- Node1&#45;&gt;Node7 -->
<g id="edge7" class="edge">
<title>Node1&#45;&gt;Node7</title>
<path fill="none" stroke="#191970" d="M981.6607,-63.693C852.9301,-60.2752 368.6934,-45.9862 194.7817,-18.8155"/>
<polygon fill="#191970" stroke="#191970" points="195.1972,-15.337 184.7633,-17.1764 194.0669,-22.2452 195.1972,-15.337"/>
</g>
<!-- Node8 -->
<g id="node9" class="node">
<title>Node8</title>
<polygon fill="#ffffff" stroke="#bfbfbf" points="202.2686,-.5 202.2686,-18.5 260.5244,-18.5 260.5244,-.5 202.2686,-.5"/>
<text text-anchor="middle" x="231.3965" y="-6.5" font-family="Helvetica,sans-Serif" font-size="10.00" fill="#000000">pthread.h</text>
</g>
<!-- Node1&#45;&gt;Node8 -->
<g id="edge8" class="edge">
<title>Node1&#45;&gt;Node8</title>
<path fill="none" stroke="#191970" d="M981.7421,-63.341C861.0765,-58.8052 429.1966,-41.4662 270.7791,-18.8981"/>
<polygon fill="#191970" stroke="#191970" points="271.1526,-15.4152 260.7461,-17.4041 270.1215,-22.3389 271.1526,-15.4152"/>
</g>
<!-- Node9 -->
<g id="node10" class="node">
<title>Node9</title>
<polygon fill="#ffffff" stroke="#bfbfbf" points="278.2759,-.5 278.2759,-18.5 326.5171,-18.5 326.5171,-.5 278.2759,-.5"/>
<text text-anchor="middle" x="302.3965" y="-6.5" font-family="Helvetica,sans-Serif" font-size="10.00" fill="#000000">ctype.h</text>
</g>
<!-- Node1&#45;&gt;Node9 -->
<g id="edge9" class="edge">
<title>Node1&#45;&gt;Node9</title>
<path fill="none" stroke="#191970" d="M981.7875,-63.2747C868.3027,-58.7394 480.9491,-42.0517 336.7257,-18.8274"/>
<polygon fill="#191970" stroke="#191970" points="337.2124,-15.3601 326.7688,-17.144 336.0454,-22.2622 337.2124,-15.3601"/>
</g>
<!-- Node10 -->
<g id="node11" class="node">
<title>Node10</title>
<polygon fill="#ffffff" stroke="#bfbfbf" points="344.5542,-.5 344.5542,-18.5 392.2388,-18.5 392.2388,-.5 344.5542,-.5"/>
<text text-anchor="middle" x="368.3965" y="-6.5" font-family="Helvetica,sans-Serif" font-size="10.00" fill="#000000">errno.h</text>
</g>
<!-- Node1&#45;&gt;Node10 -->
<g id="edge10" class="edge">
<title>Node1&#45;&gt;Node10</title>
<path fill="none" stroke="#191970" d="M981.8572,-63.0548C875.9249,-58.0646 532.6578,-40.7561 402.4738,-18.9969"/>
<polygon fill="#191970" stroke="#191970" points="402.8302,-15.5059 392.3749,-17.2195 401.6168,-22.4 402.8302,-15.5059"/>
</g>
<!-- Node11 -->
<g id="node12" class="node">
<title>Node11</title>
<polygon fill="#ffffff" stroke="#bfbfbf" points="409.7686,-.5 409.7686,-18.5 473.0244,-18.5 473.0244,-.5 409.7686,-.5"/>
<text text-anchor="middle" x="441.3965" y="-6.5" font-family="Helvetica,sans-Serif" font-size="10.00" fill="#000000">arpa/inet.h</text>
</g>
<!-- Node1&#45;&gt;Node11 -->
<g id="edge11" class="edge">
<title>Node1&#45;&gt;Node11</title>
<path fill="none" stroke="#191970" d="M981.7864,-63.3605C900.6288,-60.102 678.2152,-49.0732 483.2377,-18.9046"/>
<polygon fill="#191970" stroke="#191970" points="483.5148,-15.4053 473.0932,-17.3135 482.4301,-22.3208 483.5148,-15.4053"/>
</g>
<!-- Node12 -->
<g id="node13" class="node">
<title>Node12</title>
<polygon fill="#ffffff" stroke="#bfbfbf" points="490.9336,-.5 490.9336,-18.5 555.8594,-18.5 555.8594,-.5 490.9336,-.5"/>
<text text-anchor="middle" x="523.3965" y="-6.5" font-family="Helvetica,sans-Serif" font-size="10.00" fill="#000000">netinet/in.h</text>
</g>
<!-- Node1&#45;&gt;Node12 -->
<g id="edge12" class="edge">
<title>Node1&#45;&gt;Node12</title>
<path fill="none" stroke="#191970" d="M981.9152,-62.6865C909.9246,-58.2464 727.6342,-45.3409 566.1126,-19.1111"/>
<polygon fill="#191970" stroke="#191970" points="566.4313,-15.6165 555.9957,-17.446 565.2945,-22.5236 566.4313,-15.6165"/>
</g>
<!-- Node13 -->
<g id="node14" class="node">
<title>Node13</title>
<polygon fill="#ffffff" stroke="#bfbfbf" points="573.5396,-.5 573.5396,-18.5 651.2534,-18.5 651.2534,-.5 573.5396,-.5"/>
<text text-anchor="middle" x="612.3965" y="-6.5" font-family="Helvetica,sans-Serif" font-size="10.00" fill="#000000">net/ethernet.h</text>
</g>
<!-- Node1&#45;&gt;Node13 -->
<g id="edge13" class="edge">
<title>Node1&#45;&gt;Node13</title>
<path fill="none" stroke="#191970" d="M981.6498,-61.1322C921.3271,-54.5772 785.7977,-39.105 661.4645,-19.0817"/>
<polygon fill="#191970" stroke="#191970" points="661.8214,-15.5939 651.3895,-17.445 660.6989,-22.5033 661.8214,-15.5939"/>
</g>
<!-- Node14 -->
<g id="node15" class="node">
<title>Node14</title>
<polygon fill="#ffffff" stroke="#bfbfbf" points="668.9336,-.5 668.9336,-18.5 733.8594,-18.5 733.8594,-.5 668.9336,-.5"/>
<text text-anchor="middle" x="701.3965" y="-6.5" font-family="Helvetica,sans-Serif" font-size="10.00" fill="#000000">netinet/ip.h</text>
</g>
<!-- Node1&#45;&gt;Node14 -->
<g id="edge14" class="edge">
<title>Node1&#45;&gt;Node14</title>
<path fill="none" stroke="#191970" d="M981.7017,-59.7428C932.9263,-52.2954 836.3141,-37.0439 743.9904,-19.0239"/>
<polygon fill="#191970" stroke="#191970" points="744.4054,-15.5385 733.918,-17.0433 743.0548,-22.407 744.4054,-15.5385"/>
</g>
<!-- Node15 -->
<g id="node16" class="node">
<title>Node15</title>
<polygon fill="#ffffff" stroke="#bfbfbf" points="752.1553,-.5 752.1553,-18.5 822.6377,-18.5 822.6377,-.5 752.1553,-.5"/>
<text text-anchor="middle" x="787.3965" y="-6.5" font-family="Helvetica,sans-Serif" font-size="10.00" fill="#000000">netinet/tcp.h</text>
</g>
<!-- Node1&#45;&gt;Node15 -->
<g id="edge15" class="edge">
<title>Node1&#45;&gt;Node15</title>
<path fill="none" stroke="#191970" d="M981.9722,-56.8525C943.1522,-47.4052 876.829,-31.2645 832.5594,-20.491"/>
<polygon fill="#191970" stroke="#191970" points="833.1832,-17.0407 822.6392,-18.0768 831.5279,-23.8422 833.1832,-17.0407"/>
</g>
<!-- Node16 -->
<g id="node17" class="node">
<title>Node16</title>
<polygon fill="#ffffff" stroke="#bfbfbf" points="840.5962,-.5 840.5962,-18.5 932.1968,-18.5 932.1968,-.5 840.5962,-.5"/>
<text text-anchor="middle" x="886.3965" y="-6.5" font-family="Helvetica,sans-Serif" font-size="10.00" fill="#000000">netinet/ip_icmp.h</text>
</g>
<!-- Node1&#45;&gt;Node16 -->
<g id="edge16" class="edge">
<title>Node1&#45;&gt;Node16</title>
<path fill="none" stroke="#191970" d="M992.425,-55.4179C971.8353,-46.5011 940.2053,-32.803 916.8471,-22.6873"/>
<polygon fill="#191970" stroke="#191970" points="917.9665,-19.358 907.3991,-18.5956 915.1846,-25.7815 917.9665,-19.358"/>
</g>
<!-- Node17 -->
<g id="node18" class="node">
<title>Node17</title>
<polygon fill="#ffffff" stroke="#bfbfbf" points="949.9927,-.5 949.9927,-18.5 1008.8003,-18.5 1008.8003,-.5 949.9927,-.5"/>
<text text-anchor="middle" x="979.3965" y="-6.5" font-family="Helvetica,sans-Serif" font-size="10.00" fill="#000000">jansson.h</text>
</g>
<!-- Node1&#45;&gt;Node17 -->
<g id="edge17" class="edge">
<title>Node1&#45;&gt;Node17</title>
<path fill="none" stroke="#191970" d="M1007.7821,-55.4179C1003.0856,-47.8207 996.2436,-36.7527 990.4537,-27.3866"/>
<polygon fill="#191970" stroke="#191970" points="993.3682,-25.445 985.1329,-18.7795 987.4141,-29.1258 993.3682,-25.445"/>
</g>
<!-- Node18 -->
<g id="node19" class="node">
<title>Node18</title>
<polygon fill="#ffffff" stroke="#bfbfbf" points="1026.5024,-.5 1026.5024,-18.5 1070.2905,-18.5 1070.2905,-.5 1026.5024,-.5"/>
<text text-anchor="middle" x="1048.3965" y="-6.5" font-family="Helvetica,sans-Serif" font-size="10.00" fill="#000000">libcli.h</text>
</g>
<!-- Node1&#45;&gt;Node18 -->
<g id="edge18" class="edge">
<title>Node1&#45;&gt;Node18</title>
<path fill="none" stroke="#191970" d="M1019.176,-55.4179C1024.0106,-47.8207 1031.0539,-36.7527 1037.0141,-27.3866"/>
<polygon fill="#191970" stroke="#191970" points="1040.0754,-29.0952 1042.4914,-18.7795 1034.1698,-25.337 1040.0754,-29.0952"/>
</g>
<!-- Node19 -->
<g id="node20" class="node">
<title>Node19</title>
<polygon fill="#ffffff" stroke="#bfbfbf" points="1088.7808,-.5 1088.7808,-18.5 1132.0122,-18.5 1132.0122,-.5 1088.7808,-.5"/>
<text text-anchor="middle" x="1110.3965" y="-6.5" font-family="Helvetica,sans-Serif" font-size="10.00" fill="#000000">zmq.h</text>
</g>
<!-- Node1&#45;&gt;Node19 -->
<g id="edge19" class="edge">
<title>Node1&#45;&gt;Node19</title>
<path fill="none" stroke="#191970" d="M1029.4141,-55.4179C1044.5784,-46.8195 1067.5835,-33.7754 1085.204,-23.7844"/>
<polygon fill="#191970" stroke="#191970" points="1087.3825,-26.5727 1094.3551,-18.5956 1083.9298,-20.4834 1087.3825,-26.5727"/>
</g>
<!-- Node20 -->
<g id="node21" class="node">
<title>Node20</title>
<g id="a_node21"><a xlink:href="mac2int_8h.html" target="_top" xlink:title="mac2int.h">
<polygon fill="#ffffff" stroke="#000000" points="1149.7192,-.5 1149.7192,-18.5 1209.0737,-18.5 1209.0737,-.5 1149.7192,-.5"/>
<text text-anchor="middle" x="1179.3965" y="-6.5" font-family="Helvetica,sans-Serif" font-size="10.00" fill="#000000">mac2int.h</text>
</a>
</g>
</g>
<!-- Node1&#45;&gt;Node20 -->
<g id="edge20" class="edge">
<title>Node1&#45;&gt;Node20</title>
<path fill="none" stroke="#191970" d="M1035.6417,-55.4179C1062.3798,-45.9061 1107.3766,-30.9538 1139.9921,-20.7127"/>
<polygon fill="#191970" stroke="#191970" points="1141.1744,-24.0104 1149.6827,-17.6969 1139.0943,-17.3266 1141.1744,-24.0104"/>
</g>
<!-- Node21 -->
<g id="node22" class="node">
<title>Node21</title>
<g id="a_node22"><a xlink:href="ip2int_8h.html" target="_top" xlink:title="ip2int.h">
<polygon fill="#ffffff" stroke="#000000" points="1227.2734,-.5 1227.2734,-18.5 1275.5195,-18.5 1275.5195,-.5 1227.2734,-.5"/>
<text text-anchor="middle" x="1251.3965" y="-6.5" font-family="Helvetica,sans-Serif" font-size="10.00" fill="#000000">ip2int.h</text>
</a>
</g>
</g>
<!-- Node1&#45;&gt;Node21 -->
<g id="edge22" class="edge">
<title>Node1&#45;&gt;Node21</title>
<path fill="none" stroke="#191970" d="M1045.0687,-56.733C1084.0341,-48.1895 1151.6338,-33.7096 1209.3965,-19 1211.962,-18.3467 1214.6305,-17.6341 1217.3359,-16.9026"/>
<polygon fill="#191970" stroke="#191970" points="1218.4373,-20.2306 1227.177,-14.2417 1216.6101,-13.4733 1218.4373,-20.2306"/>
</g>
<!-- Node22 -->
<g id="node23" class="node">
<title>Node22</title>
<g id="a_node23"><a xlink:href="src_2include_2type_8h.html" target="_top" xlink:title="type.h">
<polygon fill="#ffffff" stroke="#000000" points="1551.7759,-.5 1551.7759,-18.5 1595.0171,-18.5 1595.0171,-.5 1551.7759,-.5"/>
<text text-anchor="middle" x="1573.3965" y="-6.5" font-family="Helvetica,sans-Serif" font-size="10.00" fill="#000000">type.h</text>
</a>
</g>
</g>
<!-- Node1&#45;&gt;Node22 -->
<g id="edge24" class="edge">
<title>Node1&#45;&gt;Node22</title>
<path fill="none" stroke="#191970" d="M1045.0674,-62.7026C1141.0851,-57.1129 1428.7779,-39.2941 1541.5483,-18.9341"/>
<polygon fill="#191970" stroke="#191970" points="1542.4197,-22.3311 1551.5873,-17.0202 1541.1087,-15.455 1542.4197,-22.3311"/>
</g>
<!-- Node23 -->
<g id="node24" class="node">
<title>Node23</title>
<polygon fill="#ffffff" stroke="#bfbfbf" points="1293.7808,-.5 1293.7808,-18.5 1337.0122,-18.5 1337.0122,-.5 1293.7808,-.5"/>
<text text-anchor="middle" x="1315.3965" y="-6.5" font-family="Helvetica,sans-Serif" font-size="10.00" fill="#000000">time.h</text>
</g>
<!-- Node1&#45;&gt;Node23 -->
<g id="edge25" class="edge">
<title>Node1&#45;&gt;Node23</title>
<path fill="none" stroke="#191970" d="M1044.9602,-60.5679C1094.0468,-54.158 1191.7555,-40.2213 1283.7368,-18.8973"/>
<polygon fill="#191970" stroke="#191970" points="1284.5455,-22.3026 1293.4783,-16.6056 1282.9425,-15.4887 1284.5455,-22.3026"/>
</g>
<!-- Node20&#45;&gt;Node1 -->
<g id="edge21" class="edge">
<title>Node20&#45;&gt;Node1</title>
<path fill="none" stroke="#191970" d="M1157.2703,-18.5398C1131.0013,-27.8877 1086.9927,-42.523 1054.4779,-52.76"/>
<polygon fill="#191970" stroke="#191970" points="1053.291,-49.4639 1044.7884,-55.7851 1055.3771,-56.1458 1053.291,-49.4639"/>
</g>
<!-- Node21&#45;&gt;Node1 -->
<g id="edge23" class="edge">
<title>Node21&#45;&gt;Node1</title>
<path fill="none" stroke="#191970" d="M1229.1435,-18.5501C1228.5572,-18.7027 1227.9742,-18.8529 1227.3965,-19 1168.0337,-34.117 1098.2812,-48.9916 1054.8073,-57.4293"/>
<polygon fill="#191970" stroke="#191970" points="1054.0401,-54.0125 1044.8771,-59.3313 1055.357,-60.8875 1054.0401,-54.0125"/>
</g>
<!-- Node24&#45;&gt;Node1 -->
<g id="edge27" class="edge">
<title>Node24&#45;&gt;Node1</title>
<path fill="none" stroke="#191970" d="M1060.1492,-110.4179C1052.011,-102.425 1039.9612,-90.5903 1030.1331,-80.9377"/>
<polygon fill="#191970" stroke="#191970" points="1032.4317,-78.2895 1022.8447,-73.7795 1027.5267,-83.2836 1032.4317,-78.2895"/>
</g>
<!-- Node25&#45;&gt;Node1 -->
<g id="edge29" class="edge">
<title>Node25&#45;&gt;Node1</title>
<path fill="none" stroke="#191970" d="M1053.1049,-165.4506C1047.1208,-156.5179 1038.195,-142.3042 1032.3965,-129 1025.9105,-114.1183 1020.8645,-96.3718 1017.608,-83.2642"/>
<polygon fill="#191970" stroke="#191970" points="1021.0087,-82.4356 1015.301,-73.5096 1014.1966,-84.0467 1021.0087,-82.4356"/>
</g>
<!-- Node25&#45;&gt;Node24 -->
<g id="edge30" class="edge">
<title>Node25&#45;&gt;Node24</title>
<path fill="none" stroke="#191970" d="M1061.0478,-165.4179C1062.3571,-158.2164 1064.2335,-147.8962 1065.8759,-138.8632"/>
<polygon fill="#191970" stroke="#191970" points="1069.3639,-139.2443 1067.7093,-128.7795 1062.4768,-137.992 1069.3639,-139.2443"/>
</g>
<!-- Node26&#45;&gt;Node1 -->
<g id="edge32" class="edge">
<title>Node26&#45;&gt;Node1</title>
<path fill="none" stroke="#191970" d="M1166.3476,-165.476C1179.6241,-152.3407 1199.9698,-127.6048 1186.3965,-110 1170.442,-89.3068 1100.7142,-76.1586 1054.7989,-69.5773"/>
<polygon fill="#191970" stroke="#191970" points="1055.2088,-66.1007 1044.8233,-68.1963 1054.2489,-73.0346 1055.2088,-66.1007"/>
</g>
<!-- Node26&#45;&gt;Node24 -->
<g id="edge33" class="edge">
<title>Node26&#45;&gt;Node24</title>
<path fill="none" stroke="#191970" d="M1142.0302,-165.4179C1128.5551,-156.8992 1108.1772,-144.0166 1092.4321,-134.0627"/>
<polygon fill="#191970" stroke="#191970" points="1094.107,-130.9808 1083.7841,-128.5956 1090.3664,-136.8977 1094.107,-130.9808"/>
</g>
<!-- Node27 -->
<g id="node28" class="node">
<title>Node27</title>
<g id="a_node28"><a xlink:href="events_2include_2event__id_8h.html" target="_top" xlink:title="event_id.h">
<polygon fill="#ffffff" stroke="#000000" points="1115.3228,-110.5 1115.3228,-128.5 1177.4702,-128.5 1177.4702,-110.5 1115.3228,-110.5"/>
<text text-anchor="middle" x="1146.3965" y="-116.5" font-family="Helvetica,sans-Serif" font-size="10.00" fill="#000000">event_id.h</text>
</a>
</g>
</g>
<!-- Node26&#45;&gt;Node27 -->
<g id="edge34" class="edge">
<title>Node26&#45;&gt;Node27</title>
<path fill="none" stroke="#191970" d="M1154.7452,-165.4179C1153.4358,-158.2164 1151.5594,-147.8962 1149.9171,-138.8632"/>
<polygon fill="#191970" stroke="#191970" points="1153.3161,-137.992 1148.0837,-128.7795 1146.429,-139.2443 1153.3161,-137.992"/>
</g>
<!-- Node28 -->
<g id="node29" class="node">
<title>Node28</title>
<g id="a_node29"><a xlink:href="events_2include_2event__list_8h.html" target="_top" xlink:title="event_list.h">
<polygon fill="#ffffff" stroke="#000000" points="1268.1035,-55.5 1268.1035,-73.5 1334.6895,-73.5 1334.6895,-55.5 1268.1035,-55.5"/>
<text text-anchor="middle" x="1301.3965" y="-61.5" font-family="Helvetica,sans-Serif" font-size="10.00" fill="#000000">event_list.h</text>
</a>
</g>
</g>
<!-- Node26&#45;&gt;Node28 -->
<g id="edge35" class="edge">
<title>Node26&#45;&gt;Node28</title>
<path fill="none" stroke="#191970" d="M1168.2624,-165.4982C1193.0097,-146.7244 1250.3756,-103.2055 1281.1028,-79.8952"/>
<polygon fill="#191970" stroke="#191970" points="1283.515,-82.4585 1289.3666,-73.6261 1279.2843,-76.8816 1283.515,-82.4585"/>
</g>
<!-- Node28&#45;&gt;Node22 -->
<g id="edge36" class="edge">
<title>Node28&#45;&gt;Node22</title>
<path fill="none" stroke="#191970" d="M1334.9468,-59.507C1379.9963,-52.5176 1462.6643,-38.6934 1541.4452,-19.282"/>
<polygon fill="#191970" stroke="#191970" points="1542.6766,-22.582 1551.5289,-16.7608 1540.9786,-15.791 1542.6766,-22.582"/>
</g>
<!-- Node29&#45;&gt;Node1 -->
<g id="edge38" class="edge">
<title>Node29&#45;&gt;Node1</title>
<path fill="none" stroke="#191970" d="M1232.6413,-165.4703C1229.4187,-151.3955 1221.1877,-124.3551 1203.3965,-110 1180.8467,-91.8055 1103.7715,-77.6309 1054.992,-70.2143"/>
<polygon fill="#191970" stroke="#191970" points="1055.4482,-66.7437 1045.0423,-68.7352 1054.4189,-73.6676 1055.4482,-66.7437"/>
</g>
<!-- Node29&#45;&gt;Node24 -->
<g id="edge39" class="edge">
<title>Node29&#45;&gt;Node24</title>
<path fill="none" stroke="#191970" d="M1207.1501,-165.4179C1179.601,-156.2348 1136.8387,-141.9807 1106.2692,-131.7909"/>
<polygon fill="#191970" stroke="#191970" points="1107.0028,-128.3462 1096.4091,-128.5042 1104.7891,-134.9869 1107.0028,-128.3462"/>
</g>
<!-- Node30 -->
<g id="node31" class="node">
<title>Node30</title>
<g id="a_node31"><a xlink:href="app__events_2include_2app__event__id_8h.html" target="_top" xlink:title="app_event_id.h">
<polygon fill="#ffffff" stroke="#000000" points="1347.1997,-110.5 1347.1997,-128.5 1431.5933,-128.5 1431.5933,-110.5 1347.1997,-110.5"/>
<text text-anchor="middle" x="1389.3965" y="-116.5" font-family="Helvetica,sans-Serif" font-size="10.00" fill="#000000">app_event_id.h</text>
</a>
</g>
</g>
<!-- Node29&#45;&gt;Node30 -->
<g id="edge40" class="edge">
<title>Node29&#45;&gt;Node30</title>
<path fill="none" stroke="#191970" d="M1259.9916,-165.4179C1285.7585,-156.2748 1325.6926,-142.1046 1354.3833,-131.924"/>
<polygon fill="#191970" stroke="#191970" points="1355.7672,-135.1469 1364.021,-128.5042 1353.4262,-128.5499 1355.7672,-135.1469"/>
</g>
<!-- Node31 -->
<g id="node32" class="node">
<title>Node31</title>
<g id="a_node32"><a xlink:href="app__events_2include_2app__event__list_8h.html" target="_top" xlink:title="app_event_list.h">
<polygon fill="#ffffff" stroke="#000000" points="1469.9805,-55.5 1469.9805,-73.5 1558.8125,-73.5 1558.8125,-55.5 1469.9805,-55.5"/>
<text text-anchor="middle" x="1514.3965" y="-61.5" font-family="Helvetica,sans-Serif" font-size="10.00" fill="#000000">app_event_list.h</text>
</a>
</g>
</g>
<!-- Node29&#45;&gt;Node31 -->
<g id="edge41" class="edge">
<title>Node29&#45;&gt;Node31</title>
<path fill="none" stroke="#191970" d="M1246.2227,-165.4858C1264.864,-151.6774 1302.6471,-125.286 1338.3965,-110 1377.4855,-93.2861 1424.1676,-81.5638 1459.6294,-74.2077"/>
<polygon fill="#191970" stroke="#191970" points="1460.6759,-77.567 1469.7849,-72.1563 1459.2899,-70.7056 1460.6759,-77.567"/>
</g>
<!-- Node31&#45;&gt;Node22 -->
<g id="edge42" class="edge">
<title>Node31&#45;&gt;Node22</title>
<path fill="none" stroke="#191970" d="M1524.1391,-55.4179C1532.7982,-47.3458 1545.6605,-35.3556 1556.0701,-25.6517"/>
<polygon fill="#191970" stroke="#191970" points="1558.514,-28.1584 1563.4422,-18.7795 1553.7409,-23.0381 1558.514,-28.1584"/>
</g>
</g>
</svg>
