<?xml version="1.0" encoding="UTF-8" standalone="no"?>
<!DOCTYPE svg PUBLIC "-//W3C//DTD SVG 1.1//EN"
 "http://www.w3.org/Graphics/SVG/1.1/DTD/svg11.dtd">
<!-- Generated by graphviz version 2.40.1 (20161225.0304)
 -->
<!-- Title: src/main.c Pages: 1 -->
<svg width="2395pt" height="302pt"
 viewBox="0.00 0.00 2395.36 302.00" xmlns="http://www.w3.org/2000/svg" xmlns:xlink="http://www.w3.org/1999/xlink">
<g id="graph0" class="graph" transform="scale(1 1) rotate(0) translate(4 298)">
<title>src/main.c</title>
<polygon fill="#ffffff" stroke="transparent" points="-4,4 -4,-298 2391.3643,-298 2391.3643,4 -4,4"/>
<!-- Node0 -->
<g id="node1" class="node">
<title>Node0</title>
<polygon fill="#bfbfbf" stroke="#000000" points="1352.9629,-275.5 1352.9629,-293.5 1414.5244,-293.5 1414.5244,-275.5 1352.9629,-275.5"/>
<text text-anchor="middle" x="1383.7437" y="-281.5" font-family="Helvetica,sans-Serif" font-size="10.00" fill="#000000">src/main.c</text>
</g>
<!-- Node1 -->
<g id="node2" class="node">
<title>Node1</title>
<g id="a_node2"><a xlink:href="src_2include_2common_8h.html" target="_top" xlink:title="common.h">
<polygon fill="#ffffff" stroke="#000000" points="1312.4014,-110.5 1312.4014,-128.5 1375.0859,-128.5 1375.0859,-110.5 1312.4014,-110.5"/>
<text text-anchor="middle" x="1343.7437" y="-116.5" font-family="Helvetica,sans-Serif" font-size="10.00" fill="#000000">common.h</text>
</a>
</g>
</g>
<!-- Node0&#45;&gt;Node1 -->
<g id="edge1" class="edge">
<title>Node0&#45;&gt;Node1</title>
<path fill="none" stroke="#191970" d="M1352.8803,-277.444C1319.8386,-269.1912 1270.6729,-254.6522 1259.7437,-239 1233.4678,-201.3696 1286.3282,-157.2194 1319.5638,-134.576"/>
<polygon fill="#191970" stroke="#191970" points="1321.9198,-137.2145 1328.3354,-128.783 1318.0621,-131.3733 1321.9198,-137.2145"/>
</g>
<!-- Node36 -->
<g id="node37" class="node">
<title>Node36</title>
<g id="a_node37"><a xlink:href="src_2include_2context_8h.html" target="_top" xlink:title="context.h">
<polygon fill="#ffffff" stroke="#000000" points="1371.4531,-165.5 1371.4531,-183.5 1428.0342,-183.5 1428.0342,-165.5 1371.4531,-165.5"/>
<text text-anchor="middle" x="1399.7437" y="-171.5" font-family="Helvetica,sans-Serif" font-size="10.00" fill="#000000">context.h</text>
</a>
</g>
</g>
<!-- Node0&#45;&gt;Node36 -->
<g id="edge43" class="edge">
<title>Node0&#45;&gt;Node36</title>
<path fill="none" stroke="#191970" d="M1385.053,-275.4982C1387.6431,-257.6913 1393.4713,-217.6225 1396.958,-193.6515"/>
<polygon fill="#191970" stroke="#191970" points="1400.4403,-194.0258 1398.4162,-183.6261 1393.5132,-193.0182 1400.4403,-194.0258"/>
</g>
<!-- Node37 -->
<g id="node38" class="node">
<title>Node37</title>
<g id="a_node38"><a xlink:href="storage_8h.html" target="_top" xlink:title="storage.h">
<polygon fill="#ffffff" stroke="#000000" points="1268.8965,-220.5 1268.8965,-238.5 1326.5908,-238.5 1326.5908,-220.5 1268.8965,-220.5"/>
<text text-anchor="middle" x="1297.7437" y="-226.5" font-family="Helvetica,sans-Serif" font-size="10.00" fill="#000000">storage.h</text>
</a>
</g>
</g>
<!-- Node0&#45;&gt;Node37 -->
<g id="edge45" class="edge">
<title>Node0&#45;&gt;Node37</title>
<path fill="none" stroke="#191970" d="M1369.5425,-275.4179C1356.2223,-266.8992 1336.0786,-254.0166 1320.5145,-244.0627"/>
<polygon fill="#191970" stroke="#191970" points="1322.2761,-241.0348 1311.9659,-238.5956 1318.5047,-246.932 1322.2761,-241.0348"/>
</g>
<!-- Node38 -->
<g id="node39" class="node">
<title>Node38</title>
<g id="a_node39"><a xlink:href="cli_8h.html" target="_top" xlink:title="cli.h">
<polygon fill="#ffffff" stroke="#000000" points="1344.8521,-220.5 1344.8521,-238.5 1378.6353,-238.5 1378.6353,-220.5 1344.8521,-220.5"/>
<text text-anchor="middle" x="1361.7437" y="-226.5" font-family="Helvetica,sans-Serif" font-size="10.00" fill="#000000">cli.h</text>
</a>
</g>
</g>
<!-- Node0&#45;&gt;Node38 -->
<g id="edge49" class="edge">
<title>Node0&#45;&gt;Node38</title>
<path fill="none" stroke="#191970" d="M1380.1108,-275.4179C1377.1669,-268.0581 1372.9201,-257.441 1369.2515,-248.2695"/>
<polygon fill="#191970" stroke="#191970" points="1372.4191,-246.7643 1365.4554,-238.7795 1365.9197,-249.3641 1372.4191,-246.7643"/>
</g>
<!-- Node39 -->
<g id="node40" class="node">
<title>Node39</title>
<g id="a_node40"><a xlink:href="events_2include_2event_8h.html" target="_top" xlink:title="event.h">
<polygon fill="#ffffff" stroke="#000000" points="1609.3423,-220.5 1609.3423,-238.5 1658.145,-238.5 1658.145,-220.5 1609.3423,-220.5"/>
<text text-anchor="middle" x="1633.7437" y="-226.5" font-family="Helvetica,sans-Serif" font-size="10.00" fill="#000000">event.h</text>
</a>
</g>
</g>
<!-- Node0&#45;&gt;Node39 -->
<g id="edge52" class="edge">
<title>Node0&#45;&gt;Node39</title>
<path fill="none" stroke="#191970" d="M1414.6493,-277.7008C1461.6057,-267.3703 1550.6099,-247.7894 1599.4837,-237.0372"/>
<polygon fill="#191970" stroke="#191970" points="1600.2597,-240.4503 1609.2741,-234.8833 1598.7556,-233.6137 1600.2597,-240.4503"/>
</g>
<!-- Node42 -->
<g id="node43" class="node">
<title>Node42</title>
<g id="a_node43"><a xlink:href="app__events_2include_2app__event_8h.html" target="_top" xlink:title="app_event.h">
<polygon fill="#ffffff" stroke="#000000" points="1435.2192,-220.5 1435.2192,-238.5 1506.2681,-238.5 1506.2681,-220.5 1435.2192,-220.5"/>
<text text-anchor="middle" x="1470.7437" y="-226.5" font-family="Helvetica,sans-Serif" font-size="10.00" fill="#000000">app_event.h</text>
</a>
</g>
</g>
<!-- Node0&#45;&gt;Node42 -->
<g id="edge58" class="edge">
<title>Node0&#45;&gt;Node42</title>
<path fill="none" stroke="#191970" d="M1398.1099,-275.4179C1411.585,-266.8992 1431.9629,-254.0166 1447.7081,-244.0627"/>
<polygon fill="#191970" stroke="#191970" points="1449.7737,-246.8977 1456.356,-238.5956 1446.0332,-240.9808 1449.7737,-246.8977"/>
</g>
<!-- Node2 -->
<g id="node3" class="node">
<title>Node2</title>
<polygon fill="#ffffff" stroke="#bfbfbf" points="2069.0122,-.5 2069.0122,-18.5 2114.4751,-18.5 2114.4751,-.5 2069.0122,-.5"/>
<text text-anchor="middle" x="2091.7437" y="-6.5" font-family="Helvetica,sans-Serif" font-size="10.00" fill="#000000">stdio.h</text>
</g>
<!-- Node1&#45;&gt;Node2 -->
<g id="edge2" class="edge">
<title>Node1&#45;&gt;Node2</title>
<path fill="none" stroke="#191970" d="M1375.4299,-118.7871C1515.4156,-115.4867 2072.6013,-100.7053 2097.7437,-74 2109.0338,-62.008 2105.4425,-42.6273 2100.3016,-28.2366"/>
<polygon fill="#191970" stroke="#191970" points="2103.4813,-26.7643 2096.4749,-18.8169 2096.996,-29.3989 2103.4813,-26.7643"/>
</g>
<!-- Node3 -->
<g id="node4" class="node">
<title>Node3</title>
<polygon fill="#ffffff" stroke="#bfbfbf" points="2037.2314,-55.5 2037.2314,-73.5 2088.2559,-73.5 2088.2559,-55.5 2037.2314,-55.5"/>
<text text-anchor="middle" x="2062.7437" y="-61.5" font-family="Helvetica,sans-Serif" font-size="10.00" fill="#000000">unistd.h</text>
</g>
<!-- Node1&#45;&gt;Node3 -->
<g id="edge3" class="edge">
<title>Node1&#45;&gt;Node3</title>
<path fill="none" stroke="#191970" d="M1375.2709,-118.2702C1489.3884,-113.6874 1881.4194,-96.7707 2026.8432,-73.9709"/>
<polygon fill="#191970" stroke="#191970" points="2027.5813,-77.3966 2036.8803,-72.3192 2026.4447,-70.4895 2027.5813,-77.3966"/>
</g>
<!-- Node4 -->
<g id="node5" class="node">
<title>Node4</title>
<polygon fill="#ffffff" stroke="#bfbfbf" points="2144.9014,-55.5 2144.9014,-73.5 2192.5859,-73.5 2192.5859,-55.5 2144.9014,-55.5"/>
<text text-anchor="middle" x="2168.7437" y="-61.5" font-family="Helvetica,sans-Serif" font-size="10.00" fill="#000000">stdlib.h</text>
</g>
<!-- Node1&#45;&gt;Node4 -->
<g id="edge4" class="edge">
<title>Node1&#45;&gt;Node4</title>
<path fill="none" stroke="#191970" d="M1375.4696,-118.4598C1503.3491,-114.1444 1981.2424,-96.8036 2130.7437,-74 2132.0293,-73.8039 2133.335,-73.5841 2134.6505,-73.3452"/>
<polygon fill="#191970" stroke="#191970" points="2135.6943,-76.7022 2144.7588,-71.2171 2134.2522,-69.8524 2135.6943,-76.7022"/>
</g>
<!-- Node5 -->
<g id="node6" class="node">
<title>Node5</title>
<polygon fill="#ffffff" stroke="#bfbfbf" points="1799.6772,-.5 1799.6772,-18.5 1851.8101,-18.5 1851.8101,-.5 1799.6772,-.5"/>
<text text-anchor="middle" x="1825.7437" y="-6.5" font-family="Helvetica,sans-Serif" font-size="10.00" fill="#000000">stdarg.h</text>
</g>
<!-- Node1&#45;&gt;Node5 -->
<g id="edge5" class="edge">
<title>Node1&#45;&gt;Node5</title>
<path fill="none" stroke="#191970" d="M1375.3233,-118.7314C1460.3827,-116.2425 1692.467,-106.5706 1760.7437,-74 1782.8138,-63.4717 1801.8279,-42.3106 1813.4911,-27.0943"/>
<polygon fill="#191970" stroke="#191970" points="1816.3762,-29.0787 1819.4762,-18.9475 1810.7349,-24.9342 1816.3762,-29.0787"/>
</g>
<!-- Node6 -->
<g id="node7" class="node">
<title>Node6</title>
<polygon fill="#ffffff" stroke="#bfbfbf" points="2210.623,-55.5 2210.623,-73.5 2258.8643,-73.5 2258.8643,-55.5 2210.623,-55.5"/>
<text text-anchor="middle" x="2234.7437" y="-61.5" font-family="Helvetica,sans-Serif" font-size="10.00" fill="#000000">stdint.h</text>
</g>
<!-- Node1&#45;&gt;Node6 -->
<g id="edge6" class="edge">
<title>Node1&#45;&gt;Node6</title>
<path fill="none" stroke="#191970" d="M1375.1146,-118.7913C1507.0949,-115.6657 2018.4395,-102.0745 2200.415,-73.8025"/>
<polygon fill="#191970" stroke="#191970" points="2201.069,-77.2422 2210.378,-72.1832 2199.946,-70.3329 2201.069,-77.2422"/>
</g>
<!-- Node7 -->
<g id="node8" class="node">
<title>Node7</title>
<polygon fill="#ffffff" stroke="#bfbfbf" points="2277.3472,-55.5 2277.3472,-73.5 2326.1401,-73.5 2326.1401,-55.5 2277.3472,-55.5"/>
<text text-anchor="middle" x="2301.7437" y="-61.5" font-family="Helvetica,sans-Serif" font-size="10.00" fill="#000000">string.h</text>
</g>
<!-- Node1&#45;&gt;Node7 -->
<g id="edge7" class="edge">
<title>Node1&#45;&gt;Node7</title>
<path fill="none" stroke="#191970" d="M1375.1469,-118.3706C1522.1852,-113.028 2140.4222,-89.9417 2266.9207,-73.5649"/>
<polygon fill="#191970" stroke="#191970" points="2267.6106,-77.0015 2277.004,-72.1011 2266.6049,-70.0741 2267.6106,-77.0015"/>
</g>
<!-- Node8 -->
<g id="node9" class="node">
<title>Node8</title>
<polygon fill="#ffffff" stroke="#bfbfbf" points="83.8472,-55.5 83.8472,-73.5 137.6401,-73.5 137.6401,-55.5 83.8472,-55.5"/>
<text text-anchor="middle" x="110.7437" y="-61.5" font-family="Helvetica,sans-Serif" font-size="10.00" fill="#000000">strings.h</text>
</g>
<!-- Node1&#45;&gt;Node8 -->
<g id="edge8" class="edge">
<title>Node1&#45;&gt;Node8</title>
<path fill="none" stroke="#191970" d="M1312.2929,-113.9306C1302.5329,-112.4046 1291.7198,-110.9191 1281.7437,-110 782.487,-64.0011 647.9255,-145.7631 147.7401,-73.777"/>
<polygon fill="#191970" stroke="#191970" points="148.1339,-70.2975 137.7346,-72.3236 147.1276,-77.2248 148.1339,-70.2975"/>
</g>
<!-- Node9 -->
<g id="node10" class="node">
<title>Node9</title>
<polygon fill="#ffffff" stroke="#bfbfbf" points="155.6157,-55.5 155.6157,-73.5 213.8716,-73.5 213.8716,-55.5 155.6157,-55.5"/>
<text text-anchor="middle" x="184.7437" y="-61.5" font-family="Helvetica,sans-Serif" font-size="10.00" fill="#000000">pthread.h</text>
</g>
<!-- Node1&#45;&gt;Node9 -->
<g id="edge9" class="edge">
<title>Node1&#45;&gt;Node9</title>
<path fill="none" stroke="#191970" d="M1312.2917,-113.9445C1302.5315,-112.4191 1291.7187,-110.9305 1281.7437,-110 816.1606,-66.5698 690.878,-138.4429 224.1186,-73.8862"/>
<polygon fill="#191970" stroke="#191970" points="224.4695,-70.4014 214.0815,-72.4844 223.5012,-77.3341 224.4695,-70.4014"/>
</g>
<!-- Node10 -->
<g id="node11" class="node">
<title>Node10</title>
<polygon fill="#ffffff" stroke="#bfbfbf" points="231.623,-55.5 231.623,-73.5 279.8643,-73.5 279.8643,-55.5 231.623,-55.5"/>
<text text-anchor="middle" x="255.7437" y="-61.5" font-family="Helvetica,sans-Serif" font-size="10.00" fill="#000000">ctype.h</text>
</g>
<!-- Node1&#45;&gt;Node10 -->
<g id="edge10" class="edge">
<title>Node1&#45;&gt;Node10</title>
<path fill="none" stroke="#191970" d="M1312.2904,-113.9584C1302.5302,-112.4335 1291.7176,-110.9417 1281.7437,-110 845.4034,-68.8009 726.6403,-142.4734 290.1436,-73.8255"/>
<polygon fill="#191970" stroke="#191970" points="290.527,-70.3426 280.1016,-72.23 289.4285,-77.2559 290.527,-70.3426"/>
</g>
<!-- Node11 -->
<g id="node12" class="node">
<title>Node11</title>
<polygon fill="#ffffff" stroke="#bfbfbf" points="297.9014,-55.5 297.9014,-73.5 345.5859,-73.5 345.5859,-55.5 297.9014,-55.5"/>
<text text-anchor="middle" x="321.7437" y="-61.5" font-family="Helvetica,sans-Serif" font-size="10.00" fill="#000000">errno.h</text>
</g>
<!-- Node1&#45;&gt;Node11 -->
<g id="edge11" class="edge">
<title>Node1&#45;&gt;Node11</title>
<path fill="none" stroke="#191970" d="M1312.2889,-113.974C1302.5286,-112.4497 1291.7164,-110.9544 1281.7437,-110 874.1765,-70.9962 762.7717,-140.1285 355.6838,-73.9525"/>
<polygon fill="#191970" stroke="#191970" points="356.1409,-70.4807 345.7057,-72.3131 355.006,-77.3881 356.1409,-70.4807"/>
</g>
<!-- Node12 -->
<g id="node13" class="node">
<title>Node12</title>
<polygon fill="#ffffff" stroke="#bfbfbf" points="363.1279,-55.5 363.1279,-73.5 406.3594,-73.5 406.3594,-55.5 363.1279,-55.5"/>
<text text-anchor="middle" x="384.7437" y="-61.5" font-family="Helvetica,sans-Serif" font-size="10.00" fill="#000000">time.h</text>
</g>
<!-- Node1&#45;&gt;Node12 -->
<g id="edge12" class="edge">
<title>Node1&#45;&gt;Node12</title>
<path fill="none" stroke="#191970" d="M1312.2872,-113.991C1302.5269,-112.4675 1291.7151,-110.9682 1281.7437,-110 901.6018,-73.0889 797.226,-137.8423 416.4972,-73.6416"/>
<polygon fill="#191970" stroke="#191970" points="417.0372,-70.1832 406.5912,-71.9527 415.8608,-77.0836 417.0372,-70.1832"/>
</g>
<!-- Node13 -->
<g id="node14" class="node">
<title>Node13</title>
<polygon fill="#ffffff" stroke="#bfbfbf" points="424.4038,-55.5 424.4038,-73.5 467.0835,-73.5 467.0835,-55.5 424.4038,-55.5"/>
<text text-anchor="middle" x="445.7437" y="-61.5" font-family="Helvetica,sans-Serif" font-size="10.00" fill="#000000">fcntl.h</text>
</g>
<!-- Node1&#45;&gt;Node13 -->
<g id="edge13" class="edge">
<title>Node1&#45;&gt;Node13</title>
<path fill="none" stroke="#191970" d="M1312.2853,-114.0103C1302.5249,-112.4875 1291.7136,-110.9839 1281.7437,-110 928.646,-75.1544 831.4518,-133.8456 477.2726,-73.5773"/>
<polygon fill="#191970" stroke="#191970" points="477.7036,-70.1001 467.2547,-71.8528 476.516,-76.9986 477.7036,-70.1001"/>
</g>
<!-- Node14 -->
<g id="node15" class="node">
<title>Node14</title>
<polygon fill="#ffffff" stroke="#bfbfbf" points="485.5098,-55.5 485.5098,-73.5 535.9775,-73.5 535.9775,-55.5 485.5098,-55.5"/>
<text text-anchor="middle" x="510.7437" y="-61.5" font-family="Helvetica,sans-Serif" font-size="10.00" fill="#000000">signal.h</text>
</g>
<!-- Node1&#45;&gt;Node14 -->
<g id="edge14" class="edge">
<title>Node1&#45;&gt;Node14</title>
<path fill="none" stroke="#191970" d="M1312.2826,-114.0376C1302.5221,-112.516 1291.7114,-111.0061 1281.7437,-110 957.6637,-77.2897 872.0971,-120.7551 549.7437,-74 548.6402,-73.84 547.5223,-73.6628 546.3961,-73.4713"/>
<polygon fill="#191970" stroke="#191970" points="546.6934,-69.9616 536.2015,-71.4353 545.3224,-76.8261 546.6934,-69.9616"/>
</g>
<!-- Node15 -->
<g id="node16" class="node">
<title>Node15</title>
<polygon fill="#ffffff" stroke="#bfbfbf" points="1941.2388,-.5 1941.2388,-18.5 2002.2485,-18.5 2002.2485,-.5 1941.2388,-.5"/>
<text text-anchor="middle" x="1971.7437" y="-6.5" font-family="Helvetica,sans-Serif" font-size="10.00" fill="#000000">sys/time.h</text>
</g>
<!-- Node1&#45;&gt;Node15 -->
<g id="edge15" class="edge">
<title>Node1&#45;&gt;Node15</title>
<path fill="none" stroke="#191970" d="M1375.4202,-118.6459C1490.3067,-115.3299 1880.8475,-102.0765 1928.7437,-74 1946.1013,-63.825 1957.8503,-43.5372 1964.6219,-28.418"/>
<polygon fill="#191970" stroke="#191970" points="1967.9437,-29.5435 1968.5224,-18.9645 1961.4728,-26.8736 1967.9437,-29.5435"/>
</g>
<!-- Node16 -->
<g id="node17" class="node">
<title>Node16</title>
<polygon fill="#ffffff" stroke="#bfbfbf" points="591.6255,-55.5 591.6255,-73.5 649.8618,-73.5 649.8618,-55.5 591.6255,-55.5"/>
<text text-anchor="middle" x="620.7437" y="-61.5" font-family="Helvetica,sans-Serif" font-size="10.00" fill="#000000">sys/stat.h</text>
</g>
<!-- Node1&#45;&gt;Node16 -->
<g id="edge16" class="edge">
<title>Node1&#45;&gt;Node16</title>
<path fill="none" stroke="#191970" d="M1312.2772,-114.0902C1302.5165,-112.5707 1291.707,-111.0488 1281.7437,-110 1009.284,-81.3186 934.7362,-114.9755 660.3563,-73.9688"/>
<polygon fill="#191970" stroke="#191970" points="660.5032,-70.4512 650.0918,-72.414 659.4548,-77.3722 660.5032,-70.4512"/>
</g>
<!-- Node17 -->
<g id="node18" class="node">
<title>Node17</title>
<polygon fill="#ffffff" stroke="#bfbfbf" points="667.7339,-55.5 667.7339,-73.5 733.7534,-73.5 733.7534,-55.5 667.7339,-55.5"/>
<text text-anchor="middle" x="700.7437" y="-61.5" font-family="Helvetica,sans-Serif" font-size="10.00" fill="#000000">sys/types.h</text>
</g>
<!-- Node1&#45;&gt;Node17 -->
<g id="edge17" class="edge">
<title>Node1&#45;&gt;Node17</title>
<path fill="none" stroke="#191970" d="M1312.2713,-114.1452C1302.5103,-112.628 1291.7021,-111.0935 1281.7437,-110 1046.3517,-84.1527 982.0773,-107.9203 744.1226,-73.9884"/>
<polygon fill="#191970" stroke="#191970" points="744.5243,-70.5102 734.1265,-72.5438 743.523,-77.4382 744.5243,-70.5102"/>
</g>
<!-- Node18 -->
<g id="node19" class="node">
<title>Node18</title>
<polygon fill="#ffffff" stroke="#bfbfbf" points="751.793,-55.5 751.793,-73.5 811.6943,-73.5 811.6943,-55.5 751.793,-55.5"/>
<text text-anchor="middle" x="781.7437" y="-61.5" font-family="Helvetica,sans-Serif" font-size="10.00" fill="#000000">sys/ioctl.h</text>
</g>
<!-- Node1&#45;&gt;Node18 -->
<g id="edge18" class="edge">
<title>Node1&#45;&gt;Node18</title>
<path fill="none" stroke="#191970" d="M1312.2636,-114.2131C1302.5023,-112.6986 1291.6959,-111.1486 1281.7437,-110 1080.4427,-86.7674 1024.8068,-106.4357 822.0149,-74.159"/>
<polygon fill="#191970" stroke="#191970" points="822.3618,-70.6697 811.9318,-72.5309 821.246,-77.5802 822.3618,-70.6697"/>
</g>
<!-- Node19 -->
<g id="node20" class="node">
<title>Node19</title>
<polygon fill="#ffffff" stroke="#bfbfbf" points="829.2339,-55.5 829.2339,-73.5 900.2534,-73.5 900.2534,-55.5 829.2339,-55.5"/>
<text text-anchor="middle" x="864.7437" y="-61.5" font-family="Helvetica,sans-Serif" font-size="10.00" fill="#000000">sys/socket.h</text>
</g>
<!-- Node1&#45;&gt;Node19 -->
<g id="edge19" class="edge">
<title>Node1&#45;&gt;Node19</title>
<path fill="none" stroke="#191970" d="M1312.2501,-114.3261C1302.4882,-112.8162 1291.6849,-111.2404 1281.7437,-110 1119.7049,-89.7822 1075.0425,-99.2299 910.666,-74.1596"/>
<polygon fill="#191970" stroke="#191970" points="911.1155,-70.6876 900.6983,-72.6197 910.0467,-77.6055 911.1155,-70.6876"/>
</g>
<!-- Node20 -->
<g id="node21" class="node">
<title>Node20</title>
<polygon fill="#ffffff" stroke="#bfbfbf" points="918.123,-55.5 918.123,-73.5 991.3643,-73.5 991.3643,-55.5 918.123,-55.5"/>
<text text-anchor="middle" x="954.7437" y="-61.5" font-family="Helvetica,sans-Serif" font-size="10.00" fill="#000000">sys/sysinfo.h</text>
</g>
<!-- Node1&#45;&gt;Node20 -->
<g id="edge20" class="edge">
<title>Node1&#45;&gt;Node20</title>
<path fill="none" stroke="#191970" d="M1312.2251,-114.5141C1302.4623,-113.0119 1291.6647,-111.3931 1281.7437,-110 1159.7977,-92.8763 1126.0253,-94.9458 1001.458,-74.19"/>
<polygon fill="#191970" stroke="#191970" points="1001.9763,-70.7281 991.5342,-72.5206 1000.815,-77.6311 1001.9763,-70.7281"/>
</g>
<!-- Node21 -->
<g id="node22" class="node">
<title>Node21</title>
<polygon fill="#ffffff" stroke="#bfbfbf" points="1009.1157,-55.5 1009.1157,-73.5 1072.3716,-73.5 1072.3716,-55.5 1009.1157,-55.5"/>
<text text-anchor="middle" x="1040.7437" y="-61.5" font-family="Helvetica,sans-Serif" font-size="10.00" fill="#000000">arpa/inet.h</text>
</g>
<!-- Node1&#45;&gt;Node21 -->
<g id="edge21" class="edge">
<title>Node1&#45;&gt;Node21</title>
<path fill="none" stroke="#191970" d="M1312.1804,-114.6015C1264.6329,-107.0959 1171.588,-91.9184 1082.4905,-74.0593"/>
<polygon fill="#191970" stroke="#191970" points="1082.9847,-70.5885 1072.4897,-72.0398 1081.599,-77.45 1082.9847,-70.5885"/>
</g>
<!-- Node22 -->
<g id="node23" class="node">
<title>Node22</title>
<polygon fill="#ffffff" stroke="#bfbfbf" points="1090.2808,-55.5 1090.2808,-73.5 1155.2065,-73.5 1155.2065,-55.5 1090.2808,-55.5"/>
<text text-anchor="middle" x="1122.7437" y="-61.5" font-family="Helvetica,sans-Serif" font-size="10.00" fill="#000000">netinet/in.h</text>
</g>
<!-- Node1&#45;&gt;Node22 -->
<g id="edge22" class="edge">
<title>Node1&#45;&gt;Node22</title>
<path fill="none" stroke="#191970" d="M1312.0797,-111.6198C1273.5172,-102.0228 1208.2263,-85.774 1165.2973,-75.0903"/>
<polygon fill="#191970" stroke="#191970" points="1165.9784,-71.6531 1155.4291,-72.6344 1164.2878,-78.4459 1165.9784,-71.6531"/>
</g>
<!-- Node23 -->
<g id="node24" class="node">
<title>Node23</title>
<polygon fill="#ffffff" stroke="#bfbfbf" points="1172.8867,-55.5 1172.8867,-73.5 1250.6006,-73.5 1250.6006,-55.5 1172.8867,-55.5"/>
<text text-anchor="middle" x="1211.7437" y="-61.5" font-family="Helvetica,sans-Serif" font-size="10.00" fill="#000000">net/ethernet.h</text>
</g>
<!-- Node1&#45;&gt;Node23 -->
<g id="edge23" class="edge">
<title>Node1&#45;&gt;Node23</title>
<path fill="none" stroke="#191970" d="M1321.9465,-110.4179C1300.4507,-101.4613 1267.3772,-87.6806 1243.0684,-77.552"/>
<polygon fill="#191970" stroke="#191970" points="1244.1501,-74.2111 1233.5732,-73.5956 1241.4578,-80.6726 1244.1501,-74.2111"/>
</g>
<!-- Node24 -->
<g id="node25" class="node">
<title>Node24</title>
<polygon fill="#ffffff" stroke="#bfbfbf" points="1268.2808,-55.5 1268.2808,-73.5 1333.2065,-73.5 1333.2065,-55.5 1268.2808,-55.5"/>
<text text-anchor="middle" x="1300.7437" y="-61.5" font-family="Helvetica,sans-Serif" font-size="10.00" fill="#000000">netinet/ip.h</text>
</g>
<!-- Node1&#45;&gt;Node24 -->
<g id="edge24" class="edge">
<title>Node1&#45;&gt;Node24</title>
<path fill="none" stroke="#191970" d="M1336.6431,-110.4179C1330.5797,-102.6624 1321.6886,-91.29 1314.2718,-81.8035"/>
<polygon fill="#191970" stroke="#191970" points="1316.9151,-79.5018 1307.9985,-73.7795 1311.4004,-83.8133 1316.9151,-79.5018"/>
</g>
<!-- Node25 -->
<g id="node26" class="node">
<title>Node25</title>
<polygon fill="#ffffff" stroke="#bfbfbf" points="1351.5024,-55.5 1351.5024,-73.5 1421.9849,-73.5 1421.9849,-55.5 1351.5024,-55.5"/>
<text text-anchor="middle" x="1386.7437" y="-61.5" font-family="Helvetica,sans-Serif" font-size="10.00" fill="#000000">netinet/tcp.h</text>
</g>
<!-- Node1&#45;&gt;Node25 -->
<g id="edge25" class="edge">
<title>Node1&#45;&gt;Node25</title>
<path fill="none" stroke="#191970" d="M1350.8442,-110.4179C1356.9076,-102.6624 1365.7987,-91.29 1373.2155,-81.8035"/>
<polygon fill="#191970" stroke="#191970" points="1376.0869,-83.8133 1379.4888,-73.7795 1370.5722,-79.5018 1376.0869,-83.8133"/>
</g>
<!-- Node26 -->
<g id="node27" class="node">
<title>Node26</title>
<polygon fill="#ffffff" stroke="#bfbfbf" points="1439.9434,-55.5 1439.9434,-73.5 1531.5439,-73.5 1531.5439,-55.5 1439.9434,-55.5"/>
<text text-anchor="middle" x="1485.7437" y="-61.5" font-family="Helvetica,sans-Serif" font-size="10.00" fill="#000000">netinet/ip_icmp.h</text>
</g>
<!-- Node1&#45;&gt;Node26 -->
<g id="edge26" class="edge">
<title>Node1&#45;&gt;Node26</title>
<path fill="none" stroke="#191970" d="M1367.1921,-110.4179C1390.5219,-101.3817 1426.5289,-87.4353 1452.7409,-77.2828"/>
<polygon fill="#191970" stroke="#191970" points="1454.1996,-80.4712 1462.2604,-73.5956 1451.6713,-73.9437 1454.1996,-80.4712"/>
</g>
<!-- Node27 -->
<g id="node28" class="node">
<title>Node27</title>
<g id="a_node28"><a xlink:href="mac2int_8h.html" target="_top" xlink:title="mac2int.h">
<polygon fill="#ffffff" stroke="#000000" points="1549.0664,-55.5 1549.0664,-73.5 1608.4209,-73.5 1608.4209,-55.5 1549.0664,-55.5"/>
<text text-anchor="middle" x="1578.7437" y="-61.5" font-family="Helvetica,sans-Serif" font-size="10.00" fill="#000000">mac2int.h</text>
</a>
</g>
</g>
<!-- Node1&#45;&gt;Node27 -->
<g id="edge27" class="edge">
<title>Node1&#45;&gt;Node27</title>
<path fill="none" stroke="#191970" d="M1375.1852,-110.8953C1412.6481,-101.8933 1476.6254,-87.2538 1531.7437,-74 1534.0309,-73.45 1536.3939,-72.8752 1538.7926,-72.2923"/>
<polygon fill="#191970" stroke="#191970" points="1539.8498,-75.6378 1548.7522,-69.8935 1538.2106,-68.8324 1539.8498,-75.6378"/>
</g>
<!-- Node28 -->
<g id="node29" class="node">
<title>Node28</title>
<g id="a_node29"><a xlink:href="ip2int_8h.html" target="_top" xlink:title="ip2int.h">
<polygon fill="#ffffff" stroke="#000000" points="1626.6206,-55.5 1626.6206,-73.5 1674.8667,-73.5 1674.8667,-55.5 1626.6206,-55.5"/>
<text text-anchor="middle" x="1650.7437" y="-61.5" font-family="Helvetica,sans-Serif" font-size="10.00" fill="#000000">ip2int.h</text>
</a>
</g>
</g>
<!-- Node1&#45;&gt;Node28 -->
<g id="edge29" class="edge">
<title>Node1&#45;&gt;Node28</title>
<path fill="none" stroke="#191970" d="M1375.2626,-114.6754C1425.2597,-107.5357 1525.0251,-92.9347 1608.7437,-74 1611.3259,-73.416 1614.0052,-72.7487 1616.7172,-72.0447"/>
<polygon fill="#191970" stroke="#191970" points="1617.8067,-75.3765 1626.5662,-69.4165 1616.0019,-68.6132 1617.8067,-75.3765"/>
</g>
<!-- Node29 -->
<g id="node30" class="node">
<title>Node29</title>
<g id="a_node30"><a xlink:href="database_8h.html" target="_top" xlink:title="database.h">
<polygon fill="#ffffff" stroke="#000000" points="0,-55.5 0,-73.5 65.4873,-73.5 65.4873,-55.5 0,-55.5"/>
<text text-anchor="middle" x="32.7437" y="-61.5" font-family="Helvetica,sans-Serif" font-size="10.00" fill="#000000">database.h</text>
</a>
</g>
</g>
<!-- Node1&#45;&gt;Node29 -->
<g id="edge31" class="edge">
<title>Node1&#45;&gt;Node29</title>
<path fill="none" stroke="#191970" d="M1312.1552,-115.2117C1299.7127,-113.2764 1285.5402,-111.1668 1272.7437,-110 741.6705,-61.5759 599.9579,-140.5001 72.7496,-74.841"/>
<polygon fill="#191970" stroke="#191970" points="72.957,-71.3396 62.5985,-73.5649 72.0838,-78.2849 72.957,-71.3396"/>
</g>
<!-- Node31 -->
<g id="node32" class="node">
<title>Node31</title>
<polygon fill="#ffffff" stroke="#bfbfbf" points="1693.3398,-55.5 1693.3398,-73.5 1752.1475,-73.5 1752.1475,-55.5 1693.3398,-55.5"/>
<text text-anchor="middle" x="1722.7437" y="-61.5" font-family="Helvetica,sans-Serif" font-size="10.00" fill="#000000">jansson.h</text>
</g>
<!-- Node1&#45;&gt;Node31 -->
<g id="edge35" class="edge">
<title>Node1&#45;&gt;Node31</title>
<path fill="none" stroke="#191970" d="M1375.3277,-116.4033C1433.956,-110.4123 1563.7267,-96.015 1682.9734,-73.9657"/>
<polygon fill="#191970" stroke="#191970" points="1683.8184,-77.3684 1693.0036,-72.088 1682.5303,-70.4879 1683.8184,-77.3684"/>
</g>
<!-- Node32 -->
<g id="node33" class="node">
<title>Node32</title>
<g id="a_node33"><a xlink:href="libcli_8h.html" target="_top" xlink:title="libcli.h">
<polygon fill="#ffffff" stroke="#000000" points="1975.8496,-55.5 1975.8496,-73.5 2019.6377,-73.5 2019.6377,-55.5 1975.8496,-55.5"/>
<text text-anchor="middle" x="1997.7437" y="-61.5" font-family="Helvetica,sans-Serif" font-size="10.00" fill="#000000">libcli.h</text>
</a>
</g>
</g>
<!-- Node1&#45;&gt;Node32 -->
<g id="edge36" class="edge">
<title>Node1&#45;&gt;Node32</title>
<path fill="none" stroke="#191970" d="M1375.176,-119.2269C1466.4557,-117.9973 1739.1829,-111.2309 1961.7437,-74 1963.0347,-73.784 1964.3467,-73.5428 1965.6683,-73.2816"/>
<polygon fill="#191970" stroke="#191970" points="1966.8237,-76.6083 1975.7988,-70.9782 1965.2717,-69.7825 1966.8237,-76.6083"/>
</g>
<!-- Node33 -->
<g id="node34" class="node">
<title>Node33</title>
<polygon fill="#ffffff" stroke="#bfbfbf" points="1807.5171,-55.5 1807.5171,-73.5 1857.9702,-73.5 1857.9702,-55.5 1807.5171,-55.5"/>
<text text-anchor="middle" x="1832.7437" y="-61.5" font-family="Helvetica,sans-Serif" font-size="10.00" fill="#000000">mysql.h</text>
</g>
<!-- Node1&#45;&gt;Node33 -->
<g id="edge40" class="edge">
<title>Node1&#45;&gt;Node33</title>
<path fill="none" stroke="#191970" d="M1375.3154,-117.8122C1449.0201,-113.5451 1637.9895,-100.7126 1793.7437,-74 1794.8426,-73.8115 1795.9566,-73.6095 1797.0793,-73.3963"/>
<polygon fill="#191970" stroke="#191970" points="1798.1965,-76.7375 1807.2554,-71.2434 1796.7475,-69.8891 1798.1965,-76.7375"/>
</g>
<!-- Node34 -->
<g id="node35" class="node">
<title>Node34</title>
<polygon fill="#ffffff" stroke="#bfbfbf" points="1876.1279,-55.5 1876.1279,-73.5 1919.3594,-73.5 1919.3594,-55.5 1876.1279,-55.5"/>
<text text-anchor="middle" x="1897.7437" y="-61.5" font-family="Helvetica,sans-Serif" font-size="10.00" fill="#000000">zmq.h</text>
</g>
<!-- Node1&#45;&gt;Node34 -->
<g id="edge41" class="edge">
<title>Node1&#45;&gt;Node34</title>
<path fill="none" stroke="#191970" d="M1375.3068,-119.0607C1455.7969,-117.4533 1675.2197,-110.014 1865.9512,-73.7445"/>
<polygon fill="#191970" stroke="#191970" points="1866.7191,-77.1609 1875.873,-71.8264 1865.3904,-70.2882 1866.7191,-77.1609"/>
</g>
<!-- Node35 -->
<g id="node36" class="node">
<title>Node35</title>
<g id="a_node36"><a xlink:href="src_2include_2type_8h.html" target="_top" xlink:title="type.h">
<polygon fill="#ffffff" stroke="#000000" points="2344.123,-55.5 2344.123,-73.5 2387.3643,-73.5 2387.3643,-55.5 2344.123,-55.5"/>
<text text-anchor="middle" x="2365.7437" y="-61.5" font-family="Helvetica,sans-Serif" font-size="10.00" fill="#000000">type.h</text>
</a>
</g>
</g>
<!-- Node1&#45;&gt;Node35 -->
<g id="edge42" class="edge">
<title>Node1&#45;&gt;Node35</title>
<path fill="none" stroke="#191970" d="M1375.3063,-118.5232C1529.399,-113.6929 2200.3088,-91.9293 2333.9227,-73.4876"/>
<polygon fill="#191970" stroke="#191970" points="2334.5488,-76.9324 2343.894,-71.9406 2333.4756,-70.0152 2334.5488,-76.9324"/>
</g>
<!-- Node27&#45;&gt;Node1 -->
<g id="edge28" class="edge">
<title>Node27&#45;&gt;Node1</title>
<path fill="none" stroke="#191970" d="M1551.7441,-73.5172C1551.0723,-73.6799 1550.4048,-73.841 1549.7437,-74 1492.991,-87.6468 1426.846,-102.7627 1384.99,-111.6811"/>
<polygon fill="#191970" stroke="#191970" points="1384.2132,-108.2678 1375.1509,-113.7564 1385.6579,-115.1171 1384.2132,-108.2678"/>
</g>
<!-- Node28&#45;&gt;Node1 -->
<g id="edge30" class="edge">
<title>Node28&#45;&gt;Node1</title>
<path fill="none" stroke="#191970" d="M1628.8552,-73.5092C1628.1463,-73.6783 1627.4414,-73.8422 1626.7437,-74 1542.1289,-93.1373 1441.1222,-107.8478 1385.4271,-114.9021"/>
<polygon fill="#191970" stroke="#191970" points="1384.7311,-111.4617 1375.2398,-116.1698 1385.5955,-118.4081 1384.7311,-111.4617"/>
</g>
<!-- Node29&#45;&gt;Node1 -->
<g id="edge32" class="edge">
<title>Node29&#45;&gt;Node1</title>
<path fill="none" stroke="#191970" d="M65.7777,-70.8277C71.8,-72.098 77.9588,-73.2664 83.7437,-74 616.1632,-141.5137 756.2779,-61.2665 1290.7437,-110 1294.4884,-110.3415 1298.351,-110.7636 1302.2094,-111.2386"/>
<polygon fill="#191970" stroke="#191970" points="1301.9519,-114.7354 1312.3292,-112.5997 1302.885,-107.7978 1301.9519,-114.7354"/>
</g>
<!-- Node30 -->
<g id="node31" class="node">
<title>Node30</title>
<g id="a_node31"><a xlink:href="str_8h.html" target="_top" xlink:title="str.h">
<polygon fill="#ffffff" stroke="#000000" points="281.293,-.5 281.293,-18.5 316.1943,-18.5 316.1943,-.5 281.293,-.5"/>
<text text-anchor="middle" x="298.7437" y="-6.5" font-family="Helvetica,sans-Serif" font-size="10.00" fill="#000000">str.h</text>
</a>
</g>
</g>
<!-- Node29&#45;&gt;Node30 -->
<g id="edge33" class="edge">
<title>Node29&#45;&gt;Node30</title>
<path fill="none" stroke="#191970" d="M65.7435,-56.9636C68.7844,-56.2909 71.8199,-55.6275 74.7437,-55 145.4147,-39.8318 228.9172,-23.2143 271.2158,-14.8886"/>
<polygon fill="#191970" stroke="#191970" points="272.1521,-18.2716 281.2897,-12.9092 270.8024,-11.4029 272.1521,-18.2716"/>
</g>
<!-- Node30&#45;&gt;Node1 -->
<g id="edge34" class="edge">
<title>Node30&#45;&gt;Node1</title>
<path fill="none" stroke="#191970" d="M316.4666,-11.0579C357.5234,-15.0343 461.9659,-27.2676 544.7437,-55 562.6479,-60.9983 564.4841,-69.1904 582.7437,-74 733.1526,-113.618 1127.0089,-94.2012 1281.7437,-110 1288.2842,-110.6678 1295.1882,-111.549 1301.9203,-112.5058"/>
<polygon fill="#191970" stroke="#191970" points="1301.8741,-116.0376 1312.2812,-114.0518 1302.9072,-109.1142 1301.8741,-116.0376"/>
</g>
<!-- Node32&#45;&gt;Node2 -->
<g id="edge38" class="edge">
<title>Node32&#45;&gt;Node2</title>
<path fill="none" stroke="#191970" d="M2013.2658,-55.4179C2027.9612,-46.8195 2050.2548,-33.7754 2067.3303,-23.7844"/>
<polygon fill="#191970" stroke="#191970" points="2069.3348,-26.6667 2076.1984,-18.5956 2065.7997,-20.6249 2069.3348,-26.6667"/>
</g>
<!-- Node32&#45;&gt;Node5 -->
<g id="edge37" class="edge">
<title>Node32&#45;&gt;Node5</title>
<path fill="none" stroke="#191970" d="M1975.6098,-57.4223C1946.7895,-48.2065 1896.0466,-31.9806 1861.6754,-20.9898"/>
<polygon fill="#191970" stroke="#191970" points="1862.6032,-17.6119 1852.0122,-17.8998 1860.4711,-24.2794 1862.6032,-17.6119"/>
</g>
<!-- Node32&#45;&gt;Node15 -->
<g id="edge39" class="edge">
<title>Node32&#45;&gt;Node15</title>
<path fill="none" stroke="#191970" d="M1993.4503,-55.4179C1989.9337,-47.9789 1984.844,-37.2123 1980.4769,-27.9742"/>
<polygon fill="#191970" stroke="#191970" points="1983.5684,-26.3243 1976.1303,-18.7795 1977.2399,-29.316 1983.5684,-26.3243"/>
</g>
<!-- Node36&#45;&gt;Node1 -->
<g id="edge44" class="edge">
<title>Node36&#45;&gt;Node1</title>
<path fill="none" stroke="#191970" d="M1390.4964,-165.4179C1382.3582,-157.425 1370.3084,-145.5903 1360.4803,-135.9377"/>
<polygon fill="#191970" stroke="#191970" points="1362.7788,-133.2895 1353.1918,-128.7795 1357.8738,-138.2836 1362.7788,-133.2895"/>
</g>
<!-- Node37&#45;&gt;Node1 -->
<g id="edge46" class="edge">
<title>Node37&#45;&gt;Node1</title>
<path fill="none" stroke="#191970" d="M1301.508,-220.4982C1309.0219,-202.5302 1326.0146,-161.8954 1336.0053,-138.0046"/>
<polygon fill="#191970" stroke="#191970" points="1339.2982,-139.2023 1339.9273,-128.6261 1332.8401,-136.5016 1339.2982,-139.2023"/>
</g>
<!-- Node37&#45;&gt;Node29 -->
<g id="edge48" class="edge">
<title>Node37&#45;&gt;Node29</title>
<path fill="none" stroke="#191970" d="M1268.6985,-226.8469C1133.9712,-214.3244 556.4582,-158.2706 75.6133,-74.012"/>
<polygon fill="#191970" stroke="#191970" points="76.1534,-70.5533 65.6982,-72.2681 74.9408,-77.4475 76.1534,-70.5533"/>
</g>
<!-- Node37&#45;&gt;Node36 -->
<g id="edge47" class="edge">
<title>Node37&#45;&gt;Node36</title>
<path fill="none" stroke="#191970" d="M1314.5869,-220.4179C1330.7543,-211.7001 1355.3974,-198.4122 1374.0213,-188.3699"/>
<polygon fill="#191970" stroke="#191970" points="1375.7346,-191.4225 1382.8754,-183.5956 1372.4123,-185.2611 1375.7346,-191.4225"/>
</g>
<!-- Node38&#45;&gt;Node1 -->
<g id="edge50" class="edge">
<title>Node38&#45;&gt;Node1</title>
<path fill="none" stroke="#191970" d="M1360.2706,-220.4982C1357.3568,-202.6913 1350.8001,-162.6225 1346.8775,-138.6515"/>
<polygon fill="#191970" stroke="#191970" points="1350.3061,-137.9297 1345.237,-128.6261 1343.3979,-139.0601 1350.3061,-137.9297"/>
</g>
<!-- Node38&#45;&gt;Node36 -->
<g id="edge51" class="edge">
<title>Node38&#45;&gt;Node36</title>
<path fill="none" stroke="#191970" d="M1368.0186,-220.4179C1373.3222,-212.7415 1381.0741,-201.5217 1387.5875,-192.0945"/>
<polygon fill="#191970" stroke="#191970" points="1390.5276,-193.9963 1393.3324,-183.7795 1384.7685,-190.0173 1390.5276,-193.9963"/>
</g>
<!-- Node39&#45;&gt;Node1 -->
<g id="edge53" class="edge">
<title>Node39&#45;&gt;Node1</title>
<path fill="none" stroke="#191970" d="M1628.4163,-220.3057C1619.6128,-206.0054 1600.6066,-178.6614 1576.7437,-165 1544.6882,-146.6484 1443.3012,-131.69 1385.3814,-124.3694"/>
<polygon fill="#191970" stroke="#191970" points="1385.7985,-120.8944 1375.4432,-123.1343 1384.9351,-127.841 1385.7985,-120.8944"/>
</g>
<!-- Node39&#45;&gt;Node36 -->
<g id="edge54" class="edge">
<title>Node39&#45;&gt;Node36</title>
<path fill="none" stroke="#191970" d="M1609.1438,-223.718C1568.3917,-214.1395 1486.5779,-194.9098 1438.1583,-183.5291"/>
<polygon fill="#191970" stroke="#191970" points="1438.8954,-180.107 1428.3598,-181.226 1437.2937,-186.9213 1438.8954,-180.107"/>
</g>
<!-- Node40 -->
<g id="node41" class="node">
<title>Node40</title>
<g id="a_node41"><a xlink:href="events_2include_2event__id_8h.html" target="_top" xlink:title="event_id.h">
<polygon fill="#ffffff" stroke="#000000" points="1699.6699,-165.5 1699.6699,-183.5 1761.8174,-183.5 1761.8174,-165.5 1699.6699,-165.5"/>
<text text-anchor="middle" x="1730.7437" y="-171.5" font-family="Helvetica,sans-Serif" font-size="10.00" fill="#000000">event_id.h</text>
</a>
</g>
</g>
<!-- Node39&#45;&gt;Node40 -->
<g id="edge55" class="edge">
<title>Node39&#45;&gt;Node40</title>
<path fill="none" stroke="#191970" d="M1649.7612,-220.4179C1664.9256,-211.8195 1687.9307,-198.7754 1705.5511,-188.7844"/>
<polygon fill="#191970" stroke="#191970" points="1707.7297,-191.5727 1714.7023,-183.5956 1704.277,-185.4834 1707.7297,-191.5727"/>
</g>
<!-- Node41 -->
<g id="node42" class="node">
<title>Node41</title>
<g id="a_node42"><a xlink:href="events_2include_2event__list_8h.html" target="_top" xlink:title="event_list.h">
<polygon fill="#ffffff" stroke="#000000" points="2174.4507,-110.5 2174.4507,-128.5 2241.0366,-128.5 2241.0366,-110.5 2174.4507,-110.5"/>
<text text-anchor="middle" x="2207.7437" y="-116.5" font-family="Helvetica,sans-Serif" font-size="10.00" fill="#000000">event_list.h</text>
</a>
</g>
</g>
<!-- Node39&#45;&gt;Node41 -->
<g id="edge56" class="edge">
<title>Node39&#45;&gt;Node41</title>
<path fill="none" stroke="#191970" d="M1638.6324,-220.4789C1647.0835,-205.8983 1665.9294,-177.5242 1690.7437,-165 1732.5665,-143.8912 2047.6487,-127.0504 2164.3986,-121.4745"/>
<polygon fill="#191970" stroke="#191970" points="2164.5912,-124.9694 2174.4146,-121.0006 2164.2603,-117.9773 2164.5912,-124.9694"/>
</g>
<!-- Node41&#45;&gt;Node35 -->
<g id="edge57" class="edge">
<title>Node41&#45;&gt;Node35</title>
<path fill="none" stroke="#191970" d="M2233.8341,-110.4179C2261.2759,-100.8654 2304.4812,-85.8255 2333.9101,-75.5813"/>
<polygon fill="#191970" stroke="#191970" points="2335.403,-78.7677 2343.6965,-72.1746 2333.1017,-72.1568 2335.403,-78.7677"/>
</g>
<!-- Node42&#45;&gt;Node1 -->
<g id="edge59" class="edge">
<title>Node42&#45;&gt;Node1</title>
<path fill="none" stroke="#191970" d="M1468.0078,-220.4691C1463.487,-206.8755 1453.2776,-181.0435 1436.7437,-165 1421.7234,-150.4253 1401.1273,-139.6959 1383.1348,-132.3291"/>
<polygon fill="#191970" stroke="#191970" points="1384.0479,-128.9294 1373.4588,-128.5793 1381.5184,-135.4564 1384.0479,-128.9294"/>
</g>
<!-- Node42&#45;&gt;Node36 -->
<g id="edge60" class="edge">
<title>Node42&#45;&gt;Node36</title>
<path fill="none" stroke="#191970" d="M1459.0194,-220.4179C1448.3949,-212.1876 1432.512,-199.8839 1419.8606,-190.0836"/>
<polygon fill="#191970" stroke="#191970" points="1421.7715,-187.1365 1411.7226,-183.7795 1417.4847,-192.6704 1421.7715,-187.1365"/>
</g>
<!-- Node43 -->
<g id="node44" class="node">
<title>Node43</title>
<g id="a_node44"><a xlink:href="app__events_2include_2app__event__id_8h.html" target="_top" xlink:title="app_event_id.h">
<polygon fill="#ffffff" stroke="#000000" points="1483.5469,-165.5 1483.5469,-183.5 1567.9404,-183.5 1567.9404,-165.5 1483.5469,-165.5"/>
<text text-anchor="middle" x="1525.7437" y="-171.5" font-family="Helvetica,sans-Serif" font-size="10.00" fill="#000000">app_event_id.h</text>
</a>
</g>
</g>
<!-- Node42&#45;&gt;Node43 -->
<g id="edge61" class="edge">
<title>Node42&#45;&gt;Node43</title>
<path fill="none" stroke="#191970" d="M1479.8258,-220.4179C1487.8187,-212.425 1499.6533,-200.5903 1509.3059,-190.9377"/>
<polygon fill="#191970" stroke="#191970" points="1511.868,-193.3254 1516.4642,-183.7795 1506.9182,-188.3757 1511.868,-193.3254"/>
</g>
<!-- Node44 -->
<g id="node45" class="node">
<title>Node44</title>
<g id="a_node45"><a xlink:href="app__events_2include_2app__event__list_8h.html" target="_top" xlink:title="app_event_list.h">
<polygon fill="#ffffff" stroke="#000000" points="1709.3276,-110.5 1709.3276,-128.5 1798.1597,-128.5 1798.1597,-110.5 1709.3276,-110.5"/>
<text text-anchor="middle" x="1753.7437" y="-116.5" font-family="Helvetica,sans-Serif" font-size="10.00" fill="#000000">app_event_list.h</text>
</a>
</g>
</g>
<!-- Node42&#45;&gt;Node44 -->
<g id="edge62" class="edge">
<title>Node42&#45;&gt;Node44</title>
<path fill="none" stroke="#191970" d="M1493.9027,-220.4982C1544.0683,-200.9993 1662.9094,-154.8066 1720.846,-132.2871"/>
<polygon fill="#191970" stroke="#191970" points="1722.2119,-135.5113 1730.2646,-128.6261 1719.6759,-128.9868 1722.2119,-135.5113"/>
</g>
<!-- Node44&#45;&gt;Node35 -->
<g id="edge63" class="edge">
<title>Node44&#45;&gt;Node35</title>
<path fill="none" stroke="#191970" d="M1798.5712,-117.2636C1912.9202,-111.3609 2214.2655,-94.5142 2333.8902,-73.6819"/>
<polygon fill="#191970" stroke="#191970" points="2334.673,-77.0969 2343.8776,-71.8505 2333.4103,-70.2117 2334.673,-77.0969"/>
</g>
</g>
</svg>
