<?xml version="1.0" encoding="UTF-8" standalone="no"?>
<!DOCTYPE svg PUBLIC "-//W3C//DTD SVG 1.1//EN"
 "http://www.w3.org/Graphics/SVG/1.1/DTD/svg11.dtd">
<!-- Generated by graphviz version 2.40.1 (20161225.0304)
 -->
<!-- Title: src/main.c Pages: 1 -->
<svg width="1468pt" height="247pt"
 viewBox="0.00 0.00 1468.35 247.00" xmlns="http://www.w3.org/2000/svg" xmlns:xlink="http://www.w3.org/1999/xlink">
<g id="graph0" class="graph" transform="scale(1 1) rotate(0) translate(4 243)">
<title>src/main.c</title>
<polygon fill="#ffffff" stroke="transparent" points="-4,4 -4,-243 1464.3472,-243 1464.3472,4 -4,4"/>
<!-- Node0 -->
<g id="node1" class="node">
<title>Node0</title>
<polygon fill="#bfbfbf" stroke="#000000" points="1063.6157,-220.5 1063.6157,-238.5 1125.1772,-238.5 1125.1772,-220.5 1063.6157,-220.5"/>
<text text-anchor="middle" x="1094.3965" y="-226.5" font-family="Helvetica,sans-Serif" font-size="10.00" fill="#000000">src/main.c</text>
</g>
<!-- Node1 -->
<g id="node2" class="node">
<title>Node1</title>
<g id="a_node2"><a xlink:href="src_2include_2common_8h.html" target="_top" xlink:title="common.h">
<polygon fill="#ffffff" stroke="#000000" points="805.0542,-55.5 805.0542,-73.5 867.7388,-73.5 867.7388,-55.5 805.0542,-55.5"/>
<text text-anchor="middle" x="836.3965" y="-61.5" font-family="Helvetica,sans-Serif" font-size="10.00" fill="#000000">common.h</text>
</a>
</g>
</g>
<!-- Node0&#45;&gt;Node1 -->
<g id="edge1" class="edge">
<title>Node0&#45;&gt;Node1</title>
<path fill="none" stroke="#191970" d="M1063.5319,-227.7369C1005.9799,-223.8051 885.4713,-212.3309 856.3965,-184 829.5045,-157.7961 830.3906,-110.0359 833.3918,-83.5202"/>
<polygon fill="#191970" stroke="#191970" points="836.8641,-83.9599 834.7326,-73.5817 829.9269,-83.0239 836.8641,-83.9599"/>
</g>
<!-- Node22 -->
<g id="node23" class="node">
<title>Node22</title>
<g id="a_node23"><a xlink:href="src_2include_2context_8h.html" target="_top" xlink:title="context.h">
<polygon fill="#ffffff" stroke="#000000" points="864.106,-110.5 864.106,-128.5 920.687,-128.5 920.687,-110.5 864.106,-110.5"/>
<text text-anchor="middle" x="892.3965" y="-116.5" font-family="Helvetica,sans-Serif" font-size="10.00" fill="#000000">context.h</text>
</a>
</g>
</g>
<!-- Node0&#45;&gt;Node22 -->
<g id="edge22" class="edge">
<title>Node0&#45;&gt;Node22</title>
<path fill="none" stroke="#191970" d="M1063.57,-225.2922C1032.0015,-219.8341 982.5662,-208.0096 946.3965,-184 928.2308,-171.9415 912.8872,-152.0106 903.2524,-137.4908"/>
<polygon fill="#191970" stroke="#191970" points="906.0903,-135.4308 897.7731,-128.8677 900.1822,-139.185 906.0903,-135.4308"/>
</g>
<!-- Node23 -->
<g id="node24" class="node">
<title>Node23</title>
<g id="a_node24"><a xlink:href="src_2include_2cli_8h.html" target="_top" xlink:title="cli.h">
<polygon fill="#ffffff" stroke="#000000" points="865.5049,-165.5 865.5049,-183.5 899.2881,-183.5 899.2881,-165.5 865.5049,-165.5"/>
<text text-anchor="middle" x="882.3965" y="-171.5" font-family="Helvetica,sans-Serif" font-size="10.00" fill="#000000">cli.h</text>
</a>
</g>
</g>
<!-- Node0&#45;&gt;Node23 -->
<g id="edge24" class="edge">
<title>Node0&#45;&gt;Node23</title>
<path fill="none" stroke="#191970" d="M1063.5254,-222.2478C1027.3961,-213.6429 965.832,-198.6148 913.3965,-184 911.9731,-183.6033 910.5157,-183.188 909.0462,-182.7622"/>
<polygon fill="#191970" stroke="#191970" points="909.989,-179.3911 899.4056,-179.8835 907.9861,-186.0985 909.989,-179.3911"/>
</g>
<!-- Node24 -->
<g id="node25" class="node">
<title>Node24</title>
<g id="a_node25"><a xlink:href="events_2include_2event_8h.html" target="_top" xlink:title="event.h">
<polygon fill="#ffffff" stroke="#000000" points="954.9951,-165.5 954.9951,-183.5 1003.7979,-183.5 1003.7979,-165.5 954.9951,-165.5"/>
<text text-anchor="middle" x="979.3965" y="-171.5" font-family="Helvetica,sans-Serif" font-size="10.00" fill="#000000">event.h</text>
</a>
</g>
</g>
<!-- Node0&#45;&gt;Node24 -->
<g id="edge27" class="edge">
<title>Node0&#45;&gt;Node24</title>
<path fill="none" stroke="#191970" d="M1075.4066,-220.4179C1056.9288,-211.5807 1028.6317,-198.0473 1007.5382,-187.9591"/>
<polygon fill="#191970" stroke="#191970" points="1008.9461,-184.7528 998.4146,-183.5956 1005.9258,-191.0677 1008.9461,-184.7528"/>
</g>
<!-- Node27 -->
<g id="node28" class="node">
<title>Node27</title>
<g id="a_node28"><a xlink:href="app__events_2include_2app__event_8h.html" target="_top" xlink:title="app_event.h">
<polygon fill="#ffffff" stroke="#000000" points="1021.8721,-165.5 1021.8721,-183.5 1092.9209,-183.5 1092.9209,-165.5 1021.8721,-165.5"/>
<text text-anchor="middle" x="1057.3965" y="-171.5" font-family="Helvetica,sans-Serif" font-size="10.00" fill="#000000">app_event.h</text>
</a>
</g>
</g>
<!-- Node0&#45;&gt;Node27 -->
<g id="edge33" class="edge">
<title>Node0&#45;&gt;Node27</title>
<path fill="none" stroke="#191970" d="M1088.2867,-220.4179C1083.1226,-212.7415 1075.5747,-201.5217 1069.2328,-192.0945"/>
<polygon fill="#191970" stroke="#191970" points="1072.1249,-190.1231 1063.639,-183.7795 1066.3168,-194.0303 1072.1249,-190.1231"/>
</g>
<!-- Node30 -->
<g id="node31" class="node">
<title>Node30</title>
<polygon fill="#ffffff" stroke="#bfbfbf" points="1111.0566,-165.5 1111.0566,-183.5 1153.7363,-183.5 1153.7363,-165.5 1111.0566,-165.5"/>
<text text-anchor="middle" x="1132.3965" y="-171.5" font-family="Helvetica,sans-Serif" font-size="10.00" fill="#000000">fcntl.h</text>
</g>
<!-- Node0&#45;&gt;Node30 -->
<g id="edge39" class="edge">
<title>Node0&#45;&gt;Node30</title>
<path fill="none" stroke="#191970" d="M1100.6714,-220.4179C1105.9751,-212.7415 1113.7269,-201.5217 1120.2403,-192.0945"/>
<polygon fill="#191970" stroke="#191970" points="1123.1804,-193.9963 1125.9852,-183.7795 1117.4213,-190.0173 1123.1804,-193.9963"/>
</g>
<!-- Node31 -->
<g id="node32" class="node">
<title>Node31</title>
<polygon fill="#ffffff" stroke="#bfbfbf" points="1172.1626,-165.5 1172.1626,-183.5 1222.6304,-183.5 1222.6304,-165.5 1172.1626,-165.5"/>
<text text-anchor="middle" x="1197.3965" y="-171.5" font-family="Helvetica,sans-Serif" font-size="10.00" fill="#000000">signal.h</text>
</g>
<!-- Node0&#45;&gt;Node31 -->
<g id="edge40" class="edge">
<title>Node0&#45;&gt;Node31</title>
<path fill="none" stroke="#191970" d="M1111.4048,-220.4179C1127.7308,-211.7001 1152.6155,-198.4122 1171.4219,-188.3699"/>
<polygon fill="#191970" stroke="#191970" points="1173.1903,-191.3934 1180.3629,-183.5956 1169.8931,-185.2186 1173.1903,-191.3934"/>
</g>
<!-- Node32 -->
<g id="node33" class="node">
<title>Node32</title>
<polygon fill="#ffffff" stroke="#bfbfbf" points="1240.2783,-165.5 1240.2783,-183.5 1298.5146,-183.5 1298.5146,-165.5 1240.2783,-165.5"/>
<text text-anchor="middle" x="1269.3965" y="-171.5" font-family="Helvetica,sans-Serif" font-size="10.00" fill="#000000">sys/stat.h</text>
</g>
<!-- Node0&#45;&gt;Node32 -->
<g id="edge41" class="edge">
<title>Node0&#45;&gt;Node32</title>
<path fill="none" stroke="#191970" d="M1123.2942,-220.4179C1152.767,-211.155 1198.6568,-196.7325 1231.1319,-186.526"/>
<polygon fill="#191970" stroke="#191970" points="1232.2562,-189.8415 1240.7467,-183.5042 1230.1574,-183.1636 1232.2562,-189.8415"/>
</g>
<!-- Node33 -->
<g id="node34" class="node">
<title>Node33</title>
<polygon fill="#ffffff" stroke="#bfbfbf" points="1316.3867,-165.5 1316.3867,-183.5 1382.4063,-183.5 1382.4063,-165.5 1316.3867,-165.5"/>
<text text-anchor="middle" x="1349.3965" y="-171.5" font-family="Helvetica,sans-Serif" font-size="10.00" fill="#000000">sys/types.h</text>
</g>
<!-- Node0&#45;&gt;Node33 -->
<g id="edge42" class="edge">
<title>Node0&#45;&gt;Node33</title>
<path fill="none" stroke="#191970" d="M1125.4638,-222.9854C1165.0989,-214.6477 1236.0257,-199.6383 1306.0609,-184.2763"/>
<polygon fill="#191970" stroke="#191970" points="1306.9181,-187.6715 1315.9339,-182.1069 1305.4158,-180.8346 1306.9181,-187.6715"/>
</g>
<!-- Node34 -->
<g id="node35" class="node">
<title>Node34</title>
<polygon fill="#ffffff" stroke="#bfbfbf" points="1400.4458,-165.5 1400.4458,-183.5 1460.3472,-183.5 1460.3472,-165.5 1400.4458,-165.5"/>
<text text-anchor="middle" x="1430.3965" y="-171.5" font-family="Helvetica,sans-Serif" font-size="10.00" fill="#000000">sys/ioctl.h</text>
</g>
<!-- Node0&#45;&gt;Node34 -->
<g id="edge43" class="edge">
<title>Node0&#45;&gt;Node34</title>
<path fill="none" stroke="#191970" d="M1125.3348,-225.6617C1177.8107,-218.9571 1287.7849,-204.068 1390.3227,-184.0756"/>
<polygon fill="#191970" stroke="#191970" points="1391.0858,-187.4926 1400.2203,-182.125 1389.7322,-180.6247 1391.0858,-187.4926"/>
</g>
<!-- Node2 -->
<g id="node3" class="node">
<title>Node2</title>
<polygon fill="#ffffff" stroke="#bfbfbf" points="1210.665,-.5 1210.665,-18.5 1256.1279,-18.5 1256.1279,-.5 1210.665,-.5"/>
<text text-anchor="middle" x="1233.3965" y="-6.5" font-family="Helvetica,sans-Serif" font-size="10.00" fill="#000000">stdio.h</text>
</g>
<!-- Node1&#45;&gt;Node2 -->
<g id="edge2" class="edge">
<title>Node1&#45;&gt;Node2</title>
<path fill="none" stroke="#191970" d="M868.037,-62.4254C930.2276,-57.951 1072.8095,-45.7341 1200.5393,-19.115"/>
<polygon fill="#191970" stroke="#191970" points="1201.4337,-22.5032 1210.4902,-17.0051 1199.9817,-15.6554 1201.4337,-22.5032"/>
</g>
<!-- Node3 -->
<g id="node4" class="node">
<title>Node3</title>
<polygon fill="#ffffff" stroke="#bfbfbf" points="1273.8843,-.5 1273.8843,-18.5 1324.9087,-18.5 1324.9087,-.5 1273.8843,-.5"/>
<text text-anchor="middle" x="1299.3965" y="-6.5" font-family="Helvetica,sans-Serif" font-size="10.00" fill="#000000">unistd.h</text>
</g>
<!-- Node1&#45;&gt;Node3 -->
<g id="edge3" class="edge">
<title>Node1&#45;&gt;Node3</title>
<path fill="none" stroke="#191970" d="M867.8799,-62.9622C937.6567,-59.1708 1110.6267,-47.6614 1263.4761,-19.1168"/>
<polygon fill="#191970" stroke="#191970" points="1264.3416,-22.5151 1273.5137,-17.2118 1263.0364,-15.6378 1264.3416,-22.5151"/>
</g>
<!-- Node4 -->
<g id="node5" class="node">
<title>Node4</title>
<polygon fill="#ffffff" stroke="#bfbfbf" points="1342.5542,-.5 1342.5542,-18.5 1390.2388,-18.5 1390.2388,-.5 1342.5542,-.5"/>
<text text-anchor="middle" x="1366.3965" y="-6.5" font-family="Helvetica,sans-Serif" font-size="10.00" fill="#000000">stdlib.h</text>
</g>
<!-- Node1&#45;&gt;Node4 -->
<g id="edge4" class="edge">
<title>Node1&#45;&gt;Node4</title>
<path fill="none" stroke="#191970" d="M867.8715,-63.7761C945.5523,-61.5343 1152.5935,-52.7876 1332.5075,-19.0615"/>
<polygon fill="#191970" stroke="#191970" points="1333.2416,-22.4847 1342.4096,-17.1745 1331.9312,-15.6084 1333.2416,-22.4847"/>
</g>
<!-- Node5 -->
<g id="node6" class="node">
<title>Node5</title>
<polygon fill="#ffffff" stroke="#bfbfbf" points="0,-.5 0,-18.5 48.793,-18.5 48.793,-.5 0,-.5"/>
<text text-anchor="middle" x="24.3965" y="-6.5" font-family="Helvetica,sans-Serif" font-size="10.00" fill="#000000">string.h</text>
</g>
<!-- Node1&#45;&gt;Node5 -->
<g id="edge5" class="edge">
<title>Node1&#45;&gt;Node5</title>
<path fill="none" stroke="#191970" d="M804.9692,-63.5957C680.8953,-59.8845 224.2227,-44.8602 59.1078,-18.902"/>
<polygon fill="#191970" stroke="#191970" points="59.5618,-15.4297 49.1258,-17.2571 58.4237,-22.3365 59.5618,-15.4297"/>
</g>
<!-- Node6 -->
<g id="node7" class="node">
<title>Node6</title>
<polygon fill="#ffffff" stroke="#bfbfbf" points="66.3301,-.5 66.3301,-18.5 118.4629,-18.5 118.4629,-.5 66.3301,-.5"/>
<text text-anchor="middle" x="92.3965" y="-6.5" font-family="Helvetica,sans-Serif" font-size="10.00" fill="#000000">stdarg.h</text>
</g>
<!-- Node1&#45;&gt;Node6 -->
<g id="edge6" class="edge">
<title>Node1&#45;&gt;Node6</title>
<path fill="none" stroke="#191970" d="M805.0049,-63.3257C688.4228,-58.8372 279.7207,-41.9347 128.6438,-18.8343"/>
<polygon fill="#191970" stroke="#191970" points="129.0724,-15.3584 118.6446,-17.2322 127.9649,-22.2702 129.0724,-15.3584"/>
</g>
<!-- Node7 -->
<g id="node8" class="node">
<title>Node7</title>
<polygon fill="#ffffff" stroke="#bfbfbf" points="136.2759,-.5 136.2759,-18.5 184.5171,-18.5 184.5171,-.5 136.2759,-.5"/>
<text text-anchor="middle" x="160.3965" y="-6.5" font-family="Helvetica,sans-Serif" font-size="10.00" fill="#000000">stdint.h</text>
</g>
<!-- Node1&#45;&gt;Node7 -->
<g id="edge7" class="edge">
<title>Node1&#45;&gt;Node7</title>
<path fill="none" stroke="#191970" d="M804.8867,-63.1468C695.5553,-58.3184 332.1981,-41.1259 195.0227,-18.8825"/>
<polygon fill="#191970" stroke="#191970" points="195.2168,-15.3651 184.7706,-17.1339 194.0398,-22.2655 195.2168,-15.3651"/>
</g>
<!-- Node8 -->
<g id="node9" class="node">
<title>Node8</title>
<polygon fill="#ffffff" stroke="#bfbfbf" points="202.2686,-.5 202.2686,-18.5 260.5244,-18.5 260.5244,-.5 202.2686,-.5"/>
<text text-anchor="middle" x="231.3965" y="-6.5" font-family="Helvetica,sans-Serif" font-size="10.00" fill="#000000">pthread.h</text>
</g>
<!-- Node1&#45;&gt;Node8 -->
<g id="edge8" class="edge">
<title>Node1&#45;&gt;Node8</title>
<path fill="none" stroke="#191970" d="M804.8284,-63.7898C719.8763,-61.493 479.2874,-52.4466 270.6646,-18.961"/>
<polygon fill="#191970" stroke="#191970" points="271.1875,-15.5002 260.755,-17.3479 270.0628,-22.4092 271.1875,-15.5002"/>
</g>
<!-- Node9 -->
<g id="node10" class="node">
<title>Node9</title>
<polygon fill="#ffffff" stroke="#bfbfbf" points="278.2759,-.5 278.2759,-18.5 326.5171,-18.5 326.5171,-.5 278.2759,-.5"/>
<text text-anchor="middle" x="302.3965" y="-6.5" font-family="Helvetica,sans-Serif" font-size="10.00" fill="#000000">ctype.h</text>
</g>
<!-- Node1&#45;&gt;Node9 -->
<g id="edge9" class="edge">
<title>Node1&#45;&gt;Node9</title>
<path fill="none" stroke="#191970" d="M805.0403,-63.7147C727.1591,-61.3278 518.6556,-52.2657 336.791,-18.9424"/>
<polygon fill="#191970" stroke="#191970" points="337.2525,-15.4683 326.7808,-17.0784 335.971,-22.35 337.2525,-15.4683"/>
</g>
<!-- Node10 -->
<g id="node11" class="node">
<title>Node10</title>
<polygon fill="#ffffff" stroke="#bfbfbf" points="344.5542,-.5 344.5542,-18.5 392.2388,-18.5 392.2388,-.5 344.5542,-.5"/>
<text text-anchor="middle" x="368.3965" y="-6.5" font-family="Helvetica,sans-Serif" font-size="10.00" fill="#000000">errno.h</text>
</g>
<!-- Node1&#45;&gt;Node10 -->
<g id="edge10" class="edge">
<title>Node1&#45;&gt;Node10</title>
<path fill="none" stroke="#191970" d="M804.9074,-63.2078C734.2849,-59.8864 557.8563,-49.2308 402.5855,-19.1501"/>
<polygon fill="#191970" stroke="#191970" points="402.8781,-15.6405 392.39,-17.1405 401.5243,-22.5084 402.8781,-15.6405"/>
</g>
<!-- Node11 -->
<g id="node12" class="node">
<title>Node11</title>
<polygon fill="#ffffff" stroke="#bfbfbf" points="409.7686,-.5 409.7686,-18.5 473.0244,-18.5 473.0244,-.5 409.7686,-.5"/>
<text text-anchor="middle" x="441.3965" y="-6.5" font-family="Helvetica,sans-Serif" font-size="10.00" fill="#000000">arpa/inet.h</text>
</g>
<!-- Node1&#45;&gt;Node11 -->
<g id="edge11" class="edge">
<title>Node1&#45;&gt;Node11</title>
<path fill="none" stroke="#191970" d="M804.9819,-61.5266C744.635,-55.5865 608.1599,-41.0498 483.2379,-18.9881"/>
<polygon fill="#191970" stroke="#191970" points="483.5757,-15.4931 473.1159,-17.1792 482.3442,-22.3839 483.5757,-15.4931"/>
</g>
<!-- Node12 -->
<g id="node13" class="node">
<title>Node12</title>
<polygon fill="#ffffff" stroke="#bfbfbf" points="490.9336,-.5 490.9336,-18.5 555.8594,-18.5 555.8594,-.5 490.9336,-.5"/>
<text text-anchor="middle" x="523.3965" y="-6.5" font-family="Helvetica,sans-Serif" font-size="10.00" fill="#000000">netinet/in.h</text>
</g>
<!-- Node1&#45;&gt;Node12 -->
<g id="edge12" class="edge">
<title>Node1&#45;&gt;Node12</title>
<path fill="none" stroke="#191970" d="M804.8687,-59.8751C755.8548,-52.5447 658.2088,-37.3807 566.0773,-19.2474"/>
<polygon fill="#191970" stroke="#191970" points="566.5208,-15.7672 556.0308,-17.2536 565.1581,-22.6333 566.5208,-15.7672"/>
</g>
<!-- Node13 -->
<g id="node14" class="node">
<title>Node13</title>
<polygon fill="#ffffff" stroke="#bfbfbf" points="573.5396,-.5 573.5396,-18.5 651.2534,-18.5 651.2534,-.5 573.5396,-.5"/>
<text text-anchor="middle" x="612.3965" y="-6.5" font-family="Helvetica,sans-Serif" font-size="10.00" fill="#000000">net/ethernet.h</text>
</g>
<!-- Node1&#45;&gt;Node13 -->
<g id="edge13" class="edge">
<title>Node1&#45;&gt;Node13</title>
<path fill="none" stroke="#191970" d="M804.7778,-56.7365C766.7379,-47.3963 702.5511,-31.6362 658.8721,-20.9114"/>
<polygon fill="#191970" stroke="#191970" points="659.6065,-17.4879 649.0604,-18.5023 657.9373,-24.2859 659.6065,-17.4879"/>
</g>
<!-- Node14 -->
<g id="node15" class="node">
<title>Node14</title>
<polygon fill="#ffffff" stroke="#bfbfbf" points="668.9336,-.5 668.9336,-18.5 733.8594,-18.5 733.8594,-.5 668.9336,-.5"/>
<text text-anchor="middle" x="701.3965" y="-6.5" font-family="Helvetica,sans-Serif" font-size="10.00" fill="#000000">netinet/ip.h</text>
</g>
<!-- Node1&#45;&gt;Node14 -->
<g id="edge14" class="edge">
<title>Node1&#45;&gt;Node14</title>
<path fill="none" stroke="#191970" d="M814.104,-55.4179C792.0219,-46.4215 757.9935,-32.5581 733.1022,-22.4172"/>
<polygon fill="#191970" stroke="#191970" points="734.3036,-19.1273 723.7221,-18.5956 731.6625,-25.61 734.3036,-19.1273"/>
</g>
<!-- Node15 -->
<g id="node16" class="node">
<title>Node15</title>
<polygon fill="#ffffff" stroke="#bfbfbf" points="752.1553,-.5 752.1553,-18.5 822.6377,-18.5 822.6377,-.5 752.1553,-.5"/>
<text text-anchor="middle" x="787.3965" y="-6.5" font-family="Helvetica,sans-Serif" font-size="10.00" fill="#000000">netinet/tcp.h</text>
</g>
<!-- Node1&#45;&gt;Node15 -->
<g id="edge15" class="edge">
<title>Node1&#45;&gt;Node15</title>
<path fill="none" stroke="#191970" d="M828.3051,-55.4179C821.3252,-47.5833 811.0568,-36.0575 802.5541,-26.5137"/>
<polygon fill="#191970" stroke="#191970" points="804.929,-23.9178 795.6636,-18.7795 799.7024,-28.5743 804.929,-23.9178"/>
</g>
<!-- Node16 -->
<g id="node17" class="node">
<title>Node16</title>
<polygon fill="#ffffff" stroke="#bfbfbf" points="840.5962,-.5 840.5962,-18.5 932.1968,-18.5 932.1968,-.5 840.5962,-.5"/>
<text text-anchor="middle" x="886.3965" y="-6.5" font-family="Helvetica,sans-Serif" font-size="10.00" fill="#000000">netinet/ip_icmp.h</text>
</g>
<!-- Node1&#45;&gt;Node16 -->
<g id="edge16" class="edge">
<title>Node1&#45;&gt;Node16</title>
<path fill="none" stroke="#191970" d="M844.653,-55.4179C851.8473,-47.5041 862.4653,-35.8243 871.1919,-26.2251"/>
<polygon fill="#191970" stroke="#191970" points="873.8237,-28.5332 877.9606,-18.7795 868.6441,-23.8245 873.8237,-28.5332"/>
</g>
<!-- Node17 -->
<g id="node18" class="node">
<title>Node17</title>
<polygon fill="#ffffff" stroke="#bfbfbf" points="949.9927,-.5 949.9927,-18.5 1008.8003,-18.5 1008.8003,-.5 949.9927,-.5"/>
<text text-anchor="middle" x="979.3965" y="-6.5" font-family="Helvetica,sans-Serif" font-size="10.00" fill="#000000">jansson.h</text>
</g>
<!-- Node1&#45;&gt;Node17 -->
<g id="edge17" class="edge">
<title>Node1&#45;&gt;Node17</title>
<path fill="none" stroke="#191970" d="M860.01,-55.4179C883.5042,-46.3817 919.7648,-32.4353 946.1613,-22.2828"/>
<polygon fill="#191970" stroke="#191970" points="947.6708,-25.4522 955.7479,-18.5956 945.158,-18.9188 947.6708,-25.4522"/>
</g>
<!-- Node18 -->
<g id="node19" class="node">
<title>Node18</title>
<polygon fill="#ffffff" stroke="#bfbfbf" points="1026.5024,-.5 1026.5024,-18.5 1070.2905,-18.5 1070.2905,-.5 1026.5024,-.5"/>
<text text-anchor="middle" x="1048.3965" y="-6.5" font-family="Helvetica,sans-Serif" font-size="10.00" fill="#000000">libcli.h</text>
</g>
<!-- Node1&#45;&gt;Node18 -->
<g id="edge18" class="edge">
<title>Node1&#45;&gt;Node18</title>
<path fill="none" stroke="#191970" d="M867.9154,-57.0934C902.2197,-48.9191 958.8937,-35.0856 1016.7515,-19.0788"/>
<polygon fill="#191970" stroke="#191970" points="1017.7273,-22.4403 1026.4218,-16.3859 1015.8494,-15.6969 1017.7273,-22.4403"/>
</g>
<!-- Node19 -->
<g id="node20" class="node">
<title>Node19</title>
<polygon fill="#ffffff" stroke="#bfbfbf" points="1088.7808,-.5 1088.7808,-18.5 1132.0122,-18.5 1132.0122,-.5 1088.7808,-.5"/>
<text text-anchor="middle" x="1110.3965" y="-6.5" font-family="Helvetica,sans-Serif" font-size="10.00" fill="#000000">zmq.h</text>
</g>
<!-- Node1&#45;&gt;Node19 -->
<g id="edge19" class="edge">
<title>Node1&#45;&gt;Node19</title>
<path fill="none" stroke="#191970" d="M868.0949,-59.7307C912.8966,-52.7375 997.4374,-38.6165 1078.589,-18.9763"/>
<polygon fill="#191970" stroke="#191970" points="1079.5874,-22.3352 1088.4658,-16.5538 1077.9199,-15.5367 1079.5874,-22.3352"/>
</g>
<!-- Node20 -->
<g id="node21" class="node">
<title>Node20</title>
<g id="a_node21"><a xlink:href="src_2include_2type_8h.html" target="_top" xlink:title="type.h">
<polygon fill="#ffffff" stroke="#000000" points="1407.7759,-.5 1407.7759,-18.5 1451.0171,-18.5 1451.0171,-.5 1407.7759,-.5"/>
<text text-anchor="middle" x="1429.3965" y="-6.5" font-family="Helvetica,sans-Serif" font-size="10.00" fill="#000000">type.h</text>
</a>
</g>
</g>
<!-- Node1&#45;&gt;Node20 -->
<g id="edge20" class="edge">
<title>Node1&#45;&gt;Node20</title>
<path fill="none" stroke="#191970" d="M867.849,-62.8962C967.7632,-57.6587 1277.9325,-40.2645 1397.62,-18.9102"/>
<polygon fill="#191970" stroke="#191970" points="1398.4101,-22.323 1407.5898,-17.0332 1397.1149,-15.4439 1398.4101,-22.323"/>
</g>
<!-- Node21 -->
<g id="node22" class="node">
<title>Node21</title>
<polygon fill="#ffffff" stroke="#bfbfbf" points="1149.7808,-.5 1149.7808,-18.5 1193.0122,-18.5 1193.0122,-.5 1149.7808,-.5"/>
<text text-anchor="middle" x="1171.3965" y="-6.5" font-family="Helvetica,sans-Serif" font-size="10.00" fill="#000000">time.h</text>
</g>
<!-- Node1&#45;&gt;Node21 -->
<g id="edge21" class="edge">
<title>Node1&#45;&gt;Node21</title>
<path fill="none" stroke="#191970" d="M867.8781,-61.4688C921.8126,-55.9189 1035.4236,-42.6727 1139.5115,-19.1652"/>
<polygon fill="#191970" stroke="#191970" points="1140.5902,-22.5086 1149.5524,-16.8582 1139.0226,-15.6864 1140.5902,-22.5086"/>
</g>
<!-- Node22&#45;&gt;Node1 -->
<g id="edge23" class="edge">
<title>Node22&#45;&gt;Node1</title>
<path fill="none" stroke="#191970" d="M883.1492,-110.4179C875.011,-102.425 862.9612,-90.5903 853.1331,-80.9377"/>
<polygon fill="#191970" stroke="#191970" points="855.4317,-78.2895 845.8447,-73.7795 850.5267,-83.2836 855.4317,-78.2895"/>
</g>
<!-- Node23&#45;&gt;Node1 -->
<g id="edge25" class="edge">
<title>Node23&#45;&gt;Node1</title>
<path fill="none" stroke="#191970" d="M876.1049,-165.4506C870.1208,-156.5179 861.195,-142.3042 855.3965,-129 848.9105,-114.1183 843.8645,-96.3718 840.608,-83.2642"/>
<polygon fill="#191970" stroke="#191970" points="844.0087,-82.4356 838.301,-73.5096 837.1966,-84.0467 844.0087,-82.4356"/>
</g>
<!-- Node23&#45;&gt;Node22 -->
<g id="edge26" class="edge">
<title>Node23&#45;&gt;Node22</title>
<path fill="none" stroke="#191970" d="M884.0478,-165.4179C885.3571,-158.2164 887.2335,-147.8962 888.8759,-138.8632"/>
<polygon fill="#191970" stroke="#191970" points="892.3639,-139.2443 890.7093,-128.7795 885.4768,-137.992 892.3639,-139.2443"/>
</g>
<!-- Node24&#45;&gt;Node1 -->
<g id="edge28" class="edge">
<title>Node24&#45;&gt;Node1</title>
<path fill="none" stroke="#191970" d="M989.3476,-165.476C1002.6241,-152.3407 1022.9698,-127.6048 1009.3965,-110 993.442,-89.3068 923.7142,-76.1586 877.7989,-69.5773"/>
<polygon fill="#191970" stroke="#191970" points="878.2088,-66.1007 867.8233,-68.1963 877.2489,-73.0346 878.2088,-66.1007"/>
</g>
<!-- Node24&#45;&gt;Node22 -->
<g id="edge29" class="edge">
<title>Node24&#45;&gt;Node22</title>
<path fill="none" stroke="#191970" d="M965.0302,-165.4179C951.5551,-156.8992 931.1772,-144.0166 915.4321,-134.0627"/>
<polygon fill="#191970" stroke="#191970" points="917.107,-130.9808 906.7841,-128.5956 913.3664,-136.8977 917.107,-130.9808"/>
</g>
<!-- Node25 -->
<g id="node26" class="node">
<title>Node25</title>
<g id="a_node26"><a xlink:href="events_2include_2event__id_8h.html" target="_top" xlink:title="event_id.h">
<polygon fill="#ffffff" stroke="#000000" points="938.3228,-110.5 938.3228,-128.5 1000.4702,-128.5 1000.4702,-110.5 938.3228,-110.5"/>
<text text-anchor="middle" x="969.3965" y="-116.5" font-family="Helvetica,sans-Serif" font-size="10.00" fill="#000000">event_id.h</text>
</a>
</g>
</g>
<!-- Node24&#45;&gt;Node25 -->
<g id="edge30" class="edge">
<title>Node24&#45;&gt;Node25</title>
<path fill="none" stroke="#191970" d="M977.7452,-165.4179C976.4358,-158.2164 974.5594,-147.8962 972.9171,-138.8632"/>
<polygon fill="#191970" stroke="#191970" points="976.3161,-137.992 971.0837,-128.7795 969.429,-139.2443 976.3161,-137.992"/>
</g>
<!-- Node26 -->
<g id="node27" class="node">
<title>Node26</title>
<g id="a_node27"><a xlink:href="events_2include_2event__list_8h.html" target="_top" xlink:title="event_list.h">
<polygon fill="#ffffff" stroke="#000000" points="1100.1035,-55.5 1100.1035,-73.5 1166.6895,-73.5 1166.6895,-55.5 1100.1035,-55.5"/>
<text text-anchor="middle" x="1133.3965" y="-61.5" font-family="Helvetica,sans-Serif" font-size="10.00" fill="#000000">event_list.h</text>
</a>
</g>
</g>
<!-- Node24&#45;&gt;Node26 -->
<g id="edge31" class="edge">
<title>Node24&#45;&gt;Node26</title>
<path fill="none" stroke="#191970" d="M991.999,-165.4982C1018.3951,-146.6439 1079.7324,-102.8315 1112.2618,-79.5962"/>
<polygon fill="#191970" stroke="#191970" points="1114.5169,-82.2866 1120.6199,-73.6261 1110.4482,-76.5905 1114.5169,-82.2866"/>
</g>
<!-- Node26&#45;&gt;Node20 -->
<g id="edge32" class="edge">
<title>Node26&#45;&gt;Node20</title>
<path fill="none" stroke="#191970" d="M1166.8718,-60.2771C1215.7592,-53.785 1309.6562,-40.0885 1397.6688,-19.1844"/>
<polygon fill="#191970" stroke="#191970" points="1398.6391,-22.5508 1407.5394,-16.8031 1396.9974,-15.746 1398.6391,-22.5508"/>
</g>
<!-- Node27&#45;&gt;Node1 -->
<g id="edge34" class="edge">
<title>Node27&#45;&gt;Node1</title>
<path fill="none" stroke="#191970" d="M1055.6413,-165.4703C1052.4187,-151.3955 1044.1877,-124.3551 1026.3965,-110 1003.8467,-91.8055 926.7715,-77.6309 877.992,-70.2143"/>
<polygon fill="#191970" stroke="#191970" points="878.4482,-66.7437 868.0423,-68.7352 877.4189,-73.6676 878.4482,-66.7437"/>
</g>
<!-- Node27&#45;&gt;Node22 -->
<g id="edge35" class="edge">
<title>Node27&#45;&gt;Node22</title>
<path fill="none" stroke="#191970" d="M1030.1501,-165.4179C1002.601,-156.2348 959.8387,-141.9807 929.2692,-131.7909"/>
<polygon fill="#191970" stroke="#191970" points="930.0028,-128.3462 919.4091,-128.5042 927.7891,-134.9869 930.0028,-128.3462"/>
</g>
<!-- Node28 -->
<g id="node29" class="node">
<title>Node28</title>
<g id="a_node29"><a xlink:href="app__events_2include_2app__event__id_8h.html" target="_top" xlink:title="app_event_id.h">
<polygon fill="#ffffff" stroke="#000000" points="1170.1997,-110.5 1170.1997,-128.5 1254.5933,-128.5 1254.5933,-110.5 1170.1997,-110.5"/>
<text text-anchor="middle" x="1212.3965" y="-116.5" font-family="Helvetica,sans-Serif" font-size="10.00" fill="#000000">app_event_id.h</text>
</a>
</g>
</g>
<!-- Node27&#45;&gt;Node28 -->
<g id="edge36" class="edge">
<title>Node27&#45;&gt;Node28</title>
<path fill="none" stroke="#191970" d="M1082.9916,-165.4179C1108.7585,-156.2748 1148.6926,-142.1046 1177.3833,-131.924"/>
<polygon fill="#191970" stroke="#191970" points="1178.7672,-135.1469 1187.021,-128.5042 1176.4262,-128.5499 1178.7672,-135.1469"/>
</g>
<!-- Node29 -->
<g id="node30" class="node">
<title>Node29</title>
<g id="a_node30"><a xlink:href="app__events_2include_2app__event__list_8h.html" target="_top" xlink:title="app_event_list.h">
<polygon fill="#ffffff" stroke="#000000" points="1317.9805,-55.5 1317.9805,-73.5 1406.8125,-73.5 1406.8125,-55.5 1317.9805,-55.5"/>
<text text-anchor="middle" x="1362.3965" y="-61.5" font-family="Helvetica,sans-Serif" font-size="10.00" fill="#000000">app_event_list.h</text>
</a>
</g>
</g>
<!-- Node27&#45;&gt;Node29 -->
<g id="edge37" class="edge">
<title>Node27&#45;&gt;Node29</title>
<path fill="none" stroke="#191970" d="M1069.1671,-165.3529C1087.734,-151.3668 1125.4191,-124.7414 1161.3965,-110 1208.8564,-90.5537 1266.1905,-78.6189 1307.4587,-71.8808"/>
<polygon fill="#191970" stroke="#191970" points="1308.2584,-75.2979 1317.5887,-70.2783 1307.1646,-68.3839 1308.2584,-75.2979"/>
</g>
<!-- Node29&#45;&gt;Node20 -->
<g id="edge38" class="edge">
<title>Node29&#45;&gt;Node20</title>
<path fill="none" stroke="#191970" d="M1373.4602,-55.4179C1383.3898,-47.2667 1398.1865,-35.1201 1410.0677,-25.3669"/>
<polygon fill="#191970" stroke="#191970" points="1412.5839,-27.8297 1418.0924,-18.7795 1408.1424,-22.4192 1412.5839,-27.8297"/>
</g>
</g>
</svg>
