<?xml version="1.0" encoding="UTF-8" standalone="no"?>
<!DOCTYPE svg PUBLIC "-//W3C//DTD SVG 1.1//EN"
 "http://www.w3.org/Graphics/SVG/1.1/DTD/svg11.dtd">
<!-- Generated by graphviz version 2.40.1 (20161225.0304)
 -->
<!-- Title: events/include/odp_partial.h Pages: 1 -->
<svg width="232pt" height="92pt"
 viewBox="0.00 0.00 231.73 92.00" xmlns="http://www.w3.org/2000/svg" xmlns:xlink="http://www.w3.org/1999/xlink">
<g id="graph0" class="graph" transform="scale(1 1) rotate(0) translate(4 88)">
<title>events/include/odp_partial.h</title>
<polygon fill="#ffffff" stroke="transparent" points="-4,4 -4,-88 227.7285,-88 227.7285,4 -4,4"/>
<!-- Node1 -->
<g id="node1" class="node">
<title>Node1</title>
<polygon fill="#bfbfbf" stroke="#000000" points="72.7905,-55.5 72.7905,-83.5 172.1841,-83.5 172.1841,-55.5 72.7905,-55.5"/>
<text text-anchor="start" x="80.7905" y="-71.5" font-family="Helvetica,sans-Serif" font-size="10.00" fill="#000000">events/include/odp</text>
<text text-anchor="middle" x="122.4873" y="-61.5" font-family="Helvetica,sans-Serif" font-size="10.00" fill="#000000">_partial.h</text>
</g>
<!-- Node2 -->
<g id="node2" class="node">
<title>Node2</title>
<g id="a_node2"><a xlink:href="app__events_2app__event_8c.html" target="_top" xlink:title="app_events/app_event.c">
<polygon fill="#ffffff" stroke="#000000" points="0,-.5 0,-18.5 124.9746,-18.5 124.9746,-.5 0,-.5"/>
<text text-anchor="middle" x="62.4873" y="-6.5" font-family="Helvetica,sans-Serif" font-size="10.00" fill="#000000">app_events/app_event.c</text>
</a>
</g>
</g>
<!-- Node1&#45;&gt;Node2 -->
<g id="edge1" class="edge">
<title>Node1&#45;&gt;Node2</title>
<path fill="none" stroke="#191970" d="M100.9032,-47.9159C90.809,-37.8217 79.3319,-26.3446 71.5715,-18.5842"/>
<polygon fill="#191970" stroke="#191970" points="98.7222,-50.6846 108.2681,-55.2808 103.6719,-45.7349 98.7222,-50.6846"/>
</g>
<!-- Node3 -->
<g id="node3" class="node">
<title>Node3</title>
<g id="a_node3"><a xlink:href="events_2event_8c.html" target="_top" xlink:title="events/event.c">
<polygon fill="#ffffff" stroke="#000000" points="143.2461,-.5 143.2461,-18.5 223.7285,-18.5 223.7285,-.5 143.2461,-.5"/>
<text text-anchor="middle" x="183.4873" y="-6.5" font-family="Helvetica,sans-Serif" font-size="10.00" fill="#000000">events/event.c</text>
</a>
</g>
</g>
<!-- Node1&#45;&gt;Node3 -->
<g id="edge2" class="edge">
<title>Node1&#45;&gt;Node3</title>
<path fill="none" stroke="#191970" d="M144.1298,-48.2123C154.4644,-38.0471 166.2846,-26.4206 174.2517,-18.5842"/>
<polygon fill="#191970" stroke="#191970" points="141.6184,-45.7732 136.9435,-55.2808 146.5271,-50.7637 141.6184,-45.7732"/>
</g>
</g>
</svg>
