<?xml version="1.0" encoding="UTF-8" standalone="no"?>
<!DOCTYPE svg PUBLIC "-//W3C//DTD SVG 1.1//EN"
 "http://www.w3.org/Graphics/SVG/1.1/DTD/svg11.dtd">
<!-- Generated by graphviz version 2.40.1 (20161225.0304)
 -->
<!-- Title: components/include/ofp10.h Pages: 1 -->
<svg width="1603pt" height="257pt"
 viewBox="0.00 0.00 1603.35 257.00" xmlns="http://www.w3.org/2000/svg" xmlns:xlink="http://www.w3.org/1999/xlink">
<g id="graph0" class="graph" transform="scale(1 1) rotate(0) translate(4 253)">
<title>components/include/ofp10.h</title>
<polygon fill="#ffffff" stroke="transparent" points="-4,4 -4,-253 1599.3521,-253 1599.3521,4 -4,4"/>
<!-- Node0 -->
<g id="node1" class="node">
<title>Node0</title>
<polygon fill="#bfbfbf" stroke="#000000" points="921.2588,-220.5 921.2588,-248.5 1026.2041,-248.5 1026.2041,-220.5 921.2588,-220.5"/>
<text text-anchor="start" x="929.2588" y="-236.5" font-family="Helvetica,sans-Serif" font-size="10.00" fill="#000000">components/include</text>
<text text-anchor="middle" x="973.7314" y="-226.5" font-family="Helvetica,sans-Serif" font-size="10.00" fill="#000000">/ofp10.h</text>
</g>
<!-- Node1 -->
<g id="node2" class="node">
<title>Node1</title>
<g id="a_node2"><a xlink:href="src_2include_2common_8h.html" target="_top" xlink:title="common.h">
<polygon fill="#ffffff" stroke="#000000" points="867.3892,-55.5 867.3892,-73.5 930.0737,-73.5 930.0737,-55.5 867.3892,-55.5"/>
<text text-anchor="middle" x="898.7314" y="-61.5" font-family="Helvetica,sans-Serif" font-size="10.00" fill="#000000">common.h</text>
</a>
</g>
</g>
<!-- Node0&#45;&gt;Node1 -->
<g id="edge1" class="edge">
<title>Node0&#45;&gt;Node1</title>
<path fill="none" stroke="#191970" d="M963.2821,-220.4421C956.2812,-210.5912 947.1969,-196.9264 940.7314,-184 923.7468,-150.0427 910.5679,-107.533 903.7871,-83.4531"/>
<polygon fill="#191970" stroke="#191970" points="907.0791,-82.2233 901.0571,-73.5063 900.3287,-84.0761 907.0791,-82.2233"/>
</g>
<!-- Node24 -->
<g id="node25" class="node">
<title>Node24</title>
<g id="a_node25"><a xlink:href="events_2include_2event_8h.html" target="_top" xlink:title="event.h">
<polygon fill="#ffffff" stroke="#000000" points="949.3301,-165.5 949.3301,-183.5 998.1328,-183.5 998.1328,-165.5 949.3301,-165.5"/>
<text text-anchor="middle" x="973.7314" y="-171.5" font-family="Helvetica,sans-Serif" font-size="10.00" fill="#000000">event.h</text>
</a>
</g>
</g>
<!-- Node0&#45;&gt;Node24 -->
<g id="edge26" class="edge">
<title>Node0&#45;&gt;Node24</title>
<path fill="none" stroke="#191970" d="M973.7314,-220.2808C973.7314,-212.3776 973.7314,-202.4316 973.7314,-193.8308"/>
<polygon fill="#191970" stroke="#191970" points="977.2315,-193.5842 973.7314,-183.5842 970.2315,-193.5842 977.2315,-193.5842"/>
</g>
<!-- Node28 -->
<g id="node29" class="node">
<title>Node28</title>
<polygon fill="#ffffff" stroke="#bfbfbf" points="1015.9854,-165.5 1015.9854,-183.5 1091.4775,-183.5 1091.4775,-165.5 1015.9854,-165.5"/>
<text text-anchor="middle" x="1053.7314" y="-171.5" font-family="Helvetica,sans-Serif" font-size="10.00" fill="#000000">openflow10.h</text>
</g>
<!-- Node0&#45;&gt;Node28 -->
<g id="edge33" class="edge">
<title>Node0&#45;&gt;Node28</title>
<path fill="none" stroke="#191970" d="M992.6903,-220.2808C1005.004,-211.0456 1021.0367,-199.021 1033.5808,-189.613"/>
<polygon fill="#191970" stroke="#191970" points="1035.7192,-192.3842 1041.6192,-183.5842 1031.5192,-186.7842 1035.7192,-192.3842"/>
</g>
<!-- Node2 -->
<g id="node3" class="node">
<title>Node2</title>
<polygon fill="#ffffff" stroke="#bfbfbf" points="0,-.5 0,-18.5 45.4629,-18.5 45.4629,-.5 0,-.5"/>
<text text-anchor="middle" x="22.7314" y="-6.5" font-family="Helvetica,sans-Serif" font-size="10.00" fill="#000000">stdio.h</text>
</g>
<!-- Node1&#45;&gt;Node2 -->
<g id="edge2" class="edge">
<title>Node1&#45;&gt;Node2</title>
<path fill="none" stroke="#191970" d="M867.376,-63.8331C736.7038,-60.8999 234.3061,-48.0524 55.6361,-18.9046"/>
<polygon fill="#191970" stroke="#191970" points="56.0487,-15.4244 45.6018,-17.1886 54.8687,-22.3242 56.0487,-15.4244"/>
</g>
<!-- Node3 -->
<g id="node4" class="node">
<title>Node3</title>
<polygon fill="#ffffff" stroke="#bfbfbf" points="63.2192,-.5 63.2192,-18.5 114.2437,-18.5 114.2437,-.5 63.2192,-.5"/>
<text text-anchor="middle" x="88.7314" y="-6.5" font-family="Helvetica,sans-Serif" font-size="10.00" fill="#000000">unistd.h</text>
</g>
<!-- Node1&#45;&gt;Node3 -->
<g id="edge3" class="edge">
<title>Node1&#45;&gt;Node3</title>
<path fill="none" stroke="#191970" d="M867.0012,-63.5455C742.8019,-59.6721 288.8062,-44.1951 124.5234,-18.9396"/>
<polygon fill="#191970" stroke="#191970" points="125.0205,-15.4747 114.5912,-17.3404 123.9077,-22.3856 125.0205,-15.4747"/>
</g>
<!-- Node4 -->
<g id="node5" class="node">
<title>Node4</title>
<polygon fill="#ffffff" stroke="#bfbfbf" points="131.8892,-.5 131.8892,-18.5 179.5737,-18.5 179.5737,-.5 131.8892,-.5"/>
<text text-anchor="middle" x="155.7314" y="-6.5" font-family="Helvetica,sans-Serif" font-size="10.00" fill="#000000">stdlib.h</text>
</g>
<!-- Node1&#45;&gt;Node4 -->
<g id="edge4" class="edge">
<title>Node1&#45;&gt;Node4</title>
<path fill="none" stroke="#191970" d="M867.2849,-63.3902C750.5003,-59.1315 341.1032,-42.945 189.7585,-18.7433"/>
<polygon fill="#191970" stroke="#191970" points="190.183,-15.2657 179.7416,-17.0624 189.0245,-22.1692 190.183,-15.2657"/>
</g>
<!-- Node5 -->
<g id="node6" class="node">
<title>Node5</title>
<polygon fill="#ffffff" stroke="#bfbfbf" points="197.335,-.5 197.335,-18.5 246.1279,-18.5 246.1279,-.5 197.335,-.5"/>
<text text-anchor="middle" x="221.7314" y="-6.5" font-family="Helvetica,sans-Serif" font-size="10.00" fill="#000000">string.h</text>
</g>
<!-- Node1&#45;&gt;Node5 -->
<g id="edge5" class="edge">
<title>Node1&#45;&gt;Node5</title>
<path fill="none" stroke="#191970" d="M867.1727,-63.1486C757.6713,-58.3262 393.7491,-41.1512 256.7068,-18.9677"/>
<polygon fill="#191970" stroke="#191970" points="256.9122,-15.4524 246.4666,-17.2238 255.737,-22.353 256.9122,-15.4524"/>
</g>
<!-- Node6 -->
<g id="node7" class="node">
<title>Node6</title>
<polygon fill="#ffffff" stroke="#bfbfbf" points="263.665,-.5 263.665,-18.5 315.7979,-18.5 315.7979,-.5 263.665,-.5"/>
<text text-anchor="middle" x="289.7314" y="-6.5" font-family="Helvetica,sans-Serif" font-size="10.00" fill="#000000">stdarg.h</text>
</g>
<!-- Node1&#45;&gt;Node6 -->
<g id="edge6" class="edge">
<title>Node1&#45;&gt;Node6</title>
<path fill="none" stroke="#191970" d="M867.3658,-64.056C781.8402,-62.4141 537.3891,-54.8443 326.026,-18.9211"/>
<polygon fill="#191970" stroke="#191970" points="326.4364,-15.4402 315.9869,-17.1889 325.2462,-22.3383 326.4364,-15.4402"/>
</g>
<!-- Node7 -->
<g id="node8" class="node">
<title>Node7</title>
<polygon fill="#ffffff" stroke="#bfbfbf" points="333.6108,-.5 333.6108,-18.5 381.8521,-18.5 381.8521,-.5 333.6108,-.5"/>
<text text-anchor="middle" x="357.7314" y="-6.5" font-family="Helvetica,sans-Serif" font-size="10.00" fill="#000000">stdint.h</text>
</g>
<!-- Node1&#45;&gt;Node7 -->
<g id="edge7" class="edge">
<title>Node1&#45;&gt;Node7</title>
<path fill="none" stroke="#191970" d="M867.2316,-63.7653C788.4572,-61.4862 576.57,-52.6354 391.9955,-18.9158"/>
<polygon fill="#191970" stroke="#191970" points="392.5859,-15.4657 382.1151,-17.0818 391.3084,-22.3481 392.5859,-15.4657"/>
</g>
<!-- Node8 -->
<g id="node9" class="node">
<title>Node8</title>
<polygon fill="#ffffff" stroke="#bfbfbf" points="399.6035,-.5 399.6035,-18.5 457.8594,-18.5 457.8594,-.5 399.6035,-.5"/>
<text text-anchor="middle" x="428.7314" y="-6.5" font-family="Helvetica,sans-Serif" font-size="10.00" fill="#000000">pthread.h</text>
</g>
<!-- Node1&#45;&gt;Node8 -->
<g id="edge8" class="edge">
<title>Node1&#45;&gt;Node8</title>
<path fill="none" stroke="#191970" d="M867.3499,-62.7063C797.3708,-58.3847 623.1451,-45.842 468.2743,-19.0593"/>
<polygon fill="#191970" stroke="#191970" points="468.557,-15.5555 458.1025,-17.2746 467.3471,-22.4502 468.557,-15.5555"/>
</g>
<!-- Node9 -->
<g id="node10" class="node">
<title>Node9</title>
<polygon fill="#ffffff" stroke="#bfbfbf" points="475.6108,-.5 475.6108,-18.5 523.8521,-18.5 523.8521,-.5 475.6108,-.5"/>
<text text-anchor="middle" x="499.7314" y="-6.5" font-family="Helvetica,sans-Serif" font-size="10.00" fill="#000000">ctype.h</text>
</g>
<!-- Node1&#45;&gt;Node9 -->
<g id="edge9" class="edge">
<title>Node1&#45;&gt;Node9</title>
<path fill="none" stroke="#191970" d="M867.1281,-62.2477C805.0027,-57.4621 662.5309,-44.7188 534.1382,-19.0212"/>
<polygon fill="#191970" stroke="#191970" points="534.6308,-15.5498 524.1338,-16.9863 533.2355,-22.4093 534.6308,-15.5498"/>
</g>
<!-- Node10 -->
<g id="node11" class="node">
<title>Node10</title>
<polygon fill="#ffffff" stroke="#bfbfbf" points="541.8892,-.5 541.8892,-18.5 589.5737,-18.5 589.5737,-.5 541.8892,-.5"/>
<text text-anchor="middle" x="565.7314" y="-6.5" font-family="Helvetica,sans-Serif" font-size="10.00" fill="#000000">errno.h</text>
</g>
<!-- Node1&#45;&gt;Node10 -->
<g id="edge10" class="edge">
<title>Node1&#45;&gt;Node10</title>
<path fill="none" stroke="#191970" d="M867.2683,-61.1987C813.9256,-55.2891 702.2353,-41.5669 599.6477,-19.2098"/>
<polygon fill="#191970" stroke="#191970" points="600.2706,-15.7631 589.7505,-17.0193 598.7578,-22.5977 600.2706,-15.7631"/>
</g>
<!-- Node11 -->
<g id="node12" class="node">
<title>Node11</title>
<polygon fill="#ffffff" stroke="#bfbfbf" points="607.1035,-.5 607.1035,-18.5 670.3594,-18.5 670.3594,-.5 607.1035,-.5"/>
<text text-anchor="middle" x="638.7314" y="-6.5" font-family="Helvetica,sans-Serif" font-size="10.00" fill="#000000">arpa/inet.h</text>
</g>
<!-- Node1&#45;&gt;Node11 -->
<g id="edge11" class="edge">
<title>Node1&#45;&gt;Node11</title>
<path fill="none" stroke="#191970" d="M867.1313,-58.1705C826.3493,-49.9503 752.9519,-34.9821 680.2804,-19.0829"/>
<polygon fill="#191970" stroke="#191970" points="681.0172,-15.6614 670.4994,-16.9363 679.5166,-22.4987 681.0172,-15.6614"/>
</g>
<!-- Node12 -->
<g id="node13" class="node">
<title>Node12</title>
<polygon fill="#ffffff" stroke="#bfbfbf" points="688.2686,-.5 688.2686,-18.5 753.1943,-18.5 753.1943,-.5 688.2686,-.5"/>
<text text-anchor="middle" x="720.7314" y="-6.5" font-family="Helvetica,sans-Serif" font-size="10.00" fill="#000000">netinet/in.h</text>
</g>
<!-- Node1&#45;&gt;Node12 -->
<g id="edge12" class="edge">
<title>Node1&#45;&gt;Node12</title>
<path fill="none" stroke="#191970" d="M869.3384,-55.4179C839.3603,-46.155 792.6838,-31.7325 759.6519,-21.526"/>
<polygon fill="#191970" stroke="#191970" points="760.4599,-18.1124 749.8723,-18.5042 758.3934,-24.8005 760.4599,-18.1124"/>
</g>
<!-- Node13 -->
<g id="node14" class="node">
<title>Node13</title>
<polygon fill="#ffffff" stroke="#bfbfbf" points="770.8745,-.5 770.8745,-18.5 848.5884,-18.5 848.5884,-.5 770.8745,-.5"/>
<text text-anchor="middle" x="809.7314" y="-6.5" font-family="Helvetica,sans-Serif" font-size="10.00" fill="#000000">net/ethernet.h</text>
</g>
<!-- Node1&#45;&gt;Node13 -->
<g id="edge13" class="edge">
<title>Node1&#45;&gt;Node13</title>
<path fill="none" stroke="#191970" d="M884.0349,-55.4179C870.2501,-46.8992 849.4037,-34.0166 833.2966,-24.0627"/>
<polygon fill="#191970" stroke="#191970" points="834.7965,-20.8753 824.4498,-18.5956 831.1166,-26.83 834.7965,-20.8753"/>
</g>
<!-- Node14 -->
<g id="node15" class="node">
<title>Node14</title>
<polygon fill="#ffffff" stroke="#bfbfbf" points="866.2686,-.5 866.2686,-18.5 931.1943,-18.5 931.1943,-.5 866.2686,-.5"/>
<text text-anchor="middle" x="898.7314" y="-6.5" font-family="Helvetica,sans-Serif" font-size="10.00" fill="#000000">netinet/ip.h</text>
</g>
<!-- Node1&#45;&gt;Node14 -->
<g id="edge14" class="edge">
<title>Node1&#45;&gt;Node14</title>
<path fill="none" stroke="#191970" d="M898.7314,-55.4179C898.7314,-48.2164 898.7314,-37.8962 898.7314,-28.8632"/>
<polygon fill="#191970" stroke="#191970" points="902.2315,-28.7794 898.7314,-18.7795 895.2315,-28.7795 902.2315,-28.7794"/>
</g>
<!-- Node15 -->
<g id="node16" class="node">
<title>Node15</title>
<polygon fill="#ffffff" stroke="#bfbfbf" points="949.4902,-.5 949.4902,-18.5 1019.9727,-18.5 1019.9727,-.5 949.4902,-.5"/>
<text text-anchor="middle" x="984.7314" y="-6.5" font-family="Helvetica,sans-Serif" font-size="10.00" fill="#000000">netinet/tcp.h</text>
</g>
<!-- Node1&#45;&gt;Node15 -->
<g id="edge15" class="edge">
<title>Node1&#45;&gt;Node15</title>
<path fill="none" stroke="#191970" d="M912.9326,-55.4179C926.2528,-46.8992 946.3965,-34.0166 961.9606,-24.0627"/>
<polygon fill="#191970" stroke="#191970" points="963.9704,-26.932 970.5092,-18.5956 960.199,-21.0348 963.9704,-26.932"/>
</g>
<!-- Node16 -->
<g id="node17" class="node">
<title>Node16</title>
<polygon fill="#ffffff" stroke="#bfbfbf" points="1037.9312,-.5 1037.9312,-18.5 1129.5317,-18.5 1129.5317,-.5 1037.9312,-.5"/>
<text text-anchor="middle" x="1083.7314" y="-6.5" font-family="Helvetica,sans-Serif" font-size="10.00" fill="#000000">netinet/ip_icmp.h</text>
</g>
<!-- Node1&#45;&gt;Node16 -->
<g id="edge16" class="edge">
<title>Node1&#45;&gt;Node16</title>
<path fill="none" stroke="#191970" d="M929.2804,-55.4179C960.5717,-46.115 1009.3681,-31.608 1043.7235,-21.3943"/>
<polygon fill="#191970" stroke="#191970" points="1044.8566,-24.7089 1053.4446,-18.5042 1042.8618,-17.9991 1044.8566,-24.7089"/>
</g>
<!-- Node17 -->
<g id="node18" class="node">
<title>Node17</title>
<polygon fill="#ffffff" stroke="#bfbfbf" points="1147.3276,-.5 1147.3276,-18.5 1206.1353,-18.5 1206.1353,-.5 1147.3276,-.5"/>
<text text-anchor="middle" x="1176.7314" y="-6.5" font-family="Helvetica,sans-Serif" font-size="10.00" fill="#000000">jansson.h</text>
</g>
<!-- Node1&#45;&gt;Node17 -->
<g id="edge17" class="edge">
<title>Node1&#45;&gt;Node17</title>
<path fill="none" stroke="#191970" d="M930.2989,-59.1132C974.4135,-51.4556 1057.2248,-36.6108 1137.0851,-19.2707"/>
<polygon fill="#191970" stroke="#191970" points="1138.2919,-22.5895 1147.3124,-17.0325 1136.7954,-15.7514 1138.2919,-22.5895"/>
</g>
<!-- Node18 -->
<g id="node19" class="node">
<title>Node18</title>
<polygon fill="#ffffff" stroke="#bfbfbf" points="1223.8374,-.5 1223.8374,-18.5 1267.6255,-18.5 1267.6255,-.5 1223.8374,-.5"/>
<text text-anchor="middle" x="1245.7314" y="-6.5" font-family="Helvetica,sans-Serif" font-size="10.00" fill="#000000">libcli.h</text>
</g>
<!-- Node1&#45;&gt;Node18 -->
<g id="edge18" class="edge">
<title>Node1&#45;&gt;Node18</title>
<path fill="none" stroke="#191970" d="M930.4202,-61.573C985.9978,-56.0887 1104.7379,-42.8096 1213.9662,-18.8672"/>
<polygon fill="#191970" stroke="#191970" points="1214.8285,-22.261 1223.8281,-16.6702 1213.3063,-15.4285 1214.8285,-22.261"/>
</g>
<!-- Node19 -->
<g id="node20" class="node">
<title>Node19</title>
<polygon fill="#ffffff" stroke="#bfbfbf" points="1286.1157,-.5 1286.1157,-18.5 1329.3472,-18.5 1329.3472,-.5 1286.1157,-.5"/>
<text text-anchor="middle" x="1307.7314" y="-6.5" font-family="Helvetica,sans-Serif" font-size="10.00" fill="#000000">zmq.h</text>
</g>
<!-- Node1&#45;&gt;Node19 -->
<g id="edge19" class="edge">
<title>Node1&#45;&gt;Node19</title>
<path fill="none" stroke="#191970" d="M930.4037,-62.5943C994.1476,-58.3524 1142.5075,-46.4283 1275.8604,-18.8356"/>
<polygon fill="#191970" stroke="#191970" points="1276.7775,-22.2194 1285.8421,-16.7346 1275.3356,-15.3695 1276.7775,-22.2194"/>
</g>
<!-- Node20 -->
<g id="node21" class="node">
<title>Node20</title>
<g id="a_node21"><a xlink:href="mac2int_8h.html" target="_top" xlink:title="mac2int.h">
<polygon fill="#ffffff" stroke="#000000" points="1347.0542,-.5 1347.0542,-18.5 1406.4087,-18.5 1406.4087,-.5 1347.0542,-.5"/>
<text text-anchor="middle" x="1376.7314" y="-6.5" font-family="Helvetica,sans-Serif" font-size="10.00" fill="#000000">mac2int.h</text>
</a>
</g>
</g>
<!-- Node1&#45;&gt;Node20 -->
<g id="edge20" class="edge">
<title>Node1&#45;&gt;Node20</title>
<path fill="none" stroke="#191970" d="M930.2461,-62.4855C1001.8634,-57.9197 1181.2949,-45.0935 1329.7314,-19 1332.0484,-18.5927 1334.433,-18.122 1336.847,-17.6125"/>
<polygon fill="#191970" stroke="#191970" points="1337.8509,-20.9741 1346.8375,-15.3623 1336.3128,-14.1452 1337.8509,-20.9741"/>
</g>
<!-- Node21 -->
<g id="node22" class="node">
<title>Node21</title>
<g id="a_node22"><a xlink:href="ip2int_8h.html" target="_top" xlink:title="ip2int.h">
<polygon fill="#ffffff" stroke="#000000" points="1424.6084,-.5 1424.6084,-18.5 1472.8545,-18.5 1472.8545,-.5 1424.6084,-.5"/>
<text text-anchor="middle" x="1448.7314" y="-6.5" font-family="Helvetica,sans-Serif" font-size="10.00" fill="#000000">ip2int.h</text>
</a>
</g>
</g>
<!-- Node1&#45;&gt;Node21 -->
<g id="edge22" class="edge">
<title>Node1&#45;&gt;Node21</title>
<path fill="none" stroke="#191970" d="M930.1693,-63.7092C1010.4296,-61.3361 1228.2383,-52.226 1406.7314,-19 1409.3342,-18.5155 1412.0269,-17.9133 1414.747,-17.2487"/>
<polygon fill="#191970" stroke="#191970" points="1415.8183,-20.5862 1424.6057,-14.6675 1414.0453,-13.8145 1415.8183,-20.5862"/>
</g>
<!-- Node22 -->
<g id="node23" class="node">
<title>Node22</title>
<g id="a_node23"><a xlink:href="src_2include_2type_8h.html" target="_top" xlink:title="type.h">
<polygon fill="#ffffff" stroke="#000000" points="1552.1108,-.5 1552.1108,-18.5 1595.3521,-18.5 1595.3521,-.5 1552.1108,-.5"/>
<text text-anchor="middle" x="1573.7314" y="-6.5" font-family="Helvetica,sans-Serif" font-size="10.00" fill="#000000">type.h</text>
</a>
</g>
</g>
<!-- Node1&#45;&gt;Node22 -->
<g id="edge24" class="edge">
<title>Node1&#45;&gt;Node22</title>
<path fill="none" stroke="#191970" d="M930.3592,-63.2591C1040.0969,-58.8034 1404.7785,-42.7027 1541.7009,-18.9331"/>
<polygon fill="#191970" stroke="#191970" points="1542.724,-22.304 1551.9299,-17.0598 1541.463,-15.4185 1542.724,-22.304"/>
</g>
<!-- Node23 -->
<g id="node24" class="node">
<title>Node23</title>
<polygon fill="#ffffff" stroke="#bfbfbf" points="1491.1157,-.5 1491.1157,-18.5 1534.3472,-18.5 1534.3472,-.5 1491.1157,-.5"/>
<text text-anchor="middle" x="1512.7314" y="-6.5" font-family="Helvetica,sans-Serif" font-size="10.00" fill="#000000">time.h</text>
</g>
<!-- Node1&#45;&gt;Node23 -->
<g id="edge25" class="edge">
<title>Node1&#45;&gt;Node23</title>
<path fill="none" stroke="#191970" d="M930.1852,-62.9576C1032.5114,-57.8009 1356.0208,-40.3704 1480.8207,-18.6896"/>
<polygon fill="#191970" stroke="#191970" points="1481.6591,-22.0944 1490.8655,-16.8512 1480.3988,-15.2088 1481.6591,-22.0944"/>
</g>
<!-- Node20&#45;&gt;Node1 -->
<g id="edge21" class="edge">
<title>Node20&#45;&gt;Node1</title>
<path fill="none" stroke="#191970" d="M1350.1636,-18.5543C1349.347,-18.7098 1348.5352,-18.8587 1347.7314,-19 1199.3392,-45.0857 1019.9706,-57.912 940.2082,-62.4814"/>
<polygon fill="#191970" stroke="#191970" points="939.8681,-58.9949 930.0789,-63.0474 940.2586,-65.984 939.8681,-58.9949"/>
</g>
<!-- Node21&#45;&gt;Node1 -->
<g id="edge23" class="edge">
<title>Node21&#45;&gt;Node1</title>
<path fill="none" stroke="#191970" d="M1427.2151,-18.5084C1426.3815,-18.6828 1425.552,-18.8473 1424.7314,-19 1246.8587,-52.1105 1029.9434,-61.2725 940.3249,-63.6842"/>
<polygon fill="#191970" stroke="#191970" points="940.1964,-60.1862 930.2888,-63.94 940.3748,-67.1839 940.1964,-60.1862"/>
</g>
<!-- Node24&#45;&gt;Node1 -->
<g id="edge27" class="edge">
<title>Node24&#45;&gt;Node1</title>
<path fill="none" stroke="#191970" d="M965.6536,-165.4082C957.8566,-156.4441 945.9149,-142.2078 936.7314,-129 926.2074,-113.864 915.6795,-95.6994 908.383,-82.5092"/>
<polygon fill="#191970" stroke="#191970" points="911.3453,-80.6306 903.4868,-73.5247 905.1988,-83.9803 911.3453,-80.6306"/>
</g>
<!-- Node25 -->
<g id="node26" class="node">
<title>Node25</title>
<g id="a_node26"><a xlink:href="src_2include_2context_8h.html" target="_top" xlink:title="context.h">
<polygon fill="#ffffff" stroke="#000000" points="945.4409,-110.5 945.4409,-128.5 1002.022,-128.5 1002.022,-110.5 945.4409,-110.5"/>
<text text-anchor="middle" x="973.7314" y="-116.5" font-family="Helvetica,sans-Serif" font-size="10.00" fill="#000000">context.h</text>
</a>
</g>
</g>
<!-- Node24&#45;&gt;Node25 -->
<g id="edge28" class="edge">
<title>Node24&#45;&gt;Node25</title>
<path fill="none" stroke="#191970" d="M973.7314,-165.4179C973.7314,-158.2164 973.7314,-147.8962 973.7314,-138.8632"/>
<polygon fill="#191970" stroke="#191970" points="977.2315,-138.7794 973.7314,-128.7795 970.2315,-138.7795 977.2315,-138.7794"/>
</g>
<!-- Node26 -->
<g id="node27" class="node">
<title>Node26</title>
<g id="a_node27"><a xlink:href="events_2include_2event__id_8h.html" target="_top" xlink:title="event_id.h">
<polygon fill="#ffffff" stroke="#000000" points="1019.6577,-110.5 1019.6577,-128.5 1081.8052,-128.5 1081.8052,-110.5 1019.6577,-110.5"/>
<text text-anchor="middle" x="1050.7314" y="-116.5" font-family="Helvetica,sans-Serif" font-size="10.00" fill="#000000">event_id.h</text>
</a>
</g>
</g>
<!-- Node24&#45;&gt;Node26 -->
<g id="edge30" class="edge">
<title>Node24&#45;&gt;Node26</title>
<path fill="none" stroke="#191970" d="M986.4464,-165.4179C998.1497,-157.0584 1015.7362,-144.4966 1029.558,-134.6239"/>
<polygon fill="#191970" stroke="#191970" points="1031.8946,-137.2561 1037.9976,-128.5956 1027.8259,-131.56 1031.8946,-137.2561"/>
</g>
<!-- Node27 -->
<g id="node28" class="node">
<title>Node27</title>
<g id="a_node28"><a xlink:href="events_2include_2event__list_8h.html" target="_top" xlink:title="event_list.h">
<polygon fill="#ffffff" stroke="#000000" points="1424.4385,-55.5 1424.4385,-73.5 1491.0244,-73.5 1491.0244,-55.5 1424.4385,-55.5"/>
<text text-anchor="middle" x="1457.7314" y="-61.5" font-family="Helvetica,sans-Serif" font-size="10.00" fill="#000000">event_list.h</text>
</a>
</g>
</g>
<!-- Node24&#45;&gt;Node27 -->
<g id="edge31" class="edge">
<title>Node24&#45;&gt;Node27</title>
<path fill="none" stroke="#191970" d="M998.1944,-167.2776C1001.0654,-166.4835 1003.9586,-165.7074 1006.7314,-165 1155.139,-127.1405 1333.0403,-89.8515 1413.8924,-73.3408"/>
<polygon fill="#191970" stroke="#191970" points="1415.0841,-76.67 1424.1843,-71.2444 1413.6869,-69.8109 1415.0841,-76.67"/>
</g>
<!-- Node25&#45;&gt;Node1 -->
<g id="edge29" class="edge">
<title>Node25&#45;&gt;Node1</title>
<path fill="none" stroke="#191970" d="M961.3467,-110.4179C949.9474,-102.0584 932.8178,-89.4966 919.355,-79.6239"/>
<polygon fill="#191970" stroke="#191970" points="921.2684,-76.6869 911.1346,-73.5956 917.1289,-82.3317 921.2684,-76.6869"/>
</g>
<!-- Node27&#45;&gt;Node22 -->
<g id="edge32" class="edge">
<title>Node27&#45;&gt;Node22</title>
<path fill="none" stroke="#191970" d="M1476.8865,-55.4179C1495.5249,-46.5807 1524.0681,-33.0473 1545.345,-22.9591"/>
<polygon fill="#191970" stroke="#191970" points="1547.0116,-26.0424 1554.5479,-18.5956 1544.0127,-19.7174 1547.0116,-26.0424"/>
</g>
</g>
</svg>
