<?xml version="1.0" encoding="UTF-8" standalone="no"?>
<!DOCTYPE svg PUBLIC "-//W3C//DTD SVG 1.1//EN"
 "http://www.w3.org/Graphics/SVG/1.1/DTD/svg11.dtd">
<!-- Generated by graphviz version 2.40.1 (20161225.0304)
 -->
<!-- Title: ext_apps/rbac/src/include/application_info.h Pages: 1 -->
<svg width="278pt" height="102pt"
 viewBox="0.00 0.00 278.34 102.00" xmlns="http://www.w3.org/2000/svg" xmlns:xlink="http://www.w3.org/1999/xlink">
<g id="graph0" class="graph" transform="scale(1 1) rotate(0) translate(4 98)">
<title>ext_apps/rbac/src/include/application_info.h</title>
<polygon fill="#ffffff" stroke="transparent" points="-4,4 -4,-98 274.3442,-98 274.3442,4 -4,4"/>
<!-- Node1 -->
<g id="node1" class="node">
<title>Node1</title>
<polygon fill="#bfbfbf" stroke="#000000" points="76.1748,-65.5 76.1748,-93.5 205.5684,-93.5 205.5684,-65.5 76.1748,-65.5"/>
<text text-anchor="start" x="84.1748" y="-81.5" font-family="Helvetica,sans-Serif" font-size="10.00" fill="#000000">ext_apps/rbac/src/include</text>
<text text-anchor="middle" x="140.8716" y="-71.5" font-family="Helvetica,sans-Serif" font-size="10.00" fill="#000000">/application_info.h</text>
</g>
<!-- Node2 -->
<g id="node2" class="node">
<title>Node2</title>
<g id="a_node2"><a xlink:href="ext__apps_2shim_2app__event_8c.html" target="_top" xlink:title="ext_apps/shim/app_event.c">
<polygon fill="#ffffff" stroke="#000000" points="0,-5.5 0,-23.5 137.7432,-23.5 137.7432,-5.5 0,-5.5"/>
<text text-anchor="middle" x="68.8716" y="-11.5" font-family="Helvetica,sans-Serif" font-size="10.00" fill="#000000">ext_apps/shim/app_event.c</text>
</a>
</g>
</g>
<!-- Node1&#45;&gt;Node2 -->
<g id="edge1" class="edge">
<title>Node1&#45;&gt;Node2</title>
<path fill="none" stroke="#191970" d="M117.523,-58.4214C104.4698,-46.6373 88.8743,-32.558 78.9231,-23.5743"/>
<polygon fill="#191970" stroke="#191970" points="115.4806,-61.2929 125.2487,-65.396 120.1713,-56.097 115.4806,-61.2929"/>
</g>
<!-- Node3 -->
<g id="node3" class="node">
<title>Node3</title>
<g id="a_node3"><a xlink:href="ext__apps_2shim_2include_2shim_8h.html" target="_top" xlink:title="ext_apps/shim/include\l/shim.h">
<polygon fill="#ffffff" stroke="#000000" points="155.3989,-.5 155.3989,-28.5 270.3442,-28.5 270.3442,-.5 155.3989,-.5"/>
<text text-anchor="start" x="163.3989" y="-16.5" font-family="Helvetica,sans-Serif" font-size="10.00" fill="#000000">ext_apps/shim/include</text>
<text text-anchor="middle" x="212.8716" y="-6.5" font-family="Helvetica,sans-Serif" font-size="10.00" fill="#000000">/shim.h</text>
</a>
</g>
</g>
<!-- Node1&#45;&gt;Node3 -->
<g id="edge2" class="edge">
<title>Node1&#45;&gt;Node3</title>
<path fill="none" stroke="#191970" d="M164.0248,-58.5978C174.8965,-48.7831 187.5673,-37.3442 197.2791,-28.5765"/>
<polygon fill="#191970" stroke="#191970" points="161.5718,-56.097 156.4945,-65.396 166.2626,-61.2929 161.5718,-56.097"/>
</g>
</g>
</svg>
