<?xml version="1.0" encoding="UTF-8" standalone="no"?>
<!DOCTYPE svg PUBLIC "-//W3C//DTD SVG 1.1//EN"
 "http://www.w3.org/Graphics/SVG/1.1/DTD/svg11.dtd">
<!-- Generated by graphviz version 2.40.1 (20161225.0304)
 -->
<!-- Title: src/include/common.h Pages: 1 -->
<svg width="1459pt" height="82pt"
 viewBox="0.00 0.00 1459.35 82.00" xmlns="http://www.w3.org/2000/svg" xmlns:xlink="http://www.w3.org/1999/xlink">
<g id="graph0" class="graph" transform="scale(1 1) rotate(0) translate(4 78)">
<title>src/include/common.h</title>
<polygon fill="#ffffff" stroke="transparent" points="-4,4 -4,-78 1455.3472,-78 1455.3472,4 -4,4"/>
<!-- Node0 -->
<g id="node1" class="node">
<title>Node0</title>
<polygon fill="#bfbfbf" stroke="#000000" points="623.1011,-55.5 623.1011,-73.5 736.3618,-73.5 736.3618,-55.5 623.1011,-55.5"/>
<text text-anchor="middle" x="679.7314" y="-61.5" font-family="Helvetica,sans-Serif" font-size="10.00" fill="#000000">src/include/common.h</text>
</g>
<!-- Node1 -->
<g id="node2" class="node">
<title>Node1</title>
<polygon fill="#ffffff" stroke="#bfbfbf" points="0,-.5 0,-18.5 45.4629,-18.5 45.4629,-.5 0,-.5"/>
<text text-anchor="middle" x="22.7314" y="-6.5" font-family="Helvetica,sans-Serif" font-size="10.00" fill="#000000">stdio.h</text>
</g>
<!-- Node0&#45;&gt;Node1 -->
<g id="edge1" class="edge">
<title>Node0&#45;&gt;Node1</title>
<path fill="none" stroke="#191970" d="M622.8553,-62.005C493.5743,-56.0759 179.831,-40.1677 55.6281,-18.9418"/>
<polygon fill="#191970" stroke="#191970" points="56.0726,-15.4657 45.6108,-17.1392 54.8328,-22.355 56.0726,-15.4657"/>
</g>
<!-- Node2 -->
<g id="node3" class="node">
<title>Node2</title>
<polygon fill="#ffffff" stroke="#bfbfbf" points="63.2192,-.5 63.2192,-18.5 114.2437,-18.5 114.2437,-.5 63.2192,-.5"/>
<text text-anchor="middle" x="88.7314" y="-6.5" font-family="Helvetica,sans-Serif" font-size="10.00" fill="#000000">unistd.h</text>
</g>
<!-- Node0&#45;&gt;Node2 -->
<g id="edge2" class="edge">
<title>Node0&#45;&gt;Node2</title>
<path fill="none" stroke="#191970" d="M622.7392,-63.4266C523.1723,-60.7719 311.105,-51.6563 124.5886,-19.0506"/>
<polygon fill="#191970" stroke="#191970" points="125.0599,-15.5796 114.6021,-17.2777 123.8363,-22.4719 125.0599,-15.5796"/>
</g>
<!-- Node3 -->
<g id="node4" class="node">
<title>Node3</title>
<polygon fill="#ffffff" stroke="#bfbfbf" points="131.8892,-.5 131.8892,-18.5 179.5737,-18.5 179.5737,-.5 131.8892,-.5"/>
<text text-anchor="middle" x="155.7314" y="-6.5" font-family="Helvetica,sans-Serif" font-size="10.00" fill="#000000">stdlib.h</text>
</g>
<!-- Node0&#45;&gt;Node3 -->
<g id="edge3" class="edge">
<title>Node0&#45;&gt;Node3</title>
<path fill="none" stroke="#191970" d="M622.9191,-62.698C532.8553,-59.0845 351.7769,-48.7395 189.8979,-18.8826"/>
<polygon fill="#191970" stroke="#191970" points="190.23,-15.384 179.7563,-16.9815 188.9401,-22.2642 190.23,-15.384"/>
</g>
<!-- Node4 -->
<g id="node5" class="node">
<title>Node4</title>
<polygon fill="#ffffff" stroke="#bfbfbf" points="197.335,-.5 197.335,-18.5 246.1279,-18.5 246.1279,-.5 197.335,-.5"/>
<text text-anchor="middle" x="221.7314" y="-6.5" font-family="Helvetica,sans-Serif" font-size="10.00" fill="#000000">string.h</text>
</g>
<!-- Node0&#45;&gt;Node4 -->
<g id="edge4" class="edge">
<title>Node0&#45;&gt;Node4</title>
<path fill="none" stroke="#191970" d="M622.8911,-61.5587C542.9321,-56.7296 392.6482,-45.1244 256.6656,-19.1061"/>
<polygon fill="#191970" stroke="#191970" points="256.9693,-15.5996 246.4849,-17.1256 255.6325,-22.4708 256.9693,-15.5996"/>
</g>
<!-- Node5 -->
<g id="node6" class="node">
<title>Node5</title>
<polygon fill="#ffffff" stroke="#bfbfbf" points="263.665,-.5 263.665,-18.5 315.7979,-18.5 315.7979,-.5 263.665,-.5"/>
<text text-anchor="middle" x="289.7314" y="-6.5" font-family="Helvetica,sans-Serif" font-size="10.00" fill="#000000">stdarg.h</text>
</g>
<!-- Node0&#45;&gt;Node5 -->
<g id="edge5" class="edge">
<title>Node0&#45;&gt;Node5</title>
<path fill="none" stroke="#191970" d="M623.0856,-59.664C554.7533,-53.2916 436.293,-40.5261 325.9773,-19.021"/>
<polygon fill="#191970" stroke="#191970" points="326.5019,-15.557 316.0128,-17.0499 325.1435,-22.424 326.5019,-15.557"/>
</g>
<!-- Node6 -->
<g id="node7" class="node">
<title>Node6</title>
<polygon fill="#ffffff" stroke="#bfbfbf" points="333.6108,-.5 333.6108,-18.5 381.8521,-18.5 381.8521,-.5 333.6108,-.5"/>
<text text-anchor="middle" x="357.7314" y="-6.5" font-family="Helvetica,sans-Serif" font-size="10.00" fill="#000000">stdint.h</text>
</g>
<!-- Node0&#45;&gt;Node6 -->
<g id="edge6" class="edge">
<title>Node0&#45;&gt;Node6</title>
<path fill="none" stroke="#191970" d="M622.8566,-57.6671C566.4635,-50.4156 477.4741,-37.693 392.0158,-19.0751"/>
<polygon fill="#191970" stroke="#191970" points="392.6726,-15.6359 382.153,-16.8963 391.1625,-22.4711 392.6726,-15.6359"/>
</g>
<!-- Node7 -->
<g id="node8" class="node">
<title>Node7</title>
<polygon fill="#ffffff" stroke="#bfbfbf" points="399.6035,-.5 399.6035,-18.5 457.8594,-18.5 457.8594,-.5 399.6035,-.5"/>
<text text-anchor="middle" x="428.7314" y="-6.5" font-family="Helvetica,sans-Serif" font-size="10.00" fill="#000000">pthread.h</text>
</g>
<!-- Node0&#45;&gt;Node7 -->
<g id="edge7" class="edge">
<title>Node0&#45;&gt;Node7</title>
<path fill="none" stroke="#191970" d="M635.165,-55.4469C594.1096,-47.0022 531.2603,-33.8117 467.9212,-19.2225"/>
<polygon fill="#191970" stroke="#191970" points="468.6973,-15.8097 458.1657,-16.9651 467.1192,-22.6295 468.6973,-15.8097"/>
</g>
<!-- Node8 -->
<g id="node9" class="node">
<title>Node8</title>
<polygon fill="#ffffff" stroke="#bfbfbf" points="475.6108,-.5 475.6108,-18.5 523.8521,-18.5 523.8521,-.5 475.6108,-.5"/>
<text text-anchor="middle" x="499.7314" y="-6.5" font-family="Helvetica,sans-Serif" font-size="10.00" fill="#000000">ctype.h</text>
</g>
<!-- Node0&#45;&gt;Node8 -->
<g id="edge8" class="edge">
<title>Node0&#45;&gt;Node8</title>
<path fill="none" stroke="#191970" d="M650.0081,-55.4179C618.0643,-45.6573 567.3711,-30.1677 533.8292,-19.9187"/>
<polygon fill="#191970" stroke="#191970" points="534.5963,-16.4935 524.01,-16.9184 532.5507,-23.1879 534.5963,-16.4935"/>
</g>
<!-- Node9 -->
<g id="node10" class="node">
<title>Node9</title>
<polygon fill="#ffffff" stroke="#bfbfbf" points="541.8892,-.5 541.8892,-18.5 589.5737,-18.5 589.5737,-.5 541.8892,-.5"/>
<text text-anchor="middle" x="565.7314" y="-6.5" font-family="Helvetica,sans-Serif" font-size="10.00" fill="#000000">errno.h</text>
</g>
<!-- Node0&#45;&gt;Node9 -->
<g id="edge9" class="edge">
<title>Node0&#45;&gt;Node9</title>
<path fill="none" stroke="#191970" d="M660.9067,-55.4179C642.5896,-46.5807 614.5385,-33.0473 593.6284,-22.9591"/>
<polygon fill="#191970" stroke="#191970" points="595.1117,-19.7887 584.5842,-18.5956 592.0699,-26.0933 595.1117,-19.7887"/>
</g>
<!-- Node10 -->
<g id="node11" class="node">
<title>Node10</title>
<polygon fill="#ffffff" stroke="#bfbfbf" points="607.1035,-.5 607.1035,-18.5 670.3594,-18.5 670.3594,-.5 607.1035,-.5"/>
<text text-anchor="middle" x="638.7314" y="-6.5" font-family="Helvetica,sans-Serif" font-size="10.00" fill="#000000">arpa/inet.h</text>
</g>
<!-- Node0&#45;&gt;Node10 -->
<g id="edge10" class="edge">
<title>Node0&#45;&gt;Node10</title>
<path fill="none" stroke="#191970" d="M672.9611,-55.4179C667.1798,-47.6624 658.7022,-36.29 651.6304,-26.8035"/>
<polygon fill="#191970" stroke="#191970" points="654.4317,-24.7051 645.6489,-18.7795 648.8194,-28.8888 654.4317,-24.7051"/>
</g>
<!-- Node11 -->
<g id="node12" class="node">
<title>Node11</title>
<polygon fill="#ffffff" stroke="#bfbfbf" points="688.2686,-.5 688.2686,-18.5 753.1943,-18.5 753.1943,-.5 688.2686,-.5"/>
<text text-anchor="middle" x="720.7314" y="-6.5" font-family="Helvetica,sans-Serif" font-size="10.00" fill="#000000">netinet/in.h</text>
</g>
<!-- Node0&#45;&gt;Node11 -->
<g id="edge11" class="edge">
<title>Node0&#45;&gt;Node11</title>
<path fill="none" stroke="#191970" d="M686.5018,-55.4179C692.2831,-47.6624 700.7607,-36.29 707.8325,-26.8035"/>
<polygon fill="#191970" stroke="#191970" points="710.6435,-28.8888 713.814,-18.7795 705.0312,-24.7051 710.6435,-28.8888"/>
</g>
<!-- Node12 -->
<g id="node13" class="node">
<title>Node12</title>
<polygon fill="#ffffff" stroke="#bfbfbf" points="770.8745,-.5 770.8745,-18.5 848.5884,-18.5 848.5884,-.5 770.8745,-.5"/>
<text text-anchor="middle" x="809.7314" y="-6.5" font-family="Helvetica,sans-Serif" font-size="10.00" fill="#000000">net/ethernet.h</text>
</g>
<!-- Node0&#45;&gt;Node12 -->
<g id="edge12" class="edge">
<title>Node0&#45;&gt;Node12</title>
<path fill="none" stroke="#191970" d="M701.1983,-55.4179C722.3684,-46.4613 754.9408,-32.6806 778.8813,-22.552"/>
<polygon fill="#191970" stroke="#191970" points="780.3868,-25.7155 788.2327,-18.5956 777.6593,-19.2687 780.3868,-25.7155"/>
</g>
<!-- Node13 -->
<g id="node14" class="node">
<title>Node13</title>
<polygon fill="#ffffff" stroke="#bfbfbf" points="866.2686,-.5 866.2686,-18.5 931.1943,-18.5 931.1943,-.5 866.2686,-.5"/>
<text text-anchor="middle" x="898.7314" y="-6.5" font-family="Helvetica,sans-Serif" font-size="10.00" fill="#000000">netinet/ip.h</text>
</g>
<!-- Node0&#45;&gt;Node13 -->
<g id="edge13" class="edge">
<title>Node0&#45;&gt;Node13</title>
<path fill="none" stroke="#191970" d="M715.8948,-55.4179C754.4219,-45.7421 815.3658,-30.4366 856.1768,-20.1872"/>
<polygon fill="#191970" stroke="#191970" points="857.2465,-23.5274 866.0928,-17.6969 855.5414,-16.7382 857.2465,-23.5274"/>
</g>
<!-- Node14 -->
<g id="node15" class="node">
<title>Node14</title>
<polygon fill="#ffffff" stroke="#bfbfbf" points="949.4902,-.5 949.4902,-18.5 1019.9727,-18.5 1019.9727,-.5 949.4902,-.5"/>
<text text-anchor="middle" x="984.7314" y="-6.5" font-family="Helvetica,sans-Serif" font-size="10.00" fill="#000000">netinet/tcp.h</text>
</g>
<!-- Node0&#45;&gt;Node14 -->
<g id="edge14" class="edge">
<title>Node0&#45;&gt;Node14</title>
<path fill="none" stroke="#191970" d="M734.6141,-55.4659C785.1439,-47.0191 862.43,-33.7751 939.4967,-18.9894"/>
<polygon fill="#191970" stroke="#191970" points="940.2249,-22.4135 949.3817,-17.0841 938.9,-15.5401 940.2249,-22.4135"/>
</g>
<!-- Node15 -->
<g id="node16" class="node">
<title>Node15</title>
<polygon fill="#ffffff" stroke="#bfbfbf" points="1037.9312,-.5 1037.9312,-18.5 1129.5317,-18.5 1129.5317,-.5 1037.9312,-.5"/>
<text text-anchor="middle" x="1083.7314" y="-6.5" font-family="Helvetica,sans-Serif" font-size="10.00" fill="#000000">netinet/ip_icmp.h</text>
</g>
<!-- Node0&#45;&gt;Node15 -->
<g id="edge15" class="edge">
<title>Node0&#45;&gt;Node15</title>
<path fill="none" stroke="#191970" d="M736.6556,-57.8127C803.7319,-49.7686 918.7969,-35.4575 1027.6624,-19.11"/>
<polygon fill="#191970" stroke="#191970" points="1028.4733,-22.5274 1037.8384,-17.5732 1027.4279,-15.6058 1028.4733,-22.5274"/>
</g>
<!-- Node16 -->
<g id="node17" class="node">
<title>Node16</title>
<polygon fill="#ffffff" stroke="#bfbfbf" points="1147.3276,-.5 1147.3276,-18.5 1206.1353,-18.5 1206.1353,-.5 1147.3276,-.5"/>
<text text-anchor="middle" x="1176.7314" y="-6.5" font-family="Helvetica,sans-Serif" font-size="10.00" fill="#000000">jansson.h</text>
</g>
<!-- Node0&#45;&gt;Node16 -->
<g id="edge16" class="edge">
<title>Node0&#45;&gt;Node16</title>
<path fill="none" stroke="#191970" d="M736.622,-61.5413C821.7663,-56.5244 987.4795,-44.4857 1136.6906,-19.1505"/>
<polygon fill="#191970" stroke="#191970" points="1137.6881,-22.5303 1146.9486,-17.383 1136.4994,-15.6319 1137.6881,-22.5303"/>
</g>
<!-- Node17 -->
<g id="node18" class="node">
<title>Node17</title>
<polygon fill="#ffffff" stroke="#bfbfbf" points="1223.8374,-.5 1223.8374,-18.5 1267.6255,-18.5 1267.6255,-.5 1223.8374,-.5"/>
<text text-anchor="middle" x="1245.7314" y="-6.5" font-family="Helvetica,sans-Serif" font-size="10.00" fill="#000000">libcli.h</text>
</g>
<!-- Node0&#45;&gt;Node17 -->
<g id="edge17" class="edge">
<title>Node0&#45;&gt;Node17</title>
<path fill="none" stroke="#191970" d="M736.5018,-63.6204C833.0207,-61.2656 1035.198,-52.6079 1213.696,-18.8151"/>
<polygon fill="#191970" stroke="#191970" points="1214.3651,-22.2506 1223.5236,-16.9242 1213.0424,-15.3767 1214.3651,-22.2506"/>
</g>
<!-- Node18 -->
<g id="node19" class="node">
<title>Node18</title>
<polygon fill="#ffffff" stroke="#bfbfbf" points="1286.1157,-.5 1286.1157,-18.5 1329.3472,-18.5 1329.3472,-.5 1286.1157,-.5"/>
<text text-anchor="middle" x="1307.7314" y="-6.5" font-family="Helvetica,sans-Serif" font-size="10.00" fill="#000000">zmq.h</text>
</g>
<!-- Node0&#45;&gt;Node18 -->
<g id="edge18" class="edge">
<title>Node0&#45;&gt;Node18</title>
<path fill="none" stroke="#191970" d="M736.8246,-61.7633C861.7204,-55.5217 1156.86,-39.3211 1275.9141,-18.6729"/>
<polygon fill="#191970" stroke="#191970" points="1276.6575,-22.0951 1285.8665,-16.8563 1275.4005,-15.2089 1276.6575,-22.0951"/>
</g>
<!-- Node19 -->
<g id="node20" class="node">
<title>Node19</title>
<g id="a_node20"><a xlink:href="src_2include_2type_8h.html" target="_top" xlink:title="type.h">
<polygon fill="#ffffff" stroke="#000000" points="1347.1108,-.5 1347.1108,-18.5 1390.3521,-18.5 1390.3521,-.5 1347.1108,-.5"/>
<text text-anchor="middle" x="1368.7314" y="-6.5" font-family="Helvetica,sans-Serif" font-size="10.00" fill="#000000">type.h</text>
</a>
</g>
</g>
<!-- Node0&#45;&gt;Node19 -->
<g id="edge19" class="edge">
<title>Node0&#45;&gt;Node19</title>
<path fill="none" stroke="#191970" d="M736.538,-62.3135C870.7964,-56.8736 1205.6688,-41.645 1336.7385,-18.9259"/>
<polygon fill="#191970" stroke="#191970" points="1337.7226,-22.3041 1346.9307,-17.0637 1336.4644,-15.4181 1337.7226,-22.3041"/>
</g>
<!-- Node20 -->
<g id="node21" class="node">
<title>Node20</title>
<polygon fill="#ffffff" stroke="#bfbfbf" points="1408.1157,-.5 1408.1157,-18.5 1451.3472,-18.5 1451.3472,-.5 1408.1157,-.5"/>
<text text-anchor="middle" x="1429.7314" y="-6.5" font-family="Helvetica,sans-Serif" font-size="10.00" fill="#000000">time.h</text>
</g>
<!-- Node0&#45;&gt;Node20 -->
<g id="edge20" class="edge">
<title>Node0&#45;&gt;Node20</title>
<path fill="none" stroke="#191970" d="M736.6205,-62.6941C880.0664,-57.8609 1254.7295,-43.4295 1398.0226,-18.865"/>
<polygon fill="#191970" stroke="#191970" points="1398.7129,-22.2971 1407.9335,-17.0788 1397.4713,-15.4081 1398.7129,-22.2971"/>
</g>
</g>
</svg>
