<?xml version="1.0" encoding="UTF-8" standalone="no"?>
<!DOCTYPE svg PUBLIC "-//W3C//DTD SVG 1.1//EN"
 "http://www.w3.org/Graphics/SVG/1.1/DTD/svg11.dtd">
<!-- Generated by graphviz version 2.40.1 (20161225.0304)
 -->
<!-- Title: src/include/cli.h Pages: 1 -->
<svg width="622pt" height="82pt"
 viewBox="0.00 0.00 622.27 82.00" xmlns="http://www.w3.org/2000/svg" xmlns:xlink="http://www.w3.org/1999/xlink">
<g id="graph0" class="graph" transform="scale(1 1) rotate(0) translate(4 78)">
<title>src/include/cli.h</title>
<polygon fill="#ffffff" stroke="transparent" points="-4,4 -4,-78 618.2681,-78 618.2681,4 -4,4"/>
<!-- Node23 -->
<g id="node1" class="node">
<title>Node23</title>
<polygon fill="#bfbfbf" stroke="#000000" points="310.3076,-55.5 310.3076,-73.5 394.667,-73.5 394.667,-55.5 310.3076,-55.5"/>
<text text-anchor="middle" x="352.4873" y="-61.5" font-family="Helvetica,sans-Serif" font-size="10.00" fill="#000000">src/include/cli.h</text>
</g>
<!-- Node24 -->
<g id="node2" class="node">
<title>Node24</title>
<g id="a_node2"><a xlink:href="app__events_2app__event_8c.html" target="_top" xlink:title="app_events/app_event.c">
<polygon fill="#ffffff" stroke="#000000" points="0,-.5 0,-18.5 124.9746,-18.5 124.9746,-.5 0,-.5"/>
<text text-anchor="middle" x="62.4873" y="-6.5" font-family="Helvetica,sans-Serif" font-size="10.00" fill="#000000">app_events/app_event.c</text>
</a>
</g>
</g>
<!-- Node23&#45;&gt;Node24 -->
<g id="edge1" class="edge">
<title>Node23&#45;&gt;Node24</title>
<path fill="none" stroke="#191970" d="M299.9513,-54.5363C245.9617,-44.2969 162.6277,-28.4922 110.394,-18.5857"/>
<polygon fill="#191970" stroke="#191970" points="299.5312,-58.0189 310.0082,-56.4436 300.8356,-51.1415 299.5312,-58.0189"/>
</g>
<!-- Node25 -->
<g id="node3" class="node">
<title>Node25</title>
<g id="a_node3"><a xlink:href="events_2event_8c.html" target="_top" xlink:title="events/event.c">
<polygon fill="#ffffff" stroke="#000000" points="143.2461,-.5 143.2461,-18.5 223.7285,-18.5 223.7285,-.5 143.2461,-.5"/>
<text text-anchor="middle" x="183.4873" y="-6.5" font-family="Helvetica,sans-Serif" font-size="10.00" fill="#000000">events/event.c</text>
</a>
</g>
</g>
<!-- Node23&#45;&gt;Node25 -->
<g id="edge2" class="edge">
<title>Node23&#45;&gt;Node25</title>
<path fill="none" stroke="#191970" d="M314.863,-52.2554C283.4543,-42.0336 239.4056,-27.6983 211.1548,-18.5042"/>
<polygon fill="#191970" stroke="#191970" points="313.9881,-55.6513 324.5804,-55.4179 316.1544,-48.9949 313.9881,-55.6513"/>
</g>
<!-- Node26 -->
<g id="node4" class="node">
<title>Node26</title>
<g id="a_node4"><a xlink:href="ext__apps_2shim_2cli_8c.html" target="_top" xlink:title="ext_apps/shim/cli.c">
<polygon fill="#ffffff" stroke="#000000" points="241.2485,-.5 241.2485,-18.5 341.7261,-18.5 341.7261,-.5 241.2485,-.5"/>
<text text-anchor="middle" x="291.4873" y="-6.5" font-family="Helvetica,sans-Serif" font-size="10.00" fill="#000000">ext_apps/shim/cli.c</text>
</a>
</g>
</g>
<!-- Node23&#45;&gt;Node26 -->
<g id="edge3" class="edge">
<title>Node23&#45;&gt;Node26</title>
<path fill="none" stroke="#191970" d="M334.8352,-48.5841C324.1143,-38.9177 310.8018,-26.9147 301.7791,-18.7795"/>
<polygon fill="#191970" stroke="#191970" points="332.6437,-51.3209 342.4144,-55.4179 337.3312,-46.122 332.6437,-51.3209"/>
</g>
<!-- Node27 -->
<g id="node5" class="node">
<title>Node27</title>
<g id="a_node5"><a xlink:href="ext__comps_2shim_2cli_8c.html" target="_top" xlink:title="ext_comps/shim/cli.c">
<polygon fill="#ffffff" stroke="#000000" points="359.3643,-.5 359.3643,-18.5 467.6104,-18.5 467.6104,-.5 359.3643,-.5"/>
<text text-anchor="middle" x="413.4873" y="-6.5" font-family="Helvetica,sans-Serif" font-size="10.00" fill="#000000">ext_comps/shim/cli.c</text>
</a>
</g>
</g>
<!-- Node23&#45;&gt;Node27 -->
<g id="edge4" class="edge">
<title>Node23&#45;&gt;Node27</title>
<path fill="none" stroke="#191970" d="M370.1394,-48.5841C380.8603,-38.9177 394.1728,-26.9147 403.1955,-18.7795"/>
<polygon fill="#191970" stroke="#191970" points="367.6434,-46.122 362.5602,-55.4179 372.3309,-51.3209 367.6434,-46.122"/>
</g>
<!-- Node28 -->
<g id="node6" class="node">
<title>Node28</title>
<g id="a_node6"><a xlink:href="src_2cli_8c.html" target="_top" xlink:title="src/cli.c">
<polygon fill="#ffffff" stroke="#000000" points="485.8223,-.5 485.8223,-18.5 535.1523,-18.5 535.1523,-.5 485.8223,-.5"/>
<text text-anchor="middle" x="510.4873" y="-6.5" font-family="Helvetica,sans-Serif" font-size="10.00" fill="#000000">src/cli.c</text>
</a>
</g>
</g>
<!-- Node23&#45;&gt;Node28 -->
<g id="edge5" class="edge">
<title>Node23&#45;&gt;Node28</title>
<path fill="none" stroke="#191970" d="M388.1636,-52.081C417.8842,-41.7353 459.4482,-27.2668 485.6613,-18.142"/>
<polygon fill="#191970" stroke="#191970" points="386.8713,-48.8248 378.5778,-55.4179 389.1726,-55.4357 386.8713,-48.8248"/>
</g>
<!-- Node29 -->
<g id="node7" class="node">
<title>Node29</title>
<g id="a_node7"><a xlink:href="main_8c.html" target="_top" xlink:title="src/main.c">
<polygon fill="#ffffff" stroke="#000000" points="552.7065,-.5 552.7065,-18.5 614.2681,-18.5 614.2681,-.5 552.7065,-.5"/>
<text text-anchor="middle" x="583.4873" y="-6.5" font-family="Helvetica,sans-Serif" font-size="10.00" fill="#000000">src/main.c</text>
</a>
</g>
</g>
<!-- Node23&#45;&gt;Node29 -->
<g id="edge6" class="edge">
<title>Node23&#45;&gt;Node29</title>
<path fill="none" stroke="#191970" d="M401.1033,-53.0676C439.9294,-43.916 495.7183,-30.7183 544.4873,-19 547.0622,-18.3813 549.7319,-17.737 552.4117,-17.0882"/>
<polygon fill="#191970" stroke="#191970" points="400.049,-49.7201 391.1182,-55.4201 401.6543,-56.5335 400.049,-49.7201"/>
</g>
</g>
</svg>
