<?xml version="1.0" encoding="UTF-8" standalone="no"?>
<!DOCTYPE svg PUBLIC "-//W3C//DTD SVG 1.1//EN"
 "http://www.w3.org/Graphics/SVG/1.1/DTD/svg11.dtd">
<!-- Generated by graphviz version 2.40.1 (20161225.0304)
 -->
<!-- Title: src/include/type.h Pages: 1 -->
<svg width="3981pt" height="332pt"
 viewBox="0.00 0.00 3981.30 332.00" xmlns="http://www.w3.org/2000/svg" xmlns:xlink="http://www.w3.org/1999/xlink">
<g id="graph0" class="graph" transform="scale(1 1) rotate(0) translate(4 328)">
<title>src/include/type.h</title>
<polygon fill="#ffffff" stroke="transparent" points="-4,4 -4,-328 3977.2961,-328 3977.2961,4 -4,4"/>
<!-- Node1 -->
<g id="node1" class="node">
<title>Node1</title>
<polygon fill="#bfbfbf" stroke="#000000" points="2073.564,-305.5 2073.564,-323.5 2167.3813,-323.5 2167.3813,-305.5 2073.564,-305.5"/>
<text text-anchor="middle" x="2120.4727" y="-311.5" font-family="Helvetica,sans-Serif" font-size="10.00" fill="#000000">src/include/type.h</text>
</g>
<!-- Node2 -->
<g id="node2" class="node">
<title>Node2</title>
<g id="a_node2"><a xlink:href="src_2include_2common_8h.html" target="_top" xlink:title="src/include/common.h">
<polygon fill="#ffffff" stroke="#000000" points="2063.8423,-245.5 2063.8423,-263.5 2177.103,-263.5 2177.103,-245.5 2063.8423,-245.5"/>
<text text-anchor="middle" x="2120.4727" y="-251.5" font-family="Helvetica,sans-Serif" font-size="10.00" fill="#000000">src/include/common.h</text>
</a>
</g>
</g>
<!-- Node1&#45;&gt;Node2 -->
<g id="edge1" class="edge">
<title>Node1&#45;&gt;Node2</title>
<path fill="none" stroke="#191970" d="M2120.4727,-295.3734C2120.4727,-284.7812 2120.4727,-272.0976 2120.4727,-263.6985"/>
<polygon fill="#191970" stroke="#191970" points="2116.9728,-295.3873 2120.4727,-305.3873 2123.9728,-295.3873 2116.9728,-295.3873"/>
</g>
<!-- Node93 -->
<g id="node49" class="node">
<title>Node93</title>
<g id="a_node49"><a xlink:href="app__events_2include_2app__event__list_8h.html" target="_top" xlink:title="app_events/include\l/app_event_list.h">
<polygon fill="#ffffff" stroke="#000000" points="1439.3843,-240.5 1439.3843,-268.5 1541.561,-268.5 1541.561,-240.5 1439.3843,-240.5"/>
<text text-anchor="start" x="1447.3843" y="-256.5" font-family="Helvetica,sans-Serif" font-size="10.00" fill="#000000">app_events/include</text>
<text text-anchor="middle" x="1490.4727" y="-246.5" font-family="Helvetica,sans-Serif" font-size="10.00" fill="#000000">/app_event_list.h</text>
</a>
</g>
</g>
<!-- Node1&#45;&gt;Node93 -->
<g id="edge124" class="edge">
<title>Node1&#45;&gt;Node93</title>
<path fill="none" stroke="#191970" d="M2063.1458,-309.0403C1941.3342,-297.4392 1658.3685,-270.4901 1541.9342,-259.4011"/>
<polygon fill="#191970" stroke="#191970" points="2063.0911,-312.5508 2073.3779,-310.0148 2063.7548,-305.5824 2063.0911,-312.5508"/>
</g>
<!-- Node94 -->
<g id="node50" class="node">
<title>Node94</title>
<g id="a_node50"><a xlink:href="events_2include_2event__list_8h.html" target="_top" xlink:title="events/include/event\l_list.h">
<polygon fill="#ffffff" stroke="#000000" points="2433.8867,-240.5 2433.8867,-268.5 2541.0586,-268.5 2541.0586,-240.5 2433.8867,-240.5"/>
<text text-anchor="start" x="2441.8867" y="-256.5" font-family="Helvetica,sans-Serif" font-size="10.00" fill="#000000">events/include/event</text>
<text text-anchor="middle" x="2487.4727" y="-246.5" font-family="Helvetica,sans-Serif" font-size="10.00" fill="#000000">_list.h</text>
</a>
</g>
</g>
<!-- Node1&#45;&gt;Node94 -->
<g id="edge126" class="edge">
<title>Node1&#45;&gt;Node94</title>
<path fill="none" stroke="#191970" d="M2177.6796,-305.1474C2247.7425,-293.6929 2365.5102,-274.4394 2433.8821,-263.2614"/>
<polygon fill="#191970" stroke="#191970" points="2177.0044,-301.7112 2167.7002,-306.7789 2178.1339,-308.6195 2177.0044,-301.7112"/>
</g>
<!-- Node3 -->
<g id="node3" class="node">
<title>Node3</title>
<g id="a_node3"><a xlink:href="app__events_2include_2app__event_8h.html" target="_top" xlink:title="app_events/include\l/app_event.h">
<polygon fill="#ffffff" stroke="#000000" points="914.3843,-120.5 914.3843,-148.5 1016.561,-148.5 1016.561,-120.5 914.3843,-120.5"/>
<text text-anchor="start" x="922.3843" y="-136.5" font-family="Helvetica,sans-Serif" font-size="10.00" fill="#000000">app_events/include</text>
<text text-anchor="middle" x="965.4727" y="-126.5" font-family="Helvetica,sans-Serif" font-size="10.00" fill="#000000">/app_event.h</text>
</a>
</g>
</g>
<!-- Node2&#45;&gt;Node3 -->
<g id="edge2" class="edge">
<title>Node2&#45;&gt;Node3</title>
<path fill="none" stroke="#191970" d="M2053.588,-252.7161C1842.5673,-246.8719 1199.4225,-227.3326 1108.4727,-204 1062.7517,-192.2706 1014.3071,-165.2013 987.1772,-148.5187"/>
<polygon fill="#191970" stroke="#191970" points="2053.511,-256.2152 2063.6037,-252.9922 2053.704,-249.2179 2053.511,-256.2152"/>
</g>
<!-- Node5 -->
<g id="node5" class="node">
<title>Node5</title>
<g id="a_node5"><a xlink:href="applications_2include_2l2__learning_8h.html" target="_top" xlink:title="applications/include\l/l2_learning.h">
<polygon fill="#ffffff" stroke="#000000" points="1031.8325,-55.5 1031.8325,-83.5 1135.1128,-83.5 1135.1128,-55.5 1031.8325,-55.5"/>
<text text-anchor="start" x="1039.8325" y="-71.5" font-family="Helvetica,sans-Serif" font-size="10.00" fill="#000000">applications/include</text>
<text text-anchor="middle" x="1083.4727" y="-61.5" font-family="Helvetica,sans-Serif" font-size="10.00" fill="#000000">/l2_learning.h</text>
</a>
</g>
</g>
<!-- Node2&#45;&gt;Node5 -->
<g id="edge62" class="edge">
<title>Node2&#45;&gt;Node5</title>
<path fill="none" stroke="#191970" d="M2053.777,-250.6746C1955.8699,-244.4345 1767.7021,-230.0659 1609.4727,-204 1502.7782,-186.4237 1477.2906,-175.5679 1372.4727,-149 1287.6036,-127.4885 1189.4583,-99.9131 1132.1467,-83.5363"/>
<polygon fill="#191970" stroke="#191970" points="2053.6271,-254.172 2063.8271,-251.3067 2054.0665,-247.1858 2053.6271,-254.172"/>
</g>
<!-- Node6 -->
<g id="node6" class="node">
<title>Node6</title>
<g id="a_node6"><a xlink:href="applications_2include_2rbac_8h.html" target="_top" xlink:title="applications/include\l/rbac.h">
<polygon fill="#ffffff" stroke="#000000" points="122.8325,-55.5 122.8325,-83.5 226.1128,-83.5 226.1128,-55.5 122.8325,-55.5"/>
<text text-anchor="start" x="130.8325" y="-71.5" font-family="Helvetica,sans-Serif" font-size="10.00" fill="#000000">applications/include</text>
<text text-anchor="middle" x="174.4727" y="-61.5" font-family="Helvetica,sans-Serif" font-size="10.00" fill="#000000">/rbac.h</text>
</a>
</g>
</g>
<!-- Node2&#45;&gt;Node6 -->
<g id="edge63" class="edge">
<title>Node2&#45;&gt;Node6</title>
<path fill="none" stroke="#191970" d="M2053.002,-252.7562C1749.7896,-244.8771 526.2769,-212.6116 487.4727,-204 373.7246,-178.7565 249.6901,-112.7164 198.5598,-83.6168"/>
<polygon fill="#191970" stroke="#191970" points="2053.309,-256.2653 2063.3965,-253.0261 2053.4908,-249.2676 2053.309,-256.2653"/>
</g>
<!-- Node10 -->
<g id="node10" class="node">
<title>Node10</title>
<g id="a_node10"><a xlink:href="ext__apps_2l2__learning_2src_2include_2l2__learning_8h.html" target="_top" xlink:title="ext_apps/l2_learning\l/src/include/l2_learning.h">
<polygon fill="#ffffff" stroke="#ff0000" points="1153.1626,-55.5 1153.1626,-83.5 1279.7827,-83.5 1279.7827,-55.5 1153.1626,-55.5"/>
<text text-anchor="start" x="1161.1626" y="-71.5" font-family="Helvetica,sans-Serif" font-size="10.00" fill="#000000">ext_apps/l2_learning</text>
<text text-anchor="middle" x="1216.4727" y="-61.5" font-family="Helvetica,sans-Serif" font-size="10.00" fill="#000000">/src/include/l2_learning.h</text>
</a>
</g>
</g>
<!-- Node2&#45;&gt;Node10 -->
<g id="edge82" class="edge">
<title>Node2&#45;&gt;Node10</title>
<path fill="none" stroke="#191970" d="M2053.5732,-249.6C1970.2825,-242.7802 1823.9237,-228.4288 1700.4727,-204 1534.4998,-171.1569 1342.1282,-110.851 1258.6832,-83.5667"/>
<polygon fill="#191970" stroke="#191970" points="2053.4105,-253.0982 2063.6597,-250.4143 2053.9738,-246.1209 2053.4105,-253.0982"/>
</g>
<!-- Node13 -->
<g id="node11" class="node">
<title>Node13</title>
<g id="a_node11"><a xlink:href="ext__apps_2rbac_2src_2include_2rbac_8h.html" target="_top" xlink:title="ext_apps/rbac/src/include\l/rbac.h">
<polygon fill="#ffffff" stroke="#ff0000" points="243.7759,-55.5 243.7759,-83.5 373.1694,-83.5 373.1694,-55.5 243.7759,-55.5"/>
<text text-anchor="start" x="251.7759" y="-71.5" font-family="Helvetica,sans-Serif" font-size="10.00" fill="#000000">ext_apps/rbac/src/include</text>
<text text-anchor="middle" x="308.4727" y="-61.5" font-family="Helvetica,sans-Serif" font-size="10.00" fill="#000000">/rbac.h</text>
</a>
</g>
</g>
<!-- Node2&#45;&gt;Node13 -->
<g id="edge83" class="edge">
<title>Node2&#45;&gt;Node13</title>
<path fill="none" stroke="#191970" d="M2053.4914,-252.703C1757.9734,-244.731 583.7273,-212.5768 546.4727,-204 454.6641,-182.8637 362.1376,-113.6396 325.2047,-83.6092"/>
<polygon fill="#191970" stroke="#191970" points="2053.5392,-256.2055 2063.6299,-252.9763 2053.7279,-249.208 2053.5392,-256.2055"/>
</g>
<!-- Node18 -->
<g id="node14" class="node">
<title>Node18</title>
<g id="a_node14"><a xlink:href="main_8c.html" target="_top" xlink:title="src/main.c">
<polygon fill="#ffffff" stroke="#000000" points="3342.6919,-.5 3342.6919,-18.5 3404.2534,-18.5 3404.2534,-.5 3342.6919,-.5"/>
<text text-anchor="middle" x="3373.4727" y="-6.5" font-family="Helvetica,sans-Serif" font-size="10.00" fill="#000000">src/main.c</text>
</a>
</g>
</g>
<!-- Node2&#45;&gt;Node18 -->
<g id="edge87" class="edge">
<title>Node2&#45;&gt;Node18</title>
<path fill="none" stroke="#191970" d="M2187.683,-250.8498C2249.2711,-247.6107 2342.9855,-242.9476 2424.4727,-240 2586.6381,-234.134 3729.4238,-251.8737 3884.4727,-204 3927.4664,-190.725 3947.9695,-188.526 3969.4727,-149 3982.5951,-124.8791 3956.9464,-58.7431 3952.4727,-55 3910.2294,-19.6563 3518.3016,-11.4991 3404.3855,-9.8678"/>
<polygon fill="#191970" stroke="#191970" points="2187.1267,-247.3742 2177.3253,-251.3971 2187.4961,-254.3645 2187.1267,-247.3742"/>
</g>
<!-- Node19 -->
<g id="node15" class="node">
<title>Node19</title>
<g id="a_node15"><a xlink:href="src_2include_2context_8h.html" target="_top" xlink:title="src/include/context.h">
<polygon fill="#ffffff" stroke="#000000" points="2173.894,-185.5 2173.894,-203.5 2281.0513,-203.5 2281.0513,-185.5 2173.894,-185.5"/>
<text text-anchor="middle" x="2227.4727" y="-191.5" font-family="Helvetica,sans-Serif" font-size="10.00" fill="#000000">src/include/context.h</text>
</a>
</g>
</g>
<!-- Node2&#45;&gt;Node19 -->
<g id="edge14" class="edge">
<title>Node2&#45;&gt;Node19</title>
<path fill="none" stroke="#191970" d="M2145.4633,-240.4865C2165.8207,-229.0712 2193.9579,-213.2933 2211.4193,-203.5019"/>
<polygon fill="#191970" stroke="#191970" points="2143.7341,-237.4434 2136.7237,-245.3873 2147.1578,-243.549 2143.7341,-237.4434"/>
</g>
<!-- Node20 -->
<g id="node16" class="node">
<title>Node20</title>
<g id="a_node16"><a xlink:href="src_2include_2application_8h.html" target="_top" xlink:title="src/include/application.h">
<polygon fill="#ffffff" stroke="#000000" points="536.1084,-125.5 536.1084,-143.5 658.8369,-143.5 658.8369,-125.5 536.1084,-125.5"/>
<text text-anchor="middle" x="597.4727" y="-131.5" font-family="Helvetica,sans-Serif" font-size="10.00" fill="#000000">src/include/application.h</text>
</a>
</g>
</g>
<!-- Node2&#45;&gt;Node20 -->
<g id="edge61" class="edge">
<title>Node2&#45;&gt;Node20</title>
<path fill="none" stroke="#191970" d="M2053.5653,-253.7231C1885.4075,-251.2505 1431.6482,-241.3598 1055.4727,-204 905.2155,-189.0773 729.0091,-158.661 645.7351,-143.5035"/>
<polygon fill="#191970" stroke="#191970" points="2053.6995,-257.2253 2063.7486,-253.8688 2053.7998,-250.226 2053.6995,-257.2253"/>
</g>
<!-- Node21 -->
<g id="node17" class="node">
<title>Node21</title>
<g id="a_node17"><a xlink:href="events_2include_2event_8h.html" target="_top" xlink:title="events/include/event.h">
<polygon fill="#ffffff" stroke="#000000" points="2435.7168,-125.5 2435.7168,-143.5 2551.2285,-143.5 2551.2285,-125.5 2435.7168,-125.5"/>
<text text-anchor="middle" x="2493.4727" y="-131.5" font-family="Helvetica,sans-Serif" font-size="10.00" fill="#000000">events/include/event.h</text>
</a>
</g>
</g>
<!-- Node2&#45;&gt;Node21 -->
<g id="edge65" class="edge">
<title>Node2&#45;&gt;Node21</title>
<path fill="none" stroke="#191970" d="M2161.9723,-242.6887C2196.4828,-232.743 2246.8302,-217.9465 2290.4727,-204 2354.8753,-183.4193 2429.9968,-157.0866 2468.2655,-143.5031"/>
<polygon fill="#191970" stroke="#191970" points="2160.8811,-239.3606 2152.237,-245.4868 2162.8148,-246.0882 2160.8811,-239.3606"/>
</g>
<!-- Node22 -->
<g id="node18" class="node">
<title>Node22</title>
<g id="a_node18"><a xlink:href="apphdlr_8h.html" target="_top" xlink:title="components/include\l/apphdlr.h">
<polygon fill="#ffffff" stroke="#000000" points="1421,-55.5 1421,-83.5 1525.9453,-83.5 1525.9453,-55.5 1421,-55.5"/>
<text text-anchor="start" x="1429" y="-71.5" font-family="Helvetica,sans-Serif" font-size="10.00" fill="#000000">components/include</text>
<text text-anchor="middle" x="1473.4727" y="-61.5" font-family="Helvetica,sans-Serif" font-size="10.00" fill="#000000">/apphdlr.h</text>
</a>
</g>
</g>
<!-- Node2&#45;&gt;Node22 -->
<g id="edge64" class="edge">
<title>Node2&#45;&gt;Node22</title>
<path fill="none" stroke="#191970" d="M2053.5483,-245.8264C1996.1553,-237.594 1911.5625,-223.5633 1839.4727,-204 1713.0525,-169.6928 1568.6397,-110.4055 1505.6609,-83.5014"/>
<polygon fill="#191970" stroke="#191970" points="2053.1917,-249.3108 2063.5835,-247.2465 2054.1726,-242.3798 2053.1917,-249.3108"/>
</g>
<!-- Node23 -->
<g id="node19" class="node">
<title>Node23</title>
<g id="a_node19"><a xlink:href="cac_8h.html" target="_top" xlink:title="components/include\l/cac.h">
<polygon fill="#ffffff" stroke="#000000" points="0,-55.5 0,-83.5 104.9453,-83.5 104.9453,-55.5 0,-55.5"/>
<text text-anchor="start" x="8" y="-71.5" font-family="Helvetica,sans-Serif" font-size="10.00" fill="#000000">components/include</text>
<text text-anchor="middle" x="52.4727" y="-61.5" font-family="Helvetica,sans-Serif" font-size="10.00" fill="#000000">/cac.h</text>
</a>
</g>
</g>
<!-- Node2&#45;&gt;Node23 -->
<g id="edge66" class="edge">
<title>Node2&#45;&gt;Node23</title>
<path fill="none" stroke="#191970" d="M2053.2929,-252.7904C1742.9382,-244.8571 461.266,-211.6915 420.4727,-204 288.7888,-179.1712 141.853,-112.9075 81.1193,-83.6829"/>
<polygon fill="#191970" stroke="#191970" points="2053.4026,-256.2943 2063.4888,-253.0509 2053.5815,-249.2966 2053.4026,-256.2943"/>
</g>
<!-- Node25 -->
<g id="node21" class="node">
<title>Node25</title>
<g id="a_node21"><a xlink:href="channel__mgmt_8h.html" target="_top" xlink:title="components/include\l/channel_mgmt.h">
<polygon fill="#ffffff" stroke="#ff0000" points="1544,-55.5 1544,-83.5 1648.9453,-83.5 1648.9453,-55.5 1544,-55.5"/>
<text text-anchor="start" x="1552" y="-71.5" font-family="Helvetica,sans-Serif" font-size="10.00" fill="#000000">components/include</text>
<text text-anchor="middle" x="1596.4727" y="-61.5" font-family="Helvetica,sans-Serif" font-size="10.00" fill="#000000">/channel_mgmt.h</text>
</a>
</g>
</g>
<!-- Node2&#45;&gt;Node25 -->
<g id="edge67" class="edge">
<title>Node2&#45;&gt;Node25</title>
<path fill="none" stroke="#191970" d="M2054.1446,-243.6991C2007.8788,-235.2425 1945.0751,-221.9069 1891.4727,-204 1788.4357,-169.5785 1673.0886,-110.6118 1622.5564,-83.6737"/>
<polygon fill="#191970" stroke="#191970" points="2053.5898,-247.1554 2064.0516,-245.4816 2054.8294,-240.266 2053.5898,-247.1554"/>
</g>
<!-- Node27 -->
<g id="node22" class="node">
<title>Node27</title>
<g id="a_node22"><a xlink:href="cluster_8h.html" target="_top" xlink:title="components/include\l/cluster.h">
<polygon fill="#ffffff" stroke="#ff0000" points="3789,-55.5 3789,-83.5 3893.9453,-83.5 3893.9453,-55.5 3789,-55.5"/>
<text text-anchor="start" x="3797" y="-71.5" font-family="Helvetica,sans-Serif" font-size="10.00" fill="#000000">components/include</text>
<text text-anchor="middle" x="3841.4727" y="-61.5" font-family="Helvetica,sans-Serif" font-size="10.00" fill="#000000">/cluster.h</text>
</a>
</g>
</g>
<!-- Node2&#45;&gt;Node27 -->
<g id="edge68" class="edge">
<title>Node2&#45;&gt;Node27</title>
<path fill="none" stroke="#191970" d="M2187.6837,-250.8695C2249.2723,-247.6437 2342.987,-242.9891 2424.4727,-240 2463.4038,-238.5719 3797.775,-230.346 3826.4727,-204 3860.0498,-173.1743 3851.3508,-111.8282 3845.1677,-83.9217"/>
<polygon fill="#191970" stroke="#191970" points="2187.1283,-247.3937 2177.326,-251.4144 2187.4961,-254.3841 2187.1283,-247.3937"/>
</g>
<!-- Node29 -->
<g id="node23" class="node">
<title>Node29</title>
<g id="a_node23"><a xlink:href="conflict_8h.html" target="_top" xlink:title="components/include\l/conflict.h">
<polygon fill="#ffffff" stroke="#ff0000" points="3014,-55.5 3014,-83.5 3118.9453,-83.5 3118.9453,-55.5 3014,-55.5"/>
<text text-anchor="start" x="3022" y="-71.5" font-family="Helvetica,sans-Serif" font-size="10.00" fill="#000000">components/include</text>
<text text-anchor="middle" x="3066.4727" y="-61.5" font-family="Helvetica,sans-Serif" font-size="10.00" fill="#000000">/conflict.h</text>
</a>
</g>
</g>
<!-- Node2&#45;&gt;Node29 -->
<g id="edge69" class="edge">
<title>Node2&#45;&gt;Node29</title>
<path fill="none" stroke="#191970" d="M2187.5571,-251.1521C2349.2739,-242.8587 2751.6389,-220.8164 2810.4727,-204 2905.3272,-176.8878 3005.3943,-112.1529 3046.7858,-83.5258"/>
<polygon fill="#191970" stroke="#191970" points="2187.0676,-247.6725 2177.2593,-251.6783 2187.4249,-254.6633 2187.0676,-247.6725"/>
</g>
<!-- Node31 -->
<g id="node24" class="node">
<title>Node31</title>
<g id="a_node24"><a xlink:href="conn_8h.html" target="_top" xlink:title="components/include\l/conn.h">
<polygon fill="#ffffff" stroke="#ff0000" points="3137,-55.5 3137,-83.5 3241.9453,-83.5 3241.9453,-55.5 3137,-55.5"/>
<text text-anchor="start" x="3145" y="-71.5" font-family="Helvetica,sans-Serif" font-size="10.00" fill="#000000">components/include</text>
<text text-anchor="middle" x="3189.4727" y="-61.5" font-family="Helvetica,sans-Serif" font-size="10.00" fill="#000000">/conn.h</text>
</a>
</g>
</g>
<!-- Node2&#45;&gt;Node31 -->
<g id="edge70" class="edge">
<title>Node2&#45;&gt;Node31</title>
<path fill="none" stroke="#191970" d="M2187.4833,-251.0454C2355.6945,-242.2055 2786.8819,-218.4464 2850.4727,-204 2971.4908,-176.5073 3105.9155,-112.2714 3162.2793,-83.671"/>
<polygon fill="#191970" stroke="#191970" points="2187.0723,-247.562 2177.2693,-251.5808 2187.4388,-254.5524 2187.0723,-247.562"/>
</g>
<!-- Node33 -->
<g id="node25" class="node">
<title>Node33</title>
<g id="a_node25"><a xlink:href="dit_8h.html" target="_top" xlink:title="components/include\l/dit.h">
<polygon fill="#ffffff" stroke="#ff0000" points="2854,-55.5 2854,-83.5 2958.9453,-83.5 2958.9453,-55.5 2854,-55.5"/>
<text text-anchor="start" x="2862" y="-71.5" font-family="Helvetica,sans-Serif" font-size="10.00" fill="#000000">components/include</text>
<text text-anchor="middle" x="2906.4727" y="-61.5" font-family="Helvetica,sans-Serif" font-size="10.00" fill="#000000">/dit.h</text>
</a>
</g>
</g>
<!-- Node2&#45;&gt;Node33 -->
<g id="edge71" class="edge">
<title>Node2&#45;&gt;Node33</title>
<path fill="none" stroke="#191970" d="M2187.1838,-243.772C2243.2634,-234.4006 2325.4185,-219.8452 2396.4727,-204 2567.6233,-165.8331 2768.0993,-109.5047 2858.2558,-83.5434"/>
<polygon fill="#191970" stroke="#191970" points="2186.3152,-240.3683 2177.0245,-245.4607 2187.4631,-247.2736 2186.3152,-240.3683"/>
</g>
<!-- Node35 -->
<g id="node26" class="node">
<title>Node35</title>
<g id="a_node26"><a xlink:href="flow__mgmt_8h.html" target="_top" xlink:title="components/include\l/flow_mgmt.h">
<polygon fill="#ffffff" stroke="#ff0000" points="3260,-55.5 3260,-83.5 3364.9453,-83.5 3364.9453,-55.5 3260,-55.5"/>
<text text-anchor="start" x="3268" y="-71.5" font-family="Helvetica,sans-Serif" font-size="10.00" fill="#000000">components/include</text>
<text text-anchor="middle" x="3312.4727" y="-61.5" font-family="Helvetica,sans-Serif" font-size="10.00" fill="#000000">/flow_mgmt.h</text>
</a>
</g>
</g>
<!-- Node2&#45;&gt;Node35 -->
<g id="edge72" class="edge">
<title>Node2&#45;&gt;Node35</title>
<path fill="none" stroke="#191970" d="M2187.506,-251.108C2363.4567,-242.0686 2829.6802,-217.1924 2898.4727,-204 3043.9448,-176.1026 3209.3419,-112.0817 3278.8808,-83.6043"/>
<polygon fill="#191970" stroke="#191970" points="2187.1496,-247.6216 2177.342,-251.6291 2187.5081,-254.6124 2187.1496,-247.6216"/>
</g>
<!-- Node37 -->
<g id="node27" class="node">
<title>Node37</title>
<g id="a_node27"><a xlink:href="host__mgmt_8h.html" target="_top" xlink:title="components/include\l/host_mgmt.h">
<polygon fill="#ffffff" stroke="#ff0000" points="1298,-55.5 1298,-83.5 1402.9453,-83.5 1402.9453,-55.5 1298,-55.5"/>
<text text-anchor="start" x="1306" y="-71.5" font-family="Helvetica,sans-Serif" font-size="10.00" fill="#000000">components/include</text>
<text text-anchor="middle" x="1350.4727" y="-61.5" font-family="Helvetica,sans-Serif" font-size="10.00" fill="#000000">/host_mgmt.h</text>
</a>
</g>
</g>
<!-- Node2&#45;&gt;Node37 -->
<g id="edge73" class="edge">
<title>Node2&#45;&gt;Node37</title>
<path fill="none" stroke="#191970" d="M2053.721,-247.6903C1984.0162,-239.8839 1871.7726,-225.3491 1776.4727,-204 1694.4297,-185.6208 1675.6842,-174.1983 1595.4727,-149 1524.2265,-126.6181 1441.674,-99.6062 1392.8853,-83.5296"/>
<polygon fill="#191970" stroke="#191970" points="2053.3653,-251.1722 2063.6896,-248.7933 2054.1352,-244.2147 2053.3653,-251.1722"/>
</g>
<!-- Node39 -->
<g id="node28" class="node">
<title>Node39</title>
<g id="a_node28"><a xlink:href="log_8h.html" target="_top" xlink:title="components/include\l/log.h">
<polygon fill="#ffffff" stroke="#ff0000" points="2062,-55.5 2062,-83.5 2166.9453,-83.5 2166.9453,-55.5 2062,-55.5"/>
<text text-anchor="start" x="2070" y="-71.5" font-family="Helvetica,sans-Serif" font-size="10.00" fill="#000000">components/include</text>
<text text-anchor="middle" x="2114.4727" y="-61.5" font-family="Helvetica,sans-Serif" font-size="10.00" fill="#000000">/log.h</text>
</a>
</g>
</g>
<!-- Node2&#45;&gt;Node39 -->
<g id="edge74" class="edge">
<title>Node2&#45;&gt;Node39</title>
<path fill="none" stroke="#191970" d="M2105.0267,-237.7986C2097.5539,-228.5712 2089.3721,-216.4719 2085.4727,-204 2074.3319,-168.3677 2075.852,-156.0724 2085.4727,-120 2089.0159,-106.7146 2096.9791,-93.2925 2103.6659,-83.6284"/>
<polygon fill="#191970" stroke="#191970" points="2102.3776,-240.0861 2111.5471,-245.3938 2107.6889,-235.5264 2102.3776,-240.0861"/>
</g>
<!-- Node41 -->
<g id="node29" class="node">
<title>Node41</title>
<g id="a_node29"><a xlink:href="ofp10_8h.html" target="_top" xlink:title="components/include\l/ofp10.h">
<polygon fill="#ffffff" stroke="#ff0000" points="3383,-55.5 3383,-83.5 3487.9453,-83.5 3487.9453,-55.5 3383,-55.5"/>
<text text-anchor="start" x="3391" y="-71.5" font-family="Helvetica,sans-Serif" font-size="10.00" fill="#000000">components/include</text>
<text text-anchor="middle" x="3435.4727" y="-61.5" font-family="Helvetica,sans-Serif" font-size="10.00" fill="#000000">/ofp10.h</text>
</a>
</g>
</g>
<!-- Node2&#45;&gt;Node41 -->
<g id="edge75" class="edge">
<title>Node2&#45;&gt;Node41</title>
<path fill="none" stroke="#191970" d="M2187.3643,-251.2316C2371.7916,-242.1092 2878.8397,-216.2409 2953.4727,-204 3045.7152,-188.8709 3066.4113,-174.0306 3156.4727,-149 3237.3901,-126.5107 3331.2675,-99.5888 3386.8899,-83.5505"/>
<polygon fill="#191970" stroke="#191970" points="2187.0705,-247.7417 2177.2553,-251.7308 2187.4158,-254.7332 2187.0705,-247.7417"/>
</g>
<!-- Node43 -->
<g id="node30" class="node">
<title>Node43</title>
<g id="a_node30"><a xlink:href="ofp10__veri_8h.html" target="_top" xlink:title="components/include\l/ofp10_veri.h">
<polygon fill="#ffffff" stroke="#ff0000" points="3506,-55.5 3506,-83.5 3610.9453,-83.5 3610.9453,-55.5 3506,-55.5"/>
<text text-anchor="start" x="3514" y="-71.5" font-family="Helvetica,sans-Serif" font-size="10.00" fill="#000000">components/include</text>
<text text-anchor="middle" x="3558.4727" y="-61.5" font-family="Helvetica,sans-Serif" font-size="10.00" fill="#000000">/ofp10_veri.h</text>
</a>
</g>
</g>
<!-- Node2&#45;&gt;Node43 -->
<g id="edge76" class="edge">
<title>Node2&#45;&gt;Node43</title>
<path fill="none" stroke="#191970" d="M2187.1587,-251.4199C2379.8854,-242.4187 2929.0217,-216.0357 3009.4727,-204 3199.6929,-175.5425 3420.4521,-111.8191 3513.4839,-83.512"/>
<polygon fill="#191970" stroke="#191970" points="2186.9866,-247.924 2177.1605,-251.8862 2187.3128,-254.9164 2186.9866,-247.924"/>
</g>
<!-- Node45 -->
<g id="node31" class="node">
<title>Node45</title>
<g id="a_node31"><a xlink:href="resource__mgmt_8h.html" target="_top" xlink:title="components/include\l/resource_mgmt.h">
<polygon fill="#ffffff" stroke="#ff0000" points="2185,-55.5 2185,-83.5 2289.9453,-83.5 2289.9453,-55.5 2185,-55.5"/>
<text text-anchor="start" x="2193" y="-71.5" font-family="Helvetica,sans-Serif" font-size="10.00" fill="#000000">components/include</text>
<text text-anchor="middle" x="2237.4727" y="-61.5" font-family="Helvetica,sans-Serif" font-size="10.00" fill="#000000">/resource_mgmt.h</text>
</a>
</g>
</g>
<!-- Node2&#45;&gt;Node45 -->
<g id="edge77" class="edge">
<title>Node2&#45;&gt;Node45</title>
<path fill="none" stroke="#191970" d="M2121.2548,-235.3032C2123.2859,-207.3584 2130.5531,-155.0009 2156.4727,-120 2168.3073,-104.0189 2186.8448,-91.9239 2203.2008,-83.5832"/>
<polygon fill="#191970" stroke="#191970" points="2117.7568,-235.1702 2120.6784,-245.3543 2124.7453,-235.5711 2117.7568,-235.1702"/>
</g>
<!-- Node47 -->
<g id="node32" class="node">
<title>Node47</title>
<g id="a_node32"><a xlink:href="stat__mgmt_8h.html" target="_top" xlink:title="components/include\l/stat_mgmt.h">
<polygon fill="#ffffff" stroke="#ff0000" points="3629,-55.5 3629,-83.5 3733.9453,-83.5 3733.9453,-55.5 3629,-55.5"/>
<text text-anchor="start" x="3637" y="-71.5" font-family="Helvetica,sans-Serif" font-size="10.00" fill="#000000">components/include</text>
<text text-anchor="middle" x="3681.4727" y="-61.5" font-family="Helvetica,sans-Serif" font-size="10.00" fill="#000000">/stat_mgmt.h</text>
</a>
</g>
</g>
<!-- Node2&#45;&gt;Node47 -->
<g id="edge78" class="edge">
<title>Node2&#45;&gt;Node47</title>
<path fill="none" stroke="#191970" d="M2187.4448,-251.2096C2396.8224,-240.8877 3027.7401,-209.5052 3071.4727,-204 3195.1394,-188.4325 3224.705,-175.6165 3346.4727,-149 3446.6222,-127.1089 3562.9334,-98.8692 3628.8056,-82.6117"/>
<polygon fill="#191970" stroke="#191970" points="2187.0216,-247.7261 2177.206,-251.7141 2187.3662,-254.7176 2187.0216,-247.7261"/>
</g>
<!-- Node49 -->
<g id="node33" class="node">
<title>Node49</title>
<g id="a_node33"><a xlink:href="switch__mgmt_8h.html" target="_top" xlink:title="components/include\l/switch_mgmt.h">
<polygon fill="#ffffff" stroke="#ff0000" points="2731,-55.5 2731,-83.5 2835.9453,-83.5 2835.9453,-55.5 2731,-55.5"/>
<text text-anchor="start" x="2739" y="-71.5" font-family="Helvetica,sans-Serif" font-size="10.00" fill="#000000">components/include</text>
<text text-anchor="middle" x="2783.4727" y="-61.5" font-family="Helvetica,sans-Serif" font-size="10.00" fill="#000000">/switch_mgmt.h</text>
</a>
</g>
</g>
<!-- Node2&#45;&gt;Node49 -->
<g id="edge79" class="edge">
<title>Node2&#45;&gt;Node49</title>
<path fill="none" stroke="#191970" d="M2168.0597,-243.1221C2210.8264,-232.8939 2275.3517,-217.4553 2331.4727,-204 2433.2601,-179.5959 2464.6657,-191.1577 2560.4727,-149 2581.5716,-139.7159 2582.5531,-129.6813 2603.4727,-120 2644.4154,-101.0522 2693.9636,-87.7924 2730.7017,-79.6298"/>
<polygon fill="#191970" stroke="#191970" points="2167.1208,-239.7478 2158.2091,-245.4778 2168.7489,-246.5559 2167.1208,-239.7478"/>
</g>
<!-- Node51 -->
<g id="node34" class="node">
<title>Node51</title>
<g id="a_node34"><a xlink:href="components_2include_2topo__mgmt_8h.html" target="_top" xlink:title="components/include\l/topo_mgmt.h">
<polygon fill="#ffffff" stroke="#000000" points="1794,-55.5 1794,-83.5 1898.9453,-83.5 1898.9453,-55.5 1794,-55.5"/>
<text text-anchor="start" x="1802" y="-71.5" font-family="Helvetica,sans-Serif" font-size="10.00" fill="#000000">components/include</text>
<text text-anchor="middle" x="1846.4727" y="-61.5" font-family="Helvetica,sans-Serif" font-size="10.00" fill="#000000">/topo_mgmt.h</text>
</a>
</g>
</g>
<!-- Node2&#45;&gt;Node51 -->
<g id="edge80" class="edge">
<title>Node2&#45;&gt;Node51</title>
<path fill="none" stroke="#191970" d="M2100.972,-238.8869C2059.3756,-205.6364 1964.4223,-130.0371 1948.4727,-120 1926.2299,-106.0026 1899.5676,-92.9188 1879.0816,-83.5773"/>
<polygon fill="#191970" stroke="#191970" points="2098.9952,-241.7877 2108.9907,-245.3006 2103.3676,-236.3211 2098.9952,-241.7877"/>
</g>
<!-- Node54 -->
<g id="node37" class="node">
<title>Node54</title>
<g id="a_node37"><a xlink:href="ext__comps_2topo__mgmt_2src_2include_2topo__mgmt_8h.html" target="_top" xlink:title="ext_comps/topo_mgmt\l/src/include/topo_mgmt.h">
<polygon fill="#ffffff" stroke="#ff0000" points="1916.6133,-55.5 1916.6133,-83.5 2044.332,-83.5 2044.332,-55.5 1916.6133,-55.5"/>
<text text-anchor="start" x="1924.6133" y="-71.5" font-family="Helvetica,sans-Serif" font-size="10.00" fill="#000000">ext_comps/topo_mgmt</text>
<text text-anchor="middle" x="1980.4727" y="-61.5" font-family="Helvetica,sans-Serif" font-size="10.00" fill="#000000">/src/include/topo_mgmt.h</text>
</a>
</g>
</g>
<!-- Node2&#45;&gt;Node54 -->
<g id="edge84" class="edge">
<title>Node2&#45;&gt;Node54</title>
<path fill="none" stroke="#191970" d="M2105.0119,-238.1048C2096.0955,-228.4183 2084.8326,-215.7801 2075.4727,-204 2041.8601,-161.6965 2006.098,-108.5463 1989.6811,-83.6231"/>
<polygon fill="#191970" stroke="#191970" points="2102.4831,-240.5251 2111.8565,-245.4637 2107.6087,-235.7577 2102.4831,-240.5251"/>
</g>
<!-- Node58 -->
<g id="node39" class="node">
<title>Node58</title>
<g id="a_node39"><a xlink:href="src_2include_2component_8h.html" target="_top" xlink:title="src/include/component.h">
<polygon fill="#ffffff" stroke="#000000" points="2165.2759,-125.5 2165.2759,-143.5 2289.6694,-143.5 2289.6694,-125.5 2165.2759,-125.5"/>
<text text-anchor="middle" x="2227.4727" y="-131.5" font-family="Helvetica,sans-Serif" font-size="10.00" fill="#000000">src/include/component.h</text>
</a>
</g>
</g>
<!-- Node2&#45;&gt;Node58 -->
<g id="edge81" class="edge">
<title>Node2&#45;&gt;Node58</title>
<path fill="none" stroke="#191970" d="M2129.8553,-236.2022C2137.8988,-221.4856 2150.394,-200.74 2164.4727,-185 2179.3317,-168.3876 2200.0357,-152.9302 2213.5922,-143.6014"/>
<polygon fill="#191970" stroke="#191970" points="2126.6278,-234.8176 2125.0332,-245.2917 2132.8115,-238.0981 2126.6278,-234.8176"/>
</g>
<!-- Node59 -->
<g id="node40" class="node">
<title>Node59</title>
<g id="a_node40"><a xlink:href="cli_8h.html" target="_top" xlink:title="src/include/cli.h">
<polygon fill="#ffffff" stroke="#000000" points="3876.293,-125.5 3876.293,-143.5 3960.6523,-143.5 3960.6523,-125.5 3876.293,-125.5"/>
<text text-anchor="middle" x="3918.4727" y="-131.5" font-family="Helvetica,sans-Serif" font-size="10.00" fill="#000000">src/include/cli.h</text>
</a>
</g>
</g>
<!-- Node2&#45;&gt;Node59 -->
<g id="edge85" class="edge">
<title>Node2&#45;&gt;Node59</title>
<path fill="none" stroke="#191970" d="M2187.6833,-250.8581C2249.2716,-247.6246 2342.9861,-242.9651 2424.4727,-240 2504.1672,-237.1001 3787.5264,-238.4002 3859.4727,-204 3886.3175,-191.1645 3905.5531,-159.6993 3913.8779,-143.8891"/>
<polygon fill="#191970" stroke="#191970" points="2187.1274,-247.3824 2177.3256,-251.4044 2187.4961,-254.3727 2187.1274,-247.3824"/>
</g>
<!-- Node60 -->
<g id="node41" class="node">
<title>Node60</title>
<g id="a_node41"><a xlink:href="storage_8h.html" target="_top" xlink:title="src/include/storage.h">
<polygon fill="#ffffff" stroke="#ff0000" points="1667.3374,-60.5 1667.3374,-78.5 1775.6079,-78.5 1775.6079,-60.5 1667.3374,-60.5"/>
<text text-anchor="middle" x="1721.4727" y="-66.5" font-family="Helvetica,sans-Serif" font-size="10.00" fill="#000000">src/include/storage.h</text>
</a>
</g>
</g>
<!-- Node2&#45;&gt;Node60 -->
<g id="edge86" class="edge">
<title>Node2&#45;&gt;Node60</title>
<path fill="none" stroke="#191970" d="M2094.4781,-240.6265C2076.3307,-230.7687 2051.6603,-217.0215 2030.4727,-204 1993.0858,-181.0227 1983.447,-175.5052 1948.4727,-149 1932.6435,-137.0039 1932.0798,-129.1902 1914.4727,-120 1900.7326,-112.8282 1811.8481,-90.9959 1759.6216,-78.5113"/>
<polygon fill="#191970" stroke="#191970" points="2092.8586,-243.7296 2103.3205,-245.4025 2096.1853,-237.5706 2092.8586,-243.7296"/>
</g>
<!-- Node63 -->
<g id="node43" class="node">
<title>Node63</title>
<g id="a_node43"><a xlink:href="base64_8h.html" target="_top" xlink:title="util/include/base64.h">
<polygon fill="#ffffff" stroke="#ff0000" points="3709.8843,-185.5 3709.8843,-203.5 3817.061,-203.5 3817.061,-185.5 3709.8843,-185.5"/>
<text text-anchor="middle" x="3763.4727" y="-191.5" font-family="Helvetica,sans-Serif" font-size="10.00" fill="#000000">util/include/base64.h</text>
</a>
</g>
</g>
<!-- Node2&#45;&gt;Node63 -->
<g id="edge88" class="edge">
<title>Node2&#45;&gt;Node63</title>
<path fill="none" stroke="#191970" d="M2187.6857,-250.9205C2249.2755,-247.7292 2342.991,-243.0969 2424.4727,-240 2989.1804,-218.537 3132.3291,-251.1673 3695.4727,-204 3700.1053,-203.612 3704.9046,-203.1217 3709.7124,-202.5693"/>
<polygon fill="#191970" stroke="#191970" points="2187.1323,-247.4444 2177.3276,-251.4593 2187.496,-254.435 2187.1323,-247.4444"/>
</g>
<!-- Node71 -->
<g id="node44" class="node">
<title>Node71</title>
<g id="a_node44"><a xlink:href="database_8h.html" target="_top" xlink:title="util/include/database.h">
<polygon fill="#ffffff" stroke="#ff0000" points="1789.7144,-125.5 1789.7144,-143.5 1905.231,-143.5 1905.231,-125.5 1789.7144,-125.5"/>
<text text-anchor="middle" x="1847.4727" y="-131.5" font-family="Helvetica,sans-Serif" font-size="10.00" fill="#000000">util/include/database.h</text>
</a>
</g>
</g>
<!-- Node2&#45;&gt;Node71 -->
<g id="edge90" class="edge">
<title>Node2&#45;&gt;Node71</title>
<path fill="none" stroke="#191970" d="M2053.39,-247.6109C2010.5392,-240.9262 1955.1632,-228.1006 1911.4727,-204 1882.9733,-188.2792 1857.3509,-158.7141 1848.9214,-143.7211"/>
<polygon fill="#191970" stroke="#191970" points="2053.0364,-251.0967 2063.4419,-249.1029 2054.0642,-244.1725 2053.0364,-251.0967"/>
</g>
<!-- Node85 -->
<g id="node45" class="node">
<title>Node85</title>
<g id="a_node45"><a xlink:href="str_8h.html" target="_top" xlink:title="util/include/str.h">
<polygon fill="#ffffff" stroke="#ff0000" points="555.0073,-185.5 555.0073,-203.5 639.938,-203.5 639.938,-185.5 555.0073,-185.5"/>
<text text-anchor="middle" x="597.4727" y="-191.5" font-family="Helvetica,sans-Serif" font-size="10.00" fill="#000000">util/include/str.h</text>
</a>
</g>
</g>
<!-- Node2&#45;&gt;Node85 -->
<g id="edge103" class="edge">
<title>Node2&#45;&gt;Node85</title>
<path fill="none" stroke="#191970" d="M2053.663,-252.2905C1858.2446,-245.7601 1270.7706,-225.6464 783.4727,-204 734.2123,-201.8118 677.6366,-198.8594 639.9418,-196.8299"/>
<polygon fill="#191970" stroke="#191970" points="2053.6621,-255.7923 2063.7733,-252.6279 2053.8957,-248.7962 2053.6621,-255.7923"/>
</g>
<!-- Node87 -->
<g id="node46" class="node">
<title>Node87</title>
<g id="a_node46"><a xlink:href="hash_8h.html" target="_top" xlink:title="util/include/hash.h">
<polygon fill="#ffffff" stroke="#ff0000" points="1117.4458,-185.5 1117.4458,-203.5 1213.4995,-203.5 1213.4995,-185.5 1117.4458,-185.5"/>
<text text-anchor="middle" x="1165.4727" y="-191.5" font-family="Helvetica,sans-Serif" font-size="10.00" fill="#000000">util/include/hash.h</text>
</a>
</g>
</g>
<!-- Node2&#45;&gt;Node87 -->
<g id="edge110" class="edge">
<title>Node2&#45;&gt;Node87</title>
<path fill="none" stroke="#191970" d="M2053.6359,-251.6665C1908.3019,-245.2705 1552.6913,-228.3491 1255.4727,-204 1241.849,-202.8839 1227.0908,-201.4292 1213.5425,-199.995"/>
<polygon fill="#191970" stroke="#191970" points="2053.5893,-255.1677 2063.7329,-252.1088 2053.8956,-248.1744 2053.5893,-255.1677"/>
</g>
<!-- Node89 -->
<g id="node47" class="node">
<title>Node89</title>
<g id="a_node47"><a xlink:href="ip2int_8h.html" target="_top" xlink:title="util/include/ip2int.h">
<polygon fill="#ffffff" stroke="#ff0000" points="2575.335,-185.5 2575.335,-203.5 2673.6104,-203.5 2673.6104,-185.5 2575.335,-185.5"/>
<text text-anchor="middle" x="2624.4727" y="-191.5" font-family="Helvetica,sans-Serif" font-size="10.00" fill="#000000">util/include/ip2int.h</text>
</a>
</g>
</g>
<!-- Node2&#45;&gt;Node89 -->
<g id="edge120" class="edge">
<title>Node2&#45;&gt;Node89</title>
<path fill="none" stroke="#191970" d="M2187.3205,-246.9195C2272.3072,-237.6694 2423.2712,-221.1334 2552.4727,-204 2559.8193,-203.0258 2567.6357,-201.9108 2575.3342,-200.7954"/>
<polygon fill="#191970" stroke="#191970" points="2186.8519,-243.4497 2177.2892,-248.011 2187.6092,-250.4086 2186.8519,-243.4497"/>
</g>
<!-- Node91 -->
<g id="node48" class="node">
<title>Node91</title>
<g id="a_node48"><a xlink:href="mac2int_8h.html" target="_top" xlink:title="util/include/mac2int.h">
<polygon fill="#ffffff" stroke="#ff0000" points="2691.7808,-185.5 2691.7808,-203.5 2801.1646,-203.5 2801.1646,-185.5 2691.7808,-185.5"/>
<text text-anchor="middle" x="2746.4727" y="-191.5" font-family="Helvetica,sans-Serif" font-size="10.00" fill="#000000">util/include/mac2int.h</text>
</a>
</g>
</g>
<!-- Node2&#45;&gt;Node91 -->
<g id="edge122" class="edge">
<title>Node2&#45;&gt;Node91</title>
<path fill="none" stroke="#191970" d="M2187.4806,-249.3024C2291.6516,-241.344 2498.3707,-224.8453 2673.4727,-204 2679.2728,-203.3095 2685.3572,-202.5076 2691.4466,-201.6679"/>
<polygon fill="#191970" stroke="#191970" points="2187.1253,-245.8193 2177.4201,-250.0689 2187.6571,-252.799 2187.1253,-245.8193"/>
</g>
<!-- Node4 -->
<g id="node4" class="node">
<title>Node4</title>
<g id="a_node4"><a xlink:href="app__events_2app__event_8c.html" target="_top" xlink:title="app_events/app_event.c">
<polygon fill="#ffffff" stroke="#000000" points="534.9854,-60.5 534.9854,-78.5 659.96,-78.5 659.96,-60.5 534.9854,-60.5"/>
<text text-anchor="middle" x="597.4727" y="-66.5" font-family="Helvetica,sans-Serif" font-size="10.00" fill="#000000">app_events/app_event.c</text>
</a>
</g>
</g>
<!-- Node3&#45;&gt;Node4 -->
<g id="edge3" class="edge">
<title>Node3&#45;&gt;Node4</title>
<path fill="none" stroke="#191970" d="M904.0531,-124.6643C843.9202,-114.8915 749.7547,-99.206 668.4727,-84 659.4453,-82.3112 649.793,-80.4065 640.6063,-78.5463"/>
<polygon fill="#191970" stroke="#191970" points="903.7072,-128.1539 914.1386,-126.2999 904.8278,-121.2442 903.7072,-128.1539"/>
</g>
<!-- Node3&#45;&gt;Node5 -->
<g id="edge4" class="edge">
<title>Node3&#45;&gt;Node5</title>
<path fill="none" stroke="#191970" d="M1000.0822,-115.4354C1018.5954,-105.2374 1040.9973,-92.8975 1057.9184,-83.5765"/>
<polygon fill="#191970" stroke="#191970" points="998.1472,-112.5054 991.0769,-120.396 1001.5247,-118.6367 998.1472,-112.5054"/>
</g>
<!-- Node3&#45;&gt;Node6 -->
<g id="edge5" class="edge">
<title>Node3&#45;&gt;Node6</title>
<path fill="none" stroke="#191970" d="M904.0718,-131.5908C752.3911,-124.1894 362.9814,-103.8229 234.4727,-84 231.8248,-83.5916 229.122,-83.1246 226.4001,-82.6145"/>
<polygon fill="#191970" stroke="#191970" points="903.9866,-135.0907 914.1447,-132.0803 904.3264,-128.0989 903.9866,-135.0907"/>
</g>
<!-- Node7 -->
<g id="node7" class="node">
<title>Node7</title>
<g id="a_node7"><a xlink:href="appint_8h.html" target="_top" xlink:title="components/include\l/appint.h">
<polygon fill="#ffffff" stroke="#000000" points="833,-55.5 833,-83.5 937.9453,-83.5 937.9453,-55.5 833,-55.5"/>
<text text-anchor="start" x="841" y="-71.5" font-family="Helvetica,sans-Serif" font-size="10.00" fill="#000000">components/include</text>
<text text-anchor="middle" x="885.4727" y="-61.5" font-family="Helvetica,sans-Serif" font-size="10.00" fill="#000000">/appint.h</text>
</a>
</g>
</g>
<!-- Node3&#45;&gt;Node7 -->
<g id="edge6" class="edge">
<title>Node3&#45;&gt;Node7</title>
<path fill="none" stroke="#191970" d="M940.0981,-113.8832C927.9409,-104.0054 913.6933,-92.4293 902.7976,-83.5765"/>
<polygon fill="#191970" stroke="#191970" points="938.1456,-116.8064 948.1138,-120.396 942.5598,-111.3736 938.1456,-116.8064"/>
</g>
<!-- Node9 -->
<g id="node9" class="node">
<title>Node9</title>
<g id="a_node9"><a xlink:href="ext__apps_2shim_2app__event_8c.html" target="_top" xlink:title="ext_apps/shim/app_event.c">
<polygon fill="#ffffff" stroke="#000000" points="677.6011,-60.5 677.6011,-78.5 815.3442,-78.5 815.3442,-60.5 677.6011,-60.5"/>
<text text-anchor="middle" x="746.4727" y="-66.5" font-family="Helvetica,sans-Serif" font-size="10.00" fill="#000000">ext_apps/shim/app_event.c</text>
</a>
</g>
</g>
<!-- Node3&#45;&gt;Node9 -->
<g id="edge8" class="edge">
<title>Node3&#45;&gt;Node9</title>
<path fill="none" stroke="#191970" d="M908.3785,-117.5542C866.2888,-105.0619 810.6809,-88.5573 776.801,-78.5016"/>
<polygon fill="#191970" stroke="#191970" points="907.64,-120.9859 918.2225,-120.476 909.6318,-114.2752 907.64,-120.9859"/>
</g>
<!-- Node3&#45;&gt;Node10 -->
<g id="edge9" class="edge">
<title>Node3&#45;&gt;Node10</title>
<path fill="none" stroke="#191970" d="M1026.2949,-118.7492C1067.8368,-107.9914 1122.3893,-93.8642 1162.41,-83.5003"/>
<polygon fill="#191970" stroke="#191970" points="1025.372,-115.3727 1016.5688,-121.2679 1027.1269,-122.1491 1025.372,-115.3727"/>
</g>
<!-- Node3&#45;&gt;Node13 -->
<g id="edge10" class="edge">
<title>Node3&#45;&gt;Node13</title>
<path fill="none" stroke="#191970" d="M904.3032,-129.5619C803.4017,-121.2525 595.7826,-103.4638 420.4727,-84 405.1754,-82.3016 388.7284,-80.2814 373.2753,-78.2964"/>
<polygon fill="#191970" stroke="#191970" points="904.063,-133.0539 914.3159,-130.3842 904.636,-126.0774 904.063,-133.0539"/>
</g>
<!-- Node16 -->
<g id="node12" class="node">
<title>Node16</title>
<g id="a_node12"><a xlink:href="application_8c.html" target="_top" xlink:title="src/application.c">
<polygon fill="#ffffff" stroke="#000000" points="429.623,-60.5 429.623,-78.5 517.3223,-78.5 517.3223,-60.5 429.623,-60.5"/>
<text text-anchor="middle" x="473.4727" y="-66.5" font-family="Helvetica,sans-Serif" font-size="10.00" fill="#000000">src/application.c</text>
</a>
</g>
</g>
<!-- Node3&#45;&gt;Node16 -->
<g id="edge11" class="edge">
<title>Node3&#45;&gt;Node16</title>
<path fill="none" stroke="#191970" d="M904.0232,-130.4032C818.7156,-124.0427 659.8391,-109.7583 526.4727,-84 518.8858,-82.5347 510.7941,-80.545 503.2764,-78.5095"/>
<polygon fill="#191970" stroke="#191970" points="903.8257,-133.898 914.0552,-131.1398 904.3383,-126.9168 903.8257,-133.898"/>
</g>
<!-- Node17 -->
<g id="node13" class="node">
<title>Node17</title>
<g id="a_node13"><a xlink:href="cli_8c.html" target="_top" xlink:title="src/cli.c">
<polygon fill="#ffffff" stroke="#000000" points="1994.8076,-.5 1994.8076,-18.5 2044.1377,-18.5 2044.1377,-.5 1994.8076,-.5"/>
<text text-anchor="middle" x="2019.4727" y="-6.5" font-family="Helvetica,sans-Serif" font-size="10.00" fill="#000000">src/cli.c</text>
</a>
</g>
</g>
<!-- Node3&#45;&gt;Node17 -->
<g id="edge12" class="edge">
<title>Node3&#45;&gt;Node17</title>
<path fill="none" stroke="#191970" d="M965.7671,-110.0877C967.4155,-91.8314 972.9001,-67.8853 989.4727,-55 1030.4076,-23.1726 1841.3335,-11.682 1994.5986,-9.7907"/>
<polygon fill="#191970" stroke="#191970" points="962.2592,-110.126 965.1781,-120.3108 969.2476,-110.5287 962.2592,-110.126"/>
</g>
<!-- Node3&#45;&gt;Node18 -->
<g id="edge13" class="edge">
<title>Node3&#45;&gt;Node18</title>
<path fill="none" stroke="#191970" d="M974.9678,-111.2687C984.0789,-92.3568 999.8155,-66.9127 1022.4727,-55 1076.306,-26.6955 3068.3073,-11.6521 3342.3414,-9.7148"/>
<polygon fill="#191970" stroke="#191970" points="971.7438,-109.9036 970.8056,-120.4568 978.1201,-112.792 971.7438,-109.9036"/>
</g>
<!-- Node8 -->
<g id="node8" class="node">
<title>Node8</title>
<g id="a_node8"><a xlink:href="apphdlr_8c.html" target="_top" xlink:title="components/apphdlr.c">
<polygon fill="#ffffff" stroke="#000000" points="1122.5493,-.5 1122.5493,-18.5 1236.396,-18.5 1236.396,-.5 1122.5493,-.5"/>
<text text-anchor="middle" x="1179.4727" y="-6.5" font-family="Helvetica,sans-Serif" font-size="10.00" fill="#000000">components/apphdlr.c</text>
</a>
</g>
</g>
<!-- Node7&#45;&gt;Node8 -->
<g id="edge7" class="edge">
<title>Node7&#45;&gt;Node8</title>
<path fill="none" stroke="#191970" d="M948.1727,-55.6944C949.2811,-55.4603 950.3819,-55.2286 951.4727,-55 1014.0886,-41.8751 1086.5688,-27.5608 1132.6956,-18.5611"/>
<polygon fill="#191970" stroke="#191970" points="947.0997,-52.3444 938.0497,-57.8532 948.5598,-59.1905 947.0997,-52.3444"/>
</g>
<!-- Node19&#45;&gt;Node3 -->
<g id="edge15" class="edge">
<title>Node19&#45;&gt;Node3</title>
<path fill="none" stroke="#191970" d="M2163.5338,-191.4601C1942.9811,-180.9743 1216.6055,-146.4398 1016.7592,-136.9383"/>
<polygon fill="#191970" stroke="#191970" points="2163.4948,-194.9621 2173.6498,-191.9411 2163.8273,-187.97 2163.4948,-194.9621"/>
</g>
<!-- Node19&#45;&gt;Node18 -->
<g id="edge60" class="edge">
<title>Node19&#45;&gt;Node18</title>
<path fill="none" stroke="#191970" d="M2291.2095,-192.2507C2572.6337,-182.0173 3692.2533,-138.0156 3742.4727,-84 3751.2487,-74.5605 3751.0106,-64.6554 3742.4727,-55 3720.1582,-29.7651 3488.878,-15.4307 3404.2632,-10.9989"/>
<polygon fill="#191970" stroke="#191970" points="2291.0305,-188.7548 2281.1637,-192.6146 2291.2839,-195.7502 2291.0305,-188.7548"/>
</g>
<!-- Node19&#45;&gt;Node20 -->
<g id="edge16" class="edge">
<title>Node19&#45;&gt;Node20</title>
<path fill="none" stroke="#191970" d="M2163.4828,-192.5845C1972.3699,-186.8019 1389.0526,-168.704 905.4727,-149 820.0271,-145.5184 721.2848,-140.7356 659.1136,-137.6314"/>
<polygon fill="#191970" stroke="#191970" points="2163.529,-196.0874 2173.6302,-192.8911 2163.7405,-189.0906 2163.529,-196.0874"/>
</g>
<!-- Node19&#45;&gt;Node21 -->
<g id="edge23" class="edge">
<title>Node19&#45;&gt;Node21</title>
<path fill="none" stroke="#191970" d="M2277.3955,-183.2392C2328.3506,-171.7456 2406.4406,-154.1313 2453.471,-143.5229"/>
<polygon fill="#191970" stroke="#191970" points="2276.5683,-179.8378 2267.5835,-185.4524 2278.1086,-186.6662 2276.5683,-179.8378"/>
</g>
<!-- Node19&#45;&gt;Node58 -->
<g id="edge48" class="edge">
<title>Node19&#45;&gt;Node58</title>
<path fill="none" stroke="#191970" d="M2227.4727,-175.3734C2227.4727,-164.7812 2227.4727,-152.0976 2227.4727,-143.6985"/>
<polygon fill="#191970" stroke="#191970" points="2223.9728,-175.3873 2227.4727,-185.3873 2230.9728,-175.3873 2223.9728,-175.3873"/>
</g>
<!-- Node19&#45;&gt;Node59 -->
<g id="edge53" class="edge">
<title>Node19&#45;&gt;Node59</title>
<path fill="none" stroke="#191970" d="M2291.4429,-192.6666C2532.4579,-185.7278 3385.7522,-160.8689 3657.4727,-149 3734.5492,-145.6332 3824.354,-140.3438 3875.9932,-137.1698"/>
<polygon fill="#191970" stroke="#191970" points="2290.999,-189.1779 2281.1038,-192.9641 2291.2004,-196.175 2290.999,-189.1779"/>
</g>
<!-- Node19&#45;&gt;Node60 -->
<g id="edge56" class="edge">
<title>Node19&#45;&gt;Node60</title>
<path fill="none" stroke="#191970" d="M2185.7296,-182.7447C2131.3063,-167.5587 2033.0729,-140.6272 1948.4727,-120 1876.3939,-102.4258 1857.8734,-100.1967 1785.4727,-84 1777.5789,-82.2341 1769.1409,-80.3324 1761.0677,-78.506"/>
<polygon fill="#191970" stroke="#191970" points="2184.7955,-186.1177 2195.3686,-185.4394 2186.6802,-179.3762 2184.7955,-186.1177"/>
</g>
<!-- Node62 -->
<g id="node42" class="node">
<title>Node62</title>
<g id="a_node42"><a xlink:href="context_8c.html" target="_top" xlink:title="src/context.c">
<polygon fill="#ffffff" stroke="#000000" points="2345.4087,-125.5 2345.4087,-143.5 2417.5366,-143.5 2417.5366,-125.5 2345.4087,-125.5"/>
<text text-anchor="middle" x="2381.4727" y="-131.5" font-family="Helvetica,sans-Serif" font-size="10.00" fill="#000000">src/context.c</text>
</a>
</g>
</g>
<!-- Node19&#45;&gt;Node62 -->
<g id="edge59" class="edge">
<title>Node19&#45;&gt;Node62</title>
<path fill="none" stroke="#191970" d="M2260.3179,-181.7032C2289.8014,-170.2161 2332.3308,-153.6462 2358.3678,-143.5019"/>
<polygon fill="#191970" stroke="#191970" points="2258.9091,-178.4957 2250.8619,-185.3873 2261.4503,-185.0182 2258.9091,-178.4957"/>
</g>
<!-- Node20&#45;&gt;Node4 -->
<g id="edge17" class="edge">
<title>Node20&#45;&gt;Node4</title>
<path fill="none" stroke="#191970" d="M597.4727,-115.1265C597.4727,-103.1522 597.4727,-88.3205 597.4727,-78.8821"/>
<polygon fill="#191970" stroke="#191970" points="593.9728,-115.462 597.4727,-125.462 600.9728,-115.4621 593.9728,-115.462"/>
</g>
<!-- Node20&#45;&gt;Node6 -->
<g id="edge18" class="edge">
<title>Node20&#45;&gt;Node6</title>
<path fill="none" stroke="#191970" d="M526.0344,-125.415C436.672,-113.9015 288.7948,-94.3164 234.4727,-84 231.7353,-83.4801 228.935,-82.9163 226.1129,-82.3228"/>
<polygon fill="#191970" stroke="#191970" points="525.7321,-128.9049 536.0969,-126.7092 526.6251,-121.9621 525.7321,-128.9049"/>
</g>
<!-- Node20&#45;&gt;Node9 -->
<g id="edge19" class="edge">
<title>Node20&#45;&gt;Node9</title>
<path fill="none" stroke="#191970" d="M627.4553,-121.4203C656.5256,-108.7386 699.8765,-89.8272 725.4505,-78.6708"/>
<polygon fill="#191970" stroke="#191970" points="625.9568,-118.2554 618.1905,-125.462 628.7558,-124.6715 625.9568,-118.2554"/>
</g>
<!-- Node20&#45;&gt;Node13 -->
<g id="edge20" class="edge">
<title>Node20&#45;&gt;Node13</title>
<path fill="none" stroke="#191970" d="M547.2401,-123.202C498.2459,-112.1826 423.5978,-95.3932 370.8311,-83.5253"/>
<polygon fill="#191970" stroke="#191970" points="546.7641,-126.6823 557.2884,-125.462 548.3002,-119.8529 546.7641,-126.6823"/>
</g>
<!-- Node20&#45;&gt;Node16 -->
<g id="edge21" class="edge">
<title>Node20&#45;&gt;Node16</title>
<path fill="none" stroke="#191970" d="M571.2478,-120.7531C547.0775,-108.0832 511.8805,-89.6332 490.9676,-78.6708"/>
<polygon fill="#191970" stroke="#191970" points="569.7491,-123.9192 580.231,-125.462 572.999,-117.7193 569.7491,-123.9192"/>
</g>
<!-- Node20&#45;&gt;Node17 -->
<g id="edge22" class="edge">
<title>Node20&#45;&gt;Node17</title>
<path fill="none" stroke="#191970" d="M546.4203,-123.2206C496.9497,-111.777 428.2609,-94.3211 420.4727,-84 412.7091,-73.7116 411.4894,-64.2425 420.4727,-55 449.1289,-25.5167 1793.7655,-11.6392 1994.5131,-9.7302"/>
<polygon fill="#191970" stroke="#191970" points="545.8158,-126.6728 556.3451,-125.4959 547.3801,-119.8498 545.8158,-126.6728"/>
</g>
<!-- Node21&#45;&gt;Node17 -->
<g id="edge45" class="edge">
<title>Node21&#45;&gt;Node17</title>
<path fill="none" stroke="#191970" d="M2549.2643,-123.3417C2602.5708,-112.1172 2676.0442,-94.9465 2684.4727,-84 2692.3359,-73.7876 2693.2699,-64.4197 2684.4727,-55 2662.184,-31.1343 2162.0782,-13.9775 2044.2003,-10.2561"/>
<polygon fill="#191970" stroke="#191970" points="2548.3063,-119.9661 2539.2318,-125.4346 2549.7358,-126.8186 2548.3063,-119.9661"/>
</g>
<!-- Node21&#45;&gt;Node18 -->
<g id="edge47" class="edge">
<title>Node21&#45;&gt;Node18</title>
<path fill="none" stroke="#191970" d="M2561.8225,-131.7453C2674.8619,-126.4379 2895.4321,-112.6908 2967.4727,-84 2987.2101,-76.1394 2985.8022,-63.0269 3005.4727,-55 3066.492,-30.0999 3265.3092,-15.9244 3342.4683,-11.2467"/>
<polygon fill="#191970" stroke="#191970" points="2561.3864,-128.2615 2551.558,-132.2178 2561.7084,-135.2541 2561.3864,-128.2615"/>
</g>
<!-- Node21&#45;&gt;Node22 -->
<g id="edge24" class="edge">
<title>Node21&#45;&gt;Node22</title>
<path fill="none" stroke="#191970" d="M2447.1967,-123.3988C2440.2832,-122.0567 2433.2148,-120.8592 2426.4727,-120 2033.3292,-69.8979 1928.1864,-137.3656 1535.4727,-84 1532.4056,-83.5832 1529.2678,-83.0842 1526.1114,-82.5258"/>
<polygon fill="#191970" stroke="#191970" points="2446.6591,-126.8613 2457.159,-125.4459 2448.0682,-120.0046 2446.6591,-126.8613"/>
</g>
<!-- Node21&#45;&gt;Node23 -->
<g id="edge26" class="edge">
<title>Node21&#45;&gt;Node23</title>
<path fill="none" stroke="#191970" d="M2447.703,-123.3406C2440.6321,-121.981 2433.3839,-120.7937 2426.4727,-120 1915.7675,-61.3465 623.558,-147.8194 113.4727,-84 110.7724,-83.6622 108.0177,-83.252 105.2451,-82.7869"/>
<polygon fill="#191970" stroke="#191970" points="2447.3764,-126.8465 2457.8761,-125.4303 2448.7849,-119.9897 2447.3764,-126.8465"/>
</g>
<!-- Node21&#45;&gt;Node25 -->
<g id="edge28" class="edge">
<title>Node21&#45;&gt;Node25</title>
<path fill="none" stroke="#191970" d="M2447.1917,-123.4382C2440.2789,-122.0905 2433.212,-120.881 2426.4727,-120 2087.6473,-75.7077 1996.9185,-131.1048 1658.4727,-84 1655.407,-83.5733 1652.2702,-83.0665 1649.1146,-82.5022"/>
<polygon fill="#191970" stroke="#191970" points="2446.653,-126.9006 2457.1534,-125.4893 2448.0647,-120.0444 2446.653,-126.9006"/>
</g>
<!-- Node21&#45;&gt;Node27 -->
<g id="edge29" class="edge">
<title>Node21&#45;&gt;Node27</title>
<path fill="none" stroke="#191970" d="M2561.6158,-132.69C2787.462,-126.5428 3510.2432,-105.6412 3742.4727,-84 3757.6066,-82.5897 3773.9608,-80.4495 3788.933,-78.2431"/>
<polygon fill="#191970" stroke="#191970" points="2561.4595,-129.1929 2551.5582,-132.963 2561.6495,-136.1903 2561.4595,-129.1929"/>
</g>
<!-- Node21&#45;&gt;Node29 -->
<g id="edge30" class="edge">
<title>Node21&#45;&gt;Node29</title>
<path fill="none" stroke="#191970" d="M2561.5729,-130.2581C2659.2004,-123.6016 2844.3846,-108.8323 3000.4727,-84 3004.8753,-83.2996 3009.4251,-82.4876 3013.9814,-81.6126"/>
<polygon fill="#191970" stroke="#191970" points="2561.284,-126.7695 2551.5421,-130.9344 2561.755,-133.7537 2561.284,-126.7695"/>
</g>
<!-- Node21&#45;&gt;Node31 -->
<g id="edge31" class="edge">
<title>Node21&#45;&gt;Node31</title>
<path fill="none" stroke="#191970" d="M2561.7083,-132.4255C2678.298,-128.1324 2923.0768,-115.8566 3127.4727,-84 3130.5309,-83.5233 3133.6619,-82.9775 3136.8131,-82.3833"/>
<polygon fill="#191970" stroke="#191970" points="2561.3744,-128.9352 2551.5069,-132.7927 2561.6263,-135.9306 2561.3744,-128.9352"/>
</g>
<!-- Node21&#45;&gt;Node33 -->
<g id="edge32" class="edge">
<title>Node21&#45;&gt;Node33</title>
<path fill="none" stroke="#191970" d="M2561.3664,-125.4469C2647.6323,-113.8195 2791.6604,-93.9553 2844.4727,-84 2847.5143,-83.4266 2850.6323,-82.8052 2853.7735,-82.1532"/>
<polygon fill="#191970" stroke="#191970" points="2560.8442,-121.9856 2551.4004,-126.7882 2561.778,-128.923 2560.8442,-121.9856"/>
</g>
<!-- Node21&#45;&gt;Node35 -->
<g id="edge33" class="edge">
<title>Node21&#45;&gt;Node35</title>
<path fill="none" stroke="#191970" d="M2561.3085,-133.6757C2694.2576,-131.2449 2998.1304,-121.6674 3250.4727,-84 3253.534,-83.543 3256.6673,-83.0126 3259.8203,-82.4302"/>
<polygon fill="#191970" stroke="#191970" points="2561.2068,-130.1768 2551.2696,-133.8515 2561.3294,-137.1758 2561.2068,-130.1768"/>
</g>
<!-- Node21&#45;&gt;Node37 -->
<g id="edge34" class="edge">
<title>Node21&#45;&gt;Node37</title>
<path fill="none" stroke="#191970" d="M2447.4445,-123.4162C2440.4529,-122.0591 2433.2963,-120.8526 2426.4727,-120 1979.0018,-64.0868 1859.4637,-143.6276 1412.4727,-84 1409.4046,-83.5907 1406.266,-83.0975 1403.109,-82.5436"/>
<polygon fill="#191970" stroke="#191970" points="2447.0116,-126.9004 2457.512,-125.4886 2448.423,-120.0441 2447.0116,-126.9004"/>
</g>
<!-- Node21&#45;&gt;Node39 -->
<g id="edge35" class="edge">
<title>Node21&#45;&gt;Node39</title>
<path fill="none" stroke="#191970" d="M2444.0408,-123.3932C2438.1325,-122.1868 2432.1754,-121.0264 2426.4727,-120 2315.9906,-100.1154 2286.7857,-104.8015 2176.4727,-84 2173.431,-83.4265 2170.3131,-82.8049 2167.1719,-82.1527"/>
<polygon fill="#191970" stroke="#191970" points="2443.3799,-126.8307 2453.8845,-125.4513 2444.8125,-119.9788 2443.3799,-126.8307"/>
</g>
<!-- Node21&#45;&gt;Node41 -->
<g id="edge36" class="edge">
<title>Node21&#45;&gt;Node41</title>
<path fill="none" stroke="#191970" d="M2561.3005,-132.1232C2739.3164,-125.6425 3216.9156,-106.6266 3373.4727,-84 3376.536,-83.5573 3379.671,-83.0379 3382.8253,-82.464"/>
<polygon fill="#191970" stroke="#191970" points="2561.1432,-128.6265 2551.2765,-132.4864 2561.3967,-135.6219 2561.1432,-128.6265"/>
</g>
<!-- Node21&#45;&gt;Node43 -->
<g id="edge37" class="edge">
<title>Node21&#45;&gt;Node43</title>
<path fill="none" stroke="#191970" d="M2561.4491,-132.6687C2756.4334,-127.1631 3315.2006,-109.5497 3496.4727,-84 3499.5376,-83.568 3502.6737,-83.0571 3505.8289,-82.4896"/>
<polygon fill="#191970" stroke="#191970" points="2561.2342,-129.1733 2551.3364,-132.9526 2561.4307,-136.1705 2561.2342,-129.1733"/>
</g>
<!-- Node21&#45;&gt;Node45 -->
<g id="edge38" class="edge">
<title>Node21&#45;&gt;Node45</title>
<path fill="none" stroke="#191970" d="M2447.9769,-122.9484C2403.7393,-111.7161 2336.5913,-94.6668 2290.0797,-82.8573"/>
<polygon fill="#191970" stroke="#191970" points="2447.3231,-126.3933 2457.877,-125.462 2449.0459,-119.6086 2447.3231,-126.3933"/>
</g>
<!-- Node21&#45;&gt;Node47 -->
<g id="edge39" class="edge">
<title>Node21&#45;&gt;Node47</title>
<path fill="none" stroke="#191970" d="M2561.3275,-133.1031C2772.0325,-128.5055 3413.2586,-112.4883 3619.4727,-84 3622.5388,-83.5764 3625.6758,-83.072 3628.8317,-82.5096"/>
<polygon fill="#191970" stroke="#191970" points="2561.2472,-129.6039 2551.3254,-133.3198 2561.3989,-136.6022 2561.2472,-129.6039"/>
</g>
<!-- Node21&#45;&gt;Node49 -->
<g id="edge40" class="edge">
<title>Node21&#45;&gt;Node49</title>
<path fill="none" stroke="#191970" d="M2543.8642,-123.2053C2596.2394,-111.4661 2677.8418,-93.1759 2730.9821,-81.2651"/>
<polygon fill="#191970" stroke="#191970" points="2542.7883,-119.8596 2533.7959,-125.462 2544.3193,-126.6901 2542.7883,-119.8596"/>
</g>
<!-- Node21&#45;&gt;Node51 -->
<g id="edge41" class="edge">
<title>Node21&#45;&gt;Node51</title>
<path fill="none" stroke="#191970" d="M2446.2136,-123.386C2439.6106,-122.0927 2432.8906,-120.9122 2426.4727,-120 2197.5526,-87.4618 2136.0516,-118.8535 1907.4727,-84 1904.7824,-83.5898 1902.0359,-83.1214 1899.2697,-82.6102"/>
<polygon fill="#191970" stroke="#191970" points="2445.9329,-126.9015 2456.4331,-125.4887 2447.3437,-120.0451 2445.9329,-126.9015"/>
</g>
<!-- Node52 -->
<g id="node35" class="node">
<title>Node52</title>
<g id="a_node35"><a xlink:href="events_2event_8c.html" target="_top" xlink:title="events/event.c">
<polygon fill="#ffffff" stroke="#000000" points="2453.2314,-60.5 2453.2314,-78.5 2533.7139,-78.5 2533.7139,-60.5 2453.2314,-60.5"/>
<text text-anchor="middle" x="2493.4727" y="-66.5" font-family="Helvetica,sans-Serif" font-size="10.00" fill="#000000">events/event.c</text>
</a>
</g>
</g>
<!-- Node21&#45;&gt;Node52 -->
<g id="edge42" class="edge">
<title>Node21&#45;&gt;Node52</title>
<path fill="none" stroke="#191970" d="M2493.4727,-115.1265C2493.4727,-103.1522 2493.4727,-88.3205 2493.4727,-78.8821"/>
<polygon fill="#191970" stroke="#191970" points="2489.9728,-115.462 2493.4727,-125.462 2496.9728,-115.4621 2489.9728,-115.462"/>
</g>
<!-- Node53 -->
<g id="node36" class="node">
<title>Node53</title>
<g id="a_node36"><a xlink:href="ext__comps_2shim_2event_8c.html" target="_top" xlink:title="ext_comps/shim/event.c">
<polygon fill="#ffffff" stroke="#000000" points="2551.8398,-60.5 2551.8398,-78.5 2675.1055,-78.5 2675.1055,-60.5 2551.8398,-60.5"/>
<text text-anchor="middle" x="2613.4727" y="-66.5" font-family="Helvetica,sans-Serif" font-size="10.00" fill="#000000">ext_comps/shim/event.c</text>
</a>
</g>
</g>
<!-- Node21&#45;&gt;Node53 -->
<g id="edge43" class="edge">
<title>Node21&#45;&gt;Node53</title>
<path fill="none" stroke="#191970" d="M2519.1627,-120.5846C2542.5433,-107.9201 2576.3933,-89.5847 2596.542,-78.6708"/>
<polygon fill="#191970" stroke="#191970" points="2517.2841,-117.6216 2510.1581,-125.462 2520.6181,-123.7767 2517.2841,-117.6216"/>
</g>
<!-- Node21&#45;&gt;Node54 -->
<g id="edge44" class="edge">
<title>Node21&#45;&gt;Node54</title>
<path fill="none" stroke="#191970" d="M2445.4736,-123.4041C2439.1055,-122.1402 2432.6462,-120.9626 2426.4727,-120 2261.9128,-94.342 2218.2453,-108.254 2053.4727,-84 2050.5325,-83.5672 2047.5313,-83.0951 2044.504,-82.5944"/>
<polygon fill="#191970" stroke="#191970" points="2444.8504,-126.8492 2455.3515,-125.4429 2446.2654,-119.9937 2444.8504,-126.8492"/>
</g>
<!-- Node57 -->
<g id="node38" class="node">
<title>Node57</title>
<g id="a_node38"><a xlink:href="component_8c.html" target="_top" xlink:title="src/component.c">
<polygon fill="#ffffff" stroke="#000000" points="2345.7905,-60.5 2345.7905,-78.5 2435.1548,-78.5 2435.1548,-60.5 2345.7905,-60.5"/>
<text text-anchor="middle" x="2390.4727" y="-66.5" font-family="Helvetica,sans-Serif" font-size="10.00" fill="#000000">src/component.c</text>
</a>
</g>
</g>
<!-- Node21&#45;&gt;Node57 -->
<g id="edge46" class="edge">
<title>Node21&#45;&gt;Node57</title>
<path fill="none" stroke="#191970" d="M2470.6146,-120.075C2450.581,-107.4324 2422.0685,-89.4391 2405.0048,-78.6708"/>
<polygon fill="#191970" stroke="#191970" points="2468.8262,-123.085 2479.1509,-125.462 2472.562,-117.1652 2468.8262,-123.085"/>
</g>
<!-- Node22&#45;&gt;Node8 -->
<g id="edge25" class="edge">
<title>Node22&#45;&gt;Node8</title>
<path fill="none" stroke="#191970" d="M1410.5722,-54.8509C1341.6853,-40.1541 1273.2817,-26.9997 1228.4591,-18.5758"/>
<polygon fill="#191970" stroke="#191970" points="1410.225,-58.356 1420.7366,-57.0301 1411.6925,-51.5115 1410.225,-58.356"/>
</g>
<!-- Node24 -->
<g id="node20" class="node">
<title>Node24</title>
<g id="a_node20"><a xlink:href="cac_8c.html" target="_top" xlink:title="components/cac.c">
<polygon fill="#ffffff" stroke="#000000" points="4.1748,-.5 4.1748,-18.5 100.7705,-18.5 100.7705,-.5 4.1748,-.5"/>
<text text-anchor="middle" x="52.4727" y="-6.5" font-family="Helvetica,sans-Serif" font-size="10.00" fill="#000000">components/cac.c</text>
</a>
</g>
</g>
<!-- Node23&#45;&gt;Node24 -->
<g id="edge27" class="edge">
<title>Node23&#45;&gt;Node24</title>
<path fill="none" stroke="#191970" d="M52.4727,-45.2151C52.4727,-35.8253 52.4727,-25.6598 52.4727,-18.5842"/>
<polygon fill="#191970" stroke="#191970" points="48.9728,-45.2808 52.4727,-55.2808 55.9728,-45.2809 48.9728,-45.2808"/>
</g>
<!-- Node58&#45;&gt;Node17 -->
<g id="edge51" class="edge">
<title>Node58&#45;&gt;Node17</title>
<path fill="none" stroke="#191970" d="M2255.3492,-120.4132C2282.9042,-104.6642 2318.2867,-78.3071 2298.4727,-55 2282.0225,-35.6498 2109.7585,-17.8435 2044.4163,-11.736"/>
<polygon fill="#191970" stroke="#191970" points="2253.4778,-117.4477 2246.3957,-125.3277 2256.8461,-123.5841 2253.4778,-117.4477"/>
</g>
<!-- Node58&#45;&gt;Node52 -->
<g id="edge49" class="edge">
<title>Node58&#45;&gt;Node52</title>
<path fill="none" stroke="#191970" d="M2279.5729,-123.2818C2323.6637,-113.5718 2388.4391,-98.7969 2444.4727,-84 2450.8201,-82.3238 2457.5922,-80.4051 2464.0131,-78.5241"/>
<polygon fill="#191970" stroke="#191970" points="2278.6778,-119.8949 2269.66,-125.4563 2280.1777,-126.7323 2278.6778,-119.8949"/>
</g>
<!-- Node58&#45;&gt;Node53 -->
<g id="edge50" class="edge">
<title>Node58&#45;&gt;Node53</title>
<path fill="none" stroke="#191970" d="M2283.1628,-123.6165C2289.9966,-122.3573 2296.8894,-121.1234 2303.4727,-120 2409.3625,-101.9308 2436.7018,-102.7535 2542.4727,-84 2551.7634,-82.3527 2561.7043,-80.4261 2571.117,-78.5252"/>
<polygon fill="#191970" stroke="#191970" points="2282.4236,-120.194 2273.2357,-125.4696 2283.7081,-127.0751 2282.4236,-120.194"/>
</g>
<!-- Node58&#45;&gt;Node57 -->
<g id="edge52" class="edge">
<title>Node58&#45;&gt;Node57</title>
<path fill="none" stroke="#191970" d="M2259.4743,-121.7386C2291.3752,-109.0174 2339.5627,-89.8015 2367.7385,-78.5658"/>
<polygon fill="#191970" stroke="#191970" points="2258.1294,-118.5068 2250.1371,-125.462 2260.7223,-125.0089 2258.1294,-118.5068"/>
</g>
<!-- Node59&#45;&gt;Node17 -->
<g id="edge54" class="edge">
<title>Node59&#45;&gt;Node17</title>
<path fill="none" stroke="#191970" d="M3920.6943,-115.3676C3921.6581,-96.8292 3919.7011,-69.4576 3902.4727,-55 3865.1338,-23.6662 2263.0099,-11.2242 2044.144,-9.6695"/>
<polygon fill="#191970" stroke="#191970" points="3917.2064,-115.0778 3919.8551,-125.3362 3924.1818,-115.6651 3917.2064,-115.0778"/>
</g>
<!-- Node59&#45;&gt;Node18 -->
<g id="edge55" class="edge">
<title>Node59&#45;&gt;Node18</title>
<path fill="none" stroke="#191970" d="M3930.252,-116.4533C3940.2739,-98.6099 3950.813,-71.6325 3935.4727,-55 3917.3257,-35.3244 3519.8434,-16.052 3404.5541,-10.86"/>
<polygon fill="#191970" stroke="#191970" points="3927.0809,-114.9339 3924.9052,-125.3029 3933.0722,-118.5538 3927.0809,-114.9339"/>
</g>
<!-- Node60&#45;&gt;Node17 -->
<g id="edge57" class="edge">
<title>Node60&#45;&gt;Node17</title>
<path fill="none" stroke="#191970" d="M1770.1902,-58.2988C1775.345,-57.1625 1780.5133,-56.0437 1785.4727,-55 1861.4078,-39.0193 1951.6372,-22.0397 1994.4872,-14.0972"/>
<polygon fill="#191970" stroke="#191970" points="1769.3518,-54.8997 1760.3521,-60.4904 1770.8739,-61.7322 1769.3518,-54.8997"/>
</g>
<!-- Node60&#45;&gt;Node18 -->
<g id="edge58" class="edge">
<title>Node60&#45;&gt;Node18</title>
<path fill="none" stroke="#191970" d="M1765.8833,-58.2733C1772.4167,-56.9617 1779.0936,-55.8062 1785.4727,-55 2102.8843,-14.8825 3149.1944,-10.1093 3342.5878,-9.5669"/>
<polygon fill="#191970" stroke="#191970" points="1764.8423,-54.9168 1755.7979,-60.435 1766.3094,-61.7614 1764.8423,-54.9168"/>
</g>
<!-- Node63&#45;&gt;Node27 -->
<g id="edge89" class="edge">
<title>Node63&#45;&gt;Node27</title>
<path fill="none" stroke="#191970" d="M3774.649,-176.5893C3790.2351,-151.6114 3818.1917,-106.8093 3832.5001,-83.8791"/>
<polygon fill="#191970" stroke="#191970" points="3771.6599,-174.768 3769.3353,-185.1047 3777.5986,-178.4738 3771.6599,-174.768"/>
</g>
<!-- Node71&#45;&gt;Node2 -->
<g id="edge91" class="edge">
<title>Node71&#45;&gt;Node2</title>
<path fill="none" stroke="#191970" d="M1867.0761,-150.8318C1882.6141,-166.7555 1904.981,-190.4899 1929.4727,-204 1971.4918,-227.1786 2024.3195,-239.9284 2063.8372,-246.8165"/>
<polygon fill="#191970" stroke="#191970" points="1869.5465,-148.3524 1860.0175,-143.7211 1864.5786,-153.2839 1869.5465,-148.3524"/>
</g>
<!-- Node71&#45;&gt;Node5 -->
<g id="edge92" class="edge">
<title>Node71&#45;&gt;Node5</title>
<path fill="none" stroke="#191970" d="M1779.4513,-133.2609C1653.4753,-130.1593 1375.6258,-119.5368 1144.4727,-84 1141.4601,-83.5369 1138.3769,-83.0016 1135.2744,-82.4155"/>
<polygon fill="#191970" stroke="#191970" points="1779.6308,-136.7661 1789.7113,-133.5051 1779.7974,-129.7681 1779.6308,-136.7661"/>
</g>
<!-- Node71&#45;&gt;Node10 -->
<g id="edge100" class="edge">
<title>Node71&#45;&gt;Node10</title>
<path fill="none" stroke="#191970" d="M1779.2153,-130.6576C1673.7767,-124.1965 1465.104,-109.3178 1289.4727,-84 1286.4033,-83.5575 1283.2678,-83.0706 1280.1057,-82.5514"/>
<polygon fill="#191970" stroke="#191970" points="1779.2065,-134.1634 1789.4,-131.2751 1779.6302,-127.1762 1779.2065,-134.1634"/>
</g>
<!-- Node71&#45;&gt;Node25 -->
<g id="edge93" class="edge">
<title>Node71&#45;&gt;Node25</title>
<path fill="none" stroke="#191970" d="M1802.6571,-122.8944C1759.5767,-111.7381 1694.4764,-94.8794 1648.9854,-83.0989"/>
<polygon fill="#191970" stroke="#191970" points="1802.0141,-126.3432 1812.5722,-125.462 1803.769,-119.5668 1802.0141,-126.3432"/>
</g>
<!-- Node71&#45;&gt;Node27 -->
<g id="edge94" class="edge">
<title>Node71&#45;&gt;Node27</title>
<path fill="none" stroke="#191970" d="M1915.4004,-130.8394C1977.995,-127.5787 2073.4731,-122.889 2156.4727,-120 2861.1164,-95.4735 3039.8919,-143.2003 3742.4727,-84 3757.6185,-82.7238 3773.9764,-80.626 3788.9484,-78.4174"/>
<polygon fill="#191970" stroke="#191970" points="1915.0634,-127.3522 1905.26,-131.3702 1915.4293,-134.3426 1915.0634,-127.3522"/>
</g>
<!-- Node71&#45;&gt;Node37 -->
<g id="edge95" class="edge">
<title>Node71&#45;&gt;Node37</title>
<path fill="none" stroke="#191970" d="M1779.3254,-129.0143C1693.3931,-121.5413 1541.3024,-106.4672 1412.4727,-84 1409.4235,-83.4682 1406.2996,-82.8793 1403.1538,-82.2522"/>
<polygon fill="#191970" stroke="#191970" points="1779.2075,-132.517 1789.4709,-129.8879 1779.8081,-125.5428 1779.2075,-132.517"/>
</g>
<!-- Node71&#45;&gt;Node39 -->
<g id="edge96" class="edge">
<title>Node71&#45;&gt;Node39</title>
<path fill="none" stroke="#191970" d="M1894.4699,-123.0587C1941.2274,-111.6758 2012.8473,-94.2402 2061.5725,-82.3783"/>
<polygon fill="#191970" stroke="#191970" points="1893.4862,-119.6959 1884.5979,-125.462 1895.142,-126.4973 1893.4862,-119.6959"/>
</g>
<!-- Node71&#45;&gt;Node45 -->
<g id="edge97" class="edge">
<title>Node71&#45;&gt;Node45</title>
<path fill="none" stroke="#191970" d="M1915.4136,-125.5948C1981.9307,-116.5105 2086.0253,-101.3187 2175.4727,-84 2178.5114,-83.4116 2181.6272,-82.7785 2184.7667,-82.1175"/>
<polygon fill="#191970" stroke="#191970" points="1914.9118,-122.1307 1905.4739,-126.945 1915.854,-129.067 1914.9118,-122.1307"/>
</g>
<!-- Node71&#45;&gt;Node49 -->
<g id="edge98" class="edge">
<title>Node71&#45;&gt;Node49</title>
<path fill="none" stroke="#191970" d="M1915.4515,-131.1483C2087.2707,-122.5561 2535.8235,-99.3421 2684.4727,-84 2699.5919,-82.4395 2715.9414,-80.2518 2730.9138,-78.048"/>
<polygon fill="#191970" stroke="#191970" points="1915.0859,-127.6621 1905.2729,-131.6564 1915.4349,-134.6534 1915.0859,-127.6621"/>
</g>
<!-- Node71&#45;&gt;Node51 -->
<g id="edge99" class="edge">
<title>Node71&#45;&gt;Node51</title>
<path fill="none" stroke="#191970" d="M1847.1767,-115.2652C1847.0225,-105.2384 1846.8369,-93.1782 1846.6951,-83.9559"/>
<polygon fill="#191970" stroke="#191970" points="1843.6801,-115.5171 1847.3336,-125.462 1850.6793,-115.4093 1843.6801,-115.5171"/>
</g>
<!-- Node71&#45;&gt;Node54 -->
<g id="edge101" class="edge">
<title>Node71&#45;&gt;Node54</title>
<path fill="none" stroke="#191970" d="M1874.9541,-121.0692C1897.3544,-110.1217 1928.8941,-94.7076 1951.6495,-83.5865"/>
<polygon fill="#191970" stroke="#191970" points="1873.4134,-117.9265 1865.9657,-125.462 1876.487,-124.2156 1873.4134,-117.9265"/>
</g>
<!-- Node71&#45;&gt;Node60 -->
<g id="edge102" class="edge">
<title>Node71&#45;&gt;Node60</title>
<path fill="none" stroke="#191970" d="M1820.8248,-120.7531C1796.2647,-108.0832 1760.5,-89.6332 1739.2498,-78.6708"/>
<polygon fill="#191970" stroke="#191970" points="1819.4611,-123.9878 1829.9529,-125.462 1822.6704,-117.7668 1819.4611,-123.9878"/>
</g>
<!-- Node85&#45;&gt;Node6 -->
<g id="edge105" class="edge">
<title>Node85&#45;&gt;Node6</title>
<path fill="none" stroke="#191970" d="M550.683,-182.9842C515.5492,-174.163 466.3227,-161.4335 423.4727,-149 350.0379,-127.692 265.3985,-99.9921 216.1186,-83.5459"/>
<polygon fill="#191970" stroke="#191970" points="550.1054,-186.4474 560.6558,-185.4781 551.8037,-179.6565 550.1054,-186.4474"/>
</g>
<!-- Node85&#45;&gt;Node13 -->
<g id="edge108" class="edge">
<title>Node85&#45;&gt;Node13</title>
<path fill="none" stroke="#191970" d="M567.015,-181.3263C512.1516,-157.5964 397.2057,-107.8794 340.923,-83.5356"/>
<polygon fill="#191970" stroke="#191970" points="565.6541,-184.5509 576.2218,-185.3085 568.433,-178.1262 565.6541,-184.5509"/>
</g>
<!-- Node85&#45;&gt;Node20 -->
<g id="edge104" class="edge">
<title>Node85&#45;&gt;Node20</title>
<path fill="none" stroke="#191970" d="M597.4727,-175.3734C597.4727,-164.7812 597.4727,-152.0976 597.4727,-143.6985"/>
<polygon fill="#191970" stroke="#191970" points="593.9728,-175.3873 597.4727,-185.3873 600.9728,-175.3873 593.9728,-175.3873"/>
</g>
<!-- Node85&#45;&gt;Node23 -->
<g id="edge106" class="edge">
<title>Node85&#45;&gt;Node23</title>
<path fill="none" stroke="#191970" d="M544.7336,-187.0785C491.212,-179.157 406.1215,-165.4894 333.4727,-149 248.9268,-129.8103 151.9517,-100.7854 96.8749,-83.6265"/>
<polygon fill="#191970" stroke="#191970" points="544.2745,-190.5486 554.6767,-188.5378 545.291,-183.6228 544.2745,-190.5486"/>
</g>
<!-- Node85&#45;&gt;Node58 -->
<g id="edge107" class="edge">
<title>Node85&#45;&gt;Node58</title>
<path fill="none" stroke="#191970" d="M650.256,-192.8994C828.2942,-187.453 1423.0661,-168.8703 1914.4727,-149 2001.4393,-145.4834 2101.9632,-140.6985 2165.1265,-137.6043"/>
<polygon fill="#191970" stroke="#191970" points="650.0049,-189.4053 640.1165,-193.2092 650.2187,-196.4021 650.0049,-189.4053"/>
</g>
<!-- Node85&#45;&gt;Node71 -->
<g id="edge109" class="edge">
<title>Node85&#45;&gt;Node71</title>
<path fill="none" stroke="#191970" d="M650.211,-191.9686C852.512,-182.2581 1578.1221,-147.4288 1789.3796,-137.2885"/>
<polygon fill="#191970" stroke="#191970" points="649.9595,-188.4765 640.1389,-192.452 650.2952,-195.4685 649.9595,-188.4765"/>
</g>
<!-- Node87&#45;&gt;Node5 -->
<g id="edge112" class="edge">
<title>Node87&#45;&gt;Node5</title>
<path fill="none" stroke="#191970" d="M1153.7232,-176.5893C1137.3377,-151.6114 1107.9475,-106.8093 1092.9054,-83.8791"/>
<polygon fill="#191970" stroke="#191970" points="1150.8977,-178.663 1159.3093,-185.1047 1156.7507,-174.8234 1150.8977,-178.663"/>
</g>
<!-- Node87&#45;&gt;Node6 -->
<g id="edge113" class="edge">
<title>Node87&#45;&gt;Node6</title>
<path fill="none" stroke="#191970" d="M1106.9868,-192.44C964.48,-187.1239 602.293,-171.7489 483.4727,-149 442.1971,-141.0975 434.0067,-131.0956 393.4727,-120 323.5883,-100.8702 305.0218,-100.5105 234.4727,-84 231.7597,-83.3651 228.9788,-82.7096 226.172,-82.0442"/>
<polygon fill="#191970" stroke="#191970" points="1107.1429,-195.948 1117.2655,-192.8201 1107.4017,-188.9528 1107.1429,-195.948"/>
</g>
<!-- Node87&#45;&gt;Node10 -->
<g id="edge118" class="edge">
<title>Node87&#45;&gt;Node10</title>
<path fill="none" stroke="#191970" d="M1173.1885,-175.5887C1183.4528,-150.431 1201.3741,-106.5062 1210.606,-83.8791"/>
<polygon fill="#191970" stroke="#191970" points="1169.843,-174.5235 1169.3059,-185.1047 1176.3243,-177.1679 1169.843,-174.5235"/>
</g>
<!-- Node87&#45;&gt;Node13 -->
<g id="edge119" class="edge">
<title>Node87&#45;&gt;Node13</title>
<path fill="none" stroke="#191970" d="M1107.2366,-192.0321C960.1486,-185.5601 581.5171,-167.3287 527.4727,-149 505.2925,-141.4778 504.7435,-129.8027 483.4727,-120 448.4358,-103.8533 407.0489,-91.6273 373.3216,-83.2522"/>
<polygon fill="#191970" stroke="#191970" points="1107.2757,-195.5371 1117.4191,-192.4776 1107.5817,-188.5438 1107.2757,-195.5371"/>
</g>
<!-- Node87&#45;&gt;Node20 -->
<g id="edge111" class="edge">
<title>Node87&#45;&gt;Node20</title>
<path fill="none" stroke="#191970" d="M1106.9783,-188.321C998.9392,-176.9084 769.0943,-152.6291 658.8955,-140.9883"/>
<polygon fill="#191970" stroke="#191970" points="1106.7329,-191.8145 1117.0453,-189.3844 1107.4683,-184.8532 1106.7329,-191.8145"/>
</g>
<!-- Node87&#45;&gt;Node23 -->
<g id="edge114" class="edge">
<title>Node87&#45;&gt;Node23</title>
<path fill="none" stroke="#191970" d="M1106.9974,-192.8493C950.9567,-188.1605 527.2322,-173.4945 389.4727,-149 345.59,-141.1974 336.7085,-130.8274 293.4727,-120 214.3322,-100.181 193.1719,-101.4365 113.4727,-84 110.7079,-83.3951 107.8754,-82.7635 105.0177,-82.1169"/>
<polygon fill="#191970" stroke="#191970" points="1107.223,-196.3575 1117.3228,-193.1567 1107.4314,-189.3606 1107.223,-196.3575"/>
</g>
<!-- Node87&#45;&gt;Node33 -->
<g id="edge115" class="edge">
<title>Node87&#45;&gt;Node33</title>
<path fill="none" stroke="#191970" d="M1223.8994,-194.2102C1441.4427,-192.8502 2197.1758,-185.5181 2298.4727,-149 2318.4588,-141.7949 2316.5992,-127.5101 2336.4727,-120 2442.3377,-79.9939 2732.5756,-100.9396 2844.4727,-84 2847.533,-83.5367 2850.6656,-83.0013 2853.818,-82.4151"/>
<polygon fill="#191970" stroke="#191970" points="1223.628,-190.7117 1213.6494,-194.2723 1223.6705,-197.7115 1223.628,-190.7117"/>
</g>
<!-- Node87&#45;&gt;Node37 -->
<g id="edge116" class="edge">
<title>Node87&#45;&gt;Node37</title>
<path fill="none" stroke="#191970" d="M1187.4282,-179.6652C1223.422,-155.345 1294.4917,-107.3249 1329.6999,-83.5356"/>
<polygon fill="#191970" stroke="#191970" points="1185.4025,-176.8098 1179.0761,-185.3085 1189.3216,-182.6099 1185.4025,-176.8098"/>
</g>
<!-- Node87&#45;&gt;Node58 -->
<g id="edge117" class="edge">
<title>Node87&#45;&gt;Node58</title>
<path fill="none" stroke="#191970" d="M1223.5231,-191.2203C1407.3338,-180.8355 1975.5752,-148.7315 2165.1737,-138.0197"/>
<polygon fill="#191970" stroke="#191970" points="1223.302,-187.7271 1213.5154,-191.7857 1223.6969,-194.716 1223.302,-187.7271"/>
</g>
<!-- Node89&#45;&gt;Node2 -->
<g id="edge121" class="edge">
<title>Node89&#45;&gt;Node2</title>
<path fill="none" stroke="#191970" d="M2564.8597,-204.7282C2421.7493,-223.5287 2260.6738,-240.8723 2177.1059,-249.2565"/>
<polygon fill="#191970" stroke="#191970" points="2565.6754,-208.1509 2575.1313,-203.3721 2564.7592,-201.2112 2565.6754,-208.1509"/>
</g>
<!-- Node91&#45;&gt;Node2 -->
<g id="edge123" class="edge">
<title>Node91&#45;&gt;Node2</title>
<path fill="none" stroke="#191970" d="M2685.3977,-204.7032C2496.1448,-226.9275 2278.4124,-243.785 2177.2617,-250.8629"/>
<polygon fill="#191970" stroke="#191970" points="2686.0086,-208.1554 2695.5283,-203.5051 2685.1864,-201.2038 2686.0086,-208.1554"/>
</g>
<!-- Node93&#45;&gt;Node3 -->
<g id="edge125" class="edge">
<title>Node93&#45;&gt;Node3</title>
<path fill="none" stroke="#191970" d="M1429.2161,-252.8031C1321.1895,-248.9813 1101.7791,-237.2642 1033.4727,-204 1007.6722,-191.4355 986.1514,-164.9102 974.6038,-148.5065"/>
<polygon fill="#191970" stroke="#191970" points="1429.1999,-256.3045 1439.3138,-253.1488 1429.4394,-249.3086 1429.1999,-256.3045"/>
</g>
<!-- Node94&#45;&gt;Node21 -->
<g id="edge127" class="edge">
<title>Node94&#45;&gt;Node21</title>
<path fill="none" stroke="#191970" d="M2551.1337,-248.9633C2640.4137,-240.5453 2793.8381,-223.4375 2810.4727,-204 2815.9633,-197.5842 2815.954,-191.4237 2810.4727,-185 2793.8779,-165.5524 2638.1994,-148.0379 2551.3531,-139.6775"/>
<polygon fill="#191970" stroke="#191970" points="2550.7406,-245.4846 2541.1085,-249.8975 2551.3902,-252.4545 2550.7406,-245.4846"/>
</g>
</g>
</svg>
