<?xml version="1.0" encoding="UTF-8" standalone="no"?>
<!DOCTYPE svg PUBLIC "-//W3C//DTD SVG 1.1//EN"
 "http://www.w3.org/Graphics/SVG/1.1/DTD/svg11.dtd">
<!-- Generated by graphviz version 2.40.1 (20161225.0304)
 -->
<!-- Title: src/cli.c Pages: 1 -->
<svg width="1564pt" height="247pt"
 viewBox="0.00 0.00 1564.47 247.00" xmlns="http://www.w3.org/2000/svg" xmlns:xlink="http://www.w3.org/1999/xlink">
<g id="graph0" class="graph" transform="scale(1 1) rotate(0) translate(4 243)">
<title>src/cli.c</title>
<polygon fill="#ffffff" stroke="transparent" points="-4,4 -4,-243 1560.4678,-243 1560.4678,4 -4,4"/>
<!-- Node0 -->
<g id="node1" class="node">
<title>Node0</title>
<polygon fill="#bfbfbf" stroke="#000000" points="1120.7314,-220.5 1120.7314,-238.5 1170.0615,-238.5 1170.0615,-220.5 1120.7314,-220.5"/>
<text text-anchor="middle" x="1145.3965" y="-226.5" font-family="Helvetica,sans-Serif" font-size="10.00" fill="#000000">src/cli.c</text>
</g>
<!-- Node1 -->
<g id="node2" class="node">
<title>Node1</title>
<g id="a_node2"><a xlink:href="src_2include_2cli_8h.html" target="_top" xlink:title="cli.h">
<polygon fill="#ffffff" stroke="#000000" points="770.5049,-165.5 770.5049,-183.5 804.2881,-183.5 804.2881,-165.5 770.5049,-165.5"/>
<text text-anchor="middle" x="787.3965" y="-171.5" font-family="Helvetica,sans-Serif" font-size="10.00" fill="#000000">cli.h</text>
</a>
</g>
</g>
<!-- Node0&#45;&gt;Node1 -->
<g id="edge1" class="edge">
<title>Node0&#45;&gt;Node1</title>
<path fill="none" stroke="#191970" d="M1120.4808,-227.9146C1066.2686,-224.08 933.567,-212.607 814.3196,-183.7414"/>
<polygon fill="#191970" stroke="#191970" points="814.8441,-180.2658 804.2966,-181.2655 813.1654,-187.0615 814.8441,-180.2658"/>
</g>
<!-- Node24 -->
<g id="node25" class="node">
<title>Node24</title>
<g id="a_node25"><a xlink:href="src_2include_2component_8h.html" target="_top" xlink:title="component.h">
<polygon fill="#ffffff" stroke="#000000" points="912.4878,-165.5 912.4878,-183.5 986.3052,-183.5 986.3052,-165.5 912.4878,-165.5"/>
<text text-anchor="middle" x="949.3965" y="-171.5" font-family="Helvetica,sans-Serif" font-size="10.00" fill="#000000">component.h</text>
</a>
</g>
</g>
<!-- Node0&#45;&gt;Node24 -->
<g id="edge25" class="edge">
<title>Node0&#45;&gt;Node24</title>
<path fill="none" stroke="#191970" d="M1120.5729,-222.5342C1088.07,-213.4135 1030.6165,-197.2913 991.3098,-186.2614"/>
<polygon fill="#191970" stroke="#191970" points="992.0597,-182.8367 981.4859,-183.5047 990.1684,-189.5764 992.0597,-182.8367"/>
</g>
<!-- Node27 -->
<g id="node28" class="node">
<title>Node27</title>
<g id="a_node28"><a xlink:href="events_2include_2event_8h.html" target="_top" xlink:title="event.h">
<polygon fill="#ffffff" stroke="#000000" points="1003.9951,-165.5 1003.9951,-183.5 1052.7979,-183.5 1052.7979,-165.5 1003.9951,-165.5"/>
<text text-anchor="middle" x="1028.3965" y="-171.5" font-family="Helvetica,sans-Serif" font-size="10.00" fill="#000000">event.h</text>
</a>
</g>
</g>
<!-- Node0&#45;&gt;Node27 -->
<g id="edge32" class="edge">
<title>Node0&#45;&gt;Node27</title>
<path fill="none" stroke="#191970" d="M1126.0763,-220.4179C1107.2772,-211.5807 1078.488,-198.0473 1057.0276,-187.9591"/>
<polygon fill="#191970" stroke="#191970" points="1058.2843,-184.6824 1047.7454,-183.5956 1055.3063,-191.0174 1058.2843,-184.6824"/>
</g>
<!-- Node30 -->
<g id="node31" class="node">
<title>Node30</title>
<g id="a_node31"><a xlink:href="src_2include_2application_8h.html" target="_top" xlink:title="application.h">
<polygon fill="#ffffff" stroke="#000000" points="822.3203,-165.5 822.3203,-183.5 894.4727,-183.5 894.4727,-165.5 822.3203,-165.5"/>
<text text-anchor="middle" x="858.3965" y="-171.5" font-family="Helvetica,sans-Serif" font-size="10.00" fill="#000000">application.h</text>
</a>
</g>
</g>
<!-- Node0&#45;&gt;Node30 -->
<g id="edge38" class="edge">
<title>Node0&#45;&gt;Node30</title>
<path fill="none" stroke="#191970" d="M1120.6266,-225.0305C1078.403,-217.3712 989.55,-201.0791 904.5403,-184.1971"/>
<polygon fill="#191970" stroke="#191970" points="905.2227,-180.7643 894.7316,-182.243 903.855,-187.6294 905.2227,-180.7643"/>
</g>
<!-- Node31 -->
<g id="node32" class="node">
<title>Node31</title>
<g id="a_node32"><a xlink:href="app__events_2include_2app__event_8h.html" target="_top" xlink:title="app_event.h">
<polygon fill="#ffffff" stroke="#000000" points="1070.8721,-165.5 1070.8721,-183.5 1141.9209,-183.5 1141.9209,-165.5 1070.8721,-165.5"/>
<text text-anchor="middle" x="1106.3965" y="-171.5" font-family="Helvetica,sans-Serif" font-size="10.00" fill="#000000">app_event.h</text>
</a>
</g>
</g>
<!-- Node0&#45;&gt;Node31 -->
<g id="edge43" class="edge">
<title>Node0&#45;&gt;Node31</title>
<path fill="none" stroke="#191970" d="M1138.9564,-220.4179C1133.5132,-212.7415 1125.5573,-201.5217 1118.8726,-192.0945"/>
<polygon fill="#191970" stroke="#191970" points="1121.6159,-189.9123 1112.9765,-183.7795 1115.9057,-193.9613 1121.6159,-189.9123"/>
</g>
<!-- Node34 -->
<g id="node35" class="node">
<title>Node34</title>
<polygon fill="#ffffff" stroke="#bfbfbf" points="1160.1626,-165.5 1160.1626,-183.5 1210.6304,-183.5 1210.6304,-165.5 1160.1626,-165.5"/>
<text text-anchor="middle" x="1185.3965" y="-171.5" font-family="Helvetica,sans-Serif" font-size="10.00" fill="#000000">signal.h</text>
</g>
<!-- Node0&#45;&gt;Node34 -->
<g id="edge49" class="edge">
<title>Node0&#45;&gt;Node34</title>
<path fill="none" stroke="#191970" d="M1152.0017,-220.4179C1157.5845,-212.7415 1165.7443,-201.5217 1172.6005,-192.0945"/>
<polygon fill="#191970" stroke="#191970" points="1175.5966,-193.9255 1178.6478,-183.7795 1169.9354,-189.8082 1175.5966,-193.9255"/>
</g>
<!-- Node35 -->
<g id="node36" class="node">
<title>Node35</title>
<polygon fill="#ffffff" stroke="#bfbfbf" points="1228.5,-165.5 1228.5,-183.5 1282.293,-183.5 1282.293,-165.5 1228.5,-165.5"/>
<text text-anchor="middle" x="1255.3965" y="-171.5" font-family="Helvetica,sans-Serif" font-size="10.00" fill="#000000">strings.h</text>
</g>
<!-- Node0&#45;&gt;Node35 -->
<g id="edge50" class="edge">
<title>Node0&#45;&gt;Node35</title>
<path fill="none" stroke="#191970" d="M1163.5607,-220.4179C1181.1555,-211.6205 1208.0583,-198.1691 1228.2053,-188.0956"/>
<polygon fill="#191970" stroke="#191970" points="1229.8262,-191.1983 1237.2052,-183.5956 1226.6957,-184.9373 1229.8262,-191.1983"/>
</g>
<!-- Node36 -->
<g id="node37" class="node">
<title>Node36</title>
<polygon fill="#ffffff" stroke="#bfbfbf" points="1300.3867,-165.5 1300.3867,-183.5 1366.4063,-183.5 1366.4063,-165.5 1300.3867,-165.5"/>
<text text-anchor="middle" x="1333.3965" y="-171.5" font-family="Helvetica,sans-Serif" font-size="10.00" fill="#000000">sys/types.h</text>
</g>
<!-- Node0&#45;&gt;Node36 -->
<g id="edge51" class="edge">
<title>Node0&#45;&gt;Node36</title>
<path fill="none" stroke="#191970" d="M1170.3614,-222.1964C1201.4942,-213.0884 1255.1439,-197.393 1292.3566,-186.5064"/>
<polygon fill="#191970" stroke="#191970" points="1293.7693,-189.7398 1302.3842,-183.5727 1291.8037,-183.0214 1293.7693,-189.7398"/>
</g>
<!-- Node37 -->
<g id="node38" class="node">
<title>Node37</title>
<polygon fill="#ffffff" stroke="#bfbfbf" points="1384.8867,-165.5 1384.8867,-183.5 1455.9063,-183.5 1455.9063,-165.5 1384.8867,-165.5"/>
<text text-anchor="middle" x="1420.3965" y="-171.5" font-family="Helvetica,sans-Serif" font-size="10.00" fill="#000000">sys/socket.h</text>
</g>
<!-- Node0&#45;&gt;Node37 -->
<g id="edge52" class="edge">
<title>Node0&#45;&gt;Node37</title>
<path fill="none" stroke="#191970" d="M1170.263,-224.6886C1210.823,-216.8174 1293.9901,-200.5813 1374.7144,-184.12"/>
<polygon fill="#191970" stroke="#191970" points="1375.4466,-187.5428 1384.5437,-182.1119 1374.0455,-180.6844 1375.4466,-187.5428"/>
</g>
<!-- Node38 -->
<g id="node39" class="node">
<title>Node38</title>
<g id="a_node39"><a xlink:href="cli__password_8h.html" target="_top" xlink:title="cli_password.h">
<polygon fill="#ffffff" stroke="#000000" points="1474.3252,-165.5 1474.3252,-183.5 1556.4678,-183.5 1556.4678,-165.5 1474.3252,-165.5"/>
<text text-anchor="middle" x="1515.3965" y="-171.5" font-family="Helvetica,sans-Serif" font-size="10.00" fill="#000000">cli_password.h</text>
</a>
</g>
</g>
<!-- Node0&#45;&gt;Node38 -->
<g id="edge53" class="edge">
<title>Node0&#45;&gt;Node38</title>
<path fill="none" stroke="#191970" d="M1170.3524,-226.3535C1222.7773,-219.658 1348.4048,-203.1646 1464.1313,-184.149"/>
<polygon fill="#191970" stroke="#191970" points="1464.9279,-187.5649 1474.2228,-182.4801 1463.7857,-180.6587 1464.9279,-187.5649"/>
</g>
<!-- Node2 -->
<g id="node3" class="node">
<title>Node2</title>
<g id="a_node3"><a xlink:href="src_2include_2common_8h.html" target="_top" xlink:title="common.h">
<polygon fill="#ffffff" stroke="#000000" points="805.0542,-55.5 805.0542,-73.5 867.7388,-73.5 867.7388,-55.5 805.0542,-55.5"/>
<text text-anchor="middle" x="836.3965" y="-61.5" font-family="Helvetica,sans-Serif" font-size="10.00" fill="#000000">common.h</text>
</a>
</g>
</g>
<!-- Node1&#45;&gt;Node2 -->
<g id="edge2" class="edge">
<title>Node1&#45;&gt;Node2</title>
<path fill="none" stroke="#191970" d="M780.4534,-165.29C771.6169,-152.3522 758.6072,-128.3287 768.3965,-110 775.8998,-95.9513 789.8751,-85.4805 803.2137,-78.1485"/>
<polygon fill="#191970" stroke="#191970" points="804.9185,-81.2084 812.259,-73.5685 801.7563,-74.9633 804.9185,-81.2084"/>
</g>
<!-- Node23 -->
<g id="node24" class="node">
<title>Node23</title>
<g id="a_node24"><a xlink:href="src_2include_2context_8h.html" target="_top" xlink:title="context.h">
<polygon fill="#ffffff" stroke="#000000" points="938.106,-110.5 938.106,-128.5 994.687,-128.5 994.687,-110.5 938.106,-110.5"/>
<text text-anchor="middle" x="966.3965" y="-116.5" font-family="Helvetica,sans-Serif" font-size="10.00" fill="#000000">context.h</text>
</a>
</g>
</g>
<!-- Node1&#45;&gt;Node23 -->
<g id="edge23" class="edge">
<title>Node1&#45;&gt;Node23</title>
<path fill="none" stroke="#191970" d="M804.4067,-168.1155C807.3917,-167.0436 810.4766,-165.9666 813.3965,-165 852.1599,-152.1678 896.9863,-139.0342 928.0553,-130.1971"/>
<polygon fill="#191970" stroke="#191970" points="929.3673,-133.4633 938.0357,-127.3715 927.4604,-126.728 929.3673,-133.4633"/>
</g>
<!-- Node3 -->
<g id="node4" class="node">
<title>Node3</title>
<polygon fill="#ffffff" stroke="#bfbfbf" points="1210.665,-.5 1210.665,-18.5 1256.1279,-18.5 1256.1279,-.5 1210.665,-.5"/>
<text text-anchor="middle" x="1233.3965" y="-6.5" font-family="Helvetica,sans-Serif" font-size="10.00" fill="#000000">stdio.h</text>
</g>
<!-- Node2&#45;&gt;Node3 -->
<g id="edge3" class="edge">
<title>Node2&#45;&gt;Node3</title>
<path fill="none" stroke="#191970" d="M868.037,-62.4254C930.2276,-57.951 1072.8095,-45.7341 1200.5393,-19.115"/>
<polygon fill="#191970" stroke="#191970" points="1201.4337,-22.5032 1210.4902,-17.0051 1199.9817,-15.6554 1201.4337,-22.5032"/>
</g>
<!-- Node4 -->
<g id="node5" class="node">
<title>Node4</title>
<polygon fill="#ffffff" stroke="#bfbfbf" points="1273.8843,-.5 1273.8843,-18.5 1324.9087,-18.5 1324.9087,-.5 1273.8843,-.5"/>
<text text-anchor="middle" x="1299.3965" y="-6.5" font-family="Helvetica,sans-Serif" font-size="10.00" fill="#000000">unistd.h</text>
</g>
<!-- Node2&#45;&gt;Node4 -->
<g id="edge4" class="edge">
<title>Node2&#45;&gt;Node4</title>
<path fill="none" stroke="#191970" d="M867.8799,-62.9622C937.6567,-59.1708 1110.6267,-47.6614 1263.4761,-19.1168"/>
<polygon fill="#191970" stroke="#191970" points="1264.3416,-22.5151 1273.5137,-17.2118 1263.0364,-15.6378 1264.3416,-22.5151"/>
</g>
<!-- Node5 -->
<g id="node6" class="node">
<title>Node5</title>
<polygon fill="#ffffff" stroke="#bfbfbf" points="1342.5542,-.5 1342.5542,-18.5 1390.2388,-18.5 1390.2388,-.5 1342.5542,-.5"/>
<text text-anchor="middle" x="1366.3965" y="-6.5" font-family="Helvetica,sans-Serif" font-size="10.00" fill="#000000">stdlib.h</text>
</g>
<!-- Node2&#45;&gt;Node5 -->
<g id="edge5" class="edge">
<title>Node2&#45;&gt;Node5</title>
<path fill="none" stroke="#191970" d="M867.8715,-63.7761C945.5523,-61.5343 1152.5935,-52.7876 1332.5075,-19.0615"/>
<polygon fill="#191970" stroke="#191970" points="1333.2416,-22.4847 1342.4096,-17.1745 1331.9312,-15.6084 1333.2416,-22.4847"/>
</g>
<!-- Node6 -->
<g id="node7" class="node">
<title>Node6</title>
<polygon fill="#ffffff" stroke="#bfbfbf" points="0,-.5 0,-18.5 48.793,-18.5 48.793,-.5 0,-.5"/>
<text text-anchor="middle" x="24.3965" y="-6.5" font-family="Helvetica,sans-Serif" font-size="10.00" fill="#000000">string.h</text>
</g>
<!-- Node2&#45;&gt;Node6 -->
<g id="edge6" class="edge">
<title>Node2&#45;&gt;Node6</title>
<path fill="none" stroke="#191970" d="M804.9692,-63.5957C680.8953,-59.8845 224.2227,-44.8602 59.1078,-18.902"/>
<polygon fill="#191970" stroke="#191970" points="59.5618,-15.4297 49.1258,-17.2571 58.4237,-22.3365 59.5618,-15.4297"/>
</g>
<!-- Node7 -->
<g id="node8" class="node">
<title>Node7</title>
<polygon fill="#ffffff" stroke="#bfbfbf" points="66.3301,-.5 66.3301,-18.5 118.4629,-18.5 118.4629,-.5 66.3301,-.5"/>
<text text-anchor="middle" x="92.3965" y="-6.5" font-family="Helvetica,sans-Serif" font-size="10.00" fill="#000000">stdarg.h</text>
</g>
<!-- Node2&#45;&gt;Node7 -->
<g id="edge7" class="edge">
<title>Node2&#45;&gt;Node7</title>
<path fill="none" stroke="#191970" d="M805.0049,-63.3257C688.4228,-58.8372 279.7207,-41.9347 128.6438,-18.8343"/>
<polygon fill="#191970" stroke="#191970" points="129.0724,-15.3584 118.6446,-17.2322 127.9649,-22.2702 129.0724,-15.3584"/>
</g>
<!-- Node8 -->
<g id="node9" class="node">
<title>Node8</title>
<polygon fill="#ffffff" stroke="#bfbfbf" points="136.2759,-.5 136.2759,-18.5 184.5171,-18.5 184.5171,-.5 136.2759,-.5"/>
<text text-anchor="middle" x="160.3965" y="-6.5" font-family="Helvetica,sans-Serif" font-size="10.00" fill="#000000">stdint.h</text>
</g>
<!-- Node2&#45;&gt;Node8 -->
<g id="edge8" class="edge">
<title>Node2&#45;&gt;Node8</title>
<path fill="none" stroke="#191970" d="M804.8867,-63.1468C695.5553,-58.3184 332.1981,-41.1259 195.0227,-18.8825"/>
<polygon fill="#191970" stroke="#191970" points="195.2168,-15.3651 184.7706,-17.1339 194.0398,-22.2655 195.2168,-15.3651"/>
</g>
<!-- Node9 -->
<g id="node10" class="node">
<title>Node9</title>
<polygon fill="#ffffff" stroke="#bfbfbf" points="202.2686,-.5 202.2686,-18.5 260.5244,-18.5 260.5244,-.5 202.2686,-.5"/>
<text text-anchor="middle" x="231.3965" y="-6.5" font-family="Helvetica,sans-Serif" font-size="10.00" fill="#000000">pthread.h</text>
</g>
<!-- Node2&#45;&gt;Node9 -->
<g id="edge9" class="edge">
<title>Node2&#45;&gt;Node9</title>
<path fill="none" stroke="#191970" d="M804.8284,-63.7898C719.8763,-61.493 479.2874,-52.4466 270.6646,-18.961"/>
<polygon fill="#191970" stroke="#191970" points="271.1875,-15.5002 260.755,-17.3479 270.0628,-22.4092 271.1875,-15.5002"/>
</g>
<!-- Node10 -->
<g id="node11" class="node">
<title>Node10</title>
<polygon fill="#ffffff" stroke="#bfbfbf" points="278.2759,-.5 278.2759,-18.5 326.5171,-18.5 326.5171,-.5 278.2759,-.5"/>
<text text-anchor="middle" x="302.3965" y="-6.5" font-family="Helvetica,sans-Serif" font-size="10.00" fill="#000000">ctype.h</text>
</g>
<!-- Node2&#45;&gt;Node10 -->
<g id="edge10" class="edge">
<title>Node2&#45;&gt;Node10</title>
<path fill="none" stroke="#191970" d="M805.0403,-63.7147C727.1591,-61.3278 518.6556,-52.2657 336.791,-18.9424"/>
<polygon fill="#191970" stroke="#191970" points="337.2525,-15.4683 326.7808,-17.0784 335.971,-22.35 337.2525,-15.4683"/>
</g>
<!-- Node11 -->
<g id="node12" class="node">
<title>Node11</title>
<polygon fill="#ffffff" stroke="#bfbfbf" points="344.5542,-.5 344.5542,-18.5 392.2388,-18.5 392.2388,-.5 344.5542,-.5"/>
<text text-anchor="middle" x="368.3965" y="-6.5" font-family="Helvetica,sans-Serif" font-size="10.00" fill="#000000">errno.h</text>
</g>
<!-- Node2&#45;&gt;Node11 -->
<g id="edge11" class="edge">
<title>Node2&#45;&gt;Node11</title>
<path fill="none" stroke="#191970" d="M804.9074,-63.2078C734.2849,-59.8864 557.8563,-49.2308 402.5855,-19.1501"/>
<polygon fill="#191970" stroke="#191970" points="402.8781,-15.6405 392.39,-17.1405 401.5243,-22.5084 402.8781,-15.6405"/>
</g>
<!-- Node12 -->
<g id="node13" class="node">
<title>Node12</title>
<polygon fill="#ffffff" stroke="#bfbfbf" points="409.7686,-.5 409.7686,-18.5 473.0244,-18.5 473.0244,-.5 409.7686,-.5"/>
<text text-anchor="middle" x="441.3965" y="-6.5" font-family="Helvetica,sans-Serif" font-size="10.00" fill="#000000">arpa/inet.h</text>
</g>
<!-- Node2&#45;&gt;Node12 -->
<g id="edge12" class="edge">
<title>Node2&#45;&gt;Node12</title>
<path fill="none" stroke="#191970" d="M804.9819,-61.5266C744.635,-55.5865 608.1599,-41.0498 483.2379,-18.9881"/>
<polygon fill="#191970" stroke="#191970" points="483.5757,-15.4931 473.1159,-17.1792 482.3442,-22.3839 483.5757,-15.4931"/>
</g>
<!-- Node13 -->
<g id="node14" class="node">
<title>Node13</title>
<polygon fill="#ffffff" stroke="#bfbfbf" points="490.9336,-.5 490.9336,-18.5 555.8594,-18.5 555.8594,-.5 490.9336,-.5"/>
<text text-anchor="middle" x="523.3965" y="-6.5" font-family="Helvetica,sans-Serif" font-size="10.00" fill="#000000">netinet/in.h</text>
</g>
<!-- Node2&#45;&gt;Node13 -->
<g id="edge13" class="edge">
<title>Node2&#45;&gt;Node13</title>
<path fill="none" stroke="#191970" d="M804.8687,-59.8751C755.8548,-52.5447 658.2088,-37.3807 566.0773,-19.2474"/>
<polygon fill="#191970" stroke="#191970" points="566.5208,-15.7672 556.0308,-17.2536 565.1581,-22.6333 566.5208,-15.7672"/>
</g>
<!-- Node14 -->
<g id="node15" class="node">
<title>Node14</title>
<polygon fill="#ffffff" stroke="#bfbfbf" points="573.5396,-.5 573.5396,-18.5 651.2534,-18.5 651.2534,-.5 573.5396,-.5"/>
<text text-anchor="middle" x="612.3965" y="-6.5" font-family="Helvetica,sans-Serif" font-size="10.00" fill="#000000">net/ethernet.h</text>
</g>
<!-- Node2&#45;&gt;Node14 -->
<g id="edge14" class="edge">
<title>Node2&#45;&gt;Node14</title>
<path fill="none" stroke="#191970" d="M804.7778,-56.7365C766.7379,-47.3963 702.5511,-31.6362 658.8721,-20.9114"/>
<polygon fill="#191970" stroke="#191970" points="659.6065,-17.4879 649.0604,-18.5023 657.9373,-24.2859 659.6065,-17.4879"/>
</g>
<!-- Node15 -->
<g id="node16" class="node">
<title>Node15</title>
<polygon fill="#ffffff" stroke="#bfbfbf" points="668.9336,-.5 668.9336,-18.5 733.8594,-18.5 733.8594,-.5 668.9336,-.5"/>
<text text-anchor="middle" x="701.3965" y="-6.5" font-family="Helvetica,sans-Serif" font-size="10.00" fill="#000000">netinet/ip.h</text>
</g>
<!-- Node2&#45;&gt;Node15 -->
<g id="edge15" class="edge">
<title>Node2&#45;&gt;Node15</title>
<path fill="none" stroke="#191970" d="M814.104,-55.4179C792.0219,-46.4215 757.9935,-32.5581 733.1022,-22.4172"/>
<polygon fill="#191970" stroke="#191970" points="734.3036,-19.1273 723.7221,-18.5956 731.6625,-25.61 734.3036,-19.1273"/>
</g>
<!-- Node16 -->
<g id="node17" class="node">
<title>Node16</title>
<polygon fill="#ffffff" stroke="#bfbfbf" points="752.1553,-.5 752.1553,-18.5 822.6377,-18.5 822.6377,-.5 752.1553,-.5"/>
<text text-anchor="middle" x="787.3965" y="-6.5" font-family="Helvetica,sans-Serif" font-size="10.00" fill="#000000">netinet/tcp.h</text>
</g>
<!-- Node2&#45;&gt;Node16 -->
<g id="edge16" class="edge">
<title>Node2&#45;&gt;Node16</title>
<path fill="none" stroke="#191970" d="M828.3051,-55.4179C821.3252,-47.5833 811.0568,-36.0575 802.5541,-26.5137"/>
<polygon fill="#191970" stroke="#191970" points="804.929,-23.9178 795.6636,-18.7795 799.7024,-28.5743 804.929,-23.9178"/>
</g>
<!-- Node17 -->
<g id="node18" class="node">
<title>Node17</title>
<polygon fill="#ffffff" stroke="#bfbfbf" points="840.5962,-.5 840.5962,-18.5 932.1968,-18.5 932.1968,-.5 840.5962,-.5"/>
<text text-anchor="middle" x="886.3965" y="-6.5" font-family="Helvetica,sans-Serif" font-size="10.00" fill="#000000">netinet/ip_icmp.h</text>
</g>
<!-- Node2&#45;&gt;Node17 -->
<g id="edge17" class="edge">
<title>Node2&#45;&gt;Node17</title>
<path fill="none" stroke="#191970" d="M844.653,-55.4179C851.8473,-47.5041 862.4653,-35.8243 871.1919,-26.2251"/>
<polygon fill="#191970" stroke="#191970" points="873.8237,-28.5332 877.9606,-18.7795 868.6441,-23.8245 873.8237,-28.5332"/>
</g>
<!-- Node18 -->
<g id="node19" class="node">
<title>Node18</title>
<polygon fill="#ffffff" stroke="#bfbfbf" points="949.9927,-.5 949.9927,-18.5 1008.8003,-18.5 1008.8003,-.5 949.9927,-.5"/>
<text text-anchor="middle" x="979.3965" y="-6.5" font-family="Helvetica,sans-Serif" font-size="10.00" fill="#000000">jansson.h</text>
</g>
<!-- Node2&#45;&gt;Node18 -->
<g id="edge18" class="edge">
<title>Node2&#45;&gt;Node18</title>
<path fill="none" stroke="#191970" d="M860.01,-55.4179C883.5042,-46.3817 919.7648,-32.4353 946.1613,-22.2828"/>
<polygon fill="#191970" stroke="#191970" points="947.6708,-25.4522 955.7479,-18.5956 945.158,-18.9188 947.6708,-25.4522"/>
</g>
<!-- Node19 -->
<g id="node20" class="node">
<title>Node19</title>
<polygon fill="#ffffff" stroke="#bfbfbf" points="1026.5024,-.5 1026.5024,-18.5 1070.2905,-18.5 1070.2905,-.5 1026.5024,-.5"/>
<text text-anchor="middle" x="1048.3965" y="-6.5" font-family="Helvetica,sans-Serif" font-size="10.00" fill="#000000">libcli.h</text>
</g>
<!-- Node2&#45;&gt;Node19 -->
<g id="edge19" class="edge">
<title>Node2&#45;&gt;Node19</title>
<path fill="none" stroke="#191970" d="M867.9154,-57.0934C902.2197,-48.9191 958.8937,-35.0856 1016.7515,-19.0788"/>
<polygon fill="#191970" stroke="#191970" points="1017.7273,-22.4403 1026.4218,-16.3859 1015.8494,-15.6969 1017.7273,-22.4403"/>
</g>
<!-- Node20 -->
<g id="node21" class="node">
<title>Node20</title>
<polygon fill="#ffffff" stroke="#bfbfbf" points="1088.7808,-.5 1088.7808,-18.5 1132.0122,-18.5 1132.0122,-.5 1088.7808,-.5"/>
<text text-anchor="middle" x="1110.3965" y="-6.5" font-family="Helvetica,sans-Serif" font-size="10.00" fill="#000000">zmq.h</text>
</g>
<!-- Node2&#45;&gt;Node20 -->
<g id="edge20" class="edge">
<title>Node2&#45;&gt;Node20</title>
<path fill="none" stroke="#191970" d="M868.0949,-59.7307C912.8966,-52.7375 997.4374,-38.6165 1078.589,-18.9763"/>
<polygon fill="#191970" stroke="#191970" points="1079.5874,-22.3352 1088.4658,-16.5538 1077.9199,-15.5367 1079.5874,-22.3352"/>
</g>
<!-- Node21 -->
<g id="node22" class="node">
<title>Node21</title>
<g id="a_node22"><a xlink:href="src_2include_2type_8h.html" target="_top" xlink:title="type.h">
<polygon fill="#ffffff" stroke="#000000" points="1407.7759,-.5 1407.7759,-18.5 1451.0171,-18.5 1451.0171,-.5 1407.7759,-.5"/>
<text text-anchor="middle" x="1429.3965" y="-6.5" font-family="Helvetica,sans-Serif" font-size="10.00" fill="#000000">type.h</text>
</a>
</g>
</g>
<!-- Node2&#45;&gt;Node21 -->
<g id="edge21" class="edge">
<title>Node2&#45;&gt;Node21</title>
<path fill="none" stroke="#191970" d="M867.849,-62.8962C967.7632,-57.6587 1277.9325,-40.2645 1397.62,-18.9102"/>
<polygon fill="#191970" stroke="#191970" points="1398.4101,-22.323 1407.5898,-17.0332 1397.1149,-15.4439 1398.4101,-22.323"/>
</g>
<!-- Node22 -->
<g id="node23" class="node">
<title>Node22</title>
<polygon fill="#ffffff" stroke="#bfbfbf" points="1149.7808,-.5 1149.7808,-18.5 1193.0122,-18.5 1193.0122,-.5 1149.7808,-.5"/>
<text text-anchor="middle" x="1171.3965" y="-6.5" font-family="Helvetica,sans-Serif" font-size="10.00" fill="#000000">time.h</text>
</g>
<!-- Node2&#45;&gt;Node22 -->
<g id="edge22" class="edge">
<title>Node2&#45;&gt;Node22</title>
<path fill="none" stroke="#191970" d="M867.8781,-61.4688C921.8126,-55.9189 1035.4236,-42.6727 1139.5115,-19.1652"/>
<polygon fill="#191970" stroke="#191970" points="1140.5902,-22.5086 1149.5524,-16.8582 1139.0226,-15.6864 1140.5902,-22.5086"/>
</g>
<!-- Node23&#45;&gt;Node2 -->
<g id="edge24" class="edge">
<title>Node23&#45;&gt;Node2</title>
<path fill="none" stroke="#191970" d="M944.9296,-110.4179C923.7595,-101.4613 891.1871,-87.6806 867.2467,-77.552"/>
<polygon fill="#191970" stroke="#191970" points="868.4687,-74.2687 857.8952,-73.5956 865.7412,-80.7155 868.4687,-74.2687"/>
</g>
<!-- Node24&#45;&gt;Node2 -->
<g id="edge26" class="edge">
<title>Node24&#45;&gt;Node2</title>
<path fill="none" stroke="#191970" d="M941.911,-165.3543C931.2233,-152.493 910.7378,-128.5598 891.3965,-110 880.3899,-99.4382 867.2519,-88.5136 856.5769,-80.0171"/>
<polygon fill="#191970" stroke="#191970" points="858.6579,-77.2011 848.6316,-73.7769 854.3342,-82.7062 858.6579,-77.2011"/>
</g>
<!-- Node24&#45;&gt;Node23 -->
<g id="edge27" class="edge">
<title>Node24&#45;&gt;Node23</title>
<path fill="none" stroke="#191970" d="M952.2037,-165.4179C954.4541,-158.1372 957.6897,-147.669 960.5034,-138.5659"/>
<polygon fill="#191970" stroke="#191970" points="963.9191,-139.3671 963.5283,-128.7795 957.2312,-137.2999 963.9191,-139.3671"/>
</g>
<!-- Node25 -->
<g id="node26" class="node">
<title>Node25</title>
<g id="a_node26"><a xlink:href="hash_8h.html" target="_top" xlink:title="hash.h">
<polygon fill="#ffffff" stroke="#000000" points="784.3843,-110.5 784.3843,-128.5 830.4087,-128.5 830.4087,-110.5 784.3843,-110.5"/>
<text text-anchor="middle" x="807.3965" y="-116.5" font-family="Helvetica,sans-Serif" font-size="10.00" fill="#000000">hash.h</text>
</a>
</g>
</g>
<!-- Node24&#45;&gt;Node25 -->
<g id="edge28" class="edge">
<title>Node24&#45;&gt;Node25</title>
<path fill="none" stroke="#191970" d="M925.9481,-165.4179C902.6182,-156.3817 866.6112,-142.4353 840.3993,-132.2828"/>
<polygon fill="#191970" stroke="#191970" points="841.4689,-128.9437 830.8797,-128.5956 838.9406,-135.4712 841.4689,-128.9437"/>
</g>
<!-- Node26 -->
<g id="node27" class="node">
<title>Node26</title>
<g id="a_node27"><a xlink:href="str_8h.html" target="_top" xlink:title="str.h">
<polygon fill="#ffffff" stroke="#000000" points="847.9458,-110.5 847.9458,-128.5 882.8472,-128.5 882.8472,-110.5 847.9458,-110.5"/>
<text text-anchor="middle" x="865.3965" y="-116.5" font-family="Helvetica,sans-Serif" font-size="10.00" fill="#000000">str.h</text>
</a>
</g>
</g>
<!-- Node24&#45;&gt;Node26 -->
<g id="edge30" class="edge">
<title>Node24&#45;&gt;Node26</title>
<path fill="none" stroke="#191970" d="M935.5256,-165.4179C922.6368,-156.9788 903.2071,-144.257 888.0651,-134.3426"/>
<polygon fill="#191970" stroke="#191970" points="889.5714,-131.1454 879.288,-128.5956 885.7369,-137.0017 889.5714,-131.1454"/>
</g>
<!-- Node25&#45;&gt;Node2 -->
<g id="edge29" class="edge">
<title>Node25&#45;&gt;Node2</title>
<path fill="none" stroke="#191970" d="M812.1852,-110.4179C816.1493,-102.8998 821.9055,-91.9829 826.8107,-82.6799"/>
<polygon fill="#191970" stroke="#191970" points="829.9355,-84.2576 831.5037,-73.7795 823.7435,-80.9927 829.9355,-84.2576"/>
</g>
<!-- Node26&#45;&gt;Node2 -->
<g id="edge31" class="edge">
<title>Node26&#45;&gt;Node2</title>
<path fill="none" stroke="#191970" d="M860.6077,-110.4179C856.6437,-102.8998 850.8875,-91.9829 845.9822,-82.6799"/>
<polygon fill="#191970" stroke="#191970" points="849.0494,-80.9927 841.2893,-73.7795 842.8574,-84.2576 849.0494,-80.9927"/>
</g>
<!-- Node27&#45;&gt;Node2 -->
<g id="edge33" class="edge">
<title>Node27&#45;&gt;Node2</title>
<path fill="none" stroke="#191970" d="M1027.4074,-165.1156C1025.4189,-151.0602 1019.6329,-124.6333 1003.3965,-110 985.0045,-93.4239 921.0926,-79.3348 877.8848,-71.3993"/>
<polygon fill="#191970" stroke="#191970" points="878.3875,-67.9337 867.9263,-69.6113 877.1504,-74.8235 878.3875,-67.9337"/>
</g>
<!-- Node27&#45;&gt;Node23 -->
<g id="edge34" class="edge">
<title>Node27&#45;&gt;Node23</title>
<path fill="none" stroke="#191970" d="M1018.1584,-165.4179C1009.0591,-157.3458 995.5428,-145.3556 984.6038,-135.6517"/>
<polygon fill="#191970" stroke="#191970" points="986.6604,-132.7974 976.857,-128.7795 982.0151,-138.0339 986.6604,-132.7974"/>
</g>
<!-- Node28 -->
<g id="node29" class="node">
<title>Node28</title>
<g id="a_node29"><a xlink:href="events_2include_2event__id_8h.html" target="_top" xlink:title="event_id.h">
<polygon fill="#ffffff" stroke="#000000" points="1050.3228,-110.5 1050.3228,-128.5 1112.4702,-128.5 1112.4702,-110.5 1050.3228,-110.5"/>
<text text-anchor="middle" x="1081.3965" y="-116.5" font-family="Helvetica,sans-Serif" font-size="10.00" fill="#000000">event_id.h</text>
</a>
</g>
</g>
<!-- Node27&#45;&gt;Node28 -->
<g id="edge35" class="edge">
<title>Node27&#45;&gt;Node28</title>
<path fill="none" stroke="#191970" d="M1037.1484,-165.4179C1044.7743,-157.5041 1056.0294,-145.8243 1065.2796,-136.2251"/>
<polygon fill="#191970" stroke="#191970" points="1068.0358,-138.4089 1072.4545,-128.7795 1062.9952,-133.5516 1068.0358,-138.4089"/>
</g>
<!-- Node29 -->
<g id="node30" class="node">
<title>Node29</title>
<g id="a_node30"><a xlink:href="events_2include_2event__list_8h.html" target="_top" xlink:title="event_list.h">
<polygon fill="#ffffff" stroke="#000000" points="1184.1035,-55.5 1184.1035,-73.5 1250.6895,-73.5 1250.6895,-55.5 1184.1035,-55.5"/>
<text text-anchor="middle" x="1217.3965" y="-61.5" font-family="Helvetica,sans-Serif" font-size="10.00" fill="#000000">event_list.h</text>
</a>
</g>
</g>
<!-- Node27&#45;&gt;Node29 -->
<g id="edge36" class="edge">
<title>Node27&#45;&gt;Node29</title>
<path fill="none" stroke="#191970" d="M1049.1329,-165.3431C1068.2616,-156.6662 1097.2643,-142.9232 1121.3965,-129 1148.2719,-113.4941 1177.6806,-93.2064 1196.7721,-79.5594"/>
<polygon fill="#191970" stroke="#191970" points="1198.9476,-82.3059 1205.0153,-73.6206 1194.8557,-76.6263 1198.9476,-82.3059"/>
</g>
<!-- Node29&#45;&gt;Node21 -->
<g id="edge37" class="edge">
<title>Node29&#45;&gt;Node21</title>
<path fill="none" stroke="#191970" d="M1250.7703,-56.8094C1285.393,-48.6876 1341.3043,-35.1731 1397.6999,-19.3736"/>
<polygon fill="#191970" stroke="#191970" points="1398.8161,-22.6954 1407.4884,-16.6092 1396.9136,-15.9589 1398.8161,-22.6954"/>
</g>
<!-- Node30&#45;&gt;Node2 -->
<g id="edge39" class="edge">
<title>Node30&#45;&gt;Node2</title>
<path fill="none" stroke="#191970" d="M825.3581,-165.4836C807.1894,-158.6508 786.1983,-147.2399 775.3965,-129 763.698,-109.246 786.2658,-90.6428 807.184,-78.5392"/>
<polygon fill="#191970" stroke="#191970" points="809.1336,-81.4631 816.2458,-73.6102 805.7889,-75.3139 809.1336,-81.4631"/>
</g>
<!-- Node30&#45;&gt;Node23 -->
<g id="edge40" class="edge">
<title>Node30&#45;&gt;Node23</title>
<path fill="none" stroke="#191970" d="M876.2305,-165.4179C893.4272,-156.6603 919.6801,-143.2907 939.4307,-133.2326"/>
<polygon fill="#191970" stroke="#191970" points="941.2133,-136.2526 948.536,-128.5956 938.0366,-130.0148 941.2133,-136.2526"/>
</g>
<!-- Node30&#45;&gt;Node25 -->
<g id="edge41" class="edge">
<title>Node30&#45;&gt;Node25</title>
<path fill="none" stroke="#191970" d="M849.9749,-165.4179C842.6367,-157.5041 831.8063,-145.8243 822.9052,-136.2251"/>
<polygon fill="#191970" stroke="#191970" points="825.3669,-133.7324 816.0011,-128.7795 820.2341,-138.492 825.3669,-133.7324"/>
</g>
<!-- Node30&#45;&gt;Node26 -->
<g id="edge42" class="edge">
<title>Node30&#45;&gt;Node26</title>
<path fill="none" stroke="#191970" d="M859.5524,-165.4179C860.4689,-158.2164 861.7824,-147.8962 862.9321,-138.8632"/>
<polygon fill="#191970" stroke="#191970" points="866.4248,-139.1414 864.2155,-128.7795 859.4808,-138.2575 866.4248,-139.1414"/>
</g>
<!-- Node31&#45;&gt;Node2 -->
<g id="edge44" class="edge">
<title>Node31&#45;&gt;Node2</title>
<path fill="none" stroke="#191970" d="M1112.8359,-165.4379C1121.6655,-151.8036 1134.9758,-125.9192 1121.3965,-110 1105.7904,-91.7048 953.3263,-75.2623 878.0356,-68.1817"/>
<polygon fill="#191970" stroke="#191970" points="878.2269,-64.6845 867.9462,-67.2456 877.5801,-71.6546 878.2269,-64.6845"/>
</g>
<!-- Node31&#45;&gt;Node23 -->
<g id="edge45" class="edge">
<title>Node31&#45;&gt;Node23</title>
<path fill="none" stroke="#191970" d="M1083.2783,-165.4179C1060.2771,-156.3817 1024.7772,-142.4353 998.9344,-132.2828"/>
<polygon fill="#191970" stroke="#191970" points="1000.1363,-128.9946 989.549,-128.5956 997.5767,-135.5098 1000.1363,-128.9946"/>
</g>
<!-- Node32 -->
<g id="node33" class="node">
<title>Node32</title>
<g id="a_node33"><a xlink:href="app__events_2include_2app__event__id_8h.html" target="_top" xlink:title="app_event_id.h">
<polygon fill="#ffffff" stroke="#000000" points="1244.1997,-110.5 1244.1997,-128.5 1328.5933,-128.5 1328.5933,-110.5 1244.1997,-110.5"/>
<text text-anchor="middle" x="1286.3965" y="-116.5" font-family="Helvetica,sans-Serif" font-size="10.00" fill="#000000">app_event_id.h</text>
</a>
</g>
</g>
<!-- Node31&#45;&gt;Node32 -->
<g id="edge46" class="edge">
<title>Node31&#45;&gt;Node32</title>
<path fill="none" stroke="#191970" d="M1136.1198,-165.4179C1166.4348,-156.155 1213.6357,-141.7325 1247.0387,-131.526"/>
<polygon fill="#191970" stroke="#191970" points="1248.3874,-134.7737 1256.9282,-128.5042 1246.3419,-128.0792 1248.3874,-134.7737"/>
</g>
<!-- Node33 -->
<g id="node34" class="node">
<title>Node33</title>
<g id="a_node34"><a xlink:href="app__events_2include_2app__event__list_8h.html" target="_top" xlink:title="app_event_list.h">
<polygon fill="#ffffff" stroke="#000000" points="1345.9805,-55.5 1345.9805,-73.5 1434.8125,-73.5 1434.8125,-55.5 1345.9805,-55.5"/>
<text text-anchor="middle" x="1390.3965" y="-61.5" font-family="Helvetica,sans-Serif" font-size="10.00" fill="#000000">app_event_list.h</text>
</a>
</g>
</g>
<!-- Node31&#45;&gt;Node33 -->
<g id="edge47" class="edge">
<title>Node31&#45;&gt;Node33</title>
<path fill="none" stroke="#191970" d="M1122.2647,-165.4054C1146.1963,-151.9594 1193.218,-126.5825 1235.3965,-110 1270.7239,-96.111 1312.0239,-84.1896 1343.1053,-76.0377"/>
<polygon fill="#191970" stroke="#191970" points="1344.0122,-79.4184 1352.8171,-73.5257 1342.2593,-72.6414 1344.0122,-79.4184"/>
</g>
<!-- Node33&#45;&gt;Node21 -->
<g id="edge48" class="edge">
<title>Node33&#45;&gt;Node21</title>
<path fill="none" stroke="#191970" d="M1396.8365,-55.4179C1402.2798,-47.7415 1410.2356,-36.5217 1416.9204,-27.0945"/>
<polygon fill="#191970" stroke="#191970" points="1419.8872,-28.9613 1422.8165,-18.7795 1414.1771,-24.9123 1419.8872,-28.9613"/>
</g>
</g>
</svg>
