<?xml version="1.0" encoding="UTF-8" standalone="no"?>
<!DOCTYPE svg PUBLIC "-//W3C//DTD SVG 1.1//EN"
 "http://www.w3.org/Graphics/SVG/1.1/DTD/svg11.dtd">
<!-- Generated by graphviz version 2.40.1 (20161225.0304)
 -->
<!-- Title: src/include/common.h Pages: 1 -->
<svg width="1603pt" height="82pt"
 viewBox="0.00 0.00 1603.35 82.00" xmlns="http://www.w3.org/2000/svg" xmlns:xlink="http://www.w3.org/1999/xlink">
<g id="graph0" class="graph" transform="scale(1 1) rotate(0) translate(4 78)">
<title>src/include/common.h</title>
<polygon fill="#ffffff" stroke="transparent" points="-4,4 -4,-78 1599.3472,-78 1599.3472,4 -4,4"/>
<!-- Node0 -->
<g id="node1" class="node">
<title>Node0</title>
<polygon fill="#bfbfbf" stroke="#000000" points="797.1011,-55.5 797.1011,-73.5 910.3618,-73.5 910.3618,-55.5 797.1011,-55.5"/>
<text text-anchor="middle" x="853.7314" y="-61.5" font-family="Helvetica,sans-Serif" font-size="10.00" fill="#000000">src/include/common.h</text>
</g>
<!-- Node1 -->
<g id="node2" class="node">
<title>Node1</title>
<polygon fill="#ffffff" stroke="#bfbfbf" points="0,-.5 0,-18.5 45.4629,-18.5 45.4629,-.5 0,-.5"/>
<text text-anchor="middle" x="22.7314" y="-6.5" font-family="Helvetica,sans-Serif" font-size="10.00" fill="#000000">stdio.h</text>
</g>
<!-- Node0&#45;&gt;Node1 -->
<g id="edge1" class="edge">
<title>Node0&#45;&gt;Node1</title>
<path fill="none" stroke="#191970" d="M796.9238,-63.0441C642.3556,-58.8064 215.616,-45.1966 55.7422,-18.9292"/>
<polygon fill="#191970" stroke="#191970" points="56.0526,-15.4311 45.6032,-17.1806 54.8629,-22.3293 56.0526,-15.4311"/>
</g>
<!-- Node2 -->
<g id="node3" class="node">
<title>Node2</title>
<polygon fill="#ffffff" stroke="#bfbfbf" points="63.2192,-.5 63.2192,-18.5 114.2437,-18.5 114.2437,-.5 63.2192,-.5"/>
<text text-anchor="middle" x="88.7314" y="-6.5" font-family="Helvetica,sans-Serif" font-size="10.00" fill="#000000">unistd.h</text>
</g>
<!-- Node0&#45;&gt;Node2 -->
<g id="edge2" class="edge">
<title>Node0&#45;&gt;Node2</title>
<path fill="none" stroke="#191970" d="M797.0984,-62.5166C652.386,-57.2076 270.7208,-41.6307 124.6932,-18.9741"/>
<polygon fill="#191970" stroke="#191970" points="125.0252,-15.4821 114.5929,-17.3306 123.9009,-22.3913 125.0252,-15.4821"/>
</g>
<!-- Node3 -->
<g id="node4" class="node">
<title>Node3</title>
<polygon fill="#ffffff" stroke="#bfbfbf" points="131.8892,-.5 131.8892,-18.5 179.5737,-18.5 179.5737,-.5 131.8892,-.5"/>
<text text-anchor="middle" x="155.7314" y="-6.5" font-family="Helvetica,sans-Serif" font-size="10.00" fill="#000000">stdlib.h</text>
</g>
<!-- Node0&#45;&gt;Node3 -->
<g id="edge3" class="edge">
<title>Node0&#45;&gt;Node3</title>
<path fill="none" stroke="#191970" d="M796.9538,-62.1645C661.7604,-56.3603 322.7792,-40.3135 189.7169,-18.7469"/>
<polygon fill="#191970" stroke="#191970" points="190.1891,-15.277 179.7437,-17.0501 189.015,-22.1778 190.1891,-15.277"/>
</g>
<!-- Node4 -->
<g id="node5" class="node">
<title>Node4</title>
<polygon fill="#ffffff" stroke="#bfbfbf" points="197.335,-.5 197.335,-18.5 246.1279,-18.5 246.1279,-.5 197.335,-.5"/>
<text text-anchor="middle" x="221.7314" y="-6.5" font-family="Helvetica,sans-Serif" font-size="10.00" fill="#000000">string.h</text>
</g>
<!-- Node0&#45;&gt;Node4 -->
<g id="edge4" class="edge">
<title>Node0&#45;&gt;Node4</title>
<path fill="none" stroke="#191970" d="M796.9506,-61.6726C671.9652,-55.2145 375.3258,-38.5448 256.4056,-18.9317"/>
<polygon fill="#191970" stroke="#191970" points="256.92,-15.4687 246.4691,-17.2095 255.7245,-22.3659 256.92,-15.4687"/>
</g>
<!-- Node5 -->
<g id="node6" class="node">
<title>Node5</title>
<polygon fill="#ffffff" stroke="#bfbfbf" points="263.665,-.5 263.665,-18.5 315.7979,-18.5 315.7979,-.5 263.665,-.5"/>
<text text-anchor="middle" x="289.7314" y="-6.5" font-family="Helvetica,sans-Serif" font-size="10.00" fill="#000000">stdarg.h</text>
</g>
<!-- Node0&#45;&gt;Node5 -->
<g id="edge5" class="edge">
<title>Node0&#45;&gt;Node5</title>
<path fill="none" stroke="#191970" d="M796.9291,-62.9493C701.3903,-59.6136 502.4734,-49.547 325.9757,-18.9283"/>
<polygon fill="#191970" stroke="#191970" points="326.4458,-15.4573 315.9903,-17.1696 325.2316,-22.3512 326.4458,-15.4573"/>
</g>
<!-- Node6 -->
<g id="node7" class="node">
<title>Node6</title>
<polygon fill="#ffffff" stroke="#bfbfbf" points="333.6108,-.5 333.6108,-18.5 381.8521,-18.5 381.8521,-.5 333.6108,-.5"/>
<text text-anchor="middle" x="357.7314" y="-6.5" font-family="Helvetica,sans-Serif" font-size="10.00" fill="#000000">stdint.h</text>
</g>
<!-- Node0&#45;&gt;Node6 -->
<g id="edge6" class="edge">
<title>Node0&#45;&gt;Node6</title>
<path fill="none" stroke="#191970" d="M796.9515,-62.2549C711.0528,-58.1273 542.929,-47.1957 392.0329,-18.9438"/>
<polygon fill="#191970" stroke="#191970" points="392.5976,-15.4886 382.1196,-17.0578 391.2892,-22.3652 392.5976,-15.4886"/>
</g>
<!-- Node7 -->
<g id="node8" class="node">
<title>Node7</title>
<polygon fill="#ffffff" stroke="#bfbfbf" points="399.6035,-.5 399.6035,-18.5 457.8594,-18.5 457.8594,-.5 399.6035,-.5"/>
<text text-anchor="middle" x="428.7314" y="-6.5" font-family="Helvetica,sans-Serif" font-size="10.00" fill="#000000">pthread.h</text>
</g>
<!-- Node0&#45;&gt;Node7 -->
<g id="edge7" class="edge">
<title>Node0&#45;&gt;Node7</title>
<path fill="none" stroke="#191970" d="M796.9935,-60.118C723.2668,-53.9167 590.4238,-41.0158 468.0284,-19.044"/>
<polygon fill="#191970" stroke="#191970" points="468.574,-15.5859 458.1089,-17.2389 467.3207,-22.4728 468.574,-15.5859"/>
</g>
<!-- Node8 -->
<g id="node9" class="node">
<title>Node8</title>
<polygon fill="#ffffff" stroke="#bfbfbf" points="475.6108,-.5 475.6108,-18.5 523.8521,-18.5 523.8521,-.5 475.6108,-.5"/>
<text text-anchor="middle" x="499.7314" y="-6.5" font-family="Helvetica,sans-Serif" font-size="10.00" fill="#000000">ctype.h</text>
</g>
<!-- Node0&#45;&gt;Node8 -->
<g id="edge8" class="edge">
<title>Node0&#45;&gt;Node8</title>
<path fill="none" stroke="#191970" d="M797.0659,-58.8867C734.7387,-52.1729 631.5166,-39.4667 534.1525,-19.0678"/>
<polygon fill="#191970" stroke="#191970" points="534.6531,-15.596 524.1437,-16.9388 533.1967,-22.4428 534.6531,-15.596"/>
</g>
<!-- Node9 -->
<g id="node10" class="node">
<title>Node9</title>
<polygon fill="#ffffff" stroke="#bfbfbf" points="541.8892,-.5 541.8892,-18.5 589.5737,-18.5 589.5737,-.5 541.8892,-.5"/>
<text text-anchor="middle" x="565.7314" y="-6.5" font-family="Helvetica,sans-Serif" font-size="10.00" fill="#000000">errno.h</text>
</g>
<!-- Node0&#45;&gt;Node9 -->
<g id="edge9" class="edge">
<title>Node0&#45;&gt;Node9</title>
<path fill="none" stroke="#191970" d="M796.9212,-56.2841C747.0336,-48.6443 672.3574,-36.1809 599.558,-19.2578"/>
<polygon fill="#191970" stroke="#191970" points="600.3022,-15.8374 589.7661,-16.9514 598.6973,-22.6509 600.3022,-15.8374"/>
</g>
<!-- Node10 -->
<g id="node11" class="node">
<title>Node10</title>
<polygon fill="#ffffff" stroke="#bfbfbf" points="607.1035,-.5 607.1035,-18.5 670.3594,-18.5 670.3594,-.5 607.1035,-.5"/>
<text text-anchor="middle" x="638.7314" y="-6.5" font-family="Helvetica,sans-Serif" font-size="10.00" fill="#000000">arpa/inet.h</text>
</g>
<!-- Node0&#45;&gt;Node10 -->
<g id="edge10" class="edge">
<title>Node0&#45;&gt;Node10</title>
<path fill="none" stroke="#191970" d="M818.2286,-55.4179C780.2952,-45.714 720.2264,-30.3475 680.1599,-20.098"/>
<polygon fill="#191970" stroke="#191970" points="680.9856,-16.6966 670.4302,-17.609 679.2507,-23.4782 680.9856,-16.6966"/>
</g>
<!-- Node11 -->
<g id="node12" class="node">
<title>Node11</title>
<polygon fill="#ffffff" stroke="#bfbfbf" points="688.2686,-.5 688.2686,-18.5 753.1943,-18.5 753.1943,-.5 688.2686,-.5"/>
<text text-anchor="middle" x="720.7314" y="-6.5" font-family="Helvetica,sans-Serif" font-size="10.00" fill="#000000">netinet/in.h</text>
</g>
<!-- Node0&#45;&gt;Node11 -->
<g id="edge11" class="edge">
<title>Node0&#45;&gt;Node11</title>
<path fill="none" stroke="#191970" d="M831.7692,-55.4179C810.0143,-46.4215 776.49,-32.5581 751.9675,-22.4172"/>
<polygon fill="#191970" stroke="#191970" points="753.3049,-19.1828 742.7263,-18.5956 750.6298,-25.6515 753.3049,-19.1828"/>
</g>
<!-- Node12 -->
<g id="node13" class="node">
<title>Node12</title>
<polygon fill="#ffffff" stroke="#bfbfbf" points="770.8745,-.5 770.8745,-18.5 848.5884,-18.5 848.5884,-.5 770.8745,-.5"/>
<text text-anchor="middle" x="809.7314" y="-6.5" font-family="Helvetica,sans-Serif" font-size="10.00" fill="#000000">net/ethernet.h</text>
</g>
<!-- Node0&#45;&gt;Node12 -->
<g id="edge12" class="edge">
<title>Node0&#45;&gt;Node12</title>
<path fill="none" stroke="#191970" d="M846.4657,-55.4179C840.2614,-47.6624 831.1634,-36.29 823.5742,-26.8035"/>
<polygon fill="#191970" stroke="#191970" points="826.135,-24.4017 817.155,-18.7795 820.6689,-28.7746 826.135,-24.4017"/>
</g>
<!-- Node13 -->
<g id="node14" class="node">
<title>Node13</title>
<polygon fill="#ffffff" stroke="#bfbfbf" points="866.2686,-.5 866.2686,-18.5 931.1943,-18.5 931.1943,-.5 866.2686,-.5"/>
<text text-anchor="middle" x="898.7314" y="-6.5" font-family="Helvetica,sans-Serif" font-size="10.00" fill="#000000">netinet/ip.h</text>
</g>
<!-- Node0&#45;&gt;Node13 -->
<g id="edge13" class="edge">
<title>Node0&#45;&gt;Node13</title>
<path fill="none" stroke="#191970" d="M861.1623,-55.4179C867.5077,-47.6624 876.8124,-36.29 884.574,-26.8035"/>
<polygon fill="#191970" stroke="#191970" points="887.5156,-28.7354 891.1392,-18.7795 882.0979,-24.3027 887.5156,-28.7354"/>
</g>
<!-- Node14 -->
<g id="node15" class="node">
<title>Node14</title>
<polygon fill="#ffffff" stroke="#bfbfbf" points="949.4902,-.5 949.4902,-18.5 1019.9727,-18.5 1019.9727,-.5 949.4902,-.5"/>
<text text-anchor="middle" x="984.7314" y="-6.5" font-family="Helvetica,sans-Serif" font-size="10.00" fill="#000000">netinet/tcp.h</text>
</g>
<!-- Node0&#45;&gt;Node14 -->
<g id="edge14" class="edge">
<title>Node0&#45;&gt;Node14</title>
<path fill="none" stroke="#191970" d="M875.3634,-55.4179C896.6964,-46.4613 929.5194,-32.6806 953.644,-22.552"/>
<polygon fill="#191970" stroke="#191970" points="955.2019,-25.6939 963.0673,-18.5956 952.4921,-19.2397 955.2019,-25.6939"/>
</g>
<!-- Node15 -->
<g id="node16" class="node">
<title>Node15</title>
<polygon fill="#ffffff" stroke="#bfbfbf" points="1037.9312,-.5 1037.9312,-18.5 1129.5317,-18.5 1129.5317,-.5 1037.9312,-.5"/>
<text text-anchor="middle" x="1083.7314" y="-6.5" font-family="Helvetica,sans-Serif" font-size="10.00" fill="#000000">netinet/ip_icmp.h</text>
</g>
<!-- Node0&#45;&gt;Node15 -->
<g id="edge15" class="edge">
<title>Node0&#45;&gt;Node15</title>
<path fill="none" stroke="#191970" d="M891.4537,-55.4795C930.9782,-46.0279 993.1696,-31.1561 1036.0655,-20.8984"/>
<polygon fill="#191970" stroke="#191970" points="1037.0768,-24.2553 1045.9886,-18.5255 1035.4487,-17.4473 1037.0768,-24.2553"/>
</g>
<!-- Node16 -->
<g id="node17" class="node">
<title>Node16</title>
<polygon fill="#ffffff" stroke="#bfbfbf" points="1147.3276,-.5 1147.3276,-18.5 1206.1353,-18.5 1206.1353,-.5 1147.3276,-.5"/>
<text text-anchor="middle" x="1176.7314" y="-6.5" font-family="Helvetica,sans-Serif" font-size="10.00" fill="#000000">jansson.h</text>
</g>
<!-- Node0&#45;&gt;Node16 -->
<g id="edge16" class="edge">
<title>Node0&#45;&gt;Node16</title>
<path fill="none" stroke="#191970" d="M910.5008,-56.9151C966.0103,-49.1656 1053.1166,-36.1227 1136.9733,-19.2369"/>
<polygon fill="#191970" stroke="#191970" points="1137.8154,-22.6373 1146.9165,-17.2132 1136.4193,-15.7779 1137.8154,-22.6373"/>
</g>
<!-- Node17 -->
<g id="node18" class="node">
<title>Node17</title>
<polygon fill="#ffffff" stroke="#bfbfbf" points="1223.8374,-.5 1223.8374,-18.5 1267.6255,-18.5 1267.6255,-.5 1223.8374,-.5"/>
<text text-anchor="middle" x="1245.7314" y="-6.5" font-family="Helvetica,sans-Serif" font-size="10.00" fill="#000000">libcli.h</text>
</g>
<!-- Node0&#45;&gt;Node17 -->
<g id="edge17" class="edge">
<title>Node0&#45;&gt;Node17</title>
<path fill="none" stroke="#191970" d="M910.5138,-60.3812C980.0286,-54.6654 1101.3803,-42.5093 1213.7043,-18.9065"/>
<polygon fill="#191970" stroke="#191970" points="1214.453,-22.3256 1223.501,-16.8134 1212.9905,-15.4801 1214.453,-22.3256"/>
</g>
<!-- Node18 -->
<g id="node19" class="node">
<title>Node18</title>
<polygon fill="#ffffff" stroke="#bfbfbf" points="1286.1157,-.5 1286.1157,-18.5 1329.3472,-18.5 1329.3472,-.5 1286.1157,-.5"/>
<text text-anchor="middle" x="1307.7314" y="-6.5" font-family="Helvetica,sans-Serif" font-size="10.00" fill="#000000">zmq.h</text>
</g>
<!-- Node0&#45;&gt;Node18 -->
<g id="edge18" class="edge">
<title>Node0&#45;&gt;Node18</title>
<path fill="none" stroke="#191970" d="M910.3644,-61.8355C990.0183,-57.3348 1139.6807,-46.1243 1275.6673,-18.8478"/>
<polygon fill="#191970" stroke="#191970" points="1276.7514,-22.1988 1285.8494,-16.7697 1275.3515,-15.3402 1276.7514,-22.1988"/>
</g>
<!-- Node19 -->
<g id="node20" class="node">
<title>Node19</title>
<g id="a_node20"><a xlink:href="mac2int_8h.html" target="_top" xlink:title="mac2int.h">
<polygon fill="#ffffff" stroke="#000000" points="1347.0542,-.5 1347.0542,-18.5 1406.4087,-18.5 1406.4087,-.5 1347.0542,-.5"/>
<text text-anchor="middle" x="1376.7314" y="-6.5" font-family="Helvetica,sans-Serif" font-size="10.00" fill="#000000">mac2int.h</text>
</a>
</g>
</g>
<!-- Node0&#45;&gt;Node19 -->
<g id="edge19" class="edge">
<title>Node0&#45;&gt;Node19</title>
<path fill="none" stroke="#191970" d="M910.6677,-61.6512C1000.3643,-56.7537 1179.4704,-44.6788 1329.7314,-19 1332.0503,-18.6037 1334.4363,-18.1411 1336.8513,-17.6372"/>
<polygon fill="#191970" stroke="#191970" points="1337.8509,-21.0001 1346.8437,-15.3985 1336.3204,-14.1694 1337.8509,-21.0001"/>
</g>
<!-- Node20 -->
<g id="node21" class="node">
<title>Node20</title>
<g id="a_node21"><a xlink:href="ip2int_8h.html" target="_top" xlink:title="ip2int.h">
<polygon fill="#ffffff" stroke="#000000" points="1424.6084,-.5 1424.6084,-18.5 1472.8545,-18.5 1472.8545,-.5 1424.6084,-.5"/>
<text text-anchor="middle" x="1448.7314" y="-6.5" font-family="Helvetica,sans-Serif" font-size="10.00" fill="#000000">ip2int.h</text>
</a>
</g>
</g>
<!-- Node0&#45;&gt;Node20 -->
<g id="edge21" class="edge">
<title>Node0&#45;&gt;Node20</title>
<path fill="none" stroke="#191970" d="M910.6802,-63.4983C1011.5234,-60.9231 1227.3771,-51.7375 1406.7314,-19 1409.1947,-18.5504 1411.738,-17.9926 1414.3084,-17.3742"/>
<polygon fill="#191970" stroke="#191970" points="1415.4485,-20.6942 1424.2455,-14.7898 1413.6865,-13.9196 1415.4485,-20.6942"/>
</g>
<!-- Node21 -->
<g id="node22" class="node">
<title>Node21</title>
<g id="a_node22"><a xlink:href="src_2include_2type_8h.html" target="_top" xlink:title="type.h">
<polygon fill="#ffffff" stroke="#000000" points="1491.1108,-.5 1491.1108,-18.5 1534.3521,-18.5 1534.3521,-.5 1491.1108,-.5"/>
<text text-anchor="middle" x="1512.7314" y="-6.5" font-family="Helvetica,sans-Serif" font-size="10.00" fill="#000000">type.h</text>
</a>
</g>
</g>
<!-- Node0&#45;&gt;Node21 -->
<g id="edge23" class="edge">
<title>Node0&#45;&gt;Node21</title>
<path fill="none" stroke="#191970" d="M910.7892,-62.0118C1040.4831,-56.0973 1355.2285,-40.218 1480.7401,-18.6952"/>
<polygon fill="#191970" stroke="#191970" points="1481.6494,-22.0877 1490.8685,-16.8667 1480.4057,-15.199 1481.6494,-22.0877"/>
</g>
<!-- Node22 -->
<g id="node23" class="node">
<title>Node22</title>
<polygon fill="#ffffff" stroke="#bfbfbf" points="1552.1157,-.5 1552.1157,-18.5 1595.3472,-18.5 1595.3472,-.5 1552.1157,-.5"/>
<text text-anchor="middle" x="1573.7314" y="-6.5" font-family="Helvetica,sans-Serif" font-size="10.00" fill="#000000">time.h</text>
</g>
<!-- Node0&#45;&gt;Node22 -->
<g id="edge24" class="edge">
<title>Node0&#45;&gt;Node22</title>
<path fill="none" stroke="#191970" d="M910.5769,-62.5153C1049.6083,-57.3848 1404.8895,-42.537 1542.0514,-18.8654"/>
<polygon fill="#191970" stroke="#191970" points="1542.7182,-22.3017 1551.9322,-17.0717 1541.4678,-15.4142 1542.7182,-22.3017"/>
</g>
<!-- Node19&#45;&gt;Node0 -->
<g id="edge20" class="edge">
<title>Node19&#45;&gt;Node0</title>
<path fill="none" stroke="#191970" d="M1350.1654,-18.5647C1349.3483,-18.7171 1348.5358,-18.8625 1347.7314,-19 1196.5196,-44.8413 1016.0964,-56.906 920.5725,-61.7433"/>
<polygon fill="#191970" stroke="#191970" points="920.2888,-58.253 910.4743,-62.2436 920.6352,-65.2444 920.2888,-58.253"/>
</g>
<!-- Node20&#45;&gt;Node0 -->
<g id="edge22" class="edge">
<title>Node20&#45;&gt;Node0</title>
<path fill="none" stroke="#191970" d="M1427.2165,-18.5161C1426.3825,-18.6882 1425.5525,-18.8501 1424.7314,-19 1244.6849,-51.8638 1027.8568,-60.9937 920.5056,-63.5278"/>
<polygon fill="#191970" stroke="#191970" points="920.3824,-60.0296 910.4634,-63.7531 920.5394,-67.0279 920.3824,-60.0296"/>
</g>
</g>
</svg>
