<?xml version="1.0" encoding="UTF-8" standalone="no"?>
<!DOCTYPE svg PUBLIC "-//W3C//DTD SVG 1.1//EN"
 "http://www.w3.org/Graphics/SVG/1.1/DTD/svg11.dtd">
<!-- Generated by graphviz version 2.40.1 (20161225.0304)
 -->
<!-- Title: src/include/common.h Pages: 1 -->
<svg width="4021pt" height="277pt"
 viewBox="0.00 0.00 4020.61 277.00" xmlns="http://www.w3.org/2000/svg" xmlns:xlink="http://www.w3.org/1999/xlink">
<g id="graph0" class="graph" transform="scale(1 1) rotate(0) translate(4 273)">
<title>src/include/common.h</title>
<polygon fill="#ffffff" stroke="transparent" points="-4,4 -4,-273 4016.6104,-273 4016.6104,4 -4,4"/>
<!-- Node35 -->
<g id="node1" class="node">
<title>Node35</title>
<polygon fill="#bfbfbf" stroke="#000000" points="2414.0098,-250.5 2414.0098,-268.5 2527.2705,-268.5 2527.2705,-250.5 2414.0098,-250.5"/>
<text text-anchor="middle" x="2470.6401" y="-256.5" font-family="Helvetica,sans-Serif" font-size="10.00" fill="#000000">src/include/common.h</text>
</g>
<!-- Node36 -->
<g id="node2" class="node">
<title>Node36</title>
<g id="a_node2"><a xlink:href="app__events_2include_2app__event_8h.html" target="_top" xlink:title="app_events/include\l/app_event.h">
<polygon fill="#ffffff" stroke="#000000" points="726.5518,-130.5 726.5518,-158.5 828.7285,-158.5 828.7285,-130.5 726.5518,-130.5"/>
<text text-anchor="start" x="734.5518" y="-146.5" font-family="Helvetica,sans-Serif" font-size="10.00" fill="#000000">app_events/include</text>
<text text-anchor="middle" x="777.6401" y="-136.5" font-family="Helvetica,sans-Serif" font-size="10.00" fill="#000000">/app_event.h</text>
</a>
</g>
</g>
<!-- Node35&#45;&gt;Node36 -->
<g id="edge1" class="edge">
<title>Node35&#45;&gt;Node36</title>
<path fill="none" stroke="#191970" d="M2403.7345,-258.9463C2133.8181,-256.5071 1132.862,-245.4088 994.6401,-214 974.2659,-209.3703 971.2723,-202.15 951.6401,-195 911.001,-180.1993 863.8205,-166.7292 828.8494,-157.4302"/>
<polygon fill="#191970" stroke="#191970" points="2403.7498,-262.4465 2413.7807,-259.0361 2403.8125,-255.4468 2403.7498,-262.4465"/>
</g>
<!-- Node38 -->
<g id="node4" class="node">
<title>Node38</title>
<g id="a_node4"><a xlink:href="applications_2include_2l2__learning_8h.html" target="_top" xlink:title="applications/include\l/l2_learning.h">
<polygon fill="#ffffff" stroke="#000000" points="909,-65.5 909,-93.5 1012.2803,-93.5 1012.2803,-65.5 909,-65.5"/>
<text text-anchor="start" x="917" y="-81.5" font-family="Helvetica,sans-Serif" font-size="10.00" fill="#000000">applications/include</text>
<text text-anchor="middle" x="960.6401" y="-71.5" font-family="Helvetica,sans-Serif" font-size="10.00" fill="#000000">/l2_learning.h</text>
</a>
</g>
</g>
<!-- Node35&#45;&gt;Node38 -->
<g id="edge64" class="edge">
<title>Node35&#45;&gt;Node38</title>
<path fill="none" stroke="#191970" d="M2403.6164,-258.728C2134.7749,-255.448 1146.1347,-241.5551 1085.6401,-214 1028.7801,-188.1004 985.7143,-123.0182 968.6506,-93.9335"/>
<polygon fill="#191970" stroke="#191970" points="2403.9603,-262.2324 2414.002,-258.8538 2404.0451,-255.2329 2403.9603,-262.2324"/>
</g>
<!-- Node39 -->
<g id="node5" class="node">
<title>Node39</title>
<g id="a_node5"><a xlink:href="applications_2include_2rbac_8h.html" target="_top" xlink:title="applications/include\l/rbac.h">
<polygon fill="#ffffff" stroke="#000000" points="0,-65.5 0,-93.5 103.2803,-93.5 103.2803,-65.5 0,-65.5"/>
<text text-anchor="start" x="8" y="-81.5" font-family="Helvetica,sans-Serif" font-size="10.00" fill="#000000">applications/include</text>
<text text-anchor="middle" x="51.6401" y="-71.5" font-family="Helvetica,sans-Serif" font-size="10.00" fill="#000000">/rbac.h</text>
</a>
</g>
</g>
<!-- Node35&#45;&gt;Node39 -->
<g id="edge65" class="edge">
<title>Node35&#45;&gt;Node39</title>
<path fill="none" stroke="#191970" d="M2403.6755,-258.6964C2084.7434,-254.7646 727.4511,-236.8177 539.6401,-214 366.2512,-192.9345 167.9492,-123.5088 87.927,-93.5106"/>
<polygon fill="#191970" stroke="#191970" points="2403.6528,-262.1963 2413.6951,-258.8195 2403.7389,-255.1968 2403.6528,-262.1963"/>
</g>
<!-- Node43 -->
<g id="node9" class="node">
<title>Node43</title>
<g id="a_node9"><a xlink:href="ext__apps_2l2__learning_2src_2include_2l2__learning_8h.html" target="_top" xlink:title="ext_apps/l2_learning\l/src/include/l2_learning.h">
<polygon fill="#ffffff" stroke="#ff0000" points="1030.3301,-65.5 1030.3301,-93.5 1156.9502,-93.5 1156.9502,-65.5 1030.3301,-65.5"/>
<text text-anchor="start" x="1038.3301" y="-81.5" font-family="Helvetica,sans-Serif" font-size="10.00" fill="#000000">ext_apps/l2_learning</text>
<text text-anchor="middle" x="1093.6401" y="-71.5" font-family="Helvetica,sans-Serif" font-size="10.00" fill="#000000">/src/include/l2_learning.h</text>
</a>
</g>
</g>
<!-- Node35&#45;&gt;Node43 -->
<g id="edge84" class="edge">
<title>Node35&#45;&gt;Node43</title>
<path fill="none" stroke="#191970" d="M2403.7867,-258.4783C2132.5299,-254.1831 1127.3455,-236.7541 1103.6401,-214 1070.8688,-182.5436 1082.0237,-121.5227 1089.3491,-93.8107"/>
<polygon fill="#191970" stroke="#191970" points="2403.829,-261.9793 2413.8829,-258.6375 2403.9394,-254.9802 2403.829,-261.9793"/>
</g>
<!-- Node46 -->
<g id="node10" class="node">
<title>Node46</title>
<g id="a_node10"><a xlink:href="ext__apps_2rbac_2src_2include_2rbac_8h.html" target="_top" xlink:title="ext_apps/rbac/src/include\l/rbac.h">
<polygon fill="#ffffff" stroke="#ff0000" points="120.9434,-65.5 120.9434,-93.5 250.3369,-93.5 250.3369,-65.5 120.9434,-65.5"/>
<text text-anchor="start" x="128.9434" y="-81.5" font-family="Helvetica,sans-Serif" font-size="10.00" fill="#000000">ext_apps/rbac/src/include</text>
<text text-anchor="middle" x="185.6401" y="-71.5" font-family="Helvetica,sans-Serif" font-size="10.00" fill="#000000">/rbac.h</text>
</a>
</g>
</g>
<!-- Node35&#45;&gt;Node46 -->
<g id="edge85" class="edge">
<title>Node35&#45;&gt;Node46</title>
<path fill="none" stroke="#191970" d="M2403.4166,-258.7362C2128.628,-255.4552 1089.8672,-241.4609 762.6401,-214 589.0819,-199.435 542.5222,-205.3707 374.6401,-159 314.7651,-142.4619 248.7008,-111.5315 212.7049,-93.5137"/>
<polygon fill="#191970" stroke="#191970" points="2403.5938,-262.2385 2413.6346,-258.8575 2403.6769,-255.239 2403.5938,-262.2385"/>
</g>
<!-- Node51 -->
<g id="node13" class="node">
<title>Node51</title>
<g id="a_node13"><a xlink:href="main_8c.html" target="_top" xlink:title="src/main.c">
<polygon fill="#ffffff" stroke="#000000" points="1505.8594,-5.5 1505.8594,-23.5 1567.4209,-23.5 1567.4209,-5.5 1505.8594,-5.5"/>
<text text-anchor="middle" x="1536.6401" y="-11.5" font-family="Helvetica,sans-Serif" font-size="10.00" fill="#000000">src/main.c</text>
</a>
</g>
</g>
<!-- Node35&#45;&gt;Node51 -->
<g id="edge89" class="edge">
<title>Node35&#45;&gt;Node51</title>
<path fill="none" stroke="#191970" d="M2537.7969,-256.6649C2617.2515,-252.1943 2753.0849,-241.0311 2866.6401,-214 2971.6964,-188.9921 2988.9025,-151.9496 3094.6401,-130 3234.1771,-101.0342 3832.246,-166.9228 3732.6401,-65 3693.0134,-24.4516 1830.978,-15.656 1567.5095,-14.6138"/>
<polygon fill="#191970" stroke="#191970" points="2537.2382,-253.19 2527.4429,-257.2274 2537.618,-260.1797 2537.2382,-253.19"/>
</g>
<!-- Node52 -->
<g id="node14" class="node">
<title>Node52</title>
<g id="a_node14"><a xlink:href="src_2include_2context_8h.html" target="_top" xlink:title="src/include/context.h">
<polygon fill="#ffffff" stroke="#000000" points="1591.0615,-195.5 1591.0615,-213.5 1698.2188,-213.5 1698.2188,-195.5 1591.0615,-195.5"/>
<text text-anchor="middle" x="1644.6401" y="-201.5" font-family="Helvetica,sans-Serif" font-size="10.00" fill="#000000">src/include/context.h</text>
</a>
</g>
</g>
<!-- Node35&#45;&gt;Node52 -->
<g id="edge13" class="edge">
<title>Node35&#45;&gt;Node52</title>
<path fill="none" stroke="#191970" d="M2403.7047,-255.043C2244.072,-244.4137 1843.5236,-217.7428 1698.2954,-208.0727"/>
<polygon fill="#191970" stroke="#191970" points="2403.6553,-258.5474 2413.8658,-255.7196 2404.1205,-251.5629 2403.6553,-258.5474"/>
</g>
<!-- Node53 -->
<g id="node15" class="node">
<title>Node53</title>
<g id="a_node15"><a xlink:href="src_2include_2application_8h.html" target="_top" xlink:title="src/include/application.h">
<polygon fill="#ffffff" stroke="#000000" points="560.2759,-135.5 560.2759,-153.5 683.0044,-153.5 683.0044,-135.5 560.2759,-135.5"/>
<text text-anchor="middle" x="621.6401" y="-141.5" font-family="Helvetica,sans-Serif" font-size="10.00" fill="#000000">src/include/application.h</text>
</a>
</g>
</g>
<!-- Node35&#45;&gt;Node53 -->
<g id="edge63" class="edge">
<title>Node35&#45;&gt;Node53</title>
<path fill="none" stroke="#191970" d="M2403.5272,-258.6761C2117.0716,-255.0154 1004.3658,-239.2823 849.6401,-214 772.2486,-201.3542 684.5009,-169.3478 644.1355,-153.5728"/>
<polygon fill="#191970" stroke="#191970" points="2403.7215,-262.1787 2413.7652,-258.8063 2403.8105,-255.1793 2403.7215,-262.1787"/>
</g>
<!-- Node54 -->
<g id="node16" class="node">
<title>Node54</title>
<g id="a_node16"><a xlink:href="events_2include_2event_8h.html" target="_top" xlink:title="events/include/event.h">
<polygon fill="#ffffff" stroke="#000000" points="2555.8843,-135.5 2555.8843,-153.5 2671.396,-153.5 2671.396,-135.5 2555.8843,-135.5"/>
<text text-anchor="middle" x="2613.6401" y="-141.5" font-family="Helvetica,sans-Serif" font-size="10.00" fill="#000000">events/include/event.h</text>
</a>
</g>
</g>
<!-- Node35&#45;&gt;Node54 -->
<g id="edge67" class="edge">
<title>Node35&#45;&gt;Node54</title>
<path fill="none" stroke="#191970" d="M2495.3949,-245.2954C2509.424,-236.8434 2527.0357,-225.5424 2541.6401,-214 2566.4475,-194.3938 2592.373,-167.5376 2605.2884,-153.6496"/>
<polygon fill="#191970" stroke="#191970" points="2493.5792,-242.3029 2486.7607,-250.412 2497.148,-248.3249 2493.5792,-242.3029"/>
</g>
<!-- Node55 -->
<g id="node17" class="node">
<title>Node55</title>
<g id="a_node17"><a xlink:href="apphdlr_8h.html" target="_top" xlink:title="components/include\l/apphdlr.h">
<polygon fill="#ffffff" stroke="#000000" points="2169.1675,-65.5 2169.1675,-93.5 2274.1128,-93.5 2274.1128,-65.5 2169.1675,-65.5"/>
<text text-anchor="start" x="2177.1675" y="-81.5" font-family="Helvetica,sans-Serif" font-size="10.00" fill="#000000">components/include</text>
<text text-anchor="middle" x="2221.6401" y="-71.5" font-family="Helvetica,sans-Serif" font-size="10.00" fill="#000000">/apphdlr.h</text>
</a>
</g>
</g>
<!-- Node35&#45;&gt;Node55 -->
<g id="edge66" class="edge">
<title>Node35&#45;&gt;Node55</title>
<path fill="none" stroke="#191970" d="M2442.2596,-245.9491C2406.8893,-228.399 2345.4051,-195.677 2298.6401,-159 2272.9373,-138.8417 2247.4156,-110.3983 2233.169,-93.5628"/>
<polygon fill="#191970" stroke="#191970" points="2440.9901,-249.2248 2451.5094,-250.4875 2444.0735,-242.9405 2440.9901,-249.2248"/>
</g>
<!-- Node56 -->
<g id="node18" class="node">
<title>Node56</title>
<g id="a_node18"><a xlink:href="cac_8h.html" target="_top" xlink:title="components/include\l/cac.h">
<polygon fill="#ffffff" stroke="#000000" points="1175.1675,-65.5 1175.1675,-93.5 1280.1128,-93.5 1280.1128,-65.5 1175.1675,-65.5"/>
<text text-anchor="start" x="1183.1675" y="-81.5" font-family="Helvetica,sans-Serif" font-size="10.00" fill="#000000">components/include</text>
<text text-anchor="middle" x="1227.6401" y="-71.5" font-family="Helvetica,sans-Serif" font-size="10.00" fill="#000000">/cac.h</text>
</a>
</g>
</g>
<!-- Node35&#45;&gt;Node56 -->
<g id="edge68" class="edge">
<title>Node35&#45;&gt;Node56</title>
<path fill="none" stroke="#191970" d="M2403.5298,-258.2875C2166.208,-253.8097 1378.202,-237.2521 1329.6401,-214 1277.5686,-189.0674 1245.2362,-122.8597 1233.0988,-93.6663"/>
<polygon fill="#191970" stroke="#191970" points="2403.6807,-261.7908 2413.7447,-258.4791 2403.8121,-254.792 2403.6807,-261.7908"/>
</g>
<!-- Node58 -->
<g id="node20" class="node">
<title>Node58</title>
<g id="a_node20"><a xlink:href="channel__mgmt_8h.html" target="_top" xlink:title="components/include\l/channel_mgmt.h">
<polygon fill="#ffffff" stroke="#000000" points="3004.1675,-65.5 3004.1675,-93.5 3109.1128,-93.5 3109.1128,-65.5 3004.1675,-65.5"/>
<text text-anchor="start" x="3012.1675" y="-81.5" font-family="Helvetica,sans-Serif" font-size="10.00" fill="#000000">components/include</text>
<text text-anchor="middle" x="3056.6401" y="-71.5" font-family="Helvetica,sans-Serif" font-size="10.00" fill="#000000">/channel_mgmt.h</text>
</a>
</g>
</g>
<!-- Node35&#45;&gt;Node58 -->
<g id="edge69" class="edge">
<title>Node35&#45;&gt;Node58</title>
<path fill="none" stroke="#191970" d="M2535.2763,-248.5069C2571.7292,-241.1262 2617.6431,-229.8257 2656.6401,-214 2665.1776,-210.5353 2791.0069,-133.2184 2799.6401,-130 2882.2197,-99.2148 2908.375,-112.0399 2994.6401,-94 2997.6698,-93.3664 3000.7784,-92.698 3003.9125,-92.0099"/>
<polygon fill="#191970" stroke="#191970" points="2534.3915,-245.114 2525.2592,-250.4852 2535.7478,-251.9813 2534.3915,-245.114"/>
</g>
<!-- Node60 -->
<g id="node22" class="node">
<title>Node60</title>
<g id="a_node22"><a xlink:href="cluster_8h.html" target="_top" xlink:title="components/include\l/cluster.h">
<polygon fill="#ffffff" stroke="#000000" points="3902.1675,-65.5 3902.1675,-93.5 4007.1128,-93.5 4007.1128,-65.5 3902.1675,-65.5"/>
<text text-anchor="start" x="3910.1675" y="-81.5" font-family="Helvetica,sans-Serif" font-size="10.00" fill="#000000">components/include</text>
<text text-anchor="middle" x="3954.6401" y="-71.5" font-family="Helvetica,sans-Serif" font-size="10.00" fill="#000000">/cluster.h</text>
</a>
</g>
</g>
<!-- Node35&#45;&gt;Node60 -->
<g id="edge70" class="edge">
<title>Node35&#45;&gt;Node60</title>
<path fill="none" stroke="#191970" d="M2537.7132,-258.6364C2691.4798,-256.1083 3065.4857,-246.6913 3186.6401,-214 3204.8705,-209.0809 3206.6398,-200.7036 3224.6401,-195 3510.8776,-104.3021 3597.7748,-150.6783 3892.6401,-94 3895.6797,-93.4157 3898.7961,-92.7858 3901.9361,-92.1272"/>
<polygon fill="#191970" stroke="#191970" points="2537.4113,-255.1407 2527.4685,-258.7999 2537.5231,-262.1398 2537.4113,-255.1407"/>
</g>
<!-- Node62 -->
<g id="node24" class="node">
<title>Node62</title>
<g id="a_node24"><a xlink:href="conflict_8h.html" target="_top" xlink:title="components/include\l/conflict.h">
<polygon fill="#ffffff" stroke="#000000" points="3779.1675,-65.5 3779.1675,-93.5 3884.1128,-93.5 3884.1128,-65.5 3779.1675,-65.5"/>
<text text-anchor="start" x="3787.1675" y="-81.5" font-family="Helvetica,sans-Serif" font-size="10.00" fill="#000000">components/include</text>
<text text-anchor="middle" x="3831.6401" y="-71.5" font-family="Helvetica,sans-Serif" font-size="10.00" fill="#000000">/conflict.h</text>
</a>
</g>
</g>
<!-- Node35&#45;&gt;Node62 -->
<g id="edge71" class="edge">
<title>Node35&#45;&gt;Node62</title>
<path fill="none" stroke="#191970" d="M2537.7335,-257.8992C2663.6217,-254.2422 2930.4094,-243.2129 3017.6401,-214 3083.9349,-191.7984 3084.0782,-151.3872 3150.6401,-130 3280.9778,-88.1209 3630.0291,-112.7463 3765.6401,-94 3769.9399,-93.4056 3774.3755,-92.6801 3778.8178,-91.8739"/>
<polygon fill="#191970" stroke="#191970" points="2537.3545,-254.4085 2527.4576,-258.1904 2537.5528,-261.4057 2537.3545,-254.4085"/>
</g>
<!-- Node64 -->
<g id="node26" class="node">
<title>Node64</title>
<g id="a_node26"><a xlink:href="conn_8h.html" target="_top" xlink:title="components/include\l/conn.h">
<polygon fill="#ffffff" stroke="#ff0000" points="3127.1675,-65.5 3127.1675,-93.5 3232.1128,-93.5 3232.1128,-65.5 3127.1675,-65.5"/>
<text text-anchor="start" x="3135.1675" y="-81.5" font-family="Helvetica,sans-Serif" font-size="10.00" fill="#000000">components/include</text>
<text text-anchor="middle" x="3179.6401" y="-71.5" font-family="Helvetica,sans-Serif" font-size="10.00" fill="#000000">/conn.h</text>
</a>
</g>
</g>
<!-- Node35&#45;&gt;Node64 -->
<g id="edge72" class="edge">
<title>Node35&#45;&gt;Node64</title>
<path fill="none" stroke="#191970" d="M2537.6299,-250.3145C2580.7488,-243.1941 2637.5205,-231.5381 2685.6401,-214 2734.3981,-196.2293 2743.4103,-184.4441 2788.6401,-159 2810.6958,-146.5926 2813.7089,-138.2274 2837.6401,-130 2956.2928,-89.2083 2994.1717,-116.3152 3117.6401,-94 3120.686,-93.4495 3123.8073,-92.846 3126.9511,-92.2076"/>
<polygon fill="#191970" stroke="#191970" points="2536.8506,-246.8948 2527.5343,-251.9403 2537.9636,-253.8058 2536.8506,-246.8948"/>
</g>
<!-- Node66 -->
<g id="node27" class="node">
<title>Node66</title>
<g id="a_node27"><a xlink:href="dit_8h.html" target="_top" xlink:title="components/include\l/dit.h">
<polygon fill="#ffffff" stroke="#ff0000" points="2046.1675,-65.5 2046.1675,-93.5 2151.1128,-93.5 2151.1128,-65.5 2046.1675,-65.5"/>
<text text-anchor="start" x="2054.1675" y="-81.5" font-family="Helvetica,sans-Serif" font-size="10.00" fill="#000000">components/include</text>
<text text-anchor="middle" x="2098.6401" y="-71.5" font-family="Helvetica,sans-Serif" font-size="10.00" fill="#000000">/dit.h</text>
</a>
</g>
</g>
<!-- Node35&#45;&gt;Node66 -->
<g id="edge73" class="edge">
<title>Node35&#45;&gt;Node66</title>
<path fill="none" stroke="#191970" d="M2433.4611,-247.1192C2409.0151,-238.6177 2376.5118,-226.6236 2348.6401,-214 2262.8901,-175.1622 2165.9312,-119.4075 2122.2225,-93.5983"/>
<polygon fill="#191970" stroke="#191970" points="2432.4787,-250.4825 2443.0734,-250.4267 2434.7563,-243.8634 2432.4787,-250.4825"/>
</g>
<!-- Node68 -->
<g id="node28" class="node">
<title>Node68</title>
<g id="a_node28"><a xlink:href="flow__mgmt_8h.html" target="_top" xlink:title="components/include\l/flow_mgmt.h">
<polygon fill="#ffffff" stroke="#ff0000" points="3250.1675,-65.5 3250.1675,-93.5 3355.1128,-93.5 3355.1128,-65.5 3250.1675,-65.5"/>
<text text-anchor="start" x="3258.1675" y="-81.5" font-family="Helvetica,sans-Serif" font-size="10.00" fill="#000000">components/include</text>
<text text-anchor="middle" x="3302.6401" y="-71.5" font-family="Helvetica,sans-Serif" font-size="10.00" fill="#000000">/flow_mgmt.h</text>
</a>
</g>
</g>
<!-- Node35&#45;&gt;Node68 -->
<g id="edge74" class="edge">
<title>Node35&#45;&gt;Node68</title>
<path fill="none" stroke="#191970" d="M2537.6849,-252.6699C2588.5902,-246.1957 2659.7947,-234.3494 2719.6401,-214 2770.2637,-196.7863 2779.834,-184.8504 2826.6401,-159 2848.7923,-146.7657 2851.5899,-137.8728 2875.6401,-130 3030.5603,-79.2872 3079.8187,-120.6182 3240.6401,-94 3243.6938,-93.4946 3246.8212,-92.9262 3249.9696,-92.3148"/>
<polygon fill="#191970" stroke="#191970" points="2536.9586,-249.2329 2527.4631,-253.9325 2537.8168,-256.1801 2536.9586,-249.2329"/>
</g>
<!-- Node70 -->
<g id="node29" class="node">
<title>Node70</title>
<g id="a_node29"><a xlink:href="host__mgmt_8h.html" target="_top" xlink:title="components/include\l/host_mgmt.h">
<polygon fill="#ffffff" stroke="#ff0000" points="1923.1675,-65.5 1923.1675,-93.5 2028.1128,-93.5 2028.1128,-65.5 1923.1675,-65.5"/>
<text text-anchor="start" x="1931.1675" y="-81.5" font-family="Helvetica,sans-Serif" font-size="10.00" fill="#000000">components/include</text>
<text text-anchor="middle" x="1975.6401" y="-71.5" font-family="Helvetica,sans-Serif" font-size="10.00" fill="#000000">/host_mgmt.h</text>
</a>
</g>
</g>
<!-- Node35&#45;&gt;Node70 -->
<g id="edge75" class="edge">
<title>Node35&#45;&gt;Node70</title>
<path fill="none" stroke="#191970" d="M2422.707,-247.993C2389.2995,-239.5775 2343.8677,-227.3402 2304.6401,-214 2192.7639,-175.9539 2064.1651,-119.5656 2006.4653,-93.5664"/>
<polygon fill="#191970" stroke="#191970" points="2422.1187,-251.4535 2432.6686,-250.4791 2423.8137,-244.6618 2422.1187,-251.4535"/>
</g>
<!-- Node72 -->
<g id="node30" class="node">
<title>Node72</title>
<g id="a_node30"><a xlink:href="log_8h.html" target="_top" xlink:title="components/include\l/log.h">
<polygon fill="#ffffff" stroke="#ff0000" points="2683.1675,-65.5 2683.1675,-93.5 2788.1128,-93.5 2788.1128,-65.5 2683.1675,-65.5"/>
<text text-anchor="start" x="2691.1675" y="-81.5" font-family="Helvetica,sans-Serif" font-size="10.00" fill="#000000">components/include</text>
<text text-anchor="middle" x="2735.6401" y="-71.5" font-family="Helvetica,sans-Serif" font-size="10.00" fill="#000000">/log.h</text>
</a>
</g>
</g>
<!-- Node35&#45;&gt;Node72 -->
<g id="edge76" class="edge">
<title>Node35&#45;&gt;Node72</title>
<path fill="none" stroke="#191970" d="M2510.9873,-247.2234C2556.0762,-232.0099 2629.455,-202.6375 2680.6401,-159 2702.6074,-140.2719 2719.8841,-110.8221 2728.8567,-93.5121"/>
<polygon fill="#191970" stroke="#191970" points="2509.6636,-243.9745 2501.2643,-250.4323 2511.8574,-250.6218 2509.6636,-243.9745"/>
</g>
<!-- Node74 -->
<g id="node31" class="node">
<title>Node74</title>
<g id="a_node31"><a xlink:href="ofp10_8h.html" target="_top" xlink:title="components/include\l/ofp10.h">
<polygon fill="#ffffff" stroke="#ff0000" points="3373.1675,-65.5 3373.1675,-93.5 3478.1128,-93.5 3478.1128,-65.5 3373.1675,-65.5"/>
<text text-anchor="start" x="3381.1675" y="-81.5" font-family="Helvetica,sans-Serif" font-size="10.00" fill="#000000">components/include</text>
<text text-anchor="middle" x="3425.6401" y="-71.5" font-family="Helvetica,sans-Serif" font-size="10.00" fill="#000000">/ofp10.h</text>
</a>
</g>
</g>
<!-- Node35&#45;&gt;Node74 -->
<g id="edge77" class="edge">
<title>Node35&#45;&gt;Node74</title>
<path fill="none" stroke="#191970" d="M2537.5181,-254.6906C2596.1554,-249.1012 2683.1197,-237.4553 2755.6401,-214 2807.2692,-197.3016 2817.0427,-185.0553 2864.6401,-159 2886.8379,-146.8487 2889.5182,-137.6502 2913.6401,-130 3104.8913,-69.3453 3165.3999,-124.9322 3363.6401,-94 3366.6983,-93.5228 3369.8293,-92.9766 3372.9804,-92.382"/>
<polygon fill="#191970" stroke="#191970" points="2536.909,-251.2317 2527.2717,-255.6331 2537.5503,-258.2023 2536.909,-251.2317"/>
</g>
<!-- Node76 -->
<g id="node32" class="node">
<title>Node76</title>
<g id="a_node32"><a xlink:href="ofp10__veri_8h.html" target="_top" xlink:title="components/include\l/ofp10_veri.h">
<polygon fill="#ffffff" stroke="#ff0000" points="3496.1675,-65.5 3496.1675,-93.5 3601.1128,-93.5 3601.1128,-65.5 3496.1675,-65.5"/>
<text text-anchor="start" x="3504.1675" y="-81.5" font-family="Helvetica,sans-Serif" font-size="10.00" fill="#000000">components/include</text>
<text text-anchor="middle" x="3548.6401" y="-71.5" font-family="Helvetica,sans-Serif" font-size="10.00" fill="#000000">/ofp10_veri.h</text>
</a>
</g>
</g>
<!-- Node35&#45;&gt;Node76 -->
<g id="edge78" class="edge">
<title>Node35&#45;&gt;Node76</title>
<path fill="none" stroke="#191970" d="M2537.7517,-256.2176C2603.6521,-251.5542 2706.4117,-240.4037 2791.6401,-214 2844.2315,-197.7073 2854.2495,-185.2613 2902.6401,-159 2924.882,-146.9295 2927.4703,-137.4976 2951.6401,-130 3179.2558,-59.3927 3250.9463,-129.2517 3486.6401,-94 3489.7013,-93.5422 3492.8345,-93.011 3495.9875,-92.4281"/>
<polygon fill="#191970" stroke="#191970" points="2537.2406,-252.7441 2527.4999,-256.9117 2537.7135,-259.7281 2537.2406,-252.7441"/>
</g>
<!-- Node78 -->
<g id="node33" class="node">
<title>Node78</title>
<g id="a_node33"><a xlink:href="resource__mgmt_8h.html" target="_top" xlink:title="components/include\l/resource_mgmt.h">
<polygon fill="#ffffff" stroke="#ff0000" points="2437.1675,-65.5 2437.1675,-93.5 2542.1128,-93.5 2542.1128,-65.5 2437.1675,-65.5"/>
<text text-anchor="start" x="2445.1675" y="-81.5" font-family="Helvetica,sans-Serif" font-size="10.00" fill="#000000">components/include</text>
<text text-anchor="middle" x="2489.6401" y="-71.5" font-family="Helvetica,sans-Serif" font-size="10.00" fill="#000000">/resource_mgmt.h</text>
</a>
</g>
</g>
<!-- Node35&#45;&gt;Node78 -->
<g id="edge79" class="edge">
<title>Node35&#45;&gt;Node78</title>
<path fill="none" stroke="#191970" d="M2472.6939,-240.0436C2476.5462,-203.5475 2484.772,-125.6196 2488.1475,-93.6407"/>
<polygon fill="#191970" stroke="#191970" points="2469.1776,-240.0141 2471.6085,-250.3263 2476.1389,-240.749 2469.1776,-240.0141"/>
</g>
<!-- Node80 -->
<g id="node34" class="node">
<title>Node80</title>
<g id="a_node34"><a xlink:href="stat__mgmt_8h.html" target="_top" xlink:title="components/include\l/stat_mgmt.h">
<polygon fill="#ffffff" stroke="#ff0000" points="3619.1675,-65.5 3619.1675,-93.5 3724.1128,-93.5 3724.1128,-65.5 3619.1675,-65.5"/>
<text text-anchor="start" x="3627.1675" y="-81.5" font-family="Helvetica,sans-Serif" font-size="10.00" fill="#000000">components/include</text>
<text text-anchor="middle" x="3671.6401" y="-71.5" font-family="Helvetica,sans-Serif" font-size="10.00" fill="#000000">/stat_mgmt.h</text>
</a>
</g>
</g>
<!-- Node35&#45;&gt;Node80 -->
<g id="edge80" class="edge">
<title>Node35&#45;&gt;Node80</title>
<path fill="none" stroke="#191970" d="M2537.7942,-253.626C2625.9635,-245.4552 2775.7496,-229.8667 2828.6401,-214 2881.7574,-198.0653 2891.8522,-185.3647 2940.6401,-159 2962.9034,-146.9691 2965.4361,-137.3865 2989.6401,-130 3121.6401,-89.7169 3473.0561,-113.7871 3609.6401,-94 3612.7034,-93.5562 3615.8382,-93.0361 3618.9924,-92.4615"/>
<polygon fill="#191970" stroke="#191970" points="2537.2585,-250.1604 2527.6209,-254.5612 2537.8993,-257.131 2537.2585,-250.1604"/>
</g>
<!-- Node82 -->
<g id="node35" class="node">
<title>Node82</title>
<g id="a_node35"><a xlink:href="switch__mgmt_8h.html" target="_top" xlink:title="components/include\l/switch_mgmt.h">
<polygon fill="#ffffff" stroke="#ff0000" points="2560.1675,-65.5 2560.1675,-93.5 2665.1128,-93.5 2665.1128,-65.5 2560.1675,-65.5"/>
<text text-anchor="start" x="2568.1675" y="-81.5" font-family="Helvetica,sans-Serif" font-size="10.00" fill="#000000">components/include</text>
<text text-anchor="middle" x="2612.6401" y="-71.5" font-family="Helvetica,sans-Serif" font-size="10.00" fill="#000000">/switch_mgmt.h</text>
</a>
</g>
</g>
<!-- Node35&#45;&gt;Node82 -->
<g id="edge81" class="edge">
<title>Node35&#45;&gt;Node82</title>
<path fill="none" stroke="#191970" d="M2478.6975,-240.9804C2490.8272,-214.4556 2515.6885,-164.9931 2546.6401,-130 2559.2578,-115.7349 2576.4108,-102.7543 2590.0675,-93.5262"/>
<polygon fill="#191970" stroke="#191970" points="2475.4425,-239.6857 2474.5556,-250.2433 2481.8328,-242.5431 2475.4425,-239.6857"/>
</g>
<!-- Node84 -->
<g id="node36" class="node">
<title>Node84</title>
<g id="a_node36"><a xlink:href="components_2include_2topo__mgmt_8h.html" target="_top" xlink:title="components/include\l/topo_mgmt.h">
<polygon fill="#ffffff" stroke="#000000" points="2881.1675,-65.5 2881.1675,-93.5 2986.1128,-93.5 2986.1128,-65.5 2881.1675,-65.5"/>
<text text-anchor="start" x="2889.1675" y="-81.5" font-family="Helvetica,sans-Serif" font-size="10.00" fill="#000000">components/include</text>
<text text-anchor="middle" x="2933.6401" y="-71.5" font-family="Helvetica,sans-Serif" font-size="10.00" fill="#000000">/topo_mgmt.h</text>
</a>
</g>
</g>
<!-- Node35&#45;&gt;Node84 -->
<g id="edge82" class="edge">
<title>Node35&#45;&gt;Node84</title>
<path fill="none" stroke="#191970" d="M2522.5685,-247.9613C2553.2704,-240.2374 2592.5014,-228.7754 2625.6401,-214 2690.5271,-185.0691 2696.754,-158.9326 2761.6401,-130 2800.1545,-112.8265 2846.0845,-99.685 2880.79,-91.1184"/>
<polygon fill="#191970" stroke="#191970" points="2521.3791,-244.6495 2512.5046,-250.4368 2523.0512,-251.4469 2521.3791,-244.6495"/>
</g>
<!-- Node87 -->
<g id="node39" class="node">
<title>Node87</title>
<g id="a_node39"><a xlink:href="ext__comps_2topo__mgmt_2src_2include_2topo__mgmt_8h.html" target="_top" xlink:title="ext_comps/topo_mgmt\l/src/include/topo_mgmt.h">
<polygon fill="#ffffff" stroke="#ff0000" points="2291.7808,-65.5 2291.7808,-93.5 2419.4995,-93.5 2419.4995,-65.5 2291.7808,-65.5"/>
<text text-anchor="start" x="2299.7808" y="-81.5" font-family="Helvetica,sans-Serif" font-size="10.00" fill="#000000">ext_comps/topo_mgmt</text>
<text text-anchor="middle" x="2355.6401" y="-71.5" font-family="Helvetica,sans-Serif" font-size="10.00" fill="#000000">/src/include/topo_mgmt.h</text>
</a>
</g>
</g>
<!-- Node35&#45;&gt;Node87 -->
<g id="edge86" class="edge">
<title>Node35&#45;&gt;Node87</title>
<path fill="none" stroke="#191970" d="M2469.1485,-240.3187C2466.1944,-213.3037 2457.5456,-163.5996 2432.6401,-130 2421.0259,-114.3315 2402.9939,-102.1279 2387.2988,-93.6452"/>
<polygon fill="#191970" stroke="#191970" points="2465.6751,-240.7662 2470.0967,-250.3943 2472.6443,-240.1103 2465.6751,-240.7662"/>
</g>
<!-- Node91 -->
<g id="node41" class="node">
<title>Node91</title>
<g id="a_node41"><a xlink:href="src_2include_2component_8h.html" target="_top" xlink:title="src/include/component.h">
<polygon fill="#ffffff" stroke="#000000" points="1302.4434,-135.5 1302.4434,-153.5 1426.8369,-153.5 1426.8369,-135.5 1302.4434,-135.5"/>
<text text-anchor="middle" x="1364.6401" y="-141.5" font-family="Helvetica,sans-Serif" font-size="10.00" fill="#000000">src/include/component.h</text>
</a>
</g>
</g>
<!-- Node35&#45;&gt;Node91 -->
<g id="edge83" class="edge">
<title>Node35&#45;&gt;Node91</title>
<path fill="none" stroke="#191970" d="M2403.8129,-258.6176C2222.5704,-255.831 1724.5349,-245.4546 1563.6401,-214 1495.7606,-200.7297 1419.6427,-169.1722 1384.4492,-153.5628"/>
<polygon fill="#191970" stroke="#191970" points="2403.9534,-262.12 2414.0052,-258.7714 2404.0591,-255.1208 2403.9534,-262.12"/>
</g>
<!-- Node92 -->
<g id="node42" class="node">
<title>Node92</title>
<g id="a_node42"><a xlink:href="cli_8h.html" target="_top" xlink:title="src/include/cli.h">
<polygon fill="#ffffff" stroke="#000000" points="1520.4604,-135.5 1520.4604,-153.5 1604.8198,-153.5 1604.8198,-135.5 1520.4604,-135.5"/>
<text text-anchor="middle" x="1562.6401" y="-141.5" font-family="Helvetica,sans-Serif" font-size="10.00" fill="#000000">src/include/cli.h</text>
</a>
</g>
</g>
<!-- Node35&#45;&gt;Node92 -->
<g id="edge87" class="edge">
<title>Node35&#45;&gt;Node92</title>
<path fill="none" stroke="#191970" d="M2403.5385,-258.2014C2201.9435,-254.0204 1613.5389,-239.6656 1581.6401,-214 1563.5129,-199.415 1561.6969,-169.3352 1562.059,-153.9759"/>
<polygon fill="#191970" stroke="#191970" points="2403.6282,-261.7038 2413.6981,-258.4102 2403.7722,-254.7053 2403.6282,-261.7038"/>
</g>
<!-- Node93 -->
<g id="node43" class="node">
<title>Node93</title>
<g id="a_node43"><a xlink:href="storage_8h.html" target="_top" xlink:title="src/include/storage.h">
<polygon fill="#ffffff" stroke="#ff0000" points="1411.5049,-70.5 1411.5049,-88.5 1519.7754,-88.5 1519.7754,-70.5 1411.5049,-70.5"/>
<text text-anchor="middle" x="1465.6401" y="-76.5" font-family="Helvetica,sans-Serif" font-size="10.00" fill="#000000">src/include/storage.h</text>
</a>
</g>
</g>
<!-- Node35&#45;&gt;Node93 -->
<g id="edge88" class="edge">
<title>Node35&#45;&gt;Node93</title>
<path fill="none" stroke="#191970" d="M2403.6197,-258.3434C2212.6013,-254.7357 1667.8545,-242.2014 1491.6401,-214 1401.4558,-199.5669 1348.9075,-231.7121 1293.6401,-159 1259.3511,-113.8879 1349.0743,-93.4913 1411.4498,-84.9741"/>
<polygon fill="#191970" stroke="#191970" points="2403.7359,-261.846 2413.7995,-258.5335 2403.8666,-254.8473 2403.7359,-261.846"/>
</g>
<!-- Node96 -->
<g id="node45" class="node">
<title>Node96</title>
<g id="a_node45"><a xlink:href="base64_8h.html" target="_top" xlink:title="util/include/base64.h">
<polygon fill="#ffffff" stroke="#ff0000" points="3070.0518,-195.5 3070.0518,-213.5 3177.2285,-213.5 3177.2285,-195.5 3070.0518,-195.5"/>
<text text-anchor="middle" x="3123.6401" y="-201.5" font-family="Helvetica,sans-Serif" font-size="10.00" fill="#000000">util/include/base64.h</text>
</a>
</g>
</g>
<!-- Node35&#45;&gt;Node96 -->
<g id="edge90" class="edge">
<title>Node35&#45;&gt;Node96</title>
<path fill="none" stroke="#191970" d="M2537.8127,-255.6161C2646.7169,-249.0182 2868.4981,-234.3309 3055.6401,-214 3060.2618,-213.4979 3065.0535,-212.9283 3069.8562,-212.3234"/>
<polygon fill="#191970" stroke="#191970" points="2537.4024,-252.1344 2527.6309,-256.2293 2537.8233,-259.1217 2537.4024,-252.1344"/>
</g>
<!-- Node104 -->
<g id="node46" class="node">
<title>Node104</title>
<g id="a_node46"><a xlink:href="database_8h.html" target="_top" xlink:title="util/include/database.h">
<polygon fill="#ffffff" stroke="#ff0000" points="2307.8818,-135.5 2307.8818,-153.5 2423.3984,-153.5 2423.3984,-135.5 2307.8818,-135.5"/>
<text text-anchor="middle" x="2365.6401" y="-141.5" font-family="Helvetica,sans-Serif" font-size="10.00" fill="#000000">util/include/database.h</text>
</a>
</g>
</g>
<!-- Node35&#45;&gt;Node104 -->
<g id="edge92" class="edge">
<title>Node35&#45;&gt;Node104</title>
<path fill="none" stroke="#191970" d="M2451.0279,-243.3469C2425.9174,-218.9174 2384.6387,-173.3528 2370.2401,-153.8014"/>
<polygon fill="#191970" stroke="#191970" points="2448.8899,-246.1425 2458.5579,-250.4761 2453.7026,-241.0593 2448.8899,-246.1425"/>
</g>
<!-- Node118 -->
<g id="node47" class="node">
<title>Node118</title>
<g id="a_node47"><a xlink:href="str_8h.html" target="_top" xlink:title="util/include/str.h">
<polygon fill="#ffffff" stroke="#ff0000" points="858.1748,-195.5 858.1748,-213.5 943.1055,-213.5 943.1055,-195.5 858.1748,-195.5"/>
<text text-anchor="middle" x="900.6401" y="-201.5" font-family="Helvetica,sans-Serif" font-size="10.00" fill="#000000">util/include/str.h</text>
</a>
</g>
</g>
<!-- Node35&#45;&gt;Node118 -->
<g id="edge105" class="edge">
<title>Node35&#45;&gt;Node118</title>
<path fill="none" stroke="#191970" d="M2403.5975,-258.7169C2149.1994,-255.5537 1243.4532,-242.5002 956.6401,-214 952.3225,-213.571 947.8348,-213.0088 943.3629,-212.3719"/>
<polygon fill="#191970" stroke="#191970" points="2403.7552,-262.219 2413.7976,-258.8427 2403.8416,-255.2195 2403.7552,-262.219"/>
</g>
<!-- Node120 -->
<g id="node48" class="node">
<title>Node120</title>
<g id="a_node48"><a xlink:href="hash_8h.html" target="_top" xlink:title="util/include/hash.h">
<polygon fill="#ffffff" stroke="#ff0000" points="1112.6133,-195.5 1112.6133,-213.5 1208.667,-213.5 1208.667,-195.5 1112.6133,-195.5"/>
<text text-anchor="middle" x="1160.6401" y="-201.5" font-family="Helvetica,sans-Serif" font-size="10.00" fill="#000000">util/include/hash.h</text>
</a>
</g>
</g>
<!-- Node35&#45;&gt;Node120 -->
<g id="edge112" class="edge">
<title>Node35&#45;&gt;Node120</title>
<path fill="none" stroke="#191970" d="M2403.3714,-258.0747C2178.6309,-253.1516 1454.9028,-235.9541 1222.6401,-214 1218.1952,-213.5799 1213.5838,-213.0506 1208.9732,-212.458"/>
<polygon fill="#191970" stroke="#191970" points="2403.6183,-261.5808 2413.6923,-258.2998 2403.771,-254.5825 2403.6183,-261.5808"/>
</g>
<!-- Node122 -->
<g id="node49" class="node">
<title>Node122</title>
<g id="a_node49"><a xlink:href="ip2int_8h.html" target="_top" xlink:title="util/include/ip2int.h">
<polygon fill="#ffffff" stroke="#ff0000" points="3233.5024,-195.5 3233.5024,-213.5 3331.7778,-213.5 3331.7778,-195.5 3233.5024,-195.5"/>
<text text-anchor="middle" x="3282.6401" y="-201.5" font-family="Helvetica,sans-Serif" font-size="10.00" fill="#000000">util/include/ip2int.h</text>
</a>
</g>
</g>
<!-- Node35&#45;&gt;Node122 -->
<g id="edge122" class="edge">
<title>Node35&#45;&gt;Node122</title>
<path fill="none" stroke="#191970" d="M2537.7056,-257.247C2667.8138,-252.602 2963.093,-240.1308 3210.6401,-214 3217.9002,-213.2336 3225.6042,-212.231 3233.1949,-211.1648"/>
<polygon fill="#191970" stroke="#191970" points="2537.373,-253.7565 2527.5028,-257.6073 2537.6201,-260.7521 2537.373,-253.7565"/>
</g>
<!-- Node124 -->
<g id="node50" class="node">
<title>Node124</title>
<g id="a_node50"><a xlink:href="mac2int_8h.html" target="_top" xlink:title="util/include/mac2int.h">
<polygon fill="#ffffff" stroke="#ff0000" points="3349.9482,-195.5 3349.9482,-213.5 3459.332,-213.5 3459.332,-195.5 3349.9482,-195.5"/>
<text text-anchor="middle" x="3404.6401" y="-201.5" font-family="Helvetica,sans-Serif" font-size="10.00" fill="#000000">util/include/mac2int.h</text>
</a>
</g>
</g>
<!-- Node35&#45;&gt;Node124 -->
<g id="edge124" class="edge">
<title>Node35&#45;&gt;Node124</title>
<path fill="none" stroke="#191970" d="M2537.3976,-258.0567C2682.3523,-254.5496 3036.2341,-243.5817 3331.6401,-214 3337.4522,-213.418 3343.5437,-212.6805 3349.6367,-211.8746"/>
<polygon fill="#191970" stroke="#191970" points="2537.2394,-254.5594 2527.3256,-258.2965 2537.4061,-261.5574 2537.2394,-254.5594"/>
</g>
<!-- Node37 -->
<g id="node3" class="node">
<title>Node37</title>
<g id="a_node3"><a xlink:href="app__events_2app__event_8c.html" target="_top" xlink:title="app_events/app_event.c">
<polygon fill="#ffffff" stroke="#000000" points="412.1528,-70.5 412.1528,-88.5 537.1274,-88.5 537.1274,-70.5 412.1528,-70.5"/>
<text text-anchor="middle" x="474.6401" y="-76.5" font-family="Helvetica,sans-Serif" font-size="10.00" fill="#000000">app_events/app_event.c</text>
</a>
</g>
</g>
<!-- Node36&#45;&gt;Node37 -->
<g id="edge2" class="edge">
<title>Node36&#45;&gt;Node37</title>
<path fill="none" stroke="#191970" d="M716.2573,-131.3321C656.9912,-118.6182 568.8205,-99.7037 516.9877,-88.5845"/>
<polygon fill="#191970" stroke="#191970" points="715.7286,-134.7982 726.2403,-133.4736 717.1969,-127.9539 715.7286,-134.7982"/>
</g>
<!-- Node36&#45;&gt;Node38 -->
<g id="edge3" class="edge">
<title>Node36&#45;&gt;Node38</title>
<path fill="none" stroke="#191970" d="M827.0353,-126.9553C856.514,-116.4847 893.4492,-103.3656 921.0094,-93.5765"/>
<polygon fill="#191970" stroke="#191970" points="825.6002,-123.7507 817.3484,-130.396 827.9431,-130.347 825.6002,-123.7507"/>
</g>
<!-- Node36&#45;&gt;Node39 -->
<g id="edge4" class="edge">
<title>Node36&#45;&gt;Node39</title>
<path fill="none" stroke="#191970" d="M716.3606,-133.3597C708.0709,-132.0897 699.6606,-130.9225 691.6401,-130 435.0578,-100.4893 367.031,-132.4823 111.6401,-94 108.9909,-93.6008 106.2869,-93.1413 103.5641,-92.6371"/>
<polygon fill="#191970" stroke="#191970" points="715.953,-136.8388 726.3782,-134.9503 717.0508,-129.9254 715.953,-136.8388"/>
</g>
<!-- Node40 -->
<g id="node6" class="node">
<title>Node40</title>
<g id="a_node6"><a xlink:href="appint_8h.html" target="_top" xlink:title="components/include\l/appint.h">
<polygon fill="#ffffff" stroke="#000000" points="748.1675,-65.5 748.1675,-93.5 853.1128,-93.5 853.1128,-65.5 748.1675,-65.5"/>
<text text-anchor="start" x="756.1675" y="-81.5" font-family="Helvetica,sans-Serif" font-size="10.00" fill="#000000">components/include</text>
<text text-anchor="middle" x="800.6401" y="-71.5" font-family="Helvetica,sans-Serif" font-size="10.00" fill="#000000">/appint.h</text>
</a>
</g>
</g>
<!-- Node36&#45;&gt;Node40 -->
<g id="edge5" class="edge">
<title>Node36&#45;&gt;Node40</title>
<path fill="none" stroke="#191970" d="M786.0627,-120.6971C789.2862,-111.5871 792.858,-101.4929 795.6592,-93.5765"/>
<polygon fill="#191970" stroke="#191970" points="782.6671,-119.8012 782.6308,-130.396 789.2662,-122.1363 782.6671,-119.8012"/>
</g>
<!-- Node42 -->
<g id="node8" class="node">
<title>Node42</title>
<g id="a_node8"><a xlink:href="ext__apps_2shim_2app__event_8c.html" target="_top" xlink:title="ext_apps/shim/app_event.c">
<polygon fill="#ffffff" stroke="#000000" points="554.7686,-70.5 554.7686,-88.5 692.5117,-88.5 692.5117,-70.5 554.7686,-70.5"/>
<text text-anchor="middle" x="623.6401" y="-76.5" font-family="Helvetica,sans-Serif" font-size="10.00" fill="#000000">ext_apps/shim/app_event.c</text>
</a>
</g>
</g>
<!-- Node36&#45;&gt;Node42 -->
<g id="edge7" class="edge">
<title>Node36&#45;&gt;Node42</title>
<path fill="none" stroke="#191970" d="M734.6832,-126.3688C705.5323,-114.0649 668.2309,-98.3208 645.1393,-88.5743"/>
<polygon fill="#191970" stroke="#191970" points="733.6504,-129.7319 744.2244,-130.396 736.3725,-123.2828 733.6504,-129.7319"/>
</g>
<!-- Node36&#45;&gt;Node43 -->
<g id="edge8" class="edge">
<title>Node36&#45;&gt;Node43</title>
<path fill="none" stroke="#191970" d="M838.7246,-131.9352C893.7334,-120.6201 974.2796,-104.052 1030.0477,-92.5807"/>
<polygon fill="#191970" stroke="#191970" points="837.8519,-128.5413 828.7622,-133.9844 839.2623,-135.3978 837.8519,-128.5413"/>
</g>
<!-- Node36&#45;&gt;Node46 -->
<g id="edge9" class="edge">
<title>Node36&#45;&gt;Node46</title>
<path fill="none" stroke="#191970" d="M716.3338,-133.5792C708.0483,-132.2745 699.6464,-131.0392 691.6401,-130 517.2623,-107.3662 472.4192,-113.2917 297.6401,-94 282.3418,-92.3114 265.8944,-90.295 250.4412,-88.3105"/>
<polygon fill="#191970" stroke="#191970" points="715.9179,-137.0573 726.348,-135.1965 717.034,-130.1469 715.9179,-137.0573"/>
</g>
<!-- Node49 -->
<g id="node11" class="node">
<title>Node49</title>
<g id="a_node11"><a xlink:href="application_8c.html" target="_top" xlink:title="src/application.c">
<polygon fill="#ffffff" stroke="#000000" points="306.7905,-70.5 306.7905,-88.5 394.4897,-88.5 394.4897,-70.5 306.7905,-70.5"/>
<text text-anchor="middle" x="350.6401" y="-76.5" font-family="Helvetica,sans-Serif" font-size="10.00" fill="#000000">src/application.c</text>
</a>
</g>
</g>
<!-- Node36&#45;&gt;Node49 -->
<g id="edge10" class="edge">
<title>Node36&#45;&gt;Node49</title>
<path fill="none" stroke="#191970" d="M716.2992,-133.8291C708.0192,-132.485 699.628,-131.1721 691.6401,-130 564.0107,-111.2724 530.1739,-119.084 403.6401,-94 396.1542,-92.516 388.1712,-90.5435 380.7328,-88.5327"/>
<polygon fill="#191970" stroke="#191970" points="715.8735,-137.3061 726.3093,-135.4769 717.0106,-130.399 715.8735,-137.3061"/>
</g>
<!-- Node50 -->
<g id="node12" class="node">
<title>Node50</title>
<g id="a_node12"><a xlink:href="cli_8c.html" target="_top" xlink:title="src/cli.c">
<polygon fill="#ffffff" stroke="#000000" points="1296.9751,-5.5 1296.9751,-23.5 1346.3052,-23.5 1346.3052,-5.5 1296.9751,-5.5"/>
<text text-anchor="middle" x="1321.6401" y="-11.5" font-family="Helvetica,sans-Serif" font-size="10.00" fill="#000000">src/cli.c</text>
</a>
</g>
</g>
<!-- Node36&#45;&gt;Node50 -->
<g id="edge11" class="edge">
<title>Node36&#45;&gt;Node50</title>
<path fill="none" stroke="#191970" d="M754.8864,-122.917C739.3448,-105.6109 724.1371,-81.5608 739.6401,-65 781.1144,-20.6958 1225.4117,-42.2277 1284.6401,-29 1290.2962,-27.7368 1296.2241,-25.7414 1301.6365,-23.6304"/>
<polygon fill="#191970" stroke="#191970" points="752.5163,-125.5039 761.9416,-130.3429 757.5911,-120.6824 752.5163,-125.5039"/>
</g>
<!-- Node36&#45;&gt;Node51 -->
<g id="edge12" class="edge">
<title>Node36&#45;&gt;Node51</title>
<path fill="none" stroke="#191970" d="M811.4779,-125.3083C827.0111,-116.2074 845.5192,-104.9482 861.6401,-94 879.2154,-82.0641 879.7285,-72.4085 899.6401,-65 1023.5813,-18.8851 1363.8503,-54.3495 1493.6401,-29 1500.1352,-27.7314 1506.9975,-25.7342 1513.2868,-23.6231"/>
<polygon fill="#191970" stroke="#191970" points="809.6048,-122.3487 802.7165,-130.3987 813.1214,-128.4013 809.6048,-122.3487"/>
</g>
<!-- Node41 -->
<g id="node7" class="node">
<title>Node41</title>
<g id="a_node7"><a xlink:href="apphdlr_8c.html" target="_top" xlink:title="components/apphdlr.c">
<polygon fill="#ffffff" stroke="#000000" points="1370.7168,-5.5 1370.7168,-23.5 1484.5635,-23.5 1484.5635,-5.5 1370.7168,-5.5"/>
<text text-anchor="middle" x="1427.6401" y="-11.5" font-family="Helvetica,sans-Serif" font-size="10.00" fill="#000000">components/apphdlr.c</text>
</a>
</g>
</g>
<!-- Node40&#45;&gt;Node41 -->
<g id="edge6" class="edge">
<title>Node40&#45;&gt;Node41</title>
<path fill="none" stroke="#191970" d="M863.395,-65.4921C864.484,-65.3209 865.5663,-65.1567 866.6401,-65 1082.2787,-33.5391 1139.7341,-58.5696 1355.6401,-29 1365.9992,-27.5813 1377.1092,-25.5837 1387.4263,-23.5237"/>
<polygon fill="#191970" stroke="#191970" points="862.7354,-62.054 853.4725,-67.1969 863.9208,-68.9529 862.7354,-62.054"/>
</g>
<!-- Node52&#45;&gt;Node36 -->
<g id="edge14" class="edge">
<title>Node52&#45;&gt;Node36</title>
<path fill="none" stroke="#191970" d="M1580.5951,-200.0678C1415.6627,-188.6538 978.8049,-158.4214 828.9457,-148.0506"/>
<polygon fill="#191970" stroke="#191970" points="1580.8419,-203.5932 1591.0597,-200.792 1581.3252,-196.6099 1580.8419,-203.5932"/>
</g>
<!-- Node52&#45;&gt;Node51 -->
<g id="edge62" class="edge">
<title>Node52&#45;&gt;Node51</title>
<path fill="none" stroke="#191970" d="M1697.2643,-192.062C1714.3985,-185.2476 1731.5811,-174.8292 1741.6401,-159 1748.553,-148.1218 1749.7842,-139.9899 1741.6401,-130 1691.466,-68.4537 1627.0438,-145.544 1566.6401,-94 1545.2066,-75.7102 1539.0562,-40.4581 1537.3148,-23.7357"/>
<polygon fill="#191970" stroke="#191970" points="1696.008,-188.7944 1687.7957,-195.4884 1698.39,-195.3767 1696.008,-188.7944"/>
</g>
<!-- Node52&#45;&gt;Node53 -->
<g id="edge15" class="edge">
<title>Node52&#45;&gt;Node53</title>
<path fill="none" stroke="#191970" d="M1580.5003,-203.5772C1429.6608,-200.9219 1040.7756,-191.2507 717.6401,-159 703.7191,-157.6106 688.7336,-155.5979 674.8374,-153.5122"/>
<polygon fill="#191970" stroke="#191970" points="1580.8866,-207.0843 1590.9452,-203.7565 1581.0068,-200.0853 1580.8866,-207.0843"/>
</g>
<!-- Node52&#45;&gt;Node54 -->
<g id="edge22" class="edge">
<title>Node52&#45;&gt;Node54</title>
<path fill="none" stroke="#191970" d="M1708.7598,-201.2824C1843.081,-194.4353 2163.8324,-177.5255 2432.6401,-159 2473.8392,-156.1607 2520.2696,-152.4303 2555.7891,-149.4643"/>
<polygon fill="#191970" stroke="#191970" points="1708.4548,-197.7933 1698.6456,-201.7969 1708.8105,-204.7843 1708.4548,-197.7933"/>
</g>
<!-- Node52&#45;&gt;Node91 -->
<g id="edge50" class="edge">
<title>Node52&#45;&gt;Node91</title>
<path fill="none" stroke="#191970" d="M1592.4246,-193.311C1538.7955,-181.819 1456.356,-164.1534 1406.7472,-153.5229"/>
<polygon fill="#191970" stroke="#191970" points="1591.9067,-196.7794 1602.4181,-195.4524 1593.3735,-189.9348 1591.9067,-196.7794"/>
</g>
<!-- Node52&#45;&gt;Node92 -->
<g id="edge55" class="edge">
<title>Node52&#45;&gt;Node92</title>
<path fill="none" stroke="#191970" d="M1623.7792,-189.2359C1608.3439,-177.9418 1587.8421,-162.9405 1574.9427,-153.5019"/>
<polygon fill="#191970" stroke="#191970" points="1622.049,-192.3068 1632.1861,-195.3873 1626.1826,-186.6575 1622.049,-192.3068"/>
</g>
<!-- Node52&#45;&gt;Node93 -->
<g id="edge58" class="edge">
<title>Node52&#45;&gt;Node93</title>
<path fill="none" stroke="#191970" d="M1641.2016,-185.0577C1637.2755,-168.3234 1629.2587,-144.6278 1613.6401,-130 1597.441,-114.8284 1541.5643,-98.4371 1503.2995,-88.5726"/>
<polygon fill="#191970" stroke="#191970" points="1637.8714,-186.241 1643.3092,-195.3339 1644.7286,-184.8346 1637.8714,-186.241"/>
</g>
<!-- Node95 -->
<g id="node44" class="node">
<title>Node95</title>
<g id="a_node44"><a xlink:href="context_8c.html" target="_top" xlink:title="src/context.c">
<polygon fill="#ffffff" stroke="#000000" points="1660.5762,-135.5 1660.5762,-153.5 1732.7041,-153.5 1732.7041,-135.5 1660.5762,-135.5"/>
<text text-anchor="middle" x="1696.6401" y="-141.5" font-family="Helvetica,sans-Serif" font-size="10.00" fill="#000000">src/context.c</text>
</a>
</g>
</g>
<!-- Node52&#45;&gt;Node95 -->
<g id="edge61" class="edge">
<title>Node52&#45;&gt;Node95</title>
<path fill="none" stroke="#191970" d="M1659.219,-187.6783C1668.7563,-176.6737 1680.8525,-162.7165 1688.6681,-153.6985"/>
<polygon fill="#191970" stroke="#191970" points="1656.4422,-185.5381 1652.5378,-195.3873 1661.7321,-190.1226 1656.4422,-185.5381"/>
</g>
<!-- Node53&#45;&gt;Node37 -->
<g id="edge16" class="edge">
<title>Node53&#45;&gt;Node37</title>
<path fill="none" stroke="#191970" d="M591.685,-131.2545C563.0082,-118.5743 520.5012,-99.7787 495.3802,-88.6708"/>
<polygon fill="#191970" stroke="#191970" points="590.6392,-134.6189 601.2004,-135.462 593.4701,-128.2169 590.6392,-134.6189"/>
</g>
<!-- Node53&#45;&gt;Node39 -->
<g id="edge17" class="edge">
<title>Node53&#45;&gt;Node39</title>
<path fill="none" stroke="#191970" d="M549.8317,-136.0482C531.8196,-133.9979 512.5289,-131.8617 494.6401,-130 324.5861,-112.3019 280.2788,-122.1534 111.6401,-94 108.9976,-93.5588 106.2989,-93.0656 103.5804,-92.5345"/>
<polygon fill="#191970" stroke="#191970" points="549.6451,-139.5496 559.9782,-137.2093 550.441,-132.595 549.6451,-139.5496"/>
</g>
<!-- Node53&#45;&gt;Node42 -->
<g id="edge18" class="edge">
<title>Node53&#45;&gt;Node42</title>
<path fill="none" stroke="#191970" d="M622.2362,-125.1265C622.6047,-113.1522 623.061,-98.3205 623.3515,-88.8821"/>
<polygon fill="#191970" stroke="#191970" points="618.7275,-125.3591 621.9182,-135.462 625.7242,-125.5744 618.7275,-125.3591"/>
</g>
<!-- Node53&#45;&gt;Node46 -->
<g id="edge19" class="edge">
<title>Node53&#45;&gt;Node46</title>
<path fill="none" stroke="#191970" d="M563.8284,-133.6674C556.372,-132.3745 548.8318,-131.1184 541.6401,-130 418.9681,-110.9236 387.291,-113.2126 264.6401,-94 260.0939,-93.2879 255.4071,-92.5184 250.6913,-91.7182"/>
<polygon fill="#191970" stroke="#191970" points="563.448,-137.1543 573.9038,-135.4439 564.6635,-130.2606 563.448,-137.1543"/>
</g>
<!-- Node53&#45;&gt;Node49 -->
<g id="edge20" class="edge">
<title>Node53&#45;&gt;Node49</title>
<path fill="none" stroke="#191970" d="M570.6019,-133.2741C526.3348,-123.3951 460.6006,-108.3833 403.6401,-94 396.8882,-92.295 389.6774,-90.3834 382.8183,-88.5216"/>
<polygon fill="#191970" stroke="#191970" points="570.0198,-136.7302 580.5414,-135.4866 571.5407,-129.8974 570.0198,-136.7302"/>
</g>
<!-- Node53&#45;&gt;Node50 -->
<g id="edge21" class="edge">
<title>Node53&#45;&gt;Node50</title>
<path fill="none" stroke="#191970" d="M562.718,-133.594C555.6218,-132.3475 548.4715,-131.1227 541.6401,-130 430.8994,-111.7998 219.7438,-145.7894 297.6401,-65 335.7253,-25.5004 1230.919,-40.1685 1284.6401,-29 1290.4493,-27.7923 1296.531,-25.7596 1302.0466,-23.5926"/>
<polygon fill="#191970" stroke="#191970" points="562.5746,-137.1233 573.0327,-135.4265 563.7991,-130.2312 562.5746,-137.1233"/>
</g>
<!-- Node54&#45;&gt;Node50 -->
<g id="edge47" class="edge">
<title>Node54&#45;&gt;Node50</title>
<path fill="none" stroke="#191970" d="M2681.6635,-137.0215C2748.9578,-127.1235 2836.5516,-105.9253 2796.6401,-65 2740.9619,-7.9074 1440.0057,-43.7809 1361.6401,-29 1355.3977,-27.8226 1348.8352,-25.7999 1342.8723,-23.6326"/>
<polygon fill="#191970" stroke="#191970" points="2680.8936,-133.5953 2671.4804,-138.4576 2681.8712,-140.5267 2680.8936,-133.5953"/>
</g>
<!-- Node54&#45;&gt;Node51 -->
<g id="edge49" class="edge">
<title>Node54&#45;&gt;Node51</title>
<path fill="none" stroke="#191970" d="M2677.6856,-133.6599C2737.8492,-122.8265 2820.0536,-106.0864 2829.6401,-94 2837.6496,-83.9019 2838.5743,-74.29 2829.6401,-65 2807.0484,-41.5087 1762.3549,-19.0985 1567.6915,-15.1228"/>
<polygon fill="#191970" stroke="#191970" points="2676.7141,-130.2778 2667.4836,-135.4787 2677.9427,-137.1692 2676.7141,-130.2778"/>
</g>
<!-- Node54&#45;&gt;Node55 -->
<g id="edge23" class="edge">
<title>Node54&#45;&gt;Node55</title>
<path fill="none" stroke="#191970" d="M2545.6655,-135.7886C2478.5547,-126.798 2373.1383,-111.6287 2282.6401,-94 2279.8622,-93.4589 2277.0192,-92.8781 2274.1532,-92.2713"/>
<polygon fill="#191970" stroke="#191970" points="2545.3162,-139.2729 2555.6908,-137.1238 2546.2404,-132.3342 2545.3162,-139.2729"/>
</g>
<!-- Node54&#45;&gt;Node56 -->
<g id="edge25" class="edge">
<title>Node54&#45;&gt;Node56</title>
<path fill="none" stroke="#191970" d="M2545.548,-138.3163C2511.6386,-135.4226 2470.0037,-132.1485 2432.6401,-130 1975.3382,-103.7043 1859.9057,-120.9195 1402.6401,-94 1361.5551,-91.5813 1315.1359,-87.6812 1280.4339,-84.5348"/>
<polygon fill="#191970" stroke="#191970" points="2545.5467,-141.8291 2555.8103,-139.2005 2546.1476,-134.8549 2545.5467,-141.8291"/>
</g>
<!-- Node54&#45;&gt;Node58 -->
<g id="edge27" class="edge">
<title>Node54&#45;&gt;Node58</title>
<path fill="none" stroke="#191970" d="M2681.6687,-137.5179C2758.129,-129.1989 2885.8099,-113.8892 2994.6401,-94 2997.6849,-93.4436 3000.8054,-92.8354 3003.9485,-92.1934"/>
<polygon fill="#191970" stroke="#191970" points="2681.2524,-134.0424 2671.686,-138.596 2682.004,-141.002 2681.2524,-134.0424"/>
</g>
<!-- Node54&#45;&gt;Node60 -->
<g id="edge29" class="edge">
<title>Node54&#45;&gt;Node60</title>
<path fill="none" stroke="#191970" d="M2681.905,-142.5659C2929.5803,-135.4441 3772.6282,-110.2522 3892.6401,-94 3895.7074,-93.5846 3898.8453,-93.0867 3902.0019,-92.5291"/>
<polygon fill="#191970" stroke="#191970" points="2681.5004,-139.076 2671.6049,-142.8616 2681.7013,-146.0731 2681.5004,-139.076"/>
</g>
<!-- Node54&#45;&gt;Node62 -->
<g id="edge31" class="edge">
<title>Node54&#45;&gt;Node62</title>
<path fill="none" stroke="#191970" d="M2681.5476,-141.8335C2907.9262,-132.8891 3628.4344,-103.9573 3732.6401,-94 3747.7707,-92.5542 3764.1238,-90.4028 3779.0961,-88.197"/>
<polygon fill="#191970" stroke="#191970" points="2681.318,-138.3397 2671.4639,-142.2316 2681.5942,-145.3343 2681.318,-138.3397"/>
</g>
<!-- Node54&#45;&gt;Node64 -->
<g id="edge33" class="edge">
<title>Node54&#45;&gt;Node64</title>
<path fill="none" stroke="#191970" d="M2681.756,-138.7807C2799.3049,-128.7257 3035.54,-107.6542 3117.6401,-94 3120.6934,-93.4922 3123.8205,-92.922 3126.9687,-92.3092"/>
<polygon fill="#191970" stroke="#191970" points="2681.1108,-135.323 2671.4446,-139.6606 2681.7059,-142.2976 2681.1108,-135.323"/>
</g>
<!-- Node54&#45;&gt;Node66 -->
<g id="edge34" class="edge">
<title>Node54&#45;&gt;Node66</title>
<path fill="none" stroke="#191970" d="M2545.5437,-139.4449C2456.5989,-132.2632 2296.2333,-117.3287 2160.6401,-94 2157.5897,-93.4752 2154.4649,-92.8917 2151.3184,-92.2687"/>
<polygon fill="#191970" stroke="#191970" points="2545.5199,-142.954 2555.7668,-140.2615 2546.0773,-135.9763 2545.5199,-142.954"/>
</g>
<!-- Node54&#45;&gt;Node68 -->
<g id="edge35" class="edge">
<title>Node54&#45;&gt;Node68</title>
<path fill="none" stroke="#191970" d="M2681.6372,-140.313C2820.9162,-131.5249 3134.4568,-110.5975 3240.6401,-94 3243.6982,-93.522 3246.829,-92.9751 3249.9801,-92.3801"/>
<polygon fill="#191970" stroke="#191970" points="2681.2748,-136.8288 2671.5142,-140.9497 2681.7142,-143.815 2681.2748,-136.8288"/>
</g>
<!-- Node54&#45;&gt;Node70 -->
<g id="edge36" class="edge">
<title>Node54&#45;&gt;Node70</title>
<path fill="none" stroke="#191970" d="M2545.4649,-139.0721C2403.7982,-127.713 2086.6569,-101.8397 2037.6401,-94 2034.5838,-93.5112 2031.4543,-92.9558 2028.3042,-92.3543"/>
<polygon fill="#191970" stroke="#191970" points="2545.5163,-142.5873 2555.7639,-139.8971 2546.0754,-135.6097 2545.5163,-142.5873"/>
</g>
<!-- Node54&#45;&gt;Node72 -->
<g id="edge37" class="edge">
<title>Node54&#45;&gt;Node72</title>
<path fill="none" stroke="#191970" d="M2639.6474,-130.6437C2660.0646,-119.7657 2688.3848,-104.677 2708.9704,-93.7093"/>
<polygon fill="#191970" stroke="#191970" points="2637.7835,-127.6709 2630.6037,-135.462 2641.075,-133.8488 2637.7835,-127.6709"/>
</g>
<!-- Node54&#45;&gt;Node74 -->
<g id="edge38" class="edge">
<title>Node54&#45;&gt;Node74</title>
<path fill="none" stroke="#191970" d="M2681.8127,-140.5453C2853.9731,-130.4678 3297.3155,-103.9214 3363.6401,-94 3366.7013,-93.5421 3369.8345,-93.0109 3372.9874,-92.4279"/>
<polygon fill="#191970" stroke="#191970" points="2681.3854,-137.0642 2671.6068,-141.142 2681.794,-144.0523 2681.3854,-137.0642"/>
</g>
<!-- Node54&#45;&gt;Node76 -->
<g id="edge39" class="edge">
<title>Node54&#45;&gt;Node76</title>
<path fill="none" stroke="#191970" d="M2681.7418,-141.237C2873.2912,-131.9639 3407.9393,-105.3928 3486.6401,-94 3489.7034,-93.5566 3492.8383,-93.0367 3495.9925,-92.4623"/>
<polygon fill="#191970" stroke="#191970" points="2681.3417,-137.7522 2671.5224,-141.7311 2681.6798,-144.744 2681.3417,-137.7522"/>
</g>
<!-- Node54&#45;&gt;Node78 -->
<g id="edge40" class="edge">
<title>Node54&#45;&gt;Node78</title>
<path fill="none" stroke="#191970" d="M2587.4877,-130.7911C2566.7153,-119.9023 2537.7648,-104.7267 2516.7471,-93.7093"/>
<polygon fill="#191970" stroke="#191970" points="2585.9166,-133.9192 2596.3985,-135.462 2589.1665,-127.7193 2585.9166,-133.9192"/>
</g>
<!-- Node54&#45;&gt;Node80 -->
<g id="edge41" class="edge">
<title>Node54&#45;&gt;Node80</title>
<path fill="none" stroke="#191970" d="M2681.6322,-141.3878C2898.7295,-131.4064 3563.7846,-100.4714 3609.6401,-94 3612.705,-93.5675 3615.8411,-93.0561 3618.9962,-92.4883"/>
<polygon fill="#191970" stroke="#191970" points="2681.4659,-137.8916 2671.6371,-141.8471 2681.7872,-144.8843 2681.4659,-137.8916"/>
</g>
<!-- Node54&#45;&gt;Node82 -->
<g id="edge42" class="edge">
<title>Node54&#45;&gt;Node82</title>
<path fill="none" stroke="#191970" d="M2613.3442,-125.2652C2613.19,-115.2384 2613.0044,-103.1782 2612.8625,-93.9559"/>
<polygon fill="#191970" stroke="#191970" points="2609.8476,-125.5171 2613.5011,-135.462 2616.8468,-125.4093 2609.8476,-125.5171"/>
</g>
<!-- Node54&#45;&gt;Node84 -->
<g id="edge43" class="edge">
<title>Node54&#45;&gt;Node84</title>
<path fill="none" stroke="#191970" d="M2670.4515,-133.5422C2721.9717,-123.5247 2799.9789,-108.1572 2867.6401,-94 2872.0037,-93.087 2876.526,-92.1255 2881.0638,-91.1502"/>
<polygon fill="#191970" stroke="#191970" points="2669.661,-130.1302 2660.5116,-135.4724 2670.9954,-137.0018 2669.661,-130.1302"/>
</g>
<!-- Node85 -->
<g id="node37" class="node">
<title>Node85</title>
<g id="a_node37"><a xlink:href="events_2event_8c.html" target="_top" xlink:title="events/event.c">
<polygon fill="#ffffff" stroke="#000000" points="1824.3989,-70.5 1824.3989,-88.5 1904.8813,-88.5 1904.8813,-70.5 1824.3989,-70.5"/>
<text text-anchor="middle" x="1864.6401" y="-76.5" font-family="Helvetica,sans-Serif" font-size="10.00" fill="#000000">events/event.c</text>
</a>
</g>
</g>
<!-- Node54&#45;&gt;Node85 -->
<g id="edge44" class="edge">
<title>Node54&#45;&gt;Node85</title>
<path fill="none" stroke="#191970" d="M2545.5113,-138.8713C2511.593,-136.1125 2469.9611,-132.7917 2432.6401,-130 2202.5055,-112.7854 2141.8598,-134.367 1914.6401,-94 1907.1651,-92.672 1899.2122,-90.6544 1891.9,-88.5426"/>
<polygon fill="#191970" stroke="#191970" points="2545.5253,-142.3839 2555.7767,-139.7082 2546.0942,-135.4071 2545.5253,-142.3839"/>
</g>
<!-- Node86 -->
<g id="node38" class="node">
<title>Node86</title>
<g id="a_node38"><a xlink:href="ext__comps_2shim_2event_8c.html" target="_top" xlink:title="ext_comps/shim/event.c">
<polygon fill="#ffffff" stroke="#000000" points="1683.0073,-70.5 1683.0073,-88.5 1806.2729,-88.5 1806.2729,-70.5 1683.0073,-70.5"/>
<text text-anchor="middle" x="1744.6401" y="-76.5" font-family="Helvetica,sans-Serif" font-size="10.00" fill="#000000">ext_comps/shim/event.c</text>
</a>
</g>
</g>
<!-- Node54&#45;&gt;Node86 -->
<g id="edge45" class="edge">
<title>Node54&#45;&gt;Node86</title>
<path fill="none" stroke="#191970" d="M2545.5242,-138.6924C2511.609,-135.8902 2469.976,-132.5844 2432.6401,-130 2158.6073,-111.0313 2088.0156,-129.573 1815.6401,-94 1805.286,-92.6477 1794.1825,-90.6481 1783.904,-88.563"/>
<polygon fill="#191970" stroke="#191970" points="2545.5331,-142.2051 2555.7885,-139.5446 2546.1124,-135.2291 2545.5331,-142.2051"/>
</g>
<!-- Node54&#45;&gt;Node87 -->
<g id="edge46" class="edge">
<title>Node54&#45;&gt;Node87</title>
<path fill="none" stroke="#191970" d="M2567.986,-132.998C2524.3135,-121.9952 2458.3551,-105.3778 2411.5528,-93.5865"/>
<polygon fill="#191970" stroke="#191970" points="2567.2143,-136.4129 2577.7663,-135.462 2568.9244,-129.625 2567.2143,-136.4129"/>
</g>
<!-- Node90 -->
<g id="node40" class="node">
<title>Node90</title>
<g id="a_node40"><a xlink:href="component_8c.html" target="_top" xlink:title="src/component.c">
<polygon fill="#ffffff" stroke="#000000" points="1575.958,-70.5 1575.958,-88.5 1665.3223,-88.5 1665.3223,-70.5 1575.958,-70.5"/>
<text text-anchor="middle" x="1620.6401" y="-76.5" font-family="Helvetica,sans-Serif" font-size="10.00" fill="#000000">src/component.c</text>
</a>
</g>
</g>
<!-- Node54&#45;&gt;Node90 -->
<g id="edge48" class="edge">
<title>Node54&#45;&gt;Node90</title>
<path fill="none" stroke="#191970" d="M2545.5358,-138.5171C2511.6235,-135.6722 2469.9895,-132.3812 2432.6401,-130 2095.6118,-108.5132 2007.1873,-146.8776 1673.6401,-94 1665.6315,-92.7304 1657.0982,-90.7053 1649.2714,-88.5665"/>
<polygon fill="#191970" stroke="#191970" points="2545.54,-142.0298 2555.7991,-139.3842 2546.1293,-135.0547 2545.54,-142.0298"/>
</g>
<!-- Node55&#45;&gt;Node41 -->
<g id="edge24" class="edge">
<title>Node55&#45;&gt;Node41</title>
<path fill="none" stroke="#191970" d="M2158.9207,-65.0993C1865.724,-24.221 1785.9385,-67.0246 1496.6401,-29 1486.4455,-27.66 1475.5122,-25.6383 1465.4225,-23.5264"/>
<polygon fill="#191970" stroke="#191970" points="2158.6026,-68.589 2168.9944,-66.5248 2159.5834,-61.6581 2158.6026,-68.589"/>
</g>
<!-- Node57 -->
<g id="node19" class="node">
<title>Node57</title>
<g id="a_node19"><a xlink:href="cac_8c.html" target="_top" xlink:title="components/cac.c">
<polygon fill="#ffffff" stroke="#000000" points="1179.3423,-5.5 1179.3423,-23.5 1275.938,-23.5 1275.938,-5.5 1179.3423,-5.5"/>
<text text-anchor="middle" x="1227.6401" y="-11.5" font-family="Helvetica,sans-Serif" font-size="10.00" fill="#000000">components/cac.c</text>
</a>
</g>
</g>
<!-- Node56&#45;&gt;Node57 -->
<g id="edge26" class="edge">
<title>Node56&#45;&gt;Node57</title>
<path fill="none" stroke="#191970" d="M1227.6401,-55.3747C1227.6401,-44.2832 1227.6401,-31.7952 1227.6401,-23.5743"/>
<polygon fill="#191970" stroke="#191970" points="1224.1402,-55.3959 1227.6401,-65.396 1231.1402,-55.396 1224.1402,-55.3959"/>
</g>
<!-- Node59 -->
<g id="node21" class="node">
<title>Node59</title>
<g id="a_node21"><a xlink:href="channel__mgmt_8c.html" target="_top" xlink:title="components/channel\l_mgmt.c">
<polygon fill="#ffffff" stroke="#000000" points="3002.4976,-.5 3002.4976,-28.5 3110.7827,-28.5 3110.7827,-.5 3002.4976,-.5"/>
<text text-anchor="start" x="3010.4976" y="-16.5" font-family="Helvetica,sans-Serif" font-size="10.00" fill="#000000">components/channel</text>
<text text-anchor="middle" x="3056.6401" y="-6.5" font-family="Helvetica,sans-Serif" font-size="10.00" fill="#000000">_mgmt.c</text>
</a>
</g>
</g>
<!-- Node58&#45;&gt;Node59 -->
<g id="edge28" class="edge">
<title>Node58&#45;&gt;Node59</title>
<path fill="none" stroke="#191970" d="M3056.6401,-55.1081C3056.6401,-46.1539 3056.6401,-36.3227 3056.6401,-28.5765"/>
<polygon fill="#191970" stroke="#191970" points="3053.1402,-55.3959 3056.6401,-65.396 3060.1402,-55.396 3053.1402,-55.3959"/>
</g>
<!-- Node61 -->
<g id="node23" class="node">
<title>Node61</title>
<g id="a_node23"><a xlink:href="cluster_8c.html" target="_top" xlink:title="components/cluster.c">
<polygon fill="#ffffff" stroke="#000000" points="3902.6699,-5.5 3902.6699,-23.5 4012.6104,-23.5 4012.6104,-5.5 3902.6699,-5.5"/>
<text text-anchor="middle" x="3957.6401" y="-11.5" font-family="Helvetica,sans-Serif" font-size="10.00" fill="#000000">components/cluster.c</text>
</a>
</g>
</g>
<!-- Node60&#45;&gt;Node61 -->
<g id="edge30" class="edge">
<title>Node60&#45;&gt;Node61</title>
<path fill="none" stroke="#191970" d="M3955.7536,-55.3747C3956.2655,-44.2832 3956.8419,-31.7952 3957.2213,-23.5743"/>
<polygon fill="#191970" stroke="#191970" points="3952.256,-55.2452 3955.2911,-65.396 3959.2485,-55.568 3952.256,-55.2452"/>
</g>
<!-- Node63 -->
<g id="node25" class="node">
<title>Node63</title>
<g id="a_node25"><a xlink:href="conflict_8c.html" target="_top" xlink:title="components/conflict.c">
<polygon fill="#ffffff" stroke="#000000" points="3772.5615,-5.5 3772.5615,-23.5 3884.7188,-23.5 3884.7188,-5.5 3772.5615,-5.5"/>
<text text-anchor="middle" x="3828.6401" y="-11.5" font-family="Helvetica,sans-Serif" font-size="10.00" fill="#000000">components/conflict.c</text>
</a>
</g>
</g>
<!-- Node62&#45;&gt;Node63 -->
<g id="edge32" class="edge">
<title>Node62&#45;&gt;Node63</title>
<path fill="none" stroke="#191970" d="M3830.5267,-55.3747C3830.0147,-44.2832 3829.4384,-31.7952 3829.059,-23.5743"/>
<polygon fill="#191970" stroke="#191970" points="3827.0318,-55.568 3830.9892,-65.396 3834.0243,-55.2452 3827.0318,-55.568"/>
</g>
<!-- Node91&#45;&gt;Node50 -->
<g id="edge53" class="edge">
<title>Node91&#45;&gt;Node50</title>
<path fill="none" stroke="#191970" d="M1350.475,-127.1626C1343.6517,-117.8776 1336.018,-105.9204 1331.6401,-94 1322.7201,-69.712 1321.4831,-38.75 1321.4735,-23.6336"/>
<polygon fill="#191970" stroke="#191970" points="1347.7596,-129.3729 1356.6359,-135.1576 1353.3043,-125.1002 1347.7596,-129.3729"/>
</g>
<!-- Node91&#45;&gt;Node85 -->
<g id="edge51" class="edge">
<title>Node91&#45;&gt;Node85</title>
<path fill="none" stroke="#191970" d="M1418.3813,-133.6052C1425.8398,-132.2808 1433.4182,-131.0333 1440.6401,-130 1606.3851,-106.2852 1651.2745,-125.9019 1815.6401,-94 1822.7816,-92.6139 1830.3754,-90.6281 1837.3992,-88.5689"/>
<polygon fill="#191970" stroke="#191970" points="1417.5356,-130.2017 1408.3296,-135.4458 1418.7964,-137.0873 1417.5356,-130.2017"/>
</g>
<!-- Node91&#45;&gt;Node86 -->
<g id="edge52" class="edge">
<title>Node91&#45;&gt;Node86</title>
<path fill="none" stroke="#191970" d="M1420.3337,-133.6367C1427.1669,-132.374 1434.0586,-131.1337 1440.6401,-130 1544.3364,-112.1372 1571.0875,-112.6778 1674.6401,-94 1683.8004,-92.3478 1693.6015,-90.4191 1702.8816,-88.5178"/>
<polygon fill="#191970" stroke="#191970" points="1419.5934,-130.2144 1410.4072,-135.4929 1420.8802,-137.0951 1419.5934,-130.2144"/>
</g>
<!-- Node91&#45;&gt;Node90 -->
<g id="edge54" class="edge">
<title>Node91&#45;&gt;Node90</title>
<path fill="none" stroke="#191970" d="M1410.1235,-132.9515C1460.0764,-120.2681 1539.2528,-100.1647 1584.935,-88.5658"/>
<polygon fill="#191970" stroke="#191970" points="1409.0669,-129.6086 1400.2358,-135.462 1410.7897,-136.3933 1409.0669,-129.6086"/>
</g>
<!-- Node92&#45;&gt;Node50 -->
<g id="edge56" class="edge">
<title>Node92&#45;&gt;Node50</title>
<path fill="none" stroke="#191970" d="M1510.0138,-136.6223C1474.7334,-129.5498 1428.3714,-116.6657 1392.6401,-94 1362.7939,-75.0674 1337.9613,-40.1316 1327.2751,-23.6114"/>
<polygon fill="#191970" stroke="#191970" points="1509.6379,-140.1136 1520.1168,-138.5506 1510.9504,-133.2378 1509.6379,-140.1136"/>
</g>
<!-- Node92&#45;&gt;Node51 -->
<g id="edge57" class="edge">
<title>Node92&#45;&gt;Node51</title>
<path fill="none" stroke="#191970" d="M1510.1884,-134.8612C1468.6784,-126.0406 1415.6058,-111.6884 1402.6401,-94 1395.0204,-83.6047 1395.3074,-75.5997 1402.6401,-65 1405.8579,-60.3486 1472.2283,-36.7866 1510.3298,-23.5535"/>
<polygon fill="#191970" stroke="#191970" points="1509.69,-138.3321 1520.1915,-136.929 1511.1071,-131.477 1509.69,-138.3321"/>
</g>
<!-- Node93&#45;&gt;Node50 -->
<g id="edge59" class="edge">
<title>Node93&#45;&gt;Node50</title>
<path fill="none" stroke="#191970" d="M1436.2964,-66.2545C1408.2048,-53.5743 1366.5652,-34.7787 1341.9569,-23.6708"/>
<polygon fill="#191970" stroke="#191970" points="1435.0631,-69.5379 1445.6176,-70.462 1437.9431,-63.1577 1435.0631,-69.5379"/>
</g>
<!-- Node93&#45;&gt;Node51 -->
<g id="edge60" class="edge">
<title>Node93&#45;&gt;Node51</title>
<path fill="none" stroke="#191970" d="M1483.2491,-63.3791C1496.8245,-50.9509 1515.1258,-34.1962 1526.392,-23.8821"/>
<polygon fill="#191970" stroke="#191970" points="1480.5249,-61.1279 1475.5124,-70.462 1485.2517,-66.291 1480.5249,-61.1279"/>
</g>
<!-- Node96&#45;&gt;Node60 -->
<g id="edge91" class="edge">
<title>Node96&#45;&gt;Node60</title>
<path fill="none" stroke="#191970" d="M3134.2167,-186.3615C3145.7833,-168.4522 3166.1207,-142.0498 3191.6401,-130 3332.6899,-63.3991 3738.1947,-115.8476 3892.6401,-94 3895.7048,-93.5665 3898.8408,-93.0543 3901.9959,-92.4859"/>
<polygon fill="#191970" stroke="#191970" points="3130.9802,-184.9423 3128.7159,-195.2923 3136.9404,-188.6134 3130.9802,-184.9423"/>
</g>
<!-- Node104&#45;&gt;Node35 -->
<g id="edge93" class="edge">
<title>Node104&#45;&gt;Node35</title>
<path fill="none" stroke="#191970" d="M2385.285,-160.6848C2410.5182,-185.2385 2452.0412,-231.09 2466.244,-250.4761"/>
<polygon fill="#191970" stroke="#191970" points="2387.6901,-158.1421 2378.0252,-153.8014 2382.8737,-163.2217 2387.6901,-158.1421"/>
</g>
<!-- Node104&#45;&gt;Node38 -->
<g id="edge94" class="edge">
<title>Node104&#45;&gt;Node38</title>
<path fill="none" stroke="#191970" d="M2297.3449,-142.7189C2041.5437,-135.94 1148.2888,-111.2622 1021.6401,-94 1018.6202,-93.5884 1015.5311,-93.0933 1012.4241,-92.538"/>
<polygon fill="#191970" stroke="#191970" points="2297.522,-146.2247 2307.611,-142.9904 2297.7071,-139.2272 2297.522,-146.2247"/>
</g>
<!-- Node104&#45;&gt;Node43 -->
<g id="edge102" class="edge">
<title>Node104&#45;&gt;Node43</title>
<path fill="none" stroke="#191970" d="M2297.598,-143.014C2077.7757,-137.9959 1388.0947,-120.4975 1166.6401,-94 1163.561,-93.6316 1160.4176,-93.2048 1157.2491,-92.7338"/>
<polygon fill="#191970" stroke="#191970" points="2297.63,-146.5155 2307.7069,-143.2435 2297.7889,-139.5173 2297.63,-146.5155"/>
</g>
<!-- Node104&#45;&gt;Node58 -->
<g id="edge95" class="edge">
<title>Node104&#45;&gt;Node58</title>
<path fill="none" stroke="#191970" d="M2433.968,-139.0224C2596.6997,-125.9759 2993.7796,-94.1344 2994.6401,-94 2997.6983,-93.5224 3000.8292,-92.9758 3003.9803,-92.381"/>
<polygon fill="#191970" stroke="#191970" points="2433.283,-135.566 2423.5947,-139.8541 2433.8425,-142.5437 2433.283,-135.566"/>
</g>
<!-- Node104&#45;&gt;Node60 -->
<g id="edge96" class="edge">
<title>Node104&#45;&gt;Node60</title>
<path fill="none" stroke="#191970" d="M2433.725,-138.1842C2467.6325,-135.2583 2509.2681,-131.9953 2546.6401,-130 2845.4327,-114.0474 3595.8791,-132.2668 3892.6401,-94 3895.7099,-93.6042 3898.8499,-93.1214 3902.008,-92.5756"/>
<polygon fill="#191970" stroke="#191970" points="2433.1212,-134.7235 2423.4633,-139.0796 2433.7297,-141.697 2433.1212,-134.7235"/>
</g>
<!-- Node104&#45;&gt;Node70 -->
<g id="edge97" class="edge">
<title>Node104&#45;&gt;Node70</title>
<path fill="none" stroke="#191970" d="M2297.6991,-135.5948C2231.1821,-126.5105 2127.0875,-111.3187 2037.6401,-94 2034.6014,-93.4116 2031.4856,-92.7785 2028.3461,-92.1175"/>
<polygon fill="#191970" stroke="#191970" points="2297.2588,-139.067 2307.6389,-136.945 2298.201,-132.1307 2297.2588,-139.067"/>
</g>
<!-- Node104&#45;&gt;Node72 -->
<g id="edge98" class="edge">
<title>Node104&#45;&gt;Node72</title>
<path fill="none" stroke="#191970" d="M2433.6035,-134.6987C2496.1703,-125.3579 2591.4524,-110.3293 2673.6401,-94 2676.676,-93.3968 2679.7895,-92.7521 2682.9273,-92.0822"/>
<polygon fill="#191970" stroke="#191970" points="2432.8432,-131.2732 2423.4663,-136.2051 2433.8722,-138.1971 2432.8432,-131.2732"/>
</g>
<!-- Node104&#45;&gt;Node78 -->
<g id="edge99" class="edge">
<title>Node104&#45;&gt;Node78</title>
<path fill="none" stroke="#191970" d="M2391.7926,-130.7911C2412.565,-119.9023 2441.5154,-104.7267 2462.5332,-93.7093"/>
<polygon fill="#191970" stroke="#191970" points="2390.1138,-127.7193 2382.8818,-135.462 2393.3637,-133.9192 2390.1138,-127.7193"/>
</g>
<!-- Node104&#45;&gt;Node82 -->
<g id="edge100" class="edge">
<title>Node104&#45;&gt;Node82</title>
<path fill="none" stroke="#191970" d="M2409.6768,-132.9114C2451.7796,-121.8317 2515.2976,-105.1164 2560.0405,-93.342"/>
<polygon fill="#191970" stroke="#191970" points="2408.7644,-129.5323 2399.9844,-135.462 2410.5459,-136.3018 2408.7644,-129.5323"/>
</g>
<!-- Node104&#45;&gt;Node84 -->
<g id="edge101" class="edge">
<title>Node104&#45;&gt;Node84</title>
<path fill="none" stroke="#191970" d="M2433.5487,-136.7288C2548.1506,-123.6141 2777.5417,-97.3634 2880.9486,-85.5298"/>
<polygon fill="#191970" stroke="#191970" points="2433.0298,-133.2652 2423.4926,-137.8796 2433.8257,-140.2198 2433.0298,-133.2652"/>
</g>
<!-- Node104&#45;&gt;Node87 -->
<g id="edge103" class="edge">
<title>Node104&#45;&gt;Node87</title>
<path fill="none" stroke="#191970" d="M2362.6809,-125.2652C2361.1384,-115.2384 2359.2829,-103.1782 2357.8641,-93.9559"/>
<polygon fill="#191970" stroke="#191970" points="2359.2697,-126.1105 2364.2497,-135.462 2366.1883,-125.0461 2359.2697,-126.1105"/>
</g>
<!-- Node104&#45;&gt;Node93 -->
<g id="edge104" class="edge">
<title>Node104&#45;&gt;Node93</title>
<path fill="none" stroke="#191970" d="M2297.8521,-142.0348C2159.909,-136.6173 1836.7415,-121.8797 1566.6401,-94 1551.3981,-92.4267 1534.9251,-90.2612 1519.7933,-88.0832"/>
<polygon fill="#191970" stroke="#191970" points="2297.7279,-145.5325 2307.8564,-142.4241 2298.0001,-138.5378 2297.7279,-145.5325"/>
</g>
<!-- Node118&#45;&gt;Node39 -->
<g id="edge107" class="edge">
<title>Node118&#45;&gt;Node39</title>
<path fill="none" stroke="#191970" d="M847.8664,-202.6424C752.7228,-198.6935 546.3568,-187.3832 374.6401,-159 275.2155,-142.566 161.2578,-111.5978 98.7758,-93.5453"/>
<polygon fill="#191970" stroke="#191970" points="847.9565,-206.1488 858.0898,-203.056 848.2395,-199.1546 847.9565,-206.1488"/>
</g>
<!-- Node118&#45;&gt;Node46 -->
<g id="edge110" class="edge">
<title>Node118&#45;&gt;Node46</title>
<path fill="none" stroke="#191970" d="M847.9164,-200.3339C773.1597,-193.9665 632.2488,-180.2663 513.6401,-159 413.8649,-141.1105 299.151,-111.0937 235.2544,-93.5102"/>
<polygon fill="#191970" stroke="#191970" points="847.7583,-203.8328 858.0166,-201.1837 848.3453,-196.8575 847.7583,-203.8328"/>
</g>
<!-- Node118&#45;&gt;Node53 -->
<g id="edge106" class="edge">
<title>Node118&#45;&gt;Node53</title>
<path fill="none" stroke="#191970" d="M848.6111,-193.311C795.1735,-181.819 713.0284,-164.1534 663.5968,-153.5229"/>
<polygon fill="#191970" stroke="#191970" points="848.0566,-196.7717 858.5689,-195.4524 849.5283,-189.9281 848.0566,-196.7717"/>
</g>
<!-- Node118&#45;&gt;Node56 -->
<g id="edge108" class="edge">
<title>Node118&#45;&gt;Node56</title>
<path fill="none" stroke="#191970" d="M934.0421,-191.7317C995.6618,-168.1767 1126.7669,-118.0601 1190.8439,-93.5658"/>
<polygon fill="#191970" stroke="#191970" points="932.5116,-188.5696 924.4206,-195.4096 935.0111,-195.1082 932.5116,-188.5696"/>
</g>
<!-- Node118&#45;&gt;Node91 -->
<g id="edge109" class="edge">
<title>Node118&#45;&gt;Node91</title>
<path fill="none" stroke="#191970" d="M953.5486,-197.6584C1039.7845,-186.5072 1210.2376,-164.4658 1302.2437,-152.5685"/>
<polygon fill="#191970" stroke="#191970" points="952.929,-194.2093 943.4604,-198.9629 953.8268,-201.1515 952.929,-194.2093"/>
</g>
<!-- Node118&#45;&gt;Node104 -->
<g id="edge111" class="edge">
<title>Node118&#45;&gt;Node104</title>
<path fill="none" stroke="#191970" d="M953.437,-201.9312C994.406,-199.9615 1052.6235,-197.2144 1103.6401,-195 1568.0607,-174.8412 2128.753,-153.438 2307.7715,-146.6761"/>
<polygon fill="#191970" stroke="#191970" points="953.2276,-198.4371 943.4077,-202.4144 953.5645,-205.429 953.2276,-198.4371"/>
</g>
<!-- Node120&#45;&gt;Node38 -->
<g id="edge114" class="edge">
<title>Node120&#45;&gt;Node38</title>
<path fill="none" stroke="#191970" d="M1137.397,-189.973C1098.644,-165.7524 1021.3213,-117.4258 983.0971,-93.5356"/>
<polygon fill="#191970" stroke="#191970" points="1135.5986,-192.9764 1145.9337,-195.3085 1139.3087,-187.0404 1135.5986,-192.9764"/>
</g>
<!-- Node120&#45;&gt;Node39 -->
<g id="edge115" class="edge">
<title>Node120&#45;&gt;Node39</title>
<path fill="none" stroke="#191970" d="M1102.185,-201.2593C962.3606,-193.3858 611.5482,-172.8787 494.6401,-159 483.9244,-157.7279 122.2104,-96.1715 111.6401,-94 108.9108,-93.4393 106.117,-92.8429 103.3,-92.2239"/>
<polygon fill="#191970" stroke="#191970" points="1102.0983,-204.7599 1112.2789,-201.8264 1102.491,-197.7709 1102.0983,-204.7599"/>
</g>
<!-- Node120&#45;&gt;Node43 -->
<g id="edge120" class="edge">
<title>Node120&#45;&gt;Node43</title>
<path fill="none" stroke="#191970" d="M1156.6625,-185.3086C1152.9287,-169.7405 1146.4358,-147.574 1136.6401,-130 1129.1276,-116.5221 1117.6983,-103.3176 1108.511,-93.7929"/>
<polygon fill="#191970" stroke="#191970" points="1153.3029,-186.3234 1158.9015,-195.3183 1160.1341,-184.7954 1153.3029,-186.3234"/>
</g>
<!-- Node120&#45;&gt;Node46 -->
<g id="edge121" class="edge">
<title>Node120&#45;&gt;Node46</title>
<path fill="none" stroke="#191970" d="M1102.208,-201.4486C960.0099,-193.8354 603.7516,-173.5687 551.6401,-159 524.2662,-151.3471 521.6536,-138.8417 494.6401,-130 488.8445,-128.103 339.2589,-104.0383 250.3758,-89.8253"/>
<polygon fill="#191970" stroke="#191970" points="1102.301,-204.9584 1112.4733,-201.9961 1102.6739,-197.9684 1102.301,-204.9584"/>
</g>
<!-- Node120&#45;&gt;Node53 -->
<g id="edge113" class="edge">
<title>Node120&#45;&gt;Node53</title>
<path fill="none" stroke="#191970" d="M1102.166,-199.387C1017.3097,-191.7646 855.1426,-176.4356 717.6401,-159 704.9316,-157.3885 691.3078,-155.4559 678.4322,-153.5349"/>
<polygon fill="#191970" stroke="#191970" points="1102.1008,-202.8951 1112.373,-200.3001 1102.7247,-195.9229 1102.1008,-202.8951"/>
</g>
<!-- Node120&#45;&gt;Node56 -->
<g id="edge116" class="edge">
<title>Node120&#45;&gt;Node56</title>
<path fill="none" stroke="#191970" d="M1170.4178,-186.258C1183.8398,-161.2171 1207.6965,-116.7083 1219.9329,-93.8791"/>
<polygon fill="#191970" stroke="#191970" points="1167.3154,-184.6374 1165.676,-195.1047 1173.4851,-187.9444 1167.3154,-184.6374"/>
</g>
<!-- Node120&#45;&gt;Node66 -->
<g id="edge117" class="edge">
<title>Node120&#45;&gt;Node66</title>
<path fill="none" stroke="#191970" d="M1218.7718,-199.2309C1295.4952,-191.7182 1426.0538,-176.8433 1470.6401,-159 1491.3621,-150.7071 1490.6133,-137.4863 1511.6401,-130 1621.8066,-90.7768 1920.997,-111.3717 2036.6401,-94 2039.701,-93.5402 2042.834,-93.0075 2045.9868,-92.4234"/>
<polygon fill="#191970" stroke="#191970" points="1218.3924,-195.7512 1208.7759,-200.1979 1219.0665,-202.7186 1218.3924,-195.7512"/>
</g>
<!-- Node120&#45;&gt;Node70 -->
<g id="edge118" class="edge">
<title>Node120&#45;&gt;Node70</title>
<path fill="none" stroke="#191970" d="M1219.0637,-197.8024C1287.7503,-189.4115 1397.2553,-174.2717 1435.6401,-159 1457.0584,-150.4785 1456.8929,-137.6429 1478.6401,-130 1661.6607,-65.6786 1722.0063,-124.1704 1913.6401,-94 1916.6977,-93.5186 1919.8281,-92.9691 1922.9789,-92.3721"/>
<polygon fill="#191970" stroke="#191970" points="1218.3312,-194.3654 1208.8236,-199.0404 1219.1714,-201.3148 1218.3312,-194.3654"/>
</g>
<!-- Node120&#45;&gt;Node91 -->
<g id="edge119" class="edge">
<title>Node120&#45;&gt;Node91</title>
<path fill="none" stroke="#191970" d="M1201.3777,-192.5184C1240.4986,-181.0122 1298.7183,-163.8888 1334.0338,-153.5019"/>
<polygon fill="#191970" stroke="#191970" points="1200.2294,-189.2078 1191.6233,-195.3873 1202.2046,-195.9233 1200.2294,-189.2078"/>
</g>
<!-- Node122&#45;&gt;Node35 -->
<g id="edge123" class="edge">
<title>Node122&#45;&gt;Node35</title>
<path fill="none" stroke="#191970" d="M3223.1809,-214.5424C2959.9771,-241.835 2652.6244,-253.9426 2527.6134,-257.9233"/>
<polygon fill="#191970" stroke="#191970" points="3223.7305,-218.0041 3233.3118,-213.4821 3223.0018,-211.0422 3223.7305,-218.0041"/>
</g>
<!-- Node124&#45;&gt;Node35 -->
<g id="edge125" class="edge">
<title>Node124&#45;&gt;Node35</title>
<path fill="none" stroke="#191970" d="M3343.922,-214.5409C3032.5714,-245.1773 2665.9604,-255.557 2527.344,-258.4969"/>
<polygon fill="#191970" stroke="#191970" points="3344.4397,-218.0068 3354.0449,-213.5357 3343.7479,-211.0411 3344.4397,-218.0068"/>
</g>
</g>
</svg>
