<?xml version="1.0" encoding="UTF-8" standalone="no"?>
<!DOCTYPE svg PUBLIC "-//W3C//DTD SVG 1.1//EN"
 "http://www.w3.org/Graphics/SVG/1.1/DTD/svg11.dtd">
<!-- Generated by graphviz version 2.40.1 (20161225.0304)
 -->
<!-- Title: src/cli.c Pages: 1 -->
<svg width="1741pt" height="247pt"
 viewBox="0.00 0.00 1741.47 247.00" xmlns="http://www.w3.org/2000/svg" xmlns:xlink="http://www.w3.org/1999/xlink">
<g id="graph0" class="graph" transform="scale(1 1) rotate(0) translate(4 243)">
<title>src/cli.c</title>
<polygon fill="#ffffff" stroke="transparent" points="-4,4 -4,-243 1737.4678,-243 1737.4678,4 -4,4"/>
<!-- Node0 -->
<g id="node1" class="node">
<title>Node0</title>
<polygon fill="#bfbfbf" stroke="#000000" points="1297.7314,-220.5 1297.7314,-238.5 1347.0615,-238.5 1347.0615,-220.5 1297.7314,-220.5"/>
<text text-anchor="middle" x="1322.3965" y="-226.5" font-family="Helvetica,sans-Serif" font-size="10.00" fill="#000000">src/cli.c</text>
</g>
<!-- Node1 -->
<g id="node2" class="node">
<title>Node1</title>
<g id="a_node2"><a xlink:href="src_2include_2cli_8h.html" target="_top" xlink:title="cli.h">
<polygon fill="#ffffff" stroke="#000000" points="947.5049,-165.5 947.5049,-183.5 981.2881,-183.5 981.2881,-165.5 947.5049,-165.5"/>
<text text-anchor="middle" x="964.3965" y="-171.5" font-family="Helvetica,sans-Serif" font-size="10.00" fill="#000000">cli.h</text>
</a>
</g>
</g>
<!-- Node0&#45;&gt;Node1 -->
<g id="edge1" class="edge">
<title>Node0&#45;&gt;Node1</title>
<path fill="none" stroke="#191970" d="M1297.4808,-227.9146C1243.2686,-224.08 1110.567,-212.607 991.3196,-183.7414"/>
<polygon fill="#191970" stroke="#191970" points="991.8441,-180.2658 981.2966,-181.2655 990.1654,-187.0615 991.8441,-180.2658"/>
</g>
<!-- Node26 -->
<g id="node27" class="node">
<title>Node26</title>
<g id="a_node27"><a xlink:href="src_2include_2component_8h.html" target="_top" xlink:title="component.h">
<polygon fill="#ffffff" stroke="#000000" points="1089.4878,-165.5 1089.4878,-183.5 1163.3052,-183.5 1163.3052,-165.5 1089.4878,-165.5"/>
<text text-anchor="middle" x="1126.3965" y="-171.5" font-family="Helvetica,sans-Serif" font-size="10.00" fill="#000000">component.h</text>
</a>
</g>
</g>
<!-- Node0&#45;&gt;Node26 -->
<g id="edge29" class="edge">
<title>Node0&#45;&gt;Node26</title>
<path fill="none" stroke="#191970" d="M1297.5729,-222.5342C1265.07,-213.4135 1207.6165,-197.2913 1168.3098,-186.2614"/>
<polygon fill="#191970" stroke="#191970" points="1169.0597,-182.8367 1158.4859,-183.5047 1167.1684,-189.5764 1169.0597,-182.8367"/>
</g>
<!-- Node29 -->
<g id="node30" class="node">
<title>Node29</title>
<g id="a_node30"><a xlink:href="events_2include_2event_8h.html" target="_top" xlink:title="event.h">
<polygon fill="#ffffff" stroke="#000000" points="1180.9951,-165.5 1180.9951,-183.5 1229.7979,-183.5 1229.7979,-165.5 1180.9951,-165.5"/>
<text text-anchor="middle" x="1205.3965" y="-171.5" font-family="Helvetica,sans-Serif" font-size="10.00" fill="#000000">event.h</text>
</a>
</g>
</g>
<!-- Node0&#45;&gt;Node29 -->
<g id="edge36" class="edge">
<title>Node0&#45;&gt;Node29</title>
<path fill="none" stroke="#191970" d="M1303.0763,-220.4179C1284.2772,-211.5807 1255.488,-198.0473 1234.0276,-187.9591"/>
<polygon fill="#191970" stroke="#191970" points="1235.2843,-184.6824 1224.7454,-183.5956 1232.3063,-191.0174 1235.2843,-184.6824"/>
</g>
<!-- Node32 -->
<g id="node33" class="node">
<title>Node32</title>
<g id="a_node33"><a xlink:href="src_2include_2application_8h.html" target="_top" xlink:title="application.h">
<polygon fill="#ffffff" stroke="#000000" points="999.3203,-165.5 999.3203,-183.5 1071.4727,-183.5 1071.4727,-165.5 999.3203,-165.5"/>
<text text-anchor="middle" x="1035.3965" y="-171.5" font-family="Helvetica,sans-Serif" font-size="10.00" fill="#000000">application.h</text>
</a>
</g>
</g>
<!-- Node0&#45;&gt;Node32 -->
<g id="edge42" class="edge">
<title>Node0&#45;&gt;Node32</title>
<path fill="none" stroke="#191970" d="M1297.6266,-225.0305C1255.403,-217.3712 1166.55,-201.0791 1081.5403,-184.1971"/>
<polygon fill="#191970" stroke="#191970" points="1082.2227,-180.7643 1071.7316,-182.243 1080.855,-187.6294 1082.2227,-180.7643"/>
</g>
<!-- Node33 -->
<g id="node34" class="node">
<title>Node33</title>
<g id="a_node34"><a xlink:href="app__events_2include_2app__event_8h.html" target="_top" xlink:title="app_event.h">
<polygon fill="#ffffff" stroke="#000000" points="1247.8721,-165.5 1247.8721,-183.5 1318.9209,-183.5 1318.9209,-165.5 1247.8721,-165.5"/>
<text text-anchor="middle" x="1283.3965" y="-171.5" font-family="Helvetica,sans-Serif" font-size="10.00" fill="#000000">app_event.h</text>
</a>
</g>
</g>
<!-- Node0&#45;&gt;Node33 -->
<g id="edge47" class="edge">
<title>Node0&#45;&gt;Node33</title>
<path fill="none" stroke="#191970" d="M1315.9564,-220.4179C1310.5132,-212.7415 1302.5573,-201.5217 1295.8726,-192.0945"/>
<polygon fill="#191970" stroke="#191970" points="1298.6159,-189.9123 1289.9765,-183.7795 1292.9057,-193.9613 1298.6159,-189.9123"/>
</g>
<!-- Node36 -->
<g id="node37" class="node">
<title>Node36</title>
<polygon fill="#ffffff" stroke="#bfbfbf" points="1337.1626,-165.5 1337.1626,-183.5 1387.6304,-183.5 1387.6304,-165.5 1337.1626,-165.5"/>
<text text-anchor="middle" x="1362.3965" y="-171.5" font-family="Helvetica,sans-Serif" font-size="10.00" fill="#000000">signal.h</text>
</g>
<!-- Node0&#45;&gt;Node36 -->
<g id="edge53" class="edge">
<title>Node0&#45;&gt;Node36</title>
<path fill="none" stroke="#191970" d="M1329.0017,-220.4179C1334.5845,-212.7415 1342.7443,-201.5217 1349.6005,-192.0945"/>
<polygon fill="#191970" stroke="#191970" points="1352.5966,-193.9255 1355.6478,-183.7795 1346.9354,-189.8082 1352.5966,-193.9255"/>
</g>
<!-- Node37 -->
<g id="node38" class="node">
<title>Node37</title>
<polygon fill="#ffffff" stroke="#bfbfbf" points="1405.5,-165.5 1405.5,-183.5 1459.293,-183.5 1459.293,-165.5 1405.5,-165.5"/>
<text text-anchor="middle" x="1432.3965" y="-171.5" font-family="Helvetica,sans-Serif" font-size="10.00" fill="#000000">strings.h</text>
</g>
<!-- Node0&#45;&gt;Node37 -->
<g id="edge54" class="edge">
<title>Node0&#45;&gt;Node37</title>
<path fill="none" stroke="#191970" d="M1340.5607,-220.4179C1358.1555,-211.6205 1385.0583,-198.1691 1405.2053,-188.0956"/>
<polygon fill="#191970" stroke="#191970" points="1406.8262,-191.1983 1414.2052,-183.5956 1403.6957,-184.9373 1406.8262,-191.1983"/>
</g>
<!-- Node38 -->
<g id="node39" class="node">
<title>Node38</title>
<polygon fill="#ffffff" stroke="#bfbfbf" points="1477.3867,-165.5 1477.3867,-183.5 1543.4063,-183.5 1543.4063,-165.5 1477.3867,-165.5"/>
<text text-anchor="middle" x="1510.3965" y="-171.5" font-family="Helvetica,sans-Serif" font-size="10.00" fill="#000000">sys/types.h</text>
</g>
<!-- Node0&#45;&gt;Node38 -->
<g id="edge55" class="edge">
<title>Node0&#45;&gt;Node38</title>
<path fill="none" stroke="#191970" d="M1347.3614,-222.1964C1378.4942,-213.0884 1432.1439,-197.393 1469.3566,-186.5064"/>
<polygon fill="#191970" stroke="#191970" points="1470.7693,-189.7398 1479.3842,-183.5727 1468.8037,-183.0214 1470.7693,-189.7398"/>
</g>
<!-- Node39 -->
<g id="node40" class="node">
<title>Node39</title>
<polygon fill="#ffffff" stroke="#bfbfbf" points="1561.8867,-165.5 1561.8867,-183.5 1632.9063,-183.5 1632.9063,-165.5 1561.8867,-165.5"/>
<text text-anchor="middle" x="1597.3965" y="-171.5" font-family="Helvetica,sans-Serif" font-size="10.00" fill="#000000">sys/socket.h</text>
</g>
<!-- Node0&#45;&gt;Node39 -->
<g id="edge56" class="edge">
<title>Node0&#45;&gt;Node39</title>
<path fill="none" stroke="#191970" d="M1347.263,-224.6886C1387.823,-216.8174 1470.9901,-200.5813 1551.7144,-184.12"/>
<polygon fill="#191970" stroke="#191970" points="1552.4466,-187.5428 1561.5437,-182.1119 1551.0455,-180.6844 1552.4466,-187.5428"/>
</g>
<!-- Node40 -->
<g id="node41" class="node">
<title>Node40</title>
<g id="a_node41"><a xlink:href="cli__password_8h.html" target="_top" xlink:title="cli_password.h">
<polygon fill="#ffffff" stroke="#000000" points="1651.3252,-165.5 1651.3252,-183.5 1733.4678,-183.5 1733.4678,-165.5 1651.3252,-165.5"/>
<text text-anchor="middle" x="1692.3965" y="-171.5" font-family="Helvetica,sans-Serif" font-size="10.00" fill="#000000">cli_password.h</text>
</a>
</g>
</g>
<!-- Node0&#45;&gt;Node40 -->
<g id="edge57" class="edge">
<title>Node0&#45;&gt;Node40</title>
<path fill="none" stroke="#191970" d="M1347.3524,-226.3535C1399.7773,-219.658 1525.4048,-203.1646 1641.1313,-184.149"/>
<polygon fill="#191970" stroke="#191970" points="1641.9279,-187.5649 1651.2228,-182.4801 1640.7857,-180.6587 1641.9279,-187.5649"/>
</g>
<!-- Node2 -->
<g id="node3" class="node">
<title>Node2</title>
<g id="a_node3"><a xlink:href="src_2include_2common_8h.html" target="_top" xlink:title="common.h">
<polygon fill="#ffffff" stroke="#000000" points="982.0542,-55.5 982.0542,-73.5 1044.7388,-73.5 1044.7388,-55.5 982.0542,-55.5"/>
<text text-anchor="middle" x="1013.3965" y="-61.5" font-family="Helvetica,sans-Serif" font-size="10.00" fill="#000000">common.h</text>
</a>
</g>
</g>
<!-- Node1&#45;&gt;Node2 -->
<g id="edge2" class="edge">
<title>Node1&#45;&gt;Node2</title>
<path fill="none" stroke="#191970" d="M957.4534,-165.29C948.6169,-152.3522 935.6072,-128.3287 945.3965,-110 952.8998,-95.9513 966.8751,-85.4805 980.2137,-78.1485"/>
<polygon fill="#191970" stroke="#191970" points="981.9185,-81.2084 989.259,-73.5685 978.7563,-74.9633 981.9185,-81.2084"/>
</g>
<!-- Node25 -->
<g id="node26" class="node">
<title>Node25</title>
<g id="a_node26"><a xlink:href="src_2include_2context_8h.html" target="_top" xlink:title="context.h">
<polygon fill="#ffffff" stroke="#000000" points="1115.106,-110.5 1115.106,-128.5 1171.687,-128.5 1171.687,-110.5 1115.106,-110.5"/>
<text text-anchor="middle" x="1143.3965" y="-116.5" font-family="Helvetica,sans-Serif" font-size="10.00" fill="#000000">context.h</text>
</a>
</g>
</g>
<!-- Node1&#45;&gt;Node25 -->
<g id="edge27" class="edge">
<title>Node1&#45;&gt;Node25</title>
<path fill="none" stroke="#191970" d="M981.4067,-168.1155C984.3917,-167.0436 987.4766,-165.9666 990.3965,-165 1029.1599,-152.1678 1073.9863,-139.0342 1105.0553,-130.1971"/>
<polygon fill="#191970" stroke="#191970" points="1106.3673,-133.4633 1115.0357,-127.3715 1104.4604,-126.728 1106.3673,-133.4633"/>
</g>
<!-- Node3 -->
<g id="node4" class="node">
<title>Node3</title>
<polygon fill="#ffffff" stroke="#bfbfbf" points="1354.665,-.5 1354.665,-18.5 1400.1279,-18.5 1400.1279,-.5 1354.665,-.5"/>
<text text-anchor="middle" x="1377.3965" y="-6.5" font-family="Helvetica,sans-Serif" font-size="10.00" fill="#000000">stdio.h</text>
</g>
<!-- Node2&#45;&gt;Node3 -->
<g id="edge3" class="edge">
<title>Node2&#45;&gt;Node3</title>
<path fill="none" stroke="#191970" d="M1044.9126,-61.9046C1102.6929,-56.7804 1229.5302,-43.8358 1344.466,-19.1609"/>
<polygon fill="#191970" stroke="#191970" points="1345.4603,-22.5263 1354.4834,-16.9734 1343.9669,-15.6875 1345.4603,-22.5263"/>
</g>
<!-- Node4 -->
<g id="node5" class="node">
<title>Node4</title>
<polygon fill="#ffffff" stroke="#bfbfbf" points="1417.8843,-.5 1417.8843,-18.5 1468.9087,-18.5 1468.9087,-.5 1417.8843,-.5"/>
<text text-anchor="middle" x="1443.3965" y="-6.5" font-family="Helvetica,sans-Serif" font-size="10.00" fill="#000000">unistd.h</text>
</g>
<!-- Node2&#45;&gt;Node4 -->
<g id="edge4" class="edge">
<title>Node2&#45;&gt;Node4</title>
<path fill="none" stroke="#191970" d="M1044.9703,-62.5737C1110.8219,-58.1935 1267.6888,-45.8686 1407.8214,-19.0519"/>
<polygon fill="#191970" stroke="#191970" points="1408.7325,-22.4404 1417.8805,-17.096 1407.3963,-15.5691 1408.7325,-22.4404"/>
</g>
<!-- Node5 -->
<g id="node6" class="node">
<title>Node5</title>
<polygon fill="#ffffff" stroke="#bfbfbf" points="1486.5542,-.5 1486.5542,-18.5 1534.2388,-18.5 1534.2388,-.5 1486.5542,-.5"/>
<text text-anchor="middle" x="1510.3965" y="-6.5" font-family="Helvetica,sans-Serif" font-size="10.00" fill="#000000">stdlib.h</text>
</g>
<!-- Node2&#45;&gt;Node5 -->
<g id="edge5" class="edge">
<title>Node2&#45;&gt;Node5</title>
<path fill="none" stroke="#191970" d="M1044.9919,-63.4877C1119.0753,-60.6731 1309.7472,-50.8698 1476.4723,-19.0834"/>
<polygon fill="#191970" stroke="#191970" points="1477.2553,-22.4968 1486.4063,-17.1575 1475.923,-15.6248 1477.2553,-22.4968"/>
</g>
<!-- Node6 -->
<g id="node7" class="node">
<title>Node6</title>
<polygon fill="#ffffff" stroke="#bfbfbf" points="0,-.5 0,-18.5 48.793,-18.5 48.793,-.5 0,-.5"/>
<text text-anchor="middle" x="24.3965" y="-6.5" font-family="Helvetica,sans-Serif" font-size="10.00" fill="#000000">string.h</text>
</g>
<!-- Node2&#45;&gt;Node6 -->
<g id="edge6" class="edge">
<title>Node2&#45;&gt;Node6</title>
<path fill="none" stroke="#191970" d="M981.8937,-63.9854C840.2807,-61.5239 261.091,-49.8357 59.0281,-18.8713"/>
<polygon fill="#191970" stroke="#191970" points="59.5482,-15.4101 49.1209,-17.2865 58.4425,-22.3222 59.5482,-15.4101"/>
</g>
<!-- Node7 -->
<g id="node8" class="node">
<title>Node7</title>
<polygon fill="#ffffff" stroke="#bfbfbf" points="66.3301,-.5 66.3301,-18.5 118.4629,-18.5 118.4629,-.5 66.3301,-.5"/>
<text text-anchor="middle" x="92.3965" y="-6.5" font-family="Helvetica,sans-Serif" font-size="10.00" fill="#000000">stdarg.h</text>
</g>
<!-- Node2&#45;&gt;Node7 -->
<g id="edge7" class="edge">
<title>Node2&#45;&gt;Node7</title>
<path fill="none" stroke="#191970" d="M981.9416,-63.7862C847.1258,-60.5909 316.8251,-46.6 128.6719,-18.8166"/>
<polygon fill="#191970" stroke="#191970" points="129.0553,-15.3345 118.6386,-17.2691 127.9881,-22.2526 129.0553,-15.3345"/>
</g>
<!-- Node8 -->
<g id="node9" class="node">
<title>Node8</title>
<polygon fill="#ffffff" stroke="#bfbfbf" points="136.2759,-.5 136.2759,-18.5 184.5171,-18.5 184.5171,-.5 136.2759,-.5"/>
<text text-anchor="middle" x="160.3965" y="-6.5" font-family="Helvetica,sans-Serif" font-size="10.00" fill="#000000">stdint.h</text>
</g>
<!-- Node2&#45;&gt;Node8 -->
<g id="edge8" class="edge">
<title>Node2&#45;&gt;Node8</title>
<path fill="none" stroke="#191970" d="M981.6607,-63.693C852.9301,-60.2752 368.6934,-45.9862 194.7817,-18.8155"/>
<polygon fill="#191970" stroke="#191970" points="195.1972,-15.337 184.7633,-17.1764 194.0669,-22.2452 195.1972,-15.337"/>
</g>
<!-- Node9 -->
<g id="node10" class="node">
<title>Node9</title>
<polygon fill="#ffffff" stroke="#bfbfbf" points="202.2686,-.5 202.2686,-18.5 260.5244,-18.5 260.5244,-.5 202.2686,-.5"/>
<text text-anchor="middle" x="231.3965" y="-6.5" font-family="Helvetica,sans-Serif" font-size="10.00" fill="#000000">pthread.h</text>
</g>
<!-- Node2&#45;&gt;Node9 -->
<g id="edge9" class="edge">
<title>Node2&#45;&gt;Node9</title>
<path fill="none" stroke="#191970" d="M981.7421,-63.341C861.0765,-58.8052 429.1966,-41.4662 270.7791,-18.8981"/>
<polygon fill="#191970" stroke="#191970" points="271.1526,-15.4152 260.7461,-17.4041 270.1215,-22.3389 271.1526,-15.4152"/>
</g>
<!-- Node10 -->
<g id="node11" class="node">
<title>Node10</title>
<polygon fill="#ffffff" stroke="#bfbfbf" points="278.2759,-.5 278.2759,-18.5 326.5171,-18.5 326.5171,-.5 278.2759,-.5"/>
<text text-anchor="middle" x="302.3965" y="-6.5" font-family="Helvetica,sans-Serif" font-size="10.00" fill="#000000">ctype.h</text>
</g>
<!-- Node2&#45;&gt;Node10 -->
<g id="edge10" class="edge">
<title>Node2&#45;&gt;Node10</title>
<path fill="none" stroke="#191970" d="M981.7875,-63.2747C868.3027,-58.7394 480.9491,-42.0517 336.7257,-18.8274"/>
<polygon fill="#191970" stroke="#191970" points="337.2124,-15.3601 326.7688,-17.144 336.0454,-22.2622 337.2124,-15.3601"/>
</g>
<!-- Node11 -->
<g id="node12" class="node">
<title>Node11</title>
<polygon fill="#ffffff" stroke="#bfbfbf" points="344.5542,-.5 344.5542,-18.5 392.2388,-18.5 392.2388,-.5 344.5542,-.5"/>
<text text-anchor="middle" x="368.3965" y="-6.5" font-family="Helvetica,sans-Serif" font-size="10.00" fill="#000000">errno.h</text>
</g>
<!-- Node2&#45;&gt;Node11 -->
<g id="edge11" class="edge">
<title>Node2&#45;&gt;Node11</title>
<path fill="none" stroke="#191970" d="M981.8572,-63.0548C875.9249,-58.0646 532.6578,-40.7561 402.4738,-18.9969"/>
<polygon fill="#191970" stroke="#191970" points="402.8302,-15.5059 392.3749,-17.2195 401.6168,-22.4 402.8302,-15.5059"/>
</g>
<!-- Node12 -->
<g id="node13" class="node">
<title>Node12</title>
<polygon fill="#ffffff" stroke="#bfbfbf" points="409.7686,-.5 409.7686,-18.5 473.0244,-18.5 473.0244,-.5 409.7686,-.5"/>
<text text-anchor="middle" x="441.3965" y="-6.5" font-family="Helvetica,sans-Serif" font-size="10.00" fill="#000000">arpa/inet.h</text>
</g>
<!-- Node2&#45;&gt;Node12 -->
<g id="edge12" class="edge">
<title>Node2&#45;&gt;Node12</title>
<path fill="none" stroke="#191970" d="M981.7864,-63.3605C900.6288,-60.102 678.2152,-49.0732 483.2377,-18.9046"/>
<polygon fill="#191970" stroke="#191970" points="483.5148,-15.4053 473.0932,-17.3135 482.4301,-22.3208 483.5148,-15.4053"/>
</g>
<!-- Node13 -->
<g id="node14" class="node">
<title>Node13</title>
<polygon fill="#ffffff" stroke="#bfbfbf" points="490.9336,-.5 490.9336,-18.5 555.8594,-18.5 555.8594,-.5 490.9336,-.5"/>
<text text-anchor="middle" x="523.3965" y="-6.5" font-family="Helvetica,sans-Serif" font-size="10.00" fill="#000000">netinet/in.h</text>
</g>
<!-- Node2&#45;&gt;Node13 -->
<g id="edge13" class="edge">
<title>Node2&#45;&gt;Node13</title>
<path fill="none" stroke="#191970" d="M981.9152,-62.6865C909.9246,-58.2464 727.6342,-45.3409 566.1126,-19.1111"/>
<polygon fill="#191970" stroke="#191970" points="566.4313,-15.6165 555.9957,-17.446 565.2945,-22.5236 566.4313,-15.6165"/>
</g>
<!-- Node14 -->
<g id="node15" class="node">
<title>Node14</title>
<polygon fill="#ffffff" stroke="#bfbfbf" points="573.5396,-.5 573.5396,-18.5 651.2534,-18.5 651.2534,-.5 573.5396,-.5"/>
<text text-anchor="middle" x="612.3965" y="-6.5" font-family="Helvetica,sans-Serif" font-size="10.00" fill="#000000">net/ethernet.h</text>
</g>
<!-- Node2&#45;&gt;Node14 -->
<g id="edge14" class="edge">
<title>Node2&#45;&gt;Node14</title>
<path fill="none" stroke="#191970" d="M981.6498,-61.1322C921.3271,-54.5772 785.7977,-39.105 661.4645,-19.0817"/>
<polygon fill="#191970" stroke="#191970" points="661.8214,-15.5939 651.3895,-17.445 660.6989,-22.5033 661.8214,-15.5939"/>
</g>
<!-- Node15 -->
<g id="node16" class="node">
<title>Node15</title>
<polygon fill="#ffffff" stroke="#bfbfbf" points="668.9336,-.5 668.9336,-18.5 733.8594,-18.5 733.8594,-.5 668.9336,-.5"/>
<text text-anchor="middle" x="701.3965" y="-6.5" font-family="Helvetica,sans-Serif" font-size="10.00" fill="#000000">netinet/ip.h</text>
</g>
<!-- Node2&#45;&gt;Node15 -->
<g id="edge15" class="edge">
<title>Node2&#45;&gt;Node15</title>
<path fill="none" stroke="#191970" d="M981.7017,-59.7428C932.9263,-52.2954 836.3141,-37.0439 743.9904,-19.0239"/>
<polygon fill="#191970" stroke="#191970" points="744.4054,-15.5385 733.918,-17.0433 743.0548,-22.407 744.4054,-15.5385"/>
</g>
<!-- Node16 -->
<g id="node17" class="node">
<title>Node16</title>
<polygon fill="#ffffff" stroke="#bfbfbf" points="752.1553,-.5 752.1553,-18.5 822.6377,-18.5 822.6377,-.5 752.1553,-.5"/>
<text text-anchor="middle" x="787.3965" y="-6.5" font-family="Helvetica,sans-Serif" font-size="10.00" fill="#000000">netinet/tcp.h</text>
</g>
<!-- Node2&#45;&gt;Node16 -->
<g id="edge16" class="edge">
<title>Node2&#45;&gt;Node16</title>
<path fill="none" stroke="#191970" d="M981.9722,-56.8525C943.1522,-47.4052 876.829,-31.2645 832.5594,-20.491"/>
<polygon fill="#191970" stroke="#191970" points="833.1832,-17.0407 822.6392,-18.0768 831.5279,-23.8422 833.1832,-17.0407"/>
</g>
<!-- Node17 -->
<g id="node18" class="node">
<title>Node17</title>
<polygon fill="#ffffff" stroke="#bfbfbf" points="840.5962,-.5 840.5962,-18.5 932.1968,-18.5 932.1968,-.5 840.5962,-.5"/>
<text text-anchor="middle" x="886.3965" y="-6.5" font-family="Helvetica,sans-Serif" font-size="10.00" fill="#000000">netinet/ip_icmp.h</text>
</g>
<!-- Node2&#45;&gt;Node17 -->
<g id="edge17" class="edge">
<title>Node2&#45;&gt;Node17</title>
<path fill="none" stroke="#191970" d="M992.425,-55.4179C971.8353,-46.5011 940.2053,-32.803 916.8471,-22.6873"/>
<polygon fill="#191970" stroke="#191970" points="917.9665,-19.358 907.3991,-18.5956 915.1846,-25.7815 917.9665,-19.358"/>
</g>
<!-- Node18 -->
<g id="node19" class="node">
<title>Node18</title>
<polygon fill="#ffffff" stroke="#bfbfbf" points="949.9927,-.5 949.9927,-18.5 1008.8003,-18.5 1008.8003,-.5 949.9927,-.5"/>
<text text-anchor="middle" x="979.3965" y="-6.5" font-family="Helvetica,sans-Serif" font-size="10.00" fill="#000000">jansson.h</text>
</g>
<!-- Node2&#45;&gt;Node18 -->
<g id="edge18" class="edge">
<title>Node2&#45;&gt;Node18</title>
<path fill="none" stroke="#191970" d="M1007.7821,-55.4179C1003.0856,-47.8207 996.2436,-36.7527 990.4537,-27.3866"/>
<polygon fill="#191970" stroke="#191970" points="993.3682,-25.445 985.1329,-18.7795 987.4141,-29.1258 993.3682,-25.445"/>
</g>
<!-- Node19 -->
<g id="node20" class="node">
<title>Node19</title>
<polygon fill="#ffffff" stroke="#bfbfbf" points="1026.5024,-.5 1026.5024,-18.5 1070.2905,-18.5 1070.2905,-.5 1026.5024,-.5"/>
<text text-anchor="middle" x="1048.3965" y="-6.5" font-family="Helvetica,sans-Serif" font-size="10.00" fill="#000000">libcli.h</text>
</g>
<!-- Node2&#45;&gt;Node19 -->
<g id="edge19" class="edge">
<title>Node2&#45;&gt;Node19</title>
<path fill="none" stroke="#191970" d="M1019.176,-55.4179C1024.0106,-47.8207 1031.0539,-36.7527 1037.0141,-27.3866"/>
<polygon fill="#191970" stroke="#191970" points="1040.0754,-29.0952 1042.4914,-18.7795 1034.1698,-25.337 1040.0754,-29.0952"/>
</g>
<!-- Node20 -->
<g id="node21" class="node">
<title>Node20</title>
<polygon fill="#ffffff" stroke="#bfbfbf" points="1088.7808,-.5 1088.7808,-18.5 1132.0122,-18.5 1132.0122,-.5 1088.7808,-.5"/>
<text text-anchor="middle" x="1110.3965" y="-6.5" font-family="Helvetica,sans-Serif" font-size="10.00" fill="#000000">zmq.h</text>
</g>
<!-- Node2&#45;&gt;Node20 -->
<g id="edge20" class="edge">
<title>Node2&#45;&gt;Node20</title>
<path fill="none" stroke="#191970" d="M1029.4141,-55.4179C1044.5784,-46.8195 1067.5835,-33.7754 1085.204,-23.7844"/>
<polygon fill="#191970" stroke="#191970" points="1087.3825,-26.5727 1094.3551,-18.5956 1083.9298,-20.4834 1087.3825,-26.5727"/>
</g>
<!-- Node21 -->
<g id="node22" class="node">
<title>Node21</title>
<g id="a_node22"><a xlink:href="mac2int_8h.html" target="_top" xlink:title="mac2int.h">
<polygon fill="#ffffff" stroke="#000000" points="1149.7192,-.5 1149.7192,-18.5 1209.0737,-18.5 1209.0737,-.5 1149.7192,-.5"/>
<text text-anchor="middle" x="1179.3965" y="-6.5" font-family="Helvetica,sans-Serif" font-size="10.00" fill="#000000">mac2int.h</text>
</a>
</g>
</g>
<!-- Node2&#45;&gt;Node21 -->
<g id="edge21" class="edge">
<title>Node2&#45;&gt;Node21</title>
<path fill="none" stroke="#191970" d="M1035.6417,-55.4179C1062.3798,-45.9061 1107.3766,-30.9538 1139.9921,-20.7127"/>
<polygon fill="#191970" stroke="#191970" points="1141.1744,-24.0104 1149.6827,-17.6969 1139.0943,-17.3266 1141.1744,-24.0104"/>
</g>
<!-- Node22 -->
<g id="node23" class="node">
<title>Node22</title>
<g id="a_node23"><a xlink:href="ip2int_8h.html" target="_top" xlink:title="ip2int.h">
<polygon fill="#ffffff" stroke="#000000" points="1227.2734,-.5 1227.2734,-18.5 1275.5195,-18.5 1275.5195,-.5 1227.2734,-.5"/>
<text text-anchor="middle" x="1251.3965" y="-6.5" font-family="Helvetica,sans-Serif" font-size="10.00" fill="#000000">ip2int.h</text>
</a>
</g>
</g>
<!-- Node2&#45;&gt;Node22 -->
<g id="edge23" class="edge">
<title>Node2&#45;&gt;Node22</title>
<path fill="none" stroke="#191970" d="M1045.0687,-56.733C1084.0341,-48.1895 1151.6338,-33.7096 1209.3965,-19 1211.962,-18.3467 1214.6305,-17.6341 1217.3359,-16.9026"/>
<polygon fill="#191970" stroke="#191970" points="1218.4373,-20.2306 1227.177,-14.2417 1216.6101,-13.4733 1218.4373,-20.2306"/>
</g>
<!-- Node23 -->
<g id="node24" class="node">
<title>Node23</title>
<g id="a_node24"><a xlink:href="src_2include_2type_8h.html" target="_top" xlink:title="type.h">
<polygon fill="#ffffff" stroke="#000000" points="1551.7759,-.5 1551.7759,-18.5 1595.0171,-18.5 1595.0171,-.5 1551.7759,-.5"/>
<text text-anchor="middle" x="1573.3965" y="-6.5" font-family="Helvetica,sans-Serif" font-size="10.00" fill="#000000">type.h</text>
</a>
</g>
</g>
<!-- Node2&#45;&gt;Node23 -->
<g id="edge25" class="edge">
<title>Node2&#45;&gt;Node23</title>
<path fill="none" stroke="#191970" d="M1045.0674,-62.7026C1141.0851,-57.1129 1428.7779,-39.2941 1541.5483,-18.9341"/>
<polygon fill="#191970" stroke="#191970" points="1542.4197,-22.3311 1551.5873,-17.0202 1541.1087,-15.455 1542.4197,-22.3311"/>
</g>
<!-- Node24 -->
<g id="node25" class="node">
<title>Node24</title>
<polygon fill="#ffffff" stroke="#bfbfbf" points="1293.7808,-.5 1293.7808,-18.5 1337.0122,-18.5 1337.0122,-.5 1293.7808,-.5"/>
<text text-anchor="middle" x="1315.3965" y="-6.5" font-family="Helvetica,sans-Serif" font-size="10.00" fill="#000000">time.h</text>
</g>
<!-- Node2&#45;&gt;Node24 -->
<g id="edge26" class="edge">
<title>Node2&#45;&gt;Node24</title>
<path fill="none" stroke="#191970" d="M1044.9602,-60.5679C1094.0468,-54.158 1191.7555,-40.2213 1283.7368,-18.8973"/>
<polygon fill="#191970" stroke="#191970" points="1284.5455,-22.3026 1293.4783,-16.6056 1282.9425,-15.4887 1284.5455,-22.3026"/>
</g>
<!-- Node21&#45;&gt;Node2 -->
<g id="edge22" class="edge">
<title>Node21&#45;&gt;Node2</title>
<path fill="none" stroke="#191970" d="M1157.2703,-18.5398C1131.0013,-27.8877 1086.9927,-42.523 1054.4779,-52.76"/>
<polygon fill="#191970" stroke="#191970" points="1053.291,-49.4639 1044.7884,-55.7851 1055.3771,-56.1458 1053.291,-49.4639"/>
</g>
<!-- Node22&#45;&gt;Node2 -->
<g id="edge24" class="edge">
<title>Node22&#45;&gt;Node2</title>
<path fill="none" stroke="#191970" d="M1229.1435,-18.5501C1228.5572,-18.7027 1227.9742,-18.8529 1227.3965,-19 1168.0337,-34.117 1098.2812,-48.9916 1054.8073,-57.4293"/>
<polygon fill="#191970" stroke="#191970" points="1054.0401,-54.0125 1044.8771,-59.3313 1055.357,-60.8875 1054.0401,-54.0125"/>
</g>
<!-- Node25&#45;&gt;Node2 -->
<g id="edge28" class="edge">
<title>Node25&#45;&gt;Node2</title>
<path fill="none" stroke="#191970" d="M1121.9296,-110.4179C1100.7595,-101.4613 1068.1871,-87.6806 1044.2467,-77.552"/>
<polygon fill="#191970" stroke="#191970" points="1045.4687,-74.2687 1034.8952,-73.5956 1042.7412,-80.7155 1045.4687,-74.2687"/>
</g>
<!-- Node26&#45;&gt;Node2 -->
<g id="edge30" class="edge">
<title>Node26&#45;&gt;Node2</title>
<path fill="none" stroke="#191970" d="M1118.911,-165.3543C1108.2233,-152.493 1087.7378,-128.5598 1068.3965,-110 1057.3899,-99.4382 1044.2519,-88.5136 1033.5769,-80.0171"/>
<polygon fill="#191970" stroke="#191970" points="1035.6579,-77.2011 1025.6316,-73.7769 1031.3342,-82.7062 1035.6579,-77.2011"/>
</g>
<!-- Node26&#45;&gt;Node25 -->
<g id="edge31" class="edge">
<title>Node26&#45;&gt;Node25</title>
<path fill="none" stroke="#191970" d="M1129.2037,-165.4179C1131.4541,-158.1372 1134.6897,-147.669 1137.5034,-138.5659"/>
<polygon fill="#191970" stroke="#191970" points="1140.9191,-139.3671 1140.5283,-128.7795 1134.2312,-137.2999 1140.9191,-139.3671"/>
</g>
<!-- Node27 -->
<g id="node28" class="node">
<title>Node27</title>
<g id="a_node28"><a xlink:href="hash_8h.html" target="_top" xlink:title="hash.h">
<polygon fill="#ffffff" stroke="#000000" points="961.3843,-110.5 961.3843,-128.5 1007.4087,-128.5 1007.4087,-110.5 961.3843,-110.5"/>
<text text-anchor="middle" x="984.3965" y="-116.5" font-family="Helvetica,sans-Serif" font-size="10.00" fill="#000000">hash.h</text>
</a>
</g>
</g>
<!-- Node26&#45;&gt;Node27 -->
<g id="edge32" class="edge">
<title>Node26&#45;&gt;Node27</title>
<path fill="none" stroke="#191970" d="M1102.9481,-165.4179C1079.6182,-156.3817 1043.6112,-142.4353 1017.3993,-132.2828"/>
<polygon fill="#191970" stroke="#191970" points="1018.4689,-128.9437 1007.8797,-128.5956 1015.9406,-135.4712 1018.4689,-128.9437"/>
</g>
<!-- Node28 -->
<g id="node29" class="node">
<title>Node28</title>
<g id="a_node29"><a xlink:href="str_8h.html" target="_top" xlink:title="str.h">
<polygon fill="#ffffff" stroke="#000000" points="1024.9458,-110.5 1024.9458,-128.5 1059.8472,-128.5 1059.8472,-110.5 1024.9458,-110.5"/>
<text text-anchor="middle" x="1042.3965" y="-116.5" font-family="Helvetica,sans-Serif" font-size="10.00" fill="#000000">str.h</text>
</a>
</g>
</g>
<!-- Node26&#45;&gt;Node28 -->
<g id="edge34" class="edge">
<title>Node26&#45;&gt;Node28</title>
<path fill="none" stroke="#191970" d="M1112.5256,-165.4179C1099.6368,-156.9788 1080.2071,-144.257 1065.0651,-134.3426"/>
<polygon fill="#191970" stroke="#191970" points="1066.5714,-131.1454 1056.288,-128.5956 1062.7369,-137.0017 1066.5714,-131.1454"/>
</g>
<!-- Node27&#45;&gt;Node2 -->
<g id="edge33" class="edge">
<title>Node27&#45;&gt;Node2</title>
<path fill="none" stroke="#191970" d="M989.1852,-110.4179C993.1493,-102.8998 998.9055,-91.9829 1003.8107,-82.6799"/>
<polygon fill="#191970" stroke="#191970" points="1006.9355,-84.2576 1008.5037,-73.7795 1000.7435,-80.9927 1006.9355,-84.2576"/>
</g>
<!-- Node28&#45;&gt;Node2 -->
<g id="edge35" class="edge">
<title>Node28&#45;&gt;Node2</title>
<path fill="none" stroke="#191970" d="M1037.6077,-110.4179C1033.6437,-102.8998 1027.8875,-91.9829 1022.9822,-82.6799"/>
<polygon fill="#191970" stroke="#191970" points="1026.0494,-80.9927 1018.2893,-73.7795 1019.8574,-84.2576 1026.0494,-80.9927"/>
</g>
<!-- Node29&#45;&gt;Node2 -->
<g id="edge37" class="edge">
<title>Node29&#45;&gt;Node2</title>
<path fill="none" stroke="#191970" d="M1204.4074,-165.1156C1202.4189,-151.0602 1196.6329,-124.6333 1180.3965,-110 1162.0045,-93.4239 1098.0926,-79.3348 1054.8848,-71.3993"/>
<polygon fill="#191970" stroke="#191970" points="1055.3875,-67.9337 1044.9263,-69.6113 1054.1504,-74.8235 1055.3875,-67.9337"/>
</g>
<!-- Node29&#45;&gt;Node25 -->
<g id="edge38" class="edge">
<title>Node29&#45;&gt;Node25</title>
<path fill="none" stroke="#191970" d="M1195.1584,-165.4179C1186.0591,-157.3458 1172.5428,-145.3556 1161.6038,-135.6517"/>
<polygon fill="#191970" stroke="#191970" points="1163.6604,-132.7974 1153.857,-128.7795 1159.0151,-138.0339 1163.6604,-132.7974"/>
</g>
<!-- Node30 -->
<g id="node31" class="node">
<title>Node30</title>
<g id="a_node31"><a xlink:href="events_2include_2event__id_8h.html" target="_top" xlink:title="event_id.h">
<polygon fill="#ffffff" stroke="#000000" points="1227.3228,-110.5 1227.3228,-128.5 1289.4702,-128.5 1289.4702,-110.5 1227.3228,-110.5"/>
<text text-anchor="middle" x="1258.3965" y="-116.5" font-family="Helvetica,sans-Serif" font-size="10.00" fill="#000000">event_id.h</text>
</a>
</g>
</g>
<!-- Node29&#45;&gt;Node30 -->
<g id="edge39" class="edge">
<title>Node29&#45;&gt;Node30</title>
<path fill="none" stroke="#191970" d="M1214.1484,-165.4179C1221.7743,-157.5041 1233.0294,-145.8243 1242.2796,-136.2251"/>
<polygon fill="#191970" stroke="#191970" points="1245.0358,-138.4089 1249.4545,-128.7795 1239.9952,-133.5516 1245.0358,-138.4089"/>
</g>
<!-- Node31 -->
<g id="node32" class="node">
<title>Node31</title>
<g id="a_node32"><a xlink:href="events_2include_2event__list_8h.html" target="_top" xlink:title="event_list.h">
<polygon fill="#ffffff" stroke="#000000" points="1352.1035,-55.5 1352.1035,-73.5 1418.6895,-73.5 1418.6895,-55.5 1352.1035,-55.5"/>
<text text-anchor="middle" x="1385.3965" y="-61.5" font-family="Helvetica,sans-Serif" font-size="10.00" fill="#000000">event_list.h</text>
</a>
</g>
</g>
<!-- Node29&#45;&gt;Node31 -->
<g id="edge40" class="edge">
<title>Node29&#45;&gt;Node31</title>
<path fill="none" stroke="#191970" d="M1226.6602,-165.4375C1245.8963,-156.9288 1274.7471,-143.3854 1298.3965,-129 1323.0195,-114.0224 1349.3463,-93.8569 1366.5091,-80.0856"/>
<polygon fill="#191970" stroke="#191970" points="1369.0308,-82.5468 1374.5913,-73.5283 1364.6205,-77.1108 1369.0308,-82.5468"/>
</g>
<!-- Node31&#45;&gt;Node23 -->
<g id="edge41" class="edge">
<title>Node31&#45;&gt;Node23</title>
<path fill="none" stroke="#191970" d="M1417.8481,-55.4241C1447.8407,-46.9764 1493.8778,-33.8603 1541.8467,-19.4231"/>
<polygon fill="#191970" stroke="#191970" points="1542.9011,-22.7609 1551.4621,-16.5191 1540.8772,-16.0599 1542.9011,-22.7609"/>
</g>
<!-- Node32&#45;&gt;Node2 -->
<g id="edge43" class="edge">
<title>Node32&#45;&gt;Node2</title>
<path fill="none" stroke="#191970" d="M1002.3581,-165.4836C984.1894,-158.6508 963.1983,-147.2399 952.3965,-129 940.698,-109.246 963.2658,-90.6428 984.184,-78.5392"/>
<polygon fill="#191970" stroke="#191970" points="986.1336,-81.4631 993.2458,-73.6102 982.7889,-75.3139 986.1336,-81.4631"/>
</g>
<!-- Node32&#45;&gt;Node25 -->
<g id="edge44" class="edge">
<title>Node32&#45;&gt;Node25</title>
<path fill="none" stroke="#191970" d="M1053.2305,-165.4179C1070.4272,-156.6603 1096.6801,-143.2907 1116.4307,-133.2326"/>
<polygon fill="#191970" stroke="#191970" points="1118.2133,-136.2526 1125.536,-128.5956 1115.0366,-130.0148 1118.2133,-136.2526"/>
</g>
<!-- Node32&#45;&gt;Node27 -->
<g id="edge45" class="edge">
<title>Node32&#45;&gt;Node27</title>
<path fill="none" stroke="#191970" d="M1026.9749,-165.4179C1019.6367,-157.5041 1008.8063,-145.8243 999.9052,-136.2251"/>
<polygon fill="#191970" stroke="#191970" points="1002.3669,-133.7324 993.0011,-128.7795 997.2341,-138.492 1002.3669,-133.7324"/>
</g>
<!-- Node32&#45;&gt;Node28 -->
<g id="edge46" class="edge">
<title>Node32&#45;&gt;Node28</title>
<path fill="none" stroke="#191970" d="M1036.5524,-165.4179C1037.4689,-158.2164 1038.7824,-147.8962 1039.9321,-138.8632"/>
<polygon fill="#191970" stroke="#191970" points="1043.4248,-139.1414 1041.2155,-128.7795 1036.4808,-138.2575 1043.4248,-139.1414"/>
</g>
<!-- Node33&#45;&gt;Node2 -->
<g id="edge48" class="edge">
<title>Node33&#45;&gt;Node2</title>
<path fill="none" stroke="#191970" d="M1289.8359,-165.4379C1298.6655,-151.8036 1311.9758,-125.9192 1298.3965,-110 1282.7904,-91.7048 1130.3263,-75.2623 1055.0356,-68.1817"/>
<polygon fill="#191970" stroke="#191970" points="1055.2269,-64.6845 1044.9462,-67.2456 1054.5801,-71.6546 1055.2269,-64.6845"/>
</g>
<!-- Node33&#45;&gt;Node25 -->
<g id="edge49" class="edge">
<title>Node33&#45;&gt;Node25</title>
<path fill="none" stroke="#191970" d="M1260.2783,-165.4179C1237.2771,-156.3817 1201.7772,-142.4353 1175.9344,-132.2828"/>
<polygon fill="#191970" stroke="#191970" points="1177.1363,-128.9946 1166.549,-128.5956 1174.5767,-135.5098 1177.1363,-128.9946"/>
</g>
<!-- Node34 -->
<g id="node35" class="node">
<title>Node34</title>
<g id="a_node35"><a xlink:href="app__events_2include_2app__event__id_8h.html" target="_top" xlink:title="app_event_id.h">
<polygon fill="#ffffff" stroke="#000000" points="1421.1997,-110.5 1421.1997,-128.5 1505.5933,-128.5 1505.5933,-110.5 1421.1997,-110.5"/>
<text text-anchor="middle" x="1463.3965" y="-116.5" font-family="Helvetica,sans-Serif" font-size="10.00" fill="#000000">app_event_id.h</text>
</a>
</g>
</g>
<!-- Node33&#45;&gt;Node34 -->
<g id="edge50" class="edge">
<title>Node33&#45;&gt;Node34</title>
<path fill="none" stroke="#191970" d="M1313.1198,-165.4179C1343.4348,-156.155 1390.6357,-141.7325 1424.0387,-131.526"/>
<polygon fill="#191970" stroke="#191970" points="1425.3874,-134.7737 1433.9282,-128.5042 1423.3419,-128.0792 1425.3874,-134.7737"/>
</g>
<!-- Node35 -->
<g id="node36" class="node">
<title>Node35</title>
<g id="a_node36"><a xlink:href="app__events_2include_2app__event__list_8h.html" target="_top" xlink:title="app_event_list.h">
<polygon fill="#ffffff" stroke="#000000" points="1497.9805,-55.5 1497.9805,-73.5 1586.8125,-73.5 1586.8125,-55.5 1497.9805,-55.5"/>
<text text-anchor="middle" x="1542.3965" y="-61.5" font-family="Helvetica,sans-Serif" font-size="10.00" fill="#000000">app_event_list.h</text>
</a>
</g>
</g>
<!-- Node33&#45;&gt;Node35 -->
<g id="edge51" class="edge">
<title>Node33&#45;&gt;Node35</title>
<path fill="none" stroke="#191970" d="M1299.7786,-165.4636C1323.9742,-152.3129 1370.8864,-127.5581 1412.3965,-110 1442.4697,-97.2795 1477.4491,-85.1834 1503.5438,-76.665"/>
<polygon fill="#191970" stroke="#191970" points="1504.6428,-79.9881 1513.0811,-73.5815 1502.4893,-73.3276 1504.6428,-79.9881"/>
</g>
<!-- Node35&#45;&gt;Node23 -->
<g id="edge52" class="edge">
<title>Node35&#45;&gt;Node23</title>
<path fill="none" stroke="#191970" d="M1547.5155,-55.4179C1551.753,-47.8998 1557.9061,-36.9829 1563.1497,-27.6799"/>
<polygon fill="#191970" stroke="#191970" points="1566.3051,-29.2096 1568.1662,-18.7795 1560.207,-25.7724 1566.3051,-29.2096"/>
</g>
</g>
</svg>
