<?xml version="1.0" encoding="UTF-8" standalone="no"?>
<!DOCTYPE svg PUBLIC "-//W3C//DTD SVG 1.1//EN"
 "http://www.w3.org/Graphics/SVG/1.1/DTD/svg11.dtd">
<!-- Generated by graphviz version 2.40.1 (20161225.0304)
 -->
<!-- Title: src/include/application.h Pages: 1 -->
<svg width="462pt" height="82pt"
 viewBox="0.00 0.00 462.15 82.00" xmlns="http://www.w3.org/2000/svg" xmlns:xlink="http://www.w3.org/1999/xlink">
<g id="graph0" class="graph" transform="scale(1 1) rotate(0) translate(4 78)">
<title>src/include/application.h</title>
<polygon fill="#ffffff" stroke="transparent" points="-4,4 -4,-78 458.1523,-78 458.1523,4 -4,4"/>
<!-- Node25 -->
<g id="node1" class="node">
<title>Node25</title>
<polygon fill="#bfbfbf" stroke="#000000" points="215.123,-55.5 215.123,-73.5 337.8516,-73.5 337.8516,-55.5 215.123,-55.5"/>
<text text-anchor="middle" x="276.4873" y="-61.5" font-family="Helvetica,sans-Serif" font-size="10.00" fill="#000000">src/include/application.h</text>
</g>
<!-- Node26 -->
<g id="node2" class="node">
<title>Node26</title>
<g id="a_node2"><a xlink:href="app__events_2app__event_8c.html" target="_top" xlink:title="app_events/app_event.c">
<polygon fill="#ffffff" stroke="#000000" points="0,-.5 0,-18.5 124.9746,-18.5 124.9746,-.5 0,-.5"/>
<text text-anchor="middle" x="62.4873" y="-6.5" font-family="Helvetica,sans-Serif" font-size="10.00" fill="#000000">app_events/app_event.c</text>
</a>
</g>
</g>
<!-- Node25&#45;&gt;Node26 -->
<g id="edge1" class="edge">
<title>Node25&#45;&gt;Node26</title>
<path fill="none" stroke="#191970" d="M231.4044,-52.9133C191.4967,-42.6566 134.0694,-27.8973 97.5219,-18.5042"/>
<polygon fill="#191970" stroke="#191970" points="230.5931,-56.3184 241.1496,-55.4179 232.3356,-49.5388 230.5931,-56.3184"/>
</g>
<!-- Node27 -->
<g id="node3" class="node">
<title>Node27</title>
<g id="a_node3"><a xlink:href="ext__apps_2shim_2app__event_8c.html" target="_top" xlink:title="ext_apps/shim/app_event.c">
<polygon fill="#ffffff" stroke="#000000" points="142.6157,-.5 142.6157,-18.5 280.3589,-18.5 280.3589,-.5 142.6157,-.5"/>
<text text-anchor="middle" x="211.4873" y="-6.5" font-family="Helvetica,sans-Serif" font-size="10.00" fill="#000000">ext_apps/shim/app_event.c</text>
</a>
</g>
</g>
<!-- Node25&#45;&gt;Node27 -->
<g id="edge2" class="edge">
<title>Node25&#45;&gt;Node27</title>
<path fill="none" stroke="#191970" d="M258.0129,-48.8678C246.5323,-39.1535 232.1625,-26.9944 222.4539,-18.7795"/>
<polygon fill="#191970" stroke="#191970" points="255.8592,-51.6303 265.7539,-55.4179 260.3808,-46.2866 255.8592,-51.6303"/>
</g>
<!-- Node28 -->
<g id="node4" class="node">
<title>Node28</title>
<g id="a_node4"><a xlink:href="application_8c.html" target="_top" xlink:title="src/application.c">
<polygon fill="#ffffff" stroke="#000000" points="298.6377,-.5 298.6377,-18.5 386.3369,-18.5 386.3369,-.5 298.6377,-.5"/>
<text text-anchor="middle" x="342.4873" y="-6.5" font-family="Helvetica,sans-Serif" font-size="10.00" fill="#000000">src/application.c</text>
</a>
</g>
</g>
<!-- Node25&#45;&gt;Node28 -->
<g id="edge3" class="edge">
<title>Node25&#45;&gt;Node28</title>
<path fill="none" stroke="#191970" d="M295.246,-48.8678C306.9031,-39.1535 321.494,-26.9944 331.352,-18.7795"/>
<polygon fill="#191970" stroke="#191970" points="292.8274,-46.3272 287.3859,-55.4179 297.3088,-51.7048 292.8274,-46.3272"/>
</g>
<!-- Node29 -->
<g id="node5" class="node">
<title>Node29</title>
<g id="a_node5"><a xlink:href="src_2cli_8c.html" target="_top" xlink:title="src/cli.c">
<polygon fill="#ffffff" stroke="#000000" points="404.8223,-.5 404.8223,-18.5 454.1523,-18.5 454.1523,-.5 404.8223,-.5"/>
<text text-anchor="middle" x="429.4873" y="-6.5" font-family="Helvetica,sans-Serif" font-size="10.00" fill="#000000">src/cli.c</text>
</a>
</g>
</g>
<!-- Node25&#45;&gt;Node29 -->
<g id="edge4" class="edge">
<title>Node25&#45;&gt;Node29</title>
<path fill="none" stroke="#191970" d="M311.3207,-51.9782C339.7966,-41.7418 379.3566,-27.5209 404.6926,-18.4131"/>
<polygon fill="#191970" stroke="#191970" points="309.9786,-48.7413 301.7521,-55.4179 312.3466,-55.3286 309.9786,-48.7413"/>
</g>
</g>
</svg>
