<?xml version="1.0" encoding="UTF-8" standalone="no"?>
<!DOCTYPE svg PUBLIC "-//W3C//DTD SVG 1.1//EN"
 "http://www.w3.org/Graphics/SVG/1.1/DTD/svg11.dtd">
<!-- Generated by graphviz version 2.40.1 (20161225.0304)
 -->
<!-- Title: src/include/application.h Pages: 1 -->
<svg width="2378pt" height="247pt"
 viewBox="0.00 0.00 2377.84 247.00" xmlns="http://www.w3.org/2000/svg" xmlns:xlink="http://www.w3.org/1999/xlink">
<g id="graph0" class="graph" transform="scale(1 1) rotate(0) translate(4 243)">
<title>src/include/application.h</title>
<polygon fill="#ffffff" stroke="transparent" points="-4,4 -4,-243 2373.8436,-243 2373.8436,4 -4,4"/>
<!-- Node0 -->
<g id="node1" class="node">
<title>Node0</title>
<polygon fill="#bfbfbf" stroke="#000000" points="1327.0286,-220.5 1327.0286,-238.5 1449.7572,-238.5 1449.7572,-220.5 1327.0286,-220.5"/>
<text text-anchor="middle" x="1388.3929" y="-226.5" font-family="Helvetica,sans-Serif" font-size="10.00" fill="#000000">src/include/application.h</text>
</g>
<!-- Node1 -->
<g id="node2" class="node">
<title>Node1</title>
<g id="a_node2"><a xlink:href="src_2include_2common_8h.html" target="_top" xlink:title="common.h">
<polygon fill="#ffffff" stroke="#000000" points="1295.0506,-110.5 1295.0506,-128.5 1357.7352,-128.5 1357.7352,-110.5 1295.0506,-110.5"/>
<text text-anchor="middle" x="1326.3929" y="-116.5" font-family="Helvetica,sans-Serif" font-size="10.00" fill="#000000">common.h</text>
</a>
</g>
</g>
<!-- Node0&#45;&gt;Node1 -->
<g id="edge1" class="edge">
<title>Node0&#45;&gt;Node1</title>
<path fill="none" stroke="#191970" d="M1362.5142,-220.3954C1346.3874,-213.2187 1326.9464,-201.4692 1317.3929,-184 1309.7734,-170.0672 1313.2238,-152.0075 1317.8908,-138.5432"/>
<polygon fill="#191970" stroke="#191970" points="1321.2827,-139.4834 1321.7062,-128.897 1314.7734,-136.9087 1321.2827,-139.4834"/>
</g>
<!-- Node30 -->
<g id="node31" class="node">
<title>Node30</title>
<g id="a_node31"><a xlink:href="str_8h.html" target="_top" xlink:title="str.h">
<polygon fill="#ffffff" stroke="#000000" points="2334.9422,-.5 2334.9422,-18.5 2369.8436,-18.5 2369.8436,-.5 2334.9422,-.5"/>
<text text-anchor="middle" x="2352.3929" y="-6.5" font-family="Helvetica,sans-Serif" font-size="10.00" fill="#000000">str.h</text>
</a>
</g>
</g>
<!-- Node0&#45;&gt;Node30 -->
<g id="edge47" class="edge">
<title>Node0&#45;&gt;Node30</title>
<path fill="none" stroke="#191970" d="M1449.8154,-224.1868C1653.0527,-205.9943 2294.2146,-143.4777 2353.3929,-74 2363.9249,-61.635 2362.2026,-42.5787 2358.7305,-28.3813"/>
<polygon fill="#191970" stroke="#191970" points="2362.0583,-27.2901 2355.9083,-18.6629 2355.336,-29.2423 2362.0583,-27.2901"/>
</g>
<!-- Node36 -->
<g id="node37" class="node">
<title>Node36</title>
<g id="a_node37"><a xlink:href="src_2include_2context_8h.html" target="_top" xlink:title="context.h">
<polygon fill="#ffffff" stroke="#000000" points="1326.1024,-165.5 1326.1024,-183.5 1382.6834,-183.5 1382.6834,-165.5 1326.1024,-165.5"/>
<text text-anchor="middle" x="1354.3929" y="-171.5" font-family="Helvetica,sans-Serif" font-size="10.00" fill="#000000">context.h</text>
</a>
</g>
</g>
<!-- Node0&#45;&gt;Node36 -->
<g id="edge43" class="edge">
<title>Node0&#45;&gt;Node36</title>
<path fill="none" stroke="#191970" d="M1382.7785,-220.4179C1378.082,-212.8207 1371.24,-201.7527 1365.4501,-192.3866"/>
<polygon fill="#191970" stroke="#191970" points="1368.3647,-190.445 1360.1293,-183.7795 1362.4105,-194.1258 1368.3647,-190.445"/>
</g>
<!-- Node37 -->
<g id="node38" class="node">
<title>Node37</title>
<g id="a_node38"><a xlink:href="hash_8h.html" target="_top" xlink:title="hash.h">
<polygon fill="#ffffff" stroke="#000000" points="1400.3807,-165.5 1400.3807,-183.5 1446.4051,-183.5 1446.4051,-165.5 1400.3807,-165.5"/>
<text text-anchor="middle" x="1423.3929" y="-171.5" font-family="Helvetica,sans-Serif" font-size="10.00" fill="#000000">hash.h</text>
</a>
</g>
</g>
<!-- Node0&#45;&gt;Node37 -->
<g id="edge45" class="edge">
<title>Node0&#45;&gt;Node37</title>
<path fill="none" stroke="#191970" d="M1394.1724,-220.4179C1399.007,-212.8207 1406.0503,-201.7527 1412.0105,-192.3866"/>
<polygon fill="#191970" stroke="#191970" points="1415.0718,-194.0952 1417.4878,-183.7795 1409.1662,-190.337 1415.0718,-194.0952"/>
</g>
<!-- Node2 -->
<g id="node3" class="node">
<title>Node2</title>
<polygon fill="#ffffff" stroke="#bfbfbf" points="1001.6615,-.5 1001.6615,-18.5 1047.1244,-18.5 1047.1244,-.5 1001.6615,-.5"/>
<text text-anchor="middle" x="1024.3929" y="-6.5" font-family="Helvetica,sans-Serif" font-size="10.00" fill="#000000">stdio.h</text>
</g>
<!-- Node1&#45;&gt;Node2 -->
<g id="edge2" class="edge">
<title>Node1&#45;&gt;Node2</title>
<path fill="none" stroke="#191970" d="M1294.9672,-119.0168C1096.776,-115.8974 27.5554,-97.9734 4.3929,-74 -1.4746,-67.927 -1.4437,-61.1027 4.3929,-55 39.2892,-18.5123 820.17,-10.9314 991.401,-9.7058"/>
<polygon fill="#191970" stroke="#191970" points="991.5877,-13.2047 1001.5632,-9.6355 991.5392,-6.2048 991.5877,-13.2047"/>
</g>
<!-- Node3 -->
<g id="node4" class="node">
<title>Node3</title>
<polygon fill="#ffffff" stroke="#bfbfbf" points="13.8807,-55.5 13.8807,-73.5 64.9051,-73.5 64.9051,-55.5 13.8807,-55.5"/>
<text text-anchor="middle" x="39.3929" y="-61.5" font-family="Helvetica,sans-Serif" font-size="10.00" fill="#000000">unistd.h</text>
</g>
<!-- Node1&#45;&gt;Node3 -->
<g id="edge3" class="edge">
<title>Node1&#45;&gt;Node3</title>
<path fill="none" stroke="#191970" d="M1294.9083,-119.363C1127.4823,-118.4837 339.6307,-112.4193 75.1821,-73.9034"/>
<polygon fill="#191970" stroke="#191970" points="75.6536,-70.435 65.2428,-72.4014 74.6076,-77.3564 75.6536,-70.435"/>
</g>
<!-- Node4 -->
<g id="node5" class="node">
<title>Node4</title>
<polygon fill="#ffffff" stroke="#bfbfbf" points="82.5506,-55.5 82.5506,-73.5 130.2352,-73.5 130.2352,-55.5 82.5506,-55.5"/>
<text text-anchor="middle" x="106.3929" y="-61.5" font-family="Helvetica,sans-Serif" font-size="10.00" fill="#000000">stdlib.h</text>
</g>
<!-- Node1&#45;&gt;Node4 -->
<g id="edge4" class="edge">
<title>Node1&#45;&gt;Node4</title>
<path fill="none" stroke="#191970" d="M1294.9604,-119.3228C1133.1233,-118.2565 392.0444,-111.4636 140.5634,-73.7231"/>
<polygon fill="#191970" stroke="#191970" points="140.8109,-70.2194 130.3908,-72.1358 139.7316,-77.1358 140.8109,-70.2194"/>
</g>
<!-- Node5 -->
<g id="node6" class="node">
<title>Node5</title>
<polygon fill="#ffffff" stroke="#bfbfbf" points="1970.3265,-.5 1970.3265,-18.5 2022.4593,-18.5 2022.4593,-.5 1970.3265,-.5"/>
<text text-anchor="middle" x="1996.3929" y="-6.5" font-family="Helvetica,sans-Serif" font-size="10.00" fill="#000000">stdarg.h</text>
</g>
<!-- Node1&#45;&gt;Node5 -->
<g id="edge5" class="edge">
<title>Node1&#45;&gt;Node5</title>
<path fill="none" stroke="#191970" d="M1357.779,-118.2771C1455.1629,-114.2413 1751.165,-100.0931 1843.3929,-74 1861.5621,-68.8596 1864.1532,-62.7029 1881.3929,-55 1908.032,-43.0973 1938.7937,-31.0104 1961.7951,-22.2887"/>
<polygon fill="#191970" stroke="#191970" points="1963.3335,-25.4494 1971.4581,-18.6493 1960.8662,-18.8986 1963.3335,-25.4494"/>
</g>
<!-- Node6 -->
<g id="node7" class="node">
<title>Node6</title>
<polygon fill="#ffffff" stroke="#bfbfbf" points="148.2723,-55.5 148.2723,-73.5 196.5135,-73.5 196.5135,-55.5 148.2723,-55.5"/>
<text text-anchor="middle" x="172.3929" y="-61.5" font-family="Helvetica,sans-Serif" font-size="10.00" fill="#000000">stdint.h</text>
</g>
<!-- Node1&#45;&gt;Node6 -->
<g id="edge6" class="edge">
<title>Node1&#45;&gt;Node6</title>
<path fill="none" stroke="#191970" d="M1294.9308,-119.2062C1138.6901,-117.5997 444.6185,-108.6909 206.723,-73.5667"/>
<polygon fill="#191970" stroke="#191970" points="207.1725,-70.0947 196.7572,-72.0368 206.1103,-77.0137 207.1725,-70.0947"/>
</g>
<!-- Node7 -->
<g id="node8" class="node">
<title>Node7</title>
<polygon fill="#ffffff" stroke="#bfbfbf" points="214.9964,-55.5 214.9964,-73.5 263.7894,-73.5 263.7894,-55.5 214.9964,-55.5"/>
<text text-anchor="middle" x="239.3929" y="-61.5" font-family="Helvetica,sans-Serif" font-size="10.00" fill="#000000">string.h</text>
</g>
<!-- Node1&#45;&gt;Node7 -->
<g id="edge7" class="edge">
<title>Node1&#45;&gt;Node7</title>
<path fill="none" stroke="#191970" d="M1295.0309,-119.148C1144.7565,-117.3106 496.8069,-107.6426 274.0801,-73.8728"/>
<polygon fill="#191970" stroke="#191970" points="274.539,-70.402 264.1153,-72.2986 273.4466,-77.3162 274.539,-70.402"/>
</g>
<!-- Node8 -->
<g id="node9" class="node">
<title>Node8</title>
<polygon fill="#ffffff" stroke="#bfbfbf" points="281.4964,-55.5 281.4964,-73.5 335.2894,-73.5 335.2894,-55.5 281.4964,-55.5"/>
<text text-anchor="middle" x="308.3929" y="-61.5" font-family="Helvetica,sans-Serif" font-size="10.00" fill="#000000">strings.h</text>
</g>
<!-- Node1&#45;&gt;Node8 -->
<g id="edge8" class="edge">
<title>Node1&#45;&gt;Node8</title>
<path fill="none" stroke="#191970" d="M1295.0299,-118.9402C1151.2821,-116.2399 553.8669,-103.5207 345.32,-73.7564"/>
<polygon fill="#191970" stroke="#191970" points="345.7963,-70.2888 335.3904,-72.2802 344.767,-77.2127 345.7963,-70.2888"/>
</g>
<!-- Node9 -->
<g id="node10" class="node">
<title>Node9</title>
<polygon fill="#ffffff" stroke="#bfbfbf" points="353.265,-55.5 353.265,-73.5 411.5208,-73.5 411.5208,-55.5 353.265,-55.5"/>
<text text-anchor="middle" x="382.3929" y="-61.5" font-family="Helvetica,sans-Serif" font-size="10.00" fill="#000000">pthread.h</text>
</g>
<!-- Node1&#45;&gt;Node9 -->
<g id="edge9" class="edge">
<title>Node1&#45;&gt;Node9</title>
<path fill="none" stroke="#191970" d="M1294.7113,-118.7375C1157.6095,-115.3127 614.0561,-100.4157 421.7202,-73.8723"/>
<polygon fill="#191970" stroke="#191970" points="422.1341,-70.3959 411.7376,-72.4364 421.1374,-77.3246 422.1341,-70.3959"/>
</g>
<!-- Node10 -->
<g id="node11" class="node">
<title>Node10</title>
<polygon fill="#ffffff" stroke="#bfbfbf" points="429.2723,-55.5 429.2723,-73.5 477.5135,-73.5 477.5135,-55.5 429.2723,-55.5"/>
<text text-anchor="middle" x="453.3929" y="-61.5" font-family="Helvetica,sans-Serif" font-size="10.00" fill="#000000">ctype.h</text>
</g>
<!-- Node1&#45;&gt;Node10 -->
<g id="edge10" class="edge">
<title>Node1&#45;&gt;Node10</title>
<path fill="none" stroke="#191970" d="M1294.7874,-118.7444C1164.2384,-115.4791 665.9106,-101.5551 487.7668,-73.8114"/>
<polygon fill="#191970" stroke="#191970" points="488.1919,-70.3346 477.7591,-72.1801 487.0656,-77.2434 488.1919,-70.3346"/>
</g>
<!-- Node11 -->
<g id="node12" class="node">
<title>Node11</title>
<polygon fill="#ffffff" stroke="#bfbfbf" points="495.5506,-55.5 495.5506,-73.5 543.2352,-73.5 543.2352,-55.5 495.5506,-55.5"/>
<text text-anchor="middle" x="519.3929" y="-61.5" font-family="Helvetica,sans-Serif" font-size="10.00" fill="#000000">errno.h</text>
</g>
<!-- Node1&#45;&gt;Node11 -->
<g id="edge11" class="edge">
<title>Node1&#45;&gt;Node11</title>
<path fill="none" stroke="#191970" d="M1294.692,-118.6112C1170.6094,-114.9853 717.0569,-100.3171 553.2652,-73.933"/>
<polygon fill="#191970" stroke="#191970" points="553.8073,-70.4751 543.364,-72.2604 552.6412,-77.3773 553.8073,-70.4751"/>
</g>
<!-- Node12 -->
<g id="node13" class="node">
<title>Node12</title>
<polygon fill="#ffffff" stroke="#bfbfbf" points="560.7772,-55.5 560.7772,-73.5 604.0086,-73.5 604.0086,-55.5 560.7772,-55.5"/>
<text text-anchor="middle" x="582.3929" y="-61.5" font-family="Helvetica,sans-Serif" font-size="10.00" fill="#000000">time.h</text>
</g>
<!-- Node1&#45;&gt;Node12 -->
<g id="edge12" class="edge">
<title>Node1&#45;&gt;Node12</title>
<path fill="none" stroke="#191970" d="M1294.801,-118.4658C1177.4783,-114.4761 766.2123,-99.128 614.3051,-73.6621"/>
<polygon fill="#191970" stroke="#191970" points="614.7071,-70.1791 604.2515,-71.8907 613.4924,-77.0729 614.7071,-70.1791"/>
</g>
<!-- Node13 -->
<g id="node14" class="node">
<title>Node13</title>
<polygon fill="#ffffff" stroke="#bfbfbf" points="622.0531,-55.5 622.0531,-73.5 664.7327,-73.5 664.7327,-55.5 622.0531,-55.5"/>
<text text-anchor="middle" x="643.3929" y="-61.5" font-family="Helvetica,sans-Serif" font-size="10.00" fill="#000000">fcntl.h</text>
</g>
<!-- Node1&#45;&gt;Node13 -->
<g id="edge13" class="edge">
<title>Node1&#45;&gt;Node13</title>
<path fill="none" stroke="#191970" d="M1294.8211,-118.2502C1184.2888,-113.73 814.3947,-97.3464 674.9453,-73.5799"/>
<polygon fill="#191970" stroke="#191970" points="675.3775,-70.1016 664.9167,-71.7818 674.142,-76.9918 675.3775,-70.1016"/>
</g>
<!-- Node14 -->
<g id="node15" class="node">
<title>Node14</title>
<polygon fill="#ffffff" stroke="#bfbfbf" points="683.159,-55.5 683.159,-73.5 733.6268,-73.5 733.6268,-55.5 683.159,-55.5"/>
<text text-anchor="middle" x="708.3929" y="-61.5" font-family="Helvetica,sans-Serif" font-size="10.00" fill="#000000">signal.h</text>
</g>
<!-- Node1&#45;&gt;Node14 -->
<g id="edge14" class="edge">
<title>Node1&#45;&gt;Node14</title>
<path fill="none" stroke="#191970" d="M1294.7849,-119.1925C1207.9821,-117.8931 958.6393,-111.1056 743.7717,-73.934"/>
<polygon fill="#191970" stroke="#191970" points="744.3444,-70.4811 733.8897,-72.1985 743.1335,-77.3756 744.3444,-70.4811"/>
</g>
<!-- Node15 -->
<g id="node16" class="node">
<title>Node15</title>
<polygon fill="#ffffff" stroke="#bfbfbf" points="2174.888,-.5 2174.888,-18.5 2235.8978,-18.5 2235.8978,-.5 2174.888,-.5"/>
<text text-anchor="middle" x="2205.3929" y="-6.5" font-family="Helvetica,sans-Serif" font-size="10.00" fill="#000000">sys/time.h</text>
</g>
<!-- Node1&#45;&gt;Node15 -->
<g id="edge15" class="edge">
<title>Node1&#45;&gt;Node15</title>
<path fill="none" stroke="#191970" d="M1357.745,-119.0848C1511.692,-116.8964 2181.3936,-105.5813 2211.3929,-74 2222.7364,-62.0583 2219.1374,-42.6705 2213.9801,-28.2643"/>
<polygon fill="#191970" stroke="#191970" points="2217.1528,-26.775 2210.1407,-18.8325 2210.6693,-29.4142 2217.1528,-26.775"/>
</g>
<!-- Node16 -->
<g id="node17" class="node">
<title>Node16</title>
<polygon fill="#ffffff" stroke="#bfbfbf" points="751.2747,-55.5 751.2747,-73.5 809.5111,-73.5 809.5111,-55.5 751.2747,-55.5"/>
<text text-anchor="middle" x="780.3929" y="-61.5" font-family="Helvetica,sans-Serif" font-size="10.00" fill="#000000">sys/stat.h</text>
</g>
<!-- Node1&#45;&gt;Node16 -->
<g id="edge16" class="edge">
<title>Node1&#45;&gt;Node16</title>
<path fill="none" stroke="#191970" d="M1294.9604,-118.3862C1216.3404,-115.2395 1004.7803,-104.5492 819.6662,-73.9806"/>
<polygon fill="#191970" stroke="#191970" points="820.1969,-70.5208 809.756,-72.3206 819.0404,-77.4246 820.1969,-70.5208"/>
</g>
<!-- Node17 -->
<g id="node18" class="node">
<title>Node17</title>
<polygon fill="#ffffff" stroke="#bfbfbf" points="827.3831,-55.5 827.3831,-73.5 893.4027,-73.5 893.4027,-55.5 827.3831,-55.5"/>
<text text-anchor="middle" x="860.3929" y="-61.5" font-family="Helvetica,sans-Serif" font-size="10.00" fill="#000000">sys/types.h</text>
</g>
<!-- Node1&#45;&gt;Node17 -->
<g id="edge17" class="edge">
<title>Node1&#45;&gt;Node17</title>
<path fill="none" stroke="#191970" d="M1294.8413,-117.3675C1225.7198,-112.4282 1055.6107,-98.8142 903.7687,-74.0672"/>
<polygon fill="#191970" stroke="#191970" points="904.2313,-70.5963 893.7948,-72.4211 903.0914,-77.5029 904.2313,-70.5963"/>
</g>
<!-- Node18 -->
<g id="node19" class="node">
<title>Node18</title>
<polygon fill="#ffffff" stroke="#bfbfbf" points="911.4422,-55.5 911.4422,-73.5 971.3436,-73.5 971.3436,-55.5 911.4422,-55.5"/>
<text text-anchor="middle" x="941.3929" y="-61.5" font-family="Helvetica,sans-Serif" font-size="10.00" fill="#000000">sys/ioctl.h</text>
</g>
<!-- Node1&#45;&gt;Node18 -->
<g id="edge18" class="edge">
<title>Node1&#45;&gt;Node18</title>
<path fill="none" stroke="#191970" d="M1294.6223,-116.5647C1234.9977,-110.792 1102.1266,-96.6792 981.7292,-74.2929"/>
<polygon fill="#191970" stroke="#191970" points="982.0819,-70.7978 971.6067,-72.3853 980.7855,-77.6768 982.0819,-70.7978"/>
</g>
<!-- Node19 -->
<g id="node20" class="node">
<title>Node19</title>
<polygon fill="#ffffff" stroke="#bfbfbf" points="988.8831,-55.5 988.8831,-73.5 1059.9027,-73.5 1059.9027,-55.5 988.8831,-55.5"/>
<text text-anchor="middle" x="1024.3929" y="-61.5" font-family="Helvetica,sans-Serif" font-size="10.00" fill="#000000">sys/socket.h</text>
</g>
<!-- Node1&#45;&gt;Node19 -->
<g id="edge19" class="edge">
<title>Node1&#45;&gt;Node19</title>
<path fill="none" stroke="#191970" d="M1294.9464,-114.3511C1248.0909,-106.593 1156.94,-91.1702 1069.9472,-74.2523"/>
<polygon fill="#191970" stroke="#191970" points="1070.3963,-70.7739 1059.9105,-72.29 1069.0531,-77.6439 1070.3963,-70.7739"/>
</g>
<!-- Node20 -->
<g id="node21" class="node">
<title>Node20</title>
<polygon fill="#ffffff" stroke="#bfbfbf" points="1077.7723,-55.5 1077.7723,-73.5 1151.0135,-73.5 1151.0135,-55.5 1077.7723,-55.5"/>
<text text-anchor="middle" x="1114.3929" y="-61.5" font-family="Helvetica,sans-Serif" font-size="10.00" fill="#000000">sys/sysinfo.h</text>
</g>
<!-- Node1&#45;&gt;Node20 -->
<g id="edge20" class="edge">
<title>Node1&#45;&gt;Node20</title>
<path fill="none" stroke="#191970" d="M1294.6544,-111.2659C1258.6623,-101.9284 1199.7147,-86.6354 1159.0827,-76.0941"/>
<polygon fill="#191970" stroke="#191970" points="1159.7308,-72.6464 1149.1723,-73.5229 1157.9729,-79.4221 1159.7308,-72.6464"/>
</g>
<!-- Node21 -->
<g id="node22" class="node">
<title>Node21</title>
<polygon fill="#ffffff" stroke="#bfbfbf" points="1168.765,-55.5 1168.765,-73.5 1232.0208,-73.5 1232.0208,-55.5 1168.765,-55.5"/>
<text text-anchor="middle" x="1200.3929" y="-61.5" font-family="Helvetica,sans-Serif" font-size="10.00" fill="#000000">arpa/inet.h</text>
</g>
<!-- Node1&#45;&gt;Node21 -->
<g id="edge21" class="edge">
<title>Node1&#45;&gt;Node21</title>
<path fill="none" stroke="#191970" d="M1305.5866,-110.4179C1285.159,-101.5011 1253.7781,-87.803 1230.6037,-77.6873"/>
<polygon fill="#191970" stroke="#191970" points="1231.7953,-74.3885 1221.2302,-73.5956 1228.9949,-80.804 1231.7953,-74.3885"/>
</g>
<!-- Node22 -->
<g id="node23" class="node">
<title>Node22</title>
<polygon fill="#ffffff" stroke="#bfbfbf" points="1249.93,-55.5 1249.93,-73.5 1314.8558,-73.5 1314.8558,-55.5 1249.93,-55.5"/>
<text text-anchor="middle" x="1282.3929" y="-61.5" font-family="Helvetica,sans-Serif" font-size="10.00" fill="#000000">netinet/in.h</text>
</g>
<!-- Node1&#45;&gt;Node22 -->
<g id="edge22" class="edge">
<title>Node1&#45;&gt;Node22</title>
<path fill="none" stroke="#191970" d="M1319.1272,-110.4179C1312.9228,-102.6624 1303.8249,-91.29 1296.2357,-81.8035"/>
<polygon fill="#191970" stroke="#191970" points="1298.7965,-79.4017 1289.8165,-73.7795 1293.3304,-83.7746 1298.7965,-79.4017"/>
</g>
<!-- Node23 -->
<g id="node24" class="node">
<title>Node23</title>
<polygon fill="#ffffff" stroke="#bfbfbf" points="1332.536,-55.5 1332.536,-73.5 1410.2498,-73.5 1410.2498,-55.5 1332.536,-55.5"/>
<text text-anchor="middle" x="1371.3929" y="-61.5" font-family="Helvetica,sans-Serif" font-size="10.00" fill="#000000">net/ethernet.h</text>
</g>
<!-- Node1&#45;&gt;Node23 -->
<g id="edge23" class="edge">
<title>Node1&#45;&gt;Node23</title>
<path fill="none" stroke="#191970" d="M1333.8237,-110.4179C1340.1691,-102.6624 1349.4738,-91.29 1357.2355,-81.8035"/>
<polygon fill="#191970" stroke="#191970" points="1360.1771,-83.7354 1363.8006,-73.7795 1354.7594,-79.3027 1360.1771,-83.7354"/>
</g>
<!-- Node24 -->
<g id="node25" class="node">
<title>Node24</title>
<polygon fill="#ffffff" stroke="#bfbfbf" points="1427.93,-55.5 1427.93,-73.5 1492.8558,-73.5 1492.8558,-55.5 1427.93,-55.5"/>
<text text-anchor="middle" x="1460.3929" y="-61.5" font-family="Helvetica,sans-Serif" font-size="10.00" fill="#000000">netinet/ip.h</text>
</g>
<!-- Node1&#45;&gt;Node24 -->
<g id="edge24" class="edge">
<title>Node1&#45;&gt;Node24</title>
<path fill="none" stroke="#191970" d="M1348.5203,-110.4179C1370.4388,-101.4215 1404.2151,-87.5581 1428.922,-77.4172"/>
<polygon fill="#191970" stroke="#191970" points="1430.3106,-80.6306 1438.2327,-73.5956 1427.6526,-74.1549 1430.3106,-80.6306"/>
</g>
<!-- Node25 -->
<g id="node26" class="node">
<title>Node25</title>
<polygon fill="#ffffff" stroke="#bfbfbf" points="1511.1517,-55.5 1511.1517,-73.5 1581.6341,-73.5 1581.6341,-55.5 1511.1517,-55.5"/>
<text text-anchor="middle" x="1546.3929" y="-61.5" font-family="Helvetica,sans-Serif" font-size="10.00" fill="#000000">netinet/tcp.h</text>
</g>
<!-- Node1&#45;&gt;Node25 -->
<g id="edge25" class="edge">
<title>Node1&#45;&gt;Node25</title>
<path fill="none" stroke="#191970" d="M1357.9135,-111.6198C1395.4216,-102.2428 1458.3313,-86.5154 1501.0585,-75.8336"/>
<polygon fill="#191970" stroke="#191970" points="1502.0695,-79.1887 1510.922,-73.3677 1500.3717,-72.3977 1502.0695,-79.1887"/>
</g>
<!-- Node26 -->
<g id="node27" class="node">
<title>Node26</title>
<polygon fill="#ffffff" stroke="#bfbfbf" points="1599.5926,-55.5 1599.5926,-73.5 1691.1932,-73.5 1691.1932,-55.5 1599.5926,-55.5"/>
<text text-anchor="middle" x="1645.3929" y="-61.5" font-family="Helvetica,sans-Serif" font-size="10.00" fill="#000000">netinet/ip_icmp.h</text>
</g>
<!-- Node1&#45;&gt;Node26 -->
<g id="edge26" class="edge">
<title>Node1&#45;&gt;Node26</title>
<path fill="none" stroke="#191970" d="M1358.0908,-114.0408C1405.8641,-105.8121 1499.4404,-89.6909 1589.3802,-74.1743"/>
<polygon fill="#191970" stroke="#191970" points="1590.2178,-77.5815 1599.4771,-72.4322 1589.0276,-70.6835 1590.2178,-77.5815"/>
</g>
<!-- Node27 -->
<g id="node28" class="node">
<title>Node27</title>
<g id="a_node28"><a xlink:href="mac2int_8h.html" target="_top" xlink:title="mac2int.h">
<polygon fill="#ffffff" stroke="#000000" points="1708.7157,-55.5 1708.7157,-73.5 1768.0702,-73.5 1768.0702,-55.5 1708.7157,-55.5"/>
<text text-anchor="middle" x="1738.3929" y="-61.5" font-family="Helvetica,sans-Serif" font-size="10.00" fill="#000000">mac2int.h</text>
</a>
</g>
</g>
<!-- Node1&#45;&gt;Node27 -->
<g id="edge27" class="edge">
<title>Node1&#45;&gt;Node27</title>
<path fill="none" stroke="#191970" d="M1357.9608,-116.5422C1421.5945,-110.8002 1568.8693,-96.6781 1691.3929,-74 1693.7061,-73.5718 1696.088,-73.0859 1698.5,-72.5657"/>
<polygon fill="#191970" stroke="#191970" points="1699.5121,-75.925 1708.4866,-70.2938 1697.9593,-69.0994 1699.5121,-75.925"/>
</g>
<!-- Node28 -->
<g id="node29" class="node">
<title>Node28</title>
<g id="a_node29"><a xlink:href="ip2int_8h.html" target="_top" xlink:title="ip2int.h">
<polygon fill="#ffffff" stroke="#000000" points="1786.2699,-55.5 1786.2699,-73.5 1834.516,-73.5 1834.516,-55.5 1786.2699,-55.5"/>
<text text-anchor="middle" x="1810.3929" y="-61.5" font-family="Helvetica,sans-Serif" font-size="10.00" fill="#000000">ip2int.h</text>
</a>
</g>
</g>
<!-- Node1&#45;&gt;Node28 -->
<g id="edge29" class="edge">
<title>Node1&#45;&gt;Node28</title>
<path fill="none" stroke="#191970" d="M1357.783,-118.053C1430.6828,-114.4978 1615.9708,-103.3807 1768.3929,-74 1770.9925,-73.4989 1773.6831,-72.8858 1776.402,-72.2146"/>
<polygon fill="#191970" stroke="#191970" points="1777.4765,-75.5512 1786.2593,-69.6256 1775.6981,-68.7809 1777.4765,-75.5512"/>
</g>
<!-- Node29 -->
<g id="node30" class="node">
<title>Node29</title>
<g id="a_node30"><a xlink:href="database_8h.html" target="_top" xlink:title="database.h">
<polygon fill="#ffffff" stroke="#000000" points="2258.6493,-55.5 2258.6493,-73.5 2324.1366,-73.5 2324.1366,-55.5 2258.6493,-55.5"/>
<text text-anchor="middle" x="2291.3929" y="-61.5" font-family="Helvetica,sans-Serif" font-size="10.00" fill="#000000">database.h</text>
</a>
</g>
</g>
<!-- Node1&#45;&gt;Node29 -->
<g id="edge31" class="edge">
<title>Node1&#45;&gt;Node29</title>
<path fill="none" stroke="#191970" d="M1357.767,-118.484C1497.0949,-114.0989 2059.4421,-96.0166 2235.3929,-74 2239.5747,-73.4767 2243.9406,-72.7889 2248.3238,-72.0221"/>
<polygon fill="#191970" stroke="#191970" points="2249.3124,-75.3984 2258.5043,-70.1297 2248.033,-68.5162 2249.3124,-75.3984"/>
</g>
<!-- Node31 -->
<g id="node32" class="node">
<title>Node31</title>
<polygon fill="#ffffff" stroke="#bfbfbf" points="1889.9891,-55.5 1889.9891,-73.5 1948.7967,-73.5 1948.7967,-55.5 1889.9891,-55.5"/>
<text text-anchor="middle" x="1919.3929" y="-61.5" font-family="Helvetica,sans-Serif" font-size="10.00" fill="#000000">jansson.h</text>
</g>
<!-- Node1&#45;&gt;Node31 -->
<g id="edge35" class="edge">
<title>Node1&#45;&gt;Node31</title>
<path fill="none" stroke="#191970" d="M1357.8811,-118.3825C1442.2946,-115.0663 1680.525,-103.6002 1876.3929,-74 1877.489,-73.8344 1878.5989,-73.657 1879.7175,-73.4698"/>
<polygon fill="#191970" stroke="#191970" points="1880.6966,-76.8474 1889.8829,-71.5689 1879.4099,-69.9667 1880.6966,-76.8474"/>
</g>
<!-- Node32 -->
<g id="node33" class="node">
<title>Node32</title>
<g id="a_node33"><a xlink:href="libcli_8h.html" target="_top" xlink:title="libcli.h">
<polygon fill="#ffffff" stroke="#000000" points="2158.4989,-55.5 2158.4989,-73.5 2202.2869,-73.5 2202.2869,-55.5 2158.4989,-55.5"/>
<text text-anchor="middle" x="2180.3929" y="-61.5" font-family="Helvetica,sans-Serif" font-size="10.00" fill="#000000">libcli.h</text>
</a>
</g>
</g>
<!-- Node1&#45;&gt;Node32 -->
<g id="edge36" class="edge">
<title>Node1&#45;&gt;Node32</title>
<path fill="none" stroke="#191970" d="M1357.8127,-118.7796C1486.3858,-115.6783 1973.466,-102.3918 2148.1388,-73.7362"/>
<polygon fill="#191970" stroke="#191970" points="2148.9383,-77.1501 2158.2002,-72.0054 2147.7515,-70.2515 2148.9383,-77.1501"/>
</g>
<!-- Node33 -->
<g id="node34" class="node">
<title>Node33</title>
<polygon fill="#ffffff" stroke="#bfbfbf" points="1967.1663,-55.5 1967.1663,-73.5 2017.6195,-73.5 2017.6195,-55.5 1967.1663,-55.5"/>
<text text-anchor="middle" x="1992.3929" y="-61.5" font-family="Helvetica,sans-Serif" font-size="10.00" fill="#000000">mysql.h</text>
</g>
<!-- Node1&#45;&gt;Node33 -->
<g id="edge40" class="edge">
<title>Node1&#45;&gt;Node33</title>
<path fill="none" stroke="#191970" d="M1358.0681,-118.0271C1466.2489,-112.8733 1821.3762,-94.9083 1956.7787,-73.6933"/>
<polygon fill="#191970" stroke="#191970" points="1957.6057,-77.1044 1966.9056,-72.0287 1956.4703,-70.1971 1957.6057,-77.1044"/>
</g>
<!-- Node34 -->
<g id="node35" class="node">
<title>Node34</title>
<polygon fill="#ffffff" stroke="#bfbfbf" points="2035.7772,-55.5 2035.7772,-73.5 2079.0086,-73.5 2079.0086,-55.5 2035.7772,-55.5"/>
<text text-anchor="middle" x="2057.3929" y="-61.5" font-family="Helvetica,sans-Serif" font-size="10.00" fill="#000000">zmq.h</text>
</g>
<!-- Node1&#45;&gt;Node34 -->
<g id="edge41" class="edge">
<title>Node1&#45;&gt;Node34</title>
<path fill="none" stroke="#191970" d="M1357.8133,-118.4289C1473.5382,-114.3364 1876.5492,-98.7459 2025.6638,-73.6335"/>
<polygon fill="#191970" stroke="#191970" points="2026.2964,-77.076 2035.5338,-71.8874 2025.0769,-70.1831 2026.2964,-77.076"/>
</g>
<!-- Node35 -->
<g id="node36" class="node">
<title>Node35</title>
<g id="a_node36"><a xlink:href="src_2include_2type_8h.html" target="_top" xlink:title="type.h">
<polygon fill="#ffffff" stroke="#000000" points="2096.7723,-55.5 2096.7723,-73.5 2140.0135,-73.5 2140.0135,-55.5 2096.7723,-55.5"/>
<text text-anchor="middle" x="2118.3929" y="-61.5" font-family="Helvetica,sans-Serif" font-size="10.00" fill="#000000">type.h</text>
</a>
</g>
</g>
<!-- Node1&#45;&gt;Node35 -->
<g id="edge42" class="edge">
<title>Node1&#45;&gt;Node35</title>
<path fill="none" stroke="#191970" d="M1358.0003,-118.653C1480.5399,-115.2121 1925.0509,-101.2312 2086.3858,-73.907"/>
<polygon fill="#191970" stroke="#191970" points="2087.3656,-77.2876 2096.5967,-72.0879 2086.1378,-70.3962 2087.3656,-77.2876"/>
</g>
<!-- Node27&#45;&gt;Node1 -->
<g id="edge28" class="edge">
<title>Node27&#45;&gt;Node1</title>
<path fill="none" stroke="#191970" d="M1711.8215,-73.5346C1711.006,-73.696 1710.1953,-73.8515 1709.3929,-74 1586.7343,-96.7031 1439.2699,-110.8314 1368.309,-116.5611"/>
<polygon fill="#191970" stroke="#191970" points="1367.6918,-113.0989 1357.9992,-117.3772 1368.2442,-120.0771 1367.6918,-113.0989"/>
</g>
<!-- Node28&#45;&gt;Node1 -->
<g id="edge30" class="edge">
<title>Node28&#45;&gt;Node1</title>
<path fill="none" stroke="#191970" d="M1788.5172,-73.5703C1787.8045,-73.721 1787.0954,-73.8646 1786.3929,-74 1634.419,-103.2943 1449.7723,-114.4323 1368.2677,-118.0215"/>
<polygon fill="#191970" stroke="#191970" points="1367.7682,-114.5394 1357.9255,-118.4602 1368.0649,-121.5331 1367.7682,-114.5394"/>
</g>
<!-- Node29&#45;&gt;Node1 -->
<g id="edge32" class="edge">
<title>Node29&#45;&gt;Node1</title>
<path fill="none" stroke="#191970" d="M2258.4164,-73.3081C2256.7258,-73.5609 2255.045,-73.7933 2253.3929,-74 2079.0725,-95.8126 1525.483,-113.7635 1368.2945,-118.3586"/>
<polygon fill="#191970" stroke="#191970" points="1367.991,-114.8659 1358.0966,-118.6541 1368.1938,-121.8629 1367.991,-114.8659"/>
</g>
<!-- Node29&#45;&gt;Node30 -->
<g id="edge33" class="edge">
<title>Node29&#45;&gt;Node30</title>
<path fill="none" stroke="#191970" d="M2301.4658,-55.4179C2310.4184,-47.3458 2323.7167,-35.3556 2334.4792,-25.6517"/>
<polygon fill="#191970" stroke="#191970" points="2337.018,-28.0753 2342.1011,-18.7795 2332.3305,-22.8764 2337.018,-28.0753"/>
</g>
<!-- Node30&#45;&gt;Node1 -->
<g id="edge34" class="edge">
<title>Node30&#45;&gt;Node1</title>
<path fill="none" stroke="#191970" d="M2352.7414,-18.792C2352.718,-33.2262 2350.299,-60.7503 2333.3929,-74 2294.8417,-104.2136 1553.4062,-116.3821 1368.094,-118.9585"/>
<polygon fill="#191970" stroke="#191970" points="1367.8908,-115.4608 1357.9397,-119.0977 1367.9868,-122.4602 1367.8908,-115.4608"/>
</g>
<!-- Node32&#45;&gt;Node2 -->
<g id="edge38" class="edge">
<title>Node32&#45;&gt;Node2</title>
<path fill="none" stroke="#191970" d="M2158.2073,-56.954C2155.2706,-56.1761 2152.2783,-55.492 2149.3929,-55 1931.3629,-17.8219 1219.6944,-10.8185 1057.5013,-9.6939"/>
<polygon fill="#191970" stroke="#191970" points="1057.2272,-6.1921 1047.2041,-9.6254 1057.1805,-13.192 1057.2272,-6.1921"/>
</g>
<!-- Node32&#45;&gt;Node5 -->
<g id="edge37" class="edge">
<title>Node32&#45;&gt;Node5</title>
<path fill="none" stroke="#191970" d="M2158.3843,-57.7308C2155.3645,-56.8092 2152.3028,-55.8785 2149.3929,-55 2109.4692,-42.9465 2063.6125,-29.3411 2032.5942,-20.1736"/>
<polygon fill="#191970" stroke="#191970" points="2033.2557,-16.7196 2022.6738,-17.2434 2031.2727,-23.4329 2033.2557,-16.7196"/>
</g>
<!-- Node32&#45;&gt;Node15 -->
<g id="edge39" class="edge">
<title>Node32&#45;&gt;Node15</title>
<path fill="none" stroke="#191970" d="M2184.5211,-55.4179C2187.9025,-47.9789 2192.7964,-37.2123 2196.9956,-27.9742"/>
<polygon fill="#191970" stroke="#191970" points="2200.2232,-29.3315 2201.175,-18.7795 2193.8506,-26.4348 2200.2232,-29.3315"/>
</g>
<!-- Node36&#45;&gt;Node1 -->
<g id="edge44" class="edge">
<title>Node36&#45;&gt;Node1</title>
<path fill="none" stroke="#191970" d="M1349.7693,-165.4179C1345.9822,-157.9789 1340.501,-147.2123 1335.7979,-137.9742"/>
<polygon fill="#191970" stroke="#191970" points="1338.773,-136.1032 1331.117,-128.7795 1332.5348,-139.279 1338.773,-136.1032"/>
</g>
<!-- Node37&#45;&gt;Node1 -->
<g id="edge46" class="edge">
<title>Node37&#45;&gt;Node1</title>
<path fill="none" stroke="#191970" d="M1407.3753,-165.4179C1392.211,-156.8195 1369.2058,-143.7754 1351.5854,-133.7844"/>
<polygon fill="#191970" stroke="#191970" points="1352.8596,-130.4834 1342.4343,-128.5956 1349.4069,-136.5727 1352.8596,-130.4834"/>
</g>
</g>
</svg>
