<?xml version="1.0" encoding="UTF-8" standalone="no"?>
<!DOCTYPE svg PUBLIC "-//W3C//DTD SVG 1.1//EN"
 "http://www.w3.org/Graphics/SVG/1.1/DTD/svg11.dtd">
<!-- Generated by graphviz version 2.40.1 (20161225.0304)
 -->
<!-- Title: src/include/component.h Pages: 1 -->
<svg width="404pt" height="82pt"
 viewBox="0.00 0.00 403.92 82.00" xmlns="http://www.w3.org/2000/svg" xmlns:xlink="http://www.w3.org/1999/xlink">
<g id="graph0" class="graph" transform="scale(1 1) rotate(0) translate(4 78)">
<title>src/include/component.h</title>
<polygon fill="#ffffff" stroke="transparent" points="-4,4 -4,-78 399.9233,-78 399.9233,4 -4,4"/>
<!-- Node25 -->
<g id="node1" class="node">
<title>Node25</title>
<polygon fill="#bfbfbf" stroke="#000000" points="150.0444,-55.5 150.0444,-73.5 274.438,-73.5 274.438,-55.5 150.0444,-55.5"/>
<text text-anchor="middle" x="212.2412" y="-61.5" font-family="Helvetica,sans-Serif" font-size="10.00" fill="#000000">src/include/component.h</text>
</g>
<!-- Node26 -->
<g id="node2" class="node">
<title>Node26</title>
<g id="a_node2"><a xlink:href="events_2event_8c.html" target="_top" xlink:title="events/event.c">
<polygon fill="#ffffff" stroke="#000000" points="0,-.5 0,-18.5 80.4824,-18.5 80.4824,-.5 0,-.5"/>
<text text-anchor="middle" x="40.2412" y="-6.5" font-family="Helvetica,sans-Serif" font-size="10.00" fill="#000000">events/event.c</text>
</a>
</g>
</g>
<!-- Node25&#45;&gt;Node26 -->
<g id="edge1" class="edge">
<title>Node25&#45;&gt;Node26</title>
<path fill="none" stroke="#191970" d="M173.949,-52.2554C141.9827,-42.0336 97.1521,-27.6983 68.3998,-18.5042"/>
<polygon fill="#191970" stroke="#191970" points="173.248,-55.7058 183.8389,-55.4179 175.3801,-49.0383 173.248,-55.7058"/>
</g>
<!-- Node27 -->
<g id="node3" class="node">
<title>Node27</title>
<g id="a_node3"><a xlink:href="ext__comps_2shim_2event_8c.html" target="_top" xlink:title="ext_comps/shim/event.c">
<polygon fill="#ffffff" stroke="#000000" points="98.6084,-.5 98.6084,-18.5 221.874,-18.5 221.874,-.5 98.6084,-.5"/>
<text text-anchor="middle" x="160.2412" y="-6.5" font-family="Helvetica,sans-Serif" font-size="10.00" fill="#000000">ext_comps/shim/event.c</text>
</a>
</g>
</g>
<!-- Node25&#45;&gt;Node27 -->
<g id="edge2" class="edge">
<title>Node25&#45;&gt;Node27</title>
<path fill="none" stroke="#191970" d="M196.6534,-48.0129C187.6107,-38.4485 176.5552,-26.7552 169.0145,-18.7795"/>
<polygon fill="#191970" stroke="#191970" points="194.2411,-50.5559 203.6545,-55.4179 199.3276,-45.7468 194.2411,-50.5559"/>
</g>
<!-- Node28 -->
<g id="node4" class="node">
<title>Node28</title>
<g id="a_node4"><a xlink:href="src_2cli_8c.html" target="_top" xlink:title="src/cli.c">
<polygon fill="#ffffff" stroke="#000000" points="239.5762,-.5 239.5762,-18.5 288.9063,-18.5 288.9063,-.5 239.5762,-.5"/>
<text text-anchor="middle" x="264.2412" y="-6.5" font-family="Helvetica,sans-Serif" font-size="10.00" fill="#000000">src/cli.c</text>
</a>
</g>
</g>
<!-- Node25&#45;&gt;Node28 -->
<g id="edge3" class="edge">
<title>Node25&#45;&gt;Node28</title>
<path fill="none" stroke="#191970" d="M227.829,-48.0129C236.8717,-38.4485 247.9272,-26.7552 255.4679,-18.7795"/>
<polygon fill="#191970" stroke="#191970" points="225.1548,-45.7468 220.828,-55.4179 230.2414,-50.5559 225.1548,-45.7468"/>
</g>
<!-- Node29 -->
<g id="node5" class="node">
<title>Node29</title>
<g id="a_node5"><a xlink:href="component_8c.html" target="_top" xlink:title="src/component.c">
<polygon fill="#ffffff" stroke="#000000" points="306.5591,-.5 306.5591,-18.5 395.9233,-18.5 395.9233,-.5 306.5591,-.5"/>
<text text-anchor="middle" x="351.2412" y="-6.5" font-family="Helvetica,sans-Serif" font-size="10.00" fill="#000000">src/component.c</text>
</a>
</g>
</g>
<!-- Node25&#45;&gt;Node29 -->
<g id="edge4" class="edge">
<title>Node25&#45;&gt;Node29</title>
<path fill="none" stroke="#191970" d="M244.5085,-51.7324C270.1571,-41.5837 305.4048,-27.6367 328.2541,-18.5956"/>
<polygon fill="#191970" stroke="#191970" points="243.205,-48.484 235.1942,-55.4179 245.7806,-54.993 243.205,-48.484"/>
</g>
</g>
</svg>
