<?xml version="1.0" encoding="UTF-8" standalone="no"?>
<!DOCTYPE svg PUBLIC "-//W3C//DTD SVG 1.1//EN"
 "http://www.w3.org/Graphics/SVG/1.1/DTD/svg11.dtd">
<!-- Generated by graphviz version 2.40.1 (20161225.0304)
 -->
<!-- Title: src/include/common.h Pages: 1 -->
<svg width="2410pt" height="137pt"
 viewBox="0.00 0.00 2410.35 137.00" xmlns="http://www.w3.org/2000/svg" xmlns:xlink="http://www.w3.org/1999/xlink">
<g id="graph0" class="graph" transform="scale(1 1) rotate(0) translate(4 133)">
<title>src/include/common.h</title>
<polygon fill="#ffffff" stroke="transparent" points="-4,4 -4,-133 2406.3521,-133 2406.3521,4 -4,4"/>
<!-- Node0 -->
<g id="node1" class="node">
<title>Node0</title>
<polygon fill="#bfbfbf" stroke="#000000" points="1146.1011,-110.5 1146.1011,-128.5 1259.3618,-128.5 1259.3618,-110.5 1146.1011,-110.5"/>
<text text-anchor="middle" x="1202.7314" y="-116.5" font-family="Helvetica,sans-Serif" font-size="10.00" fill="#000000">src/include/common.h</text>
</g>
<!-- Node1 -->
<g id="node2" class="node">
<title>Node1</title>
<polygon fill="#ffffff" stroke="#bfbfbf" points="0,-.5 0,-18.5 45.4629,-18.5 45.4629,-.5 0,-.5"/>
<text text-anchor="middle" x="22.7314" y="-6.5" font-family="Helvetica,sans-Serif" font-size="10.00" fill="#000000">stdio.h</text>
</g>
<!-- Node0&#45;&gt;Node1 -->
<g id="edge1" class="edge">
<title>Node0&#45;&gt;Node1</title>
<path fill="none" stroke="#191970" d="M1145.8281,-119.0406C918.9807,-116.9824 89.2647,-107.2039 44.7314,-74 30.8239,-63.6306 25.6305,-43.9804 23.7315,-29.0822"/>
<polygon fill="#191970" stroke="#191970" points="27.1942,-28.5033 22.8317,-18.8483 20.2211,-29.1164 27.1942,-28.5033"/>
</g>
<!-- Node2 -->
<g id="node3" class="node">
<title>Node2</title>
<polygon fill="#ffffff" stroke="#bfbfbf" points="192.2192,-55.5 192.2192,-73.5 243.2437,-73.5 243.2437,-55.5 192.2192,-55.5"/>
<text text-anchor="middle" x="217.7314" y="-61.5" font-family="Helvetica,sans-Serif" font-size="10.00" fill="#000000">unistd.h</text>
</g>
<!-- Node0&#45;&gt;Node2 -->
<g id="edge2" class="edge">
<title>Node0&#45;&gt;Node2</title>
<path fill="none" stroke="#191970" d="M1145.9611,-118.4559C971.5868,-114.9902 444.4914,-102.5186 253.5111,-73.9205"/>
<polygon fill="#191970" stroke="#191970" points="254.0068,-70.4556 243.5864,-72.3699 252.9262,-77.3717 254.0068,-70.4556"/>
</g>
<!-- Node3 -->
<g id="node4" class="node">
<title>Node3</title>
<polygon fill="#ffffff" stroke="#bfbfbf" points="260.8892,-55.5 260.8892,-73.5 308.5737,-73.5 308.5737,-55.5 260.8892,-55.5"/>
<text text-anchor="middle" x="284.7314" y="-61.5" font-family="Helvetica,sans-Serif" font-size="10.00" fill="#000000">stdlib.h</text>
</g>
<!-- Node0&#45;&gt;Node3 -->
<g id="edge3" class="edge">
<title>Node0&#45;&gt;Node3</title>
<path fill="none" stroke="#191970" d="M1146.0504,-118.2811C980.2122,-114.4517 496.9809,-101.353 318.765,-73.724"/>
<polygon fill="#191970" stroke="#191970" points="319.1666,-70.2435 308.7354,-72.0985 318.0467,-77.1533 319.1666,-70.2435"/>
</g>
<!-- Node4 -->
<g id="node5" class="node">
<title>Node4</title>
<polygon fill="#ffffff" stroke="#bfbfbf" points="63.665,-.5 63.665,-18.5 115.7979,-18.5 115.7979,-.5 63.665,-.5"/>
<text text-anchor="middle" x="89.7314" y="-6.5" font-family="Helvetica,sans-Serif" font-size="10.00" fill="#000000">stdarg.h</text>
</g>
<!-- Node0&#45;&gt;Node4 -->
<g id="edge4" class="edge">
<title>Node0&#45;&gt;Node4</title>
<path fill="none" stroke="#191970" d="M1146.0266,-119.1307C942.7858,-117.5166 258.032,-109.474 166.7314,-74 141.2219,-64.0885 118.0512,-42.0892 103.9387,-26.5475"/>
<polygon fill="#191970" stroke="#191970" points="106.2902,-23.9196 97.0729,-18.6954 101.0205,-28.5274 106.2902,-23.9196"/>
</g>
<!-- Node5 -->
<g id="node6" class="node">
<title>Node5</title>
<polygon fill="#ffffff" stroke="#bfbfbf" points="326.6108,-55.5 326.6108,-73.5 374.8521,-73.5 374.8521,-55.5 326.6108,-55.5"/>
<text text-anchor="middle" x="350.7314" y="-61.5" font-family="Helvetica,sans-Serif" font-size="10.00" fill="#000000">stdint.h</text>
</g>
<!-- Node0&#45;&gt;Node5 -->
<g id="edge5" class="edge">
<title>Node0&#45;&gt;Node5</title>
<path fill="none" stroke="#191970" d="M1145.8323,-117.9413C988.7026,-113.3869 550.1224,-98.9226 385.1032,-73.597"/>
<polygon fill="#191970" stroke="#191970" points="385.5313,-70.121 375.103,-71.992 384.4219,-77.0326 385.5313,-70.121"/>
</g>
<!-- Node6 -->
<g id="node7" class="node">
<title>Node6</title>
<polygon fill="#ffffff" stroke="#bfbfbf" points="393.335,-55.5 393.335,-73.5 442.1279,-73.5 442.1279,-55.5 393.335,-55.5"/>
<text text-anchor="middle" x="417.7314" y="-61.5" font-family="Helvetica,sans-Serif" font-size="10.00" fill="#000000">string.h</text>
</g>
<!-- Node0&#45;&gt;Node6 -->
<g id="edge6" class="edge">
<title>Node0&#45;&gt;Node6</title>
<path fill="none" stroke="#191970" d="M1145.8387,-117.6784C997.8679,-112.6874 602.5996,-97.6743 452.4197,-73.9038"/>
<polygon fill="#191970" stroke="#191970" points="452.8998,-70.4357 442.4618,-72.2514 451.7539,-77.3412 452.8998,-70.4357"/>
</g>
<!-- Node7 -->
<g id="node8" class="node">
<title>Node7</title>
<polygon fill="#ffffff" stroke="#bfbfbf" points="459.835,-55.5 459.835,-73.5 513.6279,-73.5 513.6279,-55.5 459.835,-55.5"/>
<text text-anchor="middle" x="486.7314" y="-61.5" font-family="Helvetica,sans-Serif" font-size="10.00" fill="#000000">strings.h</text>
</g>
<!-- Node0&#45;&gt;Node7 -->
<g id="edge7" class="edge">
<title>Node0&#45;&gt;Node7</title>
<path fill="none" stroke="#191970" d="M1145.9983,-117.1031C1008.713,-111.0836 660.4816,-94.4483 523.9693,-73.8382"/>
<polygon fill="#191970" stroke="#191970" points="524.1627,-70.3254 513.7385,-72.2194 523.0686,-77.2393 524.1627,-70.3254"/>
</g>
<!-- Node8 -->
<g id="node9" class="node">
<title>Node8</title>
<polygon fill="#ffffff" stroke="#bfbfbf" points="531.6035,-55.5 531.6035,-73.5 589.8594,-73.5 589.8594,-55.5 531.6035,-55.5"/>
<text text-anchor="middle" x="560.7314" y="-61.5" font-family="Helvetica,sans-Serif" font-size="10.00" fill="#000000">pthread.h</text>
</g>
<!-- Node0&#45;&gt;Node8 -->
<g id="edge8" class="edge">
<title>Node0&#45;&gt;Node8</title>
<path fill="none" stroke="#191970" d="M1145.7294,-118.4251C1039.8761,-115.7297 805.7565,-106.4881 600.165,-73.9784"/>
<polygon fill="#191970" stroke="#191970" points="600.5157,-70.49 590.0877,-72.3624 599.4073,-77.4017 600.5157,-70.49"/>
</g>
<!-- Node9 -->
<g id="node10" class="node">
<title>Node9</title>
<polygon fill="#ffffff" stroke="#bfbfbf" points="607.6108,-55.5 607.6108,-73.5 655.8521,-73.5 655.8521,-55.5 607.6108,-55.5"/>
<text text-anchor="middle" x="631.7314" y="-61.5" font-family="Helvetica,sans-Serif" font-size="10.00" fill="#000000">ctype.h</text>
</g>
<!-- Node0&#45;&gt;Node9 -->
<g id="edge9" class="edge">
<title>Node0&#45;&gt;Node9</title>
<path fill="none" stroke="#191970" d="M1146.0954,-118.3495C1049.2824,-115.5903 845.7889,-106.3393 666.0107,-73.9093"/>
<polygon fill="#191970" stroke="#191970" points="666.5796,-70.4553 656.1125,-72.0956 665.3179,-77.3407 666.5796,-70.4553"/>
</g>
<!-- Node10 -->
<g id="node11" class="node">
<title>Node10</title>
<polygon fill="#ffffff" stroke="#bfbfbf" points="673.8892,-55.5 673.8892,-73.5 721.5737,-73.5 721.5737,-55.5 673.8892,-55.5"/>
<text text-anchor="middle" x="697.7314" y="-61.5" font-family="Helvetica,sans-Serif" font-size="10.00" fill="#000000">errno.h</text>
</g>
<!-- Node0&#45;&gt;Node10 -->
<g id="edge10" class="edge">
<title>Node0&#45;&gt;Node10</title>
<path fill="none" stroke="#191970" d="M1145.7976,-117.5628C1058.3554,-113.8129 885.7433,-103.3467 731.8306,-74.1146"/>
<polygon fill="#191970" stroke="#191970" points="732.2031,-70.6219 721.7207,-72.1618 730.8755,-77.4949 732.2031,-70.6219"/>
</g>
<!-- Node11 -->
<g id="node12" class="node">
<title>Node11</title>
<polygon fill="#ffffff" stroke="#bfbfbf" points="739.1157,-55.5 739.1157,-73.5 782.3472,-73.5 782.3472,-55.5 739.1157,-55.5"/>
<text text-anchor="middle" x="760.7314" y="-61.5" font-family="Helvetica,sans-Serif" font-size="10.00" fill="#000000">time.h</text>
</g>
<!-- Node0&#45;&gt;Node11 -->
<g id="edge11" class="edge">
<title>Node0&#45;&gt;Node11</title>
<path fill="none" stroke="#191970" d="M1146.0334,-116.5849C1068.2179,-111.8437 923.9589,-100.4047 792.4621,-73.788"/>
<polygon fill="#191970" stroke="#191970" points="793.1155,-70.3492 782.6152,-71.7611 791.7042,-77.2054 793.1155,-70.3492"/>
</g>
<!-- Node12 -->
<g id="node13" class="node">
<title>Node12</title>
<polygon fill="#ffffff" stroke="#bfbfbf" points="800.3916,-55.5 800.3916,-73.5 843.0713,-73.5 843.0713,-55.5 800.3916,-55.5"/>
<text text-anchor="middle" x="821.7314" y="-61.5" font-family="Helvetica,sans-Serif" font-size="10.00" fill="#000000">fcntl.h</text>
</g>
<!-- Node0&#45;&gt;Node12 -->
<g id="edge12" class="edge">
<title>Node0&#45;&gt;Node12</title>
<path fill="none" stroke="#191970" d="M1145.8552,-115.0656C1078.2281,-109.1357 961.9035,-96.8643 853.1169,-73.737"/>
<polygon fill="#191970" stroke="#191970" points="853.8028,-70.3045 843.2892,-71.6132 852.3242,-77.1466 853.8028,-70.3045"/>
</g>
<!-- Node13 -->
<g id="node14" class="node">
<title>Node13</title>
<polygon fill="#ffffff" stroke="#bfbfbf" points="861.4976,-55.5 861.4976,-73.5 911.9653,-73.5 911.9653,-55.5 861.4976,-55.5"/>
<text text-anchor="middle" x="886.7314" y="-61.5" font-family="Helvetica,sans-Serif" font-size="10.00" fill="#000000">signal.h</text>
</g>
<!-- Node0&#45;&gt;Node13 -->
<g id="edge13" class="edge">
<title>Node0&#45;&gt;Node13</title>
<path fill="none" stroke="#191970" d="M1145.9314,-112.2486C1090.9069,-104.7933 1004.9634,-92.0161 922.0998,-74.119"/>
<polygon fill="#191970" stroke="#191970" points="922.7908,-70.6874 912.2738,-71.969 921.2945,-77.5256 922.7908,-70.6874"/>
</g>
<!-- Node14 -->
<g id="node15" class="node">
<title>Node14</title>
<polygon fill="#ffffff" stroke="#bfbfbf" points="134.2266,-.5 134.2266,-18.5 195.2363,-18.5 195.2363,-.5 134.2266,-.5"/>
<text text-anchor="middle" x="164.7314" y="-6.5" font-family="Helvetica,sans-Serif" font-size="10.00" fill="#000000">sys/time.h</text>
</g>
<!-- Node0&#45;&gt;Node14 -->
<g id="edge14" class="edge">
<title>Node0&#45;&gt;Node14</title>
<path fill="none" stroke="#191970" d="M1145.9228,-118.7963C936.8935,-115.9721 220.6308,-104.1256 182.7314,-74 169.3873,-63.3929 165.4241,-43.7773 164.4735,-28.9521"/>
<polygon fill="#191970" stroke="#191970" points="167.9683,-28.6902 164.2282,-18.7775 160.9703,-28.859 167.9683,-28.6902"/>
</g>
<!-- Node15 -->
<g id="node16" class="node">
<title>Node15</title>
<polygon fill="#ffffff" stroke="#bfbfbf" points="929.6133,-55.5 929.6133,-73.5 987.8496,-73.5 987.8496,-55.5 929.6133,-55.5"/>
<text text-anchor="middle" x="958.7314" y="-61.5" font-family="Helvetica,sans-Serif" font-size="10.00" fill="#000000">sys/stat.h</text>
</g>
<!-- Node0&#45;&gt;Node15 -->
<g id="edge15" class="edge">
<title>Node0&#45;&gt;Node15</title>
<path fill="none" stroke="#191970" d="M1160.0438,-110.4309C1120.4466,-101.9379 1059.6288,-88.6904 998.0558,-74.269"/>
<polygon fill="#191970" stroke="#191970" points="998.706,-70.8265 988.1704,-71.9449 997.1039,-77.6407 998.706,-70.8265"/>
</g>
<!-- Node16 -->
<g id="node17" class="node">
<title>Node16</title>
<polygon fill="#ffffff" stroke="#bfbfbf" points="1005.7217,-55.5 1005.7217,-73.5 1071.7412,-73.5 1071.7412,-55.5 1005.7217,-55.5"/>
<text text-anchor="middle" x="1038.7314" y="-61.5" font-family="Helvetica,sans-Serif" font-size="10.00" fill="#000000">sys/types.h</text>
</g>
<!-- Node0&#45;&gt;Node16 -->
<g id="edge16" class="edge">
<title>Node0&#45;&gt;Node16</title>
<path fill="none" stroke="#191970" d="M1175.6502,-110.4179C1148.268,-101.2348 1105.7649,-86.9807 1075.3807,-76.7909"/>
<polygon fill="#191970" stroke="#191970" points="1076.1743,-73.3655 1065.5804,-73.5042 1073.9485,-80.0023 1076.1743,-73.3655"/>
</g>
<!-- Node17 -->
<g id="node18" class="node">
<title>Node17</title>
<polygon fill="#ffffff" stroke="#bfbfbf" points="1089.7808,-55.5 1089.7808,-73.5 1149.6821,-73.5 1149.6821,-55.5 1089.7808,-55.5"/>
<text text-anchor="middle" x="1119.7314" y="-61.5" font-family="Helvetica,sans-Serif" font-size="10.00" fill="#000000">sys/ioctl.h</text>
</g>
<!-- Node0&#45;&gt;Node17 -->
<g id="edge17" class="edge">
<title>Node0&#45;&gt;Node17</title>
<path fill="none" stroke="#191970" d="M1189.0257,-110.4179C1176.2903,-101.9788 1157.092,-89.257 1142.1302,-79.3426"/>
<polygon fill="#191970" stroke="#191970" points="1143.7269,-76.2019 1133.4576,-73.5956 1139.8602,-82.037 1143.7269,-76.2019"/>
</g>
<!-- Node18 -->
<g id="node19" class="node">
<title>Node18</title>
<polygon fill="#ffffff" stroke="#bfbfbf" points="1167.2217,-55.5 1167.2217,-73.5 1238.2412,-73.5 1238.2412,-55.5 1167.2217,-55.5"/>
<text text-anchor="middle" x="1202.7314" y="-61.5" font-family="Helvetica,sans-Serif" font-size="10.00" fill="#000000">sys/socket.h</text>
</g>
<!-- Node0&#45;&gt;Node18 -->
<g id="edge18" class="edge">
<title>Node0&#45;&gt;Node18</title>
<path fill="none" stroke="#191970" d="M1202.7314,-110.4179C1202.7314,-103.2164 1202.7314,-92.8962 1202.7314,-83.8632"/>
<polygon fill="#191970" stroke="#191970" points="1206.2315,-83.7794 1202.7314,-73.7795 1199.2315,-83.7795 1206.2315,-83.7794"/>
</g>
<!-- Node19 -->
<g id="node20" class="node">
<title>Node19</title>
<polygon fill="#ffffff" stroke="#bfbfbf" points="1256.1108,-55.5 1256.1108,-73.5 1329.3521,-73.5 1329.3521,-55.5 1256.1108,-55.5"/>
<text text-anchor="middle" x="1292.7314" y="-61.5" font-family="Helvetica,sans-Serif" font-size="10.00" fill="#000000">sys/sysinfo.h</text>
</g>
<!-- Node0&#45;&gt;Node19 -->
<g id="edge19" class="edge">
<title>Node0&#45;&gt;Node19</title>
<path fill="none" stroke="#191970" d="M1217.5931,-110.4179C1231.5328,-101.8992 1252.6134,-89.0166 1268.9015,-79.0627"/>
<polygon fill="#191970" stroke="#191970" points="1271.14,-81.7967 1277.8477,-73.5956 1267.4898,-75.8237 1271.14,-81.7967"/>
</g>
<!-- Node20 -->
<g id="node21" class="node">
<title>Node20</title>
<polygon fill="#ffffff" stroke="#bfbfbf" points="1347.1035,-55.5 1347.1035,-73.5 1410.3594,-73.5 1410.3594,-55.5 1347.1035,-55.5"/>
<text text-anchor="middle" x="1378.7314" y="-61.5" font-family="Helvetica,sans-Serif" font-size="10.00" fill="#000000">arpa/inet.h</text>
</g>
<!-- Node0&#45;&gt;Node20 -->
<g id="edge20" class="edge">
<title>Node0&#45;&gt;Node20</title>
<path fill="none" stroke="#191970" d="M1231.7943,-110.4179C1261.4355,-101.155 1307.5876,-86.7325 1340.2482,-76.526"/>
<polygon fill="#191970" stroke="#191970" points="1341.4172,-79.8277 1349.918,-73.5042 1339.3292,-73.1463 1341.4172,-79.8277"/>
</g>
<!-- Node21 -->
<g id="node22" class="node">
<title>Node21</title>
<polygon fill="#ffffff" stroke="#bfbfbf" points="1428.2686,-55.5 1428.2686,-73.5 1493.1943,-73.5 1493.1943,-55.5 1428.2686,-55.5"/>
<text text-anchor="middle" x="1460.7314" y="-61.5" font-family="Helvetica,sans-Serif" font-size="10.00" fill="#000000">netinet/in.h</text>
</g>
<!-- Node0&#45;&gt;Node21 -->
<g id="edge21" class="edge">
<title>Node0&#45;&gt;Node21</title>
<path fill="none" stroke="#191970" d="M1247.2591,-110.4485C1289.0222,-101.895 1353.4763,-88.5316 1418.1182,-74.3264"/>
<polygon fill="#191970" stroke="#191970" points="1419.0595,-77.703 1428.0718,-72.1326 1417.5528,-70.8671 1419.0595,-77.703"/>
</g>
<!-- Node22 -->
<g id="node23" class="node">
<title>Node22</title>
<polygon fill="#ffffff" stroke="#bfbfbf" points="1510.8745,-55.5 1510.8745,-73.5 1588.5884,-73.5 1588.5884,-55.5 1510.8745,-55.5"/>
<text text-anchor="middle" x="1549.7314" y="-61.5" font-family="Helvetica,sans-Serif" font-size="10.00" fill="#000000">net/ethernet.h</text>
</g>
<!-- Node0&#45;&gt;Node22 -->
<g id="edge22" class="edge">
<title>Node0&#45;&gt;Node22</title>
<path fill="none" stroke="#191970" d="M1259.6178,-111.6097C1317.6851,-103.3829 1410.6636,-89.7355 1500.6234,-74.133"/>
<polygon fill="#191970" stroke="#191970" points="1501.4763,-77.5371 1510.7258,-72.3702 1500.273,-70.6413 1501.4763,-77.5371"/>
</g>
<!-- Node23 -->
<g id="node24" class="node">
<title>Node23</title>
<polygon fill="#ffffff" stroke="#bfbfbf" points="1606.2686,-55.5 1606.2686,-73.5 1671.1943,-73.5 1671.1943,-55.5 1606.2686,-55.5"/>
<text text-anchor="middle" x="1638.7314" y="-61.5" font-family="Helvetica,sans-Serif" font-size="10.00" fill="#000000">netinet/ip.h</text>
</g>
<!-- Node0&#45;&gt;Node23 -->
<g id="edge23" class="edge">
<title>Node0&#45;&gt;Node23</title>
<path fill="none" stroke="#191970" d="M1259.6002,-114.9824C1334.5815,-108.5756 1470.7639,-95.3864 1595.9781,-74.1484"/>
<polygon fill="#191970" stroke="#191970" points="1596.8623,-77.5478 1606.1254,-72.4052 1595.6771,-70.6489 1596.8623,-77.5478"/>
</g>
<!-- Node24 -->
<g id="node25" class="node">
<title>Node24</title>
<polygon fill="#ffffff" stroke="#bfbfbf" points="1689.4902,-55.5 1689.4902,-73.5 1759.9727,-73.5 1759.9727,-55.5 1689.4902,-55.5"/>
<text text-anchor="middle" x="1724.7314" y="-61.5" font-family="Helvetica,sans-Serif" font-size="10.00" fill="#000000">netinet/tcp.h</text>
</g>
<!-- Node0&#45;&gt;Node24 -->
<g id="edge24" class="edge">
<title>Node0&#45;&gt;Node24</title>
<path fill="none" stroke="#191970" d="M1259.5257,-116.1652C1347.3404,-110.551 1521.5003,-97.5957 1679.5236,-73.8523"/>
<polygon fill="#191970" stroke="#191970" points="1680.0668,-77.31 1689.4271,-72.3467 1679.0146,-70.3895 1680.0668,-77.31"/>
</g>
<!-- Node25 -->
<g id="node26" class="node">
<title>Node25</title>
<polygon fill="#ffffff" stroke="#bfbfbf" points="1777.9312,-55.5 1777.9312,-73.5 1869.5317,-73.5 1869.5317,-55.5 1777.9312,-55.5"/>
<text text-anchor="middle" x="1823.7314" y="-61.5" font-family="Helvetica,sans-Serif" font-size="10.00" fill="#000000">netinet/ip_icmp.h</text>
</g>
<!-- Node0&#45;&gt;Node25 -->
<g id="edge25" class="edge">
<title>Node0&#45;&gt;Node25</title>
<path fill="none" stroke="#191970" d="M1259.5437,-116.6445C1359.9747,-111.2226 1575.6149,-97.9034 1767.8565,-74"/>
<polygon fill="#191970" stroke="#191970" points="1768.3761,-77.4624 1777.8621,-72.7436 1767.5039,-70.5169 1768.3761,-77.4624"/>
</g>
<!-- Node26 -->
<g id="node27" class="node">
<title>Node26</title>
<g id="a_node27"><a xlink:href="mac2int_8h.html" target="_top" xlink:title="mac2int.h">
<polygon fill="#ffffff" stroke="#000000" points="1887.0542,-55.5 1887.0542,-73.5 1946.4087,-73.5 1946.4087,-55.5 1887.0542,-55.5"/>
<text text-anchor="middle" x="1916.7314" y="-61.5" font-family="Helvetica,sans-Serif" font-size="10.00" fill="#000000">mac2int.h</text>
</a>
</g>
</g>
<!-- Node0&#45;&gt;Node26 -->
<g id="edge26" class="edge">
<title>Node0&#45;&gt;Node26</title>
<path fill="none" stroke="#191970" d="M1259.5171,-116.7704C1398.4557,-110.1645 1752.2277,-92.4919 1869.7314,-74 1872.0553,-73.6343 1874.445,-73.1939 1876.8626,-72.7058"/>
<polygon fill="#191970" stroke="#191970" points="1877.8498,-76.0722 1886.8602,-70.4989 1876.3408,-69.2368 1877.8498,-76.0722"/>
</g>
<!-- Node27 -->
<g id="node28" class="node">
<title>Node27</title>
<g id="a_node28"><a xlink:href="ip2int_8h.html" target="_top" xlink:title="ip2int.h">
<polygon fill="#ffffff" stroke="#000000" points="1964.6084,-55.5 1964.6084,-73.5 2012.8545,-73.5 2012.8545,-55.5 1964.6084,-55.5"/>
<text text-anchor="middle" x="1988.7314" y="-61.5" font-family="Helvetica,sans-Serif" font-size="10.00" fill="#000000">ip2int.h</text>
</a>
</g>
</g>
<!-- Node0&#45;&gt;Node27 -->
<g id="edge28" class="edge">
<title>Node0&#45;&gt;Node27</title>
<path fill="none" stroke="#191970" d="M1259.5238,-117.5401C1409.6804,-112.2998 1814.1902,-96.796 1946.7314,-74 1949.1992,-73.5756 1951.7454,-73.0347 1954.3178,-72.427"/>
<polygon fill="#191970" stroke="#191970" points="1955.4519,-75.749 1964.2575,-69.8573 1953.6997,-68.9718 1955.4519,-75.749"/>
</g>
<!-- Node28 -->
<g id="node29" class="node">
<title>Node28</title>
<g id="a_node29"><a xlink:href="database_8h.html" target="_top" xlink:title="database.h">
<polygon fill="#ffffff" stroke="#000000" points="2030.9878,-55.5 2030.9878,-73.5 2096.4751,-73.5 2096.4751,-55.5 2030.9878,-55.5"/>
<text text-anchor="middle" x="2063.7314" y="-61.5" font-family="Helvetica,sans-Serif" font-size="10.00" fill="#000000">database.h</text>
</a>
</g>
</g>
<!-- Node0&#45;&gt;Node28 -->
<g id="edge30" class="edge">
<title>Node0&#45;&gt;Node28</title>
<path fill="none" stroke="#191970" d="M1259.5302,-117.4337C1418.6783,-111.6686 1866.3207,-94.4791 2012.7314,-74 2015.3482,-73.634 2018.043,-73.1879 2020.7681,-72.691"/>
<polygon fill="#191970" stroke="#191970" points="2021.5574,-76.1026 2030.6831,-70.7201 2020.1925,-69.237 2021.5574,-76.1026"/>
</g>
<!-- Node30 -->
<g id="node31" class="node">
<title>Node30</title>
<polygon fill="#ffffff" stroke="#bfbfbf" points="2152.3276,-55.5 2152.3276,-73.5 2211.1353,-73.5 2211.1353,-55.5 2152.3276,-55.5"/>
<text text-anchor="middle" x="2181.7314" y="-61.5" font-family="Helvetica,sans-Serif" font-size="10.00" fill="#000000">jansson.h</text>
</g>
<!-- Node0&#45;&gt;Node30 -->
<g id="edge34" class="edge">
<title>Node0&#45;&gt;Node30</title>
<path fill="none" stroke="#191970" d="M1259.4728,-117.9994C1434.9473,-113.1604 1967.2973,-96.937 2138.7314,-74 2139.8302,-73.853 2140.9425,-73.6922 2142.0632,-73.5195"/>
<polygon fill="#191970" stroke="#191970" points="2143.0112,-76.9057 2152.2405,-71.7027 2141.781,-70.0146 2143.0112,-76.9057"/>
</g>
<!-- Node31 -->
<g id="node32" class="node">
<title>Node31</title>
<g id="a_node32"><a xlink:href="libcli_8h.html" target="_top" xlink:title="libcli.h">
<polygon fill="#ffffff" stroke="#000000" points="53.8374,-55.5 53.8374,-73.5 97.6255,-73.5 97.6255,-55.5 53.8374,-55.5"/>
<text text-anchor="middle" x="75.7314" y="-61.5" font-family="Helvetica,sans-Serif" font-size="10.00" fill="#000000">libcli.h</text>
</a>
</g>
</g>
<!-- Node0&#45;&gt;Node31 -->
<g id="edge35" class="edge">
<title>Node0&#45;&gt;Node31</title>
<path fill="none" stroke="#191970" d="M1145.9755,-118.7532C951.6941,-115.9435 314.1775,-104.5644 111.7314,-74 110.4372,-73.8046 109.1224,-73.5807 107.7985,-73.3339"/>
<polygon fill="#191970" stroke="#191970" points="108.1781,-69.8334 97.6582,-71.0915 106.6666,-76.6683 108.1781,-69.8334"/>
</g>
<!-- Node32 -->
<g id="node33" class="node">
<title>Node32</title>
<polygon fill="#ffffff" stroke="#bfbfbf" points="2229.5049,-55.5 2229.5049,-73.5 2279.958,-73.5 2279.958,-55.5 2229.5049,-55.5"/>
<text text-anchor="middle" x="2254.7314" y="-61.5" font-family="Helvetica,sans-Serif" font-size="10.00" fill="#000000">mysql.h</text>
</g>
<!-- Node0&#45;&gt;Node32 -->
<g id="edge39" class="edge">
<title>Node0&#45;&gt;Node32</title>
<path fill="none" stroke="#191970" d="M1259.4798,-118.6058C1441.9346,-115.4767 2013.0537,-103.642 2219.1362,-73.6458"/>
<polygon fill="#191970" stroke="#191970" points="2219.8953,-77.0707 2229.2576,-72.111 2218.8458,-70.1499 2219.8953,-77.0707"/>
</g>
<!-- Node33 -->
<g id="node34" class="node">
<title>Node33</title>
<polygon fill="#ffffff" stroke="#bfbfbf" points="2298.1157,-55.5 2298.1157,-73.5 2341.3472,-73.5 2341.3472,-55.5 2298.1157,-55.5"/>
<text text-anchor="middle" x="2319.7314" y="-61.5" font-family="Helvetica,sans-Serif" font-size="10.00" fill="#000000">zmq.h</text>
</g>
<!-- Node0&#45;&gt;Node33 -->
<g id="edge40" class="edge">
<title>Node0&#45;&gt;Node33</title>
<path fill="none" stroke="#191970" d="M1259.6106,-119.0311C1450.5226,-117.1627 2068.2508,-108.6552 2287.7363,-73.6393"/>
<polygon fill="#191970" stroke="#191970" points="2288.5934,-77.045 2297.8837,-71.9518 2287.445,-70.1398 2288.5934,-77.045"/>
</g>
<!-- Node34 -->
<g id="node35" class="node">
<title>Node34</title>
<g id="a_node35"><a xlink:href="src_2include_2type_8h.html" target="_top" xlink:title="type.h">
<polygon fill="#ffffff" stroke="#000000" points="2359.1108,-55.5 2359.1108,-73.5 2402.3521,-73.5 2402.3521,-55.5 2359.1108,-55.5"/>
<text text-anchor="middle" x="2380.7314" y="-61.5" font-family="Helvetica,sans-Serif" font-size="10.00" fill="#000000">type.h</text>
</a>
</g>
</g>
<!-- Node0&#45;&gt;Node34 -->
<g id="edge41" class="edge">
<title>Node0&#45;&gt;Node34</title>
<path fill="none" stroke="#191970" d="M1259.7011,-119.2497C1457.9683,-118.0703 2117.8297,-111.4815 2348.9253,-73.8396"/>
<polygon fill="#191970" stroke="#191970" points="2349.6708,-77.2633 2358.9446,-72.1402 2348.5001,-70.3618 2349.6708,-77.2633"/>
</g>
<!-- Node26&#45;&gt;Node0 -->
<g id="edge27" class="edge">
<title>Node26&#45;&gt;Node0</title>
<path fill="none" stroke="#191970" d="M1890.5797,-73.5211C1889.6232,-73.6918 1888.6719,-73.852 1887.7314,-74 1770.5703,-92.438 1418.5172,-110.0614 1269.9396,-116.7124"/>
<polygon fill="#191970" stroke="#191970" points="1269.4343,-113.2313 1259.5997,-117.1721 1269.7453,-120.2244 1269.4343,-113.2313"/>
</g>
<!-- Node27&#45;&gt;Node0 -->
<g id="edge29" class="edge">
<title>Node27&#45;&gt;Node0</title>
<path fill="none" stroke="#191970" d="M1967.2205,-73.5386C1966.3853,-73.7041 1965.554,-73.8585 1964.7314,-74 1832.5907,-96.7272 1430.1227,-112.206 1269.6822,-117.4923"/>
<polygon fill="#191970" stroke="#191970" points="1269.3501,-114.0012 1259.4697,-117.8258 1269.5786,-120.9975 1269.3501,-114.0012"/>
</g>
<!-- Node28&#45;&gt;Node0 -->
<g id="edge31" class="edge">
<title>Node28&#45;&gt;Node0</title>
<path fill="none" stroke="#191970" d="M2033.8718,-73.5292C2032.8167,-73.6975 2031.768,-73.855 2030.7314,-74 1884.8331,-94.4075 1439.8078,-111.5482 1269.7095,-117.3728"/>
<polygon fill="#191970" stroke="#191970" points="1269.5093,-113.8775 1259.6341,-117.7155 1269.7473,-120.8734 1269.5093,-113.8775"/>
</g>
<!-- Node29 -->
<g id="node30" class="node">
<title>Node29</title>
<g id="a_node30"><a xlink:href="str_8h.html" target="_top" xlink:title="str.h">
<polygon fill="#ffffff" stroke="#000000" points="2076.2808,-.5 2076.2808,-18.5 2111.1821,-18.5 2111.1821,-.5 2076.2808,-.5"/>
<text text-anchor="middle" x="2093.7314" y="-6.5" font-family="Helvetica,sans-Serif" font-size="10.00" fill="#000000">str.h</text>
</a>
</g>
</g>
<!-- Node28&#45;&gt;Node29 -->
<g id="edge32" class="edge">
<title>Node28&#45;&gt;Node29</title>
<path fill="none" stroke="#191970" d="M2068.6853,-55.4179C2072.7861,-47.8998 2078.7408,-36.9829 2083.8152,-27.6799"/>
<polygon fill="#191970" stroke="#191970" points="2086.954,-29.2344 2088.6699,-18.7795 2080.8087,-25.8824 2086.954,-29.2344"/>
</g>
<!-- Node29&#45;&gt;Node0 -->
<g id="edge33" class="edge">
<title>Node29&#45;&gt;Node0</title>
<path fill="none" stroke="#191970" d="M2099.7406,-18.7868C2107.9246,-32.7147 2120.0161,-58.9774 2105.7314,-74 2077.0093,-104.2059 1474.1625,-115.6121 1269.7979,-118.6196"/>
<polygon fill="#191970" stroke="#191970" points="1269.4527,-115.1242 1259.5046,-118.7689 1269.5543,-122.1234 1269.4527,-115.1242"/>
</g>
<!-- Node31&#45;&gt;Node1 -->
<g id="edge37" class="edge">
<title>Node31&#45;&gt;Node1</title>
<path fill="none" stroke="#191970" d="M66.9796,-55.4179C59.3536,-47.5041 48.0985,-35.8243 38.8484,-26.2251"/>
<polygon fill="#191970" stroke="#191970" points="41.1327,-23.5516 31.6735,-18.7795 36.0921,-28.4089 41.1327,-23.5516"/>
</g>
<!-- Node31&#45;&gt;Node4 -->
<g id="edge36" class="edge">
<title>Node31&#45;&gt;Node4</title>
<path fill="none" stroke="#191970" d="M78.0433,-55.4179C79.8965,-48.1372 82.5612,-37.669 84.8783,-28.5659"/>
<polygon fill="#191970" stroke="#191970" points="88.2944,-29.3338 87.3694,-18.7795 81.5107,-27.607 88.2944,-29.3338"/>
</g>
<!-- Node31&#45;&gt;Node14 -->
<g id="edge38" class="edge">
<title>Node31&#45;&gt;Node14</title>
<path fill="none" stroke="#191970" d="M90.428,-55.4179C104.2128,-46.8992 125.0592,-34.0166 141.1663,-24.0627"/>
<polygon fill="#191970" stroke="#191970" points="143.3463,-26.83 150.0131,-18.5956 139.6664,-20.8753 143.3463,-26.83"/>
</g>
</g>
</svg>
