<?xml version="1.0" encoding="UTF-8" standalone="no"?>
<!DOCTYPE svg PUBLIC "-//W3C//DTD SVG 1.1//EN"
 "http://www.w3.org/Graphics/SVG/1.1/DTD/svg11.dtd">
<!-- Generated by graphviz version 2.40.1 (20161225.0304)
 -->
<!-- Title: src/include/application.h Pages: 1 -->
<svg width="732pt" height="147pt"
 viewBox="0.00 0.00 732.15 147.00" xmlns="http://www.w3.org/2000/svg" xmlns:xlink="http://www.w3.org/1999/xlink">
<g id="graph0" class="graph" transform="scale(1 1) rotate(0) translate(4 143)">
<title>src/include/application.h</title>
<polygon fill="#ffffff" stroke="transparent" points="-4,4 -4,-143 728.1523,-143 728.1523,4 -4,4"/>
<!-- Node38 -->
<g id="node1" class="node">
<title>Node38</title>
<polygon fill="#bfbfbf" stroke="#000000" points="348.123,-120.5 348.123,-138.5 470.8516,-138.5 470.8516,-120.5 348.123,-120.5"/>
<text text-anchor="middle" x="409.4873" y="-126.5" font-family="Helvetica,sans-Serif" font-size="10.00" fill="#000000">src/include/application.h</text>
</g>
<!-- Node39 -->
<g id="node2" class="node">
<title>Node39</title>
<g id="a_node2"><a xlink:href="app__events_2app__event_8c.html" target="_top" xlink:title="app_events/app_event.c">
<polygon fill="#ffffff" stroke="#000000" points="0,-60.5 0,-78.5 124.9746,-78.5 124.9746,-60.5 0,-60.5"/>
<text text-anchor="middle" x="62.4873" y="-66.5" font-family="Helvetica,sans-Serif" font-size="10.00" fill="#000000">app_events/app_event.c</text>
</a>
</g>
</g>
<!-- Node38&#45;&gt;Node39 -->
<g id="edge1" class="edge">
<title>Node38&#45;&gt;Node39</title>
<path fill="none" stroke="#191970" d="M340.546,-118.8808C284.6368,-110.0895 203.8487,-96.9796 133.4873,-84 124.332,-82.3111 114.537,-80.387 105.2372,-78.5048"/>
<polygon fill="#191970" stroke="#191970" points="340.2663,-122.3796 350.6878,-120.471 341.3507,-115.4641 340.2663,-122.3796"/>
</g>
<!-- Node40 -->
<g id="node3" class="node">
<title>Node40</title>
<g id="a_node3"><a xlink:href="applications_2include_2rbac_8h.html" target="_top" xlink:title="applications/include\l/rbac.h">
<polygon fill="#ffffff" stroke="#000000" points="142.8472,-55.5 142.8472,-83.5 246.1274,-83.5 246.1274,-55.5 142.8472,-55.5"/>
<text text-anchor="start" x="150.8472" y="-71.5" font-family="Helvetica,sans-Serif" font-size="10.00" fill="#000000">applications/include</text>
<text text-anchor="middle" x="194.4873" y="-61.5" font-family="Helvetica,sans-Serif" font-size="10.00" fill="#000000">/rbac.h</text>
</a>
</g>
</g>
<!-- Node38&#45;&gt;Node40 -->
<g id="edge2" class="edge">
<title>Node38&#45;&gt;Node40</title>
<path fill="none" stroke="#191970" d="M366.8805,-117.6097C331.7206,-107.7977 281.7607,-93.8554 244.6684,-83.504"/>
<polygon fill="#191970" stroke="#191970" points="366.2606,-121.0704 376.8334,-120.3873 368.1423,-114.328 366.2606,-121.0704"/>
</g>
<!-- Node41 -->
<g id="node4" class="node">
<title>Node41</title>
<g id="a_node4"><a xlink:href="ext__apps_2shim_2app__event_8c.html" target="_top" xlink:title="ext_apps/shim/app_event.c">
<polygon fill="#ffffff" stroke="#000000" points="264.6157,-60.5 264.6157,-78.5 402.3589,-78.5 402.3589,-60.5 264.6157,-60.5"/>
<text text-anchor="middle" x="333.4873" y="-66.5" font-family="Helvetica,sans-Serif" font-size="10.00" fill="#000000">ext_apps/shim/app_event.c</text>
</a>
</g>
</g>
<!-- Node38&#45;&gt;Node41 -->
<g id="edge3" class="edge">
<title>Node38&#45;&gt;Node41</title>
<path fill="none" stroke="#191970" d="M389.8018,-113.9588C375.6368,-102.7759 357.0095,-88.0702 345.1387,-78.6985"/>
<polygon fill="#191970" stroke="#191970" points="387.9269,-116.9379 397.9445,-120.3873 392.2645,-111.4437 387.9269,-116.9379"/>
</g>
<!-- Node42 -->
<g id="node5" class="node">
<title>Node42</title>
<g id="a_node5"><a xlink:href="ext__apps_2rbac_2src_2include_2rbac_8h.html" target="_top" xlink:title="ext_apps/rbac/src/include\l/rbac.h">
<polygon fill="#ffffff" stroke="#000000" points="420.7905,-55.5 420.7905,-83.5 550.1841,-83.5 550.1841,-55.5 420.7905,-55.5"/>
<text text-anchor="start" x="428.7905" y="-71.5" font-family="Helvetica,sans-Serif" font-size="10.00" fill="#000000">ext_apps/rbac/src/include</text>
<text text-anchor="middle" x="485.4873" y="-61.5" font-family="Helvetica,sans-Serif" font-size="10.00" fill="#000000">/rbac.h</text>
</a>
</g>
</g>
<!-- Node38&#45;&gt;Node42 -->
<g id="edge4" class="edge">
<title>Node38&#45;&gt;Node42</title>
<path fill="none" stroke="#191970" d="M429.0354,-114.0673C440.9346,-104.6732 456.0213,-92.7627 467.6041,-83.6183"/>
<polygon fill="#191970" stroke="#191970" points="426.7101,-111.4437 421.0301,-120.3873 431.0477,-116.9379 426.7101,-111.4437"/>
</g>
<!-- Node45 -->
<g id="node8" class="node">
<title>Node45</title>
<g id="a_node8"><a xlink:href="application_8c.html" target="_top" xlink:title="src/application.c">
<polygon fill="#ffffff" stroke="#000000" points="568.6377,-60.5 568.6377,-78.5 656.3369,-78.5 656.3369,-60.5 568.6377,-60.5"/>
<text text-anchor="middle" x="612.4873" y="-66.5" font-family="Helvetica,sans-Serif" font-size="10.00" fill="#000000">src/application.c</text>
</a>
</g>
</g>
<!-- Node38&#45;&gt;Node45 -->
<g id="edge7" class="edge">
<title>Node38&#45;&gt;Node45</title>
<path fill="none" stroke="#191970" d="M450.2734,-117.445C489.2002,-105.9395 546.9633,-88.8667 582.031,-78.5019"/>
<polygon fill="#191970" stroke="#191970" points="448.9164,-114.1963 440.3186,-120.3873 450.9006,-120.9092 448.9164,-114.1963"/>
</g>
<!-- Node46 -->
<g id="node9" class="node">
<title>Node46</title>
<g id="a_node9"><a xlink:href="cli_8c.html" target="_top" xlink:title="src/cli.c">
<polygon fill="#ffffff" stroke="#000000" points="674.8223,-60.5 674.8223,-78.5 724.1523,-78.5 724.1523,-60.5 674.8223,-60.5"/>
<text text-anchor="middle" x="699.4873" y="-66.5" font-family="Helvetica,sans-Serif" font-size="10.00" fill="#000000">src/cli.c</text>
</a>
</g>
</g>
<!-- Node38&#45;&gt;Node46 -->
<g id="edge8" class="edge">
<title>Node38&#45;&gt;Node46</title>
<path fill="none" stroke="#191970" d="M481.0219,-121.2182C532.9274,-114.1438 604.4467,-102.1825 665.4873,-84 670.4074,-82.5344 675.5727,-80.5688 680.3496,-78.5588"/>
<polygon fill="#191970" stroke="#191970" points="480.36,-117.7755 470.9112,-122.5684 481.2866,-124.7139 480.36,-117.7755"/>
</g>
<!-- Node43 -->
<g id="node6" class="node">
<title>Node43</title>
<g id="a_node6"><a xlink:href="applications_2rbac_8c.html" target="_top" xlink:title="applications/rbac.c">
<polygon fill="#ffffff" stroke="#000000" points="371.0762,-.5 371.0762,-18.5 469.8984,-18.5 469.8984,-.5 371.0762,-.5"/>
<text text-anchor="middle" x="420.4873" y="-6.5" font-family="Helvetica,sans-Serif" font-size="10.00" fill="#000000">applications/rbac.c</text>
</a>
</g>
</g>
<!-- Node42&#45;&gt;Node43 -->
<g id="edge5" class="edge">
<title>Node42&#45;&gt;Node43</title>
<path fill="none" stroke="#191970" d="M462.4257,-48.2123C451.4134,-38.0471 438.818,-26.4206 430.3285,-18.5842"/>
<polygon fill="#191970" stroke="#191970" points="460.3612,-51.0698 470.0832,-55.2808 465.1091,-45.9262 460.3612,-51.0698"/>
</g>
<!-- Node44 -->
<g id="node7" class="node">
<title>Node44</title>
<g id="a_node7"><a xlink:href="ext__apps_2rbac_2src_2rbac_8c.html" target="_top" xlink:title="ext_apps/rbac/src/rbac.c">
<polygon fill="#ffffff" stroke="#000000" points="488.0195,-.5 488.0195,-18.5 612.9551,-18.5 612.9551,-.5 488.0195,-.5"/>
<text text-anchor="middle" x="550.4873" y="-6.5" font-family="Helvetica,sans-Serif" font-size="10.00" fill="#000000">ext_apps/rbac/src/rbac.c</text>
</a>
</g>
</g>
<!-- Node42&#45;&gt;Node44 -->
<g id="edge6" class="edge">
<title>Node42&#45;&gt;Node44</title>
<path fill="none" stroke="#191970" d="M508.5489,-48.2123C519.5612,-38.0471 532.1566,-26.4206 540.6461,-18.5842"/>
<polygon fill="#191970" stroke="#191970" points="505.8655,-45.9262 500.8914,-55.2808 510.6134,-51.0698 505.8655,-45.9262"/>
</g>
</g>
</svg>
