<?xml version="1.0" encoding="UTF-8" standalone="no"?>
<!DOCTYPE svg PUBLIC "-//W3C//DTD SVG 1.1//EN"
 "http://www.w3.org/Graphics/SVG/1.1/DTD/svg11.dtd">
<!-- Generated by graphviz version 2.40.1 (20161225.0304)
 -->
<!-- Title: components/stat_mgmt.c Pages: 1 -->
<svg width="1459pt" height="302pt"
 viewBox="0.00 0.00 1459.35 302.00" xmlns="http://www.w3.org/2000/svg" xmlns:xlink="http://www.w3.org/1999/xlink">
<g id="graph0" class="graph" transform="scale(1 1) rotate(0) translate(4 298)">
<title>components/stat_mgmt.c</title>
<polygon fill="#ffffff" stroke="transparent" points="-4,4 -4,-298 1455.3521,-298 1455.3521,4 -4,4"/>
<!-- Node0 -->
<g id="node1" class="node">
<title>Node0</title>
<polygon fill="#bfbfbf" stroke="#000000" points="684.8745,-275.5 684.8745,-293.5 812.5884,-293.5 812.5884,-275.5 684.8745,-275.5"/>
<text text-anchor="middle" x="748.7314" y="-281.5" font-family="Helvetica,sans-Serif" font-size="10.00" fill="#000000">components/stat_mgmt.c</text>
</g>
<!-- Node1 -->
<g id="node2" class="node">
<title>Node1</title>
<g id="a_node2"><a xlink:href="stat__mgmt_8h.html" target="_top" xlink:title="stat_mgmt.h">
<polygon fill="#ffffff" stroke="#000000" points="713.2217,-220.5 713.2217,-238.5 784.2412,-238.5 784.2412,-220.5 713.2217,-220.5"/>
<text text-anchor="middle" x="748.7314" y="-226.5" font-family="Helvetica,sans-Serif" font-size="10.00" fill="#000000">stat_mgmt.h</text>
</a>
</g>
</g>
<!-- Node0&#45;&gt;Node1 -->
<g id="edge1" class="edge">
<title>Node0&#45;&gt;Node1</title>
<path fill="none" stroke="#191970" d="M748.7314,-275.4179C748.7314,-268.2164 748.7314,-257.8962 748.7314,-248.8632"/>
<polygon fill="#191970" stroke="#191970" points="752.2315,-248.7794 748.7314,-238.7795 745.2315,-248.7795 752.2315,-248.7794"/>
</g>
<!-- Node2 -->
<g id="node3" class="node">
<title>Node2</title>
<g id="a_node3"><a xlink:href="src_2include_2common_8h.html" target="_top" xlink:title="common.h">
<polygon fill="#ffffff" stroke="#000000" points="689.3892,-55.5 689.3892,-73.5 752.0737,-73.5 752.0737,-55.5 689.3892,-55.5"/>
<text text-anchor="middle" x="720.7314" y="-61.5" font-family="Helvetica,sans-Serif" font-size="10.00" fill="#000000">common.h</text>
</a>
</g>
</g>
<!-- Node1&#45;&gt;Node2 -->
<g id="edge2" class="edge">
<title>Node1&#45;&gt;Node2</title>
<path fill="none" stroke="#191970" d="M747.1458,-220.1561C742.6988,-193.9504 730.0403,-119.3557 724.007,-83.8021"/>
<polygon fill="#191970" stroke="#191970" points="727.4235,-83.0149 722.2997,-73.7414 720.5221,-84.186 727.4235,-83.0149"/>
</g>
<!-- Node23 -->
<g id="node24" class="node">
<title>Node23</title>
<g id="a_node24"><a xlink:href="events_2include_2event_8h.html" target="_top" xlink:title="event.h">
<polygon fill="#ffffff" stroke="#000000" points="771.3301,-165.5 771.3301,-183.5 820.1328,-183.5 820.1328,-165.5 771.3301,-165.5"/>
<text text-anchor="middle" x="795.7314" y="-171.5" font-family="Helvetica,sans-Serif" font-size="10.00" fill="#000000">event.h</text>
</a>
</g>
</g>
<!-- Node1&#45;&gt;Node23 -->
<g id="edge23" class="edge">
<title>Node1&#45;&gt;Node23</title>
<path fill="none" stroke="#191970" d="M756.4925,-220.4179C763.1876,-212.5833 773.0368,-201.0575 781.1925,-191.5137"/>
<polygon fill="#191970" stroke="#191970" points="783.966,-193.6556 787.8017,-183.7795 778.6444,-189.108 783.966,-193.6556"/>
</g>
<!-- Node3 -->
<g id="node4" class="node">
<title>Node3</title>
<polygon fill="#ffffff" stroke="#bfbfbf" points="0,-.5 0,-18.5 45.4629,-18.5 45.4629,-.5 0,-.5"/>
<text text-anchor="middle" x="22.7314" y="-6.5" font-family="Helvetica,sans-Serif" font-size="10.00" fill="#000000">stdio.h</text>
</g>
<!-- Node2&#45;&gt;Node3 -->
<g id="edge3" class="edge">
<title>Node2&#45;&gt;Node3</title>
<path fill="none" stroke="#191970" d="M689.2285,-63.3097C577.1505,-58.9296 197.3172,-42.8048 55.779,-18.9558"/>
<polygon fill="#191970" stroke="#191970" points="56.0664,-15.4522 45.6086,-17.1509 54.8432,-22.3445 56.0664,-15.4522"/>
</g>
<!-- Node4 -->
<g id="node5" class="node">
<title>Node4</title>
<polygon fill="#ffffff" stroke="#bfbfbf" points="63.2192,-.5 63.2192,-18.5 114.2437,-18.5 114.2437,-.5 63.2192,-.5"/>
<text text-anchor="middle" x="88.7314" y="-6.5" font-family="Helvetica,sans-Serif" font-size="10.00" fill="#000000">unistd.h</text>
</g>
<!-- Node2&#45;&gt;Node4 -->
<g id="edge4" class="edge">
<title>Node2&#45;&gt;Node4</title>
<path fill="none" stroke="#191970" d="M689.2354,-62.9231C585.0764,-57.5833 251.5816,-39.4584 124.4641,-18.9631"/>
<polygon fill="#191970" stroke="#191970" points="125.0433,-15.5114 114.5994,-17.2929 123.8748,-22.4132 125.0433,-15.5114"/>
</g>
<!-- Node5 -->
<g id="node6" class="node">
<title>Node5</title>
<polygon fill="#ffffff" stroke="#bfbfbf" points="131.8892,-.5 131.8892,-18.5 179.5737,-18.5 179.5737,-.5 131.8892,-.5"/>
<text text-anchor="middle" x="155.7314" y="-6.5" font-family="Helvetica,sans-Serif" font-size="10.00" fill="#000000">stdlib.h</text>
</g>
<!-- Node2&#45;&gt;Node5 -->
<g id="edge5" class="edge">
<title>Node2&#45;&gt;Node5</title>
<path fill="none" stroke="#191970" d="M689.2656,-63.9437C607.9767,-62.0556 384.3282,-53.9969 189.8683,-18.8592"/>
<polygon fill="#191970" stroke="#191970" points="190.2202,-15.3653 179.7525,-17.0017 188.9559,-22.2502 190.2202,-15.3653"/>
</g>
<!-- Node6 -->
<g id="node7" class="node">
<title>Node6</title>
<polygon fill="#ffffff" stroke="#bfbfbf" points="197.335,-.5 197.335,-18.5 246.1279,-18.5 246.1279,-.5 197.335,-.5"/>
<text text-anchor="middle" x="221.7314" y="-6.5" font-family="Helvetica,sans-Serif" font-size="10.00" fill="#000000">string.h</text>
</g>
<!-- Node2&#45;&gt;Node6 -->
<g id="edge6" class="edge">
<title>Node2&#45;&gt;Node6</title>
<path fill="none" stroke="#191970" d="M689.3652,-63.4171C615.3624,-60.4424 424.0805,-50.3028 256.4674,-19.0442"/>
<polygon fill="#191970" stroke="#191970" points="256.9569,-15.5747 246.48,-17.1509 255.6531,-22.4522 256.9569,-15.5747"/>
</g>
<!-- Node7 -->
<g id="node8" class="node">
<title>Node7</title>
<polygon fill="#ffffff" stroke="#bfbfbf" points="263.665,-.5 263.665,-18.5 315.7979,-18.5 315.7979,-.5 263.665,-.5"/>
<text text-anchor="middle" x="289.7314" y="-6.5" font-family="Helvetica,sans-Serif" font-size="10.00" fill="#000000">stdarg.h</text>
</g>
<!-- Node2&#45;&gt;Node7 -->
<g id="edge7" class="edge">
<title>Node2&#45;&gt;Node7</title>
<path fill="none" stroke="#191970" d="M689.1727,-62.4958C623.3495,-57.9695 466.5333,-45.3834 326.0878,-19.0102"/>
<polygon fill="#191970" stroke="#191970" points="326.4841,-15.5228 316.0055,-17.0874 325.1727,-22.3989 326.4841,-15.5228"/>
</g>
<!-- Node8 -->
<g id="node9" class="node">
<title>Node8</title>
<polygon fill="#ffffff" stroke="#bfbfbf" points="333.6108,-.5 333.6108,-18.5 381.8521,-18.5 381.8521,-.5 333.6108,-.5"/>
<text text-anchor="middle" x="357.7314" y="-6.5" font-family="Helvetica,sans-Serif" font-size="10.00" fill="#000000">stdint.h</text>
</g>
<!-- Node2&#45;&gt;Node8 -->
<g id="edge8" class="edge">
<title>Node2&#45;&gt;Node8</title>
<path fill="none" stroke="#191970" d="M689.0761,-61.6594C631.6622,-56.1808 506.4378,-42.7325 392.1084,-19.0465"/>
<polygon fill="#191970" stroke="#191970" points="392.6479,-15.5834 382.1415,-16.9493 391.2065,-22.4334 392.6479,-15.5834"/>
</g>
<!-- Node9 -->
<g id="node10" class="node">
<title>Node9</title>
<polygon fill="#ffffff" stroke="#bfbfbf" points="399.6035,-.5 399.6035,-18.5 457.8594,-18.5 457.8594,-.5 399.6035,-.5"/>
<text text-anchor="middle" x="428.7314" y="-6.5" font-family="Helvetica,sans-Serif" font-size="10.00" fill="#000000">pthread.h</text>
</g>
<!-- Node2&#45;&gt;Node9 -->
<g id="edge9" class="edge">
<title>Node2&#45;&gt;Node9</title>
<path fill="none" stroke="#191970" d="M689.3153,-59.5753C642.9872,-52.1606 553.4234,-37.2464 467.9995,-19.1663"/>
<polygon fill="#191970" stroke="#191970" points="468.6545,-15.7274 458.144,-17.0621 467.1928,-22.5731 468.6545,-15.7274"/>
</g>
<!-- Node10 -->
<g id="node11" class="node">
<title>Node10</title>
<polygon fill="#ffffff" stroke="#bfbfbf" points="475.6108,-.5 475.6108,-18.5 523.8521,-18.5 523.8521,-.5 475.6108,-.5"/>
<text text-anchor="middle" x="499.7314" y="-6.5" font-family="Helvetica,sans-Serif" font-size="10.00" fill="#000000">ctype.h</text>
</g>
<!-- Node2&#45;&gt;Node10 -->
<g id="edge10" class="edge">
<title>Node2&#45;&gt;Node10</title>
<path fill="none" stroke="#191970" d="M689.3592,-57.3406C653.9241,-49.1594 594.3055,-35.1107 534.2392,-19.3244"/>
<polygon fill="#191970" stroke="#191970" points="534.7698,-15.8445 524.2074,-16.6724 532.9808,-22.612 534.7698,-15.8445"/>
</g>
<!-- Node11 -->
<g id="node12" class="node">
<title>Node11</title>
<polygon fill="#ffffff" stroke="#bfbfbf" points="541.8892,-.5 541.8892,-18.5 589.5737,-18.5 589.5737,-.5 541.8892,-.5"/>
<text text-anchor="middle" x="565.7314" y="-6.5" font-family="Helvetica,sans-Serif" font-size="10.00" fill="#000000">errno.h</text>
</g>
<!-- Node2&#45;&gt;Node11 -->
<g id="edge11" class="edge">
<title>Node2&#45;&gt;Node11</title>
<path fill="none" stroke="#191970" d="M695.1363,-55.4179C668.9079,-46.111 628.0003,-31.5954 599.214,-21.3809"/>
<polygon fill="#191970" stroke="#191970" points="600.1761,-18.0086 589.5814,-17.9629 597.8352,-24.6055 600.1761,-18.0086"/>
</g>
<!-- Node12 -->
<g id="node13" class="node">
<title>Node12</title>
<polygon fill="#ffffff" stroke="#bfbfbf" points="607.1035,-.5 607.1035,-18.5 670.3594,-18.5 670.3594,-.5 607.1035,-.5"/>
<text text-anchor="middle" x="638.7314" y="-6.5" font-family="Helvetica,sans-Serif" font-size="10.00" fill="#000000">arpa/inet.h</text>
</g>
<!-- Node2&#45;&gt;Node12 -->
<g id="edge12" class="edge">
<title>Node2&#45;&gt;Node12</title>
<path fill="none" stroke="#191970" d="M707.1908,-55.4179C694.6089,-46.9788 675.6418,-34.257 660.8604,-24.3426"/>
<polygon fill="#191970" stroke="#191970" points="662.5467,-21.2593 652.2922,-18.5956 658.6475,-27.0727 662.5467,-21.2593"/>
</g>
<!-- Node13 -->
<g id="node14" class="node">
<title>Node13</title>
<polygon fill="#ffffff" stroke="#bfbfbf" points="688.2686,-.5 688.2686,-18.5 753.1943,-18.5 753.1943,-.5 688.2686,-.5"/>
<text text-anchor="middle" x="720.7314" y="-6.5" font-family="Helvetica,sans-Serif" font-size="10.00" fill="#000000">netinet/in.h</text>
</g>
<!-- Node2&#45;&gt;Node13 -->
<g id="edge13" class="edge">
<title>Node2&#45;&gt;Node13</title>
<path fill="none" stroke="#191970" d="M720.7314,-55.4179C720.7314,-48.2164 720.7314,-37.8962 720.7314,-28.8632"/>
<polygon fill="#191970" stroke="#191970" points="724.2315,-28.7794 720.7314,-18.7795 717.2315,-28.7795 724.2315,-28.7794"/>
</g>
<!-- Node14 -->
<g id="node15" class="node">
<title>Node14</title>
<polygon fill="#ffffff" stroke="#bfbfbf" points="770.8745,-.5 770.8745,-18.5 848.5884,-18.5 848.5884,-.5 770.8745,-.5"/>
<text text-anchor="middle" x="809.7314" y="-6.5" font-family="Helvetica,sans-Serif" font-size="10.00" fill="#000000">net/ethernet.h</text>
</g>
<!-- Node2&#45;&gt;Node14 -->
<g id="edge14" class="edge">
<title>Node2&#45;&gt;Node14</title>
<path fill="none" stroke="#191970" d="M735.428,-55.4179C749.2128,-46.8992 770.0592,-34.0166 786.1663,-24.0627"/>
<polygon fill="#191970" stroke="#191970" points="788.3463,-26.83 795.0131,-18.5956 784.6664,-20.8753 788.3463,-26.83"/>
</g>
<!-- Node15 -->
<g id="node16" class="node">
<title>Node15</title>
<polygon fill="#ffffff" stroke="#bfbfbf" points="866.2686,-.5 866.2686,-18.5 931.1943,-18.5 931.1943,-.5 866.2686,-.5"/>
<text text-anchor="middle" x="898.7314" y="-6.5" font-family="Helvetica,sans-Serif" font-size="10.00" fill="#000000">netinet/ip.h</text>
</g>
<!-- Node2&#45;&gt;Node15 -->
<g id="edge15" class="edge">
<title>Node2&#45;&gt;Node15</title>
<path fill="none" stroke="#191970" d="M750.1245,-55.4179C780.1026,-46.155 826.7791,-31.7325 859.8109,-21.526"/>
<polygon fill="#191970" stroke="#191970" points="861.0695,-24.8005 869.5905,-18.5042 859.003,-18.1124 861.0695,-24.8005"/>
</g>
<!-- Node16 -->
<g id="node17" class="node">
<title>Node16</title>
<polygon fill="#ffffff" stroke="#bfbfbf" points="949.4902,-.5 949.4902,-18.5 1019.9727,-18.5 1019.9727,-.5 949.4902,-.5"/>
<text text-anchor="middle" x="984.7314" y="-6.5" font-family="Helvetica,sans-Serif" font-size="10.00" fill="#000000">netinet/tcp.h</text>
</g>
<!-- Node2&#45;&gt;Node16 -->
<g id="edge16" class="edge">
<title>Node2&#45;&gt;Node16</title>
<path fill="none" stroke="#191970" d="M752.2899,-57.9764C793.0273,-49.5483 866.3751,-34.3488 939.5134,-19.0404"/>
<polygon fill="#191970" stroke="#191970" points="940.2901,-22.4537 949.3605,-16.9784 938.8554,-15.6023 940.2901,-22.4537"/>
</g>
<!-- Node17 -->
<g id="node18" class="node">
<title>Node17</title>
<polygon fill="#ffffff" stroke="#bfbfbf" points="1037.9312,-.5 1037.9312,-18.5 1129.5317,-18.5 1129.5317,-.5 1037.9312,-.5"/>
<text text-anchor="middle" x="1083.7314" y="-6.5" font-family="Helvetica,sans-Serif" font-size="10.00" fill="#000000">netinet/ip_icmp.h</text>
</g>
<!-- Node2&#45;&gt;Node17 -->
<g id="edge17" class="edge">
<title>Node2&#45;&gt;Node17</title>
<path fill="none" stroke="#191970" d="M752.251,-60.1023C806.3632,-52.4965 920.6632,-36.187 1027.8167,-19.1155"/>
<polygon fill="#191970" stroke="#191970" points="1028.5073,-22.5496 1037.8293,-17.5146 1027.4021,-15.6374 1028.5073,-22.5496"/>
</g>
<!-- Node18 -->
<g id="node19" class="node">
<title>Node18</title>
<polygon fill="#ffffff" stroke="#bfbfbf" points="1147.3276,-.5 1147.3276,-18.5 1206.1353,-18.5 1206.1353,-.5 1147.3276,-.5"/>
<text text-anchor="middle" x="1176.7314" y="-6.5" font-family="Helvetica,sans-Serif" font-size="10.00" fill="#000000">jansson.h</text>
</g>
<!-- Node2&#45;&gt;Node18 -->
<g id="edge18" class="edge">
<title>Node2&#45;&gt;Node18</title>
<path fill="none" stroke="#191970" d="M752.1392,-62.5528C820.4626,-58.0032 987.8052,-45.162 1136.7102,-19.1681"/>
<polygon fill="#191970" stroke="#191970" points="1137.7075,-22.5461 1146.9437,-17.3555 1136.4865,-15.6534 1137.7075,-22.5461"/>
</g>
<!-- Node19 -->
<g id="node20" class="node">
<title>Node19</title>
<polygon fill="#ffffff" stroke="#bfbfbf" points="1223.8374,-.5 1223.8374,-18.5 1267.6255,-18.5 1267.6255,-.5 1223.8374,-.5"/>
<text text-anchor="middle" x="1245.7314" y="-6.5" font-family="Helvetica,sans-Serif" font-size="10.00" fill="#000000">libcli.h</text>
</g>
<!-- Node2&#45;&gt;Node19 -->
<g id="edge19" class="edge">
<title>Node2&#45;&gt;Node19</title>
<path fill="none" stroke="#191970" d="M752.2607,-63.8363C829.5836,-61.7346 1034.7559,-53.2895 1213.672,-18.8334"/>
<polygon fill="#191970" stroke="#191970" points="1214.3789,-22.2615 1223.5199,-16.905 1213.0337,-15.392 1214.3789,-22.2615"/>
</g>
<!-- Node20 -->
<g id="node21" class="node">
<title>Node20</title>
<polygon fill="#ffffff" stroke="#bfbfbf" points="1286.1157,-.5 1286.1157,-18.5 1329.3472,-18.5 1329.3472,-.5 1286.1157,-.5"/>
<text text-anchor="middle" x="1307.7314" y="-6.5" font-family="Helvetica,sans-Serif" font-size="10.00" fill="#000000">zmq.h</text>
</g>
<!-- Node2&#45;&gt;Node20 -->
<g id="edge20" class="edge">
<title>Node2&#45;&gt;Node20</title>
<path fill="none" stroke="#191970" d="M752.1417,-62.8237C851.1739,-57.4021 1156.8444,-39.5929 1275.9357,-18.6772"/>
<polygon fill="#191970" stroke="#191970" points="1276.667,-22.1014 1285.8635,-16.8407 1275.3937,-15.2182 1276.667,-22.1014"/>
</g>
<!-- Node21 -->
<g id="node22" class="node">
<title>Node21</title>
<g id="a_node22"><a xlink:href="src_2include_2type_8h.html" target="_top" xlink:title="type.h">
<polygon fill="#ffffff" stroke="#000000" points="1408.1108,-.5 1408.1108,-18.5 1451.3521,-18.5 1451.3521,-.5 1408.1108,-.5"/>
<text text-anchor="middle" x="1429.7314" y="-6.5" font-family="Helvetica,sans-Serif" font-size="10.00" fill="#000000">type.h</text>
</a>
</g>
</g>
<!-- Node2&#45;&gt;Node21 -->
<g id="edge21" class="edge">
<title>Node2&#45;&gt;Node21</title>
<path fill="none" stroke="#191970" d="M752.4069,-63.3855C866.1274,-59.2314 1254.2586,-43.6952 1398.011,-18.8722"/>
<polygon fill="#191970" stroke="#191970" points="1398.7189,-22.301 1407.9317,-17.0689 1397.4669,-15.4138 1398.7189,-22.301"/>
</g>
<!-- Node22 -->
<g id="node23" class="node">
<title>Node22</title>
<polygon fill="#ffffff" stroke="#bfbfbf" points="1347.1157,-.5 1347.1157,-18.5 1390.3472,-18.5 1390.3472,-.5 1347.1157,-.5"/>
<text text-anchor="middle" x="1368.7314" y="-6.5" font-family="Helvetica,sans-Serif" font-size="10.00" fill="#000000">time.h</text>
</g>
<!-- Node2&#45;&gt;Node22 -->
<g id="edge22" class="edge">
<title>Node2&#45;&gt;Node22</title>
<path fill="none" stroke="#191970" d="M752.1624,-63.1561C858.5572,-58.4596 1205.4088,-41.9088 1336.7417,-18.9325"/>
<polygon fill="#191970" stroke="#191970" points="1337.7301,-22.3092 1346.9284,-17.0518 1336.4591,-15.4256 1337.7301,-22.3092"/>
</g>
<!-- Node23&#45;&gt;Node2 -->
<g id="edge24" class="edge">
<title>Node23&#45;&gt;Node2</title>
<path fill="none" stroke="#191970" d="M787.6536,-165.4082C779.8566,-156.4441 767.9149,-142.2078 758.7314,-129 748.2074,-113.864 737.6795,-95.6994 730.383,-82.5092"/>
<polygon fill="#191970" stroke="#191970" points="733.3453,-80.6306 725.4868,-73.5247 727.1988,-83.9803 733.3453,-80.6306"/>
</g>
<!-- Node24 -->
<g id="node25" class="node">
<title>Node24</title>
<g id="a_node25"><a xlink:href="src_2include_2context_8h.html" target="_top" xlink:title="context.h">
<polygon fill="#ffffff" stroke="#000000" points="767.4409,-110.5 767.4409,-128.5 824.022,-128.5 824.022,-110.5 767.4409,-110.5"/>
<text text-anchor="middle" x="795.7314" y="-116.5" font-family="Helvetica,sans-Serif" font-size="10.00" fill="#000000">context.h</text>
</a>
</g>
</g>
<!-- Node23&#45;&gt;Node24 -->
<g id="edge25" class="edge">
<title>Node23&#45;&gt;Node24</title>
<path fill="none" stroke="#191970" d="M795.7314,-165.4179C795.7314,-158.2164 795.7314,-147.8962 795.7314,-138.8632"/>
<polygon fill="#191970" stroke="#191970" points="799.2315,-138.7794 795.7314,-128.7795 792.2315,-138.7795 799.2315,-138.7794"/>
</g>
<!-- Node25 -->
<g id="node26" class="node">
<title>Node25</title>
<g id="a_node26"><a xlink:href="events_2include_2event__id_8h.html" target="_top" xlink:title="event_id.h">
<polygon fill="#ffffff" stroke="#000000" points="841.6577,-110.5 841.6577,-128.5 903.8052,-128.5 903.8052,-110.5 841.6577,-110.5"/>
<text text-anchor="middle" x="872.7314" y="-116.5" font-family="Helvetica,sans-Serif" font-size="10.00" fill="#000000">event_id.h</text>
</a>
</g>
</g>
<!-- Node23&#45;&gt;Node25 -->
<g id="edge27" class="edge">
<title>Node23&#45;&gt;Node25</title>
<path fill="none" stroke="#191970" d="M808.4464,-165.4179C820.1497,-157.0584 837.7362,-144.4966 851.558,-134.6239"/>
<polygon fill="#191970" stroke="#191970" points="853.8946,-137.2561 859.9976,-128.5956 849.8259,-131.56 853.8946,-137.2561"/>
</g>
<!-- Node26 -->
<g id="node27" class="node">
<title>Node26</title>
<g id="a_node27"><a xlink:href="events_2include_2event__list_8h.html" target="_top" xlink:title="event_list.h">
<polygon fill="#ffffff" stroke="#000000" points="1271.4385,-55.5 1271.4385,-73.5 1338.0244,-73.5 1338.0244,-55.5 1271.4385,-55.5"/>
<text text-anchor="middle" x="1304.7314" y="-61.5" font-family="Helvetica,sans-Serif" font-size="10.00" fill="#000000">event_list.h</text>
</a>
</g>
</g>
<!-- Node23&#45;&gt;Node26 -->
<g id="edge28" class="edge">
<title>Node23&#45;&gt;Node26</title>
<path fill="none" stroke="#191970" d="M820.2816,-169.1945C900.9026,-151.7715 1158.263,-96.1533 1261.3885,-73.8668"/>
<polygon fill="#191970" stroke="#191970" points="1262.1304,-77.2874 1271.1654,-71.754 1260.6517,-70.4453 1262.1304,-77.2874"/>
</g>
<!-- Node24&#45;&gt;Node2 -->
<g id="edge26" class="edge">
<title>Node24&#45;&gt;Node2</title>
<path fill="none" stroke="#191970" d="M783.3467,-110.4179C771.9474,-102.0584 754.8178,-89.4966 741.355,-79.6239"/>
<polygon fill="#191970" stroke="#191970" points="743.2684,-76.6869 733.1346,-73.5956 739.1289,-82.3317 743.2684,-76.6869"/>
</g>
<!-- Node26&#45;&gt;Node21 -->
<g id="edge29" class="edge">
<title>Node26&#45;&gt;Node21</title>
<path fill="none" stroke="#191970" d="M1325.3727,-55.4179C1345.6381,-46.5011 1376.77,-32.803 1399.7604,-22.6873"/>
<polygon fill="#191970" stroke="#191970" points="1401.316,-25.8267 1409.0596,-18.5956 1398.4968,-19.4195 1401.316,-25.8267"/>
</g>
</g>
</svg>
