<?xml version="1.0" encoding="UTF-8" standalone="no"?>
<!DOCTYPE svg PUBLIC "-//W3C//DTD SVG 1.1//EN"
 "http://www.w3.org/Graphics/SVG/1.1/DTD/svg11.dtd">
<!-- Generated by graphviz version 2.40.1 (20161225.0304)
 -->
<!-- Title: src/include/storage.h Pages: 1 -->
<svg width="2370pt" height="247pt"
 viewBox="0.00 0.00 2370.13 247.00" xmlns="http://www.w3.org/2000/svg" xmlns:xlink="http://www.w3.org/1999/xlink">
<g id="graph0" class="graph" transform="scale(1 1) rotate(0) translate(4 243)">
<title>src/include/storage.h</title>
<polygon fill="#ffffff" stroke="transparent" points="-4,4 -4,-243 2366.1342,-243 2366.1342,4 -4,4"/>
<!-- Node0 -->
<g id="node1" class="node">
<title>Node0</title>
<polygon fill="#bfbfbf" stroke="#000000" points="1328.2553,-220.5 1328.2553,-238.5 1436.5258,-238.5 1436.5258,-220.5 1328.2553,-220.5"/>
<text text-anchor="middle" x="1382.3906" y="-226.5" font-family="Helvetica,sans-Serif" font-size="10.00" fill="#000000">src/include/storage.h</text>
</g>
<!-- Node1 -->
<g id="node2" class="node">
<title>Node1</title>
<g id="a_node2"><a xlink:href="src_2include_2common_8h.html" target="_top" xlink:title="common.h">
<polygon fill="#ffffff" stroke="#000000" points="1295.0483,-110.5 1295.0483,-128.5 1357.7329,-128.5 1357.7329,-110.5 1295.0483,-110.5"/>
<text text-anchor="middle" x="1326.3906" y="-116.5" font-family="Helvetica,sans-Serif" font-size="10.00" fill="#000000">common.h</text>
</a>
</g>
</g>
<!-- Node0&#45;&gt;Node1 -->
<g id="edge1" class="edge">
<title>Node0&#45;&gt;Node1</title>
<path fill="none" stroke="#191970" d="M1380.8698,-220.3061C1378.4751,-207.3875 1373.0706,-183.3866 1363.3906,-165 1357.9123,-154.5944 1349.8458,-144.3164 1342.6416,-136.1691"/>
<polygon fill="#191970" stroke="#191970" points="1345.2045,-133.7854 1335.8527,-128.806 1340.0582,-138.5305 1345.2045,-133.7854"/>
</g>
<!-- Node29 -->
<g id="node30" class="node">
<title>Node29</title>
<g id="a_node30"><a xlink:href="database_8h.html" target="_top" xlink:title="database.h">
<polygon fill="#ffffff" stroke="#000000" points="2296.6469,-55.5 2296.6469,-73.5 2362.1342,-73.5 2362.1342,-55.5 2296.6469,-55.5"/>
<text text-anchor="middle" x="2329.3906" y="-61.5" font-family="Helvetica,sans-Serif" font-size="10.00" fill="#000000">database.h</text>
</a>
</g>
</g>
<!-- Node0&#45;&gt;Node29 -->
<g id="edge45" class="edge">
<title>Node0&#45;&gt;Node29</title>
<path fill="none" stroke="#191970" d="M1434.3157,-220.4529C1602.6028,-191.1315 2131.0419,-99.0592 2286.1707,-72.0304"/>
<polygon fill="#191970" stroke="#191970" points="2287.013,-75.4365 2296.2638,-70.2718 2285.8114,-68.5403 2287.013,-75.4365"/>
</g>
<!-- Node36 -->
<g id="node37" class="node">
<title>Node36</title>
<g id="a_node37"><a xlink:href="src_2include_2context_8h.html" target="_top" xlink:title="context.h">
<polygon fill="#ffffff" stroke="#000000" points="1298.1001,-165.5 1298.1001,-183.5 1354.6811,-183.5 1354.6811,-165.5 1298.1001,-165.5"/>
<text text-anchor="middle" x="1326.3906" y="-171.5" font-family="Helvetica,sans-Serif" font-size="10.00" fill="#000000">context.h</text>
</a>
</g>
</g>
<!-- Node0&#45;&gt;Node36 -->
<g id="edge43" class="edge">
<title>Node0&#45;&gt;Node36</title>
<path fill="none" stroke="#191970" d="M1373.1433,-220.4179C1365.0051,-212.425 1352.9553,-200.5903 1343.1272,-190.9377"/>
<polygon fill="#191970" stroke="#191970" points="1345.4258,-188.2895 1335.8388,-183.7795 1340.5208,-193.2836 1345.4258,-188.2895"/>
</g>
<!-- Node2 -->
<g id="node3" class="node">
<title>Node2</title>
<polygon fill="#ffffff" stroke="#bfbfbf" points="936.6591,-.5 936.6591,-18.5 982.122,-18.5 982.122,-.5 936.6591,-.5"/>
<text text-anchor="middle" x="959.3906" y="-6.5" font-family="Helvetica,sans-Serif" font-size="10.00" fill="#000000">stdio.h</text>
</g>
<!-- Node1&#45;&gt;Node2 -->
<g id="edge2" class="edge">
<title>Node1&#45;&gt;Node2</title>
<path fill="none" stroke="#191970" d="M1294.9649,-119.0168C1096.7737,-115.8974 27.5531,-97.9734 4.3906,-74 -1.4769,-67.927 -1.4367,-61.1116 4.3906,-55 36.8595,-20.9473 761.1786,-11.5209 926.1548,-9.8122"/>
<polygon fill="#191970" stroke="#191970" points="926.2353,-13.3117 936.1993,-9.7107 926.1644,-6.3121 926.2353,-13.3117"/>
</g>
<!-- Node3 -->
<g id="node4" class="node">
<title>Node3</title>
<polygon fill="#ffffff" stroke="#bfbfbf" points="13.8784,-55.5 13.8784,-73.5 64.9028,-73.5 64.9028,-55.5 13.8784,-55.5"/>
<text text-anchor="middle" x="39.3906" y="-61.5" font-family="Helvetica,sans-Serif" font-size="10.00" fill="#000000">unistd.h</text>
</g>
<!-- Node1&#45;&gt;Node3 -->
<g id="edge3" class="edge">
<title>Node1&#45;&gt;Node3</title>
<path fill="none" stroke="#191970" d="M1294.906,-119.363C1127.48,-118.4837 339.6284,-112.4193 75.1798,-73.9034"/>
<polygon fill="#191970" stroke="#191970" points="75.6513,-70.435 65.2405,-72.4014 74.6053,-77.3564 75.6513,-70.435"/>
</g>
<!-- Node4 -->
<g id="node5" class="node">
<title>Node4</title>
<polygon fill="#ffffff" stroke="#bfbfbf" points="82.5483,-55.5 82.5483,-73.5 130.2329,-73.5 130.2329,-55.5 82.5483,-55.5"/>
<text text-anchor="middle" x="106.3906" y="-61.5" font-family="Helvetica,sans-Serif" font-size="10.00" fill="#000000">stdlib.h</text>
</g>
<!-- Node1&#45;&gt;Node4 -->
<g id="edge4" class="edge">
<title>Node1&#45;&gt;Node4</title>
<path fill="none" stroke="#191970" d="M1294.9581,-119.3228C1133.121,-118.2565 392.0421,-111.4636 140.561,-73.7231"/>
<polygon fill="#191970" stroke="#191970" points="140.8085,-70.2194 130.3885,-72.1358 139.7293,-77.1358 140.8085,-70.2194"/>
</g>
<!-- Node5 -->
<g id="node6" class="node">
<title>Node5</title>
<polygon fill="#ffffff" stroke="#bfbfbf" points="1911.3242,-.5 1911.3242,-18.5 1963.457,-18.5 1963.457,-.5 1911.3242,-.5"/>
<text text-anchor="middle" x="1937.3906" y="-6.5" font-family="Helvetica,sans-Serif" font-size="10.00" fill="#000000">stdarg.h</text>
</g>
<!-- Node1&#45;&gt;Node5 -->
<g id="edge5" class="edge">
<title>Node1&#45;&gt;Node5</title>
<path fill="none" stroke="#191970" d="M1357.8776,-119.0076C1507.9786,-116.5104 2144.8057,-104.1617 2173.3906,-74 2179.1994,-67.8708 2178.7669,-61.5118 2173.3906,-55 2148.5172,-24.8731 2033.7601,-14.4753 1973.9226,-11.0635"/>
<polygon fill="#191970" stroke="#191970" points="1973.9421,-7.5597 1963.7698,-10.5218 1973.569,-14.5497 1973.9421,-7.5597"/>
</g>
<!-- Node6 -->
<g id="node7" class="node">
<title>Node6</title>
<polygon fill="#ffffff" stroke="#bfbfbf" points="148.27,-55.5 148.27,-73.5 196.5112,-73.5 196.5112,-55.5 148.27,-55.5"/>
<text text-anchor="middle" x="172.3906" y="-61.5" font-family="Helvetica,sans-Serif" font-size="10.00" fill="#000000">stdint.h</text>
</g>
<!-- Node1&#45;&gt;Node6 -->
<g id="edge6" class="edge">
<title>Node1&#45;&gt;Node6</title>
<path fill="none" stroke="#191970" d="M1294.9285,-119.2062C1138.6878,-117.5997 444.6162,-108.6909 206.7207,-73.5667"/>
<polygon fill="#191970" stroke="#191970" points="207.1702,-70.0947 196.7549,-72.0368 206.108,-77.0137 207.1702,-70.0947"/>
</g>
<!-- Node7 -->
<g id="node8" class="node">
<title>Node7</title>
<polygon fill="#ffffff" stroke="#bfbfbf" points="214.9941,-55.5 214.9941,-73.5 263.7871,-73.5 263.7871,-55.5 214.9941,-55.5"/>
<text text-anchor="middle" x="239.3906" y="-61.5" font-family="Helvetica,sans-Serif" font-size="10.00" fill="#000000">string.h</text>
</g>
<!-- Node1&#45;&gt;Node7 -->
<g id="edge7" class="edge">
<title>Node1&#45;&gt;Node7</title>
<path fill="none" stroke="#191970" d="M1295.0286,-119.148C1144.7542,-117.3106 496.8046,-107.6426 274.0778,-73.8728"/>
<polygon fill="#191970" stroke="#191970" points="274.5367,-70.402 264.113,-72.2986 273.4443,-77.3162 274.5367,-70.402"/>
</g>
<!-- Node8 -->
<g id="node9" class="node">
<title>Node8</title>
<polygon fill="#ffffff" stroke="#bfbfbf" points="281.4941,-55.5 281.4941,-73.5 335.2871,-73.5 335.2871,-55.5 281.4941,-55.5"/>
<text text-anchor="middle" x="308.3906" y="-61.5" font-family="Helvetica,sans-Serif" font-size="10.00" fill="#000000">strings.h</text>
</g>
<!-- Node1&#45;&gt;Node8 -->
<g id="edge8" class="edge">
<title>Node1&#45;&gt;Node8</title>
<path fill="none" stroke="#191970" d="M1295.0276,-118.9402C1151.2798,-116.2399 553.8646,-103.5207 345.3177,-73.7564"/>
<polygon fill="#191970" stroke="#191970" points="345.794,-70.2888 335.388,-72.2802 344.7647,-77.2127 345.794,-70.2888"/>
</g>
<!-- Node9 -->
<g id="node10" class="node">
<title>Node9</title>
<polygon fill="#ffffff" stroke="#bfbfbf" points="353.2627,-55.5 353.2627,-73.5 411.5185,-73.5 411.5185,-55.5 353.2627,-55.5"/>
<text text-anchor="middle" x="382.3906" y="-61.5" font-family="Helvetica,sans-Serif" font-size="10.00" fill="#000000">pthread.h</text>
</g>
<!-- Node1&#45;&gt;Node9 -->
<g id="edge9" class="edge">
<title>Node1&#45;&gt;Node9</title>
<path fill="none" stroke="#191970" d="M1294.709,-118.7375C1157.6072,-115.3127 614.0538,-100.4157 421.7179,-73.8723"/>
<polygon fill="#191970" stroke="#191970" points="422.1318,-70.3959 411.7353,-72.4364 421.1351,-77.3246 422.1318,-70.3959"/>
</g>
<!-- Node10 -->
<g id="node11" class="node">
<title>Node10</title>
<polygon fill="#ffffff" stroke="#bfbfbf" points="429.27,-55.5 429.27,-73.5 477.5112,-73.5 477.5112,-55.5 429.27,-55.5"/>
<text text-anchor="middle" x="453.3906" y="-61.5" font-family="Helvetica,sans-Serif" font-size="10.00" fill="#000000">ctype.h</text>
</g>
<!-- Node1&#45;&gt;Node10 -->
<g id="edge10" class="edge">
<title>Node1&#45;&gt;Node10</title>
<path fill="none" stroke="#191970" d="M1294.7851,-118.7444C1164.2361,-115.4791 665.9083,-101.5551 487.7645,-73.8114"/>
<polygon fill="#191970" stroke="#191970" points="488.1896,-70.3346 477.7567,-72.1801 487.0633,-77.2434 488.1896,-70.3346"/>
</g>
<!-- Node11 -->
<g id="node12" class="node">
<title>Node11</title>
<polygon fill="#ffffff" stroke="#bfbfbf" points="495.5483,-55.5 495.5483,-73.5 543.2329,-73.5 543.2329,-55.5 495.5483,-55.5"/>
<text text-anchor="middle" x="519.3906" y="-61.5" font-family="Helvetica,sans-Serif" font-size="10.00" fill="#000000">errno.h</text>
</g>
<!-- Node1&#45;&gt;Node11 -->
<g id="edge11" class="edge">
<title>Node1&#45;&gt;Node11</title>
<path fill="none" stroke="#191970" d="M1294.6897,-118.6112C1170.6071,-114.9853 717.0546,-100.3171 553.2629,-73.933"/>
<polygon fill="#191970" stroke="#191970" points="553.805,-70.4751 543.3617,-72.2604 552.6389,-77.3773 553.805,-70.4751"/>
</g>
<!-- Node12 -->
<g id="node13" class="node">
<title>Node12</title>
<polygon fill="#ffffff" stroke="#bfbfbf" points="560.7749,-55.5 560.7749,-73.5 604.0063,-73.5 604.0063,-55.5 560.7749,-55.5"/>
<text text-anchor="middle" x="582.3906" y="-61.5" font-family="Helvetica,sans-Serif" font-size="10.00" fill="#000000">time.h</text>
</g>
<!-- Node1&#45;&gt;Node12 -->
<g id="edge12" class="edge">
<title>Node1&#45;&gt;Node12</title>
<path fill="none" stroke="#191970" d="M1294.7987,-118.4658C1177.4759,-114.4761 766.21,-99.128 614.3028,-73.6621"/>
<polygon fill="#191970" stroke="#191970" points="614.7048,-70.1791 604.2491,-71.8907 613.4901,-77.0729 614.7048,-70.1791"/>
</g>
<!-- Node13 -->
<g id="node14" class="node">
<title>Node13</title>
<polygon fill="#ffffff" stroke="#bfbfbf" points="622.0507,-55.5 622.0507,-73.5 664.7304,-73.5 664.7304,-55.5 622.0507,-55.5"/>
<text text-anchor="middle" x="643.3906" y="-61.5" font-family="Helvetica,sans-Serif" font-size="10.00" fill="#000000">fcntl.h</text>
</g>
<!-- Node1&#45;&gt;Node13 -->
<g id="edge13" class="edge">
<title>Node1&#45;&gt;Node13</title>
<path fill="none" stroke="#191970" d="M1294.8188,-118.2502C1184.2864,-113.73 814.3924,-97.3464 674.9429,-73.5799"/>
<polygon fill="#191970" stroke="#191970" points="675.3751,-70.1016 664.9144,-71.7818 674.1397,-76.9918 675.3751,-70.1016"/>
</g>
<!-- Node14 -->
<g id="node15" class="node">
<title>Node14</title>
<polygon fill="#ffffff" stroke="#bfbfbf" points="683.1567,-55.5 683.1567,-73.5 733.6245,-73.5 733.6245,-55.5 683.1567,-55.5"/>
<text text-anchor="middle" x="708.3906" y="-61.5" font-family="Helvetica,sans-Serif" font-size="10.00" fill="#000000">signal.h</text>
</g>
<!-- Node1&#45;&gt;Node14 -->
<g id="edge14" class="edge">
<title>Node1&#45;&gt;Node14</title>
<path fill="none" stroke="#191970" d="M1294.7826,-119.1925C1207.9798,-117.8931 958.637,-111.1056 743.7694,-73.934"/>
<polygon fill="#191970" stroke="#191970" points="744.3421,-70.4811 733.8874,-72.1985 743.1312,-77.3756 744.3421,-70.4811"/>
</g>
<!-- Node15 -->
<g id="node16" class="node">
<title>Node15</title>
<polygon fill="#ffffff" stroke="#bfbfbf" points="2075.8857,-.5 2075.8857,-18.5 2136.8955,-18.5 2136.8955,-.5 2075.8857,-.5"/>
<text text-anchor="middle" x="2106.3906" y="-6.5" font-family="Helvetica,sans-Serif" font-size="10.00" fill="#000000">sys/time.h</text>
</g>
<!-- Node1&#45;&gt;Node15 -->
<g id="edge15" class="edge">
<title>Node1&#45;&gt;Node15</title>
<path fill="none" stroke="#191970" d="M1357.9656,-119.0387C1509.9678,-116.6677 2160.2197,-104.7494 2189.3906,-74 2208.8272,-53.5116 2174.4351,-34.2241 2144.1906,-22.1725"/>
<polygon fill="#191970" stroke="#191970" points="2145.1813,-18.8047 2134.5902,-18.5215 2142.6931,-25.3476 2145.1813,-18.8047"/>
</g>
<!-- Node16 -->
<g id="node17" class="node">
<title>Node16</title>
<polygon fill="#ffffff" stroke="#bfbfbf" points="751.2724,-55.5 751.2724,-73.5 809.5088,-73.5 809.5088,-55.5 751.2724,-55.5"/>
<text text-anchor="middle" x="780.3906" y="-61.5" font-family="Helvetica,sans-Serif" font-size="10.00" fill="#000000">sys/stat.h</text>
</g>
<!-- Node1&#45;&gt;Node16 -->
<g id="edge16" class="edge">
<title>Node1&#45;&gt;Node16</title>
<path fill="none" stroke="#191970" d="M1294.9581,-118.3862C1216.3381,-115.2395 1004.778,-104.5492 819.6639,-73.9806"/>
<polygon fill="#191970" stroke="#191970" points="820.1945,-70.5208 809.7537,-72.3206 819.0381,-77.4246 820.1945,-70.5208"/>
</g>
<!-- Node17 -->
<g id="node18" class="node">
<title>Node17</title>
<polygon fill="#ffffff" stroke="#bfbfbf" points="827.3808,-55.5 827.3808,-73.5 893.4004,-73.5 893.4004,-55.5 827.3808,-55.5"/>
<text text-anchor="middle" x="860.3906" y="-61.5" font-family="Helvetica,sans-Serif" font-size="10.00" fill="#000000">sys/types.h</text>
</g>
<!-- Node1&#45;&gt;Node17 -->
<g id="edge17" class="edge">
<title>Node1&#45;&gt;Node17</title>
<path fill="none" stroke="#191970" d="M1294.839,-117.3675C1225.7175,-112.4282 1055.6084,-98.8142 903.7664,-74.0672"/>
<polygon fill="#191970" stroke="#191970" points="904.229,-70.5963 893.7925,-72.4211 903.0891,-77.5029 904.229,-70.5963"/>
</g>
<!-- Node18 -->
<g id="node19" class="node">
<title>Node18</title>
<polygon fill="#ffffff" stroke="#bfbfbf" points="911.4399,-55.5 911.4399,-73.5 971.3413,-73.5 971.3413,-55.5 911.4399,-55.5"/>
<text text-anchor="middle" x="941.3906" y="-61.5" font-family="Helvetica,sans-Serif" font-size="10.00" fill="#000000">sys/ioctl.h</text>
</g>
<!-- Node1&#45;&gt;Node18 -->
<g id="edge18" class="edge">
<title>Node1&#45;&gt;Node18</title>
<path fill="none" stroke="#191970" d="M1294.62,-116.5647C1234.9953,-110.792 1102.1243,-96.6792 981.7269,-74.2929"/>
<polygon fill="#191970" stroke="#191970" points="982.0796,-70.7978 971.6044,-72.3853 980.7832,-77.6768 982.0796,-70.7978"/>
</g>
<!-- Node19 -->
<g id="node20" class="node">
<title>Node19</title>
<polygon fill="#ffffff" stroke="#bfbfbf" points="988.8808,-55.5 988.8808,-73.5 1059.9004,-73.5 1059.9004,-55.5 988.8808,-55.5"/>
<text text-anchor="middle" x="1024.3906" y="-61.5" font-family="Helvetica,sans-Serif" font-size="10.00" fill="#000000">sys/socket.h</text>
</g>
<!-- Node1&#45;&gt;Node19 -->
<g id="edge19" class="edge">
<title>Node1&#45;&gt;Node19</title>
<path fill="none" stroke="#191970" d="M1294.9441,-114.3511C1248.0886,-106.593 1156.9377,-91.1702 1069.9449,-74.2523"/>
<polygon fill="#191970" stroke="#191970" points="1070.394,-70.7739 1059.9082,-72.29 1069.0507,-77.6439 1070.394,-70.7739"/>
</g>
<!-- Node20 -->
<g id="node21" class="node">
<title>Node20</title>
<polygon fill="#ffffff" stroke="#bfbfbf" points="1077.77,-55.5 1077.77,-73.5 1151.0112,-73.5 1151.0112,-55.5 1077.77,-55.5"/>
<text text-anchor="middle" x="1114.3906" y="-61.5" font-family="Helvetica,sans-Serif" font-size="10.00" fill="#000000">sys/sysinfo.h</text>
</g>
<!-- Node1&#45;&gt;Node20 -->
<g id="edge20" class="edge">
<title>Node1&#45;&gt;Node20</title>
<path fill="none" stroke="#191970" d="M1294.6521,-111.2659C1258.66,-101.9284 1199.7124,-86.6354 1159.0804,-76.0941"/>
<polygon fill="#191970" stroke="#191970" points="1159.7285,-72.6464 1149.17,-73.5229 1157.9706,-79.4221 1159.7285,-72.6464"/>
</g>
<!-- Node21 -->
<g id="node22" class="node">
<title>Node21</title>
<polygon fill="#ffffff" stroke="#bfbfbf" points="1168.7627,-55.5 1168.7627,-73.5 1232.0185,-73.5 1232.0185,-55.5 1168.7627,-55.5"/>
<text text-anchor="middle" x="1200.3906" y="-61.5" font-family="Helvetica,sans-Serif" font-size="10.00" fill="#000000">arpa/inet.h</text>
</g>
<!-- Node1&#45;&gt;Node21 -->
<g id="edge21" class="edge">
<title>Node1&#45;&gt;Node21</title>
<path fill="none" stroke="#191970" d="M1305.5843,-110.4179C1285.1567,-101.5011 1253.7758,-87.803 1230.6014,-77.6873"/>
<polygon fill="#191970" stroke="#191970" points="1231.793,-74.3885 1221.2278,-73.5956 1228.9925,-80.804 1231.793,-74.3885"/>
</g>
<!-- Node22 -->
<g id="node23" class="node">
<title>Node22</title>
<polygon fill="#ffffff" stroke="#bfbfbf" points="1249.9277,-55.5 1249.9277,-73.5 1314.8535,-73.5 1314.8535,-55.5 1249.9277,-55.5"/>
<text text-anchor="middle" x="1282.3906" y="-61.5" font-family="Helvetica,sans-Serif" font-size="10.00" fill="#000000">netinet/in.h</text>
</g>
<!-- Node1&#45;&gt;Node22 -->
<g id="edge22" class="edge">
<title>Node1&#45;&gt;Node22</title>
<path fill="none" stroke="#191970" d="M1319.1249,-110.4179C1312.9205,-102.6624 1303.8226,-91.29 1296.2334,-81.8035"/>
<polygon fill="#191970" stroke="#191970" points="1298.7942,-79.4017 1289.8142,-73.7795 1293.3281,-83.7746 1298.7942,-79.4017"/>
</g>
<!-- Node23 -->
<g id="node24" class="node">
<title>Node23</title>
<polygon fill="#ffffff" stroke="#bfbfbf" points="1332.5337,-55.5 1332.5337,-73.5 1410.2475,-73.5 1410.2475,-55.5 1332.5337,-55.5"/>
<text text-anchor="middle" x="1371.3906" y="-61.5" font-family="Helvetica,sans-Serif" font-size="10.00" fill="#000000">net/ethernet.h</text>
</g>
<!-- Node1&#45;&gt;Node23 -->
<g id="edge23" class="edge">
<title>Node1&#45;&gt;Node23</title>
<path fill="none" stroke="#191970" d="M1333.8214,-110.4179C1340.1668,-102.6624 1349.4715,-91.29 1357.2332,-81.8035"/>
<polygon fill="#191970" stroke="#191970" points="1360.1748,-83.7354 1363.7983,-73.7795 1354.757,-79.3027 1360.1748,-83.7354"/>
</g>
<!-- Node24 -->
<g id="node25" class="node">
<title>Node24</title>
<polygon fill="#ffffff" stroke="#bfbfbf" points="1427.9277,-55.5 1427.9277,-73.5 1492.8535,-73.5 1492.8535,-55.5 1427.9277,-55.5"/>
<text text-anchor="middle" x="1460.3906" y="-61.5" font-family="Helvetica,sans-Serif" font-size="10.00" fill="#000000">netinet/ip.h</text>
</g>
<!-- Node1&#45;&gt;Node24 -->
<g id="edge24" class="edge">
<title>Node1&#45;&gt;Node24</title>
<path fill="none" stroke="#191970" d="M1348.518,-110.4179C1370.4365,-101.4215 1404.2128,-87.5581 1428.9197,-77.4172"/>
<polygon fill="#191970" stroke="#191970" points="1430.3083,-80.6306 1438.2303,-73.5956 1427.6503,-74.1549 1430.3083,-80.6306"/>
</g>
<!-- Node25 -->
<g id="node26" class="node">
<title>Node25</title>
<polygon fill="#ffffff" stroke="#bfbfbf" points="1511.1494,-55.5 1511.1494,-73.5 1581.6318,-73.5 1581.6318,-55.5 1511.1494,-55.5"/>
<text text-anchor="middle" x="1546.3906" y="-61.5" font-family="Helvetica,sans-Serif" font-size="10.00" fill="#000000">netinet/tcp.h</text>
</g>
<!-- Node1&#45;&gt;Node25 -->
<g id="edge25" class="edge">
<title>Node1&#45;&gt;Node25</title>
<path fill="none" stroke="#191970" d="M1357.9112,-111.6198C1395.4193,-102.2428 1458.329,-86.5154 1501.0562,-75.8336"/>
<polygon fill="#191970" stroke="#191970" points="1502.0672,-79.1887 1510.9197,-73.3677 1500.3694,-72.3977 1502.0672,-79.1887"/>
</g>
<!-- Node26 -->
<g id="node27" class="node">
<title>Node26</title>
<polygon fill="#ffffff" stroke="#bfbfbf" points="1599.5903,-55.5 1599.5903,-73.5 1691.1909,-73.5 1691.1909,-55.5 1599.5903,-55.5"/>
<text text-anchor="middle" x="1645.3906" y="-61.5" font-family="Helvetica,sans-Serif" font-size="10.00" fill="#000000">netinet/ip_icmp.h</text>
</g>
<!-- Node1&#45;&gt;Node26 -->
<g id="edge26" class="edge">
<title>Node1&#45;&gt;Node26</title>
<path fill="none" stroke="#191970" d="M1358.0885,-114.0408C1405.8618,-105.8121 1499.438,-89.6909 1589.3779,-74.1743"/>
<polygon fill="#191970" stroke="#191970" points="1590.2154,-77.5815 1599.4747,-72.4322 1589.0252,-70.6835 1590.2154,-77.5815"/>
</g>
<!-- Node27 -->
<g id="node28" class="node">
<title>Node27</title>
<g id="a_node28"><a xlink:href="mac2int_8h.html" target="_top" xlink:title="mac2int.h">
<polygon fill="#ffffff" stroke="#000000" points="1708.7133,-55.5 1708.7133,-73.5 1768.0678,-73.5 1768.0678,-55.5 1708.7133,-55.5"/>
<text text-anchor="middle" x="1738.3906" y="-61.5" font-family="Helvetica,sans-Serif" font-size="10.00" fill="#000000">mac2int.h</text>
</a>
</g>
</g>
<!-- Node1&#45;&gt;Node27 -->
<g id="edge27" class="edge">
<title>Node1&#45;&gt;Node27</title>
<path fill="none" stroke="#191970" d="M1357.9584,-116.5422C1421.5922,-110.8002 1568.867,-96.6781 1691.3906,-74 1693.7038,-73.5718 1696.0857,-73.0859 1698.4977,-72.5657"/>
<polygon fill="#191970" stroke="#191970" points="1699.5098,-75.925 1708.4843,-70.2938 1697.957,-69.0994 1699.5098,-75.925"/>
</g>
<!-- Node28 -->
<g id="node29" class="node">
<title>Node28</title>
<g id="a_node29"><a xlink:href="ip2int_8h.html" target="_top" xlink:title="ip2int.h">
<polygon fill="#ffffff" stroke="#000000" points="1786.2675,-55.5 1786.2675,-73.5 1834.5136,-73.5 1834.5136,-55.5 1786.2675,-55.5"/>
<text text-anchor="middle" x="1810.3906" y="-61.5" font-family="Helvetica,sans-Serif" font-size="10.00" fill="#000000">ip2int.h</text>
</a>
</g>
</g>
<!-- Node1&#45;&gt;Node28 -->
<g id="edge29" class="edge">
<title>Node1&#45;&gt;Node28</title>
<path fill="none" stroke="#191970" d="M1357.7807,-118.053C1430.6805,-114.4978 1615.9685,-103.3807 1768.3906,-74 1770.9902,-73.4989 1773.6808,-72.8858 1776.3997,-72.2146"/>
<polygon fill="#191970" stroke="#191970" points="1777.4741,-75.5512 1786.2569,-69.6256 1775.6958,-68.7809 1777.4741,-75.5512"/>
</g>
<!-- Node1&#45;&gt;Node29 -->
<g id="edge31" class="edge">
<title>Node1&#45;&gt;Node29</title>
<path fill="none" stroke="#191970" d="M1357.7356,-118.5644C1500.5729,-114.4095 2089.5332,-96.8224 2273.3906,-74 2277.5729,-73.4808 2281.9391,-72.7955 2286.3224,-72.03"/>
<polygon fill="#191970" stroke="#191970" points="2287.3105,-75.4064 2296.5031,-70.1389 2286.0321,-68.5242 2287.3105,-75.4064"/>
</g>
<!-- Node31 -->
<g id="node32" class="node">
<title>Node31</title>
<polygon fill="#ffffff" stroke="#bfbfbf" points="1913.9868,-55.5 1913.9868,-73.5 1972.7944,-73.5 1972.7944,-55.5 1913.9868,-55.5"/>
<text text-anchor="middle" x="1943.3906" y="-61.5" font-family="Helvetica,sans-Serif" font-size="10.00" fill="#000000">jansson.h</text>
</g>
<!-- Node1&#45;&gt;Node31 -->
<g id="edge35" class="edge">
<title>Node1&#45;&gt;Node31</title>
<path fill="none" stroke="#191970" d="M1357.9925,-118.8622C1444.1702,-116.733 1690.5371,-108.0431 1903.5024,-74.0779"/>
<polygon fill="#191970" stroke="#191970" points="1904.3049,-77.4937 1913.6175,-72.4414 1903.1869,-70.5835 1904.3049,-77.4937"/>
</g>
<!-- Node32 -->
<g id="node33" class="node">
<title>Node32</title>
<g id="a_node33"><a xlink:href="libcli_8h.html" target="_top" xlink:title="libcli.h">
<polygon fill="#ffffff" stroke="#000000" points="1852.4965,-55.5 1852.4965,-73.5 1896.2846,-73.5 1896.2846,-55.5 1852.4965,-55.5"/>
<text text-anchor="middle" x="1874.3906" y="-61.5" font-family="Helvetica,sans-Serif" font-size="10.00" fill="#000000">libcli.h</text>
</a>
</g>
</g>
<!-- Node1&#45;&gt;Node32 -->
<g id="edge36" class="edge">
<title>Node1&#45;&gt;Node32</title>
<path fill="none" stroke="#191970" d="M1357.8879,-119.0175C1437.6579,-117.312 1654.0824,-109.6698 1842.1162,-73.8652"/>
<polygon fill="#191970" stroke="#191970" points="1843.029,-77.2536 1852.1812,-71.9161 1841.6982,-70.3812 1843.029,-77.2536"/>
</g>
<!-- Node33 -->
<g id="node34" class="node">
<title>Node33</title>
<polygon fill="#ffffff" stroke="#bfbfbf" points="1991.164,-55.5 1991.164,-73.5 2041.6172,-73.5 2041.6172,-55.5 1991.164,-55.5"/>
<text text-anchor="middle" x="2016.3906" y="-61.5" font-family="Helvetica,sans-Serif" font-size="10.00" fill="#000000">mysql.h</text>
</g>
<!-- Node1&#45;&gt;Node33 -->
<g id="edge40" class="edge">
<title>Node1&#45;&gt;Node33</title>
<path fill="none" stroke="#191970" d="M1358.0839,-118.1221C1469.0452,-113.1725 1840.4062,-95.5215 1980.8058,-73.6838"/>
<polygon fill="#191970" stroke="#191970" points="1981.5985,-77.1009 1990.9046,-72.0366 1980.4716,-70.1922 1981.5985,-77.1009"/>
</g>
<!-- Node34 -->
<g id="node35" class="node">
<title>Node34</title>
<polygon fill="#ffffff" stroke="#bfbfbf" points="2059.7749,-55.5 2059.7749,-73.5 2103.0063,-73.5 2103.0063,-55.5 2059.7749,-55.5"/>
<text text-anchor="middle" x="2081.3906" y="-61.5" font-family="Helvetica,sans-Serif" font-size="10.00" fill="#000000">zmq.h</text>
</g>
<!-- Node1&#45;&gt;Node34 -->
<g id="edge41" class="edge">
<title>Node1&#45;&gt;Node34</title>
<path fill="none" stroke="#191970" d="M1358.054,-118.4986C1476.6239,-114.5988 1895.0183,-99.4563 2049.3214,-73.6866"/>
<polygon fill="#191970" stroke="#191970" points="2050.2886,-77.0703 2059.5325,-71.8934 2049.0779,-70.1758 2050.2886,-77.0703"/>
</g>
<!-- Node35 -->
<g id="node36" class="node">
<title>Node35</title>
<g id="a_node36"><a xlink:href="src_2include_2type_8h.html" target="_top" xlink:title="type.h">
<polygon fill="#ffffff" stroke="#000000" points="2120.77,-55.5 2120.77,-73.5 2164.0112,-73.5 2164.0112,-55.5 2120.77,-55.5"/>
<text text-anchor="middle" x="2142.3906" y="-61.5" font-family="Helvetica,sans-Serif" font-size="10.00" fill="#000000">type.h</text>
</a>
</g>
</g>
<!-- Node1&#45;&gt;Node35 -->
<g id="edge42" class="edge">
<title>Node1&#45;&gt;Node35</title>
<path fill="none" stroke="#191970" d="M1358.1197,-118.7162C1483.3822,-115.4625 1944.4011,-101.9452 2110.5526,-73.875"/>
<polygon fill="#191970" stroke="#191970" points="2111.3607,-77.2863 2120.5953,-72.0926 2110.1375,-70.394 2111.3607,-77.2863"/>
</g>
<!-- Node27&#45;&gt;Node1 -->
<g id="edge28" class="edge">
<title>Node27&#45;&gt;Node1</title>
<path fill="none" stroke="#191970" d="M1711.8191,-73.5346C1711.0037,-73.696 1710.193,-73.8515 1709.3906,-74 1586.7319,-96.7031 1439.2676,-110.8314 1368.3066,-116.5611"/>
<polygon fill="#191970" stroke="#191970" points="1367.6895,-113.0989 1357.9969,-117.3772 1368.2419,-120.0771 1367.6895,-113.0989"/>
</g>
<!-- Node28&#45;&gt;Node1 -->
<g id="edge30" class="edge">
<title>Node28&#45;&gt;Node1</title>
<path fill="none" stroke="#191970" d="M1788.5149,-73.5703C1787.8022,-73.721 1787.0931,-73.8646 1786.3906,-74 1634.4167,-103.2943 1449.77,-114.4323 1368.2654,-118.0215"/>
<polygon fill="#191970" stroke="#191970" points="1367.7659,-114.5394 1357.9232,-118.4602 1368.0626,-121.5331 1367.7659,-114.5394"/>
</g>
<!-- Node29&#45;&gt;Node1 -->
<g id="edge32" class="edge">
<title>Node29&#45;&gt;Node1</title>
<path fill="none" stroke="#191970" d="M2296.4146,-73.3122C2294.7238,-73.5639 2293.0429,-73.7949 2291.3906,-74 2109.2449,-96.61 1529.5045,-114.0816 1368.2719,-118.4449"/>
<polygon fill="#191970" stroke="#191970" points="1367.7333,-114.958 1357.8307,-118.7248 1367.9209,-121.9555 1367.7333,-114.958"/>
</g>
<!-- Node30 -->
<g id="node31" class="node">
<title>Node30</title>
<g id="a_node31"><a xlink:href="str_8h.html" target="_top" xlink:title="str.h">
<polygon fill="#ffffff" stroke="#000000" points="2280.9399,-.5 2280.9399,-18.5 2315.8413,-18.5 2315.8413,-.5 2280.9399,-.5"/>
<text text-anchor="middle" x="2298.3906" y="-6.5" font-family="Helvetica,sans-Serif" font-size="10.00" fill="#000000">str.h</text>
</a>
</g>
</g>
<!-- Node29&#45;&gt;Node30 -->
<g id="edge33" class="edge">
<title>Node29&#45;&gt;Node30</title>
<path fill="none" stroke="#191970" d="M2324.2716,-55.4179C2320.0341,-47.8998 2313.8809,-36.9829 2308.6374,-27.6799"/>
<polygon fill="#191970" stroke="#191970" points="2311.58,-25.7724 2303.6208,-18.7795 2305.482,-29.2096 2311.58,-25.7724"/>
</g>
<!-- Node30&#45;&gt;Node1 -->
<g id="edge34" class="edge">
<title>Node30&#45;&gt;Node1</title>
<path fill="none" stroke="#191970" d="M2289.0908,-18.6813C2273.399,-33.4923 2239.9769,-62.19 2205.3906,-74 2125.7065,-101.2092 1531.6456,-115.2938 1368.0118,-118.684"/>
<polygon fill="#191970" stroke="#191970" points="1367.7922,-115.1877 1357.8661,-118.8919 1367.9357,-122.1862 1367.7922,-115.1877"/>
</g>
<!-- Node32&#45;&gt;Node2 -->
<g id="edge38" class="edge">
<title>Node32&#45;&gt;Node2</title>
<path fill="none" stroke="#191970" d="M1852.1997,-56.9842C1849.2639,-56.2014 1846.2733,-55.5079 1843.3906,-55 1675.0543,-25.3417 1131.7683,-12.8704 992.2778,-10.1113"/>
<polygon fill="#191970" stroke="#191970" points="992.278,-6.6107 982.2117,-9.9153 992.1416,-13.6094 992.278,-6.6107"/>
</g>
<!-- Node32&#45;&gt;Node5 -->
<g id="edge37" class="edge">
<title>Node32&#45;&gt;Node5</title>
<path fill="none" stroke="#191970" d="M1884.7938,-55.4179C1894.1305,-47.2667 1908.0439,-35.1201 1919.2157,-25.3669"/>
<polygon fill="#191970" stroke="#191970" points="1921.53,-27.9927 1926.7614,-18.7795 1916.9264,-22.7194 1921.53,-27.9927"/>
</g>
<!-- Node32&#45;&gt;Node15 -->
<g id="edge39" class="edge">
<title>Node32&#45;&gt;Node15</title>
<path fill="none" stroke="#191970" d="M1896.3477,-57.5493C1899.3755,-56.6559 1902.4531,-55.7814 1905.3906,-55 1960.5344,-40.3311 2024.981,-26.2802 2065.7374,-17.7704"/>
<polygon fill="#191970" stroke="#191970" points="2066.489,-21.1891 2075.5687,-15.7293 2065.066,-14.3352 2066.489,-21.1891"/>
</g>
<!-- Node36&#45;&gt;Node1 -->
<g id="edge44" class="edge">
<title>Node36&#45;&gt;Node1</title>
<path fill="none" stroke="#191970" d="M1326.3906,-165.4179C1326.3906,-158.2164 1326.3906,-147.8962 1326.3906,-138.8632"/>
<polygon fill="#191970" stroke="#191970" points="1329.8907,-138.7794 1326.3906,-128.7795 1322.8907,-138.7795 1329.8907,-138.7794"/>
</g>
</g>
</svg>
