<?xml version="1.0" encoding="UTF-8" standalone="no"?>
<!DOCTYPE svg PUBLIC "-//W3C//DTD SVG 1.1//EN"
 "http://www.w3.org/Graphics/SVG/1.1/DTD/svg11.dtd">
<!-- Generated by graphviz version 2.40.1 (20161225.0304)
 -->
<!-- Title: src/include/storage.h Pages: 1 -->
<svg width="227pt" height="82pt"
 viewBox="0.00 0.00 227.29 82.00" xmlns="http://www.w3.org/2000/svg" xmlns:xlink="http://www.w3.org/1999/xlink">
<g id="graph0" class="graph" transform="scale(1 1) rotate(0) translate(4 78)">
<title>src/include/storage.h</title>
<polygon fill="#ffffff" stroke="transparent" points="-4,4 -4,-78 223.2856,-78 223.2856,4 -4,4"/>
<!-- Node37 -->
<g id="node1" class="node">
<title>Node37</title>
<polygon fill="#bfbfbf" stroke="#000000" points="43.5298,-55.5 43.5298,-73.5 151.8003,-73.5 151.8003,-55.5 43.5298,-55.5"/>
<text text-anchor="middle" x="97.665" y="-61.5" font-family="Helvetica,sans-Serif" font-size="10.00" fill="#000000">src/include/storage.h</text>
</g>
<!-- Node38 -->
<g id="node2" class="node">
<title>Node38</title>
<g id="a_node2"><a xlink:href="cli_8c.html" target="_top" xlink:title="src/cli.c">
<polygon fill="#ffffff" stroke="#000000" points="0,-.5 0,-18.5 49.3301,-18.5 49.3301,-.5 0,-.5"/>
<text text-anchor="middle" x="24.665" y="-6.5" font-family="Helvetica,sans-Serif" font-size="10.00" fill="#000000">src/cli.c</text>
</a>
</g>
</g>
<!-- Node37&#45;&gt;Node38 -->
<g id="edge1" class="edge">
<title>Node37&#45;&gt;Node38</title>
<path fill="none" stroke="#191970" d="M77.2914,-49.15C64.3371,-39.3899 47.9908,-27.0742 36.9814,-18.7795"/>
<polygon fill="#191970" stroke="#191970" points="75.5176,-52.1957 85.6106,-55.4179 79.7298,-46.6049 75.5176,-52.1957"/>
</g>
<!-- Node39 -->
<g id="node3" class="node">
<title>Node39</title>
<g id="a_node3"><a xlink:href="main_8c.html" target="_top" xlink:title="src/main.c">
<polygon fill="#ffffff" stroke="#000000" points="66.8843,-.5 66.8843,-18.5 128.4458,-18.5 128.4458,-.5 66.8843,-.5"/>
<text text-anchor="middle" x="97.665" y="-6.5" font-family="Helvetica,sans-Serif" font-size="10.00" fill="#000000">src/main.c</text>
</a>
</g>
</g>
<!-- Node37&#45;&gt;Node39 -->
<g id="edge2" class="edge">
<title>Node37&#45;&gt;Node39</title>
<path fill="none" stroke="#191970" d="M97.665,-45.383C97.665,-36.3738 97.665,-26.0373 97.665,-18.7795"/>
<polygon fill="#191970" stroke="#191970" points="94.1651,-45.4178 97.665,-55.4179 101.1651,-45.4179 94.1651,-45.4178"/>
</g>
<!-- Node40 -->
<g id="node4" class="node">
<title>Node40</title>
<g id="a_node4"><a xlink:href="storage_8c.html" target="_top" xlink:title="src/storage.c">
<polygon fill="#ffffff" stroke="#000000" points="146.0444,-.5 146.0444,-18.5 219.2856,-18.5 219.2856,-.5 146.0444,-.5"/>
<text text-anchor="middle" x="182.665" y="-6.5" font-family="Helvetica,sans-Serif" font-size="10.00" fill="#000000">src/storage.c</text>
</a>
</g>
</g>
<!-- Node37&#45;&gt;Node40 -->
<g id="edge3" class="edge">
<title>Node37&#45;&gt;Node40</title>
<path fill="none" stroke="#191970" d="M120.1467,-49.953C135.5251,-40.0023 155.4358,-27.1189 168.6082,-18.5956"/>
<polygon fill="#191970" stroke="#191970" points="118.1954,-47.0468 111.7011,-55.4179 121.9982,-52.9238 118.1954,-47.0468"/>
</g>
</g>
</svg>
