<?xml version="1.0" encoding="UTF-8" standalone="no"?>
<!DOCTYPE svg PUBLIC "-//W3C//DTD SVG 1.1//EN"
 "http://www.w3.org/Graphics/SVG/1.1/DTD/svg11.dtd">
<!-- Generated by graphviz version 2.40.1 (20161225.0304)
 -->
<!-- Title: util/include/str.h Pages: 1 -->
<svg width="1355pt" height="147pt"
 viewBox="0.00 0.00 1355.45 147.00" xmlns="http://www.w3.org/2000/svg" xmlns:xlink="http://www.w3.org/1999/xlink">
<g id="graph0" class="graph" transform="scale(1 1) rotate(0) translate(4 143)">
<title>util/include/str.h</title>
<polygon fill="#ffffff" stroke="transparent" points="-4,4 -4,-143 1351.4453,-143 1351.4453,4 -4,4"/>
<!-- Node24 -->
<g id="node1" class="node">
<title>Node24</title>
<polygon fill="#bfbfbf" stroke="#000000" points="893.022,-120.5 893.022,-138.5 977.9526,-138.5 977.9526,-120.5 893.022,-120.5"/>
<text text-anchor="middle" x="935.4873" y="-126.5" font-family="Helvetica,sans-Serif" font-size="10.00" fill="#000000">util/include/str.h</text>
</g>
<!-- Node25 -->
<g id="node2" class="node">
<title>Node25</title>
<g id="a_node2"><a xlink:href="src_2include_2application_8h.html" target="_top" xlink:title="src/include/application.h">
<polygon fill="#ffffff" stroke="#000000" points="281.123,-60.5 281.123,-78.5 403.8516,-78.5 403.8516,-60.5 281.123,-60.5"/>
<text text-anchor="middle" x="342.4873" y="-66.5" font-family="Helvetica,sans-Serif" font-size="10.00" fill="#000000">src/include/application.h</text>
</a>
</g>
</g>
<!-- Node24&#45;&gt;Node25 -->
<g id="edge1" class="edge">
<title>Node24&#45;&gt;Node25</title>
<path fill="none" stroke="#191970" d="M882.6802,-124.157C773.0077,-113.0602 521.0675,-87.5688 404.1619,-75.7403"/>
<polygon fill="#191970" stroke="#191970" points="882.5386,-127.6604 892.8402,-125.1849 883.2434,-120.696 882.5386,-127.6604"/>
</g>
<!-- Node30 -->
<g id="node7" class="node">
<title>Node30</title>
<g id="a_node7"><a xlink:href="rbac_8h.html" target="_top" xlink:title="applications/include\l/rbac.h">
<polygon fill="#ffffff" stroke="#000000" points="761.8472,-55.5 761.8472,-83.5 865.1274,-83.5 865.1274,-55.5 761.8472,-55.5"/>
<text text-anchor="start" x="769.8472" y="-71.5" font-family="Helvetica,sans-Serif" font-size="10.00" fill="#000000">applications/include</text>
<text text-anchor="middle" x="813.4873" y="-61.5" font-family="Helvetica,sans-Serif" font-size="10.00" fill="#000000">/rbac.h</text>
</a>
</g>
</g>
<!-- Node24&#45;&gt;Node30 -->
<g id="edge6" class="edge">
<title>Node24&#45;&gt;Node30</title>
<path fill="none" stroke="#191970" d="M907.9276,-115.946C888.324,-106.3049 862.0517,-93.3841 842.1945,-83.6183"/>
<polygon fill="#191970" stroke="#191970" points="906.44,-119.1148 916.9581,-120.3873 909.5293,-112.8333 906.44,-119.1148"/>
</g>
<!-- Node32 -->
<g id="node9" class="node">
<title>Node32</title>
<g id="a_node9"><a xlink:href="cac_8h.html" target="_top" xlink:title="components/include\l/cac.h">
<polygon fill="#ffffff" stroke="#000000" points="883.0146,-55.5 883.0146,-83.5 987.96,-83.5 987.96,-55.5 883.0146,-55.5"/>
<text text-anchor="start" x="891.0146" y="-71.5" font-family="Helvetica,sans-Serif" font-size="10.00" fill="#000000">components/include</text>
<text text-anchor="middle" x="935.4873" y="-61.5" font-family="Helvetica,sans-Serif" font-size="10.00" fill="#000000">/cac.h</text>
</a>
</g>
</g>
<!-- Node24&#45;&gt;Node32 -->
<g id="edge8" class="edge">
<title>Node24&#45;&gt;Node32</title>
<path fill="none" stroke="#191970" d="M935.4873,-110.1865C935.4873,-101.6283 935.4873,-91.7354 935.4873,-83.8477"/>
<polygon fill="#191970" stroke="#191970" points="931.9874,-110.3873 935.4873,-120.3873 938.9874,-110.3873 931.9874,-110.3873"/>
</g>
<!-- Node34 -->
<g id="node11" class="node">
<title>Node34</title>
<g id="a_node11"><a xlink:href="src_2include_2component_8h.html" target="_top" xlink:title="src/include/component.h">
<polygon fill="#ffffff" stroke="#000000" points="570.2905,-60.5 570.2905,-78.5 694.6841,-78.5 694.6841,-60.5 570.2905,-60.5"/>
<text text-anchor="middle" x="632.4873" y="-66.5" font-family="Helvetica,sans-Serif" font-size="10.00" fill="#000000">src/include/component.h</text>
</a>
</g>
</g>
<!-- Node24&#45;&gt;Node34 -->
<g id="edge10" class="edge">
<title>Node24&#45;&gt;Node34</title>
<path fill="none" stroke="#191970" d="M882.6722,-119.0416C824.7747,-107.5767 732.8379,-89.3714 678.0083,-78.5141"/>
<polygon fill="#191970" stroke="#191970" points="882.228,-122.5215 892.7175,-121.0307 883.5878,-115.6548 882.228,-122.5215"/>
</g>
<!-- Node38 -->
<g id="node15" class="node">
<title>Node38</title>
<g id="a_node15"><a xlink:href="ext__apps_2shim_2include_2shim_8h.html" target="_top" xlink:title="ext_apps/shim/include\l/shim.h">
<polygon fill="#ffffff" stroke="#000000" points="1006.0146,-55.5 1006.0146,-83.5 1120.96,-83.5 1120.96,-55.5 1006.0146,-55.5"/>
<text text-anchor="start" x="1014.0146" y="-71.5" font-family="Helvetica,sans-Serif" font-size="10.00" fill="#000000">ext_apps/shim/include</text>
<text text-anchor="middle" x="1063.4873" y="-61.5" font-family="Helvetica,sans-Serif" font-size="10.00" fill="#000000">/shim.h</text>
</a>
</g>
</g>
<!-- Node24&#45;&gt;Node38 -->
<g id="edge15" class="edge">
<title>Node24&#45;&gt;Node38</title>
<path fill="none" stroke="#191970" d="M964.1224,-116.0773C984.7194,-106.4224 1012.4398,-93.4285 1033.3683,-83.6183"/>
<polygon fill="#191970" stroke="#191970" points="962.4968,-112.9738 954.9277,-120.3873 965.4679,-119.312 962.4968,-112.9738"/>
</g>
<!-- Node39 -->
<g id="node16" class="node">
<title>Node39</title>
<g id="a_node16"><a xlink:href="ext__comps_2shim_2include_2shim_8h.html" target="_top" xlink:title="ext_comps/shim/include\l/shim.h">
<polygon fill="#ffffff" stroke="#000000" points="1139.1304,-55.5 1139.1304,-83.5 1261.8442,-83.5 1261.8442,-55.5 1139.1304,-55.5"/>
<text text-anchor="start" x="1147.1304" y="-71.5" font-family="Helvetica,sans-Serif" font-size="10.00" fill="#000000">ext_comps/shim/include</text>
<text text-anchor="middle" x="1200.4873" y="-61.5" font-family="Helvetica,sans-Serif" font-size="10.00" fill="#000000">/shim.h</text>
</a>
</g>
</g>
<!-- Node24&#45;&gt;Node39 -->
<g id="edge16" class="edge">
<title>Node24&#45;&gt;Node39</title>
<path fill="none" stroke="#191970" d="M985.2482,-118.2334C1028.8121,-108.3699 1092.2704,-94.0019 1139.0014,-83.4213"/>
<polygon fill="#191970" stroke="#191970" points="984.4276,-114.8305 975.4474,-120.4524 985.9735,-121.6577 984.4276,-114.8305"/>
</g>
<!-- Node42 -->
<g id="node19" class="node">
<title>Node42</title>
<g id="a_node19"><a xlink:href="str_8c.html" target="_top" xlink:title="util/str.c">
<polygon fill="#ffffff" stroke="#000000" points="1279.5366,-60.5 1279.5366,-78.5 1329.438,-78.5 1329.438,-60.5 1279.5366,-60.5"/>
<text text-anchor="middle" x="1304.4873" y="-66.5" font-family="Helvetica,sans-Serif" font-size="10.00" fill="#000000">util/str.c</text>
</a>
</g>
</g>
<!-- Node24&#45;&gt;Node42 -->
<g id="edge19" class="edge">
<title>Node24&#45;&gt;Node42</title>
<path fill="none" stroke="#191970" d="M988.2578,-126.7086C1055.0081,-122.1874 1173.0059,-110.8796 1270.4873,-84 1275.5601,-82.6012 1280.8715,-80.6108 1285.7482,-78.5514"/>
<polygon fill="#191970" stroke="#191970" points="987.747,-123.2343 977.9958,-127.3773 988.2023,-130.2195 987.747,-123.2343"/>
</g>
<!-- Node26 -->
<g id="node3" class="node">
<title>Node26</title>
<g id="a_node3"><a xlink:href="app__events_2app__event_8c.html" target="_top" xlink:title="app_events/app_event.c">
<polygon fill="#ffffff" stroke="#000000" points="0,-.5 0,-18.5 124.9746,-18.5 124.9746,-.5 0,-.5"/>
<text text-anchor="middle" x="62.4873" y="-6.5" font-family="Helvetica,sans-Serif" font-size="10.00" fill="#000000">app_events/app_event.c</text>
</a>
</g>
</g>
<!-- Node25&#45;&gt;Node26 -->
<g id="edge2" class="edge">
<title>Node25&#45;&gt;Node26</title>
<path fill="none" stroke="#191970" d="M290.2718,-58.311C236.6427,-46.819 154.2031,-29.1534 104.5943,-18.5229"/>
<polygon fill="#191970" stroke="#191970" points="289.7539,-61.7794 300.2653,-60.4524 291.2207,-54.9348 289.7539,-61.7794"/>
</g>
<!-- Node27 -->
<g id="node4" class="node">
<title>Node27</title>
<g id="a_node4"><a xlink:href="ext__apps_2shim_2app__event_8c.html" target="_top" xlink:title="ext_apps/shim/app_event.c">
<polygon fill="#ffffff" stroke="#000000" points="142.6157,-.5 142.6157,-18.5 280.3589,-18.5 280.3589,-.5 142.6157,-.5"/>
<text text-anchor="middle" x="211.4873" y="-6.5" font-family="Helvetica,sans-Serif" font-size="10.00" fill="#000000">ext_apps/shim/app_event.c</text>
</a>
</g>
</g>
<!-- Node25&#45;&gt;Node27 -->
<g id="edge3" class="edge">
<title>Node25&#45;&gt;Node27</title>
<path fill="none" stroke="#191970" d="M313.2291,-56.0993C288.2133,-44.6417 252.9046,-28.4698 231.1414,-18.5019"/>
<polygon fill="#191970" stroke="#191970" points="312.042,-59.4052 322.5912,-60.3873 314.9569,-53.041 312.042,-59.4052"/>
</g>
<!-- Node28 -->
<g id="node5" class="node">
<title>Node28</title>
<g id="a_node5"><a xlink:href="application_8c.html" target="_top" xlink:title="src/application.c">
<polygon fill="#ffffff" stroke="#000000" points="298.6377,-.5 298.6377,-18.5 386.3369,-18.5 386.3369,-.5 298.6377,-.5"/>
<text text-anchor="middle" x="342.4873" y="-6.5" font-family="Helvetica,sans-Serif" font-size="10.00" fill="#000000">src/application.c</text>
</a>
</g>
</g>
<!-- Node25&#45;&gt;Node28 -->
<g id="edge4" class="edge">
<title>Node25&#45;&gt;Node28</title>
<path fill="none" stroke="#191970" d="M342.4873,-50.3734C342.4873,-39.7812 342.4873,-27.0976 342.4873,-18.6985"/>
<polygon fill="#191970" stroke="#191970" points="338.9874,-50.3873 342.4873,-60.3873 345.9874,-50.3873 338.9874,-50.3873"/>
</g>
<!-- Node29 -->
<g id="node6" class="node">
<title>Node29</title>
<g id="a_node6"><a xlink:href="src_2cli_8c.html" target="_top" xlink:title="src/cli.c">
<polygon fill="#ffffff" stroke="#000000" points="404.8223,-.5 404.8223,-18.5 454.1523,-18.5 454.1523,-.5 404.8223,-.5"/>
<text text-anchor="middle" x="429.4873" y="-6.5" font-family="Helvetica,sans-Serif" font-size="10.00" fill="#000000">src/cli.c</text>
</a>
</g>
</g>
<!-- Node25&#45;&gt;Node29 -->
<g id="edge5" class="edge">
<title>Node25&#45;&gt;Node29</title>
<path fill="none" stroke="#191970" d="M364.1625,-54.5516C380.5894,-43.2227 402.6207,-28.0287 416.4346,-18.5019"/>
<polygon fill="#191970" stroke="#191970" points="361.9458,-51.8287 355.7007,-60.3873 365.92,-57.5912 361.9458,-51.8287"/>
</g>
<!-- Node31 -->
<g id="node8" class="node">
<title>Node31</title>
<g id="a_node8"><a xlink:href="rbac_8c.html" target="_top" xlink:title="applications/rbac.c">
<polygon fill="#ffffff" stroke="#000000" points="819.0762,-.5 819.0762,-18.5 917.8984,-18.5 917.8984,-.5 819.0762,-.5"/>
<text text-anchor="middle" x="868.4873" y="-6.5" font-family="Helvetica,sans-Serif" font-size="10.00" fill="#000000">applications/rbac.c</text>
</a>
</g>
</g>
<!-- Node30&#45;&gt;Node31 -->
<g id="edge7" class="edge">
<title>Node30&#45;&gt;Node31</title>
<path fill="none" stroke="#191970" d="M833.5453,-47.6186C842.7317,-37.5971 853.1162,-26.2685 860.1601,-18.5842"/>
<polygon fill="#191970" stroke="#191970" points="830.6988,-45.5442 826.5215,-55.2808 835.8589,-50.2743 830.6988,-45.5442"/>
</g>
<!-- Node33 -->
<g id="node10" class="node">
<title>Node33</title>
<g id="a_node10"><a xlink:href="cac_8c.html" target="_top" xlink:title="components/cac.c">
<polygon fill="#ffffff" stroke="#000000" points="936.1895,-.5 936.1895,-18.5 1032.7852,-18.5 1032.7852,-.5 936.1895,-.5"/>
<text text-anchor="middle" x="984.4873" y="-6.5" font-family="Helvetica,sans-Serif" font-size="10.00" fill="#000000">components/cac.c</text>
</a>
</g>
</g>
<!-- Node32&#45;&gt;Node33 -->
<g id="edge9" class="edge">
<title>Node32&#45;&gt;Node33</title>
<path fill="none" stroke="#191970" d="M953.6005,-47.3205C961.7243,-37.3731 970.8552,-26.1924 977.0686,-18.5842"/>
<polygon fill="#191970" stroke="#191970" points="950.7141,-45.3216 947.0996,-55.2808 956.1359,-49.7494 950.7141,-45.3216"/>
</g>
<!-- Node34&#45;&gt;Node29 -->
<g id="edge13" class="edge">
<title>Node34&#45;&gt;Node29</title>
<path fill="none" stroke="#191970" d="M591.9422,-57.5162C550.8116,-45.3594 488.4706,-26.9335 454.2078,-16.8066"/>
<polygon fill="#191970" stroke="#191970" points="591.074,-60.9092 601.656,-60.3873 593.0582,-54.1963 591.074,-60.9092"/>
</g>
<!-- Node35 -->
<g id="node12" class="node">
<title>Node35</title>
<g id="a_node12"><a xlink:href="events_2event_8c.html" target="_top" xlink:title="events/event.c">
<polygon fill="#ffffff" stroke="#000000" points="472.2461,-.5 472.2461,-18.5 552.7285,-18.5 552.7285,-.5 472.2461,-.5"/>
<text text-anchor="middle" x="512.4873" y="-6.5" font-family="Helvetica,sans-Serif" font-size="10.00" fill="#000000">events/event.c</text>
</a>
</g>
</g>
<!-- Node34&#45;&gt;Node35 -->
<g id="edge11" class="edge">
<title>Node34&#45;&gt;Node35</title>
<path fill="none" stroke="#191970" d="M605.0753,-55.794C582.1992,-44.3559 550.2504,-28.3815 530.4911,-18.5019"/>
<polygon fill="#191970" stroke="#191970" points="603.7523,-59.0456 614.2619,-60.3873 606.8829,-52.7846 603.7523,-59.0456"/>
</g>
<!-- Node36 -->
<g id="node13" class="node">
<title>Node36</title>
<g id="a_node13"><a xlink:href="ext__comps_2shim_2event_8c.html" target="_top" xlink:title="ext_comps/shim/event.c">
<polygon fill="#ffffff" stroke="#000000" points="570.8545,-.5 570.8545,-18.5 694.1201,-18.5 694.1201,-.5 570.8545,-.5"/>
<text text-anchor="middle" x="632.4873" y="-6.5" font-family="Helvetica,sans-Serif" font-size="10.00" fill="#000000">ext_comps/shim/event.c</text>
</a>
</g>
</g>
<!-- Node34&#45;&gt;Node36 -->
<g id="edge12" class="edge">
<title>Node34&#45;&gt;Node36</title>
<path fill="none" stroke="#191970" d="M632.4873,-50.3734C632.4873,-39.7812 632.4873,-27.0976 632.4873,-18.6985"/>
<polygon fill="#191970" stroke="#191970" points="628.9874,-50.3873 632.4873,-60.3873 635.9874,-50.3873 628.9874,-50.3873"/>
</g>
<!-- Node37 -->
<g id="node14" class="node">
<title>Node37</title>
<g id="a_node14"><a xlink:href="component_8c.html" target="_top" xlink:title="src/component.c">
<polygon fill="#ffffff" stroke="#000000" points="711.8052,-.5 711.8052,-18.5 801.1694,-18.5 801.1694,-.5 711.8052,-.5"/>
<text text-anchor="middle" x="756.4873" y="-6.5" font-family="Helvetica,sans-Serif" font-size="10.00" fill="#000000">src/component.c</text>
</a>
</g>
</g>
<!-- Node34&#45;&gt;Node37 -->
<g id="edge14" class="edge">
<title>Node34&#45;&gt;Node37</title>
<path fill="none" stroke="#191970" d="M660.497,-55.9469C684.1567,-44.4987 717.3743,-28.4257 737.8834,-18.5019"/>
<polygon fill="#191970" stroke="#191970" points="658.7974,-52.8811 651.3202,-60.3873 661.8463,-59.1822 658.7974,-52.8811"/>
</g>
<!-- Node40 -->
<g id="node17" class="node">
<title>Node40</title>
<g id="a_node17"><a xlink:href="ext__apps_2shim_2shim_8c.html" target="_top" xlink:title="ext_apps/shim/shim.c">
<polygon fill="#ffffff" stroke="#000000" points="1097.4136,-.5 1097.4136,-18.5 1209.561,-18.5 1209.561,-.5 1097.4136,-.5"/>
<text text-anchor="middle" x="1153.4873" y="-6.5" font-family="Helvetica,sans-Serif" font-size="10.00" fill="#000000">ext_apps/shim/shim.c</text>
</a>
</g>
</g>
<!-- Node39&#45;&gt;Node40 -->
<g id="edge17" class="edge">
<title>Node39&#45;&gt;Node40</title>
<path fill="none" stroke="#191970" d="M1183.1134,-47.3205C1175.3212,-37.3731 1166.563,-26.1924 1160.6033,-18.5842"/>
<polygon fill="#191970" stroke="#191970" points="1180.427,-49.5669 1189.349,-55.2808 1185.9376,-45.2502 1180.427,-49.5669"/>
</g>
<!-- Node41 -->
<g id="node18" class="node">
<title>Node41</title>
<g id="a_node18"><a xlink:href="ext__comps_2shim_2shim_8c.html" target="_top" xlink:title="ext_comps/shim/shim.c">
<polygon fill="#ffffff" stroke="#000000" points="1227.5293,-.5 1227.5293,-18.5 1347.4453,-18.5 1347.4453,-.5 1227.5293,-.5"/>
<text text-anchor="middle" x="1287.4873" y="-6.5" font-family="Helvetica,sans-Serif" font-size="10.00" fill="#000000">ext_comps/shim/shim.c</text>
</a>
</g>
</g>
<!-- Node39&#45;&gt;Node41 -->
<g id="edge18" class="edge">
<title>Node39&#45;&gt;Node41</title>
<path fill="none" stroke="#191970" d="M1229.6472,-49.3897C1244.7763,-38.9559 1262.5111,-26.725 1274.3152,-18.5842"/>
<polygon fill="#191970" stroke="#191970" points="1227.3502,-46.7222 1221.1051,-55.2808 1231.3243,-52.4847 1227.3502,-46.7222"/>
</g>
</g>
</svg>
