<?xml version="1.0" encoding="UTF-8" standalone="no"?>
<!DOCTYPE svg PUBLIC "-//W3C//DTD SVG 1.1//EN"
 "http://www.w3.org/Graphics/SVG/1.1/DTD/svg11.dtd">
<!-- Generated by graphviz version 2.40.1 (20161225.0304)
 -->
<!-- Title: util/str.c Pages: 1 -->
<svg width="2333pt" height="247pt"
 viewBox="0.00 0.00 2333.13 247.00" xmlns="http://www.w3.org/2000/svg" xmlns:xlink="http://www.w3.org/1999/xlink">
<g id="graph0" class="graph" transform="scale(1 1) rotate(0) translate(4 243)">
<title>util/str.c</title>
<polygon fill="#ffffff" stroke="transparent" points="-4,4 -4,-243 2329.135,-243 2329.135,4 -4,4"/>
<!-- Node0 -->
<g id="node1" class="node">
<title>Node0</title>
<polygon fill="#bfbfbf" stroke="#000000" points="1286.4407,-220.5 1286.4407,-238.5 1336.342,-238.5 1336.342,-220.5 1286.4407,-220.5"/>
<text text-anchor="middle" x="1311.3913" y="-226.5" font-family="Helvetica,sans-Serif" font-size="10.00" fill="#000000">util/str.c</text>
</g>
<!-- Node1 -->
<g id="node2" class="node">
<title>Node1</title>
<g id="a_node2"><a xlink:href="str_8h.html" target="_top" xlink:title="str.h">
<polygon fill="#ffffff" stroke="#000000" points="1293.9407,-165.5 1293.9407,-183.5 1328.842,-183.5 1328.842,-165.5 1293.9407,-165.5"/>
<text text-anchor="middle" x="1311.3913" y="-171.5" font-family="Helvetica,sans-Serif" font-size="10.00" fill="#000000">str.h</text>
</a>
</g>
</g>
<!-- Node0&#45;&gt;Node1 -->
<g id="edge1" class="edge">
<title>Node0&#45;&gt;Node1</title>
<path fill="none" stroke="#191970" d="M1311.3913,-220.4179C1311.3913,-213.2164 1311.3913,-202.8962 1311.3913,-193.8632"/>
<polygon fill="#191970" stroke="#191970" points="1314.8914,-193.7794 1311.3913,-183.7795 1307.8914,-193.7795 1314.8914,-193.7794"/>
</g>
<!-- Node2 -->
<g id="node3" class="node">
<title>Node2</title>
<g id="a_node3"><a xlink:href="src_2include_2common_8h.html" target="_top" xlink:title="common.h">
<polygon fill="#ffffff" stroke="#000000" points="1251.0491,-110.5 1251.0491,-128.5 1313.7336,-128.5 1313.7336,-110.5 1251.0491,-110.5"/>
<text text-anchor="middle" x="1282.3913" y="-116.5" font-family="Helvetica,sans-Serif" font-size="10.00" fill="#000000">common.h</text>
</a>
</g>
</g>
<!-- Node1&#45;&gt;Node2 -->
<g id="edge2" class="edge">
<title>Node1&#45;&gt;Node2</title>
<path fill="none" stroke="#191970" d="M1306.6026,-165.4179C1302.6385,-157.8998 1296.8823,-146.9829 1291.9771,-137.6799"/>
<polygon fill="#191970" stroke="#191970" points="1295.0443,-135.9927 1287.2841,-128.7795 1288.8523,-139.2576 1295.0443,-135.9927"/>
</g>
<!-- Node3 -->
<g id="node4" class="node">
<title>Node3</title>
<polygon fill="#ffffff" stroke="#bfbfbf" points="1008.6599,-.5 1008.6599,-18.5 1054.1228,-18.5 1054.1228,-.5 1008.6599,-.5"/>
<text text-anchor="middle" x="1031.3913" y="-6.5" font-family="Helvetica,sans-Serif" font-size="10.00" fill="#000000">stdio.h</text>
</g>
<!-- Node2&#45;&gt;Node3 -->
<g id="edge3" class="edge">
<title>Node2&#45;&gt;Node3</title>
<path fill="none" stroke="#191970" d="M1250.7621,-118.9754C1055.9685,-115.6721 26.722,-97.1398 4.3913,-74 -1.4726,-67.9236 -1.4461,-61.1018 4.3913,-55 39.5322,-18.2678 825.7681,-10.8777 998.1732,-9.6969"/>
<polygon fill="#191970" stroke="#191970" points="998.4285,-13.1954 1008.4051,-9.6293 998.3822,-6.1956 998.4285,-13.1954"/>
</g>
<!-- Node4 -->
<g id="node5" class="node">
<title>Node4</title>
<polygon fill="#ffffff" stroke="#bfbfbf" points="13.8791,-55.5 13.8791,-73.5 64.9035,-73.5 64.9035,-55.5 13.8791,-55.5"/>
<text text-anchor="middle" x="39.3913" y="-61.5" font-family="Helvetica,sans-Serif" font-size="10.00" fill="#000000">unistd.h</text>
</g>
<!-- Node2&#45;&gt;Node4 -->
<g id="edge4" class="edge">
<title>Node2&#45;&gt;Node4</title>
<path fill="none" stroke="#191970" d="M1250.9296,-119.315C1087.174,-118.2024 330.4253,-111.1847 75.1999,-73.9081"/>
<polygon fill="#191970" stroke="#191970" points="75.6536,-70.437 65.2418,-72.3978 74.6039,-77.3578 75.6536,-70.437"/>
</g>
<!-- Node5 -->
<g id="node6" class="node">
<title>Node5</title>
<polygon fill="#ffffff" stroke="#bfbfbf" points="82.5491,-55.5 82.5491,-73.5 130.2336,-73.5 130.2336,-55.5 82.5491,-55.5"/>
<text text-anchor="middle" x="106.3913" y="-61.5" font-family="Helvetica,sans-Serif" font-size="10.00" fill="#000000">stdlib.h</text>
</g>
<!-- Node2&#45;&gt;Node5 -->
<g id="edge5" class="edge">
<title>Node2&#45;&gt;Node5</title>
<path fill="none" stroke="#191970" d="M1250.8105,-119.2679C1092.3903,-117.9501 382.6629,-110.1847 140.5311,-73.7207"/>
<polygon fill="#191970" stroke="#191970" points="140.8112,-70.2219 130.3899,-72.1316 139.7275,-77.1375 140.8112,-70.2219"/>
</g>
<!-- Node6 -->
<g id="node7" class="node">
<title>Node6</title>
<polygon fill="#ffffff" stroke="#bfbfbf" points="2111.3249,-.5 2111.3249,-18.5 2163.4577,-18.5 2163.4577,-.5 2111.3249,-.5"/>
<text text-anchor="middle" x="2137.3913" y="-6.5" font-family="Helvetica,sans-Serif" font-size="10.00" fill="#000000">stdarg.h</text>
</g>
<!-- Node2&#45;&gt;Node6 -->
<g id="edge6" class="edge">
<title>Node2&#45;&gt;Node6</title>
<path fill="none" stroke="#191970" d="M1314.0172,-118.7215C1461.9109,-114.9602 2079.5082,-97.8698 2112.3913,-74 2126.6418,-63.6556 2132.7694,-44.0018 2135.4042,-29.096"/>
<polygon fill="#191970" stroke="#191970" points="2138.9173,-29.2399 2136.8148,-18.8558 2131.9828,-28.2845 2138.9173,-29.2399"/>
</g>
<!-- Node7 -->
<g id="node8" class="node">
<title>Node7</title>
<polygon fill="#ffffff" stroke="#bfbfbf" points="148.2707,-55.5 148.2707,-73.5 196.5119,-73.5 196.5119,-55.5 148.2707,-55.5"/>
<text text-anchor="middle" x="172.3913" y="-61.5" font-family="Helvetica,sans-Serif" font-size="10.00" fill="#000000">stdint.h</text>
</g>
<!-- Node2&#45;&gt;Node7 -->
<g id="edge7" class="edge">
<title>Node2&#45;&gt;Node7</title>
<path fill="none" stroke="#191970" d="M1250.895,-119.1455C1098.408,-117.2822 435.2365,-107.459 206.6594,-73.5597"/>
<polygon fill="#191970" stroke="#191970" points="207.1732,-70.0977 196.7564,-72.0319 206.1058,-77.0158 207.1732,-70.0977"/>
</g>
<!-- Node8 -->
<g id="node9" class="node">
<title>Node8</title>
<polygon fill="#ffffff" stroke="#bfbfbf" points="214.9949,-55.5 214.9949,-73.5 263.7878,-73.5 263.7878,-55.5 214.9949,-55.5"/>
<text text-anchor="middle" x="239.3913" y="-61.5" font-family="Helvetica,sans-Serif" font-size="10.00" fill="#000000">string.h</text>
</g>
<!-- Node2&#45;&gt;Node8 -->
<g id="edge8" class="edge">
<title>Node2&#45;&gt;Node8</title>
<path fill="none" stroke="#191970" d="M1250.6186,-119.074C1103.5987,-116.9514 487.764,-106.3628 274.276,-73.9058"/>
<polygon fill="#191970" stroke="#191970" points="274.5395,-70.4039 264.1146,-72.2935 273.4425,-77.3174 274.5395,-70.4039"/>
</g>
<!-- Node9 -->
<g id="node10" class="node">
<title>Node9</title>
<polygon fill="#ffffff" stroke="#bfbfbf" points="281.4949,-55.5 281.4949,-73.5 335.2878,-73.5 335.2878,-55.5 281.4949,-55.5"/>
<text text-anchor="middle" x="308.3913" y="-61.5" font-family="Helvetica,sans-Serif" font-size="10.00" fill="#000000">strings.h</text>
</g>
<!-- Node2&#45;&gt;Node9 -->
<g id="edge9" class="edge">
<title>Node2&#45;&gt;Node9</title>
<path fill="none" stroke="#191970" d="M1251.0226,-118.8616C1111.3926,-115.8869 544.8851,-102.3766 345.4552,-73.7792"/>
<polygon fill="#191970" stroke="#191970" points="345.7975,-70.2915 335.3898,-72.2738 344.7621,-77.2145 345.7975,-70.2915"/>
</g>
<!-- Node10 -->
<g id="node11" class="node">
<title>Node10</title>
<polygon fill="#ffffff" stroke="#bfbfbf" points="353.2634,-55.5 353.2634,-73.5 411.5193,-73.5 411.5193,-55.5 353.2634,-55.5"/>
<text text-anchor="middle" x="382.3913" y="-61.5" font-family="Helvetica,sans-Serif" font-size="10.00" fill="#000000">pthread.h</text>
</g>
<!-- Node2&#45;&gt;Node10 -->
<g id="edge10" class="edge">
<title>Node2&#45;&gt;Node10</title>
<path fill="none" stroke="#191970" d="M1250.8977,-118.6494C1118.3973,-114.9484 605.0015,-99.3479 421.7706,-73.8836"/>
<polygon fill="#191970" stroke="#191970" points="422.136,-70.4001 411.7372,-72.4288 421.1315,-77.3276 422.136,-70.4001"/>
</g>
<!-- Node11 -->
<g id="node12" class="node">
<title>Node11</title>
<polygon fill="#ffffff" stroke="#bfbfbf" points="429.2707,-55.5 429.2707,-73.5 477.5119,-73.5 477.5119,-55.5 429.2707,-55.5"/>
<text text-anchor="middle" x="453.3913" y="-61.5" font-family="Helvetica,sans-Serif" font-size="10.00" fill="#000000">ctype.h</text>
</g>
<!-- Node2&#45;&gt;Node11 -->
<g id="edge11" class="edge">
<title>Node2&#45;&gt;Node11</title>
<path fill="none" stroke="#191970" d="M1250.7164,-118.6337C1124.5164,-115.0392 656.6048,-100.3162 487.7287,-73.8109"/>
<polygon fill="#191970" stroke="#191970" points="488.1943,-70.3405 477.7589,-72.1717 487.0586,-77.2478 488.1943,-70.3405"/>
</g>
<!-- Node12 -->
<g id="node13" class="node">
<title>Node12</title>
<polygon fill="#ffffff" stroke="#bfbfbf" points="495.5491,-55.5 495.5491,-73.5 543.2336,-73.5 543.2336,-55.5 495.5491,-55.5"/>
<text text-anchor="middle" x="519.3913" y="-61.5" font-family="Helvetica,sans-Serif" font-size="10.00" fill="#000000">errno.h</text>
</g>
<!-- Node2&#45;&gt;Node12 -->
<g id="edge12" class="edge">
<title>Node2&#45;&gt;Node12</title>
<path fill="none" stroke="#191970" d="M1250.8457,-118.4877C1131.7241,-114.5213 708.5665,-99.0917 553.6134,-73.9962"/>
<polygon fill="#191970" stroke="#191970" points="553.8097,-70.4793 543.364,-72.2511 552.6347,-77.38 553.8097,-70.4793"/>
</g>
<!-- Node13 -->
<g id="node14" class="node">
<title>Node13</title>
<polygon fill="#ffffff" stroke="#bfbfbf" points="560.7756,-55.5 560.7756,-73.5 604.0071,-73.5 604.0071,-55.5 560.7756,-55.5"/>
<text text-anchor="middle" x="582.3913" y="-61.5" font-family="Helvetica,sans-Serif" font-size="10.00" fill="#000000">time.h</text>
</g>
<!-- Node2&#45;&gt;Node13 -->
<g id="edge13" class="edge">
<title>Node2&#45;&gt;Node13</title>
<path fill="none" stroke="#191970" d="M1250.794,-118.3134C1138.38,-113.9459 757.4082,-97.8588 614.5238,-73.7073"/>
<polygon fill="#191970" stroke="#191970" points="614.7106,-70.1856 604.252,-71.879 613.4839,-77.0773 614.7106,-70.1856"/>
</g>
<!-- Node14 -->
<g id="node15" class="node">
<title>Node14</title>
<polygon fill="#ffffff" stroke="#bfbfbf" points="622.0515,-55.5 622.0515,-73.5 664.7312,-73.5 664.7312,-55.5 622.0515,-55.5"/>
<text text-anchor="middle" x="643.3913" y="-61.5" font-family="Helvetica,sans-Serif" font-size="10.00" fill="#000000">fcntl.h</text>
</g>
<!-- Node2&#45;&gt;Node14 -->
<g id="edge14" class="edge">
<title>Node2&#45;&gt;Node14</title>
<path fill="none" stroke="#191970" d="M1250.7273,-118.0633C1145.2011,-113.1332 805.3184,-96.077 675.0327,-73.605"/>
<polygon fill="#191970" stroke="#191970" points="675.3824,-70.1113 664.9178,-71.7675 674.1312,-76.9986 675.3824,-70.1113"/>
</g>
<!-- Node15 -->
<g id="node16" class="node">
<title>Node15</title>
<polygon fill="#ffffff" stroke="#bfbfbf" points="683.1575,-55.5 683.1575,-73.5 733.6252,-73.5 733.6252,-55.5 683.1575,-55.5"/>
<text text-anchor="middle" x="708.3913" y="-61.5" font-family="Helvetica,sans-Serif" font-size="10.00" fill="#000000">signal.h</text>
</g>
<!-- Node2&#45;&gt;Node15 -->
<g id="edge15" class="edge">
<title>Node2&#45;&gt;Node15</title>
<path fill="none" stroke="#191970" d="M1250.7729,-118.9111C1168.5156,-116.9404 941.0813,-108.6883 743.8534,-73.9623"/>
<polygon fill="#191970" stroke="#191970" points="744.3513,-70.4959 733.8913,-72.1808 743.119,-77.3866 744.3513,-70.4959"/>
</g>
<!-- Node16 -->
<g id="node17" class="node">
<title>Node16</title>
<polygon fill="#ffffff" stroke="#bfbfbf" points="2193.8865,-.5 2193.8865,-18.5 2254.8962,-18.5 2254.8962,-.5 2193.8865,-.5"/>
<text text-anchor="middle" x="2224.3913" y="-6.5" font-family="Helvetica,sans-Serif" font-size="10.00" fill="#000000">sys/time.h</text>
</g>
<!-- Node2&#45;&gt;Node16 -->
<g id="edge16" class="edge">
<title>Node2&#45;&gt;Node16</title>
<path fill="none" stroke="#191970" d="M1313.898,-119.0462C1472.5566,-116.6247 2177.8237,-104.1881 2212.3913,-74 2224.9704,-63.0146 2227.0767,-43.454 2226.5802,-28.7449"/>
<polygon fill="#191970" stroke="#191970" points="2230.0624,-28.3748 2225.8236,-18.6649 2223.082,-28.8988 2230.0624,-28.3748"/>
</g>
<!-- Node17 -->
<g id="node18" class="node">
<title>Node17</title>
<polygon fill="#ffffff" stroke="#bfbfbf" points="751.2732,-55.5 751.2732,-73.5 809.5095,-73.5 809.5095,-55.5 751.2732,-55.5"/>
<text text-anchor="middle" x="780.3913" y="-61.5" font-family="Helvetica,sans-Serif" font-size="10.00" fill="#000000">sys/stat.h</text>
</g>
<!-- Node2&#45;&gt;Node17 -->
<g id="edge17" class="edge">
<title>Node2&#45;&gt;Node17</title>
<path fill="none" stroke="#191970" d="M1250.9494,-118.0168C1177.2078,-114.1979 987.3104,-102.3896 819.7449,-74.0115"/>
<polygon fill="#191970" stroke="#191970" points="820.207,-70.5396 809.7587,-72.2958 819.0216,-77.4386 820.207,-70.5396"/>
</g>
<!-- Node18 -->
<g id="node19" class="node">
<title>Node18</title>
<polygon fill="#ffffff" stroke="#bfbfbf" points="827.3816,-55.5 827.3816,-73.5 893.4011,-73.5 893.4011,-55.5 827.3816,-55.5"/>
<text text-anchor="middle" x="860.3913" y="-61.5" font-family="Helvetica,sans-Serif" font-size="10.00" fill="#000000">sys/types.h</text>
</g>
<!-- Node2&#45;&gt;Node18 -->
<g id="edge18" class="edge">
<title>Node2&#45;&gt;Node18</title>
<path fill="none" stroke="#191970" d="M1250.7028,-116.8214C1186.8938,-111.1886 1038.2197,-96.8589 903.8583,-74.1076"/>
<polygon fill="#191970" stroke="#191970" points="904.2471,-70.6232 893.7996,-72.3837 903.0647,-77.5227 904.2471,-70.6232"/>
</g>
<!-- Node19 -->
<g id="node20" class="node">
<title>Node19</title>
<polygon fill="#ffffff" stroke="#bfbfbf" points="911.4407,-55.5 911.4407,-73.5 971.342,-73.5 971.342,-55.5 911.4407,-55.5"/>
<text text-anchor="middle" x="941.3913" y="-61.5" font-family="Helvetica,sans-Serif" font-size="10.00" fill="#000000">sys/ioctl.h</text>
</g>
<!-- Node2&#45;&gt;Node19 -->
<g id="edge19" class="edge">
<title>Node2&#45;&gt;Node19</title>
<path fill="none" stroke="#191970" d="M1250.8125,-115.7719C1197.2535,-109.2305 1085.0239,-94.5808 981.5947,-74.3127"/>
<polygon fill="#191970" stroke="#191970" points="982.105,-70.8458 971.6152,-72.3338 980.7434,-77.7121 982.105,-70.8458"/>
</g>
<!-- Node20 -->
<g id="node21" class="node">
<title>Node20</title>
<polygon fill="#ffffff" stroke="#bfbfbf" points="988.8816,-55.5 988.8816,-73.5 1059.9011,-73.5 1059.9011,-55.5 988.8816,-55.5"/>
<text text-anchor="middle" x="1024.3913" y="-61.5" font-family="Helvetica,sans-Serif" font-size="10.00" fill="#000000">sys/socket.h</text>
</g>
<!-- Node2&#45;&gt;Node20 -->
<g id="edge20" class="edge">
<title>Node2&#45;&gt;Node20</title>
<path fill="none" stroke="#191970" d="M1250.839,-112.8239C1210.9641,-104.3797 1139.9503,-89.3178 1069.8176,-74.3012"/>
<polygon fill="#191970" stroke="#191970" points="1070.4421,-70.8557 1059.9308,-72.1833 1068.9758,-77.7004 1070.4421,-70.8557"/>
</g>
<!-- Node21 -->
<g id="node22" class="node">
<title>Node21</title>
<polygon fill="#ffffff" stroke="#bfbfbf" points="1077.7707,-55.5 1077.7707,-73.5 1151.0119,-73.5 1151.0119,-55.5 1077.7707,-55.5"/>
<text text-anchor="middle" x="1114.3913" y="-61.5" font-family="Helvetica,sans-Serif" font-size="10.00" fill="#000000">sys/sysinfo.h</text>
</g>
<!-- Node2&#45;&gt;Node21 -->
<g id="edge21" class="edge">
<title>Node2&#45;&gt;Node21</title>
<path fill="none" stroke="#191970" d="M1254.6496,-110.4179C1226.4776,-101.1949 1182.6809,-86.8567 1151.5292,-76.6582"/>
<polygon fill="#191970" stroke="#191970" points="1152.4878,-73.2893 1141.8951,-73.5042 1150.3098,-79.9419 1152.4878,-73.2893"/>
</g>
<!-- Node22 -->
<g id="node23" class="node">
<title>Node22</title>
<polygon fill="#ffffff" stroke="#bfbfbf" points="1168.7634,-55.5 1168.7634,-73.5 1232.0193,-73.5 1232.0193,-55.5 1168.7634,-55.5"/>
<text text-anchor="middle" x="1200.3913" y="-61.5" font-family="Helvetica,sans-Serif" font-size="10.00" fill="#000000">arpa/inet.h</text>
</g>
<!-- Node2&#45;&gt;Node22 -->
<g id="edge22" class="edge">
<title>Node2&#45;&gt;Node22</title>
<path fill="none" stroke="#191970" d="M1268.8507,-110.4179C1256.2688,-101.9788 1237.3017,-89.257 1222.5203,-79.3426"/>
<polygon fill="#191970" stroke="#191970" points="1224.2066,-76.2593 1213.9521,-73.5956 1220.3074,-82.0727 1224.2066,-76.2593"/>
</g>
<!-- Node23 -->
<g id="node24" class="node">
<title>Node23</title>
<polygon fill="#ffffff" stroke="#bfbfbf" points="1249.9284,-55.5 1249.9284,-73.5 1314.8542,-73.5 1314.8542,-55.5 1249.9284,-55.5"/>
<text text-anchor="middle" x="1282.3913" y="-61.5" font-family="Helvetica,sans-Serif" font-size="10.00" fill="#000000">netinet/in.h</text>
</g>
<!-- Node2&#45;&gt;Node23 -->
<g id="edge23" class="edge">
<title>Node2&#45;&gt;Node23</title>
<path fill="none" stroke="#191970" d="M1282.3913,-110.4179C1282.3913,-103.2164 1282.3913,-92.8962 1282.3913,-83.8632"/>
<polygon fill="#191970" stroke="#191970" points="1285.8914,-83.7794 1282.3913,-73.7795 1278.8914,-83.7795 1285.8914,-83.7794"/>
</g>
<!-- Node24 -->
<g id="node25" class="node">
<title>Node24</title>
<polygon fill="#ffffff" stroke="#bfbfbf" points="1332.5344,-55.5 1332.5344,-73.5 1410.2483,-73.5 1410.2483,-55.5 1332.5344,-55.5"/>
<text text-anchor="middle" x="1371.3913" y="-61.5" font-family="Helvetica,sans-Serif" font-size="10.00" fill="#000000">net/ethernet.h</text>
</g>
<!-- Node2&#45;&gt;Node24 -->
<g id="edge24" class="edge">
<title>Node2&#45;&gt;Node24</title>
<path fill="none" stroke="#191970" d="M1297.0879,-110.4179C1310.8727,-101.8992 1331.7191,-89.0166 1347.8262,-79.0627"/>
<polygon fill="#191970" stroke="#191970" points="1350.0062,-81.83 1356.673,-73.5956 1346.3263,-75.8753 1350.0062,-81.83"/>
</g>
<!-- Node25 -->
<g id="node26" class="node">
<title>Node25</title>
<polygon fill="#ffffff" stroke="#bfbfbf" points="1427.9284,-55.5 1427.9284,-73.5 1492.8542,-73.5 1492.8542,-55.5 1427.9284,-55.5"/>
<text text-anchor="middle" x="1460.3913" y="-61.5" font-family="Helvetica,sans-Serif" font-size="10.00" fill="#000000">netinet/ip.h</text>
</g>
<!-- Node2&#45;&gt;Node25 -->
<g id="edge25" class="edge">
<title>Node2&#45;&gt;Node25</title>
<path fill="none" stroke="#191970" d="M1311.7844,-110.4179C1341.7625,-101.155 1388.439,-86.7325 1421.4708,-76.526"/>
<polygon fill="#191970" stroke="#191970" points="1422.7294,-79.8005 1431.2504,-73.5042 1420.6629,-73.1124 1422.7294,-79.8005"/>
</g>
<!-- Node26 -->
<g id="node27" class="node">
<title>Node26</title>
<polygon fill="#ffffff" stroke="#bfbfbf" points="1511.1501,-55.5 1511.1501,-73.5 1581.6326,-73.5 1581.6326,-55.5 1511.1501,-55.5"/>
<text text-anchor="middle" x="1546.3913" y="-61.5" font-family="Helvetica,sans-Serif" font-size="10.00" fill="#000000">netinet/tcp.h</text>
</g>
<!-- Node2&#45;&gt;Node26 -->
<g id="edge26" class="edge">
<title>Node2&#45;&gt;Node26</title>
<path fill="none" stroke="#191970" d="M1313.9498,-112.9764C1354.6872,-104.5483 1428.035,-89.3488 1501.1733,-74.0404"/>
<polygon fill="#191970" stroke="#191970" points="1501.95,-77.4537 1511.0204,-71.9784 1500.5153,-70.6023 1501.95,-77.4537"/>
</g>
<!-- Node27 -->
<g id="node28" class="node">
<title>Node27</title>
<polygon fill="#ffffff" stroke="#bfbfbf" points="1599.591,-55.5 1599.591,-73.5 1691.1916,-73.5 1691.1916,-55.5 1599.591,-55.5"/>
<text text-anchor="middle" x="1645.3913" y="-61.5" font-family="Helvetica,sans-Serif" font-size="10.00" fill="#000000">netinet/ip_icmp.h</text>
</g>
<!-- Node2&#45;&gt;Node27 -->
<g id="edge27" class="edge">
<title>Node2&#45;&gt;Node27</title>
<path fill="none" stroke="#191970" d="M1313.9109,-115.1023C1368.0231,-107.4965 1482.3231,-91.187 1589.4766,-74.1155"/>
<polygon fill="#191970" stroke="#191970" points="1590.1672,-77.5496 1599.4892,-72.5146 1589.062,-70.6374 1590.1672,-77.5496"/>
</g>
<!-- Node28 -->
<g id="node29" class="node">
<title>Node28</title>
<g id="a_node29"><a xlink:href="mac2int_8h.html" target="_top" xlink:title="mac2int.h">
<polygon fill="#ffffff" stroke="#000000" points="1708.7141,-55.5 1708.7141,-73.5 1768.0686,-73.5 1768.0686,-55.5 1708.7141,-55.5"/>
<text text-anchor="middle" x="1738.3913" y="-61.5" font-family="Helvetica,sans-Serif" font-size="10.00" fill="#000000">mac2int.h</text>
</a>
</g>
</g>
<!-- Node2&#45;&gt;Node28 -->
<g id="edge28" class="edge">
<title>Node2&#45;&gt;Node28</title>
<path fill="none" stroke="#191970" d="M1313.9197,-117.2051C1382.9481,-112.2561 1551.6208,-98.958 1691.3913,-74 1693.7072,-73.5865 1696.091,-73.1112 1698.5044,-72.5985"/>
<polygon fill="#191970" stroke="#191970" points="1699.5108,-75.9594 1708.4937,-70.3418 1697.9683,-69.1315 1699.5108,-75.9594"/>
</g>
<!-- Node29 -->
<g id="node30" class="node">
<title>Node29</title>
<g id="a_node30"><a xlink:href="ip2int_8h.html" target="_top" xlink:title="ip2int.h">
<polygon fill="#ffffff" stroke="#000000" points="1786.2683,-55.5 1786.2683,-73.5 1834.5144,-73.5 1834.5144,-55.5 1786.2683,-55.5"/>
<text text-anchor="middle" x="1810.3913" y="-61.5" font-family="Helvetica,sans-Serif" font-size="10.00" fill="#000000">ip2int.h</text>
</a>
</g>
</g>
<!-- Node2&#45;&gt;Node29 -->
<g id="edge30" class="edge">
<title>Node2&#45;&gt;Node29</title>
<path fill="none" stroke="#191970" d="M1313.7374,-118.5128C1391.5403,-115.7585 1598.5562,-105.9553 1768.3913,-74 1770.9931,-73.5105 1773.6852,-72.9049 1776.405,-72.2383"/>
<polygon fill="#191970" stroke="#191970" points="1777.4772,-75.5756 1786.2632,-69.6548 1775.7026,-68.8043 1777.4772,-75.5756"/>
</g>
<!-- Node30 -->
<g id="node31" class="node">
<title>Node30</title>
<g id="a_node31"><a xlink:href="database_8h.html" target="_top" xlink:title="database.h">
<polygon fill="#ffffff" stroke="#000000" points="2259.6477,-55.5 2259.6477,-73.5 2325.135,-73.5 2325.135,-55.5 2259.6477,-55.5"/>
<text text-anchor="middle" x="2292.3913" y="-61.5" font-family="Helvetica,sans-Serif" font-size="10.00" fill="#000000">database.h</text>
</a>
</g>
</g>
<!-- Node2&#45;&gt;Node30 -->
<g id="edge32" class="edge">
<title>Node2&#45;&gt;Node30</title>
<path fill="none" stroke="#191970" d="M1313.9882,-118.5712C1457.9147,-114.4442 2051.1867,-96.9572 2236.3913,-74 2240.5737,-73.4816 2244.94,-72.7967 2249.3234,-72.0314"/>
<polygon fill="#191970" stroke="#191970" points="2250.3114,-75.4078 2259.5041,-70.1405 2249.033,-68.5255 2250.3114,-75.4078"/>
</g>
<!-- Node31 -->
<g id="node32" class="node">
<title>Node31</title>
<polygon fill="#ffffff" stroke="#bfbfbf" points="1852.9875,-55.5 1852.9875,-73.5 1911.7951,-73.5 1911.7951,-55.5 1852.9875,-55.5"/>
<text text-anchor="middle" x="1882.3913" y="-61.5" font-family="Helvetica,sans-Serif" font-size="10.00" fill="#000000">jansson.h</text>
</g>
<!-- Node2&#45;&gt;Node31 -->
<g id="edge35" class="edge">
<title>Node2&#45;&gt;Node31</title>
<path fill="none" stroke="#191970" d="M1313.924,-118.687C1398.184,-116.1456 1635.6413,-106.5665 1842.5397,-73.8748"/>
<polygon fill="#191970" stroke="#191970" points="1843.3594,-77.2882 1852.6796,-72.2499 1842.2517,-70.3764 1843.3594,-77.2882"/>
</g>
<!-- Node32 -->
<g id="node33" class="node">
<title>Node32</title>
<g id="a_node33"><a xlink:href="libcli_8h.html" target="_top" xlink:title="libcli.h">
<polygon fill="#ffffff" stroke="#000000" points="2159.4973,-55.5 2159.4973,-73.5 2203.2854,-73.5 2203.2854,-55.5 2159.4973,-55.5"/>
<text text-anchor="middle" x="2181.3913" y="-61.5" font-family="Helvetica,sans-Serif" font-size="10.00" fill="#000000">libcli.h</text>
</a>
</g>
</g>
<!-- Node2&#45;&gt;Node32 -->
<g id="edge36" class="edge">
<title>Node2&#45;&gt;Node32</title>
<path fill="none" stroke="#191970" d="M1313.9299,-118.7051C1449.1263,-115.164 1980.3025,-99.8533 2145.3913,-74 2146.6845,-73.7975 2147.9984,-73.5676 2149.3215,-73.3158"/>
<polygon fill="#191970" stroke="#191970" points="2150.4616,-76.6475 2159.4585,-71.0524 2148.9361,-69.8158 2150.4616,-76.6475"/>
</g>
<!-- Node33 -->
<g id="node34" class="node">
<title>Node33</title>
<polygon fill="#ffffff" stroke="#bfbfbf" points="1930.1648,-55.5 1930.1648,-73.5 1980.6179,-73.5 1980.6179,-55.5 1930.1648,-55.5"/>
<text text-anchor="middle" x="1955.3913" y="-61.5" font-family="Helvetica,sans-Serif" font-size="10.00" fill="#000000">mysql.h</text>
</g>
<!-- Node2&#45;&gt;Node33 -->
<g id="edge40" class="edge">
<title>Node2&#45;&gt;Node33</title>
<path fill="none" stroke="#191970" d="M1314.0306,-118.0575C1422.945,-112.9679 1782.6914,-95.1001 1919.6614,-73.7099"/>
<polygon fill="#191970" stroke="#191970" points="1920.6022,-77.1025 1929.9044,-72.0311 1919.47,-70.1946 1920.6022,-77.1025"/>
</g>
<!-- Node34 -->
<g id="node35" class="node">
<title>Node34</title>
<polygon fill="#ffffff" stroke="#bfbfbf" points="1998.7756,-55.5 1998.7756,-73.5 2042.0071,-73.5 2042.0071,-55.5 1998.7756,-55.5"/>
<text text-anchor="middle" x="2020.3913" y="-61.5" font-family="Helvetica,sans-Serif" font-size="10.00" fill="#000000">zmq.h</text>
</g>
<!-- Node2&#45;&gt;Node34 -->
<g id="edge41" class="edge">
<title>Node2&#45;&gt;Node34</title>
<path fill="none" stroke="#191970" d="M1314.1258,-118.4412C1431.0075,-114.3923 1838.047,-98.9365 1988.5697,-73.6479"/>
<polygon fill="#191970" stroke="#191970" points="1989.2933,-77.0744 1998.5325,-71.8892 1988.0763,-70.181 1989.2933,-77.0744"/>
</g>
<!-- Node35 -->
<g id="node36" class="node">
<title>Node35</title>
<g id="a_node36"><a xlink:href="src_2include_2type_8h.html" target="_top" xlink:title="type.h">
<polygon fill="#ffffff" stroke="#000000" points="2059.7707,-55.5 2059.7707,-73.5 2103.0119,-73.5 2103.0119,-55.5 2059.7707,-55.5"/>
<text text-anchor="middle" x="2081.3913" y="-61.5" font-family="Helvetica,sans-Serif" font-size="10.00" fill="#000000">type.h</text>
</a>
</g>
</g>
<!-- Node2&#45;&gt;Node35 -->
<g id="edge42" class="edge">
<title>Node2&#45;&gt;Node35</title>
<path fill="none" stroke="#191970" d="M1313.8604,-118.6766C1436.9107,-115.2999 1886.3442,-101.4597 2049.2837,-73.9229"/>
<polygon fill="#191970" stroke="#191970" points="2050.3626,-77.2861 2059.5954,-72.0893 2049.137,-70.3942 2050.3626,-77.2861"/>
</g>
<!-- Node28&#45;&gt;Node2 -->
<g id="edge29" class="edge">
<title>Node28&#45;&gt;Node2</title>
<path fill="none" stroke="#191970" d="M1711.8224,-73.5484C1711.0062,-73.7057 1710.1947,-73.8566 1709.3913,-74 1569.7226,-98.9398 1401.1937,-112.2368 1324.1936,-117.1943"/>
<polygon fill="#191970" stroke="#191970" points="1323.709,-113.7177 1313.9486,-117.8388 1324.1486,-120.7039 1323.709,-113.7177"/>
</g>
<!-- Node29&#45;&gt;Node2 -->
<g id="edge31" class="edge">
<title>Node29&#45;&gt;Node2</title>
<path fill="none" stroke="#191970" d="M1788.8742,-73.5041C1788.0408,-73.6798 1787.2116,-73.8457 1786.3913,-74 1617.25,-105.8248 1411.2312,-115.678 1324.1873,-118.4787"/>
<polygon fill="#191970" stroke="#191970" points="1323.8159,-114.9883 1313.928,-118.7934 1324.0306,-121.985 1323.8159,-114.9883"/>
</g>
<!-- Node30&#45;&gt;Node1 -->
<g id="edge34" class="edge">
<title>Node30&#45;&gt;Node1</title>
<path fill="none" stroke="#191970" d="M2259.5069,-69.9032C2250.4114,-71.3209 2240.529,-72.79 2231.3913,-74 1879.9319,-120.5396 1450.8559,-161.5147 1339.0656,-171.9428"/>
<polygon fill="#191970" stroke="#191970" points="1338.6008,-168.4709 1328.968,-172.882 1339.2492,-175.4408 1338.6008,-168.4709"/>
</g>
<!-- Node30&#45;&gt;Node2 -->
<g id="edge33" class="edge">
<title>Node30&#45;&gt;Node2</title>
<path fill="none" stroke="#191970" d="M2259.4155,-73.3129C2257.7246,-73.5644 2256.0436,-73.7952 2254.3913,-74 2070.7277,-96.7662 1485.7591,-114.1529 1324.0703,-118.4654"/>
<polygon fill="#191970" stroke="#191970" points="1323.9451,-114.9674 1314.0411,-118.7304 1324.1301,-121.9649 1323.9451,-114.9674"/>
</g>
<!-- Node32&#45;&gt;Node3 -->
<g id="edge38" class="edge">
<title>Node32&#45;&gt;Node3</title>
<path fill="none" stroke="#191970" d="M2159.3889,-60.929C2145.8671,-58.8694 2128.1688,-56.415 2112.3913,-55 1700.222,-18.0356 1196.8831,-10.9957 1064.5374,-9.7511"/>
<polygon fill="#191970" stroke="#191970" points="1064.2965,-6.2489 1054.2656,-9.6594 1064.2339,-13.2487 1064.2965,-6.2489"/>
</g>
<!-- Node32&#45;&gt;Node6 -->
<g id="edge37" class="edge">
<title>Node32&#45;&gt;Node6</title>
<path fill="none" stroke="#191970" d="M2174.1256,-55.4179C2167.9213,-47.6624 2158.8233,-36.29 2151.2341,-26.8035"/>
<polygon fill="#191970" stroke="#191970" points="2153.7949,-24.4017 2144.8149,-18.7795 2148.3288,-28.7746 2153.7949,-24.4017"/>
</g>
<!-- Node32&#45;&gt;Node16 -->
<g id="edge39" class="edge">
<title>Node32&#45;&gt;Node16</title>
<path fill="none" stroke="#191970" d="M2188.4919,-55.4179C2194.5553,-47.6624 2203.4464,-36.29 2210.8631,-26.8035"/>
<polygon fill="#191970" stroke="#191970" points="2213.7346,-28.8133 2217.1365,-18.7795 2208.2199,-24.5018 2213.7346,-28.8133"/>
</g>
</g>
</svg>
