<?xml version="1.0" encoding="UTF-8" standalone="no"?>
<!DOCTYPE svg PUBLIC "-//W3C//DTD SVG 1.1//EN"
 "http://www.w3.org/Graphics/SVG/1.1/DTD/svg11.dtd">
<!-- Generated by graphviz version 2.40.1 (20161225.0304)
 -->
<!-- Title: _compnt_func_t Pages: 1 -->
<svg width="494pt" height="532pt"
 viewBox="0.00 0.00 493.52 532.00" xmlns="http://www.w3.org/2000/svg" xmlns:xlink="http://www.w3.org/1999/xlink">
<g id="graph0" class="graph" transform="scale(1 1) rotate(0) translate(4 528)">
<title>_compnt_func_t</title>
<polygon fill="#ffffff" stroke="transparent" points="-4,4 -4,-528 489.5205,-528 489.5205,4 -4,4"/>
<!-- Node1 -->
<g id="node1" class="node">
<title>Node1</title>
<polygon fill="#bfbfbf" stroke="#000000" points="398.3633,-260.5 398.3633,-278.5 485.5205,-278.5 485.5205,-260.5 398.3633,-260.5"/>
<text text-anchor="middle" x="441.9419" y="-266.5" font-family="Helvetica,sans-Serif" font-size="10.00" fill="#000000">_compnt_func_t</text>
</g>
<!-- Node2 -->
<g id="node2" class="node">
<title>Node2</title>
<g id="a_node2"><a xlink:href="struct__cli__t.html" target="_top" xlink:title="The context structure of the CLI. ">
<polygon fill="#ffffff" stroke="#000000" points="279.3711,-279.5 279.3711,-297.5 318.7158,-297.5 318.7158,-279.5 279.3711,-279.5"/>
<text text-anchor="middle" x="299.0435" y="-285.5" font-family="Helvetica,sans-Serif" font-size="10.00" fill="#000000">_cli_t</text>
</a>
</g>
</g>
<!-- Node2&#45;&gt;Node1 -->
<g id="edge1" class="edge">
<title>Node2&#45;&gt;Node1</title>
<path fill="none" stroke="#9a32cd" stroke-dasharray="5,2" d="M329.0086,-284.5158C349.0484,-281.8513 375.7495,-278.301 398.1574,-275.3217"/>
<polygon fill="#9a32cd" stroke="#9a32cd" points="328.3643,-281.0706 318.9129,-285.8581 329.287,-288.0095 328.3643,-281.0706"/>
<text text-anchor="middle" x="362.2944" y="-284.5" font-family="Helvetica,sans-Serif" font-size="10.00" fill="#000000"> cli</text>
</g>
<!-- Node3 -->
<g id="node3" class="node">
<title>Node3</title>
<g id="a_node3"><a xlink:href="struct__event__t.html" target="_top" xlink:title="The structure of an event (read&#45;only) ">
<polygon fill="#ffffff" stroke="#000000" points="271.8613,-242.5 271.8613,-260.5 326.2256,-260.5 326.2256,-242.5 271.8613,-242.5"/>
<text text-anchor="middle" x="299.0435" y="-248.5" font-family="Helvetica,sans-Serif" font-size="10.00" fill="#000000">_event_t</text>
</a>
</g>
</g>
<!-- Node3&#45;&gt;Node1 -->
<g id="edge2" class="edge">
<title>Node3&#45;&gt;Node1</title>
<path fill="none" stroke="#9a32cd" stroke-dasharray="5,2" d="M336.4005,-252.6473C350.2527,-253.3746 366.0665,-254.562 380.3633,-256.5 387.8342,-257.5127 395.7513,-258.9239 403.3313,-260.4452"/>
<polygon fill="#9a32cd" stroke="#9a32cd" points="336.3991,-249.1436 326.2475,-252.176 336.0745,-256.136 336.3991,-249.1436"/>
<text text-anchor="middle" x="362.2944" y="-258.5" font-family="Helvetica,sans-Serif" font-size="10.00" fill="#000000"> handler</text>
</g>
<!-- Node4 -->
<g id="node4" class="node">
<title>Node4</title>
<g id="a_node4"><a xlink:href="struct__host__t.html" target="_top" xlink:title="The structure of a host. ">
<polygon fill="#ffffff" stroke="#000000" points="132.8813,-457.5 132.8813,-475.5 181.6841,-475.5 181.6841,-457.5 132.8813,-457.5"/>
<text text-anchor="middle" x="157.2827" y="-463.5" font-family="Helvetica,sans-Serif" font-size="10.00" fill="#000000">_host_t</text>
</a>
</g>
</g>
<!-- Node4&#45;&gt;Node3 -->
<g id="edge3" class="edge">
<title>Node4&#45;&gt;Node3</title>
<path fill="none" stroke="#9a32cd" stroke-dasharray="5,2" d="M191.5428,-456.0992C213.1247,-447.671 239.5288,-433.5162 253.8613,-411.5 288.5688,-358.1858 238.2857,-323.5342 271.8613,-269.5 274.0122,-266.0386 277.1033,-263.1004 280.4357,-260.6649"/>
<polygon fill="#9a32cd" stroke="#9a32cd" points="190.2182,-452.8567 182.0268,-459.5762 192.6207,-459.4316 190.2182,-452.8567"/>
<text text-anchor="middle" x="232.189" y="-448.5" font-family="Helvetica,sans-Serif" font-size="10.00" fill="#000000"> host</text>
</g>
<!-- Node4&#45;&gt;Node4 -->
<g id="edge4" class="edge">
<title>Node4&#45;&gt;Node4</title>
<path fill="none" stroke="#9a32cd" stroke-dasharray="5,2" d="M145.012,-485.2336C145.6998,-490.2195 149.79,-494 157.2827,-494 169.271,-494 172.549,-484.322 167.1169,-475.5134"/>
<polygon fill="#9a32cd" stroke="#9a32cd" points="148.412,-486.0644 147.4486,-475.5134 141.622,-484.3623 148.412,-486.0644"/>
<text text-anchor="middle" x="157.2827" y="-516" font-family="Helvetica,sans-Serif" font-size="10.00" fill="#000000"> r_next</text>
<text text-anchor="middle" x="157.2827" y="-506" font-family="Helvetica,sans-Serif" font-size="10.00" fill="#000000">prev</text>
<text text-anchor="middle" x="157.2827" y="-496" font-family="Helvetica,sans-Serif" font-size="10.00" fill="#000000">next</text>
</g>
<!-- Node5 -->
<g id="node5" class="node">
<title>Node5</title>
<g id="a_node5"><a xlink:href="struct__pktout__t.html" target="_top" xlink:title="The structure of an outgoing packet. ">
<polygon fill="#ffffff" stroke="#000000" points="128.7114,-420.5 128.7114,-438.5 185.854,-438.5 185.854,-420.5 128.7114,-420.5"/>
<text text-anchor="middle" x="157.2827" y="-426.5" font-family="Helvetica,sans-Serif" font-size="10.00" fill="#000000">_pktout_t</text>
</a>
</g>
</g>
<!-- Node5&#45;&gt;Node3 -->
<g id="edge5" class="edge">
<title>Node5&#45;&gt;Node3</title>
<path fill="none" stroke="#9a32cd" stroke-dasharray="5,2" d="M186.8845,-415.3743C188.8388,-414.1402 190.7355,-412.8459 192.5166,-411.5 224.4672,-387.3557 234.989,-380.8217 253.8613,-345.5 270.2195,-314.8838 251.9979,-297.9672 271.8613,-269.5 274.2581,-266.0651 277.5405,-263.112 280.9962,-260.6491"/>
<polygon fill="#9a32cd" stroke="#9a32cd" points="185.0777,-412.3755 178.128,-420.3726 188.5479,-418.4548 185.0777,-412.3755"/>
<text text-anchor="middle" x="232.189" y="-399.5" font-family="Helvetica,sans-Serif" font-size="10.00" fill="#000000"> pktout</text>
</g>
<!-- Node6 -->
<g id="node6" class="node">
<title>Node6</title>
<g id="a_node6"><a xlink:href="struct__action__t.html" target="_top" xlink:title="The structure of an action. ">
<polygon fill="#ffffff" stroke="#000000" points="0,-377.5 0,-395.5 56.5859,-395.5 56.5859,-377.5 0,-377.5"/>
<text text-anchor="middle" x="28.293" y="-383.5" font-family="Helvetica,sans-Serif" font-size="10.00" fill="#000000">_action_t</text>
</a>
</g>
</g>
<!-- Node6&#45;&gt;Node5 -->
<g id="edge6" class="edge">
<title>Node6&#45;&gt;Node5</title>
<path fill="none" stroke="#9a32cd" stroke-dasharray="5,2" d="M65.0999,-398.77C85.8693,-405.6936 111.3672,-414.1936 130.2778,-420.4977"/>
<polygon fill="#9a32cd" stroke="#9a32cd" points="65.9271,-395.3564 55.3334,-395.5142 63.7133,-401.9971 65.9271,-395.3564"/>
<text text-anchor="middle" x="89.3174" y="-412.5" font-family="Helvetica,sans-Serif" font-size="10.00" fill="#000000"> action</text>
</g>
<!-- Node7 -->
<g id="node7" class="node">
<title>Node7</title>
<g id="a_node7"><a xlink:href="struct__flow__t.html" target="_top" xlink:title="The structure of a flow. ">
<polygon fill="#ffffff" stroke="#000000" points="133.4404,-335.5 133.4404,-353.5 181.125,-353.5 181.125,-335.5 133.4404,-335.5"/>
<text text-anchor="middle" x="157.2827" y="-341.5" font-family="Helvetica,sans-Serif" font-size="10.00" fill="#000000">_flow_t</text>
</a>
</g>
</g>
<!-- Node6&#45;&gt;Node7 -->
<g id="edge8" class="edge">
<title>Node6&#45;&gt;Node7</title>
<path fill="none" stroke="#9a32cd" stroke-dasharray="5,2" d="M65.5566,-374.3667C87.3096,-367.2837 114.1252,-358.5524 133.1307,-352.3641"/>
<polygon fill="#9a32cd" stroke="#9a32cd" points="64.3895,-371.0658 55.9645,-377.4899 66.5568,-377.7218 64.3895,-371.0658"/>
<text text-anchor="middle" x="89.3174" y="-371.5" font-family="Helvetica,sans-Serif" font-size="10.00" fill="#000000"> action</text>
</g>
<!-- Node7&#45;&gt;Node3 -->
<g id="edge7" class="edge">
<title>Node7&#45;&gt;Node3</title>
<path fill="none" stroke="#9a32cd" stroke-dasharray="5,2" d="M191.1893,-338.1724C211.4375,-332.9034 236.5072,-323.5746 253.8613,-307.5 267.5714,-294.8008 259.6215,-283.6217 271.8613,-269.5 274.7529,-266.1639 278.4058,-263.1897 282.0877,-260.6666"/>
<polygon fill="#9a32cd" stroke="#9a32cd" points="190.3144,-334.7828 181.3998,-340.5082 191.9391,-341.5916 190.3144,-334.7828"/>
<text text-anchor="middle" x="232.189" y="-333.5" font-family="Helvetica,sans-Serif" font-size="10.00" fill="#000000"> flow</text>
</g>
<!-- Node7&#45;&gt;Node7 -->
<g id="edge9" class="edge">
<title>Node7&#45;&gt;Node7</title>
<path fill="none" stroke="#9a32cd" stroke-dasharray="5,2" d="M145.012,-363.2336C145.6998,-368.2195 149.79,-372 157.2827,-372 169.271,-372 172.549,-362.322 167.1169,-353.5134"/>
<polygon fill="#9a32cd" stroke="#9a32cd" points="148.412,-364.0644 147.4486,-353.5134 141.622,-362.3623 148.412,-364.0644"/>
<text text-anchor="middle" x="157.2827" y="-394" font-family="Helvetica,sans-Serif" font-size="10.00" fill="#000000"> r_next</text>
<text text-anchor="middle" x="157.2827" y="-384" font-family="Helvetica,sans-Serif" font-size="10.00" fill="#000000">prev</text>
<text text-anchor="middle" x="157.2827" y="-374" font-family="Helvetica,sans-Serif" font-size="10.00" fill="#000000">next</text>
</g>
<!-- Node8 -->
<g id="node8" class="node">
<title>Node8</title>
<g id="a_node8"><a xlink:href="struct__msg__t.html" target="_top" xlink:title="The structure of a message. ">
<polygon fill="#ffffff" stroke="#000000" points="132.8862,-298.5 132.8862,-316.5 181.6792,-316.5 181.6792,-298.5 132.8862,-298.5"/>
<text text-anchor="middle" x="157.2827" y="-304.5" font-family="Helvetica,sans-Serif" font-size="10.00" fill="#000000">_msg_t</text>
</a>
</g>
</g>
<!-- Node8&#45;&gt;Node3 -->
<g id="edge10" class="edge">
<title>Node8&#45;&gt;Node3</title>
<path fill="none" stroke="#9a32cd" stroke-dasharray="5,2" d="M191.9066,-298.7495C210.6146,-293.5261 233.904,-286.2138 253.8613,-277.5 264.8095,-272.7198 276.4799,-265.9566 285.2169,-260.5262"/>
<polygon fill="#9a32cd" stroke="#9a32cd" points="190.7671,-295.4322 182.0349,-301.4321 192.6028,-302.1872 190.7671,-295.4322"/>
<text text-anchor="middle" x="232.189" y="-295.5" font-family="Helvetica,sans-Serif" font-size="10.00" fill="#000000"> msg</text>
</g>
<!-- Node9 -->
<g id="node9" class="node">
<title>Node9</title>
<g id="a_node9"><a xlink:href="struct__raw__msg__t.html" target="_top" xlink:title="The structure of a raw message. ">
<polygon fill="#ffffff" stroke="#000000" points="122.0488,-261.5 122.0488,-279.5 192.5166,-279.5 192.5166,-261.5 122.0488,-261.5"/>
<text text-anchor="middle" x="157.2827" y="-267.5" font-family="Helvetica,sans-Serif" font-size="10.00" fill="#000000">_raw_msg_t</text>
</a>
</g>
</g>
<!-- Node9&#45;&gt;Node3 -->
<g id="edge11" class="edge">
<title>Node9&#45;&gt;Node3</title>
<path fill="none" stroke="#9a32cd" stroke-dasharray="5,2" d="M202.7876,-264.401C225.465,-261.3616 252.1349,-257.7871 271.6436,-255.1724"/>
<polygon fill="#9a32cd" stroke="#9a32cd" points="202.1357,-260.957 192.6893,-265.7545 203.0656,-267.895 202.1357,-260.957"/>
<text text-anchor="middle" x="232.189" y="-265.5" font-family="Helvetica,sans-Serif" font-size="10.00" fill="#000000"> raw_msg</text>
</g>
<!-- Node10 -->
<g id="node10" class="node">
<title>Node10</title>
<g id="a_node10"><a xlink:href="struct__traffic__t.html" target="_top" xlink:title="The structure of traffic usage. ">
<polygon fill="#ffffff" stroke="#000000" points="130.1079,-224.5 130.1079,-242.5 184.4575,-242.5 184.4575,-224.5 130.1079,-224.5"/>
<text text-anchor="middle" x="157.2827" y="-230.5" font-family="Helvetica,sans-Serif" font-size="10.00" fill="#000000">_traffic_t</text>
</a>
</g>
</g>
<!-- Node10&#45;&gt;Node3 -->
<g id="edge12" class="edge">
<title>Node10&#45;&gt;Node3</title>
<path fill="none" stroke="#9a32cd" stroke-dasharray="5,2" d="M194.6319,-233.4513C212.6376,-233.9313 234.4822,-235.2544 253.8613,-238.5 259.6575,-239.4707 265.7673,-240.9238 271.5558,-242.511"/>
<polygon fill="#9a32cd" stroke="#9a32cd" points="194.5867,-229.9499 184.5216,-233.2579 194.4528,-236.9486 194.5867,-229.9499"/>
<text text-anchor="middle" x="232.189" y="-240.5" font-family="Helvetica,sans-Serif" font-size="10.00" fill="#000000"> traffic</text>
</g>
<!-- Node11 -->
<g id="node11" class="node">
<title>Node11</title>
<g id="a_node11"><a xlink:href="struct__resource__t.html" target="_top" xlink:title="The structure of resource usage. ">
<polygon fill="#ffffff" stroke="#000000" points="122.8789,-187.5 122.8789,-205.5 191.6865,-205.5 191.6865,-187.5 122.8789,-187.5"/>
<text text-anchor="middle" x="157.2827" y="-193.5" font-family="Helvetica,sans-Serif" font-size="10.00" fill="#000000">_resource_t</text>
</a>
</g>
</g>
<!-- Node11&#45;&gt;Node3 -->
<g id="edge13" class="edge">
<title>Node11&#45;&gt;Node3</title>
<path fill="none" stroke="#9a32cd" stroke-dasharray="5,2" d="M201.8964,-204.0965C218.6378,-207.8406 237.5492,-213.1673 253.8613,-220.5 266.5291,-226.1945 279.4435,-235.4766 288.2029,-242.4021"/>
<polygon fill="#9a32cd" stroke="#9a32cd" points="202.3026,-200.6052 191.7955,-201.9659 200.8578,-207.4545 202.3026,-200.6052"/>
<text text-anchor="middle" x="232.189" y="-222.5" font-family="Helvetica,sans-Serif" font-size="10.00" fill="#000000"> resource</text>
</g>
<!-- Node12 -->
<g id="node12" class="node">
<title>Node12</title>
<g id="a_node12"><a xlink:href="struct__pktin__t.html" target="_top" xlink:title="The structure of an incoming packet. ">
<polygon fill="#ffffff" stroke="#000000" points="131.7705,-150.5 131.7705,-168.5 182.7949,-168.5 182.7949,-150.5 131.7705,-150.5"/>
<text text-anchor="middle" x="157.2827" y="-156.5" font-family="Helvetica,sans-Serif" font-size="10.00" fill="#000000">_pktin_t</text>
</a>
</g>
</g>
<!-- Node12&#45;&gt;Node3 -->
<g id="edge14" class="edge">
<title>Node12&#45;&gt;Node3</title>
<path fill="none" stroke="#9a32cd" stroke-dasharray="5,2" d="M192.8916,-166.8459C212.2067,-172.0506 235.7602,-180.4749 253.8613,-193.5 272.3033,-206.7704 286.9431,-229.6273 294.1522,-242.3238"/>
<polygon fill="#9a32cd" stroke="#9a32cd" points="193.4962,-163.389 182.9445,-164.3436 191.7885,-170.1775 193.4962,-163.389"/>
<text text-anchor="middle" x="232.189" y="-195.5" font-family="Helvetica,sans-Serif" font-size="10.00" fill="#000000"> pktin</text>
</g>
<!-- Node13 -->
<g id="node13" class="node">
<title>Node13</title>
<g id="a_node13"><a xlink:href="struct__port__t.html" target="_top" xlink:title="The structure of a port. ">
<polygon fill="#ffffff" stroke="#000000" points="133.7163,-75.5 133.7163,-93.5 180.8491,-93.5 180.8491,-75.5 133.7163,-75.5"/>
<text text-anchor="middle" x="157.2827" y="-81.5" font-family="Helvetica,sans-Serif" font-size="10.00" fill="#000000">_port_t</text>
</a>
</g>
</g>
<!-- Node13&#45;&gt;Node3 -->
<g id="edge15" class="edge">
<title>Node13&#45;&gt;Node3</title>
<path fill="none" stroke="#9a32cd" stroke-dasharray="5,2" d="M181.8759,-99.0713C203.0808,-112.6048 233.4241,-134.4077 253.8613,-159.5 275.5497,-186.1285 290.2164,-224.8967 296.1217,-242.3652"/>
<polygon fill="#9a32cd" stroke="#9a32cd" points="183.4631,-95.9366 173.1241,-93.6225 179.7634,-101.8791 183.4631,-95.9366"/>
<text text-anchor="middle" x="232.189" y="-161.5" font-family="Helvetica,sans-Serif" font-size="10.00" fill="#000000"> port</text>
</g>
<!-- Node13&#45;&gt;Node13 -->
<g id="edge16" class="edge">
<title>Node13&#45;&gt;Node13</title>
<path fill="none" stroke="#9a32cd" stroke-dasharray="5,2" d="M145.012,-103.2336C145.6998,-108.2195 149.79,-112 157.2827,-112 169.271,-112 172.549,-102.322 167.1169,-93.5134"/>
<polygon fill="#9a32cd" stroke="#9a32cd" points="148.412,-104.0644 147.4486,-93.5134 141.622,-102.3623 148.412,-104.0644"/>
<text text-anchor="middle" x="157.2827" y="-124" font-family="Helvetica,sans-Serif" font-size="10.00" fill="#000000"> prev</text>
<text text-anchor="middle" x="157.2827" y="-114" font-family="Helvetica,sans-Serif" font-size="10.00" fill="#000000">next</text>
</g>
<!-- Node14 -->
<g id="node14" class="node">
<title>Node14</title>
<g id="a_node14"><a xlink:href="struct__switch__t.html" target="_top" xlink:title="The structure of a switch. ">
<polygon fill="#ffffff" stroke="#000000" points="128.4404,-.5 128.4404,-18.5 186.125,-18.5 186.125,-.5 128.4404,-.5"/>
<text text-anchor="middle" x="157.2827" y="-6.5" font-family="Helvetica,sans-Serif" font-size="10.00" fill="#000000">_switch_t</text>
</a>
</g>
</g>
<!-- Node14&#45;&gt;Node3 -->
<g id="edge17" class="edge">
<title>Node14&#45;&gt;Node3</title>
<path fill="none" stroke="#9a32cd" stroke-dasharray="5,2" d="M177.4879,-25.0112C199.2727,-42.738 233.5505,-73.6981 253.8613,-107.5 281.6614,-153.7657 293.9771,-218.8157 297.7275,-242.461"/>
<polygon fill="#9a32cd" stroke="#9a32cd" points="179.5373,-22.169 169.5349,-18.6757 175.1757,-27.6441 179.5373,-22.169"/>
<text text-anchor="middle" x="232.189" y="-109.5" font-family="Helvetica,sans-Serif" font-size="10.00" fill="#000000"> sw</text>
</g>
<!-- Node14&#45;&gt;Node14 -->
<g id="edge18" class="edge">
<title>Node14&#45;&gt;Node14</title>
<path fill="none" stroke="#9a32cd" stroke-dasharray="5,2" d="M145.012,-28.2336C145.6998,-33.2195 149.79,-37 157.2827,-37 169.271,-37 172.549,-27.322 167.1169,-18.5134"/>
<polygon fill="#9a32cd" stroke="#9a32cd" points="148.412,-29.0644 147.4486,-18.5134 141.622,-27.3623 148.412,-29.0644"/>
<text text-anchor="middle" x="157.2827" y="-49" font-family="Helvetica,sans-Serif" font-size="10.00" fill="#000000"> prev</text>
<text text-anchor="middle" x="157.2827" y="-39" font-family="Helvetica,sans-Serif" font-size="10.00" fill="#000000">next</text>
</g>
</g>
</svg>
