<?xml version="1.0" encoding="UTF-8" standalone="no"?>
<!DOCTYPE svg PUBLIC "-//W3C//DTD SVG 1.1//EN"
 "http://www.w3.org/Graphics/SVG/1.1/DTD/svg11.dtd">
<!-- Generated by graphviz version 2.40.1 (20161225.0304)
 -->
<!-- Title: cli_def Pages: 1 -->
<svg width="332pt" height="103pt"
 viewBox="0.00 0.00 331.82 103.00" xmlns="http://www.w3.org/2000/svg" xmlns:xlink="http://www.w3.org/1999/xlink">
<g id="graph0" class="graph" transform="scale(1 1) rotate(0) translate(4 99)">
<title>cli_def</title>
<polygon fill="#ffffff" stroke="transparent" points="-4,4 -4,-99 327.8174,-99 327.8174,4 -4,4"/>
<!-- Node1 -->
<g id="node1" class="node">
<title>Node1</title>
<polygon fill="#bfbfbf" stroke="#000000" points="91.8892,-.5 91.8892,-18.5 136.7954,-18.5 136.7954,-.5 91.8892,-.5"/>
<text text-anchor="middle" x="114.3423" y="-6.5" font-family="Helvetica,sans-Serif" font-size="10.00" fill="#000000">cli_def</text>
</g>
<!-- Node2 -->
<g id="node2" class="node">
<title>Node2</title>
<g id="a_node2"><a xlink:href="structunp.html" target="_top" xlink:title="unp">
<polygon fill="#ffffff" stroke="#000000" points="0,-71 0,-89 32.6846,-89 32.6846,-71 0,-71"/>
<text text-anchor="middle" x="16.3423" y="-77" font-family="Helvetica,sans-Serif" font-size="10.00" fill="#000000">unp</text>
</a>
</g>
</g>
<!-- Node2&#45;&gt;Node1 -->
<g id="edge1" class="edge">
<title>Node2&#45;&gt;Node1</title>
<path fill="none" stroke="#9a32cd" stroke-dasharray="5,2" d="M37.4104,-64.8439C56.899,-50.824 85.2386,-30.4368 101.5274,-18.7189"/>
<polygon fill="#9a32cd" stroke="#9a32cd" points="35.2279,-62.1023 29.1541,-70.7834 39.3157,-67.7847 35.2279,-62.1023"/>
<text text-anchor="middle" x="87.958" y="-39" font-family="Helvetica,sans-Serif" font-size="10.00" fill="#000000"> users</text>
</g>
<!-- Node2&#45;&gt;Node2 -->
<g id="edge2" class="edge">
<title>Node2&#45;&gt;Node2</title>
<path fill="none" stroke="#9a32cd" stroke-dasharray="5,2" d="M42.972,-86.6532C47.5276,-85.7454 50.6846,-83.5277 50.6846,-80 50.6846,-74.2109 42.1828,-71.9496 32.9505,-73.2159"/>
<polygon fill="#9a32cd" stroke="#9a32cd" points="42.9039,-83.1537 32.9505,-86.7841 42.9954,-90.1531 42.9039,-83.1537"/>
<text text-anchor="middle" x="61.5244" y="-77" font-family="Helvetica,sans-Serif" font-size="10.00" fill="#000000"> next</text>
</g>
<!-- Node3 -->
<g id="node3" class="node">
<title>Node3</title>
<g id="a_node3"><a xlink:href="structcli__filter.html" target="_top" xlink:title="cli_filter">
<polygon fill="#ffffff" stroke="#000000" points="89.394,-71 89.394,-89 139.2905,-89 139.2905,-71 89.394,-71"/>
<text text-anchor="middle" x="114.3423" y="-77" font-family="Helvetica,sans-Serif" font-size="10.00" fill="#000000">cli_filter</text>
</a>
</g>
</g>
<!-- Node3&#45;&gt;Node1 -->
<g id="edge3" class="edge">
<title>Node3&#45;&gt;Node1</title>
<path fill="none" stroke="#9a32cd" stroke-dasharray="5,2" d="M114.3423,-60.5661C114.3423,-47.0192 114.3423,-29.5407 114.3423,-18.9439"/>
<polygon fill="#9a32cd" stroke="#9a32cd" points="110.8424,-60.7833 114.3423,-70.7834 117.8424,-60.7834 110.8424,-60.7833"/>
<text text-anchor="middle" x="127.6772" y="-39" font-family="Helvetica,sans-Serif" font-size="10.00" fill="#000000"> filters</text>
</g>
<!-- Node3&#45;&gt;Node3 -->
<g id="edge4" class="edge">
<title>Node3&#45;&gt;Node3</title>
<path fill="none" stroke="#9a32cd" stroke-dasharray="5,2" d="M149.7456,-86.2395C154.2898,-85.1553 157.2905,-83.0754 157.2905,-80 157.2905,-74.9531 149.2098,-72.5874 139.4876,-72.9028"/>
<polygon fill="#9a32cd" stroke="#9a32cd" points="149.1612,-82.776 139.4876,-87.0972 149.7445,-89.7517 149.1612,-82.776"/>
<text text-anchor="middle" x="168.1304" y="-77" font-family="Helvetica,sans-Serif" font-size="10.00" fill="#000000"> next</text>
</g>
<!-- Node4 -->
<g id="node4" class="node">
<title>Node4</title>
<g id="a_node4"><a xlink:href="structcli__command.html" target="_top" xlink:title="cli_command">
<polygon fill="#ffffff" stroke="#000000" points="195.8867,-71 195.8867,-89 270.7979,-89 270.7979,-71 195.8867,-71"/>
<text text-anchor="middle" x="233.3423" y="-77" font-family="Helvetica,sans-Serif" font-size="10.00" fill="#000000">cli_command</text>
</a>
</g>
</g>
<!-- Node4&#45;&gt;Node1 -->
<g id="edge5" class="edge">
<title>Node4&#45;&gt;Node1</title>
<path fill="none" stroke="#9a32cd" stroke-dasharray="5,2" d="M209.0282,-65.5954C185.3397,-51.5615 150.0388,-30.648 129.9033,-18.7189"/>
<polygon fill="#9a32cd" stroke="#9a32cd" points="207.3976,-68.6975 217.7851,-70.7834 210.9656,-62.675 207.3976,-68.6975"/>
<text text-anchor="middle" x="203.1846" y="-39" font-family="Helvetica,sans-Serif" font-size="10.00" fill="#000000"> commands</text>
</g>
<!-- Node4&#45;&gt;Node4 -->
<g id="edge6" class="edge">
<title>Node4&#45;&gt;Node4</title>
<path fill="none" stroke="#9a32cd" stroke-dasharray="5,2" d="M281.0408,-85.8155C285.7813,-84.6521 288.7979,-82.7136 288.7979,-80 288.7979,-75.6582 281.0756,-73.3007 270.925,-72.9276"/>
<polygon fill="#9a32cd" stroke="#9a32cd" points="280.4171,-82.366 270.925,-87.0724 281.2803,-89.3125 280.4171,-82.366"/>
<text text-anchor="middle" x="306.3076" y="-87" font-family="Helvetica,sans-Serif" font-size="10.00" fill="#000000"> next</text>
<text text-anchor="middle" x="306.3076" y="-77" font-family="Helvetica,sans-Serif" font-size="10.00" fill="#000000">parent</text>
<text text-anchor="middle" x="306.3076" y="-67" font-family="Helvetica,sans-Serif" font-size="10.00" fill="#000000">children</text>
</g>
</g>
</svg>
