<?xml version="1.0" encoding="UTF-8" standalone="no"?>
<!DOCTYPE svg PUBLIC "-//W3C//DTD SVG 1.1//EN"
 "http://www.w3.org/Graphics/SVG/1.1/DTD/svg11.dtd">
<!-- Generated by graphviz version 2.40.1 (20161225.0304)
 -->
<!-- Title: _flow_table_t Pages: 1 -->
<svg width="415pt" height="188pt"
 viewBox="0.00 0.00 415.15 188.00" xmlns="http://www.w3.org/2000/svg" xmlns:xlink="http://www.w3.org/1999/xlink">
<g id="graph0" class="graph" transform="scale(1 1) rotate(0) translate(4 184)">
<title>_flow_table_t</title>
<polygon fill="#ffffff" stroke="transparent" points="-4,4 -4,-184 411.1475,-184 411.1475,4 -4,4"/>
<!-- Node1 -->
<g id="node1" class="node">
<title>Node1</title>
<polygon fill="#bfbfbf" stroke="#000000" points="166.9976,-.5 166.9976,-18.5 241.9282,-18.5 241.9282,-.5 166.9976,-.5"/>
<text text-anchor="middle" x="204.4629" y="-6.5" font-family="Helvetica,sans-Serif" font-size="10.00" fill="#000000">_flow_table_t</text>
</g>
<!-- Node2 -->
<g id="node2" class="node">
<title>Node2</title>
<g id="a_node2"><a xlink:href="struct__flow__t.html" target="_top" xlink:title="The structure of a flow. ">
<polygon fill="#ffffff" stroke="#000000" points="180.6206,-81 180.6206,-99 228.3052,-99 228.3052,-81 180.6206,-81"/>
<text text-anchor="middle" x="204.4629" y="-87" font-family="Helvetica,sans-Serif" font-size="10.00" fill="#000000">_flow_t</text>
</a>
</g>
</g>
<!-- Node2&#45;&gt;Node1 -->
<g id="edge1" class="edge">
<title>Node2&#45;&gt;Node1</title>
<path fill="none" stroke="#9a32cd" stroke-dasharray="5,2" d="M204.4629,-70.5894C204.4629,-54.1062 204.4629,-31.1843 204.4629,-18.6267"/>
<polygon fill="#9a32cd" stroke="#9a32cd" points="200.963,-70.7656 204.4629,-80.7656 207.963,-70.7657 200.963,-70.7656"/>
<text text-anchor="middle" x="216.9751" y="-49" font-family="Helvetica,sans-Serif" font-size="10.00" fill="#000000"> head</text>
<text text-anchor="middle" x="216.9751" y="-39" font-family="Helvetica,sans-Serif" font-size="10.00" fill="#000000">tail</text>
</g>
<!-- Node2&#45;&gt;Node2 -->
<g id="edge5" class="edge">
<title>Node2&#45;&gt;Node2</title>
<path fill="none" stroke="#9a32cd" stroke-dasharray="5,2" d="M238.7582,-96.9484C243.2951,-95.7653 246.3052,-93.4492 246.3052,-90 246.3052,-84.3398 238.1993,-81.7309 228.5418,-82.1731"/>
<polygon fill="#9a32cd" stroke="#9a32cd" points="238.2051,-93.483 228.5418,-97.8269 238.8049,-100.4572 238.2051,-93.483"/>
<text text-anchor="middle" x="261.5908" y="-97" font-family="Helvetica,sans-Serif" font-size="10.00" fill="#000000"> r_next</text>
<text text-anchor="middle" x="261.5908" y="-87" font-family="Helvetica,sans-Serif" font-size="10.00" fill="#000000">prev</text>
<text text-anchor="middle" x="261.5908" y="-77" font-family="Helvetica,sans-Serif" font-size="10.00" fill="#000000">next</text>
</g>
<!-- Node3 -->
<g id="node3" class="node">
<title>Node3</title>
<g id="a_node3"><a xlink:href="struct__pkt__info__t.html" target="_top" xlink:title="The structure of a packet. ">
<polygon fill="#ffffff" stroke="#000000" points="0,-161.5 0,-179.5 64.9258,-179.5 64.9258,-161.5 0,-161.5"/>
<text text-anchor="middle" x="32.4629" y="-167.5" font-family="Helvetica,sans-Serif" font-size="10.00" fill="#000000">_pkt_info_t</text>
</a>
</g>
</g>
<!-- Node3&#45;&gt;Node2 -->
<g id="edge2" class="edge">
<title>Node3&#45;&gt;Node2</title>
<path fill="none" stroke="#9a32cd" stroke-dasharray="5,2" d="M53.6311,-155.4898C68.5256,-145.3884 89.1973,-132.2719 108.6602,-123 132.1647,-111.8027 160.5121,-102.5227 180.2469,-96.6856"/>
<polygon fill="#9a32cd" stroke="#9a32cd" points="51.4109,-152.7693 45.1663,-161.3283 55.3854,-158.5316 51.4109,-152.7693"/>
<text text-anchor="middle" x="128.3643" y="-135" font-family="Helvetica,sans-Serif" font-size="10.00" fill="#000000"> pkt_info</text>
<text text-anchor="middle" x="128.3643" y="-125" font-family="Helvetica,sans-Serif" font-size="10.00" fill="#000000">match</text>
</g>
<!-- Node4 -->
<g id="node4" class="node">
<title>Node4</title>
<g id="a_node4"><a xlink:href="struct__flow__meta__t.html" target="_top" xlink:title="The structure of flow metadata. ">
<polygon fill="#ffffff" stroke="#000000" points="82.7241,-161.5 82.7241,-179.5 158.2017,-179.5 158.2017,-161.5 82.7241,-161.5"/>
<text text-anchor="middle" x="120.4629" y="-167.5" font-family="Helvetica,sans-Serif" font-size="10.00" fill="#000000">_flow_meta_t</text>
</a>
</g>
</g>
<!-- Node4&#45;&gt;Node2 -->
<g id="edge3" class="edge">
<title>Node4&#45;&gt;Node2</title>
<path fill="none" stroke="#9a32cd" stroke-dasharray="5,2" d="M137.3411,-154.3251C154.6485,-137.7388 180.9538,-112.5296 194.9394,-99.1267"/>
<polygon fill="#9a32cd" stroke="#9a32cd" points="134.897,-151.8196 130.0988,-161.2656 139.7403,-156.8735 134.897,-151.8196"/>
<text text-anchor="middle" x="181.9678" y="-130" font-family="Helvetica,sans-Serif" font-size="10.00" fill="#000000"> meta</text>
</g>
<!-- Node5 -->
<g id="node5" class="node">
<title>Node5</title>
<g id="a_node5"><a xlink:href="struct__action__t.html" target="_top" xlink:title="The structure of an action. ">
<polygon fill="#ffffff" stroke="#000000" points="176.1699,-161.5 176.1699,-179.5 232.7559,-179.5 232.7559,-161.5 176.1699,-161.5"/>
<text text-anchor="middle" x="204.4629" y="-167.5" font-family="Helvetica,sans-Serif" font-size="10.00" fill="#000000">_action_t</text>
</a>
</g>
</g>
<!-- Node5&#45;&gt;Node2 -->
<g id="edge4" class="edge">
<title>Node5&#45;&gt;Node2</title>
<path fill="none" stroke="#9a32cd" stroke-dasharray="5,2" d="M204.4629,-151.0894C204.4629,-134.6062 204.4629,-111.6843 204.4629,-99.1267"/>
<polygon fill="#9a32cd" stroke="#9a32cd" points="200.963,-151.2656 204.4629,-161.2656 207.963,-151.2657 200.963,-151.2656"/>
<text text-anchor="middle" x="219.1943" y="-130" font-family="Helvetica,sans-Serif" font-size="10.00" fill="#000000"> action</text>
</g>
<!-- Node6 -->
<g id="node6" class="node">
<title>Node6</title>
<g id="a_node6"><a xlink:href="struct__flow__stat__t.html" target="_top" xlink:title="The structure of flow statistics. ">
<polygon fill="#ffffff" stroke="#000000" points="250.7808,-161.5 250.7808,-179.5 320.145,-179.5 320.145,-161.5 250.7808,-161.5"/>
<text text-anchor="middle" x="285.4629" y="-167.5" font-family="Helvetica,sans-Serif" font-size="10.00" fill="#000000">_flow_stat_t</text>
</a>
</g>
</g>
<!-- Node6&#45;&gt;Node2 -->
<g id="edge6" class="edge">
<title>Node6&#45;&gt;Node2</title>
<path fill="none" stroke="#9a32cd" stroke-dasharray="5,2" d="M268.7343,-153.8747C252.0421,-137.2855 227.0109,-112.4088 213.6463,-99.1267"/>
<polygon fill="#9a32cd" stroke="#9a32cd" points="266.611,-156.699 276.1712,-161.2656 271.5454,-151.7339 266.611,-156.699"/>
<text text-anchor="middle" x="265.9111" y="-130" font-family="Helvetica,sans-Serif" font-size="10.00" fill="#000000"> stat</text>
</g>
<!-- Node7 -->
<g id="node7" class="node">
<title>Node7</title>
<g id="a_node7"><a xlink:href="struct__flow__info__t.html" target="_top" xlink:title="The structure of flow information. ">
<polygon fill="#ffffff" stroke="#000000" points="337.7783,-161.5 337.7783,-179.5 407.1475,-179.5 407.1475,-161.5 337.7783,-161.5"/>
<text text-anchor="middle" x="372.4629" y="-167.5" font-family="Helvetica,sans-Serif" font-size="10.00" fill="#000000">_flow_info_t</text>
</a>
</g>
</g>
<!-- Node7&#45;&gt;Node2 -->
<g id="edge7" class="edge">
<title>Node7&#45;&gt;Node2</title>
<path fill="none" stroke="#9a32cd" stroke-dasharray="5,2" d="M346.4688,-156.7152C327.9289,-147.0087 302.3344,-133.8615 279.4629,-123 261.6012,-114.5176 241.0251,-105.5177 225.9481,-99.063"/>
<polygon fill="#9a32cd" stroke="#9a32cd" points="344.9891,-159.8915 355.4691,-161.4472 348.2466,-153.6956 344.9891,-159.8915"/>
<text text-anchor="middle" x="326.9136" y="-130" font-family="Helvetica,sans-Serif" font-size="10.00" fill="#000000"> info</text>
</g>
</g>
</svg>
