<?xml version="1.0" encoding="UTF-8" standalone="no"?>
<!DOCTYPE svg PUBLIC "-//W3C//DTD SVG 1.1//EN"
 "http://www.w3.org/Graphics/SVG/1.1/DTD/svg11.dtd">
<!-- Generated by graphviz version 2.40.1 (20161225.0304)
 -->
<!-- Title: _app_event_t Pages: 1 -->
<svg width="367pt" height="439pt"
 viewBox="0.00 0.00 367.05 439.00" xmlns="http://www.w3.org/2000/svg" xmlns:xlink="http://www.w3.org/1999/xlink">
<g id="graph0" class="graph" transform="scale(1 1) rotate(0) translate(4 435)">
<title>_app_event_t</title>
<polygon fill="#ffffff" stroke="transparent" points="-4,4 -4,-435 363.0479,-435 363.0479,4 -4,4"/>
<!-- Node1 -->
<g id="node1" class="node">
<title>Node1</title>
<polygon fill="#bfbfbf" stroke="#000000" points="282.4375,-270.5 282.4375,-288.5 359.0479,-288.5 359.0479,-270.5 282.4375,-270.5"/>
<text text-anchor="middle" x="320.7427" y="-276.5" font-family="Helvetica,sans-Serif" font-size="10.00" fill="#000000">_app_event_t</text>
</g>
<!-- Node2 -->
<g id="node2" class="node">
<title>Node2</title>
<g id="a_node2"><a xlink:href="struct__host__t.html" target="_top" xlink:title="The structure of a host. ">
<polygon fill="#ffffff" stroke="#000000" points="163.1743,-412.5 163.1743,-430.5 211.9771,-430.5 211.9771,-412.5 163.1743,-412.5"/>
<text text-anchor="middle" x="187.5757" y="-418.5" font-family="Helvetica,sans-Serif" font-size="10.00" fill="#000000">_host_t</text>
</a>
</g>
</g>
<!-- Node2&#45;&gt;Node1 -->
<g id="edge1" class="edge">
<title>Node2&#45;&gt;Node1</title>
<path fill="none" stroke="#9a32cd" stroke-dasharray="5,2" d="M211.495,-406.8966C213.1769,-405.7709 214.8327,-404.6318 216.418,-403.5 238.7944,-387.5243 245.9623,-384.8615 264.4375,-364.5 287.037,-339.5931 307.1056,-304.8358 315.9514,-288.5695"/>
<polygon fill="#9a32cd" stroke="#9a32cd" points="209.5882,-403.9616 203.075,-412.318 213.3777,-409.8472 209.5882,-403.9616"/>
<text text-anchor="middle" x="249.4277" y="-392.5" font-family="Helvetica,sans-Serif" font-size="10.00" fill="#000000"> host</text>
</g>
<!-- Node3 -->
<g id="node3" class="node">
<title>Node3</title>
<g id="a_node3"><a xlink:href="struct__pktout__t.html" target="_top" xlink:title="The structure of an outgoing packet. ">
<polygon fill="#ffffff" stroke="#000000" points="159.0044,-375.5 159.0044,-393.5 216.147,-393.5 216.147,-375.5 159.0044,-375.5"/>
<text text-anchor="middle" x="187.5757" y="-381.5" font-family="Helvetica,sans-Serif" font-size="10.00" fill="#000000">_pktout_t</text>
</a>
</g>
</g>
<!-- Node3&#45;&gt;Node1 -->
<g id="edge2" class="edge">
<title>Node3&#45;&gt;Node1</title>
<path fill="none" stroke="#9a32cd" stroke-dasharray="5,2" d="M211.5118,-369.92C213.1897,-368.7888 214.8401,-367.6421 216.418,-366.5 252.7162,-340.2276 292.6007,-305.03 310.7535,-288.6275"/>
<polygon fill="#9a32cd" stroke="#9a32cd" points="209.6013,-366.9873 203.1004,-375.3533 213.3995,-372.8673 209.6013,-366.9873"/>
<text text-anchor="middle" x="249.4277" y="-352.5" font-family="Helvetica,sans-Serif" font-size="10.00" fill="#000000"> pktout</text>
</g>
<!-- Node4 -->
<g id="node4" class="node">
<title>Node4</title>
<g id="a_node4"><a xlink:href="struct__action__t.html" target="_top" xlink:title="The structure of an action. ">
<polygon fill="#ffffff" stroke="#000000" points="14.1724,-409.5 14.1724,-427.5 70.7583,-427.5 70.7583,-409.5 14.1724,-409.5"/>
<text text-anchor="middle" x="42.4653" y="-415.5" font-family="Helvetica,sans-Serif" font-size="10.00" fill="#000000">_action_t</text>
</a>
</g>
</g>
<!-- Node4&#45;&gt;Node3 -->
<g id="edge3" class="edge">
<title>Node4&#45;&gt;Node3</title>
<path fill="none" stroke="#9a32cd" stroke-dasharray="5,2" d="M81.0574,-418.4982C99.4536,-417.61 121.5736,-415.234 140.7334,-409.5 152.5671,-405.9585 164.8465,-399.2748 173.8628,-393.7088"/>
<polygon fill="#9a32cd" stroke="#9a32cd" points="80.8546,-415.0031 70.9856,-418.857 81.1039,-421.9986 80.8546,-415.0031"/>
<text text-anchor="middle" x="121.832" y="-418.5" font-family="Helvetica,sans-Serif" font-size="10.00" fill="#000000"> action</text>
</g>
<!-- Node5 -->
<g id="node5" class="node">
<title>Node5</title>
<g id="a_node5"><a xlink:href="struct__flow__t.html" target="_top" xlink:title="The structure of a flow. ">
<polygon fill="#ffffff" stroke="#000000" points="163.7334,-290.5 163.7334,-308.5 211.418,-308.5 211.418,-290.5 163.7334,-290.5"/>
<text text-anchor="middle" x="187.5757" y="-296.5" font-family="Helvetica,sans-Serif" font-size="10.00" fill="#000000">_flow_t</text>
</a>
</g>
</g>
<!-- Node4&#45;&gt;Node5 -->
<g id="edge7" class="edge">
<title>Node4&#45;&gt;Node5</title>
<path fill="none" stroke="#9a32cd" stroke-dasharray="5,2" d="M73.2522,-405.0653C93.7632,-395.1741 120.5539,-380.3676 140.7334,-362.5 159.1012,-346.2365 174.7974,-321.6973 182.4982,-308.5605"/>
<polygon fill="#9a32cd" stroke="#9a32cd" points="71.6001,-401.9742 64.0309,-409.3875 74.5711,-408.3125 71.6001,-401.9742"/>
<text text-anchor="middle" x="121.832" y="-389.5" font-family="Helvetica,sans-Serif" font-size="10.00" fill="#000000"> action</text>
</g>
<!-- Node5&#45;&gt;Node1 -->
<g id="edge4" class="edge">
<title>Node5&#45;&gt;Node1</title>
<path fill="none" stroke="#9a32cd" stroke-dasharray="5,2" d="M221.7205,-294.3719C240.1908,-291.5979 263.0684,-288.162 282.1792,-285.2918"/>
<polygon fill="#9a32cd" stroke="#9a32cd" points="221.0605,-290.9317 211.6912,-295.8782 222.1002,-297.854 221.0605,-290.9317"/>
<text text-anchor="middle" x="249.4277" y="-293.5" font-family="Helvetica,sans-Serif" font-size="10.00" fill="#000000"> flow</text>
</g>
<!-- Node5&#45;&gt;Node5 -->
<g id="edge8" class="edge">
<title>Node5&#45;&gt;Node5</title>
<path fill="none" stroke="#9a32cd" stroke-dasharray="5,2" d="M176.4732,-318.6053C177.2336,-323.4062 180.9344,-327 187.5757,-327 198.4741,-327 201.4542,-317.322 196.5158,-308.5134"/>
<polygon fill="#9a32cd" stroke="#9a32cd" points="179.9627,-319.0248 178.6356,-308.5134 173.118,-317.5582 179.9627,-319.0248"/>
<text text-anchor="middle" x="187.5757" y="-349" font-family="Helvetica,sans-Serif" font-size="10.00" fill="#000000"> r_next</text>
<text text-anchor="middle" x="187.5757" y="-339" font-family="Helvetica,sans-Serif" font-size="10.00" fill="#000000">prev</text>
<text text-anchor="middle" x="187.5757" y="-329" font-family="Helvetica,sans-Serif" font-size="10.00" fill="#000000">next</text>
</g>
<!-- Node6 -->
<g id="node6" class="node">
<title>Node6</title>
<g id="a_node6"><a xlink:href="struct__pkt__info__t.html" target="_top" xlink:title="The structure of a packet. ">
<polygon fill="#ffffff" stroke="#000000" points="10.0024,-235.5 10.0024,-253.5 74.9282,-253.5 74.9282,-235.5 10.0024,-235.5"/>
<text text-anchor="middle" x="42.4653" y="-241.5" font-family="Helvetica,sans-Serif" font-size="10.00" fill="#000000">_pkt_info_t</text>
</a>
</g>
</g>
<!-- Node6&#45;&gt;Node5 -->
<g id="edge5" class="edge">
<title>Node6&#45;&gt;Node5</title>
<path fill="none" stroke="#9a32cd" stroke-dasharray="5,2" d="M85.003,-254.1837C102.5903,-258.8089 122.9791,-264.9887 140.7334,-272.5 152.3174,-277.4008 164.6085,-284.5687 173.6927,-290.2876"/>
<polygon fill="#9a32cd" stroke="#9a32cd" points="85.567,-250.7157 75.0127,-251.6418 83.8408,-257.4996 85.567,-250.7157"/>
<text text-anchor="middle" x="121.832" y="-284.5" font-family="Helvetica,sans-Serif" font-size="10.00" fill="#000000"> pkt_info</text>
<text text-anchor="middle" x="121.832" y="-274.5" font-family="Helvetica,sans-Serif" font-size="10.00" fill="#000000">match</text>
</g>
<!-- Node10 -->
<g id="node10" class="node">
<title>Node10</title>
<g id="a_node10"><a xlink:href="struct__pktin__t.html" target="_top" xlink:title="The structure of an incoming packet. ">
<polygon fill="#ffffff" stroke="#000000" points="162.0635,-234.5 162.0635,-252.5 213.0879,-252.5 213.0879,-234.5 162.0635,-234.5"/>
<text text-anchor="middle" x="187.5757" y="-240.5" font-family="Helvetica,sans-Serif" font-size="10.00" fill="#000000">_pktin_t</text>
</a>
</g>
</g>
<!-- Node6&#45;&gt;Node10 -->
<g id="edge12" class="edge">
<title>Node6&#45;&gt;Node10</title>
<path fill="none" stroke="#9a32cd" stroke-dasharray="5,2" d="M73.7285,-232.0544C82.9795,-228.9501 93.2307,-226.0626 102.9307,-224.5 119.518,-221.8279 124.2431,-221.2829 140.7334,-224.5 150.725,-226.4493 161.2795,-230.5331 169.8353,-234.4169"/>
<polygon fill="#9a32cd" stroke="#9a32cd" points="72.4071,-228.8095 64.1561,-235.4557 74.7508,-235.4055 72.4071,-228.8095"/>
<text text-anchor="middle" x="121.832" y="-226.5" font-family="Helvetica,sans-Serif" font-size="10.00" fill="#000000"> pkt_info</text>
</g>
<!-- Node7 -->
<g id="node7" class="node">
<title>Node7</title>
<g id="a_node7"><a xlink:href="struct__flow__meta__t.html" target="_top" xlink:title="The structure of flow metadata. ">
<polygon fill="#ffffff" stroke="#000000" points="4.7266,-360.5 4.7266,-378.5 80.2041,-378.5 80.2041,-360.5 4.7266,-360.5"/>
<text text-anchor="middle" x="42.4653" y="-366.5" font-family="Helvetica,sans-Serif" font-size="10.00" fill="#000000">_flow_meta_t</text>
</a>
</g>
</g>
<!-- Node7&#45;&gt;Node5 -->
<g id="edge6" class="edge">
<title>Node7&#45;&gt;Node5</title>
<path fill="none" stroke="#9a32cd" stroke-dasharray="5,2" d="M82.0631,-357.165C100.3876,-350.8134 122.1604,-342.3332 140.7334,-332.5 153.5692,-325.7043 166.9999,-315.9265 176.172,-308.7784"/>
<polygon fill="#9a32cd" stroke="#9a32cd" points="80.9083,-353.8608 72.5558,-360.3789 83.15,-360.4921 80.9083,-353.8608"/>
<text text-anchor="middle" x="121.832" y="-350.5" font-family="Helvetica,sans-Serif" font-size="10.00" fill="#000000"> meta</text>
</g>
<!-- Node8 -->
<g id="node8" class="node">
<title>Node8</title>
<g id="a_node8"><a xlink:href="struct__flow__stat__t.html" target="_top" xlink:title="The structure of flow statistics. ">
<polygon fill="#ffffff" stroke="#000000" points="7.7832,-323.5 7.7832,-341.5 77.1475,-341.5 77.1475,-323.5 7.7832,-323.5"/>
<text text-anchor="middle" x="42.4653" y="-329.5" font-family="Helvetica,sans-Serif" font-size="10.00" fill="#000000">_flow_stat_t</text>
</a>
</g>
</g>
<!-- Node8&#45;&gt;Node5 -->
<g id="edge9" class="edge">
<title>Node8&#45;&gt;Node5</title>
<path fill="none" stroke="#9a32cd" stroke-dasharray="5,2" d="M87.5637,-322.5068C104.2742,-318.7767 123.3762,-314.4808 140.7334,-310.5 148.0613,-308.8194 156.0264,-306.9609 163.2748,-305.2573"/>
<polygon fill="#9a32cd" stroke="#9a32cd" points="86.5044,-319.1569 77.5051,-324.7482 88.0269,-325.9893 86.5044,-319.1569"/>
<text text-anchor="middle" x="121.832" y="-320.5" font-family="Helvetica,sans-Serif" font-size="10.00" fill="#000000"> stat</text>
</g>
<!-- Node9 -->
<g id="node9" class="node">
<title>Node9</title>
<g id="a_node9"><a xlink:href="struct__flow__info__t.html" target="_top" xlink:title="The structure of flow information. ">
<polygon fill="#ffffff" stroke="#000000" points="7.7808,-286.5 7.7808,-304.5 77.1499,-304.5 77.1499,-286.5 7.7808,-286.5"/>
<text text-anchor="middle" x="42.4653" y="-292.5" font-family="Helvetica,sans-Serif" font-size="10.00" fill="#000000">_flow_info_t</text>
</a>
</g>
</g>
<!-- Node9&#45;&gt;Node5 -->
<g id="edge10" class="edge">
<title>Node9&#45;&gt;Node5</title>
<path fill="none" stroke="#9a32cd" stroke-dasharray="5,2" d="M87.2857,-296.7355C112.4477,-297.4291 142.8484,-298.2671 163.5361,-298.8373"/>
<polygon fill="#9a32cd" stroke="#9a32cd" points="87.3156,-293.2351 77.2229,-296.4581 87.1226,-300.2324 87.3156,-293.2351"/>
<text text-anchor="middle" x="121.832" y="-299.5" font-family="Helvetica,sans-Serif" font-size="10.00" fill="#000000"> info</text>
</g>
<!-- Node10&#45;&gt;Node1 -->
<g id="edge11" class="edge">
<title>Node10&#45;&gt;Node1</title>
<path fill="none" stroke="#9a32cd" stroke-dasharray="5,2" d="M223.1429,-253.1151C242.9814,-258.4782 267.5504,-265.1201 287.0745,-270.3982"/>
<polygon fill="#9a32cd" stroke="#9a32cd" points="223.8185,-249.6722 213.2516,-250.4412 221.9917,-256.4296 223.8185,-249.6722"/>
<text text-anchor="middle" x="249.4277" y="-265.5" font-family="Helvetica,sans-Serif" font-size="10.00" fill="#000000"> pktin</text>
</g>
<!-- Node11 -->
<g id="node11" class="node">
<title>Node11</title>
<g id="a_node11"><a xlink:href="struct__port__t.html" target="_top" xlink:title="The structure of a port. ">
<polygon fill="#ffffff" stroke="#000000" points="164.0093,-165.5 164.0093,-183.5 211.1421,-183.5 211.1421,-165.5 164.0093,-165.5"/>
<text text-anchor="middle" x="187.5757" y="-171.5" font-family="Helvetica,sans-Serif" font-size="10.00" fill="#000000">_port_t</text>
</a>
</g>
</g>
<!-- Node11&#45;&gt;Node1 -->
<g id="edge13" class="edge">
<title>Node11&#45;&gt;Node1</title>
<path fill="none" stroke="#9a32cd" stroke-dasharray="5,2" d="M207.3575,-190.0976C235.5417,-212.3204 286.3589,-252.3889 309.1416,-270.3528"/>
<polygon fill="#9a32cd" stroke="#9a32cd" points="209.4131,-187.2613 199.3934,-183.818 205.0789,-192.7582 209.4131,-187.2613"/>
<text text-anchor="middle" x="249.4277" y="-234.5" font-family="Helvetica,sans-Serif" font-size="10.00" fill="#000000"> port</text>
</g>
<!-- Node12 -->
<g id="node12" class="node">
<title>Node12</title>
<g id="a_node12"><a xlink:href="struct__port__link__t.html" target="_top" xlink:title="The structure of a link. ">
<polygon fill="#ffffff" stroke="#000000" points="8.6157,-148.5 8.6157,-166.5 76.3149,-166.5 76.3149,-148.5 8.6157,-148.5"/>
<text text-anchor="middle" x="42.4653" y="-154.5" font-family="Helvetica,sans-Serif" font-size="10.00" fill="#000000">_port_link_t</text>
</a>
</g>
</g>
<!-- Node12&#45;&gt;Node11 -->
<g id="edge14" class="edge">
<title>Node12&#45;&gt;Node11</title>
<path fill="none" stroke="#9a32cd" stroke-dasharray="5,2" d="M86.5913,-154.9723C103.6182,-154.7724 123.1866,-155.4941 140.7334,-158.5 149.0343,-159.922 157.8443,-162.6 165.5572,-165.364"/>
<polygon fill="#9a32cd" stroke="#9a32cd" points="86.2772,-151.4784 76.3589,-155.2036 86.4355,-158.4766 86.2772,-151.4784"/>
<text text-anchor="middle" x="121.832" y="-160.5" font-family="Helvetica,sans-Serif" font-size="10.00" fill="#000000"> link</text>
</g>
<!-- Node13 -->
<g id="node13" class="node">
<title>Node13</title>
<g id="a_node13"><a xlink:href="struct__port__info__t.html" target="_top" xlink:title="The structure of port information. ">
<polygon fill="#ffffff" stroke="#000000" points="8.0566,-111.5 8.0566,-129.5 76.874,-129.5 76.874,-111.5 8.0566,-111.5"/>
<text text-anchor="middle" x="42.4653" y="-117.5" font-family="Helvetica,sans-Serif" font-size="10.00" fill="#000000">_port_info_t</text>
</a>
</g>
</g>
<!-- Node13&#45;&gt;Node11 -->
<g id="edge15" class="edge">
<title>Node13&#45;&gt;Node11</title>
<path fill="none" stroke="#9a32cd" stroke-dasharray="5,2" d="M87.5572,-125.541C104.7052,-128.5125 124.104,-133.1868 140.7334,-140.5 154.7152,-146.6489 168.6073,-157.4823 177.5872,-165.2696"/>
<polygon fill="#9a32cd" stroke="#9a32cd" points="87.6405,-122.0106 77.216,-123.9025 86.545,-128.9244 87.6405,-122.0106"/>
<text text-anchor="middle" x="121.832" y="-142.5" font-family="Helvetica,sans-Serif" font-size="10.00" fill="#000000"> info</text>
</g>
<!-- Node14 -->
<g id="node14" class="node">
<title>Node14</title>
<g id="a_node14"><a xlink:href="struct__port__stat__t.html" target="_top" xlink:title="The structure of port statistics. ">
<polygon fill="#ffffff" stroke="#000000" points="8.0591,-185.5 8.0591,-203.5 76.8716,-203.5 76.8716,-185.5 8.0591,-185.5"/>
<text text-anchor="middle" x="42.4653" y="-191.5" font-family="Helvetica,sans-Serif" font-size="10.00" fill="#000000">_port_stat_t</text>
</a>
</g>
</g>
<!-- Node14&#45;&gt;Node11 -->
<g id="edge16" class="edge">
<title>Node14&#45;&gt;Node11</title>
<path fill="none" stroke="#9a32cd" stroke-dasharray="5,2" d="M87.3511,-188.3136C112.6805,-184.8225 143.3015,-180.6021 163.9787,-177.7523"/>
<polygon fill="#9a32cd" stroke="#9a32cd" points="86.6513,-184.8768 77.2229,-189.7095 87.6071,-191.8113 86.6513,-184.8768"/>
<text text-anchor="middle" x="121.832" y="-187.5" font-family="Helvetica,sans-Serif" font-size="10.00" fill="#000000"> stat</text>
</g>
<!-- Node15 -->
<g id="node15" class="node">
<title>Node15</title>
<g id="a_node15"><a xlink:href="struct__switch__t.html" target="_top" xlink:title="The structure of a switch. ">
<polygon fill="#ffffff" stroke="#000000" points="158.7334,-56.5 158.7334,-74.5 216.418,-74.5 216.418,-56.5 158.7334,-56.5"/>
<text text-anchor="middle" x="187.5757" y="-62.5" font-family="Helvetica,sans-Serif" font-size="10.00" fill="#000000">_switch_t</text>
</a>
</g>
</g>
<!-- Node15&#45;&gt;Node1 -->
<g id="edge17" class="edge">
<title>Node15&#45;&gt;Node1</title>
<path fill="none" stroke="#9a32cd" stroke-dasharray="5,2" d="M198.6884,-83.3581C225.763,-126.8671 294.4169,-237.1944 314.892,-270.0979"/>
<polygon fill="#9a32cd" stroke="#9a32cd" points="201.5527,-81.3365 193.2977,-74.6953 195.6095,-85.0349 201.5527,-81.3365"/>
<text text-anchor="middle" x="249.4277" y="-186.5" font-family="Helvetica,sans-Serif" font-size="10.00" fill="#000000"> sw</text>
</g>
<!-- Node16 -->
<g id="node16" class="node">
<title>Node16</title>
<g id="a_node16"><a xlink:href="struct__switch__stat__t.html" target="_top" xlink:title="The structure of switch statistics. ">
<polygon fill="#ffffff" stroke="#000000" points="2.7832,-37.5 2.7832,-55.5 82.1475,-55.5 82.1475,-37.5 2.7832,-37.5"/>
<text text-anchor="middle" x="42.4653" y="-43.5" font-family="Helvetica,sans-Serif" font-size="10.00" fill="#000000">_switch_stat_t</text>
</a>
</g>
</g>
<!-- Node16&#45;&gt;Node15 -->
<g id="edge18" class="edge">
<title>Node16&#45;&gt;Node15</title>
<path fill="none" stroke="#9a32cd" stroke-dasharray="5,2" d="M92.2119,-50.7004C107.7839,-52.2462 125.0057,-54.1935 140.7334,-56.5 146.5507,-57.3531 152.7444,-58.4253 158.6581,-59.5294"/>
<polygon fill="#9a32cd" stroke="#9a32cd" points="92.5384,-47.2157 82.2494,-49.7428 91.8686,-54.1836 92.5384,-47.2157"/>
<text text-anchor="middle" x="121.832" y="-58.5" font-family="Helvetica,sans-Serif" font-size="10.00" fill="#000000"> stat</text>
</g>
<!-- Node17 -->
<g id="node17" class="node">
<title>Node17</title>
<g id="a_node17"><a xlink:href="struct__switch__desc__t.html" target="_top" xlink:title="The structure of a set of switch descriptions. ">
<polygon fill="#ffffff" stroke="#000000" points=".2808,-.5 .2808,-18.5 84.6499,-18.5 84.6499,-.5 .2808,-.5"/>
<text text-anchor="middle" x="42.4653" y="-6.5" font-family="Helvetica,sans-Serif" font-size="10.00" fill="#000000">_switch_desc_t</text>
</a>
</g>
</g>
<!-- Node17&#45;&gt;Node15 -->
<g id="edge19" class="edge">
<title>Node17&#45;&gt;Node15</title>
<path fill="none" stroke="#9a32cd" stroke-dasharray="5,2" d="M92.9869,-21.1772C108.5938,-25.5017 125.6406,-30.973 140.7334,-37.5 152.734,-42.6898 165.4083,-50.4208 174.5427,-56.4452"/>
<polygon fill="#9a32cd" stroke="#9a32cd" points="93.5385,-17.7019 82.9739,-18.5015 91.7313,-24.4646 93.5385,-17.7019"/>
<text text-anchor="middle" x="121.832" y="-39.5" font-family="Helvetica,sans-Serif" font-size="10.00" fill="#000000"> desc</text>
</g>
<!-- Node18 -->
<g id="node18" class="node">
<title>Node18</title>
<g id="a_node18"><a xlink:href="struct__switch__conn__t.html" target="_top" xlink:title="The structure of a switch connection. ">
<polygon fill="#ffffff" stroke="#000000" points="0,-74.5 0,-92.5 84.9307,-92.5 84.9307,-74.5 0,-74.5"/>
<text text-anchor="middle" x="42.4653" y="-80.5" font-family="Helvetica,sans-Serif" font-size="10.00" fill="#000000">_switch_conn_t</text>
</a>
</g>
</g>
<!-- Node18&#45;&gt;Node15 -->
<g id="edge20" class="edge">
<title>Node18&#45;&gt;Node15</title>
<path fill="none" stroke="#9a32cd" stroke-dasharray="5,2" d="M95.4303,-76.93C116.7021,-74.2914 140.4023,-71.3516 158.4395,-69.1142"/>
<polygon fill="#9a32cd" stroke="#9a32cd" points="94.7114,-73.4923 85.2184,-78.1968 95.5732,-80.4391 94.7114,-73.4923"/>
<text text-anchor="middle" x="121.832" y="-77.5" font-family="Helvetica,sans-Serif" font-size="10.00" fill="#000000"> conn</text>
</g>
</g>
</svg>
