<?xml version="1.0" encoding="UTF-8" standalone="no"?>
<!DOCTYPE svg PUBLIC "-//W3C//DTD SVG 1.1//EN"
 "http://www.w3.org/Graphics/SVG/1.1/DTD/svg11.dtd">
<!-- Generated by graphviz version 2.40.1 (20161225.0304)
 -->
<!-- Title: _event_t Pages: 1 -->
<svg width="368pt" height="479pt"
 viewBox="0.00 0.00 367.59 479.00" xmlns="http://www.w3.org/2000/svg" xmlns:xlink="http://www.w3.org/1999/xlink">
<g id="graph0" class="graph" transform="scale(1 1) rotate(0) translate(4 475)">
<title>_event_t</title>
<polygon fill="#ffffff" stroke="transparent" points="-4,4 -4,-475 363.5898,-475 363.5898,4 -4,4"/>
<!-- Node1 -->
<g id="node1" class="node">
<title>Node1</title>
<polygon fill="#bfbfbf" stroke="#000000" points="305.2256,-256.5 305.2256,-274.5 359.5898,-274.5 359.5898,-256.5 305.2256,-256.5"/>
<text text-anchor="middle" x="332.4077" y="-262.5" font-family="Helvetica,sans-Serif" font-size="10.00" fill="#000000">_event_t</text>
</g>
<!-- Node2 -->
<g id="node2" class="node">
<title>Node2</title>
<g id="a_node2"><a xlink:href="struct__host__t.html" target="_top" xlink:title="The structure of a host. ">
<polygon fill="#ffffff" stroke="#000000" points="168.7358,-452.5 168.7358,-470.5 217.5386,-470.5 217.5386,-452.5 168.7358,-452.5"/>
<text text-anchor="middle" x="193.1372" y="-458.5" font-family="Helvetica,sans-Serif" font-size="10.00" fill="#000000">_host_t</text>
</a>
</g>
</g>
<!-- Node2&#45;&gt;Node1 -->
<g id="edge1" class="edge">
<title>Node2&#45;&gt;Node1</title>
<path fill="none" stroke="#9a32cd" stroke-dasharray="5,2" d="M224.9694,-448.1365C245.5712,-437.9395 271.4096,-421.9784 287.2256,-400.5 317.2683,-359.7015 328.1688,-297.6755 331.3196,-274.5813"/>
<polygon fill="#9a32cd" stroke="#9a32cd" points="223.4692,-444.9743 215.9271,-452.4152 226.4632,-451.3017 223.4692,-444.9743"/>
<text text-anchor="middle" x="266.3833" y="-437.5" font-family="Helvetica,sans-Serif" font-size="10.00" fill="#000000"> host</text>
</g>
<!-- Node3 -->
<g id="node3" class="node">
<title>Node3</title>
<g id="a_node3"><a xlink:href="struct__pktout__t.html" target="_top" xlink:title="The structure of an outgoing packet. ">
<polygon fill="#ffffff" stroke="#000000" points="164.5659,-415.5 164.5659,-433.5 221.7085,-433.5 221.7085,-415.5 164.5659,-415.5"/>
<text text-anchor="middle" x="193.1372" y="-421.5" font-family="Helvetica,sans-Serif" font-size="10.00" fill="#000000">_pktout_t</text>
</a>
</g>
</g>
<!-- Node3&#45;&gt;Node1 -->
<g id="edge2" class="edge">
<title>Node3&#45;&gt;Node1</title>
<path fill="none" stroke="#9a32cd" stroke-dasharray="5,2" d="M222.5486,-410.1453C224.2852,-408.9838 225.9646,-407.7667 227.541,-406.5 276.7675,-366.9442 314.9499,-299.1684 327.7631,-274.6721"/>
<polygon fill="#9a32cd" stroke="#9a32cd" points="220.4081,-407.346 213.6008,-415.4646 223.9851,-413.3631 220.4081,-407.346"/>
<text text-anchor="middle" x="266.3833" y="-388.5" font-family="Helvetica,sans-Serif" font-size="10.00" fill="#000000"> pktout</text>
</g>
<!-- Node4 -->
<g id="node4" class="node">
<title>Node4</title>
<g id="a_node4"><a xlink:href="struct__action__t.html" target="_top" xlink:title="The structure of an action. ">
<polygon fill="#ffffff" stroke="#000000" points="14.1724,-416.5 14.1724,-434.5 70.7583,-434.5 70.7583,-416.5 14.1724,-416.5"/>
<text text-anchor="middle" x="42.4653" y="-422.5" font-family="Helvetica,sans-Serif" font-size="10.00" fill="#000000">_action_t</text>
</a>
</g>
</g>
<!-- Node4&#45;&gt;Node3 -->
<g id="edge3" class="edge">
<title>Node4&#45;&gt;Node3</title>
<path fill="none" stroke="#9a32cd" stroke-dasharray="5,2" d="M81.0628,-425.2438C107.0559,-425.0713 140.7755,-424.8475 164.4118,-424.6906"/>
<polygon fill="#9a32cd" stroke="#9a32cd" points="80.7821,-421.7455 70.8056,-425.3119 80.8286,-428.7454 80.7821,-421.7455"/>
<text text-anchor="middle" x="121.832" y="-426.5" font-family="Helvetica,sans-Serif" font-size="10.00" fill="#000000"> action</text>
</g>
<!-- Node5 -->
<g id="node5" class="node">
<title>Node5</title>
<g id="a_node5"><a xlink:href="struct__flow__t.html" target="_top" xlink:title="The structure of a flow. ">
<polygon fill="#ffffff" stroke="#000000" points="169.2949,-330.5 169.2949,-348.5 216.9795,-348.5 216.9795,-330.5 169.2949,-330.5"/>
<text text-anchor="middle" x="193.1372" y="-336.5" font-family="Helvetica,sans-Serif" font-size="10.00" fill="#000000">_flow_t</text>
</a>
</g>
</g>
<!-- Node4&#45;&gt;Node5 -->
<g id="edge7" class="edge">
<title>Node4&#45;&gt;Node5</title>
<path fill="none" stroke="#9a32cd" stroke-dasharray="5,2" d="M70.7745,-411.8437C90.6534,-402.0048 117.6965,-388.1151 140.7334,-374.5 154.6728,-366.2616 170.0096,-355.8509 180.4691,-348.5331"/>
<polygon fill="#9a32cd" stroke="#9a32cd" points="69.0735,-408.7797 61.6402,-416.3294 72.1591,-415.063 69.0735,-408.7797"/>
<text text-anchor="middle" x="121.832" y="-396.5" font-family="Helvetica,sans-Serif" font-size="10.00" fill="#000000"> action</text>
</g>
<!-- Node5&#45;&gt;Node1 -->
<g id="edge4" class="edge">
<title>Node5&#45;&gt;Node1</title>
<path fill="none" stroke="#9a32cd" stroke-dasharray="5,2" d="M226.7669,-329.1386C245.2579,-322.747 268.2312,-313.6398 287.2256,-302.5 300.6938,-294.6012 314.3085,-282.8162 323.0195,-274.6789"/>
<polygon fill="#9a32cd" stroke="#9a32cd" points="225.6502,-325.8214 217.2806,-332.3176 227.8745,-332.4586 225.6502,-325.8214"/>
<text text-anchor="middle" x="266.3833" y="-323.5" font-family="Helvetica,sans-Serif" font-size="10.00" fill="#000000"> flow</text>
</g>
<!-- Node5&#45;&gt;Node5 -->
<g id="edge8" class="edge">
<title>Node5&#45;&gt;Node5</title>
<path fill="none" stroke="#9a32cd" stroke-dasharray="5,2" d="M180.1228,-358.2336C180.8523,-363.2195 185.1904,-367 193.1372,-367 205.8521,-367 209.3288,-357.322 203.5674,-348.5134"/>
<polygon fill="#9a32cd" stroke="#9a32cd" points="183.5201,-359.077 182.7071,-348.5134 176.7551,-357.2784 183.5201,-359.077"/>
<text text-anchor="middle" x="193.1372" y="-389" font-family="Helvetica,sans-Serif" font-size="10.00" fill="#000000"> r_next</text>
<text text-anchor="middle" x="193.1372" y="-379" font-family="Helvetica,sans-Serif" font-size="10.00" fill="#000000">prev</text>
<text text-anchor="middle" x="193.1372" y="-369" font-family="Helvetica,sans-Serif" font-size="10.00" fill="#000000">next</text>
</g>
<!-- Node6 -->
<g id="node6" class="node">
<title>Node6</title>
<g id="a_node6"><a xlink:href="struct__pkt__info__t.html" target="_top" xlink:title="The structure of a packet. ">
<polygon fill="#ffffff" stroke="#000000" points="10.0024,-240.5 10.0024,-258.5 74.9282,-258.5 74.9282,-240.5 10.0024,-240.5"/>
<text text-anchor="middle" x="42.4653" y="-246.5" font-family="Helvetica,sans-Serif" font-size="10.00" fill="#000000">_pkt_info_t</text>
</a>
</g>
</g>
<!-- Node6&#45;&gt;Node5 -->
<g id="edge5" class="edge">
<title>Node6&#45;&gt;Node5</title>
<path fill="none" stroke="#9a32cd" stroke-dasharray="5,2" d="M84.8604,-261.0813C103.5211,-267.731 124.777,-277.5857 140.7334,-291.5 152.4527,-301.7194 147.4222,-310.8307 158.7334,-321.5 162.3621,-324.9228 166.7677,-327.8709 171.1978,-330.3326"/>
<polygon fill="#9a32cd" stroke="#9a32cd" points="85.9745,-257.7635 75.3804,-257.8917 83.7422,-264.398 85.9745,-257.7635"/>
<text text-anchor="middle" x="121.832" y="-303.5" font-family="Helvetica,sans-Serif" font-size="10.00" fill="#000000"> pkt_info</text>
<text text-anchor="middle" x="121.832" y="-293.5" font-family="Helvetica,sans-Serif" font-size="10.00" fill="#000000">match</text>
</g>
<!-- Node13 -->
<g id="node13" class="node">
<title>Node13</title>
<g id="a_node13"><a xlink:href="struct__pktin__t.html" target="_top" xlink:title="The structure of an incoming packet. ">
<polygon fill="#ffffff" stroke="#000000" points="167.625,-293.5 167.625,-311.5 218.6494,-311.5 218.6494,-293.5 167.625,-293.5"/>
<text text-anchor="middle" x="193.1372" y="-299.5" font-family="Helvetica,sans-Serif" font-size="10.00" fill="#000000">_pktin_t</text>
</a>
</g>
</g>
<!-- Node6&#45;&gt;Node13 -->
<g id="edge15" class="edge">
<title>Node6&#45;&gt;Node13</title>
<path fill="none" stroke="#9a32cd" stroke-dasharray="5,2" d="M66.3445,-235.8669C87.7248,-225.6625 118.9703,-215.9073 140.7334,-231.5 160.9557,-245.9888 142.554,-265.6032 158.7334,-284.5 161.8023,-288.0844 165.7652,-291.0544 169.9038,-293.478"/>
<polygon fill="#9a32cd" stroke="#9a32cd" points="64.5962,-232.8297 57.2848,-240.4975 67.7821,-239.0628 64.5962,-232.8297"/>
<text text-anchor="middle" x="121.832" y="-233.5" font-family="Helvetica,sans-Serif" font-size="10.00" fill="#000000"> pkt_info</text>
</g>
<!-- Node7 -->
<g id="node7" class="node">
<title>Node7</title>
<g id="a_node7"><a xlink:href="struct__flow__meta__t.html" target="_top" xlink:title="The structure of flow metadata. ">
<polygon fill="#ffffff" stroke="#000000" points="4.7266,-367.5 4.7266,-385.5 80.2041,-385.5 80.2041,-367.5 4.7266,-367.5"/>
<text text-anchor="middle" x="42.4653" y="-373.5" font-family="Helvetica,sans-Serif" font-size="10.00" fill="#000000">_flow_meta_t</text>
</a>
</g>
</g>
<!-- Node7&#45;&gt;Node5 -->
<g id="edge6" class="edge">
<title>Node7&#45;&gt;Node5</title>
<path fill="none" stroke="#9a32cd" stroke-dasharray="5,2" d="M89.1349,-365.0395C115.5256,-358.5588 147.4323,-350.7236 168.8873,-345.455"/>
<polygon fill="#9a32cd" stroke="#9a32cd" points="88.2006,-361.6649 79.3238,-367.4488 89.87,-368.4629 88.2006,-361.6649"/>
<text text-anchor="middle" x="121.832" y="-362.5" font-family="Helvetica,sans-Serif" font-size="10.00" fill="#000000"> meta</text>
</g>
<!-- Node8 -->
<g id="node8" class="node">
<title>Node8</title>
<g id="a_node8"><a xlink:href="struct__flow__stat__t.html" target="_top" xlink:title="The structure of flow statistics. ">
<polygon fill="#ffffff" stroke="#000000" points="7.7832,-330.5 7.7832,-348.5 77.1475,-348.5 77.1475,-330.5 7.7832,-330.5"/>
<text text-anchor="middle" x="42.4653" y="-336.5" font-family="Helvetica,sans-Serif" font-size="10.00" fill="#000000">_flow_stat_t</text>
</a>
</g>
</g>
<!-- Node8&#45;&gt;Node5 -->
<g id="edge9" class="edge">
<title>Node8&#45;&gt;Node5</title>
<path fill="none" stroke="#9a32cd" stroke-dasharray="5,2" d="M87.7141,-339.5C114.4918,-339.5 147.338,-339.5 169.1796,-339.5"/>
<polygon fill="#9a32cd" stroke="#9a32cd" points="87.4112,-336.0001 77.4112,-339.5 87.4112,-343.0001 87.4112,-336.0001"/>
<text text-anchor="middle" x="121.832" y="-341.5" font-family="Helvetica,sans-Serif" font-size="10.00" fill="#000000"> stat</text>
</g>
<!-- Node9 -->
<g id="node9" class="node">
<title>Node9</title>
<g id="a_node9"><a xlink:href="struct__flow__info__t.html" target="_top" xlink:title="The structure of flow information. ">
<polygon fill="#ffffff" stroke="#000000" points="7.7808,-293.5 7.7808,-311.5 77.1499,-311.5 77.1499,-293.5 7.7808,-293.5"/>
<text text-anchor="middle" x="42.4653" y="-299.5" font-family="Helvetica,sans-Serif" font-size="10.00" fill="#000000">_flow_info_t</text>
</a>
</g>
</g>
<!-- Node9&#45;&gt;Node5 -->
<g id="edge10" class="edge">
<title>Node9&#45;&gt;Node5</title>
<path fill="none" stroke="#9a32cd" stroke-dasharray="5,2" d="M87.6126,-312.7565C104.3283,-316.6355 123.4212,-321.1626 140.7334,-325.5 150.0507,-327.8344 160.2625,-330.5311 169.1769,-332.9308"/>
<polygon fill="#9a32cd" stroke="#9a32cd" points="88.0802,-309.2724 77.549,-310.4324 86.505,-316.0929 88.0802,-309.2724"/>
<text text-anchor="middle" x="121.832" y="-327.5" font-family="Helvetica,sans-Serif" font-size="10.00" fill="#000000"> info</text>
</g>
<!-- Node10 -->
<g id="node10" class="node">
<title>Node10</title>
<g id="a_node10"><a xlink:href="struct__msg__t.html" target="_top" xlink:title="The structure of a message. ">
<polygon fill="#ffffff" stroke="#000000" points="168.7407,-256.5 168.7407,-274.5 217.5337,-274.5 217.5337,-256.5 168.7407,-256.5"/>
<text text-anchor="middle" x="193.1372" y="-262.5" font-family="Helvetica,sans-Serif" font-size="10.00" fill="#000000">_msg_t</text>
</a>
</g>
</g>
<!-- Node10&#45;&gt;Node1 -->
<g id="edge11" class="edge">
<title>Node10&#45;&gt;Node1</title>
<path fill="none" stroke="#9a32cd" stroke-dasharray="5,2" d="M227.7948,-265.5C251.7222,-265.5 283.0918,-265.5 305.2179,-265.5"/>
<polygon fill="#9a32cd" stroke="#9a32cd" points="227.7154,-262.0001 217.7154,-265.5 227.7154,-269.0001 227.7154,-262.0001"/>
<text text-anchor="middle" x="266.3833" y="-267.5" font-family="Helvetica,sans-Serif" font-size="10.00" fill="#000000"> msg</text>
</g>
<!-- Node11 -->
<g id="node11" class="node">
<title>Node11</title>
<g id="a_node11"><a xlink:href="struct__traffic__t.html" target="_top" xlink:title="The structure of traffic usage. ">
<polygon fill="#ffffff" stroke="#000000" points="165.9624,-219.5 165.9624,-237.5 220.312,-237.5 220.312,-219.5 165.9624,-219.5"/>
<text text-anchor="middle" x="193.1372" y="-225.5" font-family="Helvetica,sans-Serif" font-size="10.00" fill="#000000">_traffic_t</text>
</a>
</g>
</g>
<!-- Node11&#45;&gt;Node1 -->
<g id="edge12" class="edge">
<title>Node11&#45;&gt;Node1</title>
<path fill="none" stroke="#9a32cd" stroke-dasharray="5,2" d="M230.2,-237.0111C247.5785,-241.1421 268.5304,-246.3237 287.2256,-251.5 292.9239,-253.0777 298.9909,-254.8754 304.7684,-256.6445"/>
<polygon fill="#9a32cd" stroke="#9a32cd" points="230.961,-233.5946 220.4248,-234.7082 229.3558,-240.4081 230.961,-233.5946"/>
<text text-anchor="middle" x="266.3833" y="-253.5" font-family="Helvetica,sans-Serif" font-size="10.00" fill="#000000"> traffic</text>
</g>
<!-- Node12 -->
<g id="node12" class="node">
<title>Node12</title>
<g id="a_node12"><a xlink:href="struct__resource__t.html" target="_top" xlink:title="The structure of resource usage. ">
<polygon fill="#ffffff" stroke="#000000" points="158.7334,-182.5 158.7334,-200.5 227.541,-200.5 227.541,-182.5 158.7334,-182.5"/>
<text text-anchor="middle" x="193.1372" y="-188.5" font-family="Helvetica,sans-Serif" font-size="10.00" fill="#000000">_resource_t</text>
</a>
</g>
</g>
<!-- Node12&#45;&gt;Node1 -->
<g id="edge13" class="edge">
<title>Node12&#45;&gt;Node1</title>
<path fill="none" stroke="#9a32cd" stroke-dasharray="5,2" d="M235.7357,-203.7543C252.4019,-209.4546 271.3,-217.0807 287.2256,-226.5 301.3175,-234.8347 315.2255,-247.7372 323.8087,-256.3942"/>
<polygon fill="#9a32cd" stroke="#9a32cd" points="236.8131,-200.4243 226.2201,-200.6216 234.6241,-207.0732 236.8131,-200.4243"/>
<text text-anchor="middle" x="266.3833" y="-228.5" font-family="Helvetica,sans-Serif" font-size="10.00" fill="#000000"> resource</text>
</g>
<!-- Node13&#45;&gt;Node1 -->
<g id="edge14" class="edge">
<title>Node13&#45;&gt;Node1</title>
<path fill="none" stroke="#9a32cd" stroke-dasharray="5,2" d="M228.6329,-293.7167C246.2811,-289.2808 267.9131,-283.7401 287.2256,-278.5 293.055,-276.9183 299.2895,-275.1648 305.2079,-273.4709"/>
<polygon fill="#9a32cd" stroke="#9a32cd" points="227.6009,-290.3669 218.7499,-296.1901 229.3005,-297.1575 227.6009,-290.3669"/>
<text text-anchor="middle" x="266.3833" y="-290.5" font-family="Helvetica,sans-Serif" font-size="10.00" fill="#000000"> pktin</text>
</g>
<!-- Node14 -->
<g id="node14" class="node">
<title>Node14</title>
<g id="a_node14"><a xlink:href="struct__port__t.html" target="_top" xlink:title="The structure of a port. ">
<polygon fill="#ffffff" stroke="#000000" points="169.5708,-145.5 169.5708,-163.5 216.7036,-163.5 216.7036,-145.5 169.5708,-145.5"/>
<text text-anchor="middle" x="193.1372" y="-151.5" font-family="Helvetica,sans-Serif" font-size="10.00" fill="#000000">_port_t</text>
</a>
</g>
</g>
<!-- Node14&#45;&gt;Node1 -->
<g id="edge16" class="edge">
<title>Node14&#45;&gt;Node1</title>
<path fill="none" stroke="#9a32cd" stroke-dasharray="5,2" d="M226.571,-162.8387C245.8876,-168.9219 269.7446,-178.7262 287.2256,-193.5 308.1901,-211.2179 322.5419,-241.1978 328.823,-256.2683"/>
<polygon fill="#9a32cd" stroke="#9a32cd" points="227.5235,-159.4706 216.9415,-159.9901 225.5379,-166.183 227.5235,-159.4706"/>
<text text-anchor="middle" x="266.3833" y="-195.5" font-family="Helvetica,sans-Serif" font-size="10.00" fill="#000000"> port</text>
</g>
<!-- Node15 -->
<g id="node15" class="node">
<title>Node15</title>
<g id="a_node15"><a xlink:href="struct__port__link__t.html" target="_top" xlink:title="The structure of a link. ">
<polygon fill="#ffffff" stroke="#000000" points="8.6157,-148.5 8.6157,-166.5 76.3149,-166.5 76.3149,-148.5 8.6157,-148.5"/>
<text text-anchor="middle" x="42.4653" y="-154.5" font-family="Helvetica,sans-Serif" font-size="10.00" fill="#000000">_port_link_t</text>
</a>
</g>
</g>
<!-- Node15&#45;&gt;Node14 -->
<g id="edge17" class="edge">
<title>Node15&#45;&gt;Node14</title>
<path fill="none" stroke="#9a32cd" stroke-dasharray="5,2" d="M86.6674,-156.6199C113.7191,-156.0813 147.2701,-155.4133 169.3953,-154.9727"/>
<polygon fill="#9a32cd" stroke="#9a32cd" points="86.5834,-153.1208 76.6551,-156.8193 86.7228,-160.1194 86.5834,-153.1208"/>
<text text-anchor="middle" x="121.832" y="-157.5" font-family="Helvetica,sans-Serif" font-size="10.00" fill="#000000"> link</text>
</g>
<!-- Node16 -->
<g id="node16" class="node">
<title>Node16</title>
<g id="a_node16"><a xlink:href="struct__port__info__t.html" target="_top" xlink:title="The structure of port information. ">
<polygon fill="#ffffff" stroke="#000000" points="8.0566,-111.5 8.0566,-129.5 76.874,-129.5 76.874,-111.5 8.0566,-111.5"/>
<text text-anchor="middle" x="42.4653" y="-117.5" font-family="Helvetica,sans-Serif" font-size="10.00" fill="#000000">_port_info_t</text>
</a>
</g>
</g>
<!-- Node16&#45;&gt;Node14 -->
<g id="edge18" class="edge">
<title>Node16&#45;&gt;Node14</title>
<path fill="none" stroke="#9a32cd" stroke-dasharray="5,2" d="M87.2026,-129.7388C104.0147,-133.2952 123.2779,-137.4709 140.7334,-141.5 150.1409,-143.6715 160.4615,-146.2 169.4375,-148.4468"/>
<polygon fill="#9a32cd" stroke="#9a32cd" points="87.5959,-126.245 77.0895,-127.6114 86.1548,-133.0951 87.5959,-126.245"/>
<text text-anchor="middle" x="121.832" y="-143.5" font-family="Helvetica,sans-Serif" font-size="10.00" fill="#000000"> info</text>
</g>
<!-- Node17 -->
<g id="node17" class="node">
<title>Node17</title>
<g id="a_node17"><a xlink:href="struct__port__stat__t.html" target="_top" xlink:title="The structure of port statistics. ">
<polygon fill="#ffffff" stroke="#000000" points="8.0591,-185.5 8.0591,-203.5 76.8716,-203.5 76.8716,-185.5 8.0591,-185.5"/>
<text text-anchor="middle" x="42.4653" y="-191.5" font-family="Helvetica,sans-Serif" font-size="10.00" fill="#000000">_port_stat_t</text>
</a>
</g>
</g>
<!-- Node17&#45;&gt;Node14 -->
<g id="edge19" class="edge">
<title>Node17&#45;&gt;Node14</title>
<path fill="none" stroke="#9a32cd" stroke-dasharray="5,2" d="M87.2076,-183.415C104.0202,-179.1714 123.2825,-174.2163 140.7334,-169.5 150.143,-166.957 160.4639,-164.0321 169.4397,-161.4443"/>
<polygon fill="#9a32cd" stroke="#9a32cd" points="85.9393,-180.1248 77.094,-185.9567 87.6455,-186.9137 85.9393,-180.1248"/>
<text text-anchor="middle" x="121.832" y="-180.5" font-family="Helvetica,sans-Serif" font-size="10.00" fill="#000000"> stat</text>
</g>
<!-- Node18 -->
<g id="node18" class="node">
<title>Node18</title>
<g id="a_node18"><a xlink:href="struct__switch__t.html" target="_top" xlink:title="The structure of a switch. ">
<polygon fill="#ffffff" stroke="#000000" points="164.2949,-56.5 164.2949,-74.5 221.9795,-74.5 221.9795,-56.5 164.2949,-56.5"/>
<text text-anchor="middle" x="193.1372" y="-62.5" font-family="Helvetica,sans-Serif" font-size="10.00" fill="#000000">_switch_t</text>
</a>
</g>
</g>
<!-- Node18&#45;&gt;Node1 -->
<g id="edge20" class="edge">
<title>Node18&#45;&gt;Node1</title>
<path fill="none" stroke="#9a32cd" stroke-dasharray="5,2" d="M213.6397,-80.8422C234.5045,-97.3412 266.6248,-125.3018 287.2256,-155.5 310.2621,-189.2687 324.6922,-236.6041 330.0484,-256.3195"/>
<polygon fill="#9a32cd" stroke="#9a32cd" points="215.7638,-78.0603 205.7162,-74.6994 211.4749,-83.5925 215.7638,-78.0603"/>
<text text-anchor="middle" x="266.3833" y="-157.5" font-family="Helvetica,sans-Serif" font-size="10.00" fill="#000000"> sw</text>
</g>
<!-- Node19 -->
<g id="node19" class="node">
<title>Node19</title>
<g id="a_node19"><a xlink:href="struct__switch__stat__t.html" target="_top" xlink:title="The structure of switch statistics. ">
<polygon fill="#ffffff" stroke="#000000" points="2.7832,-37.5 2.7832,-55.5 82.1475,-55.5 82.1475,-37.5 2.7832,-37.5"/>
<text text-anchor="middle" x="42.4653" y="-43.5" font-family="Helvetica,sans-Serif" font-size="10.00" fill="#000000">_switch_stat_t</text>
</a>
</g>
</g>
<!-- Node19&#45;&gt;Node18 -->
<g id="edge21" class="edge">
<title>Node19&#45;&gt;Node18</title>
<path fill="none" stroke="#9a32cd" stroke-dasharray="5,2" d="M92.1533,-51.6709C107.7226,-53.3961 124.9578,-55.4137 140.7334,-57.5 148.3062,-58.5015 156.4771,-59.6945 164.0622,-60.8496"/>
<polygon fill="#9a32cd" stroke="#9a32cd" points="92.516,-48.1898 82.1947,-50.5817 91.7548,-55.1483 92.516,-48.1898"/>
<text text-anchor="middle" x="121.832" y="-59.5" font-family="Helvetica,sans-Serif" font-size="10.00" fill="#000000"> stat</text>
</g>
<!-- Node20 -->
<g id="node20" class="node">
<title>Node20</title>
<g id="a_node20"><a xlink:href="struct__switch__desc__t.html" target="_top" xlink:title="The structure of a set of switch descriptions. ">
<polygon fill="#ffffff" stroke="#000000" points=".2808,-.5 .2808,-18.5 84.6499,-18.5 84.6499,-.5 .2808,-.5"/>
<text text-anchor="middle" x="42.4653" y="-6.5" font-family="Helvetica,sans-Serif" font-size="10.00" fill="#000000">_switch_desc_t</text>
</a>
</g>
</g>
<!-- Node20&#45;&gt;Node18 -->
<g id="edge22" class="edge">
<title>Node20&#45;&gt;Node18</title>
<path fill="none" stroke="#9a32cd" stroke-dasharray="5,2" d="M88.9712,-21.2781C105.5418,-25.9825 124.1899,-31.8662 140.7334,-38.5 153.4623,-43.6042 167.2236,-50.7626 177.4489,-56.4262"/>
<polygon fill="#9a32cd" stroke="#9a32cd" points="89.531,-17.8015 78.9596,-18.5052 87.6625,-24.5475 89.531,-17.8015"/>
<text text-anchor="middle" x="121.832" y="-40.5" font-family="Helvetica,sans-Serif" font-size="10.00" fill="#000000"> desc</text>
</g>
<!-- Node21 -->
<g id="node21" class="node">
<title>Node21</title>
<g id="a_node21"><a xlink:href="struct__switch__conn__t.html" target="_top" xlink:title="The structure of a switch connection. ">
<polygon fill="#ffffff" stroke="#000000" points="0,-74.5 0,-92.5 84.9307,-92.5 84.9307,-74.5 0,-74.5"/>
<text text-anchor="middle" x="42.4653" y="-80.5" font-family="Helvetica,sans-Serif" font-size="10.00" fill="#000000">_switch_conn_t</text>
</a>
</g>
</g>
<!-- Node21&#45;&gt;Node18 -->
<g id="edge23" class="edge">
<title>Node21&#45;&gt;Node18</title>
<path fill="none" stroke="#9a32cd" stroke-dasharray="5,2" d="M95.2648,-77.1923C118.3821,-74.4306 144.6176,-71.2964 164.1029,-68.9686"/>
<polygon fill="#9a32cd" stroke="#9a32cd" points="94.753,-73.7285 85.2388,-78.3901 95.5834,-80.6791 94.753,-73.7285"/>
<text text-anchor="middle" x="121.832" y="-77.5" font-family="Helvetica,sans-Serif" font-size="10.00" fill="#000000"> conn</text>
</g>
</g>
</svg>
