<?xml version="1.0" encoding="UTF-8" standalone="no"?>
<!DOCTYPE svg PUBLIC "-//W3C//DTD SVG 1.1//EN"
 "http://www.w3.org/Graphics/SVG/1.1/DTD/svg11.dtd">
<!-- Generated by graphviz version 2.40.1 (20161225.0304)
 -->
<!-- Title: _mac_queue_t Pages: 1 -->
<svg width="136pt" height="113pt"
 viewBox="0.00 0.00 135.95 113.00" xmlns="http://www.w3.org/2000/svg" xmlns:xlink="http://www.w3.org/1999/xlink">
<g id="graph0" class="graph" transform="scale(1 1) rotate(0) translate(4 109)">
<title>_mac_queue_t</title>
<polygon fill="#ffffff" stroke="transparent" points="-4,4 -4,-109 131.9453,-109 131.9453,4 -4,4"/>
<!-- Node1 -->
<g id="node1" class="node">
<title>Node1</title>
<polygon fill="#bfbfbf" stroke="#000000" points="0,-.5 0,-18.5 82.1621,-18.5 82.1621,-.5 0,-.5"/>
<text text-anchor="middle" x="41.0811" y="-6.5" font-family="Helvetica,sans-Serif" font-size="10.00" fill="#000000">_mac_queue_t</text>
</g>
<!-- Node2 -->
<g id="node2" class="node">
<title>Node2</title>
<g id="a_node2"><a xlink:href="struct__mac__entry__t.html" target="_top" xlink:title="The structure of a MAC entry. ">
<polygon fill="#ffffff" stroke="#000000" points="2.7881,-81 2.7881,-99 79.374,-99 79.374,-81 2.7881,-81"/>
<text text-anchor="middle" x="41.0811" y="-87" font-family="Helvetica,sans-Serif" font-size="10.00" fill="#000000">_mac_entry_t</text>
</a>
</g>
</g>
<!-- Node2&#45;&gt;Node1 -->
<g id="edge1" class="edge">
<title>Node2&#45;&gt;Node1</title>
<path fill="none" stroke="#9a32cd" stroke-dasharray="5,2" d="M41.0811,-70.5894C41.0811,-54.1062 41.0811,-31.1843 41.0811,-18.6267"/>
<polygon fill="#9a32cd" stroke="#9a32cd" points="37.5812,-70.7656 41.0811,-80.7656 44.5812,-70.7657 37.5812,-70.7656"/>
<text text-anchor="middle" x="53.5933" y="-49" font-family="Helvetica,sans-Serif" font-size="10.00" fill="#000000"> head</text>
<text text-anchor="middle" x="53.5933" y="-39" font-family="Helvetica,sans-Serif" font-size="10.00" fill="#000000">tail</text>
</g>
<!-- Node2&#45;&gt;Node2 -->
<g id="edge2" class="edge">
<title>Node2&#45;&gt;Node2</title>
<path fill="none" stroke="#9a32cd" stroke-dasharray="5,2" d="M89.6228,-96.3945C94.3641,-95.1051 97.374,-92.9736 97.374,-90 97.374,-85.2422 89.6686,-82.6403 79.4949,-82.1942"/>
<polygon fill="#9a32cd" stroke="#9a32cd" points="88.9161,-92.959 79.4949,-97.8058 89.8823,-99.892 88.9161,-92.959"/>
<text text-anchor="middle" x="112.6597" y="-97" font-family="Helvetica,sans-Serif" font-size="10.00" fill="#000000"> r_next</text>
<text text-anchor="middle" x="112.6597" y="-87" font-family="Helvetica,sans-Serif" font-size="10.00" fill="#000000">prev</text>
<text text-anchor="middle" x="112.6597" y="-77" font-family="Helvetica,sans-Serif" font-size="10.00" fill="#000000">next</text>
</g>
</g>
</svg>
