<?xml version="1.0" encoding="UTF-8" standalone="no"?>
<!DOCTYPE svg PUBLIC "-//W3C//DTD SVG 1.1//EN"
 "http://www.w3.org/Graphics/SVG/1.1/DTD/svg11.dtd">
<!-- Generated by graphviz version 2.40.1 (20161225.0304)
 -->
<!-- Title: _rule_table_t Pages: 1 -->
<svg width="117pt" height="178pt"
 viewBox="0.00 0.00 117.32 178.00" xmlns="http://www.w3.org/2000/svg" xmlns:xlink="http://www.w3.org/1999/xlink">
<g id="graph0" class="graph" transform="scale(1 1) rotate(0) translate(4 174)">
<title>_rule_table_t</title>
<polygon fill="#ffffff" stroke="transparent" points="-4,4 -4,-174 113.3247,-174 113.3247,4 -4,4"/>
<!-- Node1 -->
<g id="node1" class="node">
<title>Node1</title>
<polygon fill="#bfbfbf" stroke="#000000" points="0,-.5 0,-18.5 73.8223,-18.5 73.8223,-.5 0,-.5"/>
<text text-anchor="middle" x="36.9111" y="-6.5" font-family="Helvetica,sans-Serif" font-size="10.00" fill="#000000">_rule_table_t</text>
</g>
<!-- Node2 -->
<g id="node2" class="node">
<title>Node2</title>
<g id="a_node2"><a xlink:href="struct__flow__t.html" target="_top" xlink:title="The structure of a flow. ">
<polygon fill="#ffffff" stroke="#000000" points="13.0688,-81 13.0688,-99 60.7534,-99 60.7534,-81 13.0688,-81"/>
<text text-anchor="middle" x="36.9111" y="-87" font-family="Helvetica,sans-Serif" font-size="10.00" fill="#000000">_flow_t</text>
</a>
</g>
</g>
<!-- Node2&#45;&gt;Node1 -->
<g id="edge1" class="edge">
<title>Node2&#45;&gt;Node1</title>
<path fill="none" stroke="#9a32cd" stroke-dasharray="5,2" d="M36.9111,-70.5894C36.9111,-54.1062 36.9111,-31.1843 36.9111,-18.6267"/>
<polygon fill="#9a32cd" stroke="#9a32cd" points="33.4112,-70.7656 36.9111,-80.7656 40.4112,-70.7657 33.4112,-70.7656"/>
<text text-anchor="middle" x="49.4233" y="-49" font-family="Helvetica,sans-Serif" font-size="10.00" fill="#000000"> head</text>
<text text-anchor="middle" x="49.4233" y="-39" font-family="Helvetica,sans-Serif" font-size="10.00" fill="#000000">tail</text>
</g>
<!-- Node2&#45;&gt;Node2 -->
<g id="edge3" class="edge">
<title>Node2&#45;&gt;Node2</title>
<path fill="none" stroke="#9a32cd" stroke-dasharray="5,2" d="M71.2065,-96.2867C75.7434,-95.2162 78.7534,-93.1207 78.7534,-90 78.7534,-84.8789 70.6475,-82.5184 60.9901,-82.9185"/>
<polygon fill="#9a32cd" stroke="#9a32cd" points="70.6884,-92.8163 60.9901,-97.0815 71.2314,-99.7952 70.6884,-92.8163"/>
<text text-anchor="middle" x="94.0391" y="-97" font-family="Helvetica,sans-Serif" font-size="10.00" fill="#000000"> r_next</text>
<text text-anchor="middle" x="94.0391" y="-87" font-family="Helvetica,sans-Serif" font-size="10.00" fill="#000000">prev</text>
<text text-anchor="middle" x="94.0391" y="-77" font-family="Helvetica,sans-Serif" font-size="10.00" fill="#000000">next</text>
</g>
<!-- Node3 -->
<g id="node3" class="node">
<title>Node3</title>
<g id="a_node3"><a xlink:href="struct__action__t.html" target="_top" xlink:title="The structure of an action. ">
<polygon fill="#ffffff" stroke="#000000" points="8.6182,-151.5 8.6182,-169.5 65.2041,-169.5 65.2041,-151.5 8.6182,-151.5"/>
<text text-anchor="middle" x="36.9111" y="-157.5" font-family="Helvetica,sans-Serif" font-size="10.00" fill="#000000">_action_t</text>
</a>
</g>
</g>
<!-- Node3&#45;&gt;Node2 -->
<g id="edge2" class="edge">
<title>Node3&#45;&gt;Node2</title>
<path fill="none" stroke="#9a32cd" stroke-dasharray="5,2" d="M36.9111,-141.0661C36.9111,-127.5192 36.9111,-110.0407 36.9111,-99.4439"/>
<polygon fill="#9a32cd" stroke="#9a32cd" points="33.4112,-141.2833 36.9111,-151.2834 40.4112,-141.2834 33.4112,-141.2833"/>
<text text-anchor="middle" x="51.6426" y="-125" font-family="Helvetica,sans-Serif" font-size="10.00" fill="#000000"> action</text>
</g>
</g>
</svg>
