<?xml version="1.0" encoding="UTF-8" standalone="no"?>
<!DOCTYPE svg PUBLIC "-//W3C//DTD SVG 1.1//EN"
 "http://www.w3.org/Graphics/SVG/1.1/DTD/svg11.dtd">
<!-- Generated by graphviz version 2.40.1 (20161225.0304)
 -->
<!-- Title: _host_table_t Pages: 1 -->
<svg width="119pt" height="113pt"
 viewBox="0.00 0.00 119.00 113.00" xmlns="http://www.w3.org/2000/svg" xmlns:xlink="http://www.w3.org/1999/xlink">
<g id="graph0" class="graph" transform="scale(1 1) rotate(0) translate(4 109)">
<title>_host_table_t</title>
<polygon fill="#ffffff" stroke="transparent" points="-4,4 -4,-109 114.9971,-109 114.9971,4 -4,4"/>
<!-- Node1 -->
<g id="node1" class="node">
<title>Node1</title>
<polygon fill="#bfbfbf" stroke="#000000" points="0,-.5 0,-18.5 76.0488,-18.5 76.0488,-.5 0,-.5"/>
<text text-anchor="middle" x="38.0244" y="-6.5" font-family="Helvetica,sans-Serif" font-size="10.00" fill="#000000">_host_table_t</text>
</g>
<!-- Node2 -->
<g id="node2" class="node">
<title>Node2</title>
<g id="a_node2"><a xlink:href="struct__host__t.html" target="_top" xlink:title="The structure of a host. ">
<polygon fill="#ffffff" stroke="#000000" points="13.623,-81 13.623,-99 62.4258,-99 62.4258,-81 13.623,-81"/>
<text text-anchor="middle" x="38.0244" y="-87" font-family="Helvetica,sans-Serif" font-size="10.00" fill="#000000">_host_t</text>
</a>
</g>
</g>
<!-- Node2&#45;&gt;Node1 -->
<g id="edge1" class="edge">
<title>Node2&#45;&gt;Node1</title>
<path fill="none" stroke="#9a32cd" stroke-dasharray="5,2" d="M38.0244,-70.5894C38.0244,-54.1062 38.0244,-31.1843 38.0244,-18.6267"/>
<polygon fill="#9a32cd" stroke="#9a32cd" points="34.5245,-70.7656 38.0244,-80.7656 41.5245,-70.7657 34.5245,-70.7656"/>
<text text-anchor="middle" x="50.5366" y="-49" font-family="Helvetica,sans-Serif" font-size="10.00" fill="#000000"> head</text>
<text text-anchor="middle" x="50.5366" y="-39" font-family="Helvetica,sans-Serif" font-size="10.00" fill="#000000">tail</text>
</g>
<!-- Node2&#45;&gt;Node2 -->
<g id="edge2" class="edge">
<title>Node2&#45;&gt;Node2</title>
<path fill="none" stroke="#9a32cd" stroke-dasharray="5,2" d="M72.9769,-96.8963C77.4633,-95.6979 80.4258,-93.3992 80.4258,-90 80.4258,-84.4219 72.4479,-81.8071 62.8496,-82.1558"/>
<polygon fill="#9a32cd" stroke="#9a32cd" points="72.4798,-93.4274 62.8496,-97.8442 73.1323,-100.3969 72.4798,-93.4274"/>
<text text-anchor="middle" x="95.7114" y="-97" font-family="Helvetica,sans-Serif" font-size="10.00" fill="#000000"> r_next</text>
<text text-anchor="middle" x="95.7114" y="-87" font-family="Helvetica,sans-Serif" font-size="10.00" fill="#000000">prev</text>
<text text-anchor="middle" x="95.7114" y="-77" font-family="Helvetica,sans-Serif" font-size="10.00" fill="#000000">next</text>
</g>
</g>
</svg>
