<?xml version="1.0" encoding="UTF-8" standalone="no"?>
<!DOCTYPE svg PUBLIC "-//W3C//DTD SVG 1.1//EN"
 "http://www.w3.org/Graphics/SVG/1.1/DTD/svg11.dtd">
<!-- Generated by graphviz version 2.40.1 (20161225.0304)
 -->
<!-- Title: arg_struct Pages: 1 -->
<svg width="332pt" height="168pt"
 viewBox="0.00 0.00 331.82 168.00" xmlns="http://www.w3.org/2000/svg" xmlns:xlink="http://www.w3.org/1999/xlink">
<g id="graph0" class="graph" transform="scale(1 1) rotate(0) translate(4 164)">
<title>arg_struct</title>
<polygon fill="#ffffff" stroke="transparent" points="-4,4 -4,-164 327.8174,-164 327.8174,4 -4,4"/>
<!-- Node1 -->
<g id="node1" class="node">
<title>Node1</title>
<polygon fill="#bfbfbf" stroke="#000000" points="84.1108,-.5 84.1108,-18.5 144.5737,-18.5 144.5737,-.5 84.1108,-.5"/>
<text text-anchor="middle" x="114.3423" y="-6.5" font-family="Helvetica,sans-Serif" font-size="10.00" fill="#000000">arg_struct</text>
</g>
<!-- Node2 -->
<g id="node2" class="node">
<title>Node2</title>
<g id="a_node2"><a xlink:href="structcli__def.html" target="_top" xlink:title="cli_def">
<polygon fill="#ffffff" stroke="#000000" points="91.8892,-65.5 91.8892,-83.5 136.7954,-83.5 136.7954,-65.5 91.8892,-65.5"/>
<text text-anchor="middle" x="114.3423" y="-71.5" font-family="Helvetica,sans-Serif" font-size="10.00" fill="#000000">cli_def</text>
</a>
</g>
</g>
<!-- Node2&#45;&gt;Node1 -->
<g id="edge1" class="edge">
<title>Node2&#45;&gt;Node1</title>
<path fill="none" stroke="#9a32cd" stroke-dasharray="5,2" d="M114.3423,-55.1265C114.3423,-43.1522 114.3423,-28.3205 114.3423,-18.8821"/>
<polygon fill="#9a32cd" stroke="#9a32cd" points="110.8424,-55.462 114.3423,-65.462 117.8424,-55.4621 110.8424,-55.462"/>
<text text-anchor="middle" x="120.4531" y="-39" font-family="Helvetica,sans-Serif" font-size="10.00" fill="#000000"> cli</text>
</g>
<!-- Node3 -->
<g id="node3" class="node">
<title>Node3</title>
<g id="a_node3"><a xlink:href="structunp.html" target="_top" xlink:title="unp">
<polygon fill="#ffffff" stroke="#000000" points="0,-136 0,-154 32.6846,-154 32.6846,-136 0,-136"/>
<text text-anchor="middle" x="16.3423" y="-142" font-family="Helvetica,sans-Serif" font-size="10.00" fill="#000000">unp</text>
</a>
</g>
</g>
<!-- Node3&#45;&gt;Node2 -->
<g id="edge2" class="edge">
<title>Node3&#45;&gt;Node2</title>
<path fill="none" stroke="#9a32cd" stroke-dasharray="5,2" d="M37.4104,-129.8439C56.899,-115.824 85.2386,-95.4368 101.5274,-83.7189"/>
<polygon fill="#9a32cd" stroke="#9a32cd" points="35.2279,-127.1023 29.1541,-135.7834 39.3157,-132.7847 35.2279,-127.1023"/>
<text text-anchor="middle" x="87.958" y="-104" font-family="Helvetica,sans-Serif" font-size="10.00" fill="#000000"> users</text>
</g>
<!-- Node3&#45;&gt;Node3 -->
<g id="edge3" class="edge">
<title>Node3&#45;&gt;Node3</title>
<path fill="none" stroke="#9a32cd" stroke-dasharray="5,2" d="M42.972,-151.6532C47.5276,-150.7454 50.6846,-148.5277 50.6846,-145 50.6846,-139.2109 42.1828,-136.9496 32.9505,-138.2159"/>
<polygon fill="#9a32cd" stroke="#9a32cd" points="42.9039,-148.1537 32.9505,-151.7841 42.9954,-155.1531 42.9039,-148.1537"/>
<text text-anchor="middle" x="61.5244" y="-142" font-family="Helvetica,sans-Serif" font-size="10.00" fill="#000000"> next</text>
</g>
<!-- Node4 -->
<g id="node4" class="node">
<title>Node4</title>
<g id="a_node4"><a xlink:href="structcli__filter.html" target="_top" xlink:title="cli_filter">
<polygon fill="#ffffff" stroke="#000000" points="89.394,-136 89.394,-154 139.2905,-154 139.2905,-136 89.394,-136"/>
<text text-anchor="middle" x="114.3423" y="-142" font-family="Helvetica,sans-Serif" font-size="10.00" fill="#000000">cli_filter</text>
</a>
</g>
</g>
<!-- Node4&#45;&gt;Node2 -->
<g id="edge4" class="edge">
<title>Node4&#45;&gt;Node2</title>
<path fill="none" stroke="#9a32cd" stroke-dasharray="5,2" d="M114.3423,-125.5661C114.3423,-112.0192 114.3423,-94.5407 114.3423,-83.9439"/>
<polygon fill="#9a32cd" stroke="#9a32cd" points="110.8424,-125.7833 114.3423,-135.7834 117.8424,-125.7834 110.8424,-125.7833"/>
<text text-anchor="middle" x="127.6772" y="-104" font-family="Helvetica,sans-Serif" font-size="10.00" fill="#000000"> filters</text>
</g>
<!-- Node4&#45;&gt;Node4 -->
<g id="edge5" class="edge">
<title>Node4&#45;&gt;Node4</title>
<path fill="none" stroke="#9a32cd" stroke-dasharray="5,2" d="M149.7456,-151.2395C154.2898,-150.1553 157.2905,-148.0754 157.2905,-145 157.2905,-139.9531 149.2098,-137.5874 139.4876,-137.9028"/>
<polygon fill="#9a32cd" stroke="#9a32cd" points="149.1612,-147.776 139.4876,-152.0972 149.7445,-154.7517 149.1612,-147.776"/>
<text text-anchor="middle" x="168.1304" y="-142" font-family="Helvetica,sans-Serif" font-size="10.00" fill="#000000"> next</text>
</g>
<!-- Node5 -->
<g id="node5" class="node">
<title>Node5</title>
<g id="a_node5"><a xlink:href="structcli__command.html" target="_top" xlink:title="cli_command">
<polygon fill="#ffffff" stroke="#000000" points="195.8867,-136 195.8867,-154 270.7979,-154 270.7979,-136 195.8867,-136"/>
<text text-anchor="middle" x="233.3423" y="-142" font-family="Helvetica,sans-Serif" font-size="10.00" fill="#000000">cli_command</text>
</a>
</g>
</g>
<!-- Node5&#45;&gt;Node2 -->
<g id="edge6" class="edge">
<title>Node5&#45;&gt;Node2</title>
<path fill="none" stroke="#9a32cd" stroke-dasharray="5,2" d="M209.0282,-130.5954C185.3397,-116.5615 150.0388,-95.648 129.9033,-83.7189"/>
<polygon fill="#9a32cd" stroke="#9a32cd" points="207.3976,-133.6975 217.7851,-135.7834 210.9656,-127.675 207.3976,-133.6975"/>
<text text-anchor="middle" x="203.1846" y="-104" font-family="Helvetica,sans-Serif" font-size="10.00" fill="#000000"> commands</text>
</g>
<!-- Node5&#45;&gt;Node5 -->
<g id="edge7" class="edge">
<title>Node5&#45;&gt;Node5</title>
<path fill="none" stroke="#9a32cd" stroke-dasharray="5,2" d="M281.0408,-150.8155C285.7813,-149.6521 288.7979,-147.7136 288.7979,-145 288.7979,-140.6582 281.0756,-138.3007 270.925,-137.9276"/>
<polygon fill="#9a32cd" stroke="#9a32cd" points="280.4171,-147.366 270.925,-152.0724 281.2803,-154.3125 280.4171,-147.366"/>
<text text-anchor="middle" x="306.3076" y="-152" font-family="Helvetica,sans-Serif" font-size="10.00" fill="#000000"> next</text>
<text text-anchor="middle" x="306.3076" y="-142" font-family="Helvetica,sans-Serif" font-size="10.00" fill="#000000">parent</text>
<text text-anchor="middle" x="306.3076" y="-132" font-family="Helvetica,sans-Serif" font-size="10.00" fill="#000000">children</text>
</g>
</g>
</svg>
