<?xml version="1.0" encoding="UTF-8" standalone="no"?>
<!DOCTYPE svg PUBLIC "-//W3C//DTD SVG 1.1//EN"
 "http://www.w3.org/Graphics/SVG/1.1/DTD/svg11.dtd">
<!-- Generated by graphviz version 2.40.1 (20161225.0304)
 -->
<!-- Title: _switch_t Pages: 1 -->
<svg width="293pt" height="92pt"
 viewBox="0.00 0.00 293.15 92.00" xmlns="http://www.w3.org/2000/svg" xmlns:xlink="http://www.w3.org/1999/xlink">
<g id="graph0" class="graph" transform="scale(1 1) rotate(0) translate(4 88)">
<title>_switch_t</title>
<polygon fill="#ffffff" stroke="transparent" points="-4,4 -4,-88 289.1475,-88 289.1475,4 -4,4"/>
<!-- Node1 -->
<g id="node1" class="node">
<title>Node1</title>
<polygon fill="#bfbfbf" stroke="#000000" points="110.8398,-.5 110.8398,-18.5 168.5244,-18.5 168.5244,-.5 110.8398,-.5"/>
<text text-anchor="middle" x="139.6821" y="-6.5" font-family="Helvetica,sans-Serif" font-size="10.00" fill="#000000">_switch_t</text>
</g>
<!-- Node2 -->
<g id="node2" class="node">
<title>Node2</title>
<g id="a_node2"><a xlink:href="struct__switch__stat__t.html" target="_top" xlink:title="The structure of switch statistics. ">
<polygon fill="#ffffff" stroke="#000000" points="0,-65.5 0,-83.5 79.3643,-83.5 79.3643,-65.5 0,-65.5"/>
<text text-anchor="middle" x="39.6821" y="-71.5" font-family="Helvetica,sans-Serif" font-size="10.00" fill="#000000">_switch_stat_t</text>
</a>
</g>
</g>
<!-- Node2&#45;&gt;Node1 -->
<g id="edge1" class="edge">
<title>Node2&#45;&gt;Node1</title>
<path fill="none" stroke="#9a32cd" stroke-dasharray="5,2" d="M62.1378,-59.9038C81.5737,-47.2705 109.0812,-29.3906 125.5733,-18.6708"/>
<polygon fill="#9a32cd" stroke="#9a32cd" points="60.0637,-57.0775 53.5867,-65.462 63.8786,-62.9467 60.0637,-57.0775"/>
<text text-anchor="middle" x="105.1304" y="-39" font-family="Helvetica,sans-Serif" font-size="10.00" fill="#000000"> stat</text>
</g>
<!-- Node3 -->
<g id="node3" class="node">
<title>Node3</title>
<g id="a_node3"><a xlink:href="struct__switch__desc__t.html" target="_top" xlink:title="The structure of a set of switch descriptions. ">
<polygon fill="#ffffff" stroke="#000000" points="97.4976,-65.5 97.4976,-83.5 181.8667,-83.5 181.8667,-65.5 97.4976,-65.5"/>
<text text-anchor="middle" x="139.6821" y="-71.5" font-family="Helvetica,sans-Serif" font-size="10.00" fill="#000000">_switch_desc_t</text>
</a>
</g>
</g>
<!-- Node3&#45;&gt;Node1 -->
<g id="edge2" class="edge">
<title>Node3&#45;&gt;Node1</title>
<path fill="none" stroke="#9a32cd" stroke-dasharray="5,2" d="M139.6821,-55.1265C139.6821,-43.1522 139.6821,-28.3205 139.6821,-18.8821"/>
<polygon fill="#9a32cd" stroke="#9a32cd" points="136.1822,-55.462 139.6821,-65.462 143.1822,-55.4621 136.1822,-55.462"/>
<text text-anchor="middle" x="151.6328" y="-39" font-family="Helvetica,sans-Serif" font-size="10.00" fill="#000000"> desc</text>
</g>
<!-- Node4 -->
<g id="node4" class="node">
<title>Node4</title>
<g id="a_node4"><a xlink:href="struct__switch__conn__t.html" target="_top" xlink:title="The structure of a switch connection. ">
<polygon fill="#ffffff" stroke="#000000" points="200.2168,-65.5 200.2168,-83.5 285.1475,-83.5 285.1475,-65.5 200.2168,-65.5"/>
<text text-anchor="middle" x="242.6821" y="-71.5" font-family="Helvetica,sans-Serif" font-size="10.00" fill="#000000">_switch_conn_t</text>
</a>
</g>
</g>
<!-- Node4&#45;&gt;Node1 -->
<g id="edge3" class="edge">
<title>Node4&#45;&gt;Node1</title>
<path fill="none" stroke="#9a32cd" stroke-dasharray="5,2" d="M219.824,-60.075C199.7904,-47.4324 171.278,-29.4391 154.2142,-18.6708"/>
<polygon fill="#9a32cd" stroke="#9a32cd" points="218.0357,-63.085 228.3604,-65.462 221.7715,-57.1652 218.0357,-63.085"/>
<text text-anchor="middle" x="208.9136" y="-39" font-family="Helvetica,sans-Serif" font-size="10.00" fill="#000000"> conn</text>
</g>
</g>
</svg>
