<?xml version="1.0" encoding="UTF-8" standalone="no"?>
<!DOCTYPE svg PUBLIC "-//W3C//DTD SVG 1.1//EN"
 "http://www.w3.org/Graphics/SVG/1.1/DTD/svg11.dtd">
<!-- Generated by graphviz version 2.40.1 (20161225.0304)
 -->
<!-- Title: _sw_queue_t Pages: 1 -->
<svg width="115pt" height="103pt"
 viewBox="0.00 0.00 114.82 103.00" xmlns="http://www.w3.org/2000/svg" xmlns:xlink="http://www.w3.org/1999/xlink">
<g id="graph0" class="graph" transform="scale(1 1) rotate(0) translate(4 99)">
<title>_sw_queue_t</title>
<polygon fill="#ffffff" stroke="transparent" points="-4,4 -4,-99 110.8198,-99 110.8198,4 -4,4"/>
<!-- Node1 -->
<g id="node1" class="node">
<title>Node1</title>
<polygon fill="#bfbfbf" stroke="#000000" points="0,-.5 0,-18.5 75.4922,-18.5 75.4922,-.5 0,-.5"/>
<text text-anchor="middle" x="37.7461" y="-6.5" font-family="Helvetica,sans-Serif" font-size="10.00" fill="#000000">_sw_queue_t</text>
</g>
<!-- Node2 -->
<g id="node2" class="node">
<title>Node2</title>
<g id="a_node2"><a xlink:href="struct__switch__t.html" target="_top" xlink:title="The structure of a switch. ">
<polygon fill="#ffffff" stroke="#000000" points="8.9038,-76 8.9038,-94 66.5884,-94 66.5884,-76 8.9038,-76"/>
<text text-anchor="middle" x="37.7461" y="-82" font-family="Helvetica,sans-Serif" font-size="10.00" fill="#000000">_switch_t</text>
</a>
</g>
</g>
<!-- Node2&#45;&gt;Node1 -->
<g id="edge1" class="edge">
<title>Node2&#45;&gt;Node1</title>
<path fill="none" stroke="#9a32cd" stroke-dasharray="5,2" d="M37.7461,-65.4786C37.7461,-50.4756 37.7461,-30.4177 37.7461,-18.8335"/>
<polygon fill="#9a32cd" stroke="#9a32cd" points="34.2462,-65.7422 37.7461,-75.7422 41.2462,-65.7423 34.2462,-65.7422"/>
<text text-anchor="middle" x="50.2583" y="-49" font-family="Helvetica,sans-Serif" font-size="10.00" fill="#000000"> head</text>
<text text-anchor="middle" x="50.2583" y="-39" font-family="Helvetica,sans-Serif" font-size="10.00" fill="#000000">tail</text>
</g>
<!-- Node2&#45;&gt;Node2 -->
<g id="edge2" class="edge">
<title>Node2&#45;&gt;Node2</title>
<path fill="none" stroke="#9a32cd" stroke-dasharray="5,2" d="M77.2162,-91.0378C81.6893,-89.9071 84.5884,-87.8945 84.5884,-85 84.5884,-80.25 76.7813,-77.875 67.0225,-77.875"/>
<polygon fill="#9a32cd" stroke="#9a32cd" points="76.5949,-87.5841 67.0225,-92.125 77.3373,-94.5447 76.5949,-87.5841"/>
<text text-anchor="middle" x="95.7041" y="-87" font-family="Helvetica,sans-Serif" font-size="10.00" fill="#000000"> prev</text>
<text text-anchor="middle" x="95.7041" y="-77" font-family="Helvetica,sans-Serif" font-size="10.00" fill="#000000">next</text>
</g>
</g>
</svg>
