<?xml version="1.0" encoding="UTF-8" standalone="no"?>
<!DOCTYPE svg PUBLIC "-//W3C//DTD SVG 1.1//EN"
 "http://www.w3.org/Graphics/SVG/1.1/DTD/svg11.dtd">
<!-- Generated by graphviz version 2.40.1 (20161225.0304)
 -->
<!-- Title: _app_t Pages: 1 -->
<svg width="525pt" height="588pt"
 viewBox="0.00 0.00 524.66 588.00" xmlns="http://www.w3.org/2000/svg" xmlns:xlink="http://www.w3.org/1999/xlink">
<g id="graph0" class="graph" transform="scale(1 1) rotate(0) translate(4 584)">
<title>_app_t</title>
<polygon fill="#ffffff" stroke="transparent" points="-4,4 -4,-584 520.6631,-584 520.6631,4 -4,4"/>
<!-- Node1 -->
<g id="node1" class="node">
<title>Node1</title>
<polygon fill="#bfbfbf" stroke="#000000" points="470.0771,-113.5 470.0771,-131.5 516.6631,-131.5 516.6631,-113.5 470.0771,-113.5"/>
<text text-anchor="middle" x="493.3701" y="-119.5" font-family="Helvetica,sans-Serif" font-size="10.00" fill="#000000">_app_t</text>
</g>
<!-- Node2 -->
<g id="node2" class="node">
<title>Node2</title>
<g id="a_node2"><a xlink:href="struct__app__event__t.html" target="_top" xlink:title="The structure of an app event (read&#45;only) ">
<polygon fill="#ffffff" stroke="#000000" points="321.3291,-347.5 321.3291,-365.5 397.9395,-365.5 397.9395,-347.5 321.3291,-347.5"/>
<text text-anchor="middle" x="359.6343" y="-353.5" font-family="Helvetica,sans-Serif" font-size="10.00" fill="#000000">_app_event_t</text>
</a>
</g>
</g>
<!-- Node2&#45;&gt;Node1 -->
<g id="edge1" class="edge">
<title>Node2&#45;&gt;Node1</title>
<path fill="none" stroke="#9a32cd" stroke-dasharray="5,2" d="M369.887,-338.5606C396.7095,-291.6288 468.2533,-166.4473 488.1638,-131.6097"/>
<polygon fill="#9a32cd" stroke="#9a32cd" points="366.8002,-336.9081 364.8769,-347.3269 372.8777,-340.3815 366.8002,-336.9081"/>
<text text-anchor="middle" x="434.0083" y="-255.5" font-family="Helvetica,sans-Serif" font-size="10.00" fill="#000000"> handler</text>
</g>
<!-- Node3 -->
<g id="node3" class="node">
<title>Node3</title>
<g id="a_node3"><a xlink:href="struct__host__t.html" target="_top" xlink:title="The structure of a host. ">
<polygon fill="#ffffff" stroke="#000000" points="171.7876,-526.5 171.7876,-544.5 220.5903,-544.5 220.5903,-526.5 171.7876,-526.5"/>
<text text-anchor="middle" x="196.189" y="-532.5" font-family="Helvetica,sans-Serif" font-size="10.00" fill="#000000">_host_t</text>
</a>
</g>
</g>
<!-- Node3&#45;&gt;Node2 -->
<g id="edge2" class="edge">
<title>Node3&#45;&gt;Node2</title>
<path fill="none" stroke="#9a32cd" stroke-dasharray="5,2" d="M230.3276,-525.1633C253.4836,-516.6541 283.3944,-502.5335 303.3291,-481.5 336.7296,-446.2584 352.6524,-387.8069 357.7429,-365.515"/>
<polygon fill="#9a32cd" stroke="#9a32cd" points="229.151,-521.8668 220.8659,-528.4704 231.4607,-528.4748 229.151,-521.8668"/>
<text text-anchor="middle" x="277.4868" y="-517.5" font-family="Helvetica,sans-Serif" font-size="10.00" fill="#000000"> host</text>
</g>
<!-- Node4 -->
<g id="node4" class="node">
<title>Node4</title>
<g id="a_node4"><a xlink:href="struct__pktout__t.html" target="_top" xlink:title="The structure of an outgoing packet. ">
<polygon fill="#ffffff" stroke="#000000" points="167.6177,-281.5 167.6177,-299.5 224.7603,-299.5 224.7603,-281.5 167.6177,-281.5"/>
<text text-anchor="middle" x="196.189" y="-287.5" font-family="Helvetica,sans-Serif" font-size="10.00" fill="#000000">_pktout_t</text>
</a>
</g>
</g>
<!-- Node4&#45;&gt;Node2 -->
<g id="edge3" class="edge">
<title>Node4&#45;&gt;Node2</title>
<path fill="none" stroke="#9a32cd" stroke-dasharray="5,2" d="M227.9704,-303.3335C260.1146,-316.3135 308.9775,-336.0446 337.2593,-347.4649"/>
<polygon fill="#9a32cd" stroke="#9a32cd" points="229.1557,-300.0376 218.5726,-299.5386 226.5347,-306.5284 229.1557,-300.0376"/>
<text text-anchor="middle" x="277.4868" y="-334.5" font-family="Helvetica,sans-Serif" font-size="10.00" fill="#000000"> pktout</text>
</g>
<!-- Node5 -->
<g id="node5" class="node">
<title>Node5</title>
<g id="a_node5"><a xlink:href="struct__action__t.html" target="_top" xlink:title="The structure of an action. ">
<polygon fill="#ffffff" stroke="#000000" points="14.1724,-262.5 14.1724,-280.5 70.7583,-280.5 70.7583,-262.5 14.1724,-262.5"/>
<text text-anchor="middle" x="42.4653" y="-268.5" font-family="Helvetica,sans-Serif" font-size="10.00" fill="#000000">_action_t</text>
</a>
</g>
</g>
<!-- Node5&#45;&gt;Node4 -->
<g id="edge4" class="edge">
<title>Node5&#45;&gt;Node4</title>
<path fill="none" stroke="#9a32cd" stroke-dasharray="5,2" d="M79.0049,-259.9369C97.6968,-255.7079 120.6765,-253.1283 140.7334,-258.5 157.2687,-262.9285 173.9781,-273.6091 184.6683,-281.4171"/>
<polygon fill="#9a32cd" stroke="#9a32cd" points="77.9573,-256.5911 69.1074,-262.416 79.6581,-263.3813 77.9573,-256.5911"/>
<text text-anchor="middle" x="121.832" y="-260.5" font-family="Helvetica,sans-Serif" font-size="10.00" fill="#000000"> action</text>
</g>
<!-- Node6 -->
<g id="node6" class="node">
<title>Node6</title>
<g id="a_node6"><a xlink:href="struct__flow__t.html" target="_top" xlink:title="The structure of a flow. ">
<polygon fill="#ffffff" stroke="#000000" points="172.3467,-347.5 172.3467,-365.5 220.0313,-365.5 220.0313,-347.5 172.3467,-347.5"/>
<text text-anchor="middle" x="196.189" y="-353.5" font-family="Helvetica,sans-Serif" font-size="10.00" fill="#000000">_flow_t</text>
</a>
</g>
</g>
<!-- Node5&#45;&gt;Node6 -->
<g id="edge8" class="edge">
<title>Node5&#45;&gt;Node6</title>
<path fill="none" stroke="#9a32cd" stroke-dasharray="5,2" d="M73.4345,-284.8267C93.1012,-293.6496 118.8748,-305.8847 140.7334,-318.5 156.3005,-327.4842 173.2065,-339.4107 184.2072,-347.4883"/>
<polygon fill="#9a32cd" stroke="#9a32cd" points="74.5983,-281.5141 64.0378,-280.6616 71.7617,-287.9137 74.5983,-281.5141"/>
<text text-anchor="middle" x="121.832" y="-320.5" font-family="Helvetica,sans-Serif" font-size="10.00" fill="#000000"> action</text>
</g>
<!-- Node6&#45;&gt;Node2 -->
<g id="edge5" class="edge">
<title>Node6&#45;&gt;Node2</title>
<path fill="none" stroke="#9a32cd" stroke-dasharray="5,2" d="M230.6271,-356.5C257.1111,-356.5 293.695,-356.5 321.1425,-356.5"/>
<polygon fill="#9a32cd" stroke="#9a32cd" points="230.3059,-353.0001 220.3059,-356.5 230.3058,-360.0001 230.3059,-353.0001"/>
<text text-anchor="middle" x="277.4868" y="-358.5" font-family="Helvetica,sans-Serif" font-size="10.00" fill="#000000"> flow</text>
</g>
<!-- Node6&#45;&gt;Node6 -->
<g id="edge9" class="edge">
<title>Node6&#45;&gt;Node6</title>
<path fill="none" stroke="#9a32cd" stroke-dasharray="5,2" d="M182.4309,-375.2336C183.2021,-380.2195 187.7881,-384 196.189,-384 209.6304,-384 213.3058,-374.322 207.2151,-365.5134"/>
<polygon fill="#9a32cd" stroke="#9a32cd" points="185.8265,-376.0875 185.1628,-365.5134 179.0876,-374.1934 185.8265,-376.0875"/>
<text text-anchor="middle" x="196.189" y="-406" font-family="Helvetica,sans-Serif" font-size="10.00" fill="#000000"> r_next</text>
<text text-anchor="middle" x="196.189" y="-396" font-family="Helvetica,sans-Serif" font-size="10.00" fill="#000000">prev</text>
<text text-anchor="middle" x="196.189" y="-386" font-family="Helvetica,sans-Serif" font-size="10.00" fill="#000000">next</text>
</g>
<!-- Node7 -->
<g id="node7" class="node">
<title>Node7</title>
<g id="a_node7"><a xlink:href="struct__pkt__info__t.html" target="_top" xlink:title="The structure of a packet. ">
<polygon fill="#ffffff" stroke="#000000" points="10.0024,-434.5 10.0024,-452.5 74.9282,-452.5 74.9282,-434.5 10.0024,-434.5"/>
<text text-anchor="middle" x="42.4653" y="-440.5" font-family="Helvetica,sans-Serif" font-size="10.00" fill="#000000">_pkt_info_t</text>
</a>
</g>
</g>
<!-- Node7&#45;&gt;Node6 -->
<g id="edge6" class="edge">
<title>Node7&#45;&gt;Node6</title>
<path fill="none" stroke="#9a32cd" stroke-dasharray="5,2" d="M69.9079,-429.6897C89.7869,-419.5142 117.1916,-405.1313 140.7334,-391.5 155.118,-383.171 171.1324,-372.9583 182.239,-365.7195"/>
<polygon fill="#9a32cd" stroke="#9a32cd" points="68.127,-426.6689 60.8036,-434.3252 71.3031,-432.9069 68.127,-426.6689"/>
<text text-anchor="middle" x="121.832" y="-423.5" font-family="Helvetica,sans-Serif" font-size="10.00" fill="#000000"> pkt_info</text>
<text text-anchor="middle" x="121.832" y="-413.5" font-family="Helvetica,sans-Serif" font-size="10.00" fill="#000000">match</text>
</g>
<!-- Node11 -->
<g id="node11" class="node">
<title>Node11</title>
<g id="a_node11"><a xlink:href="struct__pktin__t.html" target="_top" xlink:title="The structure of an incoming packet. ">
<polygon fill="#ffffff" stroke="#000000" points="170.6768,-442.5 170.6768,-460.5 221.7012,-460.5 221.7012,-442.5 170.6768,-442.5"/>
<text text-anchor="middle" x="196.189" y="-448.5" font-family="Helvetica,sans-Serif" font-size="10.00" fill="#000000">_pktin_t</text>
</a>
</g>
</g>
<!-- Node7&#45;&gt;Node11 -->
<g id="edge13" class="edge">
<title>Node7&#45;&gt;Node11</title>
<path fill="none" stroke="#9a32cd" stroke-dasharray="5,2" d="M85.142,-445.721C112.4569,-447.1425 147.0054,-448.9404 170.2531,-450.1503"/>
<polygon fill="#9a32cd" stroke="#9a32cd" points="85.2346,-442.2211 75.0662,-445.1966 84.8707,-449.2117 85.2346,-442.2211"/>
<text text-anchor="middle" x="121.832" y="-449.5" font-family="Helvetica,sans-Serif" font-size="10.00" fill="#000000"> pkt_info</text>
</g>
<!-- Node8 -->
<g id="node8" class="node">
<title>Node8</title>
<g id="a_node8"><a xlink:href="struct__flow__meta__t.html" target="_top" xlink:title="The structure of flow metadata. ">
<polygon fill="#ffffff" stroke="#000000" points="4.7266,-310.5 4.7266,-328.5 80.2041,-328.5 80.2041,-310.5 4.7266,-310.5"/>
<text text-anchor="middle" x="42.4653" y="-316.5" font-family="Helvetica,sans-Serif" font-size="10.00" fill="#000000">_flow_meta_t</text>
</a>
</g>
</g>
<!-- Node8&#45;&gt;Node6 -->
<g id="edge7" class="edge">
<title>Node8&#45;&gt;Node6</title>
<path fill="none" stroke="#9a32cd" stroke-dasharray="5,2" d="M90.0428,-330.4602C106.152,-334.2178 124.2377,-338.4877 140.7334,-342.5 151.0572,-345.0111 162.439,-347.8689 172.1907,-350.3448"/>
<polygon fill="#9a32cd" stroke="#9a32cd" points="90.8329,-327.0506 80.2999,-328.1936 89.2467,-333.8685 90.8329,-327.0506"/>
<text text-anchor="middle" x="121.832" y="-344.5" font-family="Helvetica,sans-Serif" font-size="10.00" fill="#000000"> meta</text>
</g>
<!-- Node9 -->
<g id="node9" class="node">
<title>Node9</title>
<g id="a_node9"><a xlink:href="struct__flow__stat__t.html" target="_top" xlink:title="The structure of flow statistics. ">
<polygon fill="#ffffff" stroke="#000000" points="7.7832,-384.5 7.7832,-402.5 77.1475,-402.5 77.1475,-384.5 7.7832,-384.5"/>
<text text-anchor="middle" x="42.4653" y="-390.5" font-family="Helvetica,sans-Serif" font-size="10.00" fill="#000000">_flow_stat_t</text>
</a>
</g>
</g>
<!-- Node9&#45;&gt;Node6 -->
<g id="edge10" class="edge">
<title>Node9&#45;&gt;Node6</title>
<path fill="none" stroke="#9a32cd" stroke-dasharray="5,2" d="M87.1983,-382.7331C114.8605,-376.0751 149.2934,-367.7874 171.9661,-362.3302"/>
<polygon fill="#9a32cd" stroke="#9a32cd" points="86.2509,-379.3611 77.3476,-385.1041 87.889,-386.1668 86.2509,-379.3611"/>
<text text-anchor="middle" x="121.832" y="-379.5" font-family="Helvetica,sans-Serif" font-size="10.00" fill="#000000"> stat</text>
</g>
<!-- Node10 -->
<g id="node10" class="node">
<title>Node10</title>
<g id="a_node10"><a xlink:href="struct__flow__info__t.html" target="_top" xlink:title="The structure of flow information. ">
<polygon fill="#ffffff" stroke="#000000" points="7.7808,-347.5 7.7808,-365.5 77.1499,-365.5 77.1499,-347.5 7.7808,-347.5"/>
<text text-anchor="middle" x="42.4653" y="-353.5" font-family="Helvetica,sans-Serif" font-size="10.00" fill="#000000">_flow_info_t</text>
</a>
</g>
</g>
<!-- Node10&#45;&gt;Node6 -->
<g id="edge11" class="edge">
<title>Node10&#45;&gt;Node6</title>
<path fill="none" stroke="#9a32cd" stroke-dasharray="5,2" d="M87.5627,-356.5C115.1623,-356.5 149.3929,-356.5 171.9661,-356.5"/>
<polygon fill="#9a32cd" stroke="#9a32cd" points="87.3476,-353.0001 77.3476,-356.5 87.3476,-360.0001 87.3476,-353.0001"/>
<text text-anchor="middle" x="121.832" y="-358.5" font-family="Helvetica,sans-Serif" font-size="10.00" fill="#000000"> info</text>
</g>
<!-- Node11&#45;&gt;Node2 -->
<g id="edge12" class="edge">
<title>Node11&#45;&gt;Node2</title>
<path fill="none" stroke="#9a32cd" stroke-dasharray="5,2" d="M220.6939,-437.2569C254.6737,-417.5067 315.1429,-382.3599 343.7697,-365.721"/>
<polygon fill="#9a32cd" stroke="#9a32cd" points="218.7477,-434.3398 211.8608,-442.391 222.2653,-440.3918 218.7477,-434.3398"/>
<text text-anchor="middle" x="277.4868" y="-419.5" font-family="Helvetica,sans-Serif" font-size="10.00" fill="#000000"> pktin</text>
</g>
<!-- Node12 -->
<g id="node12" class="node">
<title>Node12</title>
<g id="a_node12"><a xlink:href="struct__port__t.html" target="_top" xlink:title="The structure of a port. ">
<polygon fill="#ffffff" stroke="#000000" points="172.6226,-215.5 172.6226,-233.5 219.7554,-233.5 219.7554,-215.5 172.6226,-215.5"/>
<text text-anchor="middle" x="196.189" y="-221.5" font-family="Helvetica,sans-Serif" font-size="10.00" fill="#000000">_port_t</text>
</a>
</g>
</g>
<!-- Node12&#45;&gt;Node2 -->
<g id="edge14" class="edge">
<title>Node12&#45;&gt;Node2</title>
<path fill="none" stroke="#9a32cd" stroke-dasharray="5,2" d="M219.5063,-239.0681C241.824,-253.4109 276.0344,-276.457 303.3291,-299.5 321.6103,-314.9335 340.7432,-335.359 351.3309,-347.1015"/>
<polygon fill="#9a32cd" stroke="#9a32cd" points="221.3234,-236.0759 211.0081,-233.6582 217.5643,-241.9809 221.3234,-236.0759"/>
<text text-anchor="middle" x="277.4868" y="-301.5" font-family="Helvetica,sans-Serif" font-size="10.00" fill="#000000"> port</text>
</g>
<!-- Node13 -->
<g id="node13" class="node">
<title>Node13</title>
<g id="a_node13"><a xlink:href="struct__port__link__t.html" target="_top" xlink:title="The structure of a link. ">
<polygon fill="#ffffff" stroke="#000000" points="8.6157,-143.5 8.6157,-161.5 76.3149,-161.5 76.3149,-143.5 8.6157,-143.5"/>
<text text-anchor="middle" x="42.4653" y="-149.5" font-family="Helvetica,sans-Serif" font-size="10.00" fill="#000000">_port_link_t</text>
</a>
</g>
</g>
<!-- Node13&#45;&gt;Node12 -->
<g id="edge15" class="edge">
<title>Node13&#45;&gt;Node12</title>
<path fill="none" stroke="#9a32cd" stroke-dasharray="5,2" d="M86.1735,-163.2351C103.98,-168.8052 124.2159,-176.7422 140.7334,-187.5 150.4806,-193.8483 149.3356,-199.6451 158.7334,-206.5 163.3964,-209.9013 168.8028,-212.9346 174.0326,-215.4977"/>
<polygon fill="#9a32cd" stroke="#9a32cd" points="87.1526,-159.8749 76.5699,-160.3812 85.1586,-166.5849 87.1526,-159.8749"/>
<text text-anchor="middle" x="121.832" y="-189.5" font-family="Helvetica,sans-Serif" font-size="10.00" fill="#000000"> link</text>
</g>
<!-- Node14 -->
<g id="node14" class="node">
<title>Node14</title>
<g id="a_node14"><a xlink:href="struct__port__info__t.html" target="_top" xlink:title="The structure of port information. ">
<polygon fill="#ffffff" stroke="#000000" points="8.0566,-217.5 8.0566,-235.5 76.874,-235.5 76.874,-217.5 8.0566,-217.5"/>
<text text-anchor="middle" x="42.4653" y="-223.5" font-family="Helvetica,sans-Serif" font-size="10.00" fill="#000000">_port_info_t</text>
</a>
</g>
</g>
<!-- Node14&#45;&gt;Node12 -->
<g id="edge16" class="edge">
<title>Node14&#45;&gt;Node12</title>
<path fill="none" stroke="#9a32cd" stroke-dasharray="5,2" d="M87.1252,-225.7321C92.4517,-225.6492 97.8129,-225.5698 102.9307,-225.5 126.5682,-225.1778 153.577,-224.8979 172.4235,-224.7168"/>
<polygon fill="#9a32cd" stroke="#9a32cd" points="86.9408,-222.2345 76.9982,-225.8943 87.0529,-229.2336 86.9408,-222.2345"/>
<text text-anchor="middle" x="121.832" y="-227.5" font-family="Helvetica,sans-Serif" font-size="10.00" fill="#000000"> info</text>
</g>
<!-- Node15 -->
<g id="node15" class="node">
<title>Node15</title>
<g id="a_node15"><a xlink:href="struct__port__stat__t.html" target="_top" xlink:title="The structure of port statistics. ">
<polygon fill="#ffffff" stroke="#000000" points="8.0591,-180.5 8.0591,-198.5 76.8716,-198.5 76.8716,-180.5 8.0591,-180.5"/>
<text text-anchor="middle" x="42.4653" y="-186.5" font-family="Helvetica,sans-Serif" font-size="10.00" fill="#000000">_port_stat_t</text>
</a>
</g>
</g>
<!-- Node15&#45;&gt;Node12 -->
<g id="edge17" class="edge">
<title>Node15&#45;&gt;Node12</title>
<path fill="none" stroke="#9a32cd" stroke-dasharray="5,2" d="M87.2116,-198.7001C104.0247,-202.2521 123.2862,-206.4349 140.7334,-210.5 151.1778,-212.9335 162.6796,-215.8054 172.4878,-218.3128"/>
<polygon fill="#9a32cd" stroke="#9a32cd" points="87.6034,-195.2062 77.0976,-196.5767 86.165,-202.0568 87.6034,-195.2062"/>
<text text-anchor="middle" x="121.832" y="-212.5" font-family="Helvetica,sans-Serif" font-size="10.00" fill="#000000"> stat</text>
</g>
<!-- Node16 -->
<g id="node16" class="node">
<title>Node16</title>
<g id="a_node16"><a xlink:href="struct__switch__t.html" target="_top" xlink:title="The structure of a switch. ">
<polygon fill="#ffffff" stroke="#000000" points="167.3467,-489.5 167.3467,-507.5 225.0313,-507.5 225.0313,-489.5 167.3467,-489.5"/>
<text text-anchor="middle" x="196.189" y="-495.5" font-family="Helvetica,sans-Serif" font-size="10.00" fill="#000000">_switch_t</text>
</a>
</g>
</g>
<!-- Node16&#45;&gt;Node2 -->
<g id="edge18" class="edge">
<title>Node16&#45;&gt;Node2</title>
<path fill="none" stroke="#9a32cd" stroke-dasharray="5,2" d="M224.1907,-484.6968C247.0164,-472.6152 279.293,-453.5725 303.3291,-431.5 325.6349,-411.0164 345.2507,-380.7061 354.3103,-365.6616"/>
<polygon fill="#9a32cd" stroke="#9a32cd" points="222.3085,-481.73 215.0385,-489.437 225.5279,-487.9458 222.3085,-481.73"/>
<text text-anchor="middle" x="277.4868" y="-469.5" font-family="Helvetica,sans-Serif" font-size="10.00" fill="#000000"> sw</text>
</g>
<!-- Node17 -->
<g id="node17" class="node">
<title>Node17</title>
<g id="a_node17"><a xlink:href="struct__switch__stat__t.html" target="_top" xlink:title="The structure of switch statistics. ">
<polygon fill="#ffffff" stroke="#000000" points="2.7832,-487.5 2.7832,-505.5 82.1475,-505.5 82.1475,-487.5 2.7832,-487.5"/>
<text text-anchor="middle" x="42.4653" y="-493.5" font-family="Helvetica,sans-Serif" font-size="10.00" fill="#000000">_switch_stat_t</text>
</a>
</g>
</g>
<!-- Node17&#45;&gt;Node16 -->
<g id="edge19" class="edge">
<title>Node17&#45;&gt;Node16</title>
<path fill="none" stroke="#9a32cd" stroke-dasharray="5,2" d="M92.719,-497.1538C117.3482,-497.4743 146.1358,-497.8488 167.0841,-498.1213"/>
<polygon fill="#9a32cd" stroke="#9a32cd" points="92.4978,-493.6507 82.4531,-497.0203 92.4067,-500.6501 92.4978,-493.6507"/>
<text text-anchor="middle" x="121.832" y="-499.5" font-family="Helvetica,sans-Serif" font-size="10.00" fill="#000000"> stat</text>
</g>
<!-- Node18 -->
<g id="node18" class="node">
<title>Node18</title>
<g id="a_node18"><a xlink:href="struct__switch__desc__t.html" target="_top" xlink:title="The structure of a set of switch descriptions. ">
<polygon fill="#ffffff" stroke="#000000" points=".2808,-561.5 .2808,-579.5 84.6499,-579.5 84.6499,-561.5 .2808,-561.5"/>
<text text-anchor="middle" x="42.4653" y="-567.5" font-family="Helvetica,sans-Serif" font-size="10.00" fill="#000000">_switch_desc_t</text>
</a>
</g>
</g>
<!-- Node18&#45;&gt;Node16 -->
<g id="edge20" class="edge">
<title>Node18&#45;&gt;Node16</title>
<path fill="none" stroke="#9a32cd" stroke-dasharray="5,2" d="M84.8881,-558.3279C102.8132,-552.2371 123.4861,-543.9178 140.7334,-533.5 149.8954,-527.9659 149.8875,-523.5264 158.7334,-517.5 164.0363,-513.8873 170.1193,-510.5133 175.8196,-507.6406"/>
<polygon fill="#9a32cd" stroke="#9a32cd" points="83.6669,-555.0448 75.2516,-561.4816 85.8442,-561.6976 83.6669,-555.0448"/>
<text text-anchor="middle" x="121.832" y="-552.5" font-family="Helvetica,sans-Serif" font-size="10.00" fill="#000000"> desc</text>
</g>
<!-- Node19 -->
<g id="node19" class="node">
<title>Node19</title>
<g id="a_node19"><a xlink:href="struct__switch__conn__t.html" target="_top" xlink:title="The structure of a switch connection. ">
<polygon fill="#ffffff" stroke="#000000" points="0,-524.5 0,-542.5 84.9307,-542.5 84.9307,-524.5 0,-524.5"/>
<text text-anchor="middle" x="42.4653" y="-530.5" font-family="Helvetica,sans-Serif" font-size="10.00" fill="#000000">_switch_conn_t</text>
</a>
</g>
</g>
<!-- Node19&#45;&gt;Node16 -->
<g id="edge21" class="edge">
<title>Node19&#45;&gt;Node16</title>
<path fill="none" stroke="#9a32cd" stroke-dasharray="5,2" d="M92.9563,-522.298C108.3061,-518.865 125.2167,-515.0556 140.7334,-511.5 149.312,-509.5343 158.6284,-507.3641 167.1328,-505.3692"/>
<polygon fill="#9a32cd" stroke="#9a32cd" points="92.1219,-518.898 83.1249,-524.4931 93.6474,-525.7298 92.1219,-518.898"/>
<text text-anchor="middle" x="121.832" y="-521.5" font-family="Helvetica,sans-Serif" font-size="10.00" fill="#000000"> conn</text>
</g>
<!-- Node20 -->
<g id="node20" class="node">
<title>Node20</title>
<g id="a_node20"><a xlink:href="structcli__def.html" target="_top" xlink:title="cli_def">
<polygon fill="#ffffff" stroke="#000000" points="337.1812,-113.5 337.1812,-131.5 382.0874,-131.5 382.0874,-113.5 337.1812,-113.5"/>
<text text-anchor="middle" x="359.6343" y="-119.5" font-family="Helvetica,sans-Serif" font-size="10.00" fill="#000000">cli_def</text>
</a>
</g>
</g>
<!-- Node20&#45;&gt;Node1 -->
<g id="edge22" class="edge">
<title>Node20&#45;&gt;Node1</title>
<path fill="none" stroke="#9a32cd" stroke-dasharray="5,2" d="M392.3583,-122.5C416.2816,-122.5 448.1738,-122.5 469.6702,-122.5"/>
<polygon fill="#9a32cd" stroke="#9a32cd" points="392.3208,-119.0001 382.3207,-122.5 392.3207,-126.0001 392.3208,-119.0001"/>
<text text-anchor="middle" x="434.0083" y="-124.5" font-family="Helvetica,sans-Serif" font-size="10.00" fill="#000000"> cli</text>
</g>
<!-- Node21 -->
<g id="node21" class="node">
<title>Node21</title>
<g id="a_node21"><a xlink:href="structunp.html" target="_top" xlink:title="unp">
<polygon fill="#ffffff" stroke="#000000" points="179.8467,-150.5 179.8467,-168.5 212.5313,-168.5 212.5313,-150.5 179.8467,-150.5"/>
<text text-anchor="middle" x="196.189" y="-156.5" font-family="Helvetica,sans-Serif" font-size="10.00" fill="#000000">unp</text>
</a>
</g>
</g>
<!-- Node21&#45;&gt;Node20 -->
<g id="edge23" class="edge">
<title>Node21&#45;&gt;Node20</title>
<path fill="none" stroke="#9a32cd" stroke-dasharray="5,2" d="M222.6653,-153.5064C254.4246,-146.3169 307.1174,-134.3885 337.0427,-127.6142"/>
<polygon fill="#9a32cd" stroke="#9a32cd" points="221.7409,-150.127 212.7604,-155.7486 223.2864,-156.9543 221.7409,-150.127"/>
<text text-anchor="middle" x="277.4868" y="-147.5" font-family="Helvetica,sans-Serif" font-size="10.00" fill="#000000"> users</text>
</g>
<!-- Node21&#45;&gt;Node21 -->
<g id="edge24" class="edge">
<title>Node21&#45;&gt;Node21</title>
<path fill="none" stroke="#9a32cd" stroke-dasharray="5,2" d="M182.4309,-178.2336C183.2021,-183.2195 187.7881,-187 196.189,-187 209.6304,-187 213.3058,-177.322 207.2151,-168.5134"/>
<polygon fill="#9a32cd" stroke="#9a32cd" points="185.8265,-179.0875 185.1628,-168.5134 179.0876,-177.1934 185.8265,-179.0875"/>
<text text-anchor="middle" x="196.189" y="-189" font-family="Helvetica,sans-Serif" font-size="10.00" fill="#000000"> next</text>
</g>
<!-- Node22 -->
<g id="node22" class="node">
<title>Node22</title>
<g id="a_node22"><a xlink:href="structcli__filter.html" target="_top" xlink:title="cli_filter">
<polygon fill="#ffffff" stroke="#000000" points="171.2407,-85.5 171.2407,-103.5 221.1372,-103.5 221.1372,-85.5 171.2407,-85.5"/>
<text text-anchor="middle" x="196.189" y="-91.5" font-family="Helvetica,sans-Serif" font-size="10.00" fill="#000000">cli_filter</text>
</a>
</g>
</g>
<!-- Node22&#45;&gt;Node20 -->
<g id="edge25" class="edge">
<title>Node22&#45;&gt;Node20</title>
<path fill="none" stroke="#9a32cd" stroke-dasharray="5,2" d="M231.3825,-99.7616C252.3138,-102.9713 279.3731,-107.2608 303.3291,-111.5 314.4117,-113.4612 326.6809,-115.8342 336.9299,-117.8734"/>
<polygon fill="#9a32cd" stroke="#9a32cd" points="231.7557,-96.2782 221.3428,-98.2327 230.7018,-103.1984 231.7557,-96.2782"/>
<text text-anchor="middle" x="277.4868" y="-113.5" font-family="Helvetica,sans-Serif" font-size="10.00" fill="#000000"> filters</text>
</g>
<!-- Node22&#45;&gt;Node22 -->
<g id="edge26" class="edge">
<title>Node22&#45;&gt;Node22</title>
<path fill="none" stroke="#9a32cd" stroke-dasharray="5,2" d="M182.4309,-113.2336C183.2021,-118.2195 187.7881,-122 196.189,-122 209.6304,-122 213.3058,-112.322 207.2151,-103.5134"/>
<polygon fill="#9a32cd" stroke="#9a32cd" points="185.8265,-114.0875 185.1628,-103.5134 179.0876,-112.1934 185.8265,-114.0875"/>
<text text-anchor="middle" x="196.189" y="-124" font-family="Helvetica,sans-Serif" font-size="10.00" fill="#000000"> next</text>
</g>
<!-- Node23 -->
<g id="node23" class="node">
<title>Node23</title>
<g id="a_node23"><a xlink:href="structcli__command.html" target="_top" xlink:title="cli_command">
<polygon fill="#ffffff" stroke="#000000" points="158.7334,-.5 158.7334,-18.5 233.6445,-18.5 233.6445,-.5 158.7334,-.5"/>
<text text-anchor="middle" x="196.189" y="-6.5" font-family="Helvetica,sans-Serif" font-size="10.00" fill="#000000">cli_command</text>
</a>
</g>
</g>
<!-- Node23&#45;&gt;Node20 -->
<g id="edge27" class="edge">
<title>Node23&#45;&gt;Node20</title>
<path fill="none" stroke="#9a32cd" stroke-dasharray="5,2" d="M217.624,-24.4317C239.5667,-39.9181 274.4494,-65.0983 303.3291,-88.5 311.6452,-95.2387 312.3933,-98.6076 321.3291,-104.5 326.3592,-107.8169 332.097,-110.8557 337.573,-113.4543"/>
<polygon fill="#9a32cd" stroke="#9a32cd" points="219.5354,-21.4972 209.3408,-18.6127 215.5115,-27.225 219.5354,-21.4972"/>
<text text-anchor="middle" x="277.4868" y="-90.5" font-family="Helvetica,sans-Serif" font-size="10.00" fill="#000000"> commands</text>
</g>
<!-- Node23&#45;&gt;Node23 -->
<g id="edge28" class="edge">
<title>Node23&#45;&gt;Node23</title>
<path fill="none" stroke="#9a32cd" stroke-dasharray="5,2" d="M182.4309,-28.2336C183.2021,-33.2195 187.7881,-37 196.189,-37 209.6304,-37 213.3058,-27.322 207.2151,-18.5134"/>
<polygon fill="#9a32cd" stroke="#9a32cd" points="185.8265,-29.0875 185.1628,-18.5134 179.0876,-27.1934 185.8265,-29.0875"/>
<text text-anchor="middle" x="196.189" y="-59" font-family="Helvetica,sans-Serif" font-size="10.00" fill="#000000"> next</text>
<text text-anchor="middle" x="196.189" y="-49" font-family="Helvetica,sans-Serif" font-size="10.00" fill="#000000">parent</text>
<text text-anchor="middle" x="196.189" y="-39" font-family="Helvetica,sans-Serif" font-size="10.00" fill="#000000">children</text>
</g>
<!-- Node24 -->
<g id="node24" class="node">
<title>Node24</title>
<g id="a_node24"><a xlink:href="struct__odp__t.html" target="_top" xlink:title="The structure of an operator&#45;defined policy. ">
<polygon fill="#ffffff" stroke="#000000" points="336.3413,-76.5 336.3413,-94.5 382.9272,-94.5 382.9272,-76.5 336.3413,-76.5"/>
<text text-anchor="middle" x="359.6343" y="-82.5" font-family="Helvetica,sans-Serif" font-size="10.00" fill="#000000">_odp_t</text>
</a>
</g>
</g>
<!-- Node24&#45;&gt;Node1 -->
<g id="edge29" class="edge">
<title>Node24&#45;&gt;Node1</title>
<path fill="none" stroke="#9a32cd" stroke-dasharray="5,2" d="M392.8075,-93.0485C410.4968,-97.2508 432.5762,-102.779 452.0771,-108.5 457.888,-110.2048 464.0996,-112.2112 469.894,-114.1644"/>
<polygon fill="#9a32cd" stroke="#9a32cd" points="393.4874,-89.6131 382.9523,-90.7361 391.8883,-96.428 393.4874,-89.6131"/>
<text text-anchor="middle" x="434.0083" y="-110.5" font-family="Helvetica,sans-Serif" font-size="10.00" fill="#000000"> odp</text>
</g>
</g>
</svg>
