<?xml version="1.0" encoding="UTF-8" standalone="no"?>
<!DOCTYPE svg PUBLIC "-//W3C//DTD SVG 1.1//EN"
 "http://www.w3.org/Graphics/SVG/1.1/DTD/svg11.dtd">
<!-- Generated by graphviz version 2.40.1 (20161225.0304)
 -->
<!-- Title: _topo_t Pages: 1 -->
<svg width="249pt" height="157pt"
 viewBox="0.00 0.00 249.26 157.00" xmlns="http://www.w3.org/2000/svg" xmlns:xlink="http://www.w3.org/1999/xlink">
<g id="graph0" class="graph" transform="scale(1 1) rotate(0) translate(4 153)">
<title>_topo_t</title>
<polygon fill="#ffffff" stroke="transparent" points="-4,4 -4,-153 245.2559,-153 245.2559,4 -4,4"/>
<!-- Node1 -->
<g id="node1" class="node">
<title>Node1</title>
<polygon fill="#bfbfbf" stroke="#000000" points="95.1675,-.5 95.1675,-18.5 144.5317,-18.5 144.5317,-.5 95.1675,-.5"/>
<text text-anchor="middle" x="119.8496" y="-6.5" font-family="Helvetica,sans-Serif" font-size="10.00" fill="#000000">_topo_t</text>
</g>
<!-- Node2 -->
<g id="node2" class="node">
<title>Node2</title>
<g id="a_node2"><a xlink:href="struct__port__t.html" target="_top" xlink:title="The structure of a port. ">
<polygon fill="#ffffff" stroke="#000000" points="96.2832,-65.5 96.2832,-83.5 143.416,-83.5 143.416,-65.5 96.2832,-65.5"/>
<text text-anchor="middle" x="119.8496" y="-71.5" font-family="Helvetica,sans-Serif" font-size="10.00" fill="#000000">_port_t</text>
</a>
</g>
</g>
<!-- Node2&#45;&gt;Node1 -->
<g id="edge1" class="edge">
<title>Node2&#45;&gt;Node1</title>
<path fill="none" stroke="#9a32cd" stroke-dasharray="5,2" d="M119.8496,-55.1265C119.8496,-43.1522 119.8496,-28.3205 119.8496,-18.8821"/>
<polygon fill="#9a32cd" stroke="#9a32cd" points="116.3497,-55.462 119.8496,-65.462 123.3497,-55.4621 116.3497,-55.462"/>
<text text-anchor="middle" x="128.7412" y="-39" font-family="Helvetica,sans-Serif" font-size="10.00" fill="#000000"> link</text>
</g>
<!-- Node3 -->
<g id="node3" class="node">
<title>Node3</title>
<g id="a_node3"><a xlink:href="struct__port__link__t.html" target="_top" xlink:title="The structure of a link. ">
<polygon fill="#ffffff" stroke="#000000" points="0,-130.5 0,-148.5 67.6992,-148.5 67.6992,-130.5 0,-130.5"/>
<text text-anchor="middle" x="33.8496" y="-136.5" font-family="Helvetica,sans-Serif" font-size="10.00" fill="#000000">_port_link_t</text>
</a>
</g>
</g>
<!-- Node3&#45;&gt;Node2 -->
<g id="edge2" class="edge">
<title>Node3&#45;&gt;Node2</title>
<path fill="none" stroke="#9a32cd" stroke-dasharray="5,2" d="M53.846,-124.3865C70.5169,-111.7864 93.7253,-94.2451 107.716,-83.6708"/>
<polygon fill="#9a32cd" stroke="#9a32cd" points="51.6749,-121.6402 45.8075,-130.462 55.8956,-127.2245 51.6749,-121.6402"/>
<text text-anchor="middle" x="91.7412" y="-104" font-family="Helvetica,sans-Serif" font-size="10.00" fill="#000000"> link</text>
</g>
<!-- Node4 -->
<g id="node4" class="node">
<title>Node4</title>
<g id="a_node4"><a xlink:href="struct__port__info__t.html" target="_top" xlink:title="The structure of port information. ">
<polygon fill="#ffffff" stroke="#000000" points="85.4409,-130.5 85.4409,-148.5 154.2583,-148.5 154.2583,-130.5 85.4409,-130.5"/>
<text text-anchor="middle" x="119.8496" y="-136.5" font-family="Helvetica,sans-Serif" font-size="10.00" fill="#000000">_port_info_t</text>
</a>
</g>
</g>
<!-- Node4&#45;&gt;Node2 -->
<g id="edge3" class="edge">
<title>Node4&#45;&gt;Node2</title>
<path fill="none" stroke="#9a32cd" stroke-dasharray="5,2" d="M119.8496,-120.1265C119.8496,-108.1522 119.8496,-93.3205 119.8496,-83.8821"/>
<polygon fill="#9a32cd" stroke="#9a32cd" points="116.3497,-120.462 119.8496,-130.462 123.3497,-120.4621 116.3497,-120.462"/>
<text text-anchor="middle" x="129.3003" y="-104" font-family="Helvetica,sans-Serif" font-size="10.00" fill="#000000"> info</text>
</g>
<!-- Node5 -->
<g id="node5" class="node">
<title>Node5</title>
<g id="a_node5"><a xlink:href="struct__port__stat__t.html" target="_top" xlink:title="The structure of port statistics. ">
<polygon fill="#ffffff" stroke="#000000" points="172.4434,-130.5 172.4434,-148.5 241.2559,-148.5 241.2559,-130.5 172.4434,-130.5"/>
<text text-anchor="middle" x="206.8496" y="-136.5" font-family="Helvetica,sans-Serif" font-size="10.00" fill="#000000">_port_stat_t</text>
</a>
</g>
</g>
<!-- Node5&#45;&gt;Node2 -->
<g id="edge4" class="edge">
<title>Node5&#45;&gt;Node2</title>
<path fill="none" stroke="#9a32cd" stroke-dasharray="5,2" d="M186.6207,-124.3865C169.756,-111.7864 146.2777,-94.2451 132.1243,-83.6708"/>
<polygon fill="#9a32cd" stroke="#9a32cd" points="184.6467,-127.2806 194.7526,-130.462 188.8364,-121.6729 184.6467,-127.2806"/>
<text text-anchor="middle" x="177.2979" y="-104" font-family="Helvetica,sans-Serif" font-size="10.00" fill="#000000"> stat</text>
</g>
</g>
</svg>
