<?xml version="1.0" encoding="UTF-8" standalone="no"?>
<!DOCTYPE svg PUBLIC "-//W3C//DTD SVG 1.1//EN"
 "http://www.w3.org/Graphics/SVG/1.1/DTD/svg11.dtd">
<!-- Generated by graphviz version 2.40.1 (20161225.0304)
 -->
<!-- Title: _flow_t Pages: 1 -->
<svg width="415pt" height="113pt"
 viewBox="0.00 0.00 415.15 113.00" xmlns="http://www.w3.org/2000/svg" xmlns:xlink="http://www.w3.org/1999/xlink">
<g id="graph0" class="graph" transform="scale(1 1) rotate(0) translate(4 109)">
<title>_flow_t</title>
<polygon fill="#ffffff" stroke="transparent" points="-4,4 -4,-109 411.1475,-109 411.1475,4 -4,4"/>
<!-- Node1 -->
<g id="node1" class="node">
<title>Node1</title>
<polygon fill="#bfbfbf" stroke="#000000" points="180.6206,-6 180.6206,-24 228.3052,-24 228.3052,-6 180.6206,-6"/>
<text text-anchor="middle" x="204.4629" y="-12" font-family="Helvetica,sans-Serif" font-size="10.00" fill="#000000">_flow_t</text>
</g>
<!-- Node1&#45;&gt;Node1 -->
<g id="edge4" class="edge">
<title>Node1&#45;&gt;Node1</title>
<path fill="none" stroke="#9a32cd" stroke-dasharray="5,2" d="M238.7582,-21.9484C243.2951,-20.7653 246.3052,-18.4492 246.3052,-15 246.3052,-9.3398 238.1993,-6.7309 228.5418,-7.1731"/>
<polygon fill="#9a32cd" stroke="#9a32cd" points="238.2051,-18.483 228.5418,-22.8269 238.8049,-25.4572 238.2051,-18.483"/>
<text text-anchor="middle" x="261.5908" y="-22" font-family="Helvetica,sans-Serif" font-size="10.00" fill="#000000"> r_next</text>
<text text-anchor="middle" x="261.5908" y="-12" font-family="Helvetica,sans-Serif" font-size="10.00" fill="#000000">prev</text>
<text text-anchor="middle" x="261.5908" y="-2" font-family="Helvetica,sans-Serif" font-size="10.00" fill="#000000">next</text>
</g>
<!-- Node2 -->
<g id="node2" class="node">
<title>Node2</title>
<g id="a_node2"><a xlink:href="struct__pkt__info__t.html" target="_top" xlink:title="The structure of a packet. ">
<polygon fill="#ffffff" stroke="#000000" points="0,-86.5 0,-104.5 64.9258,-104.5 64.9258,-86.5 0,-86.5"/>
<text text-anchor="middle" x="32.4629" y="-92.5" font-family="Helvetica,sans-Serif" font-size="10.00" fill="#000000">_pkt_info_t</text>
</a>
</g>
</g>
<!-- Node2&#45;&gt;Node1 -->
<g id="edge1" class="edge">
<title>Node2&#45;&gt;Node1</title>
<path fill="none" stroke="#9a32cd" stroke-dasharray="5,2" d="M53.6311,-80.4898C68.5256,-70.3884 89.1973,-57.2719 108.6602,-48 132.1647,-36.8027 160.5121,-27.5227 180.2469,-21.6856"/>
<polygon fill="#9a32cd" stroke="#9a32cd" points="51.4109,-77.7693 45.1663,-86.3283 55.3854,-83.5316 51.4109,-77.7693"/>
<text text-anchor="middle" x="128.3643" y="-60" font-family="Helvetica,sans-Serif" font-size="10.00" fill="#000000"> pkt_info</text>
<text text-anchor="middle" x="128.3643" y="-50" font-family="Helvetica,sans-Serif" font-size="10.00" fill="#000000">match</text>
</g>
<!-- Node3 -->
<g id="node3" class="node">
<title>Node3</title>
<g id="a_node3"><a xlink:href="struct__flow__meta__t.html" target="_top" xlink:title="The structure of flow metadata. ">
<polygon fill="#ffffff" stroke="#000000" points="82.7241,-86.5 82.7241,-104.5 158.2017,-104.5 158.2017,-86.5 82.7241,-86.5"/>
<text text-anchor="middle" x="120.4629" y="-92.5" font-family="Helvetica,sans-Serif" font-size="10.00" fill="#000000">_flow_meta_t</text>
</a>
</g>
</g>
<!-- Node3&#45;&gt;Node1 -->
<g id="edge2" class="edge">
<title>Node3&#45;&gt;Node1</title>
<path fill="none" stroke="#9a32cd" stroke-dasharray="5,2" d="M137.3411,-79.3251C154.6485,-62.7388 180.9538,-37.5296 194.9394,-24.1267"/>
<polygon fill="#9a32cd" stroke="#9a32cd" points="134.897,-76.8196 130.0988,-86.2656 139.7403,-81.8735 134.897,-76.8196"/>
<text text-anchor="middle" x="181.9678" y="-55" font-family="Helvetica,sans-Serif" font-size="10.00" fill="#000000"> meta</text>
</g>
<!-- Node4 -->
<g id="node4" class="node">
<title>Node4</title>
<g id="a_node4"><a xlink:href="struct__action__t.html" target="_top" xlink:title="The structure of an action. ">
<polygon fill="#ffffff" stroke="#000000" points="176.1699,-86.5 176.1699,-104.5 232.7559,-104.5 232.7559,-86.5 176.1699,-86.5"/>
<text text-anchor="middle" x="204.4629" y="-92.5" font-family="Helvetica,sans-Serif" font-size="10.00" fill="#000000">_action_t</text>
</a>
</g>
</g>
<!-- Node4&#45;&gt;Node1 -->
<g id="edge3" class="edge">
<title>Node4&#45;&gt;Node1</title>
<path fill="none" stroke="#9a32cd" stroke-dasharray="5,2" d="M204.4629,-76.0894C204.4629,-59.6062 204.4629,-36.6843 204.4629,-24.1267"/>
<polygon fill="#9a32cd" stroke="#9a32cd" points="200.963,-76.2656 204.4629,-86.2656 207.963,-76.2657 200.963,-76.2656"/>
<text text-anchor="middle" x="219.1943" y="-55" font-family="Helvetica,sans-Serif" font-size="10.00" fill="#000000"> action</text>
</g>
<!-- Node5 -->
<g id="node5" class="node">
<title>Node5</title>
<g id="a_node5"><a xlink:href="struct__flow__stat__t.html" target="_top" xlink:title="The structure of flow statistics. ">
<polygon fill="#ffffff" stroke="#000000" points="250.7808,-86.5 250.7808,-104.5 320.145,-104.5 320.145,-86.5 250.7808,-86.5"/>
<text text-anchor="middle" x="285.4629" y="-92.5" font-family="Helvetica,sans-Serif" font-size="10.00" fill="#000000">_flow_stat_t</text>
</a>
</g>
</g>
<!-- Node5&#45;&gt;Node1 -->
<g id="edge5" class="edge">
<title>Node5&#45;&gt;Node1</title>
<path fill="none" stroke="#9a32cd" stroke-dasharray="5,2" d="M268.7343,-78.8747C252.0421,-62.2855 227.0109,-37.4088 213.6463,-24.1267"/>
<polygon fill="#9a32cd" stroke="#9a32cd" points="266.611,-81.699 276.1712,-86.2656 271.5454,-76.7339 266.611,-81.699"/>
<text text-anchor="middle" x="265.9111" y="-55" font-family="Helvetica,sans-Serif" font-size="10.00" fill="#000000"> stat</text>
</g>
<!-- Node6 -->
<g id="node6" class="node">
<title>Node6</title>
<g id="a_node6"><a xlink:href="struct__flow__info__t.html" target="_top" xlink:title="The structure of flow information. ">
<polygon fill="#ffffff" stroke="#000000" points="337.7783,-86.5 337.7783,-104.5 407.1475,-104.5 407.1475,-86.5 337.7783,-86.5"/>
<text text-anchor="middle" x="372.4629" y="-92.5" font-family="Helvetica,sans-Serif" font-size="10.00" fill="#000000">_flow_info_t</text>
</a>
</g>
</g>
<!-- Node6&#45;&gt;Node1 -->
<g id="edge6" class="edge">
<title>Node6&#45;&gt;Node1</title>
<path fill="none" stroke="#9a32cd" stroke-dasharray="5,2" d="M346.4688,-81.7152C327.9289,-72.0087 302.3344,-58.8615 279.4629,-48 261.6012,-39.5176 241.0251,-30.5177 225.9481,-24.063"/>
<polygon fill="#9a32cd" stroke="#9a32cd" points="344.9891,-84.8915 355.4691,-86.4472 348.2466,-78.6956 344.9891,-84.8915"/>
<text text-anchor="middle" x="326.9136" y="-55" font-family="Helvetica,sans-Serif" font-size="10.00" fill="#000000"> info</text>
</g>
</g>
</svg>
