<?xml version="1.0" encoding="UTF-8" standalone="no"?>
<!DOCTYPE svg PUBLIC "-//W3C//DTD SVG 1.1//EN"
 "http://www.w3.org/Graphics/SVG/1.1/DTD/svg11.dtd">
<!-- Generated by graphviz version 2.40.1 (20161225.0304)
 -->
<!-- Title: _host_queue_t Pages: 1 -->
<svg width="122pt" height="113pt"
 viewBox="0.00 0.00 122.06 113.00" xmlns="http://www.w3.org/2000/svg" xmlns:xlink="http://www.w3.org/1999/xlink">
<g id="graph0" class="graph" transform="scale(1 1) rotate(0) translate(4 109)">
<title>_host_queue_t</title>
<polygon fill="#ffffff" stroke="transparent" points="-4,4 -4,-109 118.0586,-109 118.0586,4 -4,4"/>
<!-- Node1 -->
<g id="node1" class="node">
<title>Node1</title>
<polygon fill="#bfbfbf" stroke="#000000" points="0,-.5 0,-18.5 82.1719,-18.5 82.1719,-.5 0,-.5"/>
<text text-anchor="middle" x="41.0859" y="-6.5" font-family="Helvetica,sans-Serif" font-size="10.00" fill="#000000">_host_queue_t</text>
</g>
<!-- Node2 -->
<g id="node2" class="node">
<title>Node2</title>
<g id="a_node2"><a xlink:href="struct__host__t.html" target="_top" xlink:title="The structure of a host. ">
<polygon fill="#ffffff" stroke="#000000" points="16.6846,-81 16.6846,-99 65.4873,-99 65.4873,-81 16.6846,-81"/>
<text text-anchor="middle" x="41.0859" y="-87" font-family="Helvetica,sans-Serif" font-size="10.00" fill="#000000">_host_t</text>
</a>
</g>
</g>
<!-- Node2&#45;&gt;Node1 -->
<g id="edge1" class="edge">
<title>Node2&#45;&gt;Node1</title>
<path fill="none" stroke="#9a32cd" stroke-dasharray="5,2" d="M41.0859,-70.5894C41.0859,-54.1062 41.0859,-31.1843 41.0859,-18.6267"/>
<polygon fill="#9a32cd" stroke="#9a32cd" points="37.586,-70.7656 41.0859,-80.7656 44.586,-70.7657 37.586,-70.7656"/>
<text text-anchor="middle" x="53.5981" y="-49" font-family="Helvetica,sans-Serif" font-size="10.00" fill="#000000"> head</text>
<text text-anchor="middle" x="53.5981" y="-39" font-family="Helvetica,sans-Serif" font-size="10.00" fill="#000000">tail</text>
</g>
<!-- Node2&#45;&gt;Node2 -->
<g id="edge2" class="edge">
<title>Node2&#45;&gt;Node2</title>
<path fill="none" stroke="#9a32cd" stroke-dasharray="5,2" d="M76.0384,-96.8963C80.5248,-95.6979 83.4873,-93.3992 83.4873,-90 83.4873,-84.4219 75.5094,-81.8071 65.9111,-82.1558"/>
<polygon fill="#9a32cd" stroke="#9a32cd" points="75.5413,-93.4274 65.9111,-97.8442 76.1938,-100.3969 75.5413,-93.4274"/>
<text text-anchor="middle" x="98.7729" y="-97" font-family="Helvetica,sans-Serif" font-size="10.00" fill="#000000"> r_next</text>
<text text-anchor="middle" x="98.7729" y="-87" font-family="Helvetica,sans-Serif" font-size="10.00" fill="#000000">prev</text>
<text text-anchor="middle" x="98.7729" y="-77" font-family="Helvetica,sans-Serif" font-size="10.00" fill="#000000">next</text>
</g>
</g>
</svg>
