<?xml version="1.0" encoding="UTF-8" standalone="no"?>
<!DOCTYPE svg PUBLIC "-//W3C//DTD SVG 1.1//EN"
 "http://www.w3.org/Graphics/SVG/1.1/DTD/svg11.dtd">
<!-- Generated by graphviz version 2.40.1 (20161225.0304)
 -->
<!-- Title: _app_func_t Pages: 1 -->
<svg width="582pt" height="233pt"
 viewBox="0.00 0.00 582.48 233.00" xmlns="http://www.w3.org/2000/svg" xmlns:xlink="http://www.w3.org/1999/xlink">
<g id="graph0" class="graph" transform="scale(1 1) rotate(0) translate(4 229)">
<title>_app_func_t</title>
<polygon fill="#ffffff" stroke="transparent" points="-4,4 -4,-229 578.4751,-229 578.4751,4 -4,4"/>
<!-- Node1 -->
<g id="node1" class="node">
<title>Node1</title>
<polygon fill="#bfbfbf" stroke="#000000" points="301.877,-.5 301.877,-18.5 372.9258,-18.5 372.9258,-.5 301.877,-.5"/>
<text text-anchor="middle" x="337.4014" y="-6.5" font-family="Helvetica,sans-Serif" font-size="10.00" fill="#000000">_app_func_t</text>
</g>
<!-- Node2 -->
<g id="node2" class="node">
<title>Node2</title>
<g id="a_node2"><a xlink:href="struct__app__event__t.html" target="_top" xlink:title="The structure of an app event (read&#45;only) ">
<polygon fill="#ffffff" stroke="#000000" points="261.0962,-65.5 261.0962,-83.5 337.7065,-83.5 337.7065,-65.5 261.0962,-65.5"/>
<text text-anchor="middle" x="299.4014" y="-71.5" font-family="Helvetica,sans-Serif" font-size="10.00" fill="#000000">_app_event_t</text>
</a>
</g>
</g>
<!-- Node2&#45;&gt;Node1 -->
<g id="edge1" class="edge">
<title>Node2&#45;&gt;Node1</title>
<path fill="none" stroke="#9a32cd" stroke-dasharray="5,2" d="M307.4444,-55.8486C310.3087,-49.7164 313.7111,-42.9496 317.2637,-37 321.0862,-30.5984 326.0243,-23.8365 330.0537,-18.6198"/>
<polygon fill="#9a32cd" stroke="#9a32cd" points="304.0984,-54.7565 303.2003,-65.3132 310.4856,-57.6206 304.0984,-54.7565"/>
<text text-anchor="middle" x="334.4702" y="-39" font-family="Helvetica,sans-Serif" font-size="10.00" fill="#000000"> handler</text>
</g>
<!-- Node3 -->
<g id="node3" class="node">
<title>Node3</title>
<g id="a_node3"><a xlink:href="struct__host__t.html" target="_top" xlink:title="The structure of a host. ">
<polygon fill="#ffffff" stroke="#000000" points="0,-136 0,-154 48.8027,-154 48.8027,-136 0,-136"/>
<text text-anchor="middle" x="24.4014" y="-142" font-family="Helvetica,sans-Serif" font-size="10.00" fill="#000000">_host_t</text>
</a>
</g>
</g>
<!-- Node3&#45;&gt;Node2 -->
<g id="edge2" class="edge">
<title>Node3&#45;&gt;Node2</title>
<path fill="none" stroke="#9a32cd" stroke-dasharray="5,2" d="M58.6638,-134.6492C89.2341,-125.561 135.2829,-112.2322 175.7217,-102 204.0833,-94.8237 236.3581,-87.6814 260.8249,-82.4748"/>
<polygon fill="#9a32cd" stroke="#9a32cd" points="57.5011,-131.3436 48.9203,-137.5581 59.5036,-138.051 57.5011,-131.3436"/>
<text text-anchor="middle" x="187.2412" y="-104" font-family="Helvetica,sans-Serif" font-size="10.00" fill="#000000"> host</text>
</g>
<!-- Node3&#45;&gt;Node3 -->
<g id="edge3" class="edge">
<title>Node3&#45;&gt;Node3</title>
<path fill="none" stroke="#9a32cd" stroke-dasharray="5,2" d="M59.3539,-151.2395C63.8403,-150.1553 66.8027,-148.0754 66.8027,-145 66.8027,-139.9531 58.8249,-137.5874 49.2265,-137.9028"/>
<polygon fill="#9a32cd" stroke="#9a32cd" points="58.8954,-147.7657 49.2265,-152.0972 59.4862,-154.7407 58.8954,-147.7657"/>
<text text-anchor="middle" x="82.0884" y="-152" font-family="Helvetica,sans-Serif" font-size="10.00" fill="#000000"> r_next</text>
<text text-anchor="middle" x="82.0884" y="-142" font-family="Helvetica,sans-Serif" font-size="10.00" fill="#000000">prev</text>
<text text-anchor="middle" x="82.0884" y="-132" font-family="Helvetica,sans-Serif" font-size="10.00" fill="#000000">next</text>
</g>
<!-- Node4 -->
<g id="node4" class="node">
<title>Node4</title>
<g id="a_node4"><a xlink:href="struct__pktout__t.html" target="_top" xlink:title="The structure of an outgoing packet. ">
<polygon fill="#ffffff" stroke="#000000" points="114.8301,-136 114.8301,-154 171.9727,-154 171.9727,-136 114.8301,-136"/>
<text text-anchor="middle" x="143.4014" y="-142" font-family="Helvetica,sans-Serif" font-size="10.00" fill="#000000">_pktout_t</text>
</a>
</g>
</g>
<!-- Node4&#45;&gt;Node2 -->
<g id="edge4" class="edge">
<title>Node4&#45;&gt;Node2</title>
<path fill="none" stroke="#9a32cd" stroke-dasharray="5,2" d="M166.3854,-130.7684C181.408,-121.8189 201.6478,-110.4146 220.3818,-102 236.1499,-94.9176 254.3331,-88.4774 269.2789,-83.6128"/>
<polygon fill="#9a32cd" stroke="#9a32cd" points="164.516,-127.8086 157.7661,-135.9749 168.1354,-133.8003 164.516,-127.8086"/>
<text text-anchor="middle" x="235.4111" y="-104" font-family="Helvetica,sans-Serif" font-size="10.00" fill="#000000"> pktout</text>
</g>
<!-- Node5 -->
<g id="node5" class="node">
<title>Node5</title>
<g id="a_node5"><a xlink:href="struct__action__t.html" target="_top" xlink:title="The structure of an action. ">
<polygon fill="#ffffff" stroke="#000000" points="150.1084,-206.5 150.1084,-224.5 206.6943,-224.5 206.6943,-206.5 150.1084,-206.5"/>
<text text-anchor="middle" x="178.4014" y="-212.5" font-family="Helvetica,sans-Serif" font-size="10.00" fill="#000000">_action_t</text>
</a>
</g>
</g>
<!-- Node5&#45;&gt;Node4 -->
<g id="edge5" class="edge">
<title>Node5&#45;&gt;Node4</title>
<path fill="none" stroke="#9a32cd" stroke-dasharray="5,2" d="M163.5416,-198.3694C161.1164,-195.0666 158.7944,-191.5316 156.9385,-188 151.1859,-177.0537 147.3776,-163.2396 145.3049,-154.2674"/>
<polygon fill="#9a32cd" stroke="#9a32cd" points="160.9816,-200.7728 169.9535,-206.408 166.454,-196.4077 160.9816,-200.7728"/>
<text text-anchor="middle" x="172.1328" y="-180" font-family="Helvetica,sans-Serif" font-size="10.00" fill="#000000"> action</text>
</g>
<!-- Node6 -->
<g id="node6" class="node">
<title>Node6</title>
<g id="a_node6"><a xlink:href="struct__flow__t.html" target="_top" xlink:title="The structure of a flow. ">
<polygon fill="#ffffff" stroke="#000000" points="189.5591,-136 189.5591,-154 237.2437,-154 237.2437,-136 189.5591,-136"/>
<text text-anchor="middle" x="213.4014" y="-142" font-family="Helvetica,sans-Serif" font-size="10.00" fill="#000000">_flow_t</text>
</a>
</g>
</g>
<!-- Node5&#45;&gt;Node6 -->
<g id="edge7" class="edge">
<title>Node5&#45;&gt;Node6</title>
<path fill="none" stroke="#9a32cd" stroke-dasharray="5,2" d="M187.4495,-197.2744C194.2511,-183.5741 203.2943,-165.3586 208.7129,-154.4439"/>
<polygon fill="#9a32cd" stroke="#9a32cd" points="184.2888,-195.77 182.977,-206.2834 190.5587,-198.8828 184.2888,-195.77"/>
<text text-anchor="middle" x="212.1328" y="-180" font-family="Helvetica,sans-Serif" font-size="10.00" fill="#000000"> action</text>
</g>
<!-- Node6&#45;&gt;Node2 -->
<g id="edge6" class="edge">
<title>Node6&#45;&gt;Node2</title>
<path fill="none" stroke="#9a32cd" stroke-dasharray="5,2" d="M232.8216,-129.0799C249.8847,-115.0922 274.119,-95.2257 288.1556,-83.7189"/>
<polygon fill="#9a32cd" stroke="#9a32cd" points="230.159,-126.7368 224.6444,-135.7834 234.5969,-132.1504 230.159,-126.7368"/>
<text text-anchor="middle" x="274.6821" y="-104" font-family="Helvetica,sans-Serif" font-size="10.00" fill="#000000"> flow</text>
</g>
<!-- Node6&#45;&gt;Node6 -->
<g id="edge8" class="edge">
<title>Node6&#45;&gt;Node6</title>
<path fill="none" stroke="#9a32cd" stroke-dasharray="5,2" d="M247.6967,-151.2867C252.2336,-150.2162 255.2437,-148.1207 255.2437,-145 255.2437,-139.8789 247.1377,-137.5184 237.4803,-137.9185"/>
<polygon fill="#9a32cd" stroke="#9a32cd" points="247.1786,-147.8163 237.4803,-152.0815 247.7217,-154.7952 247.1786,-147.8163"/>
<text text-anchor="middle" x="270.5293" y="-152" font-family="Helvetica,sans-Serif" font-size="10.00" fill="#000000"> r_next</text>
<text text-anchor="middle" x="270.5293" y="-142" font-family="Helvetica,sans-Serif" font-size="10.00" fill="#000000">prev</text>
<text text-anchor="middle" x="270.5293" y="-132" font-family="Helvetica,sans-Serif" font-size="10.00" fill="#000000">next</text>
</g>
<!-- Node7 -->
<g id="node7" class="node">
<title>Node7</title>
<g id="a_node7"><a xlink:href="struct__pktin__t.html" target="_top" xlink:title="The structure of an incoming packet. ">
<polygon fill="#ffffff" stroke="#000000" points="302.8892,-136 302.8892,-154 353.9136,-154 353.9136,-136 302.8892,-136"/>
<text text-anchor="middle" x="328.4014" y="-142" font-family="Helvetica,sans-Serif" font-size="10.00" fill="#000000">_pktin_t</text>
</a>
</g>
</g>
<!-- Node7&#45;&gt;Node2 -->
<g id="edge9" class="edge">
<title>Node7&#45;&gt;Node2</title>
<path fill="none" stroke="#9a32cd" stroke-dasharray="5,2" d="M320.7396,-126.3741C315.1235,-112.7211 307.7322,-94.7526 303.2861,-83.9439"/>
<polygon fill="#9a32cd" stroke="#9a32cd" points="317.569,-127.8667 324.6101,-135.7834 324.0427,-125.2037 317.569,-127.8667"/>
<text text-anchor="middle" x="327.3521" y="-104" font-family="Helvetica,sans-Serif" font-size="10.00" fill="#000000"> pktin</text>
</g>
<!-- Node8 -->
<g id="node8" class="node">
<title>Node8</title>
<g id="a_node8"><a xlink:href="struct__port__t.html" target="_top" xlink:title="The structure of a port. ">
<polygon fill="#ffffff" stroke="#000000" points="371.835,-136 371.835,-154 418.9678,-154 418.9678,-136 371.835,-136"/>
<text text-anchor="middle" x="395.4014" y="-142" font-family="Helvetica,sans-Serif" font-size="10.00" fill="#000000">_port_t</text>
</a>
</g>
</g>
<!-- Node8&#45;&gt;Node2 -->
<g id="edge10" class="edge">
<title>Node8&#45;&gt;Node2</title>
<path fill="none" stroke="#9a32cd" stroke-dasharray="5,2" d="M377.1515,-128.9022C367.3877,-120.5509 355.0127,-110.3733 343.4014,-102 334.3413,-95.4665 323.735,-88.8103 315.2059,-83.6831"/>
<polygon fill="#9a32cd" stroke="#9a32cd" points="375.1248,-131.7772 384.9747,-135.6798 379.7084,-126.4865 375.1248,-131.7772"/>
<text text-anchor="middle" x="364.4063" y="-104" font-family="Helvetica,sans-Serif" font-size="10.00" fill="#000000"> port</text>
</g>
<!-- Node8&#45;&gt;Node8 -->
<g id="edge11" class="edge">
<title>Node8&#45;&gt;Node8</title>
<path fill="none" stroke="#9a32cd" stroke-dasharray="5,2" d="M429.4706,-151.2867C433.9776,-150.2162 436.9678,-148.1207 436.9678,-145 436.9678,-139.8789 428.9153,-137.5184 419.3215,-137.9185"/>
<polygon fill="#9a32cd" stroke="#9a32cd" points="429.0177,-147.8113 419.3215,-152.0815 429.5643,-154.79 429.0177,-147.8113"/>
<text text-anchor="middle" x="448.0835" y="-147" font-family="Helvetica,sans-Serif" font-size="10.00" fill="#000000"> prev</text>
<text text-anchor="middle" x="448.0835" y="-137" font-family="Helvetica,sans-Serif" font-size="10.00" fill="#000000">next</text>
</g>
<!-- Node9 -->
<g id="node9" class="node">
<title>Node9</title>
<g id="a_node9"><a xlink:href="struct__switch__t.html" target="_top" xlink:title="The structure of a switch. ">
<polygon fill="#ffffff" stroke="#000000" points="476.5591,-136 476.5591,-154 534.2437,-154 534.2437,-136 476.5591,-136"/>
<text text-anchor="middle" x="505.4014" y="-142" font-family="Helvetica,sans-Serif" font-size="10.00" fill="#000000">_switch_t</text>
</a>
</g>
</g>
<!-- Node9&#45;&gt;Node2 -->
<g id="edge12" class="edge">
<title>Node9&#45;&gt;Node2</title>
<path fill="none" stroke="#9a32cd" stroke-dasharray="5,2" d="M474.0695,-132.1266C472.1566,-131.3939 470.2562,-130.6797 468.4014,-130 419.9771,-112.2561 362.813,-94.0443 328.9189,-83.526"/>
<polygon fill="#9a32cd" stroke="#9a32cd" points="472.997,-135.4657 483.5842,-135.8692 475.5595,-128.9516 472.997,-135.4657"/>
<text text-anchor="middle" x="419.9014" y="-104" font-family="Helvetica,sans-Serif" font-size="10.00" fill="#000000"> sw</text>
</g>
<!-- Node9&#45;&gt;Node9 -->
<g id="edge13" class="edge">
<title>Node9&#45;&gt;Node9</title>
<path fill="none" stroke="#9a32cd" stroke-dasharray="5,2" d="M544.8715,-151.0378C549.3446,-149.9071 552.2437,-147.8945 552.2437,-145 552.2437,-140.25 544.4366,-137.875 534.6778,-137.875"/>
<polygon fill="#9a32cd" stroke="#9a32cd" points="544.2502,-147.5841 534.6778,-152.125 544.9926,-154.5447 544.2502,-147.5841"/>
<text text-anchor="middle" x="563.3594" y="-147" font-family="Helvetica,sans-Serif" font-size="10.00" fill="#000000"> prev</text>
<text text-anchor="middle" x="563.3594" y="-137" font-family="Helvetica,sans-Serif" font-size="10.00" fill="#000000">next</text>
</g>
<!-- Node10 -->
<g id="node10" class="node">
<title>Node10</title>
<g id="a_node10"><a xlink:href="struct__cli__t.html" target="_top" xlink:title="The context structure of the CLI. ">
<polygon fill="#ffffff" stroke="#000000" points="355.729,-65.5 355.729,-83.5 395.0737,-83.5 395.0737,-65.5 355.729,-65.5"/>
<text text-anchor="middle" x="375.4014" y="-71.5" font-family="Helvetica,sans-Serif" font-size="10.00" fill="#000000">_cli_t</text>
</a>
</g>
</g>
<!-- Node10&#45;&gt;Node1 -->
<g id="edge14" class="edge">
<title>Node10&#45;&gt;Node1</title>
<path fill="none" stroke="#9a32cd" stroke-dasharray="5,2" d="M364.9325,-56.5926C357.7955,-44.3846 348.6317,-28.7097 342.8863,-18.8821"/>
<polygon fill="#9a32cd" stroke="#9a32cd" points="362.0491,-58.5955 370.1176,-65.462 368.0922,-55.0626 362.0491,-58.5955"/>
<text text-anchor="middle" x="364.5122" y="-39" font-family="Helvetica,sans-Serif" font-size="10.00" fill="#000000"> cli</text>
</g>
</g>
</svg>
