<?xml version="1.0" encoding="UTF-8" standalone="no"?>
<!DOCTYPE svg PUBLIC "-//W3C//DTD SVG 1.1//EN"
 "http://www.w3.org/Graphics/SVG/1.1/DTD/svg11.dtd">
<!-- Generated by graphviz version 2.40.1 (20161225.0304)
 -->
<!-- Title: _port_t Pages: 1 -->
<svg width="249pt" height="92pt"
 viewBox="0.00 0.00 249.26 92.00" xmlns="http://www.w3.org/2000/svg" xmlns:xlink="http://www.w3.org/1999/xlink">
<g id="graph0" class="graph" transform="scale(1 1) rotate(0) translate(4 88)">
<title>_port_t</title>
<polygon fill="#ffffff" stroke="transparent" points="-4,4 -4,-88 245.2559,-88 245.2559,4 -4,4"/>
<!-- Node1 -->
<g id="node1" class="node">
<title>Node1</title>
<polygon fill="#bfbfbf" stroke="#000000" points="96.2832,-.5 96.2832,-18.5 143.416,-18.5 143.416,-.5 96.2832,-.5"/>
<text text-anchor="middle" x="119.8496" y="-6.5" font-family="Helvetica,sans-Serif" font-size="10.00" fill="#000000">_port_t</text>
</g>
<!-- Node2 -->
<g id="node2" class="node">
<title>Node2</title>
<g id="a_node2"><a xlink:href="struct__port__link__t.html" target="_top" xlink:title="The structure of a link. ">
<polygon fill="#ffffff" stroke="#000000" points="0,-65.5 0,-83.5 67.6992,-83.5 67.6992,-65.5 0,-65.5"/>
<text text-anchor="middle" x="33.8496" y="-71.5" font-family="Helvetica,sans-Serif" font-size="10.00" fill="#000000">_port_link_t</text>
</a>
</g>
</g>
<!-- Node2&#45;&gt;Node1 -->
<g id="edge1" class="edge">
<title>Node2&#45;&gt;Node1</title>
<path fill="none" stroke="#9a32cd" stroke-dasharray="5,2" d="M53.846,-59.3865C70.5169,-46.7864 93.7253,-29.2451 107.716,-18.6708"/>
<polygon fill="#9a32cd" stroke="#9a32cd" points="51.6749,-56.6402 45.8075,-65.462 55.8956,-62.2245 51.6749,-56.6402"/>
<text text-anchor="middle" x="91.7412" y="-39" font-family="Helvetica,sans-Serif" font-size="10.00" fill="#000000"> link</text>
</g>
<!-- Node3 -->
<g id="node3" class="node">
<title>Node3</title>
<g id="a_node3"><a xlink:href="struct__port__info__t.html" target="_top" xlink:title="The structure of port information. ">
<polygon fill="#ffffff" stroke="#000000" points="85.4409,-65.5 85.4409,-83.5 154.2583,-83.5 154.2583,-65.5 85.4409,-65.5"/>
<text text-anchor="middle" x="119.8496" y="-71.5" font-family="Helvetica,sans-Serif" font-size="10.00" fill="#000000">_port_info_t</text>
</a>
</g>
</g>
<!-- Node3&#45;&gt;Node1 -->
<g id="edge2" class="edge">
<title>Node3&#45;&gt;Node1</title>
<path fill="none" stroke="#9a32cd" stroke-dasharray="5,2" d="M119.8496,-55.1265C119.8496,-43.1522 119.8496,-28.3205 119.8496,-18.8821"/>
<polygon fill="#9a32cd" stroke="#9a32cd" points="116.3497,-55.462 119.8496,-65.462 123.3497,-55.4621 116.3497,-55.462"/>
<text text-anchor="middle" x="129.3003" y="-39" font-family="Helvetica,sans-Serif" font-size="10.00" fill="#000000"> info</text>
</g>
<!-- Node4 -->
<g id="node4" class="node">
<title>Node4</title>
<g id="a_node4"><a xlink:href="struct__port__stat__t.html" target="_top" xlink:title="The structure of port statistics. ">
<polygon fill="#ffffff" stroke="#000000" points="172.4434,-65.5 172.4434,-83.5 241.2559,-83.5 241.2559,-65.5 172.4434,-65.5"/>
<text text-anchor="middle" x="206.8496" y="-71.5" font-family="Helvetica,sans-Serif" font-size="10.00" fill="#000000">_port_stat_t</text>
</a>
</g>
</g>
<!-- Node4&#45;&gt;Node1 -->
<g id="edge3" class="edge">
<title>Node4&#45;&gt;Node1</title>
<path fill="none" stroke="#9a32cd" stroke-dasharray="5,2" d="M186.6207,-59.3865C169.756,-46.7864 146.2777,-29.2451 132.1243,-18.6708"/>
<polygon fill="#9a32cd" stroke="#9a32cd" points="184.6467,-62.2806 194.7526,-65.462 188.8364,-56.6729 184.6467,-62.2806"/>
<text text-anchor="middle" x="177.2979" y="-39" font-family="Helvetica,sans-Serif" font-size="10.00" fill="#000000"> stat</text>
</g>
</g>
</svg>
