<?xml version="1.0" encoding="UTF-8" standalone="no"?>
<!DOCTYPE svg PUBLIC "-//W3C//DTD SVG 1.1//EN"
 "http://www.w3.org/Graphics/SVG/1.1/DTD/svg11.dtd">
<!-- Generated by graphviz version 2.40.1 (20161225.0304)
 -->
<!-- Title: _mac_table_t Pages: 1 -->
<svg width="133pt" height="113pt"
 viewBox="0.00 0.00 133.16 113.00" xmlns="http://www.w3.org/2000/svg" xmlns:xlink="http://www.w3.org/1999/xlink">
<g id="graph0" class="graph" transform="scale(1 1) rotate(0) translate(4 109)">
<title>_mac_table_t</title>
<polygon fill="#ffffff" stroke="transparent" points="-4,4 -4,-109 129.1572,-109 129.1572,4 -4,4"/>
<!-- Node1 -->
<g id="node1" class="node">
<title>Node1</title>
<polygon fill="#bfbfbf" stroke="#000000" points=".2734,-.5 .2734,-18.5 76.3125,-18.5 76.3125,-.5 .2734,-.5"/>
<text text-anchor="middle" x="38.293" y="-6.5" font-family="Helvetica,sans-Serif" font-size="10.00" fill="#000000">_mac_table_t</text>
</g>
<!-- Node2 -->
<g id="node2" class="node">
<title>Node2</title>
<g id="a_node2"><a xlink:href="struct__mac__entry__t.html" target="_top" xlink:title="The structure of a MAC entry. ">
<polygon fill="#ffffff" stroke="#000000" points="0,-81 0,-99 76.5859,-99 76.5859,-81 0,-81"/>
<text text-anchor="middle" x="38.293" y="-87" font-family="Helvetica,sans-Serif" font-size="10.00" fill="#000000">_mac_entry_t</text>
</a>
</g>
</g>
<!-- Node2&#45;&gt;Node1 -->
<g id="edge1" class="edge">
<title>Node2&#45;&gt;Node1</title>
<path fill="none" stroke="#9a32cd" stroke-dasharray="5,2" d="M38.293,-70.5894C38.293,-54.1062 38.293,-31.1843 38.293,-18.6267"/>
<polygon fill="#9a32cd" stroke="#9a32cd" points="34.7931,-70.7656 38.293,-80.7656 41.7931,-70.7657 34.7931,-70.7656"/>
<text text-anchor="middle" x="50.8052" y="-49" font-family="Helvetica,sans-Serif" font-size="10.00" fill="#000000"> head</text>
<text text-anchor="middle" x="50.8052" y="-39" font-family="Helvetica,sans-Serif" font-size="10.00" fill="#000000">tail</text>
</g>
<!-- Node2&#45;&gt;Node2 -->
<g id="edge2" class="edge">
<title>Node2&#45;&gt;Node2</title>
<path fill="none" stroke="#9a32cd" stroke-dasharray="5,2" d="M86.8347,-96.3945C91.576,-95.1051 94.5859,-92.9736 94.5859,-90 94.5859,-85.2422 86.8805,-82.6403 76.7068,-82.1942"/>
<polygon fill="#9a32cd" stroke="#9a32cd" points="86.1281,-92.959 76.7068,-97.8058 87.0942,-99.892 86.1281,-92.959"/>
<text text-anchor="middle" x="109.8716" y="-97" font-family="Helvetica,sans-Serif" font-size="10.00" fill="#000000"> r_next</text>
<text text-anchor="middle" x="109.8716" y="-87" font-family="Helvetica,sans-Serif" font-size="10.00" fill="#000000">prev</text>
<text text-anchor="middle" x="109.8716" y="-77" font-family="Helvetica,sans-Serif" font-size="10.00" fill="#000000">next</text>
</g>
</g>
</svg>
