<?xml version="1.0" encoding="UTF-8" standalone="no"?>
<!DOCTYPE svg PUBLIC "-//W3C//DTD SVG 1.1//EN"
 "http://www.w3.org/Graphics/SVG/1.1/DTD/svg11.dtd">
<!-- Generated by graphviz version 2.40.1 (20161225.0304)
 -->
<!-- Title: _compnt_t Pages: 1 -->
<svg width="469pt" height="532pt"
 viewBox="0.00 0.00 469.06 532.00" xmlns="http://www.w3.org/2000/svg" xmlns:xlink="http://www.w3.org/1999/xlink">
<g id="graph0" class="graph" transform="scale(1 1) rotate(0) translate(4 528)">
<title>_compnt_t</title>
<polygon fill="#ffffff" stroke="transparent" points="-4,4 -4,-528 465.0576,-528 465.0576,4 -4,4"/>
<!-- Node1 -->
<g id="node1" class="node">
<title>Node1</title>
<polygon fill="#bfbfbf" stroke="#000000" points="398.3633,-242.5 398.3633,-260.5 461.0576,-260.5 461.0576,-242.5 398.3633,-242.5"/>
<text text-anchor="middle" x="429.7104" y="-248.5" font-family="Helvetica,sans-Serif" font-size="10.00" fill="#000000">_compnt_t</text>
</g>
<!-- Node2 -->
<g id="node2" class="node">
<title>Node2</title>
<g id="a_node2"><a xlink:href="struct__cli__t.html" target="_top" xlink:title="The context structure of the CLI. ">
<polygon fill="#ffffff" stroke="#000000" points="279.3711,-279.5 279.3711,-297.5 318.7158,-297.5 318.7158,-279.5 279.3711,-279.5"/>
<text text-anchor="middle" x="299.0435" y="-285.5" font-family="Helvetica,sans-Serif" font-size="10.00" fill="#000000">_cli_t</text>
</a>
</g>
</g>
<!-- Node2&#45;&gt;Node1 -->
<g id="edge1" class="edge">
<title>Node2&#45;&gt;Node1</title>
<path fill="none" stroke="#9a32cd" stroke-dasharray="5,2" d="M328.7614,-280.1009C344.1614,-275.747 363.2736,-270.341 380.3633,-265.5 386.104,-263.8738 392.2199,-262.1399 398.1214,-260.466"/>
<polygon fill="#9a32cd" stroke="#9a32cd" points="327.4342,-276.8389 318.7635,-282.9273 329.3385,-283.5749 327.4342,-276.8389"/>
<text text-anchor="middle" x="362.2944" y="-277.5" font-family="Helvetica,sans-Serif" font-size="10.00" fill="#000000"> cli</text>
</g>
<!-- Node3 -->
<g id="node3" class="node">
<title>Node3</title>
<g id="a_node3"><a xlink:href="struct__event__t.html" target="_top" xlink:title="The structure of an event (read&#45;only) ">
<polygon fill="#ffffff" stroke="#000000" points="271.8613,-242.5 271.8613,-260.5 326.2256,-260.5 326.2256,-242.5 271.8613,-242.5"/>
<text text-anchor="middle" x="299.0435" y="-248.5" font-family="Helvetica,sans-Serif" font-size="10.00" fill="#000000">_event_t</text>
</a>
</g>
</g>
<!-- Node3&#45;&gt;Node1 -->
<g id="edge2" class="edge">
<title>Node3&#45;&gt;Node1</title>
<path fill="none" stroke="#9a32cd" stroke-dasharray="5,2" d="M336.514,-251.5C356.0389,-251.5 379.6493,-251.5 398.2202,-251.5"/>
<polygon fill="#9a32cd" stroke="#9a32cd" points="336.4356,-248.0001 326.4355,-251.5 336.4355,-255.0001 336.4356,-248.0001"/>
<text text-anchor="middle" x="362.2944" y="-253.5" font-family="Helvetica,sans-Serif" font-size="10.00" fill="#000000"> handler</text>
</g>
<!-- Node4 -->
<g id="node4" class="node">
<title>Node4</title>
<g id="a_node4"><a xlink:href="struct__host__t.html" target="_top" xlink:title="The structure of a host. ">
<polygon fill="#ffffff" stroke="#000000" points="132.8813,-457.5 132.8813,-475.5 181.6841,-475.5 181.6841,-457.5 132.8813,-457.5"/>
<text text-anchor="middle" x="157.2827" y="-463.5" font-family="Helvetica,sans-Serif" font-size="10.00" fill="#000000">_host_t</text>
</a>
</g>
</g>
<!-- Node4&#45;&gt;Node3 -->
<g id="edge3" class="edge">
<title>Node4&#45;&gt;Node3</title>
<path fill="none" stroke="#9a32cd" stroke-dasharray="5,2" d="M191.574,-455.7593C213.1691,-447.114 239.5763,-432.6872 253.8613,-410.5 287.8222,-357.7528 239.3757,-324.1683 271.8613,-270.5 274.2465,-266.5595 277.7955,-263.2264 281.5479,-260.5058"/>
<polygon fill="#9a32cd" stroke="#9a32cd" points="190.1848,-452.5422 182.0514,-459.3317 192.6436,-459.0962 190.1848,-452.5422"/>
<text text-anchor="middle" x="232.189" y="-448.5" font-family="Helvetica,sans-Serif" font-size="10.00" fill="#000000"> host</text>
</g>
<!-- Node4&#45;&gt;Node4 -->
<g id="edge4" class="edge">
<title>Node4&#45;&gt;Node4</title>
<path fill="none" stroke="#9a32cd" stroke-dasharray="5,2" d="M145.012,-485.2336C145.6998,-490.2195 149.79,-494 157.2827,-494 169.271,-494 172.549,-484.322 167.1169,-475.5134"/>
<polygon fill="#9a32cd" stroke="#9a32cd" points="148.412,-486.0644 147.4486,-475.5134 141.622,-484.3623 148.412,-486.0644"/>
<text text-anchor="middle" x="157.2827" y="-516" font-family="Helvetica,sans-Serif" font-size="10.00" fill="#000000"> r_next</text>
<text text-anchor="middle" x="157.2827" y="-506" font-family="Helvetica,sans-Serif" font-size="10.00" fill="#000000">prev</text>
<text text-anchor="middle" x="157.2827" y="-496" font-family="Helvetica,sans-Serif" font-size="10.00" fill="#000000">next</text>
</g>
<!-- Node5 -->
<g id="node5" class="node">
<title>Node5</title>
<g id="a_node5"><a xlink:href="struct__pktout__t.html" target="_top" xlink:title="The structure of an outgoing packet. ">
<polygon fill="#ffffff" stroke="#000000" points="128.7114,-420.5 128.7114,-438.5 185.854,-438.5 185.854,-420.5 128.7114,-420.5"/>
<text text-anchor="middle" x="157.2827" y="-426.5" font-family="Helvetica,sans-Serif" font-size="10.00" fill="#000000">_pktout_t</text>
</a>
</g>
</g>
<!-- Node5&#45;&gt;Node3 -->
<g id="edge5" class="edge">
<title>Node5&#45;&gt;Node3</title>
<path fill="none" stroke="#9a32cd" stroke-dasharray="5,2" d="M186.9075,-415.4045C188.8564,-414.1633 190.7456,-412.8591 192.5166,-411.5 224.8069,-386.7198 234.782,-379.4542 253.8613,-343.5 269.5251,-313.9824 252.9586,-298.0559 271.8613,-270.5 274.532,-266.6067 278.2807,-263.2581 282.1428,-260.5048"/>
<polygon fill="#9a32cd" stroke="#9a32cd" points="185.0971,-412.408 178.1631,-420.4187 188.5792,-418.4805 185.0971,-412.408"/>
<text text-anchor="middle" x="232.189" y="-398.5" font-family="Helvetica,sans-Serif" font-size="10.00" fill="#000000"> pktout</text>
</g>
<!-- Node6 -->
<g id="node6" class="node">
<title>Node6</title>
<g id="a_node6"><a xlink:href="struct__action__t.html" target="_top" xlink:title="The structure of an action. ">
<polygon fill="#ffffff" stroke="#000000" points="0,-377.5 0,-395.5 56.5859,-395.5 56.5859,-377.5 0,-377.5"/>
<text text-anchor="middle" x="28.293" y="-383.5" font-family="Helvetica,sans-Serif" font-size="10.00" fill="#000000">_action_t</text>
</a>
</g>
</g>
<!-- Node6&#45;&gt;Node5 -->
<g id="edge6" class="edge">
<title>Node6&#45;&gt;Node5</title>
<path fill="none" stroke="#9a32cd" stroke-dasharray="5,2" d="M65.0999,-398.77C85.8693,-405.6936 111.3672,-414.1936 130.2778,-420.4977"/>
<polygon fill="#9a32cd" stroke="#9a32cd" points="65.9271,-395.3564 55.3334,-395.5142 63.7133,-401.9971 65.9271,-395.3564"/>
<text text-anchor="middle" x="89.3174" y="-412.5" font-family="Helvetica,sans-Serif" font-size="10.00" fill="#000000"> action</text>
</g>
<!-- Node7 -->
<g id="node7" class="node">
<title>Node7</title>
<g id="a_node7"><a xlink:href="struct__flow__t.html" target="_top" xlink:title="The structure of a flow. ">
<polygon fill="#ffffff" stroke="#000000" points="133.4404,-335.5 133.4404,-353.5 181.125,-353.5 181.125,-335.5 133.4404,-335.5"/>
<text text-anchor="middle" x="157.2827" y="-341.5" font-family="Helvetica,sans-Serif" font-size="10.00" fill="#000000">_flow_t</text>
</a>
</g>
</g>
<!-- Node6&#45;&gt;Node7 -->
<g id="edge8" class="edge">
<title>Node6&#45;&gt;Node7</title>
<path fill="none" stroke="#9a32cd" stroke-dasharray="5,2" d="M65.5566,-374.3667C87.3096,-367.2837 114.1252,-358.5524 133.1307,-352.3641"/>
<polygon fill="#9a32cd" stroke="#9a32cd" points="64.3895,-371.0658 55.9645,-377.4899 66.5568,-377.7218 64.3895,-371.0658"/>
<text text-anchor="middle" x="89.3174" y="-371.5" font-family="Helvetica,sans-Serif" font-size="10.00" fill="#000000"> action</text>
</g>
<!-- Node7&#45;&gt;Node3 -->
<g id="edge7" class="edge">
<title>Node7&#45;&gt;Node3</title>
<path fill="none" stroke="#9a32cd" stroke-dasharray="5,2" d="M191.0187,-337.2055C211.2032,-331.4184 236.2658,-321.5594 253.8613,-305.5 266.7812,-293.708 260.3552,-283.6751 271.8613,-270.5 275.1184,-266.7704 279.2548,-263.4025 283.3121,-260.574"/>
<polygon fill="#9a32cd" stroke="#9a32cd" points="190.0294,-333.8469 181.2654,-339.8003 191.8292,-340.6116 190.0294,-333.8469"/>
<text text-anchor="middle" x="232.189" y="-331.5" font-family="Helvetica,sans-Serif" font-size="10.00" fill="#000000"> flow</text>
</g>
<!-- Node7&#45;&gt;Node7 -->
<g id="edge9" class="edge">
<title>Node7&#45;&gt;Node7</title>
<path fill="none" stroke="#9a32cd" stroke-dasharray="5,2" d="M145.012,-363.2336C145.6998,-368.2195 149.79,-372 157.2827,-372 169.271,-372 172.549,-362.322 167.1169,-353.5134"/>
<polygon fill="#9a32cd" stroke="#9a32cd" points="148.412,-364.0644 147.4486,-353.5134 141.622,-362.3623 148.412,-364.0644"/>
<text text-anchor="middle" x="157.2827" y="-394" font-family="Helvetica,sans-Serif" font-size="10.00" fill="#000000"> r_next</text>
<text text-anchor="middle" x="157.2827" y="-384" font-family="Helvetica,sans-Serif" font-size="10.00" fill="#000000">prev</text>
<text text-anchor="middle" x="157.2827" y="-374" font-family="Helvetica,sans-Serif" font-size="10.00" fill="#000000">next</text>
</g>
<!-- Node8 -->
<g id="node8" class="node">
<title>Node8</title>
<g id="a_node8"><a xlink:href="struct__msg__t.html" target="_top" xlink:title="The structure of a message. ">
<polygon fill="#ffffff" stroke="#000000" points="132.8862,-298.5 132.8862,-316.5 181.6792,-316.5 181.6792,-298.5 132.8862,-298.5"/>
<text text-anchor="middle" x="157.2827" y="-304.5" font-family="Helvetica,sans-Serif" font-size="10.00" fill="#000000">_msg_t</text>
</a>
</g>
</g>
<!-- Node8&#45;&gt;Node3 -->
<g id="edge10" class="edge">
<title>Node8&#45;&gt;Node3</title>
<path fill="none" stroke="#9a32cd" stroke-dasharray="5,2" d="M191.8337,-298.1881C210.5203,-292.7115 233.8125,-285.166 253.8613,-276.5 264.3945,-271.9471 275.69,-265.6971 284.3522,-260.5853"/>
<polygon fill="#9a32cd" stroke="#9a32cd" points="190.6255,-294.8933 181.9759,-301.0118 192.5531,-301.6227 190.6255,-294.8933"/>
<text text-anchor="middle" x="232.189" y="-293.5" font-family="Helvetica,sans-Serif" font-size="10.00" fill="#000000"> msg</text>
</g>
<!-- Node9 -->
<g id="node9" class="node">
<title>Node9</title>
<g id="a_node9"><a xlink:href="struct__raw__msg__t.html" target="_top" xlink:title="The structure of a raw message. ">
<polygon fill="#ffffff" stroke="#000000" points="122.0488,-261.5 122.0488,-279.5 192.5166,-279.5 192.5166,-261.5 122.0488,-261.5"/>
<text text-anchor="middle" x="157.2827" y="-267.5" font-family="Helvetica,sans-Serif" font-size="10.00" fill="#000000">_raw_msg_t</text>
</a>
</g>
</g>
<!-- Node9&#45;&gt;Node3 -->
<g id="edge11" class="edge">
<title>Node9&#45;&gt;Node3</title>
<path fill="none" stroke="#9a32cd" stroke-dasharray="5,2" d="M202.7876,-264.401C225.465,-261.3616 252.1349,-257.7871 271.6436,-255.1724"/>
<polygon fill="#9a32cd" stroke="#9a32cd" points="202.1357,-260.957 192.6893,-265.7545 203.0656,-267.895 202.1357,-260.957"/>
<text text-anchor="middle" x="232.189" y="-264.5" font-family="Helvetica,sans-Serif" font-size="10.00" fill="#000000"> raw_msg</text>
</g>
<!-- Node10 -->
<g id="node10" class="node">
<title>Node10</title>
<g id="a_node10"><a xlink:href="struct__traffic__t.html" target="_top" xlink:title="The structure of traffic usage. ">
<polygon fill="#ffffff" stroke="#000000" points="130.1079,-224.5 130.1079,-242.5 184.4575,-242.5 184.4575,-224.5 130.1079,-224.5"/>
<text text-anchor="middle" x="157.2827" y="-230.5" font-family="Helvetica,sans-Serif" font-size="10.00" fill="#000000">_traffic_t</text>
</a>
</g>
</g>
<!-- Node10&#45;&gt;Node3 -->
<g id="edge12" class="edge">
<title>Node10&#45;&gt;Node3</title>
<path fill="none" stroke="#9a32cd" stroke-dasharray="5,2" d="M194.6319,-233.4513C212.6376,-233.9313 234.4822,-235.2544 253.8613,-238.5 259.6575,-239.4707 265.7673,-240.9238 271.5558,-242.511"/>
<polygon fill="#9a32cd" stroke="#9a32cd" points="194.5867,-229.9499 184.5216,-233.2579 194.4528,-236.9486 194.5867,-229.9499"/>
<text text-anchor="middle" x="232.189" y="-240.5" font-family="Helvetica,sans-Serif" font-size="10.00" fill="#000000"> traffic</text>
</g>
<!-- Node11 -->
<g id="node11" class="node">
<title>Node11</title>
<g id="a_node11"><a xlink:href="struct__resource__t.html" target="_top" xlink:title="The structure of resource usage. ">
<polygon fill="#ffffff" stroke="#000000" points="122.8789,-187.5 122.8789,-205.5 191.6865,-205.5 191.6865,-187.5 122.8789,-187.5"/>
<text text-anchor="middle" x="157.2827" y="-193.5" font-family="Helvetica,sans-Serif" font-size="10.00" fill="#000000">_resource_t</text>
</a>
</g>
</g>
<!-- Node11&#45;&gt;Node3 -->
<g id="edge13" class="edge">
<title>Node11&#45;&gt;Node3</title>
<path fill="none" stroke="#9a32cd" stroke-dasharray="5,2" d="M202.1373,-203.0434C218.9075,-206.5437 237.7756,-211.7809 253.8613,-219.5 262.9986,-223.8848 263.6303,-227.5868 271.8613,-233.5 275.9984,-236.4721 280.5862,-239.5792 284.7965,-242.359"/>
<polygon fill="#9a32cd" stroke="#9a32cd" points="202.4934,-199.5474 192.0103,-201.0818 201.1622,-206.4196 202.4934,-199.5474"/>
<text text-anchor="middle" x="232.189" y="-221.5" font-family="Helvetica,sans-Serif" font-size="10.00" fill="#000000"> resource</text>
</g>
<!-- Node12 -->
<g id="node12" class="node">
<title>Node12</title>
<g id="a_node12"><a xlink:href="struct__pktin__t.html" target="_top" xlink:title="The structure of an incoming packet. ">
<polygon fill="#ffffff" stroke="#000000" points="131.7705,-150.5 131.7705,-168.5 182.7949,-168.5 182.7949,-150.5 131.7705,-150.5"/>
<text text-anchor="middle" x="157.2827" y="-156.5" font-family="Helvetica,sans-Serif" font-size="10.00" fill="#000000">_pktin_t</text>
</a>
</g>
</g>
<!-- Node12&#45;&gt;Node3 -->
<g id="edge14" class="edge">
<title>Node12&#45;&gt;Node3</title>
<path fill="none" stroke="#9a32cd" stroke-dasharray="5,2" d="M193.2078,-164.0555C213.1653,-168.2392 237.2443,-176.2377 253.8613,-191.5 268.8185,-205.2378 258.8498,-217.9069 271.8613,-233.5 274.6898,-236.8897 278.3182,-239.8848 281.9963,-242.4111"/>
<polygon fill="#9a32cd" stroke="#9a32cd" points="193.6796,-160.5834 183.2084,-162.1972 192.4005,-167.4655 193.6796,-160.5834"/>
<text text-anchor="middle" x="232.189" y="-193.5" font-family="Helvetica,sans-Serif" font-size="10.00" fill="#000000"> pktin</text>
</g>
<!-- Node13 -->
<g id="node13" class="node">
<title>Node13</title>
<g id="a_node13"><a xlink:href="struct__port__t.html" target="_top" xlink:title="The structure of a port. ">
<polygon fill="#ffffff" stroke="#000000" points="133.7163,-75.5 133.7163,-93.5 180.8491,-93.5 180.8491,-75.5 133.7163,-75.5"/>
<text text-anchor="middle" x="157.2827" y="-81.5" font-family="Helvetica,sans-Serif" font-size="10.00" fill="#000000">_port_t</text>
</a>
</g>
</g>
<!-- Node13&#45;&gt;Node3 -->
<g id="edge15" class="edge">
<title>Node13&#45;&gt;Node3</title>
<path fill="none" stroke="#9a32cd" stroke-dasharray="5,2" d="M185.7557,-98.2537C207.7005,-110.3253 237.0496,-129.9422 253.8613,-155.5 273.4133,-185.2237 251.5867,-204.2645 271.8613,-233.5 274.2482,-236.9418 277.5264,-239.8978 280.9812,-242.3613"/>
<polygon fill="#9a32cd" stroke="#9a32cd" points="187.338,-95.1311 176.8623,-93.5467 184.0635,-101.318 187.338,-95.1311"/>
<text text-anchor="middle" x="232.189" y="-157.5" font-family="Helvetica,sans-Serif" font-size="10.00" fill="#000000"> port</text>
</g>
<!-- Node13&#45;&gt;Node13 -->
<g id="edge16" class="edge">
<title>Node13&#45;&gt;Node13</title>
<path fill="none" stroke="#9a32cd" stroke-dasharray="5,2" d="M145.012,-103.2336C145.6998,-108.2195 149.79,-112 157.2827,-112 169.271,-112 172.549,-102.322 167.1169,-93.5134"/>
<polygon fill="#9a32cd" stroke="#9a32cd" points="148.412,-104.0644 147.4486,-93.5134 141.622,-102.3623 148.412,-104.0644"/>
<text text-anchor="middle" x="157.2827" y="-124" font-family="Helvetica,sans-Serif" font-size="10.00" fill="#000000"> prev</text>
<text text-anchor="middle" x="157.2827" y="-114" font-family="Helvetica,sans-Serif" font-size="10.00" fill="#000000">next</text>
</g>
<!-- Node14 -->
<g id="node14" class="node">
<title>Node14</title>
<g id="a_node14"><a xlink:href="struct__switch__t.html" target="_top" xlink:title="The structure of a switch. ">
<polygon fill="#ffffff" stroke="#000000" points="128.4404,-.5 128.4404,-18.5 186.125,-18.5 186.125,-.5 128.4404,-.5"/>
<text text-anchor="middle" x="157.2827" y="-6.5" font-family="Helvetica,sans-Serif" font-size="10.00" fill="#000000">_switch_t</text>
</a>
</g>
</g>
<!-- Node14&#45;&gt;Node3 -->
<g id="edge17" class="edge">
<title>Node14&#45;&gt;Node3</title>
<path fill="none" stroke="#9a32cd" stroke-dasharray="5,2" d="M180.4394,-24.4892C203.2042,-40.5876 236.9247,-68.3715 253.8613,-101.5 280.8137,-154.2195 240.3744,-183.3567 271.8613,-233.5 274.0285,-236.9512 277.1267,-239.8849 280.461,-242.3193"/>
<polygon fill="#9a32cd" stroke="#9a32cd" points="182.2436,-21.4825 172.0177,-18.7109 178.2833,-27.2545 182.2436,-21.4825"/>
<text text-anchor="middle" x="232.189" y="-103.5" font-family="Helvetica,sans-Serif" font-size="10.00" fill="#000000"> sw</text>
</g>
<!-- Node14&#45;&gt;Node14 -->
<g id="edge18" class="edge">
<title>Node14&#45;&gt;Node14</title>
<path fill="none" stroke="#9a32cd" stroke-dasharray="5,2" d="M145.012,-28.2336C145.6998,-33.2195 149.79,-37 157.2827,-37 169.271,-37 172.549,-27.322 167.1169,-18.5134"/>
<polygon fill="#9a32cd" stroke="#9a32cd" points="148.412,-29.0644 147.4486,-18.5134 141.622,-27.3623 148.412,-29.0644"/>
<text text-anchor="middle" x="157.2827" y="-49" font-family="Helvetica,sans-Serif" font-size="10.00" fill="#000000"> prev</text>
<text text-anchor="middle" x="157.2827" y="-39" font-family="Helvetica,sans-Serif" font-size="10.00" fill="#000000">next</text>
</g>
<!-- Node15 -->
<g id="node15" class="node">
<title>Node15</title>
<g id="a_node15"><a xlink:href="struct__odp__t.html" target="_top" xlink:title="The structure of an operator&#45;defined policy. ">
<polygon fill="#ffffff" stroke="#000000" points="275.7505,-205.5 275.7505,-223.5 322.3364,-223.5 322.3364,-205.5 275.7505,-205.5"/>
<text text-anchor="middle" x="299.0435" y="-211.5" font-family="Helvetica,sans-Serif" font-size="10.00" fill="#000000">_odp_t</text>
</a>
</g>
</g>
<!-- Node15&#45;&gt;Node1 -->
<g id="edge19" class="edge">
<title>Node15&#45;&gt;Node1</title>
<path fill="none" stroke="#9a32cd" stroke-dasharray="5,2" d="M332.2306,-223.8799C346.9723,-228.0482 364.5353,-233.0164 380.3633,-237.5 386.104,-239.1262 392.2199,-240.8601 398.1214,-242.534"/>
<polygon fill="#9a32cd" stroke="#9a32cd" points="333.1065,-220.4904 322.5315,-221.1378 331.2021,-227.2264 333.1065,-220.4904"/>
<text text-anchor="middle" x="362.2944" y="-239.5" font-family="Helvetica,sans-Serif" font-size="10.00" fill="#000000"> odp</text>
</g>
</g>
</svg>
