<?xml version="1.0" encoding="UTF-8" standalone="no"?>
<!DOCTYPE svg PUBLIC "-//W3C//DTD SVG 1.1//EN"
 "http://www.w3.org/Graphics/SVG/1.1/DTD/svg11.dtd">
<!-- Generated by graphviz version 2.40.1 (20161225.0304)
 -->
<!-- Title: _flow_t Pages: 1 -->
<svg width="109pt" height="103pt"
 viewBox="0.00 0.00 108.71 103.00" xmlns="http://www.w3.org/2000/svg" xmlns:xlink="http://www.w3.org/1999/xlink">
<g id="graph0" class="graph" transform="scale(1 1) rotate(0) translate(4 99)">
<title>_flow_t</title>
<polygon fill="#ffffff" stroke="transparent" points="-4,4 -4,-99 104.7065,-99 104.7065,4 -4,4"/>
<!-- Node1 -->
<g id="node1" class="node">
<title>Node1</title>
<polygon fill="#bfbfbf" stroke="#000000" points="4.4507,-6 4.4507,-24 52.1353,-24 52.1353,-6 4.4507,-6"/>
<text text-anchor="middle" x="28.293" y="-12" font-family="Helvetica,sans-Serif" font-size="10.00" fill="#000000">_flow_t</text>
</g>
<!-- Node1&#45;&gt;Node1 -->
<g id="edge2" class="edge">
<title>Node1&#45;&gt;Node1</title>
<path fill="none" stroke="#9a32cd" stroke-dasharray="5,2" d="M62.5883,-21.2867C67.1252,-20.2162 70.1353,-18.1207 70.1353,-15 70.1353,-9.8789 62.0293,-7.5184 52.3719,-7.9185"/>
<polygon fill="#9a32cd" stroke="#9a32cd" points="62.0702,-17.8163 52.3719,-22.0815 62.6133,-24.7952 62.0702,-17.8163"/>
<text text-anchor="middle" x="85.4209" y="-22" font-family="Helvetica,sans-Serif" font-size="10.00" fill="#000000"> r_next</text>
<text text-anchor="middle" x="85.4209" y="-12" font-family="Helvetica,sans-Serif" font-size="10.00" fill="#000000">prev</text>
<text text-anchor="middle" x="85.4209" y="-2" font-family="Helvetica,sans-Serif" font-size="10.00" fill="#000000">next</text>
</g>
<!-- Node2 -->
<g id="node2" class="node">
<title>Node2</title>
<g id="a_node2"><a xlink:href="struct__action__t.html" target="_top" xlink:title="The structure of an action. ">
<polygon fill="#ffffff" stroke="#000000" points="0,-76.5 0,-94.5 56.5859,-94.5 56.5859,-76.5 0,-76.5"/>
<text text-anchor="middle" x="28.293" y="-82.5" font-family="Helvetica,sans-Serif" font-size="10.00" fill="#000000">_action_t</text>
</a>
</g>
</g>
<!-- Node2&#45;&gt;Node1 -->
<g id="edge1" class="edge">
<title>Node2&#45;&gt;Node1</title>
<path fill="none" stroke="#9a32cd" stroke-dasharray="5,2" d="M28.293,-66.0661C28.293,-52.5192 28.293,-35.0407 28.293,-24.4439"/>
<polygon fill="#9a32cd" stroke="#9a32cd" points="24.7931,-66.2833 28.293,-76.2834 31.7931,-66.2834 24.7931,-66.2833"/>
<text text-anchor="middle" x="43.0244" y="-50" font-family="Helvetica,sans-Serif" font-size="10.00" fill="#000000"> action</text>
</g>
</g>
</svg>
