<?xml version="1.0" encoding="UTF-8" standalone="no"?>
<!DOCTYPE svg PUBLIC "-//W3C//DTD SVG 1.1//EN"
 "http://www.w3.org/Graphics/SVG/1.1/DTD/svg11.dtd">
<!-- Generated by graphviz version 2.40.1 (20161225.0304)
 -->
<!-- Title: _ctx_t Pages: 1 -->
<svg width="711pt" height="649pt"
 viewBox="0.00 0.00 710.63 649.00" xmlns="http://www.w3.org/2000/svg" xmlns:xlink="http://www.w3.org/1999/xlink">
<g id="graph0" class="graph" transform="scale(1 1) rotate(0) translate(4 645)">
<title>_ctx_t</title>
<polygon fill="#ffffff" stroke="transparent" points="-4,4 -4,-645 706.6328,-645 706.6328,4 -4,4"/>
<!-- Node1 -->
<g id="node1" class="node">
<title>Node1</title>
<polygon fill="#bfbfbf" stroke="#000000" points="659.9531,-362.5 659.9531,-380.5 702.6328,-380.5 702.6328,-362.5 659.9531,-362.5"/>
<text text-anchor="middle" x="681.293" y="-368.5" font-family="Helvetica,sans-Serif" font-size="10.00" fill="#000000">_ctx_t</text>
</g>
<!-- Node2 -->
<g id="node2" class="node">
<title>Node2</title>
<g id="a_node2"><a xlink:href="struct__db__info__t.html" target="_top" xlink:title="The structure of database information. ">
<polygon fill="#ffffff" stroke="#000000" points="477.0205,-427.5 477.0205,-445.5 539.7295,-445.5 539.7295,-427.5 477.0205,-427.5"/>
<text text-anchor="middle" x="508.375" y="-433.5" font-family="Helvetica,sans-Serif" font-size="10.00" fill="#000000">_db_info_t</text>
</a>
</g>
</g>
<!-- Node2&#45;&gt;Node1 -->
<g id="edge1" class="edge">
<title>Node2&#45;&gt;Node1</title>
<path fill="none" stroke="#9a32cd" stroke-dasharray="5,2" d="M549.7991,-434.1655C577.2561,-431.205 613.3521,-424.5269 641.9531,-409.5 655.403,-402.4335 667.4077,-389.3563 674.5198,-380.5422"/>
<polygon fill="#9a32cd" stroke="#9a32cd" points="549.354,-430.6919 539.7325,-435.1277 550.0202,-437.6602 549.354,-430.6919"/>
<text text-anchor="middle" x="603.313" y="-433.5" font-family="Helvetica,sans-Serif" font-size="10.00" fill="#000000"> storage</text>
</g>
<!-- Node3 -->
<g id="node3" class="node">
<title>Node3</title>
<g id="a_node3"><a xlink:href="structmeta__event__t.html" target="_top" xlink:title="The structure of a meta event. ">
<polygon fill="#ffffff" stroke="#000000" points="470.0771,-384.5 470.0771,-402.5 546.6729,-402.5 546.6729,-384.5 470.0771,-384.5"/>
<text text-anchor="middle" x="508.375" y="-390.5" font-family="Helvetica,sans-Serif" font-size="10.00" fill="#000000">meta_event_t</text>
</a>
</g>
</g>
<!-- Node3&#45;&gt;Node1 -->
<g id="edge2" class="edge">
<title>Node3&#45;&gt;Node1</title>
<path fill="none" stroke="#9a32cd" stroke-dasharray="5,2" d="M556.9172,-387.3241C590.774,-383.0165 634.3043,-377.4783 659.8675,-374.2259"/>
<polygon fill="#9a32cd" stroke="#9a32cd" points="556.2294,-383.8833 546.7511,-388.6175 557.1129,-390.8273 556.2294,-383.8833"/>
<text text-anchor="middle" x="603.313" y="-397.5" font-family="Helvetica,sans-Serif" font-size="10.00" fill="#000000"> meta_app_event</text>
<text text-anchor="middle" x="603.313" y="-387.5" font-family="Helvetica,sans-Serif" font-size="10.00" fill="#000000">meta_event</text>
</g>
<!-- Node4 -->
<g id="node4" class="node">
<title>Node4</title>
<g id="a_node4"><a xlink:href="struct__app__t.html" target="_top" xlink:title="The structure of an application. ">
<polygon fill="#ffffff" stroke="#000000" points="485.082,-286.5 485.082,-304.5 531.668,-304.5 531.668,-286.5 485.082,-286.5"/>
<text text-anchor="middle" x="508.375" y="-292.5" font-family="Helvetica,sans-Serif" font-size="10.00" fill="#000000">_app_t</text>
</a>
</g>
</g>
<!-- Node4&#45;&gt;Node1 -->
<g id="edge3" class="edge">
<title>Node4&#45;&gt;Node1</title>
<path fill="none" stroke="#9a32cd" stroke-dasharray="5,2" d="M542.1359,-295.6587C570.6428,-297.2224 611.5577,-302.9397 641.9531,-321.5 658.3557,-331.5159 670.6351,-351.0152 676.8186,-362.4793"/>
<polygon fill="#9a32cd" stroke="#9a32cd" points="541.9986,-292.1504 531.8657,-295.2446 541.7165,-299.1447 541.9986,-292.1504"/>
<text text-anchor="middle" x="603.313" y="-333.5" font-family="Helvetica,sans-Serif" font-size="10.00" fill="#000000"> av_list</text>
<text text-anchor="middle" x="603.313" y="-323.5" font-family="Helvetica,sans-Serif" font-size="10.00" fill="#000000">app_list</text>
</g>
<!-- Node5 -->
<g id="node5" class="node">
<title>Node5</title>
<g id="a_node5"><a xlink:href="struct__app__event__t.html" target="_top" xlink:title="The structure of an app event (read&#45;only) ">
<polygon fill="#ffffff" stroke="#000000" points="321.3291,-286.5 321.3291,-304.5 397.9395,-304.5 397.9395,-286.5 321.3291,-286.5"/>
<text text-anchor="middle" x="359.6343" y="-292.5" font-family="Helvetica,sans-Serif" font-size="10.00" fill="#000000">_app_event_t</text>
</a>
</g>
</g>
<!-- Node5&#45;&gt;Node4 -->
<g id="edge4" class="edge">
<title>Node5&#45;&gt;Node4</title>
<path fill="none" stroke="#9a32cd" stroke-dasharray="5,2" d="M408.2167,-294.5828C410.8289,-294.5505 413.4159,-294.5224 415.9395,-294.5 432,-294.3574 436.0166,-294.3574 452.0771,-294.5 462.8297,-294.5955 474.7362,-294.7935 484.8196,-294.9884"/>
<polygon fill="#9a32cd" stroke="#9a32cd" points="408.0482,-291.0847 398.0987,-294.7259 408.1473,-298.084 408.0482,-291.0847"/>
<text text-anchor="middle" x="434.0083" y="-296.5" font-family="Helvetica,sans-Serif" font-size="10.00" fill="#000000"> handler</text>
</g>
<!-- Node6 -->
<g id="node6" class="node">
<title>Node6</title>
<g id="a_node6"><a xlink:href="struct__host__t.html" target="_top" xlink:title="The structure of a host. ">
<polygon fill="#ffffff" stroke="#000000" points="171.7876,-498.5 171.7876,-516.5 220.5903,-516.5 220.5903,-498.5 171.7876,-498.5"/>
<text text-anchor="middle" x="196.189" y="-504.5" font-family="Helvetica,sans-Serif" font-size="10.00" fill="#000000">_host_t</text>
</a>
</g>
</g>
<!-- Node6&#45;&gt;Node5 -->
<g id="edge5" class="edge">
<title>Node6&#45;&gt;Node5</title>
<path fill="none" stroke="#9a32cd" stroke-dasharray="5,2" d="M230.5378,-498.4765C258.1978,-490.495 293.9614,-478.3139 303.3291,-466.5 340.1169,-420.1057 295.2572,-387.6604 321.3291,-334.5 327.2632,-322.4003 338.3999,-311.7243 347.1417,-304.6153"/>
<polygon fill="#9a32cd" stroke="#9a32cd" points="229.4583,-495.1442 220.7778,-501.2187 231.3517,-501.8833 229.4583,-495.1442"/>
<text text-anchor="middle" x="277.4868" y="-493.5" font-family="Helvetica,sans-Serif" font-size="10.00" fill="#000000"> host</text>
</g>
<!-- Node29 -->
<g id="node29" class="node">
<title>Node29</title>
<g id="a_node29"><a xlink:href="struct__event__t.html" target="_top" xlink:title="The structure of an event (read&#45;only) ">
<polygon fill="#ffffff" stroke="#000000" points="332.4521,-392.5 332.4521,-410.5 386.8164,-410.5 386.8164,-392.5 332.4521,-392.5"/>
<text text-anchor="middle" x="359.6343" y="-398.5" font-family="Helvetica,sans-Serif" font-size="10.00" fill="#000000">_event_t</text>
</a>
</g>
</g>
<!-- Node6&#45;&gt;Node29 -->
<g id="edge36" class="edge">
<title>Node6&#45;&gt;Node29</title>
<path fill="none" stroke="#9a32cd" stroke-dasharray="5,2" d="M230.7446,-514.8787C253.0532,-517.7323 281.8184,-517.6665 303.3291,-504.5 338.2665,-483.1153 353.0517,-431.8148 357.7921,-410.7587"/>
<polygon fill="#9a32cd" stroke="#9a32cd" points="231.0993,-511.3924 220.6858,-513.3438 230.0433,-518.3123 231.0993,-511.3924"/>
<text text-anchor="middle" x="277.4868" y="-517.5" font-family="Helvetica,sans-Serif" font-size="10.00" fill="#000000"> host</text>
</g>
<!-- Node7 -->
<g id="node7" class="node">
<title>Node7</title>
<g id="a_node7"><a xlink:href="struct__pktout__t.html" target="_top" xlink:title="The structure of an outgoing packet. ">
<polygon fill="#ffffff" stroke="#000000" points="167.6177,-385.5 167.6177,-403.5 224.7603,-403.5 224.7603,-385.5 167.6177,-385.5"/>
<text text-anchor="middle" x="196.189" y="-391.5" font-family="Helvetica,sans-Serif" font-size="10.00" fill="#000000">_pktout_t</text>
</a>
</g>
</g>
<!-- Node7&#45;&gt;Node5 -->
<g id="edge6" class="edge">
<title>Node7&#45;&gt;Node5</title>
<path fill="none" stroke="#9a32cd" stroke-dasharray="5,2" d="M225.7256,-381.1946C247.7191,-370.8485 278.1625,-355.5884 303.3291,-339.5 320.2623,-328.675 338.3119,-313.9305 349.2841,-304.562"/>
<polygon fill="#9a32cd" stroke="#9a32cd" points="224.156,-378.0644 216.5613,-385.4516 227.1051,-384.4129 224.156,-378.0644"/>
<text text-anchor="middle" x="277.4868" y="-370.5" font-family="Helvetica,sans-Serif" font-size="10.00" fill="#000000"> pktout</text>
</g>
<!-- Node7&#45;&gt;Node29 -->
<g id="edge37" class="edge">
<title>Node7&#45;&gt;Node29</title>
<path fill="none" stroke="#9a32cd" stroke-dasharray="5,2" d="M235.0141,-393.9582C255.3726,-393.9028 280.7151,-394.1926 303.3291,-395.5 312.7507,-396.0447 323.024,-397.0246 332.1853,-398.0367"/>
<polygon fill="#9a32cd" stroke="#9a32cd" points="234.8433,-390.459 224.8631,-394.0151 234.8826,-397.4589 234.8433,-390.459"/>
<text text-anchor="middle" x="277.4868" y="-397.5" font-family="Helvetica,sans-Serif" font-size="10.00" fill="#000000"> pktout</text>
</g>
<!-- Node8 -->
<g id="node8" class="node">
<title>Node8</title>
<g id="a_node8"><a xlink:href="struct__action__t.html" target="_top" xlink:title="The structure of an action. ">
<polygon fill="#ffffff" stroke="#000000" points="14.1724,-378.5 14.1724,-396.5 70.7583,-396.5 70.7583,-378.5 14.1724,-378.5"/>
<text text-anchor="middle" x="42.4653" y="-384.5" font-family="Helvetica,sans-Serif" font-size="10.00" fill="#000000">_action_t</text>
</a>
</g>
</g>
<!-- Node8&#45;&gt;Node7 -->
<g id="edge7" class="edge">
<title>Node8&#45;&gt;Node7</title>
<path fill="none" stroke="#9a32cd" stroke-dasharray="5,2" d="M81.2238,-389.2649C108.0619,-390.487 143.1968,-392.0869 167.5275,-393.1949"/>
<polygon fill="#9a32cd" stroke="#9a32cd" points="81.1682,-385.7588 71.0193,-388.8002 80.8497,-392.7516 81.1682,-385.7588"/>
<text text-anchor="middle" x="121.832" y="-393.5" font-family="Helvetica,sans-Serif" font-size="10.00" fill="#000000"> action</text>
</g>
<!-- Node9 -->
<g id="node9" class="node">
<title>Node9</title>
<g id="a_node9"><a xlink:href="struct__flow__t.html" target="_top" xlink:title="The structure of a flow. ">
<polygon fill="#ffffff" stroke="#000000" points="172.3467,-296.5 172.3467,-314.5 220.0313,-314.5 220.0313,-296.5 172.3467,-296.5"/>
<text text-anchor="middle" x="196.189" y="-302.5" font-family="Helvetica,sans-Serif" font-size="10.00" fill="#000000">_flow_t</text>
</a>
</g>
</g>
<!-- Node8&#45;&gt;Node9 -->
<g id="edge11" class="edge">
<title>Node8&#45;&gt;Node9</title>
<path fill="none" stroke="#9a32cd" stroke-dasharray="5,2" d="M72.5226,-374.2302C92.2157,-365.2674 118.3573,-352.857 140.7334,-340.5 155.4833,-332.3545 171.7135,-321.9292 182.7825,-314.5826"/>
<polygon fill="#9a32cd" stroke="#9a32cd" points="70.8193,-371.1588 63.1426,-378.4608 73.6974,-377.5398 70.8193,-371.1588"/>
<text text-anchor="middle" x="121.832" y="-361.5" font-family="Helvetica,sans-Serif" font-size="10.00" fill="#000000"> action</text>
</g>
<!-- Node9&#45;&gt;Node5 -->
<g id="edge8" class="edge">
<title>Node9&#45;&gt;Node5</title>
<path fill="none" stroke="#9a32cd" stroke-dasharray="5,2" d="M230.1401,-299.1551C237.222,-298.0668 244.6579,-297.0958 251.6445,-296.5 274.6224,-294.5404 300.4495,-294.233 321.0833,-294.4425"/>
<polygon fill="#9a32cd" stroke="#9a32cd" points="229.411,-295.7279 220.1112,-300.8038 230.5465,-302.6352 229.411,-295.7279"/>
<text text-anchor="middle" x="277.4868" y="-298.5" font-family="Helvetica,sans-Serif" font-size="10.00" fill="#000000"> flow</text>
</g>
<!-- Node9&#45;&gt;Node9 -->
<g id="edge12" class="edge">
<title>Node9&#45;&gt;Node9</title>
<path fill="none" stroke="#9a32cd" stroke-dasharray="5,2" d="M182.4309,-324.2336C183.2021,-329.2195 187.7881,-333 196.189,-333 209.6304,-333 213.3058,-323.322 207.2151,-314.5134"/>
<polygon fill="#9a32cd" stroke="#9a32cd" points="185.8265,-325.0875 185.1628,-314.5134 179.0876,-323.1934 185.8265,-325.0875"/>
<text text-anchor="middle" x="196.189" y="-355" font-family="Helvetica,sans-Serif" font-size="10.00" fill="#000000"> r_next</text>
<text text-anchor="middle" x="196.189" y="-345" font-family="Helvetica,sans-Serif" font-size="10.00" fill="#000000">prev</text>
<text text-anchor="middle" x="196.189" y="-335" font-family="Helvetica,sans-Serif" font-size="10.00" fill="#000000">next</text>
</g>
<!-- Node9&#45;&gt;Node29 -->
<g id="edge38" class="edge">
<title>Node9&#45;&gt;Node29</title>
<path fill="none" stroke="#9a32cd" stroke-dasharray="5,2" d="M230.2229,-305.357C253.2197,-306.97 282.984,-312.6009 303.3291,-329.5 318.9515,-342.4763 308.9475,-355.4022 321.3291,-371.5 327.7149,-379.8025 336.9016,-387.1005 344.6776,-392.4192"/>
<polygon fill="#9a32cd" stroke="#9a32cd" points="230.3484,-301.8591 220.1912,-304.8726 230.0107,-308.8509 230.3484,-301.8591"/>
<text text-anchor="middle" x="277.4868" y="-331.5" font-family="Helvetica,sans-Serif" font-size="10.00" fill="#000000"> flow</text>
</g>
<!-- Node10 -->
<g id="node10" class="node">
<title>Node10</title>
<g id="a_node10"><a xlink:href="struct__pkt__info__t.html" target="_top" xlink:title="The structure of a packet. ">
<polygon fill="#ffffff" stroke="#000000" points="10.0024,-205.5 10.0024,-223.5 74.9282,-223.5 74.9282,-205.5 10.0024,-205.5"/>
<text text-anchor="middle" x="42.4653" y="-211.5" font-family="Helvetica,sans-Serif" font-size="10.00" fill="#000000">_pkt_info_t</text>
</a>
</g>
</g>
<!-- Node10&#45;&gt;Node9 -->
<g id="edge9" class="edge">
<title>Node10&#45;&gt;Node9</title>
<path fill="none" stroke="#9a32cd" stroke-dasharray="5,2" d="M82.8517,-227.0165C101.6365,-234.0771 123.5653,-244.1864 140.7334,-257.5 150.991,-265.4546 149.2149,-271.6743 158.7334,-280.5 165.1543,-286.4536 173.1261,-291.9829 180.0628,-296.3197"/>
<polygon fill="#9a32cd" stroke="#9a32cd" points="83.9513,-223.6925 73.3568,-223.6014 81.582,-230.2794 83.9513,-223.6925"/>
<text text-anchor="middle" x="121.832" y="-269.5" font-family="Helvetica,sans-Serif" font-size="10.00" fill="#000000"> pkt_info</text>
<text text-anchor="middle" x="121.832" y="-259.5" font-family="Helvetica,sans-Serif" font-size="10.00" fill="#000000">match</text>
</g>
<!-- Node14 -->
<g id="node14" class="node">
<title>Node14</title>
<g id="a_node14"><a xlink:href="struct__pktin__t.html" target="_top" xlink:title="The structure of an incoming packet. ">
<polygon fill="#ffffff" stroke="#000000" points="170.6768,-252.5 170.6768,-270.5 221.7012,-270.5 221.7012,-252.5 170.6768,-252.5"/>
<text text-anchor="middle" x="196.189" y="-258.5" font-family="Helvetica,sans-Serif" font-size="10.00" fill="#000000">_pktin_t</text>
</a>
</g>
</g>
<!-- Node10&#45;&gt;Node14 -->
<g id="edge16" class="edge">
<title>Node10&#45;&gt;Node14</title>
<path fill="none" stroke="#9a32cd" stroke-dasharray="5,2" d="M67.2818,-200.9713C88.5264,-191.4111 119.0314,-182.6877 140.7334,-197.5 158.8663,-209.8763 143.8025,-227.4052 158.7334,-243.5 162.0699,-247.0966 166.2767,-250.0526 170.6559,-252.4544"/>
<polygon fill="#9a32cd" stroke="#9a32cd" points="65.7188,-197.8393 58.2373,-205.3412 68.7641,-204.1422 65.7188,-197.8393"/>
<text text-anchor="middle" x="121.832" y="-199.5" font-family="Helvetica,sans-Serif" font-size="10.00" fill="#000000"> pkt_info</text>
</g>
<!-- Node11 -->
<g id="node11" class="node">
<title>Node11</title>
<g id="a_node11"><a xlink:href="struct__flow__meta__t.html" target="_top" xlink:title="The structure of flow metadata. ">
<polygon fill="#ffffff" stroke="#000000" points="4.7266,-259.5 4.7266,-277.5 80.2041,-277.5 80.2041,-259.5 4.7266,-259.5"/>
<text text-anchor="middle" x="42.4653" y="-265.5" font-family="Helvetica,sans-Serif" font-size="10.00" fill="#000000">_flow_meta_t</text>
</a>
</g>
</g>
<!-- Node11&#45;&gt;Node9 -->
<g id="edge10" class="edge">
<title>Node11&#45;&gt;Node9</title>
<path fill="none" stroke="#9a32cd" stroke-dasharray="5,2" d="M90.0428,-279.4602C106.152,-283.2178 124.2377,-287.4877 140.7334,-291.5 151.0572,-294.0111 162.439,-296.8689 172.1907,-299.3448"/>
<polygon fill="#9a32cd" stroke="#9a32cd" points="90.8329,-276.0506 80.2999,-277.1936 89.2467,-282.8685 90.8329,-276.0506"/>
<text text-anchor="middle" x="121.832" y="-293.5" font-family="Helvetica,sans-Serif" font-size="10.00" fill="#000000"> meta</text>
</g>
<!-- Node12 -->
<g id="node12" class="node">
<title>Node12</title>
<g id="a_node12"><a xlink:href="struct__flow__stat__t.html" target="_top" xlink:title="The structure of flow statistics. ">
<polygon fill="#ffffff" stroke="#000000" points="7.7832,-333.5 7.7832,-351.5 77.1475,-351.5 77.1475,-333.5 7.7832,-333.5"/>
<text text-anchor="middle" x="42.4653" y="-339.5" font-family="Helvetica,sans-Serif" font-size="10.00" fill="#000000">_flow_stat_t</text>
</a>
</g>
</g>
<!-- Node12&#45;&gt;Node9 -->
<g id="edge13" class="edge">
<title>Node12&#45;&gt;Node9</title>
<path fill="none" stroke="#9a32cd" stroke-dasharray="5,2" d="M87.1983,-331.7331C114.8605,-325.0751 149.2934,-316.7874 171.9661,-311.3302"/>
<polygon fill="#9a32cd" stroke="#9a32cd" points="86.2509,-328.3611 77.3476,-334.1041 87.889,-335.1668 86.2509,-328.3611"/>
<text text-anchor="middle" x="121.832" y="-328.5" font-family="Helvetica,sans-Serif" font-size="10.00" fill="#000000"> stat</text>
</g>
<!-- Node13 -->
<g id="node13" class="node">
<title>Node13</title>
<g id="a_node13"><a xlink:href="struct__flow__info__t.html" target="_top" xlink:title="The structure of flow information. ">
<polygon fill="#ffffff" stroke="#000000" points="7.7808,-296.5 7.7808,-314.5 77.1499,-314.5 77.1499,-296.5 7.7808,-296.5"/>
<text text-anchor="middle" x="42.4653" y="-302.5" font-family="Helvetica,sans-Serif" font-size="10.00" fill="#000000">_flow_info_t</text>
</a>
</g>
</g>
<!-- Node13&#45;&gt;Node9 -->
<g id="edge14" class="edge">
<title>Node13&#45;&gt;Node9</title>
<path fill="none" stroke="#9a32cd" stroke-dasharray="5,2" d="M87.5627,-305.5C115.1623,-305.5 149.3929,-305.5 171.9661,-305.5"/>
<polygon fill="#9a32cd" stroke="#9a32cd" points="87.3476,-302.0001 77.3476,-305.5 87.3476,-309.0001 87.3476,-302.0001"/>
<text text-anchor="middle" x="121.832" y="-307.5" font-family="Helvetica,sans-Serif" font-size="10.00" fill="#000000"> info</text>
</g>
<!-- Node14&#45;&gt;Node5 -->
<g id="edge15" class="edge">
<title>Node14&#45;&gt;Node5</title>
<path fill="none" stroke="#9a32cd" stroke-dasharray="5,2" d="M225.828,-247.8655C228.5041,-246.4523 231.1451,-244.9872 233.6445,-243.5 242.1252,-238.454 242.2549,-233.5362 251.6445,-230.5 273.5012,-223.4326 282.4348,-220.9559 303.3291,-230.5 328.5882,-242.0378 346.8658,-271.1228 354.9728,-286.166"/>
<polygon fill="#9a32cd" stroke="#9a32cd" points="224.1139,-244.8097 216.7495,-252.4264 227.2564,-251.0647 224.1139,-244.8097"/>
<text text-anchor="middle" x="277.4868" y="-232.5" font-family="Helvetica,sans-Serif" font-size="10.00" fill="#000000"> pktin</text>
</g>
<!-- Node14&#45;&gt;Node29 -->
<g id="edge42" class="edge">
<title>Node14&#45;&gt;Node29</title>
<path fill="none" stroke="#9a32cd" stroke-dasharray="5,2" d="M232.1085,-257.8675C255.4255,-257.5859 284.8124,-261.4723 303.3291,-279.5 333.1817,-308.5642 299.5588,-335.976 321.3291,-371.5 326.6256,-380.1426 335.3733,-387.2745 343.1729,-392.4131"/>
<polygon fill="#9a32cd" stroke="#9a32cd" points="231.7438,-254.3787 221.8833,-258.2544 232.0085,-261.3737 231.7438,-254.3787"/>
<text text-anchor="middle" x="277.4868" y="-281.5" font-family="Helvetica,sans-Serif" font-size="10.00" fill="#000000"> pktin</text>
</g>
<!-- Node15 -->
<g id="node15" class="node">
<title>Node15</title>
<g id="a_node15"><a xlink:href="struct__port__t.html" target="_top" xlink:title="The structure of a port. ">
<polygon fill="#ffffff" stroke="#000000" points="172.6226,-150.5 172.6226,-168.5 219.7554,-168.5 219.7554,-150.5 172.6226,-150.5"/>
<text text-anchor="middle" x="196.189" y="-156.5" font-family="Helvetica,sans-Serif" font-size="10.00" fill="#000000">_port_t</text>
</a>
</g>
</g>
<!-- Node15&#45;&gt;Node5 -->
<g id="edge17" class="edge">
<title>Node15&#45;&gt;Node5</title>
<path fill="none" stroke="#9a32cd" stroke-dasharray="5,2" d="M224.9872,-145.8734C227.9232,-144.4206 230.8513,-142.9455 233.6445,-141.5 241.7724,-137.2939 242.7855,-133.7956 251.6445,-131.5 273.881,-125.7379 285.4654,-117.0587 303.3291,-131.5 333.0211,-155.5034 308.9993,-179.3648 321.3291,-215.5 330.479,-242.3159 346.2644,-271.9121 354.42,-286.4387"/>
<polygon fill="#9a32cd" stroke="#9a32cd" points="223.1978,-142.8517 215.7372,-150.3743 226.2606,-149.1461 223.1978,-142.8517"/>
<text text-anchor="middle" x="277.4868" y="-133.5" font-family="Helvetica,sans-Serif" font-size="10.00" fill="#000000"> port</text>
</g>
<!-- Node15&#45;&gt;Node29 -->
<g id="edge43" class="edge">
<title>Node15&#45;&gt;Node29</title>
<path fill="none" stroke="#9a32cd" stroke-dasharray="5,2" d="M230.328,-157.1144C254.3759,-157.4495 285.3728,-162.3196 303.3291,-182.5 331.3744,-214.0192 301.0772,-334.4884 321.3291,-371.5 326.1136,-380.2441 334.6259,-387.3011 342.4128,-392.3685"/>
<polygon fill="#9a32cd" stroke="#9a32cd" points="230.1332,-153.6162 220.1733,-157.2286 230.212,-160.6158 230.1332,-153.6162"/>
<text text-anchor="middle" x="277.4868" y="-184.5" font-family="Helvetica,sans-Serif" font-size="10.00" fill="#000000"> port</text>
</g>
<!-- Node16 -->
<g id="node16" class="node">
<title>Node16</title>
<g id="a_node16"><a xlink:href="struct__port__link__t.html" target="_top" xlink:title="The structure of a link. ">
<polygon fill="#ffffff" stroke="#000000" points="8.6157,-82.5 8.6157,-100.5 76.3149,-100.5 76.3149,-82.5 8.6157,-82.5"/>
<text text-anchor="middle" x="42.4653" y="-88.5" font-family="Helvetica,sans-Serif" font-size="10.00" fill="#000000">_port_link_t</text>
</a>
</g>
</g>
<!-- Node16&#45;&gt;Node15 -->
<g id="edge18" class="edge">
<title>Node16&#45;&gt;Node15</title>
<path fill="none" stroke="#9a32cd" stroke-dasharray="5,2" d="M86.6435,-102.7242C104.164,-108.1956 124.0658,-115.7371 140.7334,-125.5 149.9693,-130.9099 149.8233,-135.5688 158.7334,-141.5 163.6581,-144.7782 169.2708,-147.8031 174.6256,-150.4006"/>
<polygon fill="#9a32cd" stroke="#9a32cd" points="87.2285,-99.2463 76.6453,-99.7407 85.2269,-105.954 87.2285,-99.2463"/>
<text text-anchor="middle" x="121.832" y="-127.5" font-family="Helvetica,sans-Serif" font-size="10.00" fill="#000000"> link</text>
</g>
<!-- Node17 -->
<g id="node17" class="node">
<title>Node17</title>
<g id="a_node17"><a xlink:href="struct__port__info__t.html" target="_top" xlink:title="The structure of port information. ">
<polygon fill="#ffffff" stroke="#000000" points="8.0566,-156.5 8.0566,-174.5 76.874,-174.5 76.874,-156.5 8.0566,-156.5"/>
<text text-anchor="middle" x="42.4653" y="-162.5" font-family="Helvetica,sans-Serif" font-size="10.00" fill="#000000">_port_info_t</text>
</a>
</g>
</g>
<!-- Node17&#45;&gt;Node15 -->
<g id="edge19" class="edge">
<title>Node17&#45;&gt;Node15</title>
<path fill="none" stroke="#9a32cd" stroke-dasharray="5,2" d="M87.2436,-163.7523C115.0392,-162.6674 149.657,-161.3162 172.312,-160.4319"/>
<polygon fill="#9a32cd" stroke="#9a32cd" points="86.8198,-160.266 76.9639,-164.1535 87.0928,-167.2607 86.8198,-160.266"/>
<text text-anchor="middle" x="121.832" y="-164.5" font-family="Helvetica,sans-Serif" font-size="10.00" fill="#000000"> info</text>
</g>
<!-- Node18 -->
<g id="node18" class="node">
<title>Node18</title>
<g id="a_node18"><a xlink:href="struct__port__stat__t.html" target="_top" xlink:title="The structure of port statistics. ">
<polygon fill="#ffffff" stroke="#000000" points="8.0591,-119.5 8.0591,-137.5 76.8716,-137.5 76.8716,-119.5 8.0591,-119.5"/>
<text text-anchor="middle" x="42.4653" y="-125.5" font-family="Helvetica,sans-Serif" font-size="10.00" fill="#000000">_port_stat_t</text>
</a>
</g>
</g>
<!-- Node18&#45;&gt;Node15 -->
<g id="edge20" class="edge">
<title>Node18&#45;&gt;Node15</title>
<path fill="none" stroke="#9a32cd" stroke-dasharray="5,2" d="M87.1758,-136.9285C103.9849,-140.1541 123.253,-143.9193 140.7334,-147.5 151.1556,-149.6349 162.6539,-152.1042 172.4655,-154.2458"/>
<polygon fill="#9a32cd" stroke="#9a32cd" points="87.5448,-133.4358 77.0655,-134.9964 86.2308,-140.3113 87.5448,-133.4358"/>
<text text-anchor="middle" x="121.832" y="-149.5" font-family="Helvetica,sans-Serif" font-size="10.00" fill="#000000"> stat</text>
</g>
<!-- Node19 -->
<g id="node19" class="node">
<title>Node19</title>
<g id="a_node19"><a xlink:href="struct__switch__t.html" target="_top" xlink:title="The structure of a switch. ">
<polygon fill="#ffffff" stroke="#000000" points="167.3467,-451.5 167.3467,-469.5 225.0313,-469.5 225.0313,-451.5 167.3467,-451.5"/>
<text text-anchor="middle" x="196.189" y="-457.5" font-family="Helvetica,sans-Serif" font-size="10.00" fill="#000000">_switch_t</text>
</a>
</g>
</g>
<!-- Node19&#45;&gt;Node5 -->
<g id="edge21" class="edge">
<title>Node19&#45;&gt;Node5</title>
<path fill="none" stroke="#9a32cd" stroke-dasharray="5,2" d="M219.2395,-445.8402C229.0581,-439.8447 240.7423,-433.0326 251.6445,-427.5 273.9073,-416.2023 287.0875,-424.4599 303.3291,-405.5 324.5075,-380.777 305.3703,-362.8738 321.3291,-334.5 328.0287,-322.5885 339.3112,-311.7376 347.9011,-304.523"/>
<polygon fill="#9a32cd" stroke="#9a32cd" points="217.1379,-443.0251 210.4839,-451.2698 220.827,-448.9741 217.1379,-443.0251"/>
<text text-anchor="middle" x="277.4868" y="-429.5" font-family="Helvetica,sans-Serif" font-size="10.00" fill="#000000"> sw</text>
</g>
<!-- Node19&#45;&gt;Node29 -->
<g id="edge44" class="edge">
<title>Node19&#45;&gt;Node29</title>
<path fill="none" stroke="#9a32cd" stroke-dasharray="5,2" d="M235.3232,-456.0949C256.0896,-452.8656 281.7111,-447.4354 303.3291,-438.5 320.4087,-431.4404 337.8535,-419.0009 348.7067,-410.5115"/>
<polygon fill="#9a32cd" stroke="#9a32cd" points="234.6529,-452.6553 225.2563,-457.5495 235.6541,-459.5834 234.6529,-452.6553"/>
<text text-anchor="middle" x="277.4868" y="-454.5" font-family="Helvetica,sans-Serif" font-size="10.00" fill="#000000"> sw</text>
</g>
<!-- Node20 -->
<g id="node20" class="node">
<title>Node20</title>
<g id="a_node20"><a xlink:href="struct__switch__stat__t.html" target="_top" xlink:title="The structure of switch statistics. ">
<polygon fill="#ffffff" stroke="#000000" points="2.7832,-426.5 2.7832,-444.5 82.1475,-444.5 82.1475,-426.5 2.7832,-426.5"/>
<text text-anchor="middle" x="42.4653" y="-432.5" font-family="Helvetica,sans-Serif" font-size="10.00" fill="#000000">_switch_stat_t</text>
</a>
</g>
</g>
<!-- Node20&#45;&gt;Node19 -->
<g id="edge22" class="edge">
<title>Node20&#45;&gt;Node19</title>
<path fill="none" stroke="#9a32cd" stroke-dasharray="5,2" d="M92.1476,-442.8177C107.7167,-445.1822 124.9531,-447.8733 140.7334,-450.5 149.3221,-451.9296 158.6416,-453.5738 167.1457,-455.1107"/>
<polygon fill="#9a32cd" stroke="#9a32cd" points="92.5997,-439.3463 82.1894,-441.315 91.5552,-446.268 92.5997,-439.3463"/>
<text text-anchor="middle" x="121.832" y="-452.5" font-family="Helvetica,sans-Serif" font-size="10.00" fill="#000000"> stat</text>
</g>
<!-- Node21 -->
<g id="node21" class="node">
<title>Node21</title>
<g id="a_node21"><a xlink:href="struct__switch__desc__t.html" target="_top" xlink:title="The structure of a set of switch descriptions. ">
<polygon fill="#ffffff" stroke="#000000" points=".2808,-500.5 .2808,-518.5 84.6499,-518.5 84.6499,-500.5 .2808,-500.5"/>
<text text-anchor="middle" x="42.4653" y="-506.5" font-family="Helvetica,sans-Serif" font-size="10.00" fill="#000000">_switch_desc_t</text>
</a>
</g>
</g>
<!-- Node21&#45;&gt;Node19 -->
<g id="edge23" class="edge">
<title>Node21&#45;&gt;Node19</title>
<path fill="none" stroke="#9a32cd" stroke-dasharray="5,2" d="M86.4926,-497.8097C103.5332,-493.0623 123.1368,-487.3272 140.7334,-481.5 151.6791,-477.8753 163.6619,-473.4027 173.6792,-469.5179"/>
<polygon fill="#9a32cd" stroke="#9a32cd" points="85.5006,-494.4525 76.7901,-500.484 87.3606,-501.2009 85.5006,-494.4525"/>
<text text-anchor="middle" x="121.832" y="-494.5" font-family="Helvetica,sans-Serif" font-size="10.00" fill="#000000"> desc</text>
</g>
<!-- Node22 -->
<g id="node22" class="node">
<title>Node22</title>
<g id="a_node22"><a xlink:href="struct__switch__conn__t.html" target="_top" xlink:title="The structure of a switch connection. ">
<polygon fill="#ffffff" stroke="#000000" points="0,-463.5 0,-481.5 84.9307,-481.5 84.9307,-463.5 0,-463.5"/>
<text text-anchor="middle" x="42.4653" y="-469.5" font-family="Helvetica,sans-Serif" font-size="10.00" fill="#000000">_switch_conn_t</text>
</a>
</g>
</g>
<!-- Node22&#45;&gt;Node19 -->
<g id="edge24" class="edge">
<title>Node22&#45;&gt;Node19</title>
<path fill="none" stroke="#9a32cd" stroke-dasharray="5,2" d="M95.3569,-468.3712C119.4275,-466.4922 146.9833,-464.3411 167.1985,-462.7631"/>
<polygon fill="#9a32cd" stroke="#9a32cd" points="94.9832,-464.8896 85.2859,-469.1573 95.528,-471.8684 94.9832,-464.8896"/>
<text text-anchor="middle" x="121.832" y="-469.5" font-family="Helvetica,sans-Serif" font-size="10.00" fill="#000000"> conn</text>
</g>
<!-- Node23 -->
<g id="node23" class="node">
<title>Node23</title>
<g id="a_node23"><a xlink:href="structcli__def.html" target="_top" xlink:title="cli_def">
<polygon fill="#ffffff" stroke="#000000" points="337.1812,-187.5 337.1812,-205.5 382.0874,-205.5 382.0874,-187.5 337.1812,-187.5"/>
<text text-anchor="middle" x="359.6343" y="-193.5" font-family="Helvetica,sans-Serif" font-size="10.00" fill="#000000">cli_def</text>
</a>
</g>
</g>
<!-- Node23&#45;&gt;Node4 -->
<g id="edge25" class="edge">
<title>Node23&#45;&gt;Node4</title>
<path fill="none" stroke="#9a32cd" stroke-dasharray="5,2" d="M392.4156,-199.6027C411.1567,-202.6375 434.3783,-208.6381 452.0771,-220.5 477.6384,-237.6314 496.1426,-270.3466 504.0774,-286.2976"/>
<polygon fill="#9a32cd" stroke="#9a32cd" points="392.6428,-196.1002 382.2521,-198.1699 391.6656,-203.0316 392.6428,-196.1002"/>
<text text-anchor="middle" x="434.0083" y="-222.5" font-family="Helvetica,sans-Serif" font-size="10.00" fill="#000000"> cli</text>
</g>
<!-- Node28 -->
<g id="node28" class="node">
<title>Node28</title>
<g id="a_node28"><a xlink:href="struct__compnt__t.html" target="_top" xlink:title="The structure of a component. ">
<polygon fill="#ffffff" stroke="#000000" points="477.0278,-344.5 477.0278,-362.5 539.7222,-362.5 539.7222,-344.5 477.0278,-344.5"/>
<text text-anchor="middle" x="508.375" y="-350.5" font-family="Helvetica,sans-Serif" font-size="10.00" fill="#000000">_compnt_t</text>
</a>
</g>
</g>
<!-- Node23&#45;&gt;Node28 -->
<g id="edge34" class="edge">
<title>Node23&#45;&gt;Node28</title>
<path fill="none" stroke="#9a32cd" stroke-dasharray="5,2" d="M380.546,-211.6574C400.7196,-227.0525 431.1903,-252.4253 452.0771,-279.5 462.7616,-293.3498 459.8331,-300.3213 470.0771,-314.5 478.191,-325.7304 489.5066,-336.8361 497.7329,-344.3066"/>
<polygon fill="#9a32cd" stroke="#9a32cd" points="382.4332,-208.698 372.3309,-205.5051 378.2371,-214.301 382.4332,-208.698"/>
<text text-anchor="middle" x="434.0083" y="-281.5" font-family="Helvetica,sans-Serif" font-size="10.00" fill="#000000"> cli</text>
</g>
<!-- Node24 -->
<g id="node24" class="node">
<title>Node24</title>
<g id="a_node24"><a xlink:href="structunp.html" target="_top" xlink:title="unp">
<polygon fill="#ffffff" stroke="#000000" points="179.8467,-.5 179.8467,-18.5 212.5313,-18.5 212.5313,-.5 179.8467,-.5"/>
<text text-anchor="middle" x="196.189" y="-6.5" font-family="Helvetica,sans-Serif" font-size="10.00" fill="#000000">unp</text>
</a>
</g>
</g>
<!-- Node24&#45;&gt;Node23 -->
<g id="edge26" class="edge">
<title>Node24&#45;&gt;Node23</title>
<path fill="none" stroke="#9a32cd" stroke-dasharray="5,2" d="M222.7213,-17.3447C246.5997,-25.6135 281.2341,-40.7759 303.3291,-64.5 338.1382,-101.8756 353.3041,-164.0369 357.9652,-187.321"/>
<polygon fill="#9a32cd" stroke="#9a32cd" points="223.4955,-13.9151 212.9027,-14.1213 221.312,-20.5659 223.4955,-13.9151"/>
<text text-anchor="middle" x="277.4868" y="-66.5" font-family="Helvetica,sans-Serif" font-size="10.00" fill="#000000"> users</text>
</g>
<!-- Node24&#45;&gt;Node24 -->
<g id="edge27" class="edge">
<title>Node24&#45;&gt;Node24</title>
<path fill="none" stroke="#9a32cd" stroke-dasharray="5,2" d="M182.4309,-28.2336C183.2021,-33.2195 187.7881,-37 196.189,-37 209.6304,-37 213.3058,-27.322 207.2151,-18.5134"/>
<polygon fill="#9a32cd" stroke="#9a32cd" points="185.8265,-29.0875 185.1628,-18.5134 179.0876,-27.1934 185.8265,-29.0875"/>
<text text-anchor="middle" x="196.189" y="-39" font-family="Helvetica,sans-Serif" font-size="10.00" fill="#000000"> next</text>
</g>
<!-- Node25 -->
<g id="node25" class="node">
<title>Node25</title>
<g id="a_node25"><a xlink:href="structcli__filter.html" target="_top" xlink:title="cli_filter">
<polygon fill="#ffffff" stroke="#000000" points="171.2407,-187.5 171.2407,-205.5 221.1372,-205.5 221.1372,-187.5 171.2407,-187.5"/>
<text text-anchor="middle" x="196.189" y="-193.5" font-family="Helvetica,sans-Serif" font-size="10.00" fill="#000000">cli_filter</text>
</a>
</g>
</g>
<!-- Node25&#45;&gt;Node23 -->
<g id="edge28" class="edge">
<title>Node25&#45;&gt;Node23</title>
<path fill="none" stroke="#9a32cd" stroke-dasharray="5,2" d="M231.6375,-196.5C263.6547,-196.5 309.8062,-196.5 337.0588,-196.5"/>
<polygon fill="#9a32cd" stroke="#9a32cd" points="231.3691,-193.0001 221.3691,-196.5 231.3691,-200.0001 231.3691,-193.0001"/>
<text text-anchor="middle" x="277.4868" y="-198.5" font-family="Helvetica,sans-Serif" font-size="10.00" fill="#000000"> filters</text>
</g>
<!-- Node25&#45;&gt;Node25 -->
<g id="edge29" class="edge">
<title>Node25&#45;&gt;Node25</title>
<path fill="none" stroke="#9a32cd" stroke-dasharray="5,2" d="M182.4309,-215.2336C183.2021,-220.2195 187.7881,-224 196.189,-224 209.6304,-224 213.3058,-214.322 207.2151,-205.5134"/>
<polygon fill="#9a32cd" stroke="#9a32cd" points="185.8265,-216.0875 185.1628,-205.5134 179.0876,-214.1934 185.8265,-216.0875"/>
<text text-anchor="middle" x="196.189" y="-226" font-family="Helvetica,sans-Serif" font-size="10.00" fill="#000000"> next</text>
</g>
<!-- Node26 -->
<g id="node26" class="node">
<title>Node26</title>
<g id="a_node26"><a xlink:href="structcli__command.html" target="_top" xlink:title="cli_command">
<polygon fill="#ffffff" stroke="#000000" points="158.7334,-65.5 158.7334,-83.5 233.6445,-83.5 233.6445,-65.5 158.7334,-65.5"/>
<text text-anchor="middle" x="196.189" y="-71.5" font-family="Helvetica,sans-Serif" font-size="10.00" fill="#000000">cli_command</text>
</a>
</g>
</g>
<!-- Node26&#45;&gt;Node23 -->
<g id="edge30" class="edge">
<title>Node26&#45;&gt;Node23</title>
<path fill="none" stroke="#9a32cd" stroke-dasharray="5,2" d="M243.9027,-76.7895C263.8356,-79.7591 286.2732,-85.9375 303.3291,-98.5 334.6113,-121.5409 351.1859,-167.5645 357.0906,-187.2363"/>
<polygon fill="#9a32cd" stroke="#9a32cd" points="244.1078,-73.2878 233.7491,-75.5122 243.2341,-80.233 244.1078,-73.2878"/>
<text text-anchor="middle" x="277.4868" y="-100.5" font-family="Helvetica,sans-Serif" font-size="10.00" fill="#000000"> commands</text>
</g>
<!-- Node26&#45;&gt;Node26 -->
<g id="edge31" class="edge">
<title>Node26&#45;&gt;Node26</title>
<path fill="none" stroke="#9a32cd" stroke-dasharray="5,2" d="M182.4309,-93.2336C183.2021,-98.2195 187.7881,-102 196.189,-102 209.6304,-102 213.3058,-92.322 207.2151,-83.5134"/>
<polygon fill="#9a32cd" stroke="#9a32cd" points="185.8265,-94.0875 185.1628,-83.5134 179.0876,-92.1934 185.8265,-94.0875"/>
<text text-anchor="middle" x="196.189" y="-124" font-family="Helvetica,sans-Serif" font-size="10.00" fill="#000000"> next</text>
<text text-anchor="middle" x="196.189" y="-114" font-family="Helvetica,sans-Serif" font-size="10.00" fill="#000000">parent</text>
<text text-anchor="middle" x="196.189" y="-104" font-family="Helvetica,sans-Serif" font-size="10.00" fill="#000000">children</text>
</g>
<!-- Node27 -->
<g id="node27" class="node">
<title>Node27</title>
<g id="a_node27"><a xlink:href="struct__odp__t.html" target="_top" xlink:title="The structure of an operator&#45;defined policy. ">
<polygon fill="#ffffff" stroke="#000000" points="336.3413,-343.5 336.3413,-361.5 382.9272,-361.5 382.9272,-343.5 336.3413,-343.5"/>
<text text-anchor="middle" x="359.6343" y="-349.5" font-family="Helvetica,sans-Serif" font-size="10.00" fill="#000000">_odp_t</text>
</a>
</g>
</g>
<!-- Node27&#45;&gt;Node4 -->
<g id="edge32" class="edge">
<title>Node27&#45;&gt;Node4</title>
<path fill="none" stroke="#9a32cd" stroke-dasharray="5,2" d="M392.5799,-339.8747C420.5667,-329.1497 460.046,-314.0205 484.9169,-304.4896"/>
<polygon fill="#9a32cd" stroke="#9a32cd" points="391.288,-336.6215 383.2027,-343.4682 393.793,-343.1579 391.288,-336.6215"/>
<text text-anchor="middle" x="434.0083" y="-332.5" font-family="Helvetica,sans-Serif" font-size="10.00" fill="#000000"> odp</text>
</g>
<!-- Node27&#45;&gt;Node28 -->
<g id="edge45" class="edge">
<title>Node27&#45;&gt;Node28</title>
<path fill="none" stroke="#9a32cd" stroke-dasharray="5,2" d="M393.3462,-352.7266C418.4098,-352.8952 452.3682,-353.1235 476.8842,-353.2883"/>
<polygon fill="#9a32cd" stroke="#9a32cd" points="393.226,-349.2259 383.2027,-352.6585 393.1789,-356.2257 393.226,-349.2259"/>
<text text-anchor="middle" x="434.0083" y="-354.5" font-family="Helvetica,sans-Serif" font-size="10.00" fill="#000000"> odp</text>
</g>
<!-- Node28&#45;&gt;Node1 -->
<g id="edge33" class="edge">
<title>Node28&#45;&gt;Node1</title>
<path fill="none" stroke="#9a32cd" stroke-dasharray="5,2" d="M550.0307,-347.6222C576.681,-345.1425 611.7869,-344.2721 641.9531,-351.5 650.8942,-353.6423 660.097,-358.1707 667.3516,-362.3776"/>
<polygon fill="#9a32cd" stroke="#9a32cd" points="549.4789,-344.1606 539.8961,-348.6795 550.2054,-351.1228 549.4789,-344.1606"/>
<text text-anchor="middle" x="603.313" y="-363.5" font-family="Helvetica,sans-Serif" font-size="10.00" fill="#000000"> ev_list</text>
<text text-anchor="middle" x="603.313" y="-353.5" font-family="Helvetica,sans-Serif" font-size="10.00" fill="#000000">compnt_list</text>
</g>
<!-- Node29&#45;&gt;Node28 -->
<g id="edge35" class="edge">
<title>Node29&#45;&gt;Node28</title>
<path fill="none" stroke="#9a32cd" stroke-dasharray="5,2" d="M396.748,-389.5231C422.6234,-381.1728 456.6113,-370.2046 480.256,-362.5743"/>
<polygon fill="#9a32cd" stroke="#9a32cd" points="395.3574,-386.294 386.9156,-392.6961 397.5073,-392.9557 395.3574,-386.294"/>
<text text-anchor="middle" x="434.0083" y="-384.5" font-family="Helvetica,sans-Serif" font-size="10.00" fill="#000000"> handler</text>
</g>
<!-- Node30 -->
<g id="node30" class="node">
<title>Node30</title>
<g id="a_node30"><a xlink:href="struct__msg__t.html" target="_top" xlink:title="The structure of a message. ">
<polygon fill="#ffffff" stroke="#000000" points="171.7925,-622.5 171.7925,-640.5 220.5854,-640.5 220.5854,-622.5 171.7925,-622.5"/>
<text text-anchor="middle" x="196.189" y="-628.5" font-family="Helvetica,sans-Serif" font-size="10.00" fill="#000000">_msg_t</text>
</a>
</g>
</g>
<!-- Node30&#45;&gt;Node29 -->
<g id="edge39" class="edge">
<title>Node30&#45;&gt;Node29</title>
<path fill="none" stroke="#9a32cd" stroke-dasharray="5,2" d="M231.0602,-631.0332C254.4384,-628.8626 284.3145,-622.2087 303.3291,-603.5 331.8752,-575.413 352.9405,-446.4184 358.3006,-410.6941"/>
<polygon fill="#9a32cd" stroke="#9a32cd" points="230.5723,-627.5585 220.8384,-631.7422 231.0567,-634.5417 230.5723,-627.5585"/>
<text text-anchor="middle" x="277.4868" y="-629.5" font-family="Helvetica,sans-Serif" font-size="10.00" fill="#000000"> msg</text>
</g>
<!-- Node31 -->
<g id="node31" class="node">
<title>Node31</title>
<g id="a_node31"><a xlink:href="struct__traffic__t.html" target="_top" xlink:title="The structure of traffic usage. ">
<polygon fill="#ffffff" stroke="#000000" points="169.0142,-585.5 169.0142,-603.5 223.3638,-603.5 223.3638,-585.5 169.0142,-585.5"/>
<text text-anchor="middle" x="196.189" y="-591.5" font-family="Helvetica,sans-Serif" font-size="10.00" fill="#000000">_traffic_t</text>
</a>
</g>
</g>
<!-- Node31&#45;&gt;Node29 -->
<g id="edge40" class="edge">
<title>Node31&#45;&gt;Node29</title>
<path fill="none" stroke="#9a32cd" stroke-dasharray="5,2" d="M233.8146,-593.3561C256.5476,-590.751 284.6439,-583.8647 303.3291,-566.5 327.2745,-544.2469 350.8965,-442.0801 357.6938,-410.6962"/>
<polygon fill="#9a32cd" stroke="#9a32cd" points="233.4389,-589.8757 223.8002,-594.274 234.0779,-596.8465 233.4389,-589.8757"/>
<text text-anchor="middle" x="277.4868" y="-591.5" font-family="Helvetica,sans-Serif" font-size="10.00" fill="#000000"> traffic</text>
</g>
<!-- Node32 -->
<g id="node32" class="node">
<title>Node32</title>
<g id="a_node32"><a xlink:href="struct__resource__t.html" target="_top" xlink:title="The structure of resource usage. ">
<polygon fill="#ffffff" stroke="#000000" points="161.7852,-548.5 161.7852,-566.5 230.5928,-566.5 230.5928,-548.5 161.7852,-548.5"/>
<text text-anchor="middle" x="196.189" y="-554.5" font-family="Helvetica,sans-Serif" font-size="10.00" fill="#000000">_resource_t</text>
</a>
</g>
</g>
<!-- Node32&#45;&gt;Node29 -->
<g id="edge41" class="edge">
<title>Node32&#45;&gt;Node29</title>
<path fill="none" stroke="#9a32cd" stroke-dasharray="5,2" d="M240.6581,-554.7446C261.7111,-551.3888 285.9791,-544.2927 303.3291,-529.5 341.3855,-497.0529 354.6537,-433.9426 358.3849,-410.5278"/>
<polygon fill="#9a32cd" stroke="#9a32cd" points="240.0629,-551.2932 230.6257,-556.1089 241.0062,-558.2294 240.0629,-551.2932"/>
<text text-anchor="middle" x="277.4868" y="-554.5" font-family="Helvetica,sans-Serif" font-size="10.00" fill="#000000"> resource</text>
</g>
</g>
</svg>
