<?xml version="1.0" encoding="UTF-8" standalone="no"?>
<!DOCTYPE svg PUBLIC "-//W3C//DTD SVG 1.1//EN"
 "http://www.w3.org/Graphics/SVG/1.1/DTD/svg11.dtd">
<!-- Generated by graphviz version 2.40.1 (20161225.0304)
 -->
<!-- Title: _topo_t Pages: 1 -->
<svg width="96pt" height="93pt"
 viewBox="0.00 0.00 96.48 93.00" xmlns="http://www.w3.org/2000/svg" xmlns:xlink="http://www.w3.org/1999/xlink">
<g id="graph0" class="graph" transform="scale(1 1) rotate(0) translate(4 89)">
<title>_topo_t</title>
<polygon fill="#ffffff" stroke="transparent" points="-4,4 -4,-89 92.48,-89 92.48,4 -4,4"/>
<!-- Node1 -->
<g id="node1" class="node">
<title>Node1</title>
<polygon fill="#bfbfbf" stroke="#000000" points="0,-.5 0,-18.5 49.3643,-18.5 49.3643,-.5 0,-.5"/>
<text text-anchor="middle" x="24.6821" y="-6.5" font-family="Helvetica,sans-Serif" font-size="10.00" fill="#000000">_topo_t</text>
</g>
<!-- Node2 -->
<g id="node2" class="node">
<title>Node2</title>
<g id="a_node2"><a xlink:href="struct__port__t.html" target="_top" xlink:title="The structure of a port. ">
<polygon fill="#ffffff" stroke="#000000" points="1.1157,-66 1.1157,-84 48.2485,-84 48.2485,-66 1.1157,-66"/>
<text text-anchor="middle" x="24.6821" y="-72" font-family="Helvetica,sans-Serif" font-size="10.00" fill="#000000">_port_t</text>
</a>
</g>
</g>
<!-- Node2&#45;&gt;Node1 -->
<g id="edge1" class="edge">
<title>Node2&#45;&gt;Node1</title>
<path fill="none" stroke="#9a32cd" stroke-dasharray="5,2" d="M24.6821,-55.723C24.6821,-43.4341 24.6821,-28.0799 24.6821,-18.5301"/>
<polygon fill="#9a32cd" stroke="#9a32cd" points="21.1822,-55.8925 24.6821,-65.8925 28.1822,-55.8925 21.1822,-55.8925"/>
<text text-anchor="middle" x="34.687" y="-39" font-family="Helvetica,sans-Serif" font-size="10.00" fill="#000000"> port</text>
</g>
<!-- Node2&#45;&gt;Node2 -->
<g id="edge2" class="edge">
<title>Node2&#45;&gt;Node2</title>
<path fill="none" stroke="#9a32cd" stroke-dasharray="5,2" d="M58.7513,-80.294C63.2583,-79.3926 66.2485,-77.6279 66.2485,-75 66.2485,-70.6875 58.1961,-68.6997 48.6023,-69.0366"/>
<polygon fill="#9a32cd" stroke="#9a32cd" points="58.3502,-76.8128 48.6023,-80.9634 58.811,-83.7976 58.3502,-76.8128"/>
<text text-anchor="middle" x="77.3643" y="-77" font-family="Helvetica,sans-Serif" font-size="10.00" fill="#000000"> prev</text>
<text text-anchor="middle" x="77.3643" y="-67" font-family="Helvetica,sans-Serif" font-size="10.00" fill="#000000">next</text>
</g>
</g>
</svg>
