<?xml version="1.0" encoding="UTF-8" standalone="no"?>
<!DOCTYPE svg PUBLIC "-//W3C//DTD SVG 1.1//EN"
 "http://www.w3.org/Graphics/SVG/1.1/DTD/svg11.dtd">
<!-- Generated by graphviz version 2.40.1 (20161225.0304)
 -->
<!-- Title: _app_event_t Pages: 1 -->
<svg width="582pt" height="168pt"
 viewBox="0.00 0.00 582.48 168.00" xmlns="http://www.w3.org/2000/svg" xmlns:xlink="http://www.w3.org/1999/xlink">
<g id="graph0" class="graph" transform="scale(1 1) rotate(0) translate(4 164)">
<title>_app_event_t</title>
<polygon fill="#ffffff" stroke="transparent" points="-4,4 -4,-164 578.4751,-164 578.4751,4 -4,4"/>
<!-- Node1 -->
<g id="node1" class="node">
<title>Node1</title>
<polygon fill="#bfbfbf" stroke="#000000" points="261.0962,-.5 261.0962,-18.5 337.7065,-18.5 337.7065,-.5 261.0962,-.5"/>
<text text-anchor="middle" x="299.4014" y="-6.5" font-family="Helvetica,sans-Serif" font-size="10.00" fill="#000000">_app_event_t</text>
</g>
<!-- Node2 -->
<g id="node2" class="node">
<title>Node2</title>
<g id="a_node2"><a xlink:href="struct__host__t.html" target="_top" xlink:title="The structure of a host. ">
<polygon fill="#ffffff" stroke="#000000" points="0,-71 0,-89 48.8027,-89 48.8027,-71 0,-71"/>
<text text-anchor="middle" x="24.4014" y="-77" font-family="Helvetica,sans-Serif" font-size="10.00" fill="#000000">_host_t</text>
</a>
</g>
</g>
<!-- Node2&#45;&gt;Node1 -->
<g id="edge1" class="edge">
<title>Node2&#45;&gt;Node1</title>
<path fill="none" stroke="#9a32cd" stroke-dasharray="5,2" d="M58.696,-69.5387C89.0587,-60.4329 134.6485,-47.1407 174.7217,-37 203.5165,-29.7133 236.3274,-22.5202 261.0605,-17.3192"/>
<polygon fill="#9a32cd" stroke="#9a32cd" points="57.5782,-66.2199 49.0128,-72.4556 59.5973,-72.9224 57.5782,-66.2199"/>
<text text-anchor="middle" x="186.2412" y="-39" font-family="Helvetica,sans-Serif" font-size="10.00" fill="#000000"> host</text>
</g>
<!-- Node2&#45;&gt;Node2 -->
<g id="edge2" class="edge">
<title>Node2&#45;&gt;Node2</title>
<path fill="none" stroke="#9a32cd" stroke-dasharray="5,2" d="M59.3539,-86.2395C63.8403,-85.1553 66.8027,-83.0754 66.8027,-80 66.8027,-74.9531 58.8249,-72.5874 49.2265,-72.9028"/>
<polygon fill="#9a32cd" stroke="#9a32cd" points="58.8954,-82.7657 49.2265,-87.0972 59.4862,-89.7407 58.8954,-82.7657"/>
<text text-anchor="middle" x="82.0884" y="-87" font-family="Helvetica,sans-Serif" font-size="10.00" fill="#000000"> r_next</text>
<text text-anchor="middle" x="82.0884" y="-77" font-family="Helvetica,sans-Serif" font-size="10.00" fill="#000000">prev</text>
<text text-anchor="middle" x="82.0884" y="-67" font-family="Helvetica,sans-Serif" font-size="10.00" fill="#000000">next</text>
</g>
<!-- Node3 -->
<g id="node3" class="node">
<title>Node3</title>
<g id="a_node3"><a xlink:href="struct__pktout__t.html" target="_top" xlink:title="The structure of an outgoing packet. ">
<polygon fill="#ffffff" stroke="#000000" points="114.8301,-71 114.8301,-89 171.9727,-89 171.9727,-71 114.8301,-71"/>
<text text-anchor="middle" x="143.4014" y="-77" font-family="Helvetica,sans-Serif" font-size="10.00" fill="#000000">_pktout_t</text>
</a>
</g>
</g>
<!-- Node3&#45;&gt;Node1 -->
<g id="edge3" class="edge">
<title>Node3&#45;&gt;Node1</title>
<path fill="none" stroke="#9a32cd" stroke-dasharray="5,2" d="M166.4728,-65.4681C181.2424,-56.5397 201.015,-45.2685 219.3818,-37 235.3219,-29.824 253.7333,-23.3773 268.8741,-18.5324"/>
<polygon fill="#9a32cd" stroke="#9a32cd" points="164.2464,-62.7279 157.5545,-70.942 167.9081,-68.6938 164.2464,-62.7279"/>
<text text-anchor="middle" x="234.4111" y="-39" font-family="Helvetica,sans-Serif" font-size="10.00" fill="#000000"> pktout</text>
</g>
<!-- Node4 -->
<g id="node4" class="node">
<title>Node4</title>
<g id="a_node4"><a xlink:href="struct__action__t.html" target="_top" xlink:title="The structure of an action. ">
<polygon fill="#ffffff" stroke="#000000" points="150.1084,-141.5 150.1084,-159.5 206.6943,-159.5 206.6943,-141.5 150.1084,-141.5"/>
<text text-anchor="middle" x="178.4014" y="-147.5" font-family="Helvetica,sans-Serif" font-size="10.00" fill="#000000">_action_t</text>
</a>
</g>
</g>
<!-- Node4&#45;&gt;Node3 -->
<g id="edge4" class="edge">
<title>Node4&#45;&gt;Node3</title>
<path fill="none" stroke="#9a32cd" stroke-dasharray="5,2" d="M163.5416,-133.3694C161.1164,-130.0666 158.7944,-126.5316 156.9385,-123 151.1859,-112.0537 147.3776,-98.2396 145.3049,-89.2674"/>
<polygon fill="#9a32cd" stroke="#9a32cd" points="160.9816,-135.7728 169.9535,-141.408 166.454,-131.4077 160.9816,-135.7728"/>
<text text-anchor="middle" x="172.1328" y="-115" font-family="Helvetica,sans-Serif" font-size="10.00" fill="#000000"> action</text>
</g>
<!-- Node5 -->
<g id="node5" class="node">
<title>Node5</title>
<g id="a_node5"><a xlink:href="struct__flow__t.html" target="_top" xlink:title="The structure of a flow. ">
<polygon fill="#ffffff" stroke="#000000" points="189.5591,-71 189.5591,-89 237.2437,-89 237.2437,-71 189.5591,-71"/>
<text text-anchor="middle" x="213.4014" y="-77" font-family="Helvetica,sans-Serif" font-size="10.00" fill="#000000">_flow_t</text>
</a>
</g>
</g>
<!-- Node4&#45;&gt;Node5 -->
<g id="edge6" class="edge">
<title>Node4&#45;&gt;Node5</title>
<path fill="none" stroke="#9a32cd" stroke-dasharray="5,2" d="M187.4495,-132.2744C194.2511,-118.5741 203.2943,-100.3586 208.7129,-89.4439"/>
<polygon fill="#9a32cd" stroke="#9a32cd" points="184.2888,-130.77 182.977,-141.2834 190.5587,-133.8828 184.2888,-130.77"/>
<text text-anchor="middle" x="212.1328" y="-115" font-family="Helvetica,sans-Serif" font-size="10.00" fill="#000000"> action</text>
</g>
<!-- Node5&#45;&gt;Node1 -->
<g id="edge5" class="edge">
<title>Node5&#45;&gt;Node1</title>
<path fill="none" stroke="#9a32cd" stroke-dasharray="5,2" d="M232.8216,-64.0799C249.8847,-50.0922 274.119,-30.2257 288.1556,-18.7189"/>
<polygon fill="#9a32cd" stroke="#9a32cd" points="230.159,-61.7368 224.6444,-70.7834 234.5969,-67.1504 230.159,-61.7368"/>
<text text-anchor="middle" x="273.6821" y="-39" font-family="Helvetica,sans-Serif" font-size="10.00" fill="#000000"> flow</text>
</g>
<!-- Node5&#45;&gt;Node5 -->
<g id="edge7" class="edge">
<title>Node5&#45;&gt;Node5</title>
<path fill="none" stroke="#9a32cd" stroke-dasharray="5,2" d="M247.6967,-86.2867C252.2336,-85.2162 255.2437,-83.1207 255.2437,-80 255.2437,-74.8789 247.1377,-72.5184 237.4803,-72.9185"/>
<polygon fill="#9a32cd" stroke="#9a32cd" points="247.1786,-82.8163 237.4803,-87.0815 247.7217,-89.7952 247.1786,-82.8163"/>
<text text-anchor="middle" x="270.5293" y="-87" font-family="Helvetica,sans-Serif" font-size="10.00" fill="#000000"> r_next</text>
<text text-anchor="middle" x="270.5293" y="-77" font-family="Helvetica,sans-Serif" font-size="10.00" fill="#000000">prev</text>
<text text-anchor="middle" x="270.5293" y="-67" font-family="Helvetica,sans-Serif" font-size="10.00" fill="#000000">next</text>
</g>
<!-- Node6 -->
<g id="node6" class="node">
<title>Node6</title>
<g id="a_node6"><a xlink:href="struct__pktin__t.html" target="_top" xlink:title="The structure of an incoming packet. ">
<polygon fill="#ffffff" stroke="#000000" points="302.8892,-71 302.8892,-89 353.9136,-89 353.9136,-71 302.8892,-71"/>
<text text-anchor="middle" x="328.4014" y="-77" font-family="Helvetica,sans-Serif" font-size="10.00" fill="#000000">_pktin_t</text>
</a>
</g>
</g>
<!-- Node6&#45;&gt;Node1 -->
<g id="edge8" class="edge">
<title>Node6&#45;&gt;Node1</title>
<path fill="none" stroke="#9a32cd" stroke-dasharray="5,2" d="M320.7396,-61.3741C315.1235,-47.7211 307.7322,-29.7526 303.2861,-18.9439"/>
<polygon fill="#9a32cd" stroke="#9a32cd" points="317.569,-62.8667 324.6101,-70.7834 324.0427,-60.2037 317.569,-62.8667"/>
<text text-anchor="middle" x="326.3521" y="-39" font-family="Helvetica,sans-Serif" font-size="10.00" fill="#000000"> pktin</text>
</g>
<!-- Node7 -->
<g id="node7" class="node">
<title>Node7</title>
<g id="a_node7"><a xlink:href="struct__port__t.html" target="_top" xlink:title="The structure of a port. ">
<polygon fill="#ffffff" stroke="#000000" points="371.835,-71 371.835,-89 418.9678,-89 418.9678,-71 371.835,-71"/>
<text text-anchor="middle" x="395.4014" y="-77" font-family="Helvetica,sans-Serif" font-size="10.00" fill="#000000">_port_t</text>
</a>
</g>
</g>
<!-- Node7&#45;&gt;Node1 -->
<g id="edge9" class="edge">
<title>Node7&#45;&gt;Node1</title>
<path fill="none" stroke="#9a32cd" stroke-dasharray="5,2" d="M377.0244,-64.2377C367.0049,-55.8636 354.26,-45.5611 342.4014,-37 333.3486,-30.4645 322.7905,-23.7006 314.4018,-18.5163"/>
<polygon fill="#9a32cd" stroke="#9a32cd" points="374.8223,-66.9591 384.7204,-70.7378 379.3391,-61.6113 374.8223,-66.9591"/>
<text text-anchor="middle" x="363.4063" y="-39" font-family="Helvetica,sans-Serif" font-size="10.00" fill="#000000"> port</text>
</g>
<!-- Node7&#45;&gt;Node7 -->
<g id="edge10" class="edge">
<title>Node7&#45;&gt;Node7</title>
<path fill="none" stroke="#9a32cd" stroke-dasharray="5,2" d="M429.4706,-86.2867C433.9776,-85.2162 436.9678,-83.1207 436.9678,-80 436.9678,-74.8789 428.9153,-72.5184 419.3215,-72.9185"/>
<polygon fill="#9a32cd" stroke="#9a32cd" points="429.0177,-82.8113 419.3215,-87.0815 429.5643,-89.79 429.0177,-82.8113"/>
<text text-anchor="middle" x="448.0835" y="-82" font-family="Helvetica,sans-Serif" font-size="10.00" fill="#000000"> prev</text>
<text text-anchor="middle" x="448.0835" y="-72" font-family="Helvetica,sans-Serif" font-size="10.00" fill="#000000">next</text>
</g>
<!-- Node8 -->
<g id="node8" class="node">
<title>Node8</title>
<g id="a_node8"><a xlink:href="struct__switch__t.html" target="_top" xlink:title="The structure of a switch. ">
<polygon fill="#ffffff" stroke="#000000" points="476.5591,-71 476.5591,-89 534.2437,-89 534.2437,-71 476.5591,-71"/>
<text text-anchor="middle" x="505.4014" y="-77" font-family="Helvetica,sans-Serif" font-size="10.00" fill="#000000">_switch_t</text>
</a>
</g>
</g>
<!-- Node8&#45;&gt;Node1 -->
<g id="edge11" class="edge">
<title>Node8&#45;&gt;Node1</title>
<path fill="none" stroke="#9a32cd" stroke-dasharray="5,2" d="M474.0695,-67.1266C472.1566,-66.3939 470.2562,-65.6797 468.4014,-65 419.9771,-47.2561 362.813,-29.0443 328.9189,-18.526"/>
<polygon fill="#9a32cd" stroke="#9a32cd" points="472.997,-70.4657 483.5842,-70.8692 475.5595,-63.9516 472.997,-70.4657"/>
<text text-anchor="middle" x="419.9014" y="-39" font-family="Helvetica,sans-Serif" font-size="10.00" fill="#000000"> sw</text>
</g>
<!-- Node8&#45;&gt;Node8 -->
<g id="edge12" class="edge">
<title>Node8&#45;&gt;Node8</title>
<path fill="none" stroke="#9a32cd" stroke-dasharray="5,2" d="M544.8715,-86.0378C549.3446,-84.9071 552.2437,-82.8945 552.2437,-80 552.2437,-75.25 544.4366,-72.875 534.6778,-72.875"/>
<polygon fill="#9a32cd" stroke="#9a32cd" points="544.2502,-82.5841 534.6778,-87.125 544.9926,-89.5447 544.2502,-82.5841"/>
<text text-anchor="middle" x="563.3594" y="-82" font-family="Helvetica,sans-Serif" font-size="10.00" fill="#000000"> prev</text>
<text text-anchor="middle" x="563.3594" y="-72" font-family="Helvetica,sans-Serif" font-size="10.00" fill="#000000">next</text>
</g>
</g>
</svg>
