<?xml version="1.0" encoding="UTF-8" standalone="no"?>
<!DOCTYPE svg PUBLIC "-//W3C//DTD SVG 1.1//EN"
 "http://www.w3.org/Graphics/SVG/1.1/DTD/svg11.dtd">
<!-- Generated by graphviz version 2.40.1 (20161225.0304)
 -->
<!-- Title: _event_out_t Pages: 1 -->
<svg width="438pt" height="168pt"
 viewBox="0.00 0.00 438.48 168.00" xmlns="http://www.w3.org/2000/svg" xmlns:xlink="http://www.w3.org/1999/xlink">
<g id="graph0" class="graph" transform="scale(1 1) rotate(0) translate(4 164)">
<title>_event_out_t</title>
<polygon fill="#ffffff" stroke="transparent" points="-4,4 -4,-164 434.4751,-164 434.4751,4 -4,4"/>
<!-- Node1 -->
<g id="node1" class="node">
<title>Node1</title>
<polygon fill="#bfbfbf" stroke="#000000" points="157.4878,-.5 157.4878,-18.5 231.3149,-18.5 231.3149,-.5 157.4878,-.5"/>
<text text-anchor="middle" x="194.4014" y="-6.5" font-family="Helvetica,sans-Serif" font-size="10.00" fill="#000000">_event_out_t</text>
</g>
<!-- Node2 -->
<g id="node2" class="node">
<title>Node2</title>
<g id="a_node2"><a xlink:href="struct__host__t.html" target="_top" xlink:title="The structure of a host. ">
<polygon fill="#ffffff" stroke="#000000" points="0,-71 0,-89 48.8027,-89 48.8027,-71 0,-71"/>
<text text-anchor="middle" x="24.4014" y="-77" font-family="Helvetica,sans-Serif" font-size="10.00" fill="#000000">_host_t</text>
</a>
</g>
</g>
<!-- Node2&#45;&gt;Node1 -->
<g id="edge1" class="edge">
<title>Node2&#45;&gt;Node1</title>
<path fill="none" stroke="#9a32cd" stroke-dasharray="5,2" d="M51.3093,-66.2105C69.0783,-57.3482 93.0024,-45.8756 114.6973,-37 131.3614,-30.1825 150.412,-23.5678 165.709,-18.5349"/>
<polygon fill="#9a32cd" stroke="#9a32cd" points="49.4837,-63.2109 42.1241,-70.8324 52.6302,-69.4639 49.4837,-63.2109"/>
<text text-anchor="middle" x="138.7534" y="-39" font-family="Helvetica,sans-Serif" font-size="10.00" fill="#000000"> host_data</text>
</g>
<!-- Node2&#45;&gt;Node2 -->
<g id="edge2" class="edge">
<title>Node2&#45;&gt;Node2</title>
<path fill="none" stroke="#9a32cd" stroke-dasharray="5,2" d="M59.3539,-86.2395C63.8403,-85.1553 66.8027,-83.0754 66.8027,-80 66.8027,-74.9531 58.8249,-72.5874 49.2265,-72.9028"/>
<polygon fill="#9a32cd" stroke="#9a32cd" points="58.8954,-82.7657 49.2265,-87.0972 59.4862,-89.7407 58.8954,-82.7657"/>
<text text-anchor="middle" x="82.0884" y="-87" font-family="Helvetica,sans-Serif" font-size="10.00" fill="#000000"> r_next</text>
<text text-anchor="middle" x="82.0884" y="-77" font-family="Helvetica,sans-Serif" font-size="10.00" fill="#000000">prev</text>
<text text-anchor="middle" x="82.0884" y="-67" font-family="Helvetica,sans-Serif" font-size="10.00" fill="#000000">next</text>
</g>
<!-- Node3 -->
<g id="node3" class="node">
<title>Node3</title>
<g id="a_node3"><a xlink:href="struct__flow__t.html" target="_top" xlink:title="The structure of a flow. ">
<polygon fill="#ffffff" stroke="#000000" points="114.5591,-71 114.5591,-89 162.2437,-89 162.2437,-71 114.5591,-71"/>
<text text-anchor="middle" x="138.4014" y="-77" font-family="Helvetica,sans-Serif" font-size="10.00" fill="#000000">_flow_t</text>
</a>
</g>
</g>
<!-- Node3&#45;&gt;Node1 -->
<g id="edge3" class="edge">
<title>Node3&#45;&gt;Node1</title>
<path fill="none" stroke="#9a32cd" stroke-dasharray="5,2" d="M152.2486,-62.5673C163.1968,-48.7843 178.0616,-30.0705 186.8998,-18.9439"/>
<polygon fill="#9a32cd" stroke="#9a32cd" points="149.2016,-60.7761 145.7224,-70.7834 154.6829,-65.13 149.2016,-60.7761"/>
<text text-anchor="middle" x="195.1943" y="-39" font-family="Helvetica,sans-Serif" font-size="10.00" fill="#000000"> flow_data</text>
</g>
<!-- Node3&#45;&gt;Node3 -->
<g id="edge5" class="edge">
<title>Node3&#45;&gt;Node3</title>
<path fill="none" stroke="#9a32cd" stroke-dasharray="5,2" d="M172.6967,-86.2867C177.2336,-85.2162 180.2437,-83.1207 180.2437,-80 180.2437,-74.8789 172.1377,-72.5184 162.4803,-72.9185"/>
<polygon fill="#9a32cd" stroke="#9a32cd" points="172.1786,-82.8163 162.4803,-87.0815 172.7217,-89.7952 172.1786,-82.8163"/>
<text text-anchor="middle" x="195.5293" y="-87" font-family="Helvetica,sans-Serif" font-size="10.00" fill="#000000"> r_next</text>
<text text-anchor="middle" x="195.5293" y="-77" font-family="Helvetica,sans-Serif" font-size="10.00" fill="#000000">prev</text>
<text text-anchor="middle" x="195.5293" y="-67" font-family="Helvetica,sans-Serif" font-size="10.00" fill="#000000">next</text>
</g>
<!-- Node4 -->
<g id="node4" class="node">
<title>Node4</title>
<g id="a_node4"><a xlink:href="struct__action__t.html" target="_top" xlink:title="The structure of an action. ">
<polygon fill="#ffffff" stroke="#000000" points="110.1084,-141.5 110.1084,-159.5 166.6943,-159.5 166.6943,-141.5 110.1084,-141.5"/>
<text text-anchor="middle" x="138.4014" y="-147.5" font-family="Helvetica,sans-Serif" font-size="10.00" fill="#000000">_action_t</text>
</a>
</g>
</g>
<!-- Node4&#45;&gt;Node3 -->
<g id="edge4" class="edge">
<title>Node4&#45;&gt;Node3</title>
<path fill="none" stroke="#9a32cd" stroke-dasharray="5,2" d="M138.4014,-131.0661C138.4014,-117.5192 138.4014,-100.0407 138.4014,-89.4439"/>
<polygon fill="#9a32cd" stroke="#9a32cd" points="134.9015,-131.2833 138.4014,-141.2834 141.9015,-131.2834 134.9015,-131.2833"/>
<text text-anchor="middle" x="153.1328" y="-115" font-family="Helvetica,sans-Serif" font-size="10.00" fill="#000000"> action</text>
</g>
<!-- Node5 -->
<g id="node5" class="node">
<title>Node5</title>
<g id="a_node5"><a xlink:href="struct__port__t.html" target="_top" xlink:title="The structure of a port. ">
<polygon fill="#ffffff" stroke="#000000" points="227.835,-71 227.835,-89 274.9678,-89 274.9678,-71 227.835,-71"/>
<text text-anchor="middle" x="251.4014" y="-77" font-family="Helvetica,sans-Serif" font-size="10.00" fill="#000000">_port_t</text>
</a>
</g>
</g>
<!-- Node5&#45;&gt;Node1 -->
<g id="edge6" class="edge">
<title>Node5&#45;&gt;Node1</title>
<path fill="none" stroke="#9a32cd" stroke-dasharray="5,2" d="M238.6035,-62.8142C232.5865,-54.8675 225.2448,-45.3586 218.4014,-37 213.2631,-30.724 207.2631,-23.849 202.5476,-18.543"/>
<polygon fill="#9a32cd" stroke="#9a32cd" points="235.9319,-65.0852 244.7368,-70.9779 241.5285,-60.8805 235.9319,-65.0852"/>
<text text-anchor="middle" x="247.9185" y="-39" font-family="Helvetica,sans-Serif" font-size="10.00" fill="#000000"> port_data</text>
</g>
<!-- Node5&#45;&gt;Node5 -->
<g id="edge7" class="edge">
<title>Node5&#45;&gt;Node5</title>
<path fill="none" stroke="#9a32cd" stroke-dasharray="5,2" d="M285.4706,-86.2867C289.9776,-85.2162 292.9678,-83.1207 292.9678,-80 292.9678,-74.8789 284.9153,-72.5184 275.3215,-72.9185"/>
<polygon fill="#9a32cd" stroke="#9a32cd" points="285.0177,-82.8113 275.3215,-87.0815 285.5643,-89.79 285.0177,-82.8113"/>
<text text-anchor="middle" x="304.0835" y="-82" font-family="Helvetica,sans-Serif" font-size="10.00" fill="#000000"> prev</text>
<text text-anchor="middle" x="304.0835" y="-72" font-family="Helvetica,sans-Serif" font-size="10.00" fill="#000000">next</text>
</g>
<!-- Node6 -->
<g id="node6" class="node">
<title>Node6</title>
<g id="a_node6"><a xlink:href="struct__switch__t.html" target="_top" xlink:title="The structure of a switch. ">
<polygon fill="#ffffff" stroke="#000000" points="332.5591,-71 332.5591,-89 390.2437,-89 390.2437,-71 332.5591,-71"/>
<text text-anchor="middle" x="361.4014" y="-77" font-family="Helvetica,sans-Serif" font-size="10.00" fill="#000000">_switch_t</text>
</a>
</g>
</g>
<!-- Node6&#45;&gt;Node1 -->
<g id="edge8" class="edge">
<title>Node6&#45;&gt;Node1</title>
<path fill="none" stroke="#9a32cd" stroke-dasharray="5,2" d="M335.3786,-66.047C318.2991,-57.1628 295.3302,-45.7271 274.4014,-37 257.8639,-30.104 238.9198,-23.5352 223.6187,-18.5479"/>
<polygon fill="#9a32cd" stroke="#9a32cd" points="334.214,-69.3889 344.6942,-70.9433 337.4708,-63.1926 334.214,-69.3889"/>
<text text-anchor="middle" x="315.4136" y="-39" font-family="Helvetica,sans-Serif" font-size="10.00" fill="#000000"> sw_data</text>
</g>
<!-- Node6&#45;&gt;Node6 -->
<g id="edge9" class="edge">
<title>Node6&#45;&gt;Node6</title>
<path fill="none" stroke="#9a32cd" stroke-dasharray="5,2" d="M400.8715,-86.0378C405.3446,-84.9071 408.2437,-82.8945 408.2437,-80 408.2437,-75.25 400.4366,-72.875 390.6778,-72.875"/>
<polygon fill="#9a32cd" stroke="#9a32cd" points="400.2502,-82.5841 390.6778,-87.125 400.9926,-89.5447 400.2502,-82.5841"/>
<text text-anchor="middle" x="419.3594" y="-82" font-family="Helvetica,sans-Serif" font-size="10.00" fill="#000000"> prev</text>
<text text-anchor="middle" x="419.3594" y="-72" font-family="Helvetica,sans-Serif" font-size="10.00" fill="#000000">next</text>
</g>
</g>
</svg>
