<?xml version="1.0" encoding="UTF-8" standalone="no"?>
<!DOCTYPE svg PUBLIC "-//W3C//DTD SVG 1.1//EN"
 "http://www.w3.org/Graphics/SVG/1.1/DTD/svg11.dtd">
<!-- Generated by graphviz version 2.40.1 (20161225.0304)
 -->
<!-- Title: _switch_table_t Pages: 1 -->
<svg width="120pt" height="103pt"
 viewBox="0.00 0.00 119.54 103.00" xmlns="http://www.w3.org/2000/svg" xmlns:xlink="http://www.w3.org/1999/xlink">
<g id="graph0" class="graph" transform="scale(1 1) rotate(0) translate(4 99)">
<title>_switch_table_t</title>
<polygon fill="#ffffff" stroke="transparent" points="-4,4 -4,-99 115.5391,-99 115.5391,4 -4,4"/>
<!-- Node1 -->
<g id="node1" class="node">
<title>Node1</title>
<polygon fill="#bfbfbf" stroke="#000000" points="0,-.5 0,-18.5 84.9307,-18.5 84.9307,-.5 0,-.5"/>
<text text-anchor="middle" x="42.4653" y="-6.5" font-family="Helvetica,sans-Serif" font-size="10.00" fill="#000000">_switch_table_t</text>
</g>
<!-- Node2 -->
<g id="node2" class="node">
<title>Node2</title>
<g id="a_node2"><a xlink:href="struct__switch__t.html" target="_top" xlink:title="The structure of a switch. ">
<polygon fill="#ffffff" stroke="#000000" points="13.623,-76 13.623,-94 71.3076,-94 71.3076,-76 13.623,-76"/>
<text text-anchor="middle" x="42.4653" y="-82" font-family="Helvetica,sans-Serif" font-size="10.00" fill="#000000">_switch_t</text>
</a>
</g>
</g>
<!-- Node2&#45;&gt;Node1 -->
<g id="edge1" class="edge">
<title>Node2&#45;&gt;Node1</title>
<path fill="none" stroke="#9a32cd" stroke-dasharray="5,2" d="M42.4653,-65.4786C42.4653,-50.4756 42.4653,-30.4177 42.4653,-18.8335"/>
<polygon fill="#9a32cd" stroke="#9a32cd" points="38.9654,-65.7422 42.4653,-75.7422 45.9654,-65.7423 38.9654,-65.7422"/>
<text text-anchor="middle" x="54.9775" y="-49" font-family="Helvetica,sans-Serif" font-size="10.00" fill="#000000"> head</text>
<text text-anchor="middle" x="54.9775" y="-39" font-family="Helvetica,sans-Serif" font-size="10.00" fill="#000000">tail</text>
</g>
<!-- Node2&#45;&gt;Node2 -->
<g id="edge2" class="edge">
<title>Node2&#45;&gt;Node2</title>
<path fill="none" stroke="#9a32cd" stroke-dasharray="5,2" d="M81.9354,-91.0378C86.4086,-89.9071 89.3076,-87.8945 89.3076,-85 89.3076,-80.25 81.5006,-77.875 71.7418,-77.875"/>
<polygon fill="#9a32cd" stroke="#9a32cd" points="81.3142,-87.5841 71.7418,-92.125 82.0566,-94.5447 81.3142,-87.5841"/>
<text text-anchor="middle" x="100.4233" y="-87" font-family="Helvetica,sans-Serif" font-size="10.00" fill="#000000"> prev</text>
<text text-anchor="middle" x="100.4233" y="-77" font-family="Helvetica,sans-Serif" font-size="10.00" fill="#000000">next</text>
</g>
</g>
</svg>
