<?xml version="1.0" encoding="UTF-8" standalone="no"?>
<!DOCTYPE svg PUBLIC "-//W3C//DTD SVG 1.1//EN"
 "http://www.w3.org/Graphics/SVG/1.1/DTD/svg11.dtd">
<!-- Generated by graphviz version 2.40.1 (20161225.0304)
 -->
<!-- Title: _ctx_t Pages: 1 -->
<svg width="621pt" height="532pt"
 viewBox="0.00 0.00 620.56 532.00" xmlns="http://www.w3.org/2000/svg" xmlns:xlink="http://www.w3.org/1999/xlink">
<g id="graph0" class="graph" transform="scale(1 1) rotate(0) translate(4 528)">
<title>_ctx_t</title>
<polygon fill="#ffffff" stroke="transparent" points="-4,4 -4,-528 616.5596,-528 616.5596,4 -4,4"/>
<!-- Node1 -->
<g id="node1" class="node">
<title>Node1</title>
<polygon fill="#bfbfbf" stroke="#000000" points="569.8799,-311.5 569.8799,-329.5 612.5596,-329.5 612.5596,-311.5 569.8799,-311.5"/>
<text text-anchor="middle" x="591.2197" y="-317.5" font-family="Helvetica,sans-Serif" font-size="10.00" fill="#000000">_ctx_t</text>
</g>
<!-- Node2 -->
<g id="node2" class="node">
<title>Node2</title>
<g id="a_node2"><a xlink:href="struct__app__t.html" target="_top" xlink:title="The structure of an application. ">
<polygon fill="#ffffff" stroke="#000000" points="428.6636,-347.5 428.6636,-365.5 475.2495,-365.5 475.2495,-347.5 428.6636,-347.5"/>
<text text-anchor="middle" x="451.9565" y="-353.5" font-family="Helvetica,sans-Serif" font-size="10.00" fill="#000000">_app_t</text>
</a>
</g>
</g>
<!-- Node2&#45;&gt;Node1 -->
<g id="edge1" class="edge">
<title>Node2&#45;&gt;Node1</title>
<path fill="none" stroke="#9a32cd" stroke-dasharray="5,2" d="M485.1344,-347.9234C511.3201,-341.1543 547.0851,-331.909 569.6675,-326.0713"/>
<polygon fill="#9a32cd" stroke="#9a32cd" points="484.0718,-344.583 475.2661,-350.4744 485.8238,-351.3602 484.0718,-344.583"/>
<text text-anchor="middle" x="526.5918" y="-355.5" font-family="Helvetica,sans-Serif" font-size="10.00" fill="#000000"> av_list</text>
<text text-anchor="middle" x="526.5918" y="-345.5" font-family="Helvetica,sans-Serif" font-size="10.00" fill="#000000">app_list</text>
</g>
<!-- Node3 -->
<g id="node3" class="node">
<title>Node3</title>
<g id="a_node3"><a xlink:href="struct__app__event__t.html" target="_top" xlink:title="The structure of an app event (read&#45;only) ">
<polygon fill="#ffffff" stroke="#000000" points="271.8613,-406.5 271.8613,-424.5 348.4717,-424.5 348.4717,-406.5 271.8613,-406.5"/>
<text text-anchor="middle" x="310.1665" y="-412.5" font-family="Helvetica,sans-Serif" font-size="10.00" fill="#000000">_app_event_t</text>
</a>
</g>
</g>
<!-- Node3&#45;&gt;Node2 -->
<g id="edge2" class="edge">
<title>Node3&#45;&gt;Node2</title>
<path fill="none" stroke="#9a32cd" stroke-dasharray="5,2" d="M341.3855,-402.5095C368.3487,-391.2899 406.6052,-375.3711 430.3204,-365.503"/>
<polygon fill="#9a32cd" stroke="#9a32cd" points="339.8984,-399.3373 332.0105,-406.4106 342.5877,-405.8001 339.8984,-399.3373"/>
<text text-anchor="middle" x="384.5405" y="-392.5" font-family="Helvetica,sans-Serif" font-size="10.00" fill="#000000"> handler</text>
</g>
<!-- Node4 -->
<g id="node4" class="node">
<title>Node4</title>
<g id="a_node4"><a xlink:href="struct__host__t.html" target="_top" xlink:title="The structure of a host. ">
<polygon fill="#ffffff" stroke="#000000" points="132.8813,-148.5 132.8813,-166.5 181.6841,-166.5 181.6841,-148.5 132.8813,-148.5"/>
<text text-anchor="middle" x="157.2827" y="-154.5" font-family="Helvetica,sans-Serif" font-size="10.00" fill="#000000">_host_t</text>
</a>
</g>
</g>
<!-- Node4&#45;&gt;Node3 -->
<g id="edge3" class="edge">
<title>Node4&#45;&gt;Node3</title>
<path fill="none" stroke="#9a32cd" stroke-dasharray="5,2" d="M191.6408,-163.7049C213.0875,-169.4645 239.3014,-180.3301 253.8613,-200.5 301.4364,-266.4062 234.3896,-310.369 271.8613,-382.5 277.0409,-392.4704 286.6172,-400.7204 294.8986,-406.4778"/>
<polygon fill="#9a32cd" stroke="#9a32cd" points="192.4184,-160.2921 181.8751,-161.3359 190.7681,-167.0948 192.4184,-160.2921"/>
<text text-anchor="middle" x="232.189" y="-202.5" font-family="Helvetica,sans-Serif" font-size="10.00" fill="#000000"> host</text>
</g>
<!-- Node4&#45;&gt;Node4 -->
<g id="edge4" class="edge">
<title>Node4&#45;&gt;Node4</title>
<path fill="none" stroke="#9a32cd" stroke-dasharray="5,2" d="M145.012,-176.2336C145.6998,-181.2195 149.79,-185 157.2827,-185 169.271,-185 172.549,-175.322 167.1169,-166.5134"/>
<polygon fill="#9a32cd" stroke="#9a32cd" points="148.412,-177.0644 147.4486,-166.5134 141.622,-175.3623 148.412,-177.0644"/>
<text text-anchor="middle" x="157.2827" y="-207" font-family="Helvetica,sans-Serif" font-size="10.00" fill="#000000"> r_next</text>
<text text-anchor="middle" x="157.2827" y="-197" font-family="Helvetica,sans-Serif" font-size="10.00" fill="#000000">prev</text>
<text text-anchor="middle" x="157.2827" y="-187" font-family="Helvetica,sans-Serif" font-size="10.00" fill="#000000">next</text>
</g>
<!-- Node14 -->
<g id="node14" class="node">
<title>Node14</title>
<g id="a_node14"><a xlink:href="struct__event__t.html" target="_top" xlink:title="The structure of an event (read&#45;only) ">
<polygon fill="#ffffff" stroke="#000000" points="282.9844,-208.5 282.9844,-226.5 337.3486,-226.5 337.3486,-208.5 282.9844,-208.5"/>
<text text-anchor="middle" x="310.1665" y="-214.5" font-family="Helvetica,sans-Serif" font-size="10.00" fill="#000000">_event_t</text>
</a>
</g>
</g>
<!-- Node4&#45;&gt;Node14 -->
<g id="edge20" class="edge">
<title>Node4&#45;&gt;Node14</title>
<path fill="none" stroke="#9a32cd" stroke-dasharray="5,2" d="M191.6806,-148.1657C210.809,-144.7895 234.5729,-143.6895 253.8613,-152.5 279.1204,-164.0378 297.398,-193.1228 305.505,-208.166"/>
<polygon fill="#9a32cd" stroke="#9a32cd" points="190.9704,-144.7384 181.8692,-150.1623 192.3663,-151.5978 190.9704,-144.7384"/>
<text text-anchor="middle" x="232.189" y="-154.5" font-family="Helvetica,sans-Serif" font-size="10.00" fill="#000000"> host</text>
</g>
<!-- Node5 -->
<g id="node5" class="node">
<title>Node5</title>
<g id="a_node5"><a xlink:href="struct__pktout__t.html" target="_top" xlink:title="The structure of an outgoing packet. ">
<polygon fill="#ffffff" stroke="#000000" points="128.7114,-505.5 128.7114,-523.5 185.854,-523.5 185.854,-505.5 128.7114,-505.5"/>
<text text-anchor="middle" x="157.2827" y="-511.5" font-family="Helvetica,sans-Serif" font-size="10.00" fill="#000000">_pktout_t</text>
</a>
</g>
</g>
<!-- Node5&#45;&gt;Node3 -->
<g id="edge5" class="edge">
<title>Node5&#45;&gt;Node3</title>
<path fill="none" stroke="#9a32cd" stroke-dasharray="5,2" d="M195.6073,-503.8517C214.1752,-497.6217 236.215,-488.5758 253.8613,-476.5 275.2701,-461.8494 294.4092,-437.6438 303.8862,-424.5629"/>
<polygon fill="#9a32cd" stroke="#9a32cd" points="194.432,-500.553 185.9782,-506.9392 196.5693,-507.2188 194.432,-500.553"/>
<text text-anchor="middle" x="232.189" y="-499.5" font-family="Helvetica,sans-Serif" font-size="10.00" fill="#000000"> pktout</text>
</g>
<!-- Node5&#45;&gt;Node14 -->
<g id="edge21" class="edge">
<title>Node5&#45;&gt;Node14</title>
<path fill="none" stroke="#9a32cd" stroke-dasharray="5,2" d="M190.7348,-498.7685C191.3694,-498.0439 191.9656,-497.2881 192.5166,-496.5 230.2324,-442.5559 172.7298,-403.3944 210.5166,-349.5 222.9189,-331.8109 239.5621,-343.6941 253.8613,-327.5 269.4941,-309.7957 261.4422,-298.696 271.8613,-277.5 281.1295,-258.6454 294.9802,-238.3733 303.2401,-226.8808"/>
<polygon fill="#9a32cd" stroke="#9a32cd" points="188.2164,-496.3103 182.7605,-505.3924 192.6892,-501.695 188.2164,-496.3103"/>
<text text-anchor="middle" x="232.189" y="-351.5" font-family="Helvetica,sans-Serif" font-size="10.00" fill="#000000"> pktout</text>
</g>
<!-- Node6 -->
<g id="node6" class="node">
<title>Node6</title>
<g id="a_node6"><a xlink:href="struct__action__t.html" target="_top" xlink:title="The structure of an action. ">
<polygon fill="#ffffff" stroke="#000000" points="0,-424.5 0,-442.5 56.5859,-442.5 56.5859,-424.5 0,-424.5"/>
<text text-anchor="middle" x="28.293" y="-430.5" font-family="Helvetica,sans-Serif" font-size="10.00" fill="#000000">_action_t</text>
</a>
</g>
</g>
<!-- Node6&#45;&gt;Node5 -->
<g id="edge6" class="edge">
<title>Node6&#45;&gt;Node5</title>
<path fill="none" stroke="#9a32cd" stroke-dasharray="5,2" d="M49.0657,-448.5058C67.7642,-461.758 96.1965,-481.2838 122.0488,-496.5 127.2582,-499.5661 133.0495,-502.6513 138.4071,-505.38"/>
<polygon fill="#9a32cd" stroke="#9a32cd" points="50.895,-445.5114 40.7223,-442.5505 46.8282,-451.2089 50.895,-445.5114"/>
<text text-anchor="middle" x="89.3174" y="-486.5" font-family="Helvetica,sans-Serif" font-size="10.00" fill="#000000"> action</text>
</g>
<!-- Node7 -->
<g id="node7" class="node">
<title>Node7</title>
<g id="a_node7"><a xlink:href="struct__flow__t.html" target="_top" xlink:title="The structure of a flow. ">
<polygon fill="#ffffff" stroke="#000000" points="133.4404,-345.5 133.4404,-363.5 181.125,-363.5 181.125,-345.5 133.4404,-345.5"/>
<text text-anchor="middle" x="157.2827" y="-351.5" font-family="Helvetica,sans-Serif" font-size="10.00" fill="#000000">_flow_t</text>
</a>
</g>
</g>
<!-- Node6&#45;&gt;Node7 -->
<g id="edge8" class="edge">
<title>Node6&#45;&gt;Node7</title>
<path fill="none" stroke="#9a32cd" stroke-dasharray="5,2" d="M51.6894,-419.1708C78.0115,-403.0498 119.9888,-377.3407 142.2612,-363.7"/>
<polygon fill="#9a32cd" stroke="#9a32cd" points="49.7895,-416.2301 43.0897,-424.4377 53.4455,-422.1995 49.7895,-416.2301"/>
<text text-anchor="middle" x="89.3174" y="-404.5" font-family="Helvetica,sans-Serif" font-size="10.00" fill="#000000"> action</text>
</g>
<!-- Node7&#45;&gt;Node3 -->
<g id="edge7" class="edge">
<title>Node7&#45;&gt;Node3</title>
<path fill="none" stroke="#9a32cd" stroke-dasharray="5,2" d="M164.9406,-372.9404C173.2892,-390.3455 188.4705,-415.3825 210.5166,-426.5 235.0716,-438.8827 267.2752,-431.7904 288.3327,-424.5457"/>
<polygon fill="#9a32cd" stroke="#9a32cd" points="168.0993,-371.4303 160.8144,-363.7374 161.7119,-374.2942 168.0993,-371.4303"/>
<text text-anchor="middle" x="232.189" y="-434.5" font-family="Helvetica,sans-Serif" font-size="10.00" fill="#000000"> flow</text>
</g>
<!-- Node7&#45;&gt;Node7 -->
<g id="edge9" class="edge">
<title>Node7&#45;&gt;Node7</title>
<path fill="none" stroke="#9a32cd" stroke-dasharray="5,2" d="M145.012,-373.2336C145.6998,-378.2195 149.79,-382 157.2827,-382 169.271,-382 172.549,-372.322 167.1169,-363.5134"/>
<polygon fill="#9a32cd" stroke="#9a32cd" points="148.412,-374.0644 147.4486,-363.5134 141.622,-372.3623 148.412,-374.0644"/>
<text text-anchor="middle" x="157.2827" y="-404" font-family="Helvetica,sans-Serif" font-size="10.00" fill="#000000"> r_next</text>
<text text-anchor="middle" x="157.2827" y="-394" font-family="Helvetica,sans-Serif" font-size="10.00" fill="#000000">prev</text>
<text text-anchor="middle" x="157.2827" y="-384" font-family="Helvetica,sans-Serif" font-size="10.00" fill="#000000">next</text>
</g>
<!-- Node7&#45;&gt;Node14 -->
<g id="edge22" class="edge">
<title>Node7&#45;&gt;Node14</title>
<path fill="none" stroke="#9a32cd" stroke-dasharray="5,2" d="M188.2529,-339.7196C189.7912,-338.4103 191.2289,-337.0049 192.5166,-335.5 208.144,-317.2363 194.8281,-302.7112 210.5166,-284.5 224.7506,-267.9772 235.5669,-273.371 253.8613,-261.5 270.7206,-250.5603 288.7899,-235.8463 299.7864,-226.5156"/>
<polygon fill="#9a32cd" stroke="#9a32cd" points="186.1708,-336.9042 179.9514,-345.4816 190.1622,-342.6548 186.1708,-336.9042"/>
<text text-anchor="middle" x="232.189" y="-286.5" font-family="Helvetica,sans-Serif" font-size="10.00" fill="#000000"> flow</text>
</g>
<!-- Node8 -->
<g id="node8" class="node">
<title>Node8</title>
<g id="a_node8"><a xlink:href="struct__pktin__t.html" target="_top" xlink:title="The structure of an incoming packet. ">
<polygon fill="#ffffff" stroke="#000000" points="131.7705,-308.5 131.7705,-326.5 182.7949,-326.5 182.7949,-308.5 131.7705,-308.5"/>
<text text-anchor="middle" x="157.2827" y="-314.5" font-family="Helvetica,sans-Serif" font-size="10.00" fill="#000000">_pktin_t</text>
</a>
</g>
</g>
<!-- Node8&#45;&gt;Node3 -->
<g id="edge10" class="edge">
<title>Node8&#45;&gt;Node3</title>
<path fill="none" stroke="#9a32cd" stroke-dasharray="5,2" d="M189.7831,-332.6322C190.7543,-333.5397 191.6706,-334.495 192.5166,-335.5 209.8983,-356.1487 190.6502,-375.2293 210.5166,-393.5 226.8173,-408.4914 250.9577,-414.0879 271.3955,-415.8901"/>
<polygon fill="#9a32cd" stroke="#9a32cd" points="191.6503,-329.6617 181.5126,-326.5832 187.5178,-335.3117 191.6503,-329.6617"/>
<text text-anchor="middle" x="232.189" y="-414.5" font-family="Helvetica,sans-Serif" font-size="10.00" fill="#000000"> pktin</text>
</g>
<!-- Node8&#45;&gt;Node14 -->
<g id="edge27" class="edge">
<title>Node8&#45;&gt;Node14</title>
<path fill="none" stroke="#9a32cd" stroke-dasharray="5,2" d="M188.206,-302.6789C189.756,-301.3798 191.2091,-299.9878 192.5166,-298.5 207.2827,-281.698 194.4103,-267.022 210.5166,-251.5 220.9805,-241.4156 256.887,-230.7422 282.595,-224.1015"/>
<polygon fill="#9a32cd" stroke="#9a32cd" points="186.1266,-299.8612 179.8731,-308.4137 190.0951,-305.6276 186.1266,-299.8612"/>
<text text-anchor="middle" x="232.189" y="-253.5" font-family="Helvetica,sans-Serif" font-size="10.00" fill="#000000"> pktin</text>
</g>
<!-- Node9 -->
<g id="node9" class="node">
<title>Node9</title>
<g id="a_node9"><a xlink:href="struct__port__t.html" target="_top" xlink:title="The structure of a port. ">
<polygon fill="#ffffff" stroke="#000000" points="133.7163,-430.5 133.7163,-448.5 180.8491,-448.5 180.8491,-430.5 133.7163,-430.5"/>
<text text-anchor="middle" x="157.2827" y="-436.5" font-family="Helvetica,sans-Serif" font-size="10.00" fill="#000000">_port_t</text>
</a>
</g>
</g>
<!-- Node9&#45;&gt;Node3 -->
<g id="edge11" class="edge">
<title>Node9&#45;&gt;Node3</title>
<path fill="none" stroke="#9a32cd" stroke-dasharray="5,2" d="M184.0013,-452.5747C203.6683,-460.3969 230.8707,-467.4177 253.8613,-459.5 273.802,-452.6327 292.0884,-435.4829 302.1241,-424.7355"/>
<polygon fill="#9a32cd" stroke="#9a32cd" points="185.3056,-449.3259 174.735,-448.6095 182.5517,-455.7614 185.3056,-449.3259"/>
<text text-anchor="middle" x="232.189" y="-464.5" font-family="Helvetica,sans-Serif" font-size="10.00" fill="#000000"> port</text>
</g>
<!-- Node9&#45;&gt;Node9 -->
<g id="edge12" class="edge">
<title>Node9&#45;&gt;Node9</title>
<path fill="none" stroke="#9a32cd" stroke-dasharray="5,2" d="M145.012,-458.2336C145.6998,-463.2195 149.79,-467 157.2827,-467 169.271,-467 172.549,-457.322 167.1169,-448.5134"/>
<polygon fill="#9a32cd" stroke="#9a32cd" points="148.412,-459.0644 147.4486,-448.5134 141.622,-457.3623 148.412,-459.0644"/>
<text text-anchor="middle" x="157.2827" y="-479" font-family="Helvetica,sans-Serif" font-size="10.00" fill="#000000"> prev</text>
<text text-anchor="middle" x="157.2827" y="-469" font-family="Helvetica,sans-Serif" font-size="10.00" fill="#000000">next</text>
</g>
<!-- Node9&#45;&gt;Node14 -->
<g id="edge28" class="edge">
<title>Node9&#45;&gt;Node14</title>
<path fill="none" stroke="#9a32cd" stroke-dasharray="5,2" d="M189.46,-424.9983C190.5722,-423.909 191.5999,-422.7443 192.5166,-421.5 220.3397,-383.7327 182.9878,-355.4824 210.5166,-317.5 223.3149,-299.8418 237.3744,-308.7754 253.8613,-294.5 277.3985,-274.12 296.7312,-242.1465 305.341,-226.5985"/>
<polygon fill="#9a32cd" stroke="#9a32cd" points="187.124,-422.3733 181.1769,-431.1416 191.294,-427.9957 187.124,-422.3733"/>
<text text-anchor="middle" x="232.189" y="-319.5" font-family="Helvetica,sans-Serif" font-size="10.00" fill="#000000"> port</text>
</g>
<!-- Node10 -->
<g id="node10" class="node">
<title>Node10</title>
<g id="a_node10"><a xlink:href="struct__switch__t.html" target="_top" xlink:title="The structure of a switch. ">
<polygon fill="#ffffff" stroke="#000000" points="128.4404,-233.5 128.4404,-251.5 186.125,-251.5 186.125,-233.5 128.4404,-233.5"/>
<text text-anchor="middle" x="157.2827" y="-239.5" font-family="Helvetica,sans-Serif" font-size="10.00" fill="#000000">_switch_t</text>
</a>
</g>
</g>
<!-- Node10&#45;&gt;Node3 -->
<g id="edge13" class="edge">
<title>Node10&#45;&gt;Node3</title>
<path fill="none" stroke="#9a32cd" stroke-dasharray="5,2" d="M170.0518,-259.9595C177.4178,-270.6636 186.4024,-284.8846 192.5166,-298.5 204.271,-324.6752 192.2116,-338.404 210.5166,-360.5 224.2987,-377.1365 234.9013,-372.1445 253.8613,-382.5 267.9816,-390.2122 283.7611,-399.5221 295.0146,-406.2843"/>
<polygon fill="#9a32cd" stroke="#9a32cd" points="172.7422,-257.7023 164.1082,-251.5618 167.0285,-261.7463 172.7422,-257.7023"/>
<text text-anchor="middle" x="232.189" y="-384.5" font-family="Helvetica,sans-Serif" font-size="10.00" fill="#000000"> sw</text>
</g>
<!-- Node10&#45;&gt;Node10 -->
<g id="edge14" class="edge">
<title>Node10&#45;&gt;Node10</title>
<path fill="none" stroke="#9a32cd" stroke-dasharray="5,2" d="M145.012,-261.2336C145.6998,-266.2195 149.79,-270 157.2827,-270 169.271,-270 172.549,-260.322 167.1169,-251.5134"/>
<polygon fill="#9a32cd" stroke="#9a32cd" points="148.412,-262.0644 147.4486,-251.5134 141.622,-260.3623 148.412,-262.0644"/>
<text text-anchor="middle" x="157.2827" y="-282" font-family="Helvetica,sans-Serif" font-size="10.00" fill="#000000"> prev</text>
<text text-anchor="middle" x="157.2827" y="-272" font-family="Helvetica,sans-Serif" font-size="10.00" fill="#000000">next</text>
</g>
<!-- Node10&#45;&gt;Node14 -->
<g id="edge29" class="edge">
<title>Node10&#45;&gt;Node14</title>
<path fill="none" stroke="#9a32cd" stroke-dasharray="5,2" d="M182.1698,-228.7193C190.8706,-224.6025 200.8775,-220.6231 210.5166,-218.5 234.5092,-213.2155 262.5451,-213.4858 282.7568,-214.7745"/>
<polygon fill="#9a32cd" stroke="#9a32cd" points="180.3529,-225.7153 172.9905,-233.334 183.497,-231.9694 180.3529,-225.7153"/>
<text text-anchor="middle" x="232.189" y="-220.5" font-family="Helvetica,sans-Serif" font-size="10.00" fill="#000000"> sw</text>
</g>
<!-- Node11 -->
<g id="node11" class="node">
<title>Node11</title>
<g id="a_node11"><a xlink:href="struct__cli__t.html" target="_top" xlink:title="The context structure of the CLI. ">
<polygon fill="#ffffff" stroke="#000000" points="290.4941,-354.5 290.4941,-372.5 329.8389,-372.5 329.8389,-354.5 290.4941,-354.5"/>
<text text-anchor="middle" x="310.1665" y="-360.5" font-family="Helvetica,sans-Serif" font-size="10.00" fill="#000000">_cli_t</text>
</a>
</g>
</g>
<!-- Node11&#45;&gt;Node2 -->
<g id="edge15" class="edge">
<title>Node11&#45;&gt;Node2</title>
<path fill="none" stroke="#9a32cd" stroke-dasharray="5,2" d="M340.071,-362.0237C366.4743,-360.7202 404.4324,-358.8462 428.6421,-357.651"/>
<polygon fill="#9a32cd" stroke="#9a32cd" points="339.697,-358.5378 329.8818,-362.5267 340.0423,-365.5292 339.697,-358.5378"/>
<text text-anchor="middle" x="384.5405" y="-362.5" font-family="Helvetica,sans-Serif" font-size="10.00" fill="#000000"> cli</text>
</g>
<!-- Node13 -->
<g id="node13" class="node">
<title>Node13</title>
<g id="a_node13"><a xlink:href="struct__compnt__t.html" target="_top" xlink:title="The structure of a component. ">
<polygon fill="#ffffff" stroke="#000000" points="420.6094,-271.5 420.6094,-289.5 483.3037,-289.5 483.3037,-271.5 420.6094,-271.5"/>
<text text-anchor="middle" x="451.9565" y="-277.5" font-family="Helvetica,sans-Serif" font-size="10.00" fill="#000000">_compnt_t</text>
</a>
</g>
</g>
<!-- Node11&#45;&gt;Node13 -->
<g id="edge18" class="edge">
<title>Node11&#45;&gt;Node13</title>
<path fill="none" stroke="#9a32cd" stroke-dasharray="5,2" d="M323.5345,-346.3667C334.0134,-333.9861 349.6056,-317.709 366.4717,-307.5 382.9818,-297.5065 403.5541,-290.8595 420.3798,-286.6617"/>
<polygon fill="#9a32cd" stroke="#9a32cd" points="320.7579,-344.2334 317.1441,-354.1928 326.1799,-348.6608 320.7579,-344.2334"/>
<text text-anchor="middle" x="384.5405" y="-309.5" font-family="Helvetica,sans-Serif" font-size="10.00" fill="#000000"> cli</text>
</g>
<!-- Node12 -->
<g id="node12" class="node">
<title>Node12</title>
<g id="a_node12"><a xlink:href="struct__odp__t.html" target="_top" xlink:title="The structure of an operator&#45;defined policy. ">
<polygon fill="#ffffff" stroke="#000000" points="286.8735,-287.5 286.8735,-305.5 333.4595,-305.5 333.4595,-287.5 286.8735,-287.5"/>
<text text-anchor="middle" x="310.1665" y="-293.5" font-family="Helvetica,sans-Serif" font-size="10.00" fill="#000000">_odp_t</text>
</a>
</g>
</g>
<!-- Node12&#45;&gt;Node2 -->
<g id="edge16" class="edge">
<title>Node12&#45;&gt;Node2</title>
<path fill="none" stroke="#9a32cd" stroke-dasharray="5,2" d="M341.1184,-309.5977C368.2333,-321.0716 406.9194,-337.442 430.6836,-347.4981"/>
<polygon fill="#9a32cd" stroke="#9a32cd" points="342.2748,-306.2865 331.7014,-305.6127 339.5468,-312.7331 342.2748,-306.2865"/>
<text text-anchor="middle" x="384.5405" y="-337.5" font-family="Helvetica,sans-Serif" font-size="10.00" fill="#000000"> odp</text>
</g>
<!-- Node12&#45;&gt;Node13 -->
<g id="edge30" class="edge">
<title>Node12&#45;&gt;Node13</title>
<path fill="none" stroke="#9a32cd" stroke-dasharray="5,2" d="M338.5938,-283.655C347.3519,-280.314 357.147,-277.1823 366.4717,-275.5 384.1743,-272.3062 404.2401,-273.2486 420.4803,-275.1306"/>
<polygon fill="#9a32cd" stroke="#9a32cd" points="337.1808,-280.4511 329.2267,-287.4499 339.8092,-286.9389 337.1808,-280.4511"/>
<text text-anchor="middle" x="384.5405" y="-277.5" font-family="Helvetica,sans-Serif" font-size="10.00" fill="#000000"> odp</text>
</g>
<!-- Node13&#45;&gt;Node1 -->
<g id="edge17" class="edge">
<title>Node13&#45;&gt;Node1</title>
<path fill="none" stroke="#9a32cd" stroke-dasharray="5,2" d="M493.494,-291.174C511.5056,-295.9442 532.7991,-301.7742 551.8799,-307.5 557.6671,-309.2366 563.892,-311.2333 569.6443,-313.1323"/>
<polygon fill="#9a32cd" stroke="#9a32cd" points="494.1471,-287.7269 483.5858,-288.5687 492.3669,-294.4967 494.1471,-287.7269"/>
<text text-anchor="middle" x="526.5918" y="-319.5" font-family="Helvetica,sans-Serif" font-size="10.00" fill="#000000"> ev_list</text>
<text text-anchor="middle" x="526.5918" y="-309.5" font-family="Helvetica,sans-Serif" font-size="10.00" fill="#000000">compnt_list</text>
</g>
<!-- Node14&#45;&gt;Node13 -->
<g id="edge19" class="edge">
<title>Node14&#45;&gt;Node13</title>
<path fill="none" stroke="#9a32cd" stroke-dasharray="5,2" d="M339.6415,-230.5963C367.1883,-242.8358 407.5847,-260.7848 431.6792,-271.4904"/>
<polygon fill="#9a32cd" stroke="#9a32cd" points="341.0413,-227.3884 330.4816,-226.5264 338.1989,-233.7853 341.0413,-227.3884"/>
<text text-anchor="middle" x="384.5405" y="-260.5" font-family="Helvetica,sans-Serif" font-size="10.00" fill="#000000"> handler</text>
</g>
<!-- Node15 -->
<g id="node15" class="node">
<title>Node15</title>
<g id="a_node15"><a xlink:href="struct__msg__t.html" target="_top" xlink:title="The structure of a message. ">
<polygon fill="#ffffff" stroke="#000000" points="132.8862,-.5 132.8862,-18.5 181.6792,-18.5 181.6792,-.5 132.8862,-.5"/>
<text text-anchor="middle" x="157.2827" y="-6.5" font-family="Helvetica,sans-Serif" font-size="10.00" fill="#000000">_msg_t</text>
</a>
</g>
</g>
<!-- Node15&#45;&gt;Node14 -->
<g id="edge23" class="edge">
<title>Node15&#45;&gt;Node14</title>
<path fill="none" stroke="#9a32cd" stroke-dasharray="5,2" d="M191.865,-12.3123C212.3656,-15.7187 237.4632,-23.1867 253.8613,-39.5 278.7925,-64.3023 301.914,-174.9537 308.3802,-208.0922"/>
<polygon fill="#9a32cd" stroke="#9a32cd" points="192.3231,-8.8424 181.9321,-10.9106 191.3448,-15.7737 192.3231,-8.8424"/>
<text text-anchor="middle" x="232.189" y="-41.5" font-family="Helvetica,sans-Serif" font-size="10.00" fill="#000000"> msg</text>
</g>
<!-- Node16 -->
<g id="node16" class="node">
<title>Node16</title>
<g id="a_node16"><a xlink:href="struct__raw__msg__t.html" target="_top" xlink:title="The structure of a raw message. ">
<polygon fill="#ffffff" stroke="#000000" points="122.0488,-111.5 122.0488,-129.5 192.5166,-129.5 192.5166,-111.5 122.0488,-111.5"/>
<text text-anchor="middle" x="157.2827" y="-117.5" font-family="Helvetica,sans-Serif" font-size="10.00" fill="#000000">_raw_msg_t</text>
</a>
</g>
</g>
<!-- Node16&#45;&gt;Node14 -->
<g id="edge24" class="edge">
<title>Node16&#45;&gt;Node14</title>
<path fill="none" stroke="#9a32cd" stroke-dasharray="5,2" d="M203.0279,-118.3686C220.0601,-119.5052 238.8746,-123.2148 253.8613,-132.5 283.2029,-150.679 300.5136,-190.4817 307.0972,-208.4181"/>
<polygon fill="#9a32cd" stroke="#9a32cd" points="202.832,-114.8584 192.7034,-117.9665 202.5596,-121.8531 202.832,-114.8584"/>
<text text-anchor="middle" x="232.189" y="-134.5" font-family="Helvetica,sans-Serif" font-size="10.00" fill="#000000"> raw_msg</text>
</g>
<!-- Node17 -->
<g id="node17" class="node">
<title>Node17</title>
<g id="a_node17"><a xlink:href="struct__traffic__t.html" target="_top" xlink:title="The structure of traffic usage. ">
<polygon fill="#ffffff" stroke="#000000" points="130.1079,-74.5 130.1079,-92.5 184.4575,-92.5 184.4575,-74.5 130.1079,-74.5"/>
<text text-anchor="middle" x="157.2827" y="-80.5" font-family="Helvetica,sans-Serif" font-size="10.00" fill="#000000">_traffic_t</text>
</a>
</g>
</g>
<!-- Node17&#45;&gt;Node14 -->
<g id="edge25" class="edge">
<title>Node17&#45;&gt;Node14</title>
<path fill="none" stroke="#9a32cd" stroke-dasharray="5,2" d="M194.5594,-84.5408C213.981,-86.8001 237.1071,-92.3765 253.8613,-105.5 288.47,-132.6088 303.5186,-186.6699 308.3273,-208.2708"/>
<polygon fill="#9a32cd" stroke="#9a32cd" points="194.7829,-81.0467 184.5052,-83.6195 194.1441,-88.0175 194.7829,-81.0467"/>
<text text-anchor="middle" x="232.189" y="-107.5" font-family="Helvetica,sans-Serif" font-size="10.00" fill="#000000"> traffic</text>
</g>
<!-- Node18 -->
<g id="node18" class="node">
<title>Node18</title>
<g id="a_node18"><a xlink:href="struct__resource__t.html" target="_top" xlink:title="The structure of resource usage. ">
<polygon fill="#ffffff" stroke="#000000" points="122.8789,-37.5 122.8789,-55.5 191.6865,-55.5 191.6865,-37.5 122.8789,-37.5"/>
<text text-anchor="middle" x="157.2827" y="-43.5" font-family="Helvetica,sans-Serif" font-size="10.00" fill="#000000">_resource_t</text>
</a>
</g>
</g>
<!-- Node18&#45;&gt;Node14 -->
<g id="edge26" class="edge">
<title>Node18&#45;&gt;Node14</title>
<path fill="none" stroke="#9a32cd" stroke-dasharray="5,2" d="M201.8305,-50.8115C219.8319,-54.5755 239.664,-61.5642 253.8613,-74.5 294.8842,-111.8779 306.4151,-182.919 309.297,-208.2454"/>
<polygon fill="#9a32cd" stroke="#9a32cd" points="202.2473,-47.3301 191.7835,-48.9911 200.9992,-54.218 202.2473,-47.3301"/>
<text text-anchor="middle" x="232.189" y="-76.5" font-family="Helvetica,sans-Serif" font-size="10.00" fill="#000000"> resource</text>
</g>
</g>
</svg>
