<?xml version="1.0" encoding="UTF-8" standalone="no"?>
<!DOCTYPE svg PUBLIC "-//W3C//DTD SVG 1.1//EN"
 "http://www.w3.org/Graphics/SVG/1.1/DTD/svg11.dtd">
<!-- Generated by graphviz version 2.40.1 (20161225.0304)
 -->
<!-- Title: _compnt_t Pages: 1 -->
<svg width="519pt" height="724pt"
 viewBox="0.00 0.00 518.53 724.00" xmlns="http://www.w3.org/2000/svg" xmlns:xlink="http://www.w3.org/1999/xlink">
<g id="graph0" class="graph" transform="scale(1 1) rotate(0) translate(4 720)">
<title>_compnt_t</title>
<polygon fill="#ffffff" stroke="transparent" points="-4,4 -4,-720 514.5254,-720 514.5254,4 -4,4"/>
<!-- Node1 -->
<g id="node1" class="node">
<title>Node1</title>
<polygon fill="#bfbfbf" stroke="#000000" points="447.8311,-305.5 447.8311,-323.5 510.5254,-323.5 510.5254,-305.5 447.8311,-305.5"/>
<text text-anchor="middle" x="479.1782" y="-311.5" font-family="Helvetica,sans-Serif" font-size="10.00" fill="#000000">_compnt_t</text>
</g>
<!-- Node2 -->
<g id="node2" class="node">
<title>Node2</title>
<g id="a_node2"><a xlink:href="structcli__def.html" target="_top" xlink:title="cli_def">
<polygon fill="#ffffff" stroke="#000000" points="326.0581,-561.5 326.0581,-579.5 370.9644,-579.5 370.9644,-561.5 326.0581,-561.5"/>
<text text-anchor="middle" x="348.5112" y="-567.5" font-family="Helvetica,sans-Serif" font-size="10.00" fill="#000000">cli_def</text>
</a>
</g>
</g>
<!-- Node2&#45;&gt;Node1 -->
<g id="edge1" class="edge">
<title>Node2&#45;&gt;Node1</title>
<path fill="none" stroke="#9a32cd" stroke-dasharray="5,2" d="M357.8135,-552.2751C383.6586,-501.64 455.6754,-360.5463 474.5834,-323.502"/>
<polygon fill="#9a32cd" stroke="#9a32cd" points="354.5906,-550.8908 353.1617,-561.3888 360.8254,-554.0732 354.5906,-550.8908"/>
<text text-anchor="middle" x="411.7622" y="-481.5" font-family="Helvetica,sans-Serif" font-size="10.00" fill="#000000"> cli</text>
</g>
<!-- Node3 -->
<g id="node3" class="node">
<title>Node3</title>
<g id="a_node3"><a xlink:href="structunp.html" target="_top" xlink:title="unp">
<polygon fill="#ffffff" stroke="#000000" points="179.8467,-669.5 179.8467,-687.5 212.5313,-687.5 212.5313,-669.5 179.8467,-669.5"/>
<text text-anchor="middle" x="196.189" y="-675.5" font-family="Helvetica,sans-Serif" font-size="10.00" fill="#000000">unp</text>
</a>
</g>
</g>
<!-- Node3&#45;&gt;Node2 -->
<g id="edge2" class="edge">
<title>Node3&#45;&gt;Node2</title>
<path fill="none" stroke="#9a32cd" stroke-dasharray="5,2" d="M221.7387,-666.9606C225.7845,-664.9233 229.8745,-662.7353 233.6445,-660.5 266.4331,-641.0595 273.5343,-634.2759 303.3291,-610.5 315.9398,-600.4368 329.7286,-588.0058 338.7146,-579.6974"/>
<polygon fill="#9a32cd" stroke="#9a32cd" points="220.0368,-663.8956 212.5501,-671.3923 223.0777,-670.2006 220.0368,-663.8956"/>
<text text-anchor="middle" x="277.4868" y="-650.5" font-family="Helvetica,sans-Serif" font-size="10.00" fill="#000000"> users</text>
</g>
<!-- Node3&#45;&gt;Node3 -->
<g id="edge3" class="edge">
<title>Node3&#45;&gt;Node3</title>
<path fill="none" stroke="#9a32cd" stroke-dasharray="5,2" d="M182.4309,-697.2336C183.2021,-702.2195 187.7881,-706 196.189,-706 209.6304,-706 213.3058,-696.322 207.2151,-687.5134"/>
<polygon fill="#9a32cd" stroke="#9a32cd" points="185.8265,-698.0875 185.1628,-687.5134 179.0876,-696.1934 185.8265,-698.0875"/>
<text text-anchor="middle" x="196.189" y="-708" font-family="Helvetica,sans-Serif" font-size="10.00" fill="#000000"> next</text>
</g>
<!-- Node4 -->
<g id="node4" class="node">
<title>Node4</title>
<g id="a_node4"><a xlink:href="structcli__filter.html" target="_top" xlink:title="cli_filter">
<polygon fill="#ffffff" stroke="#000000" points="171.2407,-604.5 171.2407,-622.5 221.1372,-622.5 221.1372,-604.5 171.2407,-604.5"/>
<text text-anchor="middle" x="196.189" y="-610.5" font-family="Helvetica,sans-Serif" font-size="10.00" fill="#000000">cli_filter</text>
</a>
</g>
</g>
<!-- Node4&#45;&gt;Node2 -->
<g id="edge4" class="edge">
<title>Node4&#45;&gt;Node2</title>
<path fill="none" stroke="#9a32cd" stroke-dasharray="5,2" d="M231.1071,-603.6428C260.1951,-595.4313 300.7756,-583.9756 325.8099,-576.9085"/>
<polygon fill="#9a32cd" stroke="#9a32cd" points="230.0149,-600.3142 221.3419,-606.3994 231.9167,-607.0509 230.0149,-600.3142"/>
<text text-anchor="middle" x="277.4868" y="-598.5" font-family="Helvetica,sans-Serif" font-size="10.00" fill="#000000"> filters</text>
</g>
<!-- Node4&#45;&gt;Node4 -->
<g id="edge5" class="edge">
<title>Node4&#45;&gt;Node4</title>
<path fill="none" stroke="#9a32cd" stroke-dasharray="5,2" d="M182.4309,-632.2336C183.2021,-637.2195 187.7881,-641 196.189,-641 209.6304,-641 213.3058,-631.322 207.2151,-622.5134"/>
<polygon fill="#9a32cd" stroke="#9a32cd" points="185.8265,-633.0875 185.1628,-622.5134 179.0876,-631.1934 185.8265,-633.0875"/>
<text text-anchor="middle" x="196.189" y="-643" font-family="Helvetica,sans-Serif" font-size="10.00" fill="#000000"> next</text>
</g>
<!-- Node5 -->
<g id="node5" class="node">
<title>Node5</title>
<g id="a_node5"><a xlink:href="structcli__command.html" target="_top" xlink:title="cli_command">
<polygon fill="#ffffff" stroke="#000000" points="158.7334,-519.5 158.7334,-537.5 233.6445,-537.5 233.6445,-519.5 158.7334,-519.5"/>
<text text-anchor="middle" x="196.189" y="-525.5" font-family="Helvetica,sans-Serif" font-size="10.00" fill="#000000">cli_command</text>
</a>
</g>
</g>
<!-- Node5&#45;&gt;Node2 -->
<g id="edge6" class="edge">
<title>Node5&#45;&gt;Node2</title>
<path fill="none" stroke="#9a32cd" stroke-dasharray="5,2" d="M238.8683,-540.268C267.0594,-548.0412 302.892,-557.9214 325.7701,-564.2296"/>
<polygon fill="#9a32cd" stroke="#9a32cd" points="239.4365,-536.7942 228.8659,-537.5101 237.5758,-543.5423 239.4365,-536.7942"/>
<text text-anchor="middle" x="277.4868" y="-558.5" font-family="Helvetica,sans-Serif" font-size="10.00" fill="#000000"> commands</text>
</g>
<!-- Node5&#45;&gt;Node5 -->
<g id="edge7" class="edge">
<title>Node5&#45;&gt;Node5</title>
<path fill="none" stroke="#9a32cd" stroke-dasharray="5,2" d="M182.4309,-547.2336C183.2021,-552.2195 187.7881,-556 196.189,-556 209.6304,-556 213.3058,-546.322 207.2151,-537.5134"/>
<polygon fill="#9a32cd" stroke="#9a32cd" points="185.8265,-548.0875 185.1628,-537.5134 179.0876,-546.1934 185.8265,-548.0875"/>
<text text-anchor="middle" x="196.189" y="-578" font-family="Helvetica,sans-Serif" font-size="10.00" fill="#000000"> next</text>
<text text-anchor="middle" x="196.189" y="-568" font-family="Helvetica,sans-Serif" font-size="10.00" fill="#000000">parent</text>
<text text-anchor="middle" x="196.189" y="-558" font-family="Helvetica,sans-Serif" font-size="10.00" fill="#000000">children</text>
</g>
<!-- Node6 -->
<g id="node6" class="node">
<title>Node6</title>
<g id="a_node6"><a xlink:href="struct__event__t.html" target="_top" xlink:title="The structure of an event (read&#45;only) ">
<polygon fill="#ffffff" stroke="#000000" points="321.3291,-305.5 321.3291,-323.5 375.6934,-323.5 375.6934,-305.5 321.3291,-305.5"/>
<text text-anchor="middle" x="348.5112" y="-311.5" font-family="Helvetica,sans-Serif" font-size="10.00" fill="#000000">_event_t</text>
</a>
</g>
</g>
<!-- Node6&#45;&gt;Node1 -->
<g id="edge8" class="edge">
<title>Node6&#45;&gt;Node1</title>
<path fill="none" stroke="#9a32cd" stroke-dasharray="5,2" d="M385.9817,-314.5C405.5067,-314.5 429.1171,-314.5 447.6879,-314.5"/>
<polygon fill="#9a32cd" stroke="#9a32cd" points="385.9033,-311.0001 375.9033,-314.5 385.9033,-318.0001 385.9033,-311.0001"/>
<text text-anchor="middle" x="411.7622" y="-316.5" font-family="Helvetica,sans-Serif" font-size="10.00" fill="#000000"> handler</text>
</g>
<!-- Node7 -->
<g id="node7" class="node">
<title>Node7</title>
<g id="a_node7"><a xlink:href="struct__host__t.html" target="_top" xlink:title="The structure of a host. ">
<polygon fill="#ffffff" stroke="#000000" points="171.7876,-212.5 171.7876,-230.5 220.5903,-230.5 220.5903,-212.5 171.7876,-212.5"/>
<text text-anchor="middle" x="196.189" y="-218.5" font-family="Helvetica,sans-Serif" font-size="10.00" fill="#000000">_host_t</text>
</a>
</g>
</g>
<!-- Node7&#45;&gt;Node6 -->
<g id="edge9" class="edge">
<title>Node7&#45;&gt;Node6</title>
<path fill="none" stroke="#9a32cd" stroke-dasharray="5,2" d="M230.7868,-225.047C253.782,-229.0377 283.3177,-237.5121 303.3291,-255.5 318.1296,-268.8039 308.5117,-281.2762 321.3291,-296.5 324.1725,-299.8772 327.8066,-302.8675 331.4857,-305.393"/>
<polygon fill="#9a32cd" stroke="#9a32cd" points="231.1535,-221.5624 220.7394,-223.5108 230.0955,-228.482 231.1535,-221.5624"/>
<text text-anchor="middle" x="277.4868" y="-257.5" font-family="Helvetica,sans-Serif" font-size="10.00" fill="#000000"> host</text>
</g>
<!-- Node8 -->
<g id="node8" class="node">
<title>Node8</title>
<g id="a_node8"><a xlink:href="struct__pktout__t.html" target="_top" xlink:title="The structure of an outgoing packet. ">
<polygon fill="#ffffff" stroke="#000000" points="167.6177,-286.5 167.6177,-304.5 224.7603,-304.5 224.7603,-286.5 167.6177,-286.5"/>
<text text-anchor="middle" x="196.189" y="-292.5" font-family="Helvetica,sans-Serif" font-size="10.00" fill="#000000">_pktout_t</text>
</a>
</g>
</g>
<!-- Node8&#45;&gt;Node6 -->
<g id="edge10" class="edge">
<title>Node8&#45;&gt;Node6</title>
<path fill="none" stroke="#9a32cd" stroke-dasharray="5,2" d="M235.0991,-298.1565C255.4806,-299.794 280.8181,-302.2164 303.3291,-305.5 309.0275,-306.3312 315.0946,-307.4068 320.8721,-308.5235"/>
<polygon fill="#9a32cd" stroke="#9a32cd" points="235.1737,-294.6519 224.9338,-297.3713 234.6346,-301.6311 235.1737,-294.6519"/>
<text text-anchor="middle" x="277.4868" y="-307.5" font-family="Helvetica,sans-Serif" font-size="10.00" fill="#000000"> pktout</text>
</g>
<!-- Node9 -->
<g id="node9" class="node">
<title>Node9</title>
<g id="a_node9"><a xlink:href="struct__action__t.html" target="_top" xlink:title="The structure of an action. ">
<polygon fill="#ffffff" stroke="#000000" points="14.1724,-305.5 14.1724,-323.5 70.7583,-323.5 70.7583,-305.5 14.1724,-305.5"/>
<text text-anchor="middle" x="42.4653" y="-311.5" font-family="Helvetica,sans-Serif" font-size="10.00" fill="#000000">_action_t</text>
</a>
</g>
</g>
<!-- Node9&#45;&gt;Node8 -->
<g id="edge11" class="edge">
<title>Node9&#45;&gt;Node8</title>
<path fill="none" stroke="#9a32cd" stroke-dasharray="5,2" d="M81.2238,-309.7095C108.0619,-306.3924 143.1968,-302.0498 167.5275,-299.0425"/>
<polygon fill="#9a32cd" stroke="#9a32cd" points="80.5144,-306.2705 71.0193,-310.9708 81.3731,-313.2176 80.5144,-306.2705"/>
<text text-anchor="middle" x="121.832" y="-308.5" font-family="Helvetica,sans-Serif" font-size="10.00" fill="#000000"> action</text>
</g>
<!-- Node10 -->
<g id="node10" class="node">
<title>Node10</title>
<g id="a_node10"><a xlink:href="struct__flow__t.html" target="_top" xlink:title="The structure of a flow. ">
<polygon fill="#ffffff" stroke="#000000" points="172.3467,-323.5 172.3467,-341.5 220.0313,-341.5 220.0313,-323.5 172.3467,-323.5"/>
<text text-anchor="middle" x="196.189" y="-329.5" font-family="Helvetica,sans-Serif" font-size="10.00" fill="#000000">_flow_t</text>
</a>
</g>
</g>
<!-- Node9&#45;&gt;Node10 -->
<g id="edge15" class="edge">
<title>Node9&#45;&gt;Node10</title>
<path fill="none" stroke="#9a32cd" stroke-dasharray="5,2" d="M81.1092,-319.0249C109.7823,-322.3824 147.9734,-326.8543 172.3278,-329.706"/>
<polygon fill="#9a32cd" stroke="#9a32cd" points="81.3585,-315.5303 71.0193,-317.8435 80.5444,-322.4828 81.3585,-315.5303"/>
<text text-anchor="middle" x="121.832" y="-327.5" font-family="Helvetica,sans-Serif" font-size="10.00" fill="#000000"> action</text>
</g>
<!-- Node10&#45;&gt;Node6 -->
<g id="edge12" class="edge">
<title>Node10&#45;&gt;Node6</title>
<path fill="none" stroke="#9a32cd" stroke-dasharray="5,2" d="M230.263,-328.4735C257.674,-325.2343 295.6877,-320.7422 321.1423,-317.7342"/>
<polygon fill="#9a32cd" stroke="#9a32cd" points="229.845,-324.9984 220.3249,-329.6478 230.6666,-331.95 229.845,-324.9984"/>
<text text-anchor="middle" x="277.4868" y="-327.5" font-family="Helvetica,sans-Serif" font-size="10.00" fill="#000000"> flow</text>
</g>
<!-- Node10&#45;&gt;Node10 -->
<g id="edge16" class="edge">
<title>Node10&#45;&gt;Node10</title>
<path fill="none" stroke="#9a32cd" stroke-dasharray="5,2" d="M182.4309,-351.2336C183.2021,-356.2195 187.7881,-360 196.189,-360 209.6304,-360 213.3058,-350.322 207.2151,-341.5134"/>
<polygon fill="#9a32cd" stroke="#9a32cd" points="185.8265,-352.0875 185.1628,-341.5134 179.0876,-350.1934 185.8265,-352.0875"/>
<text text-anchor="middle" x="196.189" y="-382" font-family="Helvetica,sans-Serif" font-size="10.00" fill="#000000"> r_next</text>
<text text-anchor="middle" x="196.189" y="-372" font-family="Helvetica,sans-Serif" font-size="10.00" fill="#000000">prev</text>
<text text-anchor="middle" x="196.189" y="-362" font-family="Helvetica,sans-Serif" font-size="10.00" fill="#000000">next</text>
</g>
<!-- Node11 -->
<g id="node11" class="node">
<title>Node11</title>
<g id="a_node11"><a xlink:href="struct__pkt__info__t.html" target="_top" xlink:title="The structure of a packet. ">
<polygon fill="#ffffff" stroke="#000000" points="10.0024,-235.5 10.0024,-253.5 74.9282,-253.5 74.9282,-235.5 10.0024,-235.5"/>
<text text-anchor="middle" x="42.4653" y="-241.5" font-family="Helvetica,sans-Serif" font-size="10.00" fill="#000000">_pkt_info_t</text>
</a>
</g>
</g>
<!-- Node11&#45;&gt;Node10 -->
<g id="edge13" class="edge">
<title>Node11&#45;&gt;Node10</title>
<path fill="none" stroke="#9a32cd" stroke-dasharray="5,2" d="M85.1347,-251.694C103.9227,-256.6386 125.204,-264.8762 140.7334,-278.5 154.1806,-290.2971 145.9856,-301.9504 158.7334,-314.5 162.538,-318.2454 167.2727,-321.3296 172.0819,-323.8218"/>
<polygon fill="#9a32cd" stroke="#9a32cd" points="85.8347,-248.2628 75.2943,-249.335 84.2028,-255.0699 85.8347,-248.2628"/>
<text text-anchor="middle" x="121.832" y="-290.5" font-family="Helvetica,sans-Serif" font-size="10.00" fill="#000000"> pkt_info</text>
<text text-anchor="middle" x="121.832" y="-280.5" font-family="Helvetica,sans-Serif" font-size="10.00" fill="#000000">match</text>
</g>
<!-- Node18 -->
<g id="node18" class="node">
<title>Node18</title>
<g id="a_node18"><a xlink:href="struct__pktin__t.html" target="_top" xlink:title="The structure of an incoming packet. ">
<polygon fill="#ffffff" stroke="#000000" points="170.6768,-249.5 170.6768,-267.5 221.7012,-267.5 221.7012,-249.5 170.6768,-249.5"/>
<text text-anchor="middle" x="196.189" y="-255.5" font-family="Helvetica,sans-Serif" font-size="10.00" fill="#000000">_pktin_t</text>
</a>
</g>
</g>
<!-- Node11&#45;&gt;Node18 -->
<g id="edge23" class="edge">
<title>Node11&#45;&gt;Node18</title>
<path fill="none" stroke="#9a32cd" stroke-dasharray="5,2" d="M69.3764,-231.2727C89.4583,-223.2445 117.3462,-216.0327 140.7334,-224.5 150.5251,-228.0451 150.0347,-233.7749 158.7334,-239.5 164.215,-243.1078 170.4717,-246.5272 176.2811,-249.4447"/>
<polygon fill="#9a32cd" stroke="#9a32cd" points="67.7275,-228.1718 59.9257,-235.34 70.4948,-234.6017 67.7275,-228.1718"/>
<text text-anchor="middle" x="121.832" y="-226.5" font-family="Helvetica,sans-Serif" font-size="10.00" fill="#000000"> pkt_info</text>
</g>
<!-- Node12 -->
<g id="node12" class="node">
<title>Node12</title>
<g id="a_node12"><a xlink:href="struct__flow__meta__t.html" target="_top" xlink:title="The structure of flow metadata. ">
<polygon fill="#ffffff" stroke="#000000" points="4.7266,-391.5 4.7266,-409.5 80.2041,-409.5 80.2041,-391.5 4.7266,-391.5"/>
<text text-anchor="middle" x="42.4653" y="-397.5" font-family="Helvetica,sans-Serif" font-size="10.00" fill="#000000">_flow_meta_t</text>
</a>
</g>
</g>
<!-- Node12&#45;&gt;Node10 -->
<g id="edge14" class="edge">
<title>Node12&#45;&gt;Node10</title>
<path fill="none" stroke="#9a32cd" stroke-dasharray="5,2" d="M80.896,-388.1433C99.3034,-381.7918 121.4793,-373.5001 140.7334,-364.5 155.2339,-357.7219 170.9678,-348.4441 181.9595,-341.6235"/>
<polygon fill="#9a32cd" stroke="#9a32cd" points="79.721,-384.8459 71.3752,-391.3727 81.9696,-391.475 79.721,-384.8459"/>
<text text-anchor="middle" x="121.832" y="-381.5" font-family="Helvetica,sans-Serif" font-size="10.00" fill="#000000"> meta</text>
</g>
<!-- Node13 -->
<g id="node13" class="node">
<title>Node13</title>
<g id="a_node13"><a xlink:href="struct__flow__stat__t.html" target="_top" xlink:title="The structure of flow statistics. ">
<polygon fill="#ffffff" stroke="#000000" points="7.7832,-354.5 7.7832,-372.5 77.1475,-372.5 77.1475,-354.5 7.7832,-354.5"/>
<text text-anchor="middle" x="42.4653" y="-360.5" font-family="Helvetica,sans-Serif" font-size="10.00" fill="#000000">_flow_stat_t</text>
</a>
</g>
</g>
<!-- Node13&#45;&gt;Node10 -->
<g id="edge17" class="edge">
<title>Node13&#45;&gt;Node10</title>
<path fill="none" stroke="#9a32cd" stroke-dasharray="5,2" d="M87.1983,-354.4791C114.8605,-348.9007 149.2934,-341.957 171.9661,-337.3848"/>
<polygon fill="#9a32cd" stroke="#9a32cd" points="86.4584,-351.0578 77.3476,-356.4656 87.8422,-357.9197 86.4584,-351.0578"/>
<text text-anchor="middle" x="121.832" y="-352.5" font-family="Helvetica,sans-Serif" font-size="10.00" fill="#000000"> stat</text>
</g>
<!-- Node14 -->
<g id="node14" class="node">
<title>Node14</title>
<g id="a_node14"><a xlink:href="struct__flow__info__t.html" target="_top" xlink:title="The structure of flow information. ">
<polygon fill="#ffffff" stroke="#000000" points="7.7808,-428.5 7.7808,-446.5 77.1499,-446.5 77.1499,-428.5 7.7808,-428.5"/>
<text text-anchor="middle" x="42.4653" y="-434.5" font-family="Helvetica,sans-Serif" font-size="10.00" fill="#000000">_flow_info_t</text>
</a>
</g>
</g>
<!-- Node14&#45;&gt;Node10 -->
<g id="edge18" class="edge">
<title>Node14&#45;&gt;Node10</title>
<path fill="none" stroke="#9a32cd" stroke-dasharray="5,2" d="M80.4659,-424.8681C99.5975,-417.4566 122.5293,-406.8986 140.7334,-393.5 161.2512,-378.3984 180.0469,-354.8065 189.5958,-341.832"/>
<polygon fill="#9a32cd" stroke="#9a32cd" points="78.9981,-421.68 70.8529,-428.4554 81.4455,-428.2383 78.9981,-421.68"/>
<text text-anchor="middle" x="121.832" y="-415.5" font-family="Helvetica,sans-Serif" font-size="10.00" fill="#000000"> info</text>
</g>
<!-- Node15 -->
<g id="node15" class="node">
<title>Node15</title>
<g id="a_node15"><a xlink:href="struct__msg__t.html" target="_top" xlink:title="The structure of a message. ">
<polygon fill="#ffffff" stroke="#000000" points="171.7925,-482.5 171.7925,-500.5 220.5854,-500.5 220.5854,-482.5 171.7925,-482.5"/>
<text text-anchor="middle" x="196.189" y="-488.5" font-family="Helvetica,sans-Serif" font-size="10.00" fill="#000000">_msg_t</text>
</a>
</g>
</g>
<!-- Node15&#45;&gt;Node6 -->
<g id="edge19" class="edge">
<title>Node15&#45;&gt;Node6</title>
<path fill="none" stroke="#9a32cd" stroke-dasharray="5,2" d="M230.6878,-485.1412C254.0859,-479.1507 284.1376,-467.9238 303.3291,-447.5 337.7295,-410.8907 346.0232,-347.0791 347.9506,-323.5492"/>
<polygon fill="#9a32cd" stroke="#9a32cd" points="229.7266,-481.7717 220.7942,-487.4695 231.3301,-488.5856 229.7266,-481.7717"/>
<text text-anchor="middle" x="277.4868" y="-479.5" font-family="Helvetica,sans-Serif" font-size="10.00" fill="#000000"> msg</text>
</g>
<!-- Node16 -->
<g id="node16" class="node">
<title>Node16</title>
<g id="a_node16"><a xlink:href="struct__traffic__t.html" target="_top" xlink:title="The structure of traffic usage. ">
<polygon fill="#ffffff" stroke="#000000" points="169.0142,-445.5 169.0142,-463.5 223.3638,-463.5 223.3638,-445.5 169.0142,-445.5"/>
<text text-anchor="middle" x="196.189" y="-451.5" font-family="Helvetica,sans-Serif" font-size="10.00" fill="#000000">_traffic_t</text>
</a>
</g>
</g>
<!-- Node16&#45;&gt;Node6 -->
<g id="edge20" class="edge">
<title>Node16&#45;&gt;Node6</title>
<path fill="none" stroke="#9a32cd" stroke-dasharray="5,2" d="M233.3103,-442.4833C255.7729,-433.711 283.7601,-419.9346 303.3291,-400.5 326.3055,-377.6814 340.2322,-340.7157 345.7596,-323.659"/>
<polygon fill="#9a32cd" stroke="#9a32cd" points="231.8923,-439.2766 223.7463,-446.0511 234.3389,-445.8352 231.8923,-439.2766"/>
<text text-anchor="middle" x="277.4868" y="-435.5" font-family="Helvetica,sans-Serif" font-size="10.00" fill="#000000"> traffic</text>
</g>
<!-- Node17 -->
<g id="node17" class="node">
<title>Node17</title>
<g id="a_node17"><a xlink:href="struct__resource__t.html" target="_top" xlink:title="The structure of resource usage. ">
<polygon fill="#ffffff" stroke="#000000" points="161.7852,-408.5 161.7852,-426.5 230.5928,-426.5 230.5928,-408.5 161.7852,-408.5"/>
<text text-anchor="middle" x="196.189" y="-414.5" font-family="Helvetica,sans-Serif" font-size="10.00" fill="#000000">_resource_t</text>
</a>
</g>
</g>
<!-- Node17&#45;&gt;Node6 -->
<g id="edge21" class="edge">
<title>Node17&#45;&gt;Node6</title>
<path fill="none" stroke="#9a32cd" stroke-dasharray="5,2" d="M225.8464,-403.8962C228.5186,-402.4766 231.1538,-401.0016 233.6445,-399.5 274.0122,-375.1638 317.7325,-340.1301 337.5927,-323.6833"/>
<polygon fill="#9a32cd" stroke="#9a32cd" points="224.1296,-400.842 216.7739,-408.4672 227.2793,-407.0934 224.1296,-400.842"/>
<text text-anchor="middle" x="277.4868" y="-388.5" font-family="Helvetica,sans-Serif" font-size="10.00" fill="#000000"> resource</text>
</g>
<!-- Node18&#45;&gt;Node6 -->
<g id="edge22" class="edge">
<title>Node18&#45;&gt;Node6</title>
<path fill="none" stroke="#9a32cd" stroke-dasharray="5,2" d="M231.989,-264.5039C253.2737,-268.8055 280.4877,-275.6065 303.3291,-285.5 306.6648,-286.9448 322.7129,-297.3976 334.7416,-305.3433"/>
<polygon fill="#9a32cd" stroke="#9a32cd" points="232.5433,-261.0463 222.0616,-262.5903 231.2184,-267.9198 232.5433,-261.0463"/>
<text text-anchor="middle" x="277.4868" y="-287.5" font-family="Helvetica,sans-Serif" font-size="10.00" fill="#000000"> pktin</text>
</g>
<!-- Node19 -->
<g id="node19" class="node">
<title>Node19</title>
<g id="a_node19"><a xlink:href="struct__port__t.html" target="_top" xlink:title="The structure of a port. ">
<polygon fill="#ffffff" stroke="#000000" points="172.6226,-162.5 172.6226,-180.5 219.7554,-180.5 219.7554,-162.5 172.6226,-162.5"/>
<text text-anchor="middle" x="196.189" y="-168.5" font-family="Helvetica,sans-Serif" font-size="10.00" fill="#000000">_port_t</text>
</a>
</g>
</g>
<!-- Node19&#45;&gt;Node6 -->
<g id="edge24" class="edge">
<title>Node19&#45;&gt;Node6</title>
<path fill="none" stroke="#9a32cd" stroke-dasharray="5,2" d="M229.7464,-177.181C253.7086,-182.9938 284.8531,-194.4411 303.3291,-216.5 326.7301,-244.439 300.6428,-266.4955 321.3291,-296.5 323.7065,-299.9483 326.9807,-302.9071 330.4346,-305.3712"/>
<polygon fill="#9a32cd" stroke="#9a32cd" points="230.4944,-173.7619 219.9745,-175.0203 228.983,-180.5968 230.4944,-173.7619"/>
<text text-anchor="middle" x="277.4868" y="-218.5" font-family="Helvetica,sans-Serif" font-size="10.00" fill="#000000"> port</text>
</g>
<!-- Node20 -->
<g id="node20" class="node">
<title>Node20</title>
<g id="a_node20"><a xlink:href="struct__port__link__t.html" target="_top" xlink:title="The structure of a link. ">
<polygon fill="#ffffff" stroke="#000000" points="8.6157,-185.5 8.6157,-203.5 76.3149,-203.5 76.3149,-185.5 8.6157,-185.5"/>
<text text-anchor="middle" x="42.4653" y="-191.5" font-family="Helvetica,sans-Serif" font-size="10.00" fill="#000000">_port_link_t</text>
</a>
</g>
</g>
<!-- Node20&#45;&gt;Node19 -->
<g id="edge25" class="edge">
<title>Node20&#45;&gt;Node19</title>
<path fill="none" stroke="#9a32cd" stroke-dasharray="5,2" d="M86.4934,-187.9126C114.3646,-183.7425 149.329,-178.5111 172.1908,-175.0906"/>
<polygon fill="#9a32cd" stroke="#9a32cd" points="85.9536,-184.4543 76.5816,-189.3956 86.9894,-191.3772 85.9536,-184.4543"/>
<text text-anchor="middle" x="121.832" y="-187.5" font-family="Helvetica,sans-Serif" font-size="10.00" fill="#000000"> link</text>
</g>
<!-- Node21 -->
<g id="node21" class="node">
<title>Node21</title>
<g id="a_node21"><a xlink:href="struct__port__info__t.html" target="_top" xlink:title="The structure of port information. ">
<polygon fill="#ffffff" stroke="#000000" points="8.0566,-148.5 8.0566,-166.5 76.874,-166.5 76.874,-148.5 8.0566,-148.5"/>
<text text-anchor="middle" x="42.4653" y="-154.5" font-family="Helvetica,sans-Serif" font-size="10.00" fill="#000000">_port_info_t</text>
</a>
</g>
</g>
<!-- Node21&#45;&gt;Node19 -->
<g id="edge26" class="edge">
<title>Node21&#45;&gt;Node19</title>
<path fill="none" stroke="#9a32cd" stroke-dasharray="5,2" d="M87.2695,-155.8856C104.0891,-155.8224 123.34,-156.3988 140.7334,-158.5 151.2379,-159.769 162.6493,-162.2482 172.3743,-164.7044"/>
<polygon fill="#9a32cd" stroke="#9a32cd" points="87.1092,-152.3871 77.1494,-155.9997 87.1882,-159.3867 87.1092,-152.3871"/>
<text text-anchor="middle" x="121.832" y="-160.5" font-family="Helvetica,sans-Serif" font-size="10.00" fill="#000000"> info</text>
</g>
<!-- Node22 -->
<g id="node22" class="node">
<title>Node22</title>
<g id="a_node22"><a xlink:href="struct__port__stat__t.html" target="_top" xlink:title="The structure of port statistics. ">
<polygon fill="#ffffff" stroke="#000000" points="8.0591,-111.5 8.0591,-129.5 76.8716,-129.5 76.8716,-111.5 8.0591,-111.5"/>
<text text-anchor="middle" x="42.4653" y="-117.5" font-family="Helvetica,sans-Serif" font-size="10.00" fill="#000000">_port_stat_t</text>
</a>
</g>
</g>
<!-- Node22&#45;&gt;Node19 -->
<g id="edge27" class="edge">
<title>Node22&#45;&gt;Node19</title>
<path fill="none" stroke="#9a32cd" stroke-dasharray="5,2" d="M87.4377,-127.9939C104.4217,-131.4893 123.7397,-136.2768 140.7334,-142.5 155.0163,-147.7305 170.2625,-155.9132 181.1468,-162.2549"/>
<polygon fill="#9a32cd" stroke="#9a32cd" points="87.6932,-124.4773 77.206,-125.9833 86.3434,-131.3459 87.6932,-124.4773"/>
<text text-anchor="middle" x="121.832" y="-144.5" font-family="Helvetica,sans-Serif" font-size="10.00" fill="#000000"> stat</text>
</g>
<!-- Node23 -->
<g id="node23" class="node">
<title>Node23</title>
<g id="a_node23"><a xlink:href="struct__switch__t.html" target="_top" xlink:title="The structure of a switch. ">
<polygon fill="#ffffff" stroke="#000000" points="167.3467,-56.5 167.3467,-74.5 225.0313,-74.5 225.0313,-56.5 167.3467,-56.5"/>
<text text-anchor="middle" x="196.189" y="-62.5" font-family="Helvetica,sans-Serif" font-size="10.00" fill="#000000">_switch_t</text>
</a>
</g>
</g>
<!-- Node23&#45;&gt;Node6 -->
<g id="edge28" class="edge">
<title>Node23&#45;&gt;Node6</title>
<path fill="none" stroke="#9a32cd" stroke-dasharray="5,2" d="M218.3744,-80.4936C243.5031,-98.7942 283.5229,-132.2059 303.3291,-171.5 328.5928,-221.6215 291.3028,-249.078 321.3291,-296.5 323.5092,-299.9431 326.6131,-302.8732 329.9487,-305.3067"/>
<polygon fill="#9a32cd" stroke="#9a32cd" points="220.345,-77.6003 210.1647,-74.6658 216.2931,-83.3083 220.345,-77.6003"/>
<text text-anchor="middle" x="277.4868" y="-173.5" font-family="Helvetica,sans-Serif" font-size="10.00" fill="#000000"> sw</text>
</g>
<!-- Node24 -->
<g id="node24" class="node">
<title>Node24</title>
<g id="a_node24"><a xlink:href="struct__switch__stat__t.html" target="_top" xlink:title="The structure of switch statistics. ">
<polygon fill="#ffffff" stroke="#000000" points="2.7832,-.5 2.7832,-18.5 82.1475,-18.5 82.1475,-.5 2.7832,-.5"/>
<text text-anchor="middle" x="42.4653" y="-6.5" font-family="Helvetica,sans-Serif" font-size="10.00" fill="#000000">_switch_stat_t</text>
</a>
</g>
</g>
<!-- Node24&#45;&gt;Node23 -->
<g id="edge29" class="edge">
<title>Node24&#45;&gt;Node23</title>
<path fill="none" stroke="#9a32cd" stroke-dasharray="5,2" d="M84.597,-21.5972C102.1199,-26.936 122.5705,-33.5688 140.7334,-40.5 153.2642,-45.2819 167.0102,-51.472 177.6818,-56.4962"/>
<polygon fill="#9a32cd" stroke="#9a32cd" points="85.2416,-18.1364 74.6574,-18.6109 83.2274,-24.8404 85.2416,-18.1364"/>
<text text-anchor="middle" x="121.832" y="-42.5" font-family="Helvetica,sans-Serif" font-size="10.00" fill="#000000"> stat</text>
</g>
<!-- Node25 -->
<g id="node25" class="node">
<title>Node25</title>
<g id="a_node25"><a xlink:href="struct__switch__desc__t.html" target="_top" xlink:title="The structure of a set of switch descriptions. ">
<polygon fill="#ffffff" stroke="#000000" points=".2808,-74.5 .2808,-92.5 84.6499,-92.5 84.6499,-74.5 .2808,-74.5"/>
<text text-anchor="middle" x="42.4653" y="-80.5" font-family="Helvetica,sans-Serif" font-size="10.00" fill="#000000">_switch_desc_t</text>
</a>
</g>
</g>
<!-- Node25&#45;&gt;Node23 -->
<g id="edge30" class="edge">
<title>Node25&#45;&gt;Node23</title>
<path fill="none" stroke="#9a32cd" stroke-dasharray="5,2" d="M94.9578,-77.3535C119.0615,-74.5311 146.7314,-71.2911 167.0445,-68.9126"/>
<polygon fill="#9a32cd" stroke="#9a32cd" points="94.403,-73.8944 84.8779,-78.5338 95.2171,-80.8469 94.403,-73.8944"/>
<text text-anchor="middle" x="121.832" y="-78.5" font-family="Helvetica,sans-Serif" font-size="10.00" fill="#000000"> desc</text>
</g>
<!-- Node26 -->
<g id="node26" class="node">
<title>Node26</title>
<g id="a_node26"><a xlink:href="struct__switch__conn__t.html" target="_top" xlink:title="The structure of a switch connection. ">
<polygon fill="#ffffff" stroke="#000000" points="0,-37.5 0,-55.5 84.9307,-55.5 84.9307,-37.5 0,-37.5"/>
<text text-anchor="middle" x="42.4653" y="-43.5" font-family="Helvetica,sans-Serif" font-size="10.00" fill="#000000">_switch_conn_t</text>
</a>
</g>
</g>
<!-- Node26&#45;&gt;Node23 -->
<g id="edge31" class="edge">
<title>Node26&#45;&gt;Node23</title>
<path fill="none" stroke="#9a32cd" stroke-dasharray="5,2" d="M95.0306,-52.8791C109.8152,-54.6842 125.9052,-56.6588 140.7334,-58.5 149.3042,-59.5642 158.6183,-60.7346 167.1229,-61.8086"/>
<polygon fill="#9a32cd" stroke="#9a32cd" points="95.3854,-49.3965 85.0352,-51.6603 94.538,-56.3451 95.3854,-49.3965"/>
<text text-anchor="middle" x="121.832" y="-60.5" font-family="Helvetica,sans-Serif" font-size="10.00" fill="#000000"> conn</text>
</g>
<!-- Node27 -->
<g id="node27" class="node">
<title>Node27</title>
<g id="a_node27"><a xlink:href="struct__odp__t.html" target="_top" xlink:title="The structure of an operator&#45;defined policy. ">
<polygon fill="#ffffff" stroke="#000000" points="325.2183,-268.5 325.2183,-286.5 371.8042,-286.5 371.8042,-268.5 325.2183,-268.5"/>
<text text-anchor="middle" x="348.5112" y="-274.5" font-family="Helvetica,sans-Serif" font-size="10.00" fill="#000000">_odp_t</text>
</a>
</g>
</g>
<!-- Node27&#45;&gt;Node1 -->
<g id="edge32" class="edge">
<title>Node27&#45;&gt;Node1</title>
<path fill="none" stroke="#9a32cd" stroke-dasharray="5,2" d="M381.6983,-286.8799C396.4401,-291.0482 414.003,-296.0164 429.8311,-300.5 435.5717,-302.1262 441.6877,-303.8601 447.5892,-305.534"/>
<polygon fill="#9a32cd" stroke="#9a32cd" points="382.5743,-283.4904 371.9992,-284.1378 380.6698,-290.2264 382.5743,-283.4904"/>
<text text-anchor="middle" x="411.7622" y="-302.5" font-family="Helvetica,sans-Serif" font-size="10.00" fill="#000000"> odp</text>
</g>
</g>
</svg>
