<?xml version="1.0" encoding="UTF-8" standalone="no"?>
<!DOCTYPE svg PUBLIC "-//W3C//DTD SVG 1.1//EN"
 "http://www.w3.org/Graphics/SVG/1.1/DTD/svg11.dtd">
<!-- Generated by graphviz version 2.40.1 (20161225.0304)
 -->
<!-- Title: _event_out_t Pages: 1 -->
<svg width="381pt" height="397pt"
 viewBox="0.00 0.00 380.95 397.00" xmlns="http://www.w3.org/2000/svg" xmlns:xlink="http://www.w3.org/1999/xlink">
<g id="graph0" class="graph" transform="scale(1 1) rotate(0) translate(4 393)">
<title>_event_out_t</title>
<polygon fill="#ffffff" stroke="transparent" points="-4,4 -4,-393 376.9492,-393 376.9492,4 -4,4"/>
<!-- Node1 -->
<g id="node1" class="node">
<title>Node1</title>
<polygon fill="#bfbfbf" stroke="#000000" points="299.1221,-212.5 299.1221,-230.5 372.9492,-230.5 372.9492,-212.5 299.1221,-212.5"/>
<text text-anchor="middle" x="336.0356" y="-218.5" font-family="Helvetica,sans-Serif" font-size="10.00" fill="#000000">_event_out_t</text>
</g>
<!-- Node2 -->
<g id="node2" class="node">
<title>Node2</title>
<g id="a_node2"><a xlink:href="struct__host__t.html" target="_top" xlink:title="The structure of a host. ">
<polygon fill="#ffffff" stroke="#000000" points="163.1743,-344.5 163.1743,-362.5 211.9771,-362.5 211.9771,-344.5 163.1743,-344.5"/>
<text text-anchor="middle" x="187.5757" y="-350.5" font-family="Helvetica,sans-Serif" font-size="10.00" fill="#000000">_host_t</text>
</a>
</g>
</g>
<!-- Node2&#45;&gt;Node1 -->
<g id="edge1" class="edge">
<title>Node2&#45;&gt;Node1</title>
<path fill="none" stroke="#9a32cd" stroke-dasharray="5,2" d="M212.1166,-338.6746C213.5941,-337.6318 215.0391,-336.5694 216.418,-335.5 261.5296,-300.5141 308.7873,-251.0343 327.5953,-230.7348"/>
<polygon fill="#9a32cd" stroke="#9a32cd" points="209.948,-335.9124 203.5334,-344.3447 213.8064,-341.753 209.948,-335.9124"/>
<text text-anchor="middle" x="257.77" y="-319.5" font-family="Helvetica,sans-Serif" font-size="10.00" fill="#000000"> host_data</text>
</g>
<!-- Node3 -->
<g id="node3" class="node">
<title>Node3</title>
<g id="a_node3"><a xlink:href="struct__flow__t.html" target="_top" xlink:title="The structure of a flow. ">
<polygon fill="#ffffff" stroke="#000000" points="163.7334,-259.5 163.7334,-277.5 211.418,-277.5 211.418,-259.5 163.7334,-259.5"/>
<text text-anchor="middle" x="187.5757" y="-265.5" font-family="Helvetica,sans-Serif" font-size="10.00" fill="#000000">_flow_t</text>
</a>
</g>
</g>
<!-- Node3&#45;&gt;Node1 -->
<g id="edge2" class="edge">
<title>Node3&#45;&gt;Node1</title>
<path fill="none" stroke="#9a32cd" stroke-dasharray="5,2" d="M221.2231,-257.8478C247.2113,-249.6203 282.7813,-238.3595 307.4124,-230.5616"/>
<polygon fill="#9a32cd" stroke="#9a32cd" points="219.9056,-254.5936 211.4283,-260.9486 222.0184,-261.2672 219.9056,-254.5936"/>
<text text-anchor="middle" x="257.77" y="-254.5" font-family="Helvetica,sans-Serif" font-size="10.00" fill="#000000"> flow_data</text>
</g>
<!-- Node3&#45;&gt;Node3 -->
<g id="edge6" class="edge">
<title>Node3&#45;&gt;Node3</title>
<path fill="none" stroke="#9a32cd" stroke-dasharray="5,2" d="M175.6768,-287.2336C176.3438,-292.2195 180.3101,-296 187.5757,-296 199.2007,-296 202.3794,-286.322 197.1118,-277.5134"/>
<polygon fill="#9a32cd" stroke="#9a32cd" points="179.0785,-288.0572 178.0396,-277.5134 172.2765,-286.4038 179.0785,-288.0572"/>
<text text-anchor="middle" x="187.5757" y="-318" font-family="Helvetica,sans-Serif" font-size="10.00" fill="#000000"> r_next</text>
<text text-anchor="middle" x="187.5757" y="-308" font-family="Helvetica,sans-Serif" font-size="10.00" fill="#000000">prev</text>
<text text-anchor="middle" x="187.5757" y="-298" font-family="Helvetica,sans-Serif" font-size="10.00" fill="#000000">next</text>
</g>
<!-- Node4 -->
<g id="node4" class="node">
<title>Node4</title>
<g id="a_node4"><a xlink:href="struct__pkt__info__t.html" target="_top" xlink:title="The structure of a packet. ">
<polygon fill="#ffffff" stroke="#000000" points="10.0024,-370.5 10.0024,-388.5 74.9282,-388.5 74.9282,-370.5 10.0024,-370.5"/>
<text text-anchor="middle" x="42.4653" y="-376.5" font-family="Helvetica,sans-Serif" font-size="10.00" fill="#000000">_pkt_info_t</text>
</a>
</g>
</g>
<!-- Node4&#45;&gt;Node3 -->
<g id="edge3" class="edge">
<title>Node4&#45;&gt;Node3</title>
<path fill="none" stroke="#9a32cd" stroke-dasharray="5,2" d="M84.5168,-367.0461C103.1078,-360.1172 124.4042,-350.0981 140.7334,-336.5 161.0028,-319.6207 176.3338,-291.8765 183.3541,-277.6055"/>
<polygon fill="#9a32cd" stroke="#9a32cd" points="83.3381,-363.7505 75.0821,-370.3905 85.6769,-370.3482 83.3381,-363.7505"/>
<text text-anchor="middle" x="121.832" y="-370.5" font-family="Helvetica,sans-Serif" font-size="10.00" fill="#000000"> pkt_info</text>
<text text-anchor="middle" x="121.832" y="-360.5" font-family="Helvetica,sans-Serif" font-size="10.00" fill="#000000">match</text>
</g>
<!-- Node5 -->
<g id="node5" class="node">
<title>Node5</title>
<g id="a_node5"><a xlink:href="struct__flow__meta__t.html" target="_top" xlink:title="The structure of flow metadata. ">
<polygon fill="#ffffff" stroke="#000000" points="4.7266,-333.5 4.7266,-351.5 80.2041,-351.5 80.2041,-333.5 4.7266,-333.5"/>
<text text-anchor="middle" x="42.4653" y="-339.5" font-family="Helvetica,sans-Serif" font-size="10.00" fill="#000000">_flow_meta_t</text>
</a>
</g>
</g>
<!-- Node5&#45;&gt;Node3 -->
<g id="edge4" class="edge">
<title>Node5&#45;&gt;Node3</title>
<path fill="none" stroke="#9a32cd" stroke-dasharray="5,2" d="M83.3784,-330.2594C101.5272,-324.0398 122.789,-315.6395 140.7334,-305.5 154.6281,-297.6488 168.7569,-285.8541 177.81,-277.7016"/>
<polygon fill="#9a32cd" stroke="#9a32cd" points="82.0443,-327.0144 73.6569,-333.4875 84.2504,-333.6577 82.0443,-327.0144"/>
<text text-anchor="middle" x="121.832" y="-324.5" font-family="Helvetica,sans-Serif" font-size="10.00" fill="#000000"> meta</text>
</g>
<!-- Node6 -->
<g id="node6" class="node">
<title>Node6</title>
<g id="a_node6"><a xlink:href="struct__action__t.html" target="_top" xlink:title="The structure of an action. ">
<polygon fill="#ffffff" stroke="#000000" points="14.1724,-296.5 14.1724,-314.5 70.7583,-314.5 70.7583,-296.5 14.1724,-296.5"/>
<text text-anchor="middle" x="42.4653" y="-302.5" font-family="Helvetica,sans-Serif" font-size="10.00" fill="#000000">_action_t</text>
</a>
</g>
</g>
<!-- Node6&#45;&gt;Node3 -->
<g id="edge5" class="edge">
<title>Node6&#45;&gt;Node3</title>
<path fill="none" stroke="#9a32cd" stroke-dasharray="5,2" d="M80.9143,-297.0678C99.1131,-292.9319 121.1097,-287.7239 140.7334,-282.5 148.1153,-280.5349 156.0964,-278.2212 163.3429,-276.0468"/>
<polygon fill="#9a32cd" stroke="#9a32cd" points="79.9466,-293.6979 70.96,-299.3095 81.4846,-300.5269 79.9466,-293.6979"/>
<text text-anchor="middle" x="121.832" y="-293.5" font-family="Helvetica,sans-Serif" font-size="10.00" fill="#000000"> action</text>
</g>
<!-- Node7 -->
<g id="node7" class="node">
<title>Node7</title>
<g id="a_node7"><a xlink:href="struct__flow__stat__t.html" target="_top" xlink:title="The structure of flow statistics. ">
<polygon fill="#ffffff" stroke="#000000" points="7.7832,-259.5 7.7832,-277.5 77.1475,-277.5 77.1475,-259.5 7.7832,-259.5"/>
<text text-anchor="middle" x="42.4653" y="-265.5" font-family="Helvetica,sans-Serif" font-size="10.00" fill="#000000">_flow_stat_t</text>
</a>
</g>
</g>
<!-- Node7&#45;&gt;Node3 -->
<g id="edge7" class="edge">
<title>Node7&#45;&gt;Node3</title>
<path fill="none" stroke="#9a32cd" stroke-dasharray="5,2" d="M87.2857,-268.5C112.4477,-268.5 142.8484,-268.5 163.5361,-268.5"/>
<polygon fill="#9a32cd" stroke="#9a32cd" points="87.2229,-265.0001 77.2229,-268.5 87.2228,-272.0001 87.2229,-265.0001"/>
<text text-anchor="middle" x="121.832" y="-270.5" font-family="Helvetica,sans-Serif" font-size="10.00" fill="#000000"> stat</text>
</g>
<!-- Node8 -->
<g id="node8" class="node">
<title>Node8</title>
<g id="a_node8"><a xlink:href="struct__flow__info__t.html" target="_top" xlink:title="The structure of flow information. ">
<polygon fill="#ffffff" stroke="#000000" points="7.7808,-222.5 7.7808,-240.5 77.1499,-240.5 77.1499,-222.5 7.7808,-222.5"/>
<text text-anchor="middle" x="42.4653" y="-228.5" font-family="Helvetica,sans-Serif" font-size="10.00" fill="#000000">_flow_info_t</text>
</a>
</g>
</g>
<!-- Node8&#45;&gt;Node3 -->
<g id="edge8" class="edge">
<title>Node8&#45;&gt;Node3</title>
<path fill="none" stroke="#9a32cd" stroke-dasharray="5,2" d="M87.2765,-241.3868C104.0969,-245.2556 123.3465,-249.8716 140.7334,-254.5 148.1153,-256.4651 156.0964,-258.7788 163.3429,-260.9532"/>
<polygon fill="#9a32cd" stroke="#9a32cd" points="87.6833,-237.8898 77.1556,-239.081 86.1283,-244.715 87.6833,-237.8898"/>
<text text-anchor="middle" x="121.832" y="-256.5" font-family="Helvetica,sans-Serif" font-size="10.00" fill="#000000"> info</text>
</g>
<!-- Node9 -->
<g id="node9" class="node">
<title>Node9</title>
<g id="a_node9"><a xlink:href="struct__port__t.html" target="_top" xlink:title="The structure of a port. ">
<polygon fill="#ffffff" stroke="#000000" points="164.0093,-167.5 164.0093,-185.5 211.1421,-185.5 211.1421,-167.5 164.0093,-167.5"/>
<text text-anchor="middle" x="187.5757" y="-173.5" font-family="Helvetica,sans-Serif" font-size="10.00" fill="#000000">_port_t</text>
</a>
</g>
</g>
<!-- Node9&#45;&gt;Node1 -->
<g id="edge9" class="edge">
<title>Node9&#45;&gt;Node1</title>
<path fill="none" stroke="#9a32cd" stroke-dasharray="5,2" d="M221.061,-186.6498C246.6026,-194.3918 281.4692,-204.9603 306.0903,-212.4232"/>
<polygon fill="#9a32cd" stroke="#9a32cd" points="222.0137,-183.2814 211.4283,-183.73 219.9831,-189.9804 222.0137,-183.2814"/>
<text text-anchor="middle" x="257.77" y="-205.5" font-family="Helvetica,sans-Serif" font-size="10.00" fill="#000000"> port_data</text>
</g>
<!-- Node10 -->
<g id="node10" class="node">
<title>Node10</title>
<g id="a_node10"><a xlink:href="struct__port__link__t.html" target="_top" xlink:title="The structure of a link. ">
<polygon fill="#ffffff" stroke="#000000" points="8.6157,-185.5 8.6157,-203.5 76.3149,-203.5 76.3149,-185.5 8.6157,-185.5"/>
<text text-anchor="middle" x="42.4653" y="-191.5" font-family="Helvetica,sans-Serif" font-size="10.00" fill="#000000">_port_link_t</text>
</a>
</g>
</g>
<!-- Node10&#45;&gt;Node9 -->
<g id="edge10" class="edge">
<title>Node10&#45;&gt;Node9</title>
<path fill="none" stroke="#9a32cd" stroke-dasharray="5,2" d="M86.6199,-189.0229C111.9903,-185.8759 142.8619,-182.0465 163.7356,-179.4572"/>
<polygon fill="#9a32cd" stroke="#9a32cd" points="85.9803,-185.5753 76.4873,-190.2798 86.8421,-192.5221 85.9803,-185.5753"/>
<text text-anchor="middle" x="121.832" y="-188.5" font-family="Helvetica,sans-Serif" font-size="10.00" fill="#000000"> link</text>
</g>
<!-- Node11 -->
<g id="node11" class="node">
<title>Node11</title>
<g id="a_node11"><a xlink:href="struct__port__info__t.html" target="_top" xlink:title="The structure of port information. ">
<polygon fill="#ffffff" stroke="#000000" points="8.0566,-148.5 8.0566,-166.5 76.874,-166.5 76.874,-148.5 8.0566,-148.5"/>
<text text-anchor="middle" x="42.4653" y="-154.5" font-family="Helvetica,sans-Serif" font-size="10.00" fill="#000000">_port_info_t</text>
</a>
</g>
</g>
<!-- Node11&#45;&gt;Node9 -->
<g id="edge11" class="edge">
<title>Node11&#45;&gt;Node9</title>
<path fill="none" stroke="#9a32cd" stroke-dasharray="5,2" d="M87.2375,-161.2145C104.0536,-162.8305 123.3104,-164.9448 140.7334,-167.5 148.2714,-168.6055 156.4411,-170.0788 163.815,-171.5127"/>
<polygon fill="#9a32cd" stroke="#9a32cd" points="87.4021,-157.7148 77.1208,-160.2733 86.7535,-164.6847 87.4021,-157.7148"/>
<text text-anchor="middle" x="121.832" y="-169.5" font-family="Helvetica,sans-Serif" font-size="10.00" fill="#000000"> info</text>
</g>
<!-- Node12 -->
<g id="node12" class="node">
<title>Node12</title>
<g id="a_node12"><a xlink:href="struct__port__stat__t.html" target="_top" xlink:title="The structure of port statistics. ">
<polygon fill="#ffffff" stroke="#000000" points="8.0591,-111.5 8.0591,-129.5 76.8716,-129.5 76.8716,-111.5 8.0591,-111.5"/>
<text text-anchor="middle" x="42.4653" y="-117.5" font-family="Helvetica,sans-Serif" font-size="10.00" fill="#000000">_port_stat_t</text>
</a>
</g>
</g>
<!-- Node12&#45;&gt;Node9 -->
<g id="edge12" class="edge">
<title>Node12&#45;&gt;Node9</title>
<path fill="none" stroke="#9a32cd" stroke-dasharray="5,2" d="M86.6949,-130.4733C103.9112,-135.03 123.5837,-141.0835 140.7334,-148.5 152.734,-153.6898 165.4083,-161.4208 174.5427,-167.4452"/>
<polygon fill="#9a32cd" stroke="#9a32cd" points="87.4349,-127.05 76.8796,-127.9645 85.7013,-133.832 87.4349,-127.05"/>
<text text-anchor="middle" x="121.832" y="-150.5" font-family="Helvetica,sans-Serif" font-size="10.00" fill="#000000"> stat</text>
</g>
<!-- Node13 -->
<g id="node13" class="node">
<title>Node13</title>
<g id="a_node13"><a xlink:href="struct__switch__t.html" target="_top" xlink:title="The structure of a switch. ">
<polygon fill="#ffffff" stroke="#000000" points="158.7334,-56.5 158.7334,-74.5 216.418,-74.5 216.418,-56.5 158.7334,-56.5"/>
<text text-anchor="middle" x="187.5757" y="-62.5" font-family="Helvetica,sans-Serif" font-size="10.00" fill="#000000">_switch_t</text>
</a>
</g>
</g>
<!-- Node13&#45;&gt;Node1 -->
<g id="edge13" class="edge">
<title>Node13&#45;&gt;Node1</title>
<path fill="none" stroke="#9a32cd" stroke-dasharray="5,2" d="M203.5221,-82.2563C234.8134,-115.1369 303.3085,-187.1107 327.4257,-212.4528"/>
<polygon fill="#9a32cd" stroke="#9a32cd" points="205.8472,-79.6225 196.4179,-74.7913 200.7764,-84.4482 205.8472,-79.6225"/>
<text text-anchor="middle" x="257.77" y="-163.5" font-family="Helvetica,sans-Serif" font-size="10.00" fill="#000000"> sw_data</text>
</g>
<!-- Node14 -->
<g id="node14" class="node">
<title>Node14</title>
<g id="a_node14"><a xlink:href="struct__switch__stat__t.html" target="_top" xlink:title="The structure of switch statistics. ">
<polygon fill="#ffffff" stroke="#000000" points="2.7832,-74.5 2.7832,-92.5 82.1475,-92.5 82.1475,-74.5 2.7832,-74.5"/>
<text text-anchor="middle" x="42.4653" y="-80.5" font-family="Helvetica,sans-Serif" font-size="10.00" fill="#000000">_switch_stat_t</text>
</a>
</g>
</g>
<!-- Node14&#45;&gt;Node13 -->
<g id="edge14" class="edge">
<title>Node14&#45;&gt;Node13</title>
<path fill="none" stroke="#9a32cd" stroke-dasharray="5,2" d="M92.7142,-77.267C114.7698,-74.5311 139.8716,-71.4174 158.7113,-69.0804"/>
<polygon fill="#9a32cd" stroke="#9a32cd" points="91.9946,-73.8293 82.5015,-78.5338 92.8563,-80.7761 91.9946,-73.8293"/>
<text text-anchor="middle" x="121.832" y="-77.5" font-family="Helvetica,sans-Serif" font-size="10.00" fill="#000000"> stat</text>
</g>
<!-- Node15 -->
<g id="node15" class="node">
<title>Node15</title>
<g id="a_node15"><a xlink:href="struct__switch__desc__t.html" target="_top" xlink:title="The structure of a set of switch descriptions. ">
<polygon fill="#ffffff" stroke="#000000" points=".2808,-37.5 .2808,-55.5 84.6499,-55.5 84.6499,-37.5 .2808,-37.5"/>
<text text-anchor="middle" x="42.4653" y="-43.5" font-family="Helvetica,sans-Serif" font-size="10.00" fill="#000000">_switch_desc_t</text>
</a>
</g>
</g>
<!-- Node15&#45;&gt;Node13 -->
<g id="edge15" class="edge">
<title>Node15&#45;&gt;Node13</title>
<path fill="none" stroke="#9a32cd" stroke-dasharray="5,2" d="M95.132,-50.9931C109.9176,-52.4895 125.9827,-54.3367 140.7334,-56.5 146.5507,-57.3531 152.7444,-58.4253 158.6581,-59.5294"/>
<polygon fill="#9a32cd" stroke="#9a32cd" points="95.4257,-47.5052 85.1321,-50.0136 94.7433,-54.4718 95.4257,-47.5052"/>
<text text-anchor="middle" x="121.832" y="-58.5" font-family="Helvetica,sans-Serif" font-size="10.00" fill="#000000"> desc</text>
</g>
<!-- Node16 -->
<g id="node16" class="node">
<title>Node16</title>
<g id="a_node16"><a xlink:href="struct__switch__conn__t.html" target="_top" xlink:title="The structure of a switch connection. ">
<polygon fill="#ffffff" stroke="#000000" points="0,-.5 0,-18.5 84.9307,-18.5 84.9307,-.5 0,-.5"/>
<text text-anchor="middle" x="42.4653" y="-6.5" font-family="Helvetica,sans-Serif" font-size="10.00" fill="#000000">_switch_conn_t</text>
</a>
</g>
</g>
<!-- Node16&#45;&gt;Node13 -->
<g id="edge16" class="edge">
<title>Node16&#45;&gt;Node13</title>
<path fill="none" stroke="#9a32cd" stroke-dasharray="5,2" d="M92.9869,-21.1772C108.5938,-25.5017 125.6406,-30.973 140.7334,-37.5 152.734,-42.6898 165.4083,-50.4208 174.5427,-56.4452"/>
<polygon fill="#9a32cd" stroke="#9a32cd" points="93.5385,-17.7019 82.9739,-18.5015 91.7313,-24.4646 93.5385,-17.7019"/>
<text text-anchor="middle" x="121.832" y="-39.5" font-family="Helvetica,sans-Serif" font-size="10.00" fill="#000000"> conn</text>
</g>
</g>
</svg>
