<?xml version="1.0" encoding="UTF-8" standalone="no"?>
<!DOCTYPE svg PUBLIC "-//W3C//DTD SVG 1.1//EN"
 "http://www.w3.org/Graphics/SVG/1.1/DTD/svg11.dtd">
<!-- Generated by graphviz version 2.40.1 (20161225.0304)
 -->
<!-- Title: _flow_queue_t Pages: 1 -->
<svg width="121pt" height="178pt"
 viewBox="0.00 0.00 120.94 178.00" xmlns="http://www.w3.org/2000/svg" xmlns:xlink="http://www.w3.org/1999/xlink">
<g id="graph0" class="graph" transform="scale(1 1) rotate(0) translate(4 174)">
<title>_flow_queue_t</title>
<polygon fill="#ffffff" stroke="transparent" points="-4,4 -4,-174 116.9404,-174 116.9404,4 -4,4"/>
<!-- Node1 -->
<g id="node1" class="node">
<title>Node1</title>
<polygon fill="#bfbfbf" stroke="#000000" points="0,-.5 0,-18.5 81.0537,-18.5 81.0537,-.5 0,-.5"/>
<text text-anchor="middle" x="40.5269" y="-6.5" font-family="Helvetica,sans-Serif" font-size="10.00" fill="#000000">_flow_queue_t</text>
</g>
<!-- Node2 -->
<g id="node2" class="node">
<title>Node2</title>
<g id="a_node2"><a xlink:href="struct__flow__t.html" target="_top" xlink:title="The structure of a flow. ">
<polygon fill="#ffffff" stroke="#000000" points="16.6846,-81 16.6846,-99 64.3691,-99 64.3691,-81 16.6846,-81"/>
<text text-anchor="middle" x="40.5269" y="-87" font-family="Helvetica,sans-Serif" font-size="10.00" fill="#000000">_flow_t</text>
</a>
</g>
</g>
<!-- Node2&#45;&gt;Node1 -->
<g id="edge1" class="edge">
<title>Node2&#45;&gt;Node1</title>
<path fill="none" stroke="#9a32cd" stroke-dasharray="5,2" d="M40.5269,-70.5894C40.5269,-54.1062 40.5269,-31.1843 40.5269,-18.6267"/>
<polygon fill="#9a32cd" stroke="#9a32cd" points="37.027,-70.7656 40.5269,-80.7656 44.027,-70.7657 37.027,-70.7656"/>
<text text-anchor="middle" x="53.0391" y="-49" font-family="Helvetica,sans-Serif" font-size="10.00" fill="#000000"> head</text>
<text text-anchor="middle" x="53.0391" y="-39" font-family="Helvetica,sans-Serif" font-size="10.00" fill="#000000">tail</text>
</g>
<!-- Node2&#45;&gt;Node2 -->
<g id="edge3" class="edge">
<title>Node2&#45;&gt;Node2</title>
<path fill="none" stroke="#9a32cd" stroke-dasharray="5,2" d="M74.8222,-96.2867C79.3591,-95.2162 82.3691,-93.1207 82.3691,-90 82.3691,-84.8789 74.2632,-82.5184 64.6058,-82.9185"/>
<polygon fill="#9a32cd" stroke="#9a32cd" points="74.3041,-92.8163 64.6058,-97.0815 74.8472,-99.7952 74.3041,-92.8163"/>
<text text-anchor="middle" x="97.6548" y="-97" font-family="Helvetica,sans-Serif" font-size="10.00" fill="#000000"> r_next</text>
<text text-anchor="middle" x="97.6548" y="-87" font-family="Helvetica,sans-Serif" font-size="10.00" fill="#000000">prev</text>
<text text-anchor="middle" x="97.6548" y="-77" font-family="Helvetica,sans-Serif" font-size="10.00" fill="#000000">next</text>
</g>
<!-- Node3 -->
<g id="node3" class="node">
<title>Node3</title>
<g id="a_node3"><a xlink:href="struct__action__t.html" target="_top" xlink:title="The structure of an action. ">
<polygon fill="#ffffff" stroke="#000000" points="12.2339,-151.5 12.2339,-169.5 68.8198,-169.5 68.8198,-151.5 12.2339,-151.5"/>
<text text-anchor="middle" x="40.5269" y="-157.5" font-family="Helvetica,sans-Serif" font-size="10.00" fill="#000000">_action_t</text>
</a>
</g>
</g>
<!-- Node3&#45;&gt;Node2 -->
<g id="edge2" class="edge">
<title>Node3&#45;&gt;Node2</title>
<path fill="none" stroke="#9a32cd" stroke-dasharray="5,2" d="M40.5269,-141.0661C40.5269,-127.5192 40.5269,-110.0407 40.5269,-99.4439"/>
<polygon fill="#9a32cd" stroke="#9a32cd" points="37.027,-141.2833 40.5269,-151.2834 44.027,-141.2834 37.027,-141.2833"/>
<text text-anchor="middle" x="55.2583" y="-125" font-family="Helvetica,sans-Serif" font-size="10.00" fill="#000000"> action</text>
</g>
</g>
</svg>
