<?xml version="1.0" encoding="UTF-8" standalone="no"?>
<!DOCTYPE svg PUBLIC "-//W3C//DTD SVG 1.1//EN"
 "http://www.w3.org/Graphics/SVG/1.1/DTD/svg11.dtd">
<!-- Generated by graphviz version 2.40.1 (20161225.0304)
 -->
<!-- Title: _flow_table_t Pages: 1 -->
<svg width="118pt" height="178pt"
 viewBox="0.00 0.00 117.88 178.00" xmlns="http://www.w3.org/2000/svg" xmlns:xlink="http://www.w3.org/1999/xlink">
<g id="graph0" class="graph" transform="scale(1 1) rotate(0) translate(4 174)">
<title>_flow_table_t</title>
<polygon fill="#ffffff" stroke="transparent" points="-4,4 -4,-174 113.8789,-174 113.8789,4 -4,4"/>
<!-- Node1 -->
<g id="node1" class="node">
<title>Node1</title>
<polygon fill="#bfbfbf" stroke="#000000" points="0,-.5 0,-18.5 74.9307,-18.5 74.9307,-.5 0,-.5"/>
<text text-anchor="middle" x="37.4653" y="-6.5" font-family="Helvetica,sans-Serif" font-size="10.00" fill="#000000">_flow_table_t</text>
</g>
<!-- Node2 -->
<g id="node2" class="node">
<title>Node2</title>
<g id="a_node2"><a xlink:href="struct__flow__t.html" target="_top" xlink:title="The structure of a flow. ">
<polygon fill="#ffffff" stroke="#000000" points="13.623,-81 13.623,-99 61.3076,-99 61.3076,-81 13.623,-81"/>
<text text-anchor="middle" x="37.4653" y="-87" font-family="Helvetica,sans-Serif" font-size="10.00" fill="#000000">_flow_t</text>
</a>
</g>
</g>
<!-- Node2&#45;&gt;Node1 -->
<g id="edge1" class="edge">
<title>Node2&#45;&gt;Node1</title>
<path fill="none" stroke="#9a32cd" stroke-dasharray="5,2" d="M37.4653,-70.5894C37.4653,-54.1062 37.4653,-31.1843 37.4653,-18.6267"/>
<polygon fill="#9a32cd" stroke="#9a32cd" points="33.9654,-70.7656 37.4653,-80.7656 40.9654,-70.7657 33.9654,-70.7656"/>
<text text-anchor="middle" x="49.9775" y="-49" font-family="Helvetica,sans-Serif" font-size="10.00" fill="#000000"> head</text>
<text text-anchor="middle" x="49.9775" y="-39" font-family="Helvetica,sans-Serif" font-size="10.00" fill="#000000">tail</text>
</g>
<!-- Node2&#45;&gt;Node2 -->
<g id="edge3" class="edge">
<title>Node2&#45;&gt;Node2</title>
<path fill="none" stroke="#9a32cd" stroke-dasharray="5,2" d="M71.7607,-96.2867C76.2976,-95.2162 79.3076,-93.1207 79.3076,-90 79.3076,-84.8789 71.2017,-82.5184 61.5443,-82.9185"/>
<polygon fill="#9a32cd" stroke="#9a32cd" points="71.2426,-92.8163 61.5443,-97.0815 71.7856,-99.7952 71.2426,-92.8163"/>
<text text-anchor="middle" x="94.5933" y="-97" font-family="Helvetica,sans-Serif" font-size="10.00" fill="#000000"> r_next</text>
<text text-anchor="middle" x="94.5933" y="-87" font-family="Helvetica,sans-Serif" font-size="10.00" fill="#000000">prev</text>
<text text-anchor="middle" x="94.5933" y="-77" font-family="Helvetica,sans-Serif" font-size="10.00" fill="#000000">next</text>
</g>
<!-- Node3 -->
<g id="node3" class="node">
<title>Node3</title>
<g id="a_node3"><a xlink:href="struct__action__t.html" target="_top" xlink:title="The structure of an action. ">
<polygon fill="#ffffff" stroke="#000000" points="9.1724,-151.5 9.1724,-169.5 65.7583,-169.5 65.7583,-151.5 9.1724,-151.5"/>
<text text-anchor="middle" x="37.4653" y="-157.5" font-family="Helvetica,sans-Serif" font-size="10.00" fill="#000000">_action_t</text>
</a>
</g>
</g>
<!-- Node3&#45;&gt;Node2 -->
<g id="edge2" class="edge">
<title>Node3&#45;&gt;Node2</title>
<path fill="none" stroke="#9a32cd" stroke-dasharray="5,2" d="M37.4653,-141.0661C37.4653,-127.5192 37.4653,-110.0407 37.4653,-99.4439"/>
<polygon fill="#9a32cd" stroke="#9a32cd" points="33.9654,-141.2833 37.4653,-151.2834 40.9654,-141.2834 33.9654,-141.2833"/>
<text text-anchor="middle" x="52.1968" y="-125" font-family="Helvetica,sans-Serif" font-size="10.00" fill="#000000"> action</text>
</g>
</g>
</svg>
