<?xml version="1.0" encoding="UTF-8" standalone="no"?>
<!DOCTYPE svg PUBLIC "-//W3C//DTD SVG 1.1//EN"
 "http://www.w3.org/Graphics/SVG/1.1/DTD/svg11.dtd">
<!-- Generated by graphviz version 2.40.1 (20161225.0304)
 -->
<!-- Title: components/include/traffic_mgmt.h Pages: 1 -->
<svg width="113pt" height="102pt"
 viewBox="0.00 0.00 112.95 102.00" xmlns="http://www.w3.org/2000/svg" xmlns:xlink="http://www.w3.org/1999/xlink">
<g id="graph0" class="graph" transform="scale(1 1) rotate(0) translate(4 98)">
<title>components/include/traffic_mgmt.h</title>
<polygon fill="#ffffff" stroke="transparent" points="-4,4 -4,-98 108.9453,-98 108.9453,4 -4,4"/>
<!-- Node29 -->
<g id="node1" class="node">
<title>Node29</title>
<polygon fill="#bfbfbf" stroke="#000000" points="0,-65.5 0,-93.5 104.9453,-93.5 104.9453,-65.5 0,-65.5"/>
<text text-anchor="start" x="8" y="-81.5" font-family="Helvetica,sans-Serif" font-size="10.00" fill="#000000">components/include</text>
<text text-anchor="middle" x="52.4727" y="-71.5" font-family="Helvetica,sans-Serif" font-size="10.00" fill="#000000">/traffic_mgmt.h</text>
</g>
<!-- Node30 -->
<g id="node2" class="node">
<title>Node30</title>
<g id="a_node2"><a xlink:href="traffic__mgmt_8c.html" target="_top" xlink:title="components/traffic\l_mgmt.c">
<polygon fill="#ffffff" stroke="#000000" points="3.6206,-.5 3.6206,-28.5 101.3247,-28.5 101.3247,-.5 3.6206,-.5"/>
<text text-anchor="start" x="11.6206" y="-16.5" font-family="Helvetica,sans-Serif" font-size="10.00" fill="#000000">components/traffic</text>
<text text-anchor="middle" x="52.4727" y="-6.5" font-family="Helvetica,sans-Serif" font-size="10.00" fill="#000000">_mgmt.c</text>
</a>
</g>
</g>
<!-- Node29&#45;&gt;Node30 -->
<g id="edge1" class="edge">
<title>Node29&#45;&gt;Node30</title>
<path fill="none" stroke="#191970" d="M52.4727,-55.1081C52.4727,-46.1539 52.4727,-36.3227 52.4727,-28.5765"/>
<polygon fill="#191970" stroke="#191970" points="48.9728,-55.3959 52.4727,-65.396 55.9728,-55.396 48.9728,-55.3959"/>
</g>
</g>
</svg>
